<?xml version="1.0" encoding="UTF-8"?>
<svg id="Layer_1" xmlns="http://www.w3.org/2000/svg" version="1.1" viewBox="0 0 274.24 325">
  <!-- Generator: Adobe Illustrator 29.6.1, SVG Export Plug-In . SVG Version: 2.1.1 Build 9)  -->
  <defs>
    <style>
      .st0 {
        fill: #97d5ff;
      }

      .st1 {
        fill: #ffc325;
      }

      .st2 {
        fill: #ffd7c3;
      }

      .st3, .st4 {
        fill-rule: evenodd;
      }

      .st3, .st5 {
        fill: #fff;
      }

      .st6 {
        fill: #ffce00;
      }

      .st7, .st4 {
        fill: #000002;
      }

      .st8 {
        fill: #414042;
      }

      .st9 {
        fill: #fff4c7;
      }

      .st10 {
        fill: #045b96;
      }

      .st11 {
        fill: #870010;
      }

      .st12 {
        fill: #ffb000;
      }

      .st13 {
        fill: #ed1c24;
      }

      .st14 {
        fill: #fff3ee;
      }

      .st15 {
        fill: #f1f2f2;
      }

      .st16 {
        fill: #f9a11b;
      }

      .st17 {
        fill: #f38b9e;
      }

      .st18 {
        fill: #6f2a0e;
      }

      .st19 {
        fill: #be1e2d;
      }

      .st20 {
        fill: #ff7b85;
      }

      .st21 {
        fill: #fde5d2;
      }

      .st22 {
        fill: #82442f;
      }

      .st23 {
        fill: #ffda00;
      }

      .st24 {
        fill: #fff9ae;
      }

      .st25 {
        fill: #ffc0a4;
      }

      .st26 {
        fill: #1c75bc;
      }

      .st27 {
        fill: #fff200;
      }
    </style>
  </defs>
  <g>
    <g>
      <path class="st21" d="M214.32,264.27c.61,1.53.13,3.16-1.09,3.65-1.22.49-2.7-.36-3.32-1.88-.61-1.53-.12-3.17,1.09-3.65,1.22-.5,2.7.35,3.32,1.88Z"/>
      <path d="M207.46,266.16c.12.33.2.63.25.99-.08-.63-.17-1.26-.25-1.89.02.21.02.42,0,.64.09-.63.17-1.26.25-1.89-.04.31-.1.58-.21.87.24-.56.48-1.13.71-1.7-.07.17-.16.34-.27.49.37-.48.74-.96,1.11-1.44-.1.14-.23.28-.38.4.48-.38.96-.74,1.44-1.11-.15.12-.31.21-.48.27.57-.24,1.13-.47,1.7-.72-.16.06-.33.11-.5.13.63-.09,1.26-.17,1.89-.25-.17.02-.33.01-.51-.01.63.09,1.26.17,1.89.25-.18-.02-.35-.06-.51-.13.57.24,1.13.48,1.7.72-.27-.12-.48-.24-.72-.41.49.38.96.74,1.44,1.12-.23-.2-.42-.4-.62-.64.37.47.74.96,1.11,1.44-.18-.27-.33-.54-.46-.83.24.57.48,1.13.72,1.7-.12-.33-.19-.63-.25-.98.09.62.17,1.26.25,1.89-.03-.21-.03-.43,0-.63-.08.63-.17,1.25-.25,1.89.04-.31.1-.58.21-.87-.24.57-.47,1.14-.72,1.7.07-.17.16-.34.28-.49-.37.48-.74.96-1.11,1.44.11-.16.23-.28.38-.4-.47.37-.96.74-1.44,1.11.15-.12.31-.21.47-.28-.56.24-1.13.47-1.7.72.16-.06.33-.11.5-.13-.62.09-1.25.17-1.89.25.17-.02.34-.02.51,0-.63-.09-1.26-.17-1.89-.25.17.02.34.06.51.13-.57-.24-1.13-.48-1.7-.72.26.12.48.25.72.41-.48-.37-.96-.74-1.44-1.11.23.2.42.4.62.63-.37-.48-.74-.95-1.11-1.44.19.27.33.54.47.83,1.59,3.53,6.64,4.35,9.72,2.55,1.59-.93,2.78-2.47,3.27-4.24.55-1.99.1-3.67-.72-5.48-1.85-4.09-7.04-6.55-11.34-5.15-5.07,1.66-7.82,7.35-6.06,12.4.89,2.55,2.39,4.33,4.58,5.87,2.12,1.49,4.83,1.49,7.24,1.06,2.29-.42,4.63-2.47,5.63-4.52,1.21-2.48,1.6-5.32.68-7.97-1.28-3.65-4.81-6.04-8.74-4.96-3.54.97-6.25,5.08-4.97,8.74Z"/>
    </g>
    <g>
      <g>
        <path class="st7" d="M202.13,250.97c.69,1.56-.16,3.46-1.91,4.23l-114.59,50.7c-1.75.77-3.72.13-4.42-1.44l-6.9-15.61c-.69-1.56.16-3.46,1.91-4.22l114.59-50.71c1.74-.77,3.72-.13,4.42,1.44l6.9,15.61Z"/>
        <path d="M84.11,307.44c-1.76,0-3.33-.97-4-2.49l-6.9-15.6c-.44-.99-.46-2.12-.05-3.17.45-1.16,1.39-2.12,2.57-2.65l114.59-50.71c2.29-1.01,5.08-.04,6.01,2.06l6.91,15.6c.96,2.17-.17,4.78-2.53,5.82l-114.59,50.7c-.65.28-1.32.43-2.01.43ZM192.33,234.81c-.35,0-.7.08-1.03.23l-114.59,50.7c-.61.27-1.08.74-1.3,1.31-.12.32-.22.8.01,1.32l6.9,15.61c.41.92,1.71,1.32,2.83.82l114.59-50.7c1.13-.5,1.71-1.69,1.29-2.64l-6.91-15.61c-.29-.64-.97-1.05-1.79-1.05Z"/>
      </g>
      <g>
        <g>
          <path class="st1" d="M96.97,295.84c.34.79,0,1.7-.8,2.05h0c-.78.34-1.7-.01-2.04-.8l-5.67-12.81c-.35-.79.01-1.7.79-2.05h0c.78-.35,1.7.01,2.05.8l5.67,12.8Z"/>
          <path d="M92.24,297.93c-.7-2.1-.09-3.69,1.84-4.78,1.75-.99,4.05.21,4.77,1.84-.03-.06-.06-.13-.09-.19-.18-.4-.36-.82-.55-1.23-.67-1.5-1.33-3.01-1.99-4.51-1.01-2.29-2.03-4.58-3.04-6.88,1.9,4.29-4.73,7.2-6.62,2.94.03.06.05.12.09.19.18.41.36.82.54,1.22.66,1.51,1.33,3.01,2,4.52,1.01,2.29,2.03,4.58,3.04,6.87,1.14,2.57,4.24,3.78,6.82,2.64,2.58-1.14,3.77-4.24,2.64-6.82-1.26-2.83-2.5-5.66-3.76-8.48-.6-1.36-1.19-2.71-1.8-4.08-2.05-4.63-8.36-5.8-11.58-1.63-1.91,2.47-1.49,5.32-.33,7.94.75,1.68,1.5,3.36,2.24,5.04.77,1.74,1.53,3.47,2.31,5.22.96,2.17,2.12,4.34,4.64,5.05,2.77.77,5.65.08,7.46-2.26,1.58-2.05,1.6-4.44.83-6.8-.87-2.69-4.44-3.69-6.82-2.64-2.77,1.23-3.51,4.14-2.63,6.82Z"/>
        </g>
        <g>
          <path class="st1" d="M187.97,255.57c.35.79,0,1.7-.79,2.04h0c-.78.35-1.7,0-2.05-.79l-5.67-12.82c-.34-.79,0-1.7.79-2.04h0c.79-.35,1.7.01,2.05.79l5.67,12.81Z"/>
          <path d="M183.24,257.67c-.7-2.1-.09-3.69,1.84-4.78,1.75-.99,4.05.22,4.77,1.85-.02-.06-.06-.13-.09-.19-.18-.41-.36-.82-.54-1.23-.67-1.51-1.34-3.01-2-4.52-1.01-2.29-2.02-4.58-3.04-6.88,1.89,4.29-4.73,7.19-6.62,2.93.03.06.06.13.08.2.18.4.36.81.55,1.22.67,1.5,1.33,3.01,1.99,4.51,1.02,2.29,2.03,4.58,3.04,6.88,1.14,2.58,4.24,3.77,6.81,2.63,2.58-1.14,3.78-4.24,2.64-6.82-1.25-2.82-2.5-5.65-3.76-8.48-.59-1.36-1.19-2.71-1.8-4.06-2.06-4.64-8.36-5.81-11.59-1.63-1.91,2.46-1.48,5.31-.32,7.93.74,1.68,1.49,3.36,2.23,5.05.77,1.74,1.54,3.47,2.31,5.21.96,2.17,2.12,4.35,4.64,5.06,2.76.77,5.65.08,7.46-2.26,1.58-2.05,1.6-4.43.82-6.8-.88-2.69-4.44-3.69-6.82-2.64-2.78,1.23-3.51,4.14-2.64,6.82Z"/>
        </g>
      </g>
    </g>
    <g>
      <g>
        <path class="st2" d="M175.33,243.11s27.84,33.06,15.76,40.19c-12.08,7.13-28.99-23.77-28.99-23.77l13.23-16.42Z"/>
        <path d="M172.82,245.62c.95,1.14,1.87,2.3,2.78,3.47.4.53-.56-.71-.14-.18.11.14.22.28.32.42.23.29.45.6.68.9.54.7,1.06,1.42,1.59,2.13,1.14,1.56,2.25,3.15,3.33,4.76,2.34,3.48,4.53,7.07,6.37,10.84.21.43.42.88.62,1.31.11.24.72,1.69.3.67.38.9.72,1.82,1.02,2.75.26.79.47,1.6.66,2.41.08.38.15.76.21,1.14-.2-1.29,0,.19.03.53.01.35.01.7,0,1.05-.01.16-.02.33-.03.5-.06.67.14-.95.04-.29-.05.31-.12.61-.21.91-.3,1.03.38-.67-.1.28-.15.29-.82,1.18-.02.15-.19.24-.4.46-.62.66-.59.56.75-.47-.18.12-.16.1-.33.19-.49.28-.85.47.51-.17-.05.05-.35.14-.72.24-1.1.32-.26.05-.96.12.21-.02-.19.02-.38.03-.56.03-.37.02-.75,0-1.13-.04,1.28.12-.23-.09-.58-.17-.39-.11-.77-.24-1.15-.38-.71-.27.79.35.08.04-.2-.09-.39-.18-.58-.28-.87-.43-1.7-.96-2.49-1.52-.2-.14-.39-.27-.57-.42-.67-.5.62.49-.04-.04-.38-.3-.76-.62-1.13-.95-.83-.72-1.62-1.5-2.39-2.28-1.51-1.55-2.92-3.21-4.27-4.91-.1-.13-.65-.83-.08-.09-.16-.2-.31-.4-.46-.61-.31-.39-.61-.8-.9-1.2-.61-.84-1.21-1.69-1.79-2.54-.95-1.39-1.87-2.81-2.75-4.24-.7-1.13-1.39-2.27-2.03-3.44-.18,1.44-.37,2.87-.56,4.31,4.41-5.47,8.82-10.95,13.23-16.42,1.21-1.51,1.48-3.55,0-5.03-1.26-1.25-3.8-1.51-5.02,0-4.41,5.48-8.82,10.95-13.23,16.43-1.04,1.29-1.39,2.78-.55,4.3,2.82,5.16,6.23,10.03,9.93,14.58,4.89,6,12.67,13.95,21.26,11.61,3.65-1,6.6-3.98,7.21-7.76.61-3.77-.3-7.54-1.67-11.05-3.01-7.69-7.68-14.68-12.59-21.27-1.72-2.31-3.48-4.62-5.34-6.83-1.24-1.48-3.74-1.28-5.02,0-1.46,1.46-1.25,3.55,0,5.03Z"/>
      </g>
      <path class="st26" d="M187.72,267.8l-9.22,5.69-6.52-21.07,3.21-4.04s5.31,6.61,7.09,9.39c1.78,2.78,5.43,10.03,5.43,10.03Z"/>
      <g>
        <rect class="st7" x="174.98" y="270.38" width="19.73" height="6.91" transform="translate(-119.01 144.12) rotate(-32.86)"/>
        <path d="M178.19,283.2l-4.62-7.16,17.93-11.58,4.62,7.16-17.92,11.58ZM175.79,276.52l2.87,4.46,15.22-9.83-2.87-4.46-15.22,9.83Z"/>
      </g>
      <path class="st0" d="M184.81,266.7s-3.65-7.26-5.43-10.04c-1.12-1.75-3.65-5.03-5.37-7.22l1.05-1.33s5.32,6.6,7.09,9.39c1.78,2.78,5.43,10.03,5.43,10.03l-9.22,5.69,6.44-6.52Z"/>
    </g>
    <polygon class="st8" points="192.95 244.06 196.48 250.86 189.41 254.83 193.76 250.15 191.12 244.95 192.95 244.06"/>
    <g>
      <g>
        <path class="st21" d="M171.52,284.85c.35.81,1.53,1.08,2.64.6l36.89-15.96c1.11-.48,1.72-1.53,1.37-2.33l-1.5-3.48c-.35-.81-1.53-1.07-2.64-.59l-36.89,15.95c-1.11.48-1.72,1.53-1.38,2.33l1.51,3.47Z"/>
        <path d="M165.38,288.44c2.07,3.52,6.05,4.91,9.93,4.08.93-.2,1.77-.63,2.64-1.01.68-.29,1.35-.59,2.03-.88,2.94-1.27,5.89-2.55,8.83-3.82,7.22-3.12,14.43-6.23,21.65-9.36,1.5-.65,3.06-1.24,4.53-1.99,3.37-1.73,5.45-6.25,4.37-9.9-.37-1.24-1.03-2.52-1.55-3.72-.29-.66-.53-1.36-.9-1.98-2.05-3.5-6.75-4.96-10.52-3.61-1.99.71-3.94,1.68-5.87,2.52-3.35,1.44-6.7,2.9-10.05,4.35-6.16,2.66-12.33,5.33-18.48,7.99-1.37.59-2.74,1.18-4.1,1.78-.92.39-1.71,1.11-2.44,1.78-1.19,1.09-1.76,2.5-2.32,3.97-.8,2.13-.07,4.39.77,6.34.5,1.15,1,2.31,1.5,3.47,1.54,3.56,6.69,4.33,9.72,2.56,1.59-.94,2.78-2.48,3.27-4.26.55-2.01.08-3.63-.72-5.47-.29-.66-.57-1.31-.85-1.97-.18-.4-.35-.8-.52-1.2-.04-.09-.08-.19-.12-.28,1.35,2.6,1.12,4.91-.67,6.9-1,.68-1.17.84-.51.47.38-.2.79-.34,1.17-.51,2.59-1.12,5.18-2.24,7.76-3.36,7.37-3.19,14.73-6.37,22.1-9.55,1.9-.82,3.8-1.64,5.69-2.46.05-.02.1-.05.14-.06-2.53,1.1-5.25,1.12-7.07-1.96.4.68.65,1.49.96,2.21.16.37.31.73.47,1.09.7,1.63-1.07-1.64-.59-4.44.44-.77.89-1.54,1.33-2.3,1-.68,1.17-.84.51-.47-.1.05-.22.1-.33.14-5.72,2.48-11.45,4.95-17.17,7.43-4.51,1.95-9.02,3.9-13.53,5.85-1.47.64-2.93,1.27-4.4,1.9-.38.17-.76.33-1.13.49-.1.04-.19.09-.28.13,2.41-1.04,5.21-1.14,7.03,1.97-1.95-3.34-6.38-4.51-9.73-2.55-3.33,1.95-4.51,6.38-2.55,9.72Z"/>
      </g>
      <path class="st5" d="M171.52,284.85c.35.81,1.53,1.08,2.64.6l36.89-15.96c1.11-.48,1.72-1.53,1.37-2.33l-1.5-3.48c-.35-.81-1.53-1.07-2.64-.59l-36.89,15.95c-1.11.48-1.72,1.53-1.38,2.33l1.51,3.47Z"/>
    </g>
    <g>
      <path class="st2" d="M99.28,245.26s-27.84,33.06-15.77,40.2c12.08,7.12,28.99-23.78,28.99-23.78l-13.22-16.42Z"/>
      <path d="M96.76,242.75c-3.36,3.98-6.47,8.21-9.4,12.53-4.57,6.77-9.25,14.33-10.34,22.56-.44,3.38.42,7.15,3.05,9.47,3.19,2.83,7.68,3.41,11.64,1.99,4.13-1.49,7.6-4.42,10.63-7.53,3.08-3.19,5.78-6.76,8.3-10.42,1.75-2.54,3.43-5.16,4.91-7.87.84-1.52.48-3.02-.56-4.31-4.4-5.47-8.81-10.95-13.22-16.42-1.22-1.51-3.77-1.26-5.03,0-1.48,1.48-1.22,3.52,0,5.02,4.4,5.47,8.81,10.95,13.22,16.42-.18-1.43-.37-2.87-.55-4.31-.84,1.54-1.76,3.04-2.7,4.52-.96,1.53-1.97,3.04-3.02,4.52-.57.8-1.15,1.61-1.74,2.4-.16.2-.31.4-.46.61.57-.74.03-.04-.08.09-.37.47-.76.94-1.15,1.41-1.37,1.67-2.83,3.27-4.4,4.76-.72.69-1.47,1.35-2.23,1.97-.66.53.63-.47-.04.03-.18.14-.38.28-.57.42-.44.31-.88.61-1.34.88-.38.24-.76.44-1.15.64-.19.1-.39.18-.58.28-.7.32.79-.32.08-.04-.38.14-.76.27-1.15.39-.33.09-1.87.32-.58.17-.38.04-.75.04-1.13.04-.18-.01-.38-.02-.56-.04,1.13.1.48.06.2.01-.38-.07-.74-.19-1.1-.31-.68-.25.8.36.13.05-.24-.11-.46-.24-.68-.38-.94-.56.44.42-.17-.12-.23-.2-.43-.43-.63-.67.81.99.15.15-.01-.16-.51-.92.22.76-.1-.27-.09-.3-.16-.61-.21-.92-.12-.65.11.96.04.3-.02-.17-.02-.33-.03-.5-.02-.35,0-.7,0-1.04.01-.33.21-1.82.02-.52.25-1.72.78-3.41,1.37-5.03.16-.43.33-.86.51-1.28-.42,1.02.2-.43.3-.66.44-.98.91-1.93,1.4-2.87,1.93-3.71,4.18-7.25,6.54-10.69,1.06-1.54,2.14-3.05,3.25-4.54.46-.62.93-1.24,1.39-1.85.11-.14.21-.28.32-.42.41-.53-.55.71-.14.19.22-.28.44-.57.67-.86.69-.88,1.39-1.75,2.11-2.62,1.24-1.48,1.46-3.57,0-5.02-1.28-1.28-3.78-1.48-5.03,0Z"/>
    </g>
    <g>
      <path class="st26" d="M165.65,250.14h-57.02s-11.14,61.8-3.57,64.45c7.58,2.64,14.6-9.43,14.6-9.43,0,0,5.57,1.7,15.25,2.01h0c.73.02,1.48.03,2.23.03s1.5,0,2.23-.03h0c9.67-.31,15.25-2.01,15.25-2.01,0,0,7.02,12.07,14.59,9.43,7.58-2.65-3.56-64.45-3.56-64.45Z"/>
      <path d="M165.65,246.59h-57.02c-1.48,0-3.15,1.07-3.43,2.62-2.18,12.07-3.95,24.25-5.22,36.45-.77,7.39-1.56,14.99-.92,22.42.22,2.45.5,5.4,1.95,7.5,2.86,4.15,8.76,3.31,12.6,1.07,3.76-2.2,6.93-5.95,9.11-9.68-1.33.55-2.67,1.09-4.01,1.63,5.16,1.56,10.84,1.95,16.19,2.13-1.19-1.18-2.37-2.37-3.56-3.55h0c0,1.97,1.62,3.51,3.56,3.55,1.48.04,2.97.04,4.46,0,1.94-.04,3.55-1.58,3.55-3.55h0c-1.18,1.18-2.37,2.37-3.55,3.55,5.35-.18,11.03-.57,16.19-2.13-1.35-.54-2.68-1.09-4.02-1.63,1.71,2.91,3.97,5.68,6.57,7.83,3.77,3.11,9.92,5.62,14.2,1.97,2-1.71,2.43-4.83,2.75-7.27.41-3.12.39-6.29.3-9.43-.25-8.35-1.23-16.7-2.31-24.98-.94-7.2-2.02-14.38-3.22-21.54-.24-1.45-.49-2.89-.75-4.33-.35-1.91-2.64-2.96-4.37-2.49-1.99.55-2.82,2.47-2.48,4.38.68,3.8,1.3,7.61,1.89,11.43.59,3.82,1.16,7.65,1.68,11.49.12.87-.11-.83,0,.05.03.25.07.51.1.76.06.51.13,1.02.2,1.54.14,1.11.28,2.22.42,3.34.26,2.16.51,4.32.73,6.48.75,7.31,1.54,14.88.84,22.23-.03.31-.06.62-.11.94.18-1.39.03-.25-.02.07-.1.55-.22,1.09-.37,1.63-.06.22-.13.43-.21.63-.25.68.46-.97.08-.21-.08.16-.18.32-.27.47-.33.51.76-.84.15-.25-.42.42.93-.61.33-.27-.39.23,1.01-.4.61-.25-.27.1-.55.16-.82.23-.9.21.77-.04-.14.02-.27.02-.53,0-.8-.01-.91-.04.78.16-.11-.02-.35-.08-.69-.18-1.03-.29-.87-.29.68.33-.15-.05-.26-.12-.5-.25-.73-.39-.49-.27-.95-.59-1.41-.92.7.51-.05-.04-.16-.14-.21-.18-.42-.37-.63-.56-.47-.42-.92-.89-1.37-1.35-.52-.56-1.02-1.14-1.5-1.74-.42-.51.45.61-.14-.18-.2-.26-.39-.54-.58-.81-.35-.51-.7-1.03-1.02-1.58-.79-1.35-2.49-2.08-4.02-1.63-1.26.38-2.57.63-3.85.87-.7.13-1.4.24-2.1.34-1.11.16.73-.09-.45.06-.51.06-1.02.12-1.53.18-2.11.23-4.24.36-6.36.43-1.94.06-3.55,1.57-3.55,3.56h0c1.18-1.18,2.37-2.37,3.55-3.55-1.49.04-2.98.04-4.46,0,1.18,1.18,2.37,2.37,3.55,3.55h0c0-1.99-1.62-3.49-3.55-3.56-2.13-.07-4.25-.21-6.36-.43-.39-.04-.77-.09-1.16-.14-.24-.02-.49-.06-.73-.09.36.05.33.04-.08-.02-.7-.1-1.41-.21-2.1-.34-1.3-.23-2.61-.49-3.86-.87-1.52-.46-3.22.28-4.01,1.63-.52.89-1.13,1.74-1.74,2.56-.48.64.51-.65,0,0-.15.19-.31.38-.47.57-.33.4-.68.79-1.03,1.17-.37.4-.76.79-1.16,1.17-.2.19-.41.38-.63.56-.12.11-1.08.86-.38.32-.44.34-.92.63-1.4.92-.24.14-.48.26-.73.39-.82.4.7-.26-.15.05-.25.09-.51.17-.77.23-.18.05-1.07.19-.1.06-.27.03-.53.03-.8.04-.18,0-.36-.01-.53-.03.49.08.54.08.13,0-.71-.14-1.31-.56-.21.02-.61-.32.77.67.33.27-.58-.53.36.53.21.31-.12-.16-.23-.35-.32-.53-.39-.75.34.88.08.21-.08-.21-.14-.42-.21-.63-.16-.54-.27-1.08-.37-1.63-.06-.32-.21-1.46-.03-.07-.04-.31-.08-.62-.1-.94-.08-.74-.12-1.5-.16-2.24-.16-3.57-.01-7.17.21-10.72.27-4.23.67-8.44,1.15-12.64.24-2.15.5-4.31.78-6.45.06-.51.13-1.02.2-1.54.03-.25.07-.5.1-.76.12-.88-.11.82.01-.05.14-1.07.29-2.14.44-3.2.85-5.99,1.79-11.98,2.82-17.94.1-.59.21-1.19.31-1.78-1.14.87-2.28,1.74-3.43,2.61h57.02c4.58,0,4.58-7.11,0-7.11Z"/>
    </g>
    <g>
      <path class="st7" d="M195.98,320.65c0,1.74-26.35,3.14-58.84,3.14s-58.83-1.4-58.83-3.14,26.34-3.15,58.83-3.15,58.84,1.41,58.84,3.15Z"/>
      <path d="M137.14,325c-15.74,0-30.54-.33-41.67-.92-18.37-.98-18.37-2.12-18.37-3.43s0-2.45,18.37-3.43c11.13-.59,25.93-.92,41.67-.92s30.53.33,41.67.92c18.38.98,18.38,2.12,18.38,3.43s0,2.45-18.38,3.43c-11.13.59-25.93.92-41.67.92ZM82.77,320.66c7.94,1.02,27.84,1.92,54.37,1.92s46.43-.9,54.37-1.92c-7.64-.97-26.69-1.95-54.37-1.95s-46.73.98-54.37,1.95Z"/>
    </g>
    <g>
      <g>
        <polygon class="st21" points="163.75 249.38 137.34 249.38 137.12 249.38 110.72 249.38 99.28 287.01 137.12 287.01 137.34 287.01 175.19 287.01 163.75 249.38"/>
        <path d="M163.75,242.27h-53.03c-3.23,0-5.93,2.18-6.86,5.22-3.65,11.99-7.29,23.98-10.93,35.97-.17.55-.34,1.11-.51,1.66-1.35,4.44,2.32,8.99,6.86,8.99h75.91c4.52,0,8.2-4.55,6.85-8.99-3.64-11.99-7.29-23.98-10.93-35.97-.17-.55-.34-1.1-.51-1.66-1.12-3.7-4.93-6.01-8.73-4.96-3.66,1-6.1,5.04-4.97,8.74,3.65,11.99,7.29,23.98,10.94,35.97.16.55.33,1.1.51,1.66,2.29-3,4.57-5.99,6.86-9h-75.91c2.28,3.01,4.57,6,6.85,9,3.65-11.98,7.29-23.97,10.94-35.96.17-.55.33-1.1.5-1.66-2.28,1.74-4.56,3.48-6.85,5.22h53.03c3.87,0,7.1-3.24,7.1-7.11s-3.23-7.11-7.1-7.11Z"/>
      </g>
      <polygon class="st5" points="163.75 249.38 137.34 249.38 137.12 249.38 110.72 249.38 99.28 287.01 137.12 287.01 137.34 287.01 175.19 287.01 163.75 249.38"/>
    </g>
    <polygon class="st15" points="110.24 250.88 99.28 287.01 129.1 287.01 104.75 283.44 110.24 250.88"/>
    <polygon class="st15" points="164.21 250.88 175.18 287.01 145.35 287.01 169.7 283.44 164.21 250.88"/>
    <path class="st26" d="M86.91,269.95l9.22,5.69,6.51-21.08-3.21-4.04s-5.31,6.6-7.09,9.39c-1.78,2.78-5.42,10.03-5.42,10.03Z"/>
    <path class="st0" d="M89.69,269.12s3.65-7.26,5.43-10.04c1.12-1.76,3.66-5.04,5.37-7.22l-1.06-1.33s-5.31,6.6-7.09,9.39c-1.78,2.78-5.42,10.03-5.42,10.03l9.22,5.69-6.44-6.53Z"/>
    <g>
      <rect class="st7" x="86.33" y="266.13" width="6.91" height="19.73" transform="translate(-190.75 201.62) rotate(-57.13)"/>
      <path d="M96.44,285.36l-17.93-11.58,4.62-7.15,17.93,11.58-4.62,7.16ZM80.74,273.3l15.22,9.83,2.87-4.45-15.22-9.83-2.87,4.45Z"/>
    </g>
    <polygon class="st10" points="106.4 294.21 106.14 298.67 168.21 298.67 167.94 294.21 106.4 294.21"/>
    <g>
      <polygon class="st26" points="127.78 247.07 127.78 293.7 93.65 293.7 105.66 247.07 127.78 247.07"/>
      <path d="M124.22,247.07v46.64c1.19-1.19,2.37-2.37,3.55-3.56h-34.13c1.14,1.5,2.28,3,3.43,4.5,3.21-12.46,6.42-24.93,9.63-37.4.79-3.08,1.59-6.16,2.38-9.24-1.14.87-2.29,1.74-3.43,2.61h22.12c4.58,0,4.58-7.11,0-7.11h-22.12c-1.56,0-3.03,1.08-3.43,2.61-3.21,12.46-6.42,24.93-9.63,37.39-.79,3.08-1.58,6.17-2.38,9.25-.57,2.23,1.09,4.5,3.43,4.5h34.13c1.94,0,3.55-1.62,3.55-3.55v-46.64c0-4.58-7.1-4.58-7.1,0Z"/>
    </g>
    <g>
      <polygon class="st26" points="146.51 247.07 146.51 293.7 180.63 293.7 168.62 247.07 146.51 247.07"/>
      <path d="M142.95,247.07v46.64c0,1.93,1.61,3.55,3.55,3.55h34.13c2.34,0,4-2.26,3.43-4.5-3.21-12.46-6.42-24.93-9.63-37.4-.8-3.08-1.59-6.16-2.38-9.24-.4-1.53-1.87-2.61-3.43-2.61h-22.12c-4.58,0-4.58,7.11,0,7.11h22.12c-1.14-.87-2.28-1.74-3.43-2.61,3.21,12.46,6.42,24.93,9.63,37.4.79,3.08,1.59,6.16,2.38,9.24,1.15-1.5,2.29-3,3.43-4.5h-34.13c1.18,1.19,2.37,2.37,3.55,3.56v-46.64c0-4.58-7.11-4.58-7.11,0Z"/>
    </g>
    <polygon class="st0" points="108.51 250.67 98.29 290.21 124.4 290.09 102.95 286.73 108.51 250.67"/>
    <polygon class="st0" points="165.86 250.67 176.07 290.21 149.97 290.09 171.42 286.73 165.86 250.67"/>
    <g>
      <g>
        <g>
          <polygon class="st1" points="137.14 277.37 132.36 271.39 135.43 255.83 138.87 255.83 141.93 271.39 137.14 277.37 137.14 277.37 137.14 277.37 137.14 277.37 137.14 277.37"/>
          <path d="M140.8,273.71c-1.6-1.99-3.19-3.99-4.78-5.99.44,1.68.88,3.36,1.33,5.04,1.02-5.19,2.04-10.37,3.07-15.55-1.66,1.26-3.33,2.53-4.98,3.79h3.44c-1.67-1.26-3.33-2.53-4.99-3.79,1.03,5.18,2.05,10.37,3.07,15.55.44-1.67.88-3.36,1.33-5.04-.88,1.1-1.75,2.19-2.63,3.29-1.45,1.81-3.67,3.96-3.67,6.35,2.59-1.49,5.18-2.97,7.78-4.46h0c-3.44-1.72-7.78.35-7.78,4.46h0c0,2.82,2.35,5.17,5.17,5.17s5.17-2.35,5.17-5.17h0c0-2.81-2.35-5.17-5.17-5.17s-5.17,2.36-5.17,5.17h0c0,2.82,2.35,5.17,5.17,5.17s5.17-2.35,5.17-5.17h0c-2.6,1.49-5.19,2.97-7.78,4.46h0c3.44,1.72,7.78-.35,7.78-4.46h0c-.5,1.22-1.01,2.44-1.51,3.65,1.39-1.74,2.79-3.48,4.18-5.23.19-.24.38-.47.57-.72,1.29-1.61,1.75-3.05,1.35-5.11-.13-.67-.27-1.34-.4-2.01-.89-4.5-1.77-8.99-2.66-13.49-.44-2.23-2.81-3.79-4.98-3.79h-3.44c-2.17,0-4.55,1.56-4.98,3.79-.88,4.44-1.75,8.87-2.63,13.31-.14.71-.28,1.41-.42,2.11-.41,2.07,0,3.53,1.3,5.16.16.21.33.42.5.62,1.42,1.79,2.86,3.57,4.28,5.36,1.76,2.21,5.48,1.82,7.31,0,2.16-2.15,1.76-5.11,0-7.31Z"/>
        </g>
        <polygon class="st19" points="137.14 277.37 132.36 271.39 135.43 255.83 138.87 255.83 141.93 271.39 137.14 277.37 137.14 277.37 137.14 277.37 137.14 277.37 137.14 277.37"/>
      </g>
      <polygon class="st13" points="137.14 277.36 132.36 271.39 135.43 255.83 137.14 255.83 137.14 277.36"/>
      <polygon class="st20" points="133.2 270.87 136.16 255.83 135.43 255.83 132.36 271.39 137.14 277.36 133.2 270.87"/>
    </g>
    <polygon class="st11" points="141.09 270.87 138.13 255.83 138.87 255.83 141.93 271.39 137.15 277.36 141.09 270.87"/>
    <g>
      <g>
        <path class="st1" d="M170.28,245.71s-2.26,14.96-31.19,29c-26.94,13.08-42.21,13.97-42.21,13.97l.9,3.11s15.21-.23,43.01-13.86c27.8-13.62,30.8-27.99,30.8-27.99l-1.3-4.24Z"/>
        <path d="M165.29,244.34c-.04.25-.11.5-.18.74-.08.28-.17.56-.26.84-.2.55-.92,2.22-.01.1-.47,1.12-1.06,2.19-1.68,3.24-.39.64-.81,1.27-1.24,1.88-.24.35-.49.68-.73,1.02-.55.72.84-1.07.27-.35-.19.24-.38.49-.57.72-1.41,1.72-2.97,3.32-4.6,4.84-.92.86-1.89,1.69-2.86,2.49-.26.21-.53.43-.79.64-.22.17-1.18.9-.05.04-.68.52-1.37,1.02-2.07,1.51-6.19,4.4-12.99,7.81-19.89,10.93-1.26.57-2.53,1.11-3.81,1.66.55-.23.55-.23,0,0-.4.16-.8.34-1.21.5-.65.27-1.3.53-1.96.79-2.38.95-4.79,1.84-7.22,2.68-3.74,1.29-7.54,2.43-11.38,3.37-2.33.57-4.69,1.06-7.07,1.42-.18.03-.37.06-.57.08-.66.09,1.77-.23.79-.11-.25.03-.5.06-.74.08-.2.02-.4.04-.6.05-3.29.2-5.96,3.16-4.99,6.55.3,1.03.6,2.08.9,3.11.63,2.18,2.68,3.83,4.99,3.79,4.92-.08,10.01-1.33,14.74-2.59,5.59-1.47,11.06-3.39,16.41-5.54,7.53-3.01,15.01-6.38,22.01-10.48,8.73-5.12,17.21-11.74,22.63-20.43,1.18-1.88,2.18-3.94,2.85-6.05.81-2.54-.41-5.13-1.15-7.54-.82-2.69-3.58-4.38-6.36-3.61-2.65.73-4.43,3.67-3.61,6.36.43,1.41.87,2.82,1.3,4.24v-2.75c-.06.27-.14.52-.23.77-.1.3-.21.59-.33.88-.32.79.68-1.56.24-.59-.11.25-.22.5-.35.75-.57,1.17-1.24,2.28-1.96,3.36-.21.33-.44.64-.67.95-.26.37-1.25,1.65-.07.13-.62.8-1.29,1.57-1.97,2.33-1.58,1.78-3.32,3.42-5.12,4.98-.5.43-1.01.85-1.52,1.26-.27.22-.55.43-.81.64,1.11-.87.13-.1-.08.06-1.32.99-2.68,1.93-4.06,2.85-6.49,4.3-13.57,7.67-20.7,10.74-.28.12-.55.24-.82.35.56-.24.56-.24.01,0-.65.27-1.31.54-1.97.81-1.25.5-2.51.99-3.78,1.46-2.25.85-4.53,1.63-6.82,2.37-3.42,1.1-6.89,2.06-10.4,2.81-1.21.27-2.43.5-3.65.71-.51.09-1.02.16-1.54.24-1.01.14,1.56-.21.58-.08-.19.02-.39.05-.58.08-.74.08-1.48.16-2.22.18,1.66,1.27,3.32,2.53,4.98,3.79-.3-1.03-.6-2.07-.89-3.11-1.66,2.18-3.33,4.36-4.98,6.54,5.24-.31,10.53-1.69,15.54-3.13,5.85-1.67,11.56-3.77,17.17-6.11,7.5-3.11,14.94-6.49,21.85-10.76,7.65-4.73,14.82-10.6,19.88-18.12,1.37-2.04,2.44-4.22,3.33-6.52.26-.68.52-1.39.63-2.12.43-2.78-.66-5.55-3.61-6.36-2.48-.68-5.93.82-6.36,3.61Z"/>
      </g>
      <path class="st27" d="M170.28,245.71s-2.26,14.96-31.19,29c-26.94,13.08-42.21,13.97-42.21,13.97l.9,3.11s15.21-.23,43.01-13.86c27.8-13.62,30.8-27.99,30.8-27.99l-1.3-4.24Z"/>
      <path class="st24" d="M139.4,275.87c28.94-14.05,31.19-29,31.19-29l.97,3.16c.01-.05.02-.08.02-.08l-1.3-4.24s-2.26,14.96-31.19,29c-26.94,13.08-42.21,13.97-42.21,13.97l.33,1.15c.58-.04,15.79-1.14,42.2-13.96Z"/>
      <path class="st16" d="M170.26,245.68s-.05.35-.24.98l.76,2.49s-3,14.37-30.8,27.98c-24.75,12.13-39.53,13.65-42.47,13.83l.23.8s15.21-.23,43.01-13.86c27.8-13.62,30.8-27.99,30.8-27.99l-1.3-4.24Z"/>
    </g>
    <g>
      <g>
        <g>
          <path class="st1" d="M143.43,276.95c.41.8.14,1.75-.59,2.12l-6.43,3.29c-.74.38-1.66.03-2.07-.77l-1.97-3.86c-.41-.8-.14-1.75.59-2.13l6.43-3.29c.73-.37,1.66-.03,2.07.77l1.97,3.86Z"/>
          <path d="M138.44,278.33c.77,1.99,3.39-4.53,1.43-3.53-.51.27-1.01.52-1.52.78-1.27.65-2.53,1.3-3.8,1.95-.48.24-1.69.69.19-.03,1.37-.52,3.47.36,4.02,1.44-.11-.21-.21-.41-.32-.62-.53-1.06-1.08-2.1-1.61-3.15.8,1.56.62,3.95-1.23,4.91.14-.08.29-.16.43-.23.54-.28,1.08-.55,1.61-.82,1.24-.64,2.49-1.28,3.73-1.91.15-.07.3-.15.45-.23.04-.02.08-.04.12-.06-1.14.58-2.12.84-3.74.06-.98-.47-1.49-1.71-1.15-1.02.12.24.25.49.38.73.51,1,1.02,2,1.53,2.99,1.28,2.5,4.75,3.21,7.07,1.85,2.53-1.48,3.14-4.57,1.85-7.07-.63-1.24-1.26-2.48-1.9-3.71-1.11-2.17-3.35-3.46-5.74-3.61-1.44-.09-2.7.44-3.95,1.08-1.56.8-3.12,1.6-4.68,2.39-.43.22-.85.44-1.28.66-2.74,1.4-4.05,5.14-2.97,7.97.65,1.67,1.55,3.25,2.37,4.84.89,1.75,2.52,3.03,4.41,3.53,1.85.49,3.57,0,5.2-.84,1.6-.82,3.2-1.64,4.8-2.45.42-.22.85-.44,1.28-.65,2.73-1.4,4.05-5.14,2.96-7.97-1.01-2.63-3.44-4.41-6.36-3.61-2.52.69-4.62,3.72-3.61,6.36Z"/>
        </g>
        <path class="st6" d="M143.43,276.95c.41.8.14,1.75-.59,2.12l-6.43,3.29c-.74.38-1.66.03-2.07-.77l-1.97-3.86c-.41-.8-.14-1.75.59-2.13l6.43-3.29c.73-.37,1.66-.03,2.07.77l1.97,3.86Z"/>
        <path class="st7" d="M141.75,276.96l-1.28-2.51c-.27-.51-.9-.72-1.42-.46l-4.54,2.32c-.52.27-.72.91-.46,1.43l.24.47,2.13-1.09c.43-.22.96-.05,1.18.38.22.43.05.96-.38,1.18l-2.13,1.09.24.47c.26.52.9.73,1.42.46l4.54-2.33c.52-.27.72-.9.46-1.42Z"/>
        <g>
          <path class="st9" d="M139.91,273.95c.23.09.44.26.56.5l1.28,2.51c.27.52.06,1.15-.46,1.42l-4.54,2.33c-.1.04-.2.07-.3.1.27.11.58.1.86-.04l4.55-2.33c.52-.27.72-.9.46-1.42l-1.28-2.51c-.22-.42-.67-.64-1.12-.56Z"/>
          <path class="st9" d="M136.98,277.17c.07-.04.14-.05.21-.07-.23-.1-.52-.12-.77.02l-1.71.87.15.28,2.12-1.09Z"/>
          <path class="st9" d="M134.91,281.66l-1.97-3.86c-.41-.8-.14-1.75.59-2.12l6.43-3.29c.16-.08.33-.13.5-.14-.35-.11-.73-.09-1.06.08l-6.43,3.29c-.73.38-1,1.33-.59,2.13l1.97,3.86c.32.62.95.97,1.57.91-.41-.13-.79-.42-1.01-.86Z"/>
        </g>
      </g>
      <g>
        <path class="st12" d="M138.7,273.64l-4.54,2.33c-.52.27-.73.9-.46,1.42l.24.47.13-.07-.03-.05c-.26-.52-.06-1.16.46-1.43l4.54-2.32c.34-.17.73-.14,1.03.04-.28-.47-.89-.64-1.38-.39Z"/>
        <path class="st12" d="M135.37,280.31s-.02-.05-.04-.07l-.24-.47,2.13-1.09c.43-.22.6-.75.38-1.18-.09-.16-.21-.29-.36-.38,0,0,.01.02.01.02.22.44.05.96-.38,1.18l-2.13,1.09.24.47c.09.19.23.33.39.42Z"/>
        <path class="st12" d="M143.43,276.96l-1.97-3.86c-.13-.25-.3-.45-.51-.61.06.07.12.16.16.25l1.97,3.86c.42.8.15,1.75-.58,2.13l-6.43,3.28c-.51.27-1.1.18-1.56-.16.46.61,1.25.84,1.91.51l6.43-3.29c.74-.37,1-1.32.59-2.12Z"/>
      </g>
    </g>
    <polygon class="st8" points="80.25 288.25 85.16 300.58 94.13 297.09 85.94 297.73 80.25 288.25"/>
    <g>
      <polygon class="st7" points="209.57 268.29 174.99 283.13 174.59 282.19 209.17 267.33 209.57 268.29"/>
      <polygon points="174.36 284.72 172.99 281.56 209.8 265.75 211.15 268.92 174.36 284.72"/>
    </g>
    <path d="M208.68,261.87c-3.33,2.82-.68,8.87,3.6,8.52,1.65-.13,1.66-2.72,0-2.59-2.1.18-3.43-2.7-1.77-4.1,1.27-1.08-.57-2.9-1.83-1.83h0Z"/>
    <path class="st5" d="M214.32,264.27c.61,1.53.13,3.16-1.09,3.65-1.22.49-2.7-.36-3.32-1.88-.61-1.53-.12-3.17,1.09-3.65,1.22-.5,2.7.35,3.32,1.88Z"/>
    <g>
      <g>
        <path d="M190.59,285.44c-5,2.14-6.24-4.56-2.76-5.85,3.48-1.3,8.46,3.41,2.76,5.85"/>
        <path d="M189.22,280.45c-.35.14-.69.25-1.04.33.97-.1,1.19-.14.67-.1-.91.05,1.39.28.55.1-.5-.15-.27-.04.7.32-.4-.18-.87-.73.45.4-.84-.72.7,1.17.17.19.81,1.5.3.8.19.2.12,1.07.16,1.34.14.82-.02-.44.17-1.22-.12.64.02-.12.05-.24.08-.36.21-.81-.62,1.29-.24.55.51-1-.96.94-.11.19-.81.59-1,.75-.57.48-1.25.73-.98.38-.43.23-1,.1-1.23.13-.7.09.43-.03,1.28.16-.46-.12.15.03.3.07.44.11.9.24-1.22-.59-.38-.18.13.07.26.14.39.22.77.47-1.02-.87-.36-.27.1.09.2.2.28.31-.18-.24-.37-.47-.56-.72.25.45.17.21-.25-.7.04.12.08.24.1.36-.05-.33-.1-.67-.14-.99-.02.52.02.25.12-.81-.16.48-.06.26.28-.66-.42.79.89-.99.19-.3.69-.51.8-.6.33-.29-.3.19-.63.34-.95.48-2.57,1.17-3.17,4.83-1.86,7.07,1.53,2.62,4.51,3.02,7.07,1.86,2.38-1.07,3.85-2.86,4.84-5.22,1.05-2.5-.22-5.29-1.73-7.23-2.67-3.43-7.75-3.99-11.46-2.17-3.49,1.72-4.97,6.53-3.74,10.06,1.55,4.48,6.35,6.88,10.85,5.07,2.62-1.05,4.42-3.41,3.61-6.36-.68-2.48-3.75-4.66-6.36-3.61h0Z"/>
      </g>
      <path class="st2" d="M190.59,285.44c-5,2.14-6.24-4.56-2.76-5.85,3.48-1.3,8.46,3.41,2.76,5.85"/>
      <path class="st14" d="M190.4,285.01c-2.17.93-3.63.19-4.31-1.05.55,1.49,2.09,2.51,4.51,1.48,2.63-1.12,2.98-2.74,2.27-4.01.42,1.18-.12,2.57-2.46,3.58Z"/>
      <path class="st25" d="M186.72,284.99c-.2-1.44.42-3.04,1.93-3.61,1.58-.59,3.48.06,4.53,1.18-.02-2.03-3.02-3.84-5.35-2.98-2.24.83-2.52,3.89-1.12,5.41Z"/>
    </g>
  </g>
  <g>
    <g>
      <g>
        <g>
          <g>
            <g>
              <path class="st21" d="M33.02,100.85s-1.57,39.06-.42,62.99c1.15,23.92,16.29,32.18,16.29,32.18v-70.21l-15.87-24.96Z"/>
              <path d="M23.97,100.85c-.72,17.94-1.09,35.94-.72,53.9.14,6.66.33,13.33,1.69,19.88,1.17,5.64,3.41,11.25,6.5,16.11,2.19,3.43,4.83,6.73,7.93,9.39,1.53,1.32,3.17,2.71,4.96,3.69,5.97,3.27,13.62-.81,13.62-7.81v-70.13c0-3.05-1.46-4.98-2.94-7.33-1.85-2.9-3.7-5.81-5.55-8.71-2.87-4.53-5.75-9.04-8.63-13.57-2.64-4.16-8-5.81-12.37-3.25-4.13,2.42-5.9,8.21-3.25,12.37,5.29,8.32,10.59,16.64,15.88,24.96-.41-1.52-.83-3.04-1.24-4.56v70.21c4.54-2.61,9.08-5.21,13.61-7.81-.73-.4-1.4-.91-2.06-1.4.61.47,1.22.94,1.83,1.41-2.16-1.68-4.06-3.65-5.73-5.81.47.61.94,1.22,1.41,1.84-2-2.6-3.63-5.45-4.92-8.46.31.73.6,1.45.91,2.17-1.6-3.82-2.63-7.83-3.19-11.94.11.8.22,1.61.32,2.41-.76-5.93-.7-12.01-.78-17.98-.08-6.15-.06-12.31.02-18.46.11-9.37.34-18.74.67-28.1.03-1.01.06-2.02.1-3.03.2-4.94-4.26-9.05-9.04-9.05-5.08,0-8.85,4.12-9.05,9.05Z"/>
            </g>
            <path class="st18" d="M33.02,97.36s-1.57,42.55-.42,66.48c1.15,23.92,16.29,32.18,16.29,32.18v-70.21l-15.87-28.45Z"/>
            <path class="st22" d="M35.52,163.84c-.91-18.96-.12-49.62.25-61.53l-2.76-4.95s-1.57,42.55-.42,66.48c1.15,23.92,16.29,32.18,16.29,32.18v-2.11c-4.46-3.75-12.53-12.86-13.36-30.07Z"/>
          </g>
          <g>
            <g>
              <path class="st21" d="M241.12,100.85s1.56,39.06.42,62.99c-1.15,23.92-16.3,32.18-16.3,32.18v-70.21l15.88-24.96Z"/>
              <path d="M232.07,100.85c.72,17.94,1.09,35.94.72,53.9-.1,4.55-.13,9.15-.71,13.67.11-.8.21-1.61.32-2.41-.55,4.11-1.58,8.12-3.18,11.94.31-.72.61-1.44.91-2.17-1.29,3.01-2.91,5.86-4.92,8.46.47-.62.94-1.23,1.42-1.84-1.67,2.15-3.59,4.13-5.74,5.81.61-.48,1.22-.95,1.83-1.41-.65.5-1.33,1-2.05,1.4,4.54,2.6,9.08,5.2,13.61,7.81v-70.21c-.41,1.52-.82,3.04-1.23,4.56,5.3-8.31,10.58-16.63,15.88-24.96,2.65-4.16.89-9.96-3.24-12.37-4.38-2.56-9.74-.91-12.38,3.25-3.29,5.17-6.57,10.33-9.86,15.5-1.77,2.78-3.54,5.56-5.31,8.34-1.11,1.75-1.95,3.43-1.95,5.68v70.21c0,7,7.65,11.08,13.62,7.81,1.84-1.01,3.5-2.44,5.07-3.8,3.19-2.74,5.87-6.18,8.09-9.73,3.16-5.06,5.33-10.92,6.45-16.77,1.27-6.66,1.37-13.45,1.49-20.2.32-17.49-.05-35.01-.74-52.48-.2-4.93-3.97-9.05-9.05-9.05-4.78,0-9.25,4.11-9.05,9.05Z"/>
            </g>
            <path class="st18" d="M241.12,97.36s1.56,42.55.42,66.48c-1.15,23.92-16.3,32.18-16.3,32.18v-70.21l15.88-28.45Z"/>
            <path class="st22" d="M241.12,97.36l-2.93,5.25c.37,12.11,1.15,42.42.25,61.23-.82,17-8.7,26.09-13.2,29.92v2.26s15.15-8.25,16.3-32.18c1.14-23.93-.42-66.48-.42-66.48Z"/>
          </g>
        </g>
        <g>
          <g>
            <path class="st21" d="M50.24,93.71c-.31,12.43,0,85.93,0,85.93,0,33.39,18.71,64.34,88.45,64.06,69.01-.28,85.35-30.67,85.35-64.06v-85.93H50.24Z"/>
            <path d="M41.2,93.71c-.37,14.6-.15,29.23-.12,43.83.01,13.75.06,27.5.11,41.25.06,14.32,2.92,28.94,11.17,40.91,5.35,7.77,12.31,14.12,20.41,18.94,9.33,5.55,19.95,8.99,30.56,11.05,14.28,2.76,28.96,3.45,43.47,2.87,12.93-.52,26.1-2.12,38.46-6.12,9.93-3.21,19.14-7.96,27.06-14.79,6.09-5.26,11.12-12.07,14.35-19.44,3.56-8.1,5.41-16.4,6.13-25.21.32-3.87.28-7.73.28-11.6v-81.7c0-4.93-4.11-9.04-9.04-9.04H50.24c-4.93,0-9.04,4.11-9.04,9.04s4.11,9.04,9.04,9.04h173.8c-3.01-3.01-6.03-6.03-9.05-9.04v77.12c0,6.79.16,13.6-.73,20.34.11-.79.21-1.6.32-2.4-.74,5.45-2.07,10.81-4.19,15.89.3-.72.61-1.44.91-2.16-1.67,3.94-3.82,7.66-6.43,11.07.47-.61.95-1.22,1.41-1.84-2.61,3.36-5.63,6.35-8.99,8.96.61-.48,1.23-.95,1.83-1.42-4.32,3.33-9.1,6-14.12,8.13.72-.31,1.44-.61,2.16-.91-8.57,3.61-17.7,5.69-26.89,6.94.8-.1,1.6-.21,2.41-.32-16.24,2.16-33.06,2.19-49.3.04.81.11,1.6.21,2.4.32-9.36-1.26-18.65-3.38-27.38-7.04.72.31,1.44.61,2.15.91-5.25-2.22-10.26-4.99-14.78-8.47.61.47,1.22.95,1.83,1.41-3.53-2.74-6.72-5.87-9.46-9.39.47.61.95,1.22,1.41,1.83-2.69-3.49-4.9-7.31-6.63-11.37.31.73.61,1.44.91,2.17-2.12-5.02-3.46-10.32-4.2-15.71.11.8.22,1.6.32,2.41-.6-4.53-.68-9.07-.69-13.62-.02-6.28-.05-12.56-.06-18.84-.05-17.53-.11-35.06-.03-52.59.01-3.83.01-7.65.11-11.47.12-4.93-4.21-9.04-9.05-9.04s-8.93,4.12-9.04,9.04Z"/>
          </g>
          <path class="st2" d="M50.24,93.71c-.31,12.43,0,85.93,0,85.93,0,33.39,18.71,64.34,88.45,64.06,69.01-.28,85.35-30.67,85.35-64.06v-85.93H50.24Z"/>
        </g>
      </g>
      <path class="st23" d="M42.01,198.99c-.47-.06-.25-.04,0,0h0Z"/>
      <path class="st25" d="M135.9,169.4c33.94,0,64.87-1.34,88.16-3.54v-18.04c-22.96,2.26-53.99,3.65-88.14,3.65s-63.05-1.29-85.76-3.42c.02,6.73.03,12.98.05,18.05,23,2.06,52.94,3.31,85.68,3.31Z"/>
    </g>
    <g>
      <g>
        <g>
          <g>
            <g>
              <path class="st4" d="M74.54,190.88c0,8.59,6.97,15.55,15.56,15.55s15.55-6.96,15.55-15.55-6.96-15.55-15.55-15.55-15.56,6.96-15.56,15.55Z"/>
              <path d="M73.25,190.88c.07,5.85,3.04,11.16,7.96,14.31,4.96,3.18,11.38,3.26,16.59.67,5.19-2.57,8.49-7.87,9.07-13.54.6-5.84-2.21-11.46-6.78-14.98-5.05-3.89-12.09-4.22-17.71-1.43-5.62,2.79-9.06,8.79-9.14,14.97-.02,1.67,2.57,1.67,2.59,0,.06-5.85,3.63-11.16,9.1-13.3,5.55-2.17,11.83-.51,15.82,3.83,4,4.36,4.64,11,1.93,16.18-2.76,5.27-8.56,8.05-14.38,7.45-7.11-.73-12.39-7.19-12.47-14.16-.02-1.66-2.61-1.66-2.59,0Z"/>
            </g>
            <path class="st3" d="M80.06,196.59c0,1.39,1.13,2.52,2.52,2.52s2.52-1.13,2.52-2.52-1.13-2.52-2.52-2.52-2.52,1.13-2.52,2.52Z"/>
            <path class="st3" d="M88.6,188.8c0,3.59,2.91,6.5,6.5,6.5s6.51-2.91,6.51-6.5-2.91-6.5-6.51-6.5-6.5,2.91-6.5,6.5Z"/>
          </g>
          <path class="st17" d="M92.06,213.48c.74,2.06-2.48,5.12-7.21,6.84-4.72,1.71-9.17,1.43-9.92-.63-.75-2.06,2.48-5.13,7.21-6.84,4.73-1.71,9.17-1.44,9.92.63Z"/>
        </g>
        <g>
          <g>
            <g>
              <path class="st4" d="M168.49,190.88c0,8.59,6.97,15.55,15.56,15.55s15.55-6.96,15.55-15.55-6.96-15.55-15.55-15.55-15.56,6.96-15.56,15.55Z"/>
              <path d="M167.2,190.88c.06,5.85,3.04,11.16,7.96,14.31,4.96,3.18,11.38,3.26,16.59.67,5.19-2.57,8.49-7.87,9.07-13.54.6-5.84-2.21-11.46-6.78-14.98-5.05-3.89-12.09-4.22-17.71-1.43-5.62,2.79-9.06,8.79-9.14,14.97-.02,1.67,2.57,1.67,2.59,0,.07-5.85,3.63-11.16,9.1-13.3,5.56-2.17,11.83-.51,15.82,3.83,4,4.36,4.64,11,1.93,16.18-2.76,5.27-8.56,8.05-14.38,7.45-7.11-.73-12.39-7.19-12.47-14.16-.02-1.66-2.61-1.66-2.59,0Z"/>
            </g>
            <path class="st3" d="M174.01,196.59c0,1.39,1.13,2.52,2.51,2.52s2.52-1.13,2.52-2.52-1.13-2.52-2.52-2.52-2.51,1.13-2.51,2.52Z"/>
            <path class="st3" d="M182.55,188.8c0,3.59,2.92,6.5,6.5,6.5s6.51-2.91,6.51-6.5-2.91-6.5-6.51-6.5-6.5,2.91-6.5,6.5Z"/>
          </g>
          <path class="st17" d="M182.08,213.48c-.75,2.06,2.48,5.12,7.21,6.84,4.73,1.71,9.17,1.43,9.92-.63.75-2.06-2.48-5.13-7.21-6.84-4.73-1.71-9.16-1.44-9.92.63Z"/>
        </g>
      </g>
      <path d="M122.02,220.59c.09,1.99.86,4.03,2.02,5.65,2.88,4.01,7.61,5.47,12.39,5.57,6.9.15,14.87-3.34,15.7-10.98.17-1.54-1.43-2.85-2.84-2.85-1.68,0-2.68,1.3-2.84,2.85.16-1.51-.04-.01-.18.43-.05.15-.11.3-.17.45-.08.21.3-.63-.06.09-.12.24-.25.47-.39.7-.1.16-.7.96-.18.3-.38.47-.81.9-1.27,1.3-.25.2-.23.19.05-.03-.19.14-.39.27-.59.4-.35.22-.73.43-1.11.61-.3.13-.32.14-.07.05-.27.11-.54.2-.81.3-.5.16-1,.29-1.52.4-1.08.24-2.12.29-3.31.3-1.05.02-2.04-.04-2.93-.21-.52-.09-1.02-.22-1.52-.37-.19-.06-.37-.12-.55-.19-.85-.3.45.22-.33-.13-.39-.18-.75-.39-1.11-.61-.13-.08-.26-.17-.39-.26-.63-.43.43.37-.14-.1-.27-.23-.51-.47-.75-.73-.09-.1-.18-.2-.26-.29-.44-.51.36.5-.02-.03-.29-.42-.54-.87-.76-1.32-.15-.31.22.62-.05-.14-.07-.2-.13-.4-.19-.61-.08-.3-.15-.61-.19-.92.18,1.18.07.64.06.36-.18-3.65-5.86-3.67-5.68,0h0Z"/>
    </g>
  </g>
  <g>
    <g>
      <g>
        <path class="st21" d="M245.14,132.33c.58-4.28.91-8.63.91-13.05,0-47.84-34.7-88.08-81.81-99.84-.02-3.58-.33-5.97-1.04-6.7-5.39-5.61-52.47-4.26-57.4.9-.64.67-.9,2.96-.88,6.44C59.04,32.57,25.51,72.25,25.51,119.27c0,4.58.35,9.1.98,13.52-11.08,1.97-17.43,4.26-17.43,6.7,0,7.35,57.36,13.3,128.11,13.3s128.12-5.96,128.12-13.3c0-2.64-7.4-5.1-20.17-7.17Z"/>
        <path d="M254.18,132.33c3.48-26.08-3.51-53.23-18.66-74.69-15-21.24-36.68-36.76-61.38-44.78-2.48-.8-4.98-1.51-7.5-2.14,2.21,2.91,4.42,5.82,6.64,8.72-.02-2.31-.27-4.52-.59-6.82-.33-2.41-1.56-4.45-3.1-6.27-1.51-1.79-4.06-2.78-6.15-3.59-3.59-1.38-7.72-1.7-11.48-2.09-8.98-.93-18.13-.78-27.12-.12-5.64.41-11.41.96-16.9,2.37-2.11.54-4.36,1.26-6.18,2.46-2.56,1.7-4.03,3.67-5.08,6.59-.87,2.44-.81,5.51-.81,8.1,2.22-2.91,4.43-5.82,6.64-8.72-24.34,6.68-46.88,20.93-62.42,40.92-8.06,10.36-14.31,21.71-18.44,34.2-4.15,12.56-5.85,26.2-4.95,39.39.22,3.13.64,6.25,1.07,9.36,2.1-3.71,4.21-7.42,6.32-11.13-3.52.62-7.03,1.34-10.46,2.36-2.68.8-5.6,1.74-7.89,3.39-1.81,1.31-3.11,2.37-4.27,4.33-.86,1.46-1.66,3.83-1.43,5.55.33,2.49.26,2.82,1.42,5.1.46.91,1.17,1.72,1.89,2.45,2.29,2.38,5.56,3.68,8.59,4.75,2.94,1.04,6,1.72,9.05,2.33,10.32,2.07,20.86,3.21,31.33,4.17,13.63,1.26,27.3,2.02,40.98,2.54,32.22,1.23,64.53,1.13,96.74-.38,12.99-.61,25.98-1.46,38.91-2.84,9.54-1.02,19.21-2.13,28.55-4.4,3.16-.77,6.13-1.8,9.1-3.13,2.48-1.11,5.19-3.1,6.38-5.61,1.71-3.61,1.71-6.84-.05-10.49-1.17-2.44-3.8-4.33-6.17-5.45-6.05-2.84-12.66-4.08-19.22-5.15-2.5-.41-4.7-.42-6.97.91-2.02,1.19-3.53,3.15-4.16,5.4-.64,2.34-.31,4.88.91,6.97,1.08,1.84,3.21,3.8,5.41,4.16,5.49.9,11.2,1.82,16.38,3.95-.71-.3-1.44-.6-2.16-.91.95.4,1.88.85,2.7,1.48-.61-.47-1.22-.94-1.83-1.41.26.22.5.44.71.71-.47-.61-.95-1.22-1.41-1.82.09.13.17.26.24.4-.31-.72-.61-1.44-.91-2.16.05.13.1.27.12.41-.11-.8-.22-1.6-.32-2.4.02.14.02.28,0,.42.11-.8.21-1.61.32-2.4-.02.13-.06.25-.1.37.3-.72.61-1.44.91-2.16-.07.17-.16.32-.27.47.47-.61.94-1.22,1.41-1.83-.21.28-.47.51-.74.73.62-.47,1.22-.94,1.83-1.42-.78.61-1.68,1.04-2.58,1.42.72-.31,1.44-.61,2.16-.92-2.91,1.21-6.01,1.95-9.08,2.6-4.58.99-9.22,1.7-13.86,2.33.8-.11,1.6-.21,2.4-.32-26.73,3.58-53.87,4.55-80.81,5-31.29.53-62.66.04-93.89-2.21-9.42-.68-18.83-1.54-28.18-2.79.8.11,1.6.21,2.4.32-4.64-.63-9.28-1.35-13.86-2.33-3.07-.65-6.18-1.39-9.08-2.6.72.31,1.44.61,2.16.92-.91-.39-1.8-.82-2.59-1.42.61.48,1.22.95,1.82,1.42-.27-.22-.53-.45-.74-.73.47.61.94,1.22,1.41,1.83-.11-.15-.2-.31-.28-.47.31.72.61,1.44.91,2.16-.05-.12-.09-.24-.1-.37.1.8.21,1.6.32,2.4-.02-.15-.02-.29,0-.43-.11.8-.21,1.6-.32,2.4.02-.12.05-.22.09-.33-.3.71-.6,1.44-.91,2.16.09-.2.19-.37.32-.55-.48.61-.94,1.22-1.42,1.84.2-.24.42-.46.67-.65-.61.47-1.23.95-1.83,1.41.82-.62,1.74-1.07,2.68-1.47-.72.3-1.44.61-2.16.91,4.34-1.78,9.05-2.66,13.64-3.48,2.21-.39,4.31-2.28,5.41-4.16,1.35-2.3,1.26-4.44.91-6.97-.02-.16-.04-.33-.06-.5.11.81.21,1.61.32,2.41-1.17-8.67-1.18-17.43-.04-26.11-.1.8-.21,1.6-.32,2.41,1.17-8.57,3.47-16.94,6.82-24.92-.31.72-.61,1.44-.91,2.16,3.43-8.08,7.91-15.68,13.27-22.62-.47.61-.95,1.22-1.41,1.83,5.58-7.17,12.05-13.59,19.23-19.15-.61.47-1.22.94-1.83,1.41,7.64-5.87,16.01-10.73,24.89-14.48-.72.3-1.45.6-2.16.91,4.66-1.96,9.44-3.61,14.32-4.94,3.87-1.06,6.65-4.7,6.64-8.72,0-1.48.02-2.96.21-4.42-.11.8-.21,1.6-.32,2.4.07-.5.17-.98.34-1.45-.31.72-.61,1.44-.92,2.16.07-.16.14-.3.24-.45-.48.61-.95,1.22-1.42,1.83.12-.14.25-.27.4-.38-.61.47-1.22.94-1.83,1.41.46-.35.98-.61,1.52-.84-.73.3-1.44.61-2.16.91,3.02-1.25,6.4-1.71,9.61-2.15-.8.11-1.6.21-2.4.32,6.23-.83,12.51-1.17,18.79-1.25,6.05-.08,12.16.06,18.17.86-.8-.11-1.6-.21-2.4-.32,2.42.32,4.92.71,7.2,1.65-.72-.3-1.44-.6-2.17-.91.51.22,1.02.47,1.46.82-.61-.47-1.22-.95-1.83-1.42.16.13.29.26.42.41-.47-.61-.94-1.22-1.41-1.83.1.14.18.29.25.45-.31-.72-.61-1.44-.91-2.16.26.66.38,1.35.48,2.04-.11-.8-.21-1.6-.32-2.4.16,1.36.21,2.73.23,4.1.03,3.96,2.72,7.74,6.64,8.72,5.73,1.44,11.33,3.31,16.79,5.6-.72-.3-1.44-.6-2.17-.91,8.85,3.75,17.19,8.59,24.8,14.45-.61-.47-1.22-.95-1.83-1.42,7.25,5.62,13.78,12.1,19.39,19.35-.47-.61-.94-1.22-1.41-1.83,5.33,6.94,9.78,14.51,13.18,22.57-.3-.71-.61-1.44-.91-2.16,3.33,7.95,5.61,16.3,6.77,24.84-.1-.8-.21-1.61-.32-2.4,1.15,8.67,1.12,17.42-.04,26.09-.29,2.22,1.14,4.89,2.65,6.39,1.69,1.7,4.01,2.65,6.4,2.65s4.71-.96,6.39-2.65c1.87-1.86,2.31-3.88,2.66-6.39Z"/>
      </g>
      <path class="st27" d="M245.14,132.33c.58-4.28.91-8.63.91-13.05,0-47.84-34.7-88.08-81.81-99.84-.02-3.58-.33-5.97-1.04-6.7-5.39-5.61-52.47-4.26-57.4.9-.64.67-.9,2.96-.88,6.44C59.04,32.57,25.51,72.25,25.51,119.27c0,4.58.35,9.1.98,13.52-11.08,1.97-17.43,4.26-17.43,6.7,0,7.35,57.36,13.3,128.11,13.3s128.12-5.96,128.12-13.3c0-2.64-7.4-5.1-20.17-7.17Z"/>
    </g>
    <path d="M23.75,133.21c4.71,1.41,9.73,2.07,14.57,2.79,17.39,2.56,34.98,3.77,52.53,4.55,29.6,1.31,59.32,1.37,88.93.3,18.26-.66,36.58-1.76,54.68-4.39,5.34-.78,10.91-1.51,16.05-3.21.04-.01.08-.02.11-.04,2.32-.83,3.85-3.06,3.16-5.56-.61-2.25-3.24-3.98-5.56-3.16-4.17,1.48-8.77,2.09-13.11,2.78-1.29.21-2.59.4-3.88.58-.34.05-.69.1-1.02.15-.17.03-.35.05-.52.07-.77.11,1.27-.16.49-.06-.8.11-1.61.21-2.42.31-3.63.45-7.27.84-10.92,1.19-10.08.95-20.18,1.58-30.29,2.02-29.57,1.32-59.26,1.32-88.83.25-11.09-.4-22.17-1-33.23-1.9-4.13-.34-8.26-.72-12.38-1.17-1.74-.19-3.48-.39-5.22-.6-.76-.1-1.52-.19-2.27-.29-.37-.04-.73-.09-1.09-.14-.37-.05-1.14-.15.49.07-.23-.04-.46-.06-.69-.09-5.69-.79-11.55-1.55-17.1-3.13-.03,0-.05-.02-.08-.02-2.36-.71-4.92.82-5.57,3.16-.66,2.42.8,4.86,3.16,5.56h0Z"/>
    <g>
      <path class="st27" d="M26.07,124.49s.05.01.08.02c5.55,1.58,11.4,2.35,17.1,3.13.1.01.19.02.29.03.33.05.66.09.99.13.76.1,1.52.19,2.28.29,1.74.21,3.48.41,5.22.6,4.12.44,8.25.83,12.38,1.17,11.05.91,22.14,1.5,33.22,1.9,29.58,1.07,59.26,1.07,88.84-.25,10.11-.45,20.22-1.07,30.29-2.02,3.65-.35,7.29-.74,10.92-1.19.75-.1,1.5-.19,2.25-.29.06-.01.13-.02.19-.03.34-.04.68-.1,1.02-.15,1.3-.18,2.59-.38,3.88-.58,3.53-.56,7.23-1.07,10.74-2.04.13-1.97.2-3.96.2-5.96,0-47.84-34.7-88.08-81.81-99.84-.02-3.58-.34-5.97-1.04-6.7-5.39-5.61-52.48-4.26-57.41.9-.64.67-.9,2.96-.88,6.44C58.97,32.57,25.45,72.25,25.45,119.27c0,1.71.05,3.42.14,5.1.16.04.33.07.49.12Z"/>
      <path class="st16" d="M164.21,132.29v-8.79c-19.8.47-39.62.38-59.41-.2v8.75c12.07.37,24.16.55,36.25.54,7.72-.02,15.44-.12,23.16-.3Z"/>
      <path class="st16" d="M25.74,124.39c2.62-39.49,30.04-90.19,87.33-100.43l.03-5.85s12.37-2.59,21.47-2.59,21.37,2.59,21.37,2.59l-.04,5.81c57.97,10.03,87.51,60.52,89.96,101.05.12-1.88.18-3.79.18-5.7,0-47.84-34.69-88.08-81.8-99.84-.02-3.58-.33-5.97-1.04-6.7-5.39-5.61-52.48-4.26-57.41.9-.64.67-.91,2.96-.88,6.44C59.05,32.57,25.52,72.25,25.52,119.27c0,1.71.05,3.42.14,5.1.03.01.05.01.08.02Z"/>
      <path class="st27" d="M272.82,127.64c-.46-.06-.25-.04,0,0h0Z"/>
    </g>
    <path class="st27" d="M250.45,133.24c-5.13,1.69-10.68,2.42-15.99,3.2-18.1,2.62-36.41,3.73-54.68,4.38-29.61,1.06-59.32,1-88.93-.3-17.56-.78-35.15-1.98-52.53-4.55-4.78-.71-9.72-1.36-14.37-2.73-9.49,1.86-14.87,3.98-14.87,6.22,0,7.35,57.36,13.31,128.11,13.31s128.12-5.96,128.12-13.31c0-2.25-5.37-4.36-14.86-6.22Z"/>
    <path class="st16" d="M19.98,136.34c4.82,1.42,9.93,2.1,14.88,2.82,17.99,2.66,36.2,3.9,54.36,4.71,30.63,1.35,61.38,1.41,92.03.31,18.9-.68,37.84-1.82,56.57-4.53,5.51-.8,11.23-1.56,16.55-3.31,4.62.91,8.3,1.87,10.89,2.88-.38-2.15-5.69-4.19-14.83-5.98-5.14,1.69-10.68,2.42-16,3.2-18.1,2.62-36.41,3.73-54.67,4.38-29.61,1.06-59.33,1-88.93-.3-17.56-.78-35.15-1.98-52.54-4.55-4.78-.71-9.72-1.36-14.37-2.73-9.15,1.79-14.48,3.82-14.85,5.98,2.6-1.01,6.28-1.97,10.91-2.88Z"/>
    <path class="st24" d="M264.44,137.91c-7.41,6.61-61.56,11.75-127.25,11.75s-119.84-5.14-127.24-11.75c-.57.51-.87,1.03-.87,1.55,0,7.35,57.36,13.31,128.11,13.31s128.12-5.96,128.12-13.31c0-.52-.3-1.04-.87-1.55Z"/>
    <rect x="96.69" y="13.45" width="8.14" height="122.64"/>
    <rect x="164.24" y="13.45" width="8.14" height="122.64"/>
    <path class="st16" d="M113.12,16.85h0c-.02-2.71.13-4.76.46-5.96-3.95.71-6.82,1.62-7.86,2.7-.64.67-.9,2.96-.88,6.43h0v111.95c2.76.09,5.51.16,8.27.22V16.85Z"/>
    <path class="st16" d="M155.97,16.05h0c.02-2.71-.13-4.75-.46-5.96,3.95.72,6.82,1.63,7.86,2.71.64.67.9,2.96.87,6.44h0v113.05c-2.75.08-5.52.13-8.27.2V16.05Z"/>
    <path class="st16" d="M85.78,114.39c-11.26,16.31-53.25,6.33-60.18,1.15-.05,1.22-.08,2.45-.08,3.68,0,1.71.05,3.41.14,5.11.17.03.33.06.49.11.03,0,.06.02.08.02,5.55,1.58,11.4,2.35,17.1,3.13.1.02.2.03.3.04.33.04.66.09.99.13.76.1,1.52.19,2.28.29,1.74.21,3.48.42,5.22.6,4.12.45,8.25.84,12.38,1.17,10.75.88,21.51,1.47,32.28,1.87V22.56c-4.15,1.47-8.17,3.17-12.06,5.09,1.11,8.73,12.72,69.84,1.06,86.74Z"/>
    <path class="st16" d="M183.56,114.12c16.46,21.46,62.49,3.94,62.49,3.94,0,0-.11,5.48-.2,7.18-.16.02-2.93.63-2.96.65-5.49,1.33-11.39,1.89-17.1,2.67-.1.02-.2.07-.29.08-.33.04-.66.04-.99.09-.76.09-1.52.16-2.27.26-1.74.21-3.48.27-5.21.45-4.12.45-8.25.7-12.38,1.04-10.75.88-21.52,1.21-32.29,1.62V21.78c4.15,1.47,8.13,2.78,12.02,4.69-1.11,8.73-13.31,71.36-.82,87.65Z"/>
    <g>
      <path class="st5" d="M209.06,58c7.99,6.76,11.84,15.34,8.61,19.17-3.25,3.83-12.35,1.46-20.34-5.29-7.99-6.76-11.85-15.34-8.6-19.17,3.24-3.84,12.34-1.46,20.34,5.29Z"/>
      <path class="st5" d="M224.45,84.2c-.85,1.74-2.96,2.46-4.69,1.61-1.74-.85-2.46-2.95-1.61-4.69.85-1.74,2.96-2.47,4.7-1.62,1.73.86,2.46,2.96,1.61,4.69Z"/>
    </g>
  </g>
</svg>