<?xml version="1.0" encoding="UTF-8"?>
<svg id="Layer_1" xmlns="http://www.w3.org/2000/svg" xmlns:xlink="http://www.w3.org/1999/xlink" version="1.1" viewBox="0 0 285.9 341.94">
  <!-- Generator: Adobe Illustrator 29.6.1, SVG Export Plug-In . SVG Version: 2.1.1 Build 9)  -->
  <defs>
    <style>
      .st0 {
        fill: none;
      }

      .st1 {
        fill: #161921;
      }

      .st2 {
        fill: #ffd7c3;
      }

      .st3 {
        fill: #000002;
      }

      .st4 {
        fill: #231f20;
      }

      .st5 {
        fill: #efb79e;
      }

      .st6 {
        fill: #d2da23;
      }

      .st7 {
        fill: #707284;
      }

      .st8 {
        fill: #b5752d;
      }

      .st9 {
        fill: #99530e;
      }

      .st10, .st11, .st12, .st13 {
        fill-rule: evenodd;
      }

      .st14 {
        fill: #3c3f4c;
      }

      .st11 {
        fill: #fdbb11;
      }

      .st15 {
        fill: #823f03;
      }

      .st16 {
        fill: #fff;
      }

      .st17 {
        fill: #fde5d2;
      }

      .st12 {
        fill: #ffdd15;
      }

      .st18 {
        fill: #87c13f;
      }

      .st13 {
        fill: #fff6cf;
      }

      .st19 {
        fill: #adce31;
      }

      .st20 {
        clip-path: url(#clippath);
      }

      .st21 {
        fill: #525463;
      }
    </style>
    <clipPath id="clippath">
      <polygon class="st0" points="187.78 300.39 184.82 300.39 181.07 300.39 178.11 300.39 171.92 313.56 181.07 313.56 184.82 313.56 193.97 313.56 187.78 300.39"/>
    </clipPath>
  </defs>
  <g>
    <g>
      <g>
        <g>
          <path class="st17" d="M272.04,265.29c-11.62,40.84-54.15,64.52-94.99,52.9-40.84-11.62-64.53-54.15-52.9-94.99,11.62-40.84,54.15-64.53,94.99-52.91,40.84,11.62,64.52,54.15,52.9,95Z"/>
          <path d="M261.47,262.38c-.88,3.06-1.93,6.06-3.16,8.99.36-.87.73-1.74,1.11-2.62-2.59,6.06-5.91,11.75-9.92,16.97.58-.74,1.14-1.48,1.71-2.22-4.02,5.18-8.68,9.82-13.86,13.84.75-.57,1.48-1.14,2.22-1.71-5.27,4.04-11.01,7.4-17.13,10,.87-.37,1.75-.74,2.62-1.11-6.28,2.63-12.86,4.44-19.61,5.38.97-.13,1.94-.27,2.92-.39-6.77.89-13.62.9-20.39.01.97.13,1.95.26,2.92.39-6.85-.94-13.55-2.77-19.93-5.44.88.36,1.75.73,2.62,1.1-6.06-2.58-11.75-5.91-16.97-9.92.74.57,1.48,1.14,2.22,1.71-5.18-4.02-9.82-8.68-13.84-13.86.57.74,1.14,1.48,1.71,2.22-4.04-5.26-7.39-11.01-9.99-17.12.37.87.74,1.74,1.1,2.62-2.63-6.28-4.44-12.86-5.37-19.61.13.97.26,1.95.39,2.92-.9-6.77-.9-13.61-.02-20.38-.13.97-.26,1.94-.39,2.91.94-6.85,2.77-13.55,5.44-19.93-.37.87-.74,1.75-1.1,2.62,2.57-6.05,5.91-11.75,9.91-16.97-.57.74-1.14,1.48-1.71,2.22,4.02-5.18,8.68-9.83,13.86-13.84-.74.57-1.48,1.14-2.22,1.71,5.27-4.04,11.01-7.4,17.13-9.99-.87.36-1.75.73-2.62,1.1,6.28-2.63,12.86-4.44,19.61-5.37-.98.13-1.95.26-2.92.39,6.77-.9,13.61-.91,20.38-.02-.97-.13-1.94-.26-2.92-.39,6.86.94,13.56,2.77,19.93,5.45-.87-.37-1.74-.74-2.62-1.11,6.06,2.58,11.75,5.9,16.97,9.92-.74-.57-1.48-1.14-2.22-1.71,5.18,4.03,9.83,8.68,13.84,13.86-.58-.74-1.14-1.48-1.71-2.22,4.04,5.27,7.4,11.01,9.99,17.12-.37-.87-.73-1.74-1.11-2.62,2.64,6.28,4.45,12.86,5.38,19.61-.13-.97-.26-1.94-.39-2.92.9,6.77.9,13.62.01,20.39.13-.98.27-1.95.39-2.92-.5,3.7-1.26,7.34-2.28,10.93-1.62,5.75,1.93,11.91,7.66,13.49,5.78,1.59,11.87-1.91,13.48-7.65,4.12-14.62,4.34-30.12.81-44.88-3.41-14.27-10.73-27.45-20.48-38.34-10.02-11.18-23.13-19.32-37.29-24.14-14.47-4.92-30.08-5.53-45.02-2.68-14.48,2.76-27.78,9.67-39.12,18.94-11.63,9.5-20.05,22.21-25.54,36.09-10.7,27.1-6.13,59.71,11.34,82.97,8.94,11.9,20.42,21.76,34.09,27.84,13.97,6.22,29.32,9.25,44.61,7.7,14.68-1.48,28.92-6.28,41.15-14.62,12.22-8.34,22.46-19.58,29.13-32.83,2.59-5.12,4.73-10.54,6.32-16.05,1.65-5.74-1.95-11.92-7.65-13.49-5.81-1.59-11.83,1.92-13.49,7.65Z"/>
        </g>
        <path class="st8" d="M272.04,265.29c-11.62,40.84-54.15,64.52-94.99,52.9-40.84-11.62-64.53-54.15-52.9-94.99,11.62-40.84,54.15-64.53,94.99-52.91,40.84,11.62,64.52,54.15,52.9,95Z"/>
        <path class="st9" d="M239.08,179.18c16.08,18.91,22.73,45.25,15.42,70.92-11.62,40.84-54.15,64.52-94.99,52.9-7.22-2.05-13.9-5.07-19.95-8.88,9.5,11.18,22.31,19.77,37.48,24.08,40.84,11.62,83.37-12.06,94.99-52.9,9.57-33.63-4.8-68.39-32.96-86.12Z"/>
        <path class="st15" d="M248.56,186.23c16.52,18.96,23.42,45.62,16.03,71.61-11.62,40.84-54.16,64.52-94.99,52.9-11.23-3.2-21.16-8.73-29.42-15.93,9.44,10.83,22.02,19.15,36.88,23.38,40.84,11.62,83.37-12.06,94.99-52.9,8.42-29.61-1.71-60.1-23.48-79.07Z"/>
      </g>
      <path class="st16" d="M261.39,209.67c3.8,6.61,4.5,13.33,1.58,15.01-2.93,1.69-8.38-2.31-12.18-8.92-3.8-6.6-4.5-13.32-1.58-15.01,2.93-1.68,8.38,2.31,12.18,8.91Z"/>
      <path class="st16" d="M267.87,230.32c0,1.43-1.15,2.58-2.59,2.58s-2.57-1.15-2.57-2.58,1.15-2.58,2.57-2.58,2.59,1.15,2.59,2.58Z"/>
    </g>
    <path class="st9" d="M246.24,187.5s-2.24,8.98-6.63,16.49c-4.38,7.51-14.42,14.59-14.42,14.59,0,0-3.7,10.23-16.08,20.46-9.35,7.73-25.13,13.45-25.13,13.45,0,0,9.9,16.15,12.81,20.71,10.08,15.78,1.17,25.28,1.17,25.28l5.4,12.86-35.17-.2-18.25-58.8,88.86-70.63,3.87,1.75,3.56,4.05Z"/>
    <g>
      <g>
        <g>
          <path class="st2" d="M83.69,250.26s-31.48,37.39-17.82,45.45c13.66,8.06,32.77-26.88,32.77-26.88l-14.95-18.57Z"/>
          <path d="M80.85,247.42c-3.8,4.51-7.32,9.29-10.62,14.17-5.17,7.65-10.46,16.21-11.69,25.52-.5,3.81.47,8.08,3.45,10.71,3.61,3.2,8.69,3.86,13.17,2.24,4.68-1.69,8.6-4.99,12.01-8.51,3.49-3.61,6.55-7.65,9.39-11.78,1.97-2.88,3.88-5.84,5.55-8.91.95-1.72.55-3.41-.62-4.87-4.99-6.19-9.97-12.38-14.96-18.57-1.37-1.71-4.26-1.43-5.68,0-1.67,1.67-1.38,3.98,0,5.68,4.98,6.19,9.96,12.38,14.95,18.57-.21-1.62-.42-3.24-.63-4.87-.95,1.74-1.99,3.43-3.05,5.1-1.1,1.73-2.23,3.44-3.42,5.11-.64.91-1.3,1.82-1.97,2.71-.17.23-.35.46-.53.69.65-.84.03-.05-.09.1-.43.54-.85,1.07-1.29,1.6-1.56,1.88-3.21,3.69-4.98,5.38-.81.77-1.66,1.51-2.53,2.22-.75.6.71-.54-.05.03-.21.16-.43.32-.65.47-.49.35-1,.68-1.51.99-.43.26-.86.5-1.3.73-.21.11-.43.21-.65.32-.79.36.88-.36.09-.04-.42.17-.86.31-1.3.43-.38.1-2.12.36-.66.19-.42.04-.85.06-1.28.05-.21,0-.42-.02-.63-.04,1.29.12.54.08.22.02-.42-.08-.83-.21-1.24-.35-.77-.28.9.41.15.05-.27-.13-.51-.28-.77-.43-1.05-.63.49.48-.2-.13-.26-.22-.49-.48-.71-.75.92,1.12.17.17-.02-.17-.57-1.05.25.84-.12-.31-.1-.34-.18-.69-.24-1.04-.13-.73.13,1.09.05.34-.02-.19-.03-.38-.04-.57-.02-.39-.01-.79,0-1.18.01-.37.23-2.06.02-.59.28-1.95.87-3.85,1.55-5.69.18-.49.38-.97.57-1.45-.47,1.14.22-.49.34-.76.5-1.09,1.03-2.17,1.59-3.24,2.17-4.2,4.72-8.2,7.39-12.09,1.19-1.73,2.42-3.45,3.67-5.13.52-.7,1.04-1.4,1.58-2.09.12-.15.24-.32.36-.47.46-.61-.62.8-.16.21.25-.32.5-.65.75-.97.79-.99,1.58-1.99,2.39-2.96,1.41-1.68,1.65-4.04,0-5.68-1.45-1.45-4.27-1.68-5.68,0Z"/>
        </g>
        <g>
          <path class="st3" d="M69.68,278.18l10.43,6.43,7.37-23.84-3.64-4.55s-6.01,7.46-8.02,10.61c-2.01,3.15-6.14,11.35-6.14,11.35Z"/>
          <path d="M80.36,285.29l-11.25-6.94.18-.36c.17-.34,4.16-8.26,6.16-11.39,2-3.13,7.8-10.35,8.05-10.65l.34-.43,4.12,5.16-.07.22-7.53,24.38ZM70.25,278.02l9.6,5.92,7.13-23.07-3.15-3.95c-1.3,1.63-5.95,7.48-7.65,10.14-1.73,2.72-5.11,9.34-5.93,10.95Z"/>
        </g>
        <g>
          <polygon class="st3" points="80.18 294.34 61.44 282.24 65.68 275.67 84.42 287.78 80.18 294.34"/>
          <path d="M80.27,294.75l-19.23-12.42,4.55-7.06,19.23,12.43-4.56,7.05ZM61.84,282.15l18.25,11.79,3.93-6.07-18.25-11.79-3.92,6.08Z"/>
        </g>
        <g>
          <path class="st4" d="M72.96,276.94s4.13-8.2,6.14-11.35c1.27-1.99,4.13-5.71,6.07-8.16l-1.19-1.5s-6.01,7.46-8.02,10.61c-2.01,3.15-6.14,11.35-6.14,11.35l10.43,6.43-7.29-7.38Z"/>
          <path class="st4" d="M81.21,285.08l-11.57-7.14.06-.12c.04-.08,4.15-8.24,6.14-11.36,1.99-3.12,7.97-10.55,8.03-10.62l.11-.14.12.14,1.27,1.59-.07.09c-1.69,2.14-4.73,6.05-6.06,8.15-1.87,2.92-5.62,10.32-6.08,11.24l8.06,8.17ZM70.01,277.83l9.28,5.72-6.51-6.59.05-.09c.04-.08,4.15-8.25,6.14-11.36,1.33-2.08,4.3-5.92,6.01-8.09l-1.01-1.27c-.84,1.05-6.07,7.59-7.89,10.45-1.85,2.9-5.55,10.2-6.07,11.22Z"/>
        </g>
      </g>
      <g>
        <path class="st2" d="M169.69,250.26s31.48,37.39,17.82,45.45c-13.66,8.06-32.78-26.88-32.78-26.88l14.96-18.57Z"/>
        <path d="M166.85,253.1c1.08,1.28,2.12,2.6,3.15,3.92.46.59-.63-.81-.16-.21.12.16.24.32.36.47.26.34.51.67.77,1.01.61.8,1.2,1.61,1.8,2.42,1.29,1.77,2.55,3.56,3.77,5.39,2.64,3.93,5.12,7.99,7.2,12.25.24.5.47.99.7,1.49.13.27.82,1.91.34.76.43,1.02.81,2.05,1.15,3.11.29.89.54,1.81.74,2.73.09.43.17.87.24,1.3-.23-1.46,0,.21.02.59.02.39.02.79,0,1.18-.01.19-.02.38-.04.57-.06.75.17-1.08.05-.34-.06.35-.14.7-.24,1.04-.34,1.17.43-.76-.12.31-.17.32-.92,1.34-.02.17-.21.27-.45.52-.7.75-.67.63.84-.53-.2.13-.18.12-.37.22-.57.32-.96.52.59-.2-.05.05-.4.15-.82.26-1.24.35-.29.07-1.08.14.23-.02-.21.03-.42.03-.63.04-.43.02-.85-.01-1.28-.05,1.46.14-.27-.09-.65-.19-.44-.12-.88-.27-1.3-.43-.8-.3.88.39.09.04-.22-.1-.44-.21-.65-.32-.99-.5-1.92-1.09-2.82-1.72-.22-.16-.43-.31-.65-.47-.76-.56.71.56-.04-.03-.44-.35-.86-.71-1.28-1.07-.94-.82-1.83-1.69-2.7-2.58-1.71-1.75-3.31-3.63-4.83-5.55-.12-.15-.73-.94-.09-.1-.17-.22-.35-.46-.52-.69-.34-.45-.68-.91-1.02-1.36-.69-.95-1.36-1.91-2.02-2.87-1.08-1.58-2.11-3.18-3.12-4.8-.79-1.28-1.57-2.58-2.3-3.89-.21,1.62-.42,3.25-.63,4.87,4.99-6.19,9.97-12.38,14.96-18.57,1.37-1.7,1.67-4.01,0-5.68-1.43-1.43-4.31-1.71-5.69,0-4.98,6.19-9.97,12.38-14.95,18.57-1.18,1.46-1.58,3.15-.63,4.87,3.19,5.83,7.05,11.34,11.23,16.48,5.52,6.79,14.32,15.78,24.04,13.13,4.13-1.12,7.47-4.5,8.16-8.77.69-4.27-.35-8.53-1.9-12.5-3.4-8.69-8.69-16.6-14.24-24.05-1.95-2.62-3.94-5.22-6.04-7.72-1.41-1.68-4.24-1.45-5.69,0-1.64,1.64-1.41,4.01,0,5.68Z"/>
      </g>
      <g>
        <path class="st3" d="M94.12,258.21h64.48s12.6,69.89,4.03,72.88c-8.57,3-16.5-10.66-16.5-10.66,0,0-6.3,1.93-17.24,2.26h0c-.82.03-1.67.04-2.53.04s-1.7,0-2.52-.03h0c-10.93-.35-17.24-2.28-17.24-2.28,0,0-7.94,13.65-16.5,10.66-8.57-3,4.03-72.88,4.03-72.88Z"/>
        <path d="M94.12,262.23h64.48c-1.29-.99-2.59-1.97-3.87-2.95.77,4.29,1.47,8.61,2.14,12.93.67,4.32,1.3,8.65,1.9,12.99.13.99-.13-.93,0,.06.04.28.08.57.12.85.08.58.15,1.15.22,1.73.16,1.26.32,2.52.47,3.78.29,2.44.57,4.88.82,7.33.85,8.27,1.74,16.82.95,25.13-.04.35-.08.71-.12,1.06.2-1.57.04-.29-.03.07-.1.62-.24,1.24-.41,1.85-.07.24-.15.48-.24.72-.28.77.51-1.1.09-.24-.09.18-.19.35-.3.52-.38.58.86-.94.17-.27-.49.47,1.06-.69.37-.3-.29.17-.83.28.69-.28-.3.12-.61.19-.93.27-1.02.24.88-.06-.15.02-.31.02-.61,0-.91-.01-1.02-.05.88.17-.12-.03-.4-.07-.79-.2-1.17-.33-.98-.33.77.37-.17-.07-.28-.13-.55-.28-.83-.43-.55-.31-1.07-.66-1.59-1.03.79.56-.06-.06-.19-.16-.24-.2-.48-.42-.72-.62-.54-.49-1.04-1.01-1.55-1.54-.59-.63-1.15-1.29-1.69-1.97-.47-.58.51.69-.15-.2-.23-.3-.44-.61-.66-.91-.4-.58-.8-1.17-1.16-1.78-.89-1.53-2.82-2.37-4.54-1.85-1.43.43-2.9.71-4.36.97-.79.14-1.59.27-2.38.39-1.26.19.83-.1-.51.07-.58.07-1.15.14-1.73.2-2.39.26-4.79.4-7.19.49-2.19.07-4.02,1.77-4.02,4.02h0c1.34-1.33,2.68-2.67,4.02-4.01-1.69.05-3.37.05-5.05,0,1.34,1.34,2.68,2.69,4.02,4.03h0c0-2.26-1.83-3.96-4.02-4.03-2.4-.08-4.8-.24-7.19-.49-.44-.04-.87-.1-1.31-.15-.28-.03-.55-.06-.83-.1.41.06.38.05-.1-.02-.8-.12-1.59-.25-2.38-.39-1.46-.26-2.94-.55-4.36-.97-1.72-.53-3.65.32-4.54,1.85-.59,1-1.26,1.96-1.96,2.88-.54.72.58-.73,0,0-.17.22-.35.43-.53.64-.38.46-.77.89-1.17,1.33-.42.46-.86.89-1.31,1.32-.23.21-.47.42-.7.63-.14.12-1.24.96-.43.37-.51.38-1.04.71-1.59,1.03-.27.15-.55.29-.83.43-.93.46.8-.29-.17.07-.29.1-.58.18-.87.26-.21.06-1.21.21-.12.07-.3.04-.6.04-.91.05-.2,0-.4-.01-.61-.03.56.09.61.09.15,0-.81-.16-1.49-.63-.24.02-.7-.36.87.76.37.3-.65-.59.41.6.23.35-.13-.19-.25-.39-.35-.6-.44-.86.38,1,.09.24-.09-.24-.16-.48-.24-.72-.18-.61-.31-1.22-.42-1.85-.06-.36-.24-1.64-.03-.07-.05-.35-.09-.71-.12-1.06-.09-.84-.14-1.69-.18-2.53-.19-4.04-.01-8.09.24-12.12.29-4.77.76-9.54,1.29-14.29.28-2.44.57-4.87.88-7.3.07-.58.15-1.15.22-1.73.04-.28.08-.57.12-.85.13-.99-.13.92.01-.06.16-1.2.33-2.41.5-3.61.96-6.78,2.02-13.54,3.19-20.29.12-.67.23-1.34.35-2.01.39-2.15-.55-4.32-2.8-4.95-1.97-.54-4.55.65-4.95,2.81-2.45,13.65-4.46,27.42-5.9,41.22-.88,8.35-1.77,16.95-1.04,25.35.24,2.77.56,6.12,2.2,8.49,3.24,4.69,9.91,3.74,14.26,1.21,4.25-2.48,7.84-6.73,10.3-10.95-1.51.62-3.03,1.23-4.54,1.85,5.84,1.77,12.26,2.2,18.31,2.41-1.34-1.34-2.68-2.68-4.02-4.02h0c0,2.24,1.83,3.97,4.02,4.03,1.69.04,3.37.04,5.05,0,2.19-.06,4.02-1.79,4.02-4.02h0c-1.34,1.33-2.68,2.67-4.02,4.01,6.04-.2,12.47-.64,18.31-2.41-1.51-.61-3.03-1.23-4.54-1.85,1.92,3.29,4.49,6.43,7.42,8.86,4.25,3.52,11.21,6.34,16.05,2.22,2.27-1.94,2.75-5.46,3.11-8.23.47-3.52.44-7.11.33-10.66-.28-9.45-1.38-18.88-2.61-28.25-1.07-8.14-2.29-16.26-3.64-24.36-.28-1.63-.55-3.27-.85-4.9-.31-1.74-2.21-2.95-3.87-2.95h-64.48c-5.18,0-5.18,8.04,0,8.04Z"/>
      </g>
      <g>
        <path class="st3" d="M59.83,337.95c0,1.97,29.78,3.55,66.53,3.55s66.53-1.59,66.53-3.55-29.78-3.55-66.53-3.55-66.53,1.59-66.53,3.55Z"/>
        <path d="M126.36,341.94c-17.79,0-34.5-.37-47.07-1.04-19.9-1.06-19.9-2.29-19.9-2.95s0-1.89,19.9-2.95c12.57-.67,29.28-1.04,47.07-1.04s34.5.37,47.07,1.04c19.9,1.06,19.9,2.29,19.9,2.95s0,1.89-19.9,2.95c-12.57.67-29.28,1.04-47.07,1.04ZM60.38,337.95c2.56,1.53,29.04,3.12,65.97,3.12s63.42-1.59,65.98-3.12c-2.57-1.53-29.05-3.11-65.98-3.11s-63.41,1.59-65.97,3.11Z"/>
      </g>
      <g>
        <g>
          <polygon class="st17" points="96.79 257.36 126.65 257.36 126.89 257.36 156.75 257.36 169.69 299.9 126.89 299.9 126.65 299.9 83.85 299.9 96.79 257.36"/>
          <path d="M96.79,265.39h59.96c-2.58-1.97-5.17-3.94-7.75-5.9,4.13,13.56,8.25,27.12,12.37,40.67.19.63.38,1.25.57,1.88,2.58-3.39,5.17-6.78,7.75-10.18h-85.84c2.59,3.39,5.17,6.78,7.75,10.18,4.12-13.56,8.24-27.12,12.37-40.68.19-.62.38-1.25.57-1.87,1.28-4.19-1.48-8.75-5.62-9.89-4.31-1.18-8.61,1.43-9.89,5.62-4.12,13.55-8.24,27.12-12.37,40.67-.19.62-.38,1.25-.57,1.87-1.52,5.03,2.63,10.18,7.75,10.18h85.84c5.12,0,9.28-5.15,7.75-10.18-4.12-13.55-8.24-27.11-12.37-40.67-.19-.62-.38-1.25-.57-1.87-1.04-3.43-4.1-5.9-7.75-5.9h-59.96c-4.38,0-8.04,3.65-8.04,8.04s3.65,8.04,8.04,8.04Z"/>
        </g>
        <g>
          <polygon class="st3" points="96.79 257.36 126.65 257.36 126.89 257.36 156.75 257.36 169.69 299.9 126.89 299.9 126.65 299.9 83.85 299.9 96.79 257.36"/>
          <path d="M170.28,300.34h-87.02l.17-.56,13.03-42.86h60.62l.09.31,13.11,43.11ZM84.44,299.46h84.65l-12.67-41.67h-59.31l-12.67,41.67Z"/>
        </g>
      </g>
      <g>
        <polygon class="st4" points="157.29 259.04 169.69 299.9 135.96 299.9 163.5 295.87 157.29 259.04"/>
        <path class="st4" d="M169.88,300.05h-33.93l-.02-.29,27.39-4.01-6.18-36.68.28-.07,12.45,41.05ZM137.97,299.75h31.53l-11.67-38.48,5.85,34.72-.15.02-25.55,3.74Z"/>
      </g>
      <g>
        <polygon class="st4" points="96.26 259.04 83.86 299.9 117.59 299.9 90.04 295.87 96.26 259.04"/>
        <path class="st4" d="M117.59,300.05h-33.92l12.45-41.05.28.07-6.19,36.68,27.39,4.01-.02.29ZM84.06,299.75h31.52l-25.7-3.76.03-.15,5.83-34.57-11.67,38.48Z"/>
      </g>
      <g>
        <path class="st3" d="M183.68,278.18l-10.43,6.43-7.37-23.84,3.64-4.55s6.01,7.46,8.02,10.61c2,3.15,6.14,11.35,6.14,11.35Z"/>
        <path d="M173,285.29l-7.61-24.6,4.12-5.16.34.43c.25.3,6.05,7.51,8.05,10.65,1.99,3.13,5.99,11.05,6.16,11.39l.18.36-11.25,6.94ZM166.37,260.87l7.13,23.07,9.6-5.92c-.82-1.61-4.2-8.23-5.93-10.95-1.7-2.66-6.35-8.52-7.65-10.14l-3.15,3.95Z"/>
      </g>
      <g>
        <path class="st4" d="M180.54,277.23s-4.13-8.2-6.14-11.35c-1.27-1.98-4.13-5.7-6.07-8.16l1.2-1.49s6.01,7.46,8.02,10.61c2,3.15,6.14,11.35,6.14,11.35l-10.43,6.43,7.29-7.38Z"/>
        <path class="st4" d="M172.29,285.38l8.06-8.17c-.46-.92-4.22-8.31-6.09-11.24-1.32-2.06-4.37-5.99-6.06-8.15l-.07-.09.07-.09,1.31-1.64.11.14c.06.08,6.04,7.5,8.04,10.62,1.98,3.12,6.1,11.28,6.14,11.36l.06.12-11.57,7.14ZM168.51,257.72c1.71,2.18,4.7,6.04,6.01,8.09,1.99,3.12,6.11,11.28,6.15,11.36l.05.1-.08.08-6.43,6.52,9.28-5.72c-.52-1.03-4.23-8.32-6.07-11.22-1.83-2.87-7.06-9.41-7.9-10.46l-1.01,1.26Z"/>
      </g>
      <g>
        <rect class="st3" x="169.27" y="281.1" width="22.31" height="7.82" transform="translate(-125.78 143.51) rotate(-32.86)"/>
        <path d="M173.09,294.75l-4.56-7.05,19.23-12.43,4.56,7.06-19.23,12.42ZM169.34,287.87l3.93,6.07,18.25-11.79-3.93-6.08-18.25,11.79Z"/>
      </g>
      <g>
        <polygon class="st4" points="161.63 308.05 161.92 313.09 91.74 313.09 92.04 308.05 161.63 308.05"/>
        <path class="st4" d="M162.08,313.24h-70.5v-.16s.32-5.18.32-5.18h69.86v.14s.31,5.2.31,5.2ZM91.89,312.95h69.88l-.28-4.75h-69.31l-.29,4.75Z"/>
      </g>
      <g>
        <g>
          <g>
            <g>
              <path class="st17" d="M234,97.8s1.77,44.17.47,71.22c-1.3,27.06-18.43,36.39-18.43,36.39v-79.39l17.96-28.22Z"/>
              <path d="M223.77,97.8c.81,20.29,1.24,40.65.81,60.95-.11,5.14-.15,10.35-.8,15.46.12-.91.24-1.81.36-2.72-.63,4.64-1.78,9.18-3.6,13.5.34-.81.69-1.63,1.03-2.45-1.46,3.41-3.3,6.62-5.56,9.56.53-.69,1.07-1.38,1.6-2.07-1.89,2.43-4.05,4.67-6.48,6.56.69-.54,1.38-1.07,2.07-1.6-.74.57-1.5,1.14-2.32,1.58,5.13,2.95,10.26,5.89,15.39,8.84v-79.39c-.46,1.72-.93,3.44-1.4,5.16,5.99-9.4,11.97-18.81,17.96-28.22,3-4.7,1-11.26-3.67-13.99-4.95-2.9-11.01-1.03-13.99,3.67-3.72,5.85-7.44,11.69-11.15,17.53-2,3.14-4,6.29-6,9.43-1.26,1.98-2.21,3.88-2.21,6.43v79.39c0,7.92,8.64,12.53,15.4,8.83,2.08-1.14,3.96-2.75,5.74-4.29,3.61-3.1,6.64-7,9.15-11.01,3.58-5.73,6.03-12.35,7.29-18.96,1.44-7.53,1.55-15.2,1.69-22.84.36-19.77-.05-39.59-.84-59.34-.23-5.57-4.49-10.23-10.23-10.23-5.41,0-10.46,4.65-10.23,10.23Z"/>
            </g>
            <g>
              <path class="st3" d="M234,93.85s1.77,48.12.47,75.17c-1.3,27.06-18.43,36.39-18.43,36.39v-79.39l17.96-32.17Z"/>
              <path d="M215.6,206.16v-80.25l18.78-33.64.06,1.56c.02.48,1.76,48.45.47,75.21-1.3,26.99-18.49,36.66-18.66,36.76l-.65.36ZM216.48,126.14v78.49c3.12-2.05,16.43-12.15,17.56-35.62,1.15-23.98-.13-65.05-.42-73.57l-17.14,30.7Z"/>
            </g>
          </g>
          <g>
            <g>
              <path class="st17" d="M18.82,97.8s-1.77,44.17-.47,71.22c1.3,27.06,18.43,36.39,18.43,36.39v-79.39l-17.96-28.22Z"/>
              <path d="M8.59,97.8c-.81,20.29-1.23,40.65-.81,60.95.16,7.54.37,15.07,1.91,22.49,1.32,6.37,3.87,12.72,7.36,18.21,2.46,3.88,5.47,7.62,8.97,10.63,1.74,1.49,3.58,3.06,5.61,4.17,6.75,3.7,15.4-.92,15.4-8.83v-79.3c0-3.44-1.64-5.64-3.32-8.28-2.09-3.29-4.18-6.57-6.27-9.85-3.26-5.12-6.51-10.23-9.76-15.35-2.98-4.69-9.05-6.56-13.99-3.67-4.68,2.74-6.67,9.29-3.67,13.99,5.99,9.41,11.97,18.82,17.96,28.22-.47-1.72-.93-3.44-1.4-5.16v79.39c5.13-2.94,10.26-5.89,15.39-8.84-.82-.45-1.58-1.02-2.32-1.58.69.53,1.38,1.06,2.07,1.6-2.44-1.89-4.59-4.13-6.48-6.56.53.69,1.07,1.38,1.6,2.07-2.26-2.94-4.1-6.15-5.56-9.56.35.82.69,1.63,1.03,2.45-1.81-4.32-2.97-8.86-3.6-13.5.12.91.24,1.81.36,2.72-.86-6.7-.8-13.57-.88-20.33-.09-6.96-.06-13.92.02-20.88.12-10.59.38-21.19.75-31.78.04-1.14.08-2.28.13-3.42.22-5.58-4.82-10.23-10.23-10.23-5.74,0-10,4.66-10.23,10.23Z"/>
            </g>
            <g>
              <path class="st3" d="M18.82,93.85s-1.77,48.12-.47,75.17c1.3,27.06,18.43,36.39,18.43,36.39v-79.39l-17.96-32.17Z"/>
              <path d="M37.22,206.16l-.65-.36c-.17-.09-17.37-9.77-18.66-36.76-1.28-26.76.46-74.73.47-75.21l.06-1.56,18.78,33.64v80.25ZM19.2,95.44c-.29,8.51-1.57,49.58-.42,73.57,1.12,23.48,14.44,33.58,17.55,35.62v-78.49l-17.14-30.7Z"/>
            </g>
          </g>
        </g>
        <g>
          <g>
            <path class="st17" d="M219.51,119.15c.34,13.33,0,57.62,0,57.62,0,35.8-20.06,68.99-94.83,68.69-74-.3-91.52-32.88-91.52-68.69v-57.62h186.35Z"/>
            <path d="M209.28,119.15c.46,18.57.14,37.18.01,55.75-.03,4.46-.16,8.9-.76,13.34.12-.91.24-1.82.36-2.72-.78,5.69-2.2,11.27-4.42,16.57.34-.81.69-1.63,1.03-2.44-1.83,4.36-4.2,8.46-7.08,12.21.53-.69,1.06-1.38,1.6-2.07-2.98,3.86-6.46,7.27-10.31,10.25.69-.54,1.38-1.07,2.07-1.6-4.8,3.68-10.1,6.62-15.66,8.98.81-.35,1.63-.69,2.44-1.03-9.39,3.95-19.38,6.24-29.46,7.6.91-.12,1.81-.24,2.72-.37-17.43,2.3-35.45,2.28-52.87-.04.91.13,1.81.25,2.72.37-9.79-1.33-19.51-3.54-28.64-7.35.81.34,1.63.69,2.44,1.03-5.42-2.29-10.58-5.14-15.25-8.72.69.53,1.38,1.06,2.07,1.6-3.66-2.84-6.96-6.1-9.8-9.76.54.69,1.07,1.39,1.61,2.07-2.8-3.65-5.09-7.65-6.88-11.89.34.81.69,1.63,1.03,2.44-2.23-5.36-3.64-11.02-4.43-16.78.12.91.24,1.81.36,2.72-.75-5.62-.8-11.26-.8-16.91v-53.24c-3.41,3.41-6.82,6.82-10.23,10.23h186.35c5.58,0,10.23-4.65,10.23-10.23s-4.65-10.23-10.23-10.23H33.16c-5.58,0-10.23,4.65-10.23,10.23v43.37c0,14.17-.47,28.54,4.06,42.19,3.12,9.4,8.15,18,15.07,25.12,7.95,8.19,18.03,13.72,28.62,17.72,13.31,5.02,27.78,6.95,41.91,7.78,16.47.96,33.16.2,49.39-2.79,12-2.21,23.99-6.17,34.45-12.53,9.01-5.48,16.71-12.84,22.4-21.73,4.83-7.54,7.97-16.31,9.46-25.12,1.17-6.93,1.43-13.8,1.47-20.79.12-17.73.41-35.49-.03-53.21-.14-5.57-4.55-10.23-10.23-10.23s-10.37,4.65-10.23,10.23Z"/>
          </g>
          <g>
            <path class="st3" d="M219.51,113.45c.34,13.33,0,63.32,0,63.32,0,35.8-20.06,68.99-94.83,68.69-74-.3-91.52-32.88-91.52-68.69v-63.32h186.35Z"/>
            <path d="M217.31,113.45c.47,18.95.14,37.93.04,56.88-.04,5.73.02,11.46-.69,17.16-.45,3.61-1.39,7.91-2.57,11.67-1.24,3.91-2.74,7.32-4.81,10.92-10.23,17.72-29.94,26.4-49.41,30.23-15.33,3.03-31.24,3.44-46.8,2.6-13.36-.72-26.83-2.74-39.41-7.48-8.9-3.35-17.21-8.37-23.71-15.34-5.5-5.88-9.36-13.12-11.64-20.8-3.71-12.46-2.96-25.58-2.96-38.61v-47.24c-.73.73-1.46,1.46-2.19,2.19h186.35c2.83,0,2.83-4.39,0-4.39H33.16c-1.19,0-2.19,1-2.19,2.2v42.42c0,13.2-.9,26.87,1.91,39.86,1.74,8.07,5,15.88,9.91,22.55,5.55,7.54,12.96,13.42,21.26,17.67,10.99,5.64,23.17,8.49,35.35,10.11,15.85,2.11,32.18,2.18,48.08.51,21.78-2.29,45.23-8.83,59.9-26.2,10.45-12.39,14.22-28.18,14.33-44.09.12-17.91.23-35.82.12-53.73-.02-3.03-.04-6.06-.12-9.09-.07-2.82-4.46-2.83-4.39,0Z"/>
          </g>
        </g>
      </g>
      <path class="st1" d="M16.59,162.71c15.91-3.95,64.7-15.04,110.1-15.04s94.19,11.09,110.1,15.04c1.59-2.34,2.33-3.87,2.33-3.87l.43-15.9c-12.07-3.09-64.4-15.73-112.86-15.73s-100.79,12.64-112.87,15.73l.43,15.9s.75,1.53,2.34,3.87Z"/>
      <path class="st7" d="M202.91,54.07c0,1.81-1.47,3.29-3.28,3.29s-3.29-1.47-3.29-3.29,1.47-3.29,3.29-3.29,3.28,1.47,3.28,3.29Z"/>
      <g>
        <g>
          <g>
            <path class="st17" d="M127.67,121.73l112.58-3.41s-.53-107.36-112.58-107.36S15.08,118.33,15.08,118.33l112.58,3.41h0Z"/>
            <path d="M127.67,132.7c10.34-.32,20.68-.63,31.02-.94,18.65-.56,37.29-1.13,55.93-1.69,8.54-.26,17.08-.52,25.62-.77,5.95-.18,10.99-4.85,10.96-10.96-.03-6.56-1.07-13.22-2.22-19.65-2.44-13.72-7.03-27.12-13.5-39.46-8.64-16.46-21.4-30.58-37.02-40.68C177.96,5.28,153.07.21,128.92,0c-24.45-.21-49.61,4.66-70.64,17.63-15.91,9.81-28.91,23.96-37.8,40.37-6.71,12.37-11.4,25.94-13.98,39.76-1.25,6.72-2.32,13.68-2.38,20.55v.02c-.03,6.11,5.02,10.78,10.96,10.96,10.34.31,20.68.62,31.01.94,18.65.57,37.29,1.12,55.94,1.69,8.54.26,17.08.52,25.63.78-3.65-3.66-7.31-7.31-10.96-10.96h0c0,5.97,4.99,10.96,10.96,10.96h0c5.97,0,10.96-4.99,10.96-10.96h0c0-5.97-4.98-10.96-10.96-10.96s-10.96,4.99-10.96,10.96h0c3.65-3.65,7.31-7.31,10.96-10.96h0c3.65,3.65,7.31,7.31,10.96,10.96h0c0-6.11-4.99-10.78-10.96-10.96-10.34-.31-20.68-.62-31.02-.94-18.65-.56-37.29-1.13-55.93-1.7-8.54-.25-17.09-.51-25.63-.77,3.65,3.65,7.3,7.31,10.96,10.96.02-3.67.45-7.35.93-10.99-.13.97-.27,1.94-.39,2.92,1.55-11.57,4.58-22.98,9.11-33.74-.37.87-.74,1.74-1.11,2.62,3.62-8.55,8.21-16.67,13.87-24.03-.57.74-1.14,1.48-1.71,2.22,4.89-6.33,10.54-12.04,16.86-16.94-.74.57-1.48,1.14-2.22,1.71,6.54-5.05,13.73-9.2,21.34-12.42-.87.37-1.74.74-2.62,1.1,9.56-4.01,19.66-6.55,29.93-7.93-.98.13-1.95.26-2.92.39,13.58-1.8,27.5-1.8,41.08,0-.97-.13-1.94-.27-2.91-.39,10.26,1.38,20.37,3.92,29.93,7.93-.87-.36-1.75-.73-2.62-1.1,7.62,3.22,14.81,7.37,21.35,12.42-.74-.57-1.48-1.14-2.22-1.71,6.32,4.91,11.97,10.62,16.86,16.94-.57-.74-1.14-1.48-1.71-2.22,5.66,7.36,10.26,15.48,13.87,24.03-.37-.87-.74-1.74-1.11-2.62,4.53,10.77,7.56,22.17,9.12,33.74-.13-.97-.26-1.95-.39-2.92.49,3.63.91,7.32.92,10.99l10.96-10.96c-10.34.32-20.68.63-31.02.94-18.65.56-37.29,1.12-55.93,1.69-8.54.26-17.08.51-25.62.77-5.97.18-10.96,4.85-10.96,10.96s4.99,11.14,10.96,10.96Z"/>
          </g>
          <path class="st21" d="M127.67,121.73l112.58-3.41s-.53-107.36-112.58-107.36S15.08,118.33,15.08,118.33l112.58,3.41h0Z"/>
          <path class="st7" d="M127.72,18.42c72.36,0,99.28,43.74,109.29,76.02-7.4-31.63-31.42-83.47-109.29-83.47S25.84,62.8,18.44,94.43C28.45,62.15,55.37,18.42,127.72,18.42Z"/>
        </g>
        <path class="st14" d="M126.56,73.12c-47.39,0-86.69,8.09-105.44,12.76-3.45,9.63-5.35,18.55-6.4,25.42,14.8-4.03,58.12-14.42,111.84-14.42,57.44,0,103,11.88,114.49,15.16-.99-6.8-2.84-15.75-6.25-25.45-17.43-4.51-58.36-13.47-108.25-13.47Z"/>
        <g>
          <path class="st17" d="M241.86,106.55s-49.87-15.75-115.46-15.75-115.44,15.75-115.44,15.75v37.07s60.23-16.41,115.45-16.41,115.45,16.41,115.45,16.41v-37.07Z"/>
          <path d="M244.77,95.98c-14.02-4.43-28.68-7.25-43.15-9.66-34.19-5.71-68.92-7.8-103.53-5.52-26.67,1.77-53.39,5.7-79.32,12.23-3.59.9-7.19,1.84-10.73,2.95-4.68,1.47-8.05,5.55-8.05,10.57v37.07c0,7.14,7,12.44,13.87,10.57,17.83-4.86,36.13-8.34,54.37-11.17,3.49-.54,6.98-1.04,10.48-1.52-.97.13-1.95.26-2.92.39,16.77-2.24,33.67-3.71,50.6-3.72,16.93-.01,33.84,1.48,50.61,3.72-.97-.13-1.95-.26-2.91-.39,21.52,2.9,43.01,6.94,64.02,12.47.27.07.55.14.83.22,6.88,1.87,13.87-3.43,13.87-10.57v-37.07c0-5.98-4.98-10.96-10.96-10.96s-10.96,4.99-10.96,10.96v37.07c4.62-3.52,9.25-7.04,13.87-10.57-17.83-4.85-36.12-8.34-54.36-11.17-17.42-2.71-34.97-4.73-52.6-5.41-17.23-.66-34.48.31-51.6,2.22-25.22,2.81-50.33,7.29-74.93,13.53-1.08.27-2.15.55-3.23.84,4.62,3.53,9.25,7.05,13.87,10.57v-37.07c-2.69,3.52-5.36,7.04-8.05,10.56,14.02-4.42,28.68-7.24,43.16-9.66,4.64-.78,9.29-1.47,13.95-2.1-.97.13-1.94.26-2.91.39,34.39-4.62,69.18-5.18,103.69-1.56,4.34.45,8.67.98,13,1.56-.98-.13-1.95-.27-2.92-.39,18.77,2.53,37.6,5.99,55.79,11.36.44.13.88.26,1.32.4,5.7,1.79,11.94-2.06,13.48-7.66,1.63-5.92-1.96-11.69-7.66-13.48Z"/>
        </g>
        <path class="st21" d="M241.86,106.55s-49.87-15.75-115.46-15.75-115.44,15.75-115.44,15.75v37.07s60.23-16.41,115.45-16.41,115.45,16.41,115.45,16.41v-37.07Z"/>
        <path class="st14" d="M10.96,137.78v5.84s60.23-16.41,115.45-16.41,115.45,16.41,115.45,16.41v-5.84s-60.24-16.41-115.45-16.41-115.45,16.41-115.45,16.41Z"/>
        <path class="st7" d="M126.4,90.8c-65.59,0-115.44,15.75-115.44,15.75v5.9s49.85-15.74,115.44-15.74,115.46,15.74,115.46,15.74v-5.9s-49.87-15.75-115.46-15.75Z"/>
        <g>
          <g>
            <rect class="st3" x="121" y="7.06" width="10.82" height="128.4"/>
            <path d="M132.26,135.9h-11.7V6.62h11.7v129.28ZM121.44,135.02h9.94V7.5h-9.94v127.52Z"/>
          </g>
          <g>
            <g>
              <rect class="st3" x="76.68" y="85.1" width="10.82" height="51.82"/>
              <path d="M87.94,137.37h-11.7v-52.7h11.7v52.7ZM77.11,136.49h9.95v-50.95h-9.95v50.95Z"/>
            </g>
            <g>
              <rect class="st3" x="36.76" y="92.19" width="10.82" height="51.82"/>
              <path d="M48.02,144.46h-11.7v-52.7h11.7v52.7ZM37.2,143.58h9.95v-50.95h-9.95v50.95Z"/>
            </g>
          </g>
        </g>
        <path class="st7" d="M176.9,34.56c10.97,4.95,18.48,12.03,16.77,15.8-1.7,3.78-11.98,2.82-22.94-2.13-10.97-4.95-18.47-12.03-16.77-15.81,1.7-3.78,11.98-2.82,22.94,2.13Z"/>
        <path d="M87.85,86.12c0-6.88-.08-13.77.09-20.65.09-3.43.25-6.85.51-10.28.13-1.62.28-3.23.47-4.85.05-.44.1-.88.16-1.31.18-1.51-.18,1.31.02-.2.12-.87.26-1.73.4-2.6.54-3.29,1.26-6.55,2.17-9.75.43-1.52.92-3.03,1.45-4.52.29-.81.6-1.62.92-2.41.55-1.38-.51,1.16.08-.2.17-.4.35-.8.53-1.18,1.39-3.05,3.05-5.97,4.94-8.74.42-.62.85-1.22,1.3-1.82.91-1.22-.76.96.18-.24.28-.36.58-.71.87-1.06,1.19-1.43,2.46-2.79,3.78-4.1,2.26-2.25,2.25-6.02,0-8.27-2.26-2.26-6-2.24-8.27,0-10.56,10.51-16.63,24.2-19.15,38.75-2.48,14.35-2.15,28.92-2.15,43.42,0,3.19,2.66,5.85,5.85,5.85s5.85-2.66,5.85-5.85h0Z"/>
        <path d="M48.84,94.26c0-5.55.12-11.1.48-16.64.2-3.11.48-6.21.85-9.3.05-.46.39-3.01.13-1.12.1-.76.22-1.52.33-2.29.25-1.67.55-3.33.87-4.98.62-3.19,1.39-6.36,2.31-9.48.43-1.49.92-2.97,1.44-4.43.26-.73.53-1.45.81-2.18.14-.36.28-.71.43-1.07.25-.58.2-.47-.14.33.1-.24.2-.47.31-.7,1.26-2.9,2.75-5.7,4.45-8.38.41-.63.83-1.26,1.26-1.88.25-.36,1.75-2.34.65-.92,1-1.28,2.07-2.49,3.2-3.66,1.39-1.45,2.9-2.78,4.49-4.02,2.52-1.96,2.04-6.22,0-8.27-2.45-2.46-5.75-1.96-8.27,0-10.67,8.34-16.89,21.13-20.42,33.94-3.4,12.37-4.51,25.37-4.79,38.15-.05,2.3-.07,4.59-.07,6.89,0,3.18,2.66,5.84,5.85,5.84s5.84-2.66,5.85-5.84h0Z"/>
        <g>
          <g>
            <g>
              <rect class="st3" x="121" y="7.06" width="10.82" height="128.4"/>
              <path d="M132.26,135.9h-11.7V6.62h11.7v129.28ZM121.44,135.02h9.94V7.5h-9.94v127.52Z"/>
            </g>
            <g>
              <g>
                <rect class="st3" x="165.32" y="85.1" width="10.82" height="51.82"/>
                <path d="M176.58,137.37h-11.7v-52.7h11.7v52.7ZM165.76,136.49h9.95v-50.95h-9.95v50.95Z"/>
              </g>
              <g>
                <rect class="st3" x="205.23" y="92.19" width="10.82" height="51.82"/>
                <path d="M216.5,144.46h-11.7v-52.7h11.7v52.7ZM205.67,143.58h9.95v-50.95h-9.95v50.95Z"/>
              </g>
            </g>
          </g>
          <path d="M164.97,85.73c0-6.89.09-13.77-.09-20.65-.09-3.42-.25-6.85-.51-10.27-.13-1.62-.28-3.24-.47-4.85-.05-.44-.1-.88-.16-1.32-.18-1.51.18,1.31-.02-.19-.12-.87-.26-1.74-.4-2.6-.54-3.29-1.26-6.55-2.17-9.76-.43-1.52-.92-3.03-1.46-4.51-.29-.81-.6-1.62-.92-2.42-.55-1.37.51,1.17-.08-.2-.17-.4-.35-.79-.53-1.18-1.39-3.05-3.06-5.97-4.94-8.74-.42-.61-.86-1.22-1.3-1.82-.91-1.22.76.96-.18-.24-.28-.36-.57-.7-.87-1.05-1.18-1.43-2.46-2.79-3.78-4.1-2.26-2.25-2.25-6.02,0-8.27,2.26-2.25,6-2.24,8.27,0,10.56,10.51,16.63,24.21,19.15,38.76,2.48,14.35,2.15,28.92,2.15,43.42,0,3.19-2.66,5.84-5.85,5.84s-5.85-2.65-5.85-5.84h0Z"/>
          <path d="M204.47,93.23c0-5.55-.13-11.1-.49-16.64-.2-3.11-.48-6.21-.84-9.3-.06-.45-.4-3.01-.13-1.11-.11-.76-.22-1.53-.34-2.29-.25-1.66-.55-3.32-.87-4.98-.62-3.19-1.39-6.36-2.3-9.48-.44-1.5-.92-2.97-1.44-4.44-.26-.73-.53-1.45-.81-2.17-.14-.36-.28-.71-.43-1.07-.24-.59-.2-.48.14.33-.1-.23-.2-.47-.31-.71-1.26-2.9-2.75-5.71-4.45-8.38-.4-.63-.83-1.25-1.26-1.87-.25-.36-1.75-2.34-.65-.92-.99-1.28-2.07-2.49-3.2-3.67-1.39-1.44-2.9-2.78-4.49-4.01-2.52-1.96-2.04-6.22,0-8.27,2.46-2.46,5.76-1.96,8.27,0,10.68,8.34,16.9,21.13,20.42,33.95,3.41,12.37,4.51,25.36,4.79,38.15.05,2.29.07,4.59.07,6.89,0,3.19-2.66,5.85-5.84,5.85s-5.85-2.66-5.85-5.85h0Z"/>
        </g>
      </g>
      <g>
        <g>
          <g>
            <path class="st2" d="M103.05,182.18c0,15.1-12.24,27.33-27.33,27.33s-27.33-12.23-27.33-27.33,12.24-27.33,27.33-27.33,27.33,12.24,27.33,27.33Z"/>
            <path class="st5" d="M75.72,158.46c14.49,0,26.34,11.28,27.27,25.53.04-.6.06-1.2.06-1.81,0-15.09-12.24-27.33-27.33-27.33s-27.33,12.24-27.33,27.33c0,.61.02,1.21.06,1.81.92-14.25,12.78-25.53,27.27-25.53Z"/>
            <g>
              <g>
                <path class="st3" d="M90.67,182.18c0,8.26-6.69,14.95-14.95,14.95s-14.95-6.69-14.95-14.95,6.7-14.95,14.95-14.95,14.95,6.69,14.95,14.95Z"/>
                <path d="M88.48,182.18c-.09,6.3-4.77,11.89-11.13,12.67-6.46.79-12.4-3.42-14.03-9.66-1.6-6.14,2.01-12.73,7.89-14.95,6.12-2.31,12.86.5,15.9,6.18.94,1.77,1.34,3.78,1.37,5.76.04,2.83,4.42,2.83,4.38,0-.09-6.96-4.27-13.25-10.74-15.89-6.46-2.63-13.95-.92-18.79,4.04-4.97,5.1-5.93,12.73-3.12,19.13,2.76,6.29,9.59,10.11,16.33,9.84,9.1-.37,16.2-8.14,16.32-17.12.04-2.83-4.35-2.82-4.38,0Z"/>
              </g>
              <path class="st16" d="M86.48,178.25c0,2.03-1.65,3.67-3.67,3.67s-3.67-1.64-3.67-3.67,1.64-3.68,3.67-3.68,3.67,1.65,3.67,3.68Z"/>
            </g>
          </g>
          <g>
            <path class="st2" d="M207.69,182.18c0,15.1-12.24,27.33-27.33,27.33s-27.33-12.23-27.33-27.33,12.23-27.33,27.33-27.33,27.33,12.24,27.33,27.33Z"/>
            <g>
              <g>
                <path class="st3" d="M195.31,182.18c0,8.26-6.69,14.95-14.95,14.95s-14.95-6.69-14.95-14.95,6.7-14.95,14.95-14.95,14.95,6.69,14.95,14.95Z"/>
                <path d="M193.12,182.18c-.09,6.3-4.78,11.89-11.13,12.67-6.47.79-12.4-3.42-14.03-9.66-1.6-6.14,2.01-12.73,7.89-14.95,6.13-2.31,12.86.5,15.9,6.18.95,1.77,1.35,3.78,1.38,5.76.03,2.83,4.42,2.83,4.38,0-.09-6.96-4.27-13.25-10.74-15.89-6.47-2.63-13.95-.92-18.79,4.04-4.97,5.1-5.93,12.73-3.12,19.13,2.75,6.29,9.59,10.11,16.33,9.84,9.1-.37,16.2-8.14,16.32-17.12.04-2.83-4.35-2.82-4.38,0Z"/>
              </g>
              <path class="st16" d="M191.11,178.25c0,2.03-1.64,3.67-3.67,3.67s-3.67-1.64-3.67-3.67,1.65-3.68,3.67-3.68,3.67,1.65,3.67,3.68Z"/>
            </g>
          </g>
        </g>
        <path class="st5" d="M180.36,158.46c14.48,0,26.34,11.28,27.27,25.53.04-.6.06-1.2.06-1.81,0-15.09-12.24-27.33-27.33-27.33s-27.33,12.24-27.33,27.33c0,.61.02,1.21.06,1.81.93-14.25,12.78-25.53,27.27-25.53Z"/>
      </g>
      <g>
        <g>
          <path class="st2" d="M152.11,224.55c0,8.47-6.87,15.35-15.34,15.35h-21.39c-8.47,0-15.34-6.87-15.34-15.35h0c0-8.47,6.87-15.34,15.34-15.34h21.39c8.47,0,15.34,6.87,15.34,15.34h0Z"/>
          <path class="st5" d="M115.38,213.59h21.39c7.73,0,14.12,5.71,15.19,13.16.1-.72.16-1.45.16-2.2,0-8.47-6.87-15.34-15.34-15.34h-21.39c-8.47,0-15.34,6.87-15.34,15.34,0,.75.06,1.48.16,2.2,1.06-7.44,7.45-13.16,15.19-13.16Z"/>
        </g>
        <path d="M111.68,221.26c.72,14.73,27.2,14.46,28.77.22.19-1.75-1.62-3.23-3.23-3.23-1.91,0-3.04,1.48-3.24,3.23.19-1.66.02-.27-.14.21-.05.16-.11.31-.17.46.42-1.07.15-.36.03-.12-.09.19-.2.38-.31.56-.12.2-.75,1.04-.11.22-.33.43-.73.81-1.14,1.17-.39.34.49-.32-.27.18-.35.24-.73.43-1.11.62-.33.15-.32.15.02,0-.18.07-.36.14-.55.2-.49.17-1,.3-1.51.42-.14.04-1.21.2-.88.16-.66.08-1.33.09-2,.1-.53.01-1.06-.02-1.59-.05-.25-.02-.49-.04-.73-.07.28.04.22.02-.17-.04-.42-.07-.83-.18-1.24-.29-.2-.06-1.49-.58-.81-.27-.31-.14-.61-.31-.9-.48-.13-.08-.27-.17-.4-.26-.66-.44.53.45-.06-.04-.22-.19-.42-.38-.61-.58-.09-.1-.18-.2-.27-.3-.47-.53.43.61.03.05-.27-.37-.49-.77-.68-1.18-.25-.52.32.83.04.08-.08-.2-.14-.4-.2-.61-.08-.28-.13-.56-.17-.84.2,1.34.09.8.07.49-.08-1.76-1.4-3.23-3.23-3.23-1.7,0-3.33,1.47-3.24,3.23h0Z"/>
      </g>
    </g>
    <g>
      <g>
        <g>
          <g class="st20">
            <rect class="st18" x="171.92" y="300.39" width="10.22" height="13.17"/>
            <rect class="st18" x="182.13" y="300.39" width="3.95" height="13.17"/>
            <rect class="st19" x="186.08" y="300.39" width="3.95" height="13.17"/>
            <rect class="st6" x="190.03" y="300.39" width="3.94" height="13.17"/>
          </g>
          <path d="M187.78,293.09h-9.67c-2.4,0-5.24,1.35-6.3,3.62-2.07,4.39-4.13,8.78-6.19,13.16-1.14,2.42-1.41,4.96,0,7.38,1.3,2.22,3.73,3.62,6.3,3.62h22.06c2.58,0,5.01-1.4,6.31-3.62,1.41-2.41,1.14-4.95,0-7.38-2.07-4.39-4.13-8.78-6.19-13.16-1.7-3.61-6.8-4.5-10-2.62-3.67,2.14-4.32,6.39-2.63,9.99,2.07,4.39,4.13,8.78,6.19,13.17,2.1-3.66,4.2-7.33,6.31-11h-22.06c2.11,3.67,4.21,7.33,6.32,11,2.06-4.39,4.12-8.78,6.18-13.17-2.1,1.21-4.2,2.41-6.31,3.62h9.67c3.99,0,7.31-3.33,7.31-7.31s-3.32-7.3-7.31-7.3Z"/>
        </g>
        <polygon class="st8" points="187.78 300.39 184.82 300.39 181.07 300.39 178.11 300.39 171.92 313.56 181.07 313.56 184.82 313.56 193.97 313.56 187.78 300.39"/>
        <polygon class="st9" points="175.23 311.52 180.46 300.39 178.11 300.39 171.92 313.56 181.07 313.56 184.82 313.56 193.97 313.56 175.23 311.52"/>
      </g>
      <polygon points="180.97 297.3 183.28 308.87 185.21 297.49 180.97 297.3"/>
      <g>
        <path class="st2" d="M193.84,286.14c0,6.07-4.92,11-11,11s-11-4.92-11-11,4.92-10.99,11-10.99,11,4.93,11,10.99Z"/>
        <path d="M190.92,286.14c-.08,4.47-3.6,7.99-8.07,8.08-4.47.08-8-3.73-8.07-8.08-.08-4.47,3.72-7.99,8.07-8.07,4.47-.08,8,3.72,8.07,8.07.07,3.77,5.92,3.78,5.85,0-.14-7.56-6-13.5-13.51-13.91-7.59-.41-13.64,5.85-14.29,13.1-.33,3.65,1.15,7.18,3.42,9.95,2.29,2.82,5.75,4.26,9.28,4.71,7.45.94,14.09-5.11,15-12.26.07-.53.1-1.06.12-1.59.07-3.77-5.78-3.76-5.85,0Z"/>
      </g>
      <path class="st16" d="M186.59,282.58c0,.71-1.16,1.27-2.58,1.27s-2.58-.57-2.58-1.27,1.16-1.27,2.58-1.27,2.58.57,2.58,1.27Z"/>
    </g>
  </g>
  <g>
    <g>
      <path class="st10" d="M52.23,262.33c0,7.82-6.34,14.15-14.15,14.15s-14.16-6.33-14.16-14.15,6.34-14.15,14.16-14.15,14.15,6.34,14.15,14.15Z"/>
      <path d="M44.92,262.33c0,.41-.02.81-.05,1.22-.11,1.53.31-1.84.03-.36-.14.77-.39,1.52-.65,2.26.85-2.31-.11.07-.46.66-.2.33-.42.64-.65.95,1.37-1.9.29-.44-.09-.02-.26.28-.55.53-.83.79-1.07.96,1.45-1.04.28-.2-.62.45-1.3.82-1.99,1.16-1.31.65,1.7-.65.32-.14-.36.13-.75.24-1.12.34-.38.1-.77.18-1.16.25,2.4-.45.55-.09-.06-.06-.69.03-3.45-.34-.88.06-.78-.12-1.54-.34-2.28-.59-1.39-.47,1.64.76.32.14-.35-.16-.69-.35-1.02-.54-.33-.19-.65-.41-.96-.62-1.03-.7,1.43,1.24,0-.05-.47-.43-2.15-2.49-.64-.51-.46-.61-.85-1.27-1.21-1.95-.24-.46-.74-1.78.11.34-.14-.36-.26-.73-.38-1.11-.12-.38-.2-.76-.28-1.15-.27-1.26.15,1.98,0-.04-.06-.81-.01-1.63.08-2.44-.25,2.55.11-.09.32-.76.15-.49.73-1.81-.18.3.16-.35.34-.69.51-1.03.18-.34.39-.66.59-.99,1.04-1.62-.79.91.02-.04.5-.58,1.06-1.1,1.63-1.59-1.86,1.58.14-.03.73-.37.33-.19.69-.35,1.03-.51-2.03.95-.81.35-.3.18.38-.12.75-.22,1.14-.31,1.95-.47-1.28.09.02-.05.81-.08,1.63-.06,2.44,0,1.52.11-1.84-.31-.36-.04.39.07.77.17,1.14.28.38.11.75.24,1.11.38-2.09-.77-.83-.35-.33-.1.35.17.67.37,1,.56.47.29,1.92,1.46.07-.02.6.48,1.13,1.03,1.63,1.59.97,1.07-1.04-1.45-.2-.28.22.31.42.64.62.96.2.33.37.68.54,1.02.65,1.31-.65-1.69-.14-.31.25.68.78,3.72.44,1.12.07.54.08,1.08.09,1.62.05,3.98,3.28,7.31,7.31,7.31s7.36-3.33,7.3-7.31c-.13-9.46-6.07-17.19-14.82-20.4-4-1.47-8.86-1.36-12.9-.13-4.62,1.41-8.29,4.32-11.19,8.12-5.21,6.84-5.25,17.14-.45,24.21,5.25,7.71,14.76,11.33,23.8,8.84,9.19-2.53,15.43-11.24,15.56-20.64.06-3.98-3.37-7.31-7.3-7.31s-7.26,3.32-7.31,7.31Z"/>
    </g>
    <path class="st12" d="M52.23,262.33c0,7.82-6.34,14.15-14.15,14.15s-14.16-6.33-14.16-14.15,6.34-14.15,14.16-14.15,14.15,6.34,14.15,14.15Z"/>
    <g>
      <path class="st13" d="M26.38,262.33c0-7.4,5.69-13.47,12.93-14.1-.4-.04-.81-.05-1.22-.05-7.82,0-14.16,6.34-14.16,14.15s6.34,14.15,14.16,14.15c.41,0,.82-.02,1.22-.05-7.24-.62-12.93-6.69-12.93-14.1Z"/>
      <path class="st11" d="M49.79,262.33c0-7.4-5.69-13.47-12.93-14.1.4-.04.81-.05,1.22-.05,7.81,0,14.15,6.34,14.15,14.15s-6.34,14.15-14.15,14.15c-.42,0-.82-.02-1.22-.05,7.24-.62,12.93-6.69,12.93-14.1Z"/>
      <g>
        <path class="st10" d="M36.7,272.35v-2.22c-1.89-.06-3.39-.86-4.49-2.36-.55-.76-.79-1.63-.87-2.57h.2c.81,0,1.63.02,2.45.02.15,0,.21.04.25.19.34,1,1.17,1.64,2.34,1.66.03,0,.06,0,.1,0v-3.54c-.31-.05-.61-.08-.92-.14-.95-.18-1.85-.47-2.65-1.03-.99-.68-1.5-1.65-1.67-2.82-.15-1.08.14-2.04.84-2.88.84-1.01,1.87-1.74,3.16-2.06.34-.08.69-.13,1.03-.16.17-.02.21-.09.21-.24,0-.57,0-1.14.01-1.71v-.17h2.6v.56c0,.33,0,.66,0,1,0,.4.05.44.46.49.7.07,1.35.27,1.96.61,1.22.69,2.02,1.74,2.49,3.05.1.3.17.61.24.92.03.09,0,.15-.12.15-.93,0-1.85-.01-2.78-.01-.02,0-.03-.01-.07-.01,0-.06-.01-.13-.02-.19-.06-.52-.38-.86-.81-1.11-.41-.24-.86-.34-1.35-.38v3.48c.24.02.48.04.72.06,1.34.12,2.56.54,3.56,1.49.85.81,1.29,1.81,1.21,3.01-.06.85-.36,1.61-.89,2.27-1.15,1.43-2.66,2.14-4.45,2.33-.05,0-.09,0-.17.02v2.28h-2.6ZM39.32,263.94v3.11c.5.09,1.38-.1,1.88-.38.67-.37.73-.98.53-1.69-.09-.31-.35-.52-.63-.69-.55-.32-1.17-.31-1.78-.35ZM36.69,257.27c-.2,0-.39.02-.57.04-.45.05-.84.2-1.2.47-.43.33-.52,1.21-.28,1.59.46.73,1.29,1.04,2.05,1.01v-3.11Z"/>
        <g>
          <path d="M37.06,272.35v-2.22c0-.21-.17-.35-.36-.36-2.64-.16-4.69-1.88-4.99-4.57-.12.12-.24.24-.37.36.56,0,1.11.01,1.67.02.81,0,.88.24,1.32.76.59.71,1.41,1.12,2.35,1.09.2,0,.36-.16.36-.37v-3.54c0-.15-.11-.33-.27-.35-1.51-.21-2.93-.54-4.06-1.64-1.6-1.54-.95-3.86.41-5.24.55-.57,1.25-.94,1.98-1.22.55-.2,1.21-.09,1.71-.39.55-.32.23-1.87.23-2.36-.12.12-.24.24-.36.37h2.6c-.12-.13-.24-.25-.36-.37,0,.43-.33,2.2.43,2.34,1.89.35,3.26,1.07,4.2,2.8.7,1.28.3,1.26-.9,1.26-1.02,0-.56.34-.98-.38-.53-.9-1.38-1.18-2.38-1.3-.2-.03-.36.19-.36.37v3.48c0,.21.16.35.36.36,2.49.21,5.17,1.25,5.13,4.2-.04,2.68-3.04,3.98-5.25,4.28-.16.02-.27.2-.27.35v2.28c.12-.12.24-.24.36-.36h-2.6c-.47,0-.47.73,0,.73h2.6c.2,0,.37-.17.37-.36,0-.96-.33-1.88.77-2.09.87-.16,1.67-.56,2.4-1.04,1.12-.73,2.13-2,2.29-3.37.42-3.54-2.78-5.09-5.81-5.34.13.12.25.24.37.36v-3.48c-.12.12-.24.24-.37.36.94-.01,1.54.42,1.81,1.31.02.14.1.33.27.35.83.11,2.36.27,3.15-.02.16-.06.25-.18.27-.35.09-1.28-1-2.77-1.85-3.61-.44-.44-1.03-.83-1.61-1.04-.5-.19-.96-.31-1.5-.38-.39-.06-.2-1.42-.2-1.7,0-.2-.16-.37-.36-.37h-2.6c-.2,0-.36.17-.36.37,0,1.03.13,1.71-.99,1.93-.73.14-1.5.54-2.07.99-1.42,1.1-2.34,2.46-2.18,4.3.13,1.49,1.03,2.62,2.26,3.39.83.52,1.84.73,2.78.88.42.06.2,2.85.2,3.26.12-.12.24-.24.36-.36-.98.04-1.71-.5-2.08-1.39-.05-.13-.13-.29-.25-.36-.69-.41-2.22-.11-3.01-.11-.18,0-.39.17-.36.36.35,3.09,2.64,5.12,5.72,5.3-.12-.12-.25-.24-.36-.36v2.22c0,.47.73.47.73,0Z"/>
          <path d="M38.96,263.94v3.11c0,.22.17.34.36.37,1.05.13,2.78-.35,2.87-1.62.13-1.77-1.43-2.15-2.87-2.22-.47-.02-.47.71,0,.73.98.04,2.11.12,2.15,1.34.03.91-1.49,1.12-2.15,1.03.12.12.24.24.36.37v-3.11c0-.47-.73-.47-.73,0Z"/>
          <path d="M36.69,256.9c-1.28.08-2.52.49-2.54,1.96-.02,1.25,1.48,1.89,2.54,1.88.2,0,.36-.16.36-.36v-3.11c0-.47-.73-.47-.73,0v3.11c.13-.12.25-.25.37-.37-.7.02-1.74-.31-1.81-1.14-.09-1.02,1.04-1.18,1.81-1.23.47-.03.47-.76,0-.73Z"/>
        </g>
      </g>
    </g>
  </g>
</svg>