<?xml version="1.0" encoding="UTF-8"?>
<svg id="Layer_1" xmlns="http://www.w3.org/2000/svg" version="1.1" viewBox="0 0 276.2 356.57">
  <!-- Generator: Adobe Illustrator 29.6.1, SVG Export Plug-In . SVG Version: 2.1.1 Build 9)  -->
  <defs>
    <style>
      .st0 {
        fill: #ffdecc;
      }

      .st1 {
        fill: #662d91;
      }

      .st1, .st2, .st3, .st4, .st5, .st6, .st7, .st8, .st9, .st10, .st11, .st12, .st13, .st14, .st15, .st16, .st17, .st18, .st19 {
        fill-rule: evenodd;
      }

      .st20 {
        fill: #5b2d15;
      }

      .st21 {
        fill: #ffd7c3;
      }

      .st22 {
        fill: #8b5e3c;
      }

      .st23 {
        fill: #ffce00;
      }

      .st24, .st19 {
        fill: #002760;
      }

      .st25 {
        fill: #000002;
      }

      .st26 {
        fill: #fce5d0;
      }

      .st27 {
        fill: #603913;
      }

      .st28 {
        fill: #ff737d;
      }

      .st29 {
        fill: #471a06;
      }

      .st2 {
        fill: #f15a29;
      }

      .st30 {
        fill: #bcbec0;
      }

      .st3 {
        fill: #ed1c24;
      }

      .st31, .st17 {
        fill: #003b97;
      }

      .st4, .st32 {
        fill: #0068ff;
      }

      .st33 {
        fill: #e8c197;
      }

      .st34 {
        fill: #ed1b24;
      }

      .st5 {
        fill: #ff9d00;
      }

      .st35 {
        fill: #fff3ee;
      }

      .st6 {
        fill: #39b54a;
      }

      .st36 {
        fill: #f38b9e;
      }

      .st37, .st15 {
        fill: #be1e2d;
      }

      .st38 {
        fill: #ffb600;
      }

      .st39 {
        fill: #fff;
      }

      .st40 {
        fill: #754c29;
      }

      .st7 {
        fill: #ff979f;
      }

      .st8, .st41 {
        fill: #ffebde;
      }

      .st42 {
        fill: #ffe5d4;
      }

      .st9 {
        fill: #8dc63f;
      }

      .st43, .st14 {
        fill: #f7941e;
      }

      .st10 {
        fill: #9e1f63;
      }

      .st44 {
        fill: #fde5d2;
      }

      .st11 {
        fill: #e588bd;
      }

      .st12 {
        fill: #d7df23;
      }

      .st13, .st45 {
        fill: #fff200;
      }

      .st46 {
        fill: #723f29;
      }

      .st47 {
        fill: #ffc0a4;
      }

      .st16 {
        fill: #fbb040;
      }

      .st48 {
        fill: #939598;
      }

      .st49 {
        fill: #e6e7e8;
      }

      .st50 {
        fill: #cc9f72;
      }

      .st51 {
        fill: #ffe3c5;
      }

      .st18 {
        fill: #fffbcc;
      }
    </style>
  </defs>
  <g>
    <g>
      <g>
        <g>
          <g>
            <g>
              <path class="st41" d="M101.68,277.47s-31.05,30.07-19.75,38.38c11.29,8.32,31.24-20.7,31.24-20.7l-11.49-17.68Z"/>
              <path d="M99.17,274.95c-3.58,3.47-6.95,7.21-10.14,11.04-2.82,3.39-5.52,6.9-7.89,10.63-2.06,3.24-3.97,6.82-4.83,10.6-.83,3.71-.4,7.53,2.25,10.4,2.91,3.15,7.51,3.8,11.5,2.81,4.24-1.05,7.97-3.82,11.25-6.58,3.22-2.71,6.12-5.82,8.83-9.03,2.15-2.53,4.23-5.15,6.1-7.88.68-.98.65-2.59,0-3.59-3.83-5.89-7.66-11.79-11.49-17.68-1.05-1.62-3.13-2.29-4.86-1.27-1.62.95-2.33,3.24-1.28,4.86,3.83,5.89,7.66,11.79,11.49,17.69v-3.59c-.28.39-.55.79-.84,1.18-.31.42-.63.85-.94,1.27-.2.26-.4.52-.59.78-.41.53.55-.71.13-.16-.15.2-.31.39-.46.59-2.44,3.09-5.04,6.06-7.85,8.83-.74.73-1.5,1.44-2.28,2.14-.39.35-.79.68-1.18,1.02-.19.16-.39.33-.59.49-.15.12-1.06.83-.28.23-1.59,1.22-3.28,2.31-5.07,3.18-.21.1-.41.19-.61.28.95-.42.24-.11.04-.03-.39.15-.8.27-1.2.39-.39.11-.79.19-1.18.26-.73.13.91-.1.17-.03-.25.03-.51.04-.77.04-.32,0-1.65-.15-.37.04-.38-.06-.73-.15-1.09-.26-.18-.05-.36-.12-.54-.19,1.02.39.38.15.15.04-.32-.17-1.58-1.1-.56-.29-.24-.2-.48-.42-.69-.66-.55-.61.48.76-.08-.13-.18-.29-.58-1.31-.1-.09-.13-.33-.21-.68-.29-1.02-.17-.83.06.96,0-.15-.02-.33,0-.66,0-1,.01-.17.04-.34.05-.51.07-.69-.14.94-.03.25.06-.43.16-.85.27-1.27.2-.77.46-1.53.73-2.28.08-.2.16-.39.24-.59-.4.98-.1.25-.02.05.21-.48.44-.95.68-1.41.89-1.79,1.93-3.5,3.02-5.17,1.16-1.77,2.4-3.48,3.68-5.16-.59.78.38-.48.54-.67.31-.39.62-.79.94-1.18.66-.82,1.34-1.63,2.03-2.43,2.15-2.52,4.39-4.98,6.7-7.36.77-.81,1.56-1.61,2.36-2.39,3.3-3.2-1.73-8.21-5.03-5.03Z"/>
            </g>
            <path class="st38" d="M91.43,294.07l7.57,6.13,4.97-13.15-2.8-4.34s-4.2,4.25-6.25,6.84c-2.04,2.6-3.5,4.52-3.5,4.52Z"/>
            <g>
              <polygon class="st25" points="99.06 307.16 83.67 294.83 87.99 289.44 103.39 301.77 99.06 307.16"/>
              <path d="M99.19,308.29l-16.65-13.34,5.33-6.65,16.66,13.34-5.33,6.66ZM84.8,294.7l14.14,11.33,3.32-4.14-14.15-11.33-3.31,4.13Z"/>
            </g>
          </g>
          <g>
            <g>
              <path class="st41" d="M173.08,277.47s31.05,30.07,19.76,38.38c-11.29,8.32-31.24-20.7-31.24-20.7l11.49-17.68Z"/>
              <path d="M170.57,279.98c3.58,3.48,6.95,7.21,10.15,11.04.64.77,1.26,1.54,1.88,2.32.16.19,1.14,1.45.54.67.36.47.72.95,1.07,1.43,1.25,1.68,2.43,3.4,3.54,5.18,1.03,1.65,1.97,3.35,2.76,5.12.09.2.4.93-.02-.05.08.19.16.39.24.59.15.38.28.76.41,1.15.25.79.46,1.58.59,2.39.12.69-.11-.93-.03-.25.02.17.03.34.05.51.02.33.02.67,0,1-.04,1.11.15-.68,0,.15-.06.35-.17.69-.29,1.02.44-1.22.09-.22-.1.09-.53.91.46-.48-.07.13-.21.24-.45.45-.69.66.99-.83-.22.1-.56.29-.21.12-.87.39.15-.04-.17.07-.35.13-.54.19-.35.12-.71.19-1.09.26,1.27-.22-.03-.04-.37-.04-.19,0-.39,0-.58-.02-.98-.05.62.11-.03.02-.81-.13-1.6-.37-2.38-.65-.21-.08-.92-.37.04.03-.2-.09-.4-.18-.61-.28-.49-.22-.96-.47-1.43-.74-.84-.47-1.65-1-2.44-1.54-.42-.29-.81-.59-1.21-.89.75.57.05.04-.08-.07-.27-.21-.53-.43-.8-.65-1.67-1.39-3.23-2.9-4.75-4.45-1.44-1.47-2.8-3.01-4.13-4.57-.57-.67-1.13-1.35-1.67-2.03-.25-.32-.5-.63-.76-.94-.12-.15-.22-.3-.35-.45-.58-.74.37.48.01.02-.81-1.06-1.62-2.12-2.37-3.22v3.59c3.83-5.89,7.66-11.79,11.49-17.69,1.06-1.62.34-3.91-1.28-4.86-1.73-1.01-3.81-.35-4.85,1.27-3.83,5.89-7.67,11.79-11.49,17.68-.65,1-.68,2.6,0,3.59,3.33,4.83,7.15,9.41,11.3,13.55,3.09,3.09,6.52,6.06,10.4,8.13,3.54,1.89,7.94,3.12,11.85,1.61,3.99-1.54,6.44-4.72,6.77-8.99.29-3.69-1.35-7.49-2.98-10.7-3.71-7.32-9.26-13.82-14.77-19.85-1.78-1.96-3.61-3.89-5.51-5.74-3.3-3.19-8.32,1.83-5.03,5.03Z"/>
            </g>
            <path class="st38" d="M183.34,294.07l-7.58,6.13-4.96-13.15,2.79-4.34s4.2,4.25,6.25,6.84c2.05,2.6,3.5,4.52,3.5,4.52Z"/>
            <g>
              <rect class="st25" x="171.37" y="294.84" width="19.73" height="6.91" transform="translate(-146.71 178.79) rotate(-38.7)"/>
              <path d="M175.58,308.29l-5.33-6.66,16.66-13.34,5.33,6.65-16.66,13.34ZM172.51,301.89l3.32,4.14,14.15-11.33-3.32-4.13-14.15,11.33Z"/>
            </g>
          </g>
        </g>
        <g>
          <g>
            <path class="st31" d="M108.95,281.7h57.02s11.14,61.8,3.56,64.44c-7.57,2.65-14.6-9.42-14.6-9.42,0,0-5.57,1.71-15.24,2h0c-.73.03-1.48.04-2.23.04s-1.5,0-2.23-.03h0c-9.67-.3-15.25-2.01-15.25-2.01,0,0-7.02,12.07-14.6,9.42-7.57-2.64,3.57-64.44,3.57-64.44Z"/>
            <path d="M108.95,285.26h57.02c-1.14-.88-2.29-1.74-3.43-2.62.68,3.8,1.3,7.61,1.89,11.43.6,3.83,1.15,7.65,1.68,11.49.12.88-.11-.82.01.06.03.25.06.51.1.76.07.51.13,1.01.2,1.52.14,1.12.28,2.23.42,3.35.26,2.16.5,4.31.72,6.47.76,7.32,1.54,14.88.84,22.23-.03.31-.07.63-.11.94.17-1.38.03-.25-.03.07-.09.55-.21,1.1-.37,1.63-.06.22-.13.43-.21.64-.25.68.46-.97.08-.21-.08.16-.17.31-.27.46-.33.51.76-.83.16-.24-.43.42.93-.61.33-.27-.27.15-.74.25.61-.25-.27.1-.55.16-.83.23-.9.21.77-.05-.13.01-.27.02-.54,0-.8,0-.91-.04.78.15-.11-.02-.35-.07-.69-.18-1.03-.29-.87-.29.68.33-.16-.06-.25-.11-.49-.25-.73-.38-.49-.27-.95-.59-1.4-.91.7.5-.05-.05-.16-.14-.22-.18-.43-.36-.63-.55-.48-.43-.92-.89-1.37-1.35-.53-.56-1.02-1.15-1.5-1.74-.42-.51.46.61-.14-.18-.2-.27-.39-.54-.58-.8-.36-.51-.71-1.03-1.03-1.58-.79-1.35-2.49-2.1-4.01-1.63-1.26.38-2.57.63-3.86.87-.7.12-1.4.23-2.1.34-1.11.16.73-.09-.44.06-.51.07-1.02.13-1.54.18-2.11.23-4.23.36-6.36.43-1.94.07-3.56,1.57-3.56,3.55h0c1.19-1.18,2.37-2.36,3.56-3.54-1.49.04-2.98.04-4.46,0,1.18,1.18,2.37,2.37,3.55,3.55h0c0-1.99-1.62-3.49-3.55-3.56-2.13-.07-4.25-.21-6.36-.43-.39-.04-.77-.08-1.16-.13-.24-.03-.49-.06-.73-.09.36.04.34.04-.08-.02-.7-.1-1.41-.22-2.1-.34-1.3-.24-2.61-.48-3.86-.87-1.52-.46-3.23.29-4.02,1.63-.51.89-1.11,1.73-1.73,2.55-.48.64.5-.64-.01,0-.15.19-.3.38-.46.57-.33.4-.68.79-1.03,1.17-.37.4-.76.79-1.16,1.16-.21.19-.42.38-.62.56-.12.11-1.09.86-.38.32-.44.33-.91.63-1.4.91-.24.14-.49.26-.73.38-.82.41.7-.25-.15.06-.25.09-.51.16-.77.23-.19.05-1.08.18-.1.06-.27.03-.53.04-.8.04-.18,0-.36,0-.54-.03.5.08.54.08.13,0-.72-.14-1.32-.56-.21.02-.61-.32.77.67.32.27-.57-.53.36.53.21.31-.12-.17-.22-.35-.31-.54-.4-.75.34.89.08.21-.08-.21-.15-.42-.21-.64-.16-.53-.28-1.08-.37-1.63-.06-.32-.21-1.46-.02-.07-.05-.31-.08-.62-.11-.94-.08-.74-.12-1.49-.16-2.25-.17-3.56-.02-7.15.2-10.71.27-4.22.68-8.43,1.15-12.63.24-2.15.51-4.31.79-6.46.06-.51.13-1.02.2-1.52.04-.25.07-.51.1-.76.12-.88-.11.82.01-.06.14-1.06.29-2.13.44-3.19.85-6,1.78-11.98,2.82-17.95.1-.59.2-1.19.31-1.78.34-1.91-.49-3.82-2.48-4.37-1.74-.48-4.04.57-4.38,2.48-2.18,12.07-3.95,24.25-5.22,36.45-.77,7.39-1.56,14.99-.92,22.42.21,2.45.5,5.41,1.95,7.51,2.86,4.14,8.77,3.31,12.6,1.06,3.76-2.19,6.93-5.94,9.12-9.68-1.34.54-2.68,1.09-4.02,1.63,5.16,1.57,10.84,1.96,16.19,2.13-1.19-1.19-2.37-2.37-3.56-3.55h0c0,1.98,1.62,3.51,3.56,3.56,1.48.04,2.97.04,4.46,0,1.93-.05,3.56-1.58,3.56-3.56h0c-1.19,1.18-2.37,2.37-3.56,3.55,5.35-.18,11.03-.56,16.19-2.13-1.34-.54-2.68-1.09-4.02-1.63,1.7,2.9,3.97,5.69,6.56,7.83,3.77,3.12,9.92,5.61,14.2,1.96,2.01-1.71,2.43-4.83,2.75-7.27.41-3.12.39-6.29.29-9.43-.25-8.36-1.22-16.7-2.32-24.98-.94-7.2-2.01-14.38-3.21-21.54-.24-1.45-.49-2.89-.75-4.34-.28-1.53-1.96-2.61-3.42-2.61h-57.02c-4.58,0-4.58,7.11,0,7.11Z"/>
          </g>
          <g>
            <path class="st25" d="M78.62,352.21c0,1.74,26.34,3.15,58.83,3.15s58.83-1.41,58.83-3.15-26.34-3.14-58.83-3.14-58.83,1.41-58.83,3.14Z"/>
            <path d="M137.45,356.57c-15.73,0-30.53-.33-41.66-.92-18.38-.99-18.38-2.12-18.38-3.44s0-2.45,18.38-3.43c11.14-.59,25.94-.92,41.66-.92s30.53.33,41.67.92c18.38.98,18.38,2.12,18.38,3.43s0,2.45-18.38,3.44c-11.14.59-25.93.92-41.67.92ZM83.19,352.21c7.71.97,26.71,1.94,54.26,1.94s46.55-.97,54.26-1.94c-7.71-.96-26.72-1.93-54.26-1.93s-46.55.97-54.26,1.93Z"/>
          </g>
          <g>
            <g>
              <polygon class="st44" points="110.85 283.66 137.26 283.66 137.48 283.66 163.88 283.66 175.32 321.28 137.48 321.28 137.26 321.28 99.41 321.28 110.85 283.66"/>
              <path d="M110.85,290.76h53.02c-2.28-1.74-4.57-3.47-6.85-5.21,3.65,11.98,7.29,23.98,10.94,35.96.17.55.33,1.11.51,1.66,2.28-3,4.57-6,6.85-9h-75.91c2.29,3,4.57,6,6.85,9,3.65-11.99,7.3-23.98,10.94-35.96.17-.56.34-1.11.5-1.66,1.13-3.71-1.3-7.74-4.96-8.75-3.81-1.05-7.62,1.26-8.75,4.96-3.64,11.99-7.29,23.98-10.94,35.97-.16.55-.33,1.11-.5,1.66-1.35,4.44,2.32,8.99,6.85,8.99h75.91c4.53,0,8.21-4.55,6.86-8.99-3.65-11.99-7.29-23.98-10.94-35.97-.17-.55-.34-1.11-.5-1.66-.92-3.04-3.63-5.22-6.86-5.22h-53.02c-3.87,0-7.11,3.23-7.11,7.11s3.23,7.11,7.11,7.11Z"/>
            </g>
            <polygon class="st45" points="110.85 283.66 137.26 283.66 137.48 283.66 163.88 283.66 175.32 321.28 137.48 321.28 137.26 321.28 99.41 321.28 110.85 283.66"/>
            <polygon class="st38" points="110.85 283.66 137.26 283.66 137.48 283.66 163.88 283.66 175.32 321.28 137.48 321.28 137.26 321.28 99.41 321.28 110.85 283.66"/>
          </g>
          <polygon class="st24" points="106.38 331.52 168.45 331.52 168.19 328.36 106.66 328.36 106.38 331.52"/>
        </g>
        <g>
          <g>
            <g>
              <g>
                <path class="st44" d="M34.45,133.58s-1.57,39.07-.42,62.99c1.15,23.92,16.29,32.18,16.29,32.18v-70.21l-15.87-24.96Z"/>
                <path d="M25.4,133.58c-.72,17.95-1.09,35.95-.72,53.9.14,6.66.33,13.33,1.69,19.88,1.17,5.64,3.41,11.24,6.51,16.11,2.18,3.44,4.83,6.73,7.92,9.39,1.54,1.32,3.17,2.71,4.96,3.7,5.97,3.27,13.61-.81,13.61-7.81v-70.13c0-3.04-1.45-4.98-2.94-7.32-1.85-2.91-3.7-5.81-5.54-8.72-2.88-4.52-5.76-9.04-8.64-13.56-2.64-4.16-8-5.81-12.37-3.25-4.13,2.42-5.9,8.21-3.25,12.38,5.29,8.32,10.59,16.65,15.88,24.96-.42-1.53-.83-3.04-1.24-4.57v70.21c4.54-2.6,9.08-5.21,13.61-7.82-.73-.39-1.4-.9-2.06-1.4.61.47,1.22.94,1.83,1.41-2.15-1.68-4.06-3.65-5.74-5.8.48.61.95,1.22,1.42,1.83-1.99-2.6-3.62-5.44-4.91-8.45.3.72.61,1.44.91,2.16-1.6-3.82-2.64-7.84-3.19-11.94.1.8.21,1.61.32,2.4-.75-5.93-.7-12.01-.78-17.97-.07-6.15-.05-12.31.02-18.46.1-9.37.34-18.74.66-28.1.04-1.01.07-2.02.11-3.03.2-4.93-4.26-9.04-9.04-9.04-5.09,0-8.85,4.12-9.05,9.04Z"/>
              </g>
              <path class="st20" d="M34.45,130.09s-1.57,42.56-.42,66.48c1.15,23.92,16.29,32.18,16.29,32.18v-70.21l-15.87-28.45Z"/>
            </g>
            <g>
              <g>
                <path class="st44" d="M241.15,133.58s1.56,39.07.42,62.99c-1.15,23.92-16.3,32.18-16.3,32.18v-70.21l15.88-24.96Z"/>
                <path d="M232.1,133.58c.73,17.95,1.1,35.95.73,53.9-.1,4.55-.13,9.14-.72,13.66.11-.8.22-1.6.33-2.4-.56,4.1-1.58,8.12-3.19,11.94.31-.72.61-1.44.92-2.16-1.3,3.01-2.92,5.85-4.92,8.45.47-.61.95-1.22,1.41-1.83-1.67,2.15-3.57,4.12-5.74,5.8.62-.47,1.22-.94,1.83-1.41-.65.5-1.33,1.01-2.05,1.4,4.54,2.6,9.08,5.21,13.61,7.82v-70.21c-.41,1.52-.82,3.04-1.23,4.57,5.29-8.32,10.58-16.64,15.87-24.96,2.65-4.16.89-9.96-3.24-12.38-4.38-2.56-9.74-.91-12.38,3.25-3.29,5.16-6.58,10.33-9.87,15.5-1.77,2.78-3.54,5.56-5.31,8.34-1.11,1.75-1.95,3.43-1.95,5.68v70.21c0,7,7.64,11.08,13.61,7.81,1.84-1.01,3.49-2.44,5.08-3.79,3.18-2.74,5.87-6.19,8.09-9.74,3.17-5.06,5.33-10.92,6.45-16.77,1.28-6.65,1.36-13.45,1.49-20.2.32-17.48-.05-35.01-.74-52.48-.2-4.92-3.97-9.04-9.05-9.04-4.78,0-9.25,4.11-9.05,9.04Z"/>
              </g>
              <path class="st20" d="M241.15,130.09s1.56,42.56.42,66.48c-1.15,23.92-16.3,32.18-16.3,32.18v-70.21l15.88-28.45Z"/>
            </g>
          </g>
          <g>
            <g>
              <path class="st44" d="M228.13,157.65c.33,13.03.75,50.16.75,50.16,0,34.99-19.61,67.44-92.7,67.14-72.34-.3-89.46-32.14-89.46-67.14v-50.16h181.42Z"/>
              <path d="M219.09,157.65c.42,16.51.55,33.05.74,49.56.05,3.88-.19,7.77-.7,11.61.11-.8.22-1.6.32-2.41-.76,5.68-2.18,11.26-4.41,16.54.31-.72.61-1.44.91-2.16-1.81,4.25-4.13,8.26-6.96,11.92.47-.62.95-1.22,1.41-1.84-2.89,3.71-6.24,7-9.96,9.88.61-.47,1.22-.94,1.83-1.41-4.74,3.64-9.98,6.54-15.48,8.86.72-.3,1.44-.61,2.16-.91-9.14,3.82-18.86,6.04-28.65,7.36.8-.11,1.61-.22,2.4-.33-17.06,2.26-34.71,2.23-51.77-.05.8.11,1.6.21,2.4.32-9.61-1.31-19.16-3.49-28.13-7.27.72.3,1.44.61,2.16.91-5.25-2.23-10.26-5.02-14.78-8.51.61.47,1.22.94,1.82,1.41-3.53-2.75-6.71-5.9-9.46-9.44.48.61.95,1.22,1.43,1.83-2.74-3.57-4.99-7.48-6.74-11.62.31.72.61,1.44.91,2.16-2.2-5.27-3.58-10.84-4.35-16.48.1.8.21,1.6.32,2.4-.69-5.12-.77-10.25-.77-15.4v-46.95c-3.01,3.01-6.03,6.03-9.05,9.05h181.42c4.93,0,9.05-4.12,9.05-9.05s-4.12-9.05-9.05-9.05H46.72c-4.93,0-9.05,4.12-9.05,9.05v38.35c0,12.59-.24,25.23,3.47,37.42,2.56,8.38,6.7,15.92,12.3,22.64,5.63,6.78,13.11,12.18,20.98,16.06,10.26,5.06,21.34,8.07,32.62,9.72,14.74,2.16,29.7,2.67,44.55,1.68,22.79-1.51,46.36-6.76,64.11-21.97,6.19-5.3,11.38-12.09,14.9-19.45,3.82-7.99,5.85-16.25,6.83-25.03.6-5.37.48-10.73.41-16.13-.12-9.59-.24-19.19-.39-28.78-.07-4.84-.15-9.69-.27-14.53-.12-4.93-4.01-9.05-9.05-9.05s-9.17,4.12-9.05,9.05Z"/>
            </g>
            <path class="st41" d="M228.13,157.65c.33,13.03.75,50.16.75,50.16,0,34.99-19.61,67.44-92.7,67.14-72.34-.3-89.46-32.14-89.46-67.14v-50.16h181.42Z"/>
            <path class="st42" d="M136.18,267.96c71.06.29,91.57-30.36,92.66-64.23.03,2.54.05,4.07.05,4.07,0,34.99-19.61,67.44-92.7,67.14-72.34-.3-89.46-32.14-89.46-67.14v-6.99c0,35,17.12,66.85,89.46,67.14Z"/>
          </g>
        </g>
        <path class="st0" d="M132.17,209.05c47.94.53,79.52-14.49,96.34-34.86-.13-8.17-.26-16.11-.38-20.85h-2.28c-15.9,20.54-46.84,35.9-94.51,35.38-39.61-.44-66.46-10.85-84.63-24.24v20.99c18.75,13.12,45.96,23.14,85.45,23.58Z"/>
        <g>
          <path class="st44" d="M131.35,193.03C17.61,191.77,9.08,108.29,9.08,108.29c0,0,11.25,8.32,36.3-5.51,22.32-12.32,51.49-49.34,121.53-44.95,100.34,6.29,101.8,136.71-35.56,135.2Z"/>
          <path d="M131.35,183.98c-8.28-.1-16.56-.63-24.78-1.72.8.11,1.6.21,2.4.32-12.78-1.73-25.39-4.81-37.3-9.81.72.3,1.44.61,2.17.91-8.69-3.67-16.93-8.34-24.4-14.09.62.47,1.23.94,1.84,1.42-6.53-5.07-12.43-10.92-17.49-17.46.47.61.94,1.22,1.41,1.83-5.07-6.58-9.29-13.8-12.52-21.46.31.72.61,1.44.92,2.16-2.53-6.03-4.58-12.37-5.6-18.84-.05-.29-.09-.58-.13-.87.11.8.21,1.6.32,2.4-.02-.16-.05-.32-.06-.49-4.53,2.6-9.08,5.2-13.61,7.81,1.49,1.09,3.41,1.72,5.13,2.29,3.65,1.22,7.75,1.56,11.57,1.38,6.25-.3,12.38-1.85,18.16-4.2,5.18-2.11,10.2-4.54,14.89-7.59,5.79-3.76,11.25-8.05,16.82-12.12,6.9-5.02,14-9.78,21.49-13.88,4.08-2.24,8.28-4.27,12.58-6.09-.73.31-1.44.61-2.17.91,10.91-4.57,22.36-7.64,34.06-9.24-.8.1-1.6.21-2.4.32,13.18-1.77,26.8-2,40-.26-.8-.11-1.6-.22-2.4-.33,8.17,1.1,16.23,3.14,23.84,6.35-.72-.3-1.44-.6-2.16-.91,5.85,2.48,11.4,5.64,16.44,9.53-.61-.47-1.22-.95-1.83-1.42,4.36,3.38,8.3,7.26,11.67,11.63-.47-.61-.94-1.22-1.41-1.83,3.11,4.05,5.71,8.46,7.69,13.16-.3-.72-.61-1.44-.91-2.16,1.95,4.63,3.27,9.5,3.95,14.48-.11-.81-.21-1.61-.32-2.41.66,4.98.65,10.02-.01,14.99.1-.8.21-1.6.32-2.41-.7,5.11-2.08,10.09-4.08,14.85.29-.72.61-1.44.91-2.17-2.13,5.01-4.92,9.72-8.24,14.04.47-.61.95-1.22,1.41-1.83-3.82,4.93-8.29,9.3-13.22,13.12.61-.47,1.22-.94,1.83-1.41-6.32,4.87-13.32,8.79-20.66,11.9.72-.3,1.44-.61,2.16-.91-10.7,4.5-22.05,7.27-33.53,8.83.8-.11,1.61-.21,2.4-.32-8.99,1.2-18.07,1.67-27.14,1.58-4.93-.05-9.04,4.15-9.04,9.05s4.11,8.99,9.04,9.05c12.12.12,24.22-.81,36.15-2.94,10.14-1.8,19.87-4.8,29.34-8.81,15.33-6.5,28.92-16.82,38.56-30.45,8.08-11.39,12.54-25.53,12.37-39.5-.16-13.63-4.72-27.34-12.89-38.26-4.87-6.51-10.44-11.93-17.02-16.71-6.45-4.7-13.73-8.17-21.22-10.87-8.52-3.07-17.48-4.68-26.47-5.51-13.75-1.28-27.63-.58-41.24,1.58-20.83,3.29-40.49,11.71-57.99,23.35-12.64,8.4-24.01,18.96-38.13,24.91.72-.3,1.44-.61,2.17-.91-4.24,1.76-8.64,3.13-13.19,3.76.8-.11,1.6-.21,2.4-.32-2.73.36-5.5.44-8.24.08.8.11,1.6.22,2.41.33-1.73-.24-3.45-.64-5.07-1.32.72.3,1.44.61,2.15.91-.61-.26-1.24-.54-1.77-.93-2.53-1.87-6.56-1.51-9.13,0-2.53,1.48-4.8,4.73-4.48,7.81.52,5.03,1.69,9.99,3.23,14.81,3.4,10.66,8.49,20.88,15.15,29.88,9.81,13.26,22.34,24.13,36.92,31.89,20.29,10.79,43.11,15.54,65.9,16.86,3.37.2,6.75.29,10.12.34,4.94.06,9.05-4.16,9.05-9.05s-4.12-8.99-9.05-9.05Z"/>
        </g>
        <path class="st20" d="M131.35,193.03C17.61,191.77,9.08,108.29,9.08,108.29c0,0,11.25,8.32,36.3-5.51,22.32-12.32,51.49-49.34,121.53-44.95,100.34,6.29,101.8,136.71-35.56,135.2Z"/>
        <path class="st46" d="M166.91,64.42c-70.04-4.39-98.92,33.17-121.53,44.94-27.71,14.45-36.3-1.08-36.3-1.08,0,0,11.25,8.32,36.3-5.51,22.31-12.32,51.49-49.34,121.53-44.95,48.2,3.03,73.59,34.69,71.72,66.62-1.74-29.57-26.83-57.22-71.72-60.03Z"/>
        <path class="st29" d="M129.16,182.55c77.97.87,111.2-40.79,107.02-78.11,12.28,39.5-19.46,89.53-104.82,88.59C17.62,191.77,9.08,108.29,9.08,108.29c0,0,.05.03.13.09,6.67,22.5,31.49,73.21,119.95,74.18Z"/>
        <path class="st29" d="M144.28,110.05c40.35,9.93,73.15,29.88,87.09,39.28,3.56-6.33,5.85-13,6.92-19.72-9.96-6.99-40.62-26.89-79.13-36.37-31.86-7.85-67.51-9.18-87.3-9.21-8.31,5.79-15.3,11.41-21.61,15.55,23.33.29,60.52,2.23,94.04,10.48Z"/>
        <g>
          <g>
            <g>
              <path class="st44" d="M185.3,54.09s-.74-5.26,2.56-10.42c3.31-5.15,10.78-5.56,10.78-5.56,0,0,2.39-.32,4.95,3.53,2.55,3.85,1.67,7.42,1.67,7.42,0,0-7.16-1.57-10.08.69-2.92,2.27-5.16,7.22-5.16,7.22l-4.72-2.89Z"/>
              <path d="M194.35,54.09c-.15-1.13-.07-2.31.06-3.44-.11.8-.22,1.61-.32,2.41.21-1.55.6-3.04,1.19-4.49-.31.72-.61,1.44-.91,2.16.47-1.08,1.01-2.11,1.7-3.06-.48.62-.94,1.23-1.42,1.83.55-.7,1.16-1.31,1.85-1.87-.61.47-1.22.94-1.83,1.41.99-.76,2.06-1.35,3.2-1.84-.72.3-1.45.61-2.16.91,1.44-.58,2.94-.97,4.48-1.19-.8.11-1.6.21-2.4.32.43-.06.87-.12,1.3-.07-.8-.11-1.6-.22-2.4-.32.34.05.65.14.97.26-.72-.3-1.44-.6-2.16-.91.49.22.92.49,1.36.81-.61-.47-1.22-.94-1.84-1.42.61.5,1.12,1.04,1.61,1.66-.47-.61-.95-1.22-1.41-1.83.58.78,1.07,1.59,1.48,2.47-.3-.72-.61-1.44-.91-2.16.4.97.68,1.95.83,3-.11-.8-.22-1.6-.33-2.4.08.75.09,1.5.01,2.25.1-.8.21-1.6.32-2.4-.02.16-.05.33-.09.49,3.71-2.11,7.42-4.21,11.13-6.32-4.28-.92-9.54-1.48-13.75.07-5.45,1.98-9.35,6.82-11.71,12.01,4.13-1.09,8.26-2.16,12.38-3.25-1.57-.96-3.15-1.93-4.72-2.89-4.21-2.57-9.92-.94-12.38,3.25-2.53,4.32-.95,9.81,3.24,12.38,1.58.96,3.15,1.92,4.73,2.88,2.05,1.25,4.66,1.54,6.97.92,2.07-.57,4.48-2.13,5.41-4.16.8-1.77,1.84-3.46,3.01-4.99-.47.61-.95,1.22-1.42,1.83.65-.82,1.33-1.57,2.15-2.22-.61.47-1.22.94-1.83,1.41.28-.21.57-.37.89-.52-.73.3-1.44.6-2.17.91.71-.3,1.44-.47,2.21-.58-.8.11-1.6.21-2.4.32,1.71-.21,3.45-.11,5.16.11-.8-.11-1.6-.21-2.4-.32.61.08,1.21.17,1.8.3,4.68,1.02,9.96-1.32,11.14-6.31,1.54-6.55-.95-14.37-6.17-18.66-2.61-2.15-5.59-3.79-9.09-3.75-1.4.02-2.83.31-4.21.56-2.31.42-4.49,1.34-6.6,2.33-3.2,1.51-5.64,4.05-7.68,6.88-1.92,2.66-3.16,6.18-3.6,9.43-.25,1.89-.65,3.91-.38,5.84.33,2.51.78,4.53,2.64,6.4,1.69,1.69,4.01,2.65,6.4,2.65s4.71-.96,6.4-2.65c1.5-1.5,2.95-4.17,2.65-6.4Z"/>
            </g>
            <path class="st34" d="M185.3,54.09s-.74-5.26,2.56-10.42c3.31-5.15,10.78-5.56,10.78-5.56,0,0,2.39-.32,4.95,3.53,2.55,3.85,1.67,7.42,1.67,7.42,0,0-7.16-1.57-10.08.69-2.92,2.27-5.16,7.22-5.16,7.22l-4.72-2.89Z"/>
            <path class="st37" d="M203.59,41.64c-.16-.24-.32-.46-.47-.67,1.72,3.39,1.01,6.29,1.01,6.29,0,0-7.16-1.57-10.08.69-2.91,2.26-5.16,7.22-5.16,7.22l-3.66-2.23c.01.73.07,1.15.07,1.15l4.72,2.89s2.24-4.96,5.16-7.22c2.92-2.26,10.08-.69,10.08-.69,0,0,.88-3.57-1.67-7.42Z"/>
            <path class="st28" d="M187.54,46.99c3.37-5.25,10.97-5.66,10.97-5.66,0,0,2.43-.33,5.03,3.6.97,1.47,1.45,2.91,1.68,4.12.02,0,.04.01.04.01,0,0,.88-3.57-1.67-7.42-2.56-3.85-4.95-3.53-4.95-3.53,0,0-7.48.4-10.78,5.56-2.27,3.54-2.63,7.13-2.63,9.04.35-1.72,1.03-3.73,2.31-5.71Z"/>
          </g>
          <g>
            <path class="st44" d="M56.19,84.69s-8.94-31.72,3.72-54.37c8.16-14.58,30.56-27.08,54.32-18.38,21.68,7.94,38.4,32.51,65.66,48.18,26.77,15.4,52.93,9.35,68.86,15.86,14.95,6.1,20.64,24.88,17.59,35.01-6.32,20.95-24.91,21.52-24.91,21.52,0,0-35.4-27.26-82.57-38.87-47.18-11.61-102.67-8.95-102.67-8.95Z"/>
            <path d="M64.92,82.28c-1.02-3.6-1.64-7.35-2.14-11.06.11.8.21,1.61.32,2.41-1.07-7.97-1.3-16.07-.23-24.05-.12.8-.22,1.6-.33,2.41.7-5.05,1.92-10,3.88-14.71-.3.72-.61,1.44-.91,2.16,1.33-3.13,2.96-6.08,5.04-8.79-.47.61-.94,1.22-1.41,1.83,2.19-2.8,4.75-5.28,7.56-7.46-.61.47-1.22.95-1.83,1.42,3.15-2.4,6.58-4.38,10.22-5.94-.72.3-1.44.61-2.16.91,3.76-1.56,7.66-2.64,11.68-3.21-.8.11-1.6.22-2.4.32,4-.53,8.03-.53,12.03-.02-.8-.11-1.6-.21-2.4-.32,4.17.57,8.23,1.69,12.12,3.31-.72-.3-1.44-.61-2.16-.91,5.87,2.49,11.19,6.03,16.22,9.91-.61-.47-1.22-.94-1.83-1.42,10.26,7.96,19.51,17.15,29.67,25.25,6.08,4.86,12.37,9.45,19.1,13.37,7.34,4.28,15.4,7.46,23.65,9.52,12.63,3.16,25.63,3.29,38.46,4.98-.8-.1-1.6-.21-2.41-.32,4.1.55,8.19,1.35,12.03,2.94-.73-.3-1.44-.61-2.17-.91,2.07.89,4,2.03,5.78,3.39-.61-.47-1.22-.95-1.83-1.41,1.97,1.55,3.72,3.33,5.26,5.32-.47-.61-.94-1.22-1.42-1.83,1.74,2.29,3.17,4.79,4.31,7.44-.31-.72-.62-1.44-.92-2.17,1.21,2.88,2.05,5.89,2.47,8.99-.11-.8-.22-1.6-.33-2.4.3,2.31.35,4.64.05,6.95.1-.8.21-1.61.32-2.41-.32,2.22-1.04,4.34-1.89,6.41.31-.72.61-1.44.92-2.16-1.09,2.58-2.46,5.02-4.17,7.24.47-.61.94-1.22,1.41-1.83-1.45,1.85-3.11,3.52-4.96,4.96.62-.47,1.22-.94,1.84-1.41-1.93,1.48-4.02,2.69-6.26,3.64.72-.3,1.44-.61,2.16-.91-2.22.92-4.54,1.59-6.93,1.91.8-.1,1.6-.21,2.41-.32-.43.05-.87.11-1.3.12,1.52.41,3.05.82,4.57,1.23-3.15-2.42-6.49-4.63-9.83-6.79-8.53-5.52-17.41-10.5-26.51-14.98-13.01-6.4-26.56-11.84-40.48-15.89-14.89-4.33-30.25-6.84-45.61-8.67-21.17-2.52-42.61-3.43-63.91-2.85-1.15.04-2.31.07-3.46.12-4.92.24-9.05,3.94-9.05,9.05,0,4.75,4.12,9.28,9.05,9.05,15.62-.75,31.37-.23,46.95.83,8.71.59,17.4,1.45,26.06,2.61-.8-.11-1.61-.22-2.41-.32,10.88,1.47,21.71,3.42,32.33,6.18,10.38,2.7,20.53,6.26,30.42,10.42-.73-.3-1.45-.61-2.17-.91,16.85,7.13,33.26,15.96,48.08,26.73,1.89,1.37,3.5,2.45,6.22,2.26,2.75-.19,5.55-.68,8.18-1.53,5.07-1.63,9.43-4.2,13.49-7.62,5.12-4.32,8.46-10.25,10.85-16.41,4.27-11.07,1.32-24.51-5.13-34.15-3.76-5.62-8.88-10.61-15.1-13.4-6.2-2.77-12.54-3.83-19.26-4.6-7.16-.82-14.38-1.17-21.54-2.12.8.11,1.6.22,2.4.33-8.51-1.15-16.88-3.11-24.81-6.45.71.31,1.43.61,2.16.91-8.58-3.67-16.42-8.89-23.79-14.57.61.48,1.22.95,1.83,1.42-10.39-8.03-19.76-17.27-29.99-25.5-5.01-4.02-10.17-7.9-15.86-10.91-7.1-3.76-14.58-5.93-22.56-6.72-14.89-1.47-29.98,4.25-41.07,14.03-4.77,4.21-8.66,9.53-11.25,15.34-3.2,7.16-4.87,14.42-5.69,22.21-.9,8.37-.25,16.74.93,25.04.49,3.44,1.09,6.92,2.03,10.27,1.33,4.74,6.35,7.63,11.12,6.32,4.73-1.3,7.66-6.38,6.32-11.13Z"/>
          </g>
          <path class="st34" d="M56.19,84.69s-8.94-31.72,3.72-54.37c8.16-14.58,30.56-27.08,54.32-18.38,21.68,7.94,38.4,32.51,65.66,48.18,26.77,15.4,52.93,9.35,68.86,15.86,14.95,6.1,20.64,24.88,17.59,35.01-6.32,20.95-24.91,21.52-24.91,21.52,0,0-35.4-27.26-82.57-38.87-47.18-11.61-102.67-8.95-102.67-8.95Z"/>
          <path class="st37" d="M161.77,85.63c-41.28-10.16-88.15-10.7-107.46-10.4.87,5.77,1.91,9.47,1.91,9.47,0,0,55.5-2.66,102.67,8.95,47.18,11.62,82.58,38.87,82.58,38.87,0,0,5.92-.19,12.21-4.11-8.32-6.03-44.98-31.23-91.91-42.78Z"/>
          <path class="st28" d="M248.76,75.99c-15.93-6.51-42.09-.46-68.86-15.86-27.25-15.67-43.97-40.23-65.66-48.18-23.76-8.7-46.16,3.8-54.32,18.38-2.35,4.21-3.96,8.75-5.02,13.32.87-2.44,1.93-4.83,3.2-7.12,8.16-14.57,30.57-27.07,54.32-18.38,21.69,7.95,38.41,32.5,65.67,48.18,26.77,15.4,52.92,9.35,68.86,15.85,13.68,5.59,19.61,21.79,18.17,32.27.45-1.09.86-2.24,1.23-3.46,3.05-10.13-2.64-28.91-17.59-35.01Z"/>
          <path class="st39" d="M89.99,19.51c-10.62,2.34-18.32,8.35-17.2,13.42,1.12,5.07,10.64,7.29,21.26,4.95,10.62-2.34,18.32-8.35,17.2-13.42-1.12-5.07-10.63-7.29-21.25-4.95Z"/>
          <path class="st39" d="M69.89,38.47c-.24,2.35-2.35,4.06-4.69,3.82-2.35-.25-4.06-2.35-3.82-4.7.24-2.35,2.34-4.06,4.69-3.81,2.36.25,4.06,2.34,3.82,4.69Z"/>
        </g>
        <g>
          <g>
            <g>
              <g>
                <path class="st25" d="M103.6,225.93c0,7.3-5.92,13.21-13.21,13.21s-13.22-5.91-13.22-13.21,5.92-13.22,13.22-13.22,13.21,5.91,13.21,13.22Z"/>
                <path d="M101.66,225.93c-.07,5.57-4.22,10.52-9.84,11.2-5.72.7-10.97-3.03-12.41-8.55-1.42-5.44,1.78-11.26,6.98-13.22,5.42-2.04,11.37.44,14.06,5.47.84,1.56,1.19,3.34,1.21,5.09.03,2.5,3.9,2.5,3.87,0-.08-6.16-3.77-11.72-9.49-14.05-5.72-2.33-12.34-.82-16.62,3.57-4.39,4.51-5.24,11.26-2.76,16.92,2.44,5.56,8.47,8.94,14.44,8.7,8.05-.33,14.32-7.2,14.43-15.14.03-2.5-3.84-2.5-3.87,0Z"/>
              </g>
              <path class="st39" d="M99.88,222.45c0,1.79-1.45,3.25-3.25,3.25s-3.24-1.45-3.24-3.25,1.46-3.25,3.24-3.25,3.25,1.46,3.25,3.25Z"/>
            </g>
            <g>
              <g>
                <g>
                  <path class="st25" d="M200.33,225.93c0,7.3-5.92,13.21-13.22,13.21s-13.22-5.91-13.22-13.21,5.92-13.22,13.22-13.22,13.22,5.91,13.22,13.22Z"/>
                  <path d="M198.39,225.93c-.07,5.57-4.22,10.52-9.84,11.2-5.72.7-10.97-3.03-12.41-8.55-1.41-5.44,1.78-11.26,6.98-13.22,5.42-2.04,11.37.44,14.06,5.47.83,1.56,1.18,3.34,1.21,5.09.04,2.5,3.91,2.5,3.88,0-.09-6.16-3.77-11.72-9.5-14.05-5.71-2.33-12.34-.82-16.62,3.57-4.39,4.51-5.24,11.26-2.76,16.92,2.44,5.56,8.47,8.94,14.44,8.7,8.05-.33,14.32-7.2,14.43-15.14.03-2.5-3.84-2.5-3.88,0Z"/>
                </g>
                <path class="st39" d="M196.62,222.45c0,1.79-1.46,3.25-3.25,3.25s-3.25-1.45-3.25-3.25,1.46-3.25,3.25-3.25,3.25,1.46,3.25,3.25Z"/>
              </g>
              <path class="st36" d="M88.46,246.69c.28,2.06-3.29,4.25-7.95,4.88-4.66.63-8.68-.53-8.96-2.59-.28-2.07,3.27-4.26,7.94-4.89,4.67-.63,8.68.52,8.97,2.59Z"/>
              <path class="st36" d="M186.6,246.69c-.28,2.06,3.28,4.25,7.94,4.88,4.67.63,8.68-.53,8.96-2.59.28-2.07-3.27-4.26-7.94-4.89-4.66-.63-8.67.52-8.96,2.59Z"/>
            </g>
          </g>
          <path d="M144.13,252.47c0,.07-.01.14-.02.21.16-1.27.05-.4-.02-.08-.07.29-.17.57-.27.85.35-.92-.23.35-.4.62-.35.54.42-.49,0,.02-.18.22-.37.41-.57.59-.09.08-.65.51-.1.11-.27.19-.54.35-.82.5-.05.03-.81.37-.28.16-.36.15-.75.25-1.12.35-.86.24-1.44.27-2.4.3-1.63.04-2.91-.14-4.43-.69.5.19-.28-.14-.32-.15-.29-.14-.57-.33-.85-.51-.41-.27.27.27-.3-.25-.2-.18-.39-.38-.57-.59-.44-.49.36.51,0,0-.14-.19-.25-.38-.36-.57-.1-.18-.19-.36-.28-.54.4.86.13.29.06.08-.16-.42-.3-1.66-.15-.22-.17-1.54-1.16-2.85-2.83-2.85-1.43,0-3.02,1.3-2.85,2.85,1.35,12.19,23.95,12.43,24.58-.19.18-3.66-5.51-3.65-5.69,0h0Z"/>
        </g>
        <g>
          <g>
            <path class="st44" d="M172.47,313.25s-8.39-2.71-10.56-8.31c-3.46-8.88.39-19.74.39-19.74l-7.13-.25s-1.28,12.27-17.59,12.27c-.02,0-.03,0-.05,0h0s-.03,0-.05,0c-16.3,0-17.59-12.27-17.59-12.27l-7.14.25s3.85,10.86.39,19.74c-2.18,5.6-10.58,8.31-10.58,8.31l-2.73,7.53h75.38l-2.74-7.53Z"/>
            <path d="M174.19,307.02c-.66-.22-2.49-.99-.02.05-1.13-.47-2.22-1.04-3.27-1.67-.58-.35-1.15-.74-1.7-1.15,1.75,1.3.51.38.13.05-.31-.28-.59-.57-.87-.87-.32-.34-1.04-1.28.22.37-.25-.32-.47-.67-.67-1.02-.86-1.46.48,1.39-.02.05-.2-.54-.35-1.08-.5-1.62-.12-.41-.2-.82-.29-1.23-.09-.43-.34-2.39-.09-.34-.13-1.07-.17-2.16-.17-3.24,0-.9.05-1.8.12-2.69.04-.48.1-.97.15-1.45-.27,2.21-.06.53.02.04.3-1.81.7-3.65,1.32-5.38,1.45-4.11-2.29-8.04-6.23-8.18-2.38-.08-4.75-.16-7.13-.25-1.67-.06-3.39.72-4.57,1.89-1.32,1.31-1.7,2.79-1.9,4.57.35-3.18.17-1.14-.09-.21-.2.7-1.02,2.66.08.04-.28.66-.61,1.29-.98,1.89-.19.31-.4.62-.62.92-.56.77,1.14-1.44.53-.69-.13.16-.27.31-.4.46-.28.32-.59.62-.89.91-.17.16-.34.29-.51.45-.76.64,1.55-1.14.38-.31-.84.6-1.74,1.09-2.68,1.51,2.21-1,.23-.13-.34.05-.71.23-1.43.39-2.15.54-.33.07-.67.12-1.01.17,2.09-.33.76-.1.29-.06-.77.08-1.54.11-2.32.12-1.21.02-2.4-.04-3.6-.15-1.35-.14,1.63.24.32.04-.33-.05-.66-.12-.99-.19-.62-.12-1.22-.29-1.83-.48-.56-.17-2.59-1.02-.35-.05-.57-.24-1.11-.53-1.64-.84-.43-.25-.83-.52-1.24-.8-.84-.61,1.38,1.09.58.44-.17-.14-.33-.29-.5-.45-.32-.28-.62-.59-.9-.91-.14-.15-.27-.31-.4-.46-.63-.74,1.17,1.58.41.53-.41-.57-.77-1.18-1.09-1.81-.15-.28-.28-.56-.4-.85,1.06,2.46.46,1.13.25.52-.34-.99-.64-3.69-.27-.35-.2-1.77-.58-3.26-1.89-4.57-1.17-1.17-2.89-1.95-4.57-1.89-2.38.08-4.76.16-7.14.25-3.95.14-7.68,4.07-6.23,8.18.32.92.56,1.86.8,2.8.22.96.4,1.93.57,2.9.04.22.07.45.1.67-.31-2.11-.11-.77-.06-.32.09.75.13,1.5.16,2.26.07,1.34.02,2.68-.1,4.01-.08.71-.06.54.08-.49-.05.42-.14.83-.21,1.23-.16.83-.39,1.64-.65,2.44-.09.28-.19.54-.29.8.71-1.89.38-.9.13-.45-.14.27-.32.52-.49.77-.68,1,1.03-1.26.25-.35-.34.38-.71.74-1.08,1.1-.22.2-.47.4-.7.59,1.59-1.3.73-.56.34-.28-.76.55-1.58,1.03-2.41,1.47-.67.36-3.56,1.59-.87.48-.38.16-.77.31-1.16.45-2.42.83-3.77,2.31-4.63,4.69-.9,2.46-1.79,4.92-2.68,7.38-1.46,4.01,2.29,8.18,6.23,8.18h75.38c3.95,0,7.68-4.17,6.23-8.18-.91-2.51-1.82-5.02-2.74-7.53-1.19-3.32-4.34-5.51-7.95-4.51-3.19.87-5.71,4.63-4.51,7.94.91,2.51,1.82,5.03,2.74,7.54,2.08-2.73,4.16-5.45,6.23-8.18h-75.38c2.07,2.73,4.16,5.45,6.23,8.18.92-2.51,1.82-5.03,2.74-7.54-1.51,1.51-3.01,3.01-4.51,4.51,2.29-.75,4.56-1.81,6.62-3.08,4.26-2.61,7.33-6.17,8.88-10.95,1.64-5.05,1.37-10.43.65-15.6-.29-2.14-.74-4.32-1.47-6.37-2.08,2.73-4.15,5.45-6.23,8.18,2.38-.08,4.76-.17,7.14-.25-2.16-2.16-4.31-4.31-6.46-6.46.29,2.75,1.07,5.19,2.41,7.63,2.55,4.66,6.9,7.74,11.78,9.56,5.68,2.13,12.91,2.03,18.69.38,5.2-1.49,9.66-4.76,12.56-9.34,1.58-2.51,2.44-5.31,2.76-8.24-2.16,2.15-4.32,4.3-6.46,6.46,2.38.08,4.76.17,7.13.25-2.07-2.73-4.15-5.45-6.22-8.18-.72,2.05-1.16,4.22-1.47,6.37-.77,5.21-.88,10.5.66,15.6,2.15,7.16,8.64,11.78,15.49,14.02,3.35,1.09,7.05-1.24,7.95-4.51.97-3.52-1.17-6.86-4.51-7.94Z"/>
          </g>
          <path class="st31" d="M172.47,313.25s-8.39-2.71-10.56-8.31c-3.46-8.88.39-19.74.39-19.74l-7.13-.25s-1.28,12.27-17.59,12.27c-.02,0-.03,0-.05,0h0s-.03,0-.05,0c-16.3,0-17.59-12.27-17.59-12.27l-7.14.25s3.85,10.86.39,19.74c-2.18,5.6-10.58,8.31-10.58,8.31l-2.73,7.53h75.38l-2.74-7.53Z"/>
          <path class="st32" d="M104.31,314.09s8.39-2.71,10.56-8.3c3.46-8.88.09-19.66.09-19.66l5.09-.26c-.14-.57-.17-.92-.17-.92l-7.14.25s3.85,10.86.39,19.74c-2.18,5.6-10.58,8.31-10.58,8.31l-2.73,7.53h2.05l2.43-6.7Z"/>
          <path class="st24" d="M170.72,314.09s-8.38-2.71-10.56-8.3c-3.46-8.88-.09-19.66-.09-19.66l-5.09-.26c.13-.57.17-.92.17-.92l7.13.25s-3.85,10.86-.39,19.74c2.18,5.6,10.56,8.31,10.56,8.31l2.74,7.53h-2.05l-2.43-6.7Z"/>
        </g>
      </g>
      <g>
        <g>
          <path class="st41" d="M122.1,297.82c0,.85-.69,1.54-1.54,1.54s-1.54-.69-1.54-1.54.69-1.55,1.54-1.55,1.54.69,1.54,1.55Z"/>
          <path d="M118.87,297.82c.1-.58.12-.71.04-.38.09-.34.26-.63.51-.88-.24.22-.13.16.29-.21.16-.06.32-.13.48-.2-.32.09-.2.07.38-.04.96-.05,1.65.81,1.69,1.7.05.95-.81,1.64-1.69,1.69-.95.05-1.64-.81-1.69-1.69.09,1.76,1.4,3.23,3.23,3.23,1.69,0,3.33-1.47,3.23-3.23-.14-2.7-2.08-4.63-4.77-4.78-1.26-.07-2.38.58-3.32,1.35-.99.81-1.39,2.21-1.45,3.43-.07,1.26.58,2.38,1.34,3.31.81,1,2.21,1.39,3.43,1.46,1.27.07,2.38-.58,3.32-1.35.99-.8,1.38-2.21,1.45-3.42.09-1.76-1.55-3.24-3.23-3.24-1.84,0-3.14,1.48-3.23,3.24Z"/>
        </g>
        <path class="st38" d="M122.1,297.82c0,.85-.69,1.54-1.54,1.54s-1.54-.69-1.54-1.54.69-1.55,1.54-1.55,1.54.69,1.54,1.55Z"/>
        <path class="st23" d="M119.43,297.82c0-.79.58-1.43,1.33-1.53-.06,0-.13-.02-.2-.02-.85,0-1.54.69-1.54,1.55s.69,1.54,1.54,1.54c.07,0,.14,0,.2-.02-.75-.1-1.33-.75-1.33-1.52Z"/>
        <path class="st43" d="M121.69,297.82c0-.79-.58-1.43-1.34-1.53.07,0,.14-.02.21-.02.85,0,1.54.69,1.54,1.55s-.69,1.54-1.54,1.54c-.07,0-.14,0-.21-.02.76-.1,1.34-.75,1.34-1.52Z"/>
      </g>
      <g>
        <g>
          <path class="st41" d="M156.09,297.82c0,.85-.69,1.54-1.54,1.54s-1.54-.69-1.54-1.54.69-1.55,1.54-1.55,1.54.69,1.54,1.55Z"/>
          <path d="M152.86,297.82c.12-.58.13-.71.04-.38.09-.34.26-.63.51-.88-.23.22-.14.16.29-.21.16-.06.32-.13.48-.2-.33.09-.21.07.37-.04.96-.05,1.65.81,1.69,1.7.05.95-.81,1.64-1.69,1.69-.96.05-1.65-.81-1.7-1.69.1,1.76,1.4,3.23,3.24,3.23,1.69,0,3.33-1.47,3.23-3.23-.14-2.7-2.07-4.63-4.77-4.78-1.27-.07-2.38.58-3.32,1.35-.99.81-1.39,2.21-1.45,3.43-.07,1.26.57,2.38,1.34,3.31.81,1,2.21,1.39,3.43,1.46,1.26.07,2.38-.58,3.32-1.35.99-.8,1.39-2.21,1.45-3.42.1-1.76-1.54-3.24-3.23-3.24-1.83,0-3.14,1.48-3.24,3.24Z"/>
        </g>
        <path class="st38" d="M156.09,297.82c0,.85-.69,1.54-1.54,1.54s-1.54-.69-1.54-1.54.69-1.55,1.54-1.55,1.54.69,1.54,1.55Z"/>
        <path class="st23" d="M153.42,297.82c0-.79.58-1.43,1.34-1.53-.08,0-.14-.02-.21-.02-.85,0-1.54.69-1.54,1.55s.69,1.54,1.54,1.54c.07,0,.13,0,.21-.02-.76-.1-1.34-.75-1.34-1.52Z"/>
        <path class="st43" d="M155.69,297.82c0-.79-.6-1.43-1.34-1.53.06,0,.13-.02.2-.02.85,0,1.54.69,1.54,1.55s-.69,1.54-1.54,1.54c-.07,0-.14,0-.2-.02.74-.1,1.34-.75,1.34-1.52Z"/>
      </g>
      <g>
        <g>
          <path class="st44" d="M145.86,305.96h-17.34s0,8.06,8.67,8.06,8.67-8.06,8.67-8.06Z"/>
          <path d="M145.86,301.45h-17.34c-2.45,0-4.53,2.06-4.52,4.52,0,2.21.7,4.47,1.74,6.4,2.26,4.2,6.87,6.12,11.45,6.18,4.6.06,8.94-2.03,11.34-6,1.15-1.9,1.84-4.36,1.85-6.58.01-2.46-2.07-4.52-4.53-4.52s-4.5,2.06-4.52,4.52c0,.08,0,.15-.01.24,0,.11-.02.21-.03.32-.07.8.2-1.32.1-.66-.06.39-.16.77-.26,1.15-.06.22-.13.44-.21.66-.24.68.56-1.21.09-.23-.21.44-1.31,1.88-.31.64-.18.23-.4.44-.61.65-.85.81.64-.42-.02.02-.28.19-.58.35-.89.5,1.24-.61.11-.06-.23.03-.27.08-1.65.3-.35.13-.47.06-.95.07-1.42.08-.36,0-.72-.02-1.08-.05-.52-.06-.45-.05.22.03-.21-.03-.41-.08-.61-.12-.38-.09-.74-.21-1.1-.35,1.28.47.2.05-.09-.13-1.04-.61.5.47-.06,0-.23-.2-.44-.41-.65-.63-.52-.57.7,1.01.06.07-.15-.22-.28-.46-.41-.7-.18-.33-.54-1.29.06.21-.09-.22-.16-.44-.23-.67-.12-.39-.21-.78-.28-1.18-.16-.86.14,1.47.05.28,0-.1-.01-.2-.01-.3-1.51,1.51-3.02,3.02-4.53,4.52h17.34c2.47,0,4.53-2.05,4.53-4.52s-2.06-4.52-4.53-4.52Z"/>
        </g>
        <path class="st38" d="M145.86,305.96h-17.34s0,8.06,8.67,8.06,8.67-8.06,8.67-8.06Z"/>
        <path class="st51" d="M137.19,307.52h8.47c.2-.92.2-1.56.2-1.56h-17.34s0,.64.2,1.56h8.47Z"/>
        <path class="st43" d="M137.19,311.9c-5.8,0-7.87-3.45-8.62-5.93h-.05s0,8.06,8.67,8.06,8.67-8.06,8.67-8.06h-.05c-.75,2.49-2.83,5.93-8.62,5.93Z"/>
      </g>
      <polygon class="st43" points="101.17 282.71 96.72 287.29 92.45 292.66 99.08 298.02 94.71 292.18 97.89 288.07 101.9 283.89 101.17 282.71"/>
      <polygon class="st43" points="173.63 282.71 178.09 287.29 182.35 292.66 175.73 298.02 180.1 292.18 176.92 288.07 172.91 283.89 173.63 282.71"/>
    </g>
    <g>
      <g>
        <g>
          <g>
            <path class="st44" d="M63.54,298.35c-2.63-3.1-2.92-5.39-2.92-5.39,0,0,.7-.05,1.37-.82.67-.77.61-1.47.61-1.47,0,0,2.31-.06,5.76,2.07,3.83,2.37,5.37,4.35,5.37,4.35l-2.54,2.95h0l-2.55,2.96s-2.19-1.22-5.1-4.66Z"/>
            <path d="M67.2,294.7c-.4-.49-.42-.51-.08-.08-.24-.33-.46-.68-.68-1.03-.25-.41-1.15-2.46-.45-.71-.16-.41-.31-.85-.38-1.29-1.66,2.18-3.32,4.36-4.98,6.54,3.75-.42,7.26-3.4,7.14-7.46-1.72,1.72-3.45,3.45-5.17,5.17.14,0,.28.01.42.03-2.18-.21-.51-.05.06.1.31.07.59.18.89.28,1.16.4-1.08-.51.17.07.85.39,1.65.89,2.44,1.41.36.24.72.49,1.09.74,1.1.79-.81-.66.15.11.44.36.88.74,1.29,1.14.35.32.68.66.98,1.04v-7.31c-1.7,1.97-3.39,3.94-5.09,5.92,2.09-.27,4.17-.54,6.26-.81-.1-.05-.21-.12-.31-.19-.12-.08-.25-.17-.37-.25-.96-.68.92.73.16.13-1.3-1.05-2.45-2.27-3.54-3.53-1.84-2.14-5.43-1.88-7.31,0-2.11,2.1-1.84,5.17,0,7.31,1.74,2.02,3.8,4.13,6.15,5.46,1.91,1.08,4.75.96,6.26-.81,1.69-1.97,3.39-3.94,5.09-5.91,2.02-2.34,1.85-4.97,0-7.31-1.56-1.99-3.89-3.54-5.99-4.9-2.5-1.62-5.73-3.08-8.79-3.04-2.76.03-5.25,2.33-5.17,5.17,0-.12.2-1.16.38-1.52.67-1.32,1.82-1.25,2.82-1.36-3.63.4-5.48,2.97-4.98,6.55.39,2.83,2.49,5.55,4.24,7.67,1.8,2.17,5.46,1.85,7.31,0,2.13-2.14,1.8-5.14,0-7.31Z"/>
          </g>
          <path class="st30" d="M63.54,298.35c-2.63-3.1-2.92-5.39-2.92-5.39,0,0,.7-.05,1.37-.82.67-.77.61-1.47.61-1.47,0,0,2.31-.06,5.76,2.07,3.83,2.37,5.37,4.35,5.37,4.35l-2.54,2.95h0l-2.55,2.96s-2.19-1.22-5.1-4.66Z"/>
          <g>
            <path class="st48" d="M62.69,291.33c-.13.15-.26.27-.39.37.33-.59.29-1.04.29-1.04,0,0,.17,0,.5.04-.09.2-.22.41-.41.63Z"/>
            <path class="st48" d="M63.54,298.35c-2.63-3.1-2.92-5.39-2.92-5.39,0,0,.36-.02.8-.32.23.83.91,2.66,2.8,4.9,2.91,3.44,5.1,4.66,5.1,4.66l-.69.81s-2.19-1.22-5.1-4.66Z"/>
          </g>
          <g>
            <path class="st49" d="M61.26,292.99c-.18.21-.35.36-.53.47-.08-.33-.11-.51-.11-.51,0,0,.44-.03.96-.43-.09.15-.19.3-.32.46Z"/>
            <path class="st49" d="M67.63,293.59c-2.49-1.54-4.38-1.93-5.24-2.04.24-.51.21-.89.21-.89,0,0,2.31-.06,5.76,2.07,3.83,2.37,5.37,4.35,5.37,4.35l-.74.85s-1.52-1.98-5.36-4.35Z"/>
          </g>
        </g>
        <g>
          <g>
            <g>
              <path class="st44" d="M82.29,313.57c-6.01-5.17-6.83-6.29-6.83-6.29l1.75-2.03.02-.02,1.74-2.03s1.24.65,7.25,5.82c5.96,5.12,11.56,11.6,10.55,13.02h0s0,0-.01,0h0s0,0,0,0c-1.25,1.21-8.5-3.36-14.46-8.48Z"/>
              <path d="M85.95,309.91c-1.91-1.64-3.79-3.28-5.61-5.03-.54-.52-2.08-2.44-.42-.22-.27,2.08-.54,4.17-.81,6.26,1.17-1.36,2.34-2.71,3.51-4.08-2.1.27-4.18.54-6.26.81.46.25.88.61,1.3.92.39.29.19.13-.62-.48.18.13.34.27.51.4.43.34.85.68,1.28,1.03,1.26,1.03,2.49,2.08,3.74,3.14,2.53,2.18,4.94,4.53,7.15,7.04.25.28.49.57.73.86.18.21.95,1.2.06.04.36.48.7.97,1.03,1.47.29.46.93,2.04.21.17.17.43.23,1.22-.03-.76v.13c0-.78.21-1.52.59-2.19-1.11,1.9-.92,4.75.81,6.26h0v-7.3s-.01,0-.01.02h7.3c-2.3-2.01-5-1.86-7.31,0,.89-.88,1.94-1.32,3.14-1.32-.42.04-1.22-.22.74.13-.44-.08-1.92-.69-.26.01-1.21-.51-2.34-1.2-3.46-1.89-1.29-.8-2.53-1.67-3.76-2.57-.36-.26-.71-.53-1.07-.8.92.69-.28-.23-.38-.31-.71-.56-1.41-1.15-2.1-1.75-2.14-1.82-5.2-2.1-7.31,0-1.88,1.88-2.14,5.48,0,7.32,3.33,2.85,6.85,5.57,10.66,7.78,1.43.83,2.97,1.58,4.55,2.07,2.41.75,4.61.19,6.55-1.37h-7.31,0c1.92,1.68,5.48,2.31,7.3,0,.01,0,.02-.01.02-.02,1.74-2.02,2.22-5.36,0-7.31,0,0,0,0,0,0,.27,2.09.54,4.18.81,6.26,1.85-3.18.18-6.62-1.8-9.24-2.34-3.11-5-5.91-7.86-8.53-2.31-2.12-4.74-4.15-7.21-6.08-.86-.67-1.79-1.53-2.78-2.06-1.94-1.04-4.72-.98-6.26.81-1.17,1.36-2.34,2.72-3.51,4.08-1.4,1.62-2.25,4.33-.81,6.26,2.11,2.83,5,5.06,7.64,7.35,2.13,1.84,5.21,2.1,7.31,0,1.88-1.88,2.14-5.47,0-7.32Z"/>
            </g>
            <path class="st31" d="M82.29,313.57c-6.01-5.17-6.83-6.29-6.83-6.29l1.75-2.03.02-.02,1.74-2.03s1.24.65,7.25,5.82c5.96,5.12,11.56,11.6,10.55,13.02h0s0,0-.01,0h0s0,0,0,0c-1.25,1.21-8.5-3.36-14.46-8.48Z"/>
            <path class="st32" d="M85.6,309.72c-6.01-5.17-7.24-5.81-7.24-5.81l.61-.72s1.24.65,7.25,5.82c5.96,5.12,11.56,11.6,10.55,13.02h0s0,0-.01,0h0s0,0,0,0c-.12.11-.28.18-.49.19-.13-2.08-5.25-7.86-10.66-12.52Z"/>
            <path class="st24" d="M82.92,312.83c-6-5.17-6.83-6.29-6.83-6.29l-.62.72s.83,1.12,6.83,6.29c5.95,5.12,13.2,9.7,14.46,8.48h0s0,0,0,0t.01,0h0c.09-.13.13-.31.12-.52-2.07.18-8.56-4.02-13.97-8.67Z"/>
          </g>
          <g>
            <g>
              <path class="st44" d="M72.19,306.23c.62.54,1.56.46,2.1-.16l3.32-3.86c.54-.63.47-1.56-.16-2.1h0c-.62-.54-1.56-.47-2.1.15l-3.33,3.86c-.53.63-.46,1.57.16,2.11h0Z"/>
              <path d="M69.58,310.69c2.51,1.7,6.39,1.33,8.4-1.01.54-.62,1.08-1.25,1.63-1.88.53-.62,1.07-1.26,1.62-1.88,2.46-2.87,2.48-6.64-.12-9.46-2.36-2.56-7.16-2.46-9.43.16-.55.65-1.11,1.29-1.65,1.92-.54.63-1.07,1.26-1.62,1.89-2.47,2.86-2.48,6.64.12,9.45,1.91,2.07,5.38,1.93,7.31,0,2.05-2.05,1.91-5.24,0-7.31,1.75,1.9.92,3.95-.08,5.11.11-.13.22-.25.32-.38.42-.49.84-.97,1.26-1.45.38-.44.76-.88,1.14-1.33,1.43-1.66-.19.67-3,.26-2.91-2.11-3.42-4.18-1.54-6.21-.02.02-.05.05-.07.09-.11.12-.21.25-.32.38-.42.48-.84.97-1.25,1.46-.42.48-.84.97-1.26,1.46-1.54,1.79,2.38-1.1,3.76-.18-2.34-1.58-5.71-.46-7.07,1.85-1.5,2.55-.47,5.5,1.85,7.07Z"/>
            </g>
            <path class="st30" d="M72.19,306.23c.62.54,1.56.46,2.1-.16l3.32-3.86c.54-.63.47-1.56-.16-2.1h0c-.62-.54-1.56-.47-2.1.15l-3.33,3.86c-.53.63-.46,1.57.16,2.11h0Z"/>
            <path class="st49" d="M75.95,300.79l-3.31,3.87c-.45.52-.47,1.26-.11,1.79-.12-.06-.23-.13-.34-.22-.62-.54-.69-1.48-.16-2.11l3.33-3.86c.54-.62,1.48-.69,2.1-.15.1.09.2.19.27.3-.59-.28-1.32-.14-1.77.37Z"/>
            <path class="st48" d="M77,301.69l-3.32,3.86c-.45.53-1.17.65-1.77.38.08.11.16.21.27.31.62.54,1.56.46,2.1-.16l3.32-3.86c.54-.63.47-1.56-.16-2.1-.1-.09-.23-.16-.34-.22.36.54.34,1.28-.11,1.8Z"/>
          </g>
        </g>
        <g>
          <g>
            <path class="st44" d="M58.73,290.36c-5.43,5.67-12.97,2.36-17.07-3.23-4.38-5.98-3.15-16.99-3.15-16.99,0,0,2.62,2.94,6.18,3.58,4.69.83,10.85-.42,13.4,1.39,4.53,3.21,7.13,8.47.62,15.25Z"/>
            <path d="M54.62,286.25c-.3.29-.6.57-.92.85,1.2-1.04-.05-.03-.4.16-1.12.64,1.26-.44.08-.01-.43.16-.89.25-1.34.34,1.73-.32.65-.11.2-.1-.46.01-2.02-.24-.15.06-.35-.06-.68-.14-1.01-.23-.39-.1-1.91-.74-.27-.02-.77-.34-1.5-.78-2.2-1.26-1.08-.73,1.02.85,0,0-.39-.32-.75-.67-1.11-1.02-.27-.27-.52-.55-.77-.83-.17-.19-.33-.38-.49-.58.51.67.59.77.26.31-.25-.35-.47-.73-.67-1.11-.21-.36-.85-1.83-.13-.1-.61-1.45-.97-2.99-1.25-4.53-.07-.4-.24-1.62.01.24-.05-.42-.09-.84-.13-1.27-.08-.8-.12-1.59-.14-2.38-.05-1.54-.02-3.11.14-4.64-3.31,1.37-6.62,2.74-9.92,4.11,2.14,2.38,5.27,4.21,8.36,4.99,4.04,1.02,8.24.34,12.34.76-1.8-.19-.71-.09-.29,0,.53.11,1.67.71-.08-.13.24.12.46.28.68.44-1.53-1.11-.35-.26-.02.04.42.37,1.89,2.18.65.54.36.48,1.28,2.5.5.57.1.26.19.53.25.79.41,1.45-.07-1.15.02-.14.02.29,0,.58,0,.88-.05.98.33-1.56-.06,0-.08.33-.2.64-.32.96.62-1.67-.03-.09-.24.28-.15.25-1.22,1.74-.31.57-.39.51-.84.99-1.27,1.46-2.18,2.31-2.3,5.93,0,8.22,2.18,2.19,6.05,2.31,8.22,0,3.8-4.06,6.23-8.84,5.34-14.48-.66-4.23-3.89-7.77-7.34-10.04-3.67-2.41-8.88-1.63-13.04-1.76-.53-.02-1.05-.05-1.58-.1-.65-.07-.51-.05.4.07-.26-.04-.51-.08-.76-.14-.39-.08-2.03-.73-.44-.04-.44-.19-.86-.44-1.26-.68-.38-.22-1.66-1.2-.12,0-.26-.21-.51-.42-.76-.64-.23-.21-.45-.42-.65-.64-1.37-1.52-3.74-2.02-5.66-1.49-2.7.74-3.98,2.99-4.27,5.61-.68,6.18.16,13.04,3.08,18.55,2.39,4.52,6.81,7.89,11.53,9.62,5.47,2.01,11.53.18,15.54-3.84,2.23-2.25,2.24-5.98,0-8.22-2.25-2.24-5.99-2.25-8.22,0Z"/>
          </g>
          <path class="st40" d="M58.73,290.36c-5.3,5.79-12.97,2.36-17.07-3.23-4.38-5.98-3.15-16.99-3.15-16.99,0,0,2.62,2.94,6.18,3.58,4.69.83,10.85-.42,13.4,1.39,4.53,3.21,7.01,8.27.62,15.25Z"/>
          <path class="st22" d="M59.54,277.62c-2.56-1.82-8.73-.56-13.41-1.39-3.57-.63-6.63-2.91-6.63-2.91,0,0-.59,7.75,2.1,13.71-4.29-6-3.08-16.89-3.08-16.89,0,0,2.62,2.94,6.18,3.58,4.69.83,10.85-.42,13.4,1.39,1.88,1.33,3.4,2.98,4.09,4.95-.73-.91-1.64-1.72-2.66-2.44Z"/>
          <path class="st27" d="M56.08,288.09c5.14-5.62,4.54-9.98,1.75-13.15.1.06.2.11.28.18,4.53,3.21,7.01,8.27.62,15.25-4.74,5.19-11.37,2.98-15.65-1.54,4.07,2.81,9.16,3.46,13-.74Z"/>
        </g>
      </g>
      <g>
        <g>
          <path class="st41" d="M66.22,296.87c.36.31.91.27,1.22-.09.31-.36.27-.91-.09-1.22-.36-.31-.91-.27-1.22.1-.32.36-.28.91.09,1.22Z"/>
          <path d="M64.85,298.24c.4.32.62.48,1.1.65.27.09.57.13.87.13.74,0,1.49-.33,1.99-.87,1.04-1.11,1.03-2.92-.09-3.96-1.1-1.04-2.91-1.03-3.96.09-1.04,1.11-1.03,2.92.09,3.96.77.72,1.97.76,2.74,0,.73-.73.77-2.02,0-2.74-.03-.03-.07-.07-.1-.11.1.13.2.26.3.39-.04-.06-.08-.11-.11-.18.06.16.13.31.19.46-.03-.09-.06-.17-.07-.27.02.18.05.34.07.51,0-.07,0-.14,0-.21-.03.17-.04.35-.07.52.02-.07.03-.13.05-.2-.06.16-.13.31-.2.46.04-.07.07-.13.1-.19-.09.13-.2.26-.3.39.05-.06.09-.11.15-.16-.13.1-.26.2-.39.3.06-.04.12-.08.18-.12-.16.07-.31.13-.47.2.09-.04.17-.06.27-.08-.17.02-.34.05-.51.07.08,0,.14,0,.21,0-.17-.02-.35-.04-.52-.07.07.02.13.03.2.05-.15-.06-.31-.13-.46-.19.07.03.13.07.19.11-.13-.1-.26-.2-.39-.3.06.04.12.1.16.15-.1-.13-.2-.26-.3-.39.05.06.08.11.12.18-.06-.15-.13-.31-.19-.46.03.09.06.18.07.27-.02-.17-.05-.35-.06-.52v.21c.02-.17.05-.34.06-.51-.01.07-.02.13-.05.2.06-.15.13-.31.19-.46-.03.07-.06.13-.1.19.1-.13.2-.26.31-.4-.05.06-.1.11-.16.16.13-.1.26-.2.39-.3-.06.04-.12.08-.18.11.15-.06.31-.13.46-.2-.09.04-.17.06-.27.08.17-.02.34-.04.51-.07-.07,0-.13,0-.21,0,.17.02.34.04.51.07-.07-.01-.13-.03-.2-.05.16.06.31.13.46.19-.06-.03-.13-.06-.18-.1.13.1.26.21.39.31-.02-.02-.04-.04-.06-.05-.42-.33-.81-.57-1.37-.57-.51,0-1.01.21-1.37.57-.36.37-.57.86-.57,1.37,0,.46.18,1.07.57,1.37Z"/>
        </g>
        <path class="st30" d="M66.22,296.87c.36.31.91.27,1.22-.09.31-.36.27-.91-.09-1.22-.36-.31-.91-.27-1.22.1-.32.36-.28.91.09,1.22Z"/>
        <path class="st49" d="M67.2,295.73c-.33-.29-.82-.27-1.13.01.01-.03.04-.07.06-.09.31-.36.85-.41,1.22-.1.36.31.4.86.09,1.22-.02.03-.05.06-.09.08.24-.36.18-.84-.16-1.13Z"/>
        <path class="st48" d="M66.37,296.7c-.33-.29-.4-.77-.16-1.13-.04.03-.06.05-.08.09-.32.36-.28.91.09,1.22.36.31.91.27,1.22-.09.03-.02.05-.06.07-.09-.32.28-.81.3-1.14.01Z"/>
      </g>
    </g>
    <g>
      <g>
        <path d="M78.3,317.69c-8.35-6.82,2.29-15.14,7.75-10.22,5.46,4.93,1.77,18-7.75,10.22"/>
        <path d="M82.87,313.12c-.39-.33-.76-.67-1.12-1.04-.16-.18-.32-.35-.46-.53,1.22,1.46.54.69.29.25-.82-1.38.39,1.18.09.22-.49-1.49.04,1.7,0,.19-.03-1.49-.3,1.49-.08.5.04-.16.08-.31.14-.47.32-1.01-.76,1.61-.26.66.07-.14.16-.29.25-.42.57-.9-1.11,1.34-.42.53.38-.44,1.67-1.42-.2.01.27-.2.56-.38.85-.54,1.31-.75-1.59.54-.16.06.32-.1.64-.17.98-.23-2.33.42-.92.12-.22.15,1.04.05-1.95-.4-.49-.02,1.45.38-1.46-.8-.14-.03.53.35.31.17-.65-.54.2.15.37.33.55.5,1.02,1.02-.95-1.42-.15-.22.17.26.31.53.45.8.27.58.14.28-.37-.9.08.21.16.44.22.66.09.29.16.6.22.9.11.65.07.31-.13-1.03.03.23.04.46.05.69.02.3.01.61,0,.92-.06,1.46.33-1.81.06-.39-.06.36-.17.71-.29,1.05-.22.59-.08.27.42-.95-.08.19-.18.37-.28.55-.28.5-1.06,1.36.44-.49-.39.48-1.49,1.26.46-.22-.51.39-1.74.76.53-.12-.13.05-.25.08-.38.12-.95.27,1.92-.19.91-.11-.57.05-1.82-.17.61.17-.42-.06-.82-.19-1.22-.33,2.15.75.5.2-.06-.13-.41-.24-2.02-1.49-.45-.23-1.4-1.12-2.7-1.89-4.57-1.89-1.71,0-3.37.68-4.57,1.89-2.29,2.29-2.76,6.95,0,9.14,2.96,2.37,6.12,4.28,10.04,4.31,3.89.04,6.86-2.12,9.08-5.09,3.27-4.38,2.77-11.67-.15-16.04-2.31-3.47-5.58-5.32-9.66-5.84-2.9-.37-6.35.66-8.66,2.43-3.34,2.55-5.29,5.69-5.63,9.94-.31,3.91,2.1,7.87,4.98,10.3,2.69,2.27,6.49,2.65,9.13,0,2.33-2.33,2.7-6.87,0-9.14h0Z"/>
      </g>
      <path class="st21" d="M78.3,317.69c-8.35-6.82,2.29-15.14,7.75-10.22,5.46,4.93,1.77,18-7.75,10.22"/>
      <path class="st35" d="M78.88,316.96c-3.62-2.96-3.67-6.2-2.11-8.53-2.09,2.33-2.49,5.97,1.54,9.26,4.39,3.58,7.53,2.74,9.12.31-1.71,1.83-4.64,2.15-8.55-1.04Z"/>
      <path class="st47" d="M75.53,310.48c2.34-1.68,5.73-2.05,8.12.1,2.48,2.24,3.07,6.16,2.08,9.04,3.54-1.91,3.99-8.84.34-12.13-3.51-3.16-9.16-.86-10.53,3Z"/>
    </g>
    <path class="st38" d="M53.52,283.76c2.59-3.05-3.57-5.3-2.07-7.02,1.51-1.72,4.78.61,5.35-.26.46-.71-.77-1.85-1.22-2.23-3.03-.45-7.37.1-10.88-.53-3.57-.63-6.18-3.58-6.18-3.58,0,0-1.21,10.77,3.01,16.79.62.42,3.78,2.36,5.99.62,2.45-1.94-4.08-2.84-2.26-5.43,1.81-2.58,5.69,4.7,8.27,1.64Z"/>
    <g>
      <path class="st43" d="M54.16,282.18c-.01-1.15-1.03-2.18-1.87-3.09-.42.89.88,1.9,1.87,3.09Z"/>
      <path class="st45" d="M39.18,272.35s2.95,2.85,6.52,3.48c2.1.38,4.51.33,6.74.33.47-.11.97-.08,1.48.01.95.02,1.85.07,2.65.19.06.05.12.11.19.17.02,0,.03-.02.04-.04.46-.71-.77-1.85-1.22-2.23-3.03-.45-7.37.1-10.88-.53-3.57-.63-6.18-3.58-6.18-3.58,0,0-1.08,9.59,2.35,15.74-2.3-5.98-1.69-13.53-1.69-13.53Z"/>
      <path class="st43" d="M46.03,284.63c-.46,1.13.73,1.93,1.75,2.67.94-1.02-.59-1.76-1.75-2.67Z"/>
    </g>
    <g>
      <path class="st43" d="M46.87,285.26c.14.35.03.72-.5,1.14-1.76,1.39-4.12.44-5.32-.22.15.26.31.51.48.75.62.42,3.78,2.36,5.99.62,1.13-.89.35-1.57-.65-2.29Z"/>
      <path class="st43" d="M55.58,274.25s-.06,0-.1-.02c.25.39.38.79.17,1.11-.56.85-3.83-1.47-5.34.25-1.51,1.73,4.66,3.96,2.07,7.02-2.59,3.06-6.46-4.22-8.27-1.63-.8,1.16.05,1.97,1.01,2.69-.25-.45-.28-.95.14-1.54,1.81-2.58,5.69,4.7,8.27,1.64,2.59-3.05-3.57-5.3-2.07-7.02,1.51-1.72,4.78.61,5.35-.26.46-.71-.77-1.85-1.22-2.23Z"/>
    </g>
  </g>
  <g>
    <g>
      <path class="st41" d="M210.94,305.57c-3.88-5.16-11.18-6.38-14.27-5.35-6.07,2.02-3.64,7-10.73,10.62-7.08,3.62-9.7-1.28-14.89,2.45-2.65,1.9-5.95,8.54-4.04,14.7,2.25,7.29,13.61,18.34,32.2,8.85,18.59-9.49,16.31-25.16,11.72-31.27Z"/>
      <path d="M215.5,301c-4.45-5.73-12.33-8.23-19.33-7.27-3.73.51-6.67,2.97-8.84,5.87-.61.81-1.05,1.75-1.53,2.65-.26.49-.55.95-.85,1.41-.65.98,1.06-1.29.29-.35-.27.34-.59.64-.89.94-.32.3-1.33,1.01.17-.09-.33.25-.69.45-1.04.67-.39.24-.8.43-1.21.64-1.4.68,1.32-.49-.04-.02-.61.22-3.06.56-.7.29-.7.08-1.41.05-2.1,0-.28-.02-.55-.05-.83-.09,2.29.27,1.17.16.66.09-1-.13-2-.28-3-.38-1.61-.15-3.33.07-4.86.58-7.87,2.63-12.15,11.97-11.3,19.87,1.33,12.32,12.78,20.64,24.67,21.14,7.59.31,15.42-2.73,21.67-6.86,5.74-3.79,10.08-8.81,12.62-15.2,2.77-6.98,2.01-16.46-2.53-22.6-2.09-2.83-5.55-4.25-8.84-2.32-2.79,1.63-4.42,6-2.32,8.84.41.55.77,1.14,1.1,1.74.17.33.34.67.49,1.01.4.87-.71-1.73-.35-.83.1.24.19.5.28.75.28.79.49,1.61.65,2.43.13.62.35,2.44.02-.19.06.53.1,1.06.12,1.6.05.95,0,1.9-.1,2.86-.11,1.09.27-1.82.1-.74-.04.25-.09.5-.14.74-.12.59-.27,1.17-.44,1.75-.14.51-.32,1.01-.51,1.51-.4,1.06.69-1.59.22-.54-.12.26-.23.51-.36.75-.57,1.15-1.26,2.22-2.02,3.24,1.37-1.86-.02-.01-.4.4-.44.5-.92.97-1.4,1.43-.51.49-1.05.95-1.6,1.4-1.04.86,1.24-.92.14-.1-.41.31-.83.6-1.26.88-1.4.95-2.88,1.77-4.39,2.53-.43.22-.87.42-1.31.63-1.47.68,1.3-.52-.16.07-.94.38-1.91.7-2.88.99-.77.23-1.56.42-2.35.59-.38.08-.76.14-1.14.21-1.39.24,1.6-.19.24-.04-1.49.17-2.99.16-4.49.03-.48-.04-1.73-.25.44.07-.31-.05-.62-.11-.92-.17-.61-.12-1.2-.27-1.78-.45-.57-.17-1.12-.37-1.67-.59,2.26.89.04-.03-.5-.32-.48-.26-.95-.55-1.41-.85-.23-.14-.44-.3-.66-.46-.91-.64,1.33,1.06.47.37-.86-.67-1.64-1.44-2.36-2.26-.17-.18-.32-.36-.47-.55-.67-.81,1.06,1.4.43.57-.27-.37-.52-.74-.76-1.12-.23-.36-.45-.74-.65-1.12-.1-.18-.19-.37-.28-.55-.58-1.2.61,1.51.25.63-.17-.43-.31-.87-.43-1.32-.13-.42-.2-.86-.27-1.29.31,1.82.09.42.07-.01-.02-.42,0-.86.02-1.28.02-.43.27-1.86-.03.05.15-.93.41-1.84.71-2.73.46-1.33-.64,1.38-.07.13.15-.34.33-.66.5-.97.28-.52,1.7-2.41.26-.59.42-.53,1.96-1.74.01-.27.29-.22.6-.4.91-.58,1.45-.85-1.07.34-.13.03.27-.09.53-.14.81-.19-2.08.4-1.27.15-.68.13.51-.02,1.02.04,1.53.09,1.12.12-1.81-.25-.68-.09.75.11,1.51.21,2.25.3.65.09,1.3.14,1.96.16,4.56.13,8.86-1.88,12.37-4.63,2.33-1.84,3.74-4.37,5.17-6.91.31-.54,1.47-2.02-.03-.15.42-.52,1.89-1.53.07-.25.25-.17.51-.31.78-.46,1.11-.59-1.54.58-.26.12.19-.06.38-.11.58-.15,1.36-.32-1.66.16-.59.08.43-.04.86-.03,1.29-.02.58.02,2.37.31,0-.05,1.05.16,2.07.46,3.08.81.62.24.41.15-.61-.27.31.13.62.29.92.45.52.26,1.01.57,1.5.89.55.39.39.26-.45-.38.28.22.55.46.82.71.54.49,1.01,1.05,1.46,1.63,2.17,2.79,6.88,2.25,9.14,0,1.21-1.21,1.89-2.86,1.89-4.57,0-1.89-.79-3.14-1.89-4.57Z"/>
    </g>
    <path class="st33" d="M210.94,305.57c-3.88-5.16-11.18-6.38-14.27-5.35-6.07,2.02-3.64,7-10.73,10.62-7.08,3.62-9.7-1.28-14.89,2.45-2.65,1.9-5.95,8.54-4.04,14.7,2.25,7.29,13.61,18.34,32.2,8.85,18.59-9.49,16.31-25.16,11.72-31.27Z"/>
    <path class="st26" d="M167.61,329.15c-1.9-6.16,1.4-12.79,4.04-14.69,5.2-3.73,7.81,1.17,14.9-2.46,7.08-3.61,4.65-8.61,10.71-10.62,3.09-1.03,10.4.18,14.28,5.35.32.43.63.9.93,1.43-.45-.99-.97-1.86-1.52-2.6-3.88-5.16-11.18-6.38-14.27-5.35-6.07,2.02-3.64,7-10.73,10.62-7.08,3.62-9.7-1.28-14.89,2.45-2.65,1.9-5.95,8.54-4.04,14.7.27.88.68,1.81,1.21,2.76-.24-.54-.45-1.08-.61-1.59Z"/>
    <path class="st50" d="M197.98,334.43c-15.86,8.1-26.46,1.24-30.63-5.48,2.9,7.25,14.06,16.97,31.86,7.89,17.79-9.08,16.47-23.82,12.3-30.42,3,7.31,2.34,19.92-13.53,28.01Z"/>
  </g>
  <g>
    <g>
      <path class="st8" d="M209.82,318.81c0,1.67-1.34,3.02-3.01,3.02s-3.02-1.35-3.02-3.02,1.36-3.01,3.02-3.01,3.01,1.35,3.01,3.01Z"/>
      <path d="M206.59,318.81c.07-.31.05-.28-.04.1.02-.15.09-.27.21-.37-.27.27-.29.29-.06.08.47-.31-.46,0,.11-.03.32.07.29.06-.09-.04.14.02.27.09.36.21-.26-.27-.29-.29-.08-.06.31.47,0-.46.04.11-.08.32-.06.28.04-.09-.02.15-.09.27-.21.36.27-.27.29-.29.06-.08-.47.31.46,0-.11.03-.31-.07-.28-.06.1.04-.15-.02-.27-.09-.36-.21.26.28.28.29.07.06-.31-.46,0,.46-.03-.11.09,1.76,1.4,3.23,3.23,3.23,1.69,0,3.33-1.47,3.23-3.23-.19-3.53-2.72-6.05-6.25-6.25-3.52-.19-6.07,3-6.25,6.25-.18,3.52,3,6.07,6.25,6.25,3.52.19,6.07-3,6.25-6.25.1-1.76-1.54-3.23-3.23-3.23-1.83,0-3.13,1.48-3.23,3.23Z"/>
    </g>
    <path class="st3" d="M209.82,318.81c0,1.67-1.34,3.02-3.01,3.02s-3.02-1.35-3.02-3.02,1.36-3.01,3.02-3.01,3.01,1.35,3.01,3.01Z"/>
    <path class="st7" d="M204.7,318.81c0-1.51,1.11-2.76,2.56-2.97-.15-.02-.3-.04-.46-.04-1.66,0-3.02,1.35-3.02,3.01s1.36,3.02,3.02,3.02c.16,0,.31-.02.46-.04-1.45-.22-2.56-1.47-2.56-2.98Z"/>
    <path class="st15" d="M208.91,318.81c0-1.51-1.11-2.76-2.56-2.97.15-.02.3-.04.46-.04,1.67,0,3.01,1.35,3.01,3.01s-1.34,3.02-3.01,3.02c-.16,0-.31-.02-.46-.04,1.45-.22,2.56-1.47,2.56-2.98Z"/>
  </g>
  <g>
    <g>
      <path class="st8" d="M186.41,333.27c0,1.66-1.35,3.01-3.01,3.01s-3.02-1.35-3.02-3.01,1.35-3.02,3.02-3.02,3.01,1.35,3.01,3.02Z"/>
      <path d="M183.19,333.27c.07-.32.06-.28-.04.1.02-.15.09-.27.21-.37-.28.27-.29.29-.06.08.47-.3-.46,0,.11-.03.31.07.28.06-.1-.04.15.02.27.09.36.21-.27-.27-.29-.3-.08-.06.31.47,0-.46.03.11-.07.31-.06.28.04-.1-.02.15-.09.27-.21.36.27-.26.29-.28.06-.07-.46.31.46,0-.1.04-.32-.08-.29-.06.09.03-.14-.02-.27-.09-.35-.21.27.27.29.29.08.06-.31-.47,0,.46-.02-.11.09,1.76,1.39,3.23,3.23,3.23,1.69,0,3.33-1.47,3.23-3.23-.19-3.53-2.72-6.05-6.25-6.25-3.52-.19-6.07,3-6.25,6.25-.19,3.52,3,6.07,6.25,6.25,3.52.19,6.07-3.01,6.25-6.25.09-1.76-1.55-3.23-3.23-3.23-1.84,0-3.14,1.47-3.23,3.23Z"/>
    </g>
    <path class="st9" d="M186.41,333.27c0,1.66-1.35,3.01-3.01,3.01s-3.02-1.35-3.02-3.01,1.35-3.02,3.02-3.02,3.01,1.35,3.01,3.02Z"/>
    <path class="st12" d="M181.3,333.27c0-1.51,1.1-2.76,2.56-2.98-.15-.02-.3-.04-.46-.04-1.67,0-3.02,1.35-3.02,3.02s1.35,3.01,3.02,3.01c.16,0,.31-.02.46-.04-1.46-.22-2.56-1.46-2.56-2.98Z"/>
    <path class="st6" d="M185.5,333.27c0-1.51-1.11-2.76-2.56-2.98.16-.02.31-.04.46-.04,1.66,0,3.01,1.35,3.01,3.02s-1.35,3.01-3.01,3.01c-.16,0-.31-.02-.46-.04,1.45-.22,2.56-1.46,2.56-2.98Z"/>
  </g>
  <g>
    <g>
      <path class="st8" d="M178.53,322.22c0,1.66-1.35,3.02-3.02,3.02s-3.01-1.35-3.01-3.02,1.35-3.01,3.01-3.01,3.02,1.35,3.02,3.01Z"/>
      <path d="M175.3,322.22c.07-.31.06-.28-.04.09.02-.15.09-.27.21-.36-.28.26-.29.29-.06.08.47-.31-.46,0,.1-.03.32.08.28.06-.09-.04.15.02.27.09.36.21-.27-.27-.29-.29-.08-.07.31.47,0-.46.03.11-.08.32-.06.29.04-.1-.02.15-.09.27-.21.36.27-.27.29-.29.06-.08-.47.3.46,0-.12.03-.31-.07-.28-.06.1.04-.15-.02-.27-.09-.36-.21.26.28.29.29.07.07-.31-.47,0,.46-.02-.11.09,1.76,1.39,3.23,3.23,3.23,1.69,0,3.33-1.46,3.23-3.23-.19-3.53-2.71-6.06-6.25-6.24-3.51-.19-6.07,3-6.24,6.24-.19,3.52,3,6.07,6.24,6.25,3.52.19,6.07-3,6.25-6.25.1-1.75-1.54-3.23-3.23-3.23-1.84,0-3.14,1.48-3.23,3.23Z"/>
    </g>
    <path class="st17" d="M178.53,322.22c0,1.66-1.35,3.02-3.02,3.02s-3.01-1.35-3.01-3.02,1.35-3.01,3.01-3.01,3.02,1.35,3.02,3.01Z"/>
    <path class="st4" d="M173.41,322.22c0-1.51,1.11-2.75,2.56-2.98-.15-.02-.3-.04-.46-.04-1.66,0-3.01,1.35-3.01,3.01s1.35,3.02,3.01,3.02c.16,0,.31-.02.46-.04-1.45-.22-2.56-1.46-2.56-2.97Z"/>
    <path class="st19" d="M177.62,322.22c0-1.51-1.11-2.75-2.56-2.98.15-.02.3-.04.45-.04,1.67,0,3.02,1.35,3.02,3.01s-1.35,3.02-3.02,3.02c-.15,0-.3-.02-.45-.04,1.45-.22,2.56-1.46,2.56-2.97Z"/>
  </g>
  <g>
    <g>
      <path class="st8" d="M202.44,307.21c0,1.67-1.34,3.02-3.01,3.02s-3.02-1.35-3.02-3.02,1.35-3.01,3.02-3.01,3.01,1.35,3.01,3.01Z"/>
      <path d="M199.21,307.21c.07-.31.06-.28-.04.09.02-.14.09-.27.21-.36-.28.27-.29.29-.06.08.47-.31-.46,0,.11-.03.31.07.28.06-.09-.04.14.02.27.09.36.21-.27-.27-.29-.3-.07-.07.3.47-.01-.46.02.11-.07.32-.06.29.04-.09-.02.14-.09.27-.21.36.27-.26.29-.29.06-.08-.47.31.46,0-.11.04-.32-.08-.28-.06.09.03-.14-.02-.27-.09-.36-.21.27.27.29.29.08.07-.31-.47,0,.46-.02-.11.09,1.76,1.39,3.23,3.23,3.23,1.69,0,3.33-1.47,3.23-3.23-.18-3.53-2.72-6.05-6.24-6.25-3.52-.19-6.07,3.01-6.25,6.25-.19,3.52,3,6.07,6.25,6.25,3.52.19,6.07-3,6.24-6.25.1-1.76-1.54-3.23-3.23-3.23-1.84,0-3.13,1.47-3.23,3.23Z"/>
    </g>
    <path class="st14" d="M202.44,307.21c0,1.67-1.34,3.02-3.01,3.02s-3.02-1.35-3.02-3.02,1.35-3.01,3.02-3.01,3.01,1.35,3.01,3.01Z"/>
    <path class="st16" d="M197.32,307.21c0-1.51,1.11-2.75,2.56-2.97-.15-.02-.3-.04-.46-.04-1.67,0-3.02,1.35-3.02,3.01s1.35,3.02,3.02,3.02c.16,0,.31-.02.46-.04-1.45-.22-2.56-1.46-2.56-2.98Z"/>
    <path class="st2" d="M201.53,307.21c0-1.51-1.11-2.75-2.56-2.97.15-.02.3-.04.46-.04,1.67,0,3.01,1.35,3.01,3.01s-1.34,3.02-3.01,3.02c-.16,0-.31-.02-.46-.04,1.45-.22,2.56-1.46,2.56-2.98Z"/>
  </g>
  <g>
    <g>
      <path class="st8" d="M192.43,317.18c0,1.66-1.35,3.01-3.01,3.01s-3.01-1.35-3.01-3.01,1.35-3.02,3.01-3.02,3.01,1.35,3.01,3.02Z"/>
      <path d="M189.2,317.18c.07-.32.06-.29-.04.09.02-.15.09-.27.21-.36-.27.26-.29.29-.06.08.47-.3-.46,0,.11-.03.31.07.28.06-.1-.04.15.02.27.09.36.21-.26-.27-.28-.29-.08-.06.31.47,0-.46.03.11-.07.31-.06.28.03-.1-.02.15-.09.27-.2.36.27-.26.29-.29.06-.08-.47.31.46,0-.1.03-.32-.07-.28-.06.09.04-.15-.02-.27-.09-.36-.21.26.27.29.29.08.06-.31-.47,0,.46-.03-.1.09,1.75,1.39,3.23,3.23,3.23,1.69,0,3.33-1.47,3.23-3.23-.19-3.53-2.72-6.06-6.25-6.25-3.52-.19-6.07,3.01-6.25,6.25-.19,3.52,3,6.07,6.25,6.24,3.52.19,6.07-3,6.25-6.24.09-1.76-1.54-3.24-3.23-3.24-1.84,0-3.13,1.47-3.23,3.24Z"/>
    </g>
    <path class="st10" d="M192.43,317.18c0,1.66-1.35,3.01-3.01,3.01s-3.01-1.35-3.01-3.01,1.35-3.02,3.01-3.02,3.01,1.35,3.01,3.02Z"/>
    <path class="st11" d="M187.31,317.18c0-1.51,1.11-2.76,2.56-2.98-.15-.02-.31-.04-.46-.04-1.67,0-3.01,1.35-3.01,3.02s1.35,3.01,3.01,3.01c.15,0,.31-.01.46-.04-1.45-.22-2.56-1.47-2.56-2.97Z"/>
    <path class="st1" d="M191.52,317.18c0-1.51-1.11-2.76-2.56-2.98.16-.02.31-.04.46-.04,1.66,0,3.01,1.35,3.01,3.02s-1.35,3.01-3.01,3.01c-.16,0-.31-.01-.46-.04,1.46-.22,2.56-1.47,2.56-2.97Z"/>
  </g>
  <g>
    <g>
      <path class="st8" d="M200.39,329.32c0,1.67-1.35,3.01-3.02,3.01s-3.01-1.34-3.01-3.01,1.35-3.02,3.01-3.02,3.02,1.35,3.02,3.02Z"/>
      <path d="M197.16,329.32c.07-.31.05-.28-.04.1.02-.15.09-.27.21-.36-.28.26-.29.29-.06.08.46-.31-.46,0,.1-.03.32.08.28.06-.09-.03.14.02.27.09.36.21-.27-.28-.29-.29-.08-.07.31.47,0-.46.04.11-.07.31-.06.29.03-.09-.02.14-.09.27-.21.36.27-.27.29-.29.06-.08-.46.31.46,0-.11.03-.32-.07-.28-.06.09.04-.14-.02-.26-.09-.36-.21.27.27.29.29.08.06-.31-.46,0,.46-.02-.11.09,1.76,1.39,3.23,3.23,3.23,1.69,0,3.33-1.47,3.23-3.23-.18-3.52-2.72-6.05-6.25-6.24-3.52-.19-6.07,3-6.24,6.24-.19,3.52,3,6.07,6.24,6.24,3.52.19,6.07-3,6.25-6.24.1-1.76-1.54-3.23-3.23-3.23-1.84,0-3.14,1.47-3.23,3.23Z"/>
    </g>
    <path class="st13" d="M200.39,329.32c0,1.67-1.35,3.01-3.02,3.01s-3.01-1.34-3.01-3.01,1.35-3.02,3.01-3.02,3.02,1.35,3.02,3.02Z"/>
    <path class="st18" d="M195.27,329.32c0-1.51,1.1-2.76,2.55-2.98-.15-.02-.29-.04-.46-.04-1.66,0-3.01,1.35-3.01,3.02s1.35,3.01,3.01,3.01c.16,0,.31-.01.46-.04-1.45-.22-2.55-1.47-2.55-2.98Z"/>
    <path class="st5" d="M199.48,329.32c0-1.51-1.11-2.76-2.56-2.98.15-.02.3-.04.46-.04,1.67,0,3.02,1.35,3.02,3.02s-1.35,3.01-3.02,3.01c-.16,0-.31-.01-.46-.04,1.45-.22,2.56-1.47,2.56-2.98Z"/>
  </g>
</svg>