<?xml version="1.0" encoding="UTF-8"?>
<svg id="Layer_1" xmlns="http://www.w3.org/2000/svg" version="1.1" viewBox="0 0 247.77 306.75">
  <!-- Generator: Adobe Illustrator 29.6.1, SVG Export Plug-In . SVG Version: 2.1.1 Build 9)  -->
  <defs>
    <style>
      .st0 {
        fill: #ffc325;
      }

      .st1 {
        fill: #5b2d15;
      }

      .st2 {
        fill: #ffd7c3;
      }

      .st3 {
        fill: #000002;
      }

      .st4 {
        fill: #1ab6da;
      }

      .st5 {
        fill: #471a06;
      }

      .st6 {
        fill: #f1f2f2;
      }

      .st7 {
        fill: #f38b9e;
      }

      .st8 {
        fill: #fff;
      }

      .st9 {
        fill: #fde5d2;
      }

      .st10 {
        fill: #55c9f4;
      }

      .st11 {
        fill: #723f29;
      }

      .st12 {
        fill: #27aae1;
      }

      .st13 {
        fill: #ffc0a4;
      }

      .st14 {
        fill: #25aace;
      }

      .st15 {
        fill: #bbedff;
      }
    </style>
  </defs>
  <g>
    <g>
      <path class="st10" d="M163.86,232.46h-57.02s-11.14,61.8-3.56,64.45c7.57,2.65,14.59-9.42,14.59-9.42,0,0,5.57,1.7,15.24,2h0c.73.02,1.48.03,2.24.03s1.5,0,2.23-.02h0c9.67-.31,15.24-2.01,15.24-2.01,0,0,7.03,12.07,14.6,9.42,7.57-2.65-3.56-64.45-3.56-64.45Z"/>
      <path d="M163.86,228.91h-57.02c-1.47,0-3.15,1.07-3.43,2.61-2.17,12.07-3.94,24.25-5.22,36.45-.77,7.38-1.56,14.99-.92,22.42.21,2.45.5,5.41,1.95,7.51,2.86,4.15,8.76,3.3,12.61,1.06,3.76-2.19,6.93-5.95,9.11-9.68-1.33.54-2.68,1.09-4.01,1.63,5.16,1.56,10.84,1.95,16.19,2.13-1.19-1.18-2.37-2.37-3.56-3.55h0c0,1.97,1.62,3.51,3.56,3.56,1.49.04,2.98.04,4.46,0,1.94-.05,3.56-1.58,3.56-3.55h0c-1.19,1.18-2.37,2.36-3.56,3.54,5.35-.18,11.03-.57,16.19-2.13-1.34-.54-2.67-1.09-4.01-1.63,1.7,2.9,3.97,5.68,6.56,7.83,3.77,3.11,9.92,5.61,14.19,1.96,2.01-1.71,2.43-4.83,2.76-7.27.41-3.11.39-6.29.3-9.42-.25-8.36-1.23-16.7-2.31-24.99-.95-7.19-2.02-14.38-3.22-21.54-.24-1.44-.49-2.89-.75-4.33-.34-1.91-2.63-2.96-4.37-2.49-1.99.55-2.82,2.47-2.48,4.38.69,3.8,1.3,7.62,1.9,11.43.6,3.82,1.15,7.66,1.67,11.49.12.87-.11-.82.01.05.03.25.07.51.1.76.07.51.14,1.02.2,1.52.14,1.12.28,2.23.42,3.35.27,2.15.51,4.31.73,6.47.75,7.32,1.54,14.88.84,22.23-.03.31-.07.62-.11.94.18-1.38.03-.25-.02.07-.1.55-.22,1.1-.37,1.63-.07.21-.13.42-.21.63-.25.68.46-.97.08-.21-.08.16-.17.31-.27.45-.34.51.76-.83.15-.24-.42.42.94-.61.33-.27-.38.22,1.02-.4.61-.25-.27.1-.55.17-.82.23-.9.21.77-.04-.14.01-.27.02-.53.01-.8,0-.91-.04.78.16-.11-.02-.35-.07-.69-.18-1.03-.29-.86-.29.68.33-.16-.05-.25-.12-.49-.25-.73-.39-.48-.27-.95-.59-1.41-.92.71.51-.05-.04-.16-.14-.22-.18-.42-.37-.63-.55-.48-.43-.92-.89-1.37-1.36-.52-.56-1.01-1.14-1.5-1.74-.42-.52.46.61-.14-.18-.2-.27-.39-.53-.58-.8-.36-.51-.71-1.03-1.02-1.58-.79-1.35-2.5-2.09-4.02-1.63-1.26.38-2.57.63-3.86.87-.7.13-1.4.24-2.1.34-1.11.17.73-.09-.45.06-.51.06-1.02.12-1.52.18-2.12.23-4.24.36-6.37.43-1.93.06-3.55,1.57-3.55,3.56h0c1.19-1.18,2.37-2.37,3.55-3.55-1.49.04-2.98.04-4.46,0,1.19,1.18,2.37,2.37,3.55,3.56h0c0-1.99-1.62-3.5-3.55-3.56-2.13-.07-4.25-.21-6.36-.43-.39-.04-.77-.09-1.16-.13-.24-.03-.49-.06-.73-.09.36.05.33.04-.08-.02-.7-.1-1.41-.22-2.11-.34-1.29-.22-2.6-.48-3.86-.87-1.52-.46-3.22.29-4.01,1.63-.53.89-1.12,1.73-1.74,2.56-.47.63.51-.65,0,0-.16.19-.31.38-.47.57-.33.4-.68.79-1.03,1.17-.37.4-.76.79-1.16,1.17-.2.19-.42.38-.63.56-.12.11-1.09.86-.38.32-.45.34-.92.63-1.4.92-.24.14-.49.26-.73.39-.82.4.71-.27-.15.05-.25.09-.51.17-.77.24-.18.05-1.08.18-.1.06-.27.03-.53.04-.79.04-.18,0-.37-.01-.54-.02.49.08.54.08.13,0-.71-.14-1.32-.55-.21.02-.62-.32.77.66.33.27-.58-.53.36.53.2.31-.12-.17-.22-.35-.31-.53-.39-.76.33.88.07.21-.07-.21-.14-.43-.21-.63-.16-.54-.27-1.08-.37-1.63-.06-.32-.21-1.46-.03-.07-.04-.31-.08-.62-.11-.94-.08-.75-.12-1.49-.16-2.24-.17-3.57-.01-7.15.21-10.71.26-4.22.67-8.43,1.15-12.64.24-2.15.5-4.31.78-6.46.07-.51.14-1.02.2-1.52.04-.25.07-.51.1-.76.12-.88-.11.82,0-.05.14-1.07.29-2.13.44-3.2.85-5.99,1.79-11.97,2.82-17.94.11-.59.21-1.18.31-1.78-1.14.87-2.29,1.74-3.43,2.61h57.02c4.58,0,4.58-7.11,0-7.11Z"/>
    </g>
    <g>
      <path class="st3" d="M194.18,302.4c0,1.74-26.34,3.14-58.83,3.14s-58.84-1.4-58.84-3.14,26.34-3.14,58.84-3.14,58.83,1.4,58.83,3.14Z"/>
      <path d="M135.35,306.75c-15.74,0-30.54-.33-41.67-.92-18.38-.98-18.38-2.11-18.38-3.43s0-2.45,18.38-3.43c11.12-.59,25.92-.92,41.67-.92s30.54.33,41.66.92c18.38.98,18.38,2.12,18.38,3.43s0,2.45-18.38,3.43c-11.13.59-25.93.92-41.66.92ZM80.88,302.4c7.87,1.03,27.83,1.93,54.47,1.93s46.6-.91,54.47-1.93c-7.87-1.03-27.83-1.93-54.47-1.93s-46.6.9-54.47,1.93Z"/>
    </g>
    <g>
      <g>
        <polygon class="st9" points="161.95 231.71 135.55 231.71 135.33 231.71 108.92 231.71 97.48 269.33 135.33 269.33 135.55 269.33 173.39 269.33 161.95 231.71"/>
        <path d="M161.95,224.59h-53.03c-3.23,0-5.93,2.18-6.86,5.22-3.65,11.99-7.29,23.98-10.94,35.97-.17.55-.33,1.1-.5,1.66-1.35,4.45,2.33,8.99,6.85,8.99h75.91c4.53,0,8.21-4.55,6.86-8.99-3.65-11.99-7.29-23.98-10.94-35.96-.17-.55-.34-1.11-.5-1.66-1.13-3.7-4.93-6.01-8.75-4.96-3.66,1.01-6.09,5.04-4.97,8.75,3.65,11.99,7.29,23.97,10.94,35.96.17.55.33,1.11.5,1.66,2.29-3,4.58-6,6.86-9h-75.91c2.29,3,4.57,6,6.86,9,3.64-12,7.29-23.98,10.93-35.97.17-.55.33-1.1.5-1.66-2.28,1.74-4.57,3.48-6.86,5.22h53.03c3.88,0,7.1-3.23,7.1-7.11s-3.23-7.11-7.1-7.11Z"/>
      </g>
      <polygon class="st15" points="161.95 231.71 135.55 231.71 135.33 231.71 108.92 231.71 97.48 269.33 135.33 269.33 135.55 269.33 173.39 269.33 161.95 231.71"/>
    </g>
    <polygon class="st6" points="108.44 233.2 97.48 269.33 127.31 269.33 102.96 265.76 108.44 233.2"/>
    <polygon class="st6" points="162.42 233.2 173.38 269.33 143.56 269.33 167.91 265.76 162.42 233.2"/>
    <g>
      <g>
        <path class="st2" d="M97.48,225.43s-27.84,33.06-15.76,40.19c12.08,7.13,28.98-23.77,28.98-23.77l-13.22-16.42Z"/>
        <path d="M94.97,222.91c-3.36,4-6.47,8.22-9.4,12.53-4.58,6.76-9.25,14.33-10.34,22.56-.45,3.38.42,7.15,3.05,9.48,3.2,2.82,7.68,3.4,11.64,1.98,4.13-1.49,7.6-4.41,10.63-7.53,3.08-3.18,5.78-6.77,8.29-10.41,1.75-2.54,3.43-5.15,4.92-7.87.84-1.53.48-3.01-.55-4.31-4.41-5.48-8.82-10.95-13.22-16.43-1.22-1.51-3.77-1.25-5.03,0-1.48,1.48-1.22,3.52,0,5.03,4.4,5.47,8.81,10.95,13.22,16.42-.18-1.43-.37-2.87-.55-4.31-.84,1.54-1.76,3.04-2.7,4.52-.97,1.53-1.97,3.04-3.02,4.52-.57.8-1.15,1.6-1.74,2.39-.16.2-.31.4-.46.61.57-.74.02-.04-.08.09-.37.47-.75.95-1.14,1.41-1.38,1.66-2.84,3.26-4.4,4.76-.72.68-1.47,1.34-2.25,1.96-.65.53.63-.47-.03.03-.18.14-.38.28-.57.42-.43.31-.88.6-1.34.88-.38.23-.76.44-1.15.65-.19.09-.38.19-.58.27-.7.33.79-.3.08-.03-.38.15-.77.27-1.15.38-.34.09-1.87.32-.58.17-.38.05-.76.05-1.13.05-.19,0-.38-.02-.56-.04,1.14.1.48.06.2.01-.38-.07-.74-.18-1.1-.31-.68-.25.8.36.13.05-.23-.11-.46-.24-.68-.38-.93-.57.43.42-.17-.12-.23-.2-.43-.43-.63-.66.81.99.15.14-.01-.16-.51-.93.22.75-.1-.27-.09-.3-.16-.61-.22-.92-.12-.65.12.96.05.29-.02-.16-.02-.33-.03-.5-.02-.35-.01-.69,0-1.04.01-.33.21-1.82.02-.52.25-1.73.77-3.4,1.38-5.03.16-.43.33-.86.5-1.29-.42,1.02.2-.43.3-.67.44-.97.91-1.92,1.4-2.86,1.92-3.71,4.18-7.26,6.54-10.7,1.06-1.54,2.14-3.05,3.25-4.54.46-.62.92-1.23,1.39-1.85.11-.14.21-.28.32-.42.41-.53-.55.7-.14.18.22-.28.44-.57.67-.85.69-.88,1.39-1.76,2.11-2.62,1.24-1.48,1.45-3.57,0-5.03-1.28-1.28-3.78-1.48-5.03,0Z"/>
      </g>
      <path class="st8" d="M85.12,250.12l9.22,5.69,6.52-21.07-3.22-4.04s-5.31,6.6-7.09,9.38c-1.77,2.79-5.43,10.04-5.43,10.04Z"/>
      <path class="st15" d="M87.89,249.28s3.65-7.26,5.43-10.04c1.12-1.76,3.66-5.04,5.37-7.21l-1.06-1.33s-5.31,6.6-7.09,9.38c-1.77,2.79-5.43,10.04-5.43,10.04l9.22,5.69-6.44-6.52Z"/>
      <g>
        <rect class="st3" x="84.53" y="246.29" width="6.91" height="19.73" transform="translate(-174.91 191.02) rotate(-57.13)"/>
        <path d="M94.64,265.53l-17.92-11.58,4.62-7.16,17.92,11.58-4.62,7.16ZM78.95,253.47l15.22,9.83,2.87-4.46-15.22-9.83-2.87,4.46Z"/>
      </g>
    </g>
    <g>
      <g>
        <path class="st2" d="M174.28,225.43s27.84,33.06,15.76,40.19c-12.08,7.13-28.99-23.77-28.99-23.77l13.23-16.42Z"/>
        <path d="M171.77,227.94c.95,1.14,1.87,2.3,2.78,3.47.4.52-.55-.71-.14-.18.11.14.22.28.33.42.23.3.45.6.68.9.53.71,1.06,1.42,1.58,2.13,1.15,1.57,2.25,3.15,3.33,4.76,2.34,3.47,4.53,7.07,6.36,10.84.21.43.42.88.62,1.32.11.24.72,1.69.3.67.38.91.72,1.82,1.02,2.75.26.8.47,1.6.66,2.41.08.39.15.77.21,1.15-.2-1.29,0,.19.02.52.02.35.02.7,0,1.04-.01.17-.02.33-.03.5-.06.67.14-.95.04-.29-.05.31-.12.62-.21.92-.31,1.03.38-.67-.11.27-.15.29-.81,1.18-.01.16-.19.24-.4.46-.63.66-.6.55.75-.47-.18.12-.16.1-.33.19-.49.28-.85.46.51-.17-.06.05-.35.14-.72.23-1.09.31-.27.06-.96.12.2-.01-.19.02-.38.03-.56.04-.38.02-.76-.01-1.13-.05,1.28.13-.24-.07-.58-.17-.39-.11-.77-.24-1.15-.38-.71-.27.78.35.08.03-.2-.08-.38-.18-.57-.27-.88-.44-1.7-.97-2.5-1.52-.19-.14-.38-.28-.57-.42-.67-.5.62.49-.04-.03-.38-.31-.76-.62-1.13-.95-.83-.73-1.62-1.5-2.39-2.28-1.52-1.55-2.92-3.21-4.27-4.91-.11-.13-.65-.83-.07-.09-.16-.2-.31-.4-.46-.61-.31-.4-.61-.81-.9-1.21-.62-.84-1.21-1.69-1.79-2.54-.95-1.4-1.87-2.81-2.75-4.24-.71-1.14-1.39-2.28-2.03-3.45-.19,1.44-.37,2.88-.56,4.31,4.41-5.47,8.82-10.95,13.23-16.42,1.21-1.51,1.47-3.54,0-5.03-1.26-1.25-3.81-1.51-5.03,0-4.41,5.48-8.82,10.95-13.22,16.43-1.04,1.29-1.39,2.78-.56,4.31,2.82,5.15,6.23,10.03,9.94,14.57,4.89,6,12.67,13.95,21.26,11.61,3.65-.99,6.61-3.98,7.22-7.75.61-3.78-.3-7.54-1.67-11.06-3.01-7.69-7.69-14.68-12.6-21.27-1.72-2.31-3.48-4.62-5.34-6.83-1.24-1.48-3.74-1.28-5.03,0-1.46,1.46-1.25,3.55,0,5.03Z"/>
      </g>
      <path class="st8" d="M186.65,250.12l-9.22,5.69-6.52-21.07,3.22-4.04s5.31,6.6,7.09,9.38c1.78,2.79,5.43,10.04,5.43,10.04Z"/>
      <path class="st15" d="M183.87,249.28s-3.65-7.26-5.43-10.04c-1.12-1.76-3.66-5.04-5.37-7.21l1.06-1.33s5.31,6.6,7.09,9.38c1.78,2.79,5.43,10.04,5.43,10.04l-9.22,5.69,6.44-6.52Z"/>
      <g>
        <polygon class="st3" points="177.36 264.42 193.94 253.71 190.18 247.9 173.61 258.6 177.36 264.42"/>
        <path d="M177.12,265.53l-4.62-7.16,17.92-11.58,4.63,7.16-17.93,11.58ZM174.72,258.84l2.88,4.46,15.22-9.83-2.88-4.46-15.22,9.83Z"/>
      </g>
    </g>
    <polygon class="st4" points="104.61 276.54 104.35 281 166.42 281 166.14 276.54 104.61 276.54"/>
    <g>
      <polygon class="st8" points="125.99 229.39 125.99 276.02 91.86 276.02 103.86 229.39 125.99 229.39"/>
      <path d="M122.43,229.39v46.64c1.19-1.18,2.37-2.37,3.56-3.56h-34.13c1.14,1.5,2.28,3,3.42,4.5,3.21-12.47,6.42-24.93,9.63-37.4.8-3.08,1.58-6.17,2.38-9.25-1.14.87-2.28,1.74-3.43,2.62h22.12c4.58,0,4.58-7.11,0-7.11h-22.12c-1.56,0-3.03,1.09-3.43,2.61-3.21,12.46-6.42,24.93-9.63,37.4-.79,3.08-1.59,6.17-2.38,9.24-.58,2.23,1.09,4.5,3.43,4.5h34.13c1.93,0,3.54-1.61,3.54-3.55v-46.64c0-4.58-7.11-4.58-7.11,0Z"/>
    </g>
    <g>
      <polygon class="st8" points="144.71 229.39 144.71 276.02 178.84 276.02 166.83 229.39 144.71 229.39"/>
      <path d="M141.16,229.39v46.64c0,1.94,1.61,3.55,3.55,3.55h34.13c2.34,0,4-2.26,3.43-4.5-3.21-12.46-6.42-24.93-9.63-37.4-.79-3.08-1.59-6.16-2.38-9.24-.39-1.52-1.87-2.61-3.43-2.61h-22.11c-4.58,0-4.58,7.11,0,7.11h22.11c-1.14-.87-2.28-1.74-3.42-2.62,3.21,12.47,6.42,24.93,9.63,37.4.79,3.08,1.59,6.17,2.38,9.25,1.14-1.5,2.29-3,3.43-4.5h-34.13c1.19,1.18,2.37,2.37,3.56,3.56v-46.64c0-4.58-7.11-4.58-7.11,0Z"/>
    </g>
    <polygon class="st15" points="106.71 232.99 96.5 272.53 122.61 272.41 101.15 269.05 106.71 232.99"/>
    <polygon class="st15" points="164.07 232.99 174.28 272.53 148.17 272.41 169.63 269.05 164.07 232.99"/>
    <g>
      <g>
        <g>
          <polygon class="st0" points="135.35 259.69 130.57 253.71 133.63 238.16 137.07 238.16 140.14 253.71 135.35 259.69 135.35 259.69 135.35 259.69 135.35 259.69 135.35 259.69"/>
          <path d="M139.01,256.03c-1.59-1.99-3.19-3.99-4.79-5.98.44,1.67.89,3.35,1.33,5.03,1.02-5.18,2.05-10.37,3.07-15.55-1.66,1.27-3.32,2.53-4.99,3.79h3.44c-1.66-1.26-3.33-2.52-4.98-3.79,1.02,5.18,2.04,10.37,3.07,15.55.44-1.68.88-3.36,1.33-5.03-.88,1.1-1.75,2.19-2.63,3.29-1.45,1.81-3.67,3.95-3.67,6.35,2.59-1.49,5.18-2.98,7.78-4.47h0c-3.44-1.71-7.78.35-7.78,4.46h0c0,2.82,2.35,5.17,5.17,5.17s5.17-2.35,5.17-5.16h0c0-2.82-2.35-5.17-5.17-5.17s-5.17,2.35-5.17,5.17h0c0,2.82,2.35,5.17,5.17,5.17s5.17-2.35,5.17-5.16h0c-2.59,1.48-5.18,2.97-7.77,4.46h0c3.44,1.71,7.78-.35,7.78-4.46h0c-.5,1.21-1.01,2.43-1.52,3.65,1.39-1.74,2.79-3.49,4.18-5.23.19-.24.39-.48.58-.72,1.28-1.61,1.75-3.05,1.34-5.11-.14-.68-.26-1.34-.4-2.01-.89-4.5-1.78-8.99-2.66-13.49-.44-2.23-2.82-3.8-4.99-3.8h-3.44c-2.17,0-4.54,1.56-4.98,3.8-.87,4.43-1.75,8.87-2.63,13.31-.14.71-.28,1.41-.42,2.11-.41,2.07,0,3.54,1.3,5.16.17.21.33.42.5.62,1.43,1.79,2.86,3.57,4.29,5.36,1.76,2.2,5.48,1.82,7.31,0,2.16-2.16,1.76-5.11,0-7.31Z"/>
        </g>
        <polygon class="st12" points="135.35 259.69 130.57 253.71 133.63 238.16 137.07 238.16 140.14 253.71 135.35 259.69 135.35 259.69 135.35 259.69 135.35 259.69 135.35 259.69"/>
      </g>
      <polygon class="st10" points="135.35 259.68 130.57 253.71 133.63 238.16 135.35 238.16 135.35 259.68"/>
      <polygon class="st14" points="131.41 253.19 134.37 238.16 133.63 238.16 130.57 253.71 135.35 259.68 131.41 253.19"/>
    </g>
    <polygon class="st15" points="139.3 253.19 136.33 238.16 137.07 238.16 140.14 253.71 135.36 259.68 139.3 253.19"/>
    <g>
      <rect class="st8" x="151.83" y="261.4" width="16.41" height="4.69"/>
      <path d="M151.83,267.39h16.41c.71,0,1.29-.59,1.29-1.29v-4.69c0-.7-.58-1.29-1.29-1.29h-16.41c-.71,0-1.3.59-1.3,1.29v4.69c0,1.67,2.59,1.67,2.59,0v-4.69c-.43.43-.86.86-1.29,1.29h16.41c-.43-.43-.86-.86-1.29-1.29v4.69c.43-.43.86-.86,1.29-1.29h-16.41c-1.67,0-1.67,2.59,0,2.59Z"/>
    </g>
    <g>
      <rect class="st8" x="102.38" y="261.4" width="16.41" height="4.69"/>
      <path d="M102.38,267.39h16.41c.7,0,1.29-.59,1.29-1.29v-4.69c0-.7-.59-1.29-1.29-1.29h-16.41c-.71,0-1.29.59-1.29,1.29v4.69c0,1.67,2.59,1.67,2.59,0v-4.69c-.43.43-.86.86-1.29,1.29h16.41c-.43-.43-.86-.86-1.29-1.29v4.69c.43-.43.86-.86,1.29-1.29h-16.41c-1.67,0-1.67,2.59,0,2.59Z"/>
    </g>
  </g>
  <g>
    <g>
      <g>
        <g>
          <g>
            <path class="st9" d="M230.22,79.64s1.57,39.07.42,62.99c-1.15,23.92-16.3,32.18-16.3,32.18v-70.21l15.88-24.96Z"/>
            <path d="M221.18,79.64c.72,17.95,1.08,35.94.72,53.9-.09,4.55-.13,9.15-.71,13.67.11-.8.22-1.61.32-2.41-.56,4.1-1.58,8.12-3.18,11.94.3-.72.6-1.44.91-2.16-1.29,3.01-2.93,5.85-4.92,8.45.47-.61.95-1.22,1.41-1.83-1.67,2.15-3.57,4.13-5.73,5.81.61-.47,1.22-.94,1.83-1.41-.66.5-1.33,1-2.05,1.4,4.54,2.6,9.07,5.2,13.61,7.81v-70.21c-.42,1.52-.83,3.04-1.24,4.57,5.29-8.32,10.59-16.64,15.88-24.96,2.65-4.16.88-9.96-3.24-12.38-4.38-2.56-9.74-.91-12.38,3.25-3.28,5.17-6.57,10.33-9.86,15.49-1.77,2.78-3.53,5.57-5.3,8.34-1.12,1.75-1.95,3.43-1.95,5.69v70.2c0,7,7.65,11.08,13.62,7.81,1.83-1,3.5-2.44,5.07-3.79,3.19-2.74,5.87-6.19,8.09-9.75,3.17-5.06,5.33-10.92,6.45-16.77,1.27-6.65,1.37-13.45,1.49-20.19.32-17.49-.05-35.01-.74-52.48-.2-4.92-3.97-9.04-9.05-9.04-4.78,0-9.24,4.11-9.04,9.04Z"/>
          </g>
          <path class="st1" d="M230.22,76.16s1.57,42.55.42,66.48c-1.15,23.92-16.3,32.18-16.3,32.18v-70.21l15.88-28.45Z"/>
        </g>
        <g>
          <g>
            <path class="st9" d="M39.94,79.64s-1.56,39.07-.42,62.99c1.15,23.92,16.3,32.18,16.3,32.18v-70.21l-15.88-24.96Z"/>
            <path d="M30.89,79.64c-.72,17.95-1.09,35.94-.72,53.9.14,6.67.32,13.34,1.68,19.88,1.17,5.64,3.42,11.25,6.51,16.11,2.19,3.44,4.84,6.74,7.93,9.4,1.54,1.32,3.17,2.71,4.96,3.69,5.97,3.27,13.61-.81,13.61-7.81v-70.13c0-3.04-1.45-4.98-2.94-7.33-1.84-2.9-3.69-5.81-5.54-8.71-2.88-4.52-5.75-9.04-8.63-13.57-2.64-4.16-8-5.81-12.38-3.25-4.13,2.42-5.89,8.21-3.24,12.38,5.29,8.32,10.59,16.64,15.88,24.96-.41-1.52-.82-3.04-1.23-4.57v70.21c4.54-2.61,9.08-5.21,13.61-7.81-.72-.4-1.4-.91-2.05-1.4.61.47,1.22.94,1.83,1.41-2.15-1.68-4.06-3.65-5.73-5.81.47.61.94,1.22,1.41,1.83-2-2.6-3.62-5.45-4.91-8.45.3.72.61,1.44.91,2.16-1.61-3.82-2.63-7.83-3.19-11.94.11.8.22,1.6.33,2.41-.76-5.93-.71-12.01-.79-17.98-.08-6.15-.05-12.31.02-18.45.11-9.38.33-18.74.66-28.1.04-1.02.07-2.03.1-3.04.21-4.93-4.25-9.04-9.04-9.04-5.08,0-8.85,4.12-9.05,9.04Z"/>
          </g>
          <path class="st1" d="M39.94,76.16s-1.56,42.55-.42,66.48c1.15,23.92,16.3,32.18,16.3,32.18v-70.21l-15.88-28.45Z"/>
        </g>
      </g>
      <g>
        <g>
          <path class="st9" d="M217.41,84.03c.29,11.79,0,81.47,0,81.47,0,31.66-17.74,61.01-83.86,60.74-65.44-.27-80.93-29.08-80.93-60.74v-81.47h164.79Z"/>
          <path d="M208.36,84.03c.37,14.81.14,29.64.12,44.46-.02,12.32-.06,24.66-.12,36.99-.02,3.4-.21,6.79-.66,10.17.11-.8.21-1.61.33-2.41-.69,5.03-1.95,9.97-3.91,14.66.31-.72.61-1.44.92-2.16-1.63,3.85-3.73,7.48-6.27,10.8.47-.61.95-1.22,1.41-1.83-2.64,3.4-5.71,6.43-9.11,9.06.61-.48,1.22-.95,1.83-1.41-4.25,3.25-8.93,5.85-13.85,7.94.72-.3,1.44-.61,2.16-.91-8.31,3.49-17.14,5.51-26.05,6.71.8-.11,1.6-.21,2.41-.32-15.41,2.04-31.35,2.02-46.75-.04.8.11,1.6.21,2.4.32-8.65-1.18-17.25-3.13-25.33-6.5.72.3,1.44.6,2.16.91-4.79-2.02-9.35-4.54-13.48-7.71.61.47,1.22.94,1.83,1.41-3.23-2.51-6.15-5.39-8.66-8.63.47.61.94,1.22,1.41,1.83-2.47-3.23-4.51-6.77-6.08-10.51.3.72.61,1.44.91,2.16-1.98-4.74-3.23-9.74-3.93-14.84.1.81.21,1.61.32,2.41-.61-4.53-.71-9.08-.71-13.64v-78.93c-3.02,3.02-6.03,6.03-9.05,9.04h164.79c4.93,0,9.05-4.11,9.05-9.04s-4.12-9.05-9.05-9.05H52.62c-4.93,0-9.05,4.12-9.05,9.05v76.25c0,3.75-.05,7.5.2,11.25.29,4.38.88,8.77,1.84,13.04.94,4.24,2.44,8.24,4.17,12.21,3.24,7.41,8.45,14.15,14.69,19.28,8.25,6.78,17.86,11.33,28.11,14.25,13.08,3.72,26.95,4.88,40.5,4.98,13.78.1,27.83-1.02,41.2-4.5,18.51-4.81,36.2-15.4,45.02-32.95,3.97-7.91,5.99-16.26,6.83-25.03.39-4.14.34-8.3.35-12.45.06-16.38.11-32.77.11-49.16,0-9.05.09-18.12-.13-27.17-.12-4.93-4.02-9.05-9.05-9.05s-9.17,4.12-9.05,9.05Z"/>
        </g>
        <path class="st2" d="M217.41,84.03c.29,11.79,0,81.47,0,81.47,0,31.66-17.74,61.01-83.86,60.74-65.44-.27-80.93-29.08-80.93-60.74v-81.47h164.79Z"/>
      </g>
    </g>
    <path class="st13" d="M131.36,141.87c40.4.45,68.78-10.52,86.19-26.39,0,6.23-.02,12.63-.04,18.64-17.4,15.85-45.77,26.8-86.15,26.36-35.53-.39-60.79-8.81-78.73-20.2v-18.61c17.94,11.39,43.2,19.8,78.73,20.19Z"/>
    <g>
      <g>
        <path class="st9" d="M131.35,144.63C17.61,143.37,9.08,59.89,9.08,59.89c0,0,11.25,8.32,36.3-5.51,22.32-12.32,51.49-49.34,121.53-44.95,100.34,6.3,101.8,136.71-35.56,135.2Z"/>
        <path d="M131.35,135.58c-8.28-.1-16.57-.63-24.78-1.72.8.11,1.6.21,2.41.32-12.78-1.73-25.4-4.81-37.31-9.81.72.31,1.44.61,2.16.91-8.68-3.67-16.92-8.34-24.38-14.09.61.47,1.21.94,1.83,1.41-6.54-5.06-12.43-10.92-17.49-17.46.47.61.94,1.22,1.41,1.84-5.08-6.59-9.29-13.81-12.53-21.46.31.71.61,1.44.92,2.16-2.53-6.03-4.58-12.37-5.59-18.84-.05-.29-.09-.58-.13-.87.11.8.21,1.6.32,2.4-.02-.16-.05-.33-.06-.49-4.54,2.6-9.08,5.21-13.61,7.81,1.49,1.09,3.41,1.71,5.14,2.29,3.64,1.23,7.73,1.58,11.57,1.39,6.25-.29,12.38-1.85,18.16-4.2,5.18-2.11,10.19-4.54,14.88-7.59,5.8-3.76,11.24-8.06,16.83-12.13,6.9-5.02,13.99-9.77,21.48-13.87,4.09-2.23,8.29-4.27,12.58-6.08-.72.3-1.44.61-2.17.91,10.89-4.58,22.36-7.64,34.06-9.24-.8.11-1.6.21-2.41.32,13.18-1.77,26.8-2,40.01-.27-.8-.1-1.61-.21-2.41-.32,8.18,1.1,16.23,3.14,23.84,6.35-.72-.3-1.44-.61-2.16-.91,5.85,2.48,11.41,5.64,16.45,9.52-.61-.47-1.22-.94-1.83-1.41,4.36,3.38,8.3,7.28,11.67,11.63-.47-.61-.94-1.22-1.41-1.83,3.11,4.05,5.7,8.46,7.69,13.16-.31-.72-.61-1.44-.91-2.16,1.94,4.63,3.28,9.5,3.95,14.48-.1-.8-.21-1.61-.32-2.4.66,4.97.65,10.02-.02,14.99.11-.8.22-1.61.32-2.41-.69,5.11-2.08,10.1-4.07,14.84.3-.72.61-1.44.91-2.16-2.12,5.02-4.92,9.72-8.24,14.04.47-.61.95-1.22,1.41-1.83-3.82,4.93-8.3,9.3-13.22,13.12.61-.47,1.22-.95,1.83-1.41-6.32,4.87-13.32,8.79-20.66,11.9.72-.31,1.44-.61,2.17-.91-10.7,4.5-22.05,7.27-33.53,8.83.8-.11,1.6-.21,2.41-.32-9,1.21-18.08,1.67-27.14,1.58-4.93-.05-9.05,4.16-9.05,9.05s4.12,8.99,9.05,9.05c12.11.12,24.22-.81,36.15-2.93,10.14-1.8,19.86-4.8,29.33-8.81,15.34-6.5,28.92-16.82,38.57-30.44,8.07-11.39,12.54-25.53,12.37-39.5-.17-13.63-4.72-27.34-12.9-38.26-4.87-6.51-10.44-11.92-17.02-16.71-6.45-4.7-13.73-8.17-21.22-10.88-8.51-3.07-17.48-4.67-26.47-5.51-13.74-1.27-27.63-.58-41.24,1.58-20.83,3.3-40.49,11.72-58,23.35-12.63,8.4-24.01,18.95-38.12,24.91.72-.31,1.44-.61,2.16-.91-4.24,1.76-8.65,3.14-13.2,3.77.8-.11,1.6-.22,2.41-.33-2.74.36-5.5.44-8.24.09.81.12,1.61.22,2.41.32-1.74-.24-3.45-.64-5.07-1.32.72.3,1.44.61,2.16.91-.61-.25-1.24-.54-1.78-.94-2.53-1.86-6.56-1.5-9.13,0C1.98,53.56-.29,56.81.03,59.89c.52,5.03,1.68,9.99,3.22,14.81,3.4,10.66,8.5,20.88,15.16,29.88,9.8,13.26,22.34,24.12,36.91,31.88,20.28,10.79,43.11,15.54,65.9,16.87,3.37.2,6.75.3,10.13.34,4.93.06,9.05-4.16,9.05-9.05s-4.12-8.99-9.05-9.05Z"/>
      </g>
      <path class="st1" d="M131.35,144.63C17.61,143.37,9.08,59.89,9.08,59.89c0,0,11.25,8.32,36.3-5.51,22.32-12.32,51.49-49.34,121.53-44.95,100.34,6.3,101.8,136.71-35.56,135.2Z"/>
      <path class="st11" d="M166.91,16.02c-70.05-4.4-98.93,33.17-121.53,44.94-27.71,14.44-36.3-1.08-36.3-1.08,0,0,11.24,8.32,36.3-5.51,22.31-12.32,51.48-49.34,121.53-44.95,48.2,3.03,73.58,34.7,71.72,66.62-1.74-29.56-26.84-57.21-71.72-60.03Z"/>
      <path class="st5" d="M129.16,134.16c77.98.86,111.21-40.8,107.03-78.12,12.28,39.52-19.45,89.53-104.82,88.59C17.62,143.37,9.08,59.89,9.08,59.89c0,0,.04.03.13.09,6.67,22.5,31.49,73.21,119.94,74.19Z"/>
      <path class="st8" d="M191.27,46.7c8.51,3.2,16.98,1.66,18.9-3.46,1.92-5.1-3.43-11.85-11.94-15.05-8.52-3.2-16.98-1.66-18.9,3.46-1.92,5.11,3.42,11.85,11.94,15.05Z"/>
      <path class="st8" d="M212.84,48.16c0,1.85,1.51,3.36,3.36,3.36s3.36-1.51,3.36-3.36-1.5-3.36-3.36-3.36-3.36,1.51-3.36,3.36Z"/>
    </g>
    <g>
      <g>
        <g>
          <g>
            <path class="st3" d="M171.76,175.07c0,7.3,5.92,13.22,13.22,13.22s13.22-5.92,13.22-13.22-5.91-13.22-13.22-13.22-13.22,5.92-13.22,13.22Z"/>
            <path d="M169.82,175.07c.08,6.16,3.77,11.71,9.5,14.05,5.72,2.33,12.33.81,16.61-3.58,4.4-4.51,5.24-11.26,2.77-16.91-2.44-5.57-8.48-8.94-14.44-8.7-8.05.33-14.33,7.2-14.43,15.14-.04,2.5,3.84,2.5,3.87,0,.08-5.58,4.22-10.52,9.84-11.21,5.72-.7,10.97,3.02,12.41,8.54,1.42,5.43-1.78,11.26-6.97,13.22-5.42,2.04-11.37-.44-14.06-5.47-.83-1.56-1.18-3.34-1.21-5.09-.03-2.5-3.91-2.5-3.87,0Z"/>
          </g>
          <path class="st8" d="M175.47,171.59c0,1.79,1.45,3.25,3.24,3.25s3.24-1.46,3.24-3.25-1.45-3.24-3.24-3.24-3.24,1.45-3.24,3.24Z"/>
        </g>
        <g>
          <g>
            <g>
              <path class="st3" d="M75.03,175.07c0,7.3,5.92,13.22,13.22,13.22s13.22-5.92,13.22-13.22-5.92-13.22-13.22-13.22-13.22,5.92-13.22,13.22Z"/>
              <path d="M73.1,175.07c.08,6.16,3.77,11.71,9.49,14.05,5.72,2.33,12.34.81,16.61-3.58,4.4-4.51,5.25-11.26,2.77-16.91-2.44-5.57-8.48-8.94-14.44-8.7-8.05.33-14.32,7.2-14.43,15.14-.04,2.5,3.84,2.5,3.87,0,.08-5.58,4.22-10.52,9.84-11.21,5.72-.7,10.97,3.02,12.41,8.54,1.41,5.43-1.78,11.26-6.98,13.22-5.42,2.04-11.37-.44-14.06-5.47-.84-1.56-1.19-3.34-1.21-5.09-.03-2.5-3.91-2.5-3.87,0Z"/>
            </g>
            <path class="st8" d="M78.74,171.59c0,1.79,1.45,3.25,3.24,3.25s3.25-1.46,3.25-3.25-1.45-3.24-3.25-3.24-3.24,1.45-3.24,3.24Z"/>
          </g>
          <path class="st7" d="M86.33,195.83c.28,2.06-3.28,4.26-7.94,4.89-4.67.63-8.68-.53-8.97-2.59-.28-2.07,3.28-4.26,7.95-4.89,4.67-.63,8.67.53,8.96,2.59Z"/>
          <path class="st7" d="M184.48,195.83c-.28,2.06,3.28,4.26,7.94,4.89,4.66.63,8.68-.53,8.96-2.59.28-2.07-3.27-4.26-7.94-4.89-4.67-.63-8.68.53-8.96,2.59Z"/>
        </g>
      </g>
      <path d="M142,205.88c0,.07-.01.14-.02.21.15-1.28.05-.4-.02-.09-.08.29-.17.58-.28.86.35-.92-.22.35-.4.62-.35.54.42-.49,0,.02-.18.21-.36.4-.56.59-.09.09-.66.52-.11.12-.26.19-.54.35-.82.51-.04.02-.8.37-.28.16-.37.14-.74.25-1.12.35-.85.24-1.44.27-2.39.29-1.63.05-2.91-.13-4.43-.69.5.19-.28-.14-.32-.16-.29-.14-.58-.32-.85-.5-.4-.27.27.26-.3-.25-.2-.18-.38-.38-.55-.58-.44-.5.36.51-.02-.01-.13-.18-.25-.38-.36-.57-.1-.17-.19-.35-.27-.54.4.85.12.29.04.07-.15-.42-.3-1.66-.14-.22-.17-1.54-1.16-2.84-2.84-2.84-1.42,0-3.02,1.29-2.85,2.84,1.35,12.19,23.95,12.42,24.58-.19.18-3.67-5.5-3.65-5.69,0h0Z"/>
    </g>
  </g>
</svg>