<?xml version="1.0" encoding="UTF-8"?>
<svg id="Layer_1" xmlns="http://www.w3.org/2000/svg" version="1.1" viewBox="0 0 283.7 329.56">
  <!-- Generator: Adobe Illustrator 29.6.1, SVG Export Plug-In . SVG Version: 2.1.1 Build 9)  -->
  <defs>
    <style>
      .st0 {
        fill: #fff4c5;
      }

      .st1 {
        fill: #ff8806;
      }

      .st2 {
        fill: #ffce00;
      }

      .st3 {
        fill: #0b397c;
      }

      .st4 {
        fill: #000002;
      }

      .st5 {
        fill: #231f20;
      }

      .st6 {
        fill: #1694d3;
      }

      .st7 {
        fill: #fff4c7;
      }

      .st8 {
        fill: #ffe0d2;
      }

      .st9 {
        fill: #ffb000;
      }

      .st10 {
        fill: #055b96;
      }

      .st11 {
        fill: #f38b9e;
      }

      .st12 {
        fill-rule: evenodd;
      }

      .st13 {
        fill: #fff;
      }

      .st14 {
        fill: #fdc361;
      }

      .st15 {
        fill: #aee8ff;
      }

      .st16 {
        fill: #fde5d2;
      }

      .st17 {
        fill: #ffc6b0;
      }

      .st18 {
        fill: #ff9700;
      }

      .st19 {
        fill: #ffebde;
      }

      .st20 {
        fill: #002b5e;
      }

      .st21 {
        fill: #1a4591;
      }

      .st22 {
        fill: #ffd401;
      }

      .st23 {
        fill: #1c75bc;
      }

      .st24 {
        fill: #ffb103;
      }
    </style>
  </defs>
  <path d="M65.16,245.12c-1.56-4.68-1.02-7.8-1.02-7.8,0,0,5.5,6.61,16.35,11.08,10.86,4.48,44.21,14.11,44.21,14.11l-7.13-44.32L30.97,128.83s-9.58,75.75-3.07,95.13c8.69,25.89,27.86,28.78,27.86,28.78,0,0-5.74-6.14-7.01-13.02-1.27-6.87.54-11.94.54-11.94,0,0,4.23,12.05,9.29,18.02,5.07,5.97,11.15,8.93,11.15,8.93,0,0-3.01-4.93-4.57-9.61Z"/>
  <path d="M218.94,245.12c1.56-4.68,1.02-7.8,1.02-7.8,0,0-5.5,6.61-16.35,11.08-10.85,4.48-44.2,14.11-44.2,14.11l7.13-44.32,86.59-89.36s9.57,75.75,3.07,95.13c-8.69,25.89-27.86,28.78-27.86,28.78,0,0,5.74-6.14,7-13.02,1.27-6.87-.54-11.94-.54-11.94,0,0-4.23,12.05-9.29,18.02-5.07,5.97-11.15,8.93-11.15,8.93,0,0,3.01-4.93,4.57-9.61Z"/>
  <g>
    <g>
      <g>
        <path class="st8" d="M103.16,243.65s-29.23,34.71-16.55,42.2c12.68,7.48,30.43-24.96,30.43-24.96l-13.88-17.24Z"/>
        <path d="M100.52,241.01c-3.52,4.19-6.79,8.62-9.86,13.15-4.81,7.1-9.71,15.04-10.85,23.68-.47,3.54.44,7.5,3.2,9.95,3.35,2.97,8.07,3.58,12.23,2.09,4.33-1.56,7.98-4.63,11.15-7.91,3.24-3.35,6.07-7.1,8.71-10.93,1.84-2.67,3.61-5.42,5.16-8.26.87-1.61.51-3.17-.59-4.52-4.63-5.75-9.25-11.49-13.88-17.24-1.28-1.59-3.95-1.32-5.28,0-1.55,1.55-1.28,3.69,0,5.28,4.63,5.74,9.25,11.49,13.88,17.24-.2-1.51-.39-3.02-.58-4.52-.88,1.62-1.85,3.19-2.83,4.74-1.02,1.61-2.08,3.19-3.17,4.75-.6.85-1.22,1.69-1.84,2.52-.16.21-.33.42-.48.63.6-.78.03-.05-.08.1-.4.5-.79,1-1.2,1.48-1.45,1.75-2.98,3.43-4.62,5-.76.72-1.55,1.41-2.35,2.06-.69.56.66-.5-.05.03-.19.15-.39.29-.59.44-.46.32-.92.63-1.41.92-.39.24-.8.46-1.21.68-.2.1-.4.2-.61.29-.73.34.83-.33.08-.04-.4.16-.8.29-1.21.4-.35.1-1.96.34-.61.18-.39.05-.79.05-1.19.05-.19,0-.4-.02-.59-.04,1.2.11.5.06.22.02-.4-.08-.78-.2-1.15-.33-.72-.26.83.38.14.04-.25-.11-.48-.25-.71-.39-.98-.59.45.44-.18-.12-.24-.21-.46-.45-.66-.7.85,1.04.16.15-.02-.17-.54-.97.24.79-.1-.28-.1-.31-.17-.63-.23-.96-.12-.69.12,1.01.05.32-.02-.18-.03-.35-.03-.53-.02-.36-.01-.73,0-1.09.01-.35.22-1.92.02-.55.26-1.81.81-3.57,1.44-5.28.17-.45.35-.9.53-1.35-.44,1.06.2-.45.32-.7.46-1.02.96-2.02,1.47-3.01,2.02-3.9,4.38-7.62,6.86-11.22,1.11-1.62,2.25-3.2,3.42-4.77.48-.65.96-1.29,1.45-1.94.11-.15.23-.3.34-.44.43-.56-.58.74-.15.2.23-.3.46-.6.7-.9.73-.92,1.46-1.84,2.22-2.74,1.31-1.56,1.53-3.75,0-5.28-1.34-1.35-3.97-1.56-5.28,0Z"/>
      </g>
      <path class="st23" d="M103.83,263.09l2.87-9.67-3.38-4.23s-5.58,6.93-7.44,9.85l7.96,4.05Z"/>
      <path class="st15" d="M103.92,262.94l-4.71-5.41c1.31-1.92,3.61-4.9,5.22-6.95l-1.11-1.39s-5.58,6.93-7.44,9.85c-1.87,2.92.31,3.52,2.29.15l5.76,3.75Z"/>
      <g>
        <rect class="st4" x="94.45" y="253.43" width="7.26" height="20.71" transform="translate(-176.72 203.08) rotate(-57.15)"/>
        <path d="M105.05,273.57l-18.75-12.11,4.81-7.45,18.76,12.12-4.81,7.45ZM88.53,260.98l16.05,10.36,3.07-4.74-16.05-10.37-3.06,4.75Z"/>
      </g>
      <g>
        <rect class="st23" x="92.92" y="255.73" width="8.14" height="18.45" transform="translate(-180.39 213.3) rotate(-59.34)"/>
        <path d="M104.22,270.82c-5.29-3.14-10.58-6.28-15.87-9.41.32,1.24.65,2.48.98,3.71,1.38-2.33,2.77-4.66,4.15-7-1.24.33-2.48.65-3.71.98,5.29,3.14,10.58,6.27,15.86,9.41-.32-1.24-.64-2.48-.96-3.71-1.39,2.33-2.77,4.67-4.16,7-1.79,3.01,2.9,5.74,4.69,2.74,1.39-2.33,2.77-4.67,4.15-7,.76-1.28.29-2.96-.98-3.72-5.29-3.13-10.58-6.27-15.87-9.41-1.28-.76-2.96-.29-3.71.97-1.39,2.33-2.77,4.66-4.15,7-.76,1.28-.29,2.96.98,3.71,5.29,3.14,10.58,6.27,15.87,9.41,3.01,1.79,5.74-2.9,2.74-4.68Z"/>
      </g>
    </g>
    <g>
      <g>
        <path class="st8" d="M183.15,243.75s29.22,34.71,16.55,42.19c-12.69,7.49-30.43-24.95-30.43-24.95l13.89-17.24Z"/>
        <path d="M180.51,246.39c1,1.19,1.97,2.42,2.92,3.64.42.55-.58-.75-.15-.19.11.15.23.3.34.44.24.31.47.62.71.94.56.74,1.11,1.49,1.66,2.25,1.2,1.64,2.36,3.31,3.5,5,2.46,3.65,4.75,7.42,6.68,11.37.23.46.44.92.66,1.39.12.25.76,1.76.32.7.39.95.74,1.91,1.06,2.89.27.83.5,1.68.68,2.53.1.4.16.81.22,1.21-.21-1.36,0,.2.03.55.02.36.01.73,0,1.1,0,.17-.01.35-.03.53-.06.7.15-1,.05-.31-.06.33-.14.65-.23.96-.32,1.08.4-.7-.11.28-.16.31-.86,1.25-.02.16-.19.25-.42.48-.65.71-.63.58.78-.5-.19.12-.17.11-.35.2-.52.3-.9.48.54-.19-.05.04-.37.14-.76.25-1.15.33-.27.06-1.01.12.21-.02-.2.02-.39.03-.59.04-.4.02-.79-.01-1.18-.05,1.34.13-.25-.08-.61-.18-.41-.11-.81-.25-1.21-.4-.74-.28.83.36.09.04-.2-.1-.4-.2-.61-.3-.91-.46-1.78-1.01-2.62-1.6-.2-.14-.4-.29-.6-.44-.7-.52.65.52-.04-.04-.41-.32-.8-.66-1.18-.99-.87-.76-1.7-1.57-2.51-2.39-1.59-1.63-3.07-3.37-4.48-5.16-.11-.14-.68-.87-.08-.1-.16-.21-.32-.42-.49-.63-.32-.42-.63-.84-.94-1.26-.64-.88-1.26-1.77-1.88-2.67-1-1.46-1.96-2.95-2.89-4.45-.74-1.19-1.47-2.39-2.14-3.61-.2,1.51-.39,3.01-.58,4.52,4.62-5.74,9.25-11.49,13.88-17.24,1.28-1.58,1.56-3.72,0-5.27-1.32-1.33-4-1.59-5.28,0-4.62,5.75-9.25,11.49-13.88,17.24-1.09,1.35-1.46,2.92-.58,4.52,2.96,5.4,6.54,10.53,10.43,15.3,5.13,6.3,13.3,14.65,22.32,12.19,3.83-1.04,6.94-4.18,7.58-8.14.64-3.97-.32-7.91-1.76-11.6-3.16-8.08-8.07-15.41-13.22-22.34-1.8-2.43-3.65-4.85-5.61-7.17-1.31-1.56-3.93-1.35-5.28,0-1.52,1.53-1.3,3.72,0,5.27Z"/>
      </g>
      <path class="st23" d="M182.48,263.19l-2.87-9.68,3.38-4.23s5.58,6.93,7.45,9.86l-7.96,4.05Z"/>
      <path class="st15" d="M182.4,263.04l4.71-5.41c-1.32-1.93-3.61-4.9-5.22-6.95l1.11-1.39s5.58,6.93,7.45,9.86c1.86,2.92-.31,3.52-2.29.15l-5.75,3.75Z"/>
      <g>
        <rect class="st4" x="177.87" y="260.26" width="20.71" height="7.26" transform="translate(-113.08 144.39) rotate(-32.87)"/>
        <path d="M181.26,273.67l-4.81-7.45,18.75-12.11,4.81,7.45-18.75,12.11ZM178.67,266.7l3.07,4.74,16.04-10.36-3.07-4.74-16.04,10.37Z"/>
      </g>
      <g>
        <rect class="st23" x="180.09" y="260.99" width="18.45" height="8.14" transform="translate(-108.72 133.63) rotate(-30.67)"/>
        <path d="M184.83,275.61c5.29-3.14,10.58-6.28,15.87-9.41,1.26-.75,1.73-2.44.97-3.71-1.38-2.34-2.76-4.67-4.14-7-.75-1.27-2.44-1.73-3.72-.98-5.29,3.14-10.58,6.28-15.86,9.41-1.27.75-1.73,2.44-.98,3.71,1.39,2.33,2.77,4.66,4.14,7,1.78,3.01,6.48.28,4.69-2.74-1.38-2.34-2.77-4.67-4.15-7.01-.32,1.24-.65,2.48-.97,3.71,5.29-3.13,10.58-6.27,15.87-9.41-1.23-.32-2.47-.65-3.71-.97,1.39,2.33,2.77,4.67,4.15,7,.32-1.23.64-2.48.97-3.71-5.28,3.14-10.58,6.27-15.87,9.41-3.01,1.78-.28,6.48,2.74,4.69Z"/>
      </g>
    </g>
    <g>
      <path class="st21" d="M172.84,251.03h-59.86s-11.7,64.88-3.75,67.66c7.96,2.78,15.32-9.89,15.32-9.89,0,0,5.86,1.79,16.01,2.1h0c.77.03,1.55.04,2.34.04.79,0,1.58,0,2.35-.03h0c10.15-.32,16-2.11,16-2.11,0,0,7.37,12.67,15.32,9.89,7.95-2.78-3.74-67.66-3.74-67.66Z"/>
      <path d="M172.84,247.31h-59.86c-1.55,0-3.31,1.12-3.6,2.74-2.28,12.68-4.14,25.46-5.48,38.27-.81,7.75-1.64,15.73-.97,23.53.23,2.57.53,5.68,2.04,7.88,3.01,4.36,9.2,3.47,13.24,1.12,3.94-2.31,7.27-6.24,9.57-10.16-1.4.57-2.81,1.14-4.21,1.71,5.42,1.64,11.38,2.05,17,2.24-1.24-1.24-2.49-2.49-3.73-3.73h0c0,2.08,1.7,3.68,3.73,3.73,1.56.04,3.13.04,4.69,0,2.03-.05,3.73-1.66,3.73-3.73h0c-1.24,1.23-2.49,2.48-3.73,3.72,5.61-.18,11.58-.59,16.99-2.24-1.4-.57-2.81-1.14-4.21-1.71,1.79,3.05,4.17,5.96,6.89,8.22,3.95,3.26,10.41,5.89,14.9,2.06,2.1-1.8,2.55-5.07,2.89-7.63.43-3.27.41-6.6.31-9.89-.27-8.78-1.29-17.54-2.43-26.23-.99-7.56-2.12-15.1-3.39-22.61-.25-1.52-.51-3.04-.78-4.55-.36-2-2.77-3.11-4.59-2.6-2.09.57-2.96,2.59-2.6,4.59.72,3.99,1.37,7.99,1.99,12,.64,4.01,1.22,8.03,1.76,12.06.12.92-.11-.86,0,.06.03.27.07.53.1.8.07.54.14,1.07.21,1.61.16,1.17.3,2.34.44,3.51.28,2.26.53,4.53.77,6.8.78,7.69,1.61,15.61.87,23.33-.03.33-.07.66-.11.99.18-1.45.03-.27-.03.07-.1.58-.23,1.15-.39,1.71-.06.22-.14.44-.22.67-.26.71.47-1.02.09-.22-.09.17-.18.32-.29.48-.35.54.8-.87.16-.25-.45.44.98-.65.34-.28-.4.23,1.08-.43.64-.27-.27.1-.57.17-.86.24-.95.22.81-.05-.14.01-.28.02-.57.01-.84,0-.95-.05.82.16-.12-.03-.36-.07-.72-.19-1.08-.3-.91-.3.72.34-.16-.06-.26-.12-.51-.26-.77-.4-.51-.28-1-.62-1.47-.96.73.53-.06-.05-.18-.15-.23-.19-.44-.39-.67-.58-.5-.45-.96-.93-1.43-1.42-.55-.59-1.07-1.2-1.58-1.83-.43-.54.48.64-.14-.19-.21-.28-.41-.56-.61-.84-.37-.54-.74-1.09-1.07-1.65-.83-1.42-2.62-2.2-4.22-1.71-1.32.4-2.69.66-4.05.91-.74.13-1.47.25-2.21.36-1.17.17.77-.09-.47.07-.53.07-1.06.13-1.6.19-2.22.24-4.45.37-6.68.45-2.03.07-3.73,1.65-3.73,3.73h0c1.24-1.24,2.49-2.48,3.73-3.73-1.56.04-3.13.04-4.69,0,1.24,1.24,2.49,2.49,3.73,3.73h0c0-2.09-1.7-3.67-3.73-3.74-2.23-.07-4.46-.22-6.68-.45-.4-.04-.81-.09-1.21-.15-.26-.03-.51-.06-.77-.09.38.05.35.05-.09-.02-.74-.1-1.47-.23-2.21-.36-1.36-.24-2.73-.51-4.05-.91-1.59-.49-3.39.29-4.21,1.71-.55.93-1.17,1.81-1.82,2.68-.5.67.53-.68,0,0-.16.2-.32.39-.48.6-.35.42-.72.83-1.09,1.23-.38.42-.8.82-1.21,1.22-.22.21-.43.4-.66.6-.12.12-1.14.9-.4.34-.46.35-.96.66-1.47.96-.25.15-.51.27-.77.4-.87.43.73-.27-.16.06-.26.1-.53.17-.81.24-.19.05-1.13.19-.1.06-.28.03-.56.04-.84.04-.19,0-.38-.01-.57-.03.52.08.57.08.14,0-.74-.14-1.38-.59-.22.02-.64-.34.81.7.34.28-.61-.55.38.55.21.32-.12-.17-.23-.36-.33-.55-.41-.8.35.93.08.22-.08-.23-.16-.45-.22-.67-.17-.56-.29-1.14-.39-1.71-.06-.34-.22-1.53-.03-.07-.04-.33-.08-.66-.11-.99-.08-.78-.12-1.56-.16-2.35-.18-3.75-.01-7.51.22-11.25.28-4.43.71-8.85,1.2-13.26.25-2.26.53-4.52.82-6.78.07-.54.13-1.07.21-1.61.03-.27.07-.53.1-.8.12-.92-.12.86,0-.06.16-1.12.31-2.24.47-3.35.89-6.29,1.88-12.57,2.96-18.84.11-.62.22-1.25.33-1.87-1.2.91-2.4,1.83-3.6,2.74h59.86c4.81,0,4.81-7.46,0-7.46Z"/>
    </g>
    <g>
      <path class="st4" d="M204.67,325.05c0,1.82-27.65,3.3-61.76,3.3s-61.76-1.48-61.76-3.3,27.65-3.3,61.76-3.3,61.76,1.48,61.76,3.3Z"/>
      <path d="M142.91,329.56c-16.52,0-32.05-.35-43.74-.97-19.24-1.03-19.24-2.19-19.24-3.54s0-2.51,19.24-3.54c11.68-.62,27.21-.96,43.74-.96s32.06.34,43.74.96c19.23,1.03,19.23,2.2,19.23,3.54s0,2.51-19.23,3.54c-11.69.62-27.22.97-43.74.97ZM85.37,325.04c7.72,1.04,27.91,2.1,57.54,2.1s49.82-1.07,57.54-2.1c-8.02-1.1-29.16-2.08-57.54-2.08s-49.52.98-57.54,2.08Z"/>
    </g>
    <g>
      <g>
        <polygon class="st16" points="170.83 250.23 143.12 250.23 142.89 250.23 115.17 250.23 103.16 289.73 142.89 289.73 143.12 289.73 182.85 289.73 170.83 250.23"/>
        <path d="M170.83,242.77h-55.66c-3.39,0-6.22,2.29-7.2,5.48-3.83,12.59-7.65,25.17-11.49,37.76-.17.58-.35,1.16-.53,1.74-1.42,4.67,2.44,9.45,7.2,9.45h79.69c4.75,0,8.61-4.78,7.19-9.45-3.82-12.59-7.65-25.18-11.48-37.76-.18-.58-.36-1.16-.53-1.74-1.18-3.89-5.18-6.31-9.18-5.21-3.84,1.05-6.4,5.29-5.22,9.18,3.83,12.59,7.66,25.17,11.48,37.76.18.58.36,1.16.53,1.74,2.4-3.15,4.8-6.3,7.2-9.45h-79.69c2.4,3.15,4.79,6.3,7.19,9.45,3.83-12.59,7.66-25.17,11.49-37.76.17-.58.35-1.16.52-1.74-2.4,1.82-4.8,3.65-7.19,5.48h55.66c4.07,0,7.46-3.39,7.46-7.46s-3.39-7.46-7.46-7.46Z"/>
      </g>
      <polygon class="st23" points="170.83 250.23 143.12 250.23 142.89 250.23 115.17 250.23 103.16 289.73 142.89 289.73 143.12 289.73 182.85 289.73 170.83 250.23"/>
    </g>
    <polygon class="st15" points="114.66 251.8 103.16 289.73 134.47 289.73 108.9 285.99 114.66 251.8"/>
    <polygon class="st15" points="171.33 251.8 182.84 289.73 151.53 289.73 177.09 285.99 171.33 251.8"/>
    <polygon class="st20" points="110.53 297.18 110.26 301.86 175.41 301.86 175.13 297.18 110.53 297.18"/>
    <rect class="st4" x="139.92" y="249.35" width="5.98" height="41.52"/>
    <g>
      <g>
        <g>
          <path class="st16" d="M148.3,296.14c0,.95-.7,1.72-1.57,1.72l-7.62.02c-.88,0-1.58-.76-1.59-1.71v-4.58c-.01-.95.69-1.71,1.56-1.72l7.62-.02c.87,0,1.58.76,1.58,1.71v4.57Z"/>
          <path d="M143.56,296.14c.14-1.65,1.22-3.02,3.13-3.02h-.49c-.62,0-1.23,0-1.84,0-1.46,0-2.92.01-4.38.01-.29,0-.58,0-.86,0,1.95,0,3.16,1.62,3.16,2.96v-.74c0-1.25,0-2.51,0-3.76,0,1.66-1.54,3.03-3.13,3.03.16,0,.33,0,.5,0,.61,0,1.22,0,1.84,0,1.46,0,2.92,0,4.38-.01.29,0,.57,0,.86,0-1.95,0-3.16-1.62-3.16-2.96v.74c0,1.25,0,2.51.01,3.76,0,2.59,2.15,4.75,4.75,4.75s4.76-2.16,4.75-4.75c0-1.5,0-3-.01-4.5-.01-4.01-3.22-6.55-7.02-6.53-1.9,0-3.79.01-5.69.02-.52,0-1.04-.02-1.55.04-3.6.41-5.69,2.93-6.01,6.44-.13,1.47,0,3.02.01,4.5.01,4.01,3.23,6.55,7.03,6.54,1.89,0,3.79,0,5.69-.02.52,0,1.04.02,1.56-.04,3.6-.4,5.69-2.92,6-6.43.24-2.58-2.33-4.75-4.75-4.75-2.76,0-4.51,2.17-4.75,4.75Z"/>
        </g>
        <path class="st2" d="M148.3,296.14c0,.95-.7,1.72-1.57,1.72l-7.62.02c-.88,0-1.58-.76-1.59-1.71v-4.58c-.01-.95.69-1.71,1.56-1.72l7.62-.02c.87,0,1.58.76,1.58,1.71v4.57Z"/>
        <path class="st4" d="M146.72,295.35v-2.97c0-.62-.51-1.12-1.13-1.11l-5.39.02c-.62,0-1.11.5-1.11,1.12v.56s2.53,0,2.53,0c.51,0,.93.4.93.92s-.41.93-.93.93h-2.52v.57c0,.62.5,1.11,1.12,1.11h5.39c.61-.01,1.11-.52,1.11-1.13Z"/>
        <g>
          <path class="st7" d="M146.42,291.64c.18.2.29.46.29.74v2.97c0,.61-.49,1.12-1.1,1.12h-5.39c-.11.01-.23,0-.33-.03.21.23.5.37.83.37h5.39c.61-.01,1.11-.52,1.11-1.13v-2.97c-.01-.5-.33-.92-.8-1.06Z"/>
          <path class="st7" d="M142.12,293.27c.08,0,.16.01.23.03-.17-.22-.44-.35-.73-.35h-2.03s0,.33,0,.33h2.52Z"/>
          <path class="st7" d="M138.03,296.5v-4.58c-.01-.95.69-1.72,1.56-1.72l7.62-.02c.19,0,.37.03.54.1-.28-.27-.64-.43-1.04-.43l-7.62.02c-.87,0-1.57.77-1.57,1.72v4.58c.02.74.45,1.36,1.06,1.6-.33-.31-.54-.77-.54-1.28Z"/>
        </g>
      </g>
      <g>
        <path class="st9" d="M145.43,290.77l-5.39.02c-.62,0-1.11.5-1.11,1.12v.56h.16v-.06c0-.61.49-1.12,1.11-1.12l5.39-.02c.4,0,.76.21.95.53-.05-.58-.53-1.03-1.11-1.03Z"/>
        <path class="st9" d="M139.11,295.46s0-.06,0-.09v-.55h2.52c.51-.01.93-.43.93-.94,0-.2-.06-.38-.16-.53v.03c0,.51-.41.93-.92.94h-2.52v.56c0,.21.06.41.17.58Z"/>
        <path class="st9" d="M148.3,296.14v-4.57c-.01-.29-.08-.57-.2-.82.02.11.03.21.03.32v4.58c.02.95-.68,1.72-1.56,1.72l-7.62.03c-.6,0-1.13-.36-1.39-.9.14.8.78,1.4,1.56,1.39l7.62-.02c.87,0,1.58-.77,1.57-1.72Z"/>
      </g>
    </g>
    <g>
      <g>
        <g>
          <g>
            <g>
              <polygon class="st16" points="136.11 248.2 130.57 256.8 115.56 247.03 136.11 248.2"/>
              <path d="M131.42,245.46c-1.84,2.87-3.69,5.73-5.54,8.6,2.48-.65,4.95-1.3,7.43-1.95-5.01-3.26-10.02-6.51-15.02-9.77-.91,3.37-1.83,6.74-2.74,10.11,6.85.39,13.7.78,20.55,1.17,2.96.16,5.42-2.6,5.42-5.43,0-3.09-2.47-5.26-5.42-5.42-6.85-.39-13.71-.79-20.55-1.17-2.39-.14-4.62,1.75-5.24,3.99-.67,2.43.44,4.79,2.5,6.12,5,3.26,10.01,6.51,15.01,9.77,2.56,1.66,5.88.44,7.43-1.95,1.84-2.87,3.69-5.73,5.54-8.6,1.6-2.49.53-5.98-1.95-7.43-2.64-1.55-5.83-.54-7.43,1.95Z"/>
            </g>
            <polygon class="st23" points="136.11 248.2 130.57 256.8 115.56 247.03 136.11 248.2"/>
          </g>
          <polygon class="st2" points="124.27 252.61 127.17 254.5 131.54 247.94 127.54 247.71 124.27 252.61"/>
        </g>
        <polygon class="st10" points="115.56 247.03 130.57 256.8 136.11 248.2 133.91 248.07 129.75 254.28 115.56 247.03"/>
        <polygon class="st18" points="127.92 253.35 124.82 251.76 124.26 252.6 127.17 254.49 127.92 253.35"/>
      </g>
      <g>
        <g>
          <g>
            <g>
              <polygon class="st16" points="149.7 248.2 155.25 256.8 170.26 247.03 149.7 248.2"/>
              <path d="M145.02,250.94c1.85,2.87,3.69,5.73,5.54,8.6,1.54,2.39,4.86,3.61,7.42,1.95,5-3.26,10.01-6.51,15.02-9.77,2.05-1.33,3.16-3.7,2.49-6.12-.61-2.23-2.85-4.12-5.24-3.99-6.85.38-13.71.78-20.56,1.17-2.95.17-5.42,2.34-5.42,5.42,0,2.83,2.47,5.59,5.42,5.43,6.85-.39,13.71-.78,20.56-1.17-.91-3.37-1.82-6.74-2.74-10.11-5,3.26-10.01,6.51-15.02,9.77,2.48.65,4.95,1.3,7.43,1.95-1.85-2.87-3.69-5.73-5.54-8.6-1.6-2.48-4.79-3.49-7.42-1.95-2.47,1.44-3.55,4.94-1.95,7.43Z"/>
            </g>
            <polygon class="st23" points="149.7 248.2 155.25 256.8 170.26 247.03 149.7 248.2"/>
          </g>
          <polygon class="st2" points="161.54 252.61 158.64 254.5 154.28 247.94 158.29 247.71 161.54 252.61"/>
        </g>
        <polygon class="st10" points="170.26 247.03 155.25 256.8 149.7 248.2 151.91 248.07 156.07 254.28 170.26 247.03"/>
        <polygon class="st18" points="157.9 253.35 161 251.76 161.56 252.6 158.66 254.49 157.9 253.35"/>
      </g>
    </g>
    <polygon class="st6" points="101.62 269.21 90.72 262.8 91.14 262.09 102.03 268.5 101.62 269.21"/>
    <rect class="st6" x="183.64" y="265.35" width="12.64" height=".82" transform="translate(-108.5 132.97) rotate(-30.46)"/>
    <g>
      <rect class="st13" x="153.51" y="265.92" width="15.29" height="3.98"/>
      <path d="M168.8,268.54h-15.29c.46.45.9.9,1.36,1.36v-3.98c-.46.45-.9.9-1.36,1.35h15.29c-.45-.45-.91-.9-1.36-1.35v3.98c0,1.75,2.71,1.75,2.71,0v-3.98c0-.74-.62-1.36-1.35-1.36h-15.29c-.74,0-1.36.62-1.36,1.36v3.98c0,.74.62,1.35,1.36,1.35h15.29c1.75,0,1.75-2.71,0-2.71Z"/>
    </g>
    <g>
      <g>
        <g>
          <path class="st13" d="M135.18,267.85c0,.75-.6,1.35-1.35,1.35s-1.34-.6-1.34-1.35.6-1.34,1.34-1.34,1.35.6,1.35,1.34Z"/>
          <path d="M132.47,267.85c.09-.47.1-.57.03-.3.07-.28.21-.52.42-.71-.2.18-.12.13.23-.17.13-.05.26-.1.39-.16-.28.07-.18.06.29-.03.78-.04,1.34.65,1.37,1.37.04.78-.66,1.33-1.37,1.37-.77.04-1.33-.66-1.37-1.37.08,1.48,1.17,2.72,2.72,2.72,1.42,0,2.79-1.23,2.72-2.72-.13-2.29-1.77-3.93-4.06-4.05-1.07-.06-2.02.49-2.82,1.14-.85.69-1.18,1.88-1.24,2.92-.06,1.08.49,2.02,1.14,2.82.69.85,1.87,1.18,2.91,1.24,1.08.06,2.03-.49,2.82-1.14.84-.69,1.18-1.88,1.24-2.92.08-1.47-1.3-2.71-2.72-2.71-1.54,0-2.63,1.23-2.72,2.71Z"/>
        </g>
        <path class="st2" d="M135.18,267.85c0,.75-.6,1.35-1.35,1.35s-1.34-.6-1.34-1.35.6-1.34,1.34-1.34,1.35.6,1.35,1.34Z"/>
        <path class="st18" d="M133.83,268.88c-.69,0-1.26-.52-1.33-1.18,0,.05,0,.1,0,.15,0,.75.6,1.35,1.34,1.35s1.34-.6,1.34-1.35c0-.05,0-.11,0-.15-.08.66-.65,1.18-1.34,1.18Z"/>
        <path class="st7" d="M133.83,266.83c-.69,0-1.26.52-1.33,1.18,0-.05,0-.1,0-.16,0-.74.6-1.34,1.34-1.34s1.34.6,1.34,1.34c0,.06,0,.11,0,.16-.08-.66-.65-1.18-1.34-1.18Z"/>
      </g>
      <g>
        <g>
          <path class="st13" d="M135.18,278.88c0,.75-.6,1.35-1.35,1.35s-1.34-.6-1.34-1.35.6-1.34,1.34-1.34,1.35.6,1.35,1.34Z"/>
          <path d="M132.47,278.88c.09-.47.1-.57.03-.29.07-.28.21-.53.42-.73-.2.2-.12.14.23-.16.13-.05.26-.1.39-.15-.28.07-.18.05.29-.03.78-.04,1.34.65,1.37,1.36.04.78-.66,1.34-1.37,1.38-.77.04-1.33-.66-1.37-1.38.08,1.48,1.17,2.72,2.72,2.72,1.42,0,2.79-1.24,2.72-2.72-.13-2.29-1.77-3.93-4.06-4.05-1.07-.06-2.02.49-2.82,1.14-.85.69-1.18,1.88-1.24,2.91-.06,1.08.49,2.03,1.14,2.82.69.85,1.87,1.18,2.91,1.24,1.08.05,2.03-.49,2.82-1.15.84-.69,1.18-1.88,1.24-2.92.08-1.47-1.3-2.71-2.72-2.71-1.54,0-2.63,1.24-2.72,2.71Z"/>
        </g>
        <path class="st2" d="M135.18,278.88c0,.75-.6,1.35-1.35,1.35s-1.34-.6-1.34-1.35.6-1.34,1.34-1.34,1.35.6,1.35,1.34Z"/>
        <path class="st18" d="M133.83,279.91c-.69,0-1.26-.52-1.33-1.18,0,.05,0,.11,0,.15,0,.75.6,1.35,1.34,1.35s1.34-.6,1.34-1.35c0-.04,0-.1,0-.15-.08.67-.65,1.18-1.34,1.18Z"/>
        <path class="st7" d="M133.83,277.85c-.69,0-1.26.52-1.33,1.19,0-.05,0-.11,0-.17,0-.73.6-1.34,1.34-1.34s1.34.6,1.34,1.34c0,.06,0,.11,0,.17-.08-.67-.65-1.19-1.34-1.19Z"/>
      </g>
    </g>
    <g>
      <polygon class="st4" points="97.49 294.92 93.69 297.45 98.03 314.18 104.27 317.17 104.27 297.63 97.49 294.92"/>
      <path d="M105.48,319.08l-8.48-4.05-4.7-18.11,5.05-3.36,8.13,3.25v22.27ZM99.06,313.33l4,1.92v-16.8l-5.43-2.18-2.56,1.7,3.99,15.36Z"/>
    </g>
    <path class="st12" d="M103.77,297.53c-.24.06-.46.11-.68.17v-1.39l-3.13,1.38-1.09-8.46-8.7.84.2,4.61,5.78,1.17.72,3.19-1.04.45,1.67,12.51,2.15,1.31.41,5.32,3.04.36v-5.9l.68-.26v-15.3Z"/>
  </g>
  <g>
    <g>
      <g>
        <path class="st16" d="M68.05,179.99c0,8.99-7.29,16.28-16.28,16.28s-16.29-7.29-16.29-16.28,7.29-16.29,16.29-16.29,16.28,7.29,16.28,16.29Z"/>
        <path d="M58.56,179.99c0,.75-.06,1.49-.16,2.24.12-.84.23-1.69.34-2.53-.21,1.45-.59,2.83-1.16,4.19.32-.76.64-1.52.96-2.27-.57,1.3-1.29,2.51-2.17,3.64.5-.64.99-1.28,1.48-1.92-.81,1.01-1.72,1.92-2.73,2.74.64-.5,1.28-.99,1.92-1.48-1.13.87-2.34,1.59-3.65,2.16.76-.32,1.51-.63,2.27-.96-1.35.56-2.73.95-4.18,1.16.84-.12,1.68-.22,2.52-.34-1.5.19-2.98.19-4.48,0,.85.12,1.68.22,2.53.34-1.45-.21-2.83-.6-4.19-1.16.76.32,1.52.64,2.27.96-1.3-.57-2.51-1.29-3.65-2.16.64.49,1.28.99,1.93,1.48-1.02-.81-1.92-1.72-2.74-2.74.49.64.99,1.28,1.48,1.92-.87-1.13-1.59-2.34-2.16-3.64.32.75.64,1.51.96,2.27-.56-1.35-.94-2.74-1.16-4.19.11.84.23,1.69.34,2.53-.19-1.5-.19-2.98,0-4.48-.12.84-.23,1.68-.34,2.52.22-1.45.6-2.83,1.16-4.18-.32.76-.64,1.51-.96,2.27.58-1.3,1.29-2.52,2.16-3.65-.5.64-.99,1.28-1.48,1.92.82-1.01,1.72-1.92,2.74-2.73-.65.49-1.28.99-1.93,1.49,1.13-.88,2.34-1.59,3.65-2.17-.75.32-1.51.63-2.27.96,1.36-.57,2.74-.95,4.19-1.16-.85.12-1.68.22-2.53.34,1.5-.19,2.98-.19,4.48,0-.84-.12-1.68-.22-2.52-.34,1.45.22,2.83.6,4.18,1.16-.75-.32-1.51-.64-2.27-.96,1.3.58,2.51,1.29,3.65,2.17-.64-.5-1.28-.99-1.92-1.49,1.01.81,1.92,1.72,2.73,2.73-.5-.64-.99-1.28-1.48-1.92.87,1.13,1.59,2.34,2.17,3.65-.32-.76-.64-1.51-.96-2.27.57,1.35.95,2.74,1.16,4.18-.11-.84-.23-1.68-.34-2.52.1.74.15,1.48.16,2.24.06,5.18,4.27,9.5,9.5,9.5s9.55-4.32,9.5-9.5c-.1-9.06-4.77-17.15-12.37-22.02-7.73-4.95-17.58-4.68-25.59-.7-3.91,1.94-6.97,5.19-9.45,8.71-2.59,3.69-3.63,8.1-4.08,12.51-.47,4.55.87,8.95,2.69,13.04,1.78,4.04,5.02,7.04,8.45,9.68,3.75,2.89,8.47,4.02,13.08,4.5,4.72.48,9.51-.93,13.68-3,8.41-4.17,13.5-13.53,13.6-22.72.06-5.18-4.36-9.5-9.5-9.5s-9.44,4.32-9.5,9.5Z"/>
      </g>
      <path class="st8" d="M68.05,179.99c0,8.99-7.29,16.28-16.28,16.28s-16.29-7.29-16.29-16.28,7.29-16.29,16.29-16.29,16.28,7.29,16.28,16.29Z"/>
      <path class="st19" d="M63.85,179.54c0,6.59-5.34,11.93-11.93,11.93s-11.93-5.34-11.93-11.93,5.34-11.93,11.93-11.93,11.93,5.34,11.93,11.93Z"/>
    </g>
    <g>
      <g>
        <path class="st16" d="M248.2,179.99c0,8.99-7.29,16.28-16.28,16.28s-16.29-7.29-16.29-16.28,7.29-16.29,16.29-16.29,16.28,7.29,16.28,16.29Z"/>
        <path d="M238.7,179.99c-.01.75-.06,1.49-.16,2.24.12-.84.23-1.69.34-2.53-.21,1.45-.6,2.83-1.16,4.19.32-.76.64-1.52.95-2.27-.58,1.3-1.29,2.51-2.16,3.64.49-.64.99-1.28,1.48-1.92-.81,1.01-1.72,1.92-2.73,2.74.64-.5,1.28-.99,1.92-1.48-1.13.87-2.34,1.59-3.64,2.16.76-.32,1.51-.63,2.27-.96-1.35.56-2.74.95-4.19,1.16.84-.12,1.68-.22,2.53-.34-1.5.19-2.98.19-4.48,0,.84.12,1.68.22,2.52.34-1.45-.21-2.83-.6-4.18-1.16.76.32,1.51.64,2.27.96-1.31-.57-2.52-1.29-3.65-2.16.64.49,1.28.99,1.92,1.48-1.02-.81-1.92-1.72-2.73-2.74.49.64.99,1.28,1.48,1.92-.87-1.13-1.59-2.34-2.17-3.64.32.75.64,1.51.96,2.27-.56-1.35-.95-2.74-1.16-4.19.11.84.23,1.69.34,2.53-.19-1.5-.19-2.98,0-4.48-.12.84-.23,1.68-.34,2.52.21-1.45.6-2.83,1.16-4.18-.32.76-.64,1.51-.96,2.27.58-1.3,1.3-2.52,2.17-3.65-.49.64-.99,1.28-1.48,1.92.81-1.01,1.71-1.92,2.73-2.73-.64.49-1.28.99-1.92,1.49,1.13-.88,2.34-1.59,3.65-2.17-.76.32-1.51.63-2.27.96,1.35-.57,2.73-.95,4.18-1.16-.84.12-1.68.22-2.52.34,1.5-.19,2.98-.19,4.48,0-.84-.12-1.68-.22-2.53-.34,1.45.22,2.83.6,4.19,1.16-.76-.32-1.51-.64-2.27-.96,1.3.58,2.51,1.29,3.64,2.17-.64-.5-1.28-.99-1.92-1.49,1.01.81,1.92,1.72,2.73,2.73-.49-.64-.99-1.28-1.48-1.92.87,1.13,1.59,2.34,2.16,3.65-.32-.76-.64-1.51-.95-2.27.56,1.35.94,2.74,1.16,4.18-.11-.84-.23-1.68-.34-2.52.1.74.15,1.48.16,2.24.06,5.18,4.27,9.5,9.49,9.5s9.56-4.32,9.5-9.5c-.1-9.06-4.77-17.15-12.37-22.02-7.73-4.95-17.58-4.68-25.6-.7-3.92,1.94-6.97,5.19-9.45,8.71-2.59,3.69-3.63,8.1-4.09,12.51-.46,4.55.88,8.95,2.69,13.04,1.79,4.04,5.02,7.04,8.45,9.68,3.75,2.89,8.47,4.02,13.08,4.5,4.71.48,9.51-.93,13.68-3,8.41-4.17,13.49-13.53,13.6-22.72.05-5.18-4.36-9.5-9.5-9.5s-9.43,4.32-9.49,9.5Z"/>
      </g>
      <path class="st8" d="M248.2,179.99c0,8.99-7.29,16.28-16.28,16.28s-16.29-7.29-16.29-16.28,7.29-16.29,16.29-16.29,16.28,7.29,16.28,16.29Z"/>
      <path class="st19" d="M244,179.54c0,6.59-5.34,11.93-11.93,11.93s-11.93-5.34-11.93-11.93,5.34-11.93,11.93-11.93,11.93,5.34,11.93,11.93Z"/>
    </g>
  </g>
  <g>
    <g>
      <path class="st16" d="M49.48,95.63c-.33,13.17,0,75.97,0,75.97,0,35.38,19.82,68.19,93.72,67.88,73.14-.3,90.45-32.5,90.45-67.88v-75.97H49.48Z"/>
      <path d="M39.98,95.63c-.41,16.84-.15,33.71-.1,50.54.02,7.38.05,14.76.09,22.14.03,5.92.33,11.74,1.15,17.62,1.17,8.27,3.88,16.36,7.92,23.65,4.68,8.45,11.37,15.32,19.08,21,8.6,6.32,18.87,10.46,29.12,13.22,13.8,3.72,28.32,5.01,42.57,5.16,14.75.16,29.7-.92,44.1-4.27,10.5-2.44,21.01-6.38,29.98-12.45,7.92-5.35,14.67-12.17,19.54-20.42,4.21-7.12,6.95-15.2,8.28-23.34,1.94-11.84,1.43-23.85,1.43-35.79v-57.08c0-5.18-4.32-9.5-9.49-9.5H49.48c-5.18,0-9.5,4.32-9.5,9.5s4.32,9.5,9.5,9.5h184.17c-3.17-3.17-6.33-6.33-9.5-9.5v75.43c0,4.31-.21,8.6-.79,12.87.11-.84.23-1.68.34-2.53-.79,5.78-2.21,11.47-4.48,16.85.32-.76.64-1.51.96-2.27-1.76,4.13-4.01,8.03-6.75,11.6.5-.65.99-1.28,1.49-1.93-2.78,3.59-6.01,6.78-9.59,9.56.64-.5,1.28-.99,1.92-1.48-4.61,3.55-9.72,6.38-15.07,8.64.76-.32,1.52-.63,2.27-.96-8.99,3.76-18.56,5.95-28.19,7.27.84-.11,1.68-.22,2.52-.34-17.32,2.32-35.25,2.35-52.57.04.84.12,1.69.22,2.53.34-9.93-1.35-19.78-3.61-29.03-7.52.75.32,1.51.64,2.27.96-5.51-2.35-10.76-5.27-15.5-8.92.64.5,1.28.99,1.92,1.49-3.77-2.92-7.17-6.28-10.08-10.05.49.64.99,1.28,1.48,1.92-2.82-3.67-5.14-7.68-6.95-11.94.32.76.63,1.51.96,2.27-2.25-5.34-3.68-10.98-4.45-16.73.11.84.23,1.69.34,2.53-.65-4.97-.7-9.96-.73-14.96-.03-7.58-.06-15.17-.08-22.75-.05-16.46-.3-32.94.1-49.4.13-5.18-4.42-9.5-9.49-9.5s-9.37,4.32-9.5,9.5Z"/>
    </g>
    <path class="st8" d="M50.18,80.56c-.33,13.17,0,91.05,0,91.05,0,35.38,19.83,68.19,93.73,67.88,73.13-.3,90.44-32.5,90.44-67.88v-91.05H50.18Z"/>
  </g>
  <g>
    <path class="st11" d="M87.82,204.37c.57,2.59-3.78,5.76-9.74,7.07-5.95,1.31-11.23.27-11.8-2.32-.58-2.6,3.78-5.76,9.74-7.07,5.94-1.3,11.23-.27,11.8,2.33Z"/>
    <path class="st11" d="M197.68,204.37c-.57,2.59,3.79,5.76,9.73,7.07,5.95,1.31,11.23.27,11.8-2.32.58-2.6-3.78-5.76-9.73-7.07-5.95-1.3-11.23-.27-11.8,2.33Z"/>
    <g>
      <g>
        <g>
          <path d="M105.39,198.08s-3.98-5.25-12.91-5.25-12.95,5.25-12.95,5.25c0,0-2.01-15.24,12.95-15.24s12.91,15.24,12.91,15.24Z"/>
          <path d="M106.21,197.61c-3.03-3.94-8.52-5.57-13.27-5.71-4.84-.14-10.94,1.49-14.07,5.52.54.23,1.08.45,1.62.67-.75-5.76,1.71-12,7.64-13.74,4.6-1.35,10.5-.61,13.73,3.18,2.01,2.35,2.66,5.68,2.68,8.69,0,.62-.01,1.25-.1,1.87-.16,1.21,1.74,1.2,1.91,0,.73-5.52-1.39-11.83-6.48-14.57-4.33-2.33-10.43-2.2-14.77,0-3.37,1.71-5.39,5.1-6.17,8.7-.41,1.88-.58,3.95-.33,5.87.09.7,1.04,1.42,1.62.67,2.69-3.46,7.66-4.84,11.82-4.96,3.33-.1,6.67.66,9.55,2.36.84.49,1.61,1.07,2.33,1.74.2.19.4.39.58.6.08.08.38.47.08.08.73.96,2.39.01,1.64-.96Z"/>
        </g>
        <path d="M82.13,187.1s-2.04.05-5-1.33c-2.96-1.38-5.11-4.9-5.11-4.9,0,0-1.22,4.8,2.51,7.61,2.73,2.05,5.87,2.5,5.87,2.5l1.73-3.88Z"/>
        <path d="M79.32,192.15s-1.73.33-4.47.32c-2.74-.02-5.61-1.96-5.61-1.96,0,0,.65,4.09,4.67,5,2.79.63,5.3.18,5.3.18l.1-3.54Z"/>
      </g>
      <g>
        <g>
          <path d="M178.7,198.08s3.98-5.25,12.91-5.25,12.95,5.25,12.95,5.25c0,0,2.01-15.24-12.95-15.24s-12.91,15.24-12.91,15.24Z"/>
          <path d="M179.52,198.57c-.29.38-.05.06.02-.02.17-.2.36-.38.54-.56.67-.66,1.42-1.21,2.21-1.7,2.78-1.76,6.06-2.46,9.32-2.5,4.27-.04,9.52,1.43,12.28,4.97.58.75,1.53.03,1.62-.67.72-5.53-1.42-11.84-6.51-14.57-4.33-2.32-10.43-2.2-14.78,0-3.37,1.71-5.38,5.1-6.16,8.7-.4,1.89-.57,3.95-.31,5.87.16,1.2,2.06,1.21,1.9,0-.76-5.76,1.68-12,7.6-13.74,4.6-1.35,10.49-.61,13.73,3.18,2.01,2.35,2.68,5.68,2.7,8.69,0,.62,0,1.25-.09,1.87.54-.22,1.08-.44,1.62-.67-3.08-3.96-8.88-5.48-13.62-5.52-4.86-.05-10.64,1.7-13.73,5.71-.74.97.91,1.92,1.64.96Z"/>
        </g>
        <path d="M201.97,187.1s2.04.05,5-1.33c2.96-1.38,5.11-4.9,5.11-4.9,0,0,1.23,4.8-2.5,7.61-2.72,2.05-5.87,2.5-5.87,2.5l-1.74-3.88Z"/>
        <path d="M204.77,192.15s1.73.33,4.47.32c2.74-.02,5.6-1.96,5.6-1.96,0,0-.63,4.09-4.66,5-2.79.63-5.31.18-5.31.18l-.1-3.54Z"/>
      </g>
    </g>
    <path d="M127.86,220.48c.7,14.35,26.84,14.1,28.37.23.16-1.48-1.36-2.72-2.71-2.72-1.6,0-2.55,1.24-2.72,2.72.16-1.42-.03-.01-.17.41-.06.16-.12.33-.18.48.33-.84.05-.15-.03.03-.1.2-.22.4-.33.59-.09.15-.69.95-.23.37-.96,1.21-1.36,1.44-2.83,2.15.28-.14-.63.22-.74.26-.42.14-.85.24-1.28.34-1.04.24-2.11.29-3.17.3-1.69.02-3.88-.33-5.05-.87-.32-.15-.63-.32-.93-.5-.1-.06-.9-.66-.43-.29-.23-.18-.44-.39-.65-.6-.1-.1-.2-.2-.29-.31-.47-.52.32.46-.08-.08-.29-.39-.52-.81-.74-1.24-.22-.46.24.61-.02-.08-.08-.21-.14-.43-.21-.65-.09-.29-.14-.59-.19-.88.17,1.1.07.59.06.33-.17-3.49-5.6-3.5-5.43,0h0Z"/>
  </g>
  <path class="st5" d="M34.9,132.15c1.09-14.32,12.62-94.88,106.66-94.88.09,0,.19,0,.28,0s.18,0,.27,0c94.03,0,105.57,80.57,106.66,94.88.08,1.08.12,3.09.14,5.61.03-5.06,0-9.45-.14-11.26-1.09-14.32-12.63-94.88-106.66-94.88-.09,0-.19,0-.27,0s-.19,0-.28,0c-94.03,0-105.57,80.57-106.66,94.88-.14,1.81-.17,6.22-.14,11.28.02-2.53.05-4.55.14-5.63Z"/>
  <g>
    <path class="st13" d="M197.35,56.52c10.38,5.73,16.75,14.07,14.23,18.63-2.52,4.56-12.97,3.6-23.35-2.13-10.38-5.73-16.75-14.07-14.24-18.63,2.52-4.56,12.97-3.61,23.35,2.13Z"/>
    <path class="st13" d="M222.09,79.52c.58,2.02-.59,4.13-2.61,4.71-2.02.58-4.14-.59-4.72-2.61-.59-2.02.59-4.13,2.6-4.72,2.03-.58,4.14.59,4.72,2.62Z"/>
  </g>
  <path class="st17" d="M209.72,158.21l-4.96-7.04-.68,7.7c-21.05,2.37-46.08,4.56-66.88,4.56-31.05,0-67.17-4.87-87.06-7.97.02,5.06.03,8.15.03,8.15,0,2.19.08,4.38.24,6.54,19.93,3.11,55.88,7.93,86.78,7.93,20.81,0,45.83-2.19,66.88-4.57l5.63-.65c9.44-1.12,17.87-2.23,24.44-3.15.13-2.03.19-4.06.19-6.11v-8.57c-6.6.92-15.09,2.05-24.63,3.18Z"/>
  <path d="M248.78,124.87c-1.09-14.32-12.63-94.88-106.66-94.88-.09,0-.19,0-.27,0s-.19,0-.28,0c-94.03,0-105.57,80.57-106.66,94.88-.41,5.41.16,34.08.16,34.08,0,.66.02,1.99.02,1.99,0,0,56.54,10.5,102.13,10.5,20.81,0,45.83-2.19,66.88-4.57l1.36-13.89,4.28,13.23c22.28-2.63,38.88-5.28,38.88-5.28,0,0,.02-1.32.02-1.99,0,0,.56-28.67.16-34.08Z"/>
  <g>
    <g>
      <g>
        <path class="st14" d="M36.16,131.56s10,12.34,107.54,12.34,103.74-13.26,103.74-13.26c0,0-19.3-9.87-104.43-9.87s-106.85,10.79-106.85,10.79Z"/>
        <path d="M29.45,138.28c.87,1.06,2.19,1.85,3.38,2.56,2.64,1.57,5.61,2.64,8.52,3.6,4.57,1.49,9.31,2.49,14.03,3.34,8.89,1.59,17.89,2.62,26.89,3.41,28.99,2.54,58.29,2.69,87.36,1.87,20.57-.59,41.53-1.63,61.72-5.87,7.67-1.61,15.57-3.78,21.78-8.75.97-.78,2.01-1.94,2.5-2.99,1.13-2.39,1.68-4.69.96-7.32-.62-2.26-2.24-4.59-4.36-5.68-4.9-2.5-10.58-3.66-15.91-4.72-18.8-3.71-38.14-4.98-57.25-5.77-30.12-1.24-60.45-1.13-90.51,1.14-10.16.77-20.29,1.87-30.36,3.42-5.55.85-11.09,1.88-16.52,3.28-3.5.9-7.06,1.96-10.31,3.57-4.63,2.29-5.88,8.76-3.41,12.99,2.75,4.69,8.36,5.71,13,3.41.15-.07.3-.14.46-.21-.76.32-1.51.64-2.27.96,6.7-2.82,14.23-4.05,21.35-5.24,2.7-.45,5.41-.85,8.12-1.21-.84.12-1.68.23-2.53.34,25.46-3.41,51.27-4.12,76.92-4.13,25.36,0,50.9.6,76.1,3.79.7.09,1.41.19,2.11.28-.84-.11-1.68-.22-2.53-.34,8.34,1.13,17.1,2.3,25.02,5.3.25.1.5.19.75.3-.76-.32-1.51-.64-2.27-.96.15.06.31.13.46.21-1.14-4.34-2.27-8.67-3.41-13-.03.08-.09.16-.14.22.49-.64.99-1.28,1.48-1.92-.28.36-.64.67-1,.95.64-.5,1.29-.99,1.92-1.48-1.33,1.02-2.87,1.75-4.4,2.4.76-.32,1.51-.64,2.27-.96-8.28,3.48-17.53,4.85-26.36,6.04.84-.11,1.68-.23,2.53-.34-25.84,3.45-52.13,3.77-78.16,3.62-23.44-.13-47.06-.74-70.33-3.85.84.11,1.68.22,2.52.34-8.93-1.2-18.34-2.54-26.72-6.06.76.32,1.52.64,2.27.96-1.29-.54-2.6-1.15-3.71-2,.64.5,1.28.99,1.92,1.49-.16-.12-.33-.25-.46-.41-1.51-1.85-4.42-2.78-6.71-2.78-2.51,0-4.94,1.01-6.71,2.78-1.77,1.77-2.78,4.21-2.78,6.71,0,2.72,1.13,4.68,2.78,6.72Z"/>
      </g>
      <path class="st21" d="M36.16,131.56s10,12.34,107.54,12.34,103.74-13.26,103.74-13.26c0,0-19.3-9.87-104.43-9.87s-106.85,10.79-106.85,10.79Z"/>
      <path class="st3" d="M143.83,140.53c-66.89,0-95.17-5.44-106.83-9.33-.57.23-.84.36-.84.36,0,0,10,12.34,107.54,12.34s103.74-13.26,103.74-13.26h0c-10.69,4.17-37.44,9.89-103.62,9.89Z"/>
    </g>
    <g>
      <g>
        <path class="st14" d="M204.28,105.84c-27.32-2.65-61.16-2.88-62.46-2.89h-.04c-1.29.01-35.14.24-62.45,2.89-27.85,2.7-44.84,6.24-44.84,6.24l1.36,6.81s20.71-4.36,46.53-6.75c28.43-2.63,58.53-2.72,59.42-2.72s30.98.09,59.41,2.72c25.82,2.39,46.54,6.75,46.54,6.75l1.36-6.81s-16.98-3.54-44.83-6.24Z"/>
        <path d="M204.28,96.35c-20.73-2-41.64-2.76-62.46-2.89,3.17,3.16,6.34,6.33,9.5,9.5h0c0-5.18-4.33-9.5-9.5-9.5h-.04c-5.18,0-9.5,4.32-9.5,9.5h0c3.17-3.17,6.34-6.33,9.5-9.5-22.91.14-45.89,1.1-68.68,3.53-13.73,1.46-27.59,3.12-41.13,5.94-2.34.48-4.5,2.35-5.67,4.36-1.36,2.32-1.47,4.75-.96,7.32.45,2.27.9,4.54,1.35,6.81.47,2.33,2.37,4.51,4.36,5.68,2.3,1.34,4.77,1.49,7.32.95,9.26-1.94,18.65-3.37,28.03-4.64-.85.11-1.69.23-2.53.34,25.73-3.45,51.81-4.74,77.77-4.83,8.03-.03,16.08.23,24.1.53,16.46.6,32.91,1.67,49.27,3.7,1.58.19,3.14.4,4.72.61-.85-.12-1.68-.23-2.52-.34,9.37,1.27,18.76,2.7,28.02,4.64,2.56.54,5.01.39,7.32-.95,1.99-1.17,3.9-3.35,4.36-5.68.46-2.27.91-4.54,1.36-6.81.51-2.57.4-5-.96-7.32-1.18-2.01-3.34-3.88-5.67-4.36-3.97-.83-7.98-1.47-11.98-2.11-11.74-1.86-23.55-3.32-35.38-4.47-5.17-.5-9.5,4.7-9.5,9.49,0,2.51,1.01,4.95,2.78,6.72,1.91,1.91,4.1,2.53,6.72,2.78,7.23.7,14.44,1.52,21.64,2.49-.85-.12-1.68-.23-2.52-.34,7.74,1.04,15.53,2.15,23.19,3.74-2.21-3.89-4.42-7.79-6.63-11.68-.46,2.27-.91,4.54-1.36,6.81,3.9-2.21,7.79-4.42,11.68-6.63-24.95-5.24-50.54-7.71-75.97-8.92-17.58-.84-35.1-1.06-52.7-.49-28.86.92-57.7,3.44-86.08,8.96-.73.14-1.47.29-2.2.45,3.9,2.21,7.79,4.42,11.68,6.63-.45-2.27-.91-4.54-1.36-6.81-2.21,3.89-4.42,7.79-6.63,11.68,7.66-1.59,15.44-2.7,23.18-3.74-.84.11-1.68.22-2.53.34,26.68-3.58,53.54-4.98,80.43-5.35,1.22-.02,2.44-.04,3.67-.04,5.18-.03,9.5-4.29,9.5-9.5h0c-3.16,3.16-6.33,6.33-9.5,9.5h.04c-3.16-3.17-6.33-6.33-9.49-9.5h0c0,5.2,4.32,9.47,9.49,9.5,20.82.12,41.73.89,62.46,2.89,5.16.5,9.5-4.7,9.5-9.5,0-2.51-1.01-4.94-2.79-6.71-1.91-1.91-4.11-2.53-6.71-2.78Z"/>
      </g>
      <path class="st22" d="M204.28,105.84c-27.32-2.65-61.16-2.88-62.46-2.89h-.04c-1.29.01-35.14.24-62.45,2.89-27.85,2.7-44.84,6.24-44.84,6.24l1.36,6.81s20.71-4.36,46.53-6.75c28.43-2.63,58.53-2.72,59.42-2.72s30.98.09,59.41,2.72c25.82,2.39,46.54,6.75,46.54,6.75l1.36-6.81s-16.98-3.54-44.83-6.24Z"/>
      <path class="st24" d="M79.34,108.94c27.31-2.65,61.16-2.88,62.45-2.89h.04c1.29,0,35.14.24,62.46,2.89,24.8,2.4,40.98,5.47,44.23,6.11l.6-3.03s-16.98-3.53-44.83-6.23c-27.32-2.65-61.16-2.89-62.46-2.9h-.04c-1.29.01-35.14.25-62.45,2.9-27.85,2.7-44.84,6.23-44.84,6.23l.6,3.03c3.25-.64,19.43-3.71,44.23-6.11Z"/>
    </g>
    <g>
      <g>
        <path class="st14" d="M229.73,56.93c-19.89-11.22-43.64-47.43-87.89-47.43h-.08c-44.25,0-68,36.21-87.89,47.43-20.26,11.43-44.68,12.47-44.42,28.31.26,15.85,15.1,16.6,15.1,16.6,0,0,50.58-9.47,117.29-9.47s117.21,9.47,117.21,9.47c0,0,14.84-.76,15.1-16.6.25-15.84-24.17-16.89-44.42-28.31Z"/>
        <path d="M234.52,48.73c-2.51-1.43-4.86-3.1-7.15-4.86.64.5,1.28.99,1.92,1.49-7.65-5.92-14.64-12.65-22.14-18.76-4.82-3.92-9.78-7.7-14.99-11.08-5.49-3.55-11.27-6.46-17.29-8.98C162.7,1.45,149.19-.72,136.03.21c-13.81.96-26.96,5.19-39.01,11.95-8.69,4.88-16.62,11.07-24.23,17.48-6.18,5.21-12.08,10.77-18.48,15.72.64-.5,1.28-.99,1.92-1.49-5.17,3.98-10.77,6.98-16.78,9.53.76-.32,1.51-.64,2.27-.96-6.08,2.56-12.35,4.63-18.48,7.09-6.07,2.45-12.29,5.13-16.94,9.93-2.55,2.63-4.35,5.72-5.46,9.2-1.27,3.98-.88,8.03-.31,12.07.94,6.8,5.24,12.5,10.75,16.32,2.86,1.99,6.48,3.39,9.94,3.88,2.8.39,3.16.58,5.89.07.33-.06.66-.12.99-.18,5.37-.95,10.78-1.75,16.19-2.5.69-.1,1.37-.19,2.07-.28-.84.12-1.69.22-2.53.34,26.58-3.57,53.38-5.61,80.18-6.28,31.45-.79,62.94.52,94.22,3.73,7.11.73,14.2,1.56,21.28,2.51-.85-.11-1.68-.22-2.53-.33,5.96.8,11.91,1.67,17.83,2.7,1.38.24,3.15.75,4.46.62,4.09-.37,7.68-1.39,11.36-3.28,5.77-2.97,9.78-8.38,11.77-14.45,2.15-6.57,1.71-14.83-2.3-20.62-3.69-5.32-9.05-8.81-14.89-11.39-6.51-2.88-13.24-5.12-19.86-7.72-1.17-.46-2.32-.93-3.48-1.42.76.32,1.51.64,2.27.96-3.29-1.4-6.52-2.93-9.64-4.67-4.52-2.53-10.34-1.12-12.99,3.41-2.58,4.4-1.11,10.47,3.41,12.99,10.15,5.69,21.34,8.88,32.01,13.39-.75-.32-1.51-.64-2.27-.96,3.19,1.36,6.34,2.87,9.1,4.99-.65-.49-1.29-.99-1.93-1.49,1.12.89,2.16,1.87,3.04,3-.5-.64-1-1.28-1.49-1.92.61.82,1.13,1.69,1.55,2.62-.32-.76-.64-1.51-.96-2.27.44,1.06.73,2.15.89,3.28-.11-.84-.23-1.69-.34-2.52.18,1.52.1,3.06-.08,4.58.12-.84.23-1.68.34-2.52-.22,1.59-.61,3.14-1.22,4.63.32-.76.63-1.52.96-2.27-.51,1.17-1.14,2.27-1.91,3.28.5-.64.99-1.28,1.49-1.92-.76.96-1.61,1.8-2.57,2.55.64-.49,1.28-.99,1.93-1.48-1.14.87-2.37,1.57-3.68,2.13.76-.32,1.52-.64,2.27-.96-1.54.64-3.16,1.1-4.82,1.33.84-.12,1.69-.23,2.52-.34-.23.03-.47.06-.7.08.84.11,1.68.22,2.52.34-13.36-2.5-26.93-4.1-40.44-5.55-30.86-3.31-61.95-4.72-93-4.13-27.45.51-54.89,2.52-82.11,6.08-8.01,1.05-16.05,2.11-23.99,3.6.84-.11,1.68-.23,2.52-.34-.23-.02-.48-.05-.71-.08.84.11,1.68.22,2.52.34-1.66-.23-3.28-.69-4.81-1.33.75.32,1.51.64,2.27.96-1.32-.56-2.54-1.27-3.68-2.13.64.5,1.28.99,1.92,1.48-.96-.75-1.82-1.6-2.57-2.55.49.64.99,1.28,1.48,1.92-.78-1.01-1.41-2.11-1.92-3.28.32.76.64,1.51.96,2.27-.61-1.49-1-3.04-1.23-4.63.12.84.23,1.68.34,2.52-.19-1.53-.26-3.06-.09-4.58-.11.84-.22,1.68-.33,2.52.15-1.13.44-2.22.88-3.28-.31.76-.64,1.51-.96,2.27.42-.94.94-1.8,1.56-2.62-.5.64-.99,1.28-1.49,1.92.89-1.13,1.92-2.11,3.04-3-.64.5-1.28.99-1.92,1.49,2.75-2.12,5.9-3.63,9.09-4.99-.76.32-1.51.64-2.27.96,11.91-5.03,24.85-8.3,35.63-15.66,8.2-5.61,15.43-12.55,22.98-18.98,2.67-2.28,5.39-4.51,8.17-6.67-.64.49-1.28.99-1.93,1.49,7.59-5.86,15.69-11.05,24.53-14.79-.76.32-1.51.64-2.27.96,6.42-2.69,13.13-4.56,20.03-5.52-.84.11-1.68.23-2.52.34,6.98-.93,14.06-.93,21.04,0-.84-.11-1.69-.23-2.53-.34,6.9.95,13.61,2.83,20.03,5.52-.76-.32-1.51-.64-2.27-.96,8.84,3.75,16.95,8.94,24.53,14.79-.64-.5-1.28-.99-1.92-1.49,6.16,4.78,11.97,9.98,17.86,15.08,5.32,4.61,10.77,9.34,16.91,12.84,4.5,2.55,10.35,1.09,13-3.41,2.59-4.42,1.09-10.44-3.41-12.99Z"/>
      </g>
      <path class="st23" d="M229.73,56.93c-19.89-11.22-43.64-47.43-87.89-47.43h-.08c-44.25,0-68,36.21-87.89,47.43-20.26,11.43-44.68,12.47-44.42,28.31.26,15.85,15.1,16.6,15.1,16.6,0,0,50.58-9.47,117.29-9.47s117.21,9.47,117.21,9.47c0,0,14.84-.76,15.1-16.6.25-15.84-24.17-16.89-44.42-28.31Z"/>
      <path class="st10" d="M259.05,94.86s-50.51-9.47-117.21-9.47-117.29,9.47-117.29,9.47c0,0-12.69-.65-14.81-13.28-.21.96-.31,1.98-.29,3.08.26,15.84,15.1,16.6,15.1,16.6,0,0,50.58-9.47,117.29-9.47s117.21,9.47,117.21,9.47c0,0,14.84-.76,15.1-16.6.02-1.1-.09-2.12-.29-3.08-2.11,12.63-14.81,13.28-14.81,13.28Z"/>
      <path class="st15" d="M53.87,62.17c19.89-11.22,43.64-47.43,87.89-47.43h.08c44.25,0,68,36.21,87.89,47.43,19.11,10.78,41.9,12.32,44.23,25.74.11-.84.18-1.72.2-2.67.25-15.84-24.17-16.89-44.42-28.31-19.89-11.22-43.64-47.43-87.89-47.43h-.08c-44.25,0-68,36.21-87.89,47.43-20.26,11.43-44.68,12.47-44.42,28.31.02.94.08,1.83.2,2.67,2.32-13.42,25.12-14.96,44.22-25.74Z"/>
    </g>
    <g>
      <g>
        <g>
          <g>
            <path class="st14" d="M153.48,41.16c.87-4.97,4.97-6.12,4.97-6.12l-5.31-5.78s-2.2,1.91-5.78,2.08c-3.58.17-5.55-2.54-5.55-2.54,0,0-1.97,2.71-5.55,2.54-3.58-.17-5.78-2.08-5.78-2.08l-5.32,5.78s4.11,1.16,4.97,6.12c.87,4.97-10.4,16.32-1.09,25.31,5.58,5.4,12.77,6.58,12.77,6.58,0,0,7.18-1.19,12.77-6.58,9.31-8.99-1.96-20.34-1.1-25.31Z"/>
            <path d="M162.64,43.68c.13-.63.29-1.25.53-1.85-.32.76-.64,1.51-.96,2.27.27-.61.58-1.17.96-1.71-.49.64-.99,1.28-1.48,1.92.44-.57.93-1.07,1.51-1.51-.64.49-1.28.99-1.93,1.48.49-.36,1-.66,1.56-.9-.75.32-1.51.64-2.27.96.14-.05.28-.1.42-.15,7.04-2.06,9.03-10.61,4.19-15.87-1.77-1.93-3.54-3.85-5.32-5.78-1.66-1.81-4.3-2.78-6.71-2.78-2.68,0-4.74,1.1-6.72,2.78-.04.03-.08.06-.11.09.64-.5,1.28-.99,1.93-1.48-.66.5-1.39.88-2.15,1.21.76-.32,1.52-.64,2.27-.96-.85.33-1.71.56-2.62.7.84-.12,1.68-.23,2.52-.34-.72.08-1.4.11-2.12.03.84.11,1.68.23,2.52.34-.59-.11-1.15-.26-1.71-.49.76.32,1.51.64,2.27.95-.53-.25-1.03-.54-1.5-.9.63.49,1.28.99,1.92,1.48-.39-.32-.76-.66-1.08-1.05.5.64.99,1.28,1.48,1.92-.01-.01-.02-.03-.03-.05-2.06-2.77-4.57-4.71-8.2-4.71s-6.14,1.93-8.2,4.71c-.01.02-.02.03-.03.05.5-.64.99-1.28,1.48-1.92-.31.39-.68.73-1.07,1.05.64-.5,1.28-.99,1.92-1.48-.47.36-.97.65-1.51.9.76-.31,1.51-.63,2.27-.95-.56.23-1.11.38-1.71.49.84-.12,1.68-.23,2.53-.34-.72.08-1.41.05-2.12-.03.85.11,1.69.22,2.53.34-.91-.14-1.76-.37-2.62-.7.76.32,1.51.64,2.27.96-.76-.33-1.5-.71-2.15-1.21.64.49,1.28.99,1.92,1.48-.04-.03-.07-.06-.11-.09-1.98-1.68-4.04-2.78-6.71-2.78-2.42,0-5.06.97-6.71,2.78-1.78,1.93-3.55,3.85-5.32,5.78-4.84,5.26-2.86,13.81,4.19,15.87.14.05.27.1.41.15-.76-.32-1.51-.63-2.27-.96.56.24,1.08.54,1.56.9-.64-.49-1.28-.99-1.92-1.48.57.44,1.06.94,1.5,1.51-.5-.64-.99-1.28-1.49-1.92.39.54.7,1.1.96,1.71-.32-.76-.64-1.51-.95-2.27.25.66.45,1.33.55,2.03-.11-.84-.23-1.68-.34-2.53.04.38.02.75-.03,1.12.11-.84.23-1.69.34-2.53-.22,1.38-.76,2.67-1.3,3.96.32-.76.64-1.51.96-2.27-1.31,3.05-2.76,6.08-3.71,9.27-1.21,4.07-1.36,8.31-.43,12.45,2.08,9.17,11.11,14.97,19.37,17.94.87.31,1.74.57,2.64.78,1.95.47,3.82.51,5.84.17,1.57-.27,3.12-.81,4.59-1.39,4.51-1.78,8.41-4.03,12.03-7.32,1.67-1.51,3.12-3.39,4.23-5.35,1.55-2.75,2.07-5.27,2.47-8.33.85-6.42-2.24-12.52-4.67-18.22.32.76.64,1.51.96,2.27-.54-1.28-1.09-2.58-1.3-3.96.11.84.23,1.68.34,2.53-.05-.38-.06-.74-.03-1.12-.11.85-.23,1.69-.33,2.53,0-.06.02-.11.02-.17.38-2.65.46-4.91-.96-7.32-1.24-2.12-3.3-3.7-5.67-4.36-2.45-.68-5.13-.33-7.32.96-1.91,1.11-4.04,3.38-4.36,5.67-.42,2.89-.44,5.49.51,8.3.83,2.4,1.95,4.69,2.94,7.03-.32-.76-.64-1.51-.96-2.27.96,2.29,1.82,4.63,2.18,7.11-.11-.85-.23-1.68-.35-2.53.15,1.19.16,2.37,0,3.56.11-.84.23-1.68.34-2.52-.15.89-.38,1.74-.72,2.58.32-.76.64-1.51.96-2.27-.4.9-.89,1.73-1.49,2.53.5-.64.99-1.29,1.49-1.93-1,1.26-2.18,2.32-3.45,3.3.64-.5,1.28-.99,1.92-1.49-1.8,1.34-3.74,2.43-5.8,3.31.76-.32,1.51-.64,2.26-.96-1.57.65-3.22,1.23-4.9,1.52h5.05c-1.68-.29-3.33-.87-4.9-1.52.76.32,1.51.63,2.27.96-2.07-.88-4.01-1.97-5.81-3.31.64.5,1.29.99,1.92,1.49-1.26-.98-2.45-2.05-3.44-3.3.49.64.99,1.29,1.49,1.93-.59-.8-1.09-1.63-1.48-2.53.32.76.64,1.51.96,2.27-.34-.84-.57-1.69-.72-2.58.11.84.22,1.68.34,2.52-.16-1.19-.14-2.37,0-3.56-.12.84-.23,1.68-.34,2.53.35-2.48,1.21-4.81,2.18-7.11-.32.76-.64,1.52-.96,2.27,1-2.33,2.09-4.64,2.94-7.03,1.02-2.88,1.01-5.74.43-8.7-1.12-5.7-5.98-10.73-11.52-12.35,1.4,5.29,2.79,10.58,4.19,15.87,1.77-1.93,3.54-3.85,5.32-5.78h-13.43c3.66,3.11,8.07,4.79,12.91,4.87,5.53.09,10.17-3,13.32-7.26h-16.4c1.58,2.13,2.38,2.89,4.52,4.51,2.46,1.86,5.42,2.41,8.4,2.73,3.29.35,6.51-.94,9.44-2.2,1.42-.6,2.74-1.69,3.88-2.65h-13.43c1.77,1.93,3.54,3.85,5.32,5.78,1.39-5.29,2.79-10.58,4.19-15.87-5.77,1.69-10.45,6.87-11.6,12.76-.51,2.57-.41,4.99.95,7.32,1.25,2.12,3.3,3.71,5.67,4.37,4.71,1.29,10.69-1.55,11.68-6.64Z"/>
          </g>
          <path class="st22" d="M153.48,41.16c.87-4.97,4.97-6.12,4.97-6.12l-5.31-5.78s-2.2,1.91-5.78,2.08c-3.58.17-5.55-2.54-5.55-2.54,0,0-1.97,2.71-5.55,2.54-3.58-.17-5.78-2.08-5.78-2.08l-5.32,5.78s4.11,1.16,4.97,6.12c.87,4.97-10.4,16.32-1.09,25.31,5.58,5.4,12.77,6.58,12.77,6.58,0,0,7.18-1.19,12.77-6.58,9.31-8.99-1.96-20.34-1.1-25.31Z"/>
          <g>
            <path class="st0" d="M130.73,66.5c-9.43-9.11,1.99-20.62,1.12-25.66-.89-5.04-5.04-6.21-5.04-6.21l4.44-4.83c-.51-.31-.78-.55-.78-.55l-5.32,5.78s4.11,1.16,4.97,6.12c.87,4.97-10.4,16.32-1.09,25.31,5.58,5.4,12.77,6.58,12.77,6.58,0,0,.25-.04.69-.14-2.29-.59-7.48-2.29-11.76-6.42Z"/>
            <path class="st0" d="M153.6,29.76l-.46-.51s-1.08.93-2.94,1.55c1.41-.18,2.56-.62,3.4-1.04Z"/>
            <path class="st0" d="M142.46,29.5c-.43-.4-.65-.7-.65-.7,0,0-.97,1.33-2.78,2.07,1.5-.14,2.65-.77,3.44-1.37Z"/>
          </g>
        </g>
        <path class="st24" d="M153.48,41.16c.87-4.97,4.97-6.12,4.97-6.12l-5.31-5.78s-2.2,1.91-5.78,2.08c-3.58.17-5.55-2.54-5.55-2.54,0,0,0,0-.01.02v44.25h.01s7.18-1.19,12.77-6.58c9.31-8.99-1.96-20.34-1.1-25.31Z"/>
      </g>
      <path class="st1" d="M152.87,66.5c9.43-9.11-1.99-20.62-1.11-25.66.88-5.04,5.03-6.21,5.03-6.21l-4.44-4.83c.5-.31.78-.55.78-.55l5.31,5.78s-4.1,1.16-4.97,6.12c-.87,4.97,10.4,16.32,1.1,25.31-5.59,5.4-12.77,6.58-12.77,6.58,0,0-.25-.04-.69-.14,2.29-.59,7.48-2.29,11.76-6.42Z"/>
    </g>
  </g>
  <g>
    <path class="st13" d="M194.97,40.27c8.02,5.14,12.64,12.27,10.29,15.93-2.34,3.65-10.75,2.45-18.77-2.7-8.03-5.14-12.64-12.28-10.3-15.93,2.35-3.65,10.75-2.45,18.78,2.7Z"/>
    <path class="st13" d="M212.19,58.66c.1,1.56-1.07,2.92-2.63,3.02-1.56.11-2.92-1.07-3.02-2.64-.1-1.56,1.08-2.91,2.64-3.02,1.57-.11,2.92,1.07,3.02,2.63Z"/>
  </g>
</svg>