<?xml version="1.0" encoding="UTF-8"?>
<svg id="Layer_1" xmlns="http://www.w3.org/2000/svg" version="1.1" viewBox="0 0 275.34 317.28">
  <!-- Generator: Adobe Illustrator 29.6.1, SVG Export Plug-In . SVG Version: 2.1.1 Build 9)  -->
  <defs>
    <style>
      .st0 {
        fill: #ffd7c3;
      }

      .st1 {
        fill: #d1d3d4;
      }

      .st2 {
        fill: #000002;
      }

      .st3 {
        fill: #c69e83;
      }

      .st4 {
        fill: #1e6c72;
      }

      .st5 {
        fill: #ceaa93;
      }

      .st6, .st7 {
        fill: #ed1c24;
      }

      .st6, .st8, .st9, .st10 {
        fill-rule: evenodd;
      }

      .st11 {
        fill: #33808a;
      }

      .st8 {
        fill: #ffa6ad;
      }

      .st12 {
        fill: #71abaf;
      }

      .st13 {
        fill: #f38b9e;
      }

      .st14, .st10 {
        fill: #be1e2d;
      }

      .st15 {
        fill: #fff;
      }

      .st16 {
        fill: #4f9799;
      }

      .st17 {
        fill: #a06137;
      }

      .st18 {
        fill: #763b19;
      }

      .st19 {
        fill: #fde5d2;
      }

      .st20 {
        fill: #783c18;
      }

      .st21 {
        fill: #b2794f;
      }

      .st22 {
        fill: #e6e7e8;
      }

      .st23 {
        fill: #5b2409;
      }

      .st24 {
        fill: #8abebf;
      }

      .st25 {
        fill: #602508;
      }

      .st26 {
        fill: #935723;
      }

      .st27 {
        fill: #ffc5ab;
      }

      .st28 {
        fill: #a7a9ac;
      }
    </style>
  </defs>
  <g>
    <g>
      <g>
        <path class="st9" d="M189.91,255.66s1-6.02,5.15-7.74c5.54-2.29,14.3,1.62,20.33,1.12,6.03-.48,12.57-5.43,12.57-5.43,0,0-.76,2.24.42,4.2,1.18,1.97,2.98,2.18,2.98,2.18,0,0-6.17,4.3-15.7,3.74-3.78-.22-15.33-5.77-19.53-4.11-4.3,1.71-4.72,8.35-4.72,8.35l-1.49-2.32Z"/>
        <path d="M197.38,257.72c.17-.98.49-1.95.86-2.87-.26.62-.52,1.23-.78,1.85.36-.85.79-1.65,1.32-2.41-1.56,2.23-.6.79-.04.25.95-.88-1.69,1.2-.61.49.26-.17.55-.29.83-.42-.61.26-1.23.52-1.85.78.72-.28,1.45-.47,2.22-.59-.69.09-1.38.18-2.07.28,1.82-.24,3.63-.12,5.44.11-.68-.09-1.37-.19-2.06-.28,2.72.37,5.39.97,8.1,1.36,3.81.55,7.16.73,10.96-.13,3.04-.7,6-2.11,8.71-3.63,1.18-.66,2.36-1.4,3.44-2.22-3.8-2.91-7.6-5.84-11.4-8.76-1.08,3.39-.43,7.12,1.21,10.19,1.37,2.59,4.61,5.32,7.62,5.74-.62-4.73-1.24-9.45-1.85-14.17-.97.67-2.07,1.17-3.14,1.64.62-.27,1.23-.53,1.85-.79-2.23.92-4.56,1.54-6.95,1.89.69-.09,1.37-.19,2.07-.28-2,.26-4.1.43-6.1.17.68.09,1.37.19,2.06.28-2.74-.42-5.4-1.52-8.03-2.37-3.5-1.13-7.1-2.12-10.8-2.28-5.14-.21-9.73,2.83-12.19,7.23-1.57,2.79-2.34,5.99-2.56,9.17,4.82-1.31,9.63-2.61,14.45-3.91-.5-.77-.99-1.55-1.48-2.32-2.28-3.55-6.85-4.98-10.61-2.78-3.53,2.07-5.07,7.04-2.79,10.61.5.77.99,1.54,1.49,2.32,1.89,2.94,5.3,4.51,8.76,3.55,3.5-.95,5.46-3.99,5.69-7.47.01-.23.05-.45.08-.68-.09.69-.19,1.38-.28,2.06.17-1.23.49-2.43.96-3.59-.26.62-.53,1.23-.79,1.85.37-.87,2.04-3.11.19-.81.24-.29.52-.55.8-.8-1.95,1.71-.87.66-.08.32-.62.26-1.23.52-1.85.79.31-.12.61-.18.93-.24-.69.09-1.37.19-2.06.28.88-.12,1.74-.07,2.61.04-.69-.1-1.37-.19-2.06-.28,6.34.85,12.08,4.28,18.52,4.61,4.39.22,9.03-.49,13.15-2.01,2-.74,4.21-1.58,6-2.81,2.3-1.59,3.84-3.8,3.84-6.7,0-3.11-2.34-7.01-5.69-7.48-.29-.04-.56-.14-.83-.25.62.26,1.24.52,1.85.79-.64-.3-1.52-1.11.38.46-.53-.54-.38-.29.47.74-.17-.24-.32-.48-.43-.74.25.62.52,1.23.78,1.85-.21-.52-.35-1.02-.42-1.57.09.69.18,1.38.28,2.06-.03-.45-.02-.88.02-1.33-.09.69-.18,1.37-.28,2.06.05-.31.09-.62.19-.92.83-2.6-.1-5.65-1.99-7.54-2.25-2.25-6.65-3.27-9.4-1.21-2.13,1.61-4.53,2.92-6.98,3.96.62-.27,1.23-.53,1.85-.79-1.56.64-3.16,1.14-4.83,1.39.69-.09,1.38-.19,2.07-.28-1.65.21-3.3.11-4.95-.1.68.09,1.37.19,2.06.28-6.51-.89-13.8-3.46-20.25-.94-3.78,1.48-6.78,4.05-8.6,7.72-.83,1.67-1.65,3.56-1.97,5.44-.36,2.14-.35,4.04.78,5.97,1.02,1.73,2.7,3.03,4.64,3.56,3.76,1.03,8.83-1.24,9.54-5.41Z"/>
      </g>
      <path class="st6" d="M189.91,255.66s1-6.02,5.15-7.74c5.54-2.29,14.3,1.62,20.33,1.12,6.03-.48,12.57-5.43,12.57-5.43,0,0-.76,2.24.42,4.2,1.18,1.97,2.98,2.18,2.98,2.18,0,0-6.17,4.3-15.7,3.74-3.78-.22-15.33-5.77-19.53-4.11-4.3,1.71-4.72,8.35-4.72,8.35l-1.49-2.32Z"/>
      <path class="st10" d="M191.05,257.4s.42-6.64,4.72-8.35c4.2-1.67,15.76,3.88,19.53,4.1,7.95.47,13.56-2.44,15.2-3.42.49.21.85.26.85.26,0,0-6.17,4.3-15.7,3.74-3.78-.22-15.33-5.77-19.53-4.11-4.3,1.71-4.72,8.35-4.72,8.35l-1.49-2.32s0-.02,0-.03l1.14,1.77Z"/>
      <path class="st8" d="M215.59,249.72c-6.03.48-14.78-3.42-20.32-1.12-3.64,1.51-4.85,6.3-5.1,7.48l-.27-.42s1-6.02,5.15-7.74c5.54-2.29,14.3,1.62,20.33,1.12,6.03-.48,12.57-5.43,12.57-5.43,0,0-.13.39-.2.97-1.53,1.08-7.03,4.72-12.15,5.13Z"/>
    </g>
    <g>
      <g>
        <path class="st9" d="M181.99,243.59s4.6-4,8.9-2.68c5.73,1.76,9.99,10.35,14.95,13.81,4.95,3.46,13.15,3.82,13.15,3.82,0,0-2.02,1.25-2.36,3.5-.34,2.27.91,3.59.91,3.59,0,0-7.49-.62-14.48-7.13-2.77-2.57-8.14-14.22-12.43-15.61-4.4-1.43-8.96,3.42-8.96,3.42l.33-2.73Z"/>
        <path d="M187.48,249.08c.99-.86-2.08,1.51-.61.48.77-.54,1.6-.99,2.46-1.38-.62.25-1.24.52-1.86.78.85-.36,1.71-.62,2.63-.77-.69.1-1.37.18-2.06.28.6-.07,1.18-.08,1.78-.03-.69-.09-1.37-.18-2.06-.27.68.09,1.3.28,1.92.54-.62-.26-1.23-.52-1.85-.78.57.26,1.11.56,1.63.9.49.31,1.52,1.15-.51-.45.36.28.69.58,1.03.88,1.24,1.13,2.35,2.41,3.44,3.68,2.53,2.96,4.9,5.77,8.02,8.12,2.99,2.26,6.83,3.53,10.47,4.29,2.32.48,4.72.84,7.09.95-1.31-4.81-2.61-9.63-3.91-14.45-2.84,1.81-4.93,4.53-5.85,7.78-1.15,4.01.06,8.46,2.83,11.49,1.83-4.4,3.66-8.82,5.48-13.23-.1-.01-.21-.02-.31-.04.69.09,1.37.18,2.06.28-2-.28-3.95-.89-5.8-1.66.62.26,1.24.52,1.85.79-2.07-.89-4-2-5.83-3.32,1.96,1.41.16.1-.24-.25-.38-.32-.74-.65-1.07-1-.17-.18-.33-.4-.49-.59,1.9,2.38.81,1.04.4.46-2.11-3.02-3.89-6.25-6.08-9.22-3.34-4.53-7.3-8.6-13.42-8.43-4.62.13-9.26,2.62-12.41,5.95,4.41,1.82,8.82,3.65,13.24,5.48.11-.91.22-1.82.33-2.73.22-1.92-.97-4.18-2.27-5.48-1.45-1.44-3.43-2.28-5.48-2.28s-4.04.83-5.49,2.28c-1.59,1.59-2.01,3.34-2.27,5.48-.11.91-.22,1.82-.33,2.73-.31,2.62,1.71,5.44,3.84,6.7,2.96,1.72,7.01,1.3,9.4-1.22.36-.38.76-.72,1.16-1.05.9-.74-1.75,1.32-.75.59.24-.17.48-.33.73-.48.54-.34,1.1-.63,1.67-.88-.61.26-1.24.53-1.85.79.62-.25,1.24-.44,1.89-.56-.69.09-1.37.19-2.06.28.57-.07,1.11-.09,1.67-.04-.68-.09-1.37-.18-2.06-.28.47.07.92.18,1.36.36-.62-.26-1.24-.53-1.85-.78.24.11.48.24.7.39,1.27.79-1.54-1.27-.67-.52.53.46,1,.97,1.46,1.5.25.29.5.6.73.9-1.73-2.19-.66-.87-.29-.35.56.78,1.1,1.58,1.63,2.38,2.04,3.11,3.91,6.26,6.23,9.17,1.47,1.84,3.65,3.29,5.54,4.62,2.26,1.58,4.74,2.66,7.28,3.71,2.5,1.03,5.17,1.62,7.86,1.85,2.66.23,5.41-1.64,6.7-3.84,1.82-3.11,1.15-6.82-1.21-9.4.82.89,1.26,1.95.63.63.26.61.52,1.23.79,1.85-.16-.36-.26-.73-.33-1.13.09.69.19,1.38.28,2.06-.06-.51-.05-1,0-1.52-.09.69-.18,1.38-.28,2.07.08-.36.17-.69.29-1.04-.26.62-.52,1.24-.78,1.85.14-.3.29-.59.47-.87-1.18,1.88-.98,1.21-.48.69.15-.16.31-.29.48-.44-2.24,1.88-1.71,1.27-1.18.94,2.95-1.88,4.51-5.31,3.57-8.76-.95-3.44-4.01-5.54-7.48-5.7-.83-.04-1.66-.13-2.48-.24.69.1,1.37.19,2.06.28-2.69-.38-5.36-.99-7.88-2.05.62.26,1.24.52,1.86.79-.66-.3-1.3-.61-1.92-.97-.31-.18-.6-.38-.89-.57-1.01-.69,1.74,1.44.34.25-1.22-1.04-2.29-2.28-3.34-3.49-2.19-2.55-4.23-5.25-6.83-7.38-2.12-1.72-3.87-2.74-6.4-3.78-2.57-1.06-5.59-.81-8.24-.27-3.23.66-6.3,2.63-8.77,4.75-3.2,2.76-2.82,8.14,0,10.97,3.16,3.15,7.77,2.75,10.97,0Z"/>
      </g>
      <path class="st6" d="M181.99,243.59s4.6-4,8.9-2.68c5.73,1.76,9.99,10.35,14.95,13.81,4.95,3.46,13.15,3.82,13.15,3.82,0,0-2.02,1.25-2.36,3.5-.34,2.27.91,3.59.91,3.59,0,0-7.49-.62-14.48-7.13-2.77-2.57-8.14-14.22-12.43-15.61-4.4-1.43-8.96,3.42-8.96,3.42l.33-2.73Z"/>
      <path class="st10" d="M181.76,245.66s4.56-4.84,8.96-3.42c4.29,1.39,9.66,13.04,12.43,15.62,5.83,5.43,12,6.75,13.9,7.04.24.49.48.75.48.75,0,0-7.49-.62-14.48-7.13-2.77-2.57-8.14-14.22-12.43-15.61-4.4-1.43-8.96,3.42-8.96,3.42l.33-2.73s0-.01.02-.02l-.25,2.08Z"/>
      <path class="st8" d="M205.57,255.39c-4.95-3.46-9.22-12.05-14.94-13.81-3.77-1.15-7.76,1.77-8.69,2.51l.06-.49s4.6-4,8.9-2.68c5.73,1.76,9.99,10.35,14.95,13.81,4.95,3.46,13.15,3.82,13.15,3.82,0,0-.35.21-.79.62-1.87-.14-8.42-.84-12.63-3.79Z"/>
    </g>
  </g>
  <g>
    <g>
      <g>
        <g>
          <path class="st0" d="M99.71,239.13s-27.84,33.07-15.77,40.2c12.09,7.13,28.99-23.77,28.99-23.77l-13.23-16.42Z"/>
          <path d="M97.19,236.62c-3.36,3.99-6.47,8.21-9.39,12.53-4.58,6.77-9.25,14.33-10.34,22.57-.44,3.38.42,7.15,3.05,9.47,3.2,2.83,7.69,3.41,11.64,1.98,4.14-1.48,7.61-4.41,10.62-7.53,3.08-3.18,5.79-6.76,8.3-10.41,1.75-2.55,3.43-5.17,4.92-7.88.83-1.52.48-3.02-.56-4.3-4.41-5.48-8.82-10.96-13.23-16.43-1.22-1.51-3.77-1.26-5.03,0-1.48,1.48-1.22,3.52,0,5.03,4.41,5.47,8.82,10.95,13.23,16.42-.19-1.43-.37-2.87-.56-4.31-.84,1.54-1.76,3.04-2.7,4.52-.96,1.53-1.97,3.04-3.02,4.52-.57.81-1.15,1.6-1.74,2.39-.16.2-.31.4-.47.61.57-.75.03-.04-.08.09-.38.48-.75.95-1.14,1.41-1.38,1.66-2.83,3.26-4.4,4.76-.72.69-1.47,1.34-2.24,1.96-.66.53.63-.47-.04.04-.19.14-.38.27-.57.41-.44.31-.88.6-1.34.88-.38.23-.76.44-1.15.64-.19.1-.38.19-.58.28-.7.32.78-.31.07-.04-.37.15-.76.27-1.14.39-.33.09-1.88.32-.59.16-.37.05-.75.06-1.13.05-.19,0-.38-.02-.56-.04,1.13.1.48.06.21.01-.38-.07-.74-.18-1.1-.31-.68-.24.8.37.13.05-.23-.11-.46-.24-.68-.38-.94-.57.43.42-.17-.12-.23-.2-.43-.43-.62-.67.81.99.14.15-.02-.16-.51-.92.22.76-.1-.27-.09-.3-.16-.61-.22-.92-.12-.65.11.96.04.3-.02-.17-.02-.33-.03-.5-.02-.35,0-.69,0-1.04.01-.33.21-1.82.01-.52.25-1.72.78-3.39,1.38-5.03.16-.43.33-.85.51-1.29-.42,1.02.19-.42.31-.67.44-.96.91-1.92,1.4-2.86,1.92-3.71,4.17-7.26,6.54-10.7,1.05-1.54,2.14-3.05,3.25-4.54.46-.62.92-1.23,1.39-1.85.11-.14.21-.28.32-.41.41-.54-.55.7-.14.18.22-.29.44-.58.66-.85.7-.88,1.39-1.76,2.11-2.62,1.25-1.48,1.46-3.57,0-5.03-1.28-1.28-3.78-1.48-5.03,0Z"/>
        </g>
        <path class="st20" d="M87.34,263.83l9.21,5.69,6.52-21.08-3.22-4.03s-5.31,6.6-7.09,9.39c-1.78,2.79-5.43,10.04-5.43,10.04Z"/>
        <path class="st26" d="M90.12,262.99s3.65-7.26,5.43-10.04c1.12-1.76,3.66-5.05,5.37-7.22l-1.06-1.33s-5.31,6.6-7.09,9.39c-1.78,2.79-5.43,10.04-5.43,10.04l9.21,5.69-6.44-6.52Z"/>
        <g>
          <rect class="st2" x="86.76" y="260" width="6.91" height="19.73" transform="translate(-185.41 199.2) rotate(-57.14)"/>
          <path d="M96.87,279.23l-17.92-11.58,4.62-7.16,17.92,11.58-4.62,7.16ZM81.17,267.17l15.22,9.83,2.88-4.45-15.22-9.83-2.88,4.46Z"/>
        </g>
      </g>
      <g>
        <g>
          <path class="st0" d="M175.64,239.13s27.84,33.07,15.76,40.2c-12.08,7.13-28.99-23.77-28.99-23.77l13.23-16.42Z"/>
          <path d="M173.13,241.65c.96,1.13,1.88,2.3,2.78,3.47.4.52-.55-.72-.14-.18.11.14.21.28.32.41.23.3.45.6.68.9.54.71,1.07,1.42,1.59,2.13,1.14,1.56,2.25,3.16,3.33,4.76,2.34,3.48,4.52,7.07,6.36,10.84.21.43.42.87.62,1.31.12.25.72,1.69.3.67.38.9.71,1.82,1.02,2.75.26.79.48,1.6.66,2.41.08.38.15.77.21,1.15-.2-1.29,0,.19.02.52.02.35.02.7,0,1.04,0,.17-.02.33-.04.5-.06.66.14-.95.04-.3-.05.31-.13.62-.21.92-.31,1.03.38-.68-.1.27-.15.29-.82,1.2-.02.16-.19.24-.4.46-.63.67-.59.56.74-.47-.17.12-.16.1-.33.2-.5.29-.85.45.51-.18-.05.04-.36.14-.73.24-1.1.31-.26.06-.96.13.2-.01-.18.02-.38.03-.56.04-.38.02-.76,0-1.14-.05,1.29.13-.23-.07-.57-.16-.39-.11-.77-.24-1.15-.39-.71-.26.78.35.08.04-.2-.09-.39-.18-.58-.28-.87-.44-1.69-.97-2.5-1.52-.19-.14-.38-.28-.57-.41-.68-.5.62.48-.04-.04-.39-.3-.76-.62-1.13-.95-.83-.72-1.62-1.5-2.39-2.28-1.51-1.55-2.92-3.21-4.27-4.91-.11-.13-.65-.83-.08-.09-.16-.2-.31-.4-.46-.61-.3-.4-.6-.8-.89-1.21-.61-.84-1.2-1.68-1.79-2.53-.96-1.39-1.86-2.81-2.75-4.24-.7-1.13-1.39-2.27-2.04-3.45-.18,1.44-.36,2.88-.55,4.31,4.41-5.47,8.82-10.95,13.23-16.42,1.21-1.51,1.48-3.54,0-5.03-1.26-1.26-3.81-1.51-5.03,0-4.4,5.47-8.81,10.95-13.23,16.43-1.03,1.28-1.39,2.78-.55,4.3,2.82,5.15,6.23,10.03,9.94,14.58,4.88,5.99,12.67,13.95,21.26,11.61,3.65-1,6.6-3.98,7.22-7.75.61-3.79-.31-7.54-1.68-11.06-3.01-7.7-7.68-14.68-12.59-21.27-1.72-2.31-3.48-4.62-5.34-6.83-1.25-1.48-3.75-1.28-5.03,0-1.45,1.46-1.24,3.54,0,5.03Z"/>
        </g>
        <path class="st20" d="M188.01,263.83l-9.22,5.69-6.52-21.08,3.22-4.03s5.31,6.6,7.09,9.39c1.77,2.79,5.43,10.04,5.43,10.04Z"/>
        <path class="st23" d="M185.23,262.99s-3.65-7.26-5.43-10.04c-1.13-1.76-3.65-5.05-5.37-7.22l1.06-1.33s5.31,6.6,7.09,9.39c1.77,2.79,5.43,10.04,5.43,10.04l-9.22,5.69,6.44-6.52Z"/>
        <g>
          <rect class="st2" x="175.27" y="266.4" width="19.73" height="6.91" transform="translate(-116.8 143.62) rotate(-32.86)"/>
          <path d="M178.48,279.23l-4.63-7.16,17.93-11.58,4.62,7.16-17.92,11.58ZM176.08,272.55l2.88,4.45,15.22-9.83-2.88-4.46-15.22,9.83Z"/>
        </g>
      </g>
    </g>
    <g>
      <g>
        <path class="st26" d="M166.1,242.42h-57.02s-11.14,61.79-3.56,64.44c7.57,2.65,14.59-9.42,14.59-9.42,0,0,5.57,1.71,15.25,2h0c.73.03,1.48.04,2.23.04s1.5-.01,2.23-.04h0c9.67-.3,15.25-2.01,15.25-2.01,0,0,7.01,12.08,14.59,9.42,7.57-2.64-3.56-64.44-3.56-64.44Z"/>
        <path d="M166.1,238.86h-57.02c-1.47,0-3.15,1.07-3.43,2.61-2.18,12.07-3.94,24.25-5.22,36.45-.77,7.39-1.56,15-.92,22.43.21,2.45.5,5.4,1.95,7.5,2.86,4.14,8.76,3.3,12.61,1.06,3.76-2.19,6.93-5.94,9.11-9.67-1.34.54-2.68,1.09-4.01,1.63,5.16,1.56,10.84,1.95,16.19,2.12-1.18-1.18-2.37-2.37-3.56-3.55h0c0,1.98,1.62,3.52,3.56,3.56,1.49.04,2.98.04,4.46,0,1.94-.04,3.55-1.58,3.55-3.56h0c-1.18,1.18-2.36,2.37-3.55,3.55,5.35-.18,11.03-.56,16.19-2.12-1.34-.55-2.68-1.09-4.02-1.63,1.7,2.9,3.98,5.68,6.57,7.83,3.76,3.11,9.91,5.61,14.19,1.96,2.01-1.71,2.43-4.83,2.75-7.27.41-3.12.39-6.29.3-9.43-.25-8.36-1.23-16.7-2.31-24.98-.95-7.2-2.02-14.39-3.22-21.54-.24-1.44-.49-2.89-.75-4.33-.35-1.91-2.63-2.97-4.37-2.48-2,.55-2.83,2.46-2.49,4.37.69,3.8,1.3,7.61,1.9,11.43.59,3.82,1.15,7.65,1.67,11.48.12.88-.11-.82,0,.06.03.25.07.5.1.75.07.51.13,1.02.2,1.53.14,1.11.28,2.23.42,3.34.27,2.16.51,4.32.73,6.48.74,7.31,1.54,14.87.83,22.22-.03.32-.07.63-.11.94.18-1.38.03-.25-.02.07-.1.55-.22,1.1-.37,1.63-.06.22-.13.43-.21.63-.25.68.46-.97.08-.2-.08.15-.17.3-.27.46-.34.51.76-.83.16-.24-.43.42.93-.61.33-.26-.38.22,1.02-.41.61-.25-.27.1-.54.17-.82.23-.9.22.77-.05-.14.02-.27.02-.54,0-.8-.01-.9-.05.78.15-.1-.02-.35-.07-.7-.18-1.04-.29-.86-.29.68.33-.15-.06-.25-.12-.49-.25-.73-.38-.49-.27-.95-.6-1.41-.92.7.51-.05-.05-.17-.14-.21-.18-.42-.36-.63-.55-.48-.43-.93-.89-1.37-1.36-.52-.55-1.02-1.14-1.5-1.74-.41-.51.46.62-.14-.18-.19-.27-.38-.53-.57-.8-.37-.52-.72-1.04-1.03-1.58-.79-1.35-2.49-2.1-4.01-1.63-1.26.38-2.57.63-3.87.87-.7.13-1.4.24-2.1.34-1.12.17.73-.09-.45.06-.51.07-1.02.12-1.52.17-2.12.23-4.24.36-6.37.43-1.94.06-3.55,1.56-3.55,3.55h0c1.19-1.18,2.37-2.36,3.55-3.54-1.49.04-2.97.04-4.46,0,1.18,1.18,2.37,2.37,3.56,3.55h0c0-1.99-1.62-3.49-3.56-3.55-2.12-.07-4.25-.21-6.36-.43-.39-.04-.77-.08-1.16-.13-.24-.03-.48-.06-.73-.09.36.04.33.04-.08-.02-.7-.1-1.41-.21-2.11-.34-1.29-.23-2.6-.48-3.86-.87-1.52-.46-3.22.28-4.02,1.63-.52.89-1.12,1.73-1.73,2.56-.48.63.51-.65-.01,0-.15.2-.31.38-.47.57-.33.4-.68.79-1.03,1.17-.37.41-.76.79-1.16,1.17-.2.19-.41.38-.62.56-.12.11-1.09.86-.38.32-.44.33-.92.63-1.4.92-.24.14-.48.26-.73.38-.83.41.7-.25-.16.06-.25.1-.51.17-.77.24-.18.04-1.07.18-.1.06-.27.04-.53.04-.8.04-.18,0-.36-.01-.54-.03.49.08.54.08.14,0-.72-.14-1.32-.55-.22.02-.62-.33.77.67.33.26-.58-.52.36.53.2.32-.12-.17-.22-.35-.31-.53-.39-.76.34.88.08.2-.08-.21-.14-.42-.21-.63-.16-.53-.27-1.07-.37-1.63-.06-.32-.21-1.45-.03-.07-.04-.31-.07-.62-.11-.94-.08-.74-.12-1.49-.16-2.23-.17-3.57-.01-7.15.21-10.71.26-4.23.67-8.44,1.14-12.64.25-2.15.51-4.31.78-6.45.07-.51.14-1.02.2-1.53.03-.25.07-.5.1-.75.12-.88-.11.81.01-.06.14-1.06.29-2.12.44-3.19.85-6,1.79-11.98,2.81-17.95.11-.59.21-1.18.31-1.78-1.13.87-2.28,1.74-3.42,2.61h57.02c4.58,0,4.58-7.11,0-7.11Z"/>
      </g>
      <g>
        <g>
          <polygon class="st19" points="164.19 244.76 137.78 244.76 137.57 244.76 111.16 244.76 99.72 282.39 137.57 282.39 137.78 282.39 175.63 282.39 164.19 244.76"/>
          <path d="M164.19,237.65h-53.03c-3.22,0-5.93,2.18-6.85,5.22-3.65,11.99-7.29,23.98-10.94,35.97-.17.55-.33,1.1-.51,1.66-1.35,4.44,2.33,8.99,6.85,8.99h75.91c4.53,0,8.2-4.55,6.85-8.99-3.64-12-7.29-23.99-10.93-35.97-.17-.55-.34-1.1-.5-1.66-1.13-3.71-4.94-6.01-8.74-4.97-3.66,1.01-6.1,5.04-4.97,8.74,3.65,11.99,7.29,23.98,10.94,35.97.17.55.34,1.1.5,1.66,2.29-3,4.57-6,6.86-9h-75.91c2.29,3,4.57,6,6.86,9,3.64-11.99,7.29-23.98,10.93-35.97.17-.55.34-1.1.51-1.66-2.29,1.74-4.57,3.48-6.86,5.22h53.03c3.87,0,7.11-3.23,7.11-7.11s-3.24-7.11-7.11-7.11Z"/>
        </g>
        <polygon class="st20" points="164.19 244.76 137.78 244.76 137.57 244.76 111.16 244.76 99.72 282.39 137.57 282.39 137.78 282.39 175.63 282.39 164.19 244.76"/>
        <polygon class="st26" points="102.84 280.22 113.6 244.76 111.16 244.76 99.72 282.39 137.57 282.39 137.78 282.39 102.84 280.22"/>
        <polygon class="st23" points="172.5 280.22 161.75 244.76 164.19 244.76 175.63 282.39 137.78 282.39 137.57 282.39 172.5 280.22"/>
      </g>
      <polygon class="st20" points="106.85 289.65 106.59 292.89 168.65 292.89 168.38 289.65 106.85 289.65"/>
    </g>
    <g>
      <path class="st2" d="M196.51,312.93c0,1.74-26.35,3.15-58.84,3.15s-58.84-1.41-58.84-3.15,26.34-3.14,58.84-3.14,58.84,1.41,58.84,3.14Z"/>
      <path d="M137.68,317.28c-15.74,0-30.53-.33-41.67-.92-18.38-.98-18.38-2.12-18.38-3.43s0-2.45,18.38-3.43c11.14-.6,25.94-.92,41.67-.92s30.53.33,41.67.92c18.38.98,18.38,2.11,18.38,3.43s0,2.45-18.38,3.43c-11.13.6-25.93.92-41.67.92ZM83.42,312.93c7.72.97,26.72,1.94,54.26,1.94s46.54-.97,54.26-1.94c-7.72-.96-26.72-1.93-54.26-1.93s-46.54.97-54.26,1.93Z"/>
    </g>
  </g>
  <g>
    <g>
      <path class="st19" d="M112.35,244.93c.39,1.1.84,2.18,1.37,3.24,5.55,11.12,18.63,16.5,30.49,13.73,8.84-2.05,15.7-8.74,18.75-16.96h2.25l-1.02-3.36h-6.88c-2.37,6.38-7.7,11.58-14.56,13.17-9.21,2.15-19.36-2.03-23.67-10.66-.41-.83-.76-1.66-1.06-2.52h-6.85l-1.02,3.36h2.21Z"/>
      <path d="M105.49,246.82c2.6,7.13,6.9,12.85,13.15,17.15,5.43,3.73,12.19,5.58,18.73,5.75,6.73.18,13.71-1.81,19.24-5.66,6.19-4.29,10.54-10.23,13.2-17.24-2.28,1.74-4.57,3.47-6.85,5.22h2.25c4.53,0,8.21-4.55,6.85-9-.33-1.12-.68-2.23-1.02-3.36-.92-3.04-3.63-5.21-6.86-5.21h-6.88c-3.39,0-5.71,2.22-6.85,5.21-.68,1.78.52-1.12,0,.02-.2.44-.43.88-.67,1.32-.47.87-1.02,1.68-1.61,2.48,1.38-1.87.29-.41-.05-.01-.32.36-.68.71-1.02,1.06-.35.35-.72.67-1.09.99-.93.8,1.51-1.07-.03.02-.8.58-1.67,1.07-2.55,1.52-1.69.87,1.14-.42-.02.04-.47.19-.95.33-1.43.48-.95.29-1.92.48-2.89.63,2.46-.38.66-.11.09-.07-.48.03-.96.04-1.43.04s-.96-.02-1.43-.06c-.57-.04-2.38-.31.11.06-.94-.14-1.87-.37-2.78-.62-.46-.13-.9-.28-1.36-.44-1.75-.62,1.18.55.06.04-.86-.39-1.69-.85-2.5-1.35-.4-.25-.79-.52-1.17-.8,1.9,1.36.47.35.05,0-.72-.63-1.38-1.32-2.01-2.04-1.22-1.4.72,1.01,0,.02-.29-.39-.54-.81-.79-1.22-.26-.42-.48-.85-.71-1.29-.14-.27-.27-.55-.39-.83.84,1.84.19.42.04,0-1.1-3-3.49-5.21-6.86-5.21h-6.85c-3.23,0-5.93,2.18-6.85,5.21-.34,1.12-.68,2.24-1.02,3.36-1.35,4.45,2.33,9,6.85,9h2.21c3.87,0,7.1-3.23,7.1-7.11s-3.23-7.11-7.1-7.11h-2.21c2.29,3,4.57,6,6.86,9,.34-1.12.68-2.24,1.02-3.36-2.29,1.74-4.57,3.48-6.86,5.22h6.85c-2.28-1.74-4.57-3.47-6.86-5.22,2.18,5.95,5.7,10.64,10.92,14.25,4.42,3.06,9.98,4.53,15.3,4.69,5.48.17,11.24-1.47,15.77-4.58,5.21-3.58,8.78-8.5,11.01-14.37-2.28,1.74-4.57,3.48-6.85,5.22h6.88c-2.28-1.74-4.57-3.47-6.85-5.22.34,1.12.68,2.24,1.02,3.36,2.29-3,4.57-6,6.86-9h-2.25c-3.39,0-5.72,2.22-6.85,5.22-.09.24-.18.47-.27.69.82-2.09.34-.8.13-.34-.26.56-.54,1.11-.83,1.65-.65,1.2-1.39,2.33-2.2,3.42,1.43-1.94.08-.15-.29.26-.4.47-.83.91-1.26,1.34-.43.43-.89.85-1.35,1.25-.27.25-.56.48-.85.71,1.73-1.38.65-.51.25-.23-1,.72-2.07,1.35-3.17,1.91-.5.26-2.61,1.13-.34.21-.7.28-1.42.52-2.14.74-1.18.36-2.4.61-3.62.8,2.55-.4.33-.06-.27-.01-.72.05-1.44.06-2.16.06-.6,0-1.2-.03-1.8-.07-.6-.04-2.84-.35-.25.02-1.3-.19-2.58-.48-3.84-.85-.58-.15-1.13-.35-1.7-.55-.23-.08-.45-.16-.67-.25-1.29-.5,1.65.72.39.15-1.2-.53-2.34-1.17-3.45-1.87-.5-.32-.99-.66-1.47-1.01-.58-.43-.38-.29.59.46-.28-.22-.55-.46-.82-.69-1-.86-1.91-1.81-2.76-2.82-.16-.19-.31-.37-.46-.56,1.4,1.73.54.68.24.28-.42-.6-.81-1.23-1.18-1.86-.32-.55-.61-1.12-.89-1.71-.2-.39-.8-1.85,0,.09-.17-.41-.32-.82-.47-1.24-1.32-3.63-4.78-6.05-8.74-4.96-3.51.96-6.29,5.1-4.97,8.74Z"/>
    </g>
    <path class="st21" d="M112.35,244.93c.39,1.1.84,2.18,1.37,3.24,5.55,11.12,18.63,16.5,30.49,13.73,8.84-2.05,15.7-8.74,18.75-16.96h2.25l-1.02-3.36h-6.88c-2.37,6.38-7.7,11.58-14.56,13.17-9.21,2.15-19.36-2.03-23.67-10.66-.41-.83-.76-1.66-1.06-2.52h-6.85l-1.02,3.36h2.21Z"/>
    <path class="st3" d="M111.16,243.77h6.85c.3.85.66,1.7,1.06,2.52,4.31,8.63,14.46,12.82,23.67,10.66,6.86-1.6,12.19-6.79,14.56-13.18h6.88l.35,1.17h.67l-1.02-3.36h-6.88c-2.37,6.38-7.7,11.58-14.56,13.17-9.21,2.15-19.36-2.03-23.67-10.66-.41-.83-.76-1.66-1.06-2.52h-6.85l-1.02,3.36h.66l.36-1.17Z"/>
    <path class="st17" d="M162.96,243.47c-3.05,8.23-9.92,14.91-18.75,16.97-11.86,2.76-24.94-2.62-30.49-13.73-.53-1.06-.98-2.15-1.37-3.24h-1.77l-.44,1.47h2.21c.39,1.1.84,2.18,1.37,3.24,5.55,11.12,18.63,16.5,30.49,13.73,8.84-2.05,15.7-8.74,18.75-16.96h2.25l-.45-1.47h-1.8Z"/>
  </g>
  <g>
    <path class="st0" d="M155.42,237.06c0,9.8-7.95,17.74-17.74,17.74s-17.74-7.94-17.74-17.74,7.94-17.73,17.74-17.73,17.74,7.94,17.74,17.73Z"/>
    <path d="M152.18,237.06c-.05,5.18-2.74,9.87-7.18,12.53-4.49,2.68-10.15,2.57-14.65,0-4.48-2.57-7.14-7.42-7.19-12.53-.05-5.16,2.81-9.91,7.19-12.53,4.49-2.68,10.16-2.57,14.65,0,4.47,2.56,7.13,7.42,7.18,12.53.04,4.17,6.51,4.17,6.46,0-.06-6.26-2.85-12.35-7.78-16.27-5.18-4.12-11.81-5.58-18.26-4.08-5.98,1.38-11.21,5.76-13.83,11.27-2.85,6-2.66,12.86.29,18.77,4.31,8.63,14.46,12.8,23.67,10.66,9.31-2.17,15.81-10.95,15.9-20.36.04-4.17-6.42-4.16-6.46,0Z"/>
  </g>
  <path class="st5" d="M111.16,243.03h6.08c.39,1.78,1,3.52,1.83,5.19,4.31,8.63,14.46,12.8,23.67,10.66,7.8-1.81,13.62-8.27,15.36-15.85h6.08l.57,1.9h.45l-1.02-3.36h-6.08c-1.74,7.57-7.57,14.03-15.36,15.85-9.21,2.14-19.36-2.03-23.67-10.66-.83-1.66-1.44-3.41-1.83-5.19h-6.08l-1.02,3.36h.44l.58-1.9Z"/>
  <g>
    <g>
      <polygon class="st19" points="178.93 238.67 173.17 236.03 177.01 234.83 173.75 232.5 173.38 232.5 101.96 232.5 101.6 232.5 98.33 234.83 102.17 236.03 96.41 238.67 137.68 251.57 178.93 238.67"/>
      <path d="M182.2,233.09c-1.92-.88-3.84-1.75-5.76-2.63-.51,3.94-1.03,7.87-1.54,11.81,1.28-.4,2.56-.8,3.84-1.21,2.18-.68,3.9-2.28,4.52-4.51.82-2.99-.58-5.59-2.97-7.3-1.49-1.07-3.02-2.49-4.81-2.98-.88-.24-1.73-.23-2.62-.23h-70.8c-2.96,0-4.74,1.62-6.97,3.21-1.9,1.36-3.2,3.14-3.2,5.58,0,2.95,1.99,5.38,4.75,6.23,1.28.4,2.56.8,3.84,1.21-.52-3.94-1.03-7.88-1.55-11.81-1.92.88-3.83,1.75-5.76,2.63-2.01.92-3.2,3.49-3.2,5.58,0,2.95,1.98,5.37,4.74,6.23,12.28,3.84,24.57,7.68,36.85,11.52,1.47.46,2.94.91,4.42,1.38,2.34.73,5.01-.5,7.23-1.19,7.35-2.3,14.72-4.6,22.08-6.9,5.13-1.61,10.25-3.2,15.37-4.81,3.36-1.05,5.48-4.46,4.51-7.94-.91-3.31-4.58-5.57-7.95-4.52-12.28,3.84-24.55,7.68-36.83,11.52-1.47.46-2.95.92-4.42,1.38h3.43c-12.28-3.84-24.57-7.68-36.85-11.52-1.47-.46-2.94-.92-4.42-1.38.51,3.93,1.03,7.87,1.54,11.81,1.92-.88,3.84-1.76,5.77-2.64,2-.92,3.2-3.47,3.2-5.58,0-2.95-1.99-5.36-4.74-6.23-1.28-.4-2.56-.8-3.84-1.2.51,3.94,1.03,7.87,1.54,11.81,1.08-.78,2.18-1.55,3.27-2.33-1.09.29-2.17.58-3.26.88h72.14c-1.09-.29-2.17-.58-3.26-.88,1.09.78,2.18,1.55,3.27,2.33.51-3.94,1.03-7.87,1.54-11.81-1.28.4-2.56.8-3.84,1.2-2.17.67-3.9,2.28-4.51,4.51-.71,2.58.37,6.1,2.97,7.29,1.92.88,3.84,1.76,5.76,2.64,3.2,1.47,6.93.94,8.84-2.31,1.65-2.81.88-7.38-2.31-8.85Z"/>
    </g>
    <polygon class="st7" points="178.93 238.67 173.17 236.03 177.01 234.83 173.75 232.5 173.38 232.5 101.96 232.5 101.6 232.5 98.33 234.83 102.17 236.03 96.41 238.67 137.68 251.57 178.93 238.67"/>
    <polygon class="st14" points="137.68 246.9 96.41 238.67 137.68 251.57 178.93 238.67 137.68 246.9"/>
  </g>
  <g>
    <g>
      <g>
        <g>
          <path class="st19" d="M50.85,88.53c-.31,12.44,0,85.92,0,85.92,0,33.39,18.71,64.35,88.45,64.07,69.01-.29,85.35-30.68,85.35-64.07v-85.92H50.85Z"/>
          <path d="M41.8,88.53c-.36,14.61-.15,29.23-.13,43.83.03,13.75.07,27.5.12,41.25.06,14.32,2.91,28.93,11.16,40.91,5.35,7.77,12.3,14.12,20.42,18.95,9.33,5.54,19.95,8.99,30.56,11.04,14.28,2.77,28.96,3.46,43.47,2.88,12.93-.52,26.11-2.12,38.46-6.12,9.93-3.21,19.14-7.96,27.06-14.79,6.1-5.26,11.11-12.07,14.35-19.44,3.56-8.09,5.41-16.39,6.13-25.21.31-3.86.29-7.73.29-11.6v-81.69c0-4.93-4.12-9.04-9.05-9.04H50.85c-4.93,0-9.05,4.12-9.05,9.04s4.12,9.05,9.05,9.05h173.8c-3.01-3.01-6.02-6.03-9.04-9.05v77.12c0,6.79.16,13.6-.73,20.35.1-.81.21-1.61.32-2.41-.73,5.44-2.06,10.81-4.19,15.88.3-.72.61-1.44.91-2.16-1.67,3.94-3.82,7.67-6.43,11.07.47-.62.94-1.23,1.41-1.84-2.6,3.36-5.63,6.35-8.99,8.96.61-.47,1.22-.95,1.83-1.41-4.32,3.33-9.1,6-14.11,8.13.72-.3,1.44-.61,2.16-.91-8.57,3.61-17.7,5.69-26.89,6.94.8-.12,1.6-.22,2.4-.32-16.25,2.16-33.06,2.18-49.3.04.8.11,1.6.22,2.4.32-9.36-1.26-18.65-3.38-27.39-7.04.72.3,1.44.61,2.16.91-5.25-2.22-10.26-4.99-14.79-8.47.61.47,1.22.94,1.84,1.42-3.53-2.74-6.72-5.87-9.46-9.4.47.61.94,1.22,1.41,1.83-2.69-3.49-4.9-7.31-6.63-11.37.3.73.61,1.44.91,2.17-2.12-5.02-3.46-10.32-4.2-15.71.11.8.22,1.6.33,2.4-.6-4.53-.68-9.06-.7-13.62-.03-6.28-.05-12.56-.06-18.84-.05-17.53-.1-35.05-.03-52.59.01-3.82.01-7.64.11-11.47.12-4.93-4.21-9.04-9.05-9.04s-8.92,4.12-9.05,9.04Z"/>
        </g>
        <path class="st0" d="M50.85,88.53c-.31,12.44,0,85.92,0,85.92,0,33.39,18.71,64.35,88.45,64.07,69.01-.29,85.35-30.68,85.35-64.07v-85.92H50.85Z"/>
      </g>
      <path class="st27" d="M53.85,171.21c13.41,7.58,36.48,9.79,36.48,9.79,0,0,17.66.74,25.69-2.01,7.06-2.42,9.08-16.65,18.73-22.1,2.2-1.24,4.71-1.41,6.81,0,9.21,6.18,6.82,17.31,20.34,22.57,7.9,3.08,23.12,1.54,23.12,1.54,0,0,23.08-2.21,36.48-9.79.14,2.69.27,5.61.34,8.54.2-6.06-.03-13.29-.34-19.39-13.41,7.58-36.48,9.79-36.48,9.79,0,0-10.16,1.52-18.05-1.62-4.48-1.79-9.76-13.15-15.49-22.64h-27.59c-5.74,9.48-11.02,20.85-15.5,22.64-7.88,3.13-18.05,1.62-18.05,1.62,0,0-23.07-2.21-36.48-9.79-.31,6.1-.54,13.32-.33,19.39.08-2.94.2-5.85.33-8.54Z"/>
      <g>
        <g>
          <g>
            <g>
              <path class="st2" d="M105.1,196.87c0,7.71-6.25,13.96-13.96,13.96s-13.95-6.25-13.95-13.96,6.25-13.95,13.95-13.95,13.96,6.25,13.96,13.95Z"/>
              <path d="M103.16,196.87c-.07,5.65-3.91,10.4-9.39,11.73-5.51,1.35-11.07-1.71-13.53-6.66-2.45-4.92-.78-11.28,3.53-14.58,4.45-3.41,10.84-3.3,15.14.33,2.71,2.29,4.21,5.64,4.25,9.18.03,2.5,3.91,2.51,3.87,0-.08-6.02-3.45-11.56-8.86-14.25-5.5-2.74-12.25-1.94-17.02,1.9-4.77,3.84-6.77,10.08-5.48,16.02,1.26,5.8,6.1,10.41,11.8,11.8,9.92,2.42,19.43-5.45,19.56-15.47.03-2.5-3.84-2.49-3.87,0Z"/>
            </g>
            <path class="st15" d="M101.18,193.21c0,1.89-1.53,3.43-3.42,3.43s-3.43-1.54-3.43-3.43,1.53-3.43,3.43-3.43,3.42,1.54,3.42,3.43Z"/>
          </g>
          <path class="st13" d="M89.11,217.79c.3,2.18-3.46,4.49-8.39,5.16-4.93.67-9.17-.55-9.46-2.74-.29-2.18,3.46-4.49,8.39-5.16,4.92-.67,9.16.56,9.46,2.74Z"/>
        </g>
        <g>
          <g>
            <g>
              <path class="st2" d="M198.42,196.87c0,7.71-6.25,13.96-13.96,13.96s-13.95-6.25-13.95-13.96,6.25-13.95,13.95-13.95,13.96,6.25,13.96,13.95Z"/>
              <path d="M196.47,196.87c-.07,5.65-3.91,10.4-9.38,11.73-5.52,1.35-11.08-1.71-13.55-6.66-2.44-4.92-.78-11.28,3.54-14.58,4.45-3.41,10.84-3.3,15.13.33,2.71,2.29,4.21,5.64,4.25,9.18.03,2.5,3.91,2.51,3.88,0-.08-6.02-3.45-11.56-8.86-14.25-5.51-2.74-12.25-1.94-17.02,1.9-4.77,3.84-6.77,10.08-5.48,16.02,1.26,5.8,6.1,10.41,11.8,11.8,9.91,2.42,19.43-5.45,19.56-15.47.03-2.5-3.84-2.49-3.88,0Z"/>
            </g>
            <path class="st15" d="M194.5,193.21c0,1.89-1.54,3.43-3.43,3.43s-3.43-1.54-3.43-3.43,1.54-3.43,3.43-3.43,3.43,1.54,3.43,3.43Z"/>
          </g>
          <path class="st13" d="M186.49,217.79c-.29,2.18,3.46,4.49,8.39,5.16,4.93.67,9.16-.55,9.46-2.74.3-2.18-3.46-4.49-8.38-5.16-4.93-.67-9.16.56-9.46,2.74Z"/>
        </g>
      </g>
      <g>
        <g>
          <g>
            <g>
              <path class="st19" d="M61.23,213.93s1.37,2.02,3.48,3.96c2.1,1.93,8.13,4.47,5.55,8.17-3.05,4.37-9.38.86-12.43-1.6-3.05-2.45-6.24-5.98-6.24-5.98l9.64-4.55Z"/>
              <path d="M53.41,218.49c1.43,2.07,3.07,4.07,4.9,5.79,1.67,1.56,3.68,2.71,5.49,4.1-.61-.47-1.22-.95-1.84-1.42.66.52,1.28,1.07,1.8,1.73-.47-.61-.94-1.22-1.42-1.84.19.28.36.55.51.86-.3-.72-.61-1.44-.91-2.16.09.22.15.43.2.67-.1-.8-.21-1.6-.32-2.4.03.24.04.47.02.71.11-.8.21-1.61.32-2.41-.04.26-.1.49-.19.74.3-.72.61-1.44.91-2.16-.17.39-.38.72-.63,1.05.47-.6.94-1.22,1.41-1.83-.28.34-.58.63-.92.9.61-.47,1.22-.94,1.83-1.41-.34.23-.67.42-1.04.57.72-.3,1.44-.61,2.16-.91-.37.13-.75.22-1.13.28.8-.11,1.6-.21,2.4-.32-.62.06-1.21.04-1.82-.04.8.11,1.6.21,2.41.32-.97-.16-1.89-.46-2.79-.84.71.31,1.44.61,2.16.91-1.54-.69-2.97-1.56-4.3-2.59.61.47,1.22.94,1.83,1.41-2.33-1.84-4.46-3.95-6.45-6.14-.6,4.74-1.22,9.47-1.83,14.21,3.22-1.52,6.43-3.04,9.63-4.56,4.46-2.12,5.57-8.41,3.24-12.38-1.18-2.03-3.14-3.53-5.41-4.16-2.5-.69-4.69-.16-6.97.91-3.21,1.53-6.42,3.04-9.63,4.55-2.03.96-3.58,3.32-4.16,5.41-.89,3.24.13,6.38,2.33,8.8,2.59,2.86,5.44,5.38,8.49,7.72,3.56,2.74,8.43,4.77,12.97,4.55,3.62-.17,7.03-1.54,9.57-4.17,3.12-3.25,4.21-7.42,3.3-11.79-1.08-5.17-5.94-7.8-9.75-10.71.61.47,1.22.95,1.83,1.41-1.34-1.06-2.47-2.38-3.5-3.72.47.61.95,1.22,1.41,1.83-.16-.22-.33-.44-.49-.66-2.79-4.05-7.88-5.88-12.38-3.24-4.01,2.35-6.04,8.3-3.24,12.38Z"/>
            </g>
            <path class="st20" d="M61.23,213.93s1.37,2.02,3.48,3.96c2.1,1.93,8.13,4.47,5.55,8.17-3.05,4.37-9.38.86-12.43-1.6-3.05-2.45-6.24-5.98-6.24-5.98l9.64-4.55Z"/>
            <path class="st25" d="M64.71,217.89c-2.11-1.94-3.48-3.96-3.48-3.96l-9.64,4.55s.13.14.36.39l8.21-3.88s1.38,2.02,3.48,3.96c2.11,1.94,8.13,4.47,5.55,8.17-.03.05-.07.09-.1.14.43-.31.81-.7,1.17-1.2,2.58-3.7-3.45-6.24-5.55-8.17Z"/>
            <path class="st26" d="M59.38,223.52c-2.68-2.15-5.46-5.13-6.1-5.83l-1.69.8s3.19,3.53,6.24,5.98c2.83,2.27,8.47,5.45,11.7,2.43-3.27,1.17-7.74-1.44-10.15-3.38Z"/>
          </g>
          <g>
            <g>
              <path class="st19" d="M54.74,142.63s-1.72,19.61-1.21,33.04c.51,13.44,4.65,28.78,4.65,28.78,0,0,.79,4.54-6.03,7.41-13.78,5.8-19.64-13.1-21.54-29.64-1.89-16.54-1.68-39.59-1.68-39.59h25.8Z"/>
              <path d="M45.69,142.63c-.8,9.14-1.29,18.35-1.3,27.53-.01,12.21,1.91,24.47,4.97,36.28.04.14.09.29.11.43-.11-.8-.22-1.6-.33-2.4.05.38.02.75-.03,1.12.11-.8.22-1.6.33-2.41-.08.52-.23,1.01-.44,1.49.31-.72.61-1.44.92-2.16-.23.49-.5.94-.82,1.38.47-.61.95-1.22,1.41-1.83-.48.62-1.04,1.16-1.67,1.65.61-.47,1.22-.95,1.84-1.41-.96.71-1.99,1.28-3.09,1.75.72-.3,1.44-.61,2.16-.92-1.13.46-2.27.8-3.47.98.8-.11,1.6-.21,2.41-.33-.88.11-1.74.12-2.62.01.8.12,1.6.22,2.4.33-.83-.12-1.61-.34-2.38-.65.72.3,1.45.61,2.16.91-.85-.37-1.62-.84-2.36-1.39.61.47,1.22.94,1.83,1.41-.98-.79-1.84-1.69-2.62-2.68.48.61.95,1.21,1.42,1.83-1.44-1.89-2.53-3.99-3.46-6.17.3.72.61,1.44.91,2.17-2.31-5.58-3.54-11.57-4.36-17.54.11.81.22,1.61.33,2.41-1.84-13.78-2.08-27.89-1.95-41.79-3.02,3.02-6.04,6.03-9.05,9.05h25.8c4.93,0,9.04-4.11,9.04-9.05s-4.11-9.04-9.04-9.04h-25.8c-4.96,0-9,4.11-9.05,9.04-.08,8.64.13,17.3.59,25.93.72,13.55,1.84,27.69,7.91,40.04,2.86,5.84,7.83,11.12,14.3,12.79,8.3,2.14,17.59-1.81,22.32-8.78,2.54-3.73,2.52-8.02,1.49-12.17-1.33-5.36-2.39-10.8-3.19-16.26-.06-.43-.12-.86-.18-1.29.11.8.22,1.61.32,2.41-1.19-8.99-1.07-18.02-.67-27.06.23-5.21.55-10.42,1-15.61.44-4.92-4.44-9.04-9.04-9.04-2.39,0-4.71.96-6.4,2.64-1.81,1.81-2.43,3.93-2.65,6.4Z"/>
            </g>
            <path class="st20" d="M54.74,142.63s-1.72,19.61-1.21,33.04c.51,13.44,4.65,28.78,4.65,28.78,0,0,.79,4.54-6.03,7.41-13.78,5.8-19.64-13.1-21.54-29.64-1.89-16.54-1.68-39.59-1.68-39.59h25.8Z"/>
          </g>
          <path d="M52.25,212.61c.12.09.18.14.06.03-.17-.15-.34-.3-.5-.47-.61-.6-1.17-1.25-1.7-1.93-.17-.23-.34-.45-.51-.68-.04-.05-.08-.11-.12-.16-.05-.07-.11-.16-.14-.21-.45-.66-.88-1.34-1.29-2.03-.99-1.68-1.85-3.44-2.62-5.24-5-11.65-5.71-25.52-6.05-38.29-.14-5.09-.1-10.2.32-15.28h-5.26c-.2,2.67-.24,5.36-.28,7.98-.09,6.51.22,13.02.7,19.52.53,7.1,1.38,14.15,3.35,21.01,1.49,5.21,3.57,10.39,6.64,14.88,1.25,1.81,2.6,3.61,4.35,4.97,1.11.87,2.86.33,3.57-.77.74-1.16.4-2.46-.51-3.34Z"/>
          <path class="st25" d="M33.25,175.86c.53,7.1,1.38,14.15,3.34,21.01,1.5,5.21,3.57,10.39,6.66,14.88.11.16.22.31.32.46.6.25,1.21.44,1.86.56-.24-.34-.49-.68-.72-1.02-3.08-4.48-5.16-9.67-6.65-14.88-1.97-6.86-2.81-13.91-3.35-21.01-.48-6.49-.79-13.01-.69-19.52.03-1.94.18-9.06.35-13.71h-1.47c-.16,4.65-.31,11.77-.34,13.71-.1,6.51.21,13.02.7,19.52Z"/>
          <path class="st26" d="M31.9,182.22c-1.89-16.54-1.68-39.59-1.68-39.59h-1.29s-.22,23.05,1.68,39.59c1.56,13.62,5.81,28.82,14.96,30.54-.12-.16-.22-.3-.33-.46-8.03-3.11-11.87-17.3-13.34-30.08Z"/>
          <path class="st26" d="M51.54,210.24c-.18-.23-.35-.45-.52-.68-.04-.05-.08-.11-.12-.16-.05-.07-.11-.16-.14-.21-.46-.66-.88-1.34-1.29-2.03-.99-1.68-1.85-3.44-2.62-5.24-4.99-11.65-5.71-25.52-6.04-38.29-.13-4.71.28-15.41.67-21h-1.38c-.39,5.59-.8,16.29-.67,21,.34,12.77,1.05,26.64,6.05,38.29.77,1.8,1.62,3.56,2.62,5.24.41.69.83,1.37,1.28,2.03.03.04.09.13.15.21.04.05.08.11.12.16.17.23.34.46.51.68.5.62,1.02,1.24,1.58,1.81.16-.06.32-.12.47-.19.18-.07.35-.16.52-.23-.42-.45-.81-.92-1.19-1.39Z"/>
          <path class="st25" d="M58.18,204.45s-4.14-15.34-4.65-28.78c-.51-13.43,1.21-33.04,1.21-33.04h-1.9s-1.72,19.61-1.2,33.04c.51,13.44,4.65,28.78,4.65,28.78,0,0,.72,4.14-5.15,7.01.18.2.36.4.55.59.16-.06.31-.12.47-.19,6.83-2.87,6.03-7.41,6.03-7.41Z"/>
        </g>
        <g>
          <g>
            <g>
              <path class="st19" d="M214.12,213.93s-1.37,2.02-3.48,3.96c-2.11,1.93-8.13,4.47-5.55,8.17,3.05,4.37,9.38.86,12.43-1.6,3.05-2.45,6.24-5.98,6.24-5.98l-9.64-4.55Z"/>
              <path d="M206.31,209.36c-.15.23-.32.45-.48.66.47-.61.95-1.22,1.41-1.83-1.03,1.33-2.18,2.66-3.5,3.72.61-.47,1.22-.94,1.83-1.41-1.64,1.25-3.35,2.38-4.98,3.67-2.27,1.8-3.68,4.13-4.71,6.8-1.17,3.07-.31,7.36,1.6,9.93,1.41,1.89,2.6,3.24,4.68,4.46,2.02,1.2,3.96,1.54,6.23,1.77,4.53.46,9.45-1.75,13.04-4.35,3.18-2.31,6.08-4.99,8.72-7.9,1.64-1.81,2.65-3.91,2.65-6.4,0-2.97-1.67-6.48-4.48-7.82-3.21-1.52-6.42-3.03-9.64-4.55-2.27-1.07-4.47-1.6-6.97-.91-2.26.62-4.22,2.13-5.41,4.16-2.33,3.97-1.21,10.27,3.25,12.38,3.21,1.51,6.42,3.04,9.64,4.56-.61-4.74-1.22-9.47-1.83-14.21-1.99,2.2-4.12,4.31-6.45,6.14.61-.47,1.22-.94,1.84-1.41-1.34,1.03-2.77,1.9-4.31,2.59.72-.3,1.44-.61,2.16-.91-.91.38-1.83.68-2.8.84.8-.11,1.6-.22,2.41-.32-.61.08-1.2.09-1.82.04.81.11,1.6.21,2.41.32-.39-.06-.76-.15-1.14-.28.72.31,1.44.61,2.16.91-.37-.16-.7-.34-1.04-.57.61.47,1.22.95,1.83,1.41-.34-.27-.64-.56-.92-.9.48.61.95,1.23,1.42,1.83-.25-.33-.46-.66-.64-1.05.3.72.61,1.44.91,2.16-.08-.25-.15-.48-.19-.74.11.8.21,1.61.32,2.41-.02-.24-.01-.47.02-.71-.1.8-.22,1.61-.32,2.4.05-.24.11-.45.2-.67-.3.72-.61,1.44-.92,2.16.14-.31.31-.58.51-.86-.47.61-.95,1.23-1.42,1.84.52-.66,1.13-1.21,1.79-1.73-.61.47-1.22.94-1.83,1.42,1.82-1.39,3.76-2.58,5.48-4.1,1.86-1.65,3.5-3.76,4.9-5.79,2.8-4.07.77-10.03-3.25-12.38-4.49-2.63-9.58-.81-12.38,3.24Z"/>
            </g>
            <path class="st20" d="M214.12,213.93s-1.37,2.02-3.48,3.96c-2.11,1.93-8.13,4.47-5.55,8.17,3.05,4.37,9.38.86,12.43-1.6,3.05-2.45,6.24-5.98,6.24-5.98l-9.64-4.55Z"/>
            <path class="st25" d="M210.64,217.89c2.11-1.94,3.48-3.96,3.48-3.96l9.64,4.55s-.13.14-.36.39l-8.21-3.88s-1.38,2.02-3.48,3.96c-2.11,1.94-8.13,4.47-5.55,8.17.03.05.07.09.1.14-.42-.31-.81-.7-1.16-1.2-2.58-3.7,3.43-6.24,5.55-8.17Z"/>
            <path class="st26" d="M215.97,223.52c2.69-2.15,5.47-5.13,6.1-5.83l1.69.8s-3.19,3.53-6.24,5.98c-2.83,2.27-8.46,5.45-11.71,2.43,3.27,1.17,7.74-1.44,10.15-3.38Z"/>
          </g>
          <g>
            <g>
              <path class="st19" d="M220.61,142.63s1.72,19.61,1.21,33.04c-.52,13.44-4.66,28.78-4.66,28.78,0,0-.79,4.54,6.04,7.41,13.79,5.8,19.64-13.1,21.53-29.64,1.89-16.54,1.68-39.59,1.68-39.59h-25.8Z"/>
              <path d="M211.57,142.63c.45,5.07.75,10.15.99,15.23.42,9.16.55,18.32-.66,27.44.11-.8.22-1.61.33-2.41-.78,5.72-1.88,11.4-3.24,17-.38,1.61-.65,2.93-.87,4.61-.32,2.52.8,5.34,1.88,7.52,2.14,4.31,6.55,6.82,10.8,8.56,3.63,1.49,7.33,1.51,11.14.95,3.43-.5,6.53-2.63,9.08-4.83,2.28-1.97,4.1-4.63,5.52-7.27,3.11-5.73,4.88-12.17,6.02-18.55,1.24-6.97,1.84-14.06,2.25-21.13.52-9.01.74-18.06.66-27.09v-.04c-.04-4.93-4.08-9.04-9.05-9.04h-25.8c-4.94,0-9.05,4.11-9.05,9.04s4.11,9.05,9.05,9.05h25.8c-3.01-3.01-6.03-6.03-9.04-9.05.13,13.9-.12,28-1.95,41.79.11-.8.21-1.6.32-2.41-.82,5.97-2.04,11.96-4.36,17.54.31-.72.61-1.44.91-2.17-.92,2.18-2.02,4.28-3.46,6.17.48-.62.95-1.22,1.41-1.83-.77.99-1.63,1.89-2.62,2.68.61-.47,1.22-.95,1.84-1.41-.74.55-1.52,1.02-2.36,1.39.72-.31,1.44-.61,2.16-.91-.77.31-1.56.53-2.38.65.8-.11,1.6-.21,2.4-.33-.88.11-1.74.1-2.62-.01.8.12,1.6.22,2.4.33-1.2-.18-2.34-.52-3.46-.98.72.31,1.44.61,2.16.92-1.1-.47-2.12-1.03-3.09-1.75.61.47,1.22.94,1.84,1.41-.62-.5-1.18-1.03-1.67-1.65.47.61.94,1.22,1.41,1.83-.32-.44-.59-.89-.82-1.38.31.72.61,1.44.91,2.16-.2-.48-.35-.97-.43-1.49.11.81.21,1.6.32,2.41-.05-.37-.08-.74-.03-1.12-.11.8-.21,1.61-.32,2.4.12-.86.44-1.73.65-2.58.59-2.43,1.11-4.88,1.6-7.33,1.47-7.47,2.57-15.1,2.78-22.71.29-10.36-.35-20.78-1.2-31.11-.02-.17-.03-.34-.05-.51-.22-2.47-.84-4.58-2.65-6.4-1.68-1.69-4-2.64-6.39-2.64-4.61,0-9.48,4.12-9.05,9.04Z"/>
            </g>
            <path class="st20" d="M220.61,142.63s1.72,19.61,1.21,33.04c-.52,13.44-4.66,28.78-4.66,28.78,0,0-.79,4.54,6.04,7.41,13.79,5.8,19.64-13.1,21.53-29.64,1.89-16.54,1.68-39.59,1.68-39.59h-25.8Z"/>
          </g>
          <path d="M223.1,212.61c-.11.09-.18.14-.06.03.18-.15.34-.3.51-.47.61-.6,1.17-1.25,1.7-1.93.17-.23.35-.45.51-.68.04-.05.08-.11.12-.16.05-.07.11-.16.14-.21.46-.66.88-1.34,1.29-2.03,1-1.68,1.85-3.44,2.62-5.24,5-11.65,5.72-25.52,6.05-38.29.13-5.09.1-10.2-.32-15.28h5.26c.2,2.67.24,5.36.27,7.98.09,6.51-.21,13.02-.69,19.52-.53,7.1-1.38,14.15-3.35,21.01-1.49,5.21-3.57,10.39-6.65,14.88-1.24,1.81-2.6,3.61-4.34,4.97-1.11.87-2.86.33-3.58-.77-.74-1.16-.4-2.46.51-3.34Z"/>
          <path class="st25" d="M242.1,175.86c-.53,7.1-1.38,14.15-3.35,21.01-1.5,5.21-3.56,10.39-6.65,14.88-.11.16-.21.31-.32.46-.6.25-1.22.44-1.86.56.24-.34.48-.68.72-1.02,3.08-4.48,5.16-9.67,6.66-14.88,1.96-6.86,2.81-13.91,3.34-21.01.48-6.49.79-13.01.69-19.52-.02-1.94-.18-9.06-.34-13.71h1.47c.16,4.65.31,11.77.34,13.71.09,6.51-.21,13.02-.69,19.52Z"/>
          <path class="st26" d="M243.44,182.22c1.9-16.54,1.68-39.59,1.68-39.59h1.29s.21,23.05-1.68,39.59c-1.56,13.62-5.81,28.82-14.95,30.54.11-.16.21-.3.33-.46,8.04-3.11,11.87-17.3,13.33-30.08Z"/>
          <path class="st26" d="M223.81,210.24c.17-.23.34-.45.51-.68.04-.05.08-.11.12-.16.05-.07.11-.16.14-.21.45-.66.88-1.34,1.28-2.03,1-1.68,1.85-3.44,2.62-5.24,5-11.65,5.71-25.52,6.05-38.29.13-4.71-.28-15.41-.68-21h1.39c.39,5.59.79,16.29.67,21-.34,12.77-1.05,26.64-6.05,38.29-.77,1.8-1.62,3.56-2.62,5.24-.41.69-.83,1.37-1.29,2.03-.03.04-.09.13-.14.21-.04.05-.08.11-.12.16-.17.23-.35.46-.52.68-.5.62-1.02,1.24-1.58,1.81-.16-.06-.31-.12-.47-.19-.18-.07-.35-.16-.52-.23.41-.45.81-.92,1.19-1.39Z"/>
          <path class="st25" d="M217.17,204.45s4.14-15.34,4.66-28.78c.51-13.43-1.21-33.04-1.21-33.04h1.89s1.72,19.61,1.21,33.04c-.51,13.44-4.65,28.78-4.65,28.78,0,0-.72,4.14,5.16,7.01-.18.2-.36.4-.55.59-.16-.06-.31-.12-.47-.19-6.82-2.87-6.04-7.41-6.04-7.41Z"/>
        </g>
      </g>
      <g>
        <g>
          <path class="st19" d="M237.9,75.1c-10.85-35.48-44.28-66.05-100.23-66.05S48.3,39.62,37.45,75.1c-10.85,35.49-2.49,60.59-2.49,60.59l19.06-13.3c0,.09.02.14.02.14,0,0,33.6-20.35,83.63-20.35s83.64,20.35,83.64,20.35c0,0,0-.05.01-.14l19.06,13.3s8.36-25.09-2.49-60.59Z"/>
          <path d="M246.62,72.7c-3.07-9.99-7.67-19.61-13.76-28.13-6.86-9.59-15.13-17.68-24.78-24.45C186.53,4.98,159.34-.65,133.36.06c-13.6.38-27.34,2.52-40.19,7.03-11.91,4.19-22.75,10.21-32.59,18.08-8.47,6.77-15.69,15.18-21.41,24.37-6.24,10.02-10.37,21.26-12.98,32.74-2.9,12.8-4.1,26.19-2.85,39.29.52,5.47,1.16,11.27,2.91,16.53.75,2.28,2.04,4.17,4.16,5.4,2.62,1.54,6.53,1.81,9.14,0,6.35-4.43,12.7-8.86,19.06-13.29-4.54-2.6-9.08-5.21-13.61-7.82,0,.05,0,.09.01.14.32,3.26,1.52,6.08,4.48,7.81,2.76,1.62,6.38,1.67,9.13,0,4.08-2.47,8.51-4.43,12.9-6.28-.72.3-1.44.61-2.16.91,14.7-6.18,30.27-10.28,46.06-12.41-.8.1-1.6.21-2.41.32,16.38-2.18,33-2.18,49.37,0-.8-.12-1.6-.22-2.4-.32,15.79,2.13,31.35,6.23,46.05,12.41-.72-.3-1.44-.61-2.16-.91,4.38,1.85,8.81,3.81,12.89,6.28,2.76,1.67,6.38,1.62,9.13,0,2.97-1.74,4.15-4.55,4.48-7.81,0-.05,0-.09.01-.14-4.54,2.61-9.08,5.21-13.62,7.82,6.36,4.43,12.71,8.86,19.06,13.29,1.91,1.34,4.79,1.51,6.97.92,3.16-.87,5.31-3.29,6.32-6.32,1.77-5.35,2.4-11.24,2.94-16.8,1.26-13.32-.09-26.94-3.1-39.95-.67-2.9-1.46-5.78-2.33-8.64-1.43-4.71-6.28-7.65-11.13-6.32-4.65,1.28-7.74,6.41-6.32,11.13,2.02,6.63,3.52,13.4,4.48,20.27-.11-.8-.22-1.6-.33-2.41,1.32,9.87,1.5,19.91.19,29.79.1-.81.21-1.61.32-2.41-.48,3.52-1.05,7.14-2.17,10.52,4.43-1.8,8.86-3.61,13.28-5.4-6.35-4.44-12.71-8.87-19.06-13.3-2.59-1.81-6.51-1.54-9.13,0-2.96,1.73-4.15,4.54-4.48,7.81,0,.05,0,.09-.01.14,4.53-2.6,9.07-5.21,13.61-7.81-3.08-1.86-6.39-3.4-9.67-4.87-9.25-4.17-18.81-7.59-28.61-10.2-28.77-7.64-59.05-8.39-88.24-2.67-10.72,2.1-21.26,5.17-31.42,9.17-5.94,2.33-11.85,4.88-17.43,7.98-.34.2-.69.39-1.03.59,4.54,2.6,9.07,5.21,13.61,7.81,0-.05,0-.09-.01-.14-.32-3.26-1.52-6.08-4.48-7.81-2.62-1.54-6.54-1.81-9.13,0-6.36,4.43-12.71,8.86-19.07,13.3,4.42,1.8,8.86,3.6,13.28,5.4-1.12-3.38-1.69-7-2.17-10.52.11.8.22,1.6.33,2.41-1.32-9.88-1.14-19.92.18-29.79-.11.8-.21,1.6-.32,2.41,1.36-9.9,3.75-19.78,7.64-29-.31.71-.61,1.44-.91,2.16,2.98-7,6.83-13.61,11.48-19.64-.48.61-.95,1.22-1.42,1.83,4.68-6.04,10.09-11.45,16.13-16.14-.61.47-1.22.95-1.83,1.42,6.58-5.08,13.8-9.24,21.44-12.49-.72.3-1.44.61-2.16.91,9.37-3.94,19.26-6.48,29.31-7.85-.8.11-1.6.22-2.4.32,12.37-1.64,25.01-1.64,37.39,0-.8-.1-1.6-.21-2.41-.32,10.06,1.37,19.95,3.91,29.31,7.85-.72-.3-1.44-.61-2.16-.91,7.64,3.25,14.87,7.41,21.45,12.49-.61-.47-1.23-.95-1.83-1.42,6.03,4.69,11.45,10.1,16.12,16.14-.47-.61-.95-1.22-1.41-1.83,4.64,6.04,8.49,12.64,11.47,19.64-.3-.72-.61-1.44-.91-2.16,1.21,2.86,2.26,5.77,3.17,8.73,1.45,4.7,6.27,7.65,11.13,6.31,4.64-1.27,7.77-6.41,6.32-11.12Z"/>
        </g>
        <path class="st20" d="M237.9,75.1c-10.85-35.48-44.28-66.05-100.23-66.05S48.3,39.62,37.45,75.1c-10.85,35.49-2.49,60.59-2.49,60.59l19.06-13.3c0,.09.02.14.02.14,0,0,33.6-20.35,83.63-20.35s83.64,20.35,83.64,20.35c0,0,0-.05.01-.14l19.06,13.3s8.36-25.09-2.49-60.59Z"/>
        <path class="st21" d="M37.45,80.53C48.3,45.05,81.73,14.47,137.67,14.47s89.38,30.57,100.23,66.06c3.89,12.69,5.31,24.06,5.54,33.42.24-10.25-.86-23.59-5.54-38.86-10.85-35.48-44.28-66.05-100.23-66.05S48.3,39.62,37.45,75.1c-4.67,15.27-5.78,28.61-5.53,38.86.23-9.36,1.65-20.73,5.53-33.42Z"/>
      </g>
      <path class="st15" d="M189.94,32.17c9.66,5.17,15.38,13.3,12.78,18.16-2.6,4.87-12.54,4.62-22.2-.54-9.66-5.17-15.38-13.3-12.78-18.16,2.6-4.87,12.54-4.62,22.2.54Z"/>
      <path class="st15" d="M212.46,54.72c.25,2.18-1.3,4.15-3.48,4.4-2.17.26-4.14-1.3-4.4-3.48-.25-2.18,1.3-4.14,3.48-4.39,2.18-.26,4.15,1.3,4.41,3.47Z"/>
      <path class="st18" d="M227.75,88.13H38.25c-1.35,0-2.7-.03-4.06-.03-.58,2.94-1.03,5.79-1.37,8.53,1.82-.02,3.65.03,5.44.03h204.28c-.34-2.73-.8-5.58-1.37-8.53h-13.41Z"/>
      <g>
        <g>
          <g>
            <g>
              <path d="M127.56,33.61c0,.7-.57,1.27-1.26,1.27h0c-.7,0-1.26-.57-1.26-1.27v-6.7c0-.7.57-1.27,1.26-1.27h0c.7,0,1.26.57,1.26,1.27v6.7Z"/>
              <g>
                <path d="M127.56,48.71c0,.7-.57,1.26-1.26,1.26h0c-.7,0-1.26-.56-1.26-1.26v-6.7c0-.69.57-1.26,1.26-1.26h0c.7,0,1.26.56,1.26,1.26v6.7Z"/>
                <path d="M127.56,20.17c0,.7-.57,1.27-1.26,1.27h0c-.7,0-1.26-.57-1.26-1.27v-6.7c0-.7.57-1.26,1.26-1.26h0c.7,0,1.26.56,1.26,1.26v6.7Z"/>
              </g>
            </g>
            <path d="M127.56,62.1c0,.7-.57,1.26-1.26,1.26h0c-.7,0-1.26-.56-1.26-1.26v-6.69c0-.7.57-1.26,1.26-1.26h0c.7,0,1.26.57,1.26,1.26v6.69Z"/>
          </g>
          <g>
            <path d="M127.56,90.65c0,.69-.57,1.26-1.26,1.26h0c-.7,0-1.26-.56-1.26-1.26v-6.7c0-.7.57-1.26,1.26-1.26h0c.7,0,1.26.57,1.26,1.26v6.7Z"/>
            <path d="M127.56,77.2c0,.7-.57,1.26-1.26,1.26h0c-.7,0-1.26-.56-1.26-1.26v-6.7c0-.69.57-1.26,1.26-1.26h0c.7,0,1.26.57,1.26,1.26v6.7Z"/>
          </g>
        </g>
        <g>
          <g>
            <g>
              <path d="M150.31,33.61c0,.7-.57,1.27-1.27,1.27h0c-.7,0-1.26-.57-1.26-1.27v-6.7c0-.7.57-1.27,1.26-1.27h0c.7,0,1.27.57,1.27,1.27v6.7Z"/>
              <g>
                <path d="M150.31,48.71c0,.7-.57,1.26-1.27,1.26h0c-.7,0-1.26-.56-1.26-1.26v-6.7c0-.69.57-1.26,1.26-1.26h0c.7,0,1.27.56,1.27,1.26v6.7Z"/>
                <path d="M150.31,20.17c0,.7-.57,1.27-1.27,1.27h0c-.7,0-1.26-.57-1.26-1.27v-6.7c0-.7.57-1.26,1.26-1.26h0c.7,0,1.27.56,1.27,1.26v6.7Z"/>
              </g>
            </g>
            <path d="M150.31,62.1c0,.7-.57,1.26-1.27,1.26h0c-.7,0-1.26-.56-1.26-1.26v-6.69c0-.7.57-1.26,1.26-1.26h0c.7,0,1.27.57,1.27,1.26v6.69Z"/>
          </g>
          <g>
            <path d="M150.31,90.65c0,.69-.57,1.26-1.27,1.26h0c-.7,0-1.26-.56-1.26-1.26v-6.7c0-.7.57-1.26,1.26-1.26h0c.7,0,1.27.57,1.27,1.26v6.7Z"/>
            <path d="M150.31,77.2c0,.7-.57,1.26-1.27,1.26h0c-.7,0-1.26-.56-1.26-1.26v-6.7c0-.69.57-1.26,1.26-1.26h0c.7,0,1.27.57,1.27,1.26v6.7Z"/>
          </g>
        </g>
      </g>
      <path class="st23" d="M233.27,89.13c-4.1-4.17-8.65-8.21-13.99-10.66-12.34-5.64-25.97-8.21-39.32-10.12-33.74-4.84-68.3-4.26-101.67,3-5.86,1.28-11.71,2.79-17.31,4.95-2.72,1.04-5.46,2.16-8.01,3.61-2.72,1.54-5.1,3.67-7.45,5.73-5.21,4.57-9.92,9.95-13.37,16.01-1.12,13.43.31,23.7,1.48,29.3.15-7.78,1.95-15.41,5.48-22.39,3.24-6.43,8.06-12.11,13.45-16.84,2.17-1.9,4.36-3.87,6.88-5.29,2.34-1.33,4.88-2.37,7.39-3.33,5.17-1.99,10.58-3.39,15.99-4.58,30.82-6.7,62.74-7.24,93.9-2.77,12.32,1.77,24.92,4.13,36.31,9.35,4.94,2.26,9.14,6,12.93,9.84,5.53,5.62,9.66,12.02,12.5,19.33.1.24.18.47.27.71,1.78,4.96,2.66,10.33,2.76,15.72,1.15-5.61,2.52-15.69,1.45-28.81-2.62-4.63-5.84-8.88-9.67-12.78Z"/>
      <g>
        <g>
          <path class="st19" d="M244.1,105.69H31.24c-7.87,0-14.25,6.38-14.25,14.26v7.13c0,7.87,6.38,14.25,14.25,14.25h212.86c7.88,0,14.26-6.38,14.26-14.25v-7.13c0-7.87-6.38-14.26-14.26-14.26Z"/>
          <path d="M244.1,96.64H38.25c-4.51,0-9.22-.33-13.6.95-7.95,2.33-14.63,9.25-16.18,17.47-.75,3.96-.54,8-.54,12.02,0,8.42,4.81,16.65,12.33,20.54,7.19,3.73,15.64,2.75,23.48,2.75h200.33c2.64,0,5.44-.42,7.91-1.41,1.91-.77,3.73-1.54,5.37-2.78,2.4-1.79,4.06-3.46,5.87-5.86,3.71-4.94,4.19-10.88,4.19-16.82s-.47-11.87-4.19-16.82c-2.25-2.98-4.79-5.56-8.15-7.3-3.43-1.78-7.1-2.7-10.97-2.75-4.93-.06-9.04,4.16-9.04,9.05s4.11,8.99,9.04,9.05c.6,0,1.19.04,1.79.1-.8-.1-1.6-.21-2.4-.32,1.27.18,2.49.5,3.68.98-.72-.3-1.44-.61-2.16-.91,1.15.5,2.22,1.12,3.22,1.87-.61-.47-1.23-.95-1.84-1.41.98.77,1.84,1.63,2.62,2.62-.47-.61-.94-1.22-1.41-1.83.75,1,1.37,2.07,1.86,3.21-.3-.71-.61-1.43-.91-2.15.48,1.19.8,2.41.98,3.68-.11-.8-.21-1.6-.33-2.4.2,1.77.11,3.57.11,5.35s.09,3.58-.11,5.35c.11-.8.22-1.61.33-2.41-.18,1.28-.49,2.49-.98,3.68.31-.72.61-1.44.91-2.16-.49,1.15-1.11,2.22-1.86,3.21.47-.61.95-1.22,1.41-1.82-.77.97-1.63,1.84-2.62,2.61.61-.47,1.22-.95,1.84-1.41-1,.75-2.07,1.37-3.22,1.87.72-.3,1.44-.61,2.16-.91-1.19.48-2.41.8-3.68.97.8-.1,1.6-.21,2.4-.32-1.89.21-3.84.12-5.74.12H39.18c-3.21,0-6.53.25-9.72-.12.8.11,1.6.22,2.4.32-1.27-.17-2.49-.49-3.68-.97.72.3,1.44.61,2.16.91-1.15-.5-2.21-1.12-3.22-1.87.61.47,1.22.94,1.83,1.41-.98-.77-1.84-1.63-2.61-2.61.47.61.94,1.22,1.41,1.82-.75-1-1.37-2.07-1.86-3.21.3.72.61,1.44.91,2.16-.48-1.19-.81-2.41-.98-3.68.11.8.22,1.61.32,2.41-.19-1.77-.11-3.58-.11-5.35s-.09-3.59.11-5.35c-.1.8-.21,1.61-.32,2.4.17-1.27.5-2.49.98-3.68-.3.72-.61,1.44-.91,2.15.5-1.14,1.11-2.21,1.86-3.21-.47.61-.94,1.22-1.41,1.83.76-.98,1.63-1.85,2.61-2.62-.61.47-1.22.94-1.83,1.41,1-.75,2.06-1.37,3.22-1.87-.72.3-1.44.61-2.16.91,1.19-.48,2.41-.8,3.68-.98-.8.12-1.6.22-2.4.32,3.37-.38,6.88-.1,10.27-.1h204.38c4.94,0,9.05-4.12,9.05-9.05s-4.11-9.05-9.05-9.05Z"/>
        </g>
        <path class="st26" d="M244.1,105.69H31.24c-7.87,0-14.25,6.38-14.25,14.26v7.13c0,7.87,6.38,14.25,14.25,14.25h212.86c7.88,0,14.26-6.38,14.26-14.25v-7.13c0-7.87-6.38-14.26-14.26-14.26Z"/>
        <path class="st21" d="M244.1,105.69H31.24c-7.87,0-14.25,6.38-14.25,14.26v5.43c0-7.88,6.38-14.26,14.25-14.26h212.86c7.88,0,14.26,6.38,14.26,14.26v-5.43c0-7.87-6.38-14.26-14.26-14.26Z"/>
        <path class="st18" d="M244.1,141.33H31.24c-7.87,0-14.25-6.38-14.25-14.25v-5.43c0,7.87,6.38,14.26,14.25,14.26h212.86c7.88,0,14.26-6.39,14.26-14.26v5.43c0,7.87-6.38,14.25-14.26,14.25Z"/>
      </g>
      <rect class="st2" x="133.02" y="1.98" width="9.31" height="76.51"/>
      <g>
        <g>
          <g>
            <path class="st19" d="M33.64,123.05c0,1.29-1.04,2.33-2.32,2.33H11.4c-1.29,0-2.33-1.04-2.33-2.33h0c0-1.28,1.04-2.33,2.33-2.33h19.92c1.28,0,2.32,1.04,2.32,2.33h0Z"/>
            <path d="M24.6,123.05c-.02.12-.02.23-.03.34.1-.8.21-1.6.32-2.4-.04.22-.1.43-.19.64.3-.72.61-1.44.91-2.16-.1.2-.21.38-.35.55.47-.61.94-1.22,1.41-1.83-.07.07-.15.15-.23.23.61-.47,1.22-.95,1.83-1.41-.17.14-.35.26-.54.35.72-.31,1.44-.61,2.16-.91-.2.09-.41.16-.63.19.8-.11,1.6-.21,2.4-.32-3.4.25-6.89.02-10.3.02s-6.9.23-10.3-.02c.8.11,1.6.21,2.4.32-.22-.04-.43-.1-.64-.19.72.31,1.44.61,2.16.91-.2-.09-.38-.21-.54-.35.61.47,1.22.94,1.83,1.41-.08-.08-.16-.16-.23-.23.47.61.94,1.22,1.42,1.83-.14-.17-.26-.35-.36-.55.31.72.61,1.44.92,2.16-.1-.21-.16-.42-.19-.64.11.8.22,1.61.32,2.4-.02-.23-.02-.46,0-.68-.1.8-.21,1.61-.32,2.4.03-.22.1-.43.19-.63-.3.72-.61,1.44-.92,2.15.1-.2.21-.38.36-.54-.47.61-.94,1.22-1.42,1.83.07-.07.15-.15.23-.23-.61.47-1.22.95-1.83,1.42.16-.14.35-.27.54-.36-.72.3-1.44.61-2.16.91.21-.09.41-.16.64-.19-.8.11-1.6.22-2.4.32,3.4-.25,6.89-.02,10.3-.02s6.9-.22,10.3.02c-.8-.11-1.6-.21-2.4-.32.22.03.43.1.63.19-.72-.3-1.44-.61-2.16-.91.2.09.38.21.54.36-.61-.47-1.22-.95-1.83-1.42.08.08.15.16.23.23-.47-.61-.94-1.22-1.41-1.83.14.16.26.35.35.54-.31-.72-.61-1.44-.91-2.15.1.2.15.41.19.63-.11-.8-.22-1.6-.32-2.4,0,.12,0,.22.03.34.35,4.92,3.83,9.05,9.04,9.05,4.66,0,9.41-4.13,9.05-9.05-.31-4.13-2.06-7.82-5.82-9.92-1.8-1-3.77-1.45-5.82-1.45H11.66c-1.23,0-2.51.1-3.65.54-2.73,1.04-4.42,2.4-6.18,4.74-1.32,1.75-1.65,3.98-1.81,6.09-.29,3.97,2.5,8.08,5.83,9.92,1.8,1,3.77,1.45,5.81,1.45h19.38c1.23,0,2.51-.1,3.66-.54,2.72-1.04,4.41-2.4,6.18-4.74,1.32-1.74,1.65-3.98,1.8-6.09.36-4.92-4.39-9.04-9.05-9.04-5.21,0-8.69,4.13-9.04,9.04Z"/>
          </g>
          <path class="st20" d="M33.64,123.05c0,1.29-1.04,2.33-2.32,2.33H11.4c-1.29,0-2.33-1.04-2.33-2.33h0c0-1.28,1.04-2.33,2.33-2.33h19.92c1.28,0,2.32,1.04,2.32,2.33h0Z"/>
          <path class="st26" d="M11.4,121.76h19.92c1.1,0,2.03.78,2.27,1.81.03-.17.06-.33.06-.52,0-1.28-1.04-2.33-2.32-2.33H11.4c-1.29,0-2.33,1.04-2.33,2.33,0,.19.02.35.06.52.24-1.03,1.16-1.81,2.27-1.81Z"/>
          <path class="st23" d="M11.4,124.35h19.92c1.1,0,2.03-.77,2.27-1.81.03.17.06.34.06.51,0,1.29-1.04,2.33-2.32,2.33H11.4c-1.29,0-2.33-1.04-2.33-2.33,0-.17.02-.35.06-.51.24,1.03,1.16,1.81,2.27,1.81Z"/>
        </g>
        <g>
          <g>
            <path class="st19" d="M266.27,123.05c0,1.29-1.04,2.33-2.32,2.33h-19.92c-1.28,0-2.33-1.04-2.33-2.33h0c0-1.28,1.04-2.33,2.33-2.33h19.92c1.28,0,2.32,1.04,2.32,2.33h0Z"/>
            <path d="M257.23,123.05c0,.12-.01.23-.03.34.11-.8.22-1.6.32-2.4-.03.22-.09.43-.19.64.31-.72.61-1.44.91-2.16-.09.2-.21.38-.35.55.47-.61.94-1.22,1.41-1.83-.08.07-.15.15-.23.23.61-.47,1.22-.95,1.83-1.41-.16.14-.35.26-.54.35.72-.31,1.44-.61,2.16-.91-.2.09-.41.16-.64.19.81-.11,1.6-.21,2.41-.32-3.41.25-6.9.02-10.3.02s-6.9.23-10.3-.02c.8.11,1.61.21,2.41.32-.22-.04-.44-.1-.64-.19.72.31,1.44.61,2.16.91-.2-.09-.38-.21-.55-.35.61.47,1.22.94,1.83,1.41-.07-.08-.15-.16-.23-.23.47.61.94,1.22,1.41,1.83-.14-.17-.26-.35-.35-.55.31.72.61,1.44.91,2.16-.09-.21-.16-.42-.19-.64.11.8.21,1.61.32,2.4-.03-.23-.03-.46,0-.68-.11.8-.21,1.61-.32,2.4.03-.22.1-.43.19-.63-.31.72-.61,1.44-.91,2.15.1-.2.21-.38.35-.54-.47.61-.94,1.22-1.41,1.83.08-.07.15-.15.23-.23-.61.47-1.22.95-1.83,1.42.17-.14.35-.27.55-.36-.72.3-1.44.61-2.16.91.2-.09.42-.16.64-.19-.8.11-1.6.22-2.41.32,3.4-.25,6.89-.02,10.3-.02s6.9-.22,10.3.02c-.81-.11-1.6-.21-2.41-.32.23.03.43.1.64.19-.72-.3-1.44-.61-2.16-.91.2.09.38.21.54.36-.61-.47-1.22-.95-1.83-1.42.08.08.16.16.23.23-.47-.61-.95-1.22-1.41-1.83.14.16.26.35.35.54-.3-.72-.61-1.44-.91-2.15.1.2.16.41.19.63-.11-.8-.21-1.6-.32-2.4.01.12.02.22.03.34.36,4.92,3.84,9.05,9.04,9.05,4.66,0,9.42-4.13,9.05-9.05-.3-4.13-2.05-7.82-5.82-9.92-1.8-1-3.78-1.45-5.82-1.45h-19.38c-1.23,0-2.5.1-3.66.54-2.72,1.04-4.42,2.4-6.18,4.74-1.32,1.75-1.65,3.98-1.8,6.09-.29,3.97,2.5,8.08,5.83,9.92,1.79,1,3.77,1.45,5.82,1.45h19.38c1.23,0,2.51-.1,3.65-.54,2.72-1.04,4.42-2.4,6.18-4.74,1.32-1.74,1.66-3.98,1.8-6.09.37-4.92-4.38-9.04-9.05-9.04-5.2,0-8.68,4.13-9.04,9.04Z"/>
          </g>
          <path class="st20" d="M266.27,123.05c0,1.29-1.04,2.33-2.32,2.33h-19.92c-1.28,0-2.33-1.04-2.33-2.33h0c0-1.28,1.04-2.33,2.33-2.33h19.92c1.28,0,2.32,1.04,2.32,2.33h0Z"/>
          <path class="st26" d="M244.03,121.76h19.92c1.11,0,2.03.78,2.26,1.81.04-.17.06-.33.06-.52,0-1.28-1.04-2.33-2.32-2.33h-19.92c-1.28,0-2.33,1.04-2.33,2.33,0,.19.03.35.06.52.23-1.03,1.16-1.81,2.27-1.81Z"/>
          <path class="st23" d="M244.03,124.35h19.92c1.11,0,2.03-.77,2.26-1.81.04.17.06.34.06.51,0,1.29-1.04,2.33-2.32,2.33h-19.92c-1.28,0-2.33-1.04-2.33-2.33,0-.17.03-.35.06-.51.23,1.03,1.16,1.81,2.27,1.81Z"/>
        </g>
      </g>
      <g>
        <g>
          <g>
            <g>
              <path class="st19" d="M33.77,116.75c-3.41,0-6.17,2.75-6.17,6.16s2.76,6.16,6.17,6.16,6.16-2.76,6.16-6.16-2.77-6.16-6.16-6.16ZM33.77,126.57c-2.03,0-3.67-1.64-3.67-3.66s1.64-3.66,3.67-3.66,3.66,1.64,3.66,3.66-1.64,3.66-3.66,3.66Z"/>
              <g>
                <path d="M33.77,107.7c-8.44.24-14.97,6.77-15.21,15.2-.12,4.01,1.75,7.89,4.45,10.75,2.77,2.92,6.81,4.34,10.76,4.46,4.01.12,7.89-1.75,10.75-4.46,2.91-2.77,4.33-6.81,4.46-10.75.11-4.02-1.75-7.89-4.46-10.75-2.77-2.92-6.81-4.34-10.75-4.45-4.94-.14-9.05,4.22-9.05,9.05s4.12,8.9,9.05,9.04c.24,0,.47.02.72.05-.8-.11-1.6-.22-2.41-.32.59.08,1.13.22,1.68.44-.72-.3-1.44-.61-2.16-.91.52.23.99.52,1.45.87-.61-.47-1.22-.94-1.82-1.41.35.3.66.61.95.95-.47-.61-.94-1.22-1.42-1.84.35.46.63.94.87,1.47-.31-.72-.61-1.45-.91-2.17.21.56.35,1.1.44,1.69-.11-.8-.22-1.6-.32-2.41.04.49.04.95,0,1.44.1-.8.21-1.6.32-2.41-.09.59-.23,1.13-.44,1.68.3-.72.61-1.44.91-2.16-.24.52-.52.99-.87,1.46.48-.61.94-1.22,1.42-1.83-.29.35-.61.66-.95.95.61-.47,1.22-.94,1.82-1.41-.46.35-.93.63-1.45.87.72-.3,1.44-.61,2.16-.91-.55.21-1.09.35-1.68.44.8-.11,1.6-.22,2.41-.33-.49.05-.96.05-1.44,0,.81.11,1.6.22,2.41.33-.59-.09-1.13-.23-1.68-.44.72.3,1.44.61,2.16.91-.52-.24-.99-.52-1.45-.87.61.47,1.22.95,1.83,1.41-.35-.29-.66-.61-.95-.95.47.61.94,1.22,1.41,1.83-.35-.46-.63-.94-.87-1.46.31.72.61,1.44.91,2.16-.21-.55-.35-1.09-.44-1.68.11.81.21,1.61.32,2.41-.04-.48-.04-.95,0-1.44-.11.81-.21,1.61-.32,2.41.09-.58.23-1.13.44-1.69-.3.72-.6,1.45-.91,2.17.24-.53.52-1,.87-1.47-.47.62-.95,1.23-1.41,1.84.29-.35.6-.66.95-.95-.61.47-1.22.94-1.83,1.41.46-.35.93-.63,1.45-.87-.71.3-1.44.61-2.16.91.55-.21,1.09-.36,1.68-.44-.81.1-1.6.21-2.41.32.24-.03.48-.05.72-.05,4.92-.14,9.04-4,9.04-9.04s-4.11-9.19-9.04-9.05Z"/>
                <path d="M33.77,117.53c-.12,0-.24,0-.36-.02.8.11,1.6.21,2.4.32-.35-.05-.66-.12-1-.24.72.31,1.44.61,2.17.92-.31-.14-.59-.3-.87-.49.61.47,1.22.94,1.83,1.41-.26-.22-.48-.44-.7-.7.47.61.94,1.22,1.41,1.83-.2-.28-.35-.55-.49-.87.3.72.6,1.44.91,2.17-.12-.34-.18-.65-.24-1,.11.8.22,1.61.33,2.41-.03-.24-.03-.47,0-.71-.11.8-.22,1.61-.33,2.4.05-.35.12-.66.24-1-.31.73-.61,1.44-.91,2.17.14-.32.29-.58.49-.87-.47.62-.94,1.22-1.41,1.84.22-.27.44-.48.7-.7-.61.48-1.22.95-1.83,1.41.28-.19.56-.35.87-.49-.72.3-1.44.61-2.17.92.34-.12.65-.19,1-.24-.8.11-1.6.22-2.4.32.24-.02.47-.02.71,0-.81-.1-1.6-.21-2.41-.32.35.05.66.13,1,.24-.72-.31-1.44-.61-2.16-.92.31.14.58.3.87.49-.61-.47-1.22-.94-1.83-1.41.26.22.48.44.7.7-.47-.61-.94-1.22-1.41-1.84.19.29.35.55.49.87-.31-.72-.61-1.44-.92-2.17.12.34.19.65.24,1-.11-.8-.21-1.61-.32-2.4.02.23.02.47,0,.71.11-.8.21-1.61.32-2.41-.05.35-.12.66-.24,1,.31-.72.61-1.44.92-2.17-.14.31-.3.59-.49.87.47-.61.94-1.22,1.41-1.83-.22.27-.44.48-.7.7.61-.47,1.22-.95,1.83-1.41-.29.19-.56.35-.87.49.72-.3,1.43-.61,2.16-.92-.34.12-.64.19-1,.24.81-.11,1.6-.21,2.41-.32-.12.01-.24.01-.35.02-4.93.24-9.05,3.94-9.05,9.04,0,4.76,4.12,9.28,9.05,9.05,7.15-.34,12.37-5.56,12.71-12.71.16-3.4-1.52-6.37-3.61-8.87-2.17-2.61-5.86-3.68-9.1-3.84-3.4-.16-6.37,1.52-8.87,3.61-2.61,2.17-3.7,5.87-3.84,9.1-.16,3.39,1.52,6.37,3.61,8.87,2.17,2.6,5.86,3.69,9.1,3.85,4.92.22,9.04-4.29,9.04-9.05,0-5.11-4.12-8.81-9.04-9.04Z"/>
              </g>
            </g>
            <path class="st20" d="M33.77,116.75c-3.41,0-6.17,2.75-6.17,6.16s2.76,6.16,6.17,6.16,6.16-2.76,6.16-6.16-2.77-6.16-6.16-6.16ZM33.77,126.57c-2.03,0-3.67-1.64-3.67-3.66s1.64-3.66,3.67-3.66,3.66,1.64,3.66,3.66-1.64,3.66-3.66,3.66Z"/>
            <g>
              <path class="st21" d="M34.2,126.55c.14,0,.28.02.43.02,2.02,0,3.66-1.64,3.66-3.66s-1.64-3.66-3.66-3.66c-.15,0-.29.01-.43.03,1.82.21,3.23,1.76,3.23,3.64s-1.41,3.42-3.23,3.64Z"/>
              <path class="st21" d="M28.48,122.91c0-3.26,2.52-5.92,5.73-6.14-.14-.01-.28-.02-.43-.02-3.41,0-6.17,2.75-6.17,6.16s2.76,6.16,6.17,6.16c.14,0,.28,0,.43-.02-3.2-.22-5.73-2.88-5.73-6.14Z"/>
            </g>
          </g>
          <g>
            <g>
              <path class="st19" d="M241.58,116.75c-3.4,0-6.16,2.75-6.16,6.16s2.76,6.16,6.16,6.16,6.17-2.76,6.17-6.16-2.76-6.16-6.17-6.16ZM241.58,126.57c-2.02,0-3.66-1.64-3.66-3.66s1.64-3.66,3.66-3.66,3.67,1.64,3.67,3.66-1.64,3.66-3.67,3.66Z"/>
              <g>
                <path d="M241.58,107.7c-8.43.24-14.96,6.77-15.21,15.2-.12,4.01,1.75,7.89,4.45,10.75,2.77,2.92,6.81,4.34,10.75,4.46,4.02.12,7.9-1.75,10.75-4.46,2.92-2.77,4.34-6.81,4.45-10.75.12-4.02-1.74-7.89-4.45-10.75-2.77-2.92-6.81-4.34-10.75-4.45-4.93-.14-9.05,4.22-9.05,9.05s4.12,8.9,9.05,9.04c.24,0,.48.02.73.05-.8-.11-1.61-.22-2.41-.32.58.08,1.13.22,1.67.44-.72-.3-1.43-.61-2.16-.91.52.23,1,.52,1.46.87-.61-.47-1.22-.94-1.83-1.41.34.3.66.61.96.95-.48-.61-.95-1.22-1.42-1.84.35.46.63.94.87,1.47-.31-.72-.61-1.45-.91-2.17.21.56.36,1.1.44,1.69-.11-.8-.21-1.6-.32-2.41.03.49.03.95,0,1.44.1-.8.21-1.6.32-2.41-.08.59-.23,1.13-.44,1.68.3-.72.61-1.44.91-2.16-.24.52-.53.99-.87,1.46.47-.61.94-1.22,1.42-1.83-.3.35-.61.66-.96.95.6-.47,1.22-.94,1.83-1.41-.46.35-.93.63-1.46.87.72-.3,1.44-.61,2.16-.91-.55.21-1.09.35-1.67.44.8-.11,1.6-.22,2.41-.33-.49.05-.96.05-1.44,0,.8.11,1.6.22,2.41.33-.59-.09-1.13-.23-1.68-.44.72.3,1.44.61,2.16.91-.53-.24-1-.52-1.45-.87.61.47,1.22.95,1.83,1.41-.35-.29-.66-.61-.95-.95.47.61.94,1.22,1.41,1.83-.35-.46-.63-.94-.87-1.46.31.72.61,1.44.91,2.16-.21-.55-.36-1.09-.44-1.68.11.81.22,1.61.33,2.41-.05-.48-.05-.95,0-1.44-.11.81-.22,1.61-.33,2.41.09-.58.23-1.13.44-1.69-.3.72-.61,1.45-.91,2.17.24-.53.52-1,.87-1.47-.47.62-.95,1.23-1.41,1.84.29-.35.61-.66.95-.95-.61.47-1.22.94-1.83,1.41.46-.35.93-.63,1.45-.87-.72.3-1.44.61-2.16.91.55-.21,1.09-.36,1.68-.44-.81.1-1.6.21-2.41.32.24-.03.47-.05.72-.05,4.93-.14,9.05-4,9.05-9.04s-4.12-9.19-9.05-9.05Z"/>
                <path d="M241.58,117.53c-.12,0-.23,0-.35-.02.8.11,1.61.21,2.41.32-.35-.05-.66-.12-1-.24.72.31,1.44.61,2.16.92-.31-.14-.59-.3-.87-.49.61.47,1.22.94,1.84,1.41-.27-.22-.49-.44-.7-.7.47.61.95,1.22,1.41,1.83-.19-.28-.35-.55-.49-.87.3.72.6,1.44.91,2.17-.12-.34-.19-.65-.24-1,.11.8.21,1.61.32,2.41-.02-.24-.02-.47,0-.71-.11.8-.21,1.61-.32,2.4.05-.35.12-.66.24-1-.31.73-.61,1.44-.91,2.17.14-.32.29-.58.49-.87-.47.62-.94,1.22-1.41,1.84.22-.27.44-.48.7-.7-.62.48-1.22.95-1.84,1.41.28-.19.56-.35.87-.49-.72.3-1.44.61-2.16.92.33-.12.65-.19,1-.24-.8.11-1.6.22-2.41.32.24-.02.47-.02.71,0-.81-.1-1.61-.21-2.4-.32.35.05.66.13.99.24-.72-.31-1.44-.61-2.16-.92.31.14.58.3.87.49-.61-.47-1.22-.94-1.83-1.41.26.22.48.44.7.7-.47-.61-.95-1.22-1.41-1.84.19.29.35.55.49.87-.31-.72-.61-1.44-.92-2.17.12.34.19.65.24,1-.11-.8-.21-1.61-.32-2.4.02.23.02.47,0,.71.11-.8.21-1.61.32-2.41-.05.35-.12.66-.24,1,.31-.72.61-1.44.92-2.17-.14.31-.3.59-.49.87.47-.61.94-1.22,1.41-1.83-.22.27-.44.48-.7.7.61-.47,1.22-.95,1.83-1.41-.29.19-.56.35-.87.49.72-.3,1.44-.61,2.16-.92-.33.12-.64.19-.99.24.8-.11,1.6-.21,2.4-.32-.11.01-.23.01-.35.02-4.92.24-9.05,3.94-9.05,9.04,0,4.76,4.12,9.28,9.05,9.05,7.16-.34,12.37-5.56,12.71-12.71.16-3.4-1.52-6.37-3.61-8.87-2.18-2.61-5.86-3.68-9.1-3.84-3.39-.16-6.37,1.52-8.86,3.61-2.6,2.17-3.69,5.87-3.84,9.1-.16,3.39,1.52,6.37,3.6,8.87,2.17,2.6,5.86,3.69,9.1,3.85,4.93.22,9.05-4.29,9.05-9.05,0-5.11-4.12-8.81-9.05-9.04Z"/>
              </g>
            </g>
            <path class="st20" d="M241.58,116.75c-3.4,0-6.16,2.75-6.16,6.16s2.76,6.16,6.16,6.16,6.17-2.76,6.17-6.16-2.76-6.16-6.17-6.16ZM241.58,126.57c-2.02,0-3.66-1.64-3.66-3.66s1.64-3.66,3.66-3.66,3.67,1.64,3.67,3.66-1.64,3.66-3.67,3.66Z"/>
            <g>
              <path class="st26" d="M241.15,119.27c-.14-.02-.29-.03-.43-.03-2.02,0-3.66,1.64-3.66,3.66s1.64,3.66,3.66,3.66c.14,0,.29-.01.43-.02-1.82-.22-3.23-1.77-3.23-3.64s1.41-3.42,3.23-3.64Z"/>
              <path class="st26" d="M241.58,116.75c-.14,0-.29,0-.43.02,3.2.22,5.73,2.88,5.73,6.14s-2.52,5.92-5.73,6.14c.14.01.28.02.43.02,3.41,0,6.17-2.76,6.17-6.16s-2.76-6.16-6.17-6.16Z"/>
            </g>
          </g>
        </g>
        <g>
          <g>
            <path class="st19" d="M230.13,117.38c-3.46-9.43-9.45-15.74-16.63-21.61-8.69-7.11-43.31-13.96-75.76-13.96h-.14c-32.46,0-67.07,6.85-75.77,13.96-7.17,5.87-13.17,12.19-16.62,21.61-4.23,11.52-2.01,24.08-.19,29.39,5.13,14.96,45.31,18.81,45.31,18.81,0,0,10.16,1.52,18.05-1.62,7.89-3.14,18.24-35.98,29.24-35.98.02,0,.03,0,.05,0h0s.03,0,.05,0c10.99,0,21.36,32.84,29.24,35.98,7.89,3.13,18.05,1.62,18.05,1.62,0,0,40.18-3.85,45.31-18.81,1.82-5.32,4.04-17.87-.19-29.39Z"/>
            <path d="M238.86,114.98c-2.84-7.61-7.06-14.25-12.77-20.05-3.79-3.84-7.99-7.58-12.93-9.84-11.39-5.22-23.98-7.59-36.31-9.35-31.15-4.48-63.07-3.94-93.9,2.77-5.41,1.18-10.81,2.58-15.98,4.57-2.51.97-5.05,2-7.4,3.33-2.51,1.43-4.72,3.39-6.88,5.29-5.4,4.73-10.22,10.4-13.45,16.83-3.95,7.84-5.75,16.48-5.46,25.26.21,6.34,1.15,13.21,4.04,18.96,2.21,4.39,6.45,7.82,10.57,10.32,4.26,2.59,9.05,4.43,13.78,5.96,4.14,1.34,8.37,2.37,12.63,3.23,5.12,1.03,10.34,1.85,15.53,2.36-.8-.1-1.6-.21-2.41-.32,5.84.86,11.46.79,17.31-.13,2.96-.47,6.45-1.32,8.9-3.08,2.56-1.82,4.21-3.73,6.11-6.21,5.54-7.22,9.1-15.81,14.21-23.33.59-.88,1.22-1.72,1.86-2.57-.48.61-.95,1.22-1.42,1.83,1.27-1.62,2.64-3.18,4.27-4.47-.61.47-1.22.95-1.83,1.42.75-.58,1.54-1.07,2.41-1.45-.72.3-1.44.61-2.16.91.53-.21,1.06-.38,1.62-.46-.8.11-1.6.22-2.4.32.29-.04.58-.07.86-.06-3.01-3.01-6.03-6.03-9.04-9.04h0c0,4.64,4.12,9.42,9.04,9.04h0c4.92.46,9.05-4.45,9.05-9.04h0c-3.01,3.01-6.03,6.03-9.05,9.04.29-.01.58.02.87.06-.8-.1-1.61-.21-2.41-.32.56.09,1.1.25,1.62.46-.72-.31-1.44-.61-2.16-.91.88.38,1.66.87,2.41,1.45-.61-.47-1.22-.94-1.83-1.42,1.62,1.29,3,2.85,4.26,4.47-.47-.61-.94-1.22-1.42-1.83,5.67,7.37,9.37,16.01,14.51,23.71,1.35,2.02,2.8,4.03,4.49,5.79,2.11,2.2,4.47,3.46,7.3,4.49,3.73,1.36,7.89,1.8,11.84,1.97,2.31.11,4.64.02,6.95-.22,1.1-.12,2.21-.27,3.3-.43-.81.11-1.61.22-2.41.32,5.61-.54,11.22-1.45,16.73-2.6,4.29-.9,8.56-2,12.71-3.41,4.66-1.58,9.37-3.48,13.51-6.18,3.33-2.16,5.9-4.58,8.29-7.71,1.9-2.47,2.91-5.54,3.64-8.53,2.46-10.06,2.49-21.41-1.04-31.22-.82-2.28-2.01-4.14-4.16-5.4-2.09-1.22-4.64-1.56-6.97-.91-4.48,1.23-7.99,6.48-6.32,11.13.94,2.64,1.59,5.36,1.99,8.14-.11-.81-.22-1.61-.33-2.41.59,4.44.54,8.92-.04,13.35.1-.8.21-1.61.32-2.4-.39,2.88-.91,5.91-2.04,8.61.31-.71.61-1.44.91-2.16-.43.96-.96,1.85-1.61,2.68.47-.61.95-1.22,1.41-1.83-.97,1.23-2.11,2.3-3.35,3.26.61-.47,1.22-.94,1.83-1.41-2.61,1.99-5.54,3.5-8.56,4.77.72-.3,1.44-.61,2.16-.91-8.92,3.72-18.61,5.69-28.17,6.97.8-.1,1.6-.21,2.4-.32-1.96.27-3.91.47-5.87.74.8-.11,1.6-.21,2.4-.32-3.83.5-7.76.47-11.58-.03.81.11,1.61.22,2.41.32-2.2-.32-4.4-.8-6.47-1.65.72.31,1.43.61,2.16.91-.42-.2-.81-.44-1.19-.72.61.47,1.22.94,1.83,1.42-1.05-.81-1.93-1.83-2.74-2.88.46.61.94,1.22,1.41,1.84-4.8-6.25-8.08-13.61-12.23-20.29-2.3-3.7-4.84-7.42-7.93-10.51-3.3-3.29-8.03-6.26-12.89-6.02-4.92.24-9.04,3.93-9.04,9.05h0c3.02-3.02,6.03-6.03,9.04-9.05h0c3.02,3.01,6.03,6.03,9.05,9.05h0c0-5.12-4.12-8.8-9.05-9.05-4.83-.24-9.39,2.67-12.73,5.87-3.2,3.06-5.75,6.92-8.09,10.66-4.16,6.67-7.42,14.03-12.23,20.29.47-.62.94-1.22,1.41-1.84-.82,1.05-1.69,2.07-2.75,2.88.61-.47,1.22-.95,1.83-1.42-.38.28-.76.52-1.19.72.72-.31,1.44-.61,2.16-.91-2.06.85-4.26,1.33-6.46,1.65.8-.1,1.6-.21,2.4-.32-3.82.51-7.75.54-11.57.03.8.11,1.6.21,2.4.32-1.96-.27-3.92-.48-5.88-.74.8.12,1.6.22,2.41.32-9.56-1.28-19.25-3.25-28.18-6.97.72.3,1.44.61,2.16.91-3.02-1.27-5.95-2.78-8.56-4.77.61.47,1.21.95,1.83,1.41-1.24-.96-2.38-2.03-3.35-3.26.47.61.94,1.22,1.41,1.83-.64-.83-1.18-1.71-1.6-2.68.3.72.61,1.44.91,2.16-1.13-2.7-1.65-5.73-2.04-8.61.11.79.21,1.6.32,2.4-.58-4.43-.62-8.91-.04-13.35-.11.81-.22,1.61-.33,2.41.5-3.5,1.42-6.89,2.78-10.15-.3.72-.61,1.44-.91,2.16,1.44-3.35,3.29-6.48,5.52-9.38-.47.61-.95,1.22-1.42,1.83,3.05-3.89,6.69-7.39,10.58-10.45-.61.48-1.22.95-1.84,1.41,1.76-1.34,3.78-2.3,5.8-3.16-.72.3-1.44.61-2.16.91,4.79-2,9.83-3.38,14.87-4.58,6.7-1.59,13.5-2.75,20.32-3.66-.8.1-1.61.21-2.41.32,22.96-3.05,46.19-3.05,69.16,0-.81-.1-1.61-.21-2.41-.32,6.7.89,13.37,2.04,19.96,3.57,5.17,1.2,10.33,2.62,15.24,4.67-.72-.3-1.44-.61-2.17-.91,2.03.86,4.05,1.82,5.8,3.16-.61-.47-1.23-.93-1.83-1.41,3.89,3.05,7.52,6.56,10.56,10.45-.47-.61-.93-1.22-1.41-1.83,2.22,2.89,4.08,6.02,5.52,9.38-.3-.72-.61-1.44-.92-2.16.29.66.55,1.33.8,2.01.85,2.28,1.99,4.13,4.15,5.4,2.09,1.22,4.63,1.55,6.97.91,4.44-1.22,8.04-6.51,6.32-11.13Z"/>
          </g>
          <path class="st23" d="M230.13,117.38c-3.46-9.43-9.45-15.74-16.63-21.61-8.69-7.11-43.31-13.96-75.76-13.96h-.14c-32.46,0-67.07,6.85-75.77,13.96-7.17,5.87-13.17,12.19-16.62,21.61-4.23,11.52-2.01,24.08-.19,29.39,5.13,14.96,45.31,18.81,45.31,18.81,0,0,10.16,1.52,18.05-1.62,7.89-3.14,18.24-35.98,29.24-35.98.02,0,.03,0,.05,0h0s.03,0,.05,0c10.99,0,21.36,32.84,29.24,35.98,7.89,3.13,18.05,1.62,18.05,1.62,0,0,40.18-3.85,45.31-18.81,1.82-5.32,4.04-17.87-.19-29.39Z"/>
          <path class="st23" d="M90.33,158.61s-40.17-3.85-45.31-18.81c-.85-2.48-1.78-6.53-2.11-11.32-.55,7.71.87,14.68,2.11,18.3,5.13,14.96,45.31,18.81,45.31,18.81,0,0,10.16,1.52,18.05-1.62,7.89-3.14,18.24-35.98,29.24-35.98.02,0,.03,0,.05,0h0s.03,0,.05,0c10.99,0,21.36,32.84,29.24,35.98,7.89,3.13,18.05,1.62,18.05,1.62,0,0,40.18-3.85,45.31-18.81,1.24-3.62,2.66-10.59,2.11-18.3-.33,4.79-1.26,8.84-2.11,11.32-5.13,14.96-45.31,18.81-45.31,18.81,0,0-10.16,1.51-18.05-1.62-7.88-3.14-18.24-35.98-29.24-35.98h-.11c-11,0-21.36,32.84-29.24,35.98"/>
          <path class="st20" d="M45.22,122.04c3.45-9.43,9.45-15.74,16.62-21.61,8.7-7.12,43.31-13.96,75.77-13.96h.14c32.46,0,67.07,6.84,75.76,13.96,7.17,5.87,13.17,12.19,16.63,21.61,1.5,4.07,2.18,8.27,2.36,12.24.24-5.22-.27-11.19-2.36-16.9-3.46-9.43-9.45-15.74-16.63-21.61-8.69-7.11-43.31-13.96-75.76-13.96h-.14c-32.46,0-67.07,6.85-75.77,13.96-7.17,5.87-13.17,12.19-16.62,21.61-2.1,5.71-2.61,11.68-2.37,16.9.18-3.97.87-8.17,2.37-12.24Z"/>
        </g>
        <g>
          <g>
            <g>
              <g>
                <path class="st19" d="M111.14,106.99s1.21,0,2.03.55c.82.54,1.05,1.42,1.05,1.42l.12,5.73s.24,1.32,0,2.48c-.24,1.15-3.76,8.11-7.75,13.58-3.99,5.46-9.01,9.7-9.01,9.7,0,0-2.21,1.92-4.8,2.93-2.59,1.02-6.02,1.44-6.02,1.44,0,0-7.52.68-14.66-2.05-7.14-2.72-8.31-4.91-8.31-4.91,0,0-2.19-2.56-1.9-6.71.29-4.15,3.86-11.05,3.86-11.05,0,0,2.64-4.77,4.47-7.1,3.5-4.49,14.31-5.27,14.31-5.27l26.6-.73Z"/>
                <g>
                  <path d="M129.14,114.61s0,.05.01.07c-.04-1.72-.08-3.44-.12-5.16-.07-3.11-.67-6.21-2.44-8.85-2.17-3.23-2.63-3.39-5.7-5.73-1.13-.87-3.56-1.7-4.31-1.95-.96-.32-1.99-.53-3.01-.65-.8-.12-1.6-.18-2.43-.16-.36,0-.72,0-1.07.02-4.46.13-8.92.25-13.38.38-3.07.09-6.14.17-9.21.26-1.15.03-2.31.01-3.46.13-2.61.25-5.23.6-7.81,1.11-3.19.63-6.01,1.81-9.01,3.09-6.17,2.61-9.98,8.17-13.24,13.74-1.98,3.39-3.49,7.05-4.89,10.71-2.82,7.45-2.79,16.29,1.58,23.18.17.27.36.54.54.81,2.38,4.09,6.82,7.02,11.01,8.93,3.99,1.81,7.95,3.43,12.27,4.14,3.54.58,7.13,1.06,10.71,1,5.83-.08,11.94-1.63,17.02-4.46,3.73-2.08,7.07-5.21,10.03-8.29,4.57-4.74,8.47-10.17,11.74-15.88.99-1.73,1.94-3.5,2.75-5.32.66-1.49,1.53-3.03,1.91-4.64.57-2.45.68-4.4.51-6.48ZM88.21,129.06c-.29.19-.6.38-.9.55-.67.2-1.35.37-2.04.51-1.21.05-2.42-.02-3.64-.13-1.29-.24-2.55-.54-3.8-.92.92-1.95,1.96-3.85,3.12-5.66,1.2-.37,2.42-.66,3.65-.88,3.3-.28,6.66-.19,9.95-.28-.13.19-.27.38-.4.56-1.81,2.21-3.79,4.37-5.94,6.25Z"/>
                  <g>
                    <path d="M127.9,114.95s0,.05,0,.07c.2,1.47,2.57,1.09,2.54-.34-.09-3.88.1-7.86-1.2-11.58-.91-2.61-2.7-5.23-4.81-7.04-2.18-1.87-4.42-3.24-7.13-4.19-3.53-1.23-7.18-.96-10.85-.86-4.29.12-8.57.24-12.85.36-4.19.12-8.37.11-12.54.63-7.2.9-14.89,2.97-20.43,7.9-5.11,4.55-8.65,11.21-11.25,17.43-1.4,3.37-2.68,6.73-3.22,10.36-.51,3.39-.42,6.81.28,10.17,1.4,6.75,5.77,12.42,11.6,15.96,6.46,3.93,13.82,5.98,21.26,6.84,6.39.73,12.79.1,18.83-2.15,5.94-2.22,10.65-6.15,15-10.66,4.45-4.6,8.24-9.83,11.49-15.34,1.63-2.78,3.04-5.66,4.36-8.6,1.3-2.89,1.67-6.14,1.45-9.29-.11-1.65-2.7-1.66-2.58,0,.12,1.74.06,3.46-.27,5.18-.38,2.04-1.32,3.83-2.17,5.71-1.58,3.49-3.6,6.8-5.7,9.99-4.17,6.32-9.37,12.49-15.54,16.94-12.69,9.16-30.74,6.83-43.78-.25-6.27-3.4-10.46-9.19-11.68-16.23-1.27-7.37,1.45-14.54,4.59-21.06,2.87-5.98,6.83-12.36,12.73-15.72,7.12-4.08,15.45-4.88,23.48-5.1,5.13-.14,10.26-.28,15.4-.42,2.4-.07,4.81-.24,7.21-.17,1.95.06,3.82.61,5.63,1.3,2.91,1.12,5.48,3.32,7.26,5.85,2.99,4.26,2.75,9.07,2.86,14.05.84-.11,1.69-.23,2.54-.35,0-.02-.01-.04-.01-.06-.23-1.65-2.71-.94-2.49.68Z"/>
                    <path d="M87.55,127.95c-2.74,1.74-6.5.73-9.38-.13.26.63.52,1.27.78,1.89.93-1.95,1.96-3.84,3.12-5.66-.26.2-.52.4-.77.59,4.34-1.27,8.78-.99,13.25-1.1-.37-.65-.74-1.3-1.11-1.95-1.73,2.41-3.93,4.59-6.14,6.55-1.25,1.11.58,2.93,1.83,1.82,2.38-2.12,4.68-4.47,6.55-7.07.58-.81-.2-1.96-1.12-1.95-3.69.09-7.57-.24-11.21.51-.77.15-1.53.35-2.28.56-.94.26-1.21.71-1.71,1.51-.98,1.57-1.84,3.21-2.63,4.88-.36.76-.08,1.65.77,1.9,3.59,1.07,8,2.01,11.38-.13,1.4-.89.1-3.12-1.31-2.23Z"/>
                  </g>
                </g>
              </g>
              <g>
                <path class="st19" d="M111.14,106.99s1.21,0,2.03.55c.82.54,1.05,1.42,1.05,1.42l.12,5.73s.24,1.32,0,2.48c-.24,1.15-3.76,8.11-7.75,13.58-3.99,5.46-9.01,9.7-9.01,9.7,0,0-2.21,1.92-4.8,2.93-2.59,1.02-6.02,1.44-6.02,1.44,0,0-7.52.68-14.66-2.05-7.14-2.72-8.31-4.91-8.31-4.91,0,0-2.19-2.56-1.9-6.71.29-4.15,3.86-11.05,3.86-11.05,0,0,2.64-4.77,4.47-7.1,3.5-4.49,14.31-5.27,14.31-5.27l26.6-.73Z"/>
                <path class="st28" d="M121.75,114.65c-.03-1.71-.07-3.42-.11-5.13-.12-5.31-4.12-9.19-9.17-9.84-.43-.08-.87-.11-1.33-.1-.18,0-.36,0-.54.01-4.64.13-9.28.26-13.92.39-3.07.09-6.14.17-9.21.26-1.15.04-2.31.02-3.46.13-4.59.46-8.83,1.39-13.08,3.19-2.2.93-4.43,2.32-5.94,4.19-1.76,2.16-3.24,4.49-4.65,6.9-1.66,2.85-2.97,5.87-4.13,8.94-2.15,5.68-2.55,12.16.83,17.47.15.23.31.46.48.69,1.75,3.03,5.36,5,8.42,6.39,3.39,1.54,6.81,2.8,10.5,3.4,2.89.47,5.81.79,8.75.74,4.55-.06,9.31-1.25,13.28-3.46,3.21-1.79,6-4.5,8.53-7.13,4.14-4.3,7.63-9.21,10.59-14.38.99-1.73,1.94-3.49,2.76-5.32.4-.92.92-1.88,1.16-2.87.36-1.56.4-3,.26-4.48ZM69.29,132.95s-.02-.03-.03-.04c-.1-.14-.2-.27-.29-.4.11.14.22.28.33.43ZM100,127.29c-2.19,2.76-4.64,5.45-7.35,7.7-.77.54-1.57,1.03-2.42,1.46-1.34.47-2.74.79-4.15,1.04-1.83.15-3.74,0-5.56-.2-2.48-.4-4.87-1.06-7.21-1.97-1.26-.56-2.48-1.19-3.62-1.96h0c-.06-.1-.12-.2-.17-.29-.08-.25-.15-.51-.21-.77,0-.3,0-.59,0-.88.34-1.59.88-3.13,1.48-4.63,1.37-3.12,3.03-6.16,5.01-8.94.1-.1.21-.21.32-.31.43-.28.89-.53,1.36-.75,2-.74,4.08-1.22,6.19-1.56,3.61-.39,7.32-.26,10.94-.37,4.13-.11,8.26-.22,12.39-.35.03.36.06.71.09,1.07,0,0,0,.01-.01.02-.03-.25-.07-.5-.1-.76.04.28.05.55.07.83-1.89,4.09-4.36,8.04-7.04,11.63ZM107.12,115.96h0c.04.28.07.55.12.84-.04-.28-.08-.56-.12-.84Z"/>
                <g>
                  <path class="st22" d="M70.84,134.49c-.11-.14-.22-.29-.33-.43.1.13.2.26.3.39.01.01.02.02.03.04Z"/>
                  <path class="st22" d="M100,127.29c-2.19,2.76-4.64,5.45-7.35,7.7-.77.54-1.57,1.03-2.42,1.46-1.34.47-2.74.79-4.15,1.04-1.83.15-3.74,0-5.56-.2-2.48-.4-4.87-1.06-7.21-1.97-.81-.36-1.61-.76-2.39-1.2.05.17.09.33.14.5.05.1.11.19.17.29h0c1.15.77,2.38,1.4,3.63,1.96,2.33.91,4.73,1.57,7.2,1.97,1.82.21,3.73.35,5.56.2,1.41-.24,2.81-.57,4.15-1.04.84-.42,1.64-.92,2.41-1.46,2.71-2.25,5.16-4.94,7.35-7.7,2.68-3.59,5.16-7.54,7.04-11.63-.01-.27-.03-.55-.07-.83.03.25.07.5.1.76,0,0,0-.01,0-.02-.03-.36-.06-.71-.09-1.06-.47,0-.93.02-1.4.04.03.23.06.47.1.7-.03-.23-.06-.47-.1-.7-.1,0-.21,0-.31.01-1.86,3.93-4.24,7.73-6.83,11.19Z"/>
                  <path class="st1" d="M59.07,143.3c-.17-.22-.33-.45-.47-.69-3.38-5.32-2.98-11.8-.84-17.47,1.17-3.08,2.48-6.1,4.14-8.94,1.4-2.4,2.89-4.73,4.65-6.89,1.51-1.87,3.73-3.26,5.93-4.19,4.25-1.8,8.49-2.74,13.08-3.19,1.15-.12,2.3-.1,3.46-.13,3.07-.09,6.14-.17,9.21-.26,4.64-.12,9.28-.25,13.92-.39.17-.01.36-.02.54-.01.45,0,.89.02,1.32.09,2.07.27,3.95,1.07,5.48,2.3-1.67-2.09-4.18-3.47-7.03-3.84-.43-.08-.87-.11-1.33-.1-.18,0-.36,0-.54.01-4.64.13-9.28.26-13.92.39-3.07.09-6.14.17-9.21.26-1.15.04-2.31.02-3.46.13-4.59.46-8.83,1.39-13.08,3.19-2.2.93-4.43,2.32-5.94,4.19-1.76,2.16-3.24,4.49-4.65,6.9-1.66,2.85-2.97,5.87-4.13,8.94-2.15,5.68-2.55,12.16.83,17.47.15.23.31.46.48.69.62,1.07,1.48,2.02,2.46,2.85-.34-.41-.65-.84-.91-1.3Z"/>
                  <path class="st22" d="M108.67,117.51c.03.28.07.57.11.84-.04-.28-.08-.56-.11-.85h0Z"/>
                </g>
              </g>
              <g>
                <path class="st19" d="M111.14,106.99s1.21,0,2.03.55c.82.54,1.05,1.42,1.05,1.42l.12,5.73s.24,1.32,0,2.48c-.24,1.15-3.76,8.11-7.75,13.58-3.99,5.46-9.01,9.7-9.01,9.7,0,0-2.21,1.92-4.8,2.93-2.59,1.02-6.02,1.44-6.02,1.44,0,0-7.52.68-14.66-2.05-7.14-2.72-8.31-4.91-8.31-4.91,0,0-2.19-2.56-1.9-6.71.29-4.15,3.86-11.05,3.86-11.05,0,0,2.64-4.77,4.47-7.1,3.5-4.49,14.31-5.27,14.31-5.27l26.6-.73Z"/>
                <g>
                  <path d="M110.71,115.23c-.04-.28-.08-.52,0,0h0Z"/>
                  <g>
                    <path d="M118.08,114.83c-.01-.09-.02-.15-.03-.22,0,.01,0,.01,0-.01-.02-1.17-.05-2.34-.08-3.5-.02-1.04.12-2.39-.27-3.37-1.05-2.66-3.31-4.23-6.11-4.42-.15-.02-.3-.03-.46-.02-4.82.14-9.64.27-14.46.4-3.07.09-6.14.17-9.21.25-1.15.04-2.31.02-3.46.13-3.86.38-7.63,1.17-11.21,2.68-1.92.81-3.86,1.97-5.18,3.61-1.55,1.91-2.83,4.03-4.07,6.15-1.5,2.57-2.71,5.28-3.76,8.06-1.82,4.77-2.41,10.1.46,14.62.12.2.26.39.41.58.25.42.57.79.9,1.15,1.07,1.17,2.5,2.06,3.87,2.84,5.41,3.05,11.52,4.55,17.69,4.8,3.42.14,6.8-.32,10.06-1.4,3.68-1.22,6.64-3.61,9.39-6.25,3.52-3.39,6.62-7.19,9.29-11.28,2.25-3.45,4.36-7.1,5.9-10.94.33-.81.38-1.71.42-2.57.02-.43-.03-.86-.08-1.28ZM94.7,138.06c-.17.13-.36.28,0,0h0ZM96.96,136.01c-.69.67-1.4,1.33-2.14,1.95-.14.1-.28.2-.41.3-.51.35-1.03.68-1.57.99-.29.17-.61.33-.92.49-.08.04-.14.08-.19.1-.06.02-.13.04-.22.07-.72.28-1.47.47-2.21.66-.91.23-1.84.41-2.77.56-.05,0-.11,0-.18,0-1.87.11-3.75.03-5.61-.14-.23-.02-.45-.05-.68-.08-.06-.01-.63-.08-.69-.09-.72-.11-1.44-.25-2.16-.41-1.67-.36-3.29-.89-4.87-1.52-.12-.05-.2-.08-.27-.1-.06-.03-.13-.06-.23-.11-.31-.13-.61-.28-.92-.42-.53-.24-1.05-.51-1.56-.79-.63-.34-1.24-.71-1.83-1.12-.03-.04-.46-.39-.71-.63-.05-.06-.1-.13-.16-.2-.11-.16-.2-.32-.3-.47-.09-.16-.32-.68-.39-.82-.16-.47-.28-.95-.38-1.44,0-.01,0-.02,0-.04,0-.05,0-.13-.01-.24-.02-.35-.02-.69-.01-1.04,0-.11.01-.23.02-.35.01-.13.04-.34.06-.44.21-1.15.58-2.28.96-3.38.18-.52.38-1.03.58-1.55.07-.17.14-.35.21-.53.04-.1.09-.2.11-.25.33-.79.7-1.56,1.07-2.32.37-.77.8-1.49,1.22-2.23.53-.92,1.08-1.82,1.63-2.71.3-.48.61-.96.93-1.44.15-.22.31-.44.46-.66.05-.07.17-.22.27-.36.22-.25.46-.47.71-.69h.01c.18-.13.38-.26.57-.38.41-.25.82-.46,1.24-.67.08-.04.16-.07.24-.1.08-.03.54-.22.67-.27,1.81-.67,3.7-1.1,5.59-1.43.37-.06.74-.12,1.11-.17.03,0,.05,0,.08-.01.38-.05.75-.09,1.13-.12.33-.03.66-.02.98-.03,2.51-.06,5.03-.14,7.53-.21,5.86-.17,11.72-.33,17.58-.49.03,1.28.05,2.55.08,3.83.01.4.08.79.14,1.18-.03-.2-.06-.36-.08-.47,0,.09.03.19.03.26.02.25.01.5,0,.75,0-.16-.04.18-.1.35-.05.1-.09.2-.14.31-.99,2.15-2.17,4.24-3.37,6.28-2.97,5.01-5.91,8.75-10.17,12.83ZM110.52,116.91c-.02.05-.03.07,0,0h0Z"/>
                    <g>
                      <path d="M118.72,114.83c-.4-3.09.56-6.25-1.3-9.01-1.67-2.47-4.48-3.23-7.31-3.16-8.52.24-17.09.22-25.61.71-3.73.22-7.52,1.08-11.01,2.4-1.55.58-3.01,1.32-4.36,2.28-1.43,1.02-2.46,2.4-3.46,3.83-2.23,3.16-4.08,6.62-5.59,10.18-1.34,3.19-2.41,6.43-2.48,9.91-.06,3.15.97,6.42,3,8.85,2.25,2.67,5.64,4.26,8.81,5.56,6.97,2.85,15.21,3.77,22.52,1.82,6.94-1.84,12.24-7.5,16.61-12.92,2.37-2.95,4.45-6.12,6.36-9.39,1.79-3.08,3.9-6.54,3.89-10.2-.01-.28-.04-.57-.08-.86-.09-.82-1.39-.83-1.29,0,.47,4.01-2.15,7.9-4.11,11.23-2.02,3.42-4.29,6.68-6.84,9.72-2.4,2.86-5.07,5.62-8.07,7.86-3.21,2.41-6.97,3.65-10.92,4.13-7.76.94-16.23-1.19-22.86-5.23-3.36-2.04-5.33-5.42-5.67-9.31-.34-3.8.99-7.49,2.44-10.93,1.16-2.73,2.58-5.3,4.15-7.82,1.62-2.62,3.32-4.92,6.06-6.43,5.61-3.08,12.21-3.35,18.43-3.52,6.52-.19,13.04-.37,19.57-.54,2.77-.08,5.24.33,6.9,2.78,1.55,2.3.6,5.48.94,8.08.11.81,1.4.82,1.29,0Z"/>
                      <path d="M94.24,137.6s-.04.04-.06.04c.21.38.43.75.65,1.12.06-.06.13-.1.2-.16.65-.5,0-1.62-.66-1.11-.06.05-.13.1-.2.15-.65.5-.02,1.62.65,1.12.11-.08.22-.17.33-.25.65-.51-.27-1.42-.92-.91Z"/>
                      <path d="M96.51,135.55c-2.82,2.69-6.13,4.73-10.15,4.95-3.64.19-7.26-.17-10.77-1.16-1.77-.5-3.47-1.19-5.11-2-1.34-.67-2.92-1.4-3.63-2.78-1.51-2.92.06-6.36,1.2-9.13,1.37-3.34,3.29-6.52,5.35-9.47.77-1.11,2.12-1.7,3.33-2.18,1.9-.74,3.95-1.15,5.95-1.49,1.74-.29,3.51-.27,5.27-.32,2.18-.06,4.35-.12,6.52-.18,4.19-.12,8.38-.23,12.56-.35,1.17-.03,2.34-.06,3.52-.1-.22-.21-.43-.43-.65-.65.04,1.73-.03,3.47.25,5.18.42-.12.83-.23,1.25-.35-.03-.16-.05-.31-.08-.47-.12-.72-1.35-.55-1.26.17.04.34.04.67.04,1.01.36-.16.73-.31,1.1-.46,0,0,0,0-.01-.01-.32-.33-.98-.2-1.08.29-.35,1.76-1.7,3.6-2.58,5.15-1.02,1.8-2.1,3.56-3.26,5.27-2.24,3.32-4.89,6.31-7.77,9.08-.6.58.31,1.49.91.92,2.86-2.76,5.46-5.73,7.74-9,1.26-1.81,2.39-3.7,3.49-5.61.94-1.64,2.33-3.59,2.71-5.46-.36.09-.72.19-1.08.29t.01.01c.4.42,1.09.1,1.1-.46,0-.34,0-.67-.04-1.01-.42.05-.85.12-1.27.17.03.16.05.32.08.47.14.82,1.39.47,1.25-.35-.26-1.58-.17-3.24-.21-4.83,0-.34-.29-.65-.64-.65-8.37.23-16.74.47-25.11.7-3.31.1-6.66.85-9.73,2.06-2.92,1.14-4.21,3.57-5.76,6.14-1.72,2.87-3.16,5.85-4.23,9.04-.87,2.59-1.24,5.2.25,7.64.6,1.01,1.71,1.63,2.7,2.21,1.52.88,3.15,1.57,4.81,2.17,3.17,1.15,6.46,1.66,9.82,1.8,2.75.12,5.33-.28,7.95-1.12,2.41-.78,4.38-2.52,6.17-4.23.61-.58-.31-1.49-.91-.92Z"/>
                      <path d="M110.52,117.55c.83,0,.83-1.28,0-1.28s-.83,1.28,0,1.28Z"/>
                    </g>
                  </g>
                </g>
              </g>
              <path class="st11" d="M111.14,106.99s1.21,0,2.03.55c.82.54,1.05,1.42,1.05,1.42l.12,5.73s.24,1.32,0,2.48c-.24,1.15-3.76,8.11-7.75,13.58-3.99,5.46-9.01,9.7-9.01,9.7,0,0-2.21,1.92-4.8,2.93-2.59,1.02-6.02,1.44-6.02,1.44,0,0-7.52.68-14.66-2.05-7.14-2.72-8.31-4.91-8.31-4.91,0,0-2.19-2.56-1.9-6.71.29-4.15,3.86-11.05,3.86-11.05,0,0,2.64-4.77,4.47-7.1,3.5-4.49,14.31-5.27,14.31-5.27l26.6-.73Z"/>
              <path class="st12" d="M63.91,133.03c.29-4.14,3.86-11.04,3.86-11.04,0,0,2.64-4.78,4.46-7.11,3.51-4.49,14.31-5.26,14.31-5.26l26.6-.74s.5,0,1.08.15v-.08s-.23-.87-1.05-1.42c-.82-.55-2.03-.55-2.03-.55l-26.6.73s-10.81.77-14.31,5.27c-1.83,2.33-4.47,7.1-4.47,7.1,0,0-3.58,6.9-3.86,11.05-.29,4.15,1.9,6.71,1.9,6.71,0,0,.36.66,1.86,1.71-.48-.66-2-3.03-1.75-6.53Z"/>
              <path class="st4" d="M114.35,114.69l-.12-5.73s-.09-.34-.35-.72l.03,1.31s.24,1.33,0,2.48c-.23,1.15-3.76,8.12-7.74,13.58-3.99,5.47-9,9.7-9,9.7,0,0-2.2,1.91-4.8,2.93-2.59,1.02-6.02,1.45-6.02,1.45,0,0-7.52.68-14.66-2.05-7.14-2.73-8.32-4.92-8.32-4.92,0,0-.77-.91-1.34-2.52-.05.32-.09.64-.11.94-.29,4.15,1.9,6.71,1.9,6.71,0,0,1.17,2.19,8.31,4.91,7.14,2.73,14.66,2.05,14.66,2.05,0,0,3.42-.43,6.02-1.44,2.6-1.01,4.8-2.93,4.8-2.93,0,0,5.02-4.24,9.01-9.7,3.99-5.47,7.5-12.43,7.75-13.58.23-1.16,0-2.48,0-2.48Z"/>
            </g>
            <g>
              <path class="st12" d="M92.62,107.5l-7.8.22s-.57.04-1.5.16l-10.65,34.98c3.02,1.12,6.1,1.64,8.62,1.87l11.33-37.23Z"/>
              <path class="st24" d="M84.78,107.72c-.13.01-.67.05-1.46.16l-.7,2.29c2.24-.43,3.92-.54,3.92-.54l5.47-.15.6-1.96-7.84.21Z"/>
              <path class="st16" d="M72.67,142.86s.05.02.07.03c2.96,1.14,5.99,1.68,8.52,1.93l1.52-4.99c-2.39-.12-5.53-.49-8.74-1.47l-1.37,4.5Z"/>
            </g>
            <path class="st12" d="M95.83,107.43l-10.84,37.46c1.58.02,2.57-.08,2.57-.08,0,0,.12,0,.33-.04l10.84-37.41-2.9.08Z"/>
            <polygon class="st24" points="98.71 107.35 95.83 107.43 95.26 109.38 98.15 109.29 98.71 107.35"/>
            <path class="st16" d="M84.99,144.89c1.13-.01,1.79-.08,1.79-.08,0,0,.46-.06,1.15-.17l1.61-5.56c-1.39.33-2.6.52-3.04.58l-1.51,5.22Z"/>
          </g>
          <g>
            <g>
              <g>
                <path class="st19" d="M164.21,106.99s-1.21,0-2.03.55c-.83.54-1.05,1.42-1.05,1.42l-.13,5.73s-.24,1.32,0,2.48c.24,1.15,3.76,8.11,7.75,13.58,3.98,5.46,9.01,9.7,9.01,9.7,0,0,2.2,1.92,4.8,2.93,2.59,1.02,6.02,1.44,6.02,1.44,0,0,7.52.68,14.66-2.05,7.14-2.72,8.31-4.91,8.31-4.91,0,0,2.19-2.56,1.9-6.71-.28-4.15-3.87-11.05-3.87-11.05,0,0-2.63-4.77-4.46-7.1-3.51-4.49-14.31-5.27-14.31-5.27l-26.6-.73Z"/>
                <g>
                  <path d="M146.72,121.09c.38,1.62,1.24,3.15,1.91,4.64.81,1.82,1.76,3.59,2.75,5.32,3.27,5.71,7.18,11.14,11.74,15.88,2.96,3.08,6.3,6.21,10.03,8.29,5.08,2.83,11.18,4.38,17.01,4.46,3.59.05,7.18-.43,10.71-1,4.32-.71,8.28-2.33,12.27-4.14,4.2-1.91,8.62-4.84,11.01-8.93.19-.27.37-.54.54-.81,4.36-6.89,4.4-15.73,1.57-23.18-1.39-3.66-2.9-7.32-4.88-10.71-3.26-5.58-7.07-11.13-13.24-13.74-3-1.28-5.81-2.46-9-3.09-2.58-.51-5.2-.86-7.82-1.11-1.14-.12-2.31-.1-3.46-.13-3.07-.09-6.14-.17-9.21-.26-4.46-.12-8.92-.25-13.38-.38-.36-.02-.72-.03-1.08-.02-.82-.02-1.63.04-2.43.16-1.02.12-2.05.33-3.01.65-.75.25-3.18,1.08-4.31,1.95-3.07,2.34-3.52,2.51-5.7,5.73-1.77,2.64-2.37,5.74-2.44,8.85-.04,1.72-.08,3.44-.11,5.16,0-.02,0-.05,0-.07-.16,2.07-.06,4.02.52,6.48ZM181.2,122.81c-.14-.18-.27-.38-.4-.56,3.29.09,6.65,0,9.95.28,1.23.22,2.46.51,3.65.88,1.17,1.81,2.2,3.72,3.12,5.66-1.24.38-2.51.69-3.8.92-1.21.12-2.43.18-3.63.13-.69-.14-1.37-.31-2.04-.51-.3-.17-.61-.36-.91-.55-2.14-1.89-4.13-4.04-5.93-6.25Z"/>
                  <g>
                    <path d="M145.47,121.44c.45,1.74,1.3,3.32,2.04,4.95.83,1.82,1.76,3.58,2.75,5.32,1.9,3.34,4.03,6.54,6.35,9.59,4.43,5.83,9.78,11.7,16.27,15.25,13.38,7.33,30.41,4.9,43.37-2.13,6.06-3.29,10.48-8.7,12.35-15.36,1.94-6.94.5-13.9-2.11-20.42-2.58-6.45-6.01-12.94-10.93-17.92-5.16-5.22-12.88-7.53-19.97-8.54-6.27-.9-12.66-.79-18.99-.96-3.26-.09-6.52-.18-9.78-.27-2.86-.08-5.64-.09-8.41.79-3.67,1.17-7.16,3.38-9.5,6.47-1.62,2.14-2.83,4.38-3.43,7-.7,3.08-.52,6.34-.59,9.47-.04,1.72,2.37,1.59,2.58,0,0-.02,0-.05.02-.07h-2.59c-.16,2.31.05,4.57.56,6.82.37,1.63,2.86.94,2.49-.69-.46-2.04-.62-4.05-.47-6.14.12-1.7-2.38-1.6-2.59,0,0,.02,0,.05,0,.07h2.58c.09-3.95-.21-8.12,1.5-11.81,1.15-2.49,3-4.45,5.16-6.09,6.03-4.57,13.84-3.21,20.92-3.02,8.36.24,16.98-.13,25.16,1.88,3.57.88,7.37,2.33,10.45,4.35,2.79,1.83,4.98,4.48,6.86,7.19,2.06,2.96,3.83,6.13,5.31,9.42,1.54,3.38,2.94,6.89,3.64,10.54,1.35,6.97-.29,14.31-4.84,19.81-2.17,2.61-5.09,4.48-8.09,5.97-3.41,1.71-7.03,3.13-10.73,4.05-7.6,1.88-15.77,2.02-23.24-.36-7.8-2.49-13.75-8.21-18.92-14.36-2.69-3.21-5.07-6.69-7.23-10.26-1.03-1.71-2-3.46-2.9-5.24-.96-1.92-2.01-3.93-2.56-6-.43-1.61-2.92-.93-2.49.69Z"/>
                    <path d="M182.31,122.15c-.14-.18-.27-.36-.4-.55-.37.65-.74,1.29-1.11,1.95,4.47.11,8.91-.17,13.26,1.1-.25-.2-.52-.39-.77-.59,1.16,1.82,2.19,3.72,3.12,5.66.26-.62.51-1.26.77-1.89-1.42.42-2.89.84-4.37.95-1.39.12-3.16.28-4.42-.46-1.18-.69-2.15-1.85-3.11-2.82-1.11-1.16-2.15-2.36-3.17-3.6-1.06-1.28-2.88.55-1.83,1.83,1.12,1.36,2.29,2.68,3.51,3.94,1.05,1.09,2.39,2.75,3.91,3.19,3.44,1,6.78.46,10.17-.54.85-.25,1.13-1.14.77-1.9-.73-1.52-1.53-3.03-2.39-4.48-.38-.63-.74-1.55-1.5-1.77-.9-.27-1.81-.49-2.73-.69-3.62-.79-7.54-.42-11.21-.51-.92-.02-1.69,1.14-1.12,1.95.14.18.27.37.4.56.97,1.33,3.21.05,2.23-1.31Z"/>
                  </g>
                </g>
              </g>
              <g>
                <path class="st19" d="M164.21,106.99s-1.21,0-2.03.55c-.83.54-1.05,1.42-1.05,1.42l-.13,5.73s-.24,1.32,0,2.48c.24,1.15,3.76,8.11,7.75,13.58,3.98,5.46,9.01,9.7,9.01,9.7,0,0,2.2,1.92,4.8,2.93,2.59,1.02,6.02,1.44,6.02,1.44,0,0,7.52.68,14.66-2.05,7.14-2.72,8.31-4.91,8.31-4.91,0,0,2.19-2.56,1.9-6.71-.28-4.15-3.87-11.05-3.87-11.05,0,0-2.63-4.77-4.46-7.1-3.51-4.49-14.31-5.27-14.31-5.27l-26.6-.73Z"/>
                <path class="st28" d="M153.86,119.13c.23.99.75,1.95,1.16,2.87.81,1.83,1.76,3.59,2.75,5.32,2.96,5.18,6.44,10.08,10.58,14.38,2.54,2.63,5.33,5.34,8.54,7.13,3.96,2.21,8.73,3.39,13.28,3.46,2.93.04,5.86-.27,8.75-.74,3.68-.6,7.11-1.86,10.5-3.4,3.05-1.39,6.66-3.36,8.42-6.39.17-.22.33-.46.48-.69,3.37-5.32,2.98-11.8.83-17.47-1.17-3.08-2.48-6.1-4.14-8.94-1.41-2.41-2.89-4.73-4.65-6.9-1.51-1.87-3.74-3.26-5.93-4.19-4.25-1.8-8.49-2.74-13.08-3.19-1.14-.11-2.31-.09-3.46-.13-3.07-.09-6.14-.17-9.21-.26-4.64-.13-9.28-.25-13.92-.39-.17-.01-.35-.01-.54-.01-.45-.01-.89.02-1.32.1-5.05.65-9.06,4.53-9.17,9.84-.04,1.71-.08,3.42-.11,5.13-.14,1.48-.11,2.91.26,4.48ZM206.39,132.51c-.11.13-.2.26-.3.4-.01,0-.03.02-.03.04.11-.15.23-.29.33-.43ZM168.31,115.66c.01-.27.03-.55.07-.83-.03.25-.07.5-.1.76,0-.01,0-.02-.01-.02.04-.35.07-.71.1-1.07,4.13.12,8.26.24,12.39.35,3.63.11,7.33-.02,10.94.37,2.1.34,4.19.82,6.19,1.56.47.22.93.47,1.37.75.1.1.21.21.31.31,1.99,2.78,3.64,5.82,5.02,8.94.6,1.5,1.14,3.04,1.47,4.63.01.3.01.58,0,.88-.06.26-.13.52-.21.77-.05.1-.11.2-.17.29h0c-1.14.77-2.37,1.4-3.62,1.96-2.34.92-4.73,1.57-7.2,1.97-1.83.2-3.74.35-5.56.2-1.41-.25-2.81-.57-4.15-1.04-.84-.43-1.64-.92-2.41-1.46-2.71-2.25-5.16-4.94-7.35-7.7-2.68-3.59-5.16-7.55-7.04-11.63ZM168.12,116.8c.04-.28.08-.56.11-.85t0,.01c-.04.28-.08.56-.12.84Z"/>
                <g>
                  <path class="st22" d="M204.51,134.49c.12-.14.23-.29.34-.43-.1.13-.21.26-.31.39,0,.01-.02.02-.03.04Z"/>
                  <path class="st22" d="M175.35,127.29c2.2,2.76,4.64,5.45,7.35,7.7.77.54,1.58,1.03,2.41,1.46,1.35.47,2.74.79,4.15,1.04,1.82.15,3.73,0,5.56-.2,2.48-.4,4.87-1.06,7.2-1.97.81-.36,1.62-.76,2.39-1.2-.05.17-.09.33-.14.5-.05.1-.11.19-.17.29h0c-1.14.77-2.37,1.4-3.62,1.96-2.34.91-4.72,1.57-7.2,1.97-1.82.21-3.74.35-5.57.2-1.41-.24-2.81-.57-4.15-1.04-.84-.42-1.64-.92-2.41-1.46-2.71-2.25-5.16-4.94-7.35-7.7-2.68-3.59-5.16-7.54-7.05-11.63.01-.27.03-.55.07-.83-.04.25-.07.5-.1.76,0,0,0-.01,0-.02.04-.36.07-.71.1-1.06.46,0,.93.02,1.39.04-.03.23-.06.47-.09.7.03-.23.06-.47.1-.7.1,0,.21,0,.31.01,1.86,3.93,4.25,7.73,6.83,11.19Z"/>
                  <path class="st1" d="M216.28,143.3c.17-.22.32-.45.47-.69,3.37-5.32,2.98-11.8.83-17.47-1.17-3.08-2.47-6.1-4.14-8.94-1.4-2.4-2.89-4.73-4.64-6.89-1.51-1.87-3.74-3.26-5.93-4.19-4.25-1.8-8.5-2.74-13.08-3.19-1.15-.12-2.31-.1-3.46-.13-3.07-.09-6.14-.17-9.21-.26-4.64-.12-9.28-.25-13.92-.39-.18-.01-.36-.02-.54-.01-.45,0-.89.02-1.32.09-2.07.27-3.96,1.07-5.48,2.3,1.67-2.09,4.19-3.47,7.03-3.84.43-.08.87-.11,1.32-.1.18,0,.36,0,.54.01,4.64.13,9.28.26,13.92.39,3.07.09,6.14.17,9.21.26,1.15.04,2.31.02,3.46.13,4.59.46,8.83,1.39,13.08,3.19,2.19.93,4.42,2.32,5.93,4.19,1.75,2.16,3.24,4.49,4.65,6.9,1.66,2.85,2.97,5.87,4.14,8.94,2.15,5.68,2.54,12.16-.83,17.47-.15.23-.31.46-.48.69-.62,1.07-1.48,2.02-2.46,2.85.34-.41.65-.84.92-1.3Z"/>
                  <path class="st22" d="M166.68,117.51c-.04.28-.08.57-.12.84.05-.28.08-.56.12-.85h0Z"/>
                </g>
              </g>
              <g>
                <path class="st19" d="M164.21,106.99s-1.21,0-2.03.55c-.83.54-1.05,1.42-1.05,1.42l-.13,5.73s-.24,1.32,0,2.48c.24,1.15,3.76,8.11,7.75,13.58,3.98,5.46,9.01,9.7,9.01,9.7,0,0,2.2,1.92,4.8,2.93,2.59,1.02,6.02,1.44,6.02,1.44,0,0,7.52.68,14.66-2.05,7.14-2.72,8.31-4.91,8.31-4.91,0,0,2.19-2.56,1.9-6.71-.28-4.15-3.87-11.05-3.87-11.05,0,0-2.63-4.77-4.46-7.1-3.51-4.49-14.31-5.27-14.31-5.27l-26.6-.73Z"/>
                <g>
                  <path d="M164.65,115.23c.03-.28.08-.52,0,0h0Z"/>
                  <g>
                    <path d="M157.19,116.12c.03.87.09,1.76.42,2.57,1.53,3.84,3.65,7.49,5.9,10.94,2.67,4.09,5.76,7.88,9.28,11.28,2.75,2.64,5.7,5.03,9.39,6.25,3.26,1.09,6.64,1.54,10.06,1.4,6.18-.25,12.29-1.75,17.7-4.8,1.36-.78,2.8-1.68,3.86-2.84.33-.36.65-.73.9-1.15.15-.18.29-.38.41-.58,2.86-4.52,2.27-9.85.46-14.62-1.06-2.78-2.27-5.49-3.77-8.06-1.24-2.12-2.52-4.24-4.06-6.15-1.33-1.64-3.26-2.79-5.18-3.61-3.58-1.52-7.35-2.3-11.22-2.68-1.14-.12-2.31-.1-3.46-.13-3.07-.09-6.14-.17-9.21-.25-4.82-.14-9.65-.27-14.46-.4-.16,0-.31,0-.45.02-2.8.19-5.06,1.75-6.11,4.42-.39.98-.24,2.33-.27,3.37-.03,1.17-.05,2.34-.08,3.5t0,.01c0,.07-.02.14-.03.22-.06.42-.1.86-.08,1.28ZM180.64,138.06c.36.28.17.13,0,0h0ZM168.21,123.18c-1.21-2.04-2.38-4.13-3.38-6.28-.05-.11-.09-.2-.13-.31-.06-.17-.1-.51-.1-.35,0-.25-.01-.5,0-.75,0-.07.02-.17.03-.26-.02.12-.05.27-.09.47.07-.39.14-.78.14-1.18.03-1.28.06-2.55.08-3.83,5.86.16,11.72.32,17.58.49,2.51.07,5.02.14,7.53.21.33.01.66,0,.98.03.38.03.75.07,1.13.12.03,0,.06,0,.09.01.37.05.73.11,1.1.17,1.89.34,3.78.76,5.58,1.43.13.05.59.24.68.27.08.04.16.06.23.1.42.21.84.42,1.24.67.19.12.39.25.57.38h.02c.25.22.48.44.7.69.11.14.23.29.28.36.15.22.31.44.46.66.32.47.63.95.93,1.44.56.89,1.1,1.79,1.64,2.71.42.74.85,1.47,1.22,2.23.37.76.73,1.54,1.07,2.32.02.05.07.15.11.25.07.18.14.35.21.53.2.52.4,1.03.58,1.55.38,1.11.74,2.23.96,3.38.02.1.05.31.07.44,0,.12.01.24.02.35,0,.35.01.69-.01,1.04-.01.11-.01.18-.01.24,0,.02,0,.02,0,.04-.1.49-.22.97-.38,1.44-.07.14-.3.66-.39.82-.1.16-.19.32-.3.47-.06.07-.11.14-.16.2-.25.24-.68.6-.7.63-.59.41-1.2.78-1.83,1.12-.51.28-1.03.55-1.56.79-.31.14-.61.29-.92.42-.1.05-.17.08-.23.11-.07.02-.15.05-.26.1-1.59.63-3.21,1.16-4.88,1.52-.72.16-1.43.3-2.16.41-.06.01-.63.08-.69.09-.23.03-.45.06-.68.08-1.85.17-3.74.25-5.61.14-.08,0-.14,0-.18,0-.93-.15-1.85-.33-2.76-.56-.74-.19-1.49-.39-2.21-.66-.1-.04-.17-.06-.22-.07-.05-.02-.12-.06-.19-.1-.31-.16-.63-.32-.93-.49-.53-.32-1.05-.64-1.56-.99-.14-.1-.27-.2-.41-.3-.74-.61-1.45-1.28-2.14-1.95-4.27-4.08-7.2-7.82-10.17-12.83ZM164.83,116.91c.03.07.02.05,0,0h0Z"/>
                    <g>
                      <path d="M156.55,116.12c.17,3.65,2.34,7.09,4.13,10.18,1.9,3.27,4.04,6.39,6.41,9.34,4.44,5.53,9.77,10.84,16.8,12.7,7.3,1.95,15.57.7,22.47-2.12,3.01-1.23,6.47-2.86,8.49-5.51,2.03-2.68,2.96-5.78,2.89-9.13-.07-3.47-1.33-6.77-2.66-9.92-1.51-3.56-3.45-6.97-5.67-10.13-2.06-2.93-4.66-4.63-7.99-5.89-3.5-1.33-7.33-2.05-11.07-2.27-8.52-.49-17.1-.47-25.62-.7-2.85-.08-5.38,1.08-6.99,3.46-1.77,2.62-.82,6.22-1.16,9.15-.03.28-.05.57-.03.86,0,.84,1.29.84,1.29,0,0-1.67.14-3.35.18-5.02.05-1.93.05-3.46,1.36-5.03,2.52-3.02,7.07-2.07,10.51-1.97,4.29.12,8.58.24,12.87.36,4.2.11,8.39.07,12.53.83,3.74.69,7.83,1.85,10.81,4.33,1.44,1.2,2.47,2.91,3.48,4.47,1.08,1.7,2.1,3.45,3.01,5.24,3.28,6.45,6.27,14.99.76,21.15-1.96,2.19-5.08,3.58-7.76,4.67-2.71,1.11-5.57,1.84-8.45,2.31-6.2,1.01-12.94.65-18.44-2.63-4.87-2.9-8.91-7.64-12.27-12.13-1.77-2.37-3.37-4.89-4.87-7.45-1.59-2.75-3.56-5.89-3.71-9.12-.04-.83-1.33-.83-1.29,0Z"/>
                      <path d="M180.32,138.61c.07.05.13.1.2.16.22-.38.43-.74.65-1.12-.02,0-.04-.03-.07-.04-.65-.51-1.57.4-.91.91.11.08.22.17.33.25.67.5,1.29-.62.65-1.12-.07-.04-.14-.1-.2-.15-.66-.51-1.3.61-.65,1.11Z"/>
                      <path d="M168.77,122.85c-.65-1.09-1.28-2.19-1.89-3.31-.58-1.06-1.41-2.29-1.65-3.48-.1-.48-.76-.62-1.08-.29,0,0,0,.01-.01.01.37.16.74.31,1.11.46,0-.34,0-.67.04-1.01.08-.72-1.15-.89-1.27-.17-.02.16-.05.32-.08.47.41.12.83.23,1.24.35.28-1.7.22-3.45.25-5.18-.22.21-.43.43-.65.65,8.37.24,16.74.47,25.11.7,3.45.1,7.24.85,10.31,2.48,1.37.73,2.07,1.9,2.9,3.17,1.02,1.6,2.01,3.25,2.89,4.93,1.48,2.81,3.15,6.33,3.13,9.55-.02,3.48-3.51,5-6.29,6.09-6.58,2.58-14.96,3.71-21.19-.32-2.74-1.77-5.11-4.59-7.21-7.05-2.13-2.51-3.97-5.24-5.65-8.06-.43-.71-1.54-.06-1.12.66,1.74,2.92,3.67,5.71,5.86,8.31,2.28,2.71,4.87,5.57,7.86,7.51,5.64,3.65,13.48,2.93,19.61.99,1.56-.5,3.07-1.13,4.53-1.87,1.25-.62,2.71-1.33,3.6-2.46,1.65-2.07,1.44-4.78.76-7.18-.91-3.19-2.36-6.23-4.03-9.09-.87-1.5-1.79-2.98-2.79-4.42-.78-1.11-1.84-1.73-3.04-2.33-4.79-2.4-10.47-2.24-15.64-2.38-6.53-.19-13.06-.36-19.59-.55-.36,0-.63.31-.64.65-.03,1.59.06,3.26-.2,4.83-.14.81,1.11,1.17,1.24.35.03-.15.06-.32.08-.47-.42-.06-.85-.12-1.27-.17-.04.34-.04.67-.04,1.01.01.55.7.87,1.11.46,0-.01,0-.01.01-.01-.36-.1-.72-.2-1.08-.29.21,1.03.85,2.04,1.33,2.96.72,1.41,1.53,2.78,2.33,4.14.43.71,1.54.06,1.12-.66Z"/>
                      <path d="M164.83,117.55c.83,0,.83-1.28,0-1.28s-.83,1.28,0,1.28Z"/>
                    </g>
                  </g>
                </g>
              </g>
              <path class="st11" d="M164.21,106.99s-1.21,0-2.03.55c-.83.54-1.05,1.42-1.05,1.42l-.13,5.73s-.24,1.32,0,2.48c.24,1.15,3.76,8.11,7.75,13.58,3.98,5.46,9.01,9.7,9.01,9.7,0,0,2.2,1.92,4.8,2.93,2.59,1.02,6.02,1.44,6.02,1.44,0,0,7.52.68,14.66-2.05,7.14-2.72,8.31-4.91,8.31-4.91,0,0,2.19-2.56,1.9-6.71-.28-4.15-3.87-11.05-3.87-11.05,0,0-2.63-4.77-4.46-7.1-3.51-4.49-14.31-5.27-14.31-5.27l-26.6-.73Z"/>
              <path class="st12" d="M211.44,133.03c-.29-4.14-3.86-11.04-3.86-11.04,0,0-2.64-4.78-4.47-7.11-3.51-4.49-14.31-5.26-14.31-5.26l-26.6-.74s-.5,0-1.08.15v-.08s.23-.87,1.05-1.42c.83-.55,2.03-.55,2.03-.55l26.6.73s10.8.77,14.31,5.27c1.83,2.33,4.46,7.1,4.46,7.1,0,0,3.59,6.9,3.87,11.05.29,4.15-1.9,6.71-1.9,6.71,0,0-.36.66-1.86,1.71.48-.66,2.01-3.03,1.76-6.53Z"/>
              <path class="st4" d="M161,114.69l.13-5.73s.09-.34.35-.72l-.02,1.31s-.24,1.33,0,2.48c.23,1.15,3.76,8.12,7.74,13.58,3.99,5.47,9.01,9.7,9.01,9.7,0,0,2.2,1.91,4.8,2.93,2.6,1.02,6.02,1.45,6.02,1.45,0,0,7.52.68,14.67-2.05,7.14-2.73,8.31-4.92,8.31-4.92,0,0,.78-.91,1.35-2.52.05.32.09.64.11.94.29,4.15-1.9,6.71-1.9,6.71,0,0-1.17,2.19-8.31,4.91-7.14,2.73-14.66,2.05-14.66,2.05,0,0-3.42-.43-6.02-1.44-2.6-1.01-4.8-2.93-4.8-2.93,0,0-5.02-4.24-9.01-9.7-3.99-5.47-7.51-12.43-7.75-13.58-.24-1.16,0-2.48,0-2.48Z"/>
            </g>
            <g>
              <path class="st12" d="M182.73,107.5l7.8.22s.57.04,1.5.16l10.65,34.98c-3.03,1.12-6.1,1.64-8.62,1.87l-11.33-37.23Z"/>
              <path class="st24" d="M190.57,107.72c.13.01.66.05,1.47.16l.69,2.29c-2.25-.43-3.93-.54-3.93-.54l-5.48-.15-.59-1.96,7.84.21Z"/>
              <path class="st16" d="M202.68,142.86s-.05.02-.07.03c-2.96,1.14-5.99,1.68-8.52,1.93l-1.52-4.99c2.38-.12,5.53-.49,8.73-1.47l1.37,4.5Z"/>
            </g>
            <path class="st12" d="M179.52,107.43l10.84,37.46c-1.59.02-2.57-.08-2.57-.08,0,0-.12,0-.34-.04l-10.84-37.41,2.9.08Z"/>
            <polygon class="st24" points="176.63 107.35 179.52 107.43 180.09 109.38 177.19 109.29 176.63 107.35"/>
            <path class="st16" d="M190.36,144.89c-1.13-.01-1.8-.08-1.8-.08,0,0-.45-.06-1.15-.17l-1.6-5.56c1.39.33,2.6.52,3.03.58l1.52,5.22Z"/>
          </g>
        </g>
      </g>
      <g>
        <g>
          <path class="st19" d="M137.68,95.76l6-5.36-1.93-14.79s-1.53-.57-4.07-.57-4.08.57-4.08.57l-1.93,14.79,6,5.36h0Z"/>
          <path d="M143.16,101.23c1.62-1.46,3.25-2.9,4.87-4.35,1.85-1.65,3.75-3.78,3.4-6.49-.07-.54-.14-1.09-.21-1.63-.57-4.38-1.15-8.77-1.72-13.15,0-1.4-.35-2.7-1.05-3.91-1.08-1.84-2.68-2.85-4.64-3.56-1.92-.69-4.12-.83-6.13-.85-2.01-.03-4.24.16-6.14.85-1.31.37-2.45,1.03-3.42,2-1.6,1.59-1.99,3.33-2.27,5.48-.57,4.33-1.13,8.66-1.69,12.98-.08.6-.16,1.2-.23,1.79-.35,2.62,1.44,4.77,3.24,6.38,1.68,1.5,3.35,2.99,5.02,4.49-.76-1.83-1.51-3.65-2.27-5.48h0c0,5.61,6.68,10.02,11.67,6.7h0c-3.89-2.23-7.78-4.47-11.67-6.7h0c0,4.22,3.53,7.75,7.76,7.75s7.75-3.52,7.75-7.75h0c0-4.23-3.53-7.76-7.75-7.76s-7.76,3.53-7.76,7.76h0c0,4.22,3.53,7.75,7.76,7.75s7.75-3.52,7.75-7.75h0c0-5.62-6.68-10.02-11.67-6.7h0c3.89,2.23,7.78,4.47,11.67,6.7,0-3.75-2.38-5.58-4.79-7.74-1.16-1.04-2.32-2.07-3.48-3.11.76,1.82,1.51,3.65,2.27,5.48.65-4.93,1.29-9.86,1.93-14.79-1.9,2.49-3.8,4.99-5.7,7.48.64-.23,1.33-.34,2-.44-.69.09-1.37.19-2.06.28,1.38-.17,2.76-.17,4.15,0-.69-.09-1.37-.18-2.07-.28.67.1,1.37.21,2,.44-1.9-2.49-3.79-4.98-5.69-7.48.64,4.93,1.29,9.86,1.93,14.79.76-1.82,1.52-3.65,2.27-5.48-2,1.78-4,3.57-6,5.35-3.16,2.82-2.86,8.11,0,10.97,3.12,3.12,7.82,2.81,10.97,0Z"/>
        </g>
        <path class="st20" d="M137.68,95.76l6-5.36-1.93-14.79s-1.53-.57-4.07-.57-4.08.57-4.08.57l-1.93,14.79,6,5.36h0Z"/>
        <path class="st26" d="M133.6,77.48s1.52-.57,4.08-.57,4.07.57,4.07.57l1.71,13.1.22-.2-1.93-14.79s-1.53-.57-4.07-.57-4.08.57-4.08.57l-1.93,14.79.22.2,1.71-13.1Z"/>
        <polygon class="st23" points="137.68 92.51 137.68 92.52 137.68 92.52 137.68 92.52 137.68 92.51 132.05 87.49 131.67 90.39 137.68 95.76 137.68 95.76 137.68 95.76 137.68 95.76 137.68 95.76 143.67 90.39 143.3 87.49 137.68 92.51"/>
      </g>
      <g>
        <g>
          <path class="st19" d="M146.55,114.79c0,.93-.75,1.68-1.68,1.68h-14.39c-.93,0-1.68-.75-1.68-1.68h0c0-.93.75-1.68,1.68-1.68h14.39c.93,0,1.68.75,1.68,1.68h0Z"/>
          <path d="M137.5,114.79c0,.12-.03.22-.03.34.1-.81.21-1.61.32-2.41-.03.1-.07.21-.1.32.3-.73.6-1.44.91-2.16-.05.1-.1.19-.15.29.47-.61.94-1.22,1.41-1.83-.12.18-.28.33-.45.45.6-.47,1.22-.94,1.83-1.41-.1.05-.19.1-.29.16.72-.31,1.44-.61,2.16-.91-.1.03-.21.06-.31.1.8-.11,1.61-.22,2.41-.32-2.47.25-5.06.03-7.53.03s-5.07.21-7.53-.03c.8.1,1.6.21,2.41.32-.11-.04-.21-.07-.32-.1.72.3,1.44.61,2.16.91-.09-.05-.19-.1-.28-.16.61.47,1.22.94,1.83,1.41-.18-.12-.33-.27-.45-.45.47.61.94,1.22,1.42,1.83-.05-.1-.11-.19-.16-.29.31.72.61,1.44.92,2.16-.03-.11-.07-.22-.1-.32.1.8.21,1.6.32,2.41-.05-.22-.05-.46,0-.68-.11.8-.22,1.61-.32,2.4.03-.1.06-.21.1-.32-.31.73-.61,1.45-.92,2.17.06-.1.11-.2.16-.29-.47.61-.95,1.22-1.42,1.83.12-.18.27-.34.45-.45-.61.47-1.22.94-1.83,1.41.09-.05.19-.1.28-.16-.72.31-1.44.61-2.16.92.11-.04.21-.07.32-.1-.81.11-1.61.21-2.41.32,2.47-.25,5.06-.04,7.53-.04s5.06-.22,7.53.04c-.8-.11-1.61-.21-2.41-.32.1.03.21.06.31.1-.72-.31-1.44-.61-2.16-.92.09.06.19.11.29.16-.61-.47-1.23-.94-1.83-1.41.18.12.33.27.45.45-.47-.61-.94-1.22-1.41-1.83.05.09.1.19.15.29-.31-.72-.61-1.44-.91-2.17.03.11.06.22.1.32-.11-.8-.22-1.6-.32-2.4,0,.12.02.23.03.34.25,2.49.82,4.57,2.65,6.4,1.69,1.69,4.01,2.65,6.4,2.65s4.7-.96,6.39-2.65c1.55-1.55,2.88-4.13,2.65-6.4-.3-3-1.02-5.02-2.94-7.34-1.26-1.54-3.19-2.46-5.05-3.04-1.09-.33-2.28-.36-3.42-.36h-11.06c-1.73,0-3.74-.15-5.39.36-1.85.58-3.78,1.5-5.04,3.04-1.92,2.33-2.64,4.34-2.94,7.34-.28,2.74,1.28,5.34,2.94,7.34,1.86,2.25,4.67,3.08,7.45,3.36,1.05.1,2.14.04,3.19.04h10.97c1.1,0,2.29-.05,3.31-.36,1.85-.58,3.78-1.5,5.05-3.03,1.92-2.33,2.64-4.35,2.94-7.34.23-2.27-1.1-4.85-2.65-6.4-1.69-1.69-4-2.65-6.39-2.65s-4.71.96-6.4,2.65c-1.82,1.83-2.4,3.91-2.65,6.4Z"/>
        </g>
        <path class="st20" d="M146.55,114.79c0,.93-.75,1.68-1.68,1.68h-14.39c-.93,0-1.68-.75-1.68-1.68h0c0-.93.75-1.68,1.68-1.68h14.39c.93,0,1.68.75,1.68,1.68h0Z"/>
        <path class="st26" d="M130.48,113.85h14.39c.8,0,1.46.56,1.63,1.31.03-.12.05-.25.05-.38,0-.93-.75-1.68-1.68-1.68h-14.39c-.93,0-1.68.75-1.68,1.68,0,.13.01.25.04.38.17-.75.84-1.31,1.64-1.31Z"/>
        <path class="st23" d="M130.48,115.72h14.39c.8,0,1.46-.56,1.63-1.31.03.12.05.25.05.38,0,.93-.75,1.68-1.68,1.68h-14.39c-.93,0-1.68-.75-1.68-1.68,0-.13.01-.26.04-.38.17.75.84,1.31,1.64,1.31Z"/>
      </g>
    </g>
    <path d="M145.21,220.5c-.04.28-.12.56-.21.83-.05.14-.11.29-.17.44.37-.92.1-.24,0-.04-.1.19-.21.38-.32.56-.1.16-.59.8-.08.16-.29.37-.63.7-.98,1.02-.24.2-.23.19.05-.02-.13.09-.25.18-.39.27-.28.19-.57.34-.87.49-.3.14-.32.15-.06.05-.18.08-.35.14-.54.2-.38.14-.79.24-1.18.33-.87.21-1.54.24-2.48.27-1.72.05-3.11-.14-4.73-.74.47.17-.44-.22-.53-.27-.29-.15-.56-.33-.82-.51.56.39-.17-.16-.28-.25-.2-.18-.38-.38-.55-.58-.35-.39.33.5-.11-.15-.12-.18-.24-.38-.35-.56-.09-.17-.18-.35-.26-.54.4.87.12.3.05.09-.15-.43-.31-1.73-.15-.28-.17-1.54-1.17-2.84-2.84-2.84-1.42,0-3.01,1.3-2.84,2.84.21,1.95,1.02,3.65,2.24,5.17,2.48,3.1,6.55,4.18,10.35,4.31,3.98.14,8.29-.96,11.05-3.98,1.15-1.26,2.25-3.01,2.5-4.74.22-1.54-.35-3.05-1.99-3.5-1.35-.38-3.28.45-3.5,1.99h0Z"/>
  </g>
</svg>