<?xml version="1.0" encoding="UTF-8"?>
<svg id="Layer_1" xmlns="http://www.w3.org/2000/svg" version="1.1" viewBox="0 0 282.88 322.95">
  <!-- Generator: Adobe Illustrator 29.6.1, SVG Export Plug-In . SVG Version: 2.1.1 Build 9)  -->
  <defs>
    <style>
      .st0 {
        fill: #ffd7c3;
      }

      .st1 {
        fill: #fff4c5;
      }

      .st2 {
        fill: #ff8806;
      }

      .st3 {
        fill: #ffce00;
      }

      .st4 {
        fill: #0b397c;
      }

      .st5 {
        fill: #000002;
      }

      .st6 {
        fill: #1694d3;
      }

      .st7 {
        fill: #fff4c7;
      }

      .st8 {
        fill: #ffb000;
      }

      .st9 {
        fill: #055b96;
      }

      .st10 {
        fill: #f38b9e;
      }

      .st11 {
        fill-rule: evenodd;
      }

      .st12 {
        fill: #fff;
      }

      .st13 {
        fill: #fdc361;
      }

      .st14 {
        fill: #aee8ff;
      }

      .st15 {
        fill: #fde5d2;
      }

      .st16 {
        fill: #ff9700;
      }

      .st17 {
        fill: #ffebde;
      }

      .st18 {
        fill: #ffc0a4;
      }

      .st19 {
        fill: #002b5e;
      }

      .st20 {
        fill: #1a4591;
      }

      .st21 {
        fill: #ffd401;
      }

      .st22 {
        fill: #1c75bc;
      }

      .st23 {
        fill: #ffb103;
      }
    </style>
  </defs>
  <g>
    <g>
      <g>
        <path class="st0" d="M101.76,237.27s-29.14,34.62-16.49,42.08c12.64,7.46,30.34-24.88,30.34-24.88l-13.84-17.19Z"/>
        <path d="M99.13,234.64c-3.52,4.17-6.77,8.6-9.83,13.12-4.79,7.08-9.68,15-10.82,23.62-.46,3.54.44,7.48,3.2,9.92,3.35,2.95,8.05,3.57,12.19,2.08,4.33-1.56,7.96-4.62,11.12-7.88,3.23-3.34,6.06-7.08,8.69-10.9,1.83-2.66,3.59-5.41,5.15-8.24.87-1.6.5-3.16-.58-4.51-4.62-5.73-9.23-11.46-13.84-17.19-1.28-1.58-3.95-1.32-5.26,0-1.55,1.55-1.27,3.69,0,5.26,4.61,5.73,9.23,11.46,13.84,17.19-.19-1.5-.39-3-.59-4.51-.88,1.61-1.84,3.18-2.83,4.72-1.02,1.61-2.07,3.18-3.16,4.73-.59.85-1.21,1.68-1.83,2.51-.17.21-.32.42-.49.63.6-.78.03-.04-.08.09-.4.5-.79.99-1.21,1.48-1.43,1.74-2.96,3.41-4.6,4.97-.75.72-1.54,1.4-2.34,2.06-.69.55.66-.5-.04.03-.2.15-.4.29-.6.44-.46.32-.93.63-1.41.92-.39.24-.79.46-1.21.68-.2.1-.4.2-.6.29-.73.34.82-.32.08-.03-.4.15-.8.28-1.2.39-.35.1-1.96.34-.61.18-.39.04-.79.05-1.19.05-.19,0-.39-.02-.59-.04,1.19.11.5.07.21.02-.39-.08-.77-.2-1.14-.33-.72-.25.83.38.13.05-.24-.11-.48-.25-.71-.39-.97-.59.46.44-.18-.12-.24-.21-.46-.45-.65-.7.85,1.04.15.15-.02-.17-.53-.97.24.79-.1-.28-.1-.32-.16-.63-.22-.96-.12-.68.12,1.01.04.31-.02-.17-.03-.35-.03-.53-.02-.36-.01-.73,0-1.09.02-.35.22-1.91.02-.54.26-1.81.81-3.57,1.44-5.27.16-.45.34-.9.53-1.34-.44,1.06.2-.45.31-.7.46-1.01.95-2.01,1.47-3,2.01-3.88,4.37-7.59,6.84-11.19,1.11-1.6,2.25-3.19,3.41-4.75.48-.65.96-1.29,1.45-1.93.11-.15.23-.3.34-.44.43-.56-.57.74-.15.2.23-.3.46-.6.69-.89.73-.92,1.46-1.84,2.22-2.74,1.3-1.55,1.52-3.73,0-5.26-1.34-1.34-3.96-1.55-5.26,0Z"/>
      </g>
      <path class="st22" d="M102.43,256.66l2.85-9.65-3.37-4.22s-5.56,6.9-7.42,9.82l7.93,4.05Z"/>
      <path class="st14" d="M102.52,256.51l-4.7-5.39c1.3-1.92,3.6-4.89,5.21-6.93l-1.11-1.39s-5.56,6.9-7.42,9.82.31,3.52,2.28.16l5.74,3.74Z"/>
      <g>
        <rect class="st5" x="93.08" y="247.03" width="7.23" height="20.65" transform="translate(-171.94 198.93) rotate(-57.14)"/>
        <path d="M103.65,267.11l-18.7-12.08,4.8-7.43,18.7,12.09-4.8,7.43ZM87.18,254.55l15.99,10.33,3.05-4.72-15.99-10.34-3.05,4.72Z"/>
      </g>
      <g>
        <rect class="st22" x="91.56" y="249.32" width="8.11" height="18.4" transform="translate(-175.52 208.92) rotate(-59.34)"/>
        <path d="M102.82,264.37c-5.28-3.13-10.55-6.26-15.82-9.38.32,1.23.65,2.47.96,3.7,1.38-2.33,2.76-4.66,4.14-6.99-1.24.32-2.47.65-3.7.97,5.27,3.13,10.55,6.26,15.82,9.39-.33-1.24-.65-2.47-.97-3.7-1.38,2.33-2.76,4.65-4.14,6.98-1.78,3.01,2.9,5.73,4.68,2.73,1.38-2.33,2.76-4.65,4.14-6.98.75-1.28.29-2.96-.97-3.7-5.27-3.13-10.55-6.26-15.82-9.38-1.27-.76-2.95-.29-3.7.97-1.39,2.32-2.76,4.65-4.14,6.98-.76,1.27-.29,2.95.97,3.7,5.28,3.13,10.55,6.26,15.83,9.38,3,1.78,5.73-2.89,2.73-4.67Z"/>
      </g>
    </g>
    <g>
      <g>
        <path class="st0" d="M181.52,237.38s29.15,34.61,16.5,42.08c-12.65,7.46-30.34-24.88-30.34-24.88l13.84-17.19Z"/>
        <path d="M178.89,240.01c1,1.19,1.96,2.4,2.91,3.63.42.54-.58-.75-.15-.2.12.15.23.3.33.45.24.31.48.62.71.93.56.74,1.11,1.49,1.66,2.24,1.19,1.64,2.36,3.3,3.49,4.99,2.44,3.64,4.73,7.4,6.66,11.34.23.46.44.92.65,1.38.12.25.76,1.76.32.7.4.95.75,1.9,1.06,2.88.27.83.5,1.67.69,2.53.09.4.16.8.22,1.21-.21-1.35,0,.2.02.55.02.36.01.73,0,1.09,0,.17-.02.35-.03.53-.06.7.15-1,.04-.32-.05.32-.14.64-.23.96-.31,1.08.4-.7-.11.29-.16.3-.86,1.24-.02.16-.2.25-.42.48-.66.69-.62.58.78-.49-.18.13-.16.11-.34.2-.52.29-.89.49.54-.18-.05.05-.37.14-.76.25-1.15.33-.27.06-1,.12.21-.01-.2.02-.39.03-.59.04-.4.01-.79,0-1.18-.05,1.35.14-.25-.08-.61-.17-.41-.11-.81-.25-1.21-.4-.74-.28.82.37.08.04-.2-.09-.4-.19-.6-.29-.92-.46-1.78-1.01-2.62-1.6-.2-.14-.4-.29-.6-.43-.7-.52.65.51-.04-.04-.4-.32-.79-.65-1.18-.99-.87-.76-1.69-1.56-2.5-2.38-1.58-1.62-3.06-3.36-4.47-5.14-.11-.14-.68-.87-.08-.1-.17-.21-.33-.42-.49-.64-.31-.42-.62-.84-.94-1.26-.64-.88-1.26-1.76-1.87-2.66-1-1.46-1.95-2.94-2.88-4.44-.73-1.19-1.45-2.38-2.13-3.6-.2,1.51-.39,3.01-.58,4.51,4.62-5.73,9.23-11.46,13.85-17.19,1.28-1.58,1.55-3.71,0-5.26-1.32-1.32-3.99-1.58-5.26,0-4.61,5.73-9.22,11.46-13.84,17.19-1.09,1.35-1.46,2.91-.59,4.5,2.96,5.39,6.53,10.5,10.4,15.26,5.11,6.28,13.26,14.61,22.26,12.15,3.82-1.04,6.92-4.17,7.55-8.12.63-3.96-.32-7.9-1.76-11.57-3.15-8.05-8.04-15.36-13.18-22.27-1.8-2.42-3.65-4.83-5.59-7.14-1.31-1.55-3.92-1.35-5.26,0-1.53,1.52-1.31,3.71,0,5.26Z"/>
      </g>
      <path class="st22" d="M180.85,256.76l-2.85-9.65,3.37-4.22s5.56,6.91,7.42,9.82l-7.94,4.05Z"/>
      <path class="st14" d="M180.77,256.61l4.7-5.39c-1.3-1.92-3.6-4.89-5.21-6.93l1.11-1.39s5.56,6.91,7.42,9.82c1.86,2.92-.31,3.52-2.28.15l-5.74,3.74Z"/>
      <g>
        <rect class="st5" x="176.26" y="253.84" width="20.65" height="7.24" transform="translate(-109.84 142.43) rotate(-32.86)"/>
        <path d="M179.64,267.21l-4.81-7.43,18.7-12.08,4.8,7.43-18.7,12.08ZM177.06,260.26l3.06,4.73,15.99-10.33-3.05-4.72-16,10.33Z"/>
      </g>
      <g>
        <rect class="st22" x="178.47" y="254.56" width="18.4" height="8.12" transform="translate(-105.66 131.89) rotate(-30.67)"/>
        <path d="M183.19,269.14c5.28-3.13,10.55-6.26,15.82-9.38,1.26-.75,1.73-2.43.98-3.71-1.38-2.33-2.76-4.65-4.14-6.98-.75-1.26-2.43-1.72-3.71-.97-5.28,3.13-10.55,6.26-15.82,9.38-1.26.75-1.73,2.43-.97,3.7,1.38,2.33,2.76,4.65,4.14,6.99,1.78,3,6.46.27,4.67-2.73-1.38-2.33-2.76-4.66-4.14-6.98-.32,1.24-.65,2.47-.97,3.7,5.28-3.12,10.55-6.25,15.82-9.38-1.24-.32-2.46-.65-3.7-.97,1.38,2.33,2.76,4.65,4.14,6.99.32-1.24.65-2.47.97-3.71-5.27,3.13-10.55,6.26-15.82,9.38-3,1.78-.28,6.46,2.72,4.67Z"/>
      </g>
    </g>
    <g>
      <path class="st20" d="M171.24,244.64h-59.69s-11.66,64.69-3.73,67.46c7.94,2.77,15.28-9.87,15.28-9.87,0,0,5.84,1.78,15.96,2.09h0c.76.04,1.54.04,2.34.04s1.56,0,2.33-.04h0c10.13-.32,15.96-2.1,15.96-2.1,0,0,7.35,12.64,15.27,9.87,7.93-2.77-3.72-67.46-3.72-67.46Z"/>
      <path d="M171.24,240.91h-59.69c-1.54,0-3.3,1.12-3.59,2.73-2.27,12.64-4.13,25.39-5.46,38.16-.81,7.73-1.63,15.69-.96,23.46.22,2.57.52,5.66,2.04,7.86,3,4.35,9.18,3.46,13.2,1.11,3.94-2.29,7.26-6.22,9.54-10.12-1.4.57-2.8,1.14-4.2,1.71,5.4,1.63,11.34,2.04,16.95,2.23-1.24-1.24-2.48-2.48-3.72-3.72h0c0,2.08,1.69,3.68,3.72,3.73,1.56.04,3.11.04,4.67,0,2.03-.05,3.72-1.65,3.72-3.72h0c-1.25,1.24-2.48,2.48-3.72,3.72,5.6-.19,11.55-.6,16.95-2.23-1.4-.57-2.8-1.13-4.2-1.71,1.78,3.04,4.16,5.95,6.87,8.19,3.94,3.26,10.38,5.88,14.86,2.06,2.1-1.79,2.54-5.06,2.88-7.61.43-3.26.41-6.58.31-9.87-.27-8.75-1.28-17.49-2.43-26.16-.99-7.53-2.11-15.05-3.37-22.54-.25-1.52-.51-3.03-.78-4.54-.36-2-2.76-3.1-4.57-2.6-2.09.57-2.96,2.58-2.6,4.58.72,3.97,1.36,7.97,1.98,11.96.63,4,1.21,8.01,1.76,12.03.13.91-.12-.86,0,.06.04.27.07.53.11.79.07.53.14,1.06.21,1.6.15,1.17.3,2.34.44,3.5.27,2.26.52,4.52.76,6.78.79,7.66,1.61,15.57.87,23.27-.03.33-.07.66-.11.98.18-1.45.04-.27-.03.07-.1.58-.23,1.15-.39,1.71-.06.23-.14.45-.22.67-.26.71.48-1.02.08-.22-.08.17-.18.32-.28.48-.35.54.8-.87.16-.25-.45.44.98-.64.34-.28-.41.23,1.06-.42.64-.26-.28.1-.57.17-.86.24-.95.22.8-.05-.14.02-.28.02-.56,0-.84,0-.94-.05.81.16-.11-.03-.38-.07-.73-.19-1.08-.31-.9-.31.71.34-.16-.06-.26-.12-.51-.26-.77-.4-.51-.28-1-.62-1.47-.96.73.53-.06-.05-.17-.15-.22-.18-.44-.38-.66-.58-.5-.45-.97-.93-1.43-1.42-.55-.58-1.07-1.2-1.57-1.82-.43-.54.48.64-.14-.18-.21-.28-.41-.56-.61-.84-.37-.54-.74-1.08-1.07-1.65-.83-1.41-2.61-2.19-4.21-1.71-1.31.4-2.68.66-4.04.91-.73.13-1.46.25-2.19.36-1.17.17.76-.09-.47.06-.53.07-1.07.13-1.6.19-2.21.24-4.43.37-6.66.45-2.03.07-3.72,1.64-3.72,3.72h0c1.24-1.23,2.48-2.47,3.72-3.71-1.56.04-3.12.04-4.67,0,1.24,1.24,2.48,2.48,3.71,3.72h0c0-2.08-1.69-3.65-3.71-3.72-2.23-.08-4.44-.22-6.66-.45-.4-.04-.8-.09-1.21-.14-.25-.03-.51-.07-.76-.1.37.05.35.05-.09-.02-.74-.11-1.47-.23-2.2-.36-1.36-.24-2.73-.51-4.05-.91-1.59-.48-3.37.29-4.2,1.71-.54.93-1.17,1.81-1.82,2.68-.5.66.53-.68,0,0-.16.2-.32.4-.49.6-.35.42-.72.83-1.08,1.23-.39.42-.8.83-1.22,1.22-.21.2-.43.4-.65.59-.13.11-1.15.9-.4.34-.46.36-.96.66-1.47.96-.25.15-.5.28-.76.4-.87.43.73-.27-.16.06-.26.1-.53.17-.81.24-.19.05-1.12.19-.11.07-.27.03-.55.03-.83.03-.19,0-.37,0-.57-.02.52.07.57.08.14,0-.74-.14-1.37-.58-.22.02-.65-.34.8.7.34.28-.6-.55.38.55.21.32-.12-.18-.23-.36-.33-.55-.41-.79.36.92.09.22-.09-.22-.16-.44-.22-.67-.17-.55-.29-1.13-.39-1.71-.06-.33-.22-1.52-.03-.07-.04-.33-.07-.65-.11-.98-.08-.78-.12-1.56-.16-2.34-.18-3.74-.01-7.49.22-11.22.28-4.42.71-8.83,1.2-13.23.25-2.25.53-4.5.81-6.75.08-.53.14-1.06.21-1.6.04-.26.07-.53.1-.79.12-.92-.11.86.01-.06.15-1.12.3-2.23.46-3.35.89-6.27,1.87-12.54,2.95-18.78.11-.62.22-1.24.33-1.86-1.2.91-2.39,1.82-3.58,2.73h59.69c4.79,0,4.79-7.44,0-7.44Z"/>
    </g>
    <g>
      <path class="st5" d="M202.98,318.44c0,1.82-27.57,3.29-61.58,3.29s-61.59-1.47-61.59-3.29,27.57-3.29,61.59-3.29,61.58,1.48,61.58,3.29Z"/>
      <path d="M141.4,322.95c-16.47,0-31.96-.34-43.62-.97-19.18-1.03-19.18-2.19-19.18-3.54s0-2.51,19.18-3.53c11.66-.62,27.14-.96,43.62-.96s31.96.34,43.61.96c19.18,1.03,19.18,2.19,19.18,3.53s0,2.51-19.18,3.54c-11.66.62-27.14.97-43.61.97ZM84.15,318.44c7.79,1.03,27.87,2.08,57.25,2.08s49.44-1.05,57.24-2.08c-7.79-1.03-27.86-2.08-57.24-2.08s-49.46,1.05-57.25,2.08Z"/>
    </g>
    <g>
      <g>
        <polygon class="st15" points="169.25 243.84 141.61 243.84 141.37 243.84 113.74 243.84 101.76 283.23 141.37 283.23 141.61 283.23 181.22 283.23 169.25 243.84"/>
        <path d="M169.25,236.4h-55.51c-3.37,0-6.2,2.28-7.18,5.46-3.82,12.55-7.63,25.1-11.44,37.65-.18.57-.35,1.15-.53,1.74-1.41,4.65,2.44,9.42,7.18,9.42h79.46c4.74,0,8.59-4.77,7.17-9.42-3.82-12.55-7.63-25.1-11.45-37.65-.17-.58-.35-1.16-.53-1.74-1.18-3.88-5.17-6.29-9.16-5.2-3.83,1.06-6.38,5.28-5.2,9.16,3.82,12.55,7.63,25.1,11.45,37.65.18.58.35,1.16.52,1.73,2.4-3.14,4.79-6.28,7.18-9.42h-79.46c2.39,3.14,4.79,6.28,7.18,9.42,3.82-12.55,7.63-25.1,11.45-37.65.18-.58.35-1.15.53-1.73-2.39,1.82-4.78,3.64-7.18,5.46h55.51c4.06,0,7.44-3.38,7.44-7.44s-3.38-7.44-7.44-7.44Z"/>
      </g>
      <polygon class="st22" points="169.25 243.84 141.61 243.84 141.37 243.84 113.74 243.84 101.76 283.23 141.37 283.23 141.61 283.23 181.22 283.23 169.25 243.84"/>
    </g>
    <polygon class="st14" points="113.24 245.4 101.76 283.23 132.99 283.23 107.49 279.49 113.24 245.4"/>
    <polygon class="st14" points="169.74 245.4 181.21 283.23 149.99 283.23 175.49 279.49 169.74 245.4"/>
    <polygon class="st19" points="109.11 290.66 108.84 295.32 173.81 295.32 173.52 290.66 109.11 290.66"/>
    <rect class="st5" x="138.42" y="242.96" width="5.95" height="41.41"/>
    <g>
      <g>
        <g>
          <path class="st15" d="M146.78,289.62c0,.95-.7,1.71-1.57,1.71l-7.6.02c-.87,0-1.58-.76-1.58-1.7v-4.56c-.02-.95.68-1.71,1.55-1.72l7.6-.02c.87,0,1.58.76,1.58,1.71v4.56Z"/>
          <path d="M142.04,289.62c.15-1.64,1.21-3.01,3.12-3.02h-.49c-.61,0-1.23,0-1.84,0-1.45,0-2.91,0-4.36.01h-.86c1.95,0,3.15,1.62,3.16,2.96,0-.25,0-.5,0-.74,0-1.25,0-2.5,0-3.75,0,1.65-1.53,3.01-3.12,3.02h.49c.61,0,1.22,0,1.84,0,1.45,0,2.92,0,4.36-.01.29,0,.57,0,.86,0-1.94,0-3.15-1.62-3.16-2.95,0,.24,0,.49,0,.73,0,1.25,0,2.51,0,3.75,0,2.58,2.14,4.73,4.74,4.73s4.75-2.15,4.73-4.73c0-1.49-.01-2.99-.02-4.48-.01-4-3.21-6.53-7-6.52-1.89,0-3.78.01-5.67.02-.52,0-1.04-.02-1.55.04-3.59.4-5.67,2.92-5.98,6.42-.13,1.47,0,3.01,0,4.49.02,3.99,3.22,6.52,7.01,6.51,1.89,0,3.78-.01,5.67-.02.52,0,1.04.02,1.56-.04,3.58-.41,5.67-2.91,5.98-6.42.23-2.57-2.33-4.74-4.73-4.74-2.75,0-4.51,2.17-4.74,4.74Z"/>
        </g>
        <path class="st3" d="M146.78,289.62c0,.95-.7,1.71-1.57,1.71l-7.6.02c-.87,0-1.58-.76-1.58-1.7v-4.56c-.02-.95.68-1.71,1.55-1.72l7.6-.02c.87,0,1.58.76,1.58,1.71v4.56Z"/>
        <path class="st5" d="M145.2,288.82v-2.96c0-.61-.5-1.11-1.12-1.11l-5.37.02c-.61,0-1.11.5-1.11,1.12v.55h2.52c.51,0,.93.4.93.92s-.41.93-.92.93h-2.52v.56c0,.62.5,1.12,1.11,1.11l5.37-.02c.62,0,1.11-.5,1.11-1.11Z"/>
        <g>
          <path class="st7" d="M144.91,285.12c.18.2.28.46.28.74v2.96c.01.61-.48,1.11-1.1,1.11l-5.37.02c-.11,0-.22-.02-.33-.05.21.22.5.37.83.37l5.37-.02c.61,0,1.11-.5,1.11-1.11v-2.96c-.01-.5-.34-.92-.79-1.06Z"/>
          <path class="st7" d="M140.61,286.75c.08,0,.16.02.23.04-.17-.21-.43-.35-.72-.35h-2.02v.33h2.51Z"/>
          <path class="st7" d="M136.54,289.98v-4.56c-.02-.95.68-1.72,1.55-1.72l7.6-.03c.19,0,.37.04.54.11-.28-.26-.64-.43-1.04-.43l-7.6.02c-.87,0-1.57.77-1.56,1.72v4.56c.01.74.44,1.36,1.05,1.6-.33-.31-.54-.77-.54-1.28Z"/>
        </g>
      </g>
      <g>
        <path class="st8" d="M143.91,284.25l-5.37.02c-.61,0-1.11.5-1.11,1.11v.55h.16v-.06c0-.61.5-1.12,1.11-1.12l5.37-.02c.4,0,.75.21.95.53-.05-.58-.52-1.03-1.11-1.03Z"/>
        <path class="st8" d="M137.61,288.93s0-.06,0-.09v-.55h2.52c.51,0,.92-.42.92-.93,0-.2-.06-.38-.17-.52v.03c0,.51-.41.92-.92.93h-2.52v.56c0,.21.06.41.17.58Z"/>
        <path class="st8" d="M146.78,289.62v-4.56c-.02-.29-.08-.57-.21-.81.02.1.03.21.03.32v4.56c.01.95-.69,1.71-1.56,1.71l-7.6.03c-.59,0-1.12-.36-1.39-.9.14.79.78,1.39,1.55,1.39l7.6-.02c.87,0,1.57-.77,1.57-1.71Z"/>
      </g>
    </g>
    <g>
      <g>
        <g>
          <g>
            <g>
              <polygon class="st15" points="134.62 241.81 129.09 250.39 114.12 240.65 134.62 241.81"/>
              <path d="M129.95,239.08c-1.84,2.86-3.68,5.72-5.52,8.58,2.47-.65,4.94-1.29,7.4-1.94-4.99-3.25-9.98-6.49-14.97-9.74-.91,3.36-1.82,6.72-2.74,10.08,6.83.39,13.66.78,20.5,1.17,2.95.17,5.41-2.59,5.41-5.41,0-3.08-2.47-5.24-5.41-5.41-6.84-.39-13.67-.77-20.5-1.16-2.38-.14-4.6,1.75-5.21,3.97-.68,2.42.43,4.78,2.49,6.11,4.99,3.24,9.98,6.49,14.97,9.73,2.55,1.66,5.87.45,7.4-1.94,1.85-2.86,3.68-5.71,5.52-8.58,1.6-2.48.52-5.96-1.94-7.4-2.63-1.54-5.81-.54-7.4,1.94Z"/>
            </g>
            <polygon class="st22" points="134.62 241.81 129.09 250.39 114.12 240.65 134.62 241.81"/>
          </g>
          <polygon class="st3" points="122.81 246.21 125.71 248.09 130.06 241.55 126.07 241.33 122.81 246.21"/>
        </g>
        <polygon class="st9" points="114.12 240.65 129.09 250.39 134.62 241.81 132.42 241.68 128.28 247.88 114.12 240.65"/>
        <polygon class="st16" points="126.46 246.95 123.36 245.36 122.81 246.2 125.7 248.08 126.46 246.95"/>
      </g>
      <g>
        <g>
          <g>
            <g>
              <polygon class="st15" points="148.17 241.81 153.7 250.39 168.67 240.65 148.17 241.81"/>
              <path d="M143.5,244.55c1.84,2.86,3.68,5.72,5.52,8.58,1.54,2.39,4.85,3.6,7.4,1.94,4.99-3.24,9.98-6.49,14.98-9.73,2.04-1.33,3.16-3.69,2.49-6.11-.61-2.23-2.84-4.11-5.22-3.97-6.83.39-13.66.78-20.5,1.16-2.94.17-5.41,2.33-5.41,5.41,0,2.83,2.46,5.58,5.41,5.41,6.83-.39,13.66-.78,20.5-1.17-.91-3.36-1.82-6.72-2.73-10.08-5,3.24-9.98,6.49-14.97,9.74,2.46.65,4.93,1.29,7.4,1.94-1.84-2.86-3.68-5.72-5.52-8.58-1.6-2.47-4.78-3.48-7.4-1.94-2.46,1.44-3.54,4.92-1.94,7.4Z"/>
            </g>
            <polygon class="st22" points="148.17 241.81 153.7 250.39 168.67 240.65 148.17 241.81"/>
          </g>
          <polygon class="st3" points="159.98 246.21 157.09 248.09 152.73 241.55 156.73 241.33 159.98 246.21"/>
        </g>
        <polygon class="st9" points="168.67 240.65 153.7 250.39 148.17 241.81 150.37 241.68 154.52 247.88 168.67 240.65"/>
        <polygon class="st16" points="156.34 246.95 159.43 245.36 159.99 246.2 157.1 248.08 156.34 246.95"/>
      </g>
    </g>
    <g>
      <g>
        <g>
          <g>
            <path class="st12" d="M62.12,148.64c-1.08,9.9-9.99,17.06-19.89,15.98-9.91-1.09-17.06-9.99-15.98-19.9,1.08-9.91,9.99-17.06,19.9-15.98,9.9,1.08,17.06,9.99,15.97,19.9Z"/>
            <path d="M54,148.64c-.02.12-.03.25-.04.38.09-.72.19-1.44.29-2.16-.23,1.61-.64,3.15-1.26,4.66.28-.65.55-1.29.82-1.94-.43,1-.94,1.95-1.53,2.87-.35.54-1.52,2.01.22-.19-.38.46-.78.9-1.19,1.32-.33.34-.68.66-1.04.98-1.51,1.34,1.62-1.12-.04.03-.97.68-2.03,1.23-3.12,1.71.65-.28,1.29-.55,1.94-.83-1.46.61-2.96,1.02-4.52,1.26.72-.1,1.44-.19,2.16-.29-1.62.21-3.23.22-4.85.02.71.1,1.43.19,2.16.29-1.61-.23-3.16-.64-4.66-1.26.64.27,1.29.55,1.93.82-1-.43-1.95-.94-2.87-1.52-.54-.35-2-1.52.2.22-.46-.37-.9-.77-1.33-1.18-.34-.33-.66-.68-.98-1.04-1.34-1.51,1.13,1.61-.03-.04-.68-.97-1.23-2.03-1.71-3.12.28.65.55,1.29.82,1.94-.61-1.45-1.02-2.95-1.25-4.51.1.71.2,1.44.29,2.16-.21-1.62-.22-3.23-.02-4.85-.1.71-.2,1.43-.29,2.15.23-1.61.65-3.15,1.26-4.66-.27.65-.55,1.29-.82,1.94.43-1,.94-1.95,1.52-2.87.35-.54,1.52-2.01-.21.2.37-.46.77-.9,1.18-1.32.33-.35.68-.66,1.03-.98,1.51-1.34-1.61,1.12.05-.04.97-.68,2.03-1.23,3.12-1.7-.65.27-1.29.55-1.94.81,1.46-.6,2.96-1.02,4.52-1.25-.72.1-1.44.19-2.16.29,1.62-.21,3.23-.21,4.86-.02-.72-.1-1.44-.19-2.16-.29,1.61.22,3.15.64,4.65,1.26-.64-.28-1.29-.55-1.94-.82,1,.43,1.95.93,2.87,1.52.54.35,2.01,1.52-.19-.22.46.37.9.78,1.33,1.18.34.33.66.68.97,1.04,1.34,1.51-1.12-1.61.03.04.68.97,1.23,2.04,1.7,3.12-.27-.65-.55-1.29-.82-1.94.6,1.46,1.02,2.96,1.25,4.51-.1-.71-.19-1.44-.29-2.15.19,1.49.21,2.97.06,4.47-.43,4.41,4.02,8.12,8.12,8.12,2.14,0,4.23-.86,5.74-2.38,1.64-1.64,2.16-3.51,2.38-5.74.77-7.73-2.53-15.81-8.19-21.07-6.44-5.97-15.09-8.05-23.62-6.41-7.42,1.43-14.34,6.99-17.59,13.76-3.79,7.87-3.62,16.78.5,24.49,2.39,4.48,6.52,8.42,11.09,10.62,5.58,2.68,11.45,3.32,17.52,2.16,5.01-.96,9.91-3.93,13.35-7.65,1.75-1.9,3.32-4.08,4.39-6.44,1.45-3.17,2.14-6.01,2.55-9.47.24-2.01-1.01-4.37-2.38-5.74-1.52-1.52-3.6-2.38-5.74-2.38s-4.22.86-5.74,2.38c-1.66,1.66-2.11,3.49-2.38,5.74Z"/>
          </g>
          <path class="st0" d="M62.12,148.64c-1.08,9.9-9.99,17.06-19.89,15.98-9.91-1.09-17.06-9.99-15.98-19.9,1.08-9.91,9.99-17.06,19.9-15.98,9.9,1.08,17.06,9.99,15.97,19.9Z"/>
          <path class="st17" d="M57.55,147.63c-.79,7.26-7.32,12.5-14.58,11.71-7.26-.79-12.5-7.32-11.71-14.58.8-7.26,7.32-12.51,14.58-11.71,7.26.79,12.5,7.32,11.71,14.57Z"/>
        </g>
        <g>
          <g>
            <path class="st12" d="M256.55,148.64c-1.09,9.9-9.99,17.06-19.9,15.98-9.91-1.09-17.06-9.99-15.98-19.9,1.08-9.91,9.99-17.06,19.9-15.98,9.9,1.08,17.06,9.99,15.97,19.9Z"/>
            <path d="M248.43,148.64c-.01.12-.03.25-.05.38.1-.72.19-1.44.29-2.16-.23,1.61-.64,3.15-1.26,4.66.27-.65.55-1.29.82-1.94-.43,1-.94,1.95-1.52,2.87-.35.54-1.52,2.01.22-.19-.37.46-.77.9-1.18,1.32-.33.34-.69.66-1.03.98-1.51,1.34,1.6-1.12-.05.03-.98.68-2.04,1.23-3.13,1.71.65-.28,1.3-.55,1.94-.83-1.46.61-2.96,1.02-4.52,1.26.72-.1,1.44-.19,2.16-.29-1.62.21-3.23.22-4.85.02.72.1,1.43.19,2.16.29-1.61-.23-3.16-.64-4.66-1.26.65.27,1.29.55,1.94.82-1-.43-1.95-.94-2.87-1.52-.55-.35-2.01-1.52.19.22-.47-.37-.9-.77-1.33-1.18-.34-.33-.66-.68-.98-1.04-1.34-1.51,1.12,1.61-.03-.04-.68-.97-1.24-2.03-1.71-3.12.28.65.55,1.29.82,1.94-.6-1.45-1.02-2.95-1.25-4.51.1.71.2,1.44.29,2.16-.21-1.62-.21-3.23-.02-4.85-.1.71-.19,1.43-.29,2.15.23-1.61.64-3.15,1.25-4.66-.27.65-.55,1.29-.82,1.94.43-1,.94-1.95,1.52-2.87.34-.54,1.52-2.01-.22.2.37-.46.77-.9,1.18-1.32.33-.35.68-.66,1.04-.98,1.51-1.34-1.61,1.12.04-.04.98-.68,2.04-1.23,3.12-1.7-.65.27-1.29.55-1.93.81,1.46-.6,2.96-1.02,4.51-1.25-.72.1-1.44.19-2.16.29,1.62-.21,3.23-.21,4.86-.02-.72-.1-1.44-.19-2.16-.29,1.61.22,3.15.64,4.66,1.26-.65-.28-1.3-.55-1.94-.82.99.43,1.95.93,2.86,1.52.55.35,2,1.52-.2-.22.46.37.9.78,1.33,1.18.34.33.66.68.97,1.04,1.33,1.51-1.12-1.61.03.04.68.97,1.24,2.04,1.71,3.12-.27-.65-.54-1.29-.81-1.94.6,1.46,1.01,2.96,1.25,4.51-.1-.71-.2-1.44-.29-2.15.2,1.49.21,2.97.07,4.47-.43,4.41,4.02,8.12,8.12,8.12,2.14,0,4.23-.86,5.74-2.38,1.64-1.64,2.16-3.51,2.38-5.74.76-7.73-2.52-15.81-8.19-21.07-6.44-5.97-15.09-8.05-23.61-6.41-7.42,1.43-14.34,6.99-17.6,13.76-3.79,7.87-3.62,16.78.5,24.49,2.39,4.48,6.52,8.42,11.1,10.62,5.57,2.68,11.46,3.32,17.51,2.16,5.01-.96,9.91-3.93,13.35-7.65,1.76-1.9,3.32-4.08,4.4-6.44,1.45-3.17,2.14-6.01,2.55-9.47.24-2.01-1.01-4.37-2.38-5.74-1.51-1.52-3.6-2.38-5.74-2.38s-4.23.86-5.74,2.38c-1.66,1.66-2.11,3.49-2.38,5.74Z"/>
          </g>
          <path class="st0" d="M256.55,148.64c-1.09,9.9-9.99,17.06-19.9,15.98-9.91-1.09-17.06-9.99-15.98-19.9,1.08-9.91,9.99-17.06,19.9-15.98,9.9,1.08,17.06,9.99,15.97,19.9Z"/>
          <path class="st17" d="M251.98,147.63c-.79,7.26-7.32,12.5-14.58,11.71-7.26-.79-12.5-7.32-11.71-14.58.79-7.26,7.32-12.51,14.58-11.71,7.26.79,12.5,7.32,11.71,14.57Z"/>
        </g>
      </g>
      <g>
        <path class="st15" d="M42.52,114.41c.05,24.49.14,48.55.14,48.55,0,37.96,21.27,73.16,100.55,72.84,78.47-.32,97.05-34.87,97.05-72.84v-48.55H42.52Z"/>
        <path d="M33.05,114.41c.03,14.64.07,29.29.13,43.93.03,7.28.31,14.42,1.5,21.63,2.77,16.83,11.61,32.72,25.16,43.21,4.19,3.24,8.49,6.15,13.22,8.55,5.2,2.66,10.69,4.84,16.26,6.61,12.86,4.09,26.5,5.84,39.94,6.59,15.53.86,31.13.18,46.51-2.14,11.79-1.78,23.28-5.03,34.03-10.24,8.32-4.03,16.15-9.69,22.24-16.67,6.04-6.92,10.43-14.79,13.38-23.48,4.36-12.83,4.32-26.33,4.32-39.7v-38.29c0-5.16-4.31-9.47-9.47-9.47H42.52c-5.16,0-9.47,4.31-9.47,9.47s4.31,9.47,9.47,9.47h197.75c-3.16-3.16-6.31-6.32-9.47-9.47v40.46c0,7.12.1,14.24-.84,21.32.11-.84.22-1.68.33-2.52-.84,6.14-2.34,12.19-4.73,17.92.32-.76.63-1.51.95-2.27-1.89,4.48-4.32,8.7-7.27,12.56.49-.64.98-1.28,1.48-1.92-3.02,3.91-6.54,7.37-10.43,10.38.64-.5,1.28-.99,1.91-1.48-4.9,3.76-10.31,6.76-15.99,9.16.75-.31,1.51-.63,2.26-.95-9.71,4.08-20.06,6.44-30.48,7.85.84-.12,1.69-.23,2.53-.34-18.57,2.48-37.8,2.49-56.37.01.84.11,1.68.22,2.52.34-10.58-1.44-21.07-3.86-30.94-8.01.76.32,1.51.64,2.26.96-5.91-2.52-11.56-5.65-16.67-9.57.64.49,1.28.98,1.91,1.48-4.02-3.11-7.65-6.67-10.77-10.68.49.64.99,1.28,1.48,1.91-3.1-4.01-5.64-8.41-7.62-13.08.32.76.64,1.51.96,2.26-2.38-5.68-3.9-11.66-4.72-17.76.11.84.23,1.68.34,2.52-.8-6.04-.78-12.11-.8-18.19-.05-14.12-.1-28.24-.12-42.36-.01-5.16-4.3-9.47-9.47-9.47s-9.48,4.31-9.47,9.47Z"/>
      </g>
      <path class="st0" d="M42.52,114.41c.05,24.49.14,48.55.14,48.55,0,37.96,21.27,73.16,100.55,72.84,78.47-.32,97.05-34.87,97.05-72.84v-48.55H42.52Z"/>
      <path class="st18" d="M141.36,153.33c-50.16,0-83.05-6.67-98.81-10.88.04-12.62.08-21.64.08-21.64,0-1.97.06-3.93.18-5.89,15.84,4.21,48.65,10.8,98.55,10.8s82.93-6.64,98.72-10.85c.11,1.96.16,3.94.16,5.93v21.62c-15.73,4.2-48.64,10.89-98.88,10.89Z"/>
      <g>
        <g>
          <g>
            <g>
              <g>
                <path class="st5" d="M100.01,174.66c0,8.84-7.17,16.02-16.02,16.02s-16.02-7.18-16.02-16.02,7.17-16.02,16.02-16.02,16.02,7.17,16.02,16.02Z"/>
                <path d="M97.97,174.66c-.07,5.8-3.64,11.09-9.13,13.13-5.64,2.09-11.84.23-15.7-4.27-3.84-4.48-4.05-11.16-1.12-16.12,2.97-5.03,9.06-7.58,14.74-6.45,6.51,1.29,11.13,7.15,11.21,13.72.03,2.62,4.09,2.62,4.06,0-.07-6.35-3.35-12.12-8.73-15.46-5.44-3.38-12.43-3.32-18.01-.35-5.56,2.96-8.97,8.86-9.33,15.06-.37,6.33,2.97,12.31,8.12,15.83,5.48,3.75,12.83,3.81,18.61.73,5.77-3.08,9.27-9.35,9.35-15.81.03-2.62-4.02-2.62-4.06,0Z"/>
              </g>
              <path class="st12" d="M95.51,170.45c0,2.17-1.76,3.93-3.94,3.93s-3.93-1.76-3.93-3.93,1.76-3.94,3.93-3.94,3.94,1.76,3.94,3.94Z"/>
            </g>
            <path class="st10" d="M84.59,202.15c.34,2.5-3.97,5.16-9.63,5.92-5.66.77-10.52-.64-10.86-3.14-.34-2.5,3.97-5.15,9.63-5.92,5.66-.77,10.51.64,10.86,3.14Z"/>
          </g>
          <g>
            <g>
              <g>
                <path class="st5" d="M214.83,174.66c0,8.84-7.18,16.02-16.02,16.02s-16.02-7.18-16.02-16.02,7.17-16.02,16.02-16.02,16.02,7.17,16.02,16.02Z"/>
                <path d="M212.81,174.66c-.07,5.8-3.65,11.09-9.14,13.13-5.64,2.09-11.83.23-15.7-4.27-3.83-4.48-4.05-11.16-1.11-16.12,2.97-5.03,9.06-7.58,14.74-6.45,6.51,1.29,11.14,7.15,11.22,13.72.02,2.62,4.08,2.62,4.05,0-.07-6.35-3.35-12.12-8.74-15.46-5.44-3.38-12.43-3.32-18.01-.35-5.56,2.96-8.97,8.86-9.33,15.06-.37,6.33,2.97,12.31,8.12,15.83,5.49,3.75,12.84,3.81,18.61.73,5.78-3.08,9.28-9.35,9.35-15.81.03-2.62-4.03-2.62-4.05,0Z"/>
              </g>
              <path class="st12" d="M210.33,170.45c0,2.17-1.76,3.93-3.93,3.93s-3.93-1.76-3.93-3.93,1.76-3.94,3.93-3.94,3.93,1.76,3.93,3.94Z"/>
            </g>
            <path class="st10" d="M198.21,202.15c-.34,2.5,3.97,5.16,9.63,5.92,5.65.77,10.52-.64,10.86-3.14.34-2.5-3.97-5.15-9.63-5.92-5.66-.77-10.52.64-10.86,3.14Z"/>
          </g>
        </g>
        <path d="M123.84,205.96c.11,2.36.98,4.79,2.35,6.7,3.39,4.73,8.86,6.5,14.5,6.62,5.36.11,11.32-1.4,14.93-5.63,1.82-2.14,3.02-4.63,3.33-7.42.24-2.2-2.04-4.06-4.06-4.06-2.39,0-3.82,1.86-4.06,4.06.23-2.04.03-.38-.17.23-.07.21-.15.41-.23.61.58-1.45.2-.48.03-.15-.13.25-.28.5-.43.74-.17.28-.89,1.2-.02.1-.44.56-.96,1.06-1.51,1.52,1-.84-.1.05-.36.22-.38.24-.77.44-1.17.64-.4.18-.34.16.18-.06-.28.12-.57.21-.85.31-.52.18-1.05.31-1.58.44-.24.05-1.9.3-1.1.21-.83.09-1.66.12-2.49.13-.69.01-1.38-.02-2.07-.07-.25-.02-.51-.04-.76-.08.92.1-.22-.06-.34-.08-.54-.1-1.06-.24-1.58-.4-.2-.06-.39-.13-.58-.2-.96-.33.8.38-.09-.03-.4-.19-.79-.4-1.17-.64-.14-.09-.28-.18-.42-.27-.73-.49.72.6.07.06-.29-.24-.55-.5-.81-.76-.15-.15-.29-.31-.42-.47-.51-.6.59.81.15.18-.35-.48-.64-1.01-.89-1.55-.23-.48.42,1.12.07.12-.08-.21-.14-.42-.2-.63-.09-.32-.16-.66-.21-.99-.05-.33.13,1.41.1.61-.11-2.21-1.77-4.05-4.06-4.05-2.13,0-4.16,1.84-4.06,4.05h0Z"/>
      </g>
      <g>
        <g>
          <path class="st13" d="M36.06,122.66s9.97,12.3,107.23,12.3,103.44-13.22,103.44-13.22c0,0-19.25-9.83-104.13-9.83s-106.54,10.76-106.54,10.76Z"/>
          <path d="M29.36,129.36c.87,1.07,2.19,1.85,3.37,2.56,2.63,1.56,5.6,2.63,8.5,3.58,4.56,1.49,9.28,2.48,13.99,3.33,8.86,1.59,17.84,2.62,26.81,3.4,28.91,2.53,58.13,2.69,87.13,1.86,20.5-.58,41.4-1.62,61.54-5.86,7.65-1.6,15.53-3.77,21.72-8.72.97-.78,2-1.93,2.49-2.98,1.13-2.38,1.68-4.67.96-7.29-.61-2.25-2.22-4.58-4.35-5.66-4.89-2.49-10.55-3.65-15.87-4.7-18.74-3.7-38.02-4.97-57.08-5.75-30.03-1.23-60.27-1.13-90.26,1.14-10.13.76-20.23,1.86-30.27,3.41-5.54.85-11.06,1.88-16.48,3.27-3.48.9-7.04,1.95-10.28,3.55-4.62,2.29-5.87,8.74-3.39,12.96,2.74,4.68,8.33,5.7,12.95,3.4.15-.07.31-.14.46-.21-.76.32-1.51.63-2.26.95,6.67-2.81,14.18-4.04,21.28-5.22,2.69-.45,5.39-.85,8.1-1.21-.84.11-1.68.23-2.52.34,25.38-3.4,51.12-4.11,76.7-4.12,25.3-.01,50.76.59,75.88,3.78.7.09,1.41.18,2.1.28-.84-.12-1.68-.23-2.51-.34,8.32,1.12,17.04,2.3,24.95,5.29.25.09.5.19.75.29-.76-.32-1.51-.63-2.26-.95.15.07.31.13.46.21-1.13-4.32-2.26-8.64-3.4-12.96-.04.08-.1.16-.15.22.49-.64.99-1.28,1.49-1.92-.29.36-.64.67-1,.95.64-.5,1.28-.99,1.92-1.48-1.32,1.02-2.86,1.75-4.38,2.39.75-.32,1.5-.63,2.26-.95-8.25,3.46-17.48,4.83-26.29,6.01.84-.12,1.68-.22,2.52-.33-25.77,3.44-51.98,3.75-77.93,3.61-23.37-.13-46.93-.74-70.13-3.84.84.12,1.68.23,2.52.34-8.91-1.2-18.29-2.53-26.65-6.04.76.32,1.51.64,2.26.96-1.28-.54-2.59-1.14-3.7-2,.64.5,1.28.99,1.92,1.48-.16-.12-.32-.25-.45-.4-1.5-1.84-4.41-2.77-6.69-2.77-2.5,0-4.93,1.01-6.7,2.77-1.77,1.77-2.77,4.2-2.77,6.7,0,2.72,1.12,4.67,2.77,6.7Z"/>
        </g>
        <path class="st20" d="M36.06,122.66s9.97,12.3,107.23,12.3,103.44-13.22,103.44-13.22c0,0-19.25-9.83-104.13-9.83s-106.54,10.76-106.54,10.76Z"/>
        <path class="st4" d="M143.41,131.6c-66.7,0-94.89-5.42-106.52-9.29-.58.23-.83.36-.83.36,0,0,9.97,12.3,107.23,12.3s103.44-13.22,103.44-13.22h0c-10.66,4.15-37.33,9.86-103.32,9.86Z"/>
      </g>
      <g>
        <g>
          <path class="st13" d="M203.69,105.54c-27.24-2.64-60.98-2.88-62.27-2.88h-.05c-1.28,0-35.04.24-62.27,2.88-27.77,2.7-44.71,6.22-44.71,6.22l1.36,6.8s20.65-4.35,46.4-6.74c28.35-2.62,58.36-2.71,59.24-2.71.89,0,30.9.09,59.25,2.71,25.74,2.39,46.39,6.74,46.39,6.74l1.35-6.8s-16.93-3.53-44.7-6.22Z"/>
          <path d="M203.69,96.07c-20.67-1.99-41.51-2.75-62.27-2.88,3.16,3.16,6.31,6.31,9.47,9.47h0c0-5.16-4.31-9.47-9.47-9.47h-.05c-5.16,0-9.47,4.31-9.47,9.47h0c3.16-3.15,6.31-6.31,9.47-9.47-22.85.13-45.76,1.09-68.48,3.52-13.69,1.46-27.51,3.12-41.01,5.92-2.33.48-4.48,2.35-5.66,4.35-1.35,2.31-1.46,4.73-.95,7.3.46,2.26.9,4.53,1.35,6.79.46,2.33,2.36,4.49,4.36,5.66,2.29,1.35,4.75,1.49,7.29.95,9.24-1.94,18.6-3.37,27.95-4.62-.84.11-1.67.22-2.52.33,25.66-3.43,51.66-4.72,77.54-4.81,8.01-.03,16.03.24,24.03.53,16.42.6,32.82,1.66,49.12,3.68,1.57.19,3.14.4,4.7.61-.84-.11-1.67-.22-2.51-.33,9.34,1.26,18.71,2.68,27.94,4.62,2.55.54,5,.39,7.29-.95,1.99-1.17,3.89-3.33,4.36-5.66.45-2.26.9-4.53,1.35-6.79.51-2.57.4-4.98-.96-7.3-1.17-2.01-3.33-3.87-5.66-4.35-3.95-.82-7.95-1.46-11.93-2.1-11.71-1.85-23.49-3.31-35.28-4.46-5.15-.5-9.47,4.69-9.47,9.47,0,2.51,1.01,4.93,2.77,6.7,1.91,1.9,4.1,2.52,6.7,2.77,7.21.71,14.41,1.53,21.58,2.49-.84-.12-1.68-.23-2.52-.34,7.73,1.04,15.48,2.14,23.12,3.73-2.2-3.88-4.41-7.76-6.62-11.65-.45,2.26-.9,4.53-1.35,6.79,3.88-2.2,7.76-4.41,11.65-6.61-24.88-5.22-50.39-7.68-75.74-8.89-17.54-.84-35.01-1.05-52.55-.49-28.78.92-57.54,3.43-85.83,8.94-.74.14-1.47.29-2.2.44,3.89,2.21,7.77,4.41,11.65,6.61-.45-2.26-.9-4.53-1.35-6.79-2.21,3.88-4.41,7.77-6.62,11.65,7.64-1.58,15.4-2.68,23.12-3.73-.84.11-1.68.22-2.52.34,26.59-3.57,53.38-4.96,80.2-5.33,1.22-.02,2.44-.03,3.65-.04,5.16-.03,9.47-4.28,9.47-9.47h0c-3.15,3.16-6.31,6.32-9.47,9.47h.05c-3.16-3.15-6.32-6.31-9.47-9.47h0c0,5.19,4.31,9.44,9.47,9.47,20.76.13,41.61.89,62.27,2.88,5.14.5,9.47-4.68,9.47-9.47,0-2.5-1.01-4.92-2.78-6.69-1.91-1.91-4.09-2.52-6.69-2.78Z"/>
        </g>
        <path class="st21" d="M203.69,105.54c-27.24-2.64-60.98-2.88-62.27-2.88h-.05c-1.28,0-35.04.24-62.27,2.88-27.77,2.7-44.71,6.22-44.71,6.22l1.36,6.8s20.65-4.35,46.4-6.74c28.35-2.62,58.36-2.71,59.24-2.71.89,0,30.9.09,59.25,2.71,25.74,2.39,46.39,6.74,46.39,6.74l1.35-6.8s-16.93-3.53-44.7-6.22Z"/>
        <path class="st23" d="M79.11,108.62c27.23-2.64,60.98-2.87,62.27-2.88h.05c1.29.01,35.03.24,62.27,2.88,24.73,2.4,40.86,5.45,44.1,6.09l.6-3.01s-16.93-3.53-44.7-6.21c-27.24-2.65-60.98-2.88-62.27-2.89h-.05c-1.28,0-35.04.24-62.27,2.89-27.77,2.69-44.71,6.21-44.71,6.21l.6,3.01c3.24-.64,19.37-3.7,44.1-6.09Z"/>
      </g>
      <g>
        <g>
          <path class="st13" d="M229.08,56.76c-19.82-11.18-43.52-47.29-87.64-47.29h-.07c-44.12,0-67.81,36.11-87.64,47.29-20.21,11.4-44.56,12.44-44.3,28.24.26,15.8,15.06,16.56,15.06,16.56,0,0,50.43-9.44,116.94-9.44s116.88,9.44,116.88,9.44c0,0,14.8-.75,15.06-16.56.26-15.8-24.09-16.83-44.29-28.24Z"/>
          <path d="M233.86,48.59c-2.51-1.42-4.85-3.09-7.13-4.84.64.5,1.28.99,1.92,1.48-7.63-5.91-14.6-12.62-22.08-18.71-4.8-3.91-9.75-7.67-14.95-11.04-5.47-3.54-11.23-6.44-17.24-8.95C162.23,1.45,148.77-.71,135.63.21c-13.77.96-26.88,5.17-38.89,11.92-8.67,4.87-16.58,11.04-24.16,17.44-6.16,5.2-12.05,10.74-18.42,15.68.64-.5,1.27-.99,1.91-1.48-5.15,3.97-10.75,6.96-16.73,9.49.75-.31,1.51-.63,2.26-.95-6.06,2.55-12.31,4.61-18.42,7.07-6.06,2.43-12.26,5.12-16.89,9.89-2.55,2.63-4.34,5.7-5.44,9.18-1.26,3.97-.87,8-.31,12.03.94,6.78,5.24,12.46,10.73,16.28,2.85,1.98,6.46,3.38,9.92,3.86,2.79.39,3.15.58,5.87.08.33-.06.66-.12.98-.17,5.36-.95,10.75-1.75,16.15-2.49.69-.1,1.37-.18,2.05-.28-.84.11-1.67.22-2.52.34,26.51-3.56,53.22-5.6,79.95-6.27,31.35-.79,62.75.52,93.95,3.72,7.08.73,14.15,1.56,21.21,2.51-.84-.11-1.68-.22-2.52-.34,5.94.8,11.87,1.67,17.78,2.69,1.37.24,3.14.74,4.45.62,4.08-.37,7.66-1.38,11.33-3.27,5.75-2.96,9.75-8.36,11.74-14.41,2.15-6.55,1.71-14.79-2.3-20.57-3.68-5.31-9.02-8.79-14.84-11.36-6.49-2.86-13.2-5.1-19.8-7.69-1.17-.46-2.33-.93-3.48-1.42.75.32,1.51.64,2.26.95-3.28-1.39-6.49-2.91-9.6-4.65-4.51-2.52-10.32-1.11-12.96,3.4-2.57,4.39-1.1,10.43,3.4,12.96,10.13,5.67,21.28,8.86,31.92,13.35-.76-.32-1.51-.64-2.27-.96,3.17,1.36,6.32,2.87,9.07,4.98-.64-.49-1.28-.98-1.92-1.48,1.13.88,2.15,1.86,3.03,2.99-.49-.63-.99-1.28-1.48-1.92.61.82,1.13,1.68,1.55,2.62-.32-.75-.63-1.51-.95-2.26.44,1.06.73,2.14.88,3.28-.12-.84-.23-1.68-.34-2.52.17,1.52.1,3.05-.08,4.57.11-.84.23-1.68.34-2.52-.23,1.59-.61,3.13-1.22,4.62.32-.75.64-1.5.95-2.26-.51,1.17-1.14,2.26-1.91,3.27.49-.64.99-1.28,1.48-1.92-.75.95-1.6,1.8-2.56,2.55.64-.5,1.28-.99,1.91-1.48-1.13.86-2.35,1.57-3.67,2.13.76-.32,1.51-.63,2.26-.96-1.54.64-3.15,1.1-4.8,1.32.84-.11,1.68-.22,2.52-.34-.23.03-.47.06-.7.07.84.12,1.67.23,2.51.34-13.32-2.49-26.85-4.09-40.32-5.53-30.78-3.3-61.77-4.7-92.73-4.12-27.37.51-54.74,2.52-81.89,6.07-7.98,1.05-15.99,2.1-23.91,3.58.84-.11,1.68-.23,2.52-.34-.24-.01-.47-.04-.71-.07.84.12,1.68.23,2.51.34-1.65-.22-3.26-.68-4.79-1.32.74.32,1.5.64,2.25.96-1.31-.56-2.53-1.27-3.67-2.13.64.5,1.28.99,1.92,1.48-.95-.75-1.81-1.6-2.56-2.55.5.64.98,1.28,1.48,1.92-.77-1.02-1.4-2.1-1.91-3.27.32.75.64,1.51.96,2.26-.61-1.48-1-3.03-1.22-4.62.12.84.23,1.68.34,2.52-.18-1.52-.25-3.05-.08-4.57-.11.84-.23,1.67-.34,2.52.15-1.14.44-2.22.88-3.28-.32.76-.63,1.51-.95,2.26.42-.93.93-1.8,1.55-2.62-.5.64-.99,1.28-1.48,1.92.88-1.13,1.91-2.11,3.03-2.99-.64.49-1.28.99-1.91,1.48,2.75-2.11,5.89-3.62,9.07-4.98-.76.32-1.51.64-2.27.96,11.89-5.01,24.78-8.27,35.54-15.62,8.18-5.58,15.38-12.5,22.91-18.92,2.67-2.27,5.38-4.5,8.15-6.64-.64.49-1.28.98-1.92,1.47,7.56-5.83,15.64-11.01,24.46-14.75-.76.32-1.51.64-2.26.96,6.4-2.68,13.09-4.56,19.97-5.5-.84.12-1.68.22-2.52.33,6.96-.91,14.02-.91,20.97,0-.83-.11-1.67-.22-2.51-.33,6.88.94,13.57,2.82,19.97,5.5-.76-.32-1.51-.64-2.26-.96,8.82,3.74,16.89,8.92,24.46,14.75-.64-.49-1.28-.98-1.92-1.47,6.15,4.76,11.94,9.94,17.81,15.03,5.3,4.59,10.73,9.32,16.86,12.8,4.49,2.55,10.33,1.09,12.95-3.4,2.59-4.41,1.09-10.41-3.39-12.96Z"/>
        </g>
        <path class="st22" d="M229.08,56.76c-19.82-11.18-43.52-47.29-87.64-47.29h-.07c-44.12,0-67.81,36.11-87.64,47.29-20.21,11.4-44.56,12.44-44.3,28.24.26,15.8,15.06,16.56,15.06,16.56,0,0,50.43-9.44,116.94-9.44s116.88,9.44,116.88,9.44c0,0,14.8-.75,15.06-16.56.26-15.8-24.09-16.83-44.29-28.24Z"/>
        <path class="st9" d="M258.31,94.59s-50.37-9.44-116.88-9.44-116.94,9.44-116.94,9.44c0,0-12.66-.65-14.77-13.24-.21.96-.31,1.98-.3,3.07.26,15.8,15.06,16.56,15.06,16.56,0,0,50.43-9.44,116.94-9.44s116.88,9.44,116.88,9.44c0,0,14.8-.76,15.06-16.56.01-1.09-.09-2.11-.29-3.07-2.11,12.59-14.77,13.24-14.77,13.24Z"/>
        <path class="st14" d="M53.72,61.99c19.82-11.18,43.51-47.29,87.64-47.29h.07c44.12,0,67.82,36.11,87.64,47.29,19.05,10.75,41.77,12.29,44.1,25.67.11-.83.18-1.71.19-2.65.26-15.8-24.09-16.83-44.29-28.24-19.82-11.18-43.52-47.29-87.64-47.29h-.07c-44.12,0-67.81,36.11-87.64,47.29-20.21,11.4-44.56,12.44-44.3,28.24.01.94.08,1.82.2,2.65,2.32-13.38,25.04-14.92,44.1-25.67Z"/>
      </g>
      <g>
        <g>
          <g>
            <g>
              <path class="st13" d="M153.04,41.04c.86-4.96,4.96-6.11,4.96-6.11l-5.3-5.76s-2.19,1.9-5.76,2.07c-3.57.17-5.53-2.54-5.53-2.54,0,0-1.96,2.71-5.53,2.54-3.57-.17-5.76-2.07-5.76-2.07l-5.31,5.76s4.09,1.15,4.96,6.11c.86,4.95-10.37,16.28-1.1,25.24,5.58,5.38,12.73,6.57,12.73,6.57,0,0,7.16-1.18,12.73-6.57,9.28-8.96-1.95-20.29-1.09-25.24Z"/>
              <path d="M162.17,43.56c.13-.64.29-1.24.53-1.85-.32.76-.64,1.51-.95,2.26.26-.61.57-1.16.96-1.7-.49.64-.98,1.28-1.48,1.92.44-.57.93-1.07,1.5-1.51-.64.5-1.28.99-1.92,1.48.49-.36,1-.66,1.55-.9-.75.32-1.51.63-2.26.96.14-.06.27-.11.42-.15,7.02-2.06,9-10.58,4.18-15.83-1.77-1.92-3.54-3.84-5.3-5.76-1.66-1.8-4.28-2.78-6.7-2.78-2.67,0-4.72,1.1-6.69,2.78-.04.03-.08.06-.11.09.64-.49,1.28-.99,1.92-1.48-.66.5-1.38.88-2.14,1.21.75-.31,1.51-.63,2.26-.95-.85.33-1.71.56-2.61.7.83-.11,1.67-.22,2.51-.34-.71.08-1.4.1-2.12.03.84.11,1.68.22,2.52.33-.59-.1-1.15-.25-1.71-.48.76.32,1.51.64,2.26.96-.53-.25-1.02-.55-1.5-.9.64.5,1.28.99,1.92,1.48-.39-.32-.76-.65-1.07-1.05.49.64.98,1.28,1.48,1.92-.01-.02-.02-.03-.04-.05-2.05-2.77-4.55-4.69-8.17-4.69s-6.12,1.92-8.17,4.69c-.02.02-.03.03-.04.05.5-.64.99-1.28,1.48-1.92-.32.4-.68.73-1.07,1.05.64-.49,1.28-.99,1.92-1.48-.47.36-.96.65-1.5.9.76-.31,1.51-.63,2.26-.96-.55.23-1.1.39-1.7.48.84-.12,1.68-.22,2.52-.33-.72.07-1.4.05-2.12-.03.84.12,1.68.22,2.52.34-.91-.14-1.77-.37-2.62-.7.76.32,1.5.64,2.26.95-.76-.32-1.49-.71-2.14-1.21.64.49,1.27.99,1.92,1.48-.04-.03-.07-.06-.11-.09-1.97-1.68-4.03-2.78-6.7-2.78-2.41,0-5.04.97-6.7,2.78-1.77,1.92-3.54,3.84-5.3,5.76-4.83,5.24-2.85,13.77,4.17,15.83.14.04.28.1.41.15-.75-.32-1.51-.64-2.26-.96.56.24,1.07.54,1.56.9-.64-.49-1.28-.98-1.91-1.48.57.44,1.06.94,1.5,1.51-.49-.64-.99-1.28-1.48-1.92.38.54.69,1.1.96,1.7-.32-.75-.64-1.51-.96-2.26.25.66.45,1.33.55,2.02-.12-.84-.23-1.67-.34-2.51.03.37.02.73-.03,1.11.11-.84.23-1.67.34-2.51-.21,1.37-.76,2.66-1.3,3.94.32-.76.64-1.51.96-2.26-1.3,3.05-2.75,6.06-3.7,9.24-1.21,4.06-1.36,8.29-.43,12.41,2.07,9.15,11.08,14.94,19.32,17.89.86.31,1.74.57,2.63.78,1.94.47,3.81.51,5.83.16,1.56-.27,3.1-.8,4.57-1.38,4.51-1.78,8.39-4.02,12-7.3,1.66-1.51,3.11-3.38,4.21-5.33,1.54-2.74,2.06-5.25,2.46-8.3.85-6.4-2.23-12.49-4.66-18.17.32.75.64,1.51.96,2.26-.53-1.28-1.08-2.57-1.3-3.94.11.84.22,1.67.34,2.51-.05-.38-.06-.74-.03-1.11-.11.84-.23,1.67-.33,2.51,0-.05.01-.11.02-.17.38-2.64.46-4.89-.95-7.3-1.24-2.12-3.3-3.7-5.66-4.35-2.44-.67-5.11-.33-7.3.96-1.9,1.11-4.02,3.37-4.35,5.66-.42,2.88-.44,5.48.52,8.27.82,2.39,1.94,4.68,2.93,7-.32-.75-.64-1.51-.96-2.26.97,2.29,1.82,4.62,2.18,7.09-.12-.84-.23-1.68-.34-2.52.14,1.19.16,2.36,0,3.55.12-.84.23-1.68.34-2.52-.15.89-.38,1.74-.72,2.57.32-.75.63-1.51.95-2.26-.4.9-.89,1.73-1.48,2.52.5-.64.99-1.28,1.48-1.92-1,1.25-2.17,2.32-3.44,3.29.64-.49,1.28-.98,1.92-1.48-1.8,1.33-3.73,2.43-5.79,3.3.75-.32,1.51-.64,2.26-.96-1.57.64-3.21,1.23-4.89,1.51h5.03c-1.67-.29-3.32-.87-4.88-1.51.75.32,1.51.64,2.26.96-2.06-.87-3.99-1.96-5.79-3.3.64.5,1.28.99,1.92,1.48-1.26-.97-2.44-2.04-3.44-3.29.49.64.99,1.28,1.48,1.92-.59-.79-1.08-1.62-1.48-2.52.32.75.64,1.51.96,2.26-.33-.84-.57-1.68-.72-2.57.12.84.23,1.68.34,2.52-.16-1.19-.14-2.37,0-3.55-.12.84-.23,1.68-.34,2.52.35-2.47,1.21-4.79,2.17-7.09-.32.76-.63,1.51-.95,2.26.99-2.33,2.08-4.62,2.93-7,1.02-2.86,1.02-5.72.44-8.68-1.11-5.69-5.97-10.7-11.49-12.32,1.39,5.27,2.79,10.55,4.17,15.82,1.77-1.92,3.53-3.84,5.31-5.76h-13.39c3.65,3.1,8.06,4.78,12.88,4.86,5.51.09,10.13-2.99,13.28-7.24h-16.35c1.58,2.12,2.38,2.88,4.5,4.49,2.46,1.86,5.41,2.4,8.38,2.72,3.28.36,6.49-.93,9.42-2.19,1.41-.6,2.74-1.69,3.87-2.65h-13.39c1.76,1.92,3.53,3.84,5.3,5.76,1.39-5.28,2.79-10.55,4.18-15.82-5.76,1.68-10.41,6.85-11.57,12.72-.5,2.57-.4,4.98.96,7.3,1.24,2.11,3.29,3.7,5.66,4.35,4.69,1.29,10.66-1.55,11.65-6.62Z"/>
            </g>
            <path class="st21" d="M153.04,41.04c.86-4.96,4.96-6.11,4.96-6.11l-5.3-5.76s-2.19,1.9-5.76,2.07c-3.57.17-5.53-2.54-5.53-2.54,0,0-1.96,2.71-5.53,2.54-3.57-.17-5.76-2.07-5.76-2.07l-5.31,5.76s4.09,1.15,4.96,6.11c.86,4.95-10.37,16.28-1.1,25.24,5.58,5.38,12.73,6.57,12.73,6.57,0,0,7.16-1.18,12.73-6.57,9.28-8.96-1.95-20.29-1.09-25.24Z"/>
            <g>
              <path class="st1" d="M130.36,66.31c-9.4-9.08,1.99-20.56,1.11-25.58-.88-5.03-5.03-6.19-5.03-6.19l4.44-4.82c-.51-.31-.78-.54-.78-.54l-5.31,5.76s4.09,1.15,4.96,6.11c.86,4.95-10.37,16.28-1.1,25.24,5.58,5.38,12.73,6.57,12.73,6.57,0,0,.25-.04.69-.14-2.29-.59-7.46-2.28-11.72-6.4Z"/>
              <path class="st1" d="M153.16,29.68l-.47-.51s-1.07.92-2.93,1.54c1.4-.19,2.55-.62,3.4-1.03Z"/>
              <path class="st1" d="M142.05,29.41c-.43-.4-.65-.71-.65-.71,0,0-.96,1.33-2.77,2.07,1.49-.14,2.64-.77,3.42-1.37Z"/>
            </g>
          </g>
          <path class="st23" d="M153.04,41.04c.86-4.96,4.96-6.11,4.96-6.11l-5.3-5.76s-2.19,1.9-5.76,2.07c-3.57.17-5.53-2.54-5.53-2.54,0,0,0,.01-.01.02v44.12h.01s7.16-1.18,12.73-6.57c9.28-8.96-1.95-20.29-1.09-25.24Z"/>
        </g>
        <path class="st2" d="M152.43,66.31c9.41-9.08-1.98-20.56-1.11-25.58.88-5.03,5.02-6.19,5.02-6.19l-4.43-4.82c.5-.31.78-.54.78-.54l5.3,5.76s-4.09,1.15-4.96,6.11c-.86,4.95,10.37,16.28,1.09,25.24-5.57,5.38-12.73,6.57-12.73,6.57,0,0-.25-.04-.69-.14,2.29-.59,7.46-2.28,11.72-6.4Z"/>
      </g>
    </g>
    <rect class="st6" x="94.59" y="252.91" width=".82" height="12.6" transform="translate(-176.58 209.61) rotate(-59.52)"/>
    <polygon class="st6" points="183.09 262.87 193.95 256.48 193.53 255.77 182.67 262.16 183.09 262.87"/>
    <g>
      <rect class="st12" x="151.97" y="259.48" width="15.24" height="3.97"/>
      <path d="M167.2,262.1h-15.24c.45.45.9.9,1.36,1.35v-3.97c-.46.45-.91.9-1.36,1.36h15.24c-.45-.46-.89-.91-1.35-1.36v3.97c0,1.75,2.7,1.75,2.7,0v-3.97c0-.73-.62-1.35-1.35-1.35h-15.24c-.74,0-1.35.62-1.35,1.35v3.97c0,.73.61,1.35,1.35,1.35h15.24c1.75,0,1.75-2.71,0-2.71Z"/>
    </g>
    <g>
      <g>
        <g>
          <path class="st12" d="M133.69,261.41c0,.74-.6,1.34-1.34,1.34s-1.34-.6-1.34-1.34.6-1.34,1.34-1.34,1.34.6,1.34,1.34Z"/>
          <path d="M130.99,261.41c.09-.47.1-.58.02-.29.07-.28.21-.52.42-.72-.2.19-.12.14.23-.16.13-.05.26-.11.39-.16-.28.07-.18.06.29-.03.77-.04,1.33.66,1.36,1.37.04.77-.65,1.32-1.36,1.37-.77.04-1.32-.66-1.36-1.37.08,1.47,1.17,2.7,2.7,2.7,1.41,0,2.79-1.23,2.71-2.7-.12-2.29-1.76-3.93-4.05-4.05-1.07-.06-2.01.49-2.81,1.14-.85.69-1.18,1.88-1.24,2.91-.06,1.07.49,2.01,1.14,2.81.68.84,1.87,1.18,2.91,1.24,1.07.06,2.02-.49,2.81-1.14.85-.69,1.18-1.88,1.24-2.91.08-1.48-1.29-2.71-2.71-2.71-1.53,0-2.63,1.23-2.7,2.71Z"/>
        </g>
        <path class="st3" d="M133.69,261.41c0,.74-.6,1.34-1.34,1.34s-1.34-.6-1.34-1.34.6-1.34,1.34-1.34,1.34.6,1.34,1.34Z"/>
        <path class="st16" d="M132.35,262.43c-.69,0-1.25-.52-1.33-1.18,0,.04-.01.1-.01.16,0,.74.6,1.34,1.34,1.34s1.34-.6,1.34-1.34c0-.05,0-.11-.01-.16-.08.66-.64,1.18-1.33,1.18Z"/>
        <path class="st7" d="M132.35,260.39c-.69,0-1.25.52-1.33,1.18,0-.05-.01-.11-.01-.16,0-.74.6-1.34,1.34-1.34s1.34.6,1.34,1.34c0,.05,0,.1-.01.16-.08-.67-.64-1.18-1.33-1.18Z"/>
      </g>
      <g>
        <g>
          <path class="st12" d="M133.69,272.4c0,.75-.6,1.35-1.34,1.35s-1.34-.6-1.34-1.35.6-1.34,1.34-1.34,1.34.6,1.34,1.34Z"/>
          <path d="M130.99,272.4c.09-.47.1-.57.02-.29.07-.28.21-.52.42-.72-.2.2-.12.14.23-.16.13-.05.26-.1.39-.15-.28.07-.18.06.29-.03.77-.04,1.33.65,1.36,1.36.04.77-.65,1.33-1.36,1.37-.77.04-1.32-.65-1.36-1.37.08,1.47,1.17,2.71,2.7,2.71,1.41,0,2.79-1.23,2.71-2.71-.12-2.29-1.76-3.92-4.05-4.04-1.07-.06-2.01.49-2.81,1.14-.85.69-1.18,1.87-1.24,2.91-.06,1.07.49,2.02,1.14,2.81.68.85,1.87,1.18,2.91,1.23,1.07.06,2.02-.49,2.81-1.13.85-.69,1.18-1.88,1.24-2.91.08-1.47-1.29-2.7-2.71-2.7-1.53,0-2.63,1.23-2.7,2.7Z"/>
        </g>
        <path class="st3" d="M133.69,272.4c0,.75-.6,1.35-1.34,1.35s-1.34-.6-1.34-1.35.6-1.34,1.34-1.34,1.34.6,1.34,1.34Z"/>
        <path class="st16" d="M132.35,273.43c-.69,0-1.25-.52-1.33-1.18,0,.05-.01.1-.01.15,0,.75.6,1.35,1.34,1.35s1.34-.6,1.34-1.35c0-.05,0-.1-.01-.15-.08.66-.64,1.18-1.33,1.18Z"/>
        <path class="st7" d="M132.35,271.38c-.69,0-1.25.51-1.33,1.18,0-.05-.01-.1-.01-.16,0-.74.6-1.34,1.34-1.34s1.34.6,1.34,1.34c0,.06,0,.11-.01.16-.08-.67-.64-1.18-1.33-1.18Z"/>
      </g>
    </g>
  </g>
  <g>
    <polygon class="st5" points="96.1 288.4 92.32 290.92 96.64 307.61 102.87 310.58 102.87 291.1 96.1 288.4"/>
    <path d="M104.08,312.5l-8.47-4.04-4.68-18.06,5.03-3.35,8.12,3.24v22.21ZM97.67,306.76l3.99,1.9v-16.74l-5.42-2.16-2.54,1.69,3.97,15.31Z"/>
  </g>
  <path class="st11" d="M102.37,291c-.24.06-.46.11-.68.16v-1.37l-3.13,1.37-1.09-8.43-8.67.84.2,4.59,5.76,1.16.72,3.19-1.04.45,1.67,12.47,2.14,1.3.41,5.31,3.03.36v-5.89l.68-.25v-15.26Z"/>
  <g>
    <path class="st12" d="M191.13,36.49c6.76,4.33,10.65,10.34,8.67,13.41-1.97,3.08-9.05,2.06-15.81-2.27-6.76-4.33-10.65-10.33-8.67-13.41,1.97-3.07,9.05-2.06,15.81,2.27Z"/>
    <path class="st12" d="M205.64,51.98c.09,1.32-.91,2.45-2.22,2.54-1.32.09-2.45-.9-2.54-2.22-.09-1.31.9-2.45,2.22-2.54,1.32-.09,2.46.91,2.55,2.22Z"/>
  </g>
</svg>