<?xml version="1.0" encoding="UTF-8"?>
<svg id="Layer_1" xmlns="http://www.w3.org/2000/svg" version="1.1" viewBox="0 0 270.6 341.33">
  <!-- Generator: Adobe Illustrator 29.6.1, SVG Export Plug-In . SVG Version: 2.1.1 Build 9)  -->
  <defs>
    <style>
      .st0 {
        fill: #ffd7c3;
      }

      .st1, .st2 {
        fill-rule: evenodd;
      }

      .st1, .st3 {
        fill: #fff;
      }

      .st4 {
        fill: #000002;
      }

      .st5 {
        fill: #f1f2f2;
      }

      .st6 {
        fill: #f38b9e;
      }

      .st7 {
        fill: #ffa6a6;
      }

      .st8 {
        fill: #fde5d2;
      }

      .st9 {
        fill: #ffebde;
      }

      .st10 {
        fill: #d85974;
      }

      .st11 {
        fill: #e6e7e8;
      }

      .st12 {
        fill: #f4bba2;
      }

      .st13 {
        fill: #ffd2dc;
      }

      .st14 {
        fill: #8c5b3a;
      }
    </style>
  </defs>
  <g>
    <g>
      <path class="st3" d="M244.53,122.76s28.63-21.45,8.1-51.57c-20.54-30.12-55.45-20.54-55.45-20.54,0,0-11.68-40.13-61.95-40.13s-61.9,40.13-61.9,40.13c0,0-34.91-9.59-55.45,20.54-20.53,30.12,8.1,51.57,8.1,51.57,0,0-19.74,9.36-11.18,29.21,8.55,19.85,29.66,10.5,29.66,10.5l90.79-52.01,90.79,52.01s21.11,9.36,29.67-10.5c8.56-19.85-11.18-29.21-11.18-29.21Z"/>
      <g>
        <path d="M263.26,129.68c-1.38-2.88-3.43-5.56-5.77-7.84,7.17-8.62,11.64-19.62,11-30.84-.4-6.95-2.5-13.48-5.77-19.6-3.15-5.88-7.49-11.38-12.45-15.84-8.04-7.22-18.08-12.13-28.76-13.85-5.92-.95-11.85-1.3-17.82-.67-.41.04-.83.09-1.25.14-.17-.35-.34-.72-.51-1.06-2.8-5.62-6.56-10.83-10.79-15.47-5.72-6.28-12.86-11.52-20.55-15.12-10.87-5.08-22.62-7.39-34.6-7.51-6.47-.07-12.96.59-19.3,1.85-5.49,1.1-10.71,2.95-15.82,5.21-7.86,3.46-15.08,8.72-20.96,14.96-4.37,4.64-8.21,9.94-11.1,15.62-.25.48-.48.96-.72,1.45-1.78-.18-3.57-.3-5.33-.37-8.67-.35-17.7.99-25.71,4.36-5.93,2.49-11.14,5.62-16.07,9.81-5.05,4.29-9.32,9.74-12.62,15.46C2.21,81.02.08,93.84,3.98,105.65c1.96,5.91,5.09,11.44,9.09,16.25-1.74,1.73-3.32,3.62-4.71,5.78-2.93,4.59-4.44,10.32-4.19,15.76.16,3.32.81,6.66,2,9.77,1.5,3.91,3.33,7.1,5.9,10.39,3.35,4.29,8.56,7.36,13.8,8.67,4.84,1.21,9.61,1.01,14.47.2,3.16-.53,6.43-1.52,9.23-3.12,8.89-5.09,17.79-10.19,26.68-15.29,13.58-7.78,27.17-15.56,40.75-23.34,6.08-3.49,12.17-6.97,18.25-10.46,5.48,3.14,10.95,6.28,16.42,9.41,13.53,7.75,27.06,15.51,40.6,23.26,9.39,5.37,18.77,10.75,28.15,16.13,2.51,1.43,5.21,2.43,8.02,3.06,4.71,1.08,9.21,1.2,13.96.55,5.31-.72,10.21-3.38,14.1-6.99,2.29-2.12,4.19-4.79,5.64-7.53,1.61-3.05,2.93-6.39,3.56-9.79.73-3.86.68-7.17.15-11.03-.37-2.68-1.44-5.24-2.61-7.66ZM240.17,115.46h0s.01,0,.01,0c0,0,0,0-.01,0ZM243.97,154.12c-.64.43-1.3.82-2,1.17-.91.32-1.84.57-2.78.76-1.55.13-3.11.12-4.65-.04-1.71-.29-3.38-.71-5.01-1.29-1.47-.75-2.9-1.72-4.31-2.53-4.79-2.74-9.57-5.48-14.36-8.23-13.49-7.72-26.97-15.45-40.45-23.17-9.72-5.57-19.43-11.13-29.14-16.7-.57-.33-1.15-.66-1.73-.99-2.79-1.6-6.05-1.46-8.8.12-.31.18-.63.36-.95.54-3.4,1.96-6.82,3.91-10.22,5.86-12.74,7.3-25.48,14.6-38.22,21.9-11.67,6.68-23.33,13.37-35,20.05-1.59.91-3.17,1.82-4.76,2.73-.28.16-.55.34-.84.5-1.56.55-3.17.94-4.79,1.21-1.55.15-3.11.17-4.65.04-.94-.19-1.87-.45-2.78-.76-.69-.35-1.36-.74-1.99-1.17-.66-.58-1.26-1.18-1.84-1.83-.84-1.21-1.56-2.48-2.19-3.81-.56-1.5-1-3.02-1.29-4.59-.07-1-.06-2.01,0-3.01.18-.89.43-1.75.73-2.61.47-.96,1.01-1.88,1.62-2.75,1.08-1.28,2.28-2.44,3.57-3.5.99-.71,2.04-1.37,3.13-1.89,2.64-1.26,4.22-4.54,4.22-7.35,0-1.54-.4-2.97-1.17-4.29-.65-1.1-1.5-1.99-2.53-2.71-1.91-1.62-3.64-3.47-5.22-5.4-1.81-2.42-3.37-5.01-4.62-7.76-.81-2.11-1.42-4.29-1.8-6.52-.2-2.07-.2-4.14,0-6.22.43-2.51,1.14-4.95,2.06-7.33,1.41-3.04,3.15-5.91,5.13-8.61,2.27-2.86,4.83-5.46,7.66-7.77,2.78-2.04,5.76-3.77,8.91-5.18,3.48-1.34,7.08-2.29,10.77-2.87,4.61-.52,9.28-.51,13.88.04,1.18.18,2.36.4,3.5.71,4.52,1.24,9.17-1.48,10.47-5.95.2-.69.46-1.37.73-2.05,1.75-3.96,3.99-7.72,6.58-11.2,2.73-3.4,5.81-6.49,9.2-9.22,3.54-2.62,7.36-4.84,11.38-6.63,4.98-1.99,10.18-3.34,15.49-4.16,6.84-.81,13.81-.81,20.65,0,5.3.81,10.51,2.16,15.48,4.16,3.95,1.76,7.69,3.92,11.17,6.48,3.58,2.85,6.82,6.1,9.66,9.68,2.5,3.41,4.67,7.08,6.38,10.94.27.66.51,1.33.71,2.01,1.3,4.46,5.94,7.19,10.47,5.95,1.14-.31,2.32-.53,3.5-.71,4.61-.55,9.28-.57,13.89-.04,3.68.58,7.29,1.53,10.76,2.87,3.15,1.41,6.13,3.14,8.91,5.18,2.82,2.31,5.38,4.92,7.67,7.78,1.97,2.71,3.71,5.57,5.13,8.62.92,2.37,1.62,4.81,2.06,7.32.2,2.07.2,4.15,0,6.23-.39,2.23-.99,4.4-1.79,6.51-1.26,2.75-2.83,5.34-4.64,7.76-1.56,1.92-3.28,3.76-5.17,5.37-.43.29-.81.61-1.18.96h0,0c-.54.53-1.02,1.12-1.4,1.77-.08.13-.14.27-.21.4-.02.04-.05.09-.07.14-.05.11-.11.22-.15.33-.17.36-.32.74-.43,1.16-.41,1.48-.39,3.05.01,4.52.53,2.17,1.84,4.11,3.9,5.1.11.05.22.12.33.17.09.04.16.09.25.12.88.47,1.74,1.01,2.56,1.6,1.29,1.06,2.48,2.23,3.56,3.5.61.88,1.15,1.8,1.62,2.75.3.86.55,1.72.73,2.62.07,1,.07,2,0,3-.29,1.57-.73,3.09-1.29,4.59-.64,1.33-1.36,2.62-2.21,3.82-.57.65-1.18,1.26-1.82,1.83Z"/>
        <g>
          <path d="M265,128.66c-1.6-3.09-3.65-5.76-6.09-8.24v2.85c6.64-8.18,10.9-17.65,11.61-28.23.74-11.26-3.94-22.49-10.37-31.48-13.16-18.38-35.57-26.81-57.71-24.39.58.33,1.16.67,1.74,1C191.37,13.86,164.46.51,135.99.01c-28.88-.51-56.7,13.66-69.64,40.09.58-.33,1.15-.67,1.74-1-22.62-2.14-44.2,6.18-57.85,24.66C3.82,72.45.09,82.8,0,93.62c-.08,10.98,4.87,21.33,11.66,29.7v-2.85c-10.58,10.81-11.91,25.39-4.99,38.62,7.34,14.02,22.21,18.14,36.94,14.75,7.73-1.78,14.86-7.27,21.66-11.16,8.08-4.62,16.16-9.25,24.24-13.88,15.59-8.93,31.18-17.86,46.77-26.79h-2.03c14.5,8.3,28.99,16.61,43.49,24.91,7.19,4.12,14.39,8.24,21.57,12.36,7.49,4.29,14.88,9.15,22.68,12.82,12.19,5.72,27.35,3.51,36.92-5.92,9.77-9.64,11.76-25.42,6.1-37.51-1.1-2.35-4.57-.3-3.47,2.04,5.45,11.65,2.16,25.93-7.42,34.45-4.86,4.32-10.96,5.79-17.3,5.92-7.25.14-13.24-2.53-19.39-6.05-22.49-12.88-44.98-25.76-67.46-38.65-2.74-1.57-5.48-3.14-8.21-4.71-1.71-.98-4.46-3.41-6.49-3.41s-4.58,2.31-6.23,3.27c-3.04,1.74-6.08,3.48-9.12,5.22-11.27,6.46-22.53,12.91-33.79,19.36-11.18,6.4-22.36,12.81-33.55,19.22-5.89,3.37-11.17,5.36-18.02,5.77-6.74.4-13.31-1.76-18.45-6.14-5.63-4.8-9-12.89-9.81-20.08-.93-8.23,2.57-15.77,8.21-21.54.83-.85.69-1.99,0-2.85-6.25-7.71-10.22-16.86-10.47-26.85-.25-10.17,3.93-19.68,9.69-27.83,12.37-17.52,33.62-24.62,54.37-22.66.65.06,1.46-.42,1.74-1C82.08,17.12,107.34,4.45,134.5,4.04c27.54-.43,53.9,12.9,66.21,38.15.28.57,1.1,1.07,1.74,1,20.33-2.23,39.79,4.77,52.89,20.65,6.59,8,10.78,18.13,11.19,28.5.4,10.26-4.12,20.25-10.46,28.07-.7.86-.83,2,0,2.85,2.21,2.25,4.01,4.64,5.46,7.43,1.2,2.3,4.66.27,3.47-2.04Z"/>
          <path d="M241.19,117.2s.01,0,.01,0c.44-.34.77-.65.92-1.21.14-.52.07-1.08-.2-1.55-.5-.86-1.88-1.4-2.75-.72t-.02,0c-.44.34-.77.65-.92,1.2-.14.52-.07,1.09.2,1.55.5.86,1.89,1.39,2.75.72,0,0,.01,0,.01,0,.44-.34.77-.65.92-1.21.14-.52.07-1.08-.2-1.55-.5-.86-1.88-1.4-2.75-.72t-.02,0c-.44.34-.77.65-.92,1.2-.14.52-.07,1.09.2,1.55.5.86,1.89,1.39,2.75.72Z"/>
          <path d="M242.95,152.37c-6.28,3.96-12.41.53-18-2.67-5.74-3.29-11.49-6.59-17.24-9.88-11.63-6.66-23.25-13.32-34.88-19.97-11.05-6.34-21.98-13.61-33.48-19.06-4.16-1.97-8.21-.11-11.83,1.97-5.72,3.27-11.44,6.55-17.14,9.82-22.47,12.87-44.95,25.74-67.42,38.62-6.26,3.58-13.9,4.77-18.03-2.44-4.03-7.01-.09-13.52,6.37-16.91,3.41-1.79,4.96-5.41,5.21-9.09.35-5.07-3.91-7.86-7.02-11.01-4.08-4.12-6.82-9.26-8.13-14.87-1.74-7.41,1.89-14.81,5.9-20.77,7.65-11.35,20.9-16.4,34.15-16.36,4.9.02,9.81,2.05,14.64,1.06,4.2-.87,6.56-4.65,7.78-8.38,3.99-12.23,15.8-22.67,27.5-27.2,23.39-9.05,54.39-4.34,69.64,16.9,3.14,4.38,4.75,9.19,7.19,13.88,1.91,3.65,6.27,5.34,10.17,5.1,2.57-.16,5.11-1.02,7.71-1.22,3.09-.25,6.18-.15,9.27.08,6.85.51,13.35,3.31,18.99,7.07,8.25,5.51,14.97,15.96,15.21,25.94.2,8-5.28,17.54-11.94,21.98-2.15,1.43-.13,4.92,2.04,3.47h0c-.81-1.05-1.62-2.11-2.44-3.16-3.97,4.4-4.07,10.46-.16,14.99.73.84,1.83,1.39,2.8,1.89,2.32,1.21,4.54,3.07,5.98,5.27,3.27,4.98.74,11.53-3.24,15.27-1.89,1.78.96,4.62,2.86,2.84,5.5-5.17,7.81-13.43,3.86-20.15-1.71-2.92-4.71-5.3-7.67-6.84-4.1-2.12-4.5-7.19-1.59-10.43,1.47-1.63-.45-4.48-2.44-3.16h-.01c-2.15,1.43-.13,4.92,2.04,3.47,6.82-4.54,13.2-14.06,13.79-22.34.83-11.71-5.05-21.77-13.38-29.58-8.33-7.81-19.72-10.83-30.88-10.8-5.03.02-12.3,3.11-16.43-.43-1.79-1.54-2.3-4.57-3.27-6.68-1.38-2.99-3.12-5.8-4.98-8.51-12.92-18.9-38.23-25.91-60.06-22.39-11.61,1.88-22.27,6.18-31.04,14.16-4.09,3.73-7.39,8.07-10.19,12.82-2.86,4.86-4.04,13.74-11.54,12.23-10.92-2.2-22.3-1.46-32.36,3.6-9.72,4.88-17.6,14.05-20.97,24.37-3.41,10.44.52,20.86,7.51,28.79,1.79,2.04,4.27,3.58,5.81,5.8,2.05,2.95.51,7.19-2.33,8.89-3.64,2.17-7.89,5.05-9.25,9.36-2.89,9.15,2.86,19.89,12.85,20.42,5.09.27,9.06-1.71,13.32-4.15,5.78-3.31,11.56-6.62,17.34-9.93,22.44-12.85,44.87-25.7,67.3-38.55,5.6-3.21,10.15.74,14.99,3.51,5.09,2.91,10.17,5.82,15.26,8.74,10.21,5.86,20.42,11.7,30.64,17.56,9.53,5.46,19.06,10.91,28.58,16.37,7.64,4.38,16.05,9.61,24.69,4.17,2.19-1.38.17-4.87-2.04-3.48Z"/>
        </g>
      </g>
    </g>
    <path class="st3" d="M244.53,122.76s28.63-21.45,8.1-51.57c-20.54-30.12-55.45-20.54-55.45-20.54,0,0-11.68-40.13-61.95-40.13s-61.9,40.13-61.9,40.13c0,0-34.91-9.59-55.45,20.54-20.53,30.12,8.1,51.57,8.1,51.57,0,0-19.74,9.36-11.18,29.21,8.55,19.85,29.66,10.5,29.66,10.5l90.79-52.01,90.79,52.01s21.11,9.36,29.67-10.5c8.56-19.85-11.18-29.21-11.18-29.21Z"/>
    <g>
      <path class="st5" d="M17.88,79.95c20.54-30.12,55.45-20.54,55.45-20.54,0,0,11.63-40.13,61.9-40.13s61.95,40.13,61.95,40.13c0,0,34.91-9.58,55.45,20.54,4.23,6.21,6.37,12.05,7.11,17.41,1.04-7.51-.44-16.38-7.11-26.17-20.54-30.12-55.45-20.54-55.45-20.54,0,0-11.68-40.13-61.95-40.13s-61.9,40.13-61.9,40.13c0,0-34.91-9.59-55.45,20.54-6.67,9.79-8.15,18.65-7.11,26.17.74-5.36,2.88-11.2,7.11-17.41Z"/>
      <path class="st5" d="M249.88,126.39c-2.93,3.32-5.35,5.13-5.35,5.13,0,0,10.45,4.96,12.85,15.3,2.11-9.92-3.09-16.66-7.49-20.43Z"/>
      <path class="st5" d="M25.98,131.52s-2.42-1.81-5.35-5.13c-4.4,3.77-9.6,10.52-7.49,20.43,2.4-10.35,12.84-15.3,12.84-15.3Z"/>
    </g>
  </g>
  <g>
    <g>
      <g>
        <g>
          <g>
            <g>
              <g>
                <path class="st0" d="M100.26,268.03s-24.32,32.59-12.58,38.62c11.74,6.03,25.91-23.92,25.91-23.92l-13.33-14.7Z"/>
                <path d="M97.37,266.35c-2.81,3.77-5.37,7.74-7.76,11.78-2.01,3.39-3.87,6.88-5.4,10.52-1.52,3.59-2.81,7.27-3.05,11.2-.21,3.58,1.02,6.96,3.94,9.13,3.31,2.46,7.55,2.08,11.12.55,3.55-1.52,6.51-4.54,8.98-7.42,2.7-3.18,5.06-6.64,7.21-10.21,1.46-2.43,2.86-4.92,4.07-7.48.67-1.43.56-2.86-.53-4.05-4.44-4.89-8.88-9.8-13.32-14.69-1.23-1.35-3.49-1.24-4.73,0-1.34,1.34-1.22,3.38,0,4.73,4.45,4.89,8.88,9.79,13.33,14.69-.17-1.35-.35-2.7-.52-4.05-2.28,4.8-5.07,9.43-8.19,13.72-.29.4-.59.79-.88,1.19.53-.69.01-.02-.08.1-.15.2-.31.38-.46.58-.66.81-1.36,1.61-2.07,2.38-.64.68-1.31,1.34-2,1.97-.33.3-.67.59-1.02.88-.14.12-.76.59-.01.02-.23.17-.46.34-.69.5-.67.47-1.37.87-2.1,1.23-.2.1-.85.36.09-.03-.17.07-.35.13-.53.19-.4.14-.82.25-1.24.33-.25.05-.91.1.18-.02-.17.02-.36.03-.53.04-.36.02-.71,0-1.06-.04,1.2.12-.03-.06-.34-.14-.18-.05-.35-.12-.52-.18.99.37.2.07-.03-.05-.27-.14-1.16-.81-.2-.06-.22-.17-.43-.38-.62-.59-.52-.56.47.72-.06-.11-.07-.12-.14-.24-.21-.37-.38-.72.25.66.05.14-.1-.28-.18-.56-.25-.85-.03-.15-.06-.3-.09-.45-.11-.62.1.9.04.27-.08-.72-.06-1.46,0-2.19.01-.18.03-.36.05-.53.08-.69-.12.85-.02.15.06-.39.13-.76.21-1.14.18-.87.42-1.72.68-2.57.25-.84.55-1.66.85-2.48.17-.43.33-.85.5-1.27.31-.75-.29.69.03-.05.12-.29.25-.57.38-.86,2.88-6.46,6.67-12.53,10.69-18.33.62-.91,1.26-1.8,1.92-2.69,1.08-1.46.24-3.73-1.21-4.57-1.71-1-3.49-.26-4.57,1.2Z"/>
              </g>
              <path class="st3" d="M91.22,289.34l8.62,4.74,3.97-17.49-3.25-3.61s-3.26,4.58-4.77,7.29c-1.51,2.72-4.58,9.07-4.58,9.07Z"/>
              <g>
                <rect class="st4" x="90.5" y="285.41" width="6.5" height="18.56" transform="translate(-208.92 231.3) rotate(-60.52)"/>
                <path d="M100.54,303.18l-17.56-9.92,3.99-7.06,17.56,9.93-3.99,7.06ZM85.17,292.65l14.76,8.34,2.41-4.26-14.76-8.34-2.41,4.26Z"/>
              </g>
            </g>
            <polygon class="st11" points="100.57 272.99 95.42 280.93 91.24 289.24 98.2 293.23 93.26 288.47 96.55 281.74 101.52 274.08 100.57 272.99"/>
          </g>
          <g>
            <g>
              <g>
                <path class="st0" d="M170.16,268.03s24.32,32.59,12.57,38.62c-11.74,6.03-25.9-23.92-25.9-23.92l13.32-14.7Z"/>
                <path d="M167.28,269.72c2.8,3.77,5.37,7.74,7.76,11.78,1,1.7,1.96,3.42,2.88,5.16.45.85.87,1.71,1.28,2.57.21.43.41.86.61,1.29.09.22.19.43.28.65.08.17.5,1.17.12.27.7,1.69,1.32,3.41,1.79,5.17.2.77.38,1.54.5,2.32.04.24.12.94-.01-.15.02.18.04.35.06.54.03.4.06.81.06,1.22,0,.33-.01.66-.04.99-.07.84.17-.85-.04.19-.06.29-.14.58-.24.86-.08.24-.33.77.12-.26-.07.17-.16.34-.25.5-.08.12-.16.24-.23.36-.32.49.55-.68.18-.22-.18.22-.39.41-.6.61-.45.39.7-.51.21-.17-.13.09-.26.17-.38.24-.14.08-.3.17-.45.24-.53.27.8-.28-.06.02-.34.12-.7.2-1.06.26,1.17-.21-.01-.02-.34-.02-.18,0-.36-.01-.54-.02-.68-.04.86.14.18.04-.42-.07-.83-.19-1.23-.31-.18-.05-.36-.12-.53-.19-.66-.24.74.34.09.04-.37-.16-.72-.35-1.06-.54-.35-.2-.7-.42-1.04-.65-.17-.11-.35-.23-.52-.36-.77-.55.27.23-.18-.14-1.52-1.21-2.88-2.61-4.16-4.06-.65-.73-1.26-1.5-1.87-2.27.54.69.02.02-.07-.1-.15-.19-.29-.39-.44-.59-.34-.46-.66-.92-.99-1.39-2.03-2.9-3.86-5.94-5.54-9.05-.62-1.15-1.23-2.3-1.79-3.48-.17,1.34-.35,2.7-.52,4.05,4.44-4.89,8.88-9.8,13.32-14.69,1.22-1.36,1.34-3.39,0-4.73-1.24-1.24-3.5-1.35-4.73,0-4.44,4.89-8.88,9.8-13.32,14.69-1.08,1.2-1.2,2.62-.53,4.05,2.28,4.8,5.07,9.43,8.19,13.73,4.45,6.12,11.24,14.16,19.76,12.36,3.51-.74,6.3-3.55,7.07-7.02.77-3.48,0-7.15-1.06-10.48-2.4-7.37-6.48-14.22-10.7-20.66-1.33-2.03-2.7-4.05-4.15-6-1.09-1.46-2.88-2.2-4.58-1.2-1.44.85-2.29,3.11-1.2,4.57Z"/>
              </g>
              <path class="st3" d="M179.2,289.34l-8.63,4.74-3.96-17.49,3.24-3.61s3.26,4.58,4.77,7.29c1.51,2.72,4.58,9.07,4.58,9.07Z"/>
              <g>
                <rect class="st4" x="167.39" y="291.43" width="18.56" height="6.5" transform="translate(-122.13 125.07) rotate(-29.48)"/>
                <path d="M169.89,303.18l-3.99-7.06,17.55-9.93,4,7.06-17.56,9.92ZM168.09,296.73l2.41,4.26,14.76-8.34-2.41-4.26-14.75,8.34Z"/>
              </g>
            </g>
            <polygon class="st11" points="169.85 272.99 175.01 280.93 179.18 289.24 172.22 293.23 177.16 288.47 173.87 281.74 168.89 274.08 169.85 272.99"/>
          </g>
        </g>
        <g>
          <g>
            <path class="st3" d="M162.03,272.96h-53.65s-10.48,58.13-3.35,60.62c7.13,2.49,13.73-8.86,13.73-8.86h32.89s6.6,11.35,13.73,8.86c7.13-2.49-3.35-60.62-3.35-60.62Z"/>
            <path d="M162.03,269.31h-53.65c-1.51,0-3.23,1.1-3.52,2.68-2.04,11.38-3.72,22.87-4.92,34.37-.72,6.95-1.47,14.1-.86,21.09.21,2.36.48,5.2,1.87,7.21,2.79,4.05,8.5,3.31,12.27,1.11,3.58-2.08,6.62-5.66,8.69-9.21-1.05.6-2.1,1.2-3.15,1.8h32.89c-1.05-.6-2.11-1.2-3.15-1.8,1.61,2.75,3.77,5.39,6.22,7.42,3.68,3.05,9.62,5.4,13.79,1.85,1.95-1.67,2.37-4.68,2.68-7.06.39-2.93.36-5.91.28-8.86-.23-7.86-1.16-15.71-2.18-23.51-.9-6.8-1.91-13.58-3.04-20.34-.23-1.36-.46-2.71-.7-4.07-.35-1.96-2.7-3.04-4.49-2.55-2.04.56-2.9,2.53-2.55,4.49.64,3.57,1.22,7.16,1.78,10.75.56,3.59,1.09,7.2,1.58,10.8.12.85-.12-.87,0-.02.03.23.06.47.09.71.06.48.13.95.19,1.44.13,1.05.26,2.1.39,3.14.25,2.04.47,4.06.68,6.1.71,6.88,1.46,13.99.79,20.91-.03.29-.06.59-.1.88.18-1.45.05-.36-.01-.02-.09.52-.2,1.03-.35,1.54-.06.21-.13.4-.2.6-.25.67.47-1.02.1-.27-.08.15-.16.29-.25.44-.34.51.79-.87.19-.29-.42.41.96-.64.37-.3,1.02-.59.65-.23-.13-.05-.87.21.83-.06-.05,0-.25.02-.5,0-.75,0-.87-.04.83.16-.02,0-.34-.07-.65-.17-.98-.28-.83-.28.73.35-.06-.02-.24-.11-.47-.24-.7-.37-.46-.25-.89-.55-1.32-.86.77.55.05.03-.09-.09-.21-.17-.4-.34-.6-.52-.44-.41-.87-.84-1.28-1.28-.34-.36-.66-.73-.98-1.1-.15-.18-.29-.36-.44-.53-.5-.63.51.67.05.05-.43-.58-.85-1.17-1.24-1.77-.92-1.42-2.04-2.44-3.87-2.44h-30.77c-1.87,0-3.8-.13-4.93,1.81-.52.89-1.13,1.74-1.75,2.57.72-.95-.24.28-.43.49-.32.38-.65.74-.99,1.11-.35.38-.73.74-1.11,1.09-.2.18-.4.35-.59.52-.14.12-.28.22-.42.33.39-.3.43-.33.11-.09-.43.31-.87.58-1.33.83-.22.12-.46.24-.69.34.89-.41.12-.06-.08,0-.24.08-.49.13-.73.2-.85.2.85-.07-.02,0-.26.02-.51.01-.76,0-.4-.03-.33-.02.21.05-.17-.03-.35-.06-.51-.11-.19-.04-.39-.11-.57-.18,1.23.46.93.42.64.26-.5-.29.89.78.38.28-.53-.5.6.86.24.34-.12-.16-.21-.34-.29-.52-.31-.61.4,1.07.11.26-.08-.2-.14-.41-.2-.62-.14-.51-.25-1.03-.33-1.55-.03-.13-.05-.27-.07-.4-.09-.61.13,1.04.06.41-.04-.29-.07-.59-.1-.89-.07-.71-.11-1.42-.14-2.12-.32-7.34.49-14.76,1.31-22.04.23-2.03.48-4.04.74-6.07.06-.47.13-.96.19-1.44.03-.24.06-.47.1-.71-.15,1.09-.04.25,0,.03.13-1,.27-2,.41-3,.48-3.38,1-6.76,1.54-10.13.44-2.73.89-5.47,1.37-8.19-1.17.89-2.34,1.78-3.52,2.68h53.65c4.7,0,4.7-7.3,0-7.3Z"/>
          </g>
          <g>
            <g>
              <polygon class="st8" points="160.15 270.34 135.32 270.34 135.1 270.34 110.27 270.34 99.51 319.21 170.92 319.21 160.15 270.34"/>
              <path d="M160.15,263.65h-49.88c-2.86,0-5.81,2.02-6.44,4.91-2.57,11.64-5.13,23.28-7.7,34.91-1.03,4.65-2.05,9.3-3.08,13.95-.93,4.21,1.93,8.47,6.45,8.47h71.41c4.51,0,7.37-4.25,6.44-8.47-2.56-11.63-5.13-23.28-7.69-34.91-1.03-4.66-2.05-9.3-3.08-13.95-.77-3.56-4.85-5.6-8.23-4.67-3.64,1-5.44,4.67-4.66,8.22,2.57,11.63,5.13,23.28,7.69,34.91,1.02,4.65,2.05,9.3,3.08,13.95,2.15-2.82,4.3-5.64,6.45-8.46h-71.41c2.15,2.82,4.29,5.64,6.44,8.46,2.57-11.64,5.13-23.28,7.7-34.91,1.02-4.65,2.05-9.3,3.07-13.95-2.15,1.63-4.3,3.27-6.45,4.91h49.88c3.65,0,6.69-3.04,6.69-6.69s-3.04-6.69-6.69-6.69Z"/>
            </g>
            <polygon class="st3" points="160.15 270.34 135.32 270.34 135.1 270.34 110.27 270.34 99.51 319.21 170.92 319.21 160.15 270.34"/>
          </g>
        </g>
        <polygon class="st3" points="168.6 308.69 101.82 308.69 99.51 319.21 170.92 319.21 168.6 308.69"/>
        <g>
          <rect class="st6" x="101.09" y="305.25" width="68.25" height="3.44"/>
          <path d="M169.34,306.26h-68.25c.81.81,1.62,1.62,2.43,2.43v-3.44c-.81.81-1.62,1.62-2.43,2.43h68.25c-.81-.81-1.63-1.62-2.44-2.43v3.44c0,3.13,4.87,3.13,4.87,0v-3.44c0-1.32-1.11-2.43-2.42-2.43h-68.25c-1.33,0-2.44,1.11-2.44,2.43v3.44c0,1.33,1.11,2.43,2.44,2.43h68.25c3.13,0,3.13-4.86,0-4.86Z"/>
        </g>
      </g>
      <g>
        <path class="st0" d="M152.5,260.46c0,9.22-7.48,16.69-16.69,16.69s-16.7-7.47-16.7-16.69,7.47-16.69,16.7-16.69,16.69,7.48,16.69,16.69Z"/>
        <path d="M149.46,260.46c-.05,4.88-2.58,9.28-6.76,11.79-4.22,2.53-9.55,2.43-13.78,0-4.21-2.41-6.71-6.98-6.77-11.79-.05-4.85,2.64-9.32,6.77-11.78,4.22-2.53,9.55-2.42,13.78,0,4.2,2.41,6.71,6.97,6.76,11.78.04,3.92,6.12,3.92,6.08,0-.06-5.89-2.68-11.62-7.32-15.32-4.87-3.87-11.12-5.24-17.19-3.83-5.62,1.3-10.54,5.41-13,10.6-2.68,5.64-2.49,12.09.28,17.66,4.05,8.12,13.61,12.05,22.27,10.03,8.75-2.05,14.87-10.3,14.96-19.15.04-3.92-6.04-3.91-6.08,0Z"/>
      </g>
      <g>
        <g>
          <g>
            <path class="st8" d="M69.08,207.9c0,8.06-6.53,14.6-14.59,14.6s-14.59-6.54-14.59-14.6,6.53-14.59,14.59-14.59,14.59,6.53,14.59,14.59Z"/>
            <path d="M60.58,207.9c0,.68-.05,1.34-.14,2.01.1-.75.21-1.5.31-2.26-.2,1.3-.54,2.54-1.04,3.75.28-.68.57-1.36.85-2.04-.51,1.17-1.16,2.26-1.94,3.27.45-.58.88-1.15,1.33-1.73-.73.91-1.55,1.72-2.45,2.45.57-.44,1.14-.88,1.73-1.33-1.02.79-2.1,1.43-3.27,1.95.68-.29,1.36-.57,2.04-.86-1.22.51-2.45.85-3.75,1.04.75-.1,1.51-.21,2.26-.3-1.34.17-2.67.17-4.01,0,.76.1,1.51.2,2.26.3-1.29-.19-2.54-.54-3.75-1.04.68.29,1.36.57,2.03.86-1.17-.52-2.25-1.16-3.27-1.95.57.44,1.15.89,1.73,1.33-.91-.73-1.72-1.54-2.46-2.45.45.57.9,1.15,1.34,1.73-.79-1.02-1.43-2.1-1.95-3.27.29.68.57,1.36.85,2.04-.5-1.21-.84-2.45-1.04-3.75.1.76.2,1.51.31,2.26-.17-1.34-.17-2.67,0-4.01-.1.76-.2,1.51-.31,2.26.2-1.29.54-2.54,1.04-3.75-.28.68-.57,1.36-.85,2.03.52-1.17,1.16-2.25,1.95-3.27-.44.58-.89,1.15-1.34,1.73.74-.91,1.55-1.73,2.46-2.45-.58.44-1.16.89-1.73,1.33,1.02-.78,2.1-1.42,3.27-1.94-.68.29-1.36.57-2.03.86,1.21-.51,2.45-.85,3.75-1.04-.76.1-1.51.2-2.26.3,1.35-.17,2.67-.17,4.01,0-.75-.11-1.51-.2-2.26-.3,1.29.19,2.53.54,3.75,1.04-.68-.29-1.36-.57-2.04-.86,1.17.52,2.26,1.16,3.27,1.94-.58-.44-1.15-.89-1.73-1.33.91.73,1.72,1.54,2.45,2.45-.45-.57-.89-1.15-1.33-1.73.79,1.01,1.43,2.1,1.94,3.27-.28-.68-.57-1.35-.85-2.03.5,1.21.84,2.45,1.04,3.75-.1-.76-.21-1.51-.31-2.26.09.67.13,1.34.14,2.01.05,4.64,3.83,8.51,8.51,8.51s8.57-3.87,8.51-8.51c-.09-8.12-4.27-15.37-11.08-19.73-6.92-4.43-15.76-4.19-22.94-.62-3.51,1.74-6.25,4.65-8.47,7.8-2.33,3.3-3.25,7.26-3.66,11.21-.42,4.08.79,8.01,2.41,11.69,1.61,3.62,4.5,6.31,7.57,8.68,3.36,2.58,7.59,3.6,11.72,4.03,4.23.43,8.52-.83,12.26-2.69,7.53-3.74,12.09-12.12,12.19-20.36.06-4.64-3.91-8.51-8.51-8.51s-8.46,3.87-8.51,8.51Z"/>
          </g>
          <path class="st0" d="M69.08,207.9c0,8.06-6.53,14.6-14.59,14.6s-14.59-6.54-14.59-14.6,6.53-14.59,14.59-14.59,14.59,6.53,14.59,14.59Z"/>
          <path class="st9" d="M65.33,207.5c0,5.91-4.79,10.69-10.7,10.69s-10.69-4.78-10.69-10.69,4.79-10.69,10.69-10.69,10.7,4.79,10.7,10.69Z"/>
        </g>
        <g>
          <g>
            <path class="st8" d="M230.52,207.9c0,8.06-6.54,14.6-14.6,14.6s-14.59-6.54-14.59-14.6,6.54-14.59,14.59-14.59,14.6,6.53,14.6,14.59Z"/>
            <path d="M222.01,207.9c0,.68-.05,1.34-.14,2.01.1-.75.2-1.5.31-2.26-.2,1.3-.54,2.54-1.04,3.75.28-.68.57-1.36.85-2.04-.52,1.17-1.16,2.26-1.94,3.27.44-.58.88-1.15,1.33-1.73-.73.91-1.54,1.72-2.45,2.45.57-.44,1.14-.88,1.72-1.33-1.01.79-2.1,1.43-3.27,1.95.68-.29,1.36-.57,2.03-.86-1.21.51-2.45.85-3.74,1.04.75-.1,1.5-.21,2.26-.3-1.34.17-2.67.17-4.02,0,.76.1,1.51.2,2.27.3-1.3-.19-2.54-.54-3.75-1.04.67.29,1.35.57,2.03.86-1.17-.52-2.25-1.16-3.27-1.95.58.44,1.15.89,1.73,1.33-.91-.73-1.72-1.54-2.45-2.45.44.57.88,1.15,1.33,1.73-.79-1.02-1.43-2.1-1.95-3.27.28.68.57,1.36.85,2.04-.5-1.21-.85-2.45-1.05-3.75.11.76.21,1.51.31,2.26-.17-1.34-.17-2.67,0-4.01-.1.76-.2,1.51-.31,2.26.2-1.29.54-2.54,1.05-3.75-.29.68-.57,1.36-.85,2.03.51-1.17,1.16-2.25,1.95-3.27-.45.58-.89,1.15-1.33,1.73.73-.91,1.54-1.73,2.45-2.45-.57.44-1.15.89-1.73,1.33,1.02-.78,2.1-1.42,3.27-1.94-.68.29-1.35.57-2.03.86,1.21-.51,2.45-.85,3.75-1.04-.76.1-1.51.2-2.27.3,1.35-.17,2.67-.17,4.02,0-.76-.11-1.51-.2-2.26-.3,1.29.19,2.53.54,3.74,1.04-.68-.29-1.35-.57-2.03-.86,1.17.52,2.26,1.16,3.27,1.94-.58-.44-1.15-.89-1.72-1.33.91.73,1.71,1.54,2.45,2.45-.45-.57-.88-1.15-1.33-1.73.78,1.01,1.42,2.1,1.94,3.27-.29-.68-.57-1.35-.85-2.03.5,1.21.84,2.45,1.04,3.75-.1-.76-.2-1.51-.31-2.26.09.67.13,1.34.14,2.01.05,4.64,3.83,8.51,8.52,8.51s8.56-3.87,8.5-8.51c-.09-8.12-4.27-15.37-11.08-19.73-6.92-4.43-15.75-4.19-22.94-.62-3.5,1.74-6.25,4.65-8.47,7.8-2.33,3.3-3.25,7.26-3.65,11.21-.42,4.08.79,8.01,2.41,11.69,1.6,3.62,4.5,6.31,7.57,8.68,3.36,2.59,7.6,3.6,11.72,4.03,4.23.43,8.52-.83,12.26-2.69,7.53-3.74,12.09-12.12,12.19-20.36.06-4.64-3.91-8.51-8.5-8.51s-8.47,3.87-8.52,8.51Z"/>
          </g>
          <path class="st0" d="M230.52,207.9c0,8.06-6.54,14.6-14.6,14.6s-14.59-6.54-14.59-14.6,6.54-14.59,14.59-14.59,14.6,6.53,14.6,14.59Z"/>
          <path class="st9" d="M226.75,207.5c0,5.91-4.78,10.69-10.69,10.69s-10.69-4.78-10.69-10.69,4.79-10.69,10.69-10.69,10.69,4.79,10.69,10.69Z"/>
        </g>
      </g>
      <g>
        <g>
          <path class="st8" d="M52.45,132.31c-.3,11.8,0,68.08,0,68.08,0,31.71,17.77,61.1,83.98,60.83,65.54-.27,81.05-29.12,81.05-60.83v-68.08H52.45Z"/>
          <path d="M43.93,132.31c-.38,15.08-.14,30.2-.09,45.3.02,6.61.05,13.22.08,19.84.02,5.31.29,10.52,1.03,15.79,1.04,7.4,3.47,14.65,7.1,21.19,4.19,7.57,10.18,13.73,17.11,18.82,7.7,5.66,16.91,9.37,26.09,11.84,12.37,3.34,25.38,4.49,38.15,4.63,13.21.14,26.61-.83,39.52-3.82,9.41-2.19,18.83-5.72,26.87-11.15,7.09-4.79,13.14-10.91,17.51-18.3,3.78-6.38,6.23-13.62,7.42-20.92,1.74-10.6,1.28-21.37,1.28-32.08v-51.14c0-4.64-3.87-8.51-8.51-8.51H52.45c-4.65,0-8.51,3.87-8.51,8.51s3.87,8.51,8.51,8.51h165.03c-2.83-2.84-5.67-5.68-8.51-8.51v67.59c0,3.86-.19,7.71-.7,11.54.1-.75.2-1.51.31-2.26-.71,5.19-1.98,10.28-4.02,15.1.28-.67.57-1.35.86-2.03-1.58,3.71-3.6,7.2-6.05,10.39.44-.58.88-1.15,1.33-1.72-2.49,3.21-5.39,6.07-8.6,8.56.57-.45,1.14-.89,1.72-1.33-4.14,3.18-8.71,5.71-13.5,7.75.67-.29,1.36-.58,2.03-.86-8.05,3.38-16.63,5.33-25.26,6.51.75-.1,1.51-.2,2.26-.3-15.52,2.08-31.59,2.1-47.11.03.76.1,1.51.21,2.26.31-8.89-1.21-17.72-3.24-26.02-6.73.68.29,1.36.57,2.04.86-4.94-2.1-9.64-4.72-13.89-7.99.57.44,1.15.89,1.71,1.33-3.37-2.62-6.42-5.63-9.04-9.01.44.57.89,1.15,1.33,1.73-2.52-3.29-4.61-6.89-6.23-10.7.28.68.57,1.35.85,2.03-2.01-4.79-3.3-9.84-3.98-14.99.1.76.2,1.5.3,2.26-.58-4.46-.63-8.92-.65-13.4-.03-6.79-.05-13.59-.08-20.38-.05-14.75-.27-29.52.09-44.27.12-4.64-3.95-8.51-8.5-8.51s-8.4,3.87-8.51,8.51Z"/>
        </g>
        <path class="st0" d="M53.07,118.8c-.29,11.81,0,81.6,0,81.6,0,31.71,17.77,61.1,83.99,60.83,65.53-.27,81.05-29.12,81.05-60.83v-81.6H53.07Z"/>
      </g>
      <path class="st12" d="M203.54,188.3c-13.9-3.65-27.46-9.08-40.02-16.07-10.39-5.78-19.96-12.87-28.28-21.3-7.98,8.11-17.11,15.01-27.04,20.61-17.28,9.76-36.27,16.62-55.86,19.87,0,.82,0,1.27,0,1.27,0,3.99.28,7.95.9,11.83,19.27-3.32,37.93-8.87,54.95-18.47,9.93-5.6,19.06-11.83,27.04-19.94,8.33,8.43,17.89,14.15,28.28,19.94,12.56,6.99,26.12,11.88,40.02,15.53,4.79,1.26,9.64,2.29,14.54,3.09.57-3.91.83-7.92.83-11.97v-1.14c-5.18-.83-10.32-1.91-15.37-3.24Z"/>
      <g>
        <path class="st3" d="M135.46,74.94c-.08,0-.17,0-.25,0s-.17,0-.25,0c-84.26,0-94.6,72.2-95.57,85.03-.37,4.85.14,30.54.14,30.54,0,.6,0,1.18.01,1.77,13.02-1.01,40.3-5.27,69.11-22.85,10.92-6.66,19.64-14.76,26.56-23.03,6.92,8.26,15.64,16.36,26.56,23.03,28.81,17.58,56.1,21.84,69.11,22.85,0-.59.02-1.18.02-1.77,0,0,.51-25.7.14-30.54-.98-12.83-11.32-85.03-95.59-85.03Z"/>
        <path d="M135.46,66.43c-11.56.16-23.11,1.21-34.29,4.28-9.18,2.51-18.17,6.37-26.19,11.53-13.43,8.66-24.3,20.89-31.69,35.03-5.28,10.12-9.08,21.13-11.06,32.38-.65,3.65-1.23,7.38-1.4,11.08-.36,7.7-.05,15.46.08,23.17.04,2.8.07,5.6.13,8.39.07,4.36,3.81,8.88,8.5,8.51,24.16-1.9,47.79-9.46,68.88-21.35,12.43-7.02,23.62-16.08,32.81-27.02h-12.04c9.51,11.32,21.14,20.53,34.04,27.71,12.45,6.92,25.87,12.31,39.65,15.93,9.16,2.4,18.56,3.99,28,4.73,4.68.37,8.44-4.15,8.51-8.51.1-6.54.21-13.08.26-19.63.04-5.08.23-10.2-.36-15.26-1.13-9.84-3.39-19.48-7.04-28.7-5.52-13.99-13.58-26.96-24.76-37.15-14.28-13.03-32.48-20.83-51.52-23.56-6.82-.98-13.64-1.53-20.53-1.54-4.63,0-8.51,3.87-8.51,8.51s3.88,8.5,8.51,8.51c5.78,0,11.56.35,17.29,1.1-.75-.1-1.51-.2-2.26-.3,8.8,1.19,17.46,3.37,25.66,6.83-.68-.29-1.36-.58-2.04-.87,6.51,2.77,12.66,6.32,18.26,10.64-.57-.44-1.15-.89-1.73-1.33,5.46,4.23,10.33,9.16,14.55,14.61-.44-.57-.88-1.14-1.33-1.72,4.87,6.32,8.84,13.3,11.94,20.65-.28-.68-.57-1.36-.85-2.04,3.64,8.62,6.18,17.75,7.43,27.03-.1-.75-.21-1.51-.31-2.26.54,4.07.59,8.13.58,12.24,0,7.31-.13,14.61-.26,21.91-.02.78-.02,1.56-.04,2.34,2.84-2.83,5.67-5.67,8.52-8.51-2.49-.19-4.97-.46-7.44-.8.76.1,1.51.21,2.26.31-13.84-1.88-27.39-5.69-40.26-11.09.67.29,1.36.57,2.03.85-10.87-4.59-21.46-10.23-30.83-17.44.57.44,1.15.88,1.72,1.33-6.3-4.89-12.01-10.45-17.14-16.54-2.81-3.34-9.23-3.34-12.04,0-5.12,6.1-10.85,11.66-17.15,16.54.58-.45,1.15-.89,1.73-1.33-9.37,7.2-19.96,12.85-30.83,17.44.68-.28,1.36-.56,2.04-.85-12.87,5.4-26.43,9.21-40.27,11.09.75-.1,1.51-.21,2.26-.31-2.47.33-4.94.6-7.43.8,2.84,2.84,5.68,5.68,8.51,8.51-.12-6.54-.22-13.09-.27-19.63-.04-5.08-.22-10.2.36-15.26.06-.53.13-1.06.2-1.59-.1.75-.2,1.51-.3,2.26,1.26-9.28,3.8-18.41,7.43-27.03-.29.68-.58,1.35-.85,2.04,3.11-7.35,7.07-14.32,11.94-20.65-.44.57-.89,1.15-1.33,1.72,4.23-5.46,9.1-10.38,14.55-14.61-.58.44-1.15.88-1.72,1.33,5.6-4.32,11.75-7.87,18.25-10.64-.68.29-1.36.58-2.03.87,8.2-3.46,16.85-5.64,25.65-6.83-.76.1-1.51.21-2.26.3,5.92-.78,11.82-1.02,17.79-1.1,4.64-.06,8.51-3.82,8.51-8.51s-3.87-8.57-8.51-8.51Z"/>
      </g>
      <path class="st6" d="M135.46,74.94c-.08,0-.17,0-.25,0s-.17,0-.25,0c-84.26,0-94.6,72.2-95.57,85.03-.37,4.85.14,30.54.14,30.54,0,.6,0,1.18.01,1.77,13.02-1.01,40.3-5.27,69.11-22.85,10.92-6.66,19.64-14.76,26.56-23.03,6.92,8.26,15.64,16.36,26.56,23.03,28.81,17.58,56.1,21.84,69.11,22.85,0-.59.02-1.18.02-1.77,0,0,.51-25.7.14-30.54-.98-12.83-11.32-85.03-95.59-85.03Z"/>
      <path class="st14" d="M39.38,165.03c.97-12.83,11.31-85.03,95.57-85.03.09,0,.17,0,.25,0s.17,0,.25,0c84.27,0,94.61,72.2,95.59,85.03.07.96.1,2.77.12,5.03.02-4.54-.01-8.48-.12-10.09-.98-12.83-11.32-85.03-95.59-85.03-.08,0-.17,0-.25,0s-.17,0-.25,0c-84.26,0-94.6,72.2-95.57,85.03-.13,1.62-.15,5.56-.13,10.11.01-2.27.05-4.08.13-5.05Z"/>
      <path class="st13" d="M162.49,164.72c-11.13-6.87-20.07-16.09-27.15-24.54-7.07,8.45-16.07,17.6-27.14,24.54-34.46,21.55-68.54,27.1-68.52,27.7,13.02-1.02,40.3-5.28,69.11-22.86,10.92-6.66,19.64-14.76,26.56-23.03,6.92,8.27,15.64,16.37,26.55,23.03,28.82,17.58,56.1,21.83,69.12,22.86,0-.6-28.66-3.12-68.52-27.7Z"/>
      <g>
        <path class="st4" d="M185.08,337.45c0,1.47-22.33,2.66-49.87,2.66s-49.87-1.19-49.87-2.66,22.33-2.66,49.87-2.66,49.87,1.19,49.87,2.66Z"/>
        <path d="M135.21,341.33c-51.08,0-51.08-2.92-51.08-3.88s0-3.87,51.08-3.87,51.08,2.91,51.08,3.87,0,3.88-51.08,3.88ZM90.62,337.45c7.5.79,23.63,1.46,44.59,1.46s37.09-.66,44.59-1.46c-7.5-.79-23.63-1.45-44.59-1.45s-37.08.66-44.59,1.45Z"/>
      </g>
      <polygon class="st4" points="131.71 279.22 130.19 273.34 112.96 277.81 112.96 277.82 112.95 277.82 112.95 309.44 119.03 309.44 119.03 282.52 131.71 279.22"/>
      <g>
        <g>
          <path class="st4" d="M131.87,286.56c0,1.86-1.51,3.37-3.37,3.37s-3.37-1.5-3.37-3.37,1.51-3.37,3.37-3.37,3.37,1.51,3.37,3.37Z"/>
          <path d="M128.5,290.73c-2.3,0-4.17-1.87-4.17-4.17s1.87-4.17,4.17-4.17,4.17,1.87,4.17,4.17-1.87,4.17-4.17,4.17ZM128.5,284c-1.41,0-2.56,1.15-2.56,2.56s1.15,2.56,2.56,2.56,2.56-1.15,2.56-2.56-1.15-2.56-2.56-2.56Z"/>
        </g>
        <g>
          <path class="st4" d="M132,297.14c0,1.86-1.51,3.37-3.37,3.37s-3.37-1.51-3.37-3.37,1.51-3.37,3.37-3.37,3.37,1.51,3.37,3.37Z"/>
          <path d="M128.63,301.31c-2.3,0-4.17-1.87-4.17-4.17s1.87-4.17,4.17-4.17,4.18,1.87,4.18,4.17-1.87,4.17-4.18,4.17ZM128.63,294.58c-1.41,0-2.56,1.15-2.56,2.56s1.15,2.56,2.56,2.56,2.57-1.15,2.57-2.56-1.15-2.56-2.57-2.56Z"/>
        </g>
      </g>
      <g>
        <g>
          <path class="st4" d="M142.82,286.56c0,1.86-1.51,3.37-3.37,3.37s-3.37-1.5-3.37-3.37,1.5-3.37,3.37-3.37,3.37,1.51,3.37,3.37Z"/>
          <path d="M139.45,290.73c-2.3,0-4.17-1.87-4.17-4.17s1.87-4.17,4.17-4.17,4.17,1.87,4.17,4.17-1.87,4.17-4.17,4.17ZM139.45,284c-1.41,0-2.56,1.15-2.56,2.56s1.15,2.56,2.56,2.56,2.56-1.15,2.56-2.56-1.15-2.56-2.56-2.56Z"/>
        </g>
        <g>
          <path class="st4" d="M142.94,297.14c0,1.86-1.51,3.37-3.37,3.37s-3.37-1.51-3.37-3.37,1.51-3.37,3.37-3.37,3.37,1.51,3.37,3.37Z"/>
          <path d="M139.57,301.31c-2.3,0-4.17-1.87-4.17-4.17s1.87-4.17,4.17-4.17,4.17,1.87,4.17,4.17-1.87,4.17-4.17,4.17ZM139.57,294.58c-1.41,0-2.56,1.15-2.56,2.56s1.15,2.56,2.56,2.56,2.56-1.15,2.56-2.56-1.15-2.56-2.56-2.56Z"/>
        </g>
      </g>
    </g>
    <g>
      <g>
        <g>
          <path class="st2" d="M74.72,212.88c0,7.29,5.9,13.2,13.19,13.2s13.19-5.91,13.19-13.2-5.91-13.19-13.19-13.19-13.19,5.91-13.19,13.19Z"/>
          <path d="M72.89,212.88c.07,5.69,3.27,10.93,8.38,13.47,5.21,2.58,11.58,1.82,16.08-1.8,4.51-3.63,6.4-9.53,5.18-15.14-1.2-5.48-5.77-9.84-11.15-11.15-9.37-2.29-18.36,5.14-18.48,14.61-.02,2.36,3.62,2.35,3.65,0,.06-5.34,3.71-9.83,8.88-11.1,5.22-1.27,10.48,1.62,12.81,6.3,2.31,4.66.73,10.67-3.34,13.8-4.21,3.23-10.26,3.12-14.32-.31-2.56-2.17-3.98-5.35-4.02-8.69-.03-2.35-3.67-2.36-3.65,0Z"/>
        </g>
        <path class="st1" d="M79.4,217.72c0,1.18.96,2.14,2.14,2.14s2.14-.96,2.14-2.14-.96-2.14-2.14-2.14-2.14.96-2.14,2.14Z"/>
        <path class="st1" d="M86.64,211.11c0,3.04,2.47,5.52,5.51,5.52s5.52-2.47,5.52-5.52-2.47-5.52-5.52-5.52-5.51,2.46-5.51,5.52Z"/>
        <path class="st7" d="M89.98,232.52c.99,2.62-2.45,6.34-7.7,8.31-5.24,1.97-10.28,1.45-11.27-1.17-.99-2.62,2.46-6.34,7.7-8.31,5.24-1.97,10.28-1.45,11.26,1.17Z"/>
      </g>
      <g>
        <g>
          <path class="st2" d="M169.31,212.88c0,7.29,5.91,13.2,13.2,13.2s13.2-5.91,13.2-13.2-5.91-13.19-13.2-13.19-13.2,5.91-13.2,13.19Z"/>
          <path d="M167.49,212.88c.07,5.69,3.26,10.93,8.38,13.47,5.2,2.58,11.57,1.82,16.07-1.8,4.51-3.63,6.41-9.53,5.18-15.14-1.2-5.48-5.77-9.84-11.16-11.15-9.36-2.29-18.36,5.14-18.48,14.61-.03,2.36,3.62,2.35,3.65,0,.07-5.34,3.7-9.83,8.87-11.1,5.22-1.27,10.49,1.62,12.82,6.3,2.31,4.66.73,10.67-3.34,13.8-4.21,3.23-10.26,3.12-14.32-.31-2.56-2.17-3.98-5.35-4.02-8.69-.03-2.35-3.68-2.36-3.65,0Z"/>
        </g>
        <path class="st1" d="M174,217.72c0,1.18.96,2.14,2.14,2.14s2.14-.96,2.14-2.14-.96-2.14-2.14-2.14-2.14.96-2.14,2.14Z"/>
        <path class="st1" d="M181.24,211.11c0,3.04,2.48,5.52,5.52,5.52s5.52-2.47,5.52-5.52-2.48-5.52-5.52-5.52-5.52,2.46-5.52,5.52Z"/>
        <path class="st7" d="M180.43,232.52c-.98,2.62,2.46,6.34,7.71,8.31,5.24,1.97,10.28,1.45,11.26-1.17.99-2.62-2.46-6.34-7.7-8.31-5.24-1.97-10.28-1.45-11.27,1.17Z"/>
      </g>
    </g>
  </g>
  <g>
    <g>
      <path class="st3" d="M215.98,110.85c-15.04-16.22-43.61-25.83-80.45-25.83-.09,0-.17,0-.26,0h-.04s-.01,0-.02,0h-.02s-.02,0-.04,0c-.1,0-.18,0-.27,0-36.83,0-65.39,9.61-80.44,25.83-12.83,13.83-18.68,32.91-17.85,45.93,14.69-13.27,48.23-37.31,98.61-37.35,50.38.05,83.93,24.08,98.62,37.35.83-13.02-5.02-32.1-17.85-45.93Z"/>
      <g>
        <path d="M238.23,131.86c-3.62-10-9.02-19.19-16.23-27.02-7.1-7.62-16.21-13.32-25.75-17.36-5.88-2.48-11.86-4.56-18.06-6.12-6.8-1.71-13.75-2.8-20.71-3.62-7.37-.88-14.76-1.14-22.17-1.23-.03,0-.05,0-.08,0h-.04s-.05,0-.08,0c-13.94.18-27.85,1.29-41.45,4.49-11.21,2.65-22.39,6.82-32.11,13.06-10.3,6.62-18.58,15.72-24.36,26.52-3.17,5.89-5.67,12.26-7.25,18.75-1.37,5.65-2.19,11.63-1.85,17.44.18,3.05,1.51,5.77,4.22,7.35,3.42,2.01,7.45,1.25,10.3-1.33,2.3-2.08,4.69-4.05,7.12-5.97,9.51-7.23,19.91-13.28,30.87-18.01,11.33-4.66,23.2-7.89,35.32-9.64,12.8-1.61,25.76-1.61,38.56,0,12.13,1.75,24.02,4.98,35.34,9.65,10.96,4.74,21.34,10.78,30.86,18,2.44,1.92,4.82,3.9,7.12,5.98,2.29,2.06,5.24,3.03,8.28,2.19,3.82-1.05,6.02-4.39,6.25-8.21.5-8.38-1.27-17.07-4.11-24.93ZM155.26,112.24c-14.5-1.94-29.07-1.55-43.54.47-22.4,3.12-44.21,11.55-63.04,24.04-.09.06-.17.12-.27.18.35-.95.71-1.91,1.09-2.86,2.11-4.77,4.72-9.3,7.82-13.51,2.78-3.47,5.89-6.62,9.36-9.39,4.58-3.37,9.57-6.12,14.77-8.42,9.58-3.92,19.71-6.34,29.95-7.79,7.91-.99,15.83-1.32,23.8-1.43h.04c7.97.1,15.89.44,23.8,1.43,10.23,1.46,20.36,3.88,29.94,7.79,5.29,2.33,10.37,5.15,15.01,8.6,2.11,1.7,4.12,3.53,5.98,5.52,1.06,1.15,2.05,2.34,3.04,3.55,3.14,4.24,5.79,8.82,7.92,13.65.39.98.77,1.95,1.12,2.94-9.25-6.1-19.13-11.21-29.48-15.35-12.01-4.79-24.51-7.71-37.29-9.42Z"/>
        <path d="M233.89,165.7h0c-2.27,0-4.47-.9-6.35-2.59-2.15-1.94-4.47-3.89-7.1-5.96-9.44-7.17-19.8-13.21-30.77-17.95-11.24-4.63-23.1-7.87-35.24-9.62-12.69-1.6-25.75-1.6-38.46,0-12.11,1.75-23.96,4.98-35.22,9.61-10.97,4.74-21.33,10.78-30.78,17.96-2.63,2.07-4.95,4.02-7.1,5.96-3.07,2.78-7.4,3.35-10.78,1.38-2.64-1.54-4.21-4.27-4.42-7.67-.32-5.29.31-11.2,1.86-17.56,1.57-6.43,4.02-12.78,7.29-18.85,5.84-10.9,14.31-20.12,24.5-26.67,8.99-5.77,19.84-10.18,32.24-13.11,12.14-2.86,25.34-4.29,41.54-4.5h.16s.07,0,.07,0c6.51.08,14.26.28,22.18,1.23,8.13.96,14.73,2.11,20.76,3.62,5.95,1.49,11.88,3.5,18.12,6.14,10.53,4.45,19.24,10.32,25.89,17.46,7.09,7.7,12.58,16.83,16.32,27.16,3.16,8.75,4.59,17.43,4.13,25.09-.26,4.25-2.76,7.53-6.54,8.57-.76.21-1.54.31-2.31.31ZM135.21,127.57c6.44,0,12.95.41,19.33,1.21,12.21,1.76,24.14,5.01,35.45,9.68,11.04,4.77,21.45,10.84,30.95,18.05,2.66,2.09,4.99,4.05,7.15,6,2.31,2.09,5.16,2.85,7.91,2.1,3.44-.94,5.72-3.95,5.95-7.85.45-7.55-.96-16.11-4.09-24.76-3.7-10.23-9.14-19.27-16.15-26.89-6.57-7.04-15.19-12.85-25.61-17.26-6.2-2.62-12.09-4.62-18.01-6.1-6-1.51-12.56-2.66-20.66-3.61-7.89-.94-15.61-1.14-22.13-1.22h-.11c-16.22.21-29.36,1.63-41.45,4.48-12.31,2.91-23.07,7.29-31.99,13.01-10.07,6.48-18.45,15.59-24.22,26.37-3.24,6.02-5.67,12.29-7.21,18.66-1.53,6.28-2.15,12.11-1.84,17.32.14,2.22.94,5.23,4.02,7.03,3.08,1.81,7.02,1.27,9.83-1.28,2.16-1.95,4.5-3.91,7.15-6,9.51-7.22,19.92-13.3,30.96-18.06,11.33-4.66,23.25-7.92,35.43-9.67,6.39-.8,12.9-1.21,19.34-1.21ZM222.81,138.01l-1-.66c-9.07-5.99-18.97-11.14-29.41-15.31-11.2-4.47-23.37-7.54-37.2-9.4-6.26-.84-12.78-1.26-19.37-1.26-7.72,0-15.81.58-24.06,1.73-22.13,3.09-43.87,11.38-62.87,23.98l-.09.07c-.06.04-.12.08-.18.12l-.99.62.4-1.1c.35-.96.71-1.92,1.1-2.87,2.16-4.88,4.8-9.44,7.87-13.59,2.81-3.53,5.98-6.71,9.43-9.47,4.33-3.18,9.33-6.03,14.86-8.47,8.96-3.67,18.78-6.23,30.05-7.83,6.9-.86,14.26-1.3,23.85-1.43,9.6.12,16.96.57,23.9,1.43,11.28,1.61,21.11,4.16,30.04,7.82,5.63,2.48,10.71,5.38,15.1,8.64,2.27,1.84,4.24,3.65,6.03,5.57.93,1.01,1.9,2.14,3.05,3.57,3.14,4.24,5.82,8.85,7.97,13.74.4.99.78,1.97,1.13,2.97l.4,1.14ZM135.83,110.57c6.63,0,13.18.43,19.48,1.27,13.9,1.87,26.13,4.96,37.39,9.45,10.1,4.03,19.7,8.98,28.54,14.72-.22-.6-.46-1.19-.7-1.79-2.13-4.82-4.78-9.38-7.87-13.56-1.13-1.4-2.09-2.52-3.01-3.52-1.76-1.88-3.7-3.68-5.93-5.48-4.33-3.21-9.35-6.09-14.92-8.54-8.86-3.63-18.63-6.17-29.83-7.77-6.9-.86-14.23-1.3-23.75-1.43-9.59.13-16.91.57-23.78,1.43-11.2,1.59-20.96,4.13-29.85,7.77-5.47,2.41-10.41,5.22-14.68,8.36-3.39,2.72-6.52,5.86-9.28,9.32-3.02,4.09-5.63,8.61-7.76,13.42-.22.55-.44,1.12-.65,1.68,18.92-12.39,40.49-20.54,62.45-23.6,8.28-1.15,16.42-1.74,24.17-1.74Z"/>
      </g>
    </g>
    <path class="st11" d="M237.08,164.62c3.35,0,7.04-.66,10.43-2.71,1.81-1.7,2.83-4.11,2.99-6.73.54-9.02-1.36-18.36-4.42-26.81-3.9-10.76-9.7-20.64-17.47-29.07-7.63-8.19-17.43-14.34-27.7-18.67-6.33-2.67-12.76-4.91-19.43-6.59-7.32-1.84-14.79-3.01-22.27-3.89-7.79-.92-15.59-1.21-23.42-1.31-.17,0-.34-.01-.51,0h-.05c-.18,0-.36,0-.54,0-14.84.21-29.66,1.41-44.14,4.83-12.06,2.85-24.08,7.34-34.55,14.06-11.08,7.12-19.98,16.91-26.21,28.52-3.4,6.33-6.09,13.18-7.79,20.17-1.48,6.07-2.36,12.51-1.99,18.77.16,2.6,1.08,4.96,2.91,6.69,3.41,2.09,7.12,2.76,10.5,2.76-.36-.15-.73-.32-1.08-.53-2.71-1.59-4.04-4.3-4.21-7.35-.35-5.81.47-11.8,1.85-17.44,1.58-6.5,4.08-12.86,7.24-18.75,5.8-10.79,14.07-19.89,24.37-26.52,9.73-6.25,20.9-10.41,32.11-13.06,13.46-3.19,27.23-4.3,41.03-4.49.17,0,.33-.01.5,0h.05c.16,0,.31,0,.47,0,7.29.1,14.54.36,21.78,1.21,6.97.83,13.9,1.91,20.71,3.62,6.2,1.56,12.17,3.64,18.06,6.12,9.54,4.04,18.65,9.74,25.75,17.36,7.22,7.83,12.62,17.02,16.23,27.03,2.85,7.85,4.62,16.54,4.11,24.92-.21,3.48-2.07,6.57-5.31,7.88Z"/>
    <path class="st10" d="M46.31,167.84c9.88-7.5,20.66-13.77,32.06-18.69,11.8-4.87,24.19-8.23,36.84-10.05,13.27-1.67,26.73-1.67,40.01,0,12.65,1.82,25.03,5.18,36.84,10.05,11.38,4.92,22.17,11.19,32.04,18.69,2.37,1.86,7.03,5.74,7.03,5.74l.03-8.76s-2.78-1.49-3.35-2.02c-2.32-2.09-4.71-4.09-7.16-6.02-9.49-7.21-19.86-13.24-30.8-17.96-11.36-4.68-23.26-7.91-35.41-9.66-12.76-1.6-25.7-1.6-38.46,0-12.15,1.75-24.06,4.99-35.41,9.66-10.94,4.72-21.31,10.75-30.8,17.96-2.45,1.93-4.85,3.93-7.17,6.02-.57.53-3.36,2.08-3.36,2.08,0,0,.05,6.77.04,8.77,2.24-2,4.66-3.96,7.03-5.82Z"/>
    <path class="st3" d="M215.98,110.85c-15.04-16.22-43.61-25.83-80.45-25.83-.09,0-.17,0-.26,0h-.04s-.01,0-.02,0h-.02s-.02,0-.04,0c-.1,0-.18,0-.27,0-36.83,0-65.39,9.61-80.44,25.83-12.83,13.83-18.68,32.91-17.85,45.93,14.69-13.27,48.23-37.31,98.61-37.35,50.38.05,83.93,24.08,98.62,37.35.83-13.02-5.02-32.1-17.85-45.93Z"/>
    <path class="st11" d="M36.88,156.53c1.45-12.02,7.25-26.53,17.56-37.65,15.04-16.22,43.61-25.83,80.44-25.83h.65c36.84,0,65.4,9.61,80.45,25.83,10.31,11.12,16.11,25.62,17.56,37.65.1.08.2.18.29.26.83-13.02-5.02-32.1-17.85-45.93-15.04-16.22-43.61-25.83-80.45-25.83-.09,0-.17,0-.26,0h-.04s-.01,0-.02,0h-.02s-.02,0-.04,0c-.1,0-.18,0-.27,0-36.83,0-65.39,9.61-80.44,25.83-12.83,13.83-18.68,32.91-17.85,45.93.09-.08.19-.18.29-.26Z"/>
  </g>
  <path class="st3" d="M66.86,80.27s17.45,21.44,68.31,21.44,68.48-21.88,68.48-21.88c0,0-25.83-16.43-69.23-16.43s-67.55,16.88-67.55,16.88Z"/>
  <path d="M203.28,80.77s-.05.14-.17.4c-.12.27-.29.66-.57,1.15-.54.98-1.41,2.39-2.73,4.04-1.31,1.66-3.07,3.55-5.3,5.5-2.22,1.96-4.92,3.96-8.06,5.85-3.12,1.89-6.69,3.65-10.58,5.2-3.89,1.55-8.12,2.85-12.54,3.89-4.43,1.04-9.06,1.82-13.79,2.34-4.73.48-9.54.72-14.33.75h-.96s-.87-.02-.87-.02l-1.75-.03c-.59-.01-1.17-.02-1.75-.04-.61-.03-1.21-.06-1.82-.09-1.21-.07-2.44-.11-3.62-.22-1.2-.11-2.38-.21-3.56-.32-4.72-.5-9.36-1.25-13.79-2.28-4.43-1.02-8.66-2.33-12.56-3.88-3.9-1.54-7.47-3.3-10.6-5.2-.79-.48-1.53-.97-2.27-1.44-.73-.49-1.43-.97-2.1-1.46-.66-.51-1.31-1-1.93-1.49-.61-.51-1.21-.98-1.75-1.48-2.21-1.97-3.96-3.88-5.26-5.55-1.3-1.66-2.16-3.08-2.68-4.08-.27-.49-.44-.89-.55-1.15-.12-.27-.17-.41-.17-.41,0,0,.1.12.29.33.2.21.5.51.88.89.39.38.9.83,1.49,1.34.61.51,1.3,1.08,2.11,1.68,1.62,1.19,3.64,2.54,6.07,3.87,2.41,1.34,5.22,2.67,8.37,3.88,3.15,1.22,6.63,2.33,10.37,3.28,3.73.96,7.73,1.75,11.9,2.36,4.18.62,8.53,1.05,12.97,1.35,1.11.06,2.22.12,3.35.19.56.04,1.11.04,1.66.06.55.02,1.11.04,1.67.06.56.02,1.12.04,1.67.06l1.75.02c1.14.01,2.28.02,3.42.03,4.55-.02,9.08-.15,13.53-.43,4.44-.32,8.78-.76,12.96-1.39,4.17-.62,8.17-1.41,11.91-2.38,3.74-.96,7.22-2.08,10.38-3.29,3.15-1.22,5.97-2.55,8.39-3.88,2.43-1.32,4.47-2.65,6.1-3.84.81-.6,1.52-1.16,2.13-1.66.6-.51,1.11-.96,1.51-1.33.4-.37.7-.68.89-.88.2-.2.29-.32.29-.32Z"/>
  <path class="st11" d="M133.92,92.47c-34.9,0-58.12-7.2-67.44-12.23-.04.02-.06.03-.06.03,0,0,3.15,3.86,10.64,8.3.19.11.38.21.57.32,2.41,1.34,5.22,2.67,8.38,3.88,3.15,1.22,6.63,2.33,10.36,3.28,3.74.96,7.73,1.75,11.91,2.36,4.17.62,8.53,1.05,12.96,1.35,1.11.06,2.23.12,3.35.19.56.04,1.11.04,1.67.06.55.02,1.11.04,1.67.06.55.02,1.11.04,1.67.06l1.74.02c1.14.01,2.29.02,3.43.03,4.54-.02,9.08-.15,13.52-.43,4.44-.32,8.79-.76,12.96-1.39,4.17-.62,8.17-1.41,11.92-2.38,3.74-.96,7.22-2.08,10.37-3.29,1.65-.64,3.21-1.31,4.67-1.99,7.57-3.88,11.96-7.73,13.87-9.63-10.3,5.02-34.19,11.42-68.16,11.42Z"/>
  <path d="M146,240.41c-1.44-.34-2.6.63-3.09,1.87-.09.07-.16.17-.18.29-.08.34-.14.66-.25.98-.19.36-.51.75-.69,1.13-.31.28-.64.66-.87.93-1.6,1.09-3.4,1.5-5.33,1.57-1.2.04-2.4-.04-3.57-.31-.93-.22-1.6-.71-2.42-1.11-.23-.27-.51-.53-.79-.75-.16-.34-.39-.66-.59-.99-.15-.47-.31-.91-.4-1.41-.02-.11-.06-.2-.12-.27-.38-1.18-1.14-1.94-2.59-2.11-1.63-.19-2.88,1.08-2.94,2.62-.01.04-.02.1-.01.15.69,9.33,12.1,11.61,19.36,8.66,3.36-1.36,6.04-4.02,6.77-7.64.35-1.76-.49-3.22-2.28-3.63Z"/>
  <g>
    <path class="st5" d="M168.48,34.82c8.85,5.89,13.92,13.81,11.33,17.69-2.59,3.88-11.85,2.26-20.69-3.63-8.84-5.89-13.91-13.81-11.33-17.7,2.59-3.88,11.85-2.26,20.69,3.63Z"/>
    <path class="st5" d="M188.85,57.19c.37,1.85-.83,3.65-2.67,4.02-1.85.37-3.65-.83-4.02-2.68-.38-1.85.83-3.65,2.68-4.02,1.85-.37,3.65.83,4.01,2.68Z"/>
  </g>
</svg>