<?xml version="1.0" encoding="UTF-8"?>
<svg id="Layer_1" xmlns="http://www.w3.org/2000/svg" version="1.1" viewBox="0 0 300.88 339.35">
  <!-- Generator: Adobe Illustrator 29.6.1, SVG Export Plug-In . SVG Version: 2.1.1 Build 9)  -->
  <defs>
    <style>
      .st0 {
        fill: #5e2d15;
      }

      .st1 {
        fill: #030202;
      }

      .st2 {
        fill: #ffd7c3;
      }

      .st3 {
        fill: #ea2127;
      }

      .st4 {
        fill: #000002;
      }

      .st5 {
        fill: #414042;
      }

      .st6 {
        fill: #ffad8d;
      }

      .st7 {
        fill: #231f20;
      }

      .st8, .st9 {
        fill: #ffa6ad;
      }

      .st10, .st11 {
        fill: #ed1c24;
      }

      .st10, .st9, .st12, .st13 {
        fill-rule: evenodd;
      }

      .st14 {
        fill: #471d04;
      }

      .st15, .st12 {
        fill: #ec2227;
      }

      .st16 {
        fill: #f38b9e;
      }

      .st17, .st13 {
        fill: #be1e2d;
      }

      .st18 {
        fill: #fff;
      }

      .st19 {
        fill: #fff5ab;
      }

      .st20 {
        fill: #fde5d2;
      }

      .st21 {
        fill: #141112;
      }

      .st22 {
        fill: #ffa90a;
      }

      .st23 {
        fill: #fde500;
      }

      .st24 {
        fill: #351200;
      }
    </style>
  </defs>
  <g>
    <g>
      <path class="st20" d="M101.89,314.33s-.39.15-1.3.96c-.92.81-1.76,2.37-2.46,2.95-.69.57-1.41.48-1.41.48,0,0,.03.54.23.94.2.4.67.65.67.65,0,0,1.3-.67,1.69-1.59.39-.92.95-2.17,1.55-2.92.6-.75,1.31-1.07,1.31-1.07l-.27-.4Z"/>
      <path d="M99.85,310.86c-1.06.45-2.06,1.44-2.79,2.32-.37.44-.71.91-1.06,1.37-.08.1-.79,1.05-.18.26-.15.19-.77.66-.07.2.96-.65,1.62-.26.96-.31-2.07-.16-4.18,1.96-4.02,4.04.15,2.07.94,3.79,2.7,4.96,1.56,1.02,3.39.73,4.85-.27,1.37-.95,2.25-2.05,2.93-3.56.28-.62.6-1.22.98-1.78-.53.79.73-.37-.28.32.1-.07.21-.13.33-.18,1.9-.91,2.57-3.79,1.44-5.51-.09-.13-.18-.27-.27-.4-1.21-1.83-3.54-2.6-5.51-1.44-1.82,1.06-2.65,3.67-1.44,5.51.09.14.18.27.27.41.48-1.84.96-3.68,1.44-5.51-1.62.77-2.8,2.36-3.61,3.9-.16.31-.3.63-.45.94-.13.3-.77,1.23-.1.46-.62.7.68-.43,0,.02-.13.09-.27.17-.41.25h4.07c.54.31,1.07,1.45,1.1,1.89-1.34,1.34-2.68,2.68-4.03,4.02,2.45.2,4.29-1.51,5.63-3.31.21-.28.41-.55.62-.83-.51.69.35-.35.47-.47.95-.91-.49.31.18-.15.09-.06.2-.13.31-.18,2.02-.86,2.45-3.79,1.45-5.51-1.21-2.07-3.49-2.31-5.51-1.44Z"/>
    </g>
    <path class="st11" d="M101.89,314.33s-.39.15-1.3.96c-.92.81-1.76,2.37-2.46,2.95-.69.57-1.41.48-1.41.48,0,0,.03.54.23.94.2.4.67.65.67.65,0,0,1.3-.67,1.69-1.59.39-.92.95-2.17,1.55-2.92.6-.75,1.31-1.07,1.31-1.07l-.27-.4Z"/>
    <path class="st8" d="M98.12,318.25c.7-.58,1.54-2.14,2.46-2.95.91-.81,1.3-.96,1.3-.96l.27.4s-.03.02-.08.05l-.12-.18s-.39.15-1.3.96c-.91.81-1.76,2.38-2.46,2.95-.7.58-1.41.47-1.41.47,0,0,.01.22.07.49-.13-.36-.14-.75-.14-.75,0,0,.72.09,1.41-.48Z"/>
    <path class="st17" d="M97.45,320.11s1.3-.67,1.69-1.59c.4-.92.95-2.18,1.55-2.92.6-.75,1.3-1.07,1.3-1.07l-.13-.2h.01s.27.4.27.4c0,0-.71.32-1.31,1.07-.6.75-1.16,2-1.55,2.92-.39.92-1.69,1.59-1.69,1.59,0,0-.42-.22-.63-.57.21.23.47.37.47.37Z"/>
  </g>
  <g>
    <g>
      <path class="st2" d="M118.73,271.49s-24.79,29.45-14.03,35.8c10.76,6.35,25.81-21.17,25.81-21.17l-11.78-14.63Z"/>
      <path d="M116.69,269.46c-2.97,3.53-5.73,7.28-8.31,11.1-4.05,5.97-8.21,12.67-9.17,19.95-.39,2.93.34,6.21,2.63,8.23,2.77,2.45,6.67,2.93,10.09,1.69,3.63-1.3,6.68-3.89,9.33-6.63,2.72-2.82,5.12-5.99,7.34-9.22,1.56-2.26,3.05-4.6,4.38-7.01.68-1.24.39-2.44-.45-3.49-3.93-4.88-7.86-9.76-11.78-14.63-.98-1.22-3.05-1.02-4.07,0-1.19,1.2-.98,2.85,0,4.08,3.93,4.87,7.86,9.74,11.78,14.62-.16-1.16-.31-2.32-.45-3.48-.76,1.37-1.57,2.7-2.41,4.02-.86,1.36-1.76,2.7-2.69,4.03-.51.71-1.03,1.43-1.56,2.13-.14.19-.27.36-.41.54.43-.56-.05.05-.12.14-.33.43-.68.84-1.02,1.26-1.22,1.48-2.52,2.9-3.91,4.24-.65.61-1.31,1.2-2,1.75-.57.46.49-.36-.09.08-.17.13-.34.25-.51.38-.39.27-.79.53-1.2.78-.33.2-.68.39-1.03.57-.17.09-.34.17-.51.25-.6.28.62-.24,0,0-.34.13-.68.24-1.03.34-.27.07-1.59.28-.59.16-.33.04-.67.05-1.01.04-.16,0-.33-.01-.5-.03.89.08.31.04.1,0-.33-.06-.66-.16-.97-.28-.6-.21.62.28.05.01-.21-.1-.4-.21-.6-.34-.13-.07-.25-.15-.36-.24.72.52.31.24.15.09-.2-.18-.39-.38-.56-.59.64.78.07.04-.06-.2-.07-.12-.12-.24-.18-.36.4.89.13.28.06.05-.09-.27-.14-.54-.19-.81-.1-.55.08.76.03.19-.02-.15-.02-.3-.03-.45-.01-.3,0-.62,0-.92.01-.27.17-1.55.03-.54.22-1.54.69-3.03,1.22-4.48.14-.38.29-.76.45-1.14-.31.74.21-.47.3-.67.39-.86.81-1.71,1.24-2.55,1.71-3.3,3.72-6.46,5.82-9.53.94-1.36,1.91-2.71,2.9-4.04.4-.55.82-1.1,1.24-1.64.1-.13.2-.25.29-.38.35-.46-.43.55-.08.1.2-.25.39-.51.59-.76.62-.79,1.24-1.57,1.88-2.33,1.01-1.21,1.18-2.9,0-4.08-1.03-1.03-3.05-1.2-4.07,0Z"/>
    </g>
    <path class="st7" d="M106.08,295.38l8.92,5.77,6.29-22.15-2.86-3.59s-4.73,5.88-6.32,8.35c-1.58,2.48-6.04,11.62-6.04,11.62Z"/>
    <path class="st5" d="M108.46,294.35s4.56-8.84,6.14-11.33c.99-1.56,3.26-4.49,4.78-6.43l-.94-1.18s-4.73,5.88-6.32,8.35c-1.58,2.48-6.04,11.62-6.04,11.62l8.71,5.64-6.33-6.67Z"/>
    <polygon class="st4" points="115.59 307.26 100.87 297.67 103.5 293.72 118.26 303.25 115.59 307.26"/>
  </g>
  <g>
    <g>
      <path class="st20" d="M120.2,317.59c-.35.7-1.42.87-2.38.38l-31.89-16.25c-.96-.48-1.44-1.45-1.08-2.15l1.53-3.01c.36-.7,1.42-.87,2.38-.38l31.89,16.25c.96.48,1.44,1.44,1.09,2.15l-1.54,3Z"/>
      <path d="M114.74,314.39c1.55-2.29,3.99-3.06,6.27-1.89-.04-.02-.08-.05-.13-.06-.22-.12-.43-.22-.65-.33-.85-.43-1.7-.87-2.55-1.3-2.85-1.46-5.7-2.91-8.56-4.36-5.95-3.04-11.9-6.07-17.84-9.1-.63-.32-1.26-.64-1.9-.96-.08-.04-.16-.09-.24-.13,1.34.69,1.79,2.52,1.93,3.82.15,1.43-1.19,3.56-.68,2.54.2-.38.4-.76.59-1.14.29-.57.58-1.14.87-1.7-1.25,2.45-4.18,2.96-6.27,1.89.05.03.11.05.16.07.59.3,1.17.6,1.76.9,5.89,3,11.78,6,17.67,9,3.38,1.73,6.77,3.45,10.16,5.17.69.36,1.38.7,2.08,1.06.31.15.4.27-.66-.57-1.73-1.37-1.25-4.35-.5-5.84-.08.15-.16.32-.24.48-.42.81-.84,1.63-1.26,2.45-1.56,3.08-.83,6.85,2.28,8.67,2.85,1.66,7.09.8,8.66-2.28.29-.56.58-1.14.87-1.71.17-.35.35-.69.53-1.04.66-1.29.92-2.26,1.08-3.69.35-3.1-1.96-6.17-4.59-7.52-1.8-.92-3.6-1.84-5.4-2.76-6.4-3.26-12.78-6.51-19.18-9.77-2.1-1.07-4.2-2.14-6.3-3.2-1.02-.53-2.07-1.12-3.2-1.29-2.01-.28-3.91-.27-5.73.78-1.11.63-2.25,1.64-2.85,2.8-.35.69-.7,1.39-1.06,2.08-.14.28-.28.55-.42.83-.72,1.41-.84,2.19-1.02,3.76-.31,2.76,1.99,5.92,4.35,7.12.39.2.79.4,1.17.6,2.3,1.18,4.61,2.35,6.91,3.53,5.59,2.85,11.18,5.7,16.77,8.54,1.92.98,3.84,1.96,5.77,2.94.39.2.78.4,1.18.6,4.06,2.07,8.52,1.25,11.12-2.61,1.93-2.86.56-7-2.27-8.66-3.12-1.83-6.74-.59-8.67,2.27Z"/>
    </g>
    <path class="st18" d="M120.2,317.59c-.35.7-1.42.87-2.38.38l-31.89-16.25c-.96-.48-1.44-1.45-1.08-2.15l1.53-3.01c.36-.7,1.42-.87,2.38-.38l31.89,16.25c.96.48,1.44,1.44,1.09,2.15l-1.54,3Z"/>
  </g>
  <g>
    <g>
      <path class="st2" d="M182.75,271.18s24.79,29.44,14.03,35.79c-10.76,6.35-25.82-21.17-25.82-21.17l11.78-14.62Z"/>
      <path d="M180.71,273.21c.85,1.01,1.67,2.05,2.48,3.09.35.45-.44-.56-.09-.1.1.12.19.25.29.38.2.26.4.53.61.79.47.63.94,1.27,1.41,1.91,1.02,1.4,2.01,2.81,2.97,4.24,2.08,3.1,4.03,6.3,5.67,9.65.2.39.38.79.55,1.17.09.2.61,1.41.3.67.33.8.63,1.62.9,2.45.23.71.43,1.43.59,2.15.07.34.13.69.18,1.03-.16-1,.01.28.03.54.02.3.01.62,0,.93,0,.14-.02.29-.03.44-.06.57.11-.75.02-.19-.05.27-.12.54-.19.81-.05.13-.09.26-.13.39.33-.91.13-.29.01-.07-.12.22-.69,1.01-.06.2-.17.21-.36.41-.56.6-.15.14-.58.45.14-.1-.12.09-.23.17-.36.24-.14.1-.29.17-.44.25-.72.39.34-.11-.12.07-.32.12-.65.21-.97.28-.2.04-.8.1.1,0-.17.02-.34.03-.5.04-.33.01-.68-.01-1-.04.98.09-.32-.09-.59-.16-.35-.09-.69-.21-1.03-.33-.61-.24.61.27,0,0-.17-.09-.34-.17-.51-.25-.77-.39-1.51-.85-2.22-1.35-.17-.13-.34-.25-.51-.38-.58-.43.48.38-.1-.07-.34-.27-.67-.55-1-.84-.74-.65-1.45-1.33-2.13-2.03-1.35-1.39-2.6-2.86-3.8-4.38-.06-.08-.54-.69-.1-.14-.14-.18-.28-.36-.42-.54-.27-.35-.54-.71-.8-1.07-.54-.74-1.07-1.5-1.59-2.26-.84-1.24-1.66-2.5-2.45-3.78-.62-1.01-1.24-2.03-1.81-3.06-.15,1.16-.3,2.32-.45,3.49,3.93-4.88,7.85-9.76,11.78-14.63.98-1.22,1.2-2.87,0-4.07-1.02-1.02-3.08-1.22-4.07,0-3.93,4.87-7.85,9.75-11.78,14.63-.84,1.05-1.13,2.25-.45,3.49,2.5,4.56,5.52,8.89,8.8,12.92,4.28,5.25,11.12,12.32,18.66,10.27,3.16-.86,5.69-3.44,6.22-6.71.54-3.31-.28-6.62-1.49-9.69-2.67-6.82-6.83-13.02-11.18-18.88-1.52-2.04-3.07-4.07-4.71-6.02-1.02-1.2-3.03-1.03-4.07,0-1.18,1.18-1.01,2.87,0,4.07Z"/>
    </g>
    <path class="st7" d="M195.1,295.38l-8.71,5.64-6.51-22.02,2.86-3.59s4.73,5.88,6.32,8.35c1.58,2.48,6.04,11.62,6.04,11.62Z"/>
    <path class="st5" d="M192.72,294.35s-4.55-8.84-6.14-11.33c-1-1.56-3.25-4.49-4.78-6.43l.94-1.18s4.73,5.88,6.32,8.35c1.58,2.48,6.04,11.62,6.04,11.62l-8.71,5.64,6.33-6.67Z"/>
    <polygon class="st4" points="185.6 307.26 200.31 297.67 197.68 293.72 182.92 303.25 185.6 307.26"/>
  </g>
  <g>
    <g>
      <path class="st4" d="M197.92,336.48c0,1.4-21.13,2.52-47.21,2.52s-47.2-1.12-47.2-2.52,21.13-2.52,47.2-2.52,47.21,1.13,47.21,2.52Z"/>
      <path d="M150.72,339.35c-12.62,0-24.48-.26-33.4-.74-14.16-.76-14.16-1.65-14.16-2.13s0-1.38,14.16-2.13c8.91-.48,20.77-.74,33.4-.74s24.48.26,33.4.74c14.16.76,14.16,1.65,14.16,2.13s0,1.37-14.16,2.13c-8.91.48-20.77.74-33.4.74ZM103.98,336.48c2.11,1.07,20.82,2.18,46.74,2.18s44.63-1.11,46.74-2.18c-2.11-1.07-20.82-2.18-46.74-2.18s-44.63,1.11-46.74,2.18Z"/>
    </g>
    <g>
      <path class="st2" d="M127.07,282.33s-11.22,48.65-2.86,51.58c6.07,2.14,11.71-7.56,11.71-7.56,0,0,4.84,1.48,13.2,1.63,8.35.15,15.07-1.73,15.07-1.73,0,0,6.22,10.78,12.94,8.56,6.72-2.23-3.95-52.6-3.95-52.6l-46.11.12Z"/>
      <path d="M124.01,281.49c-2.56,11.09-4.6,22.42-5.65,33.77-.31,3.37-.51,6.78-.38,10.17.12,2.83.45,5.71,1.7,8.28,1.65,3.4,5.73,4.32,9.14,3.21,4.06-1.31,7.14-4.86,9.42-8.32.14-.21.28-.43.41-.65-1.19.48-2.38.96-3.57,1.46,4.47,1.35,9.41,1.64,14.04,1.74,5.26.1,10.81-.43,15.91-1.84-1.19-.48-2.38-.97-3.58-1.46,1.52,2.59,3.53,5.07,5.83,7.01,3.34,2.81,8.81,5.09,12.65,1.85,1.84-1.56,2.19-4.5,2.42-6.72.31-2.91.17-5.88-.02-8.78-.85-13-3.26-25.97-5.87-38.72-.08-.38-.16-.76-.24-1.13-.29-1.36-1.71-2.33-3.05-2.33-11.34.03-22.68.06-34.02.09-4.03.01-8.06.02-12.09.03-4.08.01-4.09,6.34,0,6.33,11.34-.03,22.68-.06,34.01-.09,4.04-.01,8.06-.02,12.09-.03-1.02-.78-2.04-1.55-3.05-2.33.76,3.58,1.44,7.19,2.09,10.79.64,3.51,1.24,7.04,1.79,10.56.29,1.9.58,3.81.84,5.72.11.8-.09-.72,0,.07.04.23.06.46.09.69.06.46.12.91.18,1.37.12.98.23,1.96.34,2.94.38,3.41.66,6.84.72,10.27.02,1.37,0,2.74-.12,4.1-.02.28-.06.56-.09.84-.07.57.12-.87.04-.31-.02.13-.04.25-.06.38-.08.48-.2.97-.34,1.44-.09.29-.43,1.06.09-.12-.08.16-.15.3-.24.46-.36.63.28-.32.18-.2-.44.52.13-.07.24-.14-.57.38,1.09-.36.17-.08-.15.05-.97.19-.13.08-.24.03-.47.04-.71.04-.18,0-.96-.09-.1.04-.23-.04-.46-.1-.69-.15-.24-.06-.46-.14-.68-.22-.33-.12-.31-.11.08.05-.14-.07-.29-.14-.43-.22-.44-.23-.86-.5-1.27-.78-.1-.07-.76-.58-.16-.1-.2-.16-.39-.32-.58-.49-.8-.69-1.52-1.46-2.2-2.26-.16-.18-1.05-1.29-.47-.54-.23-.3-.46-.61-.67-.92-.33-.46-.64-.93-.93-1.41-.06-.09-.12-.18-.17-.28-.72-1.22-2.21-1.83-3.57-1.45-1.35.38-2.74.63-4.12.87-3.01.52-6.6.79-10.11.74-1.75-.02-3.49-.13-5.24-.28-.77-.07-1.54-.16-2.31-.26.69.09-.24-.03-.32-.05-.35-.05-.69-.11-1.03-.17-1.16-.2-2.33-.42-3.46-.76-1.35-.41-2.88.25-3.57,1.45-.13.22-.27.44-.42.66-.16.24-.32.48-.49.72-.1.14-.2.29-.31.43-.51.7.26-.31-.11.15-.57.73-1.19,1.41-1.85,2.07-.36.35-.73.68-1.11,1-.64.54.53-.38-.15.11-.27.2-.55.37-.83.54-.21.13-.43.24-.65.35-.73.37.62-.23-.14.05-.22.08-.45.14-.69.19-.77.2.71-.04-.09.03-.23.02-.47,0-.71,0-.81-.03.68.14-.12-.04-.19-.04-.38-.11-.56-.17,1.08.4.65.29.39.14-.63-.37.62.55.17.14-.22-.2-.67-.82.08.17-.25-.33-.86-1.7-.36-.51-.43-1.02-.63-2.13-.79-3.22.17,1.2.01.02-.01-.26-.04-.33-.06-.66-.09-.99-.05-.77-.07-1.55-.08-2.33-.05-3.51.23-7.03.59-10.51.09-.84.18-1.67.28-2.51.06-.46.12-.92.17-1.38.03-.23.06-.47.09-.69.1-.8-.1.71.01-.08.25-1.84.52-3.67.81-5.5.53-3.36,1.14-6.71,1.78-10.05.65-3.37,1.33-6.72,2.1-10.06.39-1.68-.5-3.42-2.21-3.9-1.6-.44-3.5.53-3.89,2.21Z"/>
    </g>
    <g>
      <g>
        <path class="st20" d="M184.59,319.61l-12.6-49.7h-42.56l-12.59,49.7s7.75,3.74,33.87,3.74,33.88-3.74,33.88-3.74Z"/>
        <path d="M190.7,317.92c-2.7-10.66-5.4-21.33-8.1-31.99-1.5-5.9-3-11.81-4.49-17.71-.69-2.72-3.32-4.65-6.1-4.65h-42.56c-2.77,0-5.42,1.93-6.1,4.65-2.7,10.67-5.4,21.33-8.1,32-1.5,5.9-3,11.8-4.49,17.71-.65,2.59.34,5.92,2.91,7.15,3.5,1.67,7.43,2.36,11.24,2.93,12.03,1.78,24.31,1.99,36.45,1.44,6.66-.3,13.4-.89,19.93-2.29,2.23-.48,4.45-1.1,6.51-2.08,3.11-1.49,3.9-5.87,2.27-8.66-1.85-3.15-5.55-3.76-8.66-2.27-.68.32,2.22-.88.95-.41-.58.22-1.17.4-1.75.56-2.56.73-5.21,1.19-7.85,1.56-.51.07-1.55.21.77-.1-.24.03-.48.06-.72.09-.5.06-1.01.12-1.51.18-1.21.13-2.42.25-3.65.35-2.83.24-5.69.39-8.54.5-6.8.24-13.63.2-20.42-.16-3.43-.18-6.86-.46-10.27-.89-1.46-.18,1.52.21.52.06-.29-.04-.59-.08-.88-.12-.61-.09-1.21-.19-1.82-.29-1-.17-2-.37-2.98-.59-1.21-.26-2.42-.57-3.6-.96-.28-.09-.55-.19-.81-.3-.76-.3,1.97.88,1.21.51.97,2.38,1.94,4.77,2.91,7.15,2.7-10.66,5.4-21.33,8.11-31.99,1.5-5.91,3-11.81,4.49-17.71-2.04,1.55-4.07,3.1-6.11,4.65h42.56c-2.03-1.55-4.07-3.09-6.1-4.65,2.7,10.67,5.4,21.33,8.1,32,1.5,5.9,2.99,11.81,4.49,17.71.85,3.34,4.51,5.32,7.79,4.42,3.38-.93,5.27-4.44,4.42-7.79Z"/>
      </g>
      <path class="st7" d="M150.72,323.46c27.27,0,33.87-3.86,33.87-3.86l-12.6-49.7h-42.56l-12.59,49.7s6.6,3.86,33.88,3.86Z"/>
    </g>
  </g>
  <g>
    <g>
      <polygon class="st20" points="185.52 273.32 150.59 291.25 115.67 273.32 111.84 278.09 150.59 298.3 189.35 278.09 185.52 273.32"/>
      <path d="M182.32,267.85c-10.22,5.25-20.43,10.49-30.64,15.73-1.43.74-2.85,1.46-4.28,2.2h6.38c-10.21-5.24-20.42-10.48-30.64-15.73-1.43-.74-2.85-1.47-4.28-2.21-2.34-1.2-5.84-1.27-7.67.99-1.28,1.59-2.56,3.17-3.83,4.77-1.1,1.36-1.86,2.65-1.86,4.47,0,2.15,1.19,4.45,3.13,5.47,10.16,5.29,20.31,10.59,30.47,15.89,2.23,1.16,4.45,2.32,6.68,3.48.49.25.98.51,1.47.77,2.25,1.17,4.45,1.15,6.69-.02,4.3-2.24,8.6-4.48,12.9-6.72,8.56-4.47,17.13-8.93,25.7-13.4,1.42-.74,2.49-2.27,2.91-3.79.65-2.36-.17-4.34-1.63-6.15-1.28-1.59-2.55-3.18-3.83-4.77-2.17-2.69-6.71-2.24-8.95,0-1.18,1.18-1.85,2.8-1.85,4.47,0,1.82.76,3.11,1.85,4.48,1.28,1.59,2.55,3.18,3.83,4.76.43-3.31.86-6.63,1.28-9.94-10.16,5.3-20.32,10.59-30.47,15.89-2.76,1.44-5.52,2.88-8.28,4.32h6.38c-10.16-5.3-20.32-10.59-30.47-15.89-2.76-1.44-5.52-2.88-8.28-4.32.43,3.31.85,6.63,1.28,9.94,1.28-1.58,2.56-3.17,3.83-4.76-2.56.33-5.12.66-7.67.99,10.21,5.25,20.42,10.49,30.64,15.73,1.41.73,2.82,1.45,4.23,2.17,2.32,1.2,4.55,1,6.79-.14.65-.33,1.3-.67,1.95-1,5.87-3.02,11.75-6.03,17.62-9.05,5-2.57,10.01-5.14,15.02-7.71,3.06-1.57,3.94-5.81,2.27-8.66-1.81-3.1-5.59-3.85-8.66-2.28Z"/>
    </g>
    <polygon class="st23" points="185.52 273.32 150.59 291.25 115.67 273.32 111.84 278.09 150.59 298.3 189.35 278.09 185.52 273.32"/>
    <polygon class="st19" points="115.67 274.86 150.59 292.78 185.52 274.86 188.48 278.54 189.35 278.09 185.52 273.32 150.59 291.25 115.67 273.32 111.84 278.09 112.71 278.54 115.67 274.86"/>
    <polygon class="st22" points="150.59 295.23 113.58 275.93 111.84 278.09 150.59 298.3 189.35 278.09 187.61 275.93 150.59 295.23"/>
  </g>
  <polygon class="st18" points="135.79 276.44 150.77 284.15 165.4 276.66 135.79 276.44"/>
  <g>
    <g>
      <g>
        <path class="st20" d="M94.17,221.87c0,7.91-6.41,14.32-14.32,14.32s-14.32-6.41-14.32-14.32,6.41-14.32,14.32-14.32,14.32,6.41,14.32,14.32Z"/>
        <path d="M86.12,221.87c0,.64-.05,1.28-.13,1.92.1-.71.2-1.43.29-2.14-.18,1.24-.5,2.43-.97,3.59.27-.64.54-1.29.81-1.93-.49,1.12-1.09,2.16-1.81,3.15.42-.54.84-1.09,1.26-1.63-.81,1.04-1.72,1.96-2.77,2.76.55-.42,1.09-.84,1.63-1.26-.99.73-2.03,1.33-3.15,1.81.65-.27,1.29-.54,1.93-.81-1.16.47-2.35.79-3.59.97.71-.1,1.43-.19,2.14-.29-1.29.16-2.56.16-3.83,0,.71.1,1.43.19,2.14.29-1.24-.18-2.43-.5-3.59-.97.64.27,1.29.54,1.93.81-1.13-.49-2.17-1.09-3.15-1.81.54.42,1.08.84,1.63,1.26-1.04-.8-1.96-1.72-2.77-2.76.42.54.84,1.09,1.26,1.63-.73-.98-1.33-2.02-1.81-3.15.27.64.54,1.29.81,1.93-.47-1.16-.79-2.35-.97-3.59.09.71.19,1.43.28,2.14-.16-1.28-.16-2.55,0-3.83-.09.71-.19,1.43-.28,2.14.18-1.24.5-2.42.97-3.58-.27.64-.55,1.28-.81,1.93.48-1.13,1.08-2.17,1.81-3.15-.42.54-.84,1.09-1.26,1.63.81-1.04,1.73-1.96,2.77-2.76-.54.42-1.09.84-1.63,1.26.98-.73,2.02-1.33,3.15-1.82-.64.27-1.29.55-1.93.81,1.16-.47,2.35-.79,3.59-.96-.72.09-1.43.19-2.14.28,1.28-.16,2.55-.16,3.83,0-.72-.09-1.43-.19-2.14-.28,1.24.17,2.42.5,3.59.96-.64-.27-1.28-.54-1.93-.81,1.12.48,2.16,1.09,3.15,1.82-.54-.42-1.08-.84-1.63-1.26,1.05.81,1.96,1.72,2.77,2.76-.43-.55-.84-1.09-1.26-1.63.73.98,1.33,2.03,1.81,3.15-.27-.65-.54-1.29-.81-1.93.47,1.16.79,2.34.97,3.58-.09-.71-.19-1.43-.29-2.14.08.64.12,1.28.13,1.92.05,4.39,3.63,8.06,8.06,8.06s8.11-3.67,8.06-8.06c-.09-7.79-4.02-14.56-10.4-18.89-3.18-2.17-6.93-3.05-10.69-3.42-3.9-.39-7.62.75-11.14,2.26-2.78,1.19-5.4,3.32-7.26,5.71-2.3,2.97-4.17,6.2-4.81,9.97-.64,3.83-.61,7.75.7,11.44,1.25,3.51,3.19,6.74,5.94,9.27,3.01,2.76,6.85,4.9,10.9,5.57,2.11.36,4.17.59,6.29.33,1.34-.17,2.67-.32,3.98-.66,1.36-.35,2.67-.98,3.95-1.53,3.76-1.62,6.78-4.76,9.04-8.08,2.34-3.45,3.43-7.86,3.49-11.98.05-4.39-3.71-8.05-8.06-8.05s-8.01,3.66-8.06,8.05Z"/>
      </g>
      <path class="st2" d="M94.17,221.87c0,7.91-6.41,14.32-14.32,14.32s-14.32-6.41-14.32-14.32,6.41-14.32,14.32-14.32,14.32,6.41,14.32,14.32Z"/>
      <path class="st6" d="M90.35,221.87c0,5.79-4.7,10.49-10.49,10.49s-10.49-4.7-10.49-10.49,4.7-10.49,10.49-10.49,10.49,4.69,10.49,10.49Z"/>
    </g>
    <g>
      <g>
        <path class="st20" d="M238.3,219.96c0,7.91-6.41,14.32-14.32,14.32s-14.32-6.41-14.32-14.32,6.41-14.32,14.32-14.32,14.32,6.41,14.32,14.32Z"/>
        <path d="M230.24,219.96c0,.65-.05,1.28-.13,1.92.1-.72.19-1.43.29-2.14-.18,1.24-.5,2.43-.97,3.59.27-.64.54-1.28.81-1.92-.48,1.12-1.08,2.16-1.81,3.14.42-.54.84-1.08,1.26-1.63-.81,1.04-1.73,1.96-2.77,2.76.54-.42,1.09-.84,1.63-1.26-.98.73-2.03,1.33-3.15,1.81.65-.27,1.29-.54,1.93-.81-1.16.47-2.35.79-3.58.97.71-.1,1.43-.19,2.14-.29-1.28.16-2.55.16-3.83,0,.71.1,1.43.19,2.14.29-1.24-.18-2.42-.5-3.58-.97.64.27,1.28.54,1.93.81-1.12-.48-2.17-1.08-3.15-1.81.55.42,1.09.84,1.63,1.26-1.04-.8-1.96-1.72-2.77-2.76.42.54.84,1.09,1.26,1.63-.73-.98-1.33-2.03-1.81-3.14.27.64.54,1.28.81,1.92-.47-1.16-.79-2.35-.96-3.59.09.72.19,1.43.29,2.14-.16-1.28-.16-2.55,0-3.83-.1.72-.2,1.43-.29,2.14.18-1.24.5-2.43.96-3.59-.27.64-.54,1.28-.81,1.92.48-1.12,1.08-2.17,1.81-3.14-.41.54-.84,1.08-1.26,1.63.81-1.04,1.73-1.96,2.77-2.76-.54.42-1.09.84-1.63,1.26.98-.73,2.03-1.33,3.15-1.81-.65.27-1.29.54-1.93.81,1.16-.47,2.35-.79,3.58-.97-.71.1-1.43.19-2.14.29,1.28-.16,2.55-.16,3.83,0-.71-.1-1.43-.19-2.14-.29,1.24.18,2.42.5,3.58.97-.64-.27-1.28-.54-1.93-.81,1.13.48,2.17,1.08,3.15,1.81-.54-.42-1.09-.84-1.63-1.26,1.04.8,1.96,1.72,2.77,2.76-.43-.54-.84-1.08-1.26-1.63.73.97,1.33,2.02,1.81,3.14-.27-.64-.54-1.28-.81-1.92.47,1.16.79,2.34.97,3.59-.1-.71-.19-1.43-.29-2.14.08.64.12,1.28.13,1.92.05,4.39,3.63,8.06,8.06,8.06s8.1-3.67,8.05-8.06c-.08-7.79-4.02-14.56-10.4-18.9-3.19-2.16-6.93-3.05-10.69-3.42-3.9-.39-7.61.75-11.14,2.26-2.78,1.2-5.4,3.33-7.26,5.72-2.3,2.97-4.17,6.2-4.81,9.97-.64,3.83-.61,7.74.7,11.45,1.25,3.5,3.19,6.73,5.94,9.27,3.01,2.76,6.85,4.89,10.91,5.57,2.11.35,4.17.6,6.29.34,1.34-.16,2.68-.32,3.98-.66,1.36-.36,2.67-.98,3.96-1.53,3.76-1.62,6.78-4.76,9.04-8.08,2.34-3.45,3.43-7.86,3.48-11.98.05-4.39-3.7-8.06-8.05-8.06s-8.01,3.67-8.06,8.06Z"/>
      </g>
      <path class="st2" d="M238.3,219.96c0,7.91-6.41,14.32-14.32,14.32s-14.32-6.41-14.32-14.32,6.41-14.32,14.32-14.32,14.32,6.41,14.32,14.32Z"/>
      <path class="st6" d="M234.47,219.96c0,5.8-4.7,10.49-10.5,10.49s-10.49-4.69-10.49-10.49,4.7-10.5,10.49-10.5,10.5,4.7,10.5,10.5Z"/>
    </g>
    <g>
      <g>
        <path class="st20" d="M77.28,140.04c-.27,10.5,0,72.55,0,72.55,0,28.2,15.8,54.33,74.68,54.09,58.27-.24,72.07-25.89,72.07-54.09v-72.55H77.28Z"/>
        <path d="M69.22,140.04c-.33,13.19-.13,26.41-.1,39.59.02,10.98.06,21.96.1,32.93.02,6.81.83,13.76,2.89,20.28,2.37,7.49,6.28,14.3,11.6,20.09,13.6,14.78,34.63,19.72,53.87,21.29,13.12,1.07,26.42.58,39.42-1.45,9.73-1.51,19.4-4.39,28-9.24,7.24-4.07,13.41-9.76,18.04-16.65,3.9-5.82,6.43-12.7,7.7-19.57,1.76-9.59,1.34-19.37,1.34-29.07v-58.2c0-4.39-3.67-8.06-8.06-8.06H77.28c-4.39,0-8.05,3.67-8.05,8.06s3.66,8.06,8.05,8.06h146.75c-2.68-2.69-5.37-5.38-8.05-8.06v67.9c0,4.86.01,9.7-.63,14.53.09-.71.19-1.43.28-2.14-.62,4.53-1.73,8.98-3.49,13.21.27-.64.54-1.28.81-1.92-1.41,3.34-3.22,6.49-5.42,9.36.42-.54.84-1.08,1.25-1.63-2.23,2.89-4.83,5.45-7.71,7.68.54-.42,1.09-.84,1.63-1.26-3.68,2.82-7.74,5.07-12,6.87.64-.27,1.28-.54,1.92-.81-7.19,3.01-14.84,4.75-22.55,5.8.72-.09,1.43-.2,2.14-.29-13.72,1.82-27.91,1.85-41.64.03.71.1,1.43.2,2.15.29-7.93-1.07-15.81-2.88-23.2-5.99.64.27,1.28.54,1.92.81-4.38-1.86-8.55-4.18-12.33-7.07.54.42,1.09.84,1.63,1.26-3.04-2.34-5.77-5.04-8.12-8.07.41.54.84,1.08,1.26,1.63-2.26-2.95-4.13-6.2-5.58-9.62.27.64.54,1.28.81,1.93-1.75-4.17-2.86-8.58-3.48-13.06.1.72.2,1.43.29,2.14-.54-4.01-.58-8.04-.59-12.07-.03-5.88-.05-11.75-.06-17.63-.04-15.23-.1-30.46,0-45.69.02-2.06.02-4.13.08-6.19.1-4.39-3.75-8.06-8.06-8.06s-7.95,3.67-8.05,8.06Z"/>
      </g>
      <path class="st2" d="M77.28,140.04c-.27,10.5,0,72.55,0,72.55,0,28.2,15.8,54.33,74.68,54.09,58.27-.24,72.07-25.89,72.07-54.09v-72.55H77.28Z"/>
      <path class="st6" d="M151.72,263c-53.39.22-71.53-21.15-74.56-46.14,1.59,26.5,18.65,50.05,74.55,49.82,54.85-.22,70.29-22.96,71.92-49.14-2.93,24.62-19.56,45.25-71.91,45.46Z"/>
    </g>
    <g>
      <g>
        <g>
          <g>
            <path class="st4" d="M118.21,206.79c0,6.5-5.26,11.77-11.76,11.77s-11.78-5.27-11.78-11.77,5.28-11.77,11.78-11.77,11.76,5.27,11.76,11.77Z"/>
            <path d="M117.06,206.79c-.07,5.31-4.02,9.9-9.34,10.55-5.33.65-10.26-2.89-11.6-8.03-1.35-5.17,1.69-10.63,6.61-12.49,5.06-1.9,10.67.46,13.17,5.13.79,1.48,1.13,3.16,1.16,4.83.02,1.48,2.32,1.48,2.3,0-.07-5.2-3.18-9.98-8.04-11.96-4.91-2-10.55-.74-14.24,3.03-3.72,3.82-4.47,9.57-2.37,14.36,2.1,4.79,7.23,7.68,12.36,7.46,6.85-.27,12.19-6.16,12.28-12.9.02-1.49-2.29-1.48-2.3,0Z"/>
          </g>
          <path class="st18" d="M114.91,203.7c0,1.59-1.29,2.89-2.89,2.89s-2.89-1.29-2.89-2.89,1.29-2.9,2.89-2.9,2.89,1.29,2.89,2.9Z"/>
        </g>
        <g>
          <g>
            <g>
              <path class="st4" d="M204.36,206.79c0,6.5-5.27,11.77-11.77,11.77s-11.78-5.27-11.78-11.77,5.28-11.77,11.78-11.77,11.77,5.27,11.77,11.77Z"/>
              <path d="M203.2,206.79c-.07,5.31-4.02,9.9-9.34,10.55-5.34.65-10.26-2.89-11.6-8.03-1.34-5.17,1.69-10.63,6.61-12.49,5.06-1.9,10.67.46,13.17,5.13.79,1.48,1.14,3.16,1.16,4.83.02,1.48,2.33,1.48,2.3,0-.07-5.2-3.18-9.98-8.04-11.96-4.91-2-10.55-.74-14.24,3.03-3.72,3.82-4.47,9.57-2.37,14.36,2.09,4.79,7.23,7.68,12.36,7.46,6.86-.27,12.19-6.16,12.28-12.9.02-1.49-2.28-1.48-2.3,0Z"/>
            </g>
            <path class="st18" d="M201.05,203.7c0,1.59-1.3,2.89-2.89,2.89s-2.89-1.29-2.89-2.89,1.29-2.9,2.89-2.9,2.89,1.29,2.89,2.9Z"/>
          </g>
          <path class="st16" d="M194.3,225.28c-.25,1.84,2.92,3.79,7.07,4.35,4.16.57,7.73-.47,7.98-2.31.25-1.84-2.91-3.78-7.07-4.35-4.16-.56-7.73.47-7.98,2.31Z"/>
          <path class="st16" d="M106.89,225.28c.25,1.84-2.91,3.79-7.07,4.35-4.16.57-7.73-.47-7.97-2.31-.26-1.84,2.91-3.78,7.07-4.35,4.16-.56,7.72.47,7.97,2.31Z"/>
        </g>
      </g>
      <g>
        <g>
          <g>
            <path d="M120.05,231.3c.29,12,13.85,21.65,30.55,21.65s30.26-9.66,30.54-21.65h-61.09Z"/>
            <path d="M115.45,231.3c.38,11.83,9.96,20.05,20.39,23.82,11.56,4.19,25.5,3.08,36.17-3.03,7.59-4.34,13.44-11.83,13.73-20.79.08-2.51-2.15-4.6-4.6-4.6h-61.09c-2.51,0-4.6,2.1-4.6,4.6s2.09,4.61,4.6,4.61h61.09c-1.54-1.54-3.07-3.07-4.6-4.61-.02.54-.06,1.07-.12,1.59.18-1.6-.08.21-.17.61-.12.51-.28,1.02-.44,1.52-.08.25-.18.49-.28.74.54-1.37.07-.18-.07.12-.47.98-1.04,1.91-1.67,2.8-.16.23-.78,1.01.05-.05-.17.22-.35.43-.54.65-.43.51-.89.99-1.36,1.45-.42.41-.85.8-1.29,1.17-.23.2-.46.38-.68.57,1-.81.18-.16-.02,0-1.08.8-2.23,1.49-3.4,2.13-.56.31-1.13.58-1.71.86-.29.14-.59.27-.89.4,1.15-.5.11-.05-.11.04-1.36.53-2.76.96-4.17,1.34-1.36.35-2.73.62-4.12.83-1.2.19,1.03-.12-.2.02-.36.04-.72.07-1.08.1-.85.08-1.71.12-2.56.15-1.48.04-2.96-.01-4.43-.12-.36-.03-.73-.06-1.09-.1-.21-.02-1.43-.18-.2,0-.82-.11-1.63-.26-2.44-.42-1.34-.27-2.68-.62-3.99-1.03-.64-.2-1.26-.42-1.89-.66-.31-.11-.61-.24-.92-.37,1.22.49-.16-.07-.39-.18-1.15-.53-2.26-1.14-3.33-1.79-.53-.32-1.03-.67-1.54-1.02-.24-.17-.48-.36-.73-.54,1.09.82,0-.03-.22-.21-1.03-.86-1.97-1.82-2.84-2.84-.19-.21-.8-1.01.03.06-.23-.29-.44-.6-.65-.9-.36-.52-.68-1.07-.99-1.62-.2-.36-1.02-2.27-.44-.83-.23-.58-.42-1.17-.59-1.76-.17-.6-.29-1.2-.39-1.81.24,1.44.07.49.04.17-.04-.35-.05-.71-.07-1.07-.07-2.51-2.03-4.6-4.6-4.6-2.44,0-4.68,2.1-4.6,4.6Z"/>
          </g>
          <path class="st3" d="M150.45,250.77c8.28,0,15.72-2.34,20.58-6.64-4.85-4.14-12.16-7.17-20.27-7.17s-15.89,3-20.74,7.3c4.85,4.14,12.33,6.51,20.44,6.51Z"/>
        </g>
        <path class="st18" d="M157.94,239.58c2.59.48,4.57,1.51,4.43,2.29-.15.79-2.37,1.02-4.96.54-2.6-.48-4.57-1.52-4.43-2.3.14-.78,2.37-1.02,4.96-.53Z"/>
        <path class="st18" d="M164.42,242.55c.01.43-.33.79-.76.8-.43.01-.79-.33-.8-.76,0-.43.33-.79.77-.8.43,0,.79.34.79.76Z"/>
      </g>
    </g>
    <path class="st6" d="M212.69,168.7c-10.8,12.16-62.01,13.66-62.01,13.66h-.17s-51.2-1.5-62-13.66c-1.77,10.37-6.73,15.96-11.17,18.94v8.71s7.13-3.3,12.89-8.6c2.09-1.92,3.65-3.84,4.79-5.51,22.1,6.42,55.46,7.4,55.46,7.4,0,0,.04,0,.1,0,.06,0,.1,0,.1,0,0,0,33.39-.98,55.49-7.41,1.14,1.67,2.7,3.6,4.79,5.52,5.76,5.29,12.89,8.6,12.89,8.6v-8.72c-4.43-2.98-9.39-8.56-11.15-18.93Z"/>
    <g>
      <g>
        <path class="st20" d="M150.6,82.73c-133.87,0-92,132.35-92,132.35l10.71,6.9v-37.12s15.74-1.93,19.2-22.27c10.8,12.16,62,13.67,62,13.67,0,0,.03,0,.09,0,.05,0,.08,0,.08,0,0,0,51.21-1.5,62.01-13.67,3.46,20.34,19.2,22.27,19.2,22.27v37.12l10.7-6.9s41.87-132.35-91.99-132.35Z"/>
        <path d="M150.6,74.68c-10.47,0-20.93.85-31.23,2.74-8.58,1.57-16.82,4.14-24.83,7.6-6.9,2.97-13.16,6.9-19.05,11.53-5.32,4.2-9.81,9.17-13.87,14.58-7.14,9.57-11.81,21.05-14.38,32.65-2.43,10.96-3.23,22.29-2.78,33.49.36,9.17,1.54,18.35,3.31,27.35.81,4.13,1.75,8.27,2.97,12.31.03.1.06.2.09.29.7,2.23,2.05,3.76,3.98,4.99.57.36,1.13.73,1.7,1.09,2.91,1.88,5.82,3.76,8.73,5.63,5.21,3.35,12.12-1.05,12.12-6.96v-37.12c-2.68,2.68-5.37,5.37-8.05,8.06,4.44-.56,8.65-2.05,12.37-4.61,8-5.48,12.95-14.09,14.6-23.58-4.49,1.18-8.98,2.37-13.46,3.56,2.28,2.53,5.39,4.43,8.47,5.84,3.91,1.79,7.95,3.18,12.11,4.25,8.62,2.23,17.52,3.44,26.36,4.4,7.97.87,16.12,1.78,24.15,1.38,6.33-.31,12.67-.83,18.97-1.55,8.84-1.01,17.72-2.26,26.31-4.6,3.87-1.06,7.64-2.43,11.27-4.13,2.89-1.36,5.79-3.22,7.93-5.6-4.48-1.18-8.97-2.37-13.46-3.56.85,4.89,2.59,9.79,5.28,13.98,2.44,3.83,5.48,6.86,9.17,9.48,3.72,2.64,8.04,4.15,12.53,4.72-2.69-2.69-5.38-5.38-8.06-8.06v37.12c0,5.91,6.92,10.31,12.12,6.96,2.29-1.48,4.58-2.95,6.86-4.43,1.17-.75,2.33-1.5,3.5-2.25,1.95-1.26,3.35-2.81,4.06-5.08.32-1.03.61-2.07.88-3.12,1.59-6.01,2.78-12.13,3.67-18.28,1.46-10.14,2.25-20.35,1.78-30.6-.52-11.55-2.4-23.22-6.51-34.05-4.62-12.17-11.67-23.35-21.45-32.03-11.76-10.44-26.34-17.06-41.58-20.59-11.96-2.76-24.33-3.83-36.58-3.84-4.4,0-8.06,3.67-8.06,8.06s3.66,8.05,8.06,8.06c7.56,0,15.12.42,22.62,1.42-.72-.09-1.43-.19-2.14-.29,9.77,1.32,19.44,3.63,28.55,7.46-.63-.27-1.28-.54-1.92-.81,6.27,2.65,12.23,6,17.62,10.16-.54-.42-1.09-.84-1.63-1.27,4.67,3.61,8.86,7.78,12.46,12.44-.42-.54-.84-1.08-1.26-1.62,3.87,5.02,7.03,10.55,9.5,16.39-.27-.64-.54-1.28-.81-1.92,3.23,7.67,5.25,15.8,6.36,24.04-.1-.71-.2-1.43-.29-2.14,1.35,10.1,1.35,20.36.43,30.5-.21,2.34-.48,4.68-.79,7,.09-.71.19-1.43.29-2.14-.87,6.43-2.07,12.81-3.7,19.09-.33,1.29-.67,2.58-1.07,3.84,1.23-1.61,2.46-3.21,3.7-4.82-3.57,2.3-7.14,4.6-10.71,6.9,4.04,2.32,8.08,4.64,12.12,6.96v-37.12c0-2.12-.85-4.19-2.36-5.7-1.66-1.66-3.46-2.08-5.69-2.36-.01,0-.02,0-.02,0,.71.1,1.43.19,2.14.29-1.44-.2-2.86-.69-4.2-1.25.65.27,1.28.54,1.92.81-1.8-.77-3.48-1.76-5.03-2.94.54.42,1.08.84,1.63,1.26-1.56-1.22-2.96-2.62-4.19-4.18.42.54.84,1.08,1.26,1.63-1.42-1.84-2.58-3.85-3.49-5.98.27.64.54,1.28.81,1.92-1.07-2.54-1.79-5.19-2.27-7.91-.47-2.69-3.12-4.94-5.62-5.63-2.66-.73-5.95-.03-7.84,2.07-.54.6-1.13,1.14-1.77,1.63.54-.42,1.09-.84,1.63-1.26-1.88,1.44-4,2.51-6.18,3.44.65-.27,1.29-.54,1.93-.81-8.52,3.55-17.9,5.08-26.99,6.3.71-.09,1.43-.19,2.14-.29-7.02.94-14.08,1.59-21.15,2.01-2.3.13-4.63.34-6.94.25-8.76-.34-17.54-1.1-26.23-2.26.71.1,1.43.2,2.14.29-9.1-1.22-18.48-2.75-27-6.3.65.27,1.28.54,1.92.81-2.17-.92-4.3-1.99-6.17-3.44.54.42,1.08.84,1.63,1.26-.63-.5-1.23-1.03-1.77-1.63-1.89-2.1-5.18-2.8-7.83-2.07-2.51.69-5.16,2.94-5.63,5.63-.47,2.72-1.2,5.37-2.27,7.91.27-.64.54-1.28.81-1.92-.92,2.13-2.08,4.14-3.5,5.98.42-.54.84-1.09,1.26-1.63-1.23,1.56-2.63,2.96-4.2,4.18.54-.42,1.09-.84,1.63-1.26-1.55,1.18-3.24,2.17-5.03,2.94.64-.27,1.28-.54,1.92-.81-1.33.56-2.75,1.06-4.19,1.25.71-.1,1.43-.19,2.14-.29,0,0-.01,0-.02,0-2.23.28-4.04.7-5.7,2.36-1.51,1.51-2.36,3.57-2.36,5.7v37.12c4.04-2.32,8.08-4.63,12.12-6.96-3.57-2.3-7.14-4.6-10.7-6.9,1.24,1.61,2.47,3.21,3.7,4.82-.97-3.08-1.71-6.25-2.4-9.4-.98-4.47-1.76-8.99-2.37-13.53.09.71.19,1.43.29,2.14-1.29-9.61-1.78-19.33-1.18-29.02.17-2.84.44-5.67.83-8.49-.1.72-.19,1.43-.29,2.14,1.11-8.24,3.13-16.37,6.36-24.04-.27.64-.54,1.28-.81,1.92,2.46-5.84,5.63-11.37,9.5-16.39-.42.54-.84,1.09-1.26,1.62,3.61-4.66,7.8-8.83,12.46-12.44-.54.42-1.08.84-1.63,1.27,5.39-4.16,11.35-7.51,17.62-10.16-.64.27-1.28.54-1.92.81,9.12-3.83,18.78-6.14,28.55-7.46-.71.1-1.43.2-2.15.29,7.5-1,15.07-1.41,22.63-1.42,4.39,0,8.05-3.67,8.05-8.06s-3.67-8.06-8.05-8.06Z"/>
      </g>
      <path class="st14" d="M150.6,82.73c-133.87,0-92,132.35-92,132.35l10.71,6.9v-37.12s15.74-1.93,19.2-22.27c10.8,12.16,62,13.67,62,13.67,0,0,.03,0,.09,0,.05,0,.08,0,.08,0,0,0,51.21-1.5,62.01-13.67,3.46,20.34,19.2,22.27,19.2,22.27v37.12l10.7-6.9s41.87-132.35-91.99-132.35Z"/>
      <g>
        <path class="st24" d="M52.44,168.08c-.61,25.6,6.16,47,6.16,47l10.71,6.9v-6.62l-10.71-6.9s-5.64-17.82-6.16-40.39Z"/>
        <path class="st24" d="M242.59,208.47l-10.7,6.9v6.62l10.7-6.9s6.77-21.41,6.16-47c-.52,22.57-6.16,40.39-6.16,40.39Z"/>
      </g>
      <path class="st0" d="M150.59,89.82c79.87,0,97.18,47.11,98.15,85.12.98-38.94-13.23-92.21-98.15-92.21s-99.12,53.26-98.15,92.21c.97-38.01,18.28-85.12,98.15-85.12Z"/>
      <g>
        <path class="st18" d="M202.11,104.58c8.35,3.51,13.98,9.08,12.57,12.42-1.41,3.35-9.32,3.22-17.67-.29-8.34-3.51-13.97-9.07-12.57-12.42,1.41-3.35,9.32-3.22,17.67.29Z"/>
        <path class="st18" d="M222.79,120.09c.2,1.48-.84,2.85-2.33,3.05-1.48.21-2.85-.83-3.05-2.32-.2-1.48.84-2.85,2.32-3.06,1.48-.2,2.86.84,3.06,2.33Z"/>
      </g>
    </g>
  </g>
  <g>
    <g>
      <g>
        <g>
          <path class="st15" d="M145.39,287.2s-.52.62-1.29,2.86c-.77,2.24-.72,5.7-1.36,7.33-.63,1.63-1.93,2.13-1.93,2.13,0,0,.56.91,1.28,1.39.72.49,1.74.46,1.74.46,0,0,1.56-2.37,1.36-4.3-.21-1.93-.46-4.57-.16-6.4.3-1.84,1.21-3.04,1.21-3.04l-.85-.43Z"/>
          <path d="M141.73,283.54c-1.75,2.19-2.76,4.92-3.18,7.69-.16,1.02-.28,2.04-.4,3.07-.04.33-.21,1.52.02-.1-.06.39-.13.76-.2,1.13-.09.36-.43,1.15.17-.21-.1.19-.21.39-.34.57.53-.65.61-.79.27-.42-.66.66,1.06-.74.41-.33-.09.05-.17.1-.27.14-2.53,1.07-3.24,4.94-1.86,7.08,1.73,2.7,4.13,4.18,7.32,4.42,3.6.26,5.19-3.16,6.2-5.93.89-2.46.27-5.01.21-7.53,0-.49,0-.96.04-1.44.05-.58.02-.46-.08.4.06-.37.16-.73.27-1.09.2-.55.13-.43-.18.36.09-.22.21-.43.32-.64.08-.15.18-.3.28-.43,1.6-2.2.46-5.89-1.86-7.08-.28-.14-.56-.29-.84-.44-2.51-1.29-5.6-.67-7.08,1.86-1.37,2.34-.65,5.79,1.86,7.08.28.15.56.29.84.44-.62-2.36-1.24-4.73-1.86-7.08-1.81,2.47-2.14,5.86-2.03,8.82.03.74.1,1.48.16,2.22.04.34.08.68.11,1.02.02.21.02.42.01.62.14-.85.14-.99.03-.43-.07.3-.18.6-.29.89.52-1.4.24-.56.07-.23-.14.29-.3.56-.47.83,1.49-.85,2.98-1.71,4.47-2.56-.12,0-.24,0-.36-.02.29.04.57.07.87.1-.52-.16-.39-.1.37.16.18.13.36.26.55.39-.39-.43-.31-.3.25.39-.07-.1-.15-.21-.21-.31-.62,2.36-1.25,4.72-1.86,7.09,1.41-.6,2.41-1.93,3.31-3.11,1.26-1.66,1.43-3.98,1.69-5.95.05-.33.09-.66.12-.99.03-.22.06-.45.09-.68-.11.81-.13.92-.04.35.11-.74.27-1.47.5-2.19.12-.37.26-.74.4-1.1-.56,1.44-.16.38.01.06.28-.55,1.02-1.37-.45.46,1.77-2.2,2.16-5.16,0-7.33-1.84-1.83-5.56-2.2-7.33,0Z"/>
        </g>
        <path class="st11" d="M145.39,287.2s-.52.62-1.29,2.86c-.77,2.24-.72,5.7-1.36,7.33-.63,1.63-1.93,2.13-1.93,2.13,0,0,.56.91,1.28,1.39.72.49,1.74.46,1.74.46,0,0,1.56-2.37,1.36-4.3-.21-1.93-.46-4.57-.16-6.4.3-1.84,1.21-3.04,1.21-3.04l-.85-.43Z"/>
        <path class="st8" d="M142.74,297.39c.63-1.63.58-5.09,1.36-7.33.77-2.24,1.29-2.86,1.29-2.86l.85.43s-.04.05-.1.14l-.36-.19s-.53.62-1.3,2.86c-.77,2.25-.72,5.7-1.35,7.33-.64,1.63-1.93,2.13-1.93,2.13,0,0,.23.37.58.76-.57-.49-.96-1.14-.96-1.14,0,0,1.3-.51,1.93-2.13Z"/>
        <path class="st17" d="M143.38,301.19s1.57-2.37,1.36-4.3c-.21-1.93-.45-4.56-.15-6.41.3-1.84,1.2-3.04,1.2-3.04l-.41-.21s.02-.02.02-.02l.85.43s-.91,1.2-1.21,3.04c-.3,1.84-.06,4.47.16,6.4.21,1.93-1.36,4.3-1.36,4.3,0,0-.9.02-1.61-.38.59.19,1.15.18,1.15.18Z"/>
      </g>
      <g>
        <g>
          <path class="st15" d="M155.79,287.2s.53.62,1.3,2.86c.78,2.24.72,5.7,1.36,7.33.63,1.63,1.93,2.13,1.93,2.13,0,0-.57.91-1.28,1.39-.72.49-1.74.46-1.74.46,0,0-1.56-2.37-1.35-4.3.21-1.93.45-4.57.15-6.4-.3-1.84-1.21-3.04-1.21-3.04l.84-.43Z"/>
          <path d="M152.13,290.86c-1.46-1.8-.76-1.02-.46-.46.11.2.21.41.3.62-.72-1.57,0,.08.12.42.25.71.38,1.46.5,2.19.2,1.21-.15-1.22,0,0,.06.44.11.88.17,1.33.27,2.11.5,4.12,1.69,5.95,1.15,1.78,2.65,2.82,4.55,3.62-1.03-2.54-2.07-5.07-3.09-7.61-.07.1-.14.21-.22.31,1.14-1.59-.57.27.8-.78.22-.08.44-.16.66-.25-.57.15-.38.14.57-.02-.12.01-.24.02-.36.02,1.5.85,2.99,1.71,4.47,2.56-.13-.2-.25-.41-.36-.62-.12-.22-.23-.45-.33-.68.66,1.41.21.47.09.11-.12-.38-.21-1.4-.05.13-.04-.32.01-.63.05-.95.09-.84.16-1.68.21-2.53.19-3.07-.13-6.63-2-9.2-.62,2.36-1.24,4.72-1.86,7.08.28-.14.57-.29.85-.44,2.51-1.29,3.22-4.74,1.85-7.08-1.48-2.53-4.57-3.15-7.08-1.86-.28.15-.56.29-.84.44-2.33,1.2-3.46,4.88-1.86,7.08.28.39.88,1.88.31.4.17.45.28.93.37,1.4-.32-1.68-.05.24-.04.67.02,2.6-.6,5.02.12,7.6.81,2.94,2.72,6.22,6.17,6.23,3.19.02,5.77-1.8,7.45-4.42.73-1.14.88-2.7.52-3.99-.53-1.92-1.89-2.89-3.61-3.62,2.01.85,1.4.62.96.39-.67-.38,1.12.95.42.33-.73-.64.7,1.09.09.15-.57-.88.32,1.16,0-.08-.07-.27-.12-.55-.16-.83-.19-1.1.16,1.3,0,.13-.14-1.13-.28-2.26-.44-3.39-.39-2.77-1.43-5.5-3.18-7.69-1.77-2.2-5.49-1.83-7.32,0-2.16,2.16-1.77,5.13,0,7.33Z"/>
        </g>
        <path class="st11" d="M155.79,287.2s.53.62,1.3,2.86c.78,2.24.72,5.7,1.36,7.33.63,1.63,1.93,2.13,1.93,2.13,0,0-.57.91-1.28,1.39-.72.49-1.74.46-1.74.46,0,0-1.56-2.37-1.35-4.3.21-1.93.45-4.57.15-6.4-.3-1.84-1.21-3.04-1.21-3.04l.84-.43Z"/>
        <path class="st8" d="M158.44,297.39c-.63-1.63-.58-5.09-1.36-7.33-.77-2.24-1.3-2.86-1.3-2.86l-.84.43s.04.05.1.14l.37-.19s.52.62,1.29,2.86c.77,2.25.72,5.7,1.36,7.33.63,1.63,1.93,2.13,1.93,2.13,0,0-.23.37-.58.76.56-.49.96-1.14.96-1.14,0,0-1.3-.51-1.93-2.13Z"/>
        <path class="st17" d="M157.81,301.19s-1.57-2.37-1.36-4.3c.21-1.93.45-4.56.15-6.41-.3-1.84-1.2-3.04-1.2-3.04l.41-.21-.02-.02-.84.43s.91,1.2,1.21,3.04c.3,1.84.06,4.47-.15,6.4-.21,1.93,1.35,4.3,1.35,4.3,0,0,.91.02,1.61-.38-.59.19-1.15.18-1.15.18Z"/>
      </g>
    </g>
    <g>
      <g>
        <g>
          <g>
            <path class="st12" d="M164.72,273.47s2.9,2.57,2.9,7.18-2.9,7.13-2.9,7.13l-8.47-3.05v-8.21l8.47-3.05Z"/>
            <path d="M161.06,277.13c.13.12.25.25.36.38.29.31.81,1.03-.32-.45.17.22.32.46.47.68.18.28.33.57.48.86.22.48.16.32-.18-.48.07.18.14.37.2.55.14.4.24.81.34,1.22.1.56.09.44-.03-.35.05.37.05.74.06,1.11,0,.36-.21,2.02.04.42-.07.43-.18.84-.3,1.26-.06.2-.13.38-.2.57.35-.8.42-.95.2-.46-.14.31-.31.6-.48.89-.14.24-.31.48-.47.72,1.04-1.47.58-.73.29-.39-.14.16-.29.32-.45.46,1.67-.44,3.36-.88,5.04-1.33-2.83-1.02-5.65-2.03-8.48-3.05,1.27,1.66,2.54,3.33,3.8,4.99v-8.21c-1.27,1.67-2.53,3.33-3.8,4.99,2.83-1.02,5.65-2.03,8.48-3.05,2.66-.95,4.41-3.49,3.61-6.37-.7-2.56-3.71-4.57-6.37-3.62-2.83,1.02-5.65,2.03-8.48,3.05-2.19.79-3.8,2.56-3.8,4.99v8.21c0,2.44,1.6,4.21,3.8,4.99,2.83,1.02,5.65,2.04,8.48,3.05,1.78.63,3.71-.16,5.04-1.33,2.95-2.62,4.35-6.97,4.41-10.79.07-3.8-1.53-8.24-4.41-10.84-2.1-1.89-5.25-2.07-7.33,0-1.92,1.92-2.1,5.43,0,7.32Z"/>
          </g>
          <path class="st10" d="M164.72,273.47s2.9,2.57,2.9,7.18-2.9,7.13-2.9,7.13l-8.47-3.05v-8.21l8.47-3.05Z"/>
          <path class="st9" d="M164.27,286.7s2.9-2.52,2.9-7.14c0-1.33-.25-2.49-.59-3.47.56,1.17,1.03,2.69,1.03,4.55,0,4.61-2.9,7.13-2.9,7.13l-8.47-3.05v-.91l8.03,2.89Z"/>
          <path class="st13" d="M166.9,282.17c0-4.61-2.9-7.18-2.9-7.18l-7.76,2.79v-1.26l8.47-3.05s2.9,2.57,2.9,7.18c0,2.21-.66,3.94-1.36,5.15.38-1.01.65-2.22.65-3.63Z"/>
        </g>
        <g>
          <g>
            <path class="st12" d="M136.47,273.47s-2.9,2.57-2.9,7.18,2.9,7.13,2.9,7.13l8.47-3.05v-8.21l-8.47-3.05Z"/>
            <path d="M132.8,269.81c-2.94,2.66-4.34,6.98-4.41,10.84-.07,3.77,1.52,8.23,4.41,10.79,1.32,1.17,3.26,1.97,5.05,1.33,2.82-1.02,5.65-2.03,8.47-3.05,2.19-.79,3.8-2.55,3.8-4.99v-8.21c0-2.44-1.61-4.2-3.8-4.99-2.82-1.02-5.65-2.03-8.47-3.05-2.66-.96-5.67,1.05-6.38,3.62-.79,2.88.96,5.42,3.62,6.37,2.82,1.02,5.65,2.04,8.47,3.05-1.26-1.66-2.53-3.32-3.8-4.99v8.21c1.27-1.66,2.54-3.33,3.8-4.99-2.83,1.02-5.65,2.03-8.47,3.05,1.67.44,3.35.89,5.04,1.33-.13-.1-.25-.24-.37-.36-.29-.31-.83-1.03.32.45-.17-.21-.32-.45-.47-.68-.17-.27-.33-.56-.47-.84-.63-1.22.29.84-.02-.06-.14-.4-.24-.8-.33-1.22-.1-.56-.09-.44.03.36-.05-.37-.05-.74-.06-1.11,0-.36.21-2.02-.04-.42.07-.43.19-.85.31-1.27.11-.38.7-1.67,0-.11.14-.31.3-.61.47-.9.14-.25.31-.49.47-.73.48-.69-.95,1.16-.29.39.14-.16.29-.32.46-.47,2.09-1.89,1.92-5.4,0-7.32-2.08-2.07-5.24-1.89-7.33,0Z"/>
          </g>
          <path class="st10" d="M136.47,273.47s-2.9,2.57-2.9,7.18,2.9,7.13,2.9,7.13l8.47-3.05v-8.21l-8.47-3.05Z"/>
          <path class="st9" d="M136.91,286.7s-2.89-2.52-2.89-7.14c0-1.33.24-2.49.58-3.47-.56,1.17-1.03,2.69-1.03,4.55,0,4.61,2.9,7.13,2.9,7.13l8.47-3.05v-.91l-8.03,2.89Z"/>
          <path class="st13" d="M134.28,282.17c0-4.61,2.9-7.18,2.9-7.18l7.76,2.79v-1.26l-8.47-3.05s-2.9,2.57-2.9,7.18c0,2.21.67,3.94,1.36,5.15-.38-1.01-.65-2.22-.65-3.63Z"/>
        </g>
      </g>
      <g>
        <g>
          <path class="st12" d="M154.1,280.62c0,1.94-1.57,3.51-3.51,3.51s-3.5-1.57-3.5-3.51,1.57-3.51,3.5-3.51,3.51,1.58,3.51,3.51Z"/>
          <path d="M148.92,280.62c.05-.25.09-.5.13-.74-.14.54-.06.41.24-.36-.41.96.82-.84.12-.08-.7.77,1-.61.08-.12.22-.11.44-.21.66-.31-.55.12-.4.1.44-.06.25.04.5.09.75.13-.54-.14-.42-.06.36.24-.97-.41.84.83.07.12-.77-.7.61,1.01.12.08.1.22.2.44.31.66-.13-.55-.1-.4.05.44-.04.25-.08.5-.13.75.14-.53.07-.41-.24.36.4-.96-.83.84-.12.07.71-.77-1,.61-.07.12-.22.1-.44.21-.67.31.55-.12.4-.1-.45.06-.25-.04-.5-.08-.75-.13.54.15.42.06-.36-.24.96.42-.84-.82-.08-.12.77.71-.61-1-.12-.07-.1-.22-.21-.45-.31-.66.12.55.1.4-.06-.45.13,2.82,2.26,5.18,5.18,5.18,2.73,0,5.31-2.36,5.18-5.18-.23-4.88-3.81-8.47-8.69-8.69-4.87-.22-8.48,4.14-8.69,8.69-.21,4.87,4.14,8.49,8.69,8.69,4.87.21,8.48-4.15,8.69-8.69.13-2.82-2.45-5.18-5.18-5.18-2.92,0-5.05,2.36-5.18,5.18Z"/>
        </g>
        <path class="st10" d="M154.1,280.62c0,1.94-1.57,3.51-3.51,3.51s-3.5-1.57-3.5-3.51,1.57-3.51,3.5-3.51,3.51,1.58,3.51,3.51Z"/>
        <path class="st9" d="M147.69,280.62c0-1.84,1.41-3.34,3.21-3.5-.1,0-.2-.01-.31-.01-1.93,0-3.5,1.58-3.5,3.51s1.57,3.51,3.5,3.51c.1,0,.2,0,.31-.01-1.8-.15-3.21-1.66-3.21-3.5Z"/>
        <path class="st13" d="M153.5,280.62c0-1.84-1.41-3.34-3.2-3.5.1,0,.2-.01.3-.01,1.94,0,3.51,1.58,3.51,3.51s-1.57,3.51-3.51,3.51c-.1,0-.2,0-.3-.01,1.8-.15,3.2-1.66,3.2-3.5Z"/>
      </g>
    </g>
  </g>
  <g>
    <g>
      <path class="st20" d="M104.47,314.8s-.27.33-.67,1.48c-.4,1.15-.37,2.94-.7,3.78-.32.84-.99,1.1-.99,1.1,0,0,.29.46.66.72.37.25.89.24.89.24,0,0,.81-1.22.7-2.22-.11-.99-.24-2.36-.08-3.3.16-.95.62-1.57.62-1.57l-.44-.22Z"/>
      <path d="M100.99,312.77c-.7.92-1.09,2.27-1.3,3.4-.1.58-.17,1.19-.24,1.77-.02.17-.19,1.33-.03.27-.04.27-.35.99.06.14.08-.17,1.05-.87.61-.66-1.93.87-2.57,3.82-1.44,5.51,1.14,1.73,2.63,2.71,4.72,2.93,1.92.2,3.42-1.08,4.19-2.71.72-1.54.89-2.93.76-4.6-.06-.63-.06-1.26-.02-1.89-.06.97.48-.67-.08.45.05-.11.13-.21.2-.31,1.22-1.73.39-4.57-1.44-5.51-.15-.07-.29-.16-.44-.22-1.95-1.01-4.36-.52-5.51,1.44-1.06,1.82-.5,4.51,1.45,5.51.14.08.29.15.44.23-.48-1.84-.96-3.67-1.45-5.51-1.01,1.43-1.26,3.34-1.23,5.04,0,.73.13,1.44.15,2.17-.02-1.03-.33.36.12-.62-.08.17-.17.34-.28.5,1.16-.66,2.31-1.33,3.47-1.99-.73-.03-.16.21,1.7.72.29.42.37.53.23.32-.48,1.84-.96,3.67-1.44,5.51,1.75-.79,2.81-2.8,3.08-4.61.09-.58.16-1.17.22-1.74-.11.96.1-.45.14-.63.07-.24.14-.47.24-.69-.2.45-.22.5-.07.19.06-.11.12-.21.18-.31,1.35-1.74.27-4.5-1.44-5.51-2.07-1.22-4.17-.29-5.51,1.44Z"/>
    </g>
    <path class="st11" d="M104.47,314.8s-.27.33-.67,1.48c-.4,1.15-.37,2.94-.7,3.78-.32.84-.99,1.1-.99,1.1,0,0,.29.46.66.72.37.25.89.24.89.24,0,0,.81-1.22.7-2.22-.11-.99-.24-2.36-.08-3.3.16-.95.62-1.57.62-1.57l-.44-.22Z"/>
    <path class="st8" d="M103.1,320.06c.33-.84.3-2.62.7-3.78.4-1.15.67-1.48.67-1.48l.44.22s-.02.02-.05.07l-.2-.09s-.27.32-.66,1.47c-.4,1.15-.38,2.95-.7,3.78-.33.84-1,1.1-1,1.1,0,0,.12.19.3.39-.29-.25-.5-.59-.5-.59,0,0,.67-.27.99-1.1Z"/>
    <path class="st17" d="M103.43,322.02s.81-1.22.7-2.22c-.11-.99-.23-2.36-.08-3.3.16-.95.62-1.56.62-1.56l-.21-.11s.01-.02.01-.02l.44.22s-.47.62-.62,1.57c-.16.95-.03,2.31.08,3.3.1.99-.7,2.22-.7,2.22,0,0-.46.01-.83-.2.3.11.59.09.59.09Z"/>
  </g>
  <path class="st24" d="M148.39,147.7c48.29,0,100.38,25.07,100.38,25.07,0,0,.96-10.55-.69-15.19-14.35-7.75-51.37-20.63-99.63-20.63s-80.35,12-95.5,19.82c-1.73,4.67-.54,14.26-.54,14.26,0,0,49.46-23.33,95.97-23.33Z"/>
  <g>
    <g>
      <g>
        <polygon class="st20" points="292.83 99.81 150.44 8.15 150.44 8.15 150.44 8.15 150.44 8.15 150.44 8.15 8.05 99.81 73.95 134.7 150.44 125.04 226.94 134.7 292.83 99.81"/>
        <path d="M296.9,92.85c-6.09-3.92-12.18-7.84-18.27-11.75-13.98-9.01-27.96-18.01-41.95-27.01-15.46-9.95-30.92-19.91-46.38-29.86-10.52-6.77-21.03-13.54-31.55-20.31-1.41-.91-2.82-1.82-4.23-2.73,1.33,2.32,2.66,4.64,3.99,6.96h0c0-5.83-6.94-10.41-12.12-6.96h8.13,0c-5.18-3.45-12.12,1.13-12.12,6.96h0c1.33-2.31,2.66-4.63,4-6.96-6.09,3.92-12.18,7.85-18.27,11.76-13.98,9.01-27.97,18.01-41.95,27.01-15.47,9.96-30.93,19.91-46.39,29.86-10.52,6.77-21.04,13.54-31.55,20.31-1.41.91-2.82,1.82-4.23,2.72-2.42,1.55-3.99,4.03-3.99,6.96,0,2.75,1.51,5.65,3.99,6.96,11.27,5.97,22.55,11.94,33.83,17.91,7.58,4.02,15.16,8.04,22.74,12.05,2.38,1.26,4.75,2.52,7.13,3.78,1.85.97,4.23,2.52,6.3,2.26,12.87-1.63,25.76-3.26,38.63-4.88,12.61-1.6,25.21-3.19,37.82-4.78.89-.12,2.07.26,2.95.37,2.74.35,5.48.69,8.23,1.04,8.51,1.07,17.02,2.15,25.53,3.22,13.23,1.67,26.46,3.34,39.68,5.01,2.07.26,4.19-1.09,6-2.05,2.26-1.19,4.53-2.39,6.79-3.59,7.49-3.97,14.97-7.93,22.45-11.89,11.6-6.14,23.21-12.29,34.82-18.43,0,0,.01,0,.02-.01,3.87-2.05,5.03-7.36,2.89-11.02-2.29-3.9-7.14-4.95-11.03-2.89-11.27,5.97-22.55,11.94-33.82,17.91-10.69,5.66-21.38,11.32-32.07,16.98,1.36-.36,2.71-.73,4.07-1.1-12.42-1.56-24.84-3.13-37.26-4.7-13.06-1.65-26.11-3.3-39.17-4.95-.75-.1-1.7.2-2.44.29-2.6.33-5.18.66-7.78.98-8.38,1.06-16.76,2.12-25.13,3.18-13.65,1.72-27.3,3.45-40.95,5.17-.08.01-.17.02-.26.03,1.35.37,2.71.74,4.06,1.1-11.28-5.97-22.55-11.94-33.83-17.91-10.69-5.66-21.38-11.33-32.07-16.98v13.91c6.09-3.92,12.18-7.83,18.27-11.76,13.98-9,27.96-18.01,41.95-27.01,15.46-9.95,30.92-19.9,46.38-29.86,10.52-6.77,21.04-13.54,31.56-20.31,3.67-2.37,8.22-4.54,8.22-9.69-4.05,2.32-8.08,4.64-12.12,6.96h0c2.25,1.51,5.88,1.51,8.13,0h0c-4.04-2.32-8.08-4.64-12.12-6.96,0,3.63,2.32,5.88,5.04,7.63,1.15.74,2.3,1.48,3.45,2.23,4.31,2.78,8.62,5.55,12.94,8.33,13.87,8.92,27.73,17.85,41.59,26.78,15.51,9.98,31.01,19.95,46.51,29.94,10.72,6.9,21.44,13.8,32.16,20.7,1.56,1,3.12,2.01,4.68,3.01,3.7,2.38,8.88.77,11.03-2.89,2.29-3.91.8-8.65-2.89-11.03Z"/>
      </g>
      <polygon class="st21" points="292.83 99.81 150.44 8.15 150.44 8.15 150.44 8.15 150.44 8.15 150.44 8.15 8.05 99.81 73.95 134.7 150.44 125.04 226.94 134.7 292.83 99.81"/>
    </g>
    <g>
      <path class="st20" d="M252.64,158.79l-2.6-51.74s-40.04-29.59-99.59-29.59-99.59,29.59-99.59,29.59l-2.6,51.74s34.36-26.2,102.2-26.2,102.2,26.2,102.2,26.2Z"/>
      <path d="M260.69,158.79c-.55-10.97-1.1-21.94-1.65-32.91-.29-5.67-.57-11.34-.86-17.02-.02-.53-.05-1.06-.08-1.59,0-.07,0-.15-.01-.22-.16-3.14-1.55-5.19-4.03-6.99-.67-.48-1.36-.95-2.05-1.41-11.62-7.71-24.59-13.54-37.68-18.2-23.2-8.26-48.19-12-72.79-10.81-23.51,1.14-46.41,6.73-68.01,15.97-9.2,3.94-18.46,8.52-26.62,14.4-2.53,1.82-3.95,3.91-4.11,7.11-.02.41-.05.82-.07,1.24-.1,2.11-.21,4.23-.32,6.35-.36,7.07-.71,14.13-1.06,21.2-.39,7.63-.77,15.26-1.15,22.89-.14,2.8,1.63,5.58,3.99,6.96,2.25,1.32,5.92,1.69,8.13,0,1.45-1.1,3.02-2.07,4.58-3.01,4.39-2.65,9.01-4.96,13.7-7.05.81-.36,1.63-.71,2.45-1.06-.64.28-1.28.54-1.92.81,15.59-6.57,32.16-10.68,48.91-12.95-.71.09-1.43.19-2.14.29,21.54-2.89,43.57-2.89,65.11,0-.72-.1-1.43-.2-2.14-.29,16.75,2.27,33.32,6.38,48.91,12.95-.65-.27-1.29-.54-1.92-.81,7.11,3.01,14.41,6.44,20.65,11.07.02.02.05.03.08.06,1.62,1.23,4.34,1.32,6.21.81,2.01-.55,3.76-1.9,4.81-3.7,1.09-1.86,1.39-4.13.81-6.21-.61-2.21-1.95-3.49-3.7-4.82-1.45-1.1-3.02-2.06-4.58-3-4.4-2.66-9.01-4.97-13.71-7.05-18.45-8.2-37.93-12.96-57.93-15.44-25.94-3.23-52.59-2.25-78.22,2.86-16.42,3.27-32.63,8.55-47.52,16.29-3.62,1.88-7.31,3.87-10.57,6.35,4.04,2.32,8.08,4.64,12.12,6.96.55-10.97,1.1-21.94,1.66-32.91.32-6.28.63-12.56.95-18.83-1.33,2.31-2.66,4.63-3.99,6.95,1.96-1.44,4.04-2.73,6.12-3.99,5.59-3.38,11.42-6.37,17.37-9.06,1.4-.63,2.8-1.24,4.2-1.84-.64.27-1.28.54-1.92.81,15.22-6.41,31.25-10.82,47.61-13.05-.71.09-1.42.19-2.14.29,16.1-2.16,32.44-2.16,48.54,0-.72-.1-1.43-.2-2.14-.29,16.35,2.23,32.4,6.64,47.62,13.05-.64-.27-1.28-.54-1.92-.81,9.51,4.03,19.06,8.71,27.5,14.74.07.05.14.1.21.15-1.33-2.32-2.66-4.63-4-6.95.55,10.97,1.11,21.94,1.66,32.91.32,6.28.63,12.56.95,18.83.23,4.39,3.5,8.06,8.06,8.06,4.22,0,8.27-3.67,8.05-8.06Z"/>
    </g>
    <path class="st7" d="M252.64,158.79l-2.6-51.74s-40.04-29.59-99.59-29.59-99.59,29.59-99.59,29.59l-2.6,51.74s34.36-26.2,102.2-26.2,102.2,26.2,102.2,26.2Z"/>
    <path class="st21" d="M62.43,120.38c2.99-8.8,9.61-13.37,17.39-18.44,13.2-8.59,33.29-14.62,70.44-16.11,34.3-1.38,74.05,9.56,90.38,15.3-15.18-8.63-47.72-23.68-90.2-23.68-59.56,0-99.59,29.59-99.59,29.59l-2.6,51.74s10.19-7.77,30.41-14.84c0,0-22.44-5.27-16.23-23.57Z"/>
  </g>
  <polygon class="st7" points="292.83 99.81 150.44 8.15 150.44 8.15 150.44 8.15 8.05 99.81 42.19 117.88 14.84 100.06 150.44 16.69 286.05 100.06 258.69 117.88 292.83 99.81"/>
  <path d="M23.28,170.44v-88.73c0-.6-.22,1.16-.01.18.06-.27.49-1.43.07-.46.1-.22.21-.43.33-.65.09-.15.18-.3.28-.45-.27.32-.27.34-.01.03.09-.11.97-.84.5-.5.2-.14.4-.27.61-.38.82-.47-.59.17.31-.11.2-.05.4-.1.6-.13-.78.16.18.01.32,0,.2,0,.41,0,.62,0,.12,0,1.12.12.29,0,.86.12,1.7.34,2.53.6.42.14,1.95.79.36.09,1.73.76,3.69.53,4.72-1.23.87-1.48.49-3.97-1.23-4.72-4.82-2.12-10.92-2.66-14.7,1.72-1.54,1.78-2.5,4.06-2.5,6.44v88.29c0,4.45,6.9,4.45,6.9,0h0Z"/>
  <g>
    <g>
      <path class="st18" d="M18.67,180.13s-6.44,10.7-5.16,17.18c1.28,6.49,4.55,8.41,5.51,10.88.96,2.48.62,6.15.62,6.15,0,0,4.31-2.56,5.19-6.56.89-3.99-2.03-9.52-2.03-9.52,0,0,.92.67,1.39,1.49.47.83,1,2.09,1,2.09,0,0,.39-2.29-.35-3.75-.74-1.46-3.46-5.84-3.79-10.5-.19-2.67-.66-7.31-.66-7.31l-1.73-.15Z"/>
      <path d="M11.71,176.07c-.81,1.36-1.53,2.79-2.21,4.22-1.56,3.32-3.04,6.81-3.69,10.44-.36,1.97-.69,4.09-.44,6.1.39,3.24,1.21,5.93,2.57,8.92,1.06,2.32,3.03,4.06,4.06,6.36-.27-.64-.54-1.28-.81-1.92.31.78.48,1.58.6,2.4-.1-.71-.19-1.42-.28-2.14.15,1.29.2,2.6.08,3.9-.24,2.76,1.7,5.62,3.98,6.96,2.46,1.44,5.67,1.48,8.14,0,4.14-2.49,8-6.83,8.95-11.67,1.04-5.3-.43-10.73-2.9-15.44-3.68,3.68-7.36,7.36-11.03,11.03.01,0,.02,0,.03.02-.54-.42-1.09-.84-1.63-1.26.37.28.69.6.99.95-.42-.54-.84-1.09-1.26-1.63.6.77.99,1.71,1.37,2.6,1.07,2.52,4.4,4,6.96,4,3.29,0,7.21-2.44,7.76-5.92.18-1.13.37-2.31.4-3.47.05-2.4-.59-4.34-1.56-6.48-.66-1.48-1.54-2.87-2.19-4.37.27.65.54,1.29.81,1.93-.72-1.73-1.27-3.51-1.52-5.36.1.71.19,1.43.28,2.14-.29-2.69-.45-5.4-.73-8.09-.23-2.21-.73-4.07-2.36-5.7-1.61-1.61-3.49-2.17-5.7-2.36-.58-.05-1.16-.11-1.73-.15-4.38-.39-8.06,3.95-8.06,8.05,0,2.12.85,4.19,2.36,5.69,1.61,1.61,3.5,2.18,5.7,2.36.58.05,1.15.1,1.73.16-2.69-2.68-5.37-5.38-8.05-8.06.36,3.54.59,7.09,1.07,10.61.58,4.2,2.9,7.77,4.6,11.55-.27-.64-.54-1.28-.81-1.93.14.41.23.81.28,1.23-.1-.71-.19-1.43-.29-2.14.06.71.05,1.43-.05,2.13.1-.71.2-1.43.29-2.13,0,.03,0,.06-.02.1,4.91-.64,9.82-1.28,14.73-1.92-.35-.81-.7-1.62-1.17-2.36-1.18-1.84-2.41-2.84-4.11-4.12-2.86-2.13-7.42-1.08-9.77,1.26-2.64,2.64-2.95,6.53-1.26,9.76.25.47.46.96.67,1.44-.27-.64-.54-1.29-.81-1.93.66,1.61,1.19,3.27,1.44,4.99-.1-.72-.2-1.43-.29-2.15.1.84.13,1.66.04,2.5.1-.71.19-1.43.29-2.14-.09.61-.25,1.2-.47,1.78.27-.64.54-1.28.81-1.92-.36.83-.81,1.58-1.37,2.29.42-.54.84-1.08,1.26-1.63-.72.89-1.55,1.68-2.45,2.38.54-.42,1.08-.84,1.63-1.26-.32.24-.65.48-1,.69,4.05,2.32,8.08,4.63,12.12,6.96.33-3.7-.26-7.72-2.08-10.98-.52-.92-1.24-1.74-1.85-2.59-.85-1.17-1.58-2.4-2.15-3.72.27.63.54,1.28.81,1.92-.57-1.37-1-2.81-1.22-4.28.1.72.19,1.43.29,2.14-.14-1.14-.09-2.28.06-3.41-.09.71-.19,1.43-.29,2.14.38-2.56,1.22-5.02,2.22-7.39-.27.64-.54,1.28-.81,1.93.86-2.03,1.82-4.02,2.95-5.91,2.26-3.77.87-8.82-2.89-11.02-3.82-2.24-8.77-.87-11.02,2.89Z"/>
    </g>
    <path class="st23" d="M18.67,180.13s-6.44,10.7-5.16,17.18c1.28,6.49,4.55,8.41,5.51,10.88.96,2.48.62,6.15.62,6.15,0,0,4.31-2.56,5.19-6.56.89-3.99-2.03-9.52-2.03-9.52,0,0,.92.67,1.39,1.49.47.83,1,2.09,1,2.09,0,0,.39-2.29-.35-3.75-.74-1.46-3.46-5.84-3.79-10.5-.19-2.67-.66-7.31-.66-7.31l-1.73-.15Z"/>
    <g>
      <path class="st19" d="M24,202.05s-.53-1.26-1-2.08c-.47-.83-1.39-1.5-1.39-1.5,0,0,2.92,5.53,2.03,9.53-.58,2.61-4,6.35-4,6.35,0,0,4.31-2.56,5.19-6.56.47-2.07-.1-4.56-.75-6.47-.03.44-.09.74-.09.74Z"/>
      <path class="st19" d="M24.85,198.1c-.74-1.46-3.46-5.84-3.79-10.5-.19-2.67-.66-7.31-.66-7.31l-1.73-.15s-.06.1-.17.29l.71.06s.47,4.65.66,7.31c.32,4.66,3.04,9.05,3.79,10.5.18.36.29.76.36,1.17.07.09.13.18.18.28.47.83,1,2.09,1,2.09,0,0,.39-2.29-.35-3.75Z"/>
    </g>
    <path class="st22" d="M20.56,207.93c-1.11-2.4-4.23-4.39-5.51-10.88-1.14-5.77,3.81-14.85,4.94-16.81l-1.31-.11s-6.44,10.7-5.16,17.18c1.28,6.49,4.55,8.41,5.51,10.88.96,2.48.62,6.15.62,6.15,0,0,2.46-3.07.91-6.42Z"/>
  </g>
  <g>
    <path class="st11" d="M27.13,170c0,4.04-3.27,7.31-7.31,7.31s-7.31-3.27-7.31-7.31,3.27-7.31,7.31-7.31,7.31,3.27,7.31,7.31Z"/>
    <path class="st1" d="M23.1,170c0,.21,0,.43-.03.63.09-.55.09-.61,0-.16-.03.22-.48,1.47-.06.47-.16.37-.36.71-.58,1.05-.25.36-.22.32.1-.11-.13.15-.26.3-.4.44-.14.14-.29.27-.43.4.43-.32.46-.35.1-.1-.33.22-.68.4-1.04.58.96-.46-.24,0-.48.06-.45.08-.4.08.16,0-.21.02-.42.03-.63.03s-.43,0-.63-.03c.55.09.61.09.16,0-.23-.04-1.48-.49-.47-.06-.36-.16-.7-.36-1.04-.58-.36-.25-.33-.22.1.1-.15-.13-.3-.26-.43-.4-.14-.14-.27-.29-.4-.44.32.43.36.47.1.11-.23-.33-.41-.69-.58-1.05.46.96,0-.23-.06-.47-.08-.45-.07-.4,0,.16-.02-.21-.03-.42-.03-.63s.01-.42.03-.63c-.08.56-.09.61,0,.15.04-.22.49-1.48.06-.47.16-.37.36-.71.58-1.04.25-.36.22-.33-.1.1.13-.14.27-.29.4-.43.14-.14.28-.27.43-.4-.43.32-.46.35-.1.09.33-.22.69-.4,1.04-.57-.97.45.23,0,.47-.06.45-.08.4-.08-.16,0,.21-.02.43-.03.63-.03s.42.01.63.03c-.56-.09-.61-.09-.16,0,.23.04,1.48.48.48.06.36.16.7.36,1.04.57.36.26.32.22-.1-.09.14.13.29.26.43.4.14.14.27.29.4.43-.32-.43-.35-.46-.1-.1.23.33.4.69.58,1.04-.46-.97,0,.23.06.47.09.45.09.4,0-.15.02.21.03.42.03.63.05,2.19,1.8,4.03,4.03,4.03s4.08-1.83,4.03-4.03c-.14-6.26-5.08-11.21-11.34-11.34-6.27-.13-11.22,5.28-11.34,11.34-.13,6.27,5.28,11.22,11.34,11.34,6.26.13,11.21-5.28,11.34-11.34.05-2.19-1.86-4.02-4.03-4.02s-3.98,1.83-4.03,4.02Z"/>
  </g>
  <g>
    <g>
      <path class="st20" d="M109.15,306.47l-1.4-.72c-.38,2.13-1.37,4.04-2.79,5.55l1.4.71c1.4-1.53,2.38-3.43,2.79-5.55Z"/>
      <path d="M111.19,303c-.47-.24-.94-.48-1.41-.72-2.16-1.1-5.38-.28-5.91,2.41-.08.37-.16.74-.26,1.1-.07.24-.15.48-.24.71.18-.39.17-.36-.03.06-.2.45-.46.87-.73,1.28-.27.38-.28.4-.02.07-.16.18-.31.37-.48.55-1.65,1.82-1.61,5.09.81,6.33.47.24.93.48,1.4.72,1.55.79,3.64.77,4.88-.63,1.86-2.1,3.25-4.56,3.82-7.33.45-2.15-.6-4.35-2.81-4.96-2.02-.55-4.51.66-4.96,2.82-.08.37-.16.73-.27,1.1-.07.24-.14.47-.24.71.18-.38.17-.36-.03.06-.2.44-.46.87-.73,1.28-.27.38-.28.4-.02.07-.15.19-.31.38-.47.55,1.63-.21,3.26-.42,4.88-.63-.47-.24-.93-.48-1.4-.72.28,2.11.55,4.21.81,6.33,1.89-2.09,3.28-4.55,3.83-7.33-1.97.8-3.94,1.61-5.92,2.41.47.24.93.47,1.4.71,1.96.99,4.35.53,5.51-1.45,1.06-1.81.51-4.51-1.44-5.51Z"/>
    </g>
    <path class="st11" d="M109.15,306.47l-1.4-.72c-.38,2.13-1.37,4.04-2.79,5.55l1.4.71c1.4-1.53,2.38-3.43,2.79-5.55Z"/>
  </g>
</svg>