<?xml version="1.0" encoding="UTF-8"?>
<svg id="Layer_1" xmlns="http://www.w3.org/2000/svg" version="1.1" viewBox="0 0 305.13 306.33">
  <!-- Generator: Adobe Illustrator 29.6.1, SVG Export Plug-In . SVG Version: 2.1.1 Build 9)  -->
  <defs>
    <style>
      .st0 {
        fill: #ffd7c3;
      }

      .st1, .st2 {
        fill-rule: evenodd;
      }

      .st1, .st3 {
        fill: #fff;
      }

      .st4, .st2 {
        fill: #000002;
      }

      .st5 {
        fill: #414042;
      }

      .st6 {
        fill: #ffad8d;
      }

      .st7 {
        fill: #231f20;
      }

      .st8 {
        fill: #f1f2f2;
      }

      .st9 {
        fill: #f38b9e;
      }

      .st10 {
        fill: #fde5d2;
      }

      .st11 {
        fill: #e6e7e8;
      }
    </style>
  </defs>
  <g>
    <g>
      <g>
        <g>
          <path class="st0" d="M116.64,229.32s-27.84,33.06-15.77,40.19c12.09,7.13,28.99-23.77,28.99-23.77l-13.22-16.42Z"/>
          <path d="M114.35,227.03c-3.33,3.96-6.43,8.17-9.34,12.46-4.54,6.71-9.21,14.24-10.29,22.41-.43,3.29.38,6.97,2.95,9.24,3.11,2.76,7.49,3.29,11.33,1.9,4.08-1.47,7.5-4.36,10.48-7.45,3.07-3.17,5.76-6.72,8.25-10.34,1.75-2.55,3.43-5.17,4.92-7.88.76-1.38.44-2.74-.51-3.92-4.41-5.47-8.82-10.95-13.23-16.42-1.11-1.38-3.42-1.14-4.57,0-1.34,1.35-1.11,3.2,0,4.57,4.41,5.47,8.82,10.95,13.23,16.42-.17-1.3-.34-2.61-.5-3.91-.84,1.54-1.76,3.03-2.7,4.51-.97,1.53-1.98,3.04-3.02,4.52-.57.81-1.15,1.61-1.75,2.4-.15.2-.31.4-.46.6.48-.62-.05.06-.12.16-.37.47-.76.95-1.15,1.41-1.38,1.67-2.84,3.27-4.4,4.76-.72.68-1.47,1.34-2.24,1.96-.64.51.55-.41-.1.08-.19.14-.38.28-.57.42-.43.32-.88.6-1.34.88-.38.23-.76.44-1.15.64-.19.1-.38.19-.57.28-.68.31.68-.28,0,0-.38.15-.77.27-1.15.39-.3.08-1.78.31-.66.18-.38.05-.76.05-1.13.05-.18,0-.38-.02-.56-.04,1,.09.35.05.12,0-.37-.07-.74-.19-1.09-.31-.66-.24.7.32.05.01-.24-.11-.46-.24-.68-.38-.14-.08-.28-.18-.4-.27.81.58.35.26.16.1-.23-.2-.43-.43-.62-.66.72.88.08.05-.07-.22-.07-.13-.14-.27-.2-.4.45,1.01.14.31.06.06-.1-.3-.16-.61-.21-.92-.11-.62.1.85.03.22-.01-.17-.02-.34-.03-.51-.02-.35-.01-.69,0-1.04.01-.29.19-1.74.03-.61.25-1.72.78-3.4,1.37-5.03.16-.43.33-.86.51-1.28-.35.83.23-.53.33-.75.44-.97.92-1.92,1.4-2.86,1.93-3.72,4.17-7.26,6.54-10.7,1.05-1.54,2.14-3.05,3.25-4.54.46-.62.92-1.24,1.39-1.84.11-.14.21-.29.32-.43.4-.51-.48.62-.1.12.23-.29.45-.57.67-.85.7-.88,1.39-1.76,2.11-2.62,1.13-1.35,1.33-3.24,0-4.57-1.17-1.17-3.43-1.36-4.57,0Z"/>
        </g>
        <path class="st7" d="M102.43,256.13l10.03,6.49,7.07-24.88-3.22-4.03s-5.31,6.6-7.09,9.38c-1.77,2.78-6.78,13.04-6.78,13.04Z"/>
        <path class="st5" d="M105.1,254.97s5.12-9.93,6.89-12.71c1.13-1.77,3.66-5.04,5.37-7.22l-1.06-1.32s-5.31,6.6-7.09,9.38c-1.77,2.78-6.78,13.04-6.78,13.04l9.78,6.34-7.11-7.5Z"/>
        <polygon class="st4" points="113.1 269.47 96.58 258.7 99.54 254.27 116.11 264.98 113.1 269.47"/>
      </g>
      <g>
        <g>
          <path class="st0" d="M188.53,228.96s27.84,33.06,15.75,40.19c-12.08,7.13-28.98-23.77-28.98-23.77l13.23-16.42Z"/>
          <path d="M186.24,231.24c.96,1.14,1.87,2.3,2.78,3.47.39.5-.48-.63-.09-.12.11.14.22.28.32.42.23.29.45.59.68.89.54.71,1.06,1.42,1.59,2.14,1.14,1.56,2.25,3.15,3.33,4.76,2.34,3.47,4.53,7.07,6.37,10.84.21.43.42.88.62,1.32.1.21.68,1.58.33.74.37.91.71,1.82,1.02,2.75.25.79.47,1.59.65,2.41.08.39.15.77.21,1.16-.17-1.12.01.31.03.61.02.35.02.69,0,1.04,0,.17-.02.33-.03.5-.06.64.13-.84.03-.21-.04.3-.12.61-.21.91-.04.15-.1.29-.14.43.37-1.02.14-.32.01-.08-.13.25-.77,1.13-.07.22-.18.24-.4.46-.62.66-.17.16-.65.51.17-.11-.13.1-.27.19-.4.28-.16.1-.33.19-.5.28-.79.44.39-.12-.12.07-.36.14-.73.24-1.1.32-.22.05-.9.12.12,0-.18.02-.37.02-.56.03-.38.02-.76,0-1.13-.04,1.1.1-.36-.09-.67-.18-.39-.1-.77-.24-1.15-.38-.69-.27.68.31,0,0-.2-.09-.39-.18-.58-.28-.87-.43-1.7-.96-2.49-1.52-.19-.13-.38-.28-.57-.42-.65-.48.54.43-.1-.09-.38-.31-.76-.62-1.13-.95-.83-.72-1.61-1.49-2.39-2.28-1.52-1.55-2.92-3.21-4.27-4.91-.08-.1-.61-.78-.13-.16-.15-.2-.3-.4-.46-.61-.3-.4-.59-.8-.89-1.21-.61-.83-1.21-1.68-1.79-2.53-.95-1.39-1.87-2.81-2.76-4.24-.7-1.13-1.39-2.27-2.03-3.43-.17,1.3-.34,2.61-.51,3.91,4.41-5.47,8.82-10.95,13.23-16.42,1.1-1.37,1.34-3.22,0-4.57-1.15-1.14-3.47-1.38-4.57,0-4.41,5.47-8.81,10.95-13.23,16.42-.94,1.17-1.26,2.53-.5,3.91,2.81,5.12,6.2,9.99,9.88,14.51,4.8,5.89,12.48,13.84,20.95,11.53,3.55-.97,6.4-3.86,6.99-7.53.6-3.72-.33-7.43-1.68-10.89-2.99-7.66-7.67-14.63-12.56-21.2-1.71-2.29-3.44-4.57-5.29-6.76-1.13-1.35-3.41-1.17-4.57,0-1.32,1.33-1.13,3.22,0,4.57Z"/>
        </g>
        <path class="st7" d="M202.4,256.13l-9.79,6.34-7.31-24.72,3.22-4.03s5.31,6.6,7.09,9.38c1.77,2.78,6.78,13.04,6.78,13.04Z"/>
        <path class="st5" d="M199.72,254.97s-5.11-9.93-6.89-12.71c-1.12-1.77-3.66-5.04-5.37-7.22l1.06-1.32s5.31,6.6,7.09,9.38c1.77,2.78,6.78,13.04,6.78,13.04l-9.79,6.34,7.11-7.5Z"/>
        <polygon class="st4" points="191.72 269.47 208.24 258.7 205.28 254.27 188.71 264.98 191.72 269.47"/>
      </g>
      <g>
        <g>
          <path class="st4" d="M205.56,302.29c0,1.56-23.74,2.83-53,2.83s-53.01-1.27-53.01-2.83,23.73-2.84,53.01-2.84,53,1.27,53,2.84Z"/>
          <path d="M152.56,306.33c-54.22,0-54.22-3.04-54.22-4.04s0-4.05,54.22-4.05,54.21,3.05,54.21,4.05,0,4.04-54.21,4.04ZM104.45,302.29c7.66.88,25.14,1.62,48.11,1.62s40.37-.8,47.87-1.62c-7.5-.83-24.19-1.62-47.87-1.62s-40.45.75-48.11,1.62Z"/>
        </g>
        <g>
          <path class="st7" d="M126,241.48s-12.61,54.63-3.21,57.93c6.82,2.39,13.15-8.49,13.15-8.49,0,0,5.44,1.66,14.81,1.83,9.37.17,16.92-1.94,16.92-1.94,0,0,6.99,12.09,14.54,9.6,7.55-2.5-4.45-59.07-4.45-59.07l-51.77.14Z"/>
          <path d="M122.56,240.54c-2.87,12.45-5.17,25.18-6.34,37.92-.35,3.79-.58,7.62-.42,11.42.13,3.18.5,6.41,1.91,9.31,1.86,3.81,6.43,4.85,10.26,3.61,4.56-1.47,8.02-5.46,10.57-9.34.16-.24.31-.48.46-.74-1.34.55-2.68,1.09-4.02,1.64,5.01,1.52,10.56,1.85,15.76,1.96,5.92.12,12.15-.49,17.87-2.07-1.33-.54-2.67-1.08-4.01-1.63,1.69,2.92,3.96,5.7,6.53,7.88,3.76,3.16,9.9,5.72,14.21,2.08,2.07-1.76,2.46-5.05,2.73-7.55.35-3.27.19-6.59-.03-9.86-.95-14.59-3.65-29.16-6.59-43.47-.09-.43-.17-.85-.27-1.27-.32-1.53-1.92-2.62-3.43-2.61-12.73.04-25.46.07-38.19.11-4.53,0-9.05.02-13.57.03-4.59,0-4.59,7.12,0,7.11,12.73-.04,25.46-.07,38.2-.1,4.53-.01,9.05-.03,13.57-.04-1.14-.87-2.28-1.74-3.43-2.61.85,4.03,1.62,8.07,2.36,12.12.72,3.94,1.39,7.9,2,11.86.34,2.14.65,4.28.94,6.43.12.89-.1-.8.01.09.03.25.07.51.1.77.07.51.12,1.03.19,1.54.14,1.1.26,2.21.39,3.3.42,3.83.75,7.68.8,11.54.03,1.53,0,3.07-.13,4.6-.03.32-.06.63-.1.95-.08.63.14-.98.04-.35-.02.14-.04.28-.07.42-.09.55-.22,1.09-.38,1.62-.1.33-.47,1.18.09-.14-.07.18-.16.35-.26.51-.42.72.31-.35.2-.22-.5.59.14-.08.26-.16-.63.43,1.22-.41.19-.09-.18.05-1.1.21-.14.09-.27.04-.54.04-.81.04-.2,0-1.08-.1-.12.03-.26-.03-.52-.1-.78-.17-.26-.06-.51-.16-.77-.24-.37-.14-.34-.13.1.04-.17-.07-.33-.15-.49-.24-.5-.25-.97-.56-1.42-.87-.12-.08-.86-.66-.18-.12-.22-.17-.43-.36-.65-.55-.89-.77-1.71-1.63-2.48-2.54-.17-.2-1.17-1.45-.53-.61-.26-.33-.51-.68-.76-1.03-.37-.52-.72-1.04-1.05-1.59-.07-.1-.13-.2-.19-.31-.8-1.38-2.49-2.06-4.02-1.63-1.52.42-3.07.71-4.62.97-3.37.58-7.41.89-11.36.83-1.96-.02-3.92-.14-5.87-.32-.87-.08-1.73-.18-2.6-.28.78.09-.27-.05-.35-.06-.38-.05-.77-.12-1.15-.18-1.3-.22-2.63-.47-3.89-.86-1.52-.46-3.23.29-4.02,1.63-.14.25-.3.5-.46.74-.18.28-.37.55-.55.81-.12.16-.23.32-.35.48-.58.8.28-.36-.13.17-.64.81-1.33,1.59-2.08,2.32-.39.39-.81.76-1.24,1.11-.73.61.59-.42-.18.13-.3.22-.61.42-.93.61-.24.14-.48.27-.73.39-.82.41.7-.25-.15.06-.25.09-.51.16-.77.22-.87.21.79-.05-.1.03-.27.02-.53.02-.8,0-.91-.03.77.16-.14-.04-.21-.05-.42-.12-.63-.2,1.21.45.74.33.44.16-.72-.41.7.62.19.16-.26-.22-.75-.91.09.19-.28-.37-.96-1.9-.41-.57-.48-1.15-.71-2.4-.88-3.62.19,1.35.02.03-.02-.29-.04-.37-.06-.74-.09-1.12-.06-.87-.08-1.74-.1-2.62-.05-3.94.25-7.89.66-11.81.1-.94.2-1.88.32-2.82.06-.51.12-1.03.19-1.55.04-.26.07-.52.1-.78.12-.9-.11.8.01-.1.28-2.06.59-4.11.91-6.17.61-3.78,1.28-7.54,2-11.29.73-3.78,1.5-7.55,2.36-11.3.43-1.89-.56-3.85-2.48-4.37-1.81-.5-3.94.6-4.38,2.48Z"/>
        </g>
        <g>
          <g>
            <path class="st10" d="M190.59,283.34l-14.14-55.82h-47.79l-14.14,55.82s8.7,4.2,38.03,4.2,38.04-4.2,38.04-4.2Z"/>
            <path d="M197.44,281.45c-3.03-11.98-6.07-23.95-9.1-35.93-1.68-6.63-3.36-13.26-5.04-19.88-.77-3.07-3.74-5.22-6.85-5.22h-47.79c-3.12,0-6.08,2.16-6.86,5.22-3.03,11.97-6.06,23.95-9.1,35.92-1.68,6.63-3.36,13.27-5.04,19.89-.74,2.9.38,6.65,3.26,8.03,3.93,1.88,8.34,2.66,12.62,3.29,13.51,2,27.3,2.24,40.93,1.62,7.48-.33,15.05-1,22.38-2.56,2.51-.54,4.99-1.24,7.31-2.35,3.5-1.67,4.39-6.59,2.55-9.72-2.07-3.55-6.23-4.23-9.72-2.55-.76.36,2.49-.99,1.06-.46-.65.24-1.3.44-1.97.63-2.88.81-5.85,1.33-8.82,1.75-.57.08-1.73.23.87-.12-.27.04-.54.07-.81.11-.56.07-1.13.13-1.69.2-1.37.16-2.73.28-4.09.4-3.19.27-6.39.44-9.59.55-7.65.27-15.31.22-22.94-.18-3.85-.21-7.7-.53-11.53-1.01-1.64-.21,1.71.24.58.09-.33-.05-.66-.1-.98-.15-.69-.1-1.36-.21-2.04-.32-1.12-.2-2.24-.41-3.35-.66-1.36-.29-2.71-.64-4.03-1.08-.31-.1-.62-.21-.92-.33-.85-.34,2.22.99,1.37.58,1.08,2.67,2.18,5.35,3.26,8.03,3.04-11.98,6.07-23.95,9.11-35.93,1.68-6.63,3.36-13.25,5.04-19.89-2.28,1.74-4.57,3.47-6.85,5.21h47.79c-2.29-1.74-4.57-3.48-6.85-5.21,3.03,11.98,6.06,23.95,9.1,35.92,1.68,6.63,3.36,13.26,5.04,19.89.95,3.75,5.07,5.97,8.74,4.96,3.79-1.04,5.91-4.99,4.96-8.74Z"/>
          </g>
          <path class="st7" d="M152.56,287.67c30.61,0,38.03-4.33,38.03-4.33l-14.14-55.82h-47.79l-14.14,55.82s7.42,4.33,38.04,4.33Z"/>
        </g>
      </g>
    </g>
    <g>
      <g>
        <path class="st10" d="M158.37,242.1h-11.82l-6.95,20.84s.44,2.77,3.65,2.77,4.31-1.88,4.31-1.88c0,0,.86,2.64,4.85,2.64s4.85-2.64,4.85-2.64c0,0,1.47,1.88,4.31,1.88s3.65-2.77,3.65-2.77l-6.85-20.84Z"/>
        <path d="M158.37,235h-11.82c-3.29,0-5.85,2.19-6.86,5.22-1.89,5.67-3.78,11.34-5.67,17.01-.37,1.11-.74,2.21-1.1,3.31-.81,2.41-.24,4.49.76,6.66,1.76,3.84,6.34,5.91,10.39,5.58,3.84-.32,7.55-1.98,9.63-5.36-4.33-.56-8.66-1.14-13-1.7,3.56,10.39,19.85,10.39,23.42,0-3.96,1.04-7.92,2.09-11.88,3.13,2.12,2.63,5.73,3.63,8.92,3.94,3.99.4,8.31-2.27,10.03-5.84,1.04-2.15,1.43-4.27.66-6.61-.39-1.17-.78-2.34-1.16-3.52-1.82-5.54-3.65-11.08-5.47-16.61-1.21-3.68-4.87-6.03-8.74-4.96-3.59.99-6.18,5.06-4.96,8.74,2.29,6.95,4.57,13.89,6.85,20.84v-3.79c-.02.07-.05.14-.08.21,1.01-2.64.69-1.51.29-.87-.51.82,1.47-1.59.37-.59,1.14-.81,1.41-1.03.81-.66.39-.17.79-.33,1.18-.49-.69.19-.37.17.98-.06-.26.02-.51.02-.76,0,1.23.2,1.49.22.76.07-.71-.22-.46-.1.77.38-.26-.11-.51-.27-.75-.41-.96-.6,1.56,1.34.63.47-.1-.09-.19-.19-.27-.29-1.55-1.92-4.68-2.45-6.92-1.83-2.51.69-4.15,2.58-4.97,4.96-.22.65,1.03-2.26.58-1.39-.62,1.21,1.39-1.55.46-.56-.39.42-1.22.86.77-.55-.45.32-1.5.72.75-.22-.3.12-.61.19-.92.27,2.07-.48,1.06-.12.36-.11-.27,0-.54-.01-.81-.04,2.1.15,1.15.16.54-.02-1.19-.35,1.68.82.68.26-.98-.55,1.48,1.25.7.55-.14-.13-.27-.27-.39-.42,1.56,1.84,1.09,1.48.77.95-.59-.97.63,1.62.52,1.29-.82-2.39-2.46-4.28-4.96-4.96-3.13-.86-6.35.54-8.03,3.26-.29.49-1.01,1.22.93-1.19-.41.5-1.44,1.13.67-.41-.13.09-.27.17-.41.25-1,.58,1.84-.67.62-.28-.22.06-.44.11-.67.15,2.08-.41.95-.15.32-.17,1.32.22,1.62.24.93.07,1.24.58,1.55.7.94.38,1.08.9,1.37,1.12.87.66-.79-.71,1.14,1.62.58.79-.73-1.11.69,1.92.33.86-.03-.1-.05-.2-.07-.29v3.79c2.32-6.95,4.64-13.89,6.95-20.84-2.28,1.74-4.57,3.47-6.85,5.22h11.82c3.88,0,7.11-3.23,7.11-7.11s-3.23-7.1-7.11-7.1Z"/>
      </g>
      <path class="st3" d="M158.37,242.1h-11.82l-6.95,20.84s.44,2.77,3.65,2.77,4.31-1.88,4.31-1.88c0,0,.86,2.64,4.85,2.64s4.85-2.64,4.85-2.64c0,0,1.47,1.88,4.31,1.88s3.65-2.77,3.65-2.77l-6.85-20.84Z"/>
    </g>
    <g>
      <g>
        <path class="st10" d="M171.55,218.18l-19.14,4.15-19.14-4.15-7.2,12.11s.56,3.52,3.65,4.91c3.09,1.4,7.29-.17,7.29-.17,0,0,.51,5,5.51,5.92,4.99.94,9.9-2.03,9.91-2.03.01,0,4.92,2.97,9.91,2.03,5-.92,5.51-5.92,5.51-5.92,0,0,4.19,1.56,7.28.17,3.09-1.4,3.65-4.91,3.65-4.91l-7.2-12.11Z"/>
        <path d="M169.66,211.32c-6.38,1.39-12.76,2.77-19.14,4.15h3.78c-6.38-1.39-12.76-2.77-19.15-4.15-3.15-.69-6.33.41-8.02,3.26-2.31,3.88-4.61,7.75-6.91,11.62-2.6,4.38-.47,9.2,2.59,12.67,3.82,4.35,10.9,4.91,16.08,3.03-3-2.29-6-4.58-9-6.86.25,2.26.68,3.7,1.65,5.81,1.46,3.16,4.37,5.19,7.47,6.48,5.24,2.18,12.25.54,16.99-2.26h-7.18c4.73,2.8,11.75,4.44,16.99,2.26,3.17-1.32,5.91-3.32,7.47-6.48,1-2.03,1.41-3.61,1.65-5.81-3,2.28-6.01,4.57-9,6.86,5.36,1.96,11.63,1.12,15.86-2.8,1.79-1.66,3.08-4.15,3.71-6.48.6-2.2.29-4.37-.86-6.31-2.32-3.9-4.64-7.8-6.96-11.71-1.98-3.32-6.37-4.51-9.73-2.54-3.32,1.95-4.53,6.39-2.55,9.73,2.4,4.04,4.8,8.07,7.2,12.11-.24-1.82-.48-3.65-.72-5.47-.12.75-.96,2.55.16.01-.28.64-1.47,2.14.1.18-.2.24-.42.45-.65.66,1.47-1.36.93-.69.34-.35,1.64-.93.95-.37.27-.19-1.41.38,1.8-.14.36-.05-.37.02-.75,0-1.12-.02-1.41-.07,1.83.3.52.08-.72-.12-1.46-.29-2.16-.55-1.72-.63-3.95-.18-5.48.72-2.34,1.37-3.24,3.57-3.52,6.14.12-1.15.4-2.43.14-1.3-.04.19-.1.38-.15.57-.45,1.5.69-1.49.3-.63-.12.27-.28.53-.43.77-.78,1.28,1.1-1.29.36-.46-.42.46-1.55,1.19.42-.24-.16.11-.32.21-.49.31-1.07.63,1.78-.65.56-.21-.5.18-2.13.39,0,.13-.57.07-1.16.06-1.73.04-.28-.02-.56-.03-.84-.07,1.2.17,1.43.2.68.07-.62-.12-1.24-.29-1.84-.47-.42-.13-.84-.29-1.26-.45,2.3.89,1.01.43.48.19-.32-.16-.64-.32-.94-.51-2.17-1.29-5.01-1.28-7.18,0-.25.15-.5.28-.76.4-.29.15-.58.28-.87.4,2.45-1.07.51-.24-.09-.04-.48.15-.96.27-1.45.38-.26.06-.52.11-.78.16,1.22-.14,1.44-.18.66-.1-.57.05-1.14.05-1.71.02-.77-.07-.58-.04.58.09-.34-.05-.67-.16-1-.25-1.15-.36,1.75.92.31.06-.98-.58,1.52,1.36.36.27-1.13-1.08.92,1.33.32.47-.22-.3-.39-.64-.56-.97-.47-.95.79,2.05.35.8-.07-.2-.13-.4-.18-.61-.26-1.01-.13-1.02.11,1.17-.21-1.96-.63-3.58-2.08-5.03-1.68-1.68-4.59-2.68-6.91-1.83-.7.26-1.43.42-2.16.55-1.31.25,1.92-.2.52-.08-.37.03-.75.02-1.13.02-1.44-.03,1.8.35.36.05-.59-.12-1.6-.73.27.19-.52-.25-1.38-1.07.33.35-.24-.2-.45-.43-.65-.66,1.58,1.8.44.52.1-.18,1.17,2.44.3.78.16-.01-.24,1.82-.48,3.65-.72,5.47,2.4-4.04,4.8-8.07,7.2-12.11-2.67,1.09-5.35,2.18-8.03,3.26,6.11,1.33,12.23,2.66,18.35,3.98,1.64.36,3.24.46,4.92.1,1.25-.28,2.5-.55,3.75-.82,3.93-.84,7.85-1.7,11.77-2.55,1.09-.24,2.19-.47,3.28-.71,3.79-.82,5.95-5.17,4.97-8.74-1.07-3.89-4.96-5.79-8.75-4.96Z"/>
      </g>
      <path class="st3" d="M171.55,218.18l-19.14,4.15-19.14-4.15-7.2,12.11s.56,3.52,3.65,4.91c3.09,1.4,7.29-.17,7.29-.17,0,0,.51,5,5.51,5.92,4.99.94,9.9-2.03,9.91-2.03.01,0,4.92,2.97,9.91,2.03,5-.92,5.51-5.92,5.51-5.92,0,0,4.19,1.56,7.28.17,3.09-1.4,3.65-4.91,3.65-4.91l-7.2-12.11Z"/>
    </g>
    <g>
      <path class="st0" d="M170.16,218.44c0,9.8-7.95,17.74-17.75,17.74s-17.74-7.94-17.74-17.74,7.94-17.74,17.74-17.74,17.75,7.94,17.75,17.74Z"/>
      <path d="M166.92,218.44c-.05,5.18-2.74,9.87-7.19,12.53-4.49,2.68-10.15,2.57-14.64,0-4.47-2.56-7.14-7.42-7.19-12.53-.05-5.16,2.8-9.91,7.19-12.53,4.49-2.68,10.15-2.57,14.64,0,4.48,2.57,7.14,7.42,7.19,12.53.04,4.16,6.5,4.17,6.46,0-.06-6.27-2.85-12.35-7.78-16.28-5.18-4.12-11.82-5.58-18.26-4.08-5.97,1.4-11.21,5.76-13.83,11.27-2.85,5.99-2.65,12.86.3,18.77,4.3,8.63,14.46,12.8,23.67,10.66,9.31-2.17,15.81-10.95,15.9-20.35.04-4.17-6.42-4.16-6.46,0Z"/>
    </g>
    <g>
      <g>
        <path class="st10" d="M65.74,75.27c-.31,12.43,0,85.93,0,85.93,0,33.38,18.71,64.34,88.44,64.05,69.02-.28,85.35-30.67,85.35-64.05v-85.93H65.74Z"/>
        <path d="M56.7,75.27c-.36,14.6-.15,29.23-.13,43.83.02,13.75.07,27.5.12,41.25.06,14.31,2.91,28.93,11.16,40.91,5.36,7.78,12.31,14.12,20.42,18.95,9.33,5.55,19.94,8.99,30.56,11.04,14.28,2.76,28.97,3.45,43.48,2.87,12.93-.52,26.11-2.12,38.46-6.12,9.93-3.21,19.14-7.96,27.06-14.79,6.1-5.25,11.12-12.07,14.35-19.44,3.56-8.09,5.41-16.39,6.13-25.22.31-3.86.28-7.73.28-11.6v-81.69c0-4.93-4.12-9.05-9.05-9.05H65.74c-4.93,0-9.05,4.12-9.05,9.05s4.12,9.04,9.05,9.04h173.79c-3.01-3.01-6.03-6.03-9.04-9.04v77.12c0,6.8.16,13.6-.73,20.34.11-.8.21-1.6.32-2.4-.74,5.44-2.07,10.8-4.2,15.88.31-.72.61-1.44.91-2.16-1.67,3.95-3.82,7.67-6.43,11.07.47-.61.94-1.22,1.42-1.83-2.61,3.36-5.64,6.35-8.99,8.95.61-.47,1.22-.94,1.84-1.41-4.32,3.33-9.1,6-14.12,8.13.72-.3,1.44-.61,2.16-.91-8.57,3.61-17.7,5.69-26.89,6.94.8-.11,1.6-.21,2.4-.32-16.25,2.16-33.05,2.19-49.3.04.8.11,1.6.22,2.41.33-9.36-1.26-18.65-3.38-27.39-7.04.72.3,1.44.61,2.16.91-5.25-2.22-10.26-5-14.79-8.47.61.47,1.22.94,1.83,1.41-3.52-2.73-6.71-5.87-9.45-9.39.47.61.94,1.21,1.41,1.83-2.7-3.49-4.91-7.31-6.64-11.37.31.72.61,1.44.91,2.17-2.11-5.02-3.46-10.32-4.2-15.71.11.8.21,1.61.32,2.41-.6-4.53-.67-9.06-.69-13.62-.03-6.28-.04-12.56-.06-18.84-.06-17.52-.11-35.05-.04-52.59.02-3.82.02-7.65.12-11.47.12-4.93-4.2-9.05-9.05-9.05s-8.92,4.12-9.05,9.05Z"/>
      </g>
      <path class="st0" d="M65.74,75.27c-.31,12.43,0,85.93,0,85.93,0,33.38,18.71,64.34,88.44,64.05,69.02-.28,85.35-30.67,85.35-64.05v-85.93H65.74Z"/>
    </g>
    <path class="st6" d="M71.84,142.89s0-.01,0-.02c.02-.65.08-1.3.14-1.96.56-3.59,1.49-7.13,2.81-10.52.94-2.04,2.04-3.99,3.33-5.82,1.1-1.3,2.3-2.48,3.6-3.57,2.94-2.12,6.11-3.84,9.42-5.32,6.79-2.72,13.91-4.54,21-6.31,8.19-2.03,16.25-3.83,23.86-7.6,6.26-3.1,12.07-7.62,16.66-13.07.51.6,1.01,1.18,1.53,1.75,4.1,4.55,9.27,8.34,14.72,11.14,7.52,3.86,15.59,5.65,23.72,7.65,7.26,1.79,14.54,3.65,21.5,6.43,3.3,1.47,6.49,3.2,9.42,5.31,1.3,1.09,2.5,2.28,3.6,3.57,1.29,1.83,2.4,3.78,3.33,5.82,1.29,3.3,2.2,6.75,2.77,10.26.17,1.79.2,3.55.2,5.35v-10.67c0-2.22.01-4.37-.2-6.56-.57-3.5-1.48-6.95-2.77-10.26-.94-2.03-2.04-3.98-3.33-5.81-1.1-1.3-2.29-2.49-3.6-3.59-2.93-2.11-6.11-3.84-9.42-5.31-6.95-2.78-14.24-4.63-21.5-6.43-8.13-2-16.21-3.79-23.72-7.65-5.44-2.79-10.61-6.59-14.72-11.14-.51-.57-1.02-1.16-1.53-1.76-4.59,5.46-10.4,9.98-16.66,13.08-7.61,3.76-15.67,5.56-23.86,7.6-7.09,1.76-14.21,3.59-21,6.31-3.31,1.47-6.49,3.2-9.42,5.31-1.3,1.1-2.51,2.28-3.6,3.59-1.29,1.82-2.39,3.78-3.33,5.81-1.32,3.39-2.25,6.93-2.81,10.53-.07.65-.13,1.29-.14,1.95-.1,2.73,0,5.48,0,8.21v3.69Z"/>
    <g>
      <g>
        <g>
          <g>
            <g>
              <path class="st2" d="M84.24,154.36c0,8.56,6.94,15.51,15.5,15.51s15.51-6.94,15.51-15.51-6.95-15.5-15.51-15.5-15.5,6.94-15.5,15.5Z"/>
              <path d="M82.94,154.36c.07,5.83,3.03,11.13,7.94,14.27,4.95,3.17,11.35,3.25,16.55.67,5.18-2.57,8.47-7.85,9.05-13.52.6-5.82-2.2-11.42-6.76-14.93-5.03-3.88-12.06-4.21-17.66-1.43-5.6,2.79-9.04,8.77-9.11,14.94-.02,1.67,2.57,1.67,2.59,0,.06-5.83,3.61-11.12,9.08-13.26,5.54-2.17,11.79-.51,15.76,3.82,3.99,4.34,4.62,10.97,1.93,16.12-2.76,5.25-8.53,8.02-14.33,7.43-7.09-.73-12.35-7.17-12.43-14.12-.02-1.67-2.61-1.67-2.59,0Z"/>
            </g>
            <path class="st1" d="M89.73,160.06c0,1.39,1.13,2.5,2.51,2.5s2.51-1.11,2.51-2.5-1.13-2.52-2.51-2.52-2.51,1.12-2.51,2.52Z"/>
            <path class="st1" d="M98.24,152.29c0,3.58,2.9,6.48,6.48,6.48s6.49-2.9,6.49-6.48-2.9-6.49-6.49-6.49-6.48,2.9-6.48,6.49Z"/>
          </g>
          <path class="st9" d="M101.7,177.02c.74,2.06-2.47,5.12-7.18,6.82-4.72,1.71-9.15,1.43-9.89-.63-.74-2.05,2.48-5.1,7.19-6.82,4.72-1.71,9.14-1.43,9.89.63Z"/>
        </g>
        <g>
          <g>
            <g>
              <path class="st2" d="M189.9,154.36c0,8.56,6.94,15.51,15.5,15.51s15.5-6.94,15.5-15.51-6.94-15.5-15.5-15.5-15.5,6.94-15.5,15.5Z"/>
              <path d="M188.61,154.36c.07,5.83,3.02,11.13,7.94,14.27,4.95,3.17,11.35,3.25,16.55.67,5.17-2.57,8.46-7.85,9.04-13.52.6-5.82-2.2-11.42-6.76-14.93-5.04-3.88-12.06-4.21-17.66-1.43-5.6,2.79-9.03,8.77-9.11,14.94-.01,1.67,2.56,1.67,2.59,0,.06-5.83,3.61-11.12,9.08-13.26,5.53-2.17,11.79-.51,15.76,3.82,3.99,4.34,4.63,10.97,1.92,16.12-2.75,5.25-8.53,8.02-14.33,7.43-7.09-.73-12.35-7.17-12.43-14.12-.02-1.67-2.6-1.67-2.59,0Z"/>
            </g>
            <path class="st1" d="M195.39,160.06c0,1.39,1.13,2.5,2.52,2.5s2.52-1.11,2.52-2.5-1.13-2.52-2.52-2.52-2.52,1.12-2.52,2.52Z"/>
            <path class="st1" d="M203.91,152.29c0,3.58,2.9,6.48,6.49,6.48s6.49-2.9,6.49-6.48-2.9-6.49-6.49-6.49-6.49,2.9-6.49,6.49Z"/>
          </g>
          <path class="st9" d="M203.44,177.02c-.75,2.06,2.47,5.12,7.19,6.82,4.72,1.71,9.14,1.43,9.88-.63.75-2.05-2.47-5.1-7.19-6.82-4.71-1.71-9.14-1.43-9.88.63Z"/>
        </g>
      </g>
      <path d="M138.54,194.41c.69,14.29,26.54,14.03,28.06.22.18-1.59-1.47-2.94-2.94-2.94-1.73,0-2.77,1.35-2.94,2.94.17-1.52-.01-.16-.15.29-.05.15-.11.3-.16.45.37-.95.1-.27,0-.05-.09.19-.2.37-.31.55-.1.18-.7.99-.15.28-.33.43-.72.81-1.13,1.17-.25.2-.23.18.06-.05-.13.09-.25.19-.39.27-.35.24-.72.44-1.1.62-.31.14-.32.15-.05.04-.18.07-.37.14-.55.2-.49.18-1,.3-1.51.41-.99.23-1.84.25-2.94.27-.88.02-1.95-.07-2.55-.18-.42-.07-.83-.18-1.23-.29-.19-.06-1.37-.51-.88-.29-.31-.14-.6-.31-.89-.48-.14-.08-.27-.17-.4-.26-.64-.43.45.39-.12-.09-.21-.18-.42-.38-.61-.58-.09-.1-.18-.2-.27-.3-.45-.51.38.53,0,0-.27-.36-.49-.77-.68-1.18-.24-.48.28.73.01.02-.08-.2-.14-.41-.2-.61-.08-.28-.13-.55-.18-.84.19,1.21.09.7.07.42-.08-1.61-1.28-2.94-2.94-2.94-1.54,0-3.01,1.34-2.94,2.94h0Z"/>
    </g>
    <polygon points="145.34 265.41 148.7 253.77 148.76 265.39 145.34 265.41"/>
    <polygon points="159.46 265.41 156.1 253.77 156.05 265.39 159.46 265.41"/>
  </g>
  <g>
    <g>
      <path class="st10" d="M275.83,171.41c11.65-3.02,20.26-13.6,20.26-26.19s-8.91-23.55-20.87-26.35c.13-24.71-4.73-72.8-41.85-95.85-48.82-30.34-78.33-2.22-80.74.22v-.04s-.04.04-.06.06c-.01-.02-.03-.03-.05-.06v.04c-2.41-2.44-31.91-30.56-80.74-.22C34.66,46.08,29.79,94.17,29.93,118.88c-11.96,2.79-20.87,13.53-20.87,26.35s8.61,23.17,20.26,26.19c-11.65,3.01-20.26,13.6-20.26,26.19,0,14.94,12.11,27.05,27.05,27.05,12.35,0,22.77-8.27,26.01-19.58,0,0,.89-10.81.59-12.42v-56.67s.61-18.54,12.58-28.32c10.88-8.89,26.78-11.94,44.84-16.48,25.81-6.49,31.87-25.49,32.39-27.28v.12c.03-.09.04-.14.05-.19.01.04.03.1.06.19v-.12c.52,1.8,6.58,20.79,32.4,27.28,18.06,4.54,33.96,7.59,44.84,16.48,11.96,9.78,12.57,28.32,12.57,28.32v56.67c-.29,1.6.59,12.42.59,12.42,3.24,11.31,13.66,19.58,26.01,19.58,14.94,0,27.06-12.11,27.06-27.05,0-12.59-8.61-23.18-20.26-26.19Z"/>
      <path d="M278.24,180.13c15.83-4.22,27.01-18.96,26.89-35.34-.12-16.2-11.77-30.85-27.51-34.64,2.21,2.91,4.42,5.81,6.63,8.72.12-22.66-3.64-45.64-13.37-66.22-5.63-11.91-13.87-22.92-24.19-31.15-6.72-5.35-14.05-9.78-21.89-13.31-7.24-3.26-14.73-5.87-22.59-7.11-11.82-1.86-24.05-1.29-35.3,3.04-7.11,2.73-13.59,6.41-19.33,11.44-.47.41-.93.83-1.37,1.28,5.15,2.13,10.29,4.26,15.45,6.4v-.04c0-7.87-9.87-12-15.45-6.4-.01.02-.03.04-.05.06h12.79s-.03-.04-.06-.06c-5.56-5.63-15.44-1.45-15.44,6.4v.04c5.15-2.14,10.3-4.27,15.44-6.4-3.65-3.68-8.16-6.74-12.72-9.16C136.64,2.62,125.95.03,115.15,0c-15.92-.06-31.42,5.56-45.04,13.46-12.71,7.37-23.16,17.65-30.92,30.12-12.58,20.22-17.4,44.74-18.21,68.26-.08,2.34-.11,4.69-.1,7.04,2.21-2.91,4.43-5.81,6.64-8.72-7.25,1.74-14.19,5.95-18.91,11.74C3.24,128.48.2,136.27,0,144.8c-.37,16.33,11.25,31.16,26.89,35.34v-17.45C10.67,167.02-1.03,182.71.08,199.6c.56,8.51,3.92,16.25,9.6,22.58,4.98,5.58,12.31,9.61,19.67,10.85,7.63,1.29,14.92.35,21.99-2.75,6.14-2.69,11.09-7.37,14.89-12.82,1.86-2.67,3.19-5.77,4.25-8.84.65-1.89.72-3.93.86-5.91.31-4.17.73-8.31.09-12.47.11.8.22,1.61.32,2.41v-42.48c0-5.77-.44-11.7.31-17.43-.1.8-.21,1.6-.32,2.4.58-4.33,1.68-8.59,3.36-12.63-.31.72-.61,1.44-.92,2.16,1.21-2.83,2.7-5.53,4.58-7.97-.47.61-.95,1.22-1.41,1.83,1.54-1.96,3.29-3.69,5.26-5.22-.61.47-1.22.95-1.83,1.42,3.49-2.65,7.35-4.72,11.38-6.42-.72.3-1.44.61-2.15.91,7.11-2.96,14.6-4.89,22.07-6.74,8.22-2.04,16.3-3.86,23.94-7.64,9.48-4.71,17.95-12.72,22.66-22.27.99-2,1.93-4.11,2.56-6.27-5.92-.8-11.85-1.6-17.77-2.4v.12c0,4.02,2.76,7.65,6.64,8.72,4.8,1.32,9.75-1.58,11.12-6.31.02-.07.04-.13.06-.19h-17.45c.02.06.04.12.05.19,1.14,3.87,4.65,6.64,8.73,6.64,4.93,0,9.05-4.12,9.05-9.05v-.12c-5.93.8-11.85,1.61-17.77,2.4,2.06,7.08,6.56,13.64,11.72,18.79,4.57,4.58,10.13,8.33,16.05,10.94,7.95,3.48,16.37,5.16,24.75,7.3,6.34,1.61,12.67,3.38,18.72,5.89-.72-.3-1.44-.61-2.16-.91,4.03,1.7,7.89,3.77,11.38,6.42-.61-.47-1.22-.95-1.83-1.42,1.97,1.53,3.72,3.26,5.26,5.22-.47-.61-.94-1.22-1.42-1.83,1.88,2.45,3.37,5.14,4.58,7.97-.31-.72-.61-1.44-.91-2.16,1.67,4.04,2.77,8.3,3.35,12.63-.11-.8-.21-1.6-.32-2.4.48,3.72.31,7.46.31,11.21v48.71c.11-.8.21-1.61.32-2.41-.74,4.72-.15,9.51.22,14.24.59,7.44,5.31,14.87,10.78,19.77,6.52,5.86,14.74,9.09,23.48,9.43,7.63.29,15.78-2.19,21.86-6.8,2.54-1.93,4.88-3.91,6.85-6.43,2.54-3.26,4.29-6.37,5.89-10.19,2.63-6.29,2.73-13.37,1.57-19.99-2.33-13.24-13.34-24.17-26.13-27.59-4.76-1.27-9.82,1.54-11.13,6.32-1.3,4.72,1.55,9.85,6.32,11.12,1.29.35,2.53.77,3.77,1.28-.72-.3-1.45-.61-2.16-.91,2.17.94,4.19,2.13,6.06,3.57-.61-.47-1.22-.94-1.83-1.41,1.84,1.46,3.48,3.11,4.91,4.96-.47-.61-.94-1.21-1.41-1.83,1.34,1.79,2.45,3.7,3.35,5.74-.3-.72-.61-1.44-.91-2.16.94,2.23,1.58,4.54,1.92,6.93-.11-.8-.21-1.6-.32-2.41.32,2.43.32,4.86.02,7.29.11-.8.22-1.6.33-2.41-.34,2.43-.98,4.78-1.93,7.05.3-.72.61-1.44.91-2.17-.91,2.08-2.04,4.03-3.42,5.84.48-.61.95-1.22,1.42-1.83-1.47,1.88-3.13,3.55-5.02,5.02.61-.47,1.22-.94,1.83-1.41-1.81,1.37-3.76,2.51-5.84,3.42.72-.3,1.44-.61,2.16-.91-2.26.94-4.61,1.58-7.05,1.92.8-.1,1.6-.21,2.41-.32-2.44.3-4.86.29-7.3-.02.81.11,1.6.21,2.41.32-2.4-.35-4.71-.99-6.94-1.93.72.3,1.44.61,2.16.92-2.05-.9-3.97-2.02-5.75-3.37.61.47,1.22.94,1.83,1.41-1.86-1.45-3.52-3.1-4.97-4.94.47.61.94,1.22,1.41,1.83-1.44-1.88-2.62-3.91-3.56-6.09.31.72.61,1.44.92,2.17-.41-.98-.76-1.99-1.06-3,.1.8.21,1.6.32,2.4-.15-1.82-.28-3.64-.4-5.46-.14-2.24-.46-4.63-.21-6.87-.11.8-.21,1.61-.32,2.41.35-2.21.34-4.24.34-6.46v-38.01c0-4.89.16-9.81,0-14.69-.12-3.53-.74-7.11-1.52-10.55-1.41-6.19-3.92-12.45-7.72-17.56-3.67-4.92-8.12-8.77-13.42-11.89-5.08-2.96-10.69-5.11-16.28-6.92-5.46-1.77-11.03-3.14-16.61-4.51-5.7-1.41-11.47-2.62-16.91-4.91.72.31,1.44.61,2.16.91-3.77-1.62-7.32-3.65-10.58-6.14.61.47,1.22.95,1.83,1.42-2.87-2.23-5.46-4.8-7.68-7.69.47.61.94,1.21,1.41,1.83-1.93-2.53-3.59-5.28-4.84-8.21.31.72.61,1.44.92,2.17-.33-.8-.65-1.61-.89-2.44-1.13-3.88-4.65-6.64-8.72-6.64-4.93,0-9.05,4.12-9.05,9.04v.12c5.92-.81,11.85-1.61,17.77-2.41-.02-.06-.03-.13-.05-.19-1.13-3.87-4.65-6.64-8.73-6.64s-7.59,2.77-8.72,6.64c-.02.06-.03.12-.05.19,5.93.8,11.85,1.6,17.77,2.41v-.12c0-4.02-2.76-7.65-6.64-8.72-4.81-1.32-9.75,1.59-11.13,6.32-.24.83-.55,1.63-.89,2.44.3-.72.61-1.44.91-2.17-1.25,2.94-2.9,5.68-4.84,8.21.47-.62.94-1.22,1.42-1.83-2.23,2.88-4.82,5.45-7.69,7.69.61-.47,1.22-.94,1.83-1.42-3.26,2.49-6.81,4.53-10.58,6.14.72-.3,1.44-.61,2.16-.91-7.39,3.1-15.43,4.48-23.16,6.47-7.88,2.03-15.64,4.43-23.01,7.94-7.22,3.46-13.39,8.44-17.93,15.04-3.54,5.13-5.8,11.36-7.08,17.43-1.02,4.81-1.28,9.38-1.28,14.22v43.73c0,3.56-.22,7.14.33,10.66-.11-.8-.22-1.6-.32-2.41.25,2.25-.07,4.63-.21,6.87-.12,1.82-.25,3.64-.4,5.46.1-.8.21-1.6.32-2.4-.3,1.02-.65,2.02-1.06,3,.31-.72.61-1.44.91-2.17-.93,2.18-2.12,4.21-3.56,6.09.47-.61.94-1.22,1.41-1.83-1.46,1.85-3.11,3.49-4.97,4.94.61-.47,1.22-.94,1.83-1.41-1.78,1.34-3.7,2.46-5.74,3.37.72-.31,1.44-.61,2.16-.92-2.23.94-4.55,1.59-6.95,1.93.8-.11,1.6-.21,2.41-.32-2.44.32-4.87.32-7.3.02.8.1,1.6.21,2.41.32-2.43-.34-4.78-.98-7.04-1.92.72.3,1.44.61,2.16.91-2.08-.91-4.03-2.05-5.84-3.42.61.47,1.22.95,1.83,1.41-1.88-1.47-3.55-3.13-5.01-5.02.47.61.94,1.22,1.41,1.83-1.37-1.81-2.51-3.75-3.41-5.84.3.72.61,1.44.91,2.17-.95-2.27-1.59-4.62-1.93-7.05.11.8.22,1.6.33,2.41-.31-2.43-.3-4.86.02-7.29-.11.81-.21,1.61-.32,2.41.35-2.39.98-4.7,1.92-6.93-.31.72-.61,1.44-.91,2.16.89-2.05,2.01-3.96,3.35-5.74-.47.62-.95,1.22-1.41,1.83,1.43-1.85,3.07-3.51,4.91-4.96-.61.47-1.21.95-1.83,1.41,1.88-1.44,3.9-2.62,6.06-3.57-.72.3-1.44.61-2.16.91,1.23-.51,2.47-.93,3.76-1.28,3.88-1.03,6.64-4.72,6.64-8.72s-2.76-7.69-6.64-8.72c-1.29-.34-2.54-.77-3.76-1.28.72.31,1.44.61,2.16.92-2.16-.94-4.19-2.13-6.06-3.57.62.47,1.22.94,1.83,1.41-1.84-1.46-3.48-3.12-4.91-4.97.46.61.94,1.22,1.41,1.83-1.34-1.79-2.46-3.69-3.35-5.74.3.72.61,1.44.91,2.16-.94-2.23-1.58-4.54-1.92-6.93.11.8.21,1.61.32,2.41-.32-2.47-.32-4.94,0-7.41-.11.8-.22,1.6-.32,2.4.34-2.38.98-4.68,1.9-6.9-.3.72-.61,1.44-.91,2.17.94-2.16,2.12-4.17,3.56-6.03-.47.61-.94,1.22-1.41,1.84,1.45-1.84,3.09-3.46,4.94-4.9-.61.47-1.21.94-1.83,1.42,1.88-1.42,3.9-2.58,6.07-3.49-.72.3-1.44.61-2.16.91,1.35-.54,2.73-.99,4.15-1.33,3.88-.94,6.66-4.8,6.64-8.72-.04-8.09.46-16.19,1.54-24.22-.11.8-.22,1.6-.32,2.4,1.56-11.45,4.32-22.78,8.82-33.44-.3.72-.6,1.44-.91,2.16,3.05-7.15,6.88-13.96,11.62-20.14-.47.62-.94,1.22-1.41,1.83,3.95-5.09,8.49-9.69,13.57-13.66-.61.47-1.22.95-1.83,1.41,6.45-4.98,13.72-8.99,21.22-12.19-.72.3-1.44.61-2.16.92,6.35-2.66,12.96-4.63,19.78-5.59-.8.11-1.6.21-2.4.32,5.48-.74,11.03-.8,16.52-.08-.8-.11-1.61-.21-2.4-.32,4.97.68,9.82,2,14.45,3.95-.72-.31-1.44-.61-2.16-.91,4.16,1.77,8.1,4.02,11.68,6.78-.61-.47-1.22-.95-1.83-1.41,1.18.91,2.35,1.89,3.41,2.95,5.57,5.61,15.45,1.47,15.45-6.4v-.04c-5.15,2.14-10.3,4.27-15.45,6.4.02.02.04.04.06.06,3.46,3.49,9.33,3.48,12.79,0,.01-.02.03-.04.06-.06-5.15-2.12-10.3-4.26-15.45-6.4v.04c0,7.86,9.88,12,15.45,6.4,1.06-1.07,2.22-2.04,3.41-2.95-.61.47-1.22.94-1.84,1.41,3.58-2.75,7.53-5.01,11.68-6.78-.72.3-1.44.61-2.16.91,4.62-1.95,9.48-3.27,14.45-3.95-.8.11-1.6.21-2.41.32,5.49-.72,11.03-.66,16.52.08-.8-.11-1.6-.22-2.4-.32,6.82.95,13.43,2.93,19.78,5.59-.72-.3-1.45-.61-2.16-.92,7.5,3.19,14.76,7.21,21.22,12.19-.61-.47-1.22-.94-1.83-1.41,5.09,3.96,9.62,8.57,13.57,13.66-.47-.61-.95-1.21-1.41-1.83,4.74,6.18,8.57,12.99,11.61,20.14-.3-.72-.6-1.44-.91-2.16,4.5,10.67,7.26,21.99,8.82,33.44-.11-.8-.22-1.6-.33-2.4,1.07,8.03,1.57,16.12,1.53,24.22-.02,3.93,2.76,7.79,6.64,8.72,1.42.34,2.79.79,4.14,1.33-.72-.3-1.44-.61-2.16-.91,2.17.91,4.19,2.08,6.07,3.49-.61-.47-1.22-.95-1.83-1.42,1.85,1.43,3.5,3.06,4.94,4.9-.47-.61-.94-1.22-1.41-1.84,1.43,1.87,2.62,3.87,3.56,6.03-.3-.72-.61-1.44-.91-2.17.92,2.22,1.56,4.52,1.9,6.9-.11-.8-.22-1.6-.32-2.4.32,2.47.32,4.94,0,7.41.11-.8.22-1.61.32-2.41-.34,2.4-.98,4.71-1.92,6.93.31-.73.61-1.44.91-2.16-.9,2.05-2.01,3.95-3.35,5.74.47-.61.95-1.22,1.41-1.83-1.43,1.85-3.07,3.51-4.91,4.97.61-.47,1.22-.95,1.83-1.41-1.87,1.44-3.89,2.62-6.06,3.57.72-.31,1.44-.61,2.16-.92-1.24.51-2.48.94-3.77,1.28-4.76,1.27-7.61,6.4-6.32,11.12,1.31,4.79,6.37,7.59,11.13,6.32Z"/>
    </g>
    <path class="st3" d="M275.83,171.41c11.65-3.02,20.26-13.6,20.26-26.19s-8.91-23.55-20.87-26.35c.13-24.71-4.73-72.8-41.85-95.85-48.82-30.34-78.33-2.22-80.74.22v-.04s-.04.04-.06.06c-.01-.02-.03-.03-.05-.06v.04c-2.41-2.44-31.91-30.56-80.74-.22C34.66,46.08,29.79,94.17,29.93,118.88c-11.96,2.79-20.87,13.53-20.87,26.35s8.61,23.17,20.26,26.19c-11.65,3.01-20.26,13.6-20.26,26.19,0,14.94,12.11,27.05,27.05,27.05,12.35,0,22.77-8.27,26.01-19.58,0,0,.89-10.81.59-12.42v-56.67s.61-18.54,12.58-28.32c10.88-8.89,26.78-11.94,44.84-16.48,25.81-6.49,31.87-25.49,32.39-27.28v.12c.03-.09.04-.14.05-.19.01.04.03.1.06.19v-.12c.52,1.8,6.58,20.79,32.4,27.28,18.06,4.54,33.96,7.59,44.84,16.48,11.96,9.78,12.57,28.32,12.57,28.32v56.67c-.29,1.6.59,12.42.59,12.42,3.24,11.31,13.66,19.58,26.01,19.58,14.94,0,27.06-12.11,27.06-27.05,0-12.59-8.61-23.18-20.26-26.19Z"/>
    <g>
      <path class="st8" d="M29.31,185.11c-4.64-1.2-8.79-3.6-12.11-6.85-5.03,4.91-8.15,11.76-8.15,19.34,0,2.37.31,4.66.87,6.85,2.47-9.45,9.92-16.89,19.38-19.34Z"/>
      <path class="st8" d="M29.93,132.57c-.13-24.71,4.73-72.79,41.85-95.85,48.83-30.33,78.33-2.22,80.74.22v-.04s.04.04.05.05c.02-.02.04-.04.06-.05v.04c2.41-2.44,31.92-30.55,80.74-.22,37.12,23.06,41.99,71.14,41.85,95.85,9.75,2.28,17.48,9.84,20,19.5.57-2.19.88-4.48.88-6.85,0-12.81-8.91-23.55-20.87-26.35.13-24.71-4.73-72.8-41.85-95.85-48.82-30.34-78.33-2.22-80.74.22v-.04s-.04.04-.06.06c-.01-.02-.03-.03-.05-.06v.04c-2.41-2.44-31.91-30.56-80.74-.22C34.66,46.08,29.79,94.17,29.93,118.88c-11.96,2.79-20.87,13.53-20.87,26.35,0,2.37.31,4.66.87,6.85,2.52-9.66,10.24-17.21,20-19.5Z"/>
      <path class="st8" d="M242.44,196.11v-3.45c-.09.48-.07,1.82,0,3.45Z"/>
      <path class="st8" d="M287.95,178.26c-3.32,3.24-7.48,5.65-12.11,6.85,9.46,2.45,16.91,9.89,19.38,19.34.57-2.19.88-4.48.88-6.85,0-7.58-3.12-14.43-8.15-19.34Z"/>
      <path class="st8" d="M62.71,196.11c.07-1.63.09-2.97,0-3.45v3.45Z"/>
    </g>
    <g>
      <path class="st11" d="M29.31,156.42c-9.24-2.39-16.57-9.55-19.2-18.69-.68,2.38-1.06,4.89-1.06,7.5,0,7.25,2.86,13.83,7.51,18.69,3.42-3.57,7.81-6.22,12.75-7.5Z"/>
      <path class="st11" d="M62.71,181.11c-.16,3.73-.59,8.97-.59,8.97-3.24,11.31-13.66,19.58-26.01,19.58s-22.75-8.26-25.99-19.55c-.68,2.38-1.06,4.88-1.06,7.49,0,14.94,12.11,27.05,27.05,27.05,12.35,0,22.77-8.27,26.01-19.58,0,0,.89-10.81.59-12.42v-11.55Z"/>
      <path class="st11" d="M269.03,209.66c-12.35,0-22.77-8.27-26.01-19.58,0,0-.43-5.24-.59-8.97v11.55c-.29,1.6.59,12.42.59,12.42,3.24,11.31,13.66,19.58,26.01,19.58,14.94,0,27.06-12.11,27.06-27.05,0-2.6-.38-5.11-1.06-7.49-3.24,11.29-13.66,19.55-26,19.55Z"/>
      <path class="st11" d="M275.83,156.42c4.94,1.28,9.33,3.93,12.75,7.5,4.64-4.86,7.5-11.44,7.5-18.69,0-2.61-.38-5.12-1.06-7.5-2.63,9.14-9.95,16.3-19.2,18.69Z"/>
      <path class="st11" d="M242.44,121s-.61-18.55-12.57-28.33c-10.89-8.89-26.78-11.94-44.84-16.48-25.82-6.49-31.88-25.49-32.4-27.28v.12c-.03-.09-.04-.14-.06-.19,0,.04-.03.1-.05.19v-.12c-.52,1.79-6.58,20.78-32.39,27.28-18.07,4.54-33.96,7.59-44.84,16.48-11.97,9.78-12.58,28.33-12.58,28.33v14.99s.61-18.54,12.58-28.32c10.88-8.89,26.78-11.94,44.84-16.48,25.81-6.49,31.87-25.49,32.39-27.28v.12c.03-.09.04-.14.05-.19.01.04.03.1.06.19v-.12c.52,1.8,6.58,20.79,32.4,27.28,18.06,4.54,33.96,7.59,44.84,16.48,11.96,9.78,12.57,28.32,12.57,28.32v-14.99Z"/>
    </g>
    <g>
      <path class="st8" d="M216.03,35.42c10.25,4.47,17,11.67,15.08,16.06-1.92,4.41-11.79,4.35-22.04-.11-10.25-4.47-17-11.66-15.08-16.07,1.92-4.41,11.79-4.36,22.04.11Z"/>
      <path class="st8" d="M240.55,55.11c0,1.86-1.5,3.36-3.35,3.36s-3.36-1.5-3.36-3.36,1.51-3.36,3.36-3.36,3.35,1.5,3.35,3.36Z"/>
    </g>
    <path d="M15.96,125.19c.11-.11.22-.21.34-.32.33-.29,1.65-1.33.42-.39,1.32-1,2.75-1.83,4.24-2.55.23-.1.45-.21.68-.31-1.02.45-.17.08.03,0,.51-.2,1.04-.38,1.56-.55,1.26-.39,2.55-.68,3.85-.88-.97.16.13,0,.28-.02.34-.03.68-.05,1.02-.07.71-.05,1.42-.05,2.13-.04.76.01,1.51.08,2.26.15,1.27.13-.75-.12.54.08.55.08,1.09.19,1.63.31,1.43.31,2.84.71,4.21,1.24.74.29-.87-.39-.14-.06.19.08.38.18.57.27.44.22.88.47,1.29.73.36.22.72.46,1.06.71.21.15.83.65-.11-.09.17.13.33.27.5.42.71.59,1.38,1.27,2,1.96.29.32.57.66.84,1.01-.8-1.01.13.2.31.46.55.79,1.04,1.62,1.48,2.47.21.4.4.8.59,1.2.1.23.42.99-.03-.1.09.21.17.42.25.62.35.91.64,1.84.89,2.77.23.87.4,1.74.53,2.63-.21-1.36.01.18.04.51.04.51.07,1.02.08,1.54.02.87-.03,1.74-.12,2.62-.03.27-.15,1.07.03-.17-.03.21-.07.42-.11.63-.09.49-.2.98-.33,1.47-.1.41-.23.82-.37,1.22-.07.2-.14.4-.22.61-.28.74.38-.88.06-.14-.37.84-.83,1.65-1.33,2.41-.12.18-.25.36-.37.54-.47.63.58-.73.07-.11-.27.34-.57.66-.87.98-.31.32-.64.61-.97.91-.17.14-.35.29-.52.43.94-.76.07-.08-.14.07-.79.54-1.64,1-2.51,1.41-.81.38.83-.33,0,0-.24.1-.48.18-.73.27-.59.21-1.19.39-1.8.55-.55.14-1.1.25-1.66.36-.29.05-.58.1-.87.14,1.04-.16,0,0-.18.02-1.49.16-3,.2-4.5.11-.36-.02-.72-.06-1.07-.1.89.1-.24-.05-.35-.07-.66-.12-1.31-.29-1.96-.49-.31-.1-.62-.21-.93-.32-1-.38.7.33-.25-.12-.66-.31-1.28-.69-1.89-1.12-.85-.58.6.51-.18-.15-.24-.2-.46-.42-.68-.63-.22-.21-.42-.44-.62-.68-.68-.78.44.65-.15-.2-.37-.53-.67-1.09-.95-1.65-.48-.96.27.74-.12-.29-.16-.42-.28-.86-.4-1.3-.12-.45-.21-.9-.29-1.36.06.46.06.46.01.01-.03-.34-.05-.68-.06-1.02-.02-.57,0-1.12.05-1.68.05-.46.04-.45-.02.04.05-.32.11-.65.17-.98.11-.54.27-1.06.44-1.57.07-.2.14-.41.22-.61-.33.86.07-.12.14-.24.23-.48.51-.93.8-1.36.26-.36.24-.35-.04.02.2-.25.4-.48.62-.71.28-.31.59-.58.9-.86.34-.28.33-.26-.04.03.25-.19.53-.35.79-.5.18-.11.37-.21.56-.31.94-.48-.74.26.26-.12.52-.19,1.07-.32,1.61-.44.45-.07.45-.08,0,0,.32-.04.64-.05.96-.06.42-.01.83.01,1.24.04.43.05.34.03-.26-.04.27.04.53.1.79.16.44.1.87.24,1.29.39-1.01-.36.11.08.33.2.16.09.32.19.48.28.81.51-.62-.54.12.07.2.16,1.17,1.28.57.5.31.41.55.87.77,1.33-.18-.43-.19-.43-.03,0,.12.33.19.67.27,1.01.08.46.08.48.02.08.03.29.01.58,0,.87.08-.54.08-.6-.02-.15-.04.19-.45,1.04-.05.22-.1.19-.21.36-.32.54.45-.72-.08.06-.22.2q.36-.25,0,0c-.84.57.67-.15-.33.18-.45.09-.47.12-.04.07-.32.04-.64.04-.96.03.56.1.64.1.23.02-.83-.19.76.42.08.04.49.42.6.49.31.22-.55-.49.52.8.13.19-.53-.83.25.85-.01-.05-.03-.11-.05-.21-.07-.32-.14-.66.12,1.08.06.46-.02-.24-.03-.49,0-.73.18-2.11-1.9-3.88-3.87-3.88-2.26,0-3.7,1.77-3.89,3.88-.14,1.57.35,3.39,1.19,4.7,1.98,3.08,5.92,3.85,9.25,2.72,3.77-1.28,6.08-4.76,6.32-8.65.2-3.24-1.52-6.83-3.9-8.97-4.61-4.14-11.83-4.33-17.03-1.21-5.49,3.29-8.14,10.12-7.5,16.33.36,3.51,1.56,6.67,3.73,9.45,1.92,2.45,4.55,4.04,7.42,5.17,5.25,2.08,11.9,1.65,17.19-.1,4.48-1.48,8.26-4.24,10.92-8.14,2.31-3.39,3.32-7.62,3.43-11.69.23-7.98-3.38-16.59-9.57-21.71-8.62-7.1-21.83-7.34-31.49-2.29-1.96,1.03-3.96,2.34-5.51,3.93-1.47,1.52-1.51,3.98,0,5.49,1.48,1.48,4.01,1.51,5.48,0h0Z"/>
    <path d="M15.96,178.72c.11-.11.22-.21.34-.32.33-.29,1.65-1.33.42-.39,1.32-1,2.75-1.84,4.24-2.55.23-.1.45-.21.68-.31-1.02.45-.17.08.03,0,.51-.2,1.04-.38,1.56-.54,1.26-.4,2.55-.68,3.85-.88-.97.15.13,0,.28-.02.34-.03.68-.05,1.02-.08.71-.04,1.42-.04,2.13-.03.76.01,1.51.07,2.26.15,1.27.13-.75-.13.54.08.55.09,1.09.2,1.63.31,1.43.3,2.84.7,4.21,1.23.74.28-.87-.39-.14-.06.19.09.38.18.57.28.44.22.88.47,1.29.73.36.22.72.46,1.06.71.21.15.83.64-.11-.09.17.13.33.27.5.41.71.6,1.38,1.27,2,1.96.29.33.57.67.84,1.01-.8-1.01.13.2.31.46.55.79,1.04,1.62,1.48,2.47.21.4.4.8.59,1.2.1.23.42.98-.03-.1.09.2.17.42.25.62.35.9.64,1.83.89,2.77.23.86.4,1.74.53,2.62-.21-1.36.01.19.04.51.04.51.07,1.02.08,1.54.02.88-.03,1.75-.12,2.62-.03.27-.15,1.07.03-.17-.03.21-.07.43-.11.63-.09.5-.2.98-.33,1.47-.1.41-.23.82-.37,1.22-.07.2-.14.4-.22.6-.28.74.38-.87.06-.14-.37.84-.83,1.64-1.33,2.41-.12.18-.25.35-.37.53-.47.65.58-.72.07-.1-.27.33-.57.66-.87.97-.31.32-.64.62-.97.91-.17.15-.35.29-.52.43.94-.76.07-.08-.14.07-.79.54-1.64,1-2.51,1.41-.81.38.83-.33,0,0-.24.1-.48.18-.73.27-.59.21-1.19.39-1.8.54-.55.15-1.1.27-1.66.37-.29.06-.58.1-.87.14,1.04-.16,0-.01-.18,0-1.49.16-3,.2-4.5.11-.36-.02-.72-.06-1.07-.1.89.1-.24-.06-.35-.07-.66-.13-1.31-.3-1.96-.5-.31-.09-.62-.21-.93-.32-1-.38.7.33-.25-.12-.66-.32-1.28-.7-1.89-1.11-.85-.59.6.51-.18-.16-.24-.2-.46-.42-.68-.63-.22-.21-.42-.45-.62-.68-.68-.78.44.65-.15-.2-.37-.52-.67-1.08-.95-1.65-.48-.96.27.74-.12-.28-.16-.42-.28-.87-.4-1.3-.12-.45-.21-.91-.29-1.37.06.47.06.47.01.02-.03-.35-.05-.69-.06-1.02-.02-.56,0-1.12.05-1.69.05-.46.04-.44-.02.04.05-.33.11-.66.17-.98.11-.53.27-1.05.44-1.57.07-.21.14-.41.22-.61-.33.86.07-.12.14-.24.23-.47.51-.92.8-1.36.26-.36.24-.35-.04.02.2-.24.4-.47.62-.71.28-.31.59-.59.9-.86.34-.28.33-.27-.04.03.25-.18.53-.35.79-.51.18-.1.37-.2.56-.3.94-.49-.74.26.26-.12.52-.19,1.07-.32,1.61-.44q.45-.08,0-.02c.32-.04.64-.05.96-.05.42-.02.83,0,1.24.04.43.04.34.03-.26-.04.27.04.53.09.79.16.44.09.87.24,1.29.39-1.01-.37.11.08.33.19.16.09.32.18.48.29.81.5-.62-.54.12.07.2.16,1.17,1.28.57.5.31.41.55.87.77,1.33-.18-.43-.19-.43-.03,0,.12.32.19.67.27,1,.08.46.08.48.02.09.03.28.01.57,0,.86.08-.54.08-.59-.02-.15-.04.19-.45,1.04-.05.22-.1.19-.21.37-.32.54.45-.71-.08.06-.22.2q.36-.25,0,0c-.84.56.67-.16-.33.17-.45.1-.47.12-.04.08-.32.04-.64.04-.96.03.56.09.64.1.23,0-.83-.18.76.42.08.04.49.42.6.49.31.23-.55-.49.52.79.13.19-.53-.83.25.85-.01-.05-.03-.1-.05-.2-.07-.32-.14-.65.12,1.08.06.46-.02-.25-.03-.49,0-.73.18-2.11-1.9-3.87-3.87-3.87-2.26,0-3.7,1.77-3.89,3.87-.14,1.57.35,3.39,1.19,4.71,1.98,3.08,5.92,3.84,9.25,2.72,3.77-1.28,6.08-4.76,6.32-8.64.2-3.25-1.52-6.83-3.9-8.97-4.61-4.14-11.83-4.34-17.03-1.22-5.49,3.29-8.14,10.13-7.5,16.33.36,3.5,1.56,6.67,3.73,9.45,1.92,2.46,4.55,4.04,7.42,5.17,5.25,2.08,11.9,1.66,17.19-.09,4.48-1.48,8.26-4.24,10.92-8.15,2.31-3.39,3.32-7.61,3.43-11.67.23-7.98-3.38-16.59-9.57-21.71-8.62-7.1-21.83-7.35-31.49-2.29-1.96,1.02-3.96,2.34-5.51,3.93-1.47,1.51-1.51,3.98,0,5.48,1.48,1.48,4.01,1.51,5.48,0h0Z"/>
    <path d="M288.63,125.19c-.1-.11-.22-.21-.33-.32-.32-.29-1.65-1.33-.42-.39-1.31-1-2.74-1.83-4.24-2.55-.23-.1-.45-.21-.68-.31,1.02.45.17.08-.03,0-.51-.2-1.03-.38-1.56-.55-1.26-.39-2.55-.68-3.85-.88.97.16-.13,0-.28-.02-.34-.03-.68-.05-1.02-.07-.7-.05-1.42-.05-2.14-.04-.76.01-1.51.08-2.26.15-1.27.13.75-.12-.55.08-.54.08-1.09.19-1.63.31-1.43.31-2.84.71-4.21,1.24-.74.29.87-.39.15-.06-.19.08-.38.18-.57.27-.44.22-.87.47-1.29.73-.37.22-.72.46-1.06.71-.21.15-.83.65.1-.09-.17.13-.33.27-.5.42-.72.59-1.37,1.27-2,1.96-.29.32-.57.66-.84,1.01.81-1.01-.13.2-.31.46-.55.79-1.04,1.62-1.49,2.47-.21.4-.4.8-.59,1.2-.1.23-.42.99.04-.1-.08.21-.17.42-.25.62-.35.91-.64,1.84-.89,2.77-.23.87-.4,1.74-.53,2.63.21-1.36-.01.18-.04.51-.04.51-.06,1.02-.08,1.54-.02.87.03,1.74.12,2.62.03.27.15,1.07-.03-.17.03.21.07.42.11.63.09.49.2.98.33,1.47.1.41.23.82.37,1.22.08.2.15.4.23.61.28.74-.38-.88-.06-.14.37.84.83,1.65,1.33,2.41.12.18.25.36.37.54.46.63-.59-.73-.08-.11.27.34.57.66.87.98.31.32.63.61.97.91.17.14.35.29.52.43-.94-.76-.08-.08.14.07.79.54,1.64,1,2.51,1.41.81.38-.83-.33,0,0,.24.1.48.18.72.27.59.21,1.2.39,1.8.55.54.14,1.1.25,1.66.36.29.05.58.1.87.14-1.04-.16,0,0,.18.02,1.5.16,3,.2,4.5.11.36-.02.71-.06,1.07-.1-.9.1.24-.05.35-.07.66-.12,1.32-.29,1.96-.49.31-.1.62-.21.94-.32,1-.38-.72.33.24-.12.66-.31,1.28-.69,1.88-1.12.85-.58-.6.51.18-.15.24-.2.46-.42.68-.63.22-.21.42-.44.62-.68.68-.78-.45.65.15-.2.36-.53.66-1.09.94-1.65.48-.96-.27.74.12-.29.16-.42.28-.86.4-1.3.12-.45.21-.9.29-1.36-.06.46-.07.46-.01.01.03-.34.05-.68.06-1.02.02-.57,0-1.12-.05-1.68-.05-.46-.04-.45.03.04-.05-.32-.11-.65-.18-.98-.11-.54-.27-1.06-.44-1.57-.07-.2-.14-.41-.23-.61.33.86-.07-.12-.13-.24-.24-.48-.51-.93-.8-1.36-.26-.36-.24-.35.05.02-.19-.25-.4-.48-.62-.71-.28-.31-.59-.58-.91-.86-.33-.28-.32-.26.04.03-.25-.19-.53-.35-.79-.5-.19-.11-.37-.21-.57-.31-.94-.48.74.26-.26-.12-.52-.19-1.07-.32-1.61-.44-.46-.07-.46-.08,0,0-.31-.04-.63-.05-.95-.06-.42-.01-.83.01-1.24.04-.43.05-.34.03.26-.04-.26.04-.52.1-.78.16-.44.1-.87.24-1.29.39,1.02-.36-.11.08-.32.2-.16.09-.32.19-.47.28-.81.51.62-.54-.12.07-.19.16-1.17,1.28-.57.5-.31.41-.55.87-.77,1.33.18-.43.19-.43.03,0-.11.33-.18.67-.27,1.01-.08.46-.09.48-.02.08-.03.29-.01.58,0,.87-.08-.54-.08-.6.01-.15.05.19.45,1.04.06.22.1.19.2.36.32.54-.45-.72.08.06.22.2q-.37-.25,0,0c.84.57-.67-.15.33.18.46.09.47.12.04.07.32.04.64.04.96.03-.56.1-.64.1-.23.02.83-.19-.76.42-.08.04-.5.42-.6.49-.31.22.55-.49-.52.8-.14.19.53-.83-.25.85.01-.05.03-.11.05-.21.08-.32.14-.66-.12,1.08-.06.46.02-.24.03-.49,0-.73-.18-2.11,1.9-3.88,3.87-3.88,2.25,0,3.7,1.77,3.89,3.88.13,1.57-.35,3.39-1.19,4.7-1.97,3.08-5.92,3.85-9.24,2.72-3.77-1.28-6.08-4.76-6.32-8.65-.2-3.24,1.52-6.83,3.9-8.97,4.6-4.14,11.83-4.33,17.02-1.21,5.5,3.29,8.15,10.12,7.5,16.33-.36,3.51-1.55,6.67-3.73,9.45-1.92,2.45-4.56,4.04-7.42,5.17-5.25,2.08-11.9,1.65-17.19-.1-4.48-1.48-8.25-4.24-10.91-8.14-2.32-3.39-3.32-7.62-3.44-11.69-.23-7.98,3.38-16.59,9.57-21.71,8.62-7.1,21.83-7.34,31.49-2.29,1.96,1.03,3.97,2.34,5.51,3.93,1.47,1.52,1.51,3.98,0,5.49-1.48,1.48-4.01,1.51-5.48,0h0Z"/>
    <path d="M288.63,178.72c-.1-.11-.22-.21-.33-.32-.32-.29-1.65-1.33-.42-.39-1.31-1-2.74-1.84-4.24-2.55-.23-.1-.45-.21-.68-.31,1.02.45.17.08-.03,0-.51-.2-1.03-.38-1.56-.54-1.26-.4-2.55-.68-3.85-.88.97.15-.13,0-.28-.02-.34-.03-.68-.05-1.02-.08-.7-.04-1.42-.04-2.14-.03-.76.01-1.51.07-2.26.15-1.27.13.75-.13-.55.08-.54.09-1.09.2-1.63.31-1.43.3-2.84.7-4.21,1.23-.74.28.87-.39.15-.06-.19.09-.38.18-.57.28-.44.22-.87.47-1.29.73-.37.22-.72.46-1.06.71-.21.15-.83.64.1-.09-.17.13-.33.27-.5.41-.72.6-1.37,1.27-2,1.96-.29.33-.57.67-.84,1.01.81-1.01-.13.2-.31.46-.55.79-1.04,1.62-1.49,2.47-.21.4-.4.8-.59,1.2-.1.23-.42.98.04-.1-.08.2-.17.42-.25.62-.35.9-.64,1.83-.89,2.77-.23.86-.4,1.74-.53,2.62.21-1.36-.01.19-.04.51-.04.51-.06,1.02-.08,1.54-.02.88.03,1.75.12,2.62.03.27.15,1.07-.03-.17.03.21.07.43.11.63.09.5.2.98.33,1.47.1.41.23.82.37,1.22.08.2.15.4.23.6.28.74-.38-.87-.06-.14.37.84.83,1.64,1.33,2.41.12.18.25.35.37.53.46.65-.59-.72-.08-.1.27.33.57.66.87.97.31.32.63.62.97.91.17.15.35.29.52.43-.94-.76-.08-.08.14.07.79.54,1.64,1,2.51,1.41.81.38-.83-.33,0,0,.24.1.48.18.72.27.59.21,1.2.39,1.8.54.54.15,1.1.27,1.66.37.29.06.58.1.87.14-1.04-.16,0-.01.18,0,1.5.16,3,.2,4.5.11.36-.02.71-.06,1.07-.1-.9.1.24-.06.35-.07.66-.13,1.32-.3,1.96-.5.31-.09.62-.21.94-.32,1-.38-.72.33.24-.12.66-.32,1.28-.7,1.88-1.11.85-.59-.6.51.18-.16.24-.2.46-.42.68-.63.22-.21.42-.45.62-.68.68-.78-.45.65.15-.2.36-.52.66-1.08.94-1.65.48-.96-.27.74.12-.28.16-.42.28-.87.4-1.3.12-.45.21-.91.29-1.37-.06.47-.07.47-.01.02.03-.35.05-.69.06-1.02.02-.56,0-1.12-.05-1.69-.05-.46-.04-.44.03.04-.05-.33-.11-.66-.18-.98-.11-.53-.27-1.05-.44-1.57-.07-.21-.14-.41-.23-.61.33.86-.07-.12-.13-.24-.24-.47-.51-.92-.8-1.36-.26-.36-.24-.35.05.02-.19-.24-.4-.47-.62-.71-.28-.31-.59-.59-.91-.86-.33-.28-.32-.27.04.03-.25-.18-.53-.35-.79-.51-.19-.1-.37-.2-.57-.3-.94-.49.74.26-.26-.12-.52-.19-1.07-.32-1.61-.44q-.46-.08,0-.02c-.31-.04-.63-.05-.95-.05-.42-.02-.83,0-1.24.04-.43.04-.34.03.26-.04-.26.04-.52.09-.78.16-.44.09-.87.24-1.29.39,1.02-.37-.11.08-.32.19-.16.09-.32.18-.47.29-.81.5.62-.54-.12.07-.19.16-1.17,1.28-.57.5-.31.41-.55.87-.77,1.33.18-.43.19-.43.03,0-.11.32-.18.67-.27,1-.08.46-.09.48-.02.09-.03.28-.01.57,0,.86-.08-.54-.08-.59.01-.15.05.19.45,1.04.06.22.1.19.2.37.32.54-.45-.71.08.06.22.2q-.37-.25,0,0c.84.56-.67-.16.33.17.46.1.47.12.04.08.32.04.64.04.96.03-.56.09-.64.1-.23,0,.83-.18-.76.42-.08.04-.5.42-.6.49-.31.23.55-.49-.52.79-.14.19.53-.83-.25.85.01-.05.03-.1.05-.2.08-.32.14-.65-.12,1.08-.06.46.02-.25.03-.49,0-.73-.18-2.11,1.9-3.87,3.87-3.87,2.25,0,3.7,1.77,3.89,3.87.13,1.57-.35,3.39-1.19,4.71-1.97,3.08-5.92,3.84-9.24,2.72-3.77-1.28-6.08-4.76-6.32-8.64-.2-3.25,1.52-6.83,3.9-8.97,4.6-4.14,11.83-4.34,17.02-1.22,5.5,3.29,8.15,10.13,7.5,16.33-.36,3.5-1.55,6.67-3.73,9.45-1.92,2.46-4.56,4.04-7.42,5.17-5.25,2.08-11.9,1.66-17.19-.09-4.48-1.48-8.25-4.24-10.91-8.15-2.32-3.39-3.32-7.61-3.44-11.67-.23-7.98,3.38-16.59,9.57-21.71,8.62-7.1,21.83-7.35,31.49-2.29,1.96,1.02,3.97,2.34,5.51,3.93,1.47,1.51,1.51,3.98,0,5.48-1.48,1.48-4.01,1.51-5.48,0h0Z"/>
  </g>
</svg>