<?xml version="1.0" encoding="UTF-8"?>
<svg id="Layer_1" xmlns="http://www.w3.org/2000/svg" version="1.1" viewBox="0 0 239.7 325.69">
  <!-- Generator: Adobe Illustrator 29.6.1, SVG Export Plug-In . SVG Version: 2.1.1 Build 9)  -->
  <defs>
    <style>
      .st0 {
        fill: #f15a29;
      }

      .st1 {
        fill: #ffd7c3;
      }

      .st2, .st3, .st4, .st5 {
        fill-rule: evenodd;
      }

      .st2, .st6 {
        fill: #fff;
      }

      .st7 {
        fill: #ffce00;
      }

      .st8 {
        fill: #000002;
      }

      .st9 {
        fill: #8cb200;
      }

      .st10 {
        fill: #0461a0;
      }

      .st11 {
        fill: #ed1c24;
      }

      .st12 {
        fill: #f9a11b;
      }

      .st13 {
        fill: #f38b9e;
      }

      .st14 {
        fill: #6f2a0e;
      }

      .st15 {
        fill: #be1e2d;
      }

      .st3 {
        fill: #e6e7e8;
      }

      .st16 {
        fill: #39b54a;
      }

      .st17 {
        fill: #f7941e;
      }

      .st18, .st5 {
        fill: #fde5d2;
      }

      .st19 {
        fill: #82442f;
      }

      .st20 {
        fill: #fff9ae;
      }

      .st21 {
        fill: #d7df23;
      }

      .st4 {
        fill: #bcbec0;
      }

      .st22 {
        fill: #27aae1;
      }

      .st23 {
        fill: #f4bba2;
      }

      .st24 {
        fill: #1c75bc;
      }

      .st25 {
        fill: #009444;
      }

      .st26 {
        fill: #ff8089;
      }
    </style>
  </defs>
  <g>
    <path class="st1" d="M81.38,243.07s-28.86,34.28-16.34,41.67c12.52,7.39,30.05-24.64,30.05-24.64l-13.71-17.03Z"/>
    <path d="M78.77,240.46c-3.48,4.14-6.71,8.52-9.73,12.99-4.75,7.01-9.59,14.85-10.72,23.39-.46,3.5.43,7.41,3.16,9.82,3.31,2.93,7.97,3.53,12.07,2.06,4.29-1.54,7.89-4.57,11.01-7.81,3.2-3.3,6-7.01,8.6-10.79,1.82-2.64,3.56-5.35,5.1-8.16.87-1.58.5-3.12-.57-4.46-4.57-5.68-9.14-11.36-13.72-17.03-1.26-1.56-3.9-1.3-5.21,0-1.54,1.54-1.26,3.65,0,5.21,4.57,5.68,9.14,11.35,13.71,17.03-.19-1.48-.39-2.97-.58-4.46-.87,1.59-1.83,3.15-2.8,4.68-1,1.59-2.05,3.15-3.13,4.68-.59.84-1.2,1.66-1.81,2.48-.16.21-.32.42-.48.63.59-.77.03-.04-.08.09-.39.5-.79.98-1.18,1.47-1.43,1.73-2.94,3.38-4.57,4.94-.74.71-1.52,1.39-2.32,2.04-.68.55.65-.49-.04.03-.2.15-.39.29-.59.43-.46.32-.92.62-1.39.91-.39.24-.79.46-1.2.66-.2.1-.4.2-.6.29-.72.34.81-.32.08-.03-.39.15-.79.28-1.19.39-.35.1-1.95.33-.61.17-.39.05-.78.06-1.17.05-.19,0-.39-.02-.58-.04,1.18.1.49.07.21.02-.39-.08-.77-.2-1.14-.33-.71-.25.82.38.13.05-.24-.12-.47-.25-.7-.39-.96-.59.45.44-.18-.12-.24-.21-.44-.45-.65-.69.84,1.03.16.15-.02-.16-.53-.96.23.77-.1-.28-.1-.31-.17-.63-.23-.95-.12-.67.12,1,.04.32-.01-.17-.02-.35-.04-.52-.02-.36,0-.73,0-1.09.02-.34.21-1.89.02-.54.25-1.79.8-3.53,1.43-5.22.17-.45.35-.89.53-1.33-.43,1.05.2-.45.31-.69.45-1.01.95-2,1.45-2.97,2-3.85,4.33-7.52,6.78-11.08,1.09-1.59,2.22-3.16,3.37-4.71.47-.64.95-1.28,1.44-1.92.12-.14.23-.29.34-.43.43-.55-.57.73-.15.19.23-.29.46-.59.69-.89.72-.91,1.44-1.82,2.19-2.71,1.29-1.54,1.51-3.7,0-5.21-1.33-1.33-3.91-1.54-5.21,0Z"/>
  </g>
  <g>
    <path class="st24" d="M150.19,250.37h-59.11s-11.55,64.07-3.69,66.81c7.85,2.75,15.13-9.77,15.13-9.77,0,0,5.78,1.77,15.81,2.08h0c.76.03,1.53.04,2.32.04s1.55,0,2.31-.03h0c10.03-.32,15.81-2.08,15.81-2.08,0,0,7.28,12.52,15.13,9.77,7.86-2.74-3.7-66.81-3.7-66.81Z"/>
    <path d="M150.19,246.68h-59.11c-1.52,0-3.26,1.11-3.55,2.71-2.25,12.52-4.09,25.14-5.42,37.79-.8,7.66-1.62,15.54-.95,23.24.22,2.54.52,5.61,2.02,7.78,2.97,4.3,9.09,3.43,13.07,1.1,3.9-2.28,7.19-6.17,9.45-10.04-1.39.57-2.78,1.13-4.16,1.7,5.35,1.62,11.24,2.02,16.79,2.21-1.23-1.23-2.46-2.46-3.68-3.68h0c0,2.05,1.67,3.64,3.68,3.69,1.54.04,3.08.04,4.62,0,2.01-.05,3.68-1.63,3.68-3.68h0c-1.22,1.22-2.45,2.45-3.68,3.68,5.55-.19,11.44-.59,16.79-2.21-1.39-.56-2.78-1.13-4.16-1.7,1.76,3.01,4.12,5.89,6.81,8.12,3.9,3.23,10.28,5.81,14.71,2.04,2.08-1.77,2.52-5.01,2.86-7.54.42-3.23.4-6.52.3-9.77-.25-8.66-1.27-17.32-2.4-25.9-.98-7.46-2.1-14.91-3.34-22.34-.25-1.5-.51-3-.77-4.49-.36-1.98-2.73-3.07-4.53-2.58-2.07.57-2.93,2.56-2.58,4.53.71,3.94,1.34,7.9,1.96,11.85.62,3.96,1.2,7.93,1.74,11.91.13.91-.11-.85.01.06.04.26.07.53.1.79.07.53.14,1.06.2,1.58.15,1.15.29,2.31.43,3.47.27,2.23.52,4.47.76,6.71.78,7.59,1.59,15.42.87,23.04-.04.33-.07.65-.11.98.18-1.44.03-.27-.03.07-.1.57-.22,1.14-.39,1.69-.06.22-.13.45-.21.66-.26.71.47-1,.08-.21-.08.16-.17.32-.28.48-.35.53.79-.86.16-.25-.45.43.96-.64.33-.28-.27.15-.76.25.64-.26-.28.1-.57.17-.85.24-.93.22.8-.04-.14.02-.28.02-.55,0-.83-.01-.94-.04.81.16-.11-.02-.36-.07-.72-.18-1.07-.3-.9-.31.7.33-.16-.06-.26-.12-.51-.26-.76-.4-.5-.28-.99-.61-1.45-.95.73.52-.06-.05-.17-.15-.23-.19-.45-.38-.66-.57-.49-.45-.96-.92-1.42-1.41-.54-.58-1.05-1.18-1.55-1.81-.43-.53.47.63-.14-.19-.2-.27-.4-.55-.59-.83-.38-.53-.74-1.07-1.07-1.63-.82-1.4-2.59-2.17-4.16-1.69-1.3.39-2.66.65-4,.89-.73.13-1.45.24-2.18.36-1.15.17.76-.1-.46.06-.53.07-1.06.13-1.58.18-2.19.23-4.39.37-6.6.44-2,.07-3.68,1.63-3.68,3.69h0c1.23-1.22,2.46-2.45,3.68-3.68-1.54.04-3.08.04-4.62,0,1.22,1.23,2.45,2.45,3.68,3.68h0c0-2.07-1.68-3.62-3.68-3.7-2.21-.07-4.4-.21-6.6-.44-.4-.04-.8-.09-1.2-.14-.25-.03-.5-.06-.76-.09.38.05.35.04-.09-.02-.73-.11-1.46-.23-2.18-.36-1.34-.24-2.7-.5-4.01-.89-1.58-.48-3.34.3-4.16,1.69-.54.92-1.16,1.8-1.79,2.64-.5.66.53-.66-.01,0-.16.2-.32.4-.48.59-.35.42-.71.81-1.07,1.21-.39.42-.79.82-1.2,1.21-.21.2-.43.39-.65.58-.13.12-1.13.89-.39.34-.46.35-.95.65-1.45.95-.25.14-.5.27-.76.4-.85.42.73-.27-.16.06-.26.09-.53.17-.8.24-.19.05-1.11.19-.11.06-.27.04-.55.04-.83.04-.19,0-.37-.01-.55-.02.51.08.55.08.13,0-.74-.14-1.36-.58-.22.02-.63-.33.8.69.34.28-.6-.55.38.54.21.32-.13-.17-.23-.36-.33-.55-.41-.79.35.92.08.21-.08-.21-.15-.43-.21-.66-.17-.55-.29-1.12-.39-1.69-.06-.33-.22-1.51-.03-.07-.04-.32-.07-.65-.11-.98-.08-.77-.13-1.55-.16-2.32-.17-3.7-.01-7.42.22-11.11.27-4.38.7-8.75,1.18-13.1.25-2.23.53-4.47.81-6.7.06-.53.13-1.06.2-1.58.04-.26.07-.53.1-.79.12-.91-.12.85.01-.06.14-1.1.3-2.21.46-3.31.88-6.21,1.85-12.42,2.92-18.6.1-.62.21-1.24.32-1.85-1.18.9-2.37,1.81-3.56,2.71h59.11c4.76,0,4.76-7.37,0-7.37Z"/>
  </g>
  <g>
    <path class="st8" d="M180.09,322.12c0,1.8-26.96,3.26-60.23,3.26s-60.22-1.46-60.22-3.26,26.96-3.26,60.22-3.26,60.23,1.46,60.23,3.26Z"/>
    <path d="M119.87,325.69c-16.09,0-31.22-.33-42.6-.95-17.93-.98-17.93-2.12-17.93-2.62s0-1.65,17.93-2.62c11.38-.62,26.51-.95,42.6-.95s31.23.34,42.6.95c17.94.97,17.94,2.12,17.94,2.62s0,1.64-17.94,2.62c-11.38.62-26.51.95-42.6.95ZM59.99,322.12c.36.28,2.71,1.23,18.04,2.03,11.29.59,26.14.92,41.84.92s30.56-.33,41.84-.92c15.34-.8,17.68-1.75,18.04-2.03-.36-.28-2.71-1.24-18.04-2.03-11.28-.59-26.14-.92-41.84-.92s-30.55.32-41.84.92c-15.33.8-17.68,1.75-18.04,2.03Z"/>
  </g>
  <g>
    <path class="st1" d="M160.22,243.07s28.87,34.28,16.34,41.67c-12.52,7.39-30.05-24.64-30.05-24.64l13.71-17.03Z"/>
    <path d="M157.62,245.68c.99,1.17,1.94,2.38,2.88,3.6.42.54-.58-.75-.15-.19.11.14.23.29.34.43.24.31.47.62.7.92.56.74,1.1,1.48,1.65,2.22,1.19,1.62,2.34,3.27,3.46,4.94,2.42,3.61,4.69,7.33,6.6,11.23.22.45.43.91.64,1.37.12.25.76,1.74.32.69.39.94.74,1.88,1.05,2.85.27.83.49,1.66.68,2.51.09.39.16.79.22,1.2-.21-1.35,0,.19.02.54.02.36.02.72,0,1.09,0,.17-.02.35-.03.52-.06.69.15-.99.05-.32-.06.32-.14.64-.23.95-.31,1.07.4-.69-.1.28-.16.3-.84,1.23-.02.16-.19.25-.42.47-.65.69-.62.58.77-.49-.18.12-.17.1-.34.2-.51.29-.89.48.53-.18-.06.05-.36.14-.75.24-1.14.33-.27.06-.99.12.21-.02-.19.02-.39.03-.58.04-.39.02-.78-.01-1.17-.05,1.33.13-.24-.08-.6-.17-.4-.1-.8-.25-1.19-.39-.73-.28.81.36.08.03-.2-.09-.4-.19-.59-.29-.91-.45-1.76-.99-2.59-1.58-.2-.14-.4-.29-.59-.43-.7-.51.65.52-.04-.03-.4-.32-.79-.65-1.17-.99-.86-.75-1.68-1.55-2.48-2.36-1.57-1.61-3.03-3.32-4.43-5.09-.11-.13-.67-.86-.08-.09-.17-.21-.32-.42-.49-.63-.31-.41-.62-.83-.93-1.25-.64-.87-1.25-1.74-1.85-2.63-.99-1.44-1.93-2.91-2.86-4.4-.73-1.17-1.44-2.35-2.11-3.57-.19,1.49-.38,2.98-.58,4.46,4.57-5.68,9.14-11.35,13.71-17.03,1.26-1.56,1.54-3.68,0-5.21-1.3-1.3-3.95-1.56-5.21,0-4.57,5.68-9.14,11.36-13.71,17.03-1.08,1.34-1.44,2.88-.58,4.46,2.93,5.33,6.46,10.4,10.3,15.11,5.07,6.22,13.13,14.47,22.05,12.04,3.78-1.03,6.85-4.13,7.48-8.04.63-3.91-.32-7.82-1.74-11.46-3.12-7.98-7.97-15.22-13.05-22.06-1.78-2.4-3.61-4.79-5.54-7.08-1.29-1.54-3.88-1.33-5.21,0-1.51,1.51-1.29,3.68,0,5.21Z"/>
  </g>
  <g>
    <g>
      <polygon class="st18" points="148.22 249.57 120.84 249.57 120.61 249.57 93.24 249.57 81.38 288.58 120.61 288.58 120.84 288.58 160.07 288.58 148.22 249.57"/>
      <path d="M148.22,242.21h-54.98c-3.34,0-6.15,2.26-7.11,5.41-3.78,12.43-7.56,24.86-11.34,37.29-.17.57-.35,1.14-.52,1.71-1.4,4.61,2.41,9.33,7.1,9.33h78.7c4.69,0,8.51-4.72,7.11-9.33-3.78-12.43-7.56-24.85-11.34-37.28-.17-.58-.35-1.15-.52-1.72-1.17-3.84-5.12-6.23-9.07-5.15-3.79,1.04-6.31,5.22-5.14,9.06,3.78,12.44,7.56,24.86,11.34,37.29.17.58.35,1.15.52,1.72,2.37-3.11,4.74-6.22,7.11-9.33h-78.7c2.37,3.11,4.74,6.22,7.11,9.33,3.78-12.43,7.56-24.86,11.34-37.29.17-.57.35-1.14.53-1.72-2.37,1.81-4.74,3.61-7.11,5.41h54.98c4.01,0,7.37-3.35,7.37-7.37s-3.35-7.37-7.37-7.37Z"/>
    </g>
    <polygon class="st16" points="148.22 249.57 120.84 249.57 120.61 249.57 93.24 249.57 81.38 288.58 120.61 288.58 120.84 288.58 160.07 288.58 148.22 249.57"/>
  </g>
  <polygon class="st9" points="92.74 251.12 81.38 288.58 112.3 288.58 87.05 284.89 92.74 251.12"/>
  <polygon class="st9" points="148.7 251.12 160.07 288.58 129.14 288.58 154.39 284.89 148.7 251.12"/>
  <polygon class="st10" points="152.85 299.2 88.5 299.2 88.77 295.92 152.56 295.92 152.85 299.2"/>
  <path class="st16" d="M72.68,261.28l8.46,5.52,3.73-14.08-3.33-4.19s-3.89,4.83-5.73,7.71c-1.84,2.89-3.13,5.03-3.13,5.03Z"/>
  <path class="st16" d="M169.06,261.28l-8.46,5.52-3.74-14.08,3.34-4.19s3.89,4.83,5.73,7.71c1.84,2.89,3.13,5.03,3.13,5.03Z"/>
  <g>
    <rect class="st8" x="71.71" y="255.19" width="7.17" height="20.46" transform="translate(-188.51 184.67) rotate(-57.14)"/>
    <path d="M82.02,274.35l-17.63-11.39,4.18-6.47,17.63,11.39-4.18,6.47ZM65.13,262.79l16.73,10.81,3.6-5.57-16.73-10.81-3.6,5.57Z"/>
  </g>
  <g>
    <rect class="st8" x="156.21" y="261.83" width="20.46" height="7.17" transform="translate(-117.37 132.75) rotate(-32.86)"/>
    <path d="M159.71,274.35l-4.18-6.47,17.63-11.39,4.18,6.47-17.63,11.39ZM156.28,268.03l3.6,5.57,16.73-10.81-3.6-5.57-16.73,10.81Z"/>
  </g>
  <polygon class="st21" points="81.54 248.54 77.45 253.81 73.63 259.67 81.6 264.9 76.23 259.2 78.96 254.74 82.77 250.12 81.54 248.54"/>
  <polygon class="st21" points="160.19 248.54 164.28 253.81 168.1 259.67 160.12 264.9 165.5 259.2 162.78 254.74 158.95 250.12 160.19 248.54"/>
  <polygon class="st6" points="154.77 271.36 86.5 271.36 88.43 265.07 152.79 265.07 154.77 271.36"/>
  <polygon class="st6" points="158.26 282.93 83.01 282.93 84.93 276.63 156.38 276.63 158.26 282.93"/>
  <g>
    <g>
      <g>
        <g>
          <polygon class="st18" points="100.51 249.89 100.51 289.22 79.17 289.22 91.03 249.89 100.51 249.89"/>
          <path d="M93.82,249.89v39.34c2.23-2.23,4.46-4.46,6.7-6.7h-21.35c2.15,2.83,4.31,5.66,6.46,8.48,3.76-12.46,7.52-24.93,11.28-37.4.2-.65.39-1.29.58-1.93-2.15,1.64-4.31,3.27-6.46,4.92h9.48c3.65,0,6.7-3.05,6.7-6.7s-3.04-6.7-6.7-6.7h-9.48c-3.04,0-5.59,2.05-6.46,4.92-3.76,12.46-7.52,24.93-11.27,37.4-.2.65-.39,1.29-.58,1.93-1.27,4.19,2.18,8.48,6.45,8.48h21.35c3.65,0,6.7-3.05,6.7-6.7v-39.34c0-3.65-3.04-6.7-6.7-6.7s-6.7,3.05-6.7,6.7Z"/>
        </g>
        <polygon class="st0" points="100.51 249.89 100.51 289.22 79.17 289.22 91.03 249.89 100.51 249.89"/>
        <polygon class="st17" points="91.03 249.89 79.17 289.22 80.96 289.22 92.81 249.89 91.03 249.89"/>
      </g>
      <g>
        <rect class="st8" x="93.72" y="249.88" width="4.2" height="39.34"/>
        <path d="M98.33,289.63h-5v-40.14h5v40.14ZM94.13,288.82h3.39v-38.54h-3.39v38.54Z"/>
      </g>
      <g>
        <rect class="st8" x="77.92" y="276.48" width="19.43" height="4.2"/>
        <path d="M97.74,281.08h-20.23v-5.01h20.23v5.01ZM78.32,280.28h18.62v-3.39h-18.62v3.39Z"/>
      </g>
      <g>
        <rect class="st8" x="77.92" y="266.71" width="19.43" height="4.2"/>
        <path d="M97.74,271.32h-20.23v-5h20.23v5ZM78.32,270.51h18.62v-3.39h-18.62v3.39Z"/>
      </g>
      <polygon class="st7" points="97.57 249.88 97.57 271.1 84.66 271.1 83.1 276.16 97.57 276.16 97.57 289.22 101.9 289.22 101.9 249.88 97.57 249.88"/>
      <g>
        <polygon class="st20" points="97.57 274.76 83.54 274.76 83.1 276.16 97.57 276.16 97.57 274.76"/>
        <rect class="st20" x="97.57" y="287.82" width="4.33" height="1.4"/>
      </g>
      <rect class="st12" x="100.02" y="249.93" width="1.97" height="39.34"/>
    </g>
    <g>
      <g>
        <g>
          <polygon class="st18" points="140.75 249.89 140.75 289.22 162.11 289.22 150.24 249.89 140.75 249.89"/>
          <path d="M134.05,249.89v39.34c0,3.65,3.05,6.7,6.7,6.7h21.35c4.27,0,7.72-4.29,6.45-8.48-3.76-12.46-7.52-24.93-11.27-37.4-.2-.65-.39-1.29-.58-1.93-.87-2.87-3.43-4.92-6.46-4.92h-9.49c-3.65,0-6.7,3.05-6.7,6.7s3.05,6.7,6.7,6.7h9.49c-2.15-1.64-4.31-3.28-6.46-4.92,3.76,12.47,7.52,24.93,11.28,37.4.19.64.39,1.29.58,1.94,2.16-2.82,4.31-5.65,6.47-8.48h-21.35c2.24,2.23,4.47,4.47,6.7,6.7v-39.34c0-3.65-3.04-6.7-6.7-6.7s-6.7,3.05-6.7,6.7Z"/>
        </g>
        <polygon class="st0" points="140.75 249.89 140.75 289.22 162.11 289.22 150.24 249.89 140.75 249.89"/>
        <polygon class="st17" points="150.24 249.89 162.11 289.22 160.32 289.22 148.46 249.89 150.24 249.89"/>
      </g>
      <g>
        <rect class="st8" x="143.34" y="249.88" width="4.2" height="39.34"/>
        <path d="M147.94,289.63h-5v-40.14h5v40.14ZM143.75,288.82h3.39v-38.54h-3.39v38.54Z"/>
      </g>
      <g>
        <rect class="st8" x="143.93" y="276.48" width="19.43" height="4.2"/>
        <path d="M163.75,281.08h-20.23v-5.01h20.23v5.01ZM144.32,280.28h18.62v-3.39h-18.62v3.39Z"/>
      </g>
      <g>
        <rect class="st8" x="143.93" y="266.71" width="19.43" height="4.2"/>
        <path d="M163.75,271.32h-20.23v-5h20.23v5ZM144.32,270.51h18.62v-3.39h-18.62v3.39Z"/>
      </g>
      <polygon class="st7" points="143.7 249.88 143.7 271.1 156.61 271.1 158.17 276.16 143.7 276.16 143.7 289.22 139.37 289.22 139.37 249.88 143.7 249.88"/>
      <g>
        <polygon class="st20" points="143.7 274.76 157.74 274.76 158.17 276.16 143.7 276.16 143.7 274.76"/>
        <rect class="st20" x="139.37" y="287.82" width="4.33" height="1.4"/>
      </g>
      <rect class="st12" x="139.28" y="249.93" width="1.96" height="39.34"/>
    </g>
  </g>
  <g>
    <g>
      <g>
        <polygon class="st18" points="113.38 258.19 106.4 263.38 97.37 251.14 113.38 258.19"/>
        <path d="M109.99,252.41c-2.32,1.73-4.65,3.46-6.97,5.19,3.06.8,6.11,1.6,9.17,2.41-3.01-4.09-6.02-8.17-9.03-12.25-3.06,3.05-6.11,6.11-9.17,9.17,5.33,2.35,10.67,4.71,16,7.05,1.72.76,3.27,1.2,5.16.68,1.67-.46,3.13-1.58,4.01-3.08,1.69-2.88.94-7.69-2.41-9.17-5.34-2.35-10.66-4.71-16-7.05-2.8-1.24-5.81-1.27-8.12,1.04-1.96,1.96-2.81,5.73-1.05,8.12,3.01,4.08,6.02,8.16,9.03,12.24,1.08,1.47,2.18,2.58,4.01,3.08,1.57.43,3.79.34,5.16-.68,2.33-1.73,4.65-3.46,6.97-5.19,2.93-2.18,4.4-5.75,2.41-9.16-1.69-2.89-6.23-4.59-9.17-2.41Z"/>
      </g>
      <polygon class="st16" points="113.38 258.19 106.4 263.38 97.37 251.14 113.38 258.19"/>
    </g>
    <polygon class="st25" points="97.37 251.14 106.4 263.38 113.38 258.19 111.66 257.43 106.5 261.13 97.37 251.14"/>
  </g>
  <g>
    <g>
      <g>
        <polygon class="st18" points="127.83 258.19 134.8 263.38 143.83 251.14 127.83 258.19"/>
        <path d="M124.45,263.98c2.33,1.73,4.65,3.46,6.97,5.19,1.36,1.02,3.59,1.11,5.16.68,1.82-.5,2.92-1.61,4-3.08,3.01-4.08,6.02-8.16,9.03-12.24,1.76-2.39.91-6.16-1.04-8.12-2.31-2.31-5.32-2.28-8.12-1.04-5.33,2.35-10.67,4.71-16,7.05-3.34,1.48-4.09,6.29-2.4,9.17.88,1.5,2.33,2.62,4,3.08,1.89.52,3.44.09,5.16-.68,5.33-2.35,10.67-4.71,16-7.05-3.05-3.05-6.11-6.11-9.16-9.17-3.01,4.08-6.02,8.16-9.04,12.25,3.06-.8,6.11-1.6,9.17-2.41-2.32-1.73-4.65-3.46-6.97-5.19-2.93-2.18-7.47-.49-9.16,2.41-2,3.41-.52,6.99,2.4,9.16Z"/>
      </g>
      <polygon class="st16" points="127.83 258.19 134.8 263.38 143.83 251.14 127.83 258.19"/>
    </g>
    <polygon class="st25" points="143.83 251.14 134.8 263.38 127.83 258.19 129.55 257.43 134.71 261.13 143.83 251.14"/>
  </g>
  <g>
    <polygon class="st1" points="143.27 242.47 120.72 259.7 96.92 242.47 143.27 242.47"/>
    <path d="M141.59,239.58c-7.52,5.74-15.04,11.49-22.55,17.23h3.38c-7.94-5.74-15.87-11.49-23.81-17.23-.57,2.08-1.13,4.16-1.69,6.25h46.36c4.32,0,4.32-6.7,0-6.7h-46.36c-1.49,0-2.83,1.02-3.23,2.46-.43,1.56.31,2.89,1.54,3.78,7.94,5.74,15.88,11.49,23.81,17.23.86.62,2.53.65,3.38,0,7.52-5.74,15.03-11.49,22.55-17.23,1.45-1.1,2.21-2.86,1.21-4.58-.84-1.43-3.13-2.32-4.58-1.21Z"/>
  </g>
  <g>
    <g>
      <g>
        <g>
          <g>
            <path class="st18" d="M12.76,93.82s-1.62,40.5-.43,65.3c1.19,24.8,16.9,33.36,16.9,33.36v-72.79l-16.46-25.87Z"/>
            <path d="M3.38,93.82c-.74,18.61-1.12,37.26-.74,55.88.14,6.91.34,13.82,1.74,20.62,1.22,5.84,3.54,11.66,6.75,16.7,2.26,3.56,5.01,6.98,8.22,9.74,1.59,1.37,3.28,2.81,5.14,3.83,6.19,3.39,14.11-.84,14.11-8.1v-72.7c0-3.15-1.5-5.17-3.05-7.59-1.92-3.01-3.83-6.02-5.74-9.04-2.98-4.69-5.97-9.38-8.95-14.06-2.74-4.31-8.3-6.02-12.83-3.37-4.28,2.51-6.11,8.52-3.37,12.83,5.49,8.62,10.98,17.25,16.46,25.87-.43-1.58-.85-3.15-1.28-4.73v72.79c4.71-2.7,9.41-5.4,14.12-8.1-.76-.41-1.46-.93-2.13-1.45.63.49,1.26.98,1.89,1.46-2.23-1.73-4.2-3.79-5.94-6.02.49.63.98,1.27,1.47,1.9-2.07-2.7-3.76-5.65-5.1-8.76.32.74.63,1.49.95,2.24-1.67-3.96-2.73-8.12-3.3-12.38.11.83.22,1.66.34,2.49-.79-6.14-.73-12.44-.81-18.63-.09-6.38-.06-12.76.01-19.14.12-9.71.35-19.43.69-29.13.04-1.04.07-2.1.12-3.14.2-5.12-4.42-9.38-9.38-9.38-5.27,0-9.17,4.27-9.38,9.38Z"/>
          </g>
          <path class="st14" d="M12.76,90.2s-1.62,44.12-.43,68.92c1.19,24.8,16.9,33.36,16.9,33.36v-72.79l-16.46-29.49Z"/>
          <path class="st19" d="M15.81,159.13c-.93-19.27-.16-50.18.24-63.03l-3.29-5.89s-1.62,44.12-.43,68.92c1.19,24.8,16.9,33.36,16.9,33.36v-2.57c-4.7-4.11-12.58-13.5-13.41-30.79Z"/>
        </g>
        <g>
          <g>
            <path class="st18" d="M228.51,93.82s1.62,40.5.43,65.3c-1.19,24.8-16.9,33.36-16.9,33.36v-72.79l16.46-25.87Z"/>
            <path d="M219.13,93.82c.74,18.61,1.13,37.26.74,55.88-.1,4.72-.13,9.49-.73,14.17.12-.83.22-1.66.34-2.49-.58,4.25-1.64,8.42-3.3,12.38.32-.75.63-1.5.95-2.24-1.34,3.12-3.03,6.07-5.1,8.76.49-.63.98-1.27,1.47-1.9-1.74,2.23-3.71,4.29-5.95,6.02.63-.48,1.26-.97,1.9-1.46-.68.52-1.38,1.04-2.13,1.45,4.71,2.7,9.41,5.4,14.11,8.1v-72.79c-.42,1.58-.85,3.16-1.28,4.73,5.48-8.62,10.97-17.25,16.46-25.87,2.75-4.32.92-10.33-3.37-12.83-4.54-2.66-10.09-.94-12.83,3.37-3.41,5.35-6.82,10.71-10.22,16.07-1.84,2.88-3.67,5.77-5.5,8.65-1.15,1.81-2.02,3.56-2.02,5.9v72.78c0,7.26,7.93,11.49,14.11,8.1,1.91-1.04,3.62-2.52,5.26-3.93,3.3-2.84,6.09-6.42,8.39-10.1,3.29-5.25,5.53-11.32,6.69-17.39,1.32-6.9,1.41-13.94,1.55-20.94.33-18.13-.05-36.29-.77-54.4-.21-5.11-4.12-9.38-9.38-9.38-4.96,0-9.58,4.27-9.38,9.38Z"/>
          </g>
          <path class="st14" d="M228.51,90.2s1.62,44.12.43,68.92c-1.19,24.8-16.9,33.36-16.9,33.36v-72.79l16.46-29.49Z"/>
          <path class="st19" d="M228.51,90.2l-3.88,6.96c.4,13.42,1.11,43.21.21,61.97-.8,16.54-8.04,25.86-12.79,30.23v3.13s15.71-8.55,16.9-33.36c1.19-24.81-.43-68.92-.43-68.92Z"/>
        </g>
      </g>
      <g>
        <g>
          <path class="st18" d="M30.62,86.42c-.32,12.89,0,89.08,0,89.08,0,34.62,19.4,66.71,91.69,66.41,71.55-.29,88.49-31.8,88.49-66.41v-89.08H30.62Z"/>
          <path d="M21.24,86.42c-.38,15.14-.16,30.3-.13,45.44.02,14.25.07,28.51.13,42.76.06,14.84,3.02,30,11.58,42.41,5.55,8.05,12.76,14.64,21.17,19.64,9.67,5.75,20.67,9.33,31.68,11.45,14.8,2.86,30.03,3.58,45.07,2.97,13.41-.54,27.06-2.2,39.87-6.34,10.29-3.32,19.85-8.26,28.06-15.33,6.32-5.45,11.52-12.51,14.88-20.15,3.68-8.39,5.61-17,6.35-26.14.33-4,.29-8.01.29-12.03v-84.69c0-5.11-4.27-9.37-9.38-9.37H30.62c-5.11,0-9.38,4.27-9.38,9.37s4.27,9.38,9.38,9.38h180.18c-3.12-3.12-6.25-6.25-9.38-9.38v79.95c0,7.04.17,14.09-.76,21.09.12-.83.23-1.66.33-2.49-.76,5.64-2.14,11.2-4.35,16.46.32-.75.63-1.49.95-2.24-1.73,4.09-3.96,7.95-6.67,11.48.49-.64.97-1.27,1.47-1.9-2.7,3.48-5.84,6.58-9.32,9.29.63-.49,1.26-.98,1.9-1.47-4.48,3.46-9.44,6.22-14.64,8.44.74-.32,1.49-.64,2.24-.95-8.88,3.74-18.35,5.9-27.88,7.19.83-.11,1.66-.22,2.49-.34-16.84,2.25-34.26,2.27-51.11.05.83.12,1.66.22,2.49.33-9.7-1.3-19.33-3.5-28.39-7.3.75.32,1.5.63,2.25.95-5.45-2.3-10.64-5.18-15.33-8.79.63.49,1.26.98,1.9,1.47-3.66-2.83-6.97-6.08-9.81-9.74.48.63.98,1.26,1.47,1.9-2.79-3.62-5.09-7.58-6.88-11.78.32.75.63,1.49.95,2.24-2.19-5.21-3.59-10.7-4.35-16.29.11.83.23,1.66.34,2.49-.62-4.69-.7-9.4-.72-14.12-.03-6.51-.05-13.02-.07-19.54-.05-18.17-.11-36.34-.04-54.51.02-3.96.02-7.93.12-11.9.13-5.11-4.36-9.37-9.38-9.37s-9.25,4.27-9.38,9.37Z"/>
        </g>
        <path class="st1" d="M30.62,86.42c-.32,12.89,0,89.08,0,89.08,0,34.62,19.4,66.71,91.69,66.41,71.55-.29,88.49-31.8,88.49-66.41v-89.08H30.62Z"/>
      </g>
      <g>
        <g>
          <g>
            <path class="st18" d="M70.22,23.76l.17-.5s-42.41,17.81-53.66,54.61c-11.25,36.79-2.58,62.8-2.58,62.8l20.15-14.06s-7.46-71.25,35.91-102.85Z"/>
            <path d="M79.26,26.25c.06-.17.12-.33.17-.5,1.08-3.1-.17-6.88-2.41-9.12-2.13-2.14-6.15-3.67-9.12-2.41-13.32,5.6-25.64,13.94-36.14,23.81-8.67,8.14-16.25,17.98-20.91,28.97-6.17,14.55-8.98,30.76-9.25,46.53-.13,7.42.53,14.85,1.79,22.16.43,2.51.92,5.05,1.72,7.47.79,2.36,2.12,4.32,4.31,5.61,2.72,1.59,6.78,1.87,9.47,0,6.71-4.69,13.44-9.38,20.15-14.06,2.54-1.78,4.99-4.72,4.65-8.1-1.06-10.07-.58-20.45.47-30.49.16-1.51.34-3.02.54-4.53-.11.83-.22,1.66-.34,2.49,1.55-11.56,4.32-22.99,8.86-33.74-.31.74-.63,1.49-.94,2.24,2.97-6.98,6.69-13.63,11.31-19.66-.49.64-.98,1.27-1.47,1.9,3.8-4.92,8.17-9.36,13.08-13.19-.64.49-1.26.97-1.9,1.47.54-.42,1.09-.83,1.65-1.24,2.05-1.5,3.61-3.06,4.31-5.61.66-2.42.32-5.06-.95-7.23-1.22-2.1-3.26-3.67-5.6-4.31-2.22-.61-5.3-.47-7.23.95-10.06,7.37-18.31,16.62-24.49,27.47-5.48,9.61-9.36,20.22-11.95,30.96-3.75,15.58-5.19,31.95-4.43,47.96.08,1.52.16,3.04.31,4.55,1.55-2.7,3.1-5.4,4.65-8.1-6.72,4.69-13.44,9.38-20.15,14.06,4.6,1.86,9.18,3.73,13.78,5.61-1.17-3.51-1.76-7.26-2.26-10.91.12.83.23,1.66.34,2.49-1.37-10.25-1.18-20.65.2-30.88-.11.83-.23,1.66-.34,2.49,1.26-9.19,3.27-18.55,6.86-27.13-.32.75-.63,1.5-.95,2.24,2.49-5.88,5.81-11.36,9.7-16.41-.48.63-.97,1.26-1.47,1.9,5.21-6.7,11.38-12.59,18.09-17.77-.64.48-1.26.97-1.9,1.46,7.23-5.56,15.21-10.72,23.64-14.29-.74.31-1.49.63-2.24.94h0c-3.84-3.85-7.69-7.69-11.53-11.54-.06.17-.12.34-.17.5-1.69,4.83,1.88,10.25,6.55,11.54,5.18,1.43,9.85-1.73,11.53-6.55Z"/>
          </g>
          <path class="st24" d="M70.22,23.76l.17-.5s-42.41,17.81-53.66,54.61c-11.25,36.79-2.58,62.8-2.58,62.8l20.15-14.06s-7.46-71.25,35.91-102.85Z"/>
          <path class="st10" d="M22.13,77.87c10.26-30.94,48.26-54.61,48.26-54.61,0,0-42.41,17.81-53.66,54.61-11.25,36.79-2.58,62.8-2.58,62.8l4.55-3.18c-1.87-8-6.18-30.63,3.43-59.63Z"/>
        </g>
        <g>
          <g>
            <path class="st18" d="M171.05,23.76l-.17-.5s42.41,17.81,53.66,54.61c11.25,36.79,2.58,62.8,2.58,62.8l-20.15-14.06s7.46-71.25-35.92-102.85Z"/>
            <path d="M180.09,21.26c-.06-.16-.12-.33-.17-.5-3.84,3.85-7.69,7.7-11.54,11.54h0c-.75-.31-1.49-.63-2.24-.94,8.44,3.57,16.41,8.72,23.65,14.29-.63-.49-1.27-.98-1.9-1.46,6.71,5.18,12.88,11.07,18.09,17.77-.49-.63-.98-1.26-1.47-1.9,3.9,5.05,7.21,10.53,9.7,16.41-.32-.74-.63-1.49-.95-2.24,3.58,8.58,5.59,17.95,6.86,27.13-.12-.83-.22-1.66-.33-2.49,1.37,10.23,1.56,20.64.19,30.88.12-.83.22-1.66.33-2.49-.49,3.65-1.09,7.4-2.25,10.91,4.6-1.87,9.18-3.74,13.78-5.61-6.72-4.69-13.44-9.38-20.15-14.06,1.55,2.7,3.09,5.4,4.64,8.1,1.05-10.07.58-20.45-.47-30.49-2.24-21.36-7.9-43.2-20.63-60.85-5.5-7.62-11.87-14.06-19.46-19.61-1.93-1.41-5.01-1.55-7.23-.95-2.34.65-4.38,2.22-5.6,4.31-1.27,2.16-1.62,4.81-.95,7.23.7,2.54,2.26,4.11,4.31,5.61.55.4,1.1.81,1.65,1.24-.63-.49-1.26-.98-1.9-1.47,4.91,3.82,9.28,8.27,13.08,13.19-.49-.63-.98-1.26-1.47-1.9,4.62,6.03,8.34,12.68,11.31,19.66-.31-.75-.63-1.5-.95-2.24,4.54,10.75,7.31,22.19,8.86,33.74-.11-.83-.22-1.66-.34-2.49,1.52,11.44,2.11,23.24,1.04,34.75,0,.09-.02.18-.03.28-.35,3.38,2.1,6.32,4.65,8.1,6.71,4.69,13.43,9.38,20.15,14.06,1.99,1.38,4.96,1.56,7.23.95,3.28-.91,5.5-3.4,6.55-6.55,1.84-5.55,2.49-11.65,3.05-17.42,1.32-13.81-.1-27.92-3.21-41.4-1.72-7.45-4.09-14.68-7.52-21.52-2.88-5.75-6.64-10.99-10.7-15.96-6.89-8.43-15.4-15.52-24.37-21.64-6.32-4.31-12.99-8.04-20.04-11-2.97-1.25-6.99.28-9.12,2.41-2.25,2.24-3.5,6.02-2.41,9.12.06.17.12.33.17.5,1.69,4.82,6.36,7.98,11.53,6.55,4.68-1.29,8.24-6.71,6.55-11.54Z"/>
          </g>
          <path class="st24" d="M171.05,23.76l-.17-.5s42.41,17.81,53.66,54.61c11.25,36.79,2.58,62.8,2.58,62.8l-20.15-14.06s7.46-71.25-35.92-102.85Z"/>
        </g>
      </g>
      <path class="st10" d="M219.14,77.87c-10.26-30.94-48.26-54.61-48.26-54.61,0,0,42.41,17.81,53.66,54.61,11.25,36.79,2.58,62.8,2.58,62.8l-4.55-3.18c1.88-8,6.19-30.63-3.43-59.63Z"/>
      <g>
        <g>
          <path class="st18" d="M120.63,9.38c-99.05,0-86.7,117.64-86.7,117.64,0,0,34.84-21.09,86.7-21.09s86.71,21.09,86.71,21.09c0,0,12.34-117.64-86.71-117.64Z"/>
          <path d="M120.63,0c-20.02.02-40.75,4.75-56.9,17.08-7.38,5.63-13.55,12.1-18.88,19.71-4.69,6.69-8.21,14.06-11.2,21.65-5.21,13.27-7.77,27.5-8.98,41.65-.7,8.26-.87,16.61-.29,24.89.04.68.09,1.36.16,2.03.36,3.39,1.56,6.3,4.65,8.1,2.86,1.67,6.61,1.73,9.47,0,4.23-2.56,8.83-4.59,13.36-6.51-.74.31-1.5.63-2.24.95,15.24-6.41,31.38-10.65,47.75-12.87-.83.11-1.66.22-2.49.33,16.98-2.26,34.21-2.26,51.19,0-.84-.12-1.66-.22-2.5-.33,16.38,2.22,32.51,6.45,47.75,12.87-.75-.32-1.5-.63-2.24-.95,4.54,1.92,9.13,3.95,13.36,6.51,2.86,1.73,6.6,1.67,9.47,0,3.08-1.8,4.29-4.7,4.65-8.1.55-5.32.57-10.74.44-16.09-.28-13.01-1.89-26.16-5.14-38.77-4.05-15.7-11-30.58-21.5-43.01-11.82-14-28.67-23.21-46.53-26.84C136.33.75,128.46,0,120.63,0c-5.11,0-9.38,4.27-9.38,9.38s4.27,9.38,9.38,9.38c4.9,0,9.78.29,14.63.93-.83-.11-1.66-.22-2.49-.34,7.49,1.01,14.85,2.86,21.84,5.79-.75-.32-1.49-.63-2.25-.95,5.66,2.4,11.01,5.48,15.88,9.23-.63-.49-1.26-.98-1.9-1.47,4.9,3.79,9.27,8.21,13.06,13.11-.49-.63-.98-1.26-1.47-1.9,4.69,6.08,8.46,12.81,11.45,19.87-.32-.74-.63-1.5-.95-2.24,4.51,10.7,7.27,22.08,8.82,33.57-.11-.83-.22-1.66-.33-2.49,1.31,9.82,1.79,19.79,1.38,29.7-.08,1.82-.17,3.64-.36,5.45,4.71-2.7,9.41-5.4,14.11-8.1-3.2-1.93-6.63-3.52-10.03-5.05-9.59-4.31-19.5-7.87-29.66-10.57-29.83-7.92-61.22-8.7-91.48-2.77-11.11,2.18-22.04,5.35-32.58,9.5-6.15,2.42-12.29,5.06-18.08,8.28-.36.2-.71.4-1.06.61,4.71,2.7,9.4,5.4,14.11,8.1-.55-5.32-.56-10.74-.44-16.09.14-6.37.62-12.74,1.47-19.05-.11.83-.22,1.66-.33,2.49,1.55-11.49,4.31-22.87,8.82-33.57-.32.74-.63,1.5-.95,2.24,3-7.06,6.77-13.79,11.45-19.87-.49.64-.98,1.27-1.47,1.9,3.79-4.9,8.16-9.32,13.05-13.11-.63.49-1.26.98-1.9,1.47,4.88-3.75,10.22-6.83,15.88-9.23-.75.32-1.5.63-2.24.95,6.98-2.93,14.35-4.78,21.84-5.79-.83.12-1.66.22-2.49.34,4.86-.64,9.75-.92,14.63-.93,5.12,0,9.38-4.26,9.38-9.38S125.75,0,120.63,0Z"/>
        </g>
        <path class="st24" d="M120.63,9.38c-99.05,0-86.7,117.64-86.7,117.64,0,0,34.84-21.09,86.7-21.09s86.71,21.09,86.71,21.09c0,0,12.34-117.64-86.71-117.64Z"/>
        <path class="st22" d="M120.63,15.81c76.58,0,86.58,70.31,87.17,102.22.52-27.5-4.9-108.65-87.17-108.65S32.94,90.53,33.47,118.03c.59-31.91,10.59-102.22,87.16-102.22Z"/>
        <path class="st10" d="M207.34,117.1s-34.84-21.09-86.7-21.09-86.71,21.09-86.71,21.09c0,0-.23-2.13-.37-5.82-.42,11.19.37,18.69.37,18.69,0,0,34.84-21.09,86.71-21.09s86.7,21.09,86.7,21.09c0,0,.79-7.49.37-18.69-.14,3.69-.37,5.82-.37,5.82Z"/>
      </g>
      <path class="st23" d="M199.66,162.36s-2.37,2.48-9.5,2.64c-7.12.17-31.91-16.83-69.46-16.83h-.05s-.01,0-.01,0c-.01,0-.01,0-.02,0h0s-.04,0-.05,0c-37.56,0-62.35,17-69.47,16.83-7.12-.16-9.5-2.64-9.5-2.64l-11.08-8.73c0,2.95.01,5.79.02,8.46l11.06,8.72s2.37,2.48,9.5,2.64c7.12.17,31.91-16.83,69.47-16.83h.13c37.56,0,62.35,17,69.46,16.83,7.12-.16,9.5-2.64,9.5-2.64l11.13-8.77v-8.44l-11.13,8.77Z"/>
      <g>
        <path class="st18" d="M120.72,111.51h-.17c-72.91,0-93.19,32.33-93.19,32.33l14.24,11.22s2.37,2.47,9.5,2.64c7.12.17,31.91-16.83,69.47-16.83h.13c37.56,0,62.35,17,69.46,16.83,7.12-.17,9.5-2.64,9.5-2.64l14.24-11.22s-20.29-32.33-93.19-32.33Z"/>
        <path d="M120.72,102.13c-25.04.16-50.41,3.52-73.18,14.47-6.66,3.21-12.8,7.23-18.5,11.93-2.7,2.23-5.28,4.69-7.43,7.46-.77.98-1.66,2.03-2.34,3.11-2.04,3.24-1.72,8.86,1.47,11.37,4.75,3.74,9.49,7.47,14.22,11.21,1.36,1.07,2.53,2.11,4.1,2.78,3.91,1.69,7.92,2.65,12.23,2.62,3.32-.03,6.51-1.18,9.55-2.37,6.14-2.39,12.18-4.99,18.41-7.14,8.84-3.04,17.94-5.29,27.2-6.54-.83.11-1.66.22-2.49.34,11.08-1.46,22.28-1.46,33.36,0-.83-.12-1.66-.23-2.49-.34,12.2,1.65,24,5.1,35.45,9.59,3.77,1.48,7.49,3.09,11.27,4.53,3.39,1.29,6.83,2.13,10.5,1.84,5.27-.42,10.02-1.77,14.12-5.16,1.02-.84,2.07-1.65,3.11-2.47,3.76-2.96,7.52-5.92,11.27-8.88,3.18-2.51,3.5-8.12,1.46-11.37-4.34-6.91-11.42-12.38-18.11-16.78-7.36-4.84-15.55-8.47-23.84-11.38-11.74-4.12-24.04-6.32-36.38-7.65-7.62-.82-15.29-1.16-22.95-1.16-5.11-.01-9.38,4.27-9.38,9.38s4.27,9.38,9.38,9.38c9.29.01,18.57.53,27.78,1.75-.83-.12-1.66-.22-2.49-.34,12.26,1.65,24.41,4.53,35.83,9.34-.75-.31-1.49-.63-2.24-.94,6.92,2.93,13.57,6.58,19.52,11.18-.63-.49-1.26-.98-1.9-1.47,3.37,2.62,6.59,5.52,9.21,8.9-.49-.63-.98-1.27-1.47-1.9.29.38.59.76.84,1.17.49-3.79.98-7.57,1.47-11.37-4.84,3.82-9.69,7.61-14.5,11.45.63-.48,1.26-.98,1.89-1.46-.58.45-1.24.79-1.92,1.08.74-.32,1.5-.63,2.24-.95-1.35.55-2.76.88-4.2,1.09.83-.11,1.66-.22,2.49-.33-1.32.17-2.7.35-4.02.19.83.11,1.66.22,2.49.34-2.73-.38-5.38-1.59-7.91-2.61-4.17-1.67-8.32-3.41-12.54-4.98-12.83-4.77-26.12-7.83-39.76-9.05-14.95-1.33-30.17.17-44.71,3.78-10.12,2.52-19.74,6.36-29.39,10.25-2.53,1.02-5.18,2.23-7.91,2.61.83-.12,1.66-.23,2.49-.34-1.33.16-2.7-.02-4.02-.19.83.12,1.66.22,2.49.33-1.44-.21-2.85-.54-4.2-1.09.75.31,1.5.63,2.24.95-.68-.29-1.33-.63-1.92-1.08.63.48,1.26.98,1.9,1.46-4.81-3.84-9.66-7.63-14.5-11.45.49,3.79.98,7.58,1.47,11.37.25-.4.55-.79.84-1.17-.49.63-.98,1.26-1.47,1.9,2.62-3.38,5.84-6.29,9.21-8.9-.63.49-1.27.98-1.9,1.47,5.96-4.6,12.6-8.24,19.52-11.18-.74.31-1.49.63-2.24.94,11.42-4.81,23.58-7.69,35.84-9.34-.83.11-1.66.22-2.49.34,9.28-1.23,18.59-1.69,27.95-1.75,5.11-.03,9.38-4.24,9.38-9.38s-4.26-9.41-9.38-9.38Z"/>
      </g>
      <path class="st24" d="M120.72,111.51h-.17c-72.91,0-93.19,32.33-93.19,32.33l14.24,11.22s2.37,2.47,9.5,2.64c7.12.17,31.91-16.83,69.47-16.83h.13c37.56,0,62.35,17,69.46,16.83,7.12-.17,9.5-2.64,9.5-2.64l14.24-11.22s-20.29-32.33-93.19-32.33Z"/>
      <path class="st10" d="M120.55,115.53h.17c60.47,0,84.74,22.24,91.25,29.84l1.93-1.53s-20.29-32.33-93.19-32.33h-.17c-72.91,0-93.19,32.33-93.19,32.33l1.93,1.53c6.52-7.59,30.79-29.84,91.26-29.84Z"/>
      <path class="st22" d="M199.66,150.14s-2.37,2.48-9.5,2.64c-7.12.17-31.91-16.83-69.46-16.83-.02,0-.04,0-.05,0h-.03s-.04,0-.05,0c-37.56,0-62.35,16.99-69.47,16.83-7.12-.16-9.5-2.64-9.5-2.64l-11.85-9.33c-1.67,1.88-2.4,3.03-2.4,3.03l14.24,11.22s2.37,2.47,9.5,2.64c7.12.17,31.91-16.83,69.47-16.83h.13c37.56,0,62.35,17,69.46,16.83,7.12-.17,9.5-2.64,9.5-2.64l14.24-11.22s-.73-1.15-2.4-3.03l-11.85,9.33Z"/>
      <g>
        <path class="st6" d="M165.19,33.54c9.12,5.87,14.24,14.18,11.42,18.55-2.82,4.38-12.5,3.16-21.62-2.71s-14.24-14.18-11.42-18.56c2.82-4.37,12.5-3.16,21.62,2.72Z"/>
        <path class="st6" d="M184.52,58.4c-.64,1.9-2.7,2.93-4.61,2.29-1.9-.64-2.93-2.7-2.28-4.61.64-1.9,2.7-2.93,4.61-2.28,1.9.64,2.92,2.7,2.28,4.6Z"/>
      </g>
    </g>
    <g>
      <g>
        <g>
          <g>
            <path class="st8" d="M83.03,190.56c0,7.99-6.48,14.47-14.47,14.47s-14.47-6.48-14.47-14.47,6.48-14.47,14.47-14.47,14.47,6.48,14.47,14.47Z"/>
            <path d="M81.02,190.56c-.08,5.85-4.05,10.77-9.73,12.16-5.72,1.39-11.49-1.77-14.03-6.9-2.54-5.1-.81-11.69,3.66-15.12,4.62-3.54,11.24-3.43,15.69.34,2.82,2.38,4.36,5.86,4.41,9.52.03,2.59,4.05,2.59,4.02,0-.08-6.24-3.57-11.98-9.19-14.77-5.7-2.84-12.69-2.01-17.64,1.97-4.95,3.99-7.03,10.45-5.69,16.61,1.31,6.02,6.33,10.79,12.24,12.23,10.28,2.51,20.14-5.65,20.27-16.04.04-2.59-3.98-2.59-4.02,0Z"/>
          </g>
          <path class="st6" d="M78.97,186.76c0,1.96-1.59,3.55-3.55,3.55s-3.56-1.59-3.56-3.55,1.59-3.56,3.56-3.56,3.55,1.59,3.55,3.56Z"/>
        </g>
        <g>
          <g>
            <g>
              <path class="st8" d="M188.89,190.56c0,7.99-6.48,14.47-14.47,14.47s-14.47-6.48-14.47-14.47,6.48-14.47,14.47-14.47,14.47,6.48,14.47,14.47Z"/>
              <path d="M186.88,190.56c-.07,5.85-4.05,10.77-9.72,12.16-5.73,1.39-11.49-1.77-14.04-6.9-2.53-5.1-.8-11.69,3.67-15.12,4.61-3.54,11.23-3.43,15.68.34,2.82,2.38,4.36,5.86,4.41,9.52.03,2.59,4.05,2.59,4.02,0-.08-6.24-3.58-11.98-9.2-14.77-5.7-2.84-12.69-2.01-17.64,1.97-4.95,3.99-7.03,10.45-5.69,16.61,1.32,6.02,6.33,10.79,12.24,12.23,10.28,2.51,20.15-5.65,20.28-16.04.03-2.59-3.99-2.59-4.02,0Z"/>
            </g>
            <path class="st6" d="M184.83,186.76c0,1.96-1.59,3.55-3.56,3.55s-3.55-1.59-3.55-3.55,1.59-3.56,3.55-3.56,3.56,1.59,3.56,3.56Z"/>
          </g>
          <path class="st13" d="M66.45,212.25c.31,2.26-3.58,4.65-8.69,5.35-5.11.7-9.5-.58-9.81-2.84-.31-2.26,3.58-4.65,8.69-5.35,5.11-.69,9.5.58,9.81,2.84Z"/>
          <path class="st13" d="M173.88,212.25c-.31,2.26,3.59,4.65,8.69,5.35,5.1.7,9.5-.58,9.8-2.84.31-2.26-3.58-4.65-8.69-5.35-5.11-.69-9.5.58-9.8,2.84Z"/>
        </g>
      </g>
      <path d="M128.3,218.18c-.05.29-.13.58-.22.86-.05.16-.11.31-.17.46.38-.96.09-.26-.01-.05-.1.2-.22.39-.33.58-.1.16-.61.83-.08.16-.31.39-.66.73-1.02,1.06-.25.2-.23.2.05-.02-.13.09-.27.18-.4.28-.29.19-.59.36-.9.51-.31.14-.33.15-.06.05-.18.08-.37.14-.55.21-.4.14-.81.25-1.22.35-.9.22-1.61.26-2.58.28-1.78.04-3.23-.16-4.91-.77.49.18-.46-.24-.55-.29-.29-.16-.57-.34-.85-.53.59.4-.17-.16-.28-.26-.21-.19-.39-.39-.58-.6-.36-.4.35.51-.12-.16-.13-.19-.24-.39-.35-.59-.1-.17-.19-.36-.28-.55.41.9.13.3.06.09-.16-.45-.33-1.79-.16-.29-.17-1.59-1.21-2.94-2.95-2.94-1.47,0-3.12,1.34-2.94,2.94.23,2.02,1.07,3.78,2.33,5.36,2.57,3.21,6.79,4.32,10.73,4.47,4.13.15,8.6-.99,11.46-4.13,1.19-1.3,2.33-3.12,2.59-4.92.23-1.59-.36-3.16-2.06-3.62-1.4-.38-3.4.47-3.62,2.06h0Z"/>
    </g>
  </g>
  <g>
    <g>
      <g>
        <path class="st5" d="M56.96,275.82l9.4,12.75.51.69,6.18,8.39c.77,1.03,2.22,1.25,3.26.49s1.26-2.22.49-3.25l-5.8-7.86-.89-1.21-9.4-12.75-3.75,2.77Z"/>
        <path d="M51.17,279.21c3.36,4.55,6.72,9.12,10.09,13.68,1.99,2.69,3.97,5.39,5.96,8.08,1.42,1.93,3.24,3.7,5.73,4.08,4.05.61,7.55-.79,9.8-4.28,2.13-3.32,1.19-7.41-.99-10.37-5.09-6.9-10.19-13.81-15.28-20.71-1.08-1.47-2.19-2.58-4.01-3.08-1.58-.43-3.79-.34-5.16.68-1.25.92-2.5,1.84-3.75,2.76-2.93,2.16-4.39,5.76-2.4,9.17,1.7,2.89,6.22,4.57,9.17,2.4,1.25-.92,2.49-1.84,3.74-2.77-3.05-.8-6.11-1.6-9.16-2.4,3.44,4.66,6.88,9.33,10.32,13.99,1.9,2.59,3.82,5.18,5.73,7.76.02.02.03.05.05.06.06.1.12.2.18.29-.67-1.17-.82-2.35-.46-3.57.15-.98,1.11-1.96,1.9-2.45,1.64-1.03,3.03-.71,4.55-.01.69.31,1.26,1.22,1.63,1.71-.04-.05-.07-.1-.1-.14-.18-.24-.36-.48-.54-.73-1.19-1.62-2.38-3.24-3.58-4.86-3.95-5.36-7.9-10.71-11.85-16.07-2.17-2.93-5.76-4.4-9.17-2.4-2.9,1.7-4.57,6.22-2.4,9.17Z"/>
      </g>
      <path class="st3" d="M56.96,275.82l9.4,12.75.51.69,6.18,8.39c.77,1.03,2.22,1.25,3.26.49s1.26-2.22.49-3.25l-5.8-7.86-.89-1.21-9.4-12.75-3.75,2.77Z"/>
      <path class="st2" d="M73.92,297.01l-6.19-8.39-.5-.69-9.4-12.75-.87.65,9.4,12.75.51.69,6.18,8.39c.77,1.03,2.22,1.25,3.26.49.15-.11.28-.24.4-.38-.97.41-2.12.12-2.78-.76Z"/>
      <path class="st4" d="M75.92,295.53l-6.19-8.39-.5-.69-9.4-12.75.88-.65,9.4,12.75.5.68,6.19,8.39c.77,1.03.54,2.49-.49,3.25-.15.12-.31.2-.48.27.68-.8.75-2,.1-2.88Z"/>
    </g>
    <g>
      <g>
        <g>
          <polygon class="st18" points="67.02 239.04 52.94 219.94 52.94 219.92 52.92 219.92 52.91 219.9 52.9 219.91 29.44 216.37 29.43 216.35 29.41 216.36 29.39 216.36 29.39 216.38 10.29 230.46 10.27 230.46 10.27 230.48 10.25 230.49 10.27 230.5 6.72 253.96 6.71 253.97 6.72 253.99 6.72 254.01 6.73 254.01 20.81 273.11 20.81 273.13 20.83 273.13 20.84 273.15 20.85 273.13 44.31 276.68 44.33 276.7 44.34 276.68 44.36 276.69 44.37 276.67 63.46 262.59 63.48 262.59 63.48 262.58 63.5 262.56 63.49 262.55 67.03 239.09 67.05 239.07 67.04 239.06 67.04 239.04 67.02 239.04"/>
          <path d="M72.8,235.66c-4.69-6.37-9.39-12.73-14.08-19.1.22,1.72.45,3.44.67,5.16,0,0,0-.01,0-.02.28-1.87.31-3.47-.67-5.16-.79-1.34-2.39-2.85-4.01-3.08h-.02c1.33,1.03,2.67,2.05,4,3.08,0,0,0,0-.01-.02-1.06-1.47-2.19-2.57-4-3.08-1.58-.43-3.78-.33-5.16.68,0,0-.01.01-.02.01,1.72-.22,3.44-.45,5.16-.68-7.82-1.18-15.64-2.36-23.46-3.54,1.34,1.03,2.67,2.05,4.01,3.08h-.01c-1.1-1.47-2.17-2.59-4-3.09-1.62-.45-3.75-.31-5.17.67,0,0-.01.01-.01.01,1.72-.22,3.44-.45,5.16-.67h-.02c-1.85-.32-3.49-.31-5.16.67-1.35.79-2.84,2.38-3.08,4v.02c1.03-1.33,2.05-2.67,3.08-4-6.37,4.69-12.73,9.39-19.1,14.08,1.72-.22,3.44-.45,5.16-.68h-.02c-1.84-.32-3.49-.3-5.16.67-1.34.79-2.85,2.39-3.08,4.01v.02c1.03-1.33,2.05-2.67,3.08-4,0,0-.01,0-.01.01-1.47,1.07-2.58,2.19-3.08,4-.44,1.6-.32,3.77.68,5.16,0,0,0,.01,0,.02-.23-1.72-.45-3.44-.68-5.16-1.18,7.82-2.36,15.64-3.54,23.46,1.02-1.33,2.05-2.67,3.08-4.01,0,0,0,.01-.01.01-1.47,1.08-2.58,2.19-3.08,4.01-.44,1.59-.33,3.77.68,5.16,0,0,0,.01.01.02-.22-1.72-.45-3.44-.68-5.16v.02c-.28,1.87-.32,3.46.68,5.16,1.29,2.21,3.36,3.04,5.78,3.32h.02c-1.93-1.11-3.86-2.21-5.78-3.32,4.69,6.37,9.39,12.74,14.08,19.1-.23-1.72-.45-3.44-.68-5.16v.02c-.29,1.87-.32,3.47.68,5.17.78,1.33,2.39,2.85,4,3.08h.02c-1.34-1.02-2.67-2.05-4.01-3.08t.01.02c1.05,1.46,2.2,2.58,4,3.08,1.58.43,3.79.33,5.17-.68,0,0,0,0,.01-.01-1.72.22-3.44.45-5.16.68,7.82,1.18,15.64,2.36,23.46,3.54-1.33-1.03-2.67-2.05-4-3.08,0,0,0,.01,0,.02,1.93,2.71,6.04,4.72,9.17,2.4,0,0,.01,0,.01-.01-1.72.22-3.44.45-5.16.68t.02,0c1.87.27,3.46.32,5.16-.68,1.38-.81,2.79-2.37,3.08-4.01,0,0,0-.01,0-.02-1.03,1.33-2.06,2.67-3.08,4,6.37-4.69,12.73-9.39,19.1-14.08-1.73.22-3.45.45-5.17.68,0,0,.01,0,.02,0,3.26.61,7.65-.87,8.24-4.68v-.02c-1.03,1.33-2.05,2.67-3.08,4.01,0,0,.01-.01.01-.01,1.46-1.12,2.58-2.16,3.08-4.01.43-1.56.35-3.8-.67-5.16,0,0,0-.01-.01-.02.22,1.72.45,3.45.68,5.16,1.18-7.82,2.37-15.64,3.55-23.46-.58.99-1.16,1.97-1.73,2.96,0,0,.01,0,.01,0,2.14-1.66,2.7-5.97,1.05-8.12t-.01-.01c.23,1.72.45,3.44.68,5.16v-.02c.27-1.88.32-3.46-.68-5.16-.78-1.35-2.38-2.85-4-3.08h-.02c-1.88-.27-3.46-.32-5.17.67-1.5.88-2.62,2.33-3.08,4-.87,3.17,1.06,7.73,4.68,8.24h.02c-1.56-2.75-3.12-5.5-4.68-8.24-.24,1.7-.46,3.7.69,5.2.35-2.71.7-5.42,1.04-8.12-1.89,1.47-1.93,4.25-2.25,6.39-.43,2.81-.85,5.63-1.28,8.44-.42,2.79-.84,5.58-1.26,8.37-.38,2.56-1.4,6.29.2,8.41.8-3.05,1.6-6.11,2.4-9.17-1.33,1.03-2.82,2.22-3.09,4.04,2.74-1.56,5.49-3.12,8.24-4.68-3.67-.69-5.28.74-7.81,2.61-2.27,1.67-4.54,3.35-6.81,5.02-2.29,1.69-4.58,3.38-6.88,5.07-2.09,1.54-5.41,3.45-5.87,6.07,2.75-1.56,5.5-3.12,8.24-4.68-1.73-.25-3.68-.45-5.2.68,3.05.8,6.11,1.6,9.16,2.4-2.13-3-4.16-3.11-7.25-3.58-2.79-.42-5.58-.84-8.37-1.27-2.82-.43-5.63-.85-8.45-1.28-2.6-.39-6.43-1.43-8.6.17,3.05.8,6.11,1.61,9.17,2.4-.95-1.33-2.28-2.85-4.04-3.09,1.56,2.75,3.12,5.5,4.68,8.24.57-3.75-.71-5.22-2.62-7.8-1.73-2.34-3.45-4.69-5.18-7.03-1.67-2.27-3.35-4.54-5.02-6.81-.53-.71-1.04-1.41-1.56-2.11-.11-.16-.22-.31-.34-.46-1.59-2.17-3.16-3.07-5.84-3.37,2.15,2.82,4.31,5.65,6.46,8.48.25-1.74.43-3.65-.69-5.2-.8,3.05-1.6,6.11-2.4,9.16,2.98-2.2,3.11-4.13,3.58-7.24.42-2.79.84-5.58,1.26-8.37.43-2.82.85-5.63,1.28-8.45.39-2.62,1.42-6.38-.17-8.6-.8,3.05-1.6,6.11-2.4,9.17,1.33-.97,2.84-2.26,3.1-4.04-2.75,1.56-5.5,3.12-8.24,4.68,3.7.64,5.26-.73,7.81-2.62,2.27-1.67,4.54-3.35,6.81-5.02,2.29-1.69,4.58-3.38,6.87-5.06,2.06-1.52,5.48-3.49,5.87-6.08-2.75,1.56-5.5,3.12-8.24,4.68,1.74.3,3.65.39,5.2-.69-3.06-.8-6.11-1.6-9.17-2.4,2.25,2.98,4.12,3.11,7.24,3.58,2.79.42,5.58.84,8.37,1.27,2.81.42,5.62.85,8.44,1.28,2.61.39,6.41,1.43,8.6-.17-3.05-.8-6.11-1.6-9.17-2.4.96,1.33,2.27,2.85,4.04,3.09-1.56-2.75-3.12-5.49-4.68-8.24-.55,3.68.64,5.13,2.49,7.66,1.61,2.18,3.22,4.36,4.82,6.54,2.48,3.36,4.96,6.72,7.44,10.08,2.17,2.93,5.77,4.4,9.17,2.41,2.9-1.7,4.57-6.22,2.4-9.17Z"/>
        </g>
        <polygon class="st11" points="67.02 239.04 52.94 219.94 52.94 219.92 52.92 219.92 52.91 219.9 52.9 219.91 29.44 216.37 29.43 216.35 29.41 216.36 29.39 216.36 29.39 216.38 10.29 230.46 10.27 230.46 10.27 230.48 10.25 230.49 10.27 230.5 6.72 253.96 6.71 253.97 6.72 253.99 6.72 254.01 6.73 254.01 20.81 273.11 20.81 273.13 20.83 273.13 20.84 273.15 20.85 273.13 44.31 276.68 44.33 276.7 44.34 276.68 44.36 276.69 44.37 276.67 63.46 262.59 63.48 262.59 63.48 262.58 63.5 262.56 63.49 262.55 67.03 239.09 67.05 239.07 67.04 239.06 67.04 239.04 67.02 239.04"/>
        <polygon class="st26" points="22.45 271.43 8.82 253 12.44 228.9 12.43 228.88 10.29 230.46 10.27 230.46 10.27 230.48 10.25 230.49 10.27 230.5 6.72 253.96 6.71 253.97 6.72 253.99 6.72 254.01 6.73 254.01 20.81 273.11 20.81 273.13 20.83 273.13 20.84 273.15 20.85 273.13 44.31 276.68 44.33 276.7 44.34 276.68 44.36 276.69 44.37 276.67 46.5 275.09 46.49 275.08 22.45 271.43"/>
        <polygon class="st15" points="64.93 240.11 51.36 221.63 27.26 217.97 27.25 217.96 29.39 216.38 29.39 216.36 29.41 216.36 29.43 216.35 29.44 216.37 52.9 219.91 52.91 219.9 52.92 219.92 52.94 219.92 52.94 219.94 67.02 239.04 67.04 239.04 67.04 239.06 67.05 239.07 67.03 239.09 63.49 262.55 63.5 262.56 63.48 262.58 63.48 262.59 63.46 262.59 61.32 264.16 61.31 264.15 64.93 240.11"/>
      </g>
      <g>
        <path class="st6" d="M18.05,263.33l1.99-1.79c.67.63,1.32.96,1.97,1.01.65.05,1.3-.17,1.97-.66.72-.53,1.14-1.07,1.28-1.65.14-.57.06-1.05-.24-1.46-.19-.25-.43-.42-.71-.49-.29-.07-.68-.03-1.16.12-.32.1-1.03.38-2.12.82-1.4.58-2.49.84-3.29.77-1.12-.11-2-.6-2.64-1.46-.42-.56-.64-1.2-.68-1.92-.04-.72.14-1.43.55-2.12.4-.69,1.03-1.35,1.87-1.97,1.38-1.02,2.63-1.48,3.78-1.38,1.14.09,2.09.63,2.86,1.61l-2.14,1.73c-.5-.5-1-.75-1.5-.77-.5-.01-1.06.21-1.67.66-.65.47-1.06.98-1.22,1.51-.11.34-.06.65.16.94.19.26.46.4.81.43.44.03,1.3-.23,2.56-.77,1.26-.54,2.25-.87,2.97-.97.72-.11,1.4-.04,2.03.22.64.26,1.21.73,1.72,1.42.46.63.72,1.34.78,2.15s-.13,1.58-.57,2.31c-.45.74-1.14,1.46-2.09,2.16-1.39,1.02-2.68,1.48-3.9,1.39-1.21-.09-2.34-.71-3.39-1.83Z"/>
        <path class="st6" d="M33.9,257.15l-6.7-9.09-3.24,2.39-1.37-1.86,8.69-6.41,1.38,1.86-3.25,2.39,6.7,9.1-2.21,1.63Z"/>
        <path class="st6" d="M36.35,247c-.83-1.12-1.35-2.18-1.58-3.19-.17-.73-.2-1.48-.09-2.24.11-.76.34-1.44.69-2.03.47-.79,1.14-1.52,2.03-2.18,1.62-1.19,3.28-1.64,4.99-1.36,1.71.29,3.22,1.33,4.54,3.11,1.3,1.77,1.84,3.51,1.62,5.21-.23,1.71-1.14,3.15-2.75,4.35-1.63,1.2-3.29,1.65-4.98,1.37-1.69-.29-3.18-1.3-4.46-3.04ZM38.57,245.24c.92,1.24,1.91,1.97,2.95,2.19,1.04.22,2.01,0,2.89-.65.87-.65,1.36-1.5,1.46-2.55.1-1.06-.32-2.22-1.26-3.49-.92-1.25-1.89-1.99-2.89-2.2-1-.21-1.96.02-2.88.69-.92.67-1.43,1.53-1.52,2.56-.1,1.03.32,2.18,1.24,3.44Z"/>
        <path class="st6" d="M52.69,243.3l-8.08-10.95,3.54-2.62c1.34-.99,2.26-1.58,2.75-1.77.75-.29,1.54-.32,2.37-.09.83.24,1.56.79,2.2,1.66.5.68.79,1.33.89,1.97.09.64.05,1.23-.14,1.77-.19.54-.44.99-.76,1.36-.45.49-1.18,1.11-2.18,1.85l-1.44,1.06,3.05,4.13-2.21,1.63ZM48.19,232.57l2.29,3.11,1.21-.89c.87-.64,1.41-1.13,1.62-1.46.21-.34.31-.68.29-1.05-.01-.36-.14-.71-.38-1.04-.29-.39-.65-.63-1.08-.73-.42-.09-.84-.03-1.23.17-.3.14-.85.51-1.65,1.1l-1.06.79Z"/>
      </g>
    </g>
  </g>
</svg>