<?xml version="1.0" encoding="UTF-8"?>
<svg id="Layer_1" xmlns="http://www.w3.org/2000/svg" version="1.1" viewBox="0 0 255.06 318.35">
  <!-- Generator: Adobe Illustrator 29.6.1, SVG Export Plug-In . SVG Version: 2.1.1 Build 9)  -->
  <defs>
    <style>
      .st0 {
        fill: #ffd7c3;
      }

      .st1 {
        fill: #8b5e3c;
      }

      .st2 {
        fill: #ffce00;
      }

      .st3 {
        fill: #0b397c;
      }

      .st4 {
        fill: #000002;
      }

      .st5 {
        fill: #a1d9ff;
      }

      .st6 {
        fill: #e7e6e4;
      }

      .st7 {
        fill: #603913;
      }

      .st8 {
        fill: #1694d3;
      }

      .st9 {
        fill: #fff4c7;
      }

      .st10 {
        fill-rule: evenodd;
      }

      .st10, .st11 {
        fill: #ed1c24;
      }

      .st12 {
        fill: #fff1b8;
      }

      .st13 {
        fill: #fdd300;
      }

      .st14 {
        fill: #ffb000;
      }

      .st15 {
        fill: #f69220;
      }

      .st16 {
        fill: #055b96;
      }

      .st17 {
        fill: #f38b9e;
      }

      .st18 {
        fill: #be1e2d;
      }

      .st19 {
        fill: #fff;
      }

      .st20 {
        fill: #fdc361;
      }

      .st21 {
        fill: #aee8ff;
      }

      .st22 {
        fill: #fde5d2;
      }

      .st23 {
        fill: #ff9700;
      }

      .st24 {
        fill: #ffebde;
      }

      .st25 {
        fill: #ffc0a4;
      }

      .st26 {
        fill: #002b5e;
      }

      .st27 {
        fill: #1a4591;
      }

      .st28 {
        fill: #1c75bc;
      }
    </style>
  </defs>
  <g>
    <g>
      <g>
        <polygon class="st22" points="171.83 277 182.33 280.19 185.98 286.62 184.53 303.7 179.45 307.62 167.49 308.55 171.83 277"/>
        <path d="M169.82,284.34c3.5,1.06,7,2.12,10.5,3.18-1.52-1.17-3.03-2.33-4.55-3.5,1.21,2.15,2.43,4.29,3.64,6.44-.35-1.28-.69-2.56-1.03-3.84-.48,5.69-.97,11.38-1.45,17.08.74-1.8,1.48-3.59,2.23-5.38-1.69,1.31-3.39,2.62-5.08,3.92,1.79-.74,3.58-1.49,5.38-2.23-3.99.31-7.98.61-11.96.92,2.45,3.21,4.89,6.42,7.34,9.62,1.44-10.51,2.89-21.02,4.34-31.54.29-2.13.37-3.92-.76-5.85-1-1.71-2.64-2.97-4.55-3.5-1.96-.54-4.11-.26-5.86.76-1.51.89-3.24,2.72-3.5,4.55-1.44,10.51-2.89,21.03-4.34,31.54-.29,2.13-.37,3.92.77,5.86,1.28,2.18,3.95,3.97,6.57,3.77,3.4-.26,6.8-.52,10.2-.78.55-.05,1.09-.09,1.64-.13,1.52-.12,2.63-.27,3.97-1.05.55-.32,1.32-1.02,1.93-1.5,1.5-1.16,3-2.31,4.5-3.47,2.24-1.73,2.33-4.62,2.55-7.19.17-1.97.34-3.94.5-5.91.27-3.17.53-6.34.8-9.5.22-2.6-2.08-5.67-3.32-7.88-.42-.74-.85-1.48-1.26-2.22-1.12-1.99-2.91-3.14-5.04-3.79-3.37-1.03-6.73-2.04-10.1-3.06-3.97-1.2-8.28,1.39-9.36,5.31-1.12,4.08,1.35,8.15,5.32,9.36Z"/>
      </g>
      <polygon class="st7" points="171.83 277 182.33 280.19 185.98 286.62 184.53 303.7 179.45 307.62 167.49 308.55 171.83 277"/>
    </g>
    <g>
      <g>
        <polygon class="st11" points="188.37 294.28 181.71 295.65 173.62 290.64 173.9 276.1 184.46 278.97 188.55 285.15 188.37 294.28"/>
        <path d="M186.9,288.95c-2.22.46-4.44.92-6.66,1.38,1.42.19,2.84.37,4.26.55-2.69-1.67-5.39-3.34-8.08-5.01.91,1.59,1.82,3.18,2.74,4.78.09-4.84.18-9.69.27-14.54-2.33,1.78-4.66,3.55-7,5.33,3.52.96,7.05,1.91,10.57,2.87-1.11-.85-2.21-1.69-3.31-2.54,1.36,2.06,2.72,4.12,4.08,6.18-.25-.93-.5-1.86-.75-2.79-.06,3.04-.12,6.09-.17,9.13-.05,3.02,2.56,5.53,5.53,5.53s5.48-2.52,5.53-5.53c.05-2.67.1-5.33.15-8,.03-1.51-.1-2.96-.97-4.28-.87-1.32-1.74-2.63-2.6-3.95-1.19-1.81-2.27-3.8-4.55-4.42-.99-.27-1.98-.54-2.97-.81-2.53-.69-5.06-1.38-7.59-2.06-3.52-.96-6.93,1.74-7,5.33-.05,2.74-.1,5.49-.15,8.23-.03,1.7-.07,3.4-.1,5.1-.05,2.46.55,4.64,2.86,6.07,2.6,1.61,5.21,3.23,7.81,4.84,2.17,1.35,4.52.62,6.8.15,1.42-.29,2.84-.59,4.27-.88,2.95-.61,4.62-4.04,3.86-6.8-.84-3.05-3.86-4.47-6.81-3.87Z"/>
      </g>
      <polygon class="st7" points="188.37 294.28 181.71 295.65 173.62 290.64 173.9 276.1 184.46 278.97 188.55 285.15 188.37 294.28"/>
    </g>
  </g>
  <g>
    <g>
      <path class="st0" d="M88.29,230.81s-29.79,35.38-16.86,43.01c12.93,7.63,31.02-25.44,31.02-25.44l-14.16-17.57Z"/>
      <path d="M85.6,228.11c-3.59,4.27-6.92,8.79-10.04,13.41-4.9,7.24-9.9,15.33-11.06,24.14-.48,3.62.45,7.65,3.27,10.14,3.42,3.02,8.22,3.64,12.46,2.12,4.42-1.6,8.13-4.72,11.37-8.06,3.3-3.41,6.19-7.24,8.88-11.14,1.86-2.72,3.67-5.53,5.26-8.43.89-1.63.52-3.23-.59-4.61-4.71-5.86-9.44-11.72-14.15-17.58-1.3-1.61-4.03-1.35-5.38,0-1.58,1.59-1.29,3.77,0,5.38,4.72,5.86,9.44,11.72,14.15,17.57-.2-1.54-.39-3.07-.59-4.61-.9,1.64-1.89,3.25-2.89,4.83-1.03,1.64-2.12,3.25-3.23,4.83-.61.87-1.23,1.72-1.87,2.57-.16.22-.33.43-.49.65.61-.8.03-.04-.08.1-.4.51-.81,1.01-1.22,1.51-1.47,1.78-3.04,3.49-4.71,5.09-.77.74-1.57,1.44-2.4,2.11-.7.56.67-.5-.04.04-.2.15-.41.3-.61.44-.47.34-.95.64-1.43.94-.4.25-.82.47-1.24.69-.2.1-.41.21-.62.3-.74.35.84-.33.09-.03-.4.15-.81.29-1.23.4-.36.11-2,.35-.62.18-.41.05-.81.05-1.21.05-.21,0-.4-.02-.61-.04,1.22.11.51.07.22.02-.4-.08-.79-.21-1.17-.34-.74-.26.85.39.14.05-.25-.12-.49-.25-.72-.4-1-.6.46.45-.19-.12-.25-.21-.46-.46-.67-.71.87,1.06.16.15-.01-.17-.55-.99.23.8-.11-.29-.1-.32-.17-.65-.23-.98-.13-.7.12,1.04.04.32-.02-.17-.03-.35-.03-.53-.02-.37-.01-.74,0-1.11.02-.36.23-1.95.03-.56.26-1.84.83-3.64,1.47-5.39.17-.46.35-.92.54-1.37-.44,1.09.21-.46.32-.72.47-1.03.97-2.05,1.5-3.06,2.06-3.97,4.47-7.76,7-11.45,1.13-1.64,2.29-3.26,3.48-4.86.49-.66.99-1.32,1.49-1.97.11-.15.23-.3.35-.45.43-.57-.59.75-.16.2.24-.31.48-.62.72-.92.74-.94,1.49-1.88,2.26-2.8,1.34-1.58,1.56-3.82,0-5.38-1.37-1.37-4.04-1.58-5.38,0Z"/>
    </g>
    <path class="st28" d="M88.98,250.62l2.92-9.86-3.45-4.31s-5.68,7.06-7.59,10.04l8.11,4.13Z"/>
    <path class="st21" d="M89.07,250.46l-4.81-5.51c1.34-1.96,3.68-5,5.33-7.09l-1.14-1.42s-5.68,7.06-7.59,10.04c-1.9,2.98.32,3.59,2.33.16l5.87,3.82Z"/>
    <g>
      <rect class="st4" x="79.42" y="240.77" width="7.4" height="21.11" transform="translate(-173.1 184.8) rotate(-57.15)"/>
      <path d="M90.22,261.28l-19.09-12.33,4.89-7.56,19.08,12.33-4.89,7.56ZM73.36,248.47l16.38,10.58,3.14-4.86-16.38-10.58-3.14,4.86Z"/>
    </g>
    <g>
      <rect class="st27" x="77.86" y="243.12" width="8.3" height="18.8" transform="translate(-177.03 194.27) rotate(-59.33)"/>
      <path d="M89.38,258.5c-5.4-3.19-10.79-6.39-16.18-9.59.33,1.26.66,2.52.99,3.78,1.41-2.38,2.82-4.76,4.23-7.14-1.26.33-2.52.66-3.79.99,5.39,3.2,10.79,6.4,16.18,9.6-.33-1.26-.67-2.52-.99-3.79-1.41,2.38-2.82,4.75-4.23,7.14-1.82,3.08,2.96,5.86,4.78,2.79,1.41-2.38,2.82-4.76,4.23-7.14.77-1.3.3-3.02-.99-3.78-5.39-3.2-10.78-6.39-16.18-9.59-1.3-.77-3.02-.3-3.78.99-1.41,2.38-2.82,4.76-4.23,7.14-.77,1.3-.3,3.02.99,3.78,5.39,3.2,10.79,6.4,16.18,9.59,3.07,1.83,5.85-2.95,2.79-4.78Z"/>
    </g>
  </g>
  <g>
    <g>
      <path class="st0" d="M169.83,230.9s29.79,35.38,16.87,43.01c-12.93,7.63-31.02-25.43-31.02-25.43l14.15-17.58Z"/>
      <path d="M167.14,233.6c1.02,1.21,2,2.46,2.97,3.72.43.55-.59-.77-.16-.2.12.15.24.3.35.45.24.32.48.63.72.95.57.76,1.13,1.52,1.69,2.29,1.22,1.68,2.41,3.38,3.56,5.1,2.51,3.72,4.84,7.56,6.81,11.6.23.46.45.93.67,1.41.12.26.77,1.8.32.71.4.96.77,1.95,1.09,2.95.27.85.51,1.71.7,2.59.09.4.16.81.23,1.23-.22-1.38,0,.2.02.56.02.37.02.75,0,1.11,0,.18-.03.36-.04.53-.06.72.16-1.02.04-.32-.05.33-.14.66-.23.98-.32,1.1.41-.72-.11.29-.16.31-.87,1.27-.02.17-.2.26-.43.49-.67.71-.64.6.8-.5-.18.13-.17.11-.36.21-.53.31-.91.49.55-.19-.05.05-.39.14-.78.25-1.18.33-.28.06-1.02.13.22-.01-.2.02-.4.03-.6.04-.4.02-.81,0-1.21-.05,1.37.13-.26-.09-.62-.18-.42-.11-.83-.25-1.23-.41-.76-.29.84.37.09.04-.21-.09-.42-.2-.62-.3-.94-.47-1.82-1.03-2.66-1.63-.21-.14-.41-.29-.61-.44-.72-.54.66.53-.05-.04-.41-.33-.81-.67-1.21-1.02-.89-.77-1.73-1.6-2.55-2.44-1.62-1.66-3.13-3.43-4.57-5.25-.11-.14-.69-.89-.08-.1-.17-.22-.33-.43-.5-.65-.32-.43-.64-.86-.96-1.29-.65-.89-1.29-1.8-1.91-2.71-1.02-1.49-2-3.01-2.95-4.54-.75-1.22-1.48-2.44-2.17-3.69-.2,1.54-.39,3.07-.59,4.61,4.72-5.86,9.44-11.72,14.16-17.58,1.3-1.61,1.58-3.79,0-5.38-1.35-1.35-4.08-1.62-5.38,0-4.72,5.85-9.43,11.71-14.16,17.57-1.11,1.38-1.48,2.98-.59,4.61,3.02,5.51,6.67,10.73,10.64,15.6,5.22,6.42,13.55,14.93,22.75,12.42,3.9-1.06,7.07-4.26,7.72-8.29.66-4.04-.32-8.07-1.79-11.83-3.22-8.23-8.22-15.71-13.47-22.77-1.84-2.48-3.72-4.94-5.71-7.3-1.34-1.59-4.01-1.37-5.38,0-1.56,1.56-1.33,3.79,0,5.38Z"/>
    </g>
    <path class="st28" d="M169.15,250.72l-2.92-9.86,3.44-4.31s5.69,7.06,7.59,10.04l-8.11,4.13Z"/>
    <path class="st21" d="M169.06,250.57l4.8-5.51c-1.33-1.96-3.67-5-5.32-7.09l1.13-1.42s5.69,7.06,7.59,10.04c1.9,2.98-.32,3.59-2.34.16l-5.86,3.82Z"/>
    <g>
      <rect class="st4" x="164.45" y="247.74" width="21.11" height="7.4" transform="translate(-108.43 135.21) rotate(-32.86)"/>
      <path d="M167.91,261.38l-4.89-7.57,19.08-12.33,4.89,7.56-19.09,12.33ZM165.25,254.29l3.14,4.86,16.38-10.58-3.14-4.86-16.38,10.58Z"/>
    </g>
    <g>
      <rect class="st27" x="166.71" y="248.48" width="18.81" height="8.3" transform="translate(-104.23 125.19) rotate(-30.67)"/>
      <path d="M171.54,263.38c5.39-3.2,10.78-6.39,16.18-9.59,1.29-.76,1.77-2.48.99-3.78-1.4-2.38-2.82-4.76-4.23-7.13-.76-1.29-2.48-1.77-3.78-.99-5.4,3.2-10.79,6.39-16.18,9.6-1.29.76-1.77,2.48-.99,3.78,1.41,2.38,2.82,4.76,4.23,7.14,1.82,3.06,6.6.28,4.77-2.79-1.41-2.38-2.82-4.76-4.23-7.14-.33,1.26-.66,2.52-.99,3.78,5.39-3.2,10.78-6.4,16.18-9.59-1.26-.33-2.52-.66-3.79-.99,1.41,2.38,2.82,4.76,4.23,7.13.33-1.26.66-2.52.99-3.78-5.39,3.2-10.78,6.39-16.18,9.59-3.07,1.81-.29,6.6,2.79,4.77Z"/>
    </g>
  </g>
  <g>
    <path class="st27" d="M159.32,238.33h-61.01s-11.92,66.13-3.82,68.96c8.11,2.83,15.62-10.09,15.62-10.09,0,0,5.97,1.82,16.31,2.14h0c.79.04,1.59.04,2.39.04s1.61,0,2.39-.04h0c10.35-.32,16.31-2.15,16.31-2.15,0,0,7.51,12.92,15.62,10.09,8.1-2.84-3.82-68.96-3.82-68.96Z"/>
    <path d="M159.32,234.53h-61.01c-1.58,0-3.37,1.15-3.67,2.79-2.33,12.92-4.22,25.95-5.59,39.01-.83,7.9-1.67,16.04-.98,23.99.23,2.62.53,5.79,2.08,8.03,3.07,4.44,9.38,3.54,13.49,1.14,4.02-2.34,7.42-6.36,9.76-10.35-1.43.58-2.87,1.17-4.3,1.74,5.52,1.67,11.6,2.09,17.32,2.28-1.26-1.27-2.53-2.53-3.8-3.8h0c0,2.12,1.73,3.76,3.8,3.82,1.6.04,3.19.04,4.78,0,2.08-.06,3.8-1.69,3.8-3.81h0c-1.26,1.27-2.53,2.53-3.8,3.8,5.73-.19,11.81-.61,17.33-2.28-1.43-.58-2.87-1.16-4.3-1.74,1.82,3.11,4.25,6.08,7.03,8.38,4.03,3.33,10.61,6,15.19,2.1,2.15-1.83,2.6-5.17,2.95-7.78.44-3.34.42-6.73.31-10.08-.27-8.94-1.31-17.87-2.47-26.73-1.01-7.71-2.16-15.39-3.45-23.05-.27-1.55-.53-3.1-.8-4.64-.37-2.04-2.82-3.16-4.68-2.65-2.14.59-3.02,2.64-2.66,4.68.73,4.06,1.39,8.14,2.02,12.23.65,4.1,1.25,8.19,1.8,12.3.13.93-.12-.88,0,.06.04.27.07.54.11.81.07.55.14,1.1.21,1.64.16,1.19.3,2.38.45,3.58.28,2.31.54,4.62.77,6.93.81,7.83,1.64,15.91.89,23.79-.03.33-.07.67-.11,1,.19-1.48.03-.27-.03.07-.1.59-.24,1.17-.4,1.75-.06.22-.14.45-.23.68-.27.73.49-1.05.09-.22-.09.17-.18.33-.28.49-.36.55.81-.89.16-.26-.46.45,1-.65.35-.28-.41.23,1.09-.43.65-.27-.28.1-.58.17-.88.24-.96.23.83-.05-.14.02-.28.02-.57,0-.85-.01-.97-.05.83.16-.12-.03-.37-.07-.74-.19-1.1-.31-.92-.3.73.35-.17-.06-.27-.13-.53-.27-.78-.41-.53-.29-1.02-.63-1.5-.98.75.54-.06-.05-.18-.15-.23-.19-.45-.39-.68-.6-.51-.46-.99-.95-1.46-1.45-.56-.6-1.09-1.22-1.6-1.86-.44-.55.48.65-.15-.19-.21-.28-.41-.57-.62-.86-.39-.55-.76-1.11-1.1-1.69-.84-1.44-2.66-2.24-4.29-1.75-1.35.41-2.75.68-4.13.92-.74.14-1.5.26-2.25.37-1.19.17.79-.1-.47.06-.55.07-1.09.13-1.63.19-2.27.25-4.54.38-6.81.46-2.07.07-3.8,1.67-3.8,3.8h0c1.26-1.26,2.53-2.52,3.8-3.79-1.59.04-3.18.04-4.78,0,1.27,1.27,2.54,2.53,3.8,3.8h0c0-2.13-1.73-3.73-3.8-3.8-2.27-.08-4.54-.23-6.81-.46-.41-.04-.82-.09-1.24-.14-.26-.03-.53-.06-.79-.1.39.05.36.05-.09-.02-.75-.11-1.5-.24-2.25-.37-1.38-.24-2.78-.52-4.13-.92-1.63-.49-3.45.31-4.29,1.75-.55.95-1.2,1.85-1.86,2.73-.5.68.55-.69,0,0-.17.21-.33.41-.5.61-.36.43-.73.84-1.1,1.25-.4.43-.82.84-1.25,1.25-.21.2-.44.4-.66.6-.14.12-1.17.92-.41.35-.47.36-.98.68-1.5.98-.25.14-.51.28-.78.41-.88.44.76-.28-.16.06-.27.1-.55.18-.83.25-.2.06-1.15.2-.11.07-.29.04-.57.04-.86.04-.19,0-.38-.01-.57-.03.53.08.57.08.15,0-.77-.14-1.41-.6-.23.02-.66-.35.82.71.35.28-.62-.56.39.57.21.34-.13-.18-.23-.38-.33-.57-.42-.81.36.94.09.22-.09-.22-.16-.45-.23-.68-.17-.58-.3-1.16-.4-1.75-.06-.34-.22-1.56-.02-.07-.05-.34-.08-.67-.12-1-.08-.8-.13-1.6-.16-2.4-.18-3.82-.02-7.66.22-11.46.28-4.52.72-9.03,1.22-13.52.26-2.3.54-4.61.84-6.91.07-.54.14-1.09.21-1.64.04-.27.07-.54.11-.81.13-.94-.12.88,0-.06.15-1.14.31-2.28.48-3.42.9-6.41,1.9-12.82,3.01-19.2.11-.63.22-1.27.34-1.9-1.23.93-2.44,1.86-3.67,2.79h61.01c4.91,0,4.91-7.61,0-7.61Z"/>
  </g>
  <g>
    <g>
      <polygon class="st22" points="157.28 237.52 129.03 237.52 128.79 237.52 100.54 237.52 88.29 277.78 128.79 277.78 129.03 277.78 169.52 277.78 157.28 237.52"/>
      <path d="M157.28,229.91h-56.74c-3.45,0-6.35,2.33-7.34,5.58-3.9,12.83-7.8,25.65-11.71,38.48-.18.59-.36,1.18-.54,1.78-1.44,4.76,2.49,9.63,7.33,9.63h81.23c4.84,0,8.78-4.87,7.33-9.63-3.9-12.83-7.8-25.66-11.7-38.49-.18-.59-.36-1.18-.54-1.77-1.2-3.96-5.28-6.44-9.36-5.32-3.91,1.08-6.52,5.39-5.31,9.36,3.9,12.83,7.8,25.66,11.7,38.49.18.59.35,1.18.54,1.77,2.44-3.21,4.88-6.41,7.33-9.62h-81.23c2.45,3.21,4.89,6.42,7.34,9.62,3.91-12.83,7.81-25.65,11.71-38.48.18-.6.36-1.18.54-1.78-2.45,1.87-4.89,3.72-7.33,5.59h56.74c4.14,0,7.61-3.46,7.61-7.61s-3.46-7.61-7.61-7.61Z"/>
    </g>
    <polygon class="st28" points="157.28 237.52 129.03 237.52 128.79 237.52 100.54 237.52 88.29 277.78 128.79 277.78 129.03 277.78 169.52 277.78 157.28 237.52"/>
  </g>
  <polygon class="st21" points="100.02 239.11 88.29 277.78 120.21 277.78 94.15 273.96 100.02 239.11"/>
  <polygon class="st21" points="157.78 239.11 169.52 277.78 137.6 277.78 163.66 273.96 157.78 239.11"/>
  <polygon class="st26" points="95.81 285.37 95.53 290.14 161.94 290.14 161.65 285.37 95.81 285.37"/>
  <g>
    <g>
      <g>
        <path class="st22" d="M134.32,284.31c0,.96-.72,1.75-1.6,1.75l-7.77.03c-.89,0-1.61-.78-1.62-1.75v-4.67c-.01-.97.7-1.75,1.59-1.75l7.76-.02c.89,0,1.61.78,1.61,1.74l.02,4.66Z"/>
        <path d="M129.47,284.31c.15-1.68,1.24-3.08,3.19-3.08h-.5c-.63,0-1.25,0-1.88,0-1.49,0-2.97,0-4.46.02-.29,0-.58,0-.88,0,1.99,0,3.22,1.66,3.23,3.02,0-.25,0-.51,0-.76,0-1.28,0-2.55,0-3.83,0,1.69-1.57,3.08-3.19,3.09h.5c.62,0,1.25,0,1.88-.01,1.49,0,2.98,0,4.46-.01.29,0,.58,0,.87,0-1.98.01-3.22-1.65-3.22-3.01,0,.25,0,.5,0,.75,0,1.28,0,2.56,0,3.83.01,2.64,2.2,4.84,4.85,4.84s4.84-2.21,4.83-4.84c0-1.53,0-3.06-.01-4.58-.01-4.08-3.29-6.68-7.16-6.66-1.93,0-3.86.01-5.8.02-.53,0-1.06-.02-1.59.04-3.66.41-5.79,2.98-6.11,6.56-.14,1.5,0,3.08.01,4.59.01,4.08,3.28,6.67,7.16,6.66,1.93,0,3.87-.01,5.8-.02.53,0,1.06.02,1.58-.04,3.67-.41,5.8-2.97,6.12-6.56.24-2.63-2.38-4.84-4.83-4.84-2.82,0-4.61,2.21-4.85,4.84Z"/>
      </g>
      <path class="st2" d="M134.32,284.31c0,.96-.72,1.75-1.6,1.75l-7.77.03c-.89,0-1.61-.78-1.62-1.75v-4.67c-.01-.97.7-1.75,1.59-1.75l7.76-.02c.89,0,1.61.78,1.61,1.74l.02,4.66Z"/>
      <path class="st4" d="M132.7,283.5v-3.03c-.01-.63-.53-1.14-1.15-1.13h-5.5c-.63.01-1.13.53-1.13,1.15v.57s2.57,0,2.57,0c.52,0,.95.42.95.95,0,.52-.42.95-.94.95h-2.57v.58c0,.62.52,1.13,1.14,1.13l5.49-.02c.63,0,1.14-.51,1.14-1.14Z"/>
      <g>
        <path class="st9" d="M132.4,279.72c.18.2.29.47.29.76v3.03c.01.62-.49,1.14-1.13,1.14l-5.49.02c-.12,0-.23-.02-.34-.05.21.23.51.38.85.38l5.49-.02c.63,0,1.14-.51,1.13-1.14v-3.03c-.01-.51-.35-.94-.81-1.08Z"/>
        <path class="st9" d="M128.01,281.38c.08,0,.16,0,.24.03-.18-.22-.44-.36-.74-.36h-2.06v.33h2.57Z"/>
        <path class="st9" d="M123.84,284.67v-4.66c-.01-.96.7-1.75,1.59-1.75l7.76-.03c.2,0,.38.04.55.11-.28-.27-.65-.44-1.07-.44l-7.76.02c-.89,0-1.6.79-1.6,1.75v4.67c.01.75.46,1.39,1.07,1.64-.33-.32-.55-.79-.55-1.31Z"/>
      </g>
    </g>
    <g>
      <path class="st14" d="M131.39,278.83l-5.49.02c-.63,0-1.13.51-1.13,1.14v.57h.16v-.06c0-.63.5-1.14,1.13-1.14h5.5c.41-.02.77.2.97.52-.04-.58-.54-1.04-1.13-1.04Z"/>
      <path class="st14" d="M124.94,283.61s0-.06,0-.09v-.57h2.57c.52,0,.95-.43.94-.95,0-.2-.06-.38-.16-.54,0,0,0,.02,0,.03,0,.53-.42.95-.94.95h-2.57v.57c0,.22.06.42.17.59Z"/>
      <path class="st14" d="M134.32,284.31l-.02-4.67c0-.3-.07-.58-.19-.83.02.1.03.21.03.32v4.67c.02.96-.7,1.75-1.59,1.75l-7.77.02c-.61,0-1.14-.37-1.41-.92.14.81.79,1.42,1.58,1.42l7.77-.03c.88,0,1.6-.79,1.6-1.75Z"/>
    </g>
  </g>
  <rect class="st8" x="80.97" y="246.78" width=".84" height="12.88" transform="translate(-178.13 194.93) rotate(-59.52)"/>
  <rect class="st8" x="170.33" y="252.92" width="12.89" height=".84" transform="translate(-104.04 124.6) rotate(-30.46)"/>
  <g>
    <rect class="st19" x="141.83" y="255.34" width="15.58" height="4.06"/>
    <path d="M157.41,258.02h-15.58c.46.46.92.92,1.38,1.38v-4.06c-.46.46-.92.92-1.38,1.38h15.58c-.46-.46-.92-.92-1.38-1.38v4.06c0,1.78,2.77,1.78,2.77,0v-4.06c0-.76-.63-1.38-1.39-1.38h-15.58c-.75,0-1.38.62-1.38,1.38v4.06c0,.76.63,1.38,1.38,1.38h15.58c1.79,0,1.79-2.77,0-2.77Z"/>
  </g>
  <g>
    <polygon class="st19" points="100.54 237.52 129.35 257.81 155.45 237.48 100.54 237.52"/>
    <path d="M99.14,239.9c9.61,6.77,19.21,13.53,28.82,20.3,1.1.77,2.42.29,3.35-.43,8.69-6.77,17.39-13.55,26.09-20.33,1.99-1.55.24-4.72-1.95-4.72-13.67.01-27.33.02-41,.02-4.64,0-9.27.01-13.9.01-3.57,0-3.57,5.53,0,5.53,13.66,0,27.33-.02,40.99-.03,4.64,0,9.27,0,13.91,0-.65-1.58-1.3-3.15-1.96-4.72-8.7,6.77-17.4,13.55-26.09,20.33,1.12-.15,2.23-.29,3.35-.44-9.6-6.76-19.21-13.52-28.81-20.29-1.24-.87-3.08-.22-3.79.99-.81,1.39-.24,2.92.99,3.79Z"/>
  </g>
  <g>
    <path class="st4" d="M191.77,313.78c0,1.85-28.18,3.36-62.95,3.36s-62.95-1.51-62.95-3.36,28.19-3.37,62.95-3.37,62.95,1.51,62.95,3.37Z"/>
    <path d="M128.81,318.35c-16.83,0-32.66-.35-44.58-.99-19.58-1.05-19.58-2.22-19.58-3.58s0-2.54,19.58-3.59c11.91-.64,27.74-.99,44.58-.99s32.67.35,44.58.99c19.58,1.05,19.58,2.22,19.58,3.59s0,2.54-19.58,3.58c-11.92.63-27.75.99-44.58.99ZM70.1,313.78c7.82,1.06,28.43,2.15,58.71,2.15s50.89-1.09,58.72-2.15c-7.82-1.06-28.43-2.16-58.72-2.16s-50.89,1.1-58.71,2.16Z"/>
  </g>
  <polygon class="st11" points="129.27 254.39 129.27 240.21 124.23 240.21 121.98 249.3 129.27 254.39"/>
  <polygon class="st18" points="129.27 254.39 129.27 240.21 134.32 240.21 136.56 249.3 129.27 254.39"/>
  <rect class="st4" x="115.16" y="242.07" width="11.16" height="4.75" transform="translate(-145.38 303.71) rotate(-76.27)"/>
  <rect class="st4" x="135.44" y="238.86" width="4.75" height="11.15" transform="translate(-54.02 39.64) rotate(-13.71)"/>
  <rect class="st4" x="126.39" y="255.01" width="6.08" height="16.19"/>
  <g>
    <g>
      <path class="st19" d="M183.01,287.4c0,.76-.62,1.37-1.37,1.37s-1.37-.61-1.37-1.37.61-1.37,1.37-1.37,1.37.61,1.37,1.37Z"/>
      <path d="M179.56,287.4s0,.1-.01.14c.04-.31.08-.61.12-.92-.03.15-.06.28-.11.42.11-.28.23-.55.35-.83-.04.08-.08.16-.15.24.18-.23.37-.47.54-.7-.09.12-.18.21-.29.3.23-.18.46-.36.7-.54-.07.06-.16.11-.24.14.27-.12.54-.23.82-.35-.14.06-.27.09-.42.12.31-.04.61-.08.92-.12-.1.01-.2.01-.29,0,.3.04.61.08.92.12-.15-.03-.28-.06-.42-.12.28.12.55.24.83.35-.08-.03-.17-.09-.24-.14.23.19.46.36.7.54-.12-.09-.21-.18-.3-.3.19.24.36.47.54.7-.05-.08-.1-.16-.14-.24.12.27.23.55.35.83-.05-.14-.09-.27-.11-.42.04.31.08.61.12.92,0-.1,0-.2,0-.29-.03.31-.08.61-.12.92.03-.14.06-.28.11-.42-.12.28-.23.55-.35.83.04-.09.09-.17.14-.24-.18.23-.35.46-.54.7.09-.12.19-.21.3-.3-.24.18-.47.36-.7.54.07-.05.16-.11.24-.14-.28.12-.55.24-.83.35.14-.06.27-.09.42-.12-.31.04-.61.08-.92.12.09,0,.19,0,.29,0-.31-.04-.61-.08-.92-.12.15.03.28.06.42.12-.28-.12-.55-.23-.82-.35.08.04.16.09.24.14-.23-.18-.46-.36-.7-.54.11.09.2.18.29.3-.18-.24-.36-.46-.54-.7.06.07.1.16.15.24-.12-.28-.24-.55-.35-.83.05.14.08.27.11.42-.04-.3-.08-.61-.12-.92,0,.05,0,.1.01.15.1,1.88,1.5,3.45,3.46,3.45,1.81,0,3.56-1.57,3.46-3.45-.15-2.73-2.1-4.69-4.83-4.83-1.29-.06-2.41.59-3.36,1.37-1.01.81-1.39,2.23-1.46,3.46-.07,1.29.59,2.4,1.36,3.36.82,1.01,2.24,1.4,3.46,1.47,1.29.07,2.41-.59,3.36-1.37,1-.81,1.4-2.23,1.47-3.46.1-1.89-1.65-3.46-3.46-3.46-1.96,0-3.36,1.57-3.46,3.46Z"/>
    </g>
    <path class="st2" d="M183.01,287.4c0,.76-.62,1.37-1.37,1.37s-1.37-.61-1.37-1.37.61-1.37,1.37-1.37,1.37.61,1.37,1.37Z"/>
    <path class="st23" d="M181.64,288.45c-.7,0-1.28-.53-1.36-1.21,0,.05,0,.1,0,.16,0,.76.61,1.37,1.37,1.37s1.37-.61,1.37-1.37c0-.06-.01-.11-.01-.16-.08.68-.66,1.21-1.36,1.21Z"/>
    <path class="st9" d="M181.64,286.35c-.7,0-1.28.53-1.36,1.21,0-.05,0-.11,0-.16,0-.76.61-1.37,1.37-1.37s1.37.61,1.37,1.37c0,.05-.01.11-.01.16-.08-.68-.66-1.21-1.36-1.21Z"/>
  </g>
  <g>
    <g>
      <g>
        <path class="st22" d="M95.16,292.82c0,1.28-1.05,2.33-2.33,2.33h-35.84c-1.29,0-2.33-1.04-2.33-2.33v-22.78c0-1.28,1.04-2.33,2.33-2.33h35.84c1.29,0,2.33,1.04,2.33,2.33v22.78Z"/>
        <path d="M89.62,292.82c.14-1.78,1.32-3.21,3.19-3.21h-35.44c-.96,0-.36-.22,1.34.49.93.4,1.48,1.99,1.48,2.67v-22.71c0,1.81-1.66,3.18-3.1,3.18h35.73c-1.76,0-3.19-1.44-3.19-3.2v22.77c0,3.01,2.51,5.52,5.53,5.52s5.53-2.51,5.53-5.52v-20.55c0-.86.04-1.74-.03-2.61-.35-4.32-3.74-7.48-8.1-7.48h-35.29c-4.36,0-7.75,3.16-8.1,7.48-.22,2.71-.03,5.51-.03,8.23v14.92c0,4.44,3.73,7.86,8.08,7.86h35.34c4.64,0,7.78-3.39,8.13-7.86.24-3.01-2.7-5.54-5.53-5.54-3.2,0-5.29,2.53-5.53,5.54Z"/>
      </g>
      <path class="st19" d="M95.16,292.82c0,1.28-1.05,2.33-2.33,2.33h-35.84c-1.29,0-2.33-1.04-2.33-2.33v-22.78c0-1.28,1.04-2.33,2.33-2.33h35.84c1.29,0,2.33,1.04,2.33,2.33v22.78Z"/>
      <path class="st6" d="M75.03,271.73h0l-20.38-.71v2.17s13.04,10.25,13.04,10.25c.49.34,3.95,4.02,7.46,4.02s6.63-3.64,7.12-3.98l12.89-10.09v-2.39s-20.13.73-20.13.73Z"/>
      <g>
        <path class="st22" d="M74.9,268.13h-17.49l16.24,12.71c.38.27.82.43,1.26.4.44.03.88-.13,1.26-.4l16.24-12.71h-17.49Z"/>
        <path d="M74.9,262.6h-17.49c-1.95,0-3.79,1.06-4.78,2.74-1.14,1.95-1.06,5.2.86,6.71,5.25,4.1,10.48,8.2,15.72,12.3.18.14.35.27.52.41,3.3,2.59,7.05,2.58,10.34,0,.74-.58,1.48-1.15,2.22-1.73,3.35-2.62,6.71-5.25,10.06-7.88,1.32-1.03,2.64-2.06,3.95-3.09,1.5-1.17,1.91-3.66,1.43-5.38-.65-2.37-2.87-4.06-5.34-4.06h-17.49c-3.01,0-5.53,2.51-5.53,5.53s2.51,5.53,5.53,5.53h17.49c-1.3-3.15-2.61-6.3-3.91-9.44-5.24,4.1-10.48,8.2-15.72,12.31-1.42,1.11.3-.7,2.13-.82,1.52-.1,3.64,1.99,2.05.75-1.24-.98-2.49-1.95-3.73-2.93-3.33-2.6-6.65-5.21-9.98-7.81-.64-.5-1.28-1-1.92-1.5-1.3,3.15-2.6,6.29-3.91,9.44h17.49c3.01,0,5.54-2.52,5.54-5.53s-2.52-5.53-5.54-5.53Z"/>
      </g>
      <path class="st19" d="M74.9,268.13h-17.49l16.24,12.71c.38.27.82.43,1.26.4.44.03.88-.13,1.26-.4l16.24-12.71h-17.49Z"/>
    </g>
    <g>
      <polygon class="st4" points="93.41 296.79 80.25 281.67 83.7 278.65 96.86 293.78 93.41 296.79"/>
      <path d="M93.29,298.49l-14.74-16.95,5.28-4.6,14.74,16.95-5.28,4.6ZM81.95,281.78l11.57,13.3,1.64-1.42-11.58-13.3-1.63,1.42Z"/>
    </g>
    <g>
      <rect class="st4" x="51.69" y="284.93" width="20.04" height="4.58" transform="translate(-195.47 145.22) rotate(-48.97)"/>
      <path d="M56.97,297.99l-5.28-4.59,14.74-16.94,5.28,4.59-14.75,16.95ZM55.1,293.16l1.63,1.42,11.57-13.3-1.63-1.42-11.57,13.3Z"/>
    </g>
  </g>
  <polygon class="st1" points="181.71 295.65 188.37 294.28 188.55 285.15 184.46 278.97 187.7 285.65 186.7 292.94 181.51 294.25 174.04 289.48 173.62 290.64 181.71 295.65"/>
  <polygon class="st1" points="184.76 300.65 184.53 303.7 179.48 307.71 167.49 308.55 178.68 306.81 183.45 303.31 183.47 300.98 184.76 300.65"/>
  <g>
    <g>
      <path class="st22" d="M100.12,234.69s6.67,22.68,24.99,33.37c18.46,10.77,44.21,12.22,44.21,12.22l-1.96,3.79s-25.3-2.07-43.89-12.75c-22.59-12.98-27.32-37.81-27.32-37.81l3.97,1.17Z"/>
      <path d="M95.45,235.98c2.01,6.77,5.46,13.37,9.45,19.17,3.84,5.58,8.39,10.42,13.81,14.48,5.75,4.3,12.65,7.14,19.41,9.42,9.95,3.35,20.7,5.47,31.2,6.08-1.39-2.42-2.79-4.86-4.18-7.28-.65,1.27-1.31,2.53-1.96,3.79,1.39-.8,2.78-1.6,4.18-2.39-.66-.06-1.32-.13-1.98-.21-.34-.04-.68-.08-1.02-.12-.43-.06-1.98-.27-.12-.01-1.07-.15-2.14-.31-3.21-.48-5.84-.93-11.62-2.22-17.29-3.9-3.39-1-6.74-2.17-10.02-3.5-1.33-.54.88.38-.44-.19-.4-.17-.8-.35-1.19-.53-.79-.36-1.58-.73-2.36-1.12-1.68-.82-3.32-1.72-4.92-2.68-1.41-.85-2.78-1.78-4.11-2.76-.12-.09-1.19-.92-.29-.21-.31-.24-.62-.5-.92-.75-.7-.57-1.38-1.17-2.06-1.79-2.26-2.06-4.32-4.32-6.22-6.72.79.99.05.06-.09-.13-.27-.36-.54-.73-.81-1.1-.51-.72-1.01-1.45-1.5-2.2-.91-1.4-1.76-2.83-2.56-4.3-.73-1.32-1.39-2.68-2.03-4.05-.15-.32-.29-.64-.43-.96-.52-1.19.32.77,0,0-.24-.58-.47-1.17-.7-1.76-.94-2.44-1.8-4.97-2.3-7.54-1.99,1.98-3.97,3.97-5.95,5.95,1.32.4,2.64.78,3.96,1.17,2.53.75,5.27-.87,5.96-3.38.71-2.58-.85-5.21-3.38-5.95-1.32-.39-2.64-.78-3.97-1.17-3.77-1.11-6.62,2.47-5.95,5.95,1.14,5.97,3.8,11.87,6.72,17.14,6.41,11.6,16.24,20.72,28.22,26.34,12.67,5.95,26.98,9.46,40.94,10.62,1.59.13,3.46-1,4.18-2.4.65-1.26,1.31-2.53,1.96-3.79,1.73-3.36-.43-7.07-4.18-7.28-.65-.04-1.3-.1-1.95-.16-.72-.06-1.44-.14-2.16-.22-.45-.05-.89-.1-1.33-.16-.43-.05-2.48-.32-.73-.09-5.72-.78-11.4-1.92-16.96-3.45-3.34-.91-6.62-1.99-9.85-3.24-.39-.16-.79-.32-1.18-.47-1.31-.53.89.39-.41-.17-.78-.34-1.56-.69-2.33-1.06-1.66-.78-3.28-1.64-4.87-2.56-1.37-.79-2.68-1.68-3.95-2.61-1.06-.78.77.62-.25-.19-.3-.23-.6-.48-.89-.73-.68-.57-1.35-1.16-2-1.77-1.09-1.01-2.13-2.09-3.13-3.19-.49-.54-.96-1.09-1.43-1.65-.23-.27-.45-.55-.68-.83-.15-.19-.29-.37-.44-.56.39.51.43.56.11.14-3.23-4.23-5.9-8.9-8.08-13.76-.18-.41-.36-.82-.54-1.24.72,1.69.03.07-.13-.34-.26-.65-.51-1.31-.74-1.96-.22-.59-.42-1.19-.6-1.79-.74-2.53-3.37-4.09-5.96-3.38-2.5.69-4.12,3.43-3.38,5.95Z"/>
    </g>
    <g>
      <path class="st7" d="M100.12,234.69s6.67,22.68,24.99,33.37c18.46,10.77,44.21,12.22,44.21,12.22l-1.96,3.79s-25.3-2.07-43.89-12.75c-22.59-12.98-27.32-37.81-27.32-37.81l3.97,1.17Z"/>
      <path class="st1" d="M98.05,234.09c1.65,6.14,8.11,25.05,26.84,35.82,16.83,9.66,39.15,12.28,43.23,12.68l-.77,1.49s-25.3-2.07-43.89-12.75c-22.59-12.98-27.32-37.81-27.32-37.81l1.9.57Z"/>
    </g>
  </g>
  <g>
    <g>
      <g>
        <path class="st20" d="M245.23,75.69C239.35,28.58,161.27,9.68,127.45,9.68S15.63,28.58,9.74,75.69c-2.12,17.02,19.76,17.92,19.76,17.92l97.99-3.73,97.98,3.73s21.89-.89,19.76-17.92Z"/>
        <path d="M254.92,75.69c-.4-3.12-.85-6.19-1.7-9.22-.83-2.95-2.02-5.79-3.27-8.58-2.22-4.96-5.36-9.35-8.77-13.55-6.73-8.28-15.63-14.9-24.78-20.27-9.85-5.79-20.56-10.24-31.39-13.85-9.79-3.26-19.86-5.74-30.03-7.48C145.98,1.2,136.81.03,127.66,0c-9.09-.03-18.21,1.14-27.16,2.64-21.29,3.56-42.66,10.29-61.41,21.11C20.84,34.28,3.39,50.95.44,72.83c-.55,4.07-.77,7.87.42,11.89,1.04,3.49,2.88,6.46,5.31,9.14,3.54,3.89,8.7,6.35,13.66,7.82,3.65,1.07,7.52,1.69,11.31,1.54,13.48-.51,26.97-1.03,40.45-1.54,16.09-.62,32.17-1.23,48.26-1.85,2.54-.1,5.16-.38,7.71-.29,3.52.13,7.04.27,10.56.4,16.71.63,33.41,1.28,50.12,1.91,12.22.47,24.45.94,36.68,1.4.6.03,1.18-.02,1.79-.08,3.41-.36,6.79-.89,10.03-2.03,4.62-1.63,9.29-4.03,12.51-7.83,4.16-4.92,6.4-11.15,5.65-17.64-.31-2.67-.86-4.87-2.84-6.84-1.81-1.81-4.29-2.84-6.84-2.84s-5.04,1.03-6.85,2.84c-1.63,1.63-3.12,4.44-2.83,6.84.16,1.45.19,2.89,0,4.33.12-.86.23-1.72.34-2.57-.17,1.16-.46,2.26-.91,3.34.33-.77.65-1.54.98-2.31-.43.98-.96,1.89-1.61,2.74.5-.66,1.01-1.31,1.51-1.96-.78,1-1.69,1.87-2.69,2.64.66-.5,1.31-1,1.96-1.51-1.35,1.02-2.84,1.84-4.39,2.51.77-.33,1.54-.65,2.31-.98-2.58,1.08-5.3,1.77-8.06,2.14.86-.11,1.71-.23,2.57-.34-2.3.31-4.55.11-6.87.02-6.36-.24-12.72-.48-19.08-.73-17.55-.67-35.09-1.34-52.63-2-5.97-.23-11.95-.46-17.92-.68-1.7-.07-3.37-.14-5.07-.08-13.35.51-26.71,1.02-40.05,1.53-16.16.61-32.33,1.23-48.49,1.85-3.32.12-6.73.54-10.03.1.85.11,1.71.23,2.57.34-2.77-.38-5.49-1.06-8.06-2.14.77.33,1.54.65,2.31.98-1.56-.67-3.04-1.49-4.4-2.51.65.51,1.3,1.01,1.96,1.51-1-.77-1.9-1.64-2.69-2.64.51.65,1.01,1.3,1.52,1.96-.65-.85-1.18-1.76-1.61-2.74.33.77.65,1.54.97,2.31-.44-1.08-.74-2.19-.91-3.34.12.86.23,1.71.35,2.57-.2-1.54-.16-3.07.04-4.62-.11.86-.23,1.72-.34,2.57.53-4,1.6-7.9,3.16-11.62-.33.77-.65,1.54-.98,2.31,1.75-4.12,4.08-7.96,6.81-11.51-.5.65-1.01,1.31-1.51,1.96,3.73-4.78,8.14-8.96,12.92-12.66-.65.51-1.3,1.01-1.96,1.52,8.17-6.28,17.32-11.17,26.79-15.19-.78.33-1.54.65-2.31.97,15.83-6.68,32.7-11.08,49.71-13.39-.86.12-1.71.23-2.57.35,6.06-.81,12.17-1.37,18.28-1.37,6.11-.01,12.23.55,18.29,1.37-.85-.12-1.71-.23-2.57-.35,17.03,2.31,33.9,6.72,49.74,13.39-.77-.32-1.54-.65-2.31-.97,9.48,4.02,18.63,8.91,26.81,15.19-.66-.5-1.3-1.01-1.96-1.52,4.85,3.76,9.34,8.01,13.1,12.88-.5-.66-1.01-1.31-1.51-1.96,2.66,3.48,4.93,7.25,6.64,11.28-.32-.77-.65-1.54-.98-2.31,1.56,3.72,2.63,7.62,3.16,11.62-.11-.86-.23-1.72-.35-2.57.02.1.03.19.04.28.33,2.68.84,4.86,2.83,6.85,1.81,1.81,4.29,2.84,6.85,2.84s5.03-1.03,6.84-2.84c1.62-1.62,3.14-4.46,2.84-6.85Z"/>
      </g>
      <path class="st28" d="M245.23,75.69C239.35,28.58,161.27,9.68,127.45,9.68S15.63,28.58,9.74,75.69c-2.12,17.02,19.76,17.92,19.76,17.92l97.99-3.73,97.98,3.73s21.89-.89,19.76-17.92Z"/>
      <path class="st16" d="M244.59,71.91c-3.69,10.28-19.12,10.92-19.12,10.92,0,0-39.95-5.13-97.98-5.13s-97.99,5.13-97.99,5.13c0,0-15.43-.63-19.11-10.92-.27,1.24-.48,2.5-.65,3.78-2.12,17.02,19.76,17.92,19.76,17.92l97.99-3.73,97.98,3.73s21.89-.89,19.76-17.92c-.16-1.28-.38-2.54-.64-3.78Z"/>
      <path class="st5" d="M127.45,14.66c33.75,0,111.54,18.82,117.74,65.7.23-1.4.26-2.95.05-4.66C239.34,28.58,161.27,9.68,127.45,9.68S15.63,28.58,9.74,75.69c-.21,1.71-.18,3.26.05,4.66C15.99,33.48,93.71,14.66,127.45,14.66Z"/>
    </g>
    <path class="st19" d="M199.49,41.33c-1.56,3.88-11.29,3.61-21.71-.6-10.43-4.21-17.61-10.77-16.05-14.65,1.57-3.87,11.29-3.6,21.72.61s17.61,10.77,16.05,14.64Z"/>
    <path class="st19" d="M208.8,44.21c0,1.84-1.49,3.33-3.33,3.33s-3.33-1.49-3.33-3.33,1.49-3.33,3.33-3.33,3.33,1.49,3.33,3.33Z"/>
  </g>
  <g>
    <g>
      <g>
        <path class="st19" d="M46.32,140.75c-1.11,10.13-10.21,17.44-20.34,16.34-10.13-1.11-17.44-10.22-16.33-20.34,1.1-10.12,10.21-17.44,20.34-16.33,10.13,1.11,17.44,10.21,16.33,20.34Z"/>
        <path d="M38.02,140.75c-.01.13-.03.26-.05.39.1-.73.2-1.47.3-2.21-.24,1.65-.66,3.22-1.28,4.76.28-.66.55-1.32.84-1.98-.44,1.02-.96,1.99-1.56,2.93-.35.55-1.56,2.05.22-.2-.37.47-.79.92-1.21,1.36-.34.35-.7.67-1.06.99-1.54,1.37,1.65-1.15-.04.03-1,.7-2.08,1.26-3.2,1.75.66-.28,1.33-.56,1.98-.84-1.49.61-3.03,1.04-4.62,1.28.73-.1,1.47-.2,2.21-.3-1.66.21-3.31.22-4.96.02.73.1,1.47.2,2.21.29-1.65-.23-3.22-.66-4.76-1.28.66.28,1.32.55,1.98.83-1.02-.44-1.99-.96-2.93-1.55-.55-.36-2.04-1.56.2.22-.47-.38-.92-.79-1.36-1.21-.35-.34-.68-.7-.99-1.06-1.37-1.54,1.14,1.65-.03-.04-.69-1-1.26-2.08-1.74-3.19.28.66.55,1.32.84,1.98-.62-1.49-1.04-3.02-1.29-4.62.1.74.2,1.47.3,2.21-.22-1.66-.22-3.31-.02-4.96-.09.73-.2,1.47-.3,2.2.23-1.64.66-3.22,1.28-4.76-.28.66-.56,1.32-.84,1.98.44-1.02.96-1.99,1.56-2.93.36-.55,1.56-2.05-.22.2.37-.47.79-.92,1.21-1.36.33-.35.69-.67,1.06-.99,1.54-1.37-1.65,1.14.05-.03,1-.7,2.08-1.26,3.19-1.74-.66.28-1.32.56-1.98.84,1.49-.62,3.02-1.04,4.61-1.28-.73.1-1.47.2-2.21.29,1.66-.21,3.3-.22,4.96-.02-.73-.1-1.47-.2-2.2-.3,1.64.23,3.22.66,4.76,1.29-.66-.28-1.33-.56-1.99-.84,1.02.44,2,.96,2.94,1.56.56.36,2.05,1.56-.21-.22.48.38.92.79,1.36,1.21.35.34.68.7,1,1.06,1.37,1.54-1.15-1.65.03.04.7,1,1.26,2.08,1.75,3.19-.28-.66-.56-1.32-.84-1.98.61,1.49,1.04,3.02,1.28,4.62-.1-.74-.2-1.47-.3-2.21.2,1.53.22,3.04.07,4.58-.45,4.51,4.11,8.29,8.3,8.29,2.19,0,4.32-.88,5.87-2.43,1.67-1.67,2.2-3.59,2.43-5.87.78-7.9-2.58-16.16-8.37-21.54-6.59-6.1-15.43-8.23-24.14-6.55-7.59,1.46-14.66,7.14-17.98,14.06-3.88,8.05-3.71,17.15.5,25.04,2.44,4.58,6.67,8.6,11.34,10.85,5.69,2.74,11.71,3.41,17.9,2.22,5.13-.99,10.13-4.03,13.65-7.83,1.79-1.93,3.39-4.17,4.5-6.57,1.48-3.24,2.18-6.15,2.6-9.68.25-2.06-1.03-4.47-2.43-5.87-1.55-1.55-3.68-2.43-5.87-2.43s-4.32.88-5.87,2.43c-1.7,1.7-2.15,3.57-2.43,5.87Z"/>
      </g>
      <path class="st0" d="M46.32,140.75c-1.11,10.13-10.21,17.44-20.34,16.34-10.13-1.11-17.44-10.22-16.33-20.34,1.1-10.12,10.21-17.44,20.34-16.33,10.13,1.11,17.44,10.21,16.33,20.34Z"/>
      <path class="st24" d="M41.64,139.72c-.81,7.42-7.48,12.78-14.91,11.97-7.42-.82-12.78-7.48-11.97-14.9.81-7.42,7.49-12.78,14.91-11.97,7.42.81,12.78,7.48,11.97,14.9Z"/>
    </g>
    <g>
      <g>
        <path class="st19" d="M245.08,140.75c-1.11,10.13-10.22,17.44-20.35,16.34-10.12-1.11-17.43-10.22-16.33-20.34,1.11-10.12,10.22-17.44,20.35-16.33,10.12,1.11,17.43,10.21,16.33,20.34Z"/>
        <path d="M236.77,140.75c-.01.13-.03.26-.05.39.1-.73.2-1.47.3-2.21-.23,1.65-.66,3.22-1.28,4.76.28-.66.56-1.32.83-1.98-.44,1.02-.96,1.99-1.56,2.93-.35.55-1.56,2.05.22-.2-.37.47-.79.92-1.21,1.36-.33.35-.69.67-1.06.99-1.54,1.37,1.65-1.15-.05.03-1,.7-2.08,1.26-3.19,1.75.66-.28,1.32-.56,1.98-.84-1.49.61-3.02,1.04-4.62,1.28.74-.1,1.47-.2,2.21-.3-1.65.21-3.3.22-4.96.02.73.1,1.47.2,2.2.29-1.64-.23-3.23-.66-4.76-1.28.66.28,1.32.55,1.99.83-1.02-.44-1.99-.96-2.94-1.55-.55-.36-2.05-1.56.21.22-.48-.38-.92-.79-1.36-1.21-.35-.34-.68-.7-1-1.06-1.37-1.54,1.14,1.65-.03-.04-.69-1-1.26-2.08-1.74-3.19.28.66.56,1.32.84,1.98-.62-1.49-1.04-3.02-1.28-4.62.1.74.2,1.47.29,2.21-.21-1.66-.22-3.31-.01-4.96-.1.73-.2,1.47-.3,2.2.23-1.64.65-3.22,1.28-4.76-.28.66-.56,1.32-.84,1.98.44-1.02.96-1.99,1.56-2.93.36-.55,1.56-2.05-.22.2.37-.47.79-.92,1.21-1.36.34-.35.7-.67,1.06-.99,1.55-1.37-1.64,1.14.05-.03,1-.7,2.08-1.26,3.19-1.74-.66.28-1.32.56-1.98.84,1.49-.62,3.02-1.04,4.62-1.28-.74.1-1.47.2-2.21.29,1.66-.21,3.3-.22,4.96-.02-.73-.1-1.47-.2-2.21-.3,1.64.23,3.22.66,4.76,1.29-.66-.28-1.32-.56-1.99-.84,1.02.44,2,.96,2.94,1.56.56.36,2.05,1.56-.2-.22.48.38.92.79,1.36,1.21.35.34.68.7.99,1.06,1.37,1.54-1.14-1.65.03.04.69,1,1.26,2.08,1.74,3.19-.28-.66-.56-1.32-.84-1.98.62,1.49,1.04,3.02,1.28,4.62-.1-.74-.2-1.47-.3-2.21.2,1.53.22,3.04.06,4.58-.44,4.51,4.12,8.29,8.3,8.29,2.19,0,4.32-.88,5.87-2.43,1.67-1.67,2.2-3.59,2.43-5.87.78-7.9-2.58-16.16-8.38-21.54-6.58-6.1-15.42-8.23-24.14-6.55-7.59,1.46-14.66,7.14-17.99,14.06-3.88,8.05-3.7,17.15.51,25.04,2.44,4.58,6.67,8.6,11.34,10.85,5.7,2.74,11.71,3.41,17.9,2.22,5.12-.99,10.13-4.03,13.65-7.83,1.79-1.93,3.39-4.17,4.49-6.57,1.48-3.24,2.19-6.15,2.62-9.68.24-2.06-1.04-4.47-2.43-5.87-1.55-1.55-3.68-2.43-5.87-2.43s-4.32.88-5.87,2.43c-1.7,1.7-2.15,3.57-2.44,5.87Z"/>
      </g>
      <path class="st0" d="M245.08,140.75c-1.11,10.13-10.22,17.44-20.35,16.34-10.12-1.11-17.43-10.22-16.33-20.34,1.11-10.12,10.22-17.44,20.35-16.33,10.12,1.11,17.43,10.21,16.33,20.34Z"/>
      <path class="st24" d="M240.39,139.72c-.81,7.42-7.48,12.78-14.9,11.97-7.42-.82-12.78-7.48-11.97-14.9.81-7.42,7.49-12.78,14.91-11.97,7.42.81,12.77,7.48,11.96,14.9Z"/>
    </g>
  </g>
  <g>
    <path class="st22" d="M26.29,105.76c.04,25.03.15,49.63.15,49.63,0,38.8,21.75,74.79,102.79,74.45,80.21-.33,99.2-35.64,99.2-74.45v-49.63H26.29Z"/>
    <path d="M16.61,105.76c.03,14.97.07,29.94.12,44.91.03,7.45.32,14.74,1.54,22.12,2.83,17.21,11.87,33.45,25.73,44.17,4.28,3.31,8.68,6.29,13.51,8.75,5.32,2.71,10.92,4.95,16.61,6.75,13.15,4.18,27.09,5.97,40.83,6.73,15.88.88,31.83.19,47.55-2.19,12.05-1.81,23.8-5.14,34.78-10.46,8.51-4.12,16.51-9.91,22.74-17.04,6.18-7.07,10.66-15.12,13.68-23.99,4.46-13.12,4.42-26.92,4.42-40.59v-39.14c0-5.28-4.4-9.68-9.68-9.68H26.29c-5.28,0-9.68,4.4-9.68,9.68s4.4,9.68,9.68,9.68h202.14c-3.22-3.23-6.45-6.45-9.68-9.68v41.35c0,7.29.11,14.55-.86,21.79.11-.86.23-1.71.35-2.57-.86,6.28-2.39,12.46-4.84,18.31.33-.77.65-1.54.98-2.31-1.93,4.57-4.42,8.9-7.44,12.83.5-.65,1.01-1.3,1.51-1.96-3.08,3.99-6.68,7.53-10.67,10.61.66-.5,1.31-1.01,1.96-1.52-5.01,3.84-10.55,6.91-16.35,9.37.77-.32,1.54-.65,2.31-.97-9.93,4.17-20.51,6.58-31.14,8.02.85-.12,1.71-.23,2.57-.34-18.99,2.53-38.64,2.55-57.62,0,.85.12,1.71.23,2.57.34-10.82-1.47-21.54-3.94-31.63-8.18.78.32,1.55.65,2.32.97-6.05-2.57-11.82-5.77-17.04-9.77.65.5,1.31,1,1.96,1.51-4.11-3.17-7.82-6.82-11.01-10.92.5.66,1.01,1.31,1.51,1.96-3.16-4.1-5.77-8.6-7.78-13.38.32.77.65,1.54.98,2.31-2.43-5.8-3.98-11.93-4.82-18.16.11.86.23,1.72.34,2.58-.82-6.18-.79-12.38-.81-18.6-.05-14.44-.1-28.87-.12-43.3-.01-5.28-4.4-9.68-9.68-9.68s-9.69,4.4-9.68,9.68Z"/>
  </g>
  <path class="st0" d="M26.29,105.76c.04,25.03.15,49.63.15,49.63,0,38.8,21.75,74.79,102.79,74.45,80.21-.33,99.2-35.64,99.2-74.45v-49.63H26.29Z"/>
  <path class="st25" d="M127.33,148.31c-51.28,0-84.9-6.81-101.01-11.11.04-12.9.08-22.12.08-22.12,0-2.02.05-4.03.18-6.02,16.2,4.3,49.74,11.05,100.75,11.05s84.77-6.79,100.91-11.09c.11,2.01.16,4.04.16,6.06v22.11c-16.08,4.3-49.73,11.12-101.07,11.12Z"/>
  <g>
    <g>
      <g>
        <g>
          <g>
            <path class="st4" d="M85.04,167.35c0,9.05-7.33,16.38-16.37,16.38s-16.37-7.33-16.37-16.38,7.33-16.37,16.37-16.37,16.37,7.33,16.37,16.37Z"/>
            <path d="M82.97,167.35c-.07,5.93-3.72,11.34-9.32,13.42-5.78,2.14-12.11.24-16.06-4.37-3.93-4.58-4.14-11.4-1.14-16.48,3.04-5.14,9.26-7.75,15.06-6.6,6.66,1.32,11.38,7.3,11.46,14.02.03,2.67,4.18,2.68,4.15,0-.07-6.49-3.42-12.38-8.93-15.8-5.56-3.45-12.71-3.4-18.41-.36-5.68,3.03-9.17,9.06-9.54,15.4-.38,6.47,3.04,12.59,8.31,16.19,5.61,3.83,13.11,3.89,19.02.75,5.9-3.15,9.48-9.56,9.55-16.17.03-2.68-4.12-2.67-4.15,0Z"/>
          </g>
          <path class="st19" d="M80.45,163.04c0,2.22-1.8,4.02-4.02,4.02s-4.02-1.8-4.02-4.02,1.79-4.02,4.02-4.02,4.02,1.8,4.02,4.02Z"/>
        </g>
        <path class="st17" d="M69.29,195.45c.35,2.56-4.06,5.27-9.84,6.06-5.78.79-10.75-.65-11.1-3.21-.35-2.56,4.05-5.27,9.84-6.06,5.78-.78,10.75.65,11.1,3.21Z"/>
      </g>
      <g>
        <g>
          <g>
            <path class="st4" d="M202.42,167.35c0,9.05-7.33,16.38-16.37,16.38s-16.37-7.33-16.37-16.38,7.33-16.37,16.37-16.37,16.37,7.33,16.37,16.37Z"/>
            <path d="M200.35,167.35c-.07,5.93-3.73,11.34-9.33,13.42-5.78,2.14-12.1.24-16.06-4.37-3.93-4.58-4.14-11.4-1.14-16.48,3.03-5.14,9.26-7.75,15.06-6.6,6.66,1.32,11.38,7.3,11.46,14.02.03,2.67,4.18,2.68,4.15,0-.08-6.49-3.42-12.38-8.93-15.8-5.56-3.45-12.71-3.4-18.41-.36-5.68,3.03-9.17,9.06-9.54,15.4-.38,6.47,3.04,12.59,8.3,16.19,5.61,3.83,13.12,3.89,19.02.75,5.9-3.15,9.48-9.56,9.55-16.17.03-2.68-4.12-2.67-4.15,0Z"/>
          </g>
          <path class="st19" d="M197.83,163.04c0,2.22-1.81,4.02-4.02,4.02s-4.02-1.8-4.02-4.02,1.8-4.02,4.02-4.02,4.02,1.8,4.02,4.02Z"/>
        </g>
        <path class="st17" d="M185.43,195.45c-.35,2.56,4.06,5.27,9.84,6.06,5.78.79,10.75-.65,11.1-3.21.35-2.56-4.06-5.27-9.84-6.06-5.78-.78-10.75.65-11.1,3.21Z"/>
      </g>
    </g>
    <path d="M109.41,199.34c.12,2.42,1.01,4.9,2.41,6.86,3.46,4.83,9.05,6.65,14.83,6.76,5.48.11,11.57-1.43,15.26-5.76,1.86-2.18,3.08-4.73,3.39-7.59.25-2.25-2.07-4.15-4.14-4.15-2.45,0-3.91,1.9-4.15,4.15.23-2.08.03-.4-.17.24-.07.21-.15.41-.23.62.59-1.48.2-.49.03-.15-.13.25-.28.51-.44.75-.18.28-.91,1.23-.02.1-.46.57-.99,1.09-1.55,1.56,1.02-.85-.1.05-.37.22-.39.24-.79.45-1.2.66-.41.19-.35.16.18-.06-.29.12-.58.22-.87.32-.53.18-1.08.31-1.62.44-.25.06-1.94.31-1.12.21-.85.1-1.7.13-2.55.13-.7.02-1.41-.03-2.12-.07-.25-.02-.52-.05-.77-.08.95.1-.22-.06-.35-.09-.55-.1-1.09-.25-1.62-.41-.2-.06-.4-.13-.59-.2-.98-.34.81.38-.1-.03-.41-.19-.8-.41-1.19-.65-.14-.09-.29-.18-.42-.28-.74-.5.74.61.06.06-.29-.24-.56-.51-.83-.78-.15-.16-.29-.32-.43-.48-.52-.61.61.83.15.19-.35-.5-.64-1.03-.9-1.58-.23-.48.43,1.14.07.12-.08-.21-.14-.43-.2-.65-.09-.33-.16-.67-.22-1-.05-.35.14,1.43.1.62-.11-2.26-1.81-4.14-4.16-4.14-2.18,0-4.25,1.89-4.15,4.14h0Z"/>
  </g>
  <g>
    <g>
      <path class="st20" d="M19.68,116.68s10.19,12.58,109.61,12.58,105.75-13.52,105.75-13.52c0,0-19.67-10.06-106.45-10.06s-108.91,11-108.91,11Z"/>
      <path d="M12.83,123.53c.88,1.09,2.23,1.89,3.45,2.61,2.68,1.6,5.72,2.7,8.68,3.67,4.66,1.52,9.48,2.53,14.31,3.4,9.06,1.62,18.24,2.68,27.41,3.47,29.55,2.59,59.42,2.75,89.06,1.91,20.96-.61,42.33-1.66,62.9-5.99,7.83-1.64,15.88-3.85,22.2-8.92.99-.79,2.05-1.98,2.56-3.05,1.14-2.44,1.71-4.78.97-7.46-.64-2.3-2.27-4.68-4.45-5.79-4.99-2.55-10.77-3.73-16.22-4.8-19.17-3.78-38.88-5.08-58.36-5.88-30.7-1.26-61.61-1.15-92.26,1.17-10.35.78-20.69,1.9-30.95,3.48-5.66.87-11.3,1.92-16.85,3.35-3.56.91-7.19,1.99-10.51,3.63-4.72,2.34-6,8.93-3.47,13.24,2.8,4.78,8.52,5.82,13.25,3.47.15-.07.31-.14.47-.21-.78.33-1.55.65-2.31.98,6.83-2.88,14.5-4.13,21.75-5.34,2.75-.46,5.51-.86,8.28-1.24-.86.12-1.72.24-2.57.35,25.94-3.48,52.26-4.21,78.4-4.21,25.85-.01,51.89.6,77.57,3.86.71.09,1.43.19,2.14.28-.85-.11-1.71-.23-2.57-.34,8.51,1.14,17.42,2.35,25.5,5.4.25.1.51.2.76.3-.77-.32-1.54-.65-2.31-.97.16.07.32.13.47.21-1.16-4.41-2.31-8.83-3.48-13.24-.03.08-.09.16-.15.23.5-.66,1.01-1.31,1.51-1.96-.29.38-.65.68-1.02.97.65-.5,1.31-1.01,1.96-1.51-1.35,1.04-2.92,1.79-4.48,2.45.77-.33,1.54-.65,2.31-.97-8.45,3.54-17.87,4.94-26.88,6.15.86-.12,1.72-.23,2.58-.34-26.34,3.52-53.14,3.84-79.67,3.7-23.89-.13-47.97-.75-71.68-3.93.86.11,1.71.23,2.57.34-9.11-1.22-18.7-2.58-27.24-6.17.77.32,1.54.65,2.31.97-1.31-.55-2.65-1.16-3.79-2.04.66.51,1.31,1.01,1.96,1.52-.16-.13-.33-.26-.46-.42-1.54-1.89-4.51-2.83-6.84-2.83-2.56,0-5.04,1.03-6.84,2.83-1.81,1.81-2.83,4.29-2.83,6.84,0,2.77,1.14,4.77,2.83,6.85Z"/>
    </g>
    <path class="st27" d="M19.68,116.68s10.19,12.58,109.61,12.58,105.75-13.52,105.75-13.52c0,0-19.67-10.06-106.45-10.06s-108.91,11-108.91,11Z"/>
    <path class="st3" d="M129.42,125.82c-68.19,0-97.01-5.55-108.89-9.5-.59.23-.85.36-.85.36,0,0,10.19,12.58,109.61,12.58s105.75-13.52,105.75-13.52h0c-10.9,4.24-38.16,10.08-105.62,10.08Z"/>
  </g>
  <g>
    <g>
      <path class="st20" d="M144.97,48.73c0,9.72-7.88,17.6-17.6,17.6s-17.6-7.88-17.6-17.6,7.88-17.6,17.6-17.6,17.6,7.88,17.6,17.6Z"/>
      <path d="M135.29,48.73c0,.77-.05,1.53-.14,2.3.11-.86.23-1.72.35-2.58-.23,1.61-.66,3.14-1.27,4.64.32-.77.65-1.54.98-2.31-.59,1.33-1.32,2.57-2.19,3.74.5-.65,1.01-1.3,1.51-1.96-.97,1.24-2.06,2.34-3.3,3.31.65-.51,1.31-1.02,1.96-1.52-1.17.88-2.42,1.6-3.75,2.19.77-.32,1.54-.65,2.31-.97-1.5.62-3.03,1.04-4.64,1.27.86-.12,1.71-.23,2.57-.35-1.54.19-3.06.19-4.6,0,.86.12,1.72.23,2.57.35-1.6-.23-3.14-.65-4.64-1.27.77.32,1.54.65,2.31.97-1.34-.59-2.58-1.32-3.75-2.19.66.5,1.3,1.01,1.96,1.52-1.24-.97-2.34-2.07-3.3-3.31.5.66,1,1.3,1.51,1.96-.87-1.17-1.6-2.41-2.19-3.74.33.77.65,1.54.97,2.31-.62-1.49-1.04-3.03-1.27-4.64.11.86.23,1.71.34,2.58-.19-1.54-.19-3.06,0-4.59-.11.86-.23,1.72-.34,2.57.22-1.6.65-3.14,1.27-4.64-.33.77-.65,1.54-.97,2.31.58-1.34,1.32-2.58,2.19-3.75-.5.65-1,1.31-1.51,1.96.97-1.24,2.06-2.34,3.3-3.31-.66.51-1.3,1.02-1.96,1.52,1.17-.87,2.41-1.6,3.75-2.19-.77.33-1.54.66-2.31.98,1.49-.62,3.04-1.05,4.64-1.27-.85.12-1.71.23-2.57.35,1.54-.18,3.05-.18,4.6,0-.86-.12-1.72-.23-2.57-.35,1.6.22,3.14.65,4.64,1.27-.77-.32-1.54-.65-2.31-.98,1.33.59,2.57,1.32,3.75,2.19-.65-.5-1.31-1.01-1.96-1.52,1.24.97,2.33,2.07,3.3,3.31-.5-.65-1.01-1.3-1.51-1.96.87,1.17,1.6,2.41,2.19,3.75-.33-.77-.65-1.54-.98-2.31.62,1.5,1.04,3.04,1.27,4.64-.12-.86-.24-1.71-.35-2.57.09.77.14,1.53.14,2.29.06,5.28,4.36,9.68,9.68,9.68s9.74-4.4,9.68-9.68c-.05-4.67-1.23-9-3.37-13.13-2.07-3.99-5.33-7.06-8.92-9.64-6.66-4.78-16.57-5.86-24.16-2.88-4.16,1.64-7.98,3.9-10.98,7.29-2.97,3.35-5.19,7.29-6.29,11.65-2.3,9.11.39,18.4,6.54,25.35,6.93,7.84,19.35,10.84,29.08,7.02,3.24-1.27,5.63-2.69,8.36-4.82,2.1-1.64,3.7-3.69,5.24-5.85,3.04-4.24,4.45-9.83,4.5-14.99.06-5.27-4.44-9.68-9.68-9.68s-9.62,4.4-9.68,9.68Z"/>
    </g>
    <path class="st13" d="M144.97,48.73c0,9.72-7.88,17.6-17.6,17.6s-17.6-7.88-17.6-17.6,7.88-17.6,17.6-17.6,17.6,7.88,17.6,17.6Z"/>
    <path class="st15" d="M127.35,62.31c-9.05,0-16.49-6.82-17.49-15.59-.08.65-.12,1.32-.12,2,0,9.71,7.88,17.6,17.6,17.6s17.6-7.88,17.6-17.6c0-.68-.05-1.35-.12-2-1,8.78-8.44,15.59-17.48,15.59Z"/>
    <path class="st12" d="M127.35,35.08c-9.05,0-16.49,6.82-17.49,15.6-.08-.66-.12-1.32-.12-2,0-9.72,7.88-17.6,17.6-17.6s17.6,7.88,17.6,17.6c0,.68-.05,1.34-.12,2-1-8.78-8.44-15.6-17.48-15.6Z"/>
  </g>
  <g>
    <g>
      <path class="st20" d="M191.04,96.69c-27.84-2.7-62.34-2.94-63.66-2.95h0s0,0-.02,0h-.02c-1.31.01-35.81.25-63.66,2.95-28.39,2.75-45.69,6.36-45.69,6.36l1.38,6.95s21.11-4.45,47.44-6.88c28.97-2.68,59.65-2.77,60.56-2.77s31.58.09,60.56,2.77c26.32,2.44,47.43,6.88,47.43,6.88l1.39-6.95s-17.31-3.6-45.7-6.36Z"/>
      <path d="M191.04,87.01c-21.12-2.04-42.44-2.82-63.66-2.95,3.23,3.23,6.46,6.46,9.68,9.68h0c0-5.28-4.4-9.68-9.68-9.68h-.04c-5.28,0-9.68,4.4-9.68,9.68h0c3.23-3.22,6.46-6.45,9.68-9.68-23.35.14-46.78,1.12-70,3.6-14,1.49-28.12,3.18-41.93,6.05-2.38.49-4.58,2.4-5.78,4.45-1.38,2.36-1.5,4.84-.98,7.46.46,2.31.92,4.63,1.39,6.95.47,2.37,2.41,4.59,4.45,5.79,2.35,1.37,4.85,1.52,7.46.97,9.44-1.98,19.01-3.44,28.56-4.73-.85.12-1.71.23-2.57.34,26.22-3.51,52.81-4.83,79.27-4.92,8.19-.04,16.38.24,24.56.54,16.78.62,33.55,1.7,50.21,3.76,1.6.2,3.21.41,4.81.62-.85-.11-1.71-.23-2.57-.34,9.56,1.29,19.13,2.74,28.57,4.73,2.6.54,5.11.4,7.45-.97,2.04-1.2,3.98-3.41,4.45-5.79.46-2.31.92-4.63,1.39-6.95.52-2.62.41-5.1-.98-7.46-1.2-2.05-3.41-3.96-5.78-4.45-4.04-.84-8.13-1.5-12.2-2.14-11.97-1.9-24.01-3.38-36.07-4.56-5.26-.51-9.68,4.79-9.68,9.68,0,2.56,1.03,5.04,2.84,6.85,1.94,1.95,4.18,2.58,6.84,2.83,7.37.72,14.73,1.56,22.06,2.55-.86-.12-1.71-.23-2.57-.35,7.9,1.06,15.82,2.19,23.63,3.81-2.25-3.97-4.51-7.94-6.76-11.91-.46,2.31-.92,4.63-1.39,6.95,3.97-2.26,7.94-4.51,11.91-6.76-25.43-5.34-51.51-7.85-77.43-9.09-17.92-.86-35.78-1.07-53.72-.5-29.42.95-58.82,3.51-87.74,9.14-.75.15-1.5.29-2.25.45,3.97,2.25,7.94,4.51,11.91,6.76-.46-2.32-.93-4.63-1.39-6.95-2.25,3.97-4.51,7.94-6.76,11.91,7.81-1.62,15.74-2.75,23.63-3.81-.86.12-1.72.23-2.57.35,27.18-3.65,54.57-5.07,81.99-5.45,1.24-.02,2.48-.03,3.73-.04,5.28-.04,9.68-4.38,9.68-9.68h0c-3.22,3.22-6.45,6.45-9.68,9.68h.04c-3.22-3.23-6.45-6.46-9.68-9.69h0c0,5.3,4.4,9.65,9.68,9.69,21.22.12,42.54.91,63.66,2.94,5.26.51,9.68-4.78,9.68-9.68,0-2.56-1.02-5.04-2.83-6.84-1.95-1.95-4.19-2.58-6.85-2.84Z"/>
    </g>
    <path class="st13" d="M191.04,96.69c-27.84-2.7-62.34-2.94-63.66-2.95h0s0,0-.02,0h-.02c-1.31.01-35.81.25-63.66,2.95-28.39,2.75-45.69,6.36-45.69,6.36l1.38,6.95s21.11-4.45,47.44-6.88c28.97-2.68,59.65-2.77,60.56-2.77s31.58.09,60.56,2.77c26.32,2.44,47.43,6.88,47.43,6.88l1.39-6.95s-17.31-3.6-45.7-6.36Z"/>
    <path class="st15" d="M63.68,99.84c27.85-2.7,62.35-2.94,63.66-2.95h.04c1.32,0,35.82.25,63.66,2.95,25.28,2.45,41.77,5.58,45.08,6.23l.61-3.09s-17.31-3.6-45.7-6.36c-27.84-2.7-62.34-2.94-63.66-2.94h-.04c-1.31,0-35.81.25-63.66,2.94-28.39,2.75-45.69,6.36-45.69,6.36l.61,3.09c3.31-.66,19.8-3.79,45.08-6.23Z"/>
  </g>
  <path class="st10" d="M70,272.41c.07-.9.51-1.63,1.32-2.08,1.06-.59,2.44-.23,3.15.81.12.18.22.38.32.55h0s0,0,0,0c.1-.18.18-.38.3-.56.68-1.07,2.04-1.47,3.12-.91.82.42,1.28,1.13,1.39,2.04.15,1.2-.19,2.29-.84,3.3-.66,1.03-1.55,1.82-2.58,2.47-.38.24-.79.45-1.19.67-.02,0-.05.02-.09.02h0s0,0,0,0h-.01s-.06-.01-.09-.03c-.4-.2-.82-.39-1.21-.62-1.04-.62-1.96-1.38-2.66-2.38-.68-.98-1.05-2.07-.94-3.27Z"/>
</svg>