<?xml version="1.0" encoding="UTF-8"?>
<svg id="Layer_1" xmlns="http://www.w3.org/2000/svg" version="1.1" viewBox="0 0 299.67 334.67">
  <!-- Generator: Adobe Illustrator 29.6.1, SVG Export Plug-In . SVG Version: 2.1.1 Build 9)  -->
  <defs>
    <style>
      .st0 {
        fill: #58595b;
      }

      .st1 {
        fill: #000002;
      }

      .st2 {
        fill: #5b5b5b;
      }

      .st3 {
        fill: #6d6e71;
      }

      .st4 {
        fill: #aaa;
      }

      .st5 {
        fill: #fff6d2;
      }

      .st6 {
        fill: #ffd5bd;
      }

      .st7 {
        fill: #ff9d00;
      }

      .st8 {
        fill: #d8d8d8;
      }

      .st9 {
        fill: #a0a0a0;
      }

      .st10 {
        fill: #f1f2f2;
      }

      .st11 {
        fill: #fff2e9;
      }

      .st12 {
        fill: #636363;
      }

      .st13 {
        fill: #f38b9e;
      }

      .st14 {
        fill-rule: evenodd;
      }

      .st15 {
        fill: #ffb600;
      }

      .st16 {
        fill: #fff;
      }

      .st17 {
        fill: #fdc361;
      }

      .st18 {
        fill: #747673;
      }

      .st19 {
        fill: #fde5d2;
      }

      .st20 {
        fill: #ffebde;
      }

      .st21 {
        fill: #808285;
      }

      .st22 {
        fill: #7f7f7f;
      }

      .st23 {
        fill: #ffec00;
      }

      .st24 {
        fill: #fff3e7;
      }

      .st25 {
        fill: #4b4b4b;
      }

      .st26 {
        fill: #fff200;
      }
    </style>
  </defs>
  <g>
    <path class="st19" d="M257.31,158.72l2.22.51c.27,2.19,1.87,4.09,4.15,4.62,2.9.68,5.82-1.12,6.51-4.02h-.01c.68-2.92-1.13-5.82-4.04-6.51-.39-.09-.77-.13-1.14-.14l-.59-2.16c.73-.05,1.48,0,2.23.18,4.08.96,6.61,5.04,5.66,9.12h.02c-.96,4.09-5.05,6.62-9.13,5.66-3.46-.81-5.8-3.87-5.86-7.26Z"/>
    <path d="M254.97,167.21c.75.17,1.48.35,2.22.52-2.05-2.05-4.1-4.1-6.15-6.15.43,2.7,2.07,5.34,3.98,7.23,2.64,2.61,5.86,3.55,9.45,3.99,2.59.31,5.92-.79,8.05-2.21,3.03-2.02,5.18-4.9,6.15-8.42,1.25-4.5-1.48-9.72-6.15-10.84h-.01c2.05,3.62,4.1,7.22,6.15,10.84.52-2.67.49-4.35.03-7.02-.4-2.3-1.8-4.17-3.17-5.95-2.48-3.19-6.63-4.62-10.52-4.83,2.83,2.15,5.66,4.31,8.49,6.47-.2-.72-.39-1.44-.58-2.16-2.83,3.72-5.66,7.44-8.5,11.15.57-.01,1.1.01,1.67.08-.78-.11-1.56-.21-2.34-.32.6.12,1.16.27,1.74.49-.7-.3-1.4-.59-2.1-.89.37.17.72.34,1.07.55,1.37.79-1.7-1.47-.54-.42.52.47,1.3,1.67-.36-.6.31.42.53.89.75,1.36-.3-.7-.59-1.4-.89-2.1.24.62.42,1.23.53,1.88-.1-.79-.21-1.56-.31-2.34.08.68.08,1.33.02,2,.1-.78.21-1.56.31-2.34-.04.28-.08.55-.14.82-.95,4.65,1.28,9.56,6.15,10.84t.01,0c-2.05-3.62-4.1-7.23-6.15-10.84-.1.4-.23.79-.38,1.17.29-.7.59-1.4.89-2.1-.17.38-.35.72-.55,1.07-.79,1.37,1.47-1.7.42-.54-.47.51-1.67,1.29.6-.37-.42.31-.89.54-1.36.75.7-.3,1.4-.59,2.11-.89-.62.24-1.23.42-1.89.53.79-.11,1.56-.22,2.34-.32-.68.07-1.32.08-2,.02.78.11,1.56.21,2.34.32-.7-.11-1.35-.28-2.01-.53.7.29,1.4.59,2.11.88-.38-.17-.73-.35-1.09-.56-1.38-.81,1.69,1.46.53.39-.53-.48-1.25-1.68.36.57-.31-.43-.54-.91-.75-1.39.3.7.59,1.4.89,2.11-.24-.63-.4-1.26-.5-1.93.1.78.21,1.56.31,2.34-.03-.27-.05-.54-.06-.8-.21-4.8-3.85-8.82-8.81-8.82-4.64,0-9.02,4.01-8.81,8.82.19,4.32,1.71,7.64,4.36,10.98,2.64,3.32,7.07,4.84,11.12,5.24,7.7.74,14.89-4.99,16.81-12.27,1.21-4.59-1.47-9.61-6.15-10.83,0,0,0,0-.01,0,2.05,3.61,4.1,7.22,6.15,10.84.92-4.47.5-9.36-2.27-13.16-3.35-4.59-8.28-7.47-14.11-7.3-5.71.17-10.03,5.5-8.49,11.15.19.72.39,1.44.58,2.16,1.07,3.93,4.57,6.26,8.5,6.47.25,0,.51.03.76.06-.78-.1-1.56-.21-2.34-.31.4.08.76.18,1.14.31-.7-.29-1.4-.59-2.1-.88.8.35,1.97,1.43-.15-.36.19.17.36.36.53.55-1.66-1.86-.95-1.27-.58-.51-.3-.7-.6-1.4-.89-2.11.19.49.32.95.41,1.47-.1-.79-.21-1.56-.31-2.34.05.53.05,1.03-.02,1.56.1-.78.21-1.56.32-2.34-.03.13-.05.27-.08.4-.89,4.58,1.22,9.65,6.15,10.84h.01c-2.05-3.61-4.1-7.22-6.15-10.84-.06.26-.14.51-.24.76.29-.7.59-1.4.89-2.1-.36.8-1.44,1.96.35-.15-.17.19-.35.36-.54.52,1.86-1.66,1.26-.95.5-.58.7-.29,1.4-.59,2.1-.89-.48.2-.95.32-1.46.41.78-.11,1.56-.21,2.34-.31-.54.05-1.03.05-1.56-.02.79.11,1.56.21,2.34.32-.4-.08-.78-.18-1.17-.32.7.29,1.4.6,2.11.89-.81-.36-1.96-1.44.13.35-.61-.63-.4-.33.62.92-.24-.31-.4-.66-.57-1.01.29.71.59,1.4.89,2.11-.2-.49-.32-.96-.4-1.48-.45-2.85-3.45-5.52-6.15-6.15-.74-.17-1.48-.35-2.22-.52-4.67-1.1-9.53,1.4-10.84,6.15-1.24,4.49,1.48,9.74,6.15,10.83Z"/>
  </g>
  <g>
    <path class="st19" d="M23.89,158.72l-2.22.51c-.26,2.19-1.86,4.09-4.14,4.62-2.9.68-5.82-1.12-6.51-4.02h.01c-.68-2.92,1.13-5.82,4.04-6.51.39-.09.76-.13,1.14-.14l.59-2.16c-.73-.05-1.48,0-2.23.18-4.08.96-6.62,5.04-5.66,9.12h-.02c.96,4.09,5.04,6.62,9.13,5.66,3.45-.81,5.8-3.87,5.86-7.26Z"/>
    <path d="M21.54,150.22c-.74.17-1.48.35-2.22.52-2.7.63-5.7,3.3-6.15,6.15-.08.52-.21.99-.4,1.48.29-.7.59-1.4.88-2.11-.38.81-1.46,1.85.33-.19-.64.61-.33.39.91-.63-.32.24-.69.4-1.04.55.7-.29,1.41-.59,2.11-.89-.39.14-.77.24-1.17.32.78-.1,1.56-.21,2.34-.32-.53.07-1.03.08-1.56.02.79.1,1.56.21,2.34.31-.51-.09-.98-.21-1.46-.41.7.3,1.4.59,2.1.89-.23-.1-.45-.22-.66-.35,1.25,1.03,1.55,1.26.88.69-.6-.64-.39-.33.64.91-.23-.32-.39-.67-.55-1.03.3.7.59,1.4.89,2.1-.1-.25-.18-.5-.24-.76-2.06,3.61-4.1,7.22-6.15,10.84h.01c4.93-1.16,7.04-6.28,6.15-10.84-.03-.13-.05-.27-.08-.4.1.78.21,1.56.31,2.34-.06-.53-.07-1.03-.02-1.56-.1.78-.21,1.56-.31,2.34.09-.51.22-.98.41-1.47-.29.71-.59,1.41-.88,2.11.1-.23.22-.45.35-.67-1.03,1.25-1.26,1.55-.68.89.64-.6.34-.39-.91.64.32-.23.68-.39,1.03-.54-.7.3-1.4.59-2.1.88.38-.13.74-.23,1.14-.31-.78.11-1.56.21-2.34.31.25-.04.5-.06.76-.06,3.93-.2,7.43-2.54,8.49-6.47.2-.72.39-1.44.59-2.16,1.54-5.65-2.78-10.98-8.49-11.15-4.67-.14-9.74,1.82-12.73,5.51-3.57,4.4-4.8,9.38-3.65,14.95,2.05-3.61,4.1-7.23,6.15-10.84t-.01,0c-4.69,1.2-7.37,6.26-6.15,10.83,1.92,7.28,9.12,13.01,16.8,12.27,4.16-.4,7.9-1.92,10.87-4.94,2.98-3.04,4.44-7.08,4.62-11.27.21-4.8-4.17-8.82-8.81-8.82-4.96,0-8.6,4.02-8.81,8.82,0,.27-.03.54-.06.8.1-.78.21-1.56.32-2.34-.1.67-.27,1.3-.51,1.93.3-.71.59-1.41.89-2.11-.16.37-.33.71-.53,1.06-.79,1.37,1.47-1.7.42-.52-.45.52-1.67,1.33.58-.33-.44.32-.93.56-1.42.78.7-.29,1.4-.59,2.1-.88-.66.25-1.31.42-2.01.53.78-.11,1.56-.21,2.34-.32-.68.06-1.32.06-2-.02.79.1,1.56.21,2.34.32-.65-.12-1.26-.29-1.88-.53.7.3,1.41.59,2.11.89-.36-.16-.7-.34-1.03-.54-1.35-.79,1.71,1.48.55.43-.52-.47-1.3-1.66.35.6-.32-.43-.55-.92-.77-1.4.3.71.59,1.4.89,2.1-.15-.39-.27-.77-.38-1.17-2.05,3.62-4.1,7.22-6.15,10.84,0,0,.01,0,.01,0,4.88-1.25,7.11-6.21,6.15-10.84-.06-.27-.11-.54-.14-.82.1.78.21,1.56.32,2.34-.07-.68-.06-1.33.02-2-.1.78-.21,1.56-.32,2.34.12-.65.29-1.26.53-1.88-.29.7-.59,1.4-.88,2.1.16-.35.34-.69.54-1.03.79-1.35-1.48,1.72-.43.55.47-.51,1.66-1.29-.59.36.43-.32.91-.54,1.4-.76-.7.29-1.4.59-2.1.89.58-.22,1.13-.37,1.74-.49-.78.11-1.56.21-2.34.32.57-.06,1.1-.09,1.67-.08-2.83-3.71-5.66-7.43-8.5-11.15-.19.72-.39,1.44-.58,2.16,2.83-2.16,5.66-4.32,8.49-6.47-3.89.2-8.05,1.63-10.52,4.83-1.45,1.87-2.6,3.6-3.17,5.95-.61,2.45-.45,4.57.03,7.02,2.06-3.61,4.1-7.22,6.15-10.84h-.01c-4.68,1.1-7.4,6.35-6.15,10.84,1.74,6.31,7.33,10.48,13.82,10.64,6.32.15,12.82-4.91,13.82-11.23-2.05,2.05-4.11,4.1-6.15,6.15.74-.17,1.48-.35,2.22-.52,4.67-1.1,7.38-6.34,6.15-10.83-1.3-4.76-6.17-7.25-10.84-6.15Z"/>
  </g>
  <g>
    <path class="st20" d="M185.7,233.85s35.27,41.89,19.97,50.93c-15.3,9.03-36.72-30.12-36.72-30.12l16.75-20.81Z"/>
    <path d="M182.58,236.97c.99,1.17,1.94,2.37,2.89,3.59.22.28.44.56.66.84.47.62-.7-.91-.22-.28.12.15.24.32.36.47.57.75,1.14,1.5,1.7,2.25,1.24,1.67,2.47,3.37,3.66,5.08,2.7,3.87,5.26,7.86,7.57,11.98,1.14,2.04,2.21,4.13,3.18,6.26.11.25.22.5.32.74.39.89-.39-.96-.02-.07.2.48.39.96.58,1.45.38,1.01.73,2.03,1.03,3.07.26.89.47,1.78.65,2.7.04.21.08.43.11.65.13.86-.14-1.16-.05-.32.06.47.09.95.1,1.43.01.39,0,.79-.02,1.17,0,.19-.02.38-.04.56-.08.79.18-1.21.06-.44-.06.35-.14.7-.24,1.04-.05.17-.1.33-.16.5-.33.96.42-.9.12-.26-.15.31-.32.59-.51.88-.53.81.8-.88-.05.04-.28.3-1.33,1.13-.03.13-.37.28-.77.52-1.18.74-.2.11-.4.21-.61.3,1.25-.58.54-.23.23-.12-.41.14-.83.25-1.25.33-.84.17,1.17-.13.32-.03-.21.02-.42.03-.63.04-.51.02-1-.02-1.51-.06,1.63.16.06-.02-.35-.11-.44-.1-.88-.24-1.3-.39-.22-.07-.44-.16-.66-.24-.83-.32,1,.44.17.06-.52-.23-1.03-.5-1.53-.78-.91-.51-1.77-1.09-2.62-1.69-.22-.16-.43-.32-.65-.49,1.02.78.24.17.03.02-.51-.41-1-.84-1.49-1.28-1.83-1.61-3.52-3.38-5.14-5.2-.79-.89-1.55-1.8-2.3-2.72-.38-.46-.74-.92-1.1-1.38-.64-.81.6.78-.03-.04-.24-.31-.47-.61-.7-.92-3.35-4.47-6.48-9.18-9.16-14.07-.23,1.78-.46,3.56-.69,5.33,5.58-6.93,11.17-13.87,16.75-20.81,1.51-1.87,1.84-4.39,0-6.23-1.56-1.56-4.72-1.88-6.23,0-5.58,6.93-11.17,13.87-16.75,20.81-1.29,1.6-1.73,3.45-.69,5.34,2.92,5.32,6.35,10.41,10.04,15.22,3.15,4.1,6.48,8.08,10.41,11.45,3.51,3.02,7.71,5.95,12.39,6.7,4.58.72,9.73-.39,12.84-4.09,2.99-3.56,3.4-7.91,2.78-12.37-.61-4.39-2.41-8.6-4.31-12.57-2.06-4.3-4.51-8.4-7.12-12.39-4.08-6.27-8.55-12.37-13.36-18.09-1.55-1.84-4.64-1.59-6.23,0-1.81,1.81-1.54,4.39,0,6.23Z"/>
  </g>
  <g>
    <g>
      <g>
        <polygon class="st17" points="186.58 283.88 186.53 276.99 218.46 276.76 218.51 283.65 217.06 283.66 217.03 278.41 187.96 278.62 187.99 283.88 186.58 283.88"/>
        <path d="M191.72,283.88c-.02-2.29-.03-4.6-.05-6.89-1.71,1.71-3.42,3.43-5.14,5.14,10.65-.08,21.28-.16,31.92-.23-1.71-1.71-3.43-3.43-5.14-5.14.02,2.3.04,4.6.05,6.89,1.71-1.71,3.42-3.42,5.14-5.14-.48,0-.96,0-1.44.01,1.71,1.71,3.43,3.42,5.14,5.14-.01-1.75-.02-3.5-.04-5.25-.02-2.79-2.33-5.16-5.14-5.14-9.69.07-19.39.14-29.07.21-2.78.02-5.16,2.32-5.14,5.14.01,1.75.02,3.5.03,5.25,1.71-1.71,3.43-3.42,5.14-5.14-.47,0-.93,0-1.41,0-2.8.02-5.14,2.33-5.14,5.14s2.34,5.16,5.14,5.14c.47,0,.94,0,1.41-.01,2.79-.02,5.17-2.32,5.14-5.14-.01-1.75-.02-3.5-.04-5.25-1.71,1.71-3.42,3.42-5.14,5.14,9.69-.07,19.38-.14,29.07-.21-1.71-1.71-3.43-3.43-5.14-5.14.02,1.75.02,3.5.04,5.25.02,2.79,2.32,5.16,5.14,5.14.48,0,.96,0,1.44-.01,2.78-.02,5.16-2.32,5.14-5.14-.02-2.3-.04-4.59-.05-6.89-.02-2.79-2.32-5.17-5.14-5.14-10.64.08-21.28.16-31.92.24-2.78.02-5.16,2.32-5.14,5.14.02,2.3.03,4.6.05,6.89.02,2.8,2.32,5.14,5.14,5.14s5.16-2.34,5.14-5.14Z"/>
      </g>
      <polygon class="st16" points="186.58 283.88 186.53 276.99 218.46 276.76 218.51 283.65 217.06 283.66 217.03 278.41 187.96 278.62 187.99 283.88 186.58 283.88"/>
    </g>
    <g>
      <g>
        <path class="st17" d="M177.8,316.94c0,1.59,1.31,2.88,2.9,2.88l43.54-.24c1.6,0,2.88-1.3,2.88-2.9l-.14-25.98c0-1.59-1.3-2.88-2.9-2.87l-43.54.24c-1.59,0-2.88,1.3-2.88,2.9l.14,25.98Z"/>
        <path d="M172.66,316.94c.32,4.43,3.53,8.04,8.16,8.01.77,0,1.54-.01,2.31-.02,3.64-.02,7.26-.04,10.9-.06,8.78-.05,17.56-.09,26.34-.14,3.52-.02,6.64.2,9.55-2.38,3.09-2.75,2.33-7.85,2.3-11.56-.02-4.65-.05-9.3-.08-13.96-.02-3.86.62-8.42-2.15-11.53-2.61-2.93-6.16-2.62-9.63-2.6-3.95.02-7.9.05-11.85.06-8.47.05-16.94.09-25.41.14-.77,0-1.55.01-2.32.02-3.02.01-5.97,1.55-7.34,4.32-1.41,2.84-.91,6.52-.89,9.61.04,6.7.07,13.4.11,20.1.01,2.8,2.33,5.14,5.14,5.14s5.16-2.34,5.14-5.14c-.04-7.33-.08-14.65-.12-21.97,0-1.25-.01-2.49-.02-3.74v-.25c0,.79-.46,1.47-1.13,1.92-.22.15-1.69.31-.83.3,2.56-.02,5.13-.03,7.68-.04,9.11-.05,18.22-.1,27.32-.15,2.62-.02,5.24-.03,7.86-.05h.36c-1.3,0-2.15-1.06-2.23-2.27,0,.07,0,.14,0,.21,0,1.2.02,2.39.02,3.58.05,7.4.08,14.8.12,22.19,0-1.28,1.22-2.22,2.21-2.23-.25,0-.49,0-.74,0-1.14,0-2.29.01-3.43.02-4.06.02-8.11.05-12.17.07-6.31.03-12.61.07-18.91.1-2.11.02-4.23.03-6.34.04-.52,0-1.06,0-1.58,0h-.28c1.22,0,2.12,1.04,2.21,2.27-.2-2.79-2.19-5.14-5.14-5.14-2.65,0-5.35,2.34-5.14,5.14Z"/>
      </g>
      <path class="st26" d="M177.8,316.94c0,1.59,1.31,2.88,2.9,2.88l43.54-.24c1.6,0,2.88-1.3,2.88-2.9l-.14-25.98c0-1.59-1.3-2.88-2.9-2.87l-43.54.24c-1.59,0-2.88,1.3-2.88,2.9l.14,25.98Z"/>
      <path class="st7" d="M225.55,316.66l-.14-26.08c0-1.4-1.01-2.57-2.34-2.83h1c1.6-.01,2.9,1.28,2.9,2.87l.14,25.98c0,1.59-1.28,2.89-2.88,2.91h-.97c1.31-.28,2.29-1.45,2.27-2.85Z"/>
    </g>
    <g>
      <g>
        <path class="st16" d="M199.78,310.7c3.98,4.98,11.24,5.8,16.23,1.83,4.99-3.98,5.81-11.25,1.83-16.23-3.97-4.99-11.24-5.81-16.23-1.84-4.99,3.98-5.81,11.25-1.83,16.23Z"/>
        <path d="M197.7,312.78c4.73,5.72,13.42,6.86,19.46,2.54,6.21-4.43,7.91-13,3.93-19.49-4.03-6.57-12.59-8.49-19.26-5.02-6.91,3.6-9.04,12.13-6.07,18.96.39.87.91,1.66,1.49,2.41.98,1.26,2.5,1.94,4.02,1.05,1.25-.73,2.03-2.74,1.05-4.01-3.04-3.96-2.73-9.05,1.05-12.41,3.63-3.22,9.11-2.16,12.13,1.24,3.22,3.64,2.17,9.1-1.25,12.13-3.78,3.35-9.4,2.06-12.39-1.56-1.02-1.24-3.11-1.05-4.16,0-1.21,1.21-1.02,2.91,0,4.15Z"/>
      </g>
      <g>
        <path d="M201.66,309.2c3.15,3.94,8.9,4.6,12.84,1.45,3.95-3.15,4.6-8.9,1.45-12.85-3.15-3.94-8.9-4.6-12.85-1.45-3.95,3.15-4.59,8.9-1.45,12.85Z"/>
        <path class="st16" d="M201.14,309.72c3.44,4.12,9.47,4.81,13.73,1.56,4.32-3.28,4.95-9.61,1.71-13.85-3.29-4.32-9.6-4.94-13.85-1.71-4.32,3.29-4.95,9.61-1.71,13.86.57.74,1.84,0,1.27-.75-2.78-3.65-2.39-8.58,1.01-11.68,3.46-3.16,8.84-2.45,11.86.86,3.16,3.45,2.45,8.83-.86,11.86-3.58,3.27-9.16,2.37-12.13-1.19-.61-.72-1.64.32-1.04,1.05Z"/>
      </g>
    </g>
    <path d="M220.14,291.13c.01,1.23,1.02,2.22,2.25,2.21s2.22-1.01,2.21-2.24c-.01-1.23-1.02-2.22-2.25-2.21-1.23.01-2.22,1.01-2.21,2.24Z"/>
  </g>
  <g>
    <g>
      <g>
        <path class="st16" d="M53.16,137.7c-1.1,10.05-10.14,17.31-20.19,16.21-10.06-1.1-17.31-10.14-16.22-20.2,1.1-10.05,10.14-17.31,20.19-16.21,10.06,1.1,17.32,10.14,16.22,20.19Z"/>
        <path d="M44.35,137.7c-.02.13-.03.27-.05.41.11-.78.21-1.56.32-2.34-.23,1.61-.65,3.16-1.25,4.66.29-.71.59-1.4.89-2.11-.42.96-.89,1.89-1.45,2.78-.38.59-1.63,2.19.24-.21-.39.51-.83.98-1.28,1.44-.36.37-.74.72-1.13,1.05-.68.57-.38.35.88-.65-.31.24-.63.46-.95.67-.96.65-2,1.17-3.07,1.62.7-.29,1.4-.59,2.1-.88-1.47.59-2.97.99-4.53,1.22.78-.1,1.56-.21,2.34-.32-1.62.2-3.23.2-4.86,0,.78.11,1.56.21,2.34.32-1.61-.23-3.16-.65-4.66-1.26.7.3,1.4.59,2.11.89-.97-.42-1.89-.89-2.78-1.45-.59-.37-2.2-1.63.2.25-.5-.4-.98-.84-1.44-1.28-.37-.36-.71-.74-1.05-1.13-.56-.67-.34-.38.66.88-.24-.31-.46-.62-.67-.95-.65-.96-1.17-2-1.63-3.07.3.7.59,1.4.89,2.1-.59-1.46-.99-2.97-1.22-4.53.11.78.21,1.56.32,2.34-.2-1.62-.2-3.24,0-4.87-.1.78-.21,1.56-.31,2.34.23-1.61.64-3.16,1.25-4.66-.3.7-.59,1.4-.89,2.11.42-.96.9-1.89,1.45-2.78.37-.59,1.63-2.2-.25.2.4-.5.84-.98,1.28-1.44.36-.37.75-.71,1.13-1.05.68-.55.38-.34-.88.66.31-.24.63-.45.95-.67.96-.65,2-1.17,3.07-1.62-.7.29-1.4.59-2.1.89,1.47-.6,2.97-1,4.53-1.22-.78.1-1.56.2-2.34.31,1.63-.2,3.24-.2,4.87,0-.78-.1-1.56-.21-2.34-.31,1.61.22,3.16.64,4.67,1.25-.71-.29-1.4-.59-2.11-.89.96.42,1.88.89,2.78,1.46.59.36,2.2,1.63-.21-.25.51.4.98.84,1.44,1.28.37.36.71.75,1.05,1.13.56.67.34.39-.65-.88.24.31.45.62.67.95.65.96,1.17,2,1.62,3.07-.29-.7-.59-1.4-.88-2.1.59,1.46.99,2.97,1.22,4.53-.1-.78-.21-1.56-.31-2.34.18,1.49.2,2.97.05,4.46-.47,4.79,4.36,8.8,8.81,8.8,2.33,0,4.58-.94,6.23-2.57,1.77-1.78,2.34-3.82,2.58-6.23.81-8.3-2.91-17.27-9.37-22.54-7.21-5.89-16.88-8.26-25.89-5.29-8.7,2.86-15.44,9.87-17.92,18.69-2.56,9.09.18,18.59,6.28,25.57,6.75,7.72,18.5,10.58,28.13,7.41,4.7-1.55,9.16-4.34,12.31-8.19,1.56-1.92,2.97-3.86,3.95-6.14,1.39-3.24,2.08-6.01,2.51-9.52.27-2.18-1.1-4.75-2.58-6.23-1.65-1.64-3.9-2.58-6.23-2.58s-4.58.94-6.23,2.58c-1.8,1.81-2.29,3.79-2.58,6.23Z"/>
      </g>
      <path class="st24" d="M53.16,137.7c-1.1,10.05-10.14,17.31-20.19,16.21-10.06-1.1-17.31-10.14-16.22-20.2,1.1-10.05,10.14-17.31,20.19-16.21,10.06,1.1,17.32,10.14,16.22,20.19Z"/>
      <path class="st20" d="M48.52,136.68c-.8,7.37-7.43,12.69-14.8,11.88-7.37-.81-12.68-7.43-11.88-14.79.8-7.37,7.43-12.69,14.8-11.88,7.37.8,12.68,7.42,11.88,14.79Z"/>
    </g>
    <g>
      <g>
        <path class="st16" d="M264.06,137.7c-1.1,10.05-10.14,17.31-20.19,16.21-10.06-1.1-17.31-10.14-16.22-20.2,1.1-10.05,10.14-17.31,20.19-16.21,10.05,1.1,17.31,10.14,16.22,20.19Z"/>
        <path d="M255.25,137.7c-.02.13-.04.27-.05.41.1-.78.21-1.56.32-2.34-.23,1.61-.65,3.16-1.26,4.66.3-.71.59-1.4.89-2.11-.41.96-.89,1.89-1.45,2.78-.37.59-1.63,2.19.25-.21-.4.51-.84.98-1.28,1.44-.36.37-.74.72-1.13,1.05-.68.57-.38.35.88-.65-.31.24-.62.46-.94.67-.96.65-2.01,1.17-3.07,1.62.7-.29,1.4-.59,2.11-.88-1.47.59-2.97.99-4.54,1.22.78-.1,1.56-.21,2.34-.32-1.62.2-3.24.2-4.87,0,.79.11,1.56.21,2.34.32-1.61-.23-3.16-.65-4.66-1.26.7.3,1.4.59,2.11.89-.96-.42-1.88-.89-2.78-1.45-.59-.37-2.2-1.63.21.25-.51-.4-.98-.84-1.44-1.28-.37-.36-.71-.74-1.05-1.13-.56-.67-.34-.38.65.88-.24-.31-.45-.62-.66-.95-.65-.96-1.18-2-1.63-3.07.29.7.59,1.4.89,2.1-.59-1.46-1-2.97-1.22-4.53.1.78.21,1.56.32,2.34-.21-1.62-.2-3.24-.01-4.87-.1.78-.21,1.56-.31,2.34.23-1.61.64-3.16,1.25-4.66-.29.7-.59,1.4-.89,2.11.42-.96.89-1.89,1.45-2.78.37-.59,1.63-2.2-.25.2.39-.5.84-.98,1.28-1.44.36-.37.74-.71,1.13-1.05.68-.55.39-.34-.88.66.31-.24.63-.45.95-.67.96-.65,2-1.17,3.07-1.62-.7.29-1.4.59-2.1.89,1.47-.6,2.97-1,4.54-1.22-.78.1-1.56.2-2.34.31,1.62-.2,3.23-.2,4.86,0-.78-.1-1.56-.21-2.34-.31,1.6.22,3.15.64,4.66,1.25-.7-.29-1.4-.59-2.11-.89.97.42,1.89.89,2.78,1.46.59.36,2.2,1.63-.21-.25.51.4.98.84,1.44,1.28.36.36.71.75,1.04,1.13.57.67.35.39-.65-.88.23.31.45.62.66.95.65.96,1.17,2,1.63,3.07-.29-.7-.59-1.4-.89-2.1.59,1.46.99,2.97,1.22,4.53-.1-.78-.21-1.56-.32-2.34.18,1.49.2,2.97.06,4.46-.47,4.79,4.36,8.8,8.81,8.8,2.33,0,4.58-.94,6.23-2.57,1.77-1.78,2.34-3.82,2.58-6.23.81-8.3-2.91-17.27-9.37-22.54-7.22-5.89-16.88-8.26-25.89-5.29-8.7,2.86-15.44,9.87-17.93,18.69-2.56,9.09.19,18.59,6.28,25.57,6.75,7.72,18.5,10.58,28.14,7.41,4.69-1.55,9.16-4.34,12.3-8.19,1.57-1.92,2.98-3.86,3.96-6.14,1.39-3.24,2.08-6.01,2.5-9.52.26-2.18-1.1-4.75-2.58-6.23-1.65-1.64-3.9-2.58-6.23-2.58s-4.58.94-6.23,2.58c-1.81,1.81-2.29,3.79-2.58,6.23Z"/>
      </g>
      <path class="st24" d="M264.06,137.7c-1.1,10.05-10.14,17.31-20.19,16.21-10.06-1.1-17.31-10.14-16.22-20.2,1.1-10.05,10.14-17.31,20.19-16.21,10.05,1.1,17.31,10.14,16.22,20.19Z"/>
      <path class="st20" d="M259.41,136.68c-.8,7.37-7.42,12.69-14.79,11.88-7.37-.81-12.69-7.43-11.89-14.79.81-7.37,7.43-12.69,14.8-11.88,7.37.8,12.69,7.42,11.88,14.79Z"/>
    </g>
  </g>
  <g>
    <path class="st20" d="M92.21,233.85s-35.27,41.89-19.97,50.93c15.31,9.03,36.73-30.12,36.73-30.12l-16.76-20.81Z"/>
    <path d="M89.1,230.74c-3.59,4.26-6.93,8.74-10.13,13.29-5.42,7.73-10.66,16.02-13.57,25.06-1.25,3.9-1.95,8.22-.9,12.24,1.14,4.38,4.75,7.54,9.03,8.72,9.76,2.71,18.9-5.82,24.77-12.48,5.53-6.28,10.45-13.35,14.47-20.7,1.04-1.89.6-3.74-.68-5.34-5.59-6.93-11.18-13.87-16.76-20.81-1.51-1.88-4.67-1.56-6.23,0-1.84,1.84-1.51,4.36,0,6.23,5.58,6.94,11.17,13.87,16.75,20.81-.22-1.77-.46-3.56-.69-5.33-2.92,5.32-6.35,10.41-10.04,15.22.8-1.04-.38.47-.58.72-.37.47-.75.92-1.13,1.38-.83.99-1.67,1.96-2.55,2.91-1.63,1.78-3.36,3.47-5.21,5.02-.22.17-.43.35-.65.53-.77.61.8-.61.03-.02-.43.32-.87.63-1.3.92-.91.62-1.86,1.17-2.85,1.66-.22.11-.44.21-.66.31,1.25-.57.46-.2.18-.09-.43.17-.87.3-1.31.43-.43.12-.87.21-1.3.29-.85.16,1.15-.13.3-.04-.28.02-.57.04-.86.04-.42.01-.85-.02-1.28-.07,1.63.18.1-.03-.3-.14-.21-.06-.42-.13-.62-.2-.81-.29,1.02.46.23.1-.45-.21-.87-.46-1.29-.73-.85-.56.85.77-.08-.1-.31-.28-1.11-1.33-.11-.01-.21-.27-.38-.57-.55-.86-.62-1.11.32,1-.1-.2-.11-.34-.2-.68-.27-1.03-.28-1.3.07.96-.03-.1-.08-.86-.05-1.71.02-2.57.02-.21.05-.42.07-.63-.18,1.5-.09.65-.03.32.07-.44.16-.88.25-1.32.22-1,.51-2,.82-2.98.31-.97.67-1.93,1.05-2.88.1-.25.2-.49.31-.73-.51,1.22-.13.32-.02.07.25-.58.53-1.16.8-1.74,1.01-2.14,2.14-4.22,3.31-6.28,2.33-4.06,4.91-7.98,7.62-11.81,1.08-1.54,2.18-3.05,3.31-4.54.51-.68,1.02-1.36,1.54-2.03.65-.84-.68.88.13-.15.21-.28.43-.55.64-.83.88-1.11,1.76-2.23,2.68-3.31,1.55-1.83,1.8-4.42,0-6.23-1.59-1.59-4.68-1.84-6.23,0Z"/>
  </g>
  <g>
    <path class="st1" d="M214.95,330.25c0,2.2-33.37,3.98-74.54,3.98s-74.54-1.78-74.54-3.98,33.37-3.99,74.54-3.99,74.54,1.79,74.54,3.99Z"/>
    <path d="M140.41,334.67c-19.92,0-38.66-.42-52.74-1.17-22.25-1.19-22.25-2.58-22.25-3.25s0-2.07,22.25-3.26c14.09-.76,32.82-1.17,52.74-1.17s38.64.42,52.73,1.17c22.25,1.19,22.25,2.59,22.25,3.26s0,2.07-22.25,3.25c-14.08.75-32.81,1.17-52.73,1.17ZM66.39,330.25c2.43,1.73,32.21,3.54,74.02,3.54s71.58-1.81,74.01-3.54c-2.43-1.73-32.2-3.55-74.01-3.55s-71.59,1.81-74.02,3.55Z"/>
  </g>
  <g>
    <path class="st1" d="M103.35,242.74s-14.11,78.1-4.51,81.46c9.6,3.36,18.49-11.94,18.49-11.94,0,0,7.65,2.34,20.84,2.57,13.18.24,23.8-2.72,23.8-2.72,0,0,9.83,17.01,20.45,13.5,10.61-3.52-6.25-83.06-6.25-83.06l-72.81.2Z"/>
    <path d="M99.11,241.57c-2.37,13.08-4.3,26.27-5.88,39.46-1.1,9.2-2.05,18.47-2.14,27.74-.04,3.69.13,7.38.72,11.03.41,2.49,1.24,5.44,3.24,7.13,5.47,4.64,13.25,1.17,17.99-2.73,3.19-2.64,5.99-6.15,8.08-9.72-1.66.68-3.32,1.35-4.98,2.03,1.83.55,3.74.9,5.63,1.22,5.4.94,10.89,1.4,16.38,1.51,8.26.17,16.97-.67,24.97-2.88-1.66-.68-3.31-1.35-4.97-2.03,1.75,3.03,4,5.86,6.38,8.4,4.01,4.25,9.6,8.14,15.71,7.72,2.32-.15,4.62-.73,6.3-2.4,1.15-1.13,1.79-2.54,2.35-4.02,1.08-2.86,1.24-6.15,1.36-9.18.33-8.65-.69-17.38-1.78-25.94-1.22-9.7-2.77-19.36-4.5-28.97-1.11-6.2-2.28-12.39-3.58-18.56-.4-1.89-2.37-3.24-4.25-3.23-13.5.04-27,.07-40.5.11-10.77.03-21.54.06-32.3.09-5.68.01-5.68,8.83,0,8.81,13.51-.03,27-.07,40.51-.11,10.77-.03,21.53-.06,32.3-.09-1.41-1.08-2.83-2.15-4.24-3.23,2.66,12.54,4.9,25.19,6.77,37.87.17,1.17.34,2.34.5,3.52.08.58.16,1.17.24,1.76-.18-1.3-.04-.27,0,0,.05.39.1.78.15,1.17.31,2.41.6,4.81.85,7.21.47,4.42.85,8.86,1.01,13.3.07,1.89.09,3.78.04,5.68-.02.8-.06,1.61-.12,2.41-.02.37-.05.75-.09,1.12-.04.43-.25,2.04,0,.22-.16,1.21-.4,2.43-.81,3.59-.36,1.01.48-1.04.13-.28-.09.2-.2.39-.3.58-.22.37-.82,1.08.29-.32-.13.16-.28.31-.44.45-.27.23,1.21-.8.42-.36-.32.18-.91.33.76-.31-.32.13-.66.2-1,.28-.27.06-1.3.16-.05.03-.4.04-.81.04-1.21.02-.27,0-1.29-.16-.03.04-.39-.06-.79-.16-1.17-.27-.29-.08-.58-.17-.87-.27-1-.35.89.41-.08-.03-.67-.3-1.3-.66-1.92-1.05-.27-.17-.53-.34-.79-.53-.17-.12-.35-.24-.52-.37.47.37.51.4.13.1-.58-.46-1.14-.96-1.68-1.47-.98-.91-1.88-1.89-2.74-2.9-.43-.5-.84-1.01-1.24-1.52.88,1.12-.28-.4-.5-.7-.66-.91-1.3-1.85-1.86-2.83-.99-1.7-3.08-2.54-4.98-2.03-2.16.61-4.38,1.02-6.59,1.39-.5.09-1,.17-1.51.25-.16.02-1.78.25-.88.13-1.37.19-2.75.33-4.12.46-2.98.27-5.97.38-8.96.35-2.94-.02-5.88-.19-8.81-.46-1.14-.1-2.28-.22-3.41-.37,1.05.13-.52-.07-.71-.1-.56-.08-1.11-.17-1.67-.27-1.88-.32-3.79-.67-5.63-1.22-1.88-.58-3.99.35-4.97,2.02-.54.92-1.15,1.79-1.77,2.66-.14.19-.29.38-.43.57-.55.75.65-.82.06-.07-.35.44-.71.87-1.07,1.3-.87,1.01-1.79,1.96-2.78,2.85-.24.22-1.78,1.44-.83.73-.51.38-1.03.72-1.58,1.05-.29.18-2.06,1.02-.89.53-.65.28-1.33.47-2.03.61-1.03.22,1.03-.09-.02,0-.29.02-.6.02-.9.01-.28-.01-1.27-.2-.05,0-.32-.05-.62-.14-.92-.23-1.22-.35,1.09.6.33.14-.57-.34,1.08.98.39.28-.62-.63.73,1.03.29.4-.12-.17-.21-.34-.31-.52-.5-.93.25.67.12.34-.11-.27-.2-.54-.29-.82-.17-.54-.29-1.09-.41-1.65-.06-.31-.12-.62-.17-.94-.03-.17-.05-.33-.08-.49-.1-.71.17,1.36.05.31-.43-3.57-.4-7.2-.31-10.79.25-9.44,1.29-18.87,2.45-28.23.14-1.16.29-2.33.44-3.49.08-.57.16-1.15.23-1.72-.18,1.32-.04.3,0,.03.05-.38.1-.76.16-1.13.31-2.27.63-4.54.97-6.81.57-3.88,1.17-7.75,1.8-11.62.51-3.16,1.04-6.3,1.61-9.45.42-2.36-.61-4.74-3.08-5.42-2.15-.59-4.99.71-5.41,3.08Z"/>
  </g>
  <g>
    <g>
      <polygon class="st19" points="174.29 241.8 140.85 241.8 140.56 241.8 107.11 241.8 92.62 289.47 140.56 289.47 140.85 289.47 188.79 289.47 174.29 241.8"/>
      <path d="M174.29,232.99h-67.18c-4,0-7.35,2.71-8.5,6.46-4.25,13.99-8.51,27.99-12.76,41.97-.58,1.9-1.15,3.8-1.73,5.7-1.67,5.51,2.89,11.15,8.5,11.15h96.17c5.61,0,10.17-5.64,8.5-11.15-4.25-13.99-8.51-27.98-12.77-41.97-.57-1.9-1.15-3.79-1.73-5.7-1.4-4.59-6.12-7.45-10.84-6.15-4.54,1.25-7.55,6.24-6.15,10.83,4.25,13.99,8.51,27.98,12.76,41.97.57,1.9,1.15,3.8,1.73,5.7,2.83-3.72,5.66-7.44,8.49-11.15h-96.17c2.83,3.71,5.66,7.43,8.49,11.15,4.25-13.99,8.51-27.98,12.76-41.97.58-1.89,1.16-3.8,1.73-5.69-2.84,2.15-5.66,4.31-8.49,6.47h67.18c4.8,0,8.81-4.01,8.81-8.81s-4.01-8.81-8.81-8.81Z"/>
    </g>
    <polygon class="st16" points="174.29 241.8 140.85 241.8 140.56 241.8 107.11 241.8 92.62 289.47 140.56 289.47 140.85 289.47 188.79 289.47 174.29 241.8"/>
  </g>
  <g>
    <rect x="100.45" y="298.59" width="80.28" height="5.59"/>
    <path d="M180.88,304.33h-80.58v-5.89h80.58v5.89ZM100.6,304.04h79.99v-5.3h-79.99v5.3Z"/>
  </g>
  <polygon class="st10" points="106.5 243.69 92.62 289.47 130.41 289.47 99.55 284.95 106.5 243.69"/>
  <polygon class="st10" points="174.9 243.69 188.78 289.47 150.99 289.47 181.85 284.95 174.9 243.69"/>
  <g>
    <path class="st11" d="M160.56,235.67c0,11.13-9.02,20.15-20.15,20.15s-20.16-9.02-20.16-20.15,9.02-20.15,20.16-20.15,20.15,9.02,20.15,20.15Z"/>
    <path d="M156.89,235.67c-.06,5.89-3.11,11.21-8.16,14.24-5.1,3.05-11.53,2.92-16.64,0-5.08-2.92-8.1-8.43-8.16-14.24-.06-5.86,3.18-11.25,8.16-14.23,5.1-3.05,11.53-2.92,16.64,0,5.08,2.91,8.1,8.43,8.16,14.23.05,4.73,7.39,4.73,7.34,0-.08-7.12-3.24-14.03-8.84-18.49-5.88-4.68-13.43-6.34-20.75-4.63-6.78,1.58-12.73,6.54-15.7,12.8-3.24,6.81-3.01,14.61.34,21.33,4.9,9.8,16.42,14.55,26.88,12.11,10.58-2.46,17.96-12.44,18.07-23.12.05-4.74-7.3-4.73-7.34,0Z"/>
  </g>
  <g>
    <g>
      <path class="st19" d="M240.5,103.47s-3.8-43.82-21.05-46.45c-10.84-1.66-44.93,6.42-79.03,6.44h-.05c-34.1-.02-68.2-8.1-79.03-6.44-17.24,2.62-21.05,46.45-21.05,46.45l-4.35,2.77c.04,25.44.14,50.06.14,50.06,0,40.12,22.48,77.3,106.25,76.96,82.91-.35,102.54-36.84,102.54-76.96v-50.05l-4.38-2.78Z"/>
      <path d="M250.77,103.47c-.55-6.38-1.59-12.77-2.96-19.02-2.31-10.56-5.88-21.29-12.94-29.65-1.73-2.05-3.93-3.82-6.22-5.2-3.14-1.88-6.21-2.5-9.77-2.93-4.75-.58-9.75.16-14.47.69-16.26,1.82-32.4,4.33-48.74,5.33-18.14,1.11-36.2-.07-54.23-2.19-7.6-.9-15.18-1.96-22.78-2.87-5.12-.62-10.36-1.33-15.53-1.06-6.3.32-11.79,2.67-16.26,7.18-4.3,4.33-6.88,9.7-9.21,15.24-3.46,8.21-5.3,17.13-6.58,25.92-.41,2.85-.83,5.71-1.07,8.57,1.7-2.96,3.39-5.92,5.09-8.87-1.43.91-2.86,1.82-4.29,2.72-3.12,1.99-5.17,5.14-5.16,8.92v3.52c0,2.51.01,5.01.02,7.51.02,8.41.05,16.82.08,25.23.03,7.85-.25,15.79.53,23.61.99,10.01,3.31,19.37,7.47,28.54,3.82,8.42,9.62,16.13,16.47,22.31,19.43,17.52,45.9,23.7,71.3,25.82,16.13,1.35,32.58,1.1,48.64-.95,14.05-1.79,27.55-4.92,40.5-10.75,9.28-4.17,18.01-10.2,24.88-17.73,6.73-7.38,11.58-15.94,14.85-25.34,4.9-14.05,4.75-28.89,4.75-43.55v-38.19c0-4.32-2.61-7.3-6.02-9.46-.96-.61-1.93-1.23-2.9-1.84-.18-.12-.37-.24-.55-.35-4.73-3.01-11.31-1-14.06,3.68-2.91,4.98-1.03,11.06,3.69,14.06,1.46.93,2.92,1.86,4.38,2.79-1.7-2.96-3.39-5.92-5.09-8.88v43.91c0,6.69,0,13.35-.88,19.99.13-.91.25-1.82.37-2.73-.89,6.59-2.5,13.07-5.09,19.21.35-.82.69-1.63,1.04-2.45-2,4.7-4.57,9.14-7.69,13.19.54-.69,1.07-1.38,1.61-2.08-3.18,4.09-6.88,7.72-10.97,10.89.69-.54,1.39-1.07,2.08-1.6-5.16,3.95-10.86,7.12-16.84,9.65.82-.35,1.63-.69,2.45-1.03-10.32,4.33-21.31,6.83-32.38,8.32.91-.12,1.82-.24,2.74-.37-19.55,2.59-39.77,2.61-59.32,0,.91.12,1.82.25,2.74.37-11.23-1.53-22.39-4.09-32.86-8.5.82.34,1.64.69,2.46,1.03-6.24-2.65-12.18-5.96-17.56-10.09.7.53,1.39,1.07,2.08,1.61-4.29-3.32-8.17-7.13-11.48-11.42.53.69,1.07,1.39,1.61,2.08-3.2-4.17-5.83-8.72-7.89-13.56.34.82.69,1.64,1.03,2.46-2.53-6.01-4.15-12.34-5.02-18.8.12.91.24,1.82.36,2.74-.83-6.25-.83-12.5-.85-18.79-.06-14.69-.1-29.37-.12-44.06-1.7,2.96-3.39,5.92-5.09,8.87,1.14-.73,2.29-1.45,3.44-2.18,1.8-1.15,3.49-2.36,4.61-4.27,1.06-1.81,1.22-3.29,1.41-5.33.13-1.46.32-2.94.51-4.4-.12.91-.24,1.82-.36,2.73,1.26-9.33,3.19-18.78,6.86-27.48-.34.81-.69,1.63-1.03,2.45,1.27-2.97,2.77-5.85,4.72-8.43-.54.69-1.07,1.38-1.61,2.08,1.02-1.31,2.15-2.52,3.45-3.54-.69.54-1.39,1.07-2.08,1.61.87-.66,1.8-1.24,2.81-1.68-.82.35-1.63.69-2.45,1.04.92-.39,1.87-.66,2.86-.8-.91.13-1.82.24-2.73.37,4.63-.62,9.49.06,14.1.56,7.29.8,14.55,1.82,21.82,2.73,17.84,2.22,35.75,3.71,53.75,2.92,13.94-.61,27.8-2.34,41.62-4.13,5.29-.69,10.58-1.39,15.89-1.88,3.48-.33,7.08-.66,10.56-.2-.91-.13-1.82-.24-2.73-.37.99.14,1.94.41,2.86.8-.82-.35-1.63-.69-2.45-1.04,1,.44,1.93,1.02,2.81,1.68-.69-.54-1.39-1.07-2.08-1.61,1.3,1.03,2.43,2.23,3.45,3.54-.54-.69-1.07-1.39-1.61-2.08,1.96,2.57,3.45,5.46,4.72,8.43-.35-.82-.69-1.64-1.04-2.45,3.67,8.7,5.61,18.15,6.87,27.48-.13-.91-.25-1.82-.37-2.73.2,1.51.39,3.03.53,4.54.24,2.81.95,5.21,3.01,7.27,1.92,1.92,4.55,3.01,7.27,3.01,5.24,0,10.76-4.69,10.28-10.28Z"/>
    </g>
    <path class="st20" d="M240.5,103.47s-3.8-43.82-21.05-46.45c-10.84-1.66-44.93,6.42-79.03,6.44h-.05c-34.1-.02-68.2-8.1-79.03-6.44-17.24,2.62-21.05,46.45-21.05,46.45l-4.35,2.77c.04,25.44.14,50.06.14,50.06,0,40.12,22.48,77.3,106.25,76.96,82.91-.35,102.54-36.84,102.54-76.96v-50.05l-4.38-2.78Z"/>
  </g>
  <g>
    <path d="M79.8,313.17c-.7,1.3-2.34,1.78-3.64,1.07h0c-1.3-.71-1.78-2.34-1.07-3.64l9.42-17.27c.71-1.3,2.34-1.78,3.64-1.07h0c1.29.7,1.77,2.34,1.06,3.64l-9.42,17.26Z"/>
    <g>
      <g>
        <g>
          <path class="st17" d="M83.01,301.72c-1.93-1.05-2.46-2.52-2.6-3.07l-.99,2.61s.2,1.7,2.29,2.85c2.09,1.14,3.64.39,3.64.39l1.66-2.24c-.54.18-2.07.52-4-.53Z"/>
          <path d="M83.75,300.45c-.88-.52-1.65-1.18-1.93-2.2-.42-1.49-2.34-1.3-2.83,0-.39,1.03-1.15,2.28-.98,3.39.24,1.63,1.63,2.92,2.96,3.72,1.51.91,3.5,1.11,5.12.39.87-.39,1.64-2.03,2.19-2.77.79-1.06-.51-2.51-1.66-2.15-.99.3-1.95.07-2.87-.39-1.69-.84-3.18,1.69-1.48,2.53,1.6.8,3.37,1.22,5.13.68-.55-.72-1.11-1.44-1.66-2.16-.5.67-1,1.35-1.5,2.02-.38.51-.07-.13.6-.4-.17.06-.35.1-.53.14-.79.17-1.65-.29-2.29-.68-.48-.29-.92-.82-1.11-1.35-.3-.85-.23.8.02.14.29-.78.59-1.56.88-2.34h-2.83c.49,1.75,1.76,3.04,3.29,3.95,1.63.97,3.11-1.56,1.48-2.53Z"/>
        </g>
        <path class="st18" d="M83.01,301.72c-1.93-1.05-2.46-2.52-2.6-3.07l-.99,2.61s.2,1.7,2.29,2.85c2.09,1.14,3.64.39,3.64.39l1.66-2.24c-.54.18-2.07.52-4-.53Z"/>
        <path class="st4" d="M79.9,302.36l.98-2.6c-.29-.47-.43-.88-.49-1.12l-.98,2.61s.06.57.51,1.26c-.02-.11-.03-.16-.03-.16Z"/>
        <path class="st2" d="M84.15,304.67l1.65-2.22c.55-.01.97-.12,1.2-.2l-1.66,2.24s-.51.25-1.34.25c.1-.04.15-.07.15-.07Z"/>
      </g>
      <g>
        <g>
          <path class="st17" d="M126.78,256.06c-4.38,8.02-14.43,10.98-22.46,6.6-8.02-4.38-10.98-14.43-6.6-22.46,4.38-8.02,14.43-10.97,22.46-6.6,8.03,4.38,10.98,14.43,6.6,22.46Z"/>
          <path d="M119.8,251.98c-.34.61-2.04,2.98-.31.75-.49.62-1.05,1.2-1.62,1.75-.28.28-.58.53-.88.78,1.93-1.62.88-.68.38-.34-.75.51-1.55.93-2.37,1.32,2.6-1.22.12-.12-.61.09-.74.21-3.52.54-.51.2-.77.09-1.55.09-2.32.07-.39-.01-.78-.05-1.17-.09,2.82.28.89.1.21-.05-.78-.17-1.54-.43-2.29-.72,2.63,1.01,0-.09-.65-.47-.35-.21-.69-.45-1.02-.68,2.03,1.42.84.66.38.27-.7-.6-1.33-1.28-1.92-1.99,1.79,2.16.1.04-.27-.61-.2-.33-.37-.68-.54-1.03-.68-1.36.76,1.93.21.51-.28-.71-.48-1.47-.65-2.21-.09-.38-.15-.76-.21-1.14.45,2.83.14.91.12.22-.03-.78.02-1.56.09-2.33-.3,2.98.04.2.25-.56.1-.39.24-.77.38-1.14.53-1.48-.85,1.87-.18.43.41-.87.92-1.69,1.47-2.47-1.58,2.26.03.04.55-.49.28-.28.57-.54.87-.8,1.15-1.01-1.63,1.2-.4.31.62-.46,1.3-.84,1.99-1.2.53-.28,1.92-.82-.53.18.48-.2.97-.35,1.46-.5.74-.22,1.5-.38,2.26-.5-2.98.47-.23.1.55.12.39,0,.78.03,1.16.06,1.56.12-2.13-.34-.59-.07.92.16,1.81.43,2.69.74,1.47.52-1.87-.85-.43-.18.38.17.73.38,1.1.58.36.2.7.43,1.04.66,1.3.86-1.55-1.28-.35-.3.62.5,1.17,1.07,1.71,1.65.39.43,1.28,1.64-.27-.42.31.42.58.85.86,1.29.33.55.62,1.12.89,1.71-1.19-2.55-.22-.44,0,.24.18.62.32,1.25.43,1.88.13.84.09.51-.13-1,.04.39.06.77.07,1.16.03.65,0,1.3-.06,1.94-.09.85-.04.52.14-.98-.06.39-.14.78-.23,1.16-.14.65-.35,1.29-.57,1.92-.3.77-.18.5.35-.8-.17.38-.36.74-.55,1.1-2.06,3.89-1.01,8.76,2.9,11.05,3.68,2.15,8.99.99,11.05-2.9,4.2-7.92,4.19-17.65-.76-25.27-4.84-7.44-13.82-12.24-22.77-11.23-4.37.5-8.64,1.77-12.19,4.45-1.75,1.32-3.35,2.62-4.69,4.35-1.89,2.44-3.1,4.62-4.27,7.48-1.71,4.17-1.62,8.79-.92,13.16.7,4.34,3.04,8.21,5.81,11.53,4.73,5.67,13.03,8.86,20.33,8.04,8.16-.92,15.39-5.23,19.47-12.5,2.15-3.84.95-8.79-2.9-11.05-3.75-2.19-8.9-.93-11.05,2.9Z"/>
        </g>
        <path class="st3" d="M126.78,256.06c-4.38,8.02-14.43,10.98-22.46,6.6-8.02-4.38-10.98-14.43-6.6-22.46,4.38-8.02,14.43-10.97,22.46-6.6,8.03,4.38,10.98,14.43,6.6,22.46Z"/>
        <path class="st8" d="M98.72,240.75c4.29-7.86,14.02-10.85,21.96-6.86-.17-.1-.33-.19-.5-.28-8.02-4.38-18.08-1.42-22.46,6.6-4.38,8.02-1.43,18.08,6.6,22.46.17.1.33.18.5.27-7.65-4.51-10.4-14.32-6.11-22.17Z"/>
      </g>
      <g>
        <path class="st16" d="M125.35,241.56c1.11,2.14,1.41,4.19.66,4.58-.75.39-2.26-1.02-3.38-3.16-1.11-2.13-1.41-4.19-.66-4.58.75-.39,2.26,1.02,3.38,3.16Z"/>
        <path class="st16" d="M126.96,248.76c-.24.46-.8.64-1.25.4-.46-.23-.64-.79-.4-1.24.23-.46.79-.64,1.25-.41.46.24.63.79.4,1.25Z"/>
      </g>
      <g>
        <path class="st17" d="M114.19,266.79s-5.11-1.07-10.07-3.77c-4.95-2.71-8.62-6.43-8.62-6.43l-14.96,39.68s.28,2.41,3.24,4.02c2.95,1.61,5.13.55,5.13.55l25.28-34.05Z"/>
        <path d="M116.34,259c-1.07-.22-2.12-.54-3.18-.87-1.01-.32-2.01-.69-2.99-1.07,2.31.91-.02-.03-.49-.25-.66-.32-1.3-.66-1.94-1.02-1.03-.57-2.01-1.22-2.98-1.89-.47-.32-2.28-1.71-.17-.08-.41-.32-.81-.65-1.2-.97-.76-.62-1.49-1.28-2.18-1.97-2.03-2.05-5.09-2.84-7.86-2.08-2.91.8-4.62,2.94-5.63,5.64-4.91,13-9.81,26-14.71,38.99-.67,1.78-.69,3.72-.12,5.55,1.86,5.94,7.45,9.77,13.53,10.24,2.4.19,4.35-.47,6.49-1.37,1.41-.6,2.23-1.93,3.1-3.11.51-.69,1.03-1.38,1.54-2.07,5.11-6.89,10.23-13.78,15.34-20.67,2.76-3.71,5.51-7.42,8.27-11.14,2.63-3.54.59-9-2.9-11.05-1.87-1.1-4.13-1.39-6.22-.81-2.2.61-3.52,1.95-4.83,3.71-8.28,11.15-16.56,22.31-24.84,33.46-.15.2-.29.4-.44.6.96-.96,1.93-1.93,2.9-2.9-.67.31,2.55-1.01,1.62-.69-.68.23-1.93.2.99-.08-.22.02-.44.02-.66.01,1.52.25,1.84.29.97.12-.78-.24-.59-.13.58.33-.32-.14-.62-.3-.91-.49-.72-.48-.52-.33.59.47-.18-.17-.36-.35-.53-.54,1.64,1.77.79,1.07.42.36,1.34,2.57.54,1.56.43.76v4.29c4.9-12.99,9.8-26,14.7-38.99.09-.23.17-.46.26-.69-4.5,1.19-9,2.38-13.5,3.56,5.93,5.99,14,10.52,22.25,12.28,4.3.91,8.72-1.21,9.93-5.64,1.11-4.05-1.33-9.02-5.64-9.94Z"/>
      </g>
      <path class="st3" d="M114.19,266.79s-5.11-1.07-10.07-3.77c-4.95-2.71-8.62-6.43-8.62-6.43l-14.96,39.68s.28,2.41,3.24,4.02c2.95,1.61,5.13.55,5.13.55l25.28-34.05Z"/>
      <g>
        <g>
          <path class="st17" d="M98.69,275.78c-.36.65-1.17.89-1.82.53h0c-.65-.35-.88-1.17-.53-1.81l1.8-3.3c.36-.65,1.17-.89,1.82-.54h0c.65.36.89,1.17.54,1.82l-1.8,3.29Z"/>
          <path d="M97.42,275.04c.16-.22.08.4.31-.03.2-.38.41-.75.61-1.13.36-.65.71-1.29,1.06-1.95-.1.19-.09-.35-.31.03-.2.38-.41.76-.61,1.13-.35.64-.71,1.29-1.06,1.94-.91,1.66,1.63,3.15,2.53,1.48.6-1.1,1.2-2.2,1.8-3.3.78-1.44.2-2.94-1.06-3.83-1.33-.94-3.02-.09-3.83,1.06-.71,1-1.21,2.22-1.8,3.29-.79,1.44-.19,2.95,1.06,3.83,1.33.94,3.02.07,3.83-1.06,1.09-1.55-1.45-3.02-2.53-1.48Z"/>
        </g>
        <path class="st25" d="M98.69,275.78c-.36.65-1.17.89-1.82.53h0c-.65-.35-.88-1.17-.53-1.81l1.8-3.3c.36-.65,1.17-.89,1.82-.54h0c.65.36.89,1.17.54,1.82l-1.8,3.29Z"/>
        <path class="st22" d="M96.58,274.64l1.8-3.29c.33-.61,1.07-.86,1.69-.6-.04-.02-.08-.04-.12-.07-.65-.35-1.46-.12-1.82.54l-1.8,3.3c-.35.65-.12,1.46.53,1.81.05.03.09.04.13.06-.55-.38-.74-1.13-.41-1.74Z"/>
      </g>
      <g>
        <g>
          <path class="st17" d="M98.77,275.63c-.36.65-1.17.89-1.82.53-.65-.35-.89-1.17-.53-1.81.35-.65,1.17-.89,1.81-.53.65.35.89,1.17.54,1.81Z"/>
          <path d="M98.13,275.26c-.4.66-1.43.17-1.08-.54.33-.71,1.42-.17,1.08.54-.42.85.85,1.59,1.27.74.5-1.04.2-2.21-.8-2.82-.99-.61-2.25-.14-2.82.79-.61.99-.14,2.26.8,2.82.99.6,2.25.14,2.82-.8.49-.81-.78-1.55-1.27-.74Z"/>
        </g>
        <path class="st25" d="M98.77,275.63c-.36.65-1.17.89-1.82.53-.65-.35-.89-1.17-.53-1.81.35-.65,1.17-.89,1.81-.53.65.35.89,1.17.54,1.81Z"/>
      </g>
      <path class="st22" d="M96.66,274.49c.33-.61,1.07-.86,1.69-.6-.04-.02-.08-.04-.12-.07-.65-.35-1.46-.12-1.81.53-.35.65-.12,1.46.54,1.82.03.02.08.04.12.06-.55-.38-.74-1.14-.41-1.74Z"/>
      <rect class="st9" x="102.96" y="255.37" width="1.39" height="18.53" transform="translate(-178.29 228.79) rotate(-61.37)"/>
      <path class="st21" d="M96.69,257.7c-.76-.67-1.18-1.11-1.18-1.11l-14.96,39.69s.1.9.86,1.96l15.29-40.54Z"/>
      <path class="st0" d="M112.62,266.4c.98.27,1.57.4,1.57.4l-25.27,34.05s-.82.4-2.12.34l25.83-34.79Z"/>
      <g>
        <g>
          <path class="st17" d="M116.12,265.21l-18.33-10-.98-.53-1.02-.57c-.9-.48-1.92-.35-2.28.32-.36.66.07,1.59.98,2.09l1.43.78.56.3,18.33,10c.89.49,1.92.35,2.28-.31.36-.66-.08-1.59-.97-2.08Z"/>
          <path d="M118.72,260.77c-6.04-3.3-12.08-6.59-18.11-9.88-.38-.2-.75-.41-1.12-.61-2.04-1.11-3.85-1.73-6.22-1.41-3.53.48-5.54,4.27-4.83,7.54.5,2.34,2.28,3.9,4.29,5,2.47,1.35,4.94,2.7,7.41,4.04,3.46,1.89,6.93,3.79,10.4,5.67,1.18.64,2.37,1.38,3.69,1.7,3.34.82,6.66-.94,7.82-4.17,1.13-3.16-.78-6.19-3.33-7.88-2.34-1.55-5.68-.47-7.04,1.84-1.47,2.52-.49,5.48,1.85,7.03-1.48-1.1-1.84-2.67-1.07-4.69.61-.62,1.23-1.23,1.84-1.85,1.14-.81,4.37.75,2.36-.35-.85-.47-1.71-.94-2.56-1.4-2.5-1.36-5.01-2.73-7.52-4.1-2.13-1.16-4.26-2.33-6.4-3.49-.36-.2-.73-.4-1.1-.61-.31-.17-.62-.34-.93-.51-.29-.16-.59-.32-.88-.48-.06-.04-.12-.07-.18-.1,1.48,1.1,1.83,2.67,1.07,4.69-.62.62-1.23,1.23-1.85,1.85-.72.51-3.43-.24-3.03-.02.29.16.58.32.87.48.35.19.7.38,1.05.58.37.2.74.4,1.11.6,2.04,1.12,4.09,2.24,6.14,3.36,3.69,2.02,7.39,4.02,11.08,6.04,2.46,1.34,5.58.62,7.03-1.85,1.38-2.36.61-5.69-1.84-7.03Z"/>
        </g>
        <path class="st3" d="M116.12,265.21l-18.33-10-.98-.53-1.02-.57c-.9-.48-1.92-.35-2.28.32-.36.66.07,1.59.98,2.09l1.43.78.56.3,18.33,10c.89.49,1.92.35,2.28-.31.36-.66-.08-1.59-.97-2.08Z"/>
        <path class="st21" d="M95.5,254.66l1.02.56.97.53,18.33,10.01c.77.41,1.2,1.17,1.07,1.79.08-.08.14-.16.2-.25.36-.66-.08-1.59-.98-2.08l-18.32-10-.98-.53-1.03-.56c-.9-.49-1.92-.35-2.27.31-.05.09-.09.19-.11.29.46-.44,1.32-.48,2.09-.06Z"/>
      </g>
      <polygon class="st12" points="110.54 269.18 111.88 269.91 112.71 268.78 111.39 268.05 110.54 269.18"/>
      <polygon class="st8" points="94.63 258.91 95.96 259.64 95.47 260.96 94.14 260.23 94.63 258.91"/>
    </g>
  </g>
  <g>
    <path class="st20" d="M71.96,266.65c11.59-19.38,32.05.12,23.52,12.93-8.53,12.81-36.71,9.14-23.52-12.93"/>
    <path d="M75.77,268.87c.46-.76.95-1.5,1.48-2.21-.51.7.3-.31.35-.37.25-.29.52-.56.79-.84.26-.26.53-.5.8-.74.89-.79-.72.5.21-.17.61-.46,1.26-.83,1.95-1.16.96-.47-.91.34.07-.02.28-.1.57-.19.85-.26.28-.09.57-.14.85-.19,1-.2-1.06.1-.05,0,.55-.05,1.11-.03,1.67,0,1,.07-1.06-.18-.07,0,.36.05.72.15,1.08.24.34.09,2.03.77.76.22.51.22,1,.5,1.49.78.29.18,1.76,1.28.72.45.52.41,1,.88,1.46,1.36.24.24,1.39,1.7.59.65.35.46.66.95.95,1.44.29.49.54,1.01.78,1.53-.51-1.14-.12-.23-.02.01.13.37.24.73.33,1.09.1.36.39,2.22.21.79.07.57.09,1.14.08,1.7,0,.29-.02.57-.05.85-.08,1.02.18-1.04,0-.03-.12.67-.32,1.33-.55,1.97-.36.98.42-.89-.03.05-.14.28-.29.55-.45.82-.17.3-1.3,1.81-.39.65-.67.85-1.46,1.6-2.29,2.29,1.12-.92-.22.14-.52.34-.42.28-.85.52-1.29.76-.44.24-.9.44-1.35.65,1.37-.6-.44.14-.81.26-.95.3-1.92.52-2.9.68-.92.15,1.11-.13.2-.02-.24.02-.48.04-.73.06-.56.04-1.12.05-1.69.04-.47,0-.95-.04-1.43-.07-.32-.04-1.2-.17.25.03-.31-.04-.6-.1-.9-.16-.44-.09-.88-.21-1.31-.35-.21-.06-.42-.13-.63-.21-1.08-.39.73.33.04.02-.39-.18-.76-.39-1.12-.61-.18-.1-.35-.22-.53-.35-.62-.42.92.77.07.05-.32-.26-.6-.56-.88-.87-.22-.24-.67-.89.17.25-.16-.22-.31-.46-.46-.7-.1-.18-.2-.37-.29-.55-.38-.74.41,1.06.11.27-.18-.48-.31-.99-.42-1.5-.17-.87.12,1.15.03.25-.02-.24-.03-.48-.04-.73-.02-.61.02-1.21.09-1.82-.16,1.48.12-.43.21-.8.18-.72.42-1.43.68-2.13.06-.17.51-1.22.08-.24.15-.34.31-.68.47-1,.4-.84.86-1.65,1.33-2.45,2.9-4.9-4.72-9.34-7.6-4.45-2.92,4.94-5.2,11.04-3.46,16.79,1.44,4.74,5.4,7.92,10.02,9.32,9.16,2.78,20.89-1.42,25.34-10.08,4.36-8.49.38-18.5-7.15-23.62-3.71-2.52-8.37-3.29-12.71-2.31-5.28,1.18-9.33,5.45-12.04,9.9-1.25,2.05-.46,4.83,1.58,6.03,2.1,1.23,4.79.46,6.03-1.58h0Z"/>
  </g>
  <g>
    <g>
      <g>
        <g>
          <path class="st1" d="M97.12,143.6c0,9.24-7.5,16.75-16.75,16.75s-16.75-7.5-16.75-16.75,7.5-16.75,16.75-16.75,16.75,7.49,16.75,16.75Z"/>
          <path d="M94.19,143.6c-.08,6.08-3.99,11.42-9.83,13.22-5.83,1.8-12.26-.64-15.58-5.71-3.34-5.1-2.83-12,1.17-16.59,3.98-4.57,10.74-6.07,16.25-3.47,4.88,2.3,7.91,7.19,7.98,12.54.05,3.79,5.92,3.79,5.87,0-.09-7.16-3.94-13.75-10.19-17.25-6.29-3.52-14.3-3.13-20.3.8-5.97,3.91-9.4,10.99-8.8,18.09.59,7.04,5.04,13.42,11.52,16.3,6.11,2.71,13.28,2.19,18.9-1.48,5.54-3.62,8.8-9.87,8.88-16.45.05-3.79-5.82-3.78-5.87,0Z"/>
        </g>
        <path class="st16" d="M92.42,139.18c0,2.28-1.84,4.12-4.11,4.12s-4.12-1.84-4.12-4.12,1.84-4.11,4.12-4.11,4.11,1.84,4.11,4.11Z"/>
      </g>
      <path class="st13" d="M81.01,173.82c.35,2.62-4.15,5.39-10.06,6.19-5.92.8-11-.66-11.36-3.28-.35-2.62,4.15-5.38,10.07-6.19,5.91-.81,10.99.66,11.35,3.28Z"/>
    </g>
    <g>
      <g>
        <g>
          <path class="st1" d="M217.18,143.6c0,9.24-7.49,16.75-16.75,16.75s-16.75-7.5-16.75-16.75,7.5-16.75,16.75-16.75,16.75,7.49,16.75,16.75Z"/>
          <path d="M214.25,143.6c-.08,6.08-4,11.42-9.83,13.22-5.82,1.8-12.26-.64-15.58-5.71-3.34-5.1-2.83-12,1.16-16.59,3.99-4.57,10.75-6.07,16.26-3.47,4.87,2.3,7.91,7.19,7.98,12.54.04,3.79,5.92,3.79,5.87,0-.09-7.16-3.94-13.75-10.2-17.25-6.28-3.52-14.29-3.13-20.29.8-5.97,3.91-9.4,10.99-8.8,18.09.59,7.04,5.05,13.42,11.52,16.3,6.11,2.71,13.28,2.19,18.89-1.48,5.54-3.62,8.8-9.87,8.88-16.45.05-3.79-5.83-3.78-5.87,0Z"/>
        </g>
        <path class="st16" d="M212.48,139.18c0,2.28-1.84,4.12-4.12,4.12s-4.11-1.84-4.11-4.12,1.84-4.11,4.11-4.11,4.12,1.84,4.12,4.11Z"/>
      </g>
      <path class="st13" d="M199.8,173.82c-.36,2.62,4.15,5.39,10.06,6.19,5.91.8,11-.66,11.35-3.28.35-2.62-4.15-5.38-10.06-6.19-5.92-.81-11,.66-11.35,3.28Z"/>
    </g>
  </g>
  <g>
    <g>
      <path class="st14" d="M293.15,208.22c-1.59-4.09-3.16-8.11-4.76-12.22-5.41,4.12-10.78,8.21-16.19,12.32.09.24.18.45.25.66,2.41,6.2,4.83,12.38,7.22,18.58,1.35,3.49.18,7.21-2.88,9.3-3.49,2.38-8.31,1.39-10.7-2.19-2.33-3.49-1.34-8.33,2.16-10.62,1.55-1.02,3.25-1.44,5.1-1.25.14.01.29.02.53.04-.1-.27-.18-.47-.27-.68-2.52-6.48-5.03-12.96-7.56-19.43-.18-.45-.12-.68.27-.98,7.12-5.4,14.22-10.82,21.33-16.23.15-.12.31-.22.51-.35.08.21.15.39.22.56,3.56,9.14,7.11,18.29,10.67,27.43,1.38,3.57-.39,7.97-3.84,9.55-3.83,1.75-8.21.4-10.1-3.15-1.45-2.73-1.37-5.46.33-8.01,1.71-2.57,4.21-3.64,7.29-3.37.11.01.22.02.43.03Z"/>
      <path d="M272.58,238.3c-2.65,0-5.12-1.33-6.6-3.55-1.15-1.72-1.55-3.81-1.12-5.88.42-2.06,1.6-3.82,3.32-4.95,1.58-1.03,3.33-1.45,5.19-1.27.09,0,.18.01.3.02-.07-.17-.12-.32-.18-.46-2.52-6.49-5.03-12.96-7.56-19.43-.21-.51-.13-.81.32-1.15,4.95-3.75,9.88-7.51,14.82-11.27l6.5-4.95c.12-.09.24-.18.39-.27l.28-.19.1.26c.07.17.13.33.19.47l10.67,27.44c1.41,3.65-.38,8.12-3.92,9.74-1.13.52-2.31.78-3.52.78-2.87,0-5.47-1.53-6.78-4-1.5-2.82-1.39-5.57.34-8.16,1.54-2.31,3.73-3.48,6.5-3.48.3,0,.61.01.92.04.06,0,.12.01.2.02l-4.6-11.83-15.95,12.14.03.08c.07.17.13.32.18.48.85,2.18,1.7,4.36,2.55,6.55,1.56,4.01,3.12,8.02,4.67,12.03,1.37,3.54.19,7.34-2.93,9.47-1.27.87-2.76,1.32-4.3,1.32ZM272.5,222.91c-1.48,0-2.88.43-4.16,1.27-1.66,1.08-2.79,2.77-3.2,4.75-.41,1.99-.02,4,1.08,5.66,1.43,2.14,3.81,3.42,6.36,3.42,1.48,0,2.91-.44,4.13-1.27,3.01-2.05,4.14-5.72,2.82-9.13-1.55-4.01-3.11-8.02-4.67-12.03-.85-2.18-1.7-4.37-2.55-6.55-.06-.15-.12-.31-.18-.47l-.11-.29.09-.07,16.35-12.44.07.18,4.84,12.43-.3-.02c-.16,0-.26-.01-.36-.02-.3-.03-.6-.04-.89-.04-2.67,0-4.77,1.12-6.26,3.35-1.66,2.5-1.77,5.14-.32,7.86,1.26,2.37,3.75,3.84,6.52,3.84,1.16,0,2.31-.25,3.39-.75,3.4-1.56,5.13-5.85,3.77-9.37l-10.67-27.43c-.05-.12-.1-.25-.15-.39-.13.08-.24.16-.35.24l-6.51,4.96c-4.94,3.76-9.87,7.52-14.82,11.27-.34.26-.38.42-.22.8,2.53,6.47,5.04,12.95,7.56,19.43.07.17.13.34.21.54l.14.35h-.23c-.24-.02-.4-.04-.54-.05-.29-.03-.57-.04-.85-.04Z"/>
    </g>
    <g>
      <path d="M239.67,240.48c-.04-.22-.08-.44-.12-.69,2.77-1.3,5.54-2.6,8.31-3.91l2.31-10.77c-4.99,2.34-9.98,4.69-14.97,7.03-.45.21-.56.42-.48.9,1.12,6.85,2.22,13.72,3.32,20.58.04.22.06.44.12.72-.23-.07-.38-.1-.52-.15-1.76-.58-3.51-.52-5.24.15-3.9,1.5-5.88,6.03-4.34,9.93,1.59,4.01,6.08,5.98,10,4.39,3.43-1.4,5.35-4.8,4.77-8.49-1.05-6.56-2.11-13.12-3.16-19.68Z"/>
      <path d="M235.25,269.35h0c-3.19,0-6.13-2.02-7.32-5.03-.76-1.93-.71-4.05.14-5.99.85-1.93,2.37-3.4,4.29-4.13,1.76-.69,3.56-.74,5.33-.15.07.02.15.05.23.07.02,0,.04.01.06.02-.02-.11-.03-.2-.05-.3l-.03-.2c-.38-2.34-.76-4.68-1.13-7.02-.73-4.52-1.46-9.04-2.19-13.56-.09-.55.05-.81.56-1.05,3.51-1.64,7.01-3.29,10.52-4.93l4.72-2.22-.06.29-2.33,10.84-.06.03-8.21,3.86v.02c.04.2.07.38.1.56.5,3.15,1.01,6.31,1.52,9.46.55,3.41,1.1,6.81,1.64,10.22.59,3.74-1.36,7.22-4.86,8.65-.92.38-1.88.56-2.87.56ZM235.23,253.94c-.92,0-1.85.18-2.77.54-1.85.71-3.31,2.12-4.12,3.98-.82,1.86-.86,3.91-.13,5.76,1.15,2.9,3.98,4.85,7.05,4.85h0c.95,0,1.88-.18,2.76-.54,3.37-1.38,5.25-4.73,4.68-8.33-.55-3.41-1.09-6.81-1.64-10.22-.51-3.15-1.02-6.3-1.52-9.46-.04-.18-.06-.36-.1-.56l-.04-.25,8.34-3.92,2.24-10.41-4.19,1.97c-3.51,1.65-7.01,3.3-10.52,4.93-.39.19-.47.33-.4.75.74,4.51,1.47,9.03,2.19,13.56.38,2.34.75,4.68,1.13,7.02l.03.2c.02.16.05.32.08.52l.04.24-.23-.07c-.11-.04-.2-.06-.28-.08-.09-.03-.17-.04-.24-.07-.79-.26-1.58-.39-2.37-.39Z"/>
    </g>
    <g>
      <path class="st14" d="M280.18,255.05c-.18-1.97-1.12-3.54-2.88-4.53-2.33-1.29-5.31-.51-6.87,1.77-.27.39-.48.82-.69,1.2t0,.01s0,0-.01-.01c-.2-.39-.39-.83-.65-1.22-1.49-2.33-4.45-3.2-6.81-1.99-1.8.92-2.78,2.46-3.02,4.43-.33,2.62.41,5.01,1.83,7.19,1.44,2.23,3.39,3.95,5.61,5.38.84.53,1.73.98,2.6,1.45.05.03.12.04.18.05h0s.02,0,.02,0c0,0,.02,0,.02,0h0c.07-.01.13-.02.18-.04.88-.45,1.79-.87,2.64-1.37,2.27-1.34,4.27-3,5.79-5.19,1.48-2.15,2.3-4.5,2.06-7.13Z"/>
      <path d="M269.51,268.93h-.19v-.03s-.08-.03-.11-.05l-.51-.27c-.7-.37-1.42-.75-2.09-1.18-2.47-1.58-4.32-3.35-5.66-5.42-1.54-2.38-2.16-4.84-1.85-7.29.25-2.06,1.32-3.63,3.1-4.54.72-.38,1.51-.57,2.33-.57,1.85,0,3.63,1,4.66,2.6.2.31.36.64.52.96,0,.01.01.03.02.04.02-.03.03-.06.05-.1.16-.3.32-.6.52-.89,1.05-1.54,2.76-2.45,4.57-2.45.87,0,1.73.22,2.49.64,1.76.98,2.76,2.54,2.96,4.64.23,2.5-.46,4.87-2.09,7.23-1.41,2.03-3.32,3.74-5.84,5.23-.65.38-1.34.72-2.01,1.06-.21.1-.43.21-.64.31-.03.02-.07.03-.1.04v.02h-.15ZM264.53,249.88c-.78,0-1.52.18-2.2.53-1.71.88-2.7,2.33-2.95,4.32-.3,2.39.31,4.78,1.81,7.1,1.31,2.03,3.13,3.78,5.57,5.33.67.43,1.38.8,2.07,1.17l.52.27s.08.03.13.04h.01s.01,0,.01,0c.06,0,.11-.01.14-.03.21-.1.42-.21.64-.32.66-.33,1.35-.66,1.99-1.04,2.48-1.47,4.36-3.15,5.74-5.15,1.59-2.31,2.25-4.61,2.04-7.04-.19-1.99-1.13-3.48-2.81-4.41-.71-.39-1.52-.6-2.35-.6-1.71,0-3.33.87-4.33,2.33-.19.27-.35.57-.51.86-.05.1-.11.21-.17.31v.31l-.29-.3c-.05-.09-.09-.19-.14-.28-.15-.31-.31-.63-.5-.93-.97-1.52-2.66-2.47-4.41-2.47Z"/>
    </g>
  </g>
  <g>
    <path class="st26" d="M23.89,158.72l-2.22.51c-.26,2.19-1.86,4.09-4.14,4.62-2.9.68-5.82-1.12-6.51-4.02h.01c-.68-2.92,1.13-5.82,4.04-6.51.39-.09.76-.13,1.14-.14l.59-2.16c-.73-.05-1.48,0-2.23.18-4.08.96-6.62,5.04-5.66,9.12h-.02c.96,4.09,5.04,6.62,9.13,5.66,3.45-.81,5.8-3.87,5.86-7.26Z"/>
    <g>
      <path class="st15" d="M11.02,159.83h.01c-.54-2.32.5-4.64,2.42-5.84-2.26,1.07-3.54,3.6-2.96,6.13h-.01c.69,2.91,3.6,4.71,6.5,4.03.61-.14,1.15-.38,1.65-.69-.35.17-.72.3-1.1.39-2.91.68-5.82-1.12-6.51-4.02Z"/>
      <path class="st15" d="M14.03,151.49c.75-.17,1.5-.22,2.23-.18l-.51,1.9c.16-.02.31-.03.47-.03l.59-2.16c-.73-.05-1.48,0-2.23.18-.8.19-1.54.5-2.2.9.52-.27,1.07-.46,1.66-.61Z"/>
      <path class="st15" d="M23.89,158.72l-2.22.51c0,.06-.02.12-.03.18l1.71-.4c-.05,2.62-1.44,5.02-3.67,6.36,2.54-1.25,4.16-3.84,4.21-6.66Z"/>
    </g>
    <g>
      <path class="st5" d="M19.25,163.11c1.65-.76,2.79-2.29,3.09-4.04l-.68.16c-.19,1.59-1.08,3.01-2.41,3.88Z"/>
      <path class="st5" d="M14.08,153.66c.31-.14.65-.25.99-.33.38-.09.76-.14,1.14-.14l.09-.34c-.17.02-.35.05-.53.09-.62.14-1.19.4-1.7.73Z"/>
      <path class="st5" d="M18.74,165.59c-4.09.96-8.17-1.57-9.13-5.65h.01c-.76-3.26.7-6.51,3.39-8.18-3.13,1.51-4.92,5.04-4.1,8.57h-.01c.96,4.09,5.04,6.62,9.13,5.66.84-.2,1.62-.53,2.3-.97-.5.24-1.03.45-1.59.58Z"/>
    </g>
  </g>
  <g>
    <path class="st26" d="M257.31,158.72l2.22.51c.27,2.19,1.87,4.09,4.15,4.62,2.9.68,5.82-1.12,6.51-4.02h-.01c.68-2.92-1.13-5.82-4.04-6.51-.39-.09-.77-.13-1.14-.14l-.59-2.16c.73-.05,1.48,0,2.23.18,4.08.96,6.61,5.04,5.66,9.12h.02c-.96,4.09-5.05,6.62-9.13,5.66-3.46-.81-5.8-3.87-5.86-7.26Z"/>
    <g>
      <path class="st15" d="M270.18,159.83h-.02c.54-2.32-.5-4.64-2.41-5.84,2.26,1.07,3.54,3.6,2.96,6.13h.02c-.69,2.91-3.6,4.71-6.51,4.03-.6-.14-1.15-.38-1.65-.69.35.17.72.3,1.1.39,2.91.68,5.82-1.12,6.51-4.02Z"/>
      <path class="st15" d="M267.17,151.49c-.75-.17-1.5-.22-2.23-.18l.51,1.9c-.16-.02-.31-.03-.47-.03l-.59-2.16c.73-.05,1.48,0,2.23.18.8.19,1.54.5,2.2.9-.51-.27-1.07-.46-1.66-.61Z"/>
      <path class="st15" d="M257.31,158.72l2.22.51c.01.06.02.12.03.18l-1.7-.4c.04,2.62,1.45,5.02,3.66,6.36-2.53-1.25-4.16-3.84-4.21-6.66Z"/>
    </g>
    <g>
      <path class="st5" d="M261.95,163.11c-1.65-.76-2.8-2.29-3.09-4.04l.67.16c.2,1.59,1.08,3.01,2.42,3.88Z"/>
      <path class="st5" d="M267.12,153.66c-.31-.14-.64-.25-.99-.33-.39-.09-.77-.14-1.14-.14l-.09-.34c.17.02.35.05.53.09.62.14,1.19.4,1.7.73Z"/>
      <path class="st5" d="M262.46,165.59c4.09.96,8.17-1.57,9.13-5.65h-.01c.76-3.26-.7-6.51-3.39-8.18,3.13,1.51,4.92,5.04,4.09,8.57h.02c-.96,4.09-5.05,6.62-9.13,5.66-.84-.2-1.62-.53-2.3-.97.5.24,1.03.45,1.59.58Z"/>
    </g>
  </g>
  <path class="st6" d="M236.12,110.38s-3.43-39.54-18.78-43.84c-13.12-.28-44.66,6.64-76.22,6.65h-.74c-31.56,0-63.11-6.93-76.23-6.65-15.34,4.3-18.77,43.84-18.77,43.84l-9.43,6c0,3.3.06,9.16.06,12.37,0,0,23.42-13.75,27.84-18.82,4.42-5.07-.94-29.11,14.41-33.4,13.12-.28,30.56,6.48,62.12,6.49h.74c31.56-.01,49.01-6.77,62.12-6.49,15.34,4.29,9.99,28.33,14.41,33.4,4.42,5.07,27.83,18.82,27.83,18.82.01-3.21.07-9.07.07-12.37l-9.43-6Z"/>
  <g>
    <g>
      <path class="st19" d="M140.56,10.28h-.3c-87.5-.36-103.46,54.19-107.33,98.28l12.45-7.91s3.6-41.61,19.98-44.11c10.29-1.57,42.66,6.1,75.03,6.11h.05c32.37-.01,64.74-7.68,75.03-6.11,16.37,2.5,19.98,44.11,19.98,44.11l12.44,7.91c-3.87-44.09-19.83-98.64-107.32-98.28Z"/>
      <path d="M140.56,0c-26.2.29-53.64,4.12-75.51,19.71-9.14,6.52-16.8,14.43-23.03,23.77-5.45,8.17-9.43,17.39-12.41,26.72-3.94,12.4-5.82,25.42-6.96,38.35-.31,3.52,2.18,7.17,5.09,8.88,3.08,1.81,7.3,1.95,10.37,0,3.78-2.4,7.55-4.81,11.33-7.21,1.1-.7,2.26-1.39,3.19-2.32,2.16-2.16,2.76-4.75,3.04-7.65.12-1.28.28-2.54.45-3.82-.12.91-.24,1.82-.37,2.73,1.19-8.87,3.03-17.86,6.51-26.14-.34.82-.69,1.64-1.03,2.46,1.22-2.89,2.68-5.69,4.59-8.17-.54.69-1.07,1.38-1.61,2.08.98-1.24,2.06-2.37,3.3-3.34-.7.54-1.39,1.07-2.08,1.61.82-.61,1.69-1.14,2.63-1.54-.81.35-1.63.69-2.45,1.04.86-.36,1.74-.6,2.66-.73-.91.12-1.82.24-2.73.37,4.74-.63,9.73.12,14.44.65,7.5.85,14.97,1.92,22.46,2.82,18.12,2.18,36.21,3.29,54.44,2.08,11.97-.8,23.85-2.36,35.74-3.88,4.5-.58,9.01-1.16,13.54-1.55,3.01-.26,6.11-.51,9.12-.11-.91-.13-1.82-.25-2.73-.37.91.13,1.79.38,2.65.73-.82-.35-1.63-.69-2.45-1.04.94.4,1.81.93,2.63,1.54-.69-.54-1.38-1.07-2.08-1.61,1.25.97,2.33,2.11,3.3,3.34-.54-.69-1.07-1.39-1.61-2.08,1.91,2.49,3.37,5.29,4.59,8.17-.34-.82-.69-1.64-1.03-2.46,3.47,8.28,5.31,17.27,6.5,26.14-.12-.91-.24-1.82-.36-2.73.17,1.25.32,2.5.44,3.76.1,1.04.15,2.23.41,3.18.86,3.14,3.11,5.12,5.69,6.76,3.83,2.44,7.65,4.87,11.47,7.3,3.07,1.95,7.3,1.81,10.37,0,2.92-1.71,5.4-5.36,5.09-8.88-1.7-19.3-5.34-38.37-14.03-55.85-4.45-8.95-10.5-17.28-17.68-24.23-8.67-8.41-18.87-14.45-29.94-19.08C179,2.08,159.38-.06,140.56,0c-5.61.01-10.28,4.66-10.28,10.28s4.67,10.29,10.28,10.28c7.98-.02,15.95.39,23.87,1.44-.91-.12-1.82-.25-2.73-.37,10.16,1.37,20.19,3.78,29.66,7.73-.81-.34-1.63-.69-2.45-1.03,6.64,2.8,12.94,6.36,18.66,10.75-.69-.54-1.38-1.07-2.08-1.6,5.16,3.98,9.79,8.6,13.79,13.75-.54-.7-1.07-1.39-1.61-2.08,4.63,6,8.37,12.64,11.32,19.62-.34-.82-.69-1.64-1.03-2.46,4.62,11.02,7.28,22.73,8.88,34.54-.12-.91-.24-1.82-.37-2.73.47,3.48.84,6.96,1.16,10.45,5.15-2.96,10.3-5.91,15.46-8.87-4.14-2.64-8.29-5.28-12.44-7.91,1.7,2.96,3.39,5.92,5.09,8.88-.57-6.56-1.66-13.13-3.13-19.54-1.27-5.52-3.05-10.79-5.26-16-1.99-4.65-4.72-9.26-8.46-12.72-4.7-4.35-10.27-6.29-16.63-6.34-5.68-.05-11.4.81-17.02,1.52-17.26,2.18-34.5,4.52-51.93,4.79-17.55.27-35.03-1.86-52.41-4.11-6.33-.82-12.67-1.73-19.03-2.1-5.48-.32-11.09.15-15.86,3.13-9.67,6.04-14.13,17.99-16.93,28.5-1.96,7.35-3.18,14.96-3.92,22.53-.01.11-.02.22-.03.33,1.7-2.96,3.39-5.92,5.09-8.88-4.15,2.64-8.3,5.28-12.44,7.91,5.15,2.96,10.31,5.92,15.46,8.87.31-3.49.69-6.97,1.15-10.45-.12.91-.24,1.82-.36,2.73,1.6-11.81,4.26-23.53,8.88-34.54-.35.81-.69,1.63-1.03,2.46,2.95-6.98,6.68-13.61,11.32-19.62-.54.69-1.07,1.38-1.61,2.08,4-5.15,8.62-9.77,13.79-13.75-.7.54-1.39,1.07-2.08,1.6,5.73-4.39,12.02-7.95,18.66-10.75-.82.35-1.64.69-2.45,1.03,9.47-3.96,19.5-6.36,29.66-7.73-.91.12-1.82.25-2.72.37,8.03-1.06,16.07-1.34,24.17-1.44,5.6-.06,10.28-4.63,10.28-10.28S146.16-.06,140.56,0Z"/>
    </g>
    <path class="st23" d="M140.56,10.28h-.3c-87.5-.36-103.46,54.19-107.33,98.28l12.45-7.91s3.6-41.61,19.98-44.11c10.29-1.57,42.66,6.1,75.03,6.11h.05c32.37-.01,64.74-7.68,75.03-6.11,16.37,2.5,19.98,44.11,19.98,44.11l12.44,7.91c-3.87-44.09-19.83-98.64-107.32-98.28Z"/>
    <path class="st5" d="M140.26,14.7h.3c84.41-.35,102.24,50.39,106.87,93.57l.46.29c-3.87-44.09-19.83-98.64-107.32-98.28h-.3c-87.5-.36-103.46,54.19-107.33,98.28l.46-.29c4.62-43.18,22.46-93.91,106.87-93.57Z"/>
    <path class="st15" d="M235.44,96.22s-3.61-41.6-19.98-44.1c-10.29-1.57-42.66,6.1-75.03,6.11h-.05c-32.38-.01-64.74-7.68-75.03-6.11-16.38,2.5-19.98,44.1-19.98,44.1l-11.98,7.62c-.17,1.58-.32,3.16-.46,4.71l12.45-7.91s3.6-41.61,19.98-44.11c10.29-1.57,42.66,6.1,75.03,6.11h.05c32.37-.01,64.74-7.68,75.03-6.11,16.37,2.5,19.98,44.11,19.98,44.11l12.44,7.91c-.14-1.55-.29-3.13-.46-4.71l-11.99-7.62Z"/>
  </g>
  <g>
    <path class="st16" d="M174.25,22.07c9.54,1.4,16.74,6.16,16.08,10.66-.65,4.49-8.92,7-18.46,5.61-9.54-1.38-16.74-6.16-16.09-10.66.66-4.49,8.93-7,18.47-5.61Z"/>
    <path class="st16" d="M200.52,35.31c0,2.16-1.75,3.91-3.91,3.91s-3.91-1.75-3.91-3.91,1.75-3.91,3.91-3.91,3.91,1.75,3.91,3.91Z"/>
  </g>
  <path d="M144.66,202.1c-20.25-2.15-33.32-10.97-36.55-13.37,6.47-3.99,14-3.52,14-3.52,0,0-15.88-8.1-24,.05-8.13,8.16,1.02,22.81,1.02,22.81,0,0-.89-6.68,2.7-12.89,5.5,3.71,19.64,11.87,40.17,14.06,26.8,2.85,37.82-6.28,37.82-6.28,0,0-11.64,1.63-35.15-.87Z"/>
</svg>