<?xml version="1.0" encoding="UTF-8"?>
<svg id="Layer_1" xmlns="http://www.w3.org/2000/svg" version="1.1" viewBox="0 0 222.23 342.61">
  <!-- Generator: Adobe Illustrator 29.6.1, SVG Export Plug-In . SVG Version: 2.1.1 Build 9)  -->
  <defs>
    <style>
      .st0 {
        fill: #ffd7c3;
      }

      .st1 {
        fill: #8b5e3c;
      }

      .st2 {
        fill: #000002;
      }

      .st3 {
        fill: #414042;
      }

      .st4 {
        fill: #231f20;
      }

      .st5 {
        fill: #603913;
      }

      .st6 {
        fill: #4c1f01;
      }

      .st7 {
        fill: #3c2415;
      }

      .st8 {
        fill: #f1f2f2;
      }

      .st9 {
        fill: #f38b9e;
      }

      .st10 {
        fill: #fff;
      }

      .st11 {
        fill: #fde5d2;
      }

      .st12 {
        fill: #723206;
      }

      .st13 {
        fill: #ffebde;
      }

      .st14 {
        fill: #e6e7e8;
      }

      .st15 {
        fill: #f4bba2;
      }

      .st16 {
        fill: #8c5b3a;
      }
    </style>
  </defs>
  <g>
    <g>
      <g>
        <g>
          <path class="st0" d="M73.98,264.69s-25.84,34.64-13.36,41.05c12.48,6.41,27.54-25.44,27.54-25.44l-14.17-15.62Z"/>
          <path d="M70.91,262.89c-2.98,4.01-5.71,8.23-8.25,12.52-2.14,3.61-4.11,7.31-5.75,11.18-1.61,3.82-2.98,7.73-3.24,11.9-.23,3.81,1.09,7.41,4.18,9.71,3.52,2.62,8.02,2.22,11.83.59,3.77-1.61,6.92-4.81,9.54-7.89,2.87-3.37,5.38-7.06,7.66-10.85,1.56-2.59,3.04-5.24,4.33-7.96.72-1.52.59-3.04-.55-4.31-4.73-5.21-9.45-10.41-14.17-15.62-1.3-1.44-3.71-1.32-5.03,0-1.41,1.42-1.29,3.59,0,5.02,4.73,5.21,9.45,10.41,14.17,15.62-.18-1.43-.37-2.87-.55-4.31-2.42,5.11-5.38,10.03-8.71,14.6-.31.42-.62.84-.93,1.25.56-.73.02-.02-.09.1-.16.21-.33.41-.49.61-.7.87-1.43,1.71-2.2,2.52-.67.73-1.38,1.43-2.11,2.1-.36.32-.72.63-1.09.94-.16.13-.81.62-.01.02-.24.18-.49.35-.73.53-.71.5-1.46.93-2.24,1.3-.21.1-.91.39.1-.03-.19.07-.38.14-.57.21-.43.15-.87.26-1.31.35-.26.05-.96.11.19-.02-.18.02-.37.04-.56.04-.38.02-.75,0-1.12-.05,1.28.13-.04-.05-.36-.15-.18-.05-.37-.13-.55-.2,1.04.4.2.08-.03-.05-.29-.16-1.24-.87-.21-.06-.24-.19-.46-.4-.67-.62-.55-.61.49.76-.06-.13-.09-.13-.16-.26-.22-.39-.4-.76.27.71.05.15-.12-.29-.2-.6-.27-.9-.04-.16-.06-.31-.09-.47-.13-.66.12.96.03.28-.08-.77-.06-1.55,0-2.33.01-.19.04-.38.05-.57.08-.73-.13.91-.02.17.06-.4.14-.81.22-1.21.19-.92.45-1.83.72-2.74.28-.89.59-1.77.91-2.64.17-.45.35-.9.54-1.35.32-.8-.32.73.02-.06.13-.31.27-.61.4-.91,3.06-6.87,7.09-13.31,11.37-19.48.66-.96,1.34-1.92,2.04-2.85,1.16-1.56.26-3.97-1.28-4.86-1.81-1.07-3.71-.28-4.86,1.27Z"/>
        </g>
        <path class="st4" d="M64.38,287.33l9.17,5.05,4.21-18.59-3.45-3.84s-3.46,4.87-5.07,7.75c-1.61,2.88-4.87,9.63-4.87,9.63Z"/>
        <g>
          <rect class="st2" x="67.39" y="277.08" width="6.91" height="19.73" transform="translate(-213.8 207.38) rotate(-60.51)"/>
          <path d="M78.04,295.9l-18.58-10.5,4.19-7.42,18.58,10.51-4.19,7.42ZM61.65,284.79l15.77,8.92,2.61-4.61-15.77-8.92-2.61,4.62Z"/>
        </g>
      </g>
      <g>
        <g>
          <path class="st0" d="M148.29,264.69s25.85,34.64,13.37,41.05c-12.48,6.41-27.54-25.44-27.54-25.44l14.17-15.62Z"/>
          <path d="M145.22,266.49c2.99,4,5.71,8.22,8.25,12.52,1.07,1.81,2.08,3.64,3.05,5.49.47.9.94,1.81,1.36,2.73.23.45.43.91.64,1.37.1.23.2.46.3.68.09.19.53,1.25.13.29.75,1.79,1.4,3.62,1.91,5.5.22.81.4,1.63.54,2.46.05.25.13,1-.02-.16.03.19.05.38.06.57.05.43.06.87.06,1.3,0,.35-.01.7-.04,1.04-.07.89.18-.89-.05.21-.06.31-.15.61-.25.91-.09.25-.35.83.14-.28-.09.18-.18.36-.28.53-.08.14-.16.26-.24.39-.35.51.59-.72.2-.25-.2.24-.42.45-.65.65-.47.41.75-.55.22-.18-.13.1-.27.17-.4.26-.16.09-.32.17-.47.25-.57.28.84-.3-.08.02-.36.13-.73.21-1.11.28,1.24-.22-.02-.02-.36-.02-.18,0-.38,0-.57-.02-.72-.05.92.14.2.03-.44-.07-.89-.19-1.32-.32-.19-.06-.38-.13-.57-.2-.71-.26.79.35.1.04-.38-.17-.76-.36-1.12-.58-.38-.21-.76-.45-1.12-.69-.19-.13-.38-.25-.56-.39-.81-.58.29.25-.2-.14-1.62-1.28-3.05-2.77-4.42-4.31-.69-.78-1.35-1.59-1.99-2.41.57.73.02.02-.07-.1-.16-.21-.31-.42-.47-.63-.36-.49-.71-.98-1.06-1.48-2.15-3.08-4.09-6.31-5.88-9.62-.67-1.22-1.32-2.45-1.91-3.71-.18,1.44-.38,2.88-.55,4.31,4.72-5.2,9.44-10.41,14.17-15.62,1.3-1.43,1.42-3.6,0-5.02-1.32-1.32-3.72-1.44-5.03,0-4.72,5.2-9.44,10.41-14.17,15.62-1.15,1.26-1.28,2.79-.56,4.31,2.42,5.1,5.39,10.03,8.71,14.59,4.72,6.5,11.94,15.05,21.01,13.14,3.73-.79,6.69-3.77,7.52-7.47.82-3.7.01-7.6-1.14-11.14-2.53-7.83-6.88-15.11-11.36-21.96-1.42-2.16-2.87-4.3-4.42-6.38-1.14-1.55-3.05-2.34-4.85-1.27-1.53.89-2.44,3.3-1.28,4.86Z"/>
        </g>
        <path class="st4" d="M157.89,287.33l-9.17,5.05-4.21-18.59,3.45-3.84s3.47,4.87,5.07,7.75c1.61,2.88,4.87,9.63,4.87,9.63Z"/>
        <g>
          <rect class="st2" x="143.19" y="282.8" width="19.73" height="6.91" transform="translate(-121.11 112.48) rotate(-29.5)"/>
          <path d="M145.86,295.22l-4.2-7.42,18.57-10.5,4.2,7.42-18.58,10.51ZM143.86,288.41l2.62,4.62,15.77-8.92-2.61-4.62-15.77,8.92Z"/>
        </g>
      </g>
    </g>
    <g>
      <g>
        <path class="st11" d="M35.49,299.81c.47,2.28,2.07,4.29,2.07,4.29,0,0-4.83-2.02-6,.67-1.17,2.69,4.37,5.25,4.37,5.25,0,0-5.2-1.69-5.73,1.21-.53,2.9,4.63,4.29,4.63,4.29,0,0-5.37,3.05-3.75,5.93,1.61,2.87,7-.12,7-.12,0,0-1.5,5.14,1.25,6.2,2.75,1.06,4.01-4.26,4.01-4.26,0,0-.69,6.06,2.21,6.47,2.91.41,3.7-4.77,3.7-4.77,0,0,.88,2.42,2.58,4,1.7,1.58,3.56,1.77,3.56,1.77,0,0-1.1-5.81-.74-12.34.35-6.54,1.81-10.38,1.81-10.38l-.46-.54-.22-.68s-4.04-.75-9.79-3.86c-5.76-3.11-10.15-7.08-10.15-7.08,0,0-.81,1.68-.35,3.95Z"/>
        <path d="M31.13,301.01c.55,2.36,1.76,4.4,3.23,6.28,1.47-2.52,2.93-5.03,4.4-7.56-1.38-.57-2.92-.81-4.39-.89-3.38-.18-6.12,1.84-7.26,4.94-1.62,4.43,2.99,8.48,6.53,10.14,1.16-2.75,2.33-5.51,3.49-8.27-4.2-1.34-10.07-.73-11.29,4.37-1.22,5.09,3.44,8.65,7.79,9.86-.36-2.75-.73-5.51-1.08-8.27-4.31,2.47-7.87,7.08-5.38,12.11,1.62,3.29,5.51,3.75,8.69,3.21,1.55-.26,3.14-.96,4.51-1.71-2.22-1.7-4.43-3.41-6.65-5.11-1.26,4.38-.57,10.14,4.4,11.76,4.99,1.62,8.54-3.16,9.58-7.41-2.96-.4-5.93-.81-8.88-1.21-.46,4.09.68,9.34,5.11,10.73,5.13,1.61,8.95-3.28,9.68-7.82h-8.72c1.76,4.72,5.32,8.48,10.49,9.1,1.12.13,2.43-.56,3.2-1.33,1.22-1.21,1.47-2.77,1.17-4.4-.06-.28-.1-.57-.14-.87-.02-.14-.05-.27-.06-.41-.14-.89.14,1.2.02.19-.07-.53-.13-1.07-.18-1.61-.29-2.81-.36-5.63-.23-8.45.04-.65.09-1.29.14-1.93.02-.3.05-.6.09-.9.02-.12.21-1.54.05-.45.16-1.11.37-2.21.62-3.3.2-.87.43-1.75.74-2.6.59-1.56-.17-3.23-1.16-4.4-.16-.18-.31-.36-.47-.55.39.66.78,1.33,1.16,2-.07-.23-.15-.46-.22-.69-.46-1.42-1.59-2.86-3.16-3.16-.93-.18-1.84-.47-2.74-.76-.4-.13-.79-.27-1.18-.42-.21-.08-.44-.17-.66-.25-.12-.05-1.27-.53-.36-.14-1.44-.61-2.82-1.32-4.19-2.07-2.33-1.28-4.54-2.78-6.67-4.38-.4-.31-.36-.27.15.12-.22-.17-.44-.35-.67-.53-.29-.24-.58-.48-.88-.72-.25-.21-.5-.42-.74-.64-1.98-1.78-5.82-1.88-7.11.91-1.11,2.43-1.24,4.83-.8,7.45.42,2.42,3.37,3.76,5.56,3.16,2.55-.71,3.57-3.14,3.16-5.57.03.41.05.35.01-.17-.01-.27.2-1.49-.02-.26.11-.58.66-1.71-.1-.04-2.37.3-4.73.61-7.1.91,3.1,2.8,6.6,5.25,10.22,7.33,3.57,2.04,7.64,4.01,11.7,4.78-1.05-1.05-2.1-2.11-3.15-3.16.4,1.23,1.01,2.23,1.85,3.23-.39-1.47-.78-2.93-1.17-4.4-1.37,3.62-1.75,7.74-1.97,11.57-.26,4.48.09,9.13.91,13.55,1.46-1.91,2.91-3.81,4.36-5.73,2.24.27.54.04-.08-.18,1.13.41.05-.05-.17-.18-.42-.27-.46-.3-.1-.08-.19-.18-.36-.36-.53-.55.66.72-.08-.12-.18-.28-.24-.35-.45-.73-.64-1.11-.11-.21-.21-.44-.31-.66.62,1.36.38.91.25.59-.72-1.91-2.22-3.32-4.36-3.32-1.84,0-4.05,1.36-4.36,3.32-.11.69-.31,1.36-.54,2.01-.26.71.53-1.09-.03-.02-.55,1.03.51-.52.04.02-.34.32-.2.22.41-.28-.4.23-.24.17.5-.18.84-.07,1.02-.09.53-.08.51,0,.99.13,1.43.41-.39-.23-.24-.12.43.35-.3-.33-.2-.19.32.42-.63-.94.24.77.01.04-.1-.31-.16-.62-.2-.94.25,1.51.06.38.03.01-.05-.74-.02-1.51.06-2.25.21-1.97-1.54-3.87-3.32-4.36-2.32-.65-4.98.76-5.57,3.16-.05.18-.1.36-.16.54-.04.17-.1.32-.15.49-.37,1.06.39-.85.05-.11-.1.21-.2.42-.32.62-.57,1.03.52-.53.04.03-.27.31-.84.56.26-.16.78-.28.95-.36.51-.23.51-.15,1.03-.15,1.55-.02.2.1.4.19.62.28-.41-.25-.29-.15.34.28.44.63.55.75.31.36.28.72.35.86.2.41-.11-.34-.14-1.18,0,.23-.03-.34-.02-.68,0-1.01,0-.24.03-.48.06-.72-.17,1.56-.07.57,0,.2.05-.25.11-.49.17-.73,1.13-3.91-3.23-6.98-6.64-5.11-.18.1-.36.19-.54.28-.95.45.95-.38.17-.06-.31.12-.62.22-.94.32-.25.09-.51.14-.77.21-.79.19,1.15-.05-.12,0-1.23.06.66.2-.03,0,.46.12.85.34,1.17.69-.32-.33-.24-.22.23.32.1.16.34,1.82.32,1.08-.14.8-.16.96-.04.49-.32.69-.37.82-.15.4.55-1.06-.43.43.07-.14.23-.27.5-.51.76-.75.22-.2.97-.79-.15.08.22-.17.44-.33.67-.48.21-.15.44-.29.66-.42,3.41-1.96,2.68-7.23-1.08-8.27-.18-.04-.35-.1-.53-.16-.16-.06-.32-.12-.48-.18-.66-.25,1.16.54.1.02-.22-.11-.43-.23-.63-.35-1.03-.6.5.49-.07,0-.88-.76.32.6-.04.02.27.75.34.9.2.45.07.84.11,1.01.1.52-.02.82-.28,1.36-.81,1.97-.67.47-.81.58-.42.35-.77.29-.93.37-.49.23.84-.24-1.19.09-.3.04.31-.02.63,0,.93.03.89.06-1.17-.19-.32-.04.25.04.49.1.74.15.23.05.47.12.7.19,1.92.62,4.12-.38,5.1-2.07,1.16-1.98.61-5.14-1.62-6.19-.62-.29-1.21-.65-1.79-1.02-.21-.14-.42-.29-.62-.44,1.12.82.14.08-.08-.16-.87-.84.31.54-.06-.06-.22-.43-.16-.28.18.44.07.84.09,1.02.08.55,0,.8-.27,1.31-.76,1.91-.64.44-.76.53-.37.29-.74.28-.88.35-.43.21.87-.25-1.16.08-.24.05.37-.01,1.55.18.03-.06.75.12,1.5.33,2.19.62,1.85.76,4.17-.48,5.11-2.08,1.13-1.91.57-3.86-.71-5.48,1.4,1.78.21.22-.07-.24-.25-.4-.45-.81-.65-1.24.43.92-.13-.59-.18-.81-.57-2.39-3.26-3.8-5.57-3.16-2.45.67-3.72,3.16-3.16,5.56Z"/>
      </g>
      <path class="st4" d="M35.49,299.81c.47,2.28,2.07,4.29,2.07,4.29,0,0-4.83-2.02-6,.67-1.17,2.69,4.37,5.25,4.37,5.25,0,0-5.2-1.69-5.73,1.21-.53,2.9,4.63,4.29,4.63,4.29,0,0-5.37,3.05-3.75,5.93,1.61,2.87,7-.12,7-.12,0,0-1.5,5.14,1.25,6.2,2.75,1.06,4.01-4.26,4.01-4.26,0,0-.69,6.06,2.21,6.47,2.91.41,3.7-4.77,3.7-4.77,0,0,.88,2.42,2.58,4,1.7,1.58,3.56,1.77,3.56,1.77,0,0-1.1-5.81-.74-12.34.35-6.54,1.81-10.38,1.81-10.38l-.46-.54-.22-.68s-4.04-.75-9.79-3.86c-5.76-3.11-10.15-7.08-10.15-7.08,0,0-.81,1.68-.35,3.95Z"/>
      <g>
        <path class="st3" d="M40.43,326.91c-2.75-1.06-1.25-6.19-1.25-6.19,0,0-5.4,2.99-7.01.12-1.61-2.88,3.76-5.92,3.76-5.92,0,0-5.17-1.4-4.64-4.29.08-.4.23-.7.46-.95-.77.2-1.39.66-1.55,1.56-.53,2.9,4.63,4.29,4.63,4.29,0,0-5.37,3.05-3.75,5.93,1.61,2.87,7-.12,7-.12,0,0-1.5,5.14,1.25,6.2.85.33,1.56.04,2.14-.51-.32.07-.67.04-1.04-.1Z"/>
        <path class="st3" d="M37.02,309.41s-5.54-2.57-4.36-5.25c.11-.26.25-.48.43-.65-.65.17-1.22.55-1.52,1.26-.69,1.6.99,3.16,2.45,4.15,1.48,0,3.01.49,3.01.49Z"/>
        <path class="st3" d="M36.77,302.92c1.06.22,1.88.56,1.88.56,0,0-1.6-2.01-2.07-4.28-.22-1.08-.15-2.02-.02-2.72-.47-.39-.73-.62-.73-.62,0,0-.81,1.68-.35,3.95.25,1.2.81,2.32,1.28,3.11Z"/>
        <path class="st3" d="M52.93,328.36c-1.69-1.58-2.57-4.01-2.57-4.01,0,0-.14.88-.5,1.89.43.82,1.1,1.89,1.99,2.72,1.7,1.58,3.56,1.77,3.56,1.77,0,0-.07-.33-.15-.94-.66-.25-1.51-.69-2.32-1.43Z"/>
        <path class="st3" d="M46.65,329.12c-2.9-.41-2.21-6.46-2.21-6.46,0,0-.38,1.55-1.15,2.81.09,1.78.54,4.03,2.26,4.27.76.1,1.38-.17,1.87-.65-.24.06-.5.07-.78.03Z"/>
      </g>
    </g>
    <g>
      <g>
        <path class="st11" d="M60.18,302.71c-.2-.35-.64-.48-1-.28-.35.2-.47.64-.27,1l1.95,3.47c.2.35.64.47.99.28.35-.2.47-.64.28-.99l-.31-.55,9.01-4.46c.55.1,1.13.04,1.65-.26,1.18-.66,1.6-2.17.94-3.34-.66-1.18-2.16-1.6-3.34-.94-.53.29-.88.75-1.09,1.28l-8.51,5.36-.31-.55Z"/>
        <path d="M63.37,299.51c-1.29-1.5-3.53-2.05-5.39-1.44-2.36.76-3.5,2.71-3.7,5.07-.13,1.62,1.16,3.37,1.92,4.73.24.42.46.83.7,1.24.99,1.77,2.71,2.52,4.66,2.68,2.24.19,4.42-1.79,4.98-3.84.45-1.65-.02-3.16-.83-4.6-.54,2.07-1.08,4.13-1.62,6.2,3-1.49,6-2.98,9.01-4.47-.76.21-1.52.42-2.28.62,2.7.28,5.02-1.25,6.47-3.4,1.43-2.12,1.05-4.85.03-7.01-2.33-4.9-10.1-4.38-12.24.33.54-.54,1.08-1.08,1.62-1.62-2.83,1.78-5.67,3.57-8.5,5.36,2.06.54,4.13,1.08,6.18,1.62-.1-.18-.2-.36-.3-.55-1.21-2.15-4.09-2.85-6.19-1.62-2.15,1.26-2.83,4.04-1.62,6.19.1.18.2.36.31.55,1.17,2.1,4.13,2.92,6.19,1.62,1.74-1.09,3.48-2.19,5.22-3.28.95-.61,1.91-1.21,2.86-1.81.47-.3.95-.58,1.35-.98.38-.35.66-.76.85-1.22-.18.26-.41.48-.67.65-.81.54-1.85.32-2.54-.3-1.39-1.24-.29-3.45,1.41-3.55-1.08.06-1.97.21-2.95.7-1,.49-2,.99-3,1.48-1.92.95-3.83,1.9-5.76,2.85-2.23,1.11-2.76,4.16-1.62,6.19.59,1.06-.35.09-.24-1.18.21-.77.41-1.52.62-2.29.12-.16.24-.32.36-.47.66-.39,1.33-.77,1.99-1.16.21-.04.44-.06.65-.09.76.2,1.52.4,2.28.61,1.11.57,1.51,1.86.88.73-.22-.4-.45-.8-.67-1.19-.22-.4-.45-.8-.67-1.2-.66-1.17.35,0,.25,1.2-.21.76-.41,1.52-.62,2.28-.12.16-.24.31-.36.47-.67.39-1.33.78-2,1.17-.21.03-.43.06-.64.09-.77-.21-1.52-.41-2.29-.62-.15-.12-.32-.24-.47-.36,1.6,1.87,4.75,1.64,6.4,0,1.84-1.84,1.6-4.53,0-6.39Z"/>
      </g>
      <path class="st5" d="M60.18,302.71c-.2-.35-.64-.48-1-.28-.35.2-.47.64-.27,1l1.95,3.47c.2.35.64.47.99.28.35-.2.47-.64.28-.99l-.31-.55,9.01-4.46c.55.1,1.13.04,1.65-.26,1.18-.66,1.6-2.17.94-3.34-.66-1.18-2.16-1.6-3.34-.94-.53.29-.88.75-1.09,1.28l-8.51,5.36-.31-.55Z"/>
      <g>
        <path class="st1" d="M70.08,296.63c-.53.29-.88.75-1.09,1.28l-8.51,5.36-.31-.55c-.2-.35-.64-.48-1-.28-.35.2-.47.64-.27,1l.27.47c0-.26.13-.5.36-.63.35-.2.8-.07.99.28l.31.55,8.51-5.36c.19-.52.55-.98,1.07-1.28,1.14-.63,2.55-.28,3.25.79-.05-.24-.14-.47-.26-.69-.66-1.18-2.16-1.6-3.34-.94Z"/>
        <path class="st1" d="M62.17,306.47l.05.08v-.09l-.05.02Z"/>
      </g>
      <path class="st7" d="M71.92,299.91c-.53.29-1.11.37-1.66.27l-9.01,4.46.31.55c.2.35.07.8-.28.99-.36.2-.8.07-1-.28l.56.99c.2.35.64.47.99.28.35-.2.47-.64.28-.99l-.31-.55,9.01-4.46c.55.1,1.13.04,1.65-.26,1.18-.66,1.6-2.17.94-3.34-.1-.17-.21-.32-.34-.47.3,1.07-.16,2.25-1.16,2.81Z"/>
    </g>
    <g>
      <g>
        <path class="st11" d="M48.01,302.91c.17.81.81,1.59.81,1.59,0,0-4.17-.84-4.51,1.15-.33,1.99,4.3,3,4.3,3,0,0-3.08,2.32-2.08,4.12,1.02,1.81,4.61.39,4.61.39,0,0-1.56,4.47.31,5.23,1.89.75,3.34-3.24,3.34-3.24,0,0,.33.95.93,1.52.59.57,1.63.66,1.63.66,0,0-.79-2.25-.8-4.24-.02-2,.42-3.79.42-3.79,0,0-.76-.24-1.48-1.53-.72-1.29-.53-2.07-.53-2.07,0,0-1.77-.56-3.46-1.62-1.69-1.05-3.19-2.9-3.19-2.9,0,0-.47.93-.29,1.73Z"/>
        <path d="M43.65,304.12c.44,1.43,1.07,2.42,1.97,3.58,1.47-2.52,2.93-5.04,4.4-7.56-4.38-.87-9.76.13-10.23,5.51-.36,4.17,4.16,6.59,7.62,7.36-.36-2.76-.72-5.51-1.09-8.27-3.32,2.54-5.63,6.08-3.68,10.31,1.61,3.5,6.6,3.67,9.7,2.47-1.86-1.86-3.71-3.71-5.56-5.56-.41,1.18-.57,2.41-.72,3.65-.35,2.67.8,5.03,2.94,6.59,2.41,1.76,6.01.55,7.74-1.55,1.08-1.32,1.82-2.7,2.41-4.3h-8.72c.51,1.37,1.1,2.41,2.09,3.52,1.23,1.36,3.09,1.79,4.83,1.97,2.85.32,5.25-3.13,4.36-5.72-.12-.35-.21-.69-.31-1.04-.1-.36-.18-.72-.25-1.09-.28-1.31.05.9-.06-.48-.05-.47-.01-.94,0-1.41,0-.13.19-1.62.02-.47.06-.39.13-.77.22-1.15.61-2.55-.78-4.7-3.16-5.56.32.14.65.28.98.41-.33-.19-.17-.06.46.39-.72-.57.48.88-.21-.25.03.1.06.21.09.3-.14-.55-.16-.43-.02.36-.05-.47.24-1.17-.14.76.51-2.5-.69-4.76-3.16-5.56-.25-.08-1.37-.54-.36-.11-.83-.35-1.61-.79-2.36-1.28.78.51-.23-.2-.33-.29-.27-.24-.51-.49-.76-.74-.3-.3-.59-.61-.85-.94-1.77-2.14-5.93-1.59-7.1.91-.59,1.26-1.07,2.6-.91,4.01.28,2.45,1.85,4.53,4.53,4.53,2.25,0,4.8-2.07,4.52-4.53-.02-.53-.08-.47-.13.19.09-.45.58-1.31-.21.36-2.37.31-4.73.62-7.09.92,2.24,2.72,5.32,4.6,8.65,5.69-1.05-1.86-2.1-3.71-3.16-5.57-.76,3.78,1.56,7.83,5.17,9.16-1.04-1.86-2.1-3.71-3.16-5.57-.81,3.44-.77,7.09.39,10.45,1.45-1.91,2.91-3.82,4.36-5.73,1.06.16,1.31.19.75.08-.69-.22-.42-.02.82.58.32.46.35.49.09.08-.52-.86.29.8.14.4-1.61-4.28-7.13-4.31-8.72,0-.12.33-.4.91.24-.55-.14.33-.31.64-.49.95-.08.14-.16.28-.25.42-.5.78.7-.81.09-.14-.06.06-.12.11-.17.16.34-.36.76-.6,1.25-.72,1.44-.53,2.86.42,3.68,1.54.29.79.36.95.22.5.34,1.15.07.78.06.27,0-.25.02-.51.05-.76-.14,1.42-.07.57,0,.23.1-.5.24-1,.4-1.48,1.06-3.08-2.39-6.79-5.57-5.57-.38.15-.79.26-1.19.35-1.19.29.79-.04-.05.01-.17,0-.35,0-.51-.01.83.04,1.23.31,1.85.81.54.56.81,1.26.82,2.08-.15.79-.17.95-.04.46-.31.67-.34.79-.11.36.48-.84-.68.78-.06.06.39-.45,2.08-1.78.24-.37,1.31-1,2.23-2.16,2.23-3.91,0-1.93-1.37-3.92-3.31-4.36-.47-.1-.94-.24-1.4-.4-1.12-.39.87.45-.24-.11-.21-.11-.42-.23-.61-.36.18.14.37.28.55.42-.32-.33-.23-.18.29.45.98,1.37.2,3.49-1.11,4.32-.92.59-.77.29-.24.17-1.31.29-.65.09-.24.08.43-.02.87.02,1.3.07-1.66-.18-.89-.13-.5-.06,2.02.39,4.02-.23,5.11-2.07,1.12-1.93.55-3.85-.71-5.48.58.78.7.92.37.42-.24-.43-.25-.44-.02-.01-.72-2.36-3.13-3.83-5.57-3.16-2.33.64-3.88,3.21-3.16,5.56Z"/>
      </g>
      <path class="st10" d="M48.01,302.91c.17.81.81,1.59.81,1.59,0,0-4.17-.84-4.51,1.15-.33,1.99,4.3,3,4.3,3,0,0-3.08,2.32-2.08,4.12,1.02,1.81,4.61.39,4.61.39,0,0-1.56,4.47.31,5.23,1.89.75,3.34-3.24,3.34-3.24,0,0,.33.95.93,1.52.59.57,1.63.66,1.63.66,0,0-.79-2.25-.8-4.24-.02-2,.42-3.79.42-3.79,0,0-.76-.24-1.48-1.53-.72-1.29-.53-2.07-.53-2.07,0,0-1.77-.56-3.46-1.62-1.69-1.05-3.19-2.9-3.19-2.9,0,0-.47.93-.29,1.73Z"/>
      <g>
        <path class="st14" d="M53.85,315.67s-.67,1.85-1.69,2.79c.85-.16,1.57-1.17,2.04-2.04-.23-.4-.35-.76-.35-.76Z"/>
        <path class="st14" d="M47.42,304.34c-.98-.05-2.22.03-2.81.67,1.34-.37,3.26.02,3.26.02,0,0-.24-.28-.46-.69Z"/>
        <path class="st14" d="M47.97,302.41c.59.63,1.56,1.56,2.58,2.2,1.7,1.06,3.46,1.62,3.46,1.62,0,0-.2.77.53,2.06s1.48,1.53,1.48,1.53c0,0-.45,1.8-.43,3.8.01,1.21.31,2.51.54,3.35.57.3,1.21.36,1.21.36,0,0-.79-2.25-.8-4.24-.02-2,.42-3.79.42-3.79,0,0-.76-.24-1.48-1.53-.72-1.29-.53-2.07-.53-2.07,0,0-1.77-.56-3.46-1.62-1.69-1.05-3.19-2.9-3.19-2.9,0,0-.29.58-.33,1.23Z"/>
      </g>
    </g>
    <g>
      <g>
        <path class="st10" d="M111.14,82.84c-20.38,0-36.9-16.52-36.9-36.9S90.76,9.04,111.14,9.04s36.89,16.51,36.89,36.9-16.52,36.9-36.89,36.9Z"/>
        <path d="M111.14,73.79c-1.67-.01-3.35-.12-5.01-.34.8.11,1.6.21,2.4.32-3.22-.46-6.34-1.31-9.35-2.56.72.3,1.44.6,2.16.91-2.92-1.26-5.66-2.86-8.19-4.79.61.47,1.22.95,1.84,1.41-2.49-1.94-4.72-4.17-6.67-6.66.47.61.95,1.22,1.42,1.83-1.93-2.52-3.54-5.26-4.79-8.19.3.73.61,1.44.91,2.16-1.25-3-2.11-6.13-2.56-9.36.11.8.22,1.6.32,2.41-.43-3.34-.43-6.69,0-10.02-.1.81-.21,1.61-.32,2.41.45-3.22,1.31-6.35,2.56-9.36-.3.72-.61,1.44-.91,2.17,1.25-2.93,2.86-5.66,4.79-8.19-.47.61-.95,1.22-1.42,1.83,1.95-2.49,4.17-4.72,6.67-6.67-.61.48-1.22.95-1.84,1.42,2.53-1.94,5.26-3.53,8.19-4.78-.72.3-1.44.61-2.16.91,3.01-1.25,6.13-2.11,9.35-2.56-.8.11-1.6.21-2.4.33,3.33-.44,6.68-.44,10.02,0-.8-.12-1.6-.22-2.4-.33,3.22.45,6.35,1.31,9.35,2.56-.72-.3-1.44-.61-2.15-.91,2.91,1.25,5.65,2.85,8.17,4.78-.61-.47-1.22-.94-1.82-1.42,2.48,1.95,4.72,4.17,6.66,6.67-.47-.61-.94-1.22-1.41-1.83,1.93,2.53,3.53,5.26,4.78,8.19-.3-.72-.6-1.44-.91-2.17,1.25,3.01,2.11,6.14,2.56,9.36-.1-.79-.21-1.6-.32-2.41.44,3.34.44,6.69,0,10.02.12-.8.22-1.61.32-2.41-.45,3.22-1.3,6.35-2.56,9.36.31-.72.61-1.43.91-2.16-1.25,2.92-2.85,5.66-4.78,8.18.47-.61.94-1.22,1.41-1.83-1.94,2.49-4.17,4.72-6.66,6.66.61-.47,1.22-.94,1.82-1.41-2.52,1.93-5.26,3.54-8.17,4.79.71-.3,1.43-.61,2.15-.91-3,1.25-6.14,2.1-9.35,2.56.8-.11,1.6-.21,2.4-.32-1.66.22-3.33.32-5,.34-4.93.02-9.05,4.1-9.05,9.04s4.12,9.07,9.05,9.05c13.47-.06,26.95-6.12,35.4-16.74,4.39-5.54,7.73-11.75,9.32-18.69,1.65-7.16,1.55-14.58-.17-21.73-3.08-12.86-12.43-24.39-24.38-30.05C124.76,1.58,117.7-.1,110.41,0c-7.25.1-14.24,2.01-20.68,5.28-11.81,6-20.76,17.88-23.47,30.81-1.5,7.19-1.37,14.61.48,21.72,1.78,6.86,5.32,12.99,9.85,18.38,8.41,10.01,21.58,15.63,34.54,15.69,4.93.02,9.05-4.13,9.05-9.05s-4.12-9.02-9.05-9.04Z"/>
      </g>
      <path class="st12" d="M111.14,82.84c-20.38,0-36.9-16.52-36.9-36.9S90.76,9.04,111.14,9.04s36.89,16.51,36.89,36.9-16.52,36.9-36.89,36.9Z"/>
      <path class="st6" d="M82.98,45.9c0-18.89,14.2-34.45,32.52-36.62-1.43-.16-2.89-.27-4.36-.27-20.38,0-36.9,16.52-36.9,36.89s16.52,36.9,36.9,36.9c1.47,0,2.93-.11,4.36-.28-18.32-2.17-32.52-17.72-32.52-36.62Z"/>
      <path class="st16" d="M139.3,45.9c0-18.9-14.23-34.45-32.54-36.63,1.44-.16,2.88-.27,4.38-.27,20.38,0,36.89,16.52,36.89,36.9s-16.52,36.89-36.89,36.89c-1.5,0-2.94-.11-4.38-.28,18.31-2.17,32.54-17.72,32.54-36.61Z"/>
    </g>
    <g>
      <g>
        <path class="st10" d="M181.7,96.65s0-9.79-2.69-14.31c-2.68-4.52-6.24-6.88-6.24-6.88,0,0,7.64-13.74-.54-23.78-8.17-10.04-23.35-3.33-23.35-3.33,0,0-.29-4.12-5.13-6.71-4.84-2.58-9.94-.29-9.94-.29,0,0-3.99-15.47-22.68-15.47s-22.7,15.47-22.7,15.47c0,0-5.09-2.29-9.93.29-4.84,2.58-5.13,6.71-5.13,6.71,0,0-15.16-6.71-23.35,3.33-8.17,10.04-.53,23.78-.53,23.78,0,0-3.56,2.36-6.25,6.88-2.68,4.52-2.68,14.31-2.68,14.31,0,0,15.64-32.27,70.56-32.27s70.57,32.27,70.57,32.27Z"/>
        <path d="M190.75,96.65c-.02-4.47-.5-9.12-1.69-13.43-1.74-6.35-6.31-11.92-11.73-15.58,1.08,4.13,2.17,8.26,3.25,12.38,1.86-3.37,3.22-7.26,3.84-11.05.72-4.32.77-8.21-.08-12.53-.86-4.4-3.27-8.37-6.19-11.71-7.57-8.67-21.33-9.29-31.43-5.21-.81.33-1.61.66-2.41,1.02,4.54,2.6,9.08,5.2,13.61,7.81-.47-6-3.84-10.82-8.86-14.08-5.97-3.9-13.54-3.49-19.81-.72,4.43,1.8,8.86,3.6,13.29,5.41-1.86-7.14-7.22-13.42-13.32-17.3-5.72-3.66-12.93-5.06-19.64-4.78-6.38.27-13.09,2.03-18.23,5.96-5.28,4.04-9.91,9.54-11.64,16.12,4.43-1.81,8.86-3.61,13.29-5.41-6.33-2.79-13.27-2.94-19.45.5-5.28,2.93-8.75,8.34-9.22,14.3,4.54-2.61,9.08-5.2,13.61-7.81-3.88-1.71-7.63-2.63-11.85-3.19-6.12-.81-13.12.36-18.15,4.11-1.69,1.26-3.26,2.5-4.57,4.15-1.99,2.5-3.3,4.74-4.49,7.7-1.35,3.32-1.81,7.12-1.64,10.68.25,5.49,1.79,10.77,4.24,15.66.07.13.13.25.2.37,1.08-4.12,2.16-8.25,3.24-12.38-5.38,3.62-9.72,9.05-11.64,15.27-.95,3.09-1.28,6.41-1.56,9.61-.12,1.37-.21,2.75-.21,4.13,0,4.02,2.77,7.66,6.64,8.72,3.68,1.01,8.46-.55,10.22-4.16.9-1.86,2.16-3.57,3.41-5.19-.47.61-.94,1.22-1.41,1.83,3-3.87,6.55-7.29,10.41-10.29-.61.48-1.22.94-1.83,1.42,4.96-3.83,10.43-6.93,16.2-9.38-.72.3-1.44.61-2.16.91,7.69-3.23,15.82-5.25,24.07-6.36-.81.1-1.61.21-2.41.32,10.89-1.43,22.04-1.43,32.93,0-.8-.11-1.6-.22-2.4-.32,8.26,1.11,16.38,3.13,24.07,6.36-.72-.3-1.44-.61-2.16-.91,5.76,2.45,11.24,5.55,16.2,9.38-.61-.47-1.22-.94-1.83-1.42,3.86,3,7.41,6.43,10.41,10.29-.47-.61-.94-1.22-1.41-1.83,1.25,1.62,2.52,3.33,3.42,5.19,2.15,4.43,8.37,5.6,12.38,3.25,4.49-2.64,5.4-7.95,3.25-12.38-1.33-2.72-3.37-5.18-5.23-7.53-4.21-5.31-9.5-9.73-15.08-13.55-8.27-5.67-17.87-9.6-27.56-12.08-13.45-3.43-27.73-4.29-41.52-3.14-20.86,1.75-41.67,8.55-57.07,23.24-3.08,2.93-5.81,6.23-8.24,9.71-.76,1.07-1.5,2.18-2.07,3.35,5.62,1.53,11.24,3.04,16.86,4.57,0-2.19.18-4.38.47-6.55-.11.8-.21,1.6-.32,2.4.31-2.22.74-4.43,1.59-6.5-.3.72-.61,1.44-.91,2.16.54-1.24,1.29-2.36,2.11-3.44-.47.61-.95,1.22-1.41,1.83,1.23-1.6,2.63-3.06,4.22-4.31-.61.47-1.22.94-1.83,1.41.18-.13.35-.27.54-.39,4.16-2.8,5.74-7.85,3.24-12.37-.34-.62-.62-1.26-.9-1.9.31.72.61,1.44.92,2.16-1.03-2.45-1.76-5-2.12-7.62.1.8.21,1.61.32,2.41-.24-1.9-.28-3.8-.06-5.7-.1.81-.21,1.6-.32,2.41.21-1.56.6-3.06,1.19-4.53-.3.72-.6,1.44-.91,2.16.57-1.33,1.29-2.55,2.17-3.71-.47.61-.95,1.22-1.42,1.83.81-1.02,1.71-1.94,2.75-2.74-.61.46-1.23.94-1.84,1.41.95-.71,1.95-1.29,3.03-1.77-.72.3-1.44.61-2.16.91,1.41-.59,2.86-.96,4.37-1.18-.8.11-1.6.21-2.4.32,2.06-.26,4.13-.2,6.18.07-.8-.11-1.6-.21-2.4-.32,2.45.35,4.89.95,7.18,1.9-.72-.3-1.44-.6-2.16-.91.03.01.06.02.1.04,1.41.81,2.94,1.23,4.57,1.23,1.63,0,3.15-.42,4.57-1.23,2.92-1.71,4.22-4.55,4.48-7.81,0-.04,0-.09.01-.13-.1.8-.21,1.6-.32,2.4.09-.59.27-1.16.5-1.72-.31.72-.61,1.44-.91,2.16.32-.73.72-1.41,1.2-2.04-.47.61-.94,1.22-1.41,1.83.51-.62,1.07-1.18,1.7-1.69-.61.47-1.22.94-1.84,1.41.81-.61,1.66-1.12,2.58-1.52-.72.3-1.44.61-2.16.91.83-.33,1.66-.56,2.54-.7-.8.1-1.6.21-2.4.32,1.13-.15,2.26-.14,3.39,0-.8-.11-1.6-.21-2.41-.32,1.06.15,2.11.39,3.1.8-.72-.31-1.44-.61-2.16-.92.02.01.04.02.05.02,2.33,1.03,4.42,1.62,6.97.92,3.01-.83,5.51-3.28,6.32-6.32.16-.62.4-1.22.65-1.8-.31.72-.61,1.44-.92,2.16.77-1.79,1.77-3.48,2.97-5.03-.48.61-.95,1.22-1.42,1.83,1.13-1.45,2.43-2.75,3.87-3.88-.61.47-1.22.95-1.82,1.41,1.51-1.15,3.16-2.1,4.91-2.85-.72.31-1.44.61-2.16.91,1.99-.81,4.06-1.35,6.2-1.65-.8.11-1.61.21-2.41.32,2.74-.35,5.49-.35,8.22,0-.8-.1-1.6-.21-2.41-.32,2.14.3,4.2.83,6.2,1.65-.72-.3-1.44-.6-2.17-.91,1.75.74,3.39,1.69,4.91,2.85-.61-.47-1.22-.94-1.83-1.41,1.45,1.14,2.74,2.44,3.87,3.88-.47-.61-.94-1.22-1.42-1.83,1.2,1.55,2.19,3.23,2.95,5.03-.3-.72-.6-1.44-.91-2.16.25.58.49,1.19.65,1.8.59,2.26,2.15,4.23,4.16,5.4,1.41.82,2.93,1.23,4.56,1.24,1.64,0,3.16-.42,4.57-1.24.02,0,.03-.01.05-.02-.72.31-1.44.61-2.15.92.98-.41,2.04-.65,3.09-.8-.8.1-1.6.21-2.4.32,1.14-.13,2.26-.14,3.39,0-.8-.11-1.6-.22-2.4-.32.87.14,1.71.37,2.54.7-.72-.31-1.44-.61-2.17-.91.93.41,1.77.91,2.58,1.52-.61-.47-1.22-.95-1.83-1.41.62.51,1.18,1.06,1.69,1.69-.47-.61-.94-1.22-1.41-1.83.48.63.88,1.31,1.2,2.04-.3-.72-.61-1.44-.91-2.16.22.56.4,1.13.49,1.72-.1-.8-.21-1.6-.32-2.4,0,.04,0,.09.01.13.26,3.26,1.56,6.11,4.48,7.81,1.41.81,2.93,1.23,4.57,1.23,1.63,0,3.16-.42,4.56-1.23.03-.02.07-.03.11-.04-.73.3-1.45.61-2.17.91,2.28-.95,4.73-1.55,7.18-1.9-.8.11-1.6.22-2.41.32,2.06-.27,4.13-.33,6.19-.07-.8-.11-1.6-.22-2.41-.32,1.51.21,2.97.59,4.38,1.18-.72-.31-1.44-.61-2.16-.91,1.07.47,2.08,1.06,3.02,1.77-.61-.47-1.22-.95-1.83-1.41,1.03.8,1.93,1.71,2.75,2.74-.48-.61-.95-1.22-1.42-1.83.87,1.15,1.59,2.38,2.17,3.71-.3-.72-.61-1.44-.91-2.16.59,1.46.98,2.96,1.19,4.53-.11-.8-.21-1.6-.32-2.41.23,1.9.19,3.8-.06,5.7.1-.8.21-1.6.32-2.41-.37,2.62-1.1,5.17-2.13,7.62.31-.72.61-1.44.91-2.16-.27.64-.56,1.29-.9,1.9-2.5,4.52-.91,9.57,3.25,12.37.19.13.36.26.54.39-.61-.47-1.22-.94-1.84-1.41,1.59,1.24,3,2.71,4.23,4.31-.47-.61-.95-1.22-1.42-1.83.81,1.08,1.57,2.2,2.11,3.44-.31-.72-.61-1.44-.91-2.16.85,2.07,1.28,4.28,1.59,6.5-.11-.8-.22-1.6-.32-2.4.29,2.17.47,4.37.47,6.55,0,4.93,4.11,9.05,9.05,9.05s9.06-4.11,9.05-9.05Z"/>
      </g>
      <path class="st10" d="M181.7,96.65s0-9.79-2.69-14.31c-2.68-4.52-6.24-6.88-6.24-6.88,0,0,7.64-13.74-.54-23.78-8.17-10.04-23.35-3.33-23.35-3.33,0,0-.29-4.12-5.13-6.71-4.84-2.58-9.94-.29-9.94-.29,0,0-3.99-15.47-22.68-15.47s-22.7,15.47-22.7,15.47c0,0-5.09-2.29-9.93.29-4.84,2.58-5.13,6.71-5.13,6.71,0,0-15.16-6.71-23.35,3.33-8.17,10.04-.53,23.78-.53,23.78,0,0-3.56,2.36-6.25,6.88-2.68,4.52-2.68,14.31-2.68,14.31,0,0,15.64-32.27,70.56-32.27s70.57,32.27,70.57,32.27Z"/>
    </g>
    <g>
      <g>
        <path class="st0" d="M139.65,269.92h-57.02s-11.14,61.8-3.57,64.45c7.57,2.64,14.6-9.42,14.6-9.42h34.96s7.03,12.07,14.59,9.42c7.58-2.65-3.56-64.45-3.56-64.45Z"/>
        <path d="M139.65,266.05h-57.02c-1.61,0-3.44,1.17-3.74,2.84-2.18,12.11-3.95,24.31-5.24,36.54-.77,7.38-1.56,14.99-.91,22.41.21,2.51.51,5.53,1.99,7.67,2.97,4.31,9.05,3.52,13.05,1.18,3.81-2.22,7.03-6.02,9.23-9.8-1.12.65-2.23,1.28-3.35,1.92h34.96c-1.11-.64-2.23-1.28-3.34-1.92,1.71,2.93,4,5.73,6.62,7.9,3.9,3.23,10.22,5.74,14.65,1.96,2.07-1.77,2.51-4.98,2.85-7.5.42-3.12.39-6.29.29-9.43-.25-8.35-1.22-16.7-2.31-24.99-.95-7.23-2.03-14.44-3.23-21.62-.25-1.44-.49-2.89-.76-4.34-.38-2.08-2.87-3.23-4.76-2.71-2.18.6-3.09,2.7-2.71,4.77.68,3.8,1.29,7.62,1.89,11.43.59,3.83,1.16,7.65,1.67,11.49.13.89-.13-.93,0-.04.03.25.06.51.1.76.07.51.13,1.02.2,1.53.14,1.11.28,2.23.42,3.34.26,2.15.5,4.32.72,6.48.75,7.32,1.54,14.87.84,22.23-.03.32-.07.63-.1.94.19-1.55.04-.38-.02-.02-.1.55-.21,1.1-.37,1.63-.06.21-.13.43-.21.64-.26.71.5-1.08.11-.29-.08.16-.17.31-.27.46-.35.54.84-.92.21-.31-.46.44,1.02-.68.39-.32,1.09-.62.69-.25-.13-.05-.92.22.88-.06-.05,0-.27.02-.54,0-.8,0-.92-.06.89.16-.02-.02-.35-.07-.69-.18-1.03-.29-.88-.29.78.37-.08-.03-.25-.11-.49-.25-.73-.38-.48-.28-.95-.6-1.4-.92.81.59.05.03-.1-.09-.22-.18-.43-.37-.63-.55-.48-.43-.93-.89-1.37-1.36-.36-.38-.7-.77-1.03-1.17-.16-.19-.31-.38-.47-.57-.53-.66.54.71.05.06-.46-.61-.89-1.24-1.31-1.88-.98-1.51-2.18-2.59-4.13-2.59h-32.71c-1.99,0-4.04-.13-5.24,1.92-.55.95-1.2,1.85-1.86,2.73.77-1.02-.25.29-.46.53-.33.41-.69.79-1.05,1.18-.38.4-.79.78-1.18,1.16-.21.18-.42.37-.64.55-.14.12-.28.24-.43.36.42-.32.45-.35.11-.11-.45.32-.93.62-1.41.88-.24.14-.49.25-.74.36.94-.43.13-.07-.09,0-.25.09-.51.15-.77.21-.91.21.9-.07-.03.02-.26.02-.53.01-.8,0-.43-.04-.36-.02.22.05-.19-.03-.36-.07-.54-.12-.21-.04-.41-.11-.61-.19,1.31.5.99.46.69.28-.54-.31.93.83.39.3-.55-.54.64.91.26.36-.12-.17-.22-.36-.31-.55-.32-.65.44,1.14.12.27-.08-.21-.14-.43-.21-.65-.15-.55-.26-1.1-.36-1.66-.03-.14-.05-.28-.07-.43-.1-.65.14,1.1.06.43-.04-.31-.07-.63-.1-.95-.08-.75-.12-1.51-.15-2.26-.34-7.8.51-15.68,1.39-23.43.25-2.15.51-4.3.79-6.45.06-.5.13-1.01.2-1.52.03-.25.06-.51.1-.76-.16,1.16-.03.27,0,.03.15-1.06.29-2.12.45-3.19.51-3.6,1.06-7.19,1.63-10.77.47-2.9.94-5.81,1.47-8.71-1.25.95-2.49,1.9-3.74,2.85h57.02c5,0,5-7.75,0-7.75Z"/>
      </g>
      <g>
        <g>
          <path class="st11" d="M137.65,267.14h-53.02l-11.45,51.94s11.88,5.4,36.59,5.4,39.33-5.4,39.33-5.4l-11.44-51.94Z"/>
          <path d="M137.65,260.03h-53.02c-3.04,0-6.18,2.15-6.85,5.22-2.73,12.37-5.46,24.74-8.18,37.12-1.09,4.94-2.18,9.88-3.27,14.83-.63,2.88.31,6.68,3.27,8.03,5.71,2.59,11.98,3.86,18.16,4.76,15.1,2.21,30.34,2,45.44-.1,5.95-.82,12.13-1.87,17.79-3.95,3.78-1.39,5.85-4.71,4.97-8.74-2.73-12.38-5.46-24.74-8.18-37.12-1.08-4.94-2.18-9.88-3.26-14.83-.84-3.79-5.16-5.95-8.75-4.97-3.87,1.07-5.8,4.96-4.96,8.75,2.73,12.37,5.45,24.74,8.17,37.12,1.08,4.95,2.18,9.89,3.27,14.83,1.66-2.92,3.31-5.82,4.96-8.75-1.59.59-3.26,1.03-4.9,1.46-1.96.51-3.94.94-5.92,1.33-1.2.24-2.4.45-3.61.65-.66.12-1.32.21-1.98.31-.35.06-.69.1-1.04.16-1.89.27,1.39-.18.1-.01-7.31.96-14.7,1.32-22.08,1.25-3.72-.04-7.44-.22-11.14-.54-1.52-.13-3.05-.29-4.57-.47-.36-.05-.72-.09-1.07-.14,2.4.31,1.05.14.52.06-.76-.11-1.51-.23-2.26-.35-3.55-.58-7.08-1.35-10.52-2.4-.91-.28-1.82-.58-2.72-.92-.23-.08-.44-.17-.68-.26-.75-.31,2.23.96,1.42.59,1.09,2.68,2.18,5.35,3.27,8.03,2.73-12.37,5.45-24.75,8.17-37.11,1.09-4.95,2.18-9.89,3.27-14.83-2.29,1.74-4.57,3.48-6.85,5.22h53.02c3.87,0,7.11-3.23,7.11-7.11s-3.24-7.11-7.11-7.11Z"/>
        </g>
        <polygon class="st4" points="137.65 267.14 111.25 267.14 111.03 267.14 84.62 267.14 73.18 319.08 149.09 319.08 137.65 267.14"/>
      </g>
    </g>
    <path class="st4" d="M146.63,307.91h-70.98l-2.47,11.18s11.67,5.49,38.72,5.49,37.19-5.49,37.19-5.49l-2.46-11.18Z"/>
    <g>
      <rect class="st9" x="74.86" y="304.26" width="72.55" height="3.65"/>
      <path d="M147.41,305.32h-72.55c.87.86,1.73,1.72,2.59,2.59v-3.65c-.86.86-1.72,1.71-2.59,2.58h72.55c-.86-.87-1.73-1.72-2.59-2.58v3.65c0,3.33,5.17,3.33,5.17,0v-3.65c0-1.41-1.18-2.59-2.58-2.59h-72.55c-1.41,0-2.58,1.18-2.58,2.59v3.65c0,1.41,1.17,2.58,2.58,2.58h72.55c3.33,0,3.33-5.17,0-5.17Z"/>
    </g>
    <g>
      <path class="st10" d="M142.81,305.75h-63.8l-2.21,10.04s10.48,4.94,34.8,4.94,33.43-4.94,33.43-4.94l-2.22-10.04Z"/>
      <path d="M142.81,304.45h-63.8c-.55,0-1.13.39-1.25.95-.74,3.36-1.47,6.7-2.21,10.05-.12.53.05,1.21.59,1.46,4.99,2.34,10.88,3.2,16.27,3.92,13.32,1.79,27.22,1.8,40.49-.37,4.21-.69,8.95-1.5,12.77-3.55.53-.28.72-.91.59-1.46-.74-3.35-1.47-6.7-2.22-10.05-.35-1.62-2.85-.93-2.49.69.73,3.35,1.47,6.7,2.22,10.04.2-.48.39-.97.59-1.46-.2.11-.94.43-.62.3-.91.38-1.84.69-2.78.99-3.84,1.21-7.85,1.94-11.83,2.46-7.11.92-14.32,1.13-21.48.97-6.32-.13-12.65-.63-18.88-1.71-2.95-.52-5.89-1.17-8.76-2.07-.72-.22-1.44-.47-2.15-.75-.2-.08-.66-.27-.24-.1-.06-.02-.13-.05-.18-.08.2.49.39.98.59,1.46.74-3.35,1.48-6.7,2.22-10.04-.42.32-.83.63-1.25.95h63.8c1.67,0,1.67-2.59,0-2.59Z"/>
    </g>
    <polygon class="st3" points="82.59 276.33 77 301.71 107.66 301.71 80.01 299.59 84.6 277.19 82.59 276.33"/>
    <polygon class="st3" points="139.62 276.33 145.22 301.71 114.56 301.71 142.22 299.59 137.63 277.19 139.62 276.33"/>
    <g>
      <path class="st2" d="M164.15,338.57c0,1.56-23.74,2.83-53.01,2.83s-53.01-1.26-53.01-2.83,23.73-2.83,53.01-2.83,53.01,1.26,53.01,2.83Z"/>
      <path d="M111.14,342.61c-54.22,0-54.22-3.04-54.22-4.04s0-4.04,54.22-4.04,54.22,3.05,54.22,4.04,0,4.04-54.22,4.04ZM63.04,338.57c7.66.88,25.14,1.62,48.1,1.62s40.44-.75,48.1-1.62c-7.65-.87-25.14-1.62-48.1-1.62s-40.45.75-48.1,1.62Z"/>
    </g>
    <g>
      <g>
        <path class="st11" d="M80.23,262.74l3.2,7.06,5.05-1.55-1.35,5.68s2.82,2.54,7.81,4.14c4.99,1.61,12.13,1.02,12.13,1.02l-21.73-20.99-5.1,4.62Z"/>
        <path d="M75.21,265.68c1.07,2.35,2.14,4.71,3.2,7.05,1.04,2.3,4.28,3.38,6.57,2.68,1.69-.51,3.37-1.03,5.04-1.55-2.38-2.38-4.77-4.76-7.15-7.15-.45,1.89-.91,3.79-1.35,5.68-.47,1.95-.07,4.26,1.5,5.66,6.46,5.77,15.62,7.53,24.05,6.87,2.09-.17,3.92-1,5.02-2.88,1.3-2.22.96-5.24-.9-7.05-7.25-7-14.49-13.99-21.74-20.98-2.37-2.29-5.85-2.16-8.23,0-1.7,1.54-3.4,3.08-5.1,4.62-2.34,2.13-2.15,6.07,0,8.23,2.33,2.31,5.88,2.12,8.23,0,1.7-1.55,3.39-3.09,5.1-4.63h-8.23c7.25,7,14.48,13.99,21.73,20.99,1.37-3.31,2.74-6.62,4.12-9.92-1.03.08-2.05.1-3.07.1-1.03,0-2.05-.03-3.07-.09-.51-.04-1.01-.09-1.51-.13-.64-.08-.51-.06.4.06-.38-.06-.76-.13-1.14-.2-1.2-.22-2.36-.58-3.5-1.01-.61-.25-.55-.21.19.1-.25-.12-.49-.22-.73-.34-.55-.26-1.08-.55-1.61-.84-.7-.39-1.39-.84-2.05-1.3-1-.72,1.21.97.45.36-.06-.06-.13-.11-.19-.17.5,1.89.99,3.78,1.49,5.66.45-1.9.9-3.79,1.35-5.69,1-4.17-2.76-8.49-7.15-7.15-1.69.51-3.37,1.03-5.05,1.54,2.19.9,4.38,1.78,6.57,2.67-1.07-2.36-2.14-4.71-3.2-7.06-1.3-2.89-5.43-3.57-7.95-2.09-2.94,1.73-3.39,5.07-2.09,7.96Z"/>
      </g>
      <path class="st10" d="M80.23,262.74l3.2,7.06,5.05-1.55-1.35,5.68s2.82,2.54,7.81,4.14c4.99,1.61,12.13,1.02,12.13,1.02l-21.73-20.99-5.1,4.62Z"/>
      <path class="st14" d="M96.55,276.48c-4.99-1.6-7.81-4.14-7.81-4.14l1.36-5.68-5.05,1.54-3.15-6.96-1.66,1.51,3.2,7.06,5.05-1.55-1.35,5.68s2.82,2.54,7.81,4.14c4.99,1.61,12.13,1.02,12.13,1.02l-1.57-1.51c-2.52,0-6.08-.2-8.95-1.12Z"/>
    </g>
    <path class="st8" d="M83.91,259.54l7.31,7.07c.17.39.35.77.54,1.15,2.26,4.53,6.13,7.83,10.64,9.64l1.88,1.81c1.67,0,2.79-.1,2.79-.1l-3.26-3.14c-4.5-1.81-8.37-5.11-10.63-9.63-.2-.38-.37-.77-.54-1.15l-7.31-7.06-5.1,4.62.04.09,3.64-3.3Z"/>
    <path class="st14" d="M105.48,277.6c-.9,0-1.92-.03-3-.11l1.78,1.71h.06c.4,0,.75,0,1.07-.02h.01c.75-.02,1.28-.06,1.52-.07h.02s.04,0,.05,0h.04s.02,0,.02,0l-1.57-1.51Z"/>
    <g>
      <g>
        <g>
          <path class="st11" d="M143.25,262.74l-3.2,7.06-5.04-1.55,1.35,5.68s-2.82,2.54-7.81,4.14c-4.99,1.61-12.13,1.02-12.13,1.02l21.74-20.99,5.1,4.62Z"/>
          <path d="M138.22,259.81c-1.07,2.36-2.13,4.71-3.2,7.06,2.19-.89,4.38-1.78,6.56-2.67-1.68-.51-3.37-1.03-5.05-1.54-4.39-1.34-8.15,2.98-7.15,7.15.45,1.9.89,3.79,1.35,5.69.5-1.89,1-3.78,1.5-5.66-.04.04-.08.08-.13.11-.84.7,1.24-.93.55-.41-.61.46-1.26.87-1.93,1.26-.39.24-.8.45-1.2.66-.33.17-2.31,1.02-.82.42-1.14.47-2.32.82-3.53,1.09-.51.11-1.01.19-1.52.27,1.85-.29-.32.01-.73.04-1.04.09-2.09.12-3.14.13-1.13.01-2.25,0-3.38-.1,1.37,3.31,2.74,6.62,4.11,9.92,7.25-7,14.49-13.99,21.74-20.99h-8.22c1.7,1.54,3.39,3.08,5.09,4.63,2.35,2.12,5.91,2.31,8.23,0,2.17-2.16,2.35-6.1,0-8.23-1.7-1.54-3.39-3.08-5.1-4.62-2.38-2.16-5.87-2.29-8.22,0-7.25,6.99-14.49,13.99-21.74,20.98-1.48,1.44-2.04,3.69-1.49,5.66.73,2.64,3,4.06,5.61,4.27,8.43.66,17.59-1.1,24.05-6.87,1.56-1.4,1.96-3.71,1.5-5.66-.45-1.89-.91-3.79-1.36-5.68-2.38,2.38-4.77,4.77-7.15,7.15,1.68.51,3.36,1.03,5.04,1.55,2.29.7,5.53-.38,6.56-2.68,1.07-2.35,2.14-4.71,3.21-7.05,1.3-2.89.86-6.23-2.09-7.96-2.52-1.48-6.64-.8-7.96,2.09Z"/>
        </g>
        <path class="st10" d="M143.25,262.74l-3.2,7.06-5.04-1.55,1.35,5.68s-2.82,2.54-7.81,4.14c-4.99,1.61-12.13,1.02-12.13,1.02l21.74-20.99,5.1,4.62Z"/>
        <path class="st14" d="M126.93,276.48c4.99-1.6,7.81-4.14,7.81-4.14l-1.34-5.68,5.03,1.54,3.15-6.96,1.67,1.51-3.2,7.06-5.04-1.55,1.35,5.68s-2.82,2.54-7.81,4.14c-4.99,1.61-12.13,1.02-12.13,1.02l1.56-1.51c2.52,0,6.09-.2,8.95-1.12Z"/>
      </g>
      <path class="st8" d="M139.57,259.54l-7.31,7.07c-.17.39-.35.77-.54,1.15-2.26,4.53-6.14,7.83-10.64,9.64l-1.88,1.81c-1.67,0-2.79-.1-2.79-.1l3.25-3.14c4.5-1.81,8.38-5.11,10.63-9.63.19-.38.37-.77.54-1.15l7.31-7.06,5.1,4.62-.05.09-3.63-3.3Z"/>
      <path class="st14" d="M117.99,277.6c.89,0,1.92-.03,3-.11l-1.78,1.71h-.07c-.39,0-.74,0-1.06-.02h-.01c-.75-.02-1.29-.06-1.52-.07h-.02s-.03,0-.05,0h-.04s-.02,0-.02,0l1.57-1.51Z"/>
    </g>
    <g>
      <path class="st0" d="M129.51,256.64c0,9.8-7.94,17.74-17.75,17.74s-17.74-7.94-17.74-17.74,7.95-17.74,17.74-17.74,17.75,7.94,17.75,17.74Z"/>
      <path d="M126.29,256.64c-.06,5.19-2.74,9.87-7.19,12.53-4.49,2.69-10.15,2.58-14.65,0-4.48-2.56-7.14-7.42-7.19-12.53-.05-5.15,2.81-9.91,7.19-12.53,4.49-2.68,10.15-2.57,14.65,0,4.47,2.57,7.13,7.43,7.19,12.53.03,4.16,6.49,4.17,6.46,0-.06-6.26-2.85-12.35-7.78-16.28-5.18-4.12-11.82-5.58-18.27-4.07-5.97,1.39-11.21,5.76-13.83,11.26-2.85,6-2.64,12.87.31,18.78,4.3,8.63,14.46,12.8,23.67,10.66,9.3-2.17,15.8-10.95,15.9-20.36.04-4.17-6.42-4.17-6.46,0Z"/>
    </g>
    <g>
      <g>
        <g>
          <path class="st11" d="M40.84,201.14c0,8.57-6.94,15.51-15.51,15.51s-15.51-6.94-15.51-15.51,6.95-15.51,15.51-15.51,15.51,6.95,15.51,15.51Z"/>
          <path d="M31.8,201.14c-.01.72-.06,1.43-.15,2.14.11-.81.21-1.61.32-2.41-.2,1.38-.57,2.7-1.1,3.98.31-.72.61-1.44.91-2.17-.55,1.25-1.24,2.4-2.07,3.48.47-.61.94-1.22,1.41-1.83-.78.96-1.64,1.82-2.6,2.6.61-.47,1.22-.95,1.82-1.42-1.07.83-2.22,1.51-3.47,2.07.72-.3,1.44-.61,2.16-.91-1.28.54-2.6.9-3.98,1.11.8-.11,1.61-.22,2.41-.32-1.43.18-2.84.18-4.27,0,.8.1,1.6.21,2.4.32-1.37-.21-2.69-.57-3.98-1.11.72.3,1.44.61,2.16.91-1.24-.55-2.4-1.24-3.47-2.07.61.47,1.22.95,1.83,1.42-.96-.78-1.83-1.64-2.6-2.6.47.61.94,1.22,1.42,1.83-.84-1.08-1.52-2.23-2.07-3.48.3.72.61,1.44.91,2.17-.54-1.29-.91-2.61-1.1-3.98.1.8.21,1.6.32,2.41-.18-1.43-.18-2.85,0-4.27-.11.8-.21,1.6-.32,2.41.2-1.38.57-2.7,1.1-3.98-.31.72-.61,1.44-.91,2.16.55-1.24,1.23-2.4,2.07-3.47-.47.62-.95,1.22-1.42,1.83.77-.96,1.64-1.82,2.6-2.6-.61.47-1.22.94-1.83,1.42,1.07-.83,2.23-1.52,3.47-2.07-.72.31-1.44.61-2.16.91,1.29-.54,2.6-.9,3.98-1.11-.8.1-1.6.21-2.4.32,1.43-.18,2.85-.18,4.27,0-.8-.11-1.61-.22-2.41-.32,1.38.21,2.7.57,3.98,1.11-.72-.3-1.44-.61-2.16-.91,1.25.55,2.4,1.24,3.47,2.07-.61-.47-1.21-.95-1.82-1.42.96.78,1.82,1.63,2.6,2.6-.47-.61-.95-1.21-1.41-1.83.83,1.08,1.52,2.23,2.07,3.47-.31-.72-.61-1.44-.91-2.16.53,1.29.9,2.6,1.1,3.98-.11-.81-.21-1.61-.32-2.41.09.71.14,1.42.15,2.13.05,4.93,4.07,9.05,9.04,9.05s9.11-4.11,9.05-9.05c-.09-8.63-4.54-16.33-11.78-20.97-7.35-4.72-16.74-4.46-24.38-.67-3.73,1.85-6.64,4.95-9,8.29-2.48,3.52-3.46,7.72-3.9,11.92-.44,4.34.84,8.53,2.56,12.42,1.7,3.84,4.79,6.71,8.05,9.21,3.57,2.75,8.07,3.84,12.46,4.29,4.5.46,9.06-.88,13.04-2.86,8.01-3.97,12.86-12.88,12.95-21.64.06-4.93-4.15-9.04-9.05-9.04s-8.99,4.12-9.04,9.04Z"/>
        </g>
        <path class="st0" d="M40.84,201.14c0,8.57-6.94,15.51-15.51,15.51s-15.51-6.94-15.51-15.51,6.95-15.51,15.51-15.51,15.51,6.95,15.51,15.51Z"/>
        <path class="st13" d="M36.84,200.71c0,6.28-5.09,11.37-11.36,11.37s-11.37-5.09-11.37-11.37,5.09-11.36,11.37-11.36,11.36,5.09,11.36,11.36Z"/>
      </g>
      <g>
        <g>
          <path class="st11" d="M212.45,201.14c0,8.57-6.94,15.51-15.51,15.51s-15.51-6.94-15.51-15.51,6.94-15.51,15.51-15.51,15.51,6.95,15.51,15.51Z"/>
          <path d="M203.4,201.14c-.01.72-.06,1.43-.14,2.14.1-.81.21-1.61.32-2.41-.2,1.38-.57,2.7-1.1,3.98.31-.72.61-1.44.91-2.17-.55,1.25-1.24,2.4-2.06,3.48.47-.61.94-1.22,1.41-1.83-.77.96-1.64,1.82-2.6,2.6.61-.47,1.22-.95,1.83-1.42-1.07.83-2.22,1.51-3.47,2.07.72-.3,1.44-.61,2.16-.91-1.29.54-2.6.9-3.98,1.11.8-.11,1.6-.22,2.41-.32-1.43.18-2.85.18-4.27,0,.8.1,1.6.21,2.41.32-1.38-.21-2.7-.57-3.98-1.11.72.3,1.44.61,2.17.91-1.25-.55-2.4-1.24-3.48-2.07.61.47,1.22.95,1.83,1.42-.96-.78-1.83-1.64-2.6-2.6.47.61.94,1.22,1.41,1.83-.83-1.08-1.52-2.23-2.07-3.48.31.72.61,1.44.91,2.17-.53-1.29-.9-2.61-1.1-3.98.1.8.21,1.6.32,2.41-.18-1.43-.18-2.85,0-4.27-.11.8-.22,1.6-.32,2.41.2-1.38.57-2.7,1.1-3.98-.31.72-.61,1.44-.91,2.16.55-1.24,1.24-2.4,2.07-3.47-.47.62-.95,1.22-1.41,1.83.77-.96,1.64-1.82,2.6-2.6-.61.47-1.22.94-1.83,1.42,1.08-.83,2.23-1.52,3.48-2.07-.72.31-1.45.61-2.17.91,1.29-.54,2.6-.9,3.98-1.11-.8.1-1.61.21-2.41.32,1.43-.18,2.85-.18,4.27,0-.81-.11-1.6-.22-2.41-.32,1.38.21,2.7.57,3.98,1.11-.72-.3-1.44-.61-2.16-.91,1.25.55,2.4,1.24,3.47,2.07-.61-.47-1.22-.95-1.83-1.42.96.78,1.83,1.63,2.6,2.6-.47-.61-.94-1.21-1.41-1.83.83,1.08,1.51,2.23,2.06,3.47-.31-.72-.61-1.44-.91-2.16.54,1.29.9,2.6,1.1,3.98-.1-.81-.21-1.61-.32-2.41.09.71.13,1.42.14,2.13.06,4.93,4.08,9.05,9.05,9.05s9.1-4.11,9.05-9.05c-.1-8.63-4.54-16.33-11.78-20.97-7.37-4.72-16.75-4.46-24.38-.67-3.73,1.85-6.64,4.95-8.99,8.29-2.48,3.52-3.46,7.72-3.89,11.92-.45,4.34.83,8.53,2.56,12.42,1.7,3.84,4.79,6.71,8.04,9.21,3.57,2.75,8.07,3.84,12.46,4.29,4.49.46,9.05-.88,13.04-2.86,8-3.97,12.84-12.88,12.95-21.64.06-4.93-4.16-9.04-9.05-9.04s-8.99,4.12-9.05,9.04Z"/>
        </g>
        <path class="st0" d="M212.45,201.14c0,8.57-6.94,15.51-15.51,15.51s-15.51-6.94-15.51-15.51,6.94-15.51,15.51-15.51,15.51,6.95,15.51,15.51Z"/>
        <path class="st13" d="M208.45,200.71c0,6.28-5.09,11.37-11.37,11.37s-11.37-5.09-11.37-11.37,5.09-11.36,11.37-11.36,11.37,5.09,11.37,11.36Z"/>
      </g>
    </g>
    <g>
      <g>
        <path class="st11" d="M23.15,120.79c-.32,12.54,0,72.38,0,72.38,0,33.7,18.89,64.95,89.28,64.66,69.67-.28,86.16-30.95,86.16-64.66v-72.38H23.15Z"/>
        <path d="M14.11,120.79c-.4,16.04-.16,32.11-.11,48.15.02,7.04.05,14.06.09,21.09.03,5.65.32,11.19,1.11,16.8,1.1,7.87,3.69,15.57,7.54,22.53,4.46,8.05,10.82,14.59,18.18,20,8.19,6.02,17.98,9.96,27.73,12.6,13.14,3.54,26.96,4.77,40.54,4.92,14.05.16,28.3-.88,42.02-4.06,10-2.33,20.01-6.08,28.55-11.86,7.54-5.1,13.98-11.6,18.62-19.46,4.01-6.78,6.62-14.47,7.89-22.23,1.84-11.28,1.36-22.72,1.36-34.1v-54.37c0-4.93-4.12-9.04-9.05-9.04H23.15c-4.93,0-9.04,4.11-9.04,9.04s4.11,9.04,9.04,9.04h175.44c-3.02-3.01-6.04-6.03-9.05-9.04v71.85c0,4.11-.2,8.19-.75,12.26.1-.8.21-1.6.32-2.4-.75,5.51-2.11,10.93-4.27,16.05.3-.72.61-1.44.91-2.16-1.68,3.94-3.83,7.65-6.43,11.04.47-.61.94-1.22,1.41-1.83-2.66,3.41-5.73,6.46-9.14,9.1.61-.47,1.22-.94,1.84-1.42-4.4,3.38-9.25,6.08-14.36,8.24.72-.3,1.44-.61,2.16-.91-8.57,3.59-17.68,5.66-26.85,6.92.8-.1,1.6-.21,2.4-.32-16.49,2.22-33.57,2.23-50.07.03.8.11,1.6.22,2.4.32-9.46-1.28-18.84-3.44-27.66-7.15.72.3,1.44.61,2.16.91-5.24-2.23-10.25-5.02-14.77-8.5.62.47,1.22.94,1.83,1.41-3.58-2.78-6.83-5.98-9.61-9.57.47.61.94,1.22,1.41,1.83-2.68-3.5-4.89-7.32-6.62-11.38.31.72.61,1.44.91,2.16-2.14-5.09-3.5-10.46-4.24-15.93.11.8.21,1.6.32,2.4-.62-4.73-.67-9.48-.69-14.25-.04-7.22-.06-14.44-.08-21.67-.06-15.68-.29-31.38.1-47.05.12-4.93-4.21-9.04-9.05-9.04s-8.92,4.12-9.04,9.04Z"/>
      </g>
      <path class="st0" d="M23.82,106.42c-.32,12.54,0,86.74,0,86.74,0,33.7,18.88,64.95,89.27,64.66,69.67-.28,86.16-30.95,86.16-64.66v-86.74H23.82Z"/>
    </g>
    <g>
      <path class="st9" d="M58.81,222.43c.54,2.47-3.61,5.48-9.28,6.73-5.66,1.25-10.69.26-11.25-2.22-.54-2.47,3.61-5.48,9.28-6.72,5.66-1.25,10.7-.26,11.25,2.21Z"/>
      <path class="st9" d="M163.46,222.43c-.54,2.47,3.61,5.48,9.27,6.73,5.67,1.25,10.71.26,11.25-2.22.55-2.47-3.6-5.48-9.28-6.72-5.66-1.25-10.7-.26-11.24,2.21Z"/>
      <g>
        <g>
          <g>
            <path d="M75.56,214.51s-3.79-5-12.3-5-12.33,5-12.33,5c0,0-1.92-14.51,12.33-14.51s12.3,14.51,12.3,14.51Z"/>
            <path d="M76.34,214.05c-2.89-3.76-8.12-5.3-12.65-5.44-4.61-.14-10.42,1.42-13.4,5.26.51.21,1.03.43,1.54.64-.71-5.49,1.64-11.43,7.28-13.09,4.38-1.29,9.99-.58,13.08,3.03,1.92,2.24,2.54,5.41,2.56,8.28,0,.59-.02,1.2-.09,1.78-.16,1.15,1.66,1.14,1.81,0,.69-5.26-1.32-11.28-6.17-13.88-4.13-2.22-9.94-2.1-14.08,0-3.21,1.63-5.14,4.86-5.88,8.28-.39,1.8-.55,3.76-.32,5.6.09.66.99,1.35,1.55.64,2.56-3.3,7.3-4.61,11.26-4.73,3.17-.1,6.36.63,9.1,2.24.8.47,1.53,1.02,2.21,1.66.2.19.38.38.56.57.08.08.37.45.08.07.7.91,2.27.01,1.57-.91Z"/>
          </g>
          <path d="M53.39,204.05s-1.95.04-4.77-1.27c-2.82-1.31-4.86-4.67-4.86-4.67,0,0-1.17,4.57,2.38,7.25,2.6,1.95,5.59,2.37,5.59,2.37l1.66-3.69Z"/>
          <path d="M50.72,208.85s-1.65.32-4.26.29c-2.6-.01-5.33-1.85-5.33-1.85,0,0,.61,3.9,4.45,4.76,2.66.59,5.05.17,5.05.17l.1-3.37Z"/>
        </g>
        <g>
          <g>
            <path d="M145.38,214.51s3.8-5,12.3-5,12.33,5,12.33,5c0,0,1.92-14.51-12.33-14.51s-12.3,14.51-12.3,14.51Z"/>
            <path d="M146.17,214.96c-.28.36-.05.06.02-.02.16-.18.34-.36.51-.54.64-.62,1.36-1.14,2.1-1.62,2.65-1.68,5.77-2.35,8.88-2.38,4.06-.05,9.08,1.36,11.7,4.73.55.71,1.45.02,1.54-.64.68-5.27-1.36-11.28-6.2-13.88-4.13-2.22-9.94-2.1-14.07,0-3.2,1.63-5.12,4.86-5.86,8.28-.39,1.8-.54,3.76-.3,5.6.15,1.14,1.96,1.15,1.81,0-.72-5.48,1.6-11.43,7.24-13.09,4.39-1.29,10-.58,13.09,3.03,1.91,2.24,2.56,5.41,2.58,8.28,0,.59,0,1.2-.08,1.78.51-.21,1.03-.43,1.54-.64-2.93-3.77-8.46-5.22-12.97-5.26-4.63-.05-10.13,1.62-13.08,5.45-.71.92.87,1.82,1.56.91Z"/>
          </g>
          <path d="M167.55,204.05s1.94.04,4.76-1.27c2.82-1.31,4.87-4.67,4.87-4.67,0,0,1.17,4.57-2.38,7.25-2.6,1.95-5.59,2.37-5.59,2.37l-1.65-3.69Z"/>
          <path d="M170.22,208.85s1.64.32,4.26.29c2.6-.01,5.33-1.85,5.33-1.85,0,0-.61,3.9-4.44,4.76-2.66.59-5.06.17-5.06.17l-.1-3.37Z"/>
        </g>
      </g>
      <path d="M96.96,235.84c.66,13.67,25.56,13.43,27.02.22.16-1.4-1.29-2.59-2.58-2.59-1.52,0-2.44,1.18-2.59,2.59.14-1.35-.04-.01-.17.39-.05.15-.11.31-.17.46.32-.8.05-.14-.04.03-.09.2-.2.38-.31.56-.09.14-.66.91-.22.35-.92,1.15-1.3,1.38-2.7,2.04.26-.13-.61.21-.71.25-.4.13-.81.23-1.22.32-.99.23-2,.27-3.01.29-1.61.02-3.71-.31-4.81-.83-.31-.14-.6-.31-.88-.48-.09-.05-.86-.63-.42-.27-.22-.17-.42-.38-.62-.57-.09-.1-.18-.2-.27-.29-.44-.5.3.43-.08-.08-.27-.37-.49-.78-.69-1.18-.21-.43.22.59-.03-.07-.07-.2-.14-.41-.2-.62-.07-.28-.14-.56-.18-.84.16,1.05.06.57.05.32-.16-3.32-5.33-3.34-5.17,0h0Z"/>
    </g>
    <path class="st15" d="M183.76,180.31c-14.78-3.88-29.18-9.65-42.54-17.09-11.04-6.15-21.21-13.68-30.06-22.65-8.48,8.62-18.19,15.95-28.75,21.91-18.38,10.37-38.56,17.66-59.37,21.12,0,.88,0,1.34,0,1.34,0,4.26.29,8.46.96,12.58,20.48-3.53,40.32-9.43,58.41-19.64,10.56-5.95,20.27-12.58,28.75-21.19,8.84,8.96,19.02,15.04,30.06,21.19,13.35,7.44,27.76,12.63,42.54,16.51,5.09,1.33,10.25,2.43,15.45,3.29.61-4.16.88-8.42.88-12.74v-1.2c-5.5-.88-10.96-2.03-16.33-3.44Z"/>
    <g>
      <path class="st10" d="M111.4,59.8c-.09,0-.18,0-.27,0s-.17,0-.26,0c-89.57,0-100.57,76.74-101.6,90.38-.39,5.15.15,32.47.15,32.47,0,.62.01,1.26.02,1.89,13.83-1.08,42.83-5.61,73.47-24.29,11.6-7.08,20.88-15.7,28.22-24.48,7.36,8.78,16.63,17.4,28.23,24.48,30.63,18.68,59.63,23.21,73.47,24.29.01-.63.02-1.26.02-1.89,0,0,.55-27.32.15-32.47-1.03-13.64-12.03-90.38-101.6-90.38Z"/>
      <path d="M111.4,50.76c-12.29.17-24.56,1.29-36.45,4.54-9.77,2.67-19.32,6.78-27.84,12.27-14.28,9.19-25.83,22.2-33.68,37.23-5.62,10.76-9.65,22.46-11.76,34.41-.69,3.88-1.31,7.83-1.5,11.78-.38,8.19-.05,16.44.08,24.63.05,2.97.09,5.95.14,8.92.09,4.63,4.06,9.44,9.05,9.05,25.68-2.02,50.8-10.05,73.21-22.69,13.21-7.46,25.11-17.09,34.87-28.72h-12.79c10.11,12.04,22.47,21.82,36.2,29.46,13.22,7.36,27.5,13.09,42.14,16.93,9.72,2.55,19.73,4.24,29.75,5.03,4.98.39,8.98-4.42,9.05-9.05.1-6.96.22-13.91.29-20.87.04-5.4.23-10.85-.39-16.22-1.2-10.46-3.61-20.71-7.48-30.52-5.87-14.87-14.43-28.66-26.31-39.49-15.18-13.84-34.52-22.14-54.77-25.04-7.25-1.04-14.5-1.63-21.82-1.64-4.93,0-9.05,4.12-9.05,9.05s4.12,9.04,9.05,9.04c6.15,0,12.29.37,18.39,1.18-.81-.11-1.6-.22-2.41-.32,9.36,1.26,18.57,3.58,27.28,7.25-.72-.3-1.44-.61-2.16-.91,6.92,2.94,13.45,6.71,19.4,11.3-.61-.47-1.22-.94-1.83-1.41,5.8,4.5,10.98,9.73,15.47,15.54-.47-.61-.94-1.22-1.42-1.83,5.17,6.72,9.39,14.14,12.7,21.95-.3-.72-.61-1.44-.91-2.16,3.87,9.17,6.56,18.88,7.9,28.74-.11-.8-.22-1.6-.32-2.4.58,4.33.62,8.64.62,13.01,0,7.76-.13,15.52-.28,23.28-.02.84-.02,1.66-.03,2.49,3.02-3.02,6.03-6.03,9.05-9.05-2.64-.2-5.27-.49-7.9-.84.8.11,1.61.22,2.41.32-14.71-2-29.12-6.04-42.8-11.79.72.31,1.43.61,2.16.92-11.55-4.89-22.81-10.88-32.77-18.55.61.47,1.22.94,1.83,1.42-6.69-5.19-12.78-11.11-18.22-17.59-2.98-3.55-9.81-3.55-12.79,0-5.44,6.48-11.53,12.4-18.22,17.59.61-.47,1.22-.95,1.83-1.42-9.96,7.66-21.23,13.66-32.77,18.55.72-.31,1.44-.61,2.16-.92-13.68,5.74-28.08,9.79-42.8,11.79.8-.1,1.6-.21,2.41-.32-2.63.35-5.26.64-7.9.84,3.01,3.02,6.03,6.04,9.05,9.05-.13-6.96-.24-13.91-.29-20.87-.04-5.4-.23-10.85.38-16.22.07-.57.14-1.13.21-1.69-.11.8-.22,1.6-.32,2.4,1.33-9.86,4.04-19.57,7.89-28.74-.3.72-.61,1.44-.91,2.16,3.3-7.81,7.52-15.23,12.69-21.95-.47.61-.94,1.22-1.41,1.83,4.49-5.8,9.67-11.04,15.46-15.54-.61.47-1.22.94-1.83,1.41,5.95-4.59,12.49-8.36,19.41-11.3-.73.3-1.44.61-2.16.91,8.71-3.67,17.91-5.99,27.27-7.25-.8.11-1.6.22-2.4.32,6.29-.83,12.58-1.09,18.91-1.18,4.93-.06,9.05-4.06,9.05-9.04s-4.11-9.12-9.05-9.05Z"/>
    </g>
    <path class="st14" d="M175.39,63.15c-12.7-8.16-27.23-13.29-42.25-15.45-7.25-1.04-14.5-1.63-21.81-1.63-12.29.16-24.58,1.28-36.46,4.54-9.77,2.68-19.32,6.78-27.84,12.27-.11.07-.21.14-.32.21-.18-.83-.32-1.71-.41-2.62-.29,2.57-.05,5.07.41,7.27.1-.07.21-.14.32-.21,8.52-5.49,18.07-9.59,27.84-12.27,11.89-3.26,24.17-4.38,36.46-4.54,7.31,0,14.57.6,21.81,1.63,15.02,2.16,29.55,7.29,42.25,15.45.46-2.21.71-4.73.42-7.33-.09.92-.24,1.82-.42,2.68Z"/>
    <path class="st12" d="M111.4,59.8c-.09,0-.18,0-.27,0s-.17,0-.26,0c-89.57,0-100.57,76.74-101.6,90.38-.39,5.15.15,32.47.15,32.47,0,.62.01,1.26.02,1.89,13.83-1.08,42.83-5.61,73.47-24.29,11.6-7.08,20.88-15.7,28.22-24.48,7.36,8.78,16.63,17.4,28.23,24.48,30.63,18.68,59.63,23.21,73.47,24.29.01-.63.02-1.26.02-1.89,0,0,.55-27.32.15-32.47-1.03-13.64-12.03-90.38-101.6-90.38Z"/>
    <path class="st16" d="M9.27,155.57c1.03-13.63,12.03-90.38,101.6-90.38.09,0,.17,0,.26,0s.18,0,.27,0c89.57,0,100.56,76.75,101.6,90.38.09,1.03.12,2.94.13,5.34.03-4.81,0-9.01-.13-10.73-1.03-13.64-12.03-90.38-101.6-90.38-.09,0-.18,0-.27,0s-.17,0-.26,0c-89.57,0-100.57,76.74-101.6,90.38-.13,1.73-.16,5.92-.14,10.75.02-2.41.06-4.33.14-5.37Z"/>
    <path class="st6" d="M140.14,155.23c-11.83-7.29-21.34-17.09-28.86-26.07-7.52,8.98-17.08,18.71-28.86,26.07-36.63,22.91-72.85,28.82-72.84,29.45,13.84-1.08,42.84-5.61,73.48-24.29,11.6-7.08,20.87-15.7,28.22-24.48,7.35,8.78,16.62,17.4,28.22,24.48,30.64,18.68,59.63,23.21,73.47,24.29.01-.63-30.46-3.32-72.84-29.45Z"/>
    <g>
      <path class="st10" d="M166.62,86.68c9.4,6.26,14.79,14.68,12.04,18.81-2.75,4.13-12.59,2.4-21.99-3.86-9.4-6.26-14.79-14.68-12.04-18.8,2.75-4.13,12.6-2.4,22,3.86Z"/>
      <path class="st10" d="M188.28,110.46c.4,1.96-.88,3.87-2.84,4.27-1.97.39-3.88-.89-4.28-2.85-.39-1.97.88-3.88,2.85-4.27,1.97-.39,3.88.88,4.27,2.85Z"/>
    </g>
    <g>
      <g>
        <path class="st11" d="M144.94,301.3h-67.95l-1.79,1.89h71.87l-1.79-1.89h-.34Z"/>
        <path d="M144.94,295.49h-67.95c-2.72,0-4.24,1.84-5.91,3.59-3.45,3.64-1.06,9.93,4.11,9.93h71.87c5.18,0,7.57-6.29,4.11-9.93-1.79-1.89-3.29-3.59-6.24-3.59-3.17,0-5.81,2.65-5.81,5.81s2.64,5.82,5.81,5.82h.34c-1.37-.57-2.74-1.14-4.12-1.71.6.63,1.19,1.27,1.79,1.89,1.37-3.31,2.75-6.62,4.12-9.93h-71.87c1.37,3.31,2.75,6.62,4.12,9.93.59-.63,1.2-1.26,1.79-1.89-1.37.57-2.74,1.14-4.11,1.71h67.95c3.16,0,5.81-2.65,5.81-5.82s-2.64-5.81-5.81-5.81Z"/>
      </g>
      <path class="st14" d="M108.73,311.41h34.01c-.18-.8-.36-1.6-.53-2.41h-62.6c-.17.81-.36,1.61-.53,2.41h29.65Z"/>
      <path class="st10" d="M144.94,301.3h-67.95l-.83,1.89h69.98l-.87-1.89h-.34Z"/>
    </g>
  </g>
  <path class="st3" d="M69.35,280.4c.65-1.28,1.28-2.49,1.76-3.37,1.08-1.93,2.86-4.54,4.01-6.2l-.8-.89s-3.34,4.66-4.94,7.54c-.49.87-1.13,2.09-1.77,3.37l5.95,3.31-4.2-3.76Z"/>
  <path class="st3" d="M153.03,280.4c-.65-1.28-1.29-2.49-1.77-3.37-1.08-1.93-2.86-4.54-4-6.2l.8-.89s3.33,4.66,4.94,7.54c.48.87,1.12,2.09,1.77,3.37l-5.96,3.31,4.21-3.76Z"/>
</svg>