<?xml version="1.0" encoding="UTF-8"?>
<svg id="Layer_1" xmlns="http://www.w3.org/2000/svg" version="1.1" viewBox="0 0 286.05 327.36">
  <!-- Generator: Adobe Illustrator 29.6.1, SVG Export Plug-In . SVG Version: 2.1.1 Build 9)  -->
  <defs>
    <style>
      .st0 {
        fill: #86c6f2;
      }

      .st1 {
        fill: #ffd7c3;
      }

      .st2 {
        fill: #000002;
      }

      .st3 {
        fill: #fffcd2;
      }

      .st4 {
        fill: #0461a0;
      }

      .st5 {
        fill: #f1f2f2;
      }

      .st6 {
        fill: #f9a11b;
      }

      .st7 {
        fill: #f38b9e;
      }

      .st8 {
        fill: #6f2a0e;
      }

      .st9 {
        fill: #fff;
      }

      .st10 {
        fill: #fdc361;
      }

      .st11 {
        fill: #fde5d2;
      }

      .st12 {
        fill: #82442f;
      }

      .st13 {
        fill: #27aae1;
      }

      .st14 {
        fill: #e6e7e8;
      }

      .st15 {
        fill: #f4bba2;
      }

      .st16 {
        fill: #1c75bc;
      }

      .st17 {
        fill: #fff200;
      }
    </style>
  </defs>
  <g>
    <g>
      <g>
        <g>
          <path class="st10" d="M253.09,70.74c-5.51-44.03-78.47-61.69-110.07-61.69S38.51,26.71,33.01,70.74c-1.99,15.9,18.46,16.75,18.46,16.75l91.58-3.5,91.57,3.5s20.45-.84,18.47-16.75Z"/>
          <path d="M262.13,70.74c-.38-2.92-.79-5.79-1.59-8.63-.77-2.75-1.89-5.41-3.05-8.01-2.07-4.64-5-8.75-8.19-12.67-6.28-7.74-14.61-13.92-23.16-18.95-9.2-5.41-19.21-9.57-29.33-12.94-9.16-3.04-18.56-5.36-28.06-6.99C160.33,1.11,151.76.03,143.21,0c-8.5-.03-17.02,1.07-25.38,2.47-19.89,3.32-39.87,9.61-57.38,19.72-17.06,9.85-33.36,25.43-36.12,45.88-.51,3.8-.72,7.36.4,11.12.96,3.26,2.69,6.04,4.96,8.54,3.31,3.64,8.13,5.94,12.78,7.31,3.4,1,7.02,1.58,10.57,1.44,12.6-.48,25.21-.96,37.8-1.44,15.03-.57,30.07-1.15,45.1-1.72,2.38-.09,4.82-.36,7.19-.27,3.3.13,6.59.26,9.88.38,15.62.6,31.22,1.19,46.84,1.79,11.42.44,22.86.87,34.29,1.31.56.02,1.1-.02,1.66-.08,3.18-.34,6.35-.83,9.38-1.89,4.32-1.51,8.68-3.77,11.69-7.32,3.89-4.59,5.97-10.42,5.28-16.48-.29-2.5-.81-4.55-2.66-6.4-1.68-1.69-4.01-2.65-6.39-2.65s-4.7.96-6.4,2.65c-1.52,1.53-2.91,4.15-2.64,6.4.15,1.35.18,2.7,0,4.05.11-.8.22-1.61.32-2.41-.16,1.08-.43,2.11-.85,3.12.31-.72.61-1.44.91-2.16-.4.92-.9,1.77-1.51,2.57.47-.61.95-1.22,1.41-1.83-.73.93-1.58,1.75-2.52,2.47.62-.47,1.23-.94,1.84-1.41-1.27.95-2.65,1.72-4.11,2.34.72-.3,1.44-.61,2.16-.91-2.41,1.01-4.96,1.65-7.54,2,.8-.11,1.6-.21,2.4-.32-2.15.29-4.25.11-6.41.02-5.95-.22-11.89-.45-17.84-.68-16.4-.62-32.8-1.25-49.19-1.88-5.58-.22-11.17-.43-16.75-.63-1.59-.07-3.15-.14-4.74-.08-12.48.48-24.96.95-37.44,1.43-15.1.57-30.21,1.15-45.32,1.73-3.09.12-6.28.5-9.38.09.81.11,1.61.21,2.41.32-2.59-.35-5.13-.99-7.54-2,.72.31,1.44.61,2.16.91-1.45-.62-2.84-1.39-4.11-2.34.61.47,1.22.95,1.83,1.41-.93-.73-1.78-1.54-2.52-2.47.47.61.94,1.22,1.42,1.83-.6-.8-1.1-1.65-1.51-2.57.31.72.61,1.44.91,2.16-.42-1.01-.69-2.04-.85-3.12.11.8.21,1.61.32,2.41-.18-1.44-.14-2.88.04-4.32-.11.8-.21,1.61-.32,2.41.51-3.74,1.5-7.38,2.95-10.85-.29.72-.6,1.44-.91,2.16,1.64-3.85,3.81-7.44,6.37-10.75-.47.61-.94,1.22-1.41,1.83,3.48-4.46,7.61-8.37,12.08-11.83-.61.47-1.22.95-1.83,1.42,7.64-5.86,16.19-10.44,25.03-14.19-.72.3-1.44.61-2.16.92,14.8-6.24,30.55-10.37,46.45-12.52-.8.11-1.6.21-2.41.32,5.66-.76,11.37-1.27,17.09-1.28,5.71,0,11.43.52,17.09,1.28-.8-.1-1.61-.21-2.41-.32,15.91,2.15,31.68,6.28,46.48,12.52-.72-.31-1.44-.61-2.16-.92,8.86,3.75,17.41,8.33,25.05,14.19-.61-.47-1.22-.94-1.83-1.42,4.54,3.51,8.73,7.48,12.25,12.04-.47-.61-.95-1.22-1.42-1.83,2.49,3.25,4.61,6.77,6.21,10.54-.3-.72-.61-1.44-.91-2.16,1.45,3.47,2.45,7.12,2.96,10.85-.11-.8-.22-1.61-.33-2.41.02.09.02.18.04.27.32,2.5.79,4.53,2.64,6.4,1.7,1.69,4.01,2.65,6.4,2.65s4.71-.96,6.39-2.65c1.52-1.51,2.94-4.17,2.66-6.4Z"/>
        </g>
        <path class="st9" d="M253.09,70.74c-5.51-44.03-78.47-61.69-110.07-61.69S38.51,26.71,33.01,70.74c-1.99,15.9,18.46,16.75,18.46,16.75l91.58-3.5,91.57,3.5s20.45-.84,18.47-16.75Z"/>
        <path class="st14" d="M252.49,67.21c-3.45,9.6-17.87,10.2-17.87,10.2,0,0-37.33-4.8-91.57-4.8s-91.58,4.8-91.58,4.8c0,0-14.42-.59-17.86-10.2-.25,1.16-.44,2.34-.6,3.54-1.99,15.9,18.46,16.75,18.46,16.75l91.58-3.5,91.57,3.5s20.45-.84,18.47-16.75c-.15-1.2-.35-2.38-.6-3.53Z"/>
        <path class="st5" d="M143.01,13.7c31.54,0,104.24,17.59,110.03,61.4.21-1.31.24-2.76.04-4.35-5.5-44.03-78.46-61.69-110.07-61.69S38.51,26.71,33.01,70.74c-.2,1.59-.17,3.04.04,4.35C38.85,31.28,111.48,13.7,143.01,13.7Z"/>
      </g>
      <path class="st9" d="M210.34,38.62c-1.46,3.62-10.55,3.37-20.3-.56-9.74-3.94-16.46-10.06-15-13.69,1.47-3.62,10.56-3.37,20.3.56,9.75,3.94,16.46,10.06,15,13.69Z"/>
      <path class="st9" d="M219.04,41.32c0,1.72-1.4,3.12-3.11,3.12s-3.12-1.39-3.12-3.12,1.39-3.11,3.12-3.11,3.11,1.39,3.11,3.11Z"/>
    </g>
    <g>
      <g>
        <g>
          <path class="st1" d="M105.18,245.46s-27.84,33.07-15.75,40.2c12.08,7.13,28.99-23.77,28.99-23.77l-13.23-16.42Z"/>
          <path d="M102.67,242.95c-3.35,3.99-6.47,8.22-9.39,12.53-4.58,6.77-9.25,14.33-10.34,22.57-.45,3.38.42,7.15,3.05,9.47,3.2,2.83,7.69,3.41,11.65,1.98,4.13-1.49,7.6-4.41,10.62-7.53,3.09-3.18,5.79-6.76,8.3-10.41,1.75-2.55,3.43-5.17,4.92-7.88.84-1.52.48-3.01-.55-4.31-4.41-5.47-8.82-10.95-13.23-16.42-1.22-1.51-3.76-1.26-5.03,0-1.48,1.48-1.21,3.52,0,5.03,4.41,5.48,8.82,10.95,13.23,16.43-.18-1.44-.37-2.88-.55-4.31-.84,1.54-1.76,3.03-2.7,4.51-.97,1.53-1.98,3.04-3.02,4.52-.58.81-1.15,1.61-1.75,2.4-.15.2-.31.4-.46.61.57-.74.04-.04-.07.09-.37.47-.76.95-1.14,1.41-1.37,1.67-2.84,3.26-4.4,4.76-.71.69-1.47,1.34-2.24,1.96-.65.54.62-.47-.04.03-.19.15-.38.29-.57.42-.43.31-.88.6-1.34.88-.38.22-.77.44-1.16.65-.18.09-.38.19-.57.27-.7.32.79-.31.08-.03-.38.15-.76.27-1.15.38-.33.1-1.88.32-.58.17-.38.04-.75.05-1.13.05-.18,0-.37-.02-.56-.04,1.14.1.48.06.2.01-.37-.07-.73-.19-1.09-.32-.68-.24.79.37.13.05-.23-.11-.46-.24-.67-.38-.93-.57.44.43-.18-.12-.23-.2-.43-.43-.62-.67.81.99.14.15-.02-.16-.51-.93.22.75-.1-.27-.1-.3-.16-.61-.21-.92-.12-.65.11.97.04.3-.02-.17-.03-.33-.04-.5-.02-.35-.01-.69,0-1.04.01-.33.21-1.82.02-.52.25-1.72.77-3.41,1.37-5.03.17-.43.34-.85.51-1.28-.42,1.01.19-.43.31-.67.43-.96.91-1.92,1.4-2.86,1.92-3.71,4.17-7.25,6.54-10.7,1.06-1.54,2.15-3.05,3.25-4.54.46-.61.93-1.23,1.4-1.84.1-.14.21-.28.32-.42.42-.54-.54.71-.14.18.22-.29.44-.57.67-.85.69-.88,1.39-1.76,2.11-2.62,1.25-1.48,1.46-3.57,0-5.03-1.28-1.28-3.78-1.48-5.03,0Z"/>
        </g>
        <g>
          <path class="st9" d="M171.56,252.49h-57.01s-11.14,61.8-3.56,64.45c7.57,2.65,14.59-9.42,14.59-9.42,0,0,5.58,1.7,15.24,2h0c.73.03,1.48.04,2.23.04s1.51,0,2.23-.03h0c9.68-.3,15.25-2.01,15.25-2.01,0,0,7.02,12.07,14.59,9.42,7.57-2.65-3.57-64.45-3.57-64.45Z"/>
          <path d="M171.56,248.94h-57.01c-1.47,0-3.16,1.07-3.43,2.61-2.18,12.07-3.94,24.25-5.22,36.45-.77,7.39-1.56,14.99-.92,22.42.21,2.45.5,5.41,1.95,7.51,2.86,4.14,8.76,3.31,12.6,1.06,3.76-2.19,6.94-5.94,9.12-9.68-1.33.54-2.67,1.09-4.01,1.63,5.16,1.57,10.84,1.95,16.19,2.13-1.18-1.19-2.36-2.37-3.55-3.55h0c0,1.98,1.62,3.51,3.55,3.56,1.49.04,2.98.04,4.46,0,1.94-.05,3.56-1.58,3.56-3.56h0c-1.19,1.18-2.37,2.37-3.56,3.55,5.36-.18,11.04-.57,16.19-2.13-1.34-.54-2.68-1.09-4.01-1.63,1.7,2.9,3.97,5.68,6.57,7.83,3.76,3.12,9.91,5.61,14.19,1.96,2.01-1.71,2.43-4.83,2.75-7.27.42-3.12.39-6.29.29-9.43-.25-8.36-1.23-16.7-2.31-24.98-.95-7.2-2.02-14.38-3.23-21.55-.24-1.44-.48-2.89-.74-4.33-.34-1.91-2.63-2.96-4.37-2.48-1.99.55-2.82,2.46-2.48,4.37.69,3.8,1.3,7.61,1.89,11.43.6,3.83,1.16,7.65,1.68,11.49.12.88-.12-.82,0,.06.03.25.07.51.1.76.07.51.13,1.01.19,1.52.15,1.12.29,2.23.42,3.35.27,2.16.51,4.31.73,6.47.75,7.32,1.54,14.88.83,22.23-.03.31-.06.63-.1.94.18-1.38.03-.25-.03.07-.09.55-.21,1.1-.37,1.63-.06.22-.13.43-.21.64-.24.68.46-.97.08-.21-.08.16-.17.31-.27.46-.33.51.76-.83.16-.24-.43.42.93-.61.32-.27-.25.15-.73.25.61-.25-.27.1-.54.16-.81.23-.91.21.77-.05-.14.01-.27.02-.54,0-.8,0-.9-.04.78.15-.11-.02-.35-.07-.69-.18-1.03-.29-.87-.29.68.33-.16-.06-.25-.11-.49-.25-.73-.38-.48-.27-.95-.59-1.4-.91.7.5-.05-.05-.17-.14-.21-.18-.42-.36-.63-.55-.47-.43-.92-.89-1.36-1.35-.53-.56-1.02-1.15-1.5-1.74-.41-.52.46.61-.13-.18-.2-.27-.39-.54-.58-.8-.36-.51-.71-1.03-1.03-1.58-.79-1.35-2.49-2.1-4.01-1.63-1.26.38-2.57.63-3.86.87-.7.12-1.4.23-2.1.34-1.11.16.73-.09-.45.06-.51.07-1.02.12-1.52.18-2.11.23-4.24.36-6.37.43-1.93.07-3.55,1.57-3.55,3.55h0c1.18-1.18,2.37-2.37,3.55-3.54-1.48.04-2.97.04-4.46,0,1.19,1.18,2.37,2.36,3.56,3.55h0c0-1.99-1.62-3.49-3.56-3.56-2.12-.07-4.24-.21-6.36-.43-.38-.04-.77-.08-1.15-.13-.24-.03-.49-.06-.73-.1.36.05.33.05-.09-.01-.7-.1-1.4-.22-2.1-.34-1.29-.23-2.6-.48-3.86-.87-1.52-.46-3.22.29-4.01,1.63-.52.89-1.12,1.73-1.73,2.55-.48.64.51-.64,0,0-.16.19-.31.38-.46.57-.33.4-.69.79-1.04,1.18-.37.4-.76.79-1.16,1.16-.2.19-.42.38-.62.56-.12.11-1.09.86-.38.33-.45.33-.92.63-1.4.91-.24.14-.49.26-.73.38-.83.41.7-.25-.16.06-.25.09-.51.16-.77.23-.18.05-1.07.18-.1.06-.27.03-.54.04-.8.04-.18,0-.36,0-.54-.03.49.08.54.08.13,0-.71-.14-1.32-.57-.21.02-.62-.32.76.67.32.27-.57-.53.36.53.2.31-.12-.17-.21-.35-.31-.54-.39-.75.34.89.09.21-.09-.21-.15-.42-.22-.64-.16-.53-.27-1.08-.37-1.63-.05-.32-.21-1.46-.02-.07-.04-.31-.07-.62-.11-.94-.07-.74-.12-1.49-.15-2.25-.17-3.56-.02-7.15.21-10.71.26-4.22.68-8.43,1.14-12.64.24-2.15.5-4.3.78-6.46.07-.51.13-1.02.2-1.52.04-.25.07-.51.1-.76.12-.88-.11.82.01-.06.14-1.06.29-2.13.44-3.19.84-6,1.78-11.98,2.81-17.95.1-.59.21-1.19.31-1.78-1.14.87-2.29,1.74-3.42,2.61h57.01c4.58,0,4.58-7.11,0-7.11Z"/>
        </g>
        <g>
          <path class="st2" d="M201.89,323c0,1.74-26.34,3.15-58.84,3.15s-58.83-1.41-58.83-3.15,26.34-3.14,58.83-3.14,58.84,1.41,58.84,3.14Z"/>
          <path d="M143.05,327.36c-15.73,0-30.53-.33-41.67-.92-18.38-.99-18.38-2.12-18.38-3.44s0-2.45,18.38-3.43c11.14-.59,25.94-.92,41.67-.92s30.53.33,41.67.92c18.38.98,18.38,2.12,18.38,3.43s0,2.45-18.38,3.44c-11.14.59-25.94.92-41.67.92ZM88.79,323c7.71.97,26.71,1.94,54.26,1.94s46.55-.97,54.27-1.94c-7.71-.96-26.72-1.93-54.27-1.93s-46.55.97-54.26,1.93Z"/>
        </g>
        <g>
          <path class="st1" d="M181.24,245.46s27.84,33.07,15.76,40.2c-12.08,7.13-28.99-23.77-28.99-23.77l13.23-16.42Z"/>
          <path d="M178.72,247.98c.96,1.13,1.88,2.31,2.78,3.47.4.52-.55-.72-.14-.18.11.14.21.28.32.42.23.29.45.59.68.89.53.71,1.06,1.42,1.58,2.14,1.14,1.56,2.25,3.15,3.34,4.76,2.33,3.48,4.52,7.08,6.36,10.84.22.43.43.87.62,1.31.11.25.72,1.69.3.67.38.9.72,1.82,1.02,2.75.26.8.48,1.6.66,2.42.08.38.15.77.21,1.15-.2-1.29,0,.19.02.52.02.35.02.69,0,1.04,0,.17-.02.34-.04.5-.06.66.14-.96.04-.3-.05.31-.13.62-.21.92-.3,1.03.39-.67-.1.27-.15.3-.82,1.19-.02.16-.18.25-.4.46-.62.67-.59.55.75-.47-.17.12-.17.11-.33.2-.5.29-.85.46.52-.18-.05.04-.35.14-.72.24-1.09.32-.26.05-.95.12.2-.01-.19.02-.38.02-.56.04-.38.01-.76-.01-1.13-.05,1.28.12-.24-.07-.59-.17-.39-.1-.77-.24-1.15-.38-.71-.27.78.34.08.03-.2-.09-.38-.18-.58-.27-.87-.45-1.7-.97-2.49-1.53-.19-.13-.39-.28-.57-.42-.67-.49.62.5-.04-.03-.39-.3-.76-.62-1.13-.95-.83-.72-1.61-1.49-2.38-2.27-1.52-1.56-2.92-3.21-4.27-4.91-.11-.13-.65-.83-.07-.09-.16-.2-.31-.4-.47-.61-.3-.4-.6-.8-.9-1.21-.61-.84-1.21-1.68-1.79-2.53-.95-1.4-1.87-2.81-2.76-4.24-.7-1.13-1.39-2.28-2.03-3.44-.19,1.43-.36,2.87-.55,4.31,4.41-5.48,8.82-10.95,13.23-16.43,1.22-1.5,1.47-3.55,0-5.03-1.26-1.26-3.81-1.51-5.03,0-4.4,5.47-8.81,10.95-13.22,16.42-1.04,1.29-1.39,2.79-.56,4.31,2.82,5.14,6.23,10.03,9.94,14.57,4.88,5.99,12.67,13.96,21.26,11.61,3.65-1,6.6-3.98,7.22-7.76.61-3.78-.31-7.54-1.68-11.05-3.01-7.7-7.69-14.68-12.59-21.28-1.72-2.31-3.48-4.62-5.34-6.83-1.25-1.48-3.75-1.28-5.03,0-1.45,1.46-1.24,3.55,0,5.03Z"/>
        </g>
        <g>
          <g>
            <polygon class="st11" points="169.65 251.74 143.25 251.74 143.03 251.74 116.63 251.74 105.18 289.36 143.03 289.36 143.25 289.36 181.09 289.36 169.65 251.74"/>
            <path d="M169.65,244.63h-53.02c-3.23,0-5.93,2.18-6.85,5.22-3.65,11.99-7.3,23.97-10.94,35.96-.17.55-.33,1.1-.5,1.66-1.36,4.44,2.32,8.99,6.85,8.99h75.91c4.53,0,8.2-4.55,6.85-8.99-3.64-12-7.29-23.99-10.93-35.97-.17-.55-.33-1.11-.5-1.65-1.12-3.7-4.94-6.02-8.75-4.97-3.66,1.01-6.09,5.04-4.96,8.75,3.65,11.99,7.29,23.98,10.93,35.97.17.55.34,1.1.51,1.65,2.29-3,4.57-5.99,6.85-8.99h-75.91c2.28,3,4.57,6,6.85,8.99,3.65-11.98,7.3-23.97,10.94-35.96.16-.55.33-1.11.5-1.66-2.29,1.74-4.57,3.48-6.85,5.22h53.02c3.87,0,7.11-3.23,7.11-7.11s-3.24-7.11-7.11-7.11Z"/>
          </g>
          <polygon class="st9" points="169.65 251.74 143.25 251.74 143.03 251.74 116.63 251.74 105.18 289.36 143.03 289.36 143.25 289.36 181.09 289.36 169.65 251.74"/>
        </g>
        <polygon class="st5" points="116.14 253.23 105.18 289.36 135.01 289.36 110.66 285.8 116.14 253.23"/>
        <polygon class="st14" points="170.12 253.23 181.09 289.36 151.26 289.36 175.61 285.8 170.12 253.23"/>
        <polygon class="st14" points="174.11 299.61 112.05 299.61 112.31 296.44 173.85 296.44 174.11 299.61"/>
        <path class="st9" d="M96.79,263.02l8.16,5.33,3.6-13.58-3.21-4.03s-3.75,4.65-5.53,7.44c-1.78,2.79-3.02,4.85-3.02,4.85Z"/>
        <path class="st9" d="M189.76,263.02l-8.16,5.33-3.6-13.58,3.21-4.03s3.75,4.65,5.53,7.44c1.78,2.79,3.02,4.85,3.02,4.85Z"/>
        <g>
          <rect class="st2" x="95.85" y="257.15" width="6.91" height="19.73" transform="translate(-178.87 205.57) rotate(-57.14)"/>
          <path d="M105.96,276.39l-17.93-11.58,4.63-7.16,17.93,11.58-4.63,7.16ZM90.26,264.33l15.22,9.83,2.88-4.46-15.22-9.83-2.88,4.45Z"/>
        </g>
        <g>
          <rect class="st2" x="177.37" y="263.56" width="19.73" height="6.91" transform="translate(-114.92 144.3) rotate(-32.86)"/>
          <path d="M180.58,276.39l-4.63-7.16,17.93-11.58,4.62,7.16-17.93,11.58ZM178.18,269.7l2.88,4.46,15.22-9.83-2.87-4.45-15.23,9.83Z"/>
        </g>
        <polygon class="st14" points="105.34 250.74 101.39 255.82 97.71 261.48 105.4 266.51 100.22 261.02 102.85 256.72 106.53 252.26 105.34 250.74"/>
        <polygon class="st14" points="181.21 250.74 185.15 255.82 188.83 261.48 181.14 266.51 186.32 261.02 183.7 256.72 180.01 252.26 181.21 250.74"/>
      </g>
      <g>
        <path class="st1" d="M160.79,239.96c0,9.79-7.94,17.74-17.74,17.74s-17.74-7.95-17.74-17.74,7.94-17.74,17.74-17.74,17.74,7.94,17.74,17.74Z"/>
        <path d="M157.56,239.96c-.05,5.18-2.74,9.86-7.19,12.53-4.49,2.68-10.15,2.57-14.65,0-4.47-2.57-7.13-7.42-7.19-12.53-.05-5.16,2.81-9.91,7.19-12.53,4.49-2.69,10.16-2.57,14.65,0,4.47,2.56,7.14,7.42,7.19,12.53.04,4.16,6.5,4.17,6.47,0-.07-6.27-2.86-12.35-7.79-16.28-5.17-4.12-11.82-5.58-18.27-4.08-5.97,1.39-11.2,5.76-13.81,11.27-2.86,6-2.66,12.86.29,18.78,4.31,8.63,14.46,12.81,23.66,10.66,9.31-2.17,15.81-10.95,15.91-20.35.03-4.17-6.43-4.17-6.47,0Z"/>
      </g>
    </g>
    <g>
      <g>
        <g>
          <g>
            <polygon class="st11" points="119.21 240.31 115.59 253.16 138.11 259.38 119.21 240.31"/>
            <path d="M112.97,238.59c-1.2,4.28-2.4,8.56-3.61,12.84-.96,3.39,1.14,7.02,4.51,7.95,7.5,2.07,15.01,4.15,22.51,6.23,6.27,1.73,10.84-6.22,6.29-10.8-6.3-6.36-12.6-12.72-18.9-19.07-2.48-2.5-6.66-2.48-9.14,0-2.49,2.5-2.47,6.64,0,9.14,6.3,6.36,12.6,12.71,18.91,19.07,2.1-3.59,4.19-7.2,6.29-10.79-7.5-2.08-15.01-4.15-22.51-6.23,1.5,2.65,3.01,5.3,4.51,7.95,1.21-4.28,2.41-8.56,3.61-12.85.95-3.39-1.13-7.02-4.51-7.95-3.41-.94-6.99,1.13-7.96,4.52Z"/>
          </g>
          <polygon class="st16" points="119.21 240.31 115.59 253.16 138.11 259.38 119.21 240.31"/>
        </g>
        <polygon class="st4" points="138.11 259.38 115.59 253.16 119.21 240.31 121.25 242.34 118.77 251.79 138.11 259.38"/>
      </g>
      <g>
        <g>
          <g>
            <polygon class="st11" points="166.89 240.31 170.51 253.16 147.99 259.38 166.89 240.31"/>
            <path d="M160.66,242.03c1.2,4.28,2.41,8.56,3.61,12.85,1.51-2.65,3.01-5.3,4.51-7.95-7.5,2.08-15,4.15-22.51,6.23,2.1,3.6,4.19,7.2,6.28,10.79,6.31-6.36,12.6-12.71,18.91-19.07,2.48-2.5,2.5-6.64,0-9.14-2.48-2.48-6.66-2.5-9.14,0-6.3,6.36-12.6,12.71-18.9,19.07-4.54,4.58.02,12.53,6.29,10.8,7.5-2.08,15.01-4.16,22.51-6.23,3.38-.93,5.47-4.55,4.51-7.95-1.2-4.28-2.41-8.56-3.61-12.84-.95-3.39-4.54-5.45-7.96-4.52-3.38.93-5.46,4.56-4.51,7.95Z"/>
          </g>
          <polygon class="st16" points="166.89 240.31 170.51 253.16 147.99 259.38 166.89 240.31"/>
        </g>
        <polygon class="st4" points="147.99 259.38 170.51 253.16 166.89 240.31 164.85 242.34 167.33 251.79 147.99 259.38"/>
      </g>
    </g>
    <g>
      <g>
        <g>
          <path class="st11" d="M38.99,109.79s-1.56,39.07-.42,62.99c1.15,23.93,16.3,32.18,16.3,32.18v-70.21l-15.89-24.96Z"/>
          <path d="M29.95,109.79c-.72,17.95-1.09,35.94-.72,53.9.14,6.66.33,13.33,1.69,19.88,1.17,5.64,3.42,11.25,6.51,16.11,2.18,3.43,4.84,6.73,7.93,9.4,1.53,1.32,3.16,2.71,4.95,3.69,5.97,3.27,13.61-.81,13.61-7.81v-70.13c0-3.04-1.45-4.98-2.93-7.32-1.85-2.9-3.7-5.8-5.55-8.71-2.88-4.52-5.76-9.04-8.63-13.57-2.64-4.15-8-5.81-12.38-3.24-4.13,2.42-5.89,8.21-3.24,12.38,5.29,8.32,10.58,16.64,15.88,24.96-.42-1.52-.83-3.04-1.24-4.56v70.21c4.53-2.6,9.07-5.21,13.61-7.81-.72-.4-1.4-.9-2.05-1.41.61.47,1.22.94,1.83,1.42-2.16-1.68-4.06-3.65-5.74-5.81.47.61.94,1.22,1.41,1.84-1.99-2.6-3.62-5.44-4.91-8.46.29.72.6,1.44.91,2.16-1.61-3.83-2.63-7.84-3.19-11.94.11.8.21,1.61.32,2.41-.76-5.93-.7-12.01-.79-17.98-.08-6.15-.05-12.31.02-18.46.11-9.37.34-18.74.66-28.1.04-1.01.07-2.02.12-3.03.2-4.93-4.27-9.04-9.05-9.04-5.08,0-8.84,4.12-9.04,9.04Z"/>
        </g>
        <path class="st8" d="M38.99,106.3s-1.56,42.56-.42,66.48c1.15,23.93,16.3,32.18,16.3,32.18v-70.21l-15.89-28.46Z"/>
        <path class="st12" d="M41.94,172.78c-.89-18.58-.14-48.4.23-60.79l-3.17-5.69s-1.56,42.56-.42,66.48c1.15,23.93,16.3,32.18,16.3,32.18v-2.48c-4.53-3.96-12.14-13.02-12.94-29.7Z"/>
      </g>
      <g>
        <g>
          <path class="st11" d="M247.1,109.79s1.57,39.07.41,62.99c-1.14,23.93-16.29,32.18-16.29,32.18v-70.21l15.88-24.96Z"/>
          <path d="M238.05,109.79c.72,17.95,1.09,35.94.72,53.9-.09,4.55-.13,9.15-.71,13.67.11-.8.22-1.61.32-2.41-.55,4.11-1.58,8.11-3.18,11.94.3-.73.61-1.44.91-2.16-1.29,3.01-2.92,5.85-4.91,8.46.47-.62.94-1.22,1.42-1.84-1.67,2.15-3.58,4.13-5.73,5.81.61-.47,1.22-.94,1.83-1.42-.66.5-1.33,1.01-2.06,1.41,4.54,2.6,9.08,5.21,13.62,7.81v-70.21c-.42,1.52-.83,3.04-1.24,4.56,5.29-8.32,10.59-16.64,15.88-24.96,2.65-4.16.88-9.96-3.25-12.38-4.38-2.56-9.74-.91-12.38,3.24-3.28,5.17-6.58,10.34-9.87,15.5-1.77,2.78-3.54,5.56-5.3,8.34-1.11,1.75-1.95,3.44-1.95,5.69v70.21c0,7,7.64,11.08,13.61,7.81,1.84-1.01,3.5-2.44,5.07-3.79,3.19-2.75,5.87-6.2,8.09-9.75,3.16-5.06,5.33-10.91,6.44-16.77,1.28-6.65,1.37-13.45,1.5-20.2.33-17.48-.05-35.01-.75-52.48-.2-4.93-3.96-9.04-9.04-9.04-4.78,0-9.24,4.12-9.05,9.04Z"/>
        </g>
        <path class="st8" d="M247.1,106.3s1.57,42.56.41,66.48c-1.14,23.93-16.29,32.18-16.29,32.18v-70.21l15.88-28.46Z"/>
        <path class="st12" d="M247.1,106.3l-3.74,6.71c.38,12.94,1.07,41.68.2,59.77-.76,15.96-7.76,24.94-12.33,29.16v3.02s15.15-8.25,16.29-32.18c1.15-23.92-.41-66.48-.41-66.48Z"/>
      </g>
    </g>
    <g>
      <g>
        <path class="st11" d="M56.22,91.8c-.32,12.43,0,85.92,0,85.92,0,33.39,18.71,64.35,88.44,64.06,69.02-.29,85.35-30.67,85.35-64.06v-85.92H56.22Z"/>
        <path d="M47.17,91.8c-.36,14.6-.15,29.22-.12,43.83.02,13.75.06,27.5.12,41.25.06,14.32,2.91,28.93,11.16,40.91,5.35,7.77,12.31,14.12,20.41,18.94,9.33,5.55,19.95,8.99,30.56,11.05,14.28,2.77,28.96,3.45,43.47,2.87,12.94-.52,26.11-2.13,38.46-6.12,9.93-3.21,19.15-7.96,27.06-14.79,6.1-5.26,11.12-12.07,14.35-19.44,3.55-8.1,5.41-16.4,6.12-25.21.32-3.86.29-7.73.29-11.6v-81.69c0-4.93-4.11-9.05-9.04-9.05H56.22c-4.94,0-9.05,4.12-9.05,9.05s4.12,9.05,9.05,9.05h173.79c-3.02-3.02-6.03-6.03-9.05-9.05v77.12c0,6.79.16,13.6-.73,20.34.12-.8.21-1.6.33-2.4-.74,5.45-2.07,10.81-4.2,15.88.31-.72.61-1.45.91-2.16-1.67,3.95-3.82,7.67-6.43,11.07.47-.61.94-1.22,1.42-1.83-2.62,3.36-5.64,6.34-8.99,8.96.61-.47,1.22-.94,1.83-1.41-4.32,3.34-9.1,6-14.12,8.14.72-.31,1.44-.61,2.16-.92-8.57,3.61-17.7,5.69-26.89,6.94.8-.1,1.6-.22,2.4-.32-16.24,2.17-33.04,2.19-49.3.05.81.11,1.61.22,2.41.33-9.36-1.26-18.65-3.38-27.39-7.04.72.3,1.45.61,2.17.91-5.25-2.22-10.26-5-14.79-8.47.61.47,1.22.94,1.84,1.42-3.53-2.73-6.72-5.87-9.46-9.39.47.61.94,1.22,1.41,1.83-2.69-3.49-4.91-7.31-6.63-11.36.3.72.61,1.44.91,2.16-2.11-5.02-3.46-10.32-4.2-15.71.11.8.22,1.6.32,2.4-.6-4.53-.67-9.06-.69-13.62-.02-6.28-.05-12.56-.06-18.84-.05-17.53-.1-35.06-.04-52.59.01-3.82.02-7.65.12-11.47.12-4.93-4.21-9.05-9.05-9.05s-8.92,4.12-9.05,9.05Z"/>
      </g>
      <path class="st1" d="M56.22,91.8c-.32,12.43,0,85.92,0,85.92,0,33.39,18.71,64.35,88.44,64.06,69.02-.29,85.35-30.67,85.35-64.06v-85.92H56.22Z"/>
    </g>
    <g>
      <g>
        <g>
          <g>
            <g>
              <g>
                <path class="st11" d="M126.93,280.51s0,.04,0,.04c0,0,7.53-.4,9.62-4.03,1.74-3.03.57-6.74.13-7.89l-9.76,11.88Z"/>
                <path d="M121.32,282.05s0,.03,0,.05c.37,2.41,3.26,4.4,5.61,4.27,3.59-.2,7.34-1.02,10.47-2.83,5.7-3.29,7.06-10.57,4.89-16.44-.73-1.95-1.97-3.49-4.06-4.06-1.85-.5-4.38-.05-5.66,1.5-3.25,3.95-6.51,7.91-9.76,11.87-2.01,2.45-2.41,5.82,0,8.23,2.07,2.08,6.21,2.45,8.22,0,3.26-3.96,6.51-7.92,9.76-11.87-3.25-.86-6.48-1.72-9.72-2.57.23.61.4,1.24.54,1.88.35,1.59-.05-.94.02.18.04.4-.12,2.13.12.38-.05.39-.66,1.99-.03.57-.1.21-.21.41-.34.6.67-.82.81-1.01.43-.56-.32.37-1.38,1.07.17-.05-.38.27-.79.48-1.2.69-.88.45,1.49-.56.09-.04-.35.13-.71.24-1.07.34-.67.19-1.34.33-2.03.46-.28.05-.57.09-.86.14,2.22-.32,1.19-.16.69-.1-.23.03-.46.04-.69.05,1.87,1.43,3.74,2.85,5.61,4.27v-.04c-.48-3.14-4.37-4.83-7.16-4.06-3.32.91-4.54,4.02-4.06,7.15Z"/>
              </g>
              <g>
                <path class="st11" d="M126.93,280.5h-.04s-1.06-7.46,2.08-10.22c2.63-2.29,6.5-1.86,7.72-1.65l-9.76,11.87Z"/>
                <path d="M126.93,274.69s-.03,0-.04,0c1.87,1.42,3.73,2.84,5.61,4.26.46,3.32.07.1.05-.72-.02-.69,0-1.39.05-2.08.03-.47.25-1.91-.05.12.07-.48.18-.95.31-1.41.13-.46.71-1.72-.09.08.14-.34.33-.64.54-.94-.66.81-.8,1.01-.4.58.38-.34.24-.25-.39.26.21-.14.42-.27.64-.38,1.12-.63-1.26.44-.06.04.43-.15.88-.23,1.34-.31-1.89.32-.45.1.02.08.36,0,.72.01,1.08.03.16.01.31.03.46.04.95.1-1.66-.24-.84-.11-.85-3.24-1.71-6.48-2.57-9.72-3.25,3.96-6.51,7.92-9.76,11.87-2.01,2.45-2.4,5.82,0,8.23,2.08,2.08,6.21,2.45,8.23,0,3.25-3.96,6.5-7.91,9.76-11.87,1.36-1.64,2.09-3.5,1.5-5.65-.49-1.79-2.12-3.75-4.06-4.06-5.81-.95-12.94.31-15.64,6.29-1.83,4.06-1.92,8.4-1.31,12.73.34,2.46,3.28,4.35,5.61,4.27h.04c3.17-.11,5.82-2.56,5.82-5.81s-2.64-5.92-5.82-5.81Z"/>
              </g>
            </g>
            <g>
              <path class="st16" d="M126.93,280.51s0,.04,0,.04c0,0,7.53-.4,9.62-4.03,1.74-3.03.57-6.74.13-7.89l-9.76,11.88Z"/>
              <path class="st4" d="M135.99,276.07c-1.63,2.82-9.06,4.44-9.06,4.44,0,.03,0,.04,0,.04,0,0,7.53-.4,9.62-4.03,1.74-3.03.57-6.74.13-7.89,0,0,.76,4.94-.69,7.44Z"/>
              <path class="st16" d="M126.93,280.5h-.04s-1.06-7.46,2.08-10.22c2.63-2.29,6.5-1.86,7.72-1.65l-9.76,11.87Z"/>
            </g>
          </g>
          <path class="st0" d="M129.47,270.8c-2.42,2.19-2.42,9.8-2.42,9.8-.02,0-.03,0-.03,0,0,0-1.2-7.44,1.89-10.25,2.58-2.34,6.46-1.98,7.68-1.8,0,0-4.98.31-7.12,2.25Z"/>
        </g>
        <g>
          <g>
            <g>
              <g>
                <path class="st11" d="M159.17,280.51s0,.04,0,.04c0,0-7.53-.4-9.62-4.03-1.74-3.03-.57-6.74-.13-7.89l9.76,11.88Z"/>
                <path d="M153.56,278.96s0,.03,0,.04c1.88-1.43,3.75-2.85,5.61-4.27-.18,0-.36-.02-.55-.04-.2-.03-.41-.05-.62-.07,2.3.28,1.05.14.53.06-.66-.11-1.32-.26-1.98-.43-.36-.09-.71-.21-1.06-.32-.18-.06-.35-.13-.53-.19-1.04-.38,1.35.61.35.14-.34-.16-.66-.35-.97-.54-.83-.51,1.17,1.06.12.08-1.03-.96.6.94.11.17-.29-.58-.27-.51.07.22-.09-.25-.17-.52-.23-.79-.11-.65-.09-.53.05.37-.01-.26-.02-.52-.02-.77,0-.25.02-.5.05-.75-.15.96-.17,1.13-.07.51.13-.75.35-1.49.61-2.21-3.24.85-6.48,1.71-9.72,2.57,3.26,3.95,6.51,7.91,9.76,11.87,2.01,2.45,6.15,2.08,8.23,0,2.4-2.41,2.01-5.78,0-8.23-3.26-3.96-6.51-7.92-9.76-11.87-1.28-1.56-3.8-2.01-5.65-1.5-2.1.58-3.34,2.12-4.07,4.06-1.04,2.81-1.09,5.7-.68,8.64.45,3.32,2.81,6.09,5.57,7.8,3.02,1.87,6.98,2.63,10.48,2.83,2.34.13,5.24-1.85,5.61-4.27,0-.02,0-.03,0-.05.47-3.13-.74-6.24-4.06-7.15-2.78-.77-6.67.92-7.16,4.06Z"/>
              </g>
              <g>
                <path class="st11" d="M159.17,280.5h.05s1.06-7.46-2.09-10.22c-2.63-2.29-6.5-1.86-7.71-1.65l9.76,11.87Z"/>
                <path d="M159.17,286.31h.05c2.31.08,5.26-1.81,5.61-4.27.51-3.72.72-7.8-.73-11.34-1.53-3.74-4.12-6.14-7.98-7.43-2.66-.88-5.54-.69-8.24-.25-1.94.31-3.57,2.27-4.06,4.06-.59,2.15.13,4.01,1.49,5.65,3.26,3.96,6.51,7.92,9.76,11.87,2.02,2.45,6.15,2.08,8.23,0,2.41-2.4,2.01-5.78,0-8.23-3.25-3.95-6.5-7.91-9.76-11.87-.85,3.24-1.71,6.48-2.56,9.72.75-.13-1.94.22-.63.09.35-.04.69-.05,1.03-.05.41,0,.81.01,1.22.04-1.91-.14-.39-.04.1.08.23.06.45.13.67.21-.83-.38-.96-.43-.4-.15.22.11.43.24.64.38-.63-.51-.76-.6-.39-.26.67.62-.86-1.35-.11-.13.77,1.26-.4-1.29.08.14.12.37.2.74.29,1.11.32,1.52-.11-1.13,0-.12.09.8.11,1.61.1,2.41,0,.85-.43,4.31.04.96,1.87-1.42,3.74-2.85,5.61-4.26-.02,0-.03,0-.05,0-3.17-.11-5.82,2.72-5.82,5.81,0,3.25,2.65,5.7,5.82,5.81Z"/>
              </g>
            </g>
            <g>
              <path class="st16" d="M159.17,280.51s0,.04,0,.04c0,0-7.53-.4-9.62-4.03-1.74-3.03-.57-6.74-.13-7.89l9.76,11.88Z"/>
              <path class="st4" d="M150.1,276.07c1.63,2.82,9.06,4.44,9.06,4.44,0,.03,0,.04,0,.04,0,0-7.53-.4-9.62-4.03-1.74-3.03-.57-6.74-.13-7.89,0,0-.75,4.94.69,7.44Z"/>
              <path class="st16" d="M159.17,280.5h.05s1.06-7.46-2.09-10.22c-2.63-2.29-6.5-1.86-7.71-1.65l9.76,11.87Z"/>
            </g>
          </g>
          <path class="st0" d="M156.64,270.8c2.41,2.19,2.41,9.8,2.41,9.8.03,0,.05,0,.05,0,0,0,1.2-7.44-1.9-10.25-2.58-2.34-6.46-1.98-7.68-1.8,0,0,4.98.31,7.12,2.25Z"/>
        </g>
      </g>
      <g>
        <g>
          <path class="st11" d="M147.16,263.41c0,2.27-1.85,4.12-4.12,4.12s-4.11-1.85-4.11-4.12,1.84-4.12,4.11-4.12,4.12,1.84,4.12,4.12Z"/>
          <path d="M141.35,263.41c-.05,1.27.34-1.37-.02-.18.1-.25.21-.51.31-.77-.32.52-.21.39.33-.37-.77.89,1.14-.7.13-.09.89-.33,1.04-.4.45-.21.98-.09,1.16-.11.51-.07-1.24.05,1.33.33.18-.03.27.11.52.21.78.31-.51-.33-.39-.21.37.33-.89-.77.7,1.14.09.13.33.89.4,1.04.21.45.09.98.11,1.15.08.51-.05-1.25-.33,1.33.02.18-.1.26-.21.51-.31.78.32-.51.22-.39-.33.37.76-.89-1.14.7-.13.09-.89.33-1.04.4-.45.21-.98.08-1.15.11-.51.07,1.24-.05-1.33-.32-.18.03-.26-.1-.52-.21-.78-.31.51.32.39.22-.36-.33.89.76-.7-1.14-.09-.13-.34-.88-.4-1.04-.21-.45-.09-.98-.11-1.15-.08-.51.14,3.17,2.54,5.81,5.82,5.81,3.07,0,5.95-2.64,5.81-5.81-.23-5.57-4.36-9.69-9.93-9.93-5.56-.23-9.71,4.72-9.93,9.93-.24,5.56,4.72,9.71,9.93,9.93,5.56.24,9.71-4.72,9.93-9.93.14-3.17-2.75-5.82-5.81-5.82-3.27,0-5.68,2.65-5.82,5.82Z"/>
        </g>
        <path class="st16" d="M147.16,263.41c0,2.27-1.85,4.12-4.12,4.12s-4.11-1.85-4.11-4.12,1.84-4.12,4.11-4.12,4.12,1.84,4.12,4.12Z"/>
        <path class="st0" d="M139.84,263.41c0-2.12,1.6-3.87,3.65-4.09-.14-.02-.29-.03-.44-.03-2.28,0-4.11,1.84-4.11,4.12s1.84,4.12,4.11,4.12c.16,0,.31-.02.44-.03-2.05-.22-3.65-1.97-3.65-4.09Z"/>
        <path class="st4" d="M146.26,263.41c0-2.12-1.6-3.87-3.67-4.09.15-.02.3-.03.45-.03,2.27,0,4.12,1.84,4.12,4.12s-1.85,4.12-4.12,4.12c-.15,0-.3-.02-.45-.03,2.06-.22,3.67-1.97,3.67-4.09Z"/>
      </g>
    </g>
    <g>
      <g>
        <path class="st10" d="M143.11,31.57C30.55,31.57,9.07,60.5,9.07,60.5c0,0,2.91,12.22,11.89,33.11,8.98,20.88,19.77,35.6,19.77,35.6,0,0,53.83-12.79,102.33-12.79s102.32,12.79,102.32,12.79c0,0,10.79-14.72,19.77-35.6,8.98-20.88,11.89-33.11,11.89-33.11,0,0-21.36-28.93-133.92-28.93Z"/>
        <path d="M143.11,22.52c-27.44.01-55.09,1.56-82.08,6.78-14.68,2.83-29.32,6.93-42.71,13.68-3.26,1.64-6.44,3.49-9.36,5.67-2.01,1.5-4.1,3.04-5.81,4.9-.69.74-1.3,1.61-1.9,2.39-2.37,3.12-.85,7.43.14,10.8,3.76,12.79,8.79,25.36,14.45,37.43,4.8,10.25,10.36,20.46,17.07,29.61.81,1.36,1.89,2.44,3.25,3.25,2.14,1.25,4.58,1.48,6.97.91,16.18-3.84,32.69-6.59,49.17-8.82-.81.11-1.61.22-2.4.32,15.28-2.05,30.65-3.5,46.07-3.88,15.68-.39,31.36.59,46.95,2.27,4.43.48,8.86,1.03,13.28,1.62-.81-.11-1.61-.21-2.41-.32,16.47,2.23,32.98,4.97,49.17,8.82,1.6.44,3.2.44,4.81,0,2.45-.68,3.95-2.18,5.41-4.16,4.96-6.78,9.19-14.19,13.09-21.62,6.92-13.16,12.58-27.15,17.15-41.3.81-2.54,1.61-5.09,2.26-7.68.99-3.92-.14-6.58-2.45-9.31-.93-1.11-2.06-2.07-3.19-2.97-7.96-6.39-17.16-10.62-26.72-14.08-18.33-6.62-37.89-9.68-57.2-11.74-17.6-1.88-35.32-2.54-53.01-2.55-4.93,0-9.04,4.12-9.04,9.05s4.11,9.04,9.04,9.04c20.97.01,41.97.94,62.76,3.71-.8-.11-1.61-.22-2.4-.32,16.93,2.28,34.03,5.65,49.91,12.12.42.17.85.35,1.28.53-.72-.3-1.44-.61-2.17-.91,5.62,2.38,11.18,5.17,16.03,8.91-.62-.47-1.23-.95-1.83-1.42,1.39,1.07,2.85,2.24,3.93,3.65-.48-.61-.95-1.22-1.42-1.84,0,.01.01.02.02.03-.31-2.33-.61-4.65-.91-6.97-.64,2.68-1.48,5.33-2.33,7.95-2.48,7.71-5.4,15.29-8.54,22.75.3-.72.61-1.44.91-2.16-3.96,9.37-8.53,18.44-13.76,27.16-2.21,3.69-4.5,7.37-7.04,10.85,3.41-1.38,6.81-2.77,10.21-4.16-17.53-4.16-35.43-7.01-53.3-9.36-15.33-2.03-30.78-3.41-46.25-3.7-15.66-.29-31.32.77-46.87,2.51-20.88,2.33-41.75,5.66-62.24,10.37-.27.06-.53.12-.8.18,3.41,1.39,6.81,2.78,10.22,4.16-2.48-3.39-4.7-6.97-6.87-10.55-5.32-8.8-9.92-17.99-13.92-27.46.3.72.61,1.44.91,2.16-3.11-7.38-5.99-14.87-8.46-22.5-.88-2.71-1.75-5.44-2.41-8.2-.3,2.33-.6,4.65-.91,6.97,0,0,.01-.01.01-.02-.47.61-.93,1.22-1.41,1.83,1.07-1.39,2.52-2.54,3.89-3.6-.62.47-1.22.94-1.84,1.42,4.88-3.76,10.47-6.57,16.12-8.95-.73.3-1.44.61-2.17.91,15.41-6.48,32.03-9.92,48.51-12.27.91-.13,1.82-.25,2.74-.38-.8.11-1.6.21-2.4.32,20.79-2.77,41.81-3.7,62.77-3.71,4.94,0,9.05-4.11,9.05-9.04s-4.11-9.05-9.05-9.05Z"/>
      </g>
      <path class="st9" d="M143.11,31.57C30.55,31.57,9.07,60.5,9.07,60.5c0,0,2.91,12.22,11.89,33.11,8.98,20.88,19.77,35.6,19.77,35.6,0,0,53.83-12.79,102.33-12.79s102.32,12.79,102.32,12.79c0,0,10.79-14.72,19.77-35.6,8.98-20.88,11.89-33.11,11.89-33.11,0,0-21.36-28.93-133.92-28.93Z"/>
      <path class="st5" d="M143.11,37.28c98.06,0,126.91,21.96,132.7,27.62.86-2.86,1.22-4.37,1.22-4.37,0,0-21.36-28.94-133.92-28.94S9.07,60.53,9.07,60.53c0,0,.36,1.51,1.21,4.37,5.81-5.65,34.75-27.63,132.83-27.63Z"/>
    </g>
    <path class="st14" d="M249.92,110.92c-12.77-2.02-25.62-3.6-38.49-4.86-22.7-2.19-45.59-3.03-68.39-3.17,0,0-.02,0-.03,0h-.05s-.02,0-.04,0c-23.54.14-47.18,1.05-70.61,3.39-14.15,1.41-28.41,3.04-42.44,5.59,2.9,5.23,5.54,9.5,7.49,12.49,13.68-2.64,27.62-4.24,41.45-5.62,21.27-2.12,42.74-2.95,64.12-3.08h.09c20.71.13,41.49.9,62.1,2.88,11.68,1.14,23.35,2.58,34.95,4.41,2.84.45,5.67.91,8.5,1.43,1.95-2.98,4.59-7.24,7.48-12.46-2.04-.34-4.09-.68-6.15-1Z"/>
    <path class="st15" d="M182.04,151.41c-14.54-.94-29.11-1.53-43.68-1.37-14.55.16-29.1.92-43.62,2.01-12.86.97-25.72,2.16-38.54,3.62,0,3.71.02,7.24.03,10.46,12.81-1.46,25.66-2.65,38.51-3.62,14.51-1.09,29.06-1.85,43.62-2.01,14.57-.15,29.15.43,43.68,1.38,16.05,1.04,32.07,2.49,48.05,4.34v-10.46c-15.97-1.85-32-3.31-48.05-4.34Z"/>
    <g>
      <g>
        <path class="st10" d="M157.3,86.9l-4.61,4.81,2.1.12s-.83,4.07-6.15,4.07c-5.98,0-3.96-13.27-3.96-13.27h5.84c.97,0,1.75-.79,1.75-1.75s-.79-1.76-1.75-1.76h-5.84v-3.31h.6c.97,0,1.75-.79,1.75-1.76,0-.21-.03-.4-.1-.59,5.6-1.67,9.68-6.85,9.68-12.99,0-7.48-6.06-13.55-13.55-13.55s-13.55,6.07-13.55,13.55c0,6.14,4.09,11.32,9.68,12.99-.06.19-.1.38-.1.59,0,.97.79,1.76,1.76,1.76h.59v3.31h-5.84c-.97,0-1.75.79-1.75,1.76s.79,1.75,1.75,1.75h5.84s1.22,13.27-3.95,13.27-6.16-4.07-6.16-4.07l2.11-.12-4.61-4.81-1.46,7.03,2.04-1.26s.62,3.52,2.73,5.17c2.12,1.65,6.56,2.57,8.17,3.07,1.6.49,2.75,1.31,2.75,1.31,0,0,1.15-.82,2.75-1.31,1.61-.49,6.06-1.42,8.17-3.07,2.12-1.65,2.73-5.17,2.73-5.17l2.05,1.26-1.46-7.03ZM133.29,60.47c0-5.39,4.37-9.76,9.76-9.76s9.77,4.37,9.77,9.76-4.37,9.76-9.77,9.76-9.76-4.37-9.76-9.76Z"/>
        <g>
          <path d="M150.89,80.51c-1.54,1.61-3.07,3.2-4.61,4.81-2.25,2.34-3.2,5.64-2.33,8.8,1.12,4.04,4.68,6.42,8.73,6.64.7.04,1.4.07,2.1.11-2.91-3.81-5.82-7.63-8.73-11.45-.05.23-.13.45-.22.67.3-.73.6-1.45.91-2.17-.18.4-.4.78-.66,1.13.47-.61.94-1.22,1.41-1.83-.27.34-.57.64-.9.93.61-.47,1.21-.94,1.83-1.42-.43.32-.86.58-1.35.8.72-.31,1.44-.61,2.16-.92-.61.24-1.22.39-1.86.48.8-.11,1.61-.22,2.41-.32-.52.06-1.03.09-1.56.05.8.11,1.6.21,2.4.32-.31-.05-.61-.12-.91-.23.72.3,1.44.61,2.16.91-.22-.1-.42-.21-.62-.35.61.47,1.22.94,1.82,1.41-.28-.23-.54-.48-.76-.77.47.61.94,1.22,1.42,1.83-.27-.38-.48-.77-.68-1.2.31.72.61,1.44.92,2.16-.36-.89-.57-1.83-.71-2.78.11.8.22,1.6.33,2.41-.34-2.56-.24-5.18.1-7.73-.1.8-.21,1.6-.32,2.41,0-.06.02-.13.02-.19-2.9,2.22-5.81,4.43-8.72,6.64h4.62c1.32,0,2.71.04,3.98-.36,1.88-.58,3.82-1.51,5.08-3.06,1.93-2.33,2.66-4.38,2.96-7.38.28-2.75-1.29-5.38-2.96-7.38-1.27-1.55-3.21-2.48-5.08-3.06-1.26-.39-2.66-.36-3.98-.36h-4.62c3.03,3.01,6.03,6.03,9.05,9.05v-3.31c-3.01,3.01-6.02,6.03-9.05,9.04,3.13,0,5.58-.98,7.98-2.95,3.08-2.55,4-7.12,2.99-10.84-2.11,3.71-4.21,7.42-6.32,11.12,4.02-1.25,7.87-3.47,10.61-6.72,1.33-1.58,2.56-3.23,3.4-5.12,1.29-2.91,1.84-5.2,2.23-8.38.53-4.23-.81-8.67-2.72-12.39-1.86-3.6-5.11-6.7-8.57-8.71-7.25-4.2-17.35-4.02-24.11,1.12-2.32,1.76-3.85,3.29-5.61,5.61-1.32,1.73-2.1,3.67-2.9,5.69-1.58,4-1.44,8.75-.47,12.88,1.8,7.73,8.19,13.71,15.6,16.03-2.11-3.71-4.21-7.41-6.32-11.12-.47,1.73-.61,4-.07,5.75.65,2.11,1.42,3.2,2.81,4.88,1.92,2.33,5.36,3.16,8.23,3.16-3.02-3.01-6.03-6.03-9.05-9.04v3.31c3.01-3.01,6.03-6.03,9.05-9.05h-4.62c-1.32,0-2.71-.03-3.98.36-1.88.58-3.82,1.51-5.09,3.06-1.92,2.34-2.64,4.38-2.95,7.38-.27,2.74,1.3,5.37,2.95,7.38,1.28,1.55,3.22,2.48,5.09,3.06,1.27.4,2.66.36,3.98.36h4.62c-3.02-3.01-6.03-6.03-9.05-9.04.22,2.47.19,5.01-.13,7.47.1-.8.21-1.61.32-2.41-.16,1.13-.4,2.25-.82,3.31.3-.72.6-1.44.91-2.16-.2.48-.45.93-.77,1.35.47-.61.94-1.21,1.41-1.83-.19.23-.39.43-.62.62.61-.48,1.22-.95,1.83-1.41-.18.13-.37.24-.58.33.72-.3,1.43-.61,2.16-.91-.22.09-.43.14-.66.17.8-.1,1.59-.21,2.4-.32-.51.04-1.01,0-1.51-.05.8.11,1.6.22,2.4.32-.65-.1-1.25-.24-1.87-.48.73.3,1.44.61,2.16.92-.49-.22-.92-.48-1.35-.8.61.48,1.22.95,1.84,1.42-.34-.28-.63-.58-.9-.93.47.61.93,1.22,1.41,1.83-.27-.36-.48-.73-.66-1.13.3.72.61,1.44.91,2.17-.08-.22-.17-.44-.22-.67-2.9,3.82-5.81,7.63-8.72,11.45.7-.04,1.4-.07,2.11-.11,3.23-.18,6.13-1.62,7.81-4.48,2.08-3.57,1.4-8.03-1.42-10.96-1.54-1.6-3.07-3.2-4.61-4.81-4.51-4.7-13.72-2.7-15.11,3.99-.49,2.34-.98,4.68-1.46,7.03-.67,3.22-.06,6.4,2.33,8.8,2.82,2.83,7.5,3.54,10.96,1.41.68-.42,1.36-.83,2.04-1.26-4.43-1.8-8.86-3.61-13.29-5.41.82,4.49,3.64,8.42,7.38,10.92,3.23,2.16,7.13,2.58,10.67,3.93-.72-.3-1.44-.61-2.16-.91.67.29,1.33.6,1.93,1.02,2.45,1.7,6.69,1.7,9.13,0,.6-.42,1.26-.73,1.93-1.02-.73.31-1.45.61-2.16.91,3.58-1.36,7.33-1.88,10.67-3.93,3.77-2.31,6.58-6.56,7.37-10.92-4.42,1.8-8.86,3.6-13.28,5.41.68.42,1.36.84,2.04,1.26,2.74,1.68,6.38,1.61,9.13,0,3.67-2.15,4.99-6.21,4.16-10.21-.48-2.35-.97-4.69-1.47-7.03-1-4.83-6.6-7.57-11.12-6.32-4.98,1.37-7.32,6.3-6.32,11.12.49,2.35.98,4.69,1.45,7.03,4.43-3.41,8.86-6.81,13.29-10.22-.68-.42-1.36-.83-2.04-1.25-2.04-1.26-4.68-1.54-6.96-.91-2.84.78-5.77,3.3-6.32,6.32-.14.77-.4,1.52-.69,2.24.31-.72.61-1.44.92-2.16-.31.7-.66,1.36-1.11,1.97.47-.61.94-1.22,1.41-1.83-.28.36-.58.66-.94.95.61-.46,1.22-.94,1.83-1.41-.69.52-1.46.9-2.26,1.25.72-.3,1.44-.61,2.15-.91-3.55,1.44-7.62,1.81-10.82,4.05h9.13c-3.22-2.24-7.27-2.62-10.82-4.05.72.31,1.44.61,2.16.91-.8-.34-1.57-.72-2.27-1.25.61.47,1.22.95,1.83,1.41-.35-.29-.65-.6-.94-.95.48.61.95,1.22,1.42,1.83-.46-.61-.81-1.27-1.12-1.97.3.72.61,1.44.91,2.16-.29-.72-.54-1.47-.68-2.24-.4-2.21-2.29-4.31-4.16-5.41-2.75-1.61-6.4-1.68-9.14,0-.67.42-1.36.83-2.04,1.25,4.43,3.41,8.86,6.81,13.29,10.22.49-2.34.98-4.68,1.46-7.03-5.04,1.33-10.08,2.67-15.12,3.99,1.54,1.6,3.08,3.2,4.62,4.81,2.12-5.15,4.26-10.3,6.4-15.44-.7.04-1.41.08-2.11.11-6.07.34-10,5.5-8.72,11.45.79,3.67,3.91,7.41,7.3,8.93,3.43,1.53,6.96,2.23,10.69,1.37,3.12-.72,5.58-3.06,7.24-5.67,2.1-3.28,2.56-7.6,2.74-11.37.08-1.62.05-3.25-.09-4.86-.23-2.48-.84-4.59-2.65-6.4-1.69-1.69-4.01-2.65-6.4-2.65-2.04,0-4.16.17-6.19-.04.8.11,1.6.21,2.4.32-.11-.04-.22-.07-.33-.1.72.3,1.44.61,2.16.91-.1-.05-.19-.11-.29-.16.61.47,1.22.95,1.83,1.41-.19-.12-.34-.28-.47-.47.47.61.95,1.21,1.41,1.83-.05-.1-.1-.2-.16-.3.31.72.61,1.44.91,2.16-.03-.11-.06-.22-.1-.33.1.8.21,1.6.32,2.4-.05-.24-.05-.48,0-.71-.1.8-.21,1.61-.32,2.4.04-.11.06-.22.1-.33-.3.72-.61,1.44-.91,2.16.06-.1.11-.2.16-.3-.47.61-.94,1.22-1.41,1.83.13-.19.28-.35.47-.47-.61.47-1.22.94-1.83,1.41.1-.04.2-.11.29-.16-.71.3-1.44.61-2.16.91.11-.04.22-.07.33-.1-.8.11-1.6.21-2.4.32,2.03-.21,4.15-.04,6.19-.04,4.93,0,9.05-4.11,9.05-9.04v-3.31c0-4.93-4.12-9.05-9.05-9.05-.32,0-.63,0-.95-.04.8.11,1.6.22,2.4.32-.1-.03-.22-.07-.33-.1.72.31,1.44.61,2.16.91-.1-.05-.2-.11-.3-.16.61.47,1.22.95,1.83,1.41-.19-.13-.35-.29-.47-.47.47.61.94,1.22,1.42,1.83-.06-.1-.12-.2-.17-.3.29.72.61,1.44.91,2.16-.03-.11-.07-.22-.1-.33.11.8.21,1.61.32,2.4-.04-.22-.05-.44,0-.66-.1.8-.22,1.61-.33,2.41.04-.09.06-.19.09-.29,1.32-4.88-1.61-9.65-6.33-11.13-.45-.14-.89-.3-1.33-.48.72.3,1.44.61,2.16.91-1.08-.47-2.08-1.05-3.02-1.75.61.47,1.22.94,1.83,1.41-.92-.72-1.74-1.53-2.47-2.45.47.62.95,1.22,1.41,1.84-.71-.94-1.29-1.93-1.77-3.02.3.72.61,1.44.91,2.16-.46-1.11-.77-2.26-.95-3.45.12.81.22,1.61.33,2.41-.15-1.22-.16-2.42-.01-3.63-.11.8-.21,1.61-.32,2.4.17-1.15.46-2.25.88-3.34-.3.72-.61,1.44-.91,2.16.49-1.16,1.1-2.21,1.86-3.21-.47.61-.95,1.22-1.41,1.83.7-.88,1.48-1.67,2.37-2.37-.61.47-1.22.94-1.83,1.41,1-.76,2.06-1.37,3.21-1.86-.72.31-1.45.61-2.16.92,1.08-.43,2.18-.72,3.33-.89-.8.11-1.61.22-2.4.33,1.19-.14,2.37-.14,3.56,0-.8-.11-1.61-.22-2.41-.33,1.16.16,2.26.46,3.34.89-.72-.31-1.44-.61-2.16-.92,1.15.49,2.21,1.1,3.2,1.86-.61-.47-1.22-.94-1.83-1.41.88.7,1.67,1.48,2.37,2.37-.47-.61-.95-1.22-1.42-1.83.76.99,1.37,2.05,1.86,3.21-.31-.72-.61-1.45-.91-2.16.43,1.08.72,2.19.88,3.34-.11-.8-.21-1.6-.32-2.4.14,1.22.14,2.41,0,3.63.1-.8.21-1.61.32-2.41-.18,1.19-.49,2.34-.94,3.45.3-.72.61-1.44.91-2.16-.48,1.08-1.07,2.07-1.78,3.02.47-.61.95-1.22,1.42-1.84-.73.92-1.55,1.73-2.47,2.45.61-.47,1.22-.94,1.83-1.41-.95.7-1.95,1.28-3.02,1.75.71-.31,1.43-.61,2.16-.91-.44.18-.88.34-1.34.48-4.73,1.47-7.63,6.24-6.32,11.13.02.1.05.19.07.29-.11-.8-.22-1.6-.32-2.41.04.22.03.44,0,.66.1-.8.21-1.61.32-2.4-.03.11-.06.22-.1.33.31-.72.61-1.43.91-2.16-.06.1-.1.2-.16.3.47-.61.95-1.22,1.41-1.83-.12.19-.29.35-.47.47.61-.47,1.22-.94,1.83-1.41-.1.05-.2.11-.29.16.72-.3,1.44-.61,2.16-.91-.11.04-.22.07-.33.1.8-.11,1.6-.22,2.4-.32-.32.03-.62.04-.95.04-4.94,0-9.05,4.12-9.05,9.05v3.31c0,4.94,4.11,9.04,9.05,9.04,2.04,0,4.16-.17,6.19.04-.8-.11-1.6-.22-2.4-.32.11.03.22.06.33.1-.72-.3-1.44-.61-2.17-.91.1.05.2.11.3.16-.61-.47-1.22-.94-1.83-1.41.18.12.35.28.47.47-.47-.61-.94-1.22-1.42-1.83.05.1.11.2.16.3-.3-.72-.61-1.44-.91-2.16.04.11.07.22.1.33-.11-.8-.22-1.6-.32-2.4.04.23.04.47,0,.71.1-.8.21-1.6.32-2.4-.03.11-.07.22-.1.33.31-.72.61-1.44.91-2.16-.05.1-.11.2-.16.3.47-.61.94-1.22,1.42-1.83-.13.18-.29.34-.47.47.61-.47,1.22-.94,1.83-1.41-.1.05-.2.11-.3.16.73-.3,1.44-.61,2.17-.91-.11.03-.22.07-.33.1.8-.11,1.6-.21,2.4-.32-2.03.21-4.15.04-6.19.04-1.63,0-3.15.42-4.55,1.24-1.83,1.07-3.83,3.22-4.16,5.41-.92,6.11-1.27,12.8,1.84,18.38,3.12,5.61,10.36,7.78,16.25,5.46,4.33-1.7,8.42-5.04,9.46-9.84,1.28-5.95-2.64-11.11-8.72-11.45-.71-.04-1.4-.07-2.1-.11,2.13,5.14,4.26,10.3,6.4,15.44,1.54-1.61,3.07-3.21,4.61-4.81,3.41-3.56,3.54-9.25,0-12.79-3.43-3.43-9.38-3.56-12.8,0Z"/>
          <path d="M142.33,60.47c0-.48.04-.94.1-1.41-.1.8-.21,1.6-.32,2.41.13-.8.34-1.56.63-2.31-.31.72-.61,1.44-.91,2.16.36-.83.8-1.59,1.35-2.31-.47.61-.94,1.22-1.42,1.84.5-.61,1.05-1.15,1.65-1.65-.61.47-1.22.94-1.83,1.42.72-.54,1.48-1,2.31-1.35-.72.3-1.44.61-2.16.91.75-.3,1.51-.51,2.31-.63-.8.1-1.6.21-2.4.32.95-.12,1.88-.12,2.82,0-.8-.11-1.61-.22-2.41-.32.8.13,1.56.33,2.32.63-.72-.3-1.44-.61-2.16-.91.82.35,1.58.81,2.31,1.35-.61-.47-1.22-.94-1.84-1.42.61.5,1.15,1.04,1.65,1.65-.47-.61-.95-1.22-1.41-1.84.55.72.99,1.48,1.35,2.31-.3-.72-.61-1.44-.91-2.16.3.76.51,1.51.64,2.31-.11-.8-.22-1.61-.33-2.41.12.95.12,1.88,0,2.82.11-.8.22-1.61.33-2.41-.13.8-.34,1.56-.64,2.31.31-.72.61-1.44.91-2.16-.36.83-.8,1.59-1.35,2.31.47-.61.95-1.22,1.41-1.83-.49.61-1.03,1.15-1.65,1.65.61-.47,1.22-.94,1.84-1.41-.73.55-1.49.99-2.31,1.35.72-.3,1.44-.61,2.16-.91-.76.29-1.52.5-2.32.63.8-.11,1.61-.22,2.41-.33-.95.12-1.88.12-2.82,0,.8.11,1.6.22,2.4.33-.8-.13-1.56-.34-2.31-.63.72.3,1.44.61,2.16.91-.83-.36-1.59-.8-2.31-1.35.61.48,1.22.94,1.83,1.41-.61-.49-1.15-1.04-1.65-1.65.48.61.95,1.22,1.42,1.83-.55-.72-.99-1.48-1.35-2.31.31.72.61,1.44.91,2.16-.29-.75-.5-1.51-.63-2.31.11.8.22,1.61.32,2.41-.06-.47-.09-.94-.1-1.41-.09-4.93-4.05-9.04-9.05-9.04s-9.14,4.11-9.05,9.04c.09,5.01,1.99,9.54,5.39,13.19,3.38,3.61,8.23,5.36,13.06,5.62,4.97.27,9.65-1.97,13.3-5.16,3.75-3.27,5.41-8.13,5.85-12.94.45-5-1.87-9.65-4.92-13.4-1.24-1.52-2.96-2.77-4.66-3.72-2.68-1.51-5.15-1.96-8.15-2.35-4.92-.62-9.79,1.66-13.49,4.68-1.54,1.25-2.79,2.9-3.81,4.58-1.56,2.55-2.11,5.18-2.47,8.08-.06.47-.09.93-.1,1.41-.09,4.93,4.19,9.05,9.05,9.05s8.95-4.12,9.05-9.05Z"/>
        </g>
      </g>
      <path class="st17" d="M157.3,86.9l-4.61,4.81,2.1.12s-.83,4.07-6.15,4.07c-5.98,0-3.96-13.27-3.96-13.27h5.84c.97,0,1.75-.79,1.75-1.75s-.79-1.76-1.75-1.76h-5.84v-3.31h.6c.97,0,1.75-.79,1.75-1.76,0-.21-.03-.4-.1-.59,5.6-1.67,9.68-6.85,9.68-12.99,0-7.48-6.06-13.55-13.55-13.55s-13.55,6.07-13.55,13.55c0,6.14,4.09,11.32,9.68,12.99-.06.19-.1.38-.1.59,0,.97.79,1.76,1.76,1.76h.59v3.31h-5.84c-.97,0-1.75.79-1.75,1.76s.79,1.75,1.75,1.75h5.84s1.22,13.27-3.95,13.27-6.16-4.07-6.16-4.07l2.11-.12-4.61-4.81-1.46,7.03,2.04-1.26s.62,3.52,2.73,5.17c2.12,1.65,6.56,2.57,8.17,3.07,1.6.49,2.75,1.31,2.75,1.31,0,0,1.15-.82,2.75-1.31,1.61-.49,6.06-1.42,8.17-3.07,2.12-1.65,2.73-5.17,2.73-5.17l2.05,1.26-1.46-7.03ZM133.29,60.47c0-5.39,4.37-9.76,9.76-9.76s9.77,4.37,9.77,9.76-4.37,9.76-9.77,9.76-9.76-4.37-9.76-9.76Z"/>
      <g>
        <path class="st3" d="M148.63,95.9c-3.45,0-4.23-4.4-4.28-8.14-.05,3.87.59,8.91,4.28,8.91,5.32,0,6.15-4.07,6.15-4.07l-.27-.02c-.53,1.18-2.03,3.31-5.88,3.31Z"/>
        <path class="st3" d="M146.97,74.45c.02-.08.03-.16.04-.25-.03.01-.07.02-.1.03.03.07.05.14.06.22Z"/>
        <polygon class="st3" points="153.39 91.75 157.3 87.68 158.57 93.82 158.76 93.93 157.3 86.9 152.68 91.71 153.39 91.75"/>
        <path class="st3" d="M137.47,96.67c3.63,0,4.11-6.53,4.08-10.43-.04,3.93-.67,9.65-4.08,9.65-3.86,0-5.36-2.14-5.88-3.31l-.28.02s.83,4.07,6.16,4.07Z"/>
        <path class="st3" d="M150.51,79.9c.84,0,1.53.58,1.71,1.37.03-.13.05-.26.05-.39,0-.97-.79-1.76-1.75-1.76h-5.84v.78h5.84Z"/>
        <path class="st3" d="M143.05,47.7c7.37,0,13.36,5.88,13.54,13.2,0-.14,0-.28,0-.42,0-7.48-6.06-13.55-13.55-13.55s-13.55,6.07-13.55,13.55c0,.15,0,.29.01.42.18-7.32,6.17-13.2,13.54-13.2Z"/>
        <polygon class="st3" points="128.81 87.68 132.71 91.75 133.42 91.71 128.81 86.9 127.35 93.93 127.53 93.82 128.81 87.68"/>
        <path class="st3" d="M139.18,74.23s-.06-.02-.1-.03c.01.09.03.17.04.25.02-.07.03-.14.06-.22Z"/>
        <path class="st3" d="M135.59,79.9h5.84v-.78h-5.84c-.97,0-1.75.79-1.75,1.76,0,.13.02.26.05.39.18-.79.87-1.37,1.71-1.37Z"/>
        <path class="st3" d="M143.05,71.02c5.4,0,9.77-4.38,9.77-9.77,0-.13,0-.26-.01-.39-.2,5.21-4.5,9.37-9.76,9.37s-9.55-4.16-9.76-9.37c0,.13,0,.26,0,.39,0,5.39,4.37,9.77,9.76,9.77Z"/>
      </g>
      <g>
        <path class="st6" d="M140.83,75.81h.59v-1.17h-.59c-.76,0-1.41-.48-1.65-1.17-.06.18-.1.37-.1.58,0,.97.79,1.76,1.76,1.76Z"/>
        <path class="st6" d="M146.92,72.3c.07.18.1.38.1.59s-.03.39-.09.57c5.59-1.67,9.67-6.84,9.67-12.98,0-.18,0-.37-.01-.56-.26,5.87-4.25,10.77-9.67,12.38Z"/>
        <path class="st6" d="M141.43,81.47h-5.84c-.76,0-1.41-.49-1.65-1.17-.06.18-.1.37-.1.58,0,.97.79,1.75,1.75,1.75h5.84s.1,1.09.12,2.64c.03-2.15-.12-3.8-.12-3.8Z"/>
        <path class="st6" d="M156.71,91.51s-.61,3.53-2.73,5.17c-2.12,1.65-6.56,2.58-8.17,3.07-1.6.49-2.75,1.31-2.75,1.31,0,0-1.15-.82-2.75-1.31-1.61-.49-6.06-1.42-8.17-3.07-2.11-1.64-2.73-5.17-2.73-5.17l-1.77,1.09-.28,1.33,2.04-1.26s.62,3.52,2.73,5.17c2.12,1.65,6.56,2.57,8.17,3.07,1.6.49,2.75,1.31,2.75,1.31,0,0,1.15-.82,2.75-1.31,1.61-.49,6.06-1.42,8.17-3.07,2.12-1.65,2.73-5.17,2.73-5.17l2.05,1.26-.28-1.33-1.77-1.09Z"/>
        <path class="st6" d="M131.78,91.8l1.64-.09-1.06-1.11-1.04.05s.1.5.47,1.14Z"/>
        <path class="st6" d="M154.33,91.8c.35-.64.46-1.14.46-1.14l-1.04-.05-1.06,1.11,1.64.09Z"/>
        <path class="st6" d="M143.05,50.71c5.2,0,9.45,4.06,9.75,9.18,0-.2.02-.39.02-.58,0-5.39-4.37-9.77-9.77-9.77s-9.76,4.38-9.76,9.77c0,.2,0,.39.01.58.31-5.13,4.55-9.18,9.75-9.18Z"/>
        <path class="st6" d="M150.51,82.63c.97,0,1.75-.79,1.75-1.75,0-.21-.04-.4-.1-.58-.23.68-.88,1.17-1.65,1.17h-5.84s-.38,2.49-.32,5.31c.05-2.3.32-4.14.32-4.14h5.84Z"/>
        <path class="st6" d="M139.18,73.46c-.06-.18-.1-.37-.1-.57s.04-.41.1-.59c-5.41-1.62-9.41-6.51-9.66-12.38-.01.19-.02.37-.02.56,0,6.14,4.08,11.31,9.68,12.98Z"/>
        <path class="st6" d="M145.27,74.64h-.6v1.17h.6c.97,0,1.75-.79,1.75-1.76,0-.21-.03-.4-.1-.58-.24.68-.89,1.17-1.66,1.17Z"/>
      </g>
    </g>
    <g>
      <g>
        <path class="st10" d="M205.19,127.59c-27.17-2.63-60.84-2.87-62.13-2.88h-.03c-1.29,0-34.95.24-62.13,2.88-27.7,2.69-44.6,6.2-44.6,6.2l1.53,17.76s57.11-7.92,105.22-7.92,105.39,8.05,105.39,8.05l1.35-17.89s-16.9-3.52-44.6-6.2Z"/>
        <path d="M205.19,118.54c-20.62-1.98-41.41-2.75-62.13-2.88,3.02,3.01,6.03,6.03,9.05,9.05h0c0-4.93-4.11-9.05-9.05-9.05h-.03c-4.94,0-9.05,4.12-9.05,9.05h0c3.01-3.02,6.03-6.03,9.05-9.05-21.39.13-42.86.95-64.15,3.08-15.02,1.5-30.19,3.25-44.98,6.33-3.67.76-6.97,4.94-6.64,8.72.51,5.92,1.02,11.84,1.53,17.76.21,2.47.84,4.59,2.64,6.4,1.13,1.12,2.46,1.9,3.99,2.32,1.61.43,3.2.43,4.81,0,.28-.04.57-.07.86-.11-.8.11-1.6.21-2.41.32,18.59-2.49,37.28-4.36,55.99-5.77,14.51-1.09,29.05-1.85,43.61-2.01,14.57-.16,29.15.43,43.69,1.37,21.15,1.37,42.28,3.46,63.29,6.23.53.07,1.06.14,1.58.21-.8-.11-1.6-.21-2.4-.32.53.07,1.06.14,1.59.22,2.53.36,4.67.44,6.97-.91,2.91-1.7,4.24-4.56,4.47-7.81.46-5.96.91-11.93,1.36-17.89.28-3.79-2.94-7.96-6.64-8.72-4-.83-8.03-1.48-12.06-2.12-11.59-1.83-23.26-3.27-34.95-4.41-4.91-.48-9.05,4.47-9.05,9.05,0,2.39.96,4.71,2.65,6.39,1.82,1.82,3.91,2.41,6.4,2.65,7.19.7,14.36,1.52,21.51,2.48-.8-.11-1.6-.22-2.41-.33,7.72,1.04,15.47,2.14,23.09,3.73-2.21-2.91-4.42-5.81-6.64-8.72-.45,5.96-.9,11.93-1.35,17.89,3.82-2.91,7.63-5.81,11.45-8.72-16.23-2.28-32.55-4.02-48.88-5.45-28.82-2.52-57.66-3.61-86.57-2.19-23.5,1.15-46.96,3.34-70.3,6.25-3.23.4-6.45.81-9.67,1.26,3.82,2.91,7.63,5.82,11.45,8.73-.51-5.92-1.02-11.84-1.54-17.76-2.21,2.91-4.43,5.81-6.64,8.72,7.63-1.59,15.37-2.69,23.09-3.73-.8.11-1.61.22-2.41.33,25.97-3.48,52.13-4.88,78.32-5.29,1.77-.03,3.54-.06,5.32-.07,4.93-.03,9.04-4.09,9.04-9.05h0c-3.01,3.02-6.03,6.03-9.04,9.05h.03c-3.01-3.01-6.03-6.03-9.05-9.05h0c0,4.95,4.12,9.02,9.05,9.05,20.71.12,41.51.89,62.13,2.88,4.92.48,9.05-4.47,9.05-9.04,0-2.39-.96-4.71-2.65-6.4-1.82-1.82-3.91-2.41-6.4-2.65Z"/>
      </g>
      <path class="st16" d="M205.19,127.59c-27.17-2.63-60.84-2.87-62.13-2.88h-.03c-1.29,0-34.95.24-62.13,2.88-27.7,2.69-44.6,6.2-44.6,6.2l1.35,17.89s51.99-8.05,105.4-8.05,105.39,8.05,105.39,8.05l1.35-17.89s-16.9-3.52-44.6-6.2Z"/>
      <path class="st13" d="M80.9,132.45c27.17-2.63,60.84-2.87,62.13-2.88h0s0,0,.02,0h.02c1.29,0,34.96.25,62.13,2.88,25.36,2.45,41.66,5.61,44.24,6.12l.36-4.78s-16.9-3.52-44.6-6.2c-27.17-2.63-60.84-2.87-62.13-2.88h-.03c-1.29,0-34.95.24-62.13,2.88-27.7,2.69-44.6,6.2-44.6,6.2l.36,4.78c2.59-.51,18.88-3.67,44.24-6.12Z"/>
      <path class="st4" d="M248.44,144.4s-51.98-8.05-105.39-8.05-105.4,8.05-105.4,8.05l-.81-10.71c-.36.07-.54.11-.54.11l1.35,17.89s51.99-8.05,105.4-8.05,105.39,8.05,105.39,8.05l1.35-17.89s-.18-.04-.55-.11l-.8,10.71Z"/>
    </g>
  </g>
  <g>
    <g>
      <g>
        <g>
          <path class="st2" d="M105.1,185.33c0,8.16-6.63,14.78-14.79,14.78s-14.79-6.62-14.79-14.78,6.63-14.79,14.79-14.79,14.79,6.62,14.79,14.79Z"/>
          <path d="M103.16,185.33c-.06,5.54-3.6,10.47-8.88,12.22-5.36,1.77-11.39-.34-14.57-4.97-3.17-4.62-2.91-11.01.62-15.35,3.62-4.44,9.63-5.8,14.91-3.78,4.82,1.84,7.86,6.84,7.92,11.88.03,2.5,3.9,2.5,3.87,0-.07-6.03-3.26-11.53-8.47-14.55-5.24-3.04-11.94-2.79-17.06.35-5.12,3.13-8.1,8.98-7.89,14.93.22,6.03,3.91,11.56,9.27,14.25,5.14,2.58,11.37,2.22,16.26-.77,4.92-3.01,7.83-8.5,7.9-14.21.03-2.5-3.84-2.5-3.87,0Z"/>
        </g>
        <path class="st9" d="M100.95,181.44c0,2-1.63,3.63-3.63,3.63s-3.63-1.63-3.63-3.63,1.63-3.63,3.63-3.63,3.63,1.62,3.63,3.63Z"/>
      </g>
      <g>
        <g>
          <g>
            <path class="st2" d="M213.28,185.33c0,8.16-6.63,14.78-14.79,14.78s-14.78-6.62-14.78-14.78,6.63-14.79,14.78-14.79,14.79,6.62,14.79,14.79Z"/>
            <path d="M211.34,185.33c-.06,5.54-3.59,10.47-8.88,12.22-5.28,1.74-11.25-.28-14.45-4.8-3.2-4.52-3.12-10.88.3-15.26,3.52-4.51,9.47-6.06,14.8-4.16,4.99,1.78,8.18,6.83,8.24,12,.04,2.5,3.91,2.5,3.88,0-.07-6.03-3.26-11.53-8.47-14.55-5.25-3.04-11.94-2.79-17.07.35-5.11,3.13-8.09,8.97-7.89,14.92.21,5.95,3.81,11.41,9.06,14.15,5.17,2.7,11.52,2.37,16.47-.66,4.92-3.01,7.83-8.5,7.9-14.21.03-2.5-3.84-2.5-3.88,0Z"/>
          </g>
          <path class="st9" d="M209.13,181.44c0,2-1.62,3.63-3.63,3.63s-3.63-1.63-3.63-3.63,1.63-3.63,3.63-3.63,3.63,1.62,3.63,3.63Z"/>
        </g>
        <path class="st7" d="M88.17,207.48c.31,2.3-3.67,4.75-8.89,5.46-5.22.71-9.7-.59-10.02-2.9-.31-2.31,3.66-4.76,8.88-5.46,5.22-.71,9.7.58,10.02,2.9Z"/>
        <path class="st7" d="M197.94,207.48c-.31,2.3,3.66,4.75,8.88,5.46,5.22.71,9.71-.59,10.02-2.9.32-2.31-3.67-4.76-8.88-5.46-5.22-.71-9.71.58-10.02,2.9Z"/>
      </g>
    </g>
    <path d="M151.52,213.59c-.04.3-.13.6-.23.89-.05.15-.1.3-.16.44.37-.92.1-.25,0-.04-.09.19-.2.37-.31.55-.1.16-.69.95-.17.29-.33.43-.73.81-1.15,1.17-.24.19-.22.19.04-.03-.12.09-.26.18-.39.26-.28.19-.58.35-.88.5-.48.25-.88.38-1.76.6-.96.24-1.76.3-2.83.32-1.81.05-3.35-.16-5.07-.8.47.17-.45-.22-.54-.28-.29-.15-.56-.33-.83-.51-.41-.27.28.27-.29-.24-.25-.22-.49-.47-.71-.72-.35-.39.34.49-.11-.16-.13-.18-.24-.37-.35-.56-.1-.18-.19-.36-.28-.54-.16-.34.27.7,0-.04-.16-.43-.33-1.81-.17-.34-.17-1.54-1.17-2.84-2.85-2.84-1.42,0-3.01,1.3-2.85,2.84.23,2.01,1.07,3.79,2.34,5.37,2.6,3.25,6.88,4.38,10.86,4.51,4.17.14,8.68-1.01,11.57-4.18,1.2-1.32,2.34-3.14,2.6-4.94.23-1.53-.35-3.05-1.99-3.5-1.35-.37-3.27.45-3.5,1.99h0Z"/>
  </g>
</svg>