<?xml version="1.0" encoding="UTF-8"?>
<svg id="Layer_1" xmlns="http://www.w3.org/2000/svg" version="1.1" viewBox="0 0 237.92 312.31">
  <!-- Generator: Adobe Illustrator 29.6.1, SVG Export Plug-In . SVG Version: 2.1.1 Build 9)  -->
  <defs>
    <style>
      .st0 {
        fill: #5b2d15;
      }

      .st1 {
        fill: #f15a29;
      }

      .st2 {
        fill: #ffd7c3;
      }

      .st3 {
        fill: #58595b;
      }

      .st4 {
        fill: #000002;
      }

      .st5 {
        fill: #5b5b5b;
      }

      .st6 {
        fill: #414042;
      }

      .st7 {
        fill: #471a06;
      }

      .st8 {
        fill: #ed9026;
      }

      .st9 {
        fill: #aaa;
      }

      .st10 {
        fill: #d8d8d8;
      }

      .st11 {
        fill: #a0a0a0;
      }

      .st12 {
        fill: #ffd4a9;
      }

      .st13 {
        fill: #fff3ee;
      }

      .st14 {
        fill: #f1f2f2;
      }

      .st15 {
        fill: #fff2e9;
      }

      .st16 {
        fill: #636363;
      }

      .st17 {
        fill: #f38b9e;
      }

      .st18 {
        fill: #fff;
      }

      .st19 {
        fill: #fdc361;
      }

      .st20 {
        fill: #747673;
      }

      .st21 {
        fill: #f7941e;
      }

      .st22 {
        fill: #fde5d2;
      }

      .st23 {
        fill: #ffebde;
      }

      .st24 {
        fill: #808285;
      }

      .st25 {
        fill: #e23000;
      }

      .st26 {
        fill: #723f29;
      }

      .st27 {
        fill: #3f4042;
      }

      .st28 {
        fill: #7f7f7f;
      }

      .st29 {
        fill: #e6e7e8;
      }

      .st30 {
        fill: #f4bba2;
      }

      .st31 {
        fill: #4b4b4b;
      }

      .st32 {
        fill: #d67009;
      }
    </style>
  </defs>
  <g>
    <g>
      <path class="st18" d="M57.73,233.24c-.8-4.4-.76-7.77-.76-7.77,0,0,9.09,14.77,20.63,17.94,11.55,3.18,43.8,0,43.8,0l-12.75-43.97L9.85,119.79s-.24,77.88,8.76,96.68c12.02,25.11,31.79,25.65,31.79,25.65,0,0-6.58-5.51-8.72-12.3-2.14-6.8-.95-12.15-.95-12.15,0,0,3.05,10.96,8.18,17.08,5.76,6.88,14.07,9.46,14.07,9.46,0,0-4.34-5.85-5.26-10.97Z"/>
      <path d="M67.07,230.66c-.12-.68-.23-1.35-.32-2.02.12.86.22,1.71.35,2.57-.26-1.9-.46-3.83-.44-5.75-6.02,1.63-12.04,3.26-18.05,4.9,2.04,3.29,4.51,6.36,7.07,9.26,4.89,5.52,10.79,9.92,17.67,12.58,2.75,1.06,5.77,1.35,8.65,1.71,2.43.31,4.87.44,7.33.52,5.47.18,10.96.02,16.43-.24,5.22-.24,10.45-.59,15.65-1.1,2.66-.27,4.9-.88,6.85-2.84,2.41-2.42,3.44-6.12,2.49-9.43-3.82-13.18-7.64-26.36-11.46-39.53-.63-2.18-1.1-4.78-2.26-6.75-.87-1.5-1.72-2.14-2.95-3.12-3.48-2.82-6.97-5.62-10.46-8.44-12.86-10.37-25.72-20.74-38.58-31.11-12.62-10.17-25.24-20.34-37.86-30.52-3.49-2.81-6.99-5.62-10.48-8.43-2.77-2.23-5.81-3.48-9.42-2.49-4.16,1.15-7.1,5.03-7.11,9.34-.04,12.49.29,24.99.83,37.47.45,10.27,1.09,20.54,2.15,30.78.94,8.98,1.92,18.25,4.58,26.92,3.72,12.11,12.22,23.01,22.72,29.97,5.79,3.85,12.91,6.54,19.91,6.87.01,0,.03,0,.05,0,3.38.1,6.67-1.92,8.37-4.8,2.05-3.51,1.78-8.96-1.52-11.74-1.74-1.46-3.27-3.2-4.68-4.98.51.65,1.01,1.3,1.51,1.96-1.37-1.79-2.57-3.7-3.47-5.78.33.77.65,1.54.98,2.31-.78-1.92-1.26-3.93-1.57-5.97.12.85.23,1.71.34,2.57-.31-2.29-.38-4.62-.07-6.92-.12.86-.24,1.71-.35,2.57.04-.27.07-.54.14-.81h-18.68c.56,2.01,1.27,3.98,2.04,5.93,1.71,4.38,3.6,8.81,6.43,12.6,5.1,6.85,12.35,12.2,20.55,14.77,3.26,1.03,7.04-.12,9.42-2.48,2.84-2.84,4.06-8.29,1.52-11.75-1.62-2.19-2.97-4.6-4.05-7.1.32.77.65,1.55.98,2.32-.52-1.26-.95-2.54-1.21-3.87-1.02-5.18-7.12-8.09-11.92-6.77-2.42.67-4.52,2.29-5.79,4.46-1.4,2.37-1.5,4.83-.98,7.46.65,3.3,2.16,6.47,3.77,9.4.74,1.34,1.56,2.66,2.46,3.88,3.64-4.74,7.29-9.48,10.94-14.23-.61-.19-1.22-.43-1.81-.68.77.32,1.54.65,2.31.97-2.81-1.19-5.45-2.73-7.87-4.58.65.51,1.3,1.01,1.96,1.51-1.78-1.4-3.43-2.98-4.84-4.76.51.65,1,1.3,1.52,1.96-2.1-2.73-3.67-5.81-5.02-8.96.33.77.65,1.54.98,2.31-1.04-2.46-1.99-4.98-2.7-7.55-1.17-4.16-5.02-7.12-9.35-7.12s-8.42,2.94-9.33,7.12c-2.71,12.42,2.53,25.78,12.15,33.88,2.29-5.51,4.57-11.03,6.85-16.54-.44-.02-.89-.07-1.33-.13.86.11,1.72.23,2.58.34-2.66-.36-5.24-1.15-7.7-2.18.77.32,1.54.65,2.31.98-3.03-1.28-5.85-2.96-8.45-4.95.65.51,1.3,1.01,1.96,1.51-3.01-2.34-5.68-5.06-8.02-8.07.5.66,1,1.3,1.51,1.96-2.66-3.46-5.02-7.27-6.73-11.29.33.77.66,1.55.98,2.31-2.62-6.29-3.57-13.35-4.47-20.05.12.86.24,1.71.35,2.57-2.59-19.41-3.27-39.12-3.67-58.68-.12-5.66-.2-11.31-.18-16.97-5.51,2.29-11.02,4.57-16.53,6.85,6.73,5.43,13.47,10.86,20.19,16.29,13.72,11.05,27.45,22.12,41.17,33.18,11.01,8.87,22.01,17.74,33.01,26.61,1.48,1.19,2.96,2.38,4.45,3.57-.83-1.43-1.66-2.85-2.49-4.27,3.82,13.18,7.64,26.36,11.46,39.54.43,1.47.86,2.96,1.29,4.43,3.11-4.09,6.22-8.17,9.33-12.26-4.89.48-9.8.8-14.7,1.06-8.35.43-16.9.79-25.22-.31.86.12,1.72.23,2.57.35-2.14-.29-4.21-.75-6.22-1.56.77.33,1.54.65,2.31.97-2.33-.99-4.47-2.34-6.48-3.88.66.5,1.3,1.01,1.96,1.51-3.42-2.68-6.38-5.88-9.03-9.3.5.65,1.01,1.31,1.51,1.96-.97-1.28-1.94-2.58-2.78-3.94-2.29-3.71-6.67-5.63-10.94-4.45-4.18,1.15-7.08,5.03-7.11,9.33-.02,3.45.51,6.96,1.1,10.35.41,2.36,2.46,4.62,4.45,5.79,2.24,1.31,4.96,1.66,7.46.98,2.42-.67,4.52-2.29,5.79-4.46,1.41-2.41,1.44-4.8.98-7.46Z"/>
    </g>
    <path class="st0" d="M57.73,233.24c-.8-4.4-.76-7.77-.76-7.77,0,0,9.09,14.77,20.63,17.94,11.55,3.18,43.8,0,43.8,0l-12.75-43.97L9.85,119.79s-.24,77.88,8.76,96.68c12.02,25.11,31.79,25.65,31.79,25.65,0,0-6.58-5.51-8.72-12.3-2.14-6.8-.95-12.15-.95-12.15,0,0,3.05,10.96,8.18,17.08,5.76,6.88,14.07,9.46,14.07,9.46,0,0-4.34-5.85-5.26-10.97Z"/>
    <path class="st7" d="M48.5,240.33c-6.84-2.56-16.86-8.77-24.08-23.86-7.67-16.01-8.63-74.87-8.75-91.98l-5.83-4.7s-.24,77.88,8.76,96.68c12.02,25.11,31.79,25.65,31.79,25.65,0,0-.78-.65-1.9-1.79Z"/>
  </g>
  <g>
    <g>
      <path class="st18" d="M179.79,233.24c.8-4.4.76-7.77.76-7.77,0,0-9.09,14.77-20.64,17.94-11.54,3.18-43.8,0-43.8,0l12.74-43.97,98.81-79.65s.24,77.88-8.76,96.68c-12.02,25.11-31.79,25.65-31.79,25.65,0,0,6.58-5.51,8.72-12.3,2.14-6.8.93-12.15.93-12.15,0,0-3.04,10.96-8.17,17.08-5.76,6.88-14.07,9.46-14.07,9.46,0,0,4.34-5.85,5.26-10.97Z"/>
      <path d="M189.13,235.81c.59-3.38,1.13-6.89,1.1-10.35-.04-4.3-2.93-8.19-7.11-9.33-4.27-1.18-8.65.74-10.94,4.45-.85,1.37-1.81,2.67-2.79,3.94.51-.65,1.01-1.31,1.52-1.96-2.66,3.43-5.63,6.62-9.04,9.3.65-.5,1.3-1.01,1.96-1.51-2.01,1.54-4.14,2.89-6.48,3.88.77-.33,1.55-.65,2.31-.97-2.01.81-4.08,1.26-6.22,1.56.86-.12,1.73-.23,2.58-.35-8.22,1.09-16.65.73-24.91.32-5.01-.25-10.03-.58-15.02-1.07,3.11,4.09,6.23,8.17,9.33,12.26,3.83-13.17,7.64-26.35,11.47-39.54.43-1.48.86-2.96,1.29-4.43-.83,1.43-1.66,2.85-2.49,4.27,6.74-5.42,13.47-10.85,20.19-16.28,13.73-11.05,27.45-22.12,41.17-33.18,11-8.87,22.01-17.75,33.02-26.61,1.48-1.2,2.96-2.38,4.43-3.58-5.51-2.28-11.03-4.56-16.53-6.85.04,12.49-.29,24.99-.83,37.47-.55,12.75-1.34,25.53-3.02,38.19.12-.86.24-1.71.34-2.57-.89,6.7-1.85,13.76-4.46,20.05.32-.77.65-1.54.98-2.31-1.7,4.02-4.07,7.83-6.73,11.29.5-.65,1.01-1.3,1.51-1.96-2.35,3.01-5.01,5.73-8.02,8.07.66-.5,1.31-1,1.96-1.51-2.61,2-5.43,3.67-8.45,4.95.77-.32,1.54-.65,2.31-.98-2.46,1.03-5.04,1.81-7.7,2.18.86-.11,1.71-.23,2.58-.34-.44.06-.88.11-1.32.13,2.29,5.51,4.56,11.03,6.85,16.54,9.62-8.1,14.86-21.46,12.15-33.88-.9-4.18-5.21-7.12-9.34-7.12s-8.17,2.96-9.33,7.12c-.72,2.57-1.67,5.09-2.7,7.55.32-.77.65-1.54.98-2.31-1.35,3.15-2.91,6.23-5.01,8.96.5-.66,1-1.31,1.51-1.96-1.41,1.78-3.05,3.35-4.84,4.76.65-.5,1.3-1.01,1.96-1.51-2.42,1.85-5.07,3.39-7.87,4.58.77-.32,1.54-.65,2.31-.97-.6.25-1.2.49-1.81.68,3.65,4.75,7.29,9.49,10.94,14.23.84-1.13,1.58-2.34,2.29-3.56,1.72-3,3.28-6.32,3.95-9.72.51-2.63.41-5.09-.98-7.46-1.27-2.17-3.37-3.79-5.78-4.46-4.8-1.32-10.9,1.59-11.92,6.77-.26,1.34-.69,2.62-1.21,3.87.33-.77.65-1.55.98-2.32-1.08,2.5-2.44,4.91-4.05,7.1-1.99,2.71-1.61,7.03,0,9.78,2.13,3.65,6.81,5.75,10.94,4.45,8.1-2.55,15.17-7.8,20.31-14.48,2.9-3.77,4.77-8.2,6.53-12.58.82-2.04,1.56-4.12,2.16-6.24h-18.68c.06.27.1.54.14.81-.12-.86-.24-1.72-.35-2.57.3,2.29.23,4.62-.08,6.92.12-.86.24-1.72.35-2.57-.31,2.04-.79,4.05-1.58,5.97.33-.77.66-1.54.98-2.31-.9,2.08-2.1,3.99-3.47,5.78.51-.65,1.01-1.3,1.52-1.96-1.4,1.78-2.94,3.52-4.68,4.98-2.58,2.17-3.35,6.31-2.48,9.42,1.11,4.06,5.05,7.24,9.33,7.11,6.55-.19,13.26-2.8,18.78-6.13,6.02-3.62,10.84-8.48,15.08-14,3.65-4.75,6.63-10.14,8.54-15.84,2.82-8.4,3.74-17.58,4.7-26.34,1.13-10.21,1.76-20.46,2.23-30.72.6-12.97.93-25.97.9-38.96v-.04c-.01-3.42-1.85-6.63-4.8-8.36-1.51-.88-3.13-1.32-4.89-1.33-2.79,0-4.76,1.16-6.85,2.84-6.74,5.43-13.46,10.85-20.2,16.28-13.72,11.06-27.44,22.12-41.17,33.18-11,8.87-22.01,17.74-33.01,26.61-2.96,2.39-5.84,4.11-6.99,8.06-1.74,5.99-3.48,11.97-5.21,17.96-2.49,8.6-4.99,17.21-7.48,25.81-.72,2.48-.32,5.25.98,7.46,1.85,3.16,4.87,4.45,8.36,4.8,7.15.7,14.34,1.12,21.52,1.33,11.53.32,24.28.65,34.23-6.05,6.81-4.6,12.73-11.02,17.05-18.01-6.02-1.63-12.04-3.26-18.05-4.9.02,1.92-.19,3.85-.43,5.75.11-.86.23-1.72.35-2.57-.1.68-.21,1.35-.33,2.02-.46,2.67-.43,5.06.98,7.46,1.27,2.17,3.37,3.79,5.79,4.46,2.5.68,5.23.33,7.47-.98,1.99-1.17,4.04-3.43,4.45-5.79Z"/>
    </g>
    <path class="st0" d="M179.79,233.24c.8-4.4.76-7.77.76-7.77,0,0-9.09,14.77-20.64,17.94-11.54,3.18-43.8,0-43.8,0l12.74-43.97,98.81-79.65s.24,77.88-8.76,96.68c-12.02,25.11-31.79,25.65-31.79,25.65,0,0,6.58-5.51,8.72-12.3,2.14-6.8.93-12.15.93-12.15,0,0-3.04,10.96-8.17,17.08-5.76,6.88-14.07,9.46-14.07,9.46,0,0,4.34-5.85,5.26-10.97Z"/>
    <path class="st7" d="M227.67,119.79l-7.18,5.79c-.15,18.38-1.22,75.2-8.74,90.9-6.48,13.54-15.21,19.94-21.88,22.95-1.55,1.69-2.75,2.7-2.75,2.7,0,0,19.77-.54,31.79-25.65,9-18.81,8.76-96.68,8.76-96.68Z"/>
  </g>
  <g>
    <g>
      <g>
        <path class="st23" d="M149.53,233.76h-61.05s-11.93,66.17-3.82,69c8.11,2.84,15.63-10.09,15.63-10.09h37.42s7.52,12.93,15.63,10.09c8.11-2.84-3.82-69-3.82-69Z"/>
        <path d="M149.53,229.61h-61.05c-1.73,0-3.68,1.26-4.01,3.05-2.33,12.96-4.24,26.03-5.6,39.12-.83,7.9-1.67,16.05-.99,24,.23,2.68.54,5.92,2.13,8.21,3.18,4.61,9.68,3.77,13.97,1.27,4.08-2.38,7.52-6.44,9.88-10.48-1.2.68-2.39,1.37-3.58,2.05h37.42c-1.19-.69-2.38-1.37-3.58-2.05,1.83,3.13,4.28,6.14,7.08,8.45,4.2,3.46,10.95,6.14,15.69,2.1,2.22-1.89,2.69-5.33,3.05-8.02.44-3.34.42-6.74.32-10.1-.27-8.95-1.31-17.88-2.48-26.75-1.02-7.74-2.17-15.46-3.46-23.15-.25-1.55-.52-3.1-.8-4.65-.4-2.22-3.08-3.45-5.11-2.9-2.33.64-3.3,2.88-2.9,5.11.74,4.07,1.39,8.15,2.03,12.24.64,4.09,1.25,8.19,1.8,12.3.13.96-.13-1,0-.04.04.27.07.54.1.81.08.54.14,1.09.21,1.63.16,1.2.31,2.39.45,3.58.28,2.31.54,4.62.78,6.94.81,7.83,1.65,15.92.89,23.8-.03.33-.07.67-.11,1.01.21-1.66.05-.4-.02-.02-.1.59-.23,1.17-.39,1.74-.07.23-.14.46-.23.68-.28.76.55-1.15.13-.3-.09.17-.18.33-.29.49-.38.58.9-.99.23-.32-.49.47,1.09-.73.42-.35,1.16-.66.74-.26-.15-.06-.99.24.95-.06-.05,0-.29.02-.58.01-.86,0-.99-.05.96.18-.02,0-.38-.08-.74-.2-1.1-.32-.95-.32.83.4-.08-.02-.27-.13-.53-.28-.79-.42-.52-.29-1.02-.63-1.5-.98.87.63.05.04-.11-.09-.23-.19-.45-.4-.68-.6-.51-.46-.99-.95-1.47-1.45-.38-.41-.75-.83-1.1-1.26-.17-.2-.33-.4-.5-.61-.58-.71.57.76.05.07-.49-.66-.96-1.33-1.4-2.01-1.05-1.62-2.33-2.78-4.42-2.78h-35.02c-2.12,0-4.32-.14-5.61,2.07-.59,1.01-1.29,1.97-2,2.92.83-1.09-.27.31-.48.56-.36.43-.74.85-1.13,1.26-.4.43-.83.84-1.27,1.24-.21.2-.44.4-.67.6-.16.13-.31.25-.46.38.44-.34.49-.37.12-.1-.49.35-1,.66-1.52.94-.25.14-.52.27-.79.4,1.01-.47.13-.08-.09,0-.28.09-.55.16-.83.23-.97.22.96-.08-.03,0-.28.02-.57.02-.85,0-.47-.04-.39-.02.24.06-.2-.04-.39-.07-.58-.13-.22-.06-.44-.13-.65-.2,1.4.52,1.06.47.73.29-.57-.33,1,.88.43.32-.59-.58.69.97.28.38-.13-.19-.24-.39-.34-.59-.35-.69.47,1.22.12.29-.08-.23-.15-.47-.22-.69-.16-.59-.28-1.18-.39-1.78-.02-.15-.05-.3-.07-.46-.1-.7.15,1.17.06.46-.05-.33-.08-.68-.11-1.02-.08-.81-.13-1.62-.16-2.42-.36-8.35.55-16.8,1.49-25.09.26-2.3.54-4.61.84-6.9.07-.54.14-1.09.21-1.63.03-.27.07-.54.1-.81-.17,1.25-.04.28,0,.03.15-1.14.31-2.27.47-3.41.54-3.84,1.12-7.7,1.74-11.53.5-3.11,1.01-6.23,1.56-9.33-1.33,1.02-2.67,2.03-4,3.04h61.05c5.35,0,5.35-8.3,0-8.3Z"/>
      </g>
      <g>
        <path class="st4" d="M182,307.73c0,1.86-28.21,3.37-63,3.37s-62.99-1.5-62.99-3.37,28.2-3.37,62.99-3.37,63,1.51,63,3.37Z"/>
        <path d="M119,312.31c-16.85,0-32.7-.35-44.61-.98-19.59-1.05-19.59-2.22-19.59-3.59s0-2.54,19.59-3.59c11.91-.64,27.76-.99,44.61-.99s32.69.35,44.61.99c19.6,1.05,19.6,2.22,19.6,3.59s0,2.54-19.6,3.59c-11.92.63-27.76.98-44.61.98ZM60.04,307.73c7.97,1.14,29.68,2.16,58.96,2.16s50.82-1.01,58.87-2.14c-7.74-1.06-28.41-2.17-58.87-2.17s-50.99,1.02-58.96,2.16Z"/>
      </g>
    </g>
    <g>
      <g>
        <polygon class="st22" points="159.82 270.61 119.79 270.61 119.76 270.61 79.74 270.61 72.29 287.96 119.76 287.96 119.79 287.96 167.28 287.96 159.82 270.61"/>
        <path d="M159.82,263h-80.08c-2.42,0-5.55,1.4-6.58,3.77-2.48,5.79-4.96,11.57-7.45,17.37-1.1,2.58-1.5,5.11,0,7.68,1.36,2.31,3.89,3.77,6.57,3.77h94.99c2.68,0,5.21-1.45,6.57-3.77,1.5-2.57,1.1-5.1,0-7.68-2.48-5.8-4.96-11.58-7.45-17.37-.73-1.7-2.85-3.03-4.55-3.49-1.97-.54-4.1-.27-5.87.77-1.7.99-2.97,2.64-3.5,4.54-.59,2.16-.08,3.89.77,5.87,2.48,5.78,4.96,11.57,7.44,17.36,2.2-3.82,4.39-7.64,6.58-11.45h-94.99c2.19,3.81,4.39,7.64,6.58,11.45,2.49-5.79,4.96-11.58,7.45-17.36-2.19,1.25-4.38,2.51-6.57,3.76h80.08c4.15,0,7.61-3.46,7.61-7.6s-3.46-7.61-7.61-7.61Z"/>
      </g>
      <polygon class="st21" points="159.82 270.61 119.79 270.61 119.76 270.61 79.74 270.61 72.29 287.96 119.76 287.96 119.79 287.96 167.28 287.96 159.82 270.61"/>
      <polygon class="st32" points="119.76 280.01 119.79 280.01 163.86 280.01 159.82 270.61 119.79 270.61 119.76 270.61 79.74 270.61 75.71 280.01 119.76 280.01"/>
      <polygon class="st32" points="119.79 284.37 119.76 284.37 73.84 284.37 72.29 287.96 119.76 287.96 119.79 287.96 167.28 287.96 165.72 284.37 119.79 284.37"/>
    </g>
    <g>
      <g>
        <path class="st2" d="M159.7,226.26s29.81,35.41,16.88,43.04c-12.94,7.64-31.04-25.45-31.04-25.45l14.16-17.59Z"/>
        <path d="M157.01,228.95c1.02,1.22,2,2.46,2.98,3.72.43.56-.6-.77-.16-.2.12.14.23.29.35.45.24.32.48.63.72.95.58.76,1.14,1.52,1.7,2.29,1.22,1.68,2.42,3.38,3.57,5.1,2.5,3.72,4.84,7.57,6.81,11.6.23.46.45.94.66,1.41.12.26.77,1.8.32.71.4.96.77,1.95,1.09,2.94.28.85.51,1.71.7,2.59.08.41.16.82.22,1.23-.21-1.38,0,.21.02.56.02.38.02.74,0,1.11,0,.18-.02.37-.04.54-.06.72.16-1.02.05-.32-.05.33-.14.66-.23.98-.33,1.1.41-.71-.11.29-.16.31-.87,1.27-.02.17-.2.25-.43.49-.66.71-.64.6.79-.51-.19.13-.17.11-.35.21-.53.31-.92.49.55-.19-.06.05-.38.15-.77.25-1.17.33-.28.06-1.03.13.22-.02-.2.02-.4.04-.6.04-.41.02-.81-.01-1.21-.05,1.37.13-.25-.07-.62-.17-.42-.12-.83-.26-1.23-.41-.76-.29.84.38.08.03-.21-.09-.41-.2-.62-.29-.94-.47-1.81-1.03-2.67-1.63-.2-.14-.4-.29-.61-.45-.72-.53.66.53-.04-.04-.41-.32-.81-.67-1.21-1.01-.88-.78-1.73-1.6-2.55-2.44-1.63-1.66-3.13-3.43-4.57-5.26-.12-.13-.69-.88-.09-.09-.16-.22-.33-.43-.5-.65-.32-.43-.63-.87-.95-1.3-.65-.89-1.29-1.8-1.92-2.71-1.02-1.49-2-3.01-2.95-4.54-.75-1.22-1.48-2.44-2.17-3.69-.2,1.54-.4,3.08-.6,4.61,4.72-5.85,9.44-11.72,14.17-17.58,1.29-1.61,1.58-3.8,0-5.38-1.35-1.35-4.08-1.62-5.39,0-4.72,5.86-9.44,11.72-14.16,17.58-1.11,1.38-1.5,2.98-.6,4.61,3.02,5.51,6.67,10.74,10.64,15.6,5.24,6.43,13.55,14.94,22.77,12.44,3.91-1.07,7.07-4.27,7.72-8.31.65-4.05-.33-8.08-1.8-11.84-3.21-8.23-8.23-15.71-13.48-22.78-1.84-2.48-3.72-4.94-5.71-7.31-1.34-1.59-4.01-1.37-5.39,0-1.56,1.56-1.33,3.8,0,5.38Z"/>
      </g>
      <path class="st21" d="M172.97,252.7l-9.87,6.08-6.99-22.56,3.45-4.32s5.69,7.07,7.59,10.04c1.9,2.98,5.81,10.75,5.81,10.75Z"/>
      <g>
        <rect class="st4" x="159.33" y="255.45" width="21.12" height="7.41" transform="translate(-113.46 133.72) rotate(-32.87)"/>
        <path d="M162.79,269.12l-4.9-7.57,19.1-12.34,4.89,7.57-19.09,12.34ZM160.12,262.02l3.15,4.87,16.39-10.59-3.14-4.87-16.39,10.59Z"/>
      </g>
      <path class="st12" d="M169.86,251.53s-3.92-7.77-5.82-10.76c-1.2-1.88-3.91-5.39-5.75-7.72l1.14-1.42s5.69,7.07,7.59,10.05c1.9,2.98,5.81,10.74,5.81,10.74l-9.87,6.09,6.9-6.98Z"/>
    </g>
    <g>
      <path class="st2" d="M78.28,226.26s-29.81,35.41-16.87,43.04c12.94,7.64,31.03-25.45,31.03-25.45l-14.16-17.59Z"/>
      <path d="M75.58,223.57c-3.59,4.27-6.93,8.8-10.06,13.42-4.9,7.24-9.9,15.34-11.07,24.16-.48,3.61.45,7.65,3.26,10.14,3.42,3.03,8.24,3.65,12.47,2.12,4.43-1.59,8.14-4.72,11.38-8.06,3.3-3.41,6.19-7.24,8.88-11.15,1.88-2.72,3.67-5.52,5.26-8.43.9-1.63.52-3.23-.59-4.61-4.72-5.86-9.44-11.72-14.16-17.58-1.3-1.62-4.03-1.35-5.38,0-1.59,1.58-1.3,3.77,0,5.38,4.72,5.87,9.44,11.73,14.16,17.58-.2-1.53-.4-3.07-.59-4.61-.91,1.65-1.89,3.24-2.9,4.83-1.04,1.64-2.12,3.25-3.23,4.84-.61.87-1.24,1.72-1.88,2.57-.16.21-.33.43-.49.65.61-.79.03-.04-.08.09-.4.51-.81,1.02-1.23,1.52-1.47,1.78-3.04,3.5-4.72,5.1-.76.73-1.56,1.43-2.39,2.1-.71.57.67-.5-.05.04-.2.15-.4.3-.61.45-.46.33-.94.64-1.43.94-.4.24-.82.47-1.24.69-.2.1-.41.2-.62.29-.75.35.84-.34.08-.03-.4.15-.81.29-1.23.41-.36.1-2,.34-.62.17-.4.05-.81.06-1.21.05-.2,0-.4-.02-.6-.04,1.22.11.51.08.23.02-.4-.07-.8-.2-1.18-.33-.73-.27.85.39.14.05-.25-.12-.49-.26-.73-.4-1-.61.47.45-.18-.13-.24-.21-.47-.46-.67-.71.87,1.06.16.15-.02-.17-.55-1,.24.8-.12-.29-.09-.32-.17-.65-.23-.98-.13-.7.12,1.03.05.32-.02-.17-.02-.36-.04-.54-.02-.37,0-.74,0-1.11.02-.35.22-1.95.02-.56.27-1.85.83-3.64,1.47-5.38.17-.46.36-.92.54-1.38-.45,1.09.2-.46.32-.71.47-1.04.98-2.06,1.5-3.07,2.06-3.97,4.47-7.76,7-11.45,1.13-1.64,2.29-3.26,3.48-4.86.49-.66.99-1.32,1.49-1.97.12-.15.23-.3.35-.45.44-.58-.58.76-.16.2.24-.3.48-.61.72-.92.74-.94,1.48-1.88,2.26-2.8,1.33-1.58,1.56-3.82,0-5.38-1.38-1.37-4.04-1.59-5.38,0Z"/>
    </g>
    <g>
      <g>
        <polygon class="st22" points="147.3 228.83 119.03 228.83 118.79 228.83 90.53 228.83 78.28 269.11 118.79 269.11 119.03 269.11 159.55 269.11 147.3 228.83"/>
        <path d="M147.3,221.22h-56.78c-3.45,0-6.35,2.33-7.34,5.58-3.9,12.84-7.8,25.67-11.71,38.51-.18.59-.36,1.18-.54,1.77-1.44,4.76,2.49,9.63,7.34,9.63h81.28c4.84,0,8.79-4.87,7.33-9.63-3.9-12.83-7.8-25.67-11.71-38.51-.17-.59-.36-1.18-.54-1.77-1.2-3.96-5.28-6.44-9.36-5.32-3.91,1.08-6.52,5.4-5.32,9.36,3.9,12.84,7.81,25.67,11.71,38.51.18.59.36,1.18.54,1.77,2.45-3.21,4.89-6.42,7.34-9.63h-81.28c2.44,3.21,4.9,6.43,7.34,9.63,3.91-12.83,7.81-25.67,11.71-38.51.18-.59.36-1.18.54-1.77-2.45,1.87-4.89,3.73-7.34,5.59h56.78c4.15,0,7.61-3.46,7.61-7.61s-3.46-7.61-7.61-7.61Z"/>
      </g>
      <polygon class="st18" points="147.3 228.83 119.03 228.83 118.79 228.83 90.53 228.83 78.28 269.11 118.79 269.11 119.03 269.11 159.55 269.11 147.3 228.83"/>
    </g>
    <polygon class="st14" points="90.01 230.42 78.28 269.11 110.22 269.11 84.13 265.29 90.01 230.42"/>
    <polygon class="st14" points="147.8 230.42 159.54 269.11 127.6 269.11 153.69 265.29 147.8 230.42"/>
    <path class="st8" d="M65.03,252.7l9.87,6.08,6.98-22.56-3.45-4.32s-5.69,7.07-7.59,10.04c-1.9,2.98-5.81,10.75-5.81,10.75Z"/>
    <path class="st12" d="M68,251.8s3.91-7.77,5.82-10.74c1.21-1.88,3.91-5.4,5.75-7.73l-1.14-1.42s-5.69,7.07-7.59,10.04c-1.9,2.98-5.81,10.75-5.81,10.75l9.87,6.08-6.9-6.98Z"/>
    <g>
      <rect class="st4" x="64.41" y="248.6" width="7.41" height="21.12" transform="translate(-186.52 175.7) rotate(-57.13)"/>
      <path d="M75.21,269.12l-19.09-12.34,4.89-7.57,19.09,12.34-4.89,7.57ZM58.35,256.29l16.39,10.59,3.14-4.87-16.39-10.59-3.14,4.87Z"/>
    </g>
    <g>
      <polygon class="st21" points="108.79 226.34 108.79 276.28 72.25 276.28 85.11 226.34 108.79 226.34"/>
      <path d="M104.99,226.34v49.94c1.26-1.27,2.53-2.54,3.8-3.81h-36.54c1.22,1.61,2.45,3.21,3.67,4.82,3.44-13.35,6.88-26.69,10.31-40.04.85-3.3,1.7-6.6,2.55-9.9-1.22.92-2.45,1.86-3.67,2.79h23.68c4.91,0,4.91-7.61,0-7.61h-23.68c-1.67,0-3.25,1.15-3.67,2.79-3.43,13.35-6.87,26.69-10.3,40.03-.85,3.3-1.7,6.61-2.56,9.9-.61,2.39,1.17,4.82,3.67,4.82h36.54c2.08,0,3.8-1.73,3.8-3.8v-49.94c0-4.91-7.61-4.91-7.61,0Z"/>
    </g>
    <g>
      <polygon class="st21" points="128.85 226.34 128.85 276.28 165.39 276.28 152.53 226.34 128.85 226.34"/>
      <path d="M125.04,226.34v49.94c0,2.07,1.73,3.8,3.8,3.8h36.54c2.51,0,4.28-2.43,3.67-4.82-3.44-13.34-6.88-26.69-10.31-40.04-.85-3.3-1.7-6.61-2.54-9.9-.43-1.64-2.01-2.79-3.68-2.79h-23.68c-4.91,0-4.91,7.61,0,7.61h23.68c-1.22-.93-2.45-1.87-3.67-2.79,3.44,13.34,6.88,26.69,10.31,40.04.85,3.3,1.7,6.6,2.55,9.9,1.23-1.61,2.45-3.21,3.68-4.82h-36.54c1.27,1.28,2.53,2.54,3.8,3.81v-49.94c0-4.91-7.61-4.91-7.61,0Z"/>
    </g>
    <polygon class="st12" points="88.16 230.2 77.23 272.54 105.18 272.4 82.21 268.8 88.16 230.2"/>
    <polygon class="st12" points="149.57 230.2 160.5 272.54 132.55 272.4 155.52 268.8 149.57 230.2"/>
    <g>
      <g>
        <polygon class="st22" points="104.85 234.66 104.85 272.4 93.36 250.19 100.71 249.24 96.62 240.68 104.85 234.66"/>
        <path d="M100.02,234.66v37.74c3.01-.81,6.01-1.63,9.02-2.44-3.83-7.41-7.67-14.81-11.5-22.21-1.39,2.43-2.79,4.86-4.18,7.29,2.45-.32,4.9-.63,7.35-.95,3.75-.48,5.89-3.71,4.19-7.29-1.37-2.85-2.73-5.71-4.09-8.56-.58,2.21-1.16,4.42-1.74,6.63,2.75-2,5.5-4.01,8.24-6.02,2.12-1.55,3.17-4.17,1.74-6.62-1.23-2.11-4.49-3.3-6.62-1.74-2.75,2-5.49,4.01-8.24,6.02-2.26,1.66-2.97,4.05-1.73,6.63,1.36,2.86,2.72,5.71,4.09,8.56,1.4-2.43,2.79-4.86,4.18-7.29-2.45.32-4.9.64-7.35.96-1.76.22-3.24.78-4.18,2.4-.92,1.55-.81,3.33,0,4.89,3.83,7.41,7.67,14.81,11.5,22.21,2.26,4.37,9.02,2.22,9.02-2.45v-37.74c0-2.64-2.21-4.84-4.85-4.84s-4.84,2.21-4.84,4.84Z"/>
      </g>
      <polygon class="st21" points="104.85 234.66 104.85 272.4 93.36 250.19 100.71 249.24 96.62 240.68 104.85 234.66"/>
      <polygon class="st12" points="95.62 251.15 102.98 250.2 98.88 241.64 104.85 237.28 104.85 234.66 96.63 240.68 100.72 249.24 93.36 250.19 104.85 272.4 95.62 251.15"/>
    </g>
    <g>
      <g>
        <polygon class="st22" points="132.56 234.66 132.56 272.4 144.06 250.19 136.7 249.24 140.8 240.68 132.56 234.66"/>
        <path d="M127.71,234.66v37.74c0,4.66,6.77,6.82,9.03,2.45,3.83-7.41,7.67-14.81,11.51-22.21.8-1.56.91-3.34,0-4.89-.95-1.62-2.43-2.18-4.19-2.4-2.45-.32-4.9-.63-7.36-.96,1.39,2.43,2.78,4.86,4.18,7.29,1.37-2.85,2.73-5.7,4.09-8.56,1.23-2.57.53-4.97-1.74-6.63-2.74-2-5.49-4.01-8.23-6.02-2.13-1.56-5.4-.37-6.63,1.74-1.44,2.45-.39,5.07,1.74,6.62,2.74,2.01,5.49,4.02,8.23,6.02-.58-2.21-1.16-4.42-1.73-6.63-1.37,2.85-2.73,5.71-4.1,8.56-1.71,3.58.44,6.81,4.18,7.29,2.45.32,4.91.63,7.36.95-1.39-2.43-2.78-4.86-4.18-7.29-3.83,7.41-7.67,14.81-11.5,22.21,3.01.81,6.02,1.63,9.02,2.44v-37.74c0-2.64-2.2-4.84-4.84-4.84s-4.84,2.21-4.84,4.84Z"/>
      </g>
      <polygon class="st8" points="132.56 234.66 132.56 272.4 144.06 250.19 136.7 249.24 140.8 240.68 132.56 234.66"/>
      <polygon class="st12" points="141.8 251.15 134.43 250.2 138.53 241.64 132.56 237.28 132.56 234.66 140.8 240.68 136.7 249.24 144.06 250.19 132.56 272.4 141.8 251.15"/>
    </g>
    <polygon class="st29" points="113.58 269.13 112.61 269.13 112.61 239.33 113.58 239.55 113.58 269.13"/>
    <polygon class="st29" points="124.07 269.13 125.04 269.13 125.04 238.6 124.07 239.29 124.07 269.13"/>
    <polygon points="125.32 228.72 119.23 235.33 112.76 228.61 112.76 236.58 116.72 239.49 116.72 270.83 121.28 270.83 121.28 239.33 125.32 236.87 125.32 228.72"/>
    <g>
      <path class="st15" d="M134.01,222.83c0,8.3-6.73,15.03-15.03,15.03s-15.03-6.73-15.03-15.03,6.73-15.03,15.03-15.03,15.03,6.73,15.03,15.03Z"/>
      <path d="M131.23,222.83c-.07,5.78-4,10.61-9.6,11.97-5.66,1.38-11.3-1.79-13.81-6.85-2.45-4.94-.77-11.45,3.56-14.77,4.54-3.49,11.07-3.49,15.47.25,2.79,2.36,4.34,5.77,4.38,9.4.05,3.57,5.59,3.57,5.54,0-.08-6.71-3.84-12.94-9.88-15.94-6.22-3.09-13.76-2.18-19.15,2.16-5.33,4.29-7.52,11.29-6.08,17.91,1.41,6.47,6.83,11.64,13.19,13.19,11.1,2.71,21.78-6.07,21.92-17.31.05-3.57-5.48-3.57-5.54,0Z"/>
    </g>
  </g>
  <g>
    <g>
      <g>
        <path class="st22" d="M194.23,161.02c0,9.17,7.44,16.61,16.62,16.61s16.6-7.44,16.6-16.61-7.44-16.61-16.6-16.61-16.62,7.44-16.62,16.61Z"/>
        <path d="M184.55,161.02c.1,9.25,4.87,17.49,12.61,22.46,7.89,5.05,17.94,4.77,26.11.71,4-1.98,7.11-5.29,9.63-8.88,2.65-3.76,3.71-8.27,4.17-12.76.47-4.63-.89-9.13-2.74-13.3-1.82-4.12-5.13-7.18-8.61-9.87-3.83-2.95-8.64-4.1-13.34-4.58-4.81-.5-9.69.94-13.95,3.05-8.58,4.25-13.77,13.8-13.87,23.17-.06,5.28,4.45,9.69,9.68,9.69s9.63-4.41,9.69-9.69c0-.76.06-1.53.16-2.28-.12.86-.23,1.71-.35,2.57.22-1.47.61-2.89,1.18-4.26-.32.77-.65,1.54-.98,2.32.59-1.34,1.32-2.56,2.21-3.72-.5.66-1.01,1.31-1.51,1.96.83-1.03,1.75-1.96,2.79-2.79-.65.5-1.31,1.01-1.96,1.51,1.15-.89,2.38-1.62,3.72-2.21-.78.33-1.55.65-2.32.97,1.37-.57,2.79-.96,4.27-1.19-.86.12-1.73.24-2.58.35,1.52-.2,3.04-.2,4.57,0-.85-.12-1.71-.23-2.57-.35,1.48.23,2.89.62,4.27,1.19-.77-.33-1.55-.65-2.31-.97,1.33.59,2.56,1.32,3.72,2.21-.65-.5-1.31-1.01-1.96-1.51,1.03.83,1.96,1.76,2.79,2.79-.51-.65-1.02-1.3-1.52-1.96.89,1.16,1.62,2.38,2.22,3.72-.32-.78-.65-1.55-.98-2.32.58,1.38.97,2.79,1.19,4.26-.12-.86-.22-1.71-.34-2.57.19,1.52.19,3.04,0,4.57.12-.86.22-1.71.34-2.57-.22,1.47-.61,2.89-1.19,4.26.33-.77.66-1.54.98-2.31-.6,1.33-1.32,2.57-2.22,3.72.51-.65,1.02-1.3,1.52-1.96-.84,1.03-1.76,1.96-2.79,2.79.65-.5,1.31-1.01,1.96-1.52-1.16.89-2.39,1.63-3.72,2.22.77-.32,1.54-.65,2.31-.98-1.38.57-2.79.96-4.27,1.18.86-.12,1.72-.23,2.57-.35-1.52.2-3.04.2-4.57,0,.85.12,1.72.23,2.58.35-1.48-.22-2.89-.61-4.27-1.18.77.32,1.54.65,2.32.98-1.34-.59-2.57-1.32-3.72-2.22.65.51,1.3,1.02,1.96,1.52-1.04-.83-1.96-1.75-2.79-2.79.5.65,1.01,1.31,1.51,1.96-.89-1.15-1.62-2.38-2.21-3.72.33.77.65,1.55.98,2.31-.58-1.37-.96-2.79-1.18-4.26.12.86.23,1.71.35,2.57-.1-.76-.15-1.52-.16-2.29-.06-5.28-4.37-9.69-9.69-9.69s-9.74,4.41-9.68,9.69Z"/>
      </g>
      <path class="st2" d="M194.23,161.02c0,9.17,7.44,16.61,16.62,16.61s16.6-7.44,16.6-16.61-7.44-16.61-16.6-16.61-16.62,7.44-16.62,16.61Z"/>
      <path class="st23" d="M198.52,160.56c0,6.72,5.45,12.17,12.17,12.17s12.17-5.45,12.17-12.17-5.45-12.17-12.17-12.17-12.17,5.45-12.17,12.17Z"/>
    </g>
    <g>
      <g>
        <path class="st22" d="M10.51,161.02c0,9.17,7.44,16.61,16.6,16.61s16.61-7.44,16.61-16.61-7.43-16.61-16.61-16.61-16.6,7.44-16.6,16.61Z"/>
        <path d="M.81,161.02c.11,9.25,4.87,17.49,12.61,22.46,7.88,5.05,17.93,4.77,26.11.71,3.99-1.98,7.11-5.29,9.63-8.88,2.65-3.76,3.71-8.27,4.17-12.76.48-4.63-.9-9.13-2.74-13.3-1.82-4.12-5.12-7.18-8.61-9.87-3.83-2.95-8.65-4.1-13.34-4.58-4.81-.5-9.7.94-13.96,3.05-8.57,4.25-13.75,13.8-13.87,23.17-.06,5.28,4.46,9.69,9.69,9.69s9.62-4.41,9.68-9.69c0-.76.06-1.53.16-2.28-.12.86-.23,1.71-.35,2.57.23-1.47.62-2.89,1.18-4.26-.32.77-.65,1.54-.97,2.32.59-1.34,1.32-2.56,2.21-3.72-.5.66-1.01,1.31-1.51,1.96.83-1.03,1.75-1.96,2.79-2.79-.65.5-1.31,1.01-1.96,1.51,1.15-.89,2.4-1.62,3.72-2.21-.77.33-1.55.65-2.32.97,1.38-.57,2.79-.96,4.26-1.19-.86.12-1.71.24-2.57.35,1.52-.2,3.04-.2,4.57,0-.87-.12-1.72-.23-2.58-.35,1.48.23,2.89.62,4.27,1.19-.77-.33-1.54-.65-2.32-.97,1.33.59,2.56,1.32,3.72,2.21-.66-.5-1.31-1.01-1.96-1.51,1.03.83,1.95,1.76,2.78,2.79-.5-.65-1.01-1.3-1.51-1.96.89,1.16,1.63,2.38,2.21,3.72-.33-.78-.65-1.55-.98-2.32.58,1.38.96,2.79,1.18,4.26-.12-.86-.23-1.71-.35-2.57.2,1.52.2,3.04,0,4.57.12-.86.23-1.71.35-2.57-.22,1.47-.61,2.89-1.18,4.26.32-.77.65-1.54.98-2.31-.58,1.33-1.32,2.57-2.21,3.72.5-.65,1.01-1.3,1.51-1.96-.83,1.03-1.75,1.96-2.78,2.79.65-.5,1.3-1.01,1.96-1.52-1.15.89-2.38,1.63-3.72,2.22.77-.32,1.54-.65,2.32-.98-1.38.57-2.79.96-4.27,1.18.86-.12,1.71-.23,2.58-.35-1.53.2-3.05.2-4.57,0,.85.12,1.71.23,2.57.35-1.47-.22-2.89-.61-4.26-1.18.77.32,1.55.65,2.32.98-1.33-.59-2.57-1.32-3.72-2.22.65.51,1.31,1.02,1.96,1.52-1.03-.83-1.96-1.75-2.79-2.79.5.65,1.01,1.31,1.51,1.96-.89-1.15-1.62-2.38-2.21-3.72.33.77.65,1.55.97,2.31-.56-1.37-.96-2.79-1.18-4.26.12.86.23,1.71.35,2.57-.1-.76-.15-1.52-.16-2.29-.06-5.28-4.36-9.69-9.68-9.69s-9.75,4.41-9.69,9.69Z"/>
      </g>
      <path class="st2" d="M10.51,161.02c0,9.17,7.44,16.61,16.6,16.61s16.61-7.44,16.61-16.61-7.43-16.61-16.61-16.61-16.6,7.44-16.6,16.61Z"/>
      <path class="st23" d="M14.79,160.56c0,6.72,5.45,12.17,12.16,12.17s12.18-5.45,12.18-12.17-5.46-12.17-12.18-12.17-12.16,5.45-12.16,12.17Z"/>
    </g>
  </g>
  <g>
    <g>
      <path class="st22" d="M213.18,74.99c.33,13.43,0,77.49,0,77.49,0,36.09-20.23,69.55-95.59,69.23-74.59-.3-92.24-33.14-92.24-69.23v-77.49h187.83Z"/>
      <path d="M203.49,74.99c.42,17.17.16,34.38.1,51.56-.02,7.44-.05,14.87-.09,22.31-.03,5.01-.09,10-.74,14.97.11-.86.23-1.71.34-2.58-.79,5.86-2.24,11.61-4.54,17.06.32-.77.65-1.54.97-2.31-1.85,4.34-4.21,8.43-7.08,12.18.5-.66,1.01-1.31,1.51-1.96-2.98,3.84-6.45,7.27-10.29,10.25.65-.51,1.31-1.02,1.95-1.52-4.83,3.73-10.18,6.7-15.8,9.1.77-.32,1.54-.65,2.31-.98-9.43,3.98-19.48,6.29-29.61,7.67.87-.12,1.73-.23,2.58-.35-17.67,2.35-35.96,2.33-53.62-.04.86.12,1.72.23,2.58.35-9.83-1.35-19.58-3.57-28.75-7.42.77.32,1.54.65,2.31.97-5.46-2.31-10.66-5.2-15.37-8.81.65.51,1.3,1.02,1.96,1.52-3.65-2.83-6.95-6.09-9.79-9.74.51.65,1.01,1.3,1.51,1.96-2.79-3.63-5.09-7.61-6.89-11.83.33.78.65,1.55.98,2.32-2.31-5.49-3.76-11.29-4.57-17.19.12.86.23,1.71.35,2.57-.68-5.07-.8-10.15-.8-15.25v-74.81c-3.23,3.23-6.45,6.46-9.68,9.69h187.83c5.28,0,9.68-4.41,9.68-9.69s-4.41-9.68-9.68-9.68H25.35c-5.29,0-9.69,4.4-9.69,9.68v76.94c0,15.55,2.97,31.69,11.9,44.74,5.65,8.24,13.03,14.96,21.64,20.02,10,5.87,21.36,9.46,32.71,11.57,15.37,2.87,31.15,3.59,46.74,2.94,13.83-.59,27.88-2.37,41.09-6.63,19.11-6.16,36.77-18.1,45.59-36.67,4.07-8.57,6.2-17.46,7.13-26.88.47-4.76.4-9.54.43-14.32.09-18.25.16-36.5.11-54.74,0-5.65,0-11.32-.14-16.97-.13-5.28-4.31-9.68-9.68-9.68s-9.82,4.4-9.69,9.68Z"/>
    </g>
    <path class="st2" d="M212.47,59.61c.34,13.44,0,92.87,0,92.87,0,36.09-20.23,69.55-95.59,69.23-74.59-.3-92.25-33.14-92.25-69.23V59.61h187.84Z"/>
  </g>
  <g>
    <path class="st17" d="M175.01,183.54c-.59,2.64,3.86,5.87,9.92,7.21,6.07,1.34,11.45.28,12.04-2.37.58-2.64-3.87-5.88-9.93-7.21-6.07-1.33-11.46-.28-12.04,2.37Z"/>
    <path class="st17" d="M62.95,183.54c.58,2.64-3.86,5.87-9.93,7.21-6.06,1.34-11.46.28-12.04-2.37-.59-2.64,3.86-5.88,9.93-7.21,6.06-1.33,11.46-.28,12.04,2.37Z"/>
    <g>
      <g>
        <g>
          <path d="M157.07,171.73s4.06-5.35,13.16-5.35,13.2,5.35,13.2,5.35c0,0,2.05-15.55-13.2-15.55s-13.16,15.55-13.16,15.55Z"/>
          <path d="M157.91,172.22c-.29.38-.05.06.03-.02.17-.2.35-.38.54-.57.68-.67,1.45-1.23,2.25-1.74,2.84-1.79,6.18-2.51,9.51-2.55,4.36-.04,9.72,1.46,12.52,5.07.59.77,1.56.02,1.66-.68.73-5.64-1.45-12.08-6.64-14.86-4.42-2.38-10.64-2.25-15.07,0-3.44,1.74-5.48,5.2-6.28,8.87-.41,1.92-.58,4.03-.32,5.99.16,1.22,2.1,1.24,1.94,0-.77-5.88,1.71-12.24,7.76-14.02,4.69-1.38,10.7-.62,14.01,3.24,2.05,2.4,2.73,5.8,2.76,8.87,0,.63-.01,1.27-.09,1.9.55-.23,1.1-.46,1.65-.69-3.13-4.04-9.05-5.59-13.89-5.63-4.96-.05-10.85,1.73-14,5.84-.76.99.92,1.95,1.67.98Z"/>
        </g>
        <path d="M180.8,160.53s2.09.05,5.11-1.35c3.01-1.41,5.21-5.01,5.21-5.01,0,0,1.25,4.9-2.55,7.76-2.78,2.1-5.99,2.54-5.99,2.54l-1.78-3.95Z"/>
        <path d="M183.66,165.68s1.76.33,4.56.32c2.79-.02,5.71-1.99,5.71-1.99,0,0-.65,4.17-4.76,5.1-2.85.63-5.41.18-5.41.18l-.1-3.6Z"/>
      </g>
      <g>
        <g>
          <path d="M82.3,171.73s-4.06-5.35-13.16-5.35-13.2,5.35-13.2,5.35c0,0-2.05-15.55,13.2-15.55s13.16,15.55,13.16,15.55Z"/>
          <path d="M83.14,171.25c-3.09-4.02-8.69-5.69-13.53-5.83-4.94-.15-11.16,1.52-14.36,5.63.55.22,1.1.46,1.65.69-.76-5.88,1.76-12.24,7.8-14.02,4.69-1.37,10.7-.62,14,3.24,2.04,2.4,2.71,5.8,2.72,8.87,0,.63-.01,1.27-.1,1.9-.16,1.24,1.78,1.22,1.94,0,.75-5.63-1.41-12.07-6.6-14.86-4.42-2.38-10.64-2.25-15.07,0-3.43,1.74-5.5,5.2-6.29,8.87-.42,1.92-.6,4.02-.35,5.99.09.7,1.06,1.45,1.65.68,2.75-3.53,7.82-4.94,12.05-5.06,3.4-.1,6.81.68,9.75,2.4.85.5,1.64,1.1,2.37,1.77.2.2.4.4.59.61.08.09.39.48.08.09.75.97,2.43.01,1.67-.98Z"/>
        </g>
        <path d="M58.58,160.53s-2.08.05-5.1-1.35c-3.01-1.41-5.21-5.01-5.21-5.01,0,0-1.25,4.9,2.55,7.76,2.78,2.1,5.99,2.54,5.99,2.54l1.77-3.95Z"/>
        <path d="M55.71,165.68s-1.76.33-4.55.32c-2.79-.02-5.72-1.99-5.72-1.99,0,0,.65,4.17,4.76,5.1,2.85.63,5.41.18,5.41.18l.1-3.6Z"/>
      </g>
    </g>
    <path d="M128.62,194.57c0,.09-.01.17-.02.26.16-1.28,0-.14-.08.19-.09.36-.21.72-.36,1.06.33-.83.02-.08-.08.1-.14.27-.31.54-.47.8-.42.63.13-.13-.19.24-.19.22-.4.42-.61.62-.12.11-.23.21-.35.31.25-.18.24-.18-.01.01-.36.26-.73.47-1.13.68-.49.25-.32.16-.67.29-.4.14-.82.25-1.24.36-1,.25-2.01.32-3.05.35-2.02.05-3.97-.24-5.85-.97-1.02-.39-1.77-1-2.64-1.98-.32-.38.28.4-.17-.23-.13-.2-.25-.4-.38-.61-.11-.18-.21-.39-.31-.58-.14-.32.23.62-.03-.13-.16-.44-.39-2-.23-.54-.17-1.5-1.13-2.77-2.77-2.77-1.38,0-2.93,1.26-2.76,2.77,1.56,14.15,28.22,14.4,28.93-.24.17-3.57-5.36-3.55-5.54,0h0Z"/>
  </g>
  <path class="st18" d="M118.7,9.69h.57c95.9,0,107.67,82.17,108.79,96.77.42,5.51-.17,34.77-.17,34.77,0,.67,0,1.34-.02,2.01-14.81-1.14-45.86-6-78.67-26-12.42-7.59-22.34-16.81-30.22-26.21-7.87,9.4-17.8,18.62-30.22,26.21-32.8,20-63.85,24.86-78.67,26-.01-.67-.02-1.34-.02-2.01,0,0-.58-29.25-.16-34.77,1.11-14.6,12.88-96.77,108.79-96.77Z"/>
  <path class="st30" d="M88.49,136.66c11.19-6.32,21.5-12.63,30.49-21.77,9.38,9.51,20.18,16.03,31.9,22.55,14.17,7.88,29.45,14.01,45.13,18.13,5.28,1.39,10.65,2.53,16.06,3.44.27-2.81.4-5.66.4-8.52v-1.42c-5.54-.92-11.04-2.08-16.46-3.51-15.68-4.11-30.96-10.24-45.13-18.13-11.72-6.52-22.51-14.51-31.9-24.03-8.99,9.14-19.3,16.93-30.49,23.24-19.75,11.14-41.47,18.94-63.87,22.55v1.3c0,2.91.12,5.8.37,8.65,22.27-3.64,43.85-11.41,63.5-22.48Z"/>
  <g>
    <g>
      <path d="M61.43,279.83c-.59,1.11-1.98,1.53-3.08.93h0c-1.11-.59-1.53-1.97-.93-3.08l7.9-14.72c.59-1.11,1.97-1.53,3.09-.93h0c1.11.6,1.52,1.97.93,3.09l-7.9,14.72Z"/>
      <g>
        <g>
          <g>
            <path class="st19" d="M64.08,270.08c-1.65-.88-2.11-2.12-2.23-2.6l-.82,2.23s.18,1.44,1.96,2.41c1.78.95,3.09.3,3.09.3l1.4-1.91c-.46.15-1.75.45-3.4-.43Z"/>
            <path d="M64.78,268.89c-.71-.43-1.36-.95-1.6-1.77-.4-1.38-2.21-1.25-2.66,0-.34.91-.98,1.98-.83,2.96.2,1.29,1.24,2.3,2.24,3.02,1.34.96,3.31,1.22,4.82.53.77-.35,1.44-1.77,1.92-2.42.73-1-.47-2.38-1.56-2.04-.81.25-1.58.08-2.33-.28-1.6-.77-3.01,1.61-1.4,2.39,1.4.68,2.93,1.04,4.46.57-.52-.68-1.04-1.36-1.56-2.04-.42.57-.83,1.13-1.24,1.69-.48.66,1.17-.52.25-.28-.68.18-1.4-.18-1.97-.52-.41-.24-.68-.64-.9-1.05,0-.01-.05-.2-.05-.23-.09-.38-.13.96.03.53.26-.7.51-1.4.77-2.1h-2.66c.43,1.52,1.53,2.63,2.86,3.42,1.54.9,2.93-1.49,1.4-2.39Z"/>
          </g>
          <path class="st20" d="M64.08,270.08c-1.65-.88-2.11-2.12-2.23-2.6l-.82,2.23s.18,1.44,1.96,2.41c1.78.95,3.09.3,3.09.3l1.4-1.91c-.46.15-1.75.45-3.4-.43Z"/>
          <path class="st9" d="M61.45,270.65l.81-2.21c-.25-.4-.36-.74-.42-.95l-.82,2.22s.06.48.45,1.07c-.02-.09-.03-.13-.03-.13Z"/>
          <path class="st5" d="M65.07,272.58l1.39-1.9c.47-.02.82-.11,1.02-.17l-1.4,1.91s-.43.21-1.14.21c.09-.04.13-.05.13-.05Z"/>
        </g>
        <g>
          <g>
            <path class="st19" d="M101,231.04c-3.67,6.84-12.2,9.41-19.04,5.74-6.85-3.68-9.42-12.2-5.74-19.04,3.68-6.84,12.2-9.41,19.05-5.73,6.84,3.67,9.41,12.2,5.74,19.04Z"/>
            <path d="M95.02,227.54c-.28.53-1.82,2.64-.39.82-.46.58-.99,1.11-1.53,1.61-.35.33-1.44,1.1.27-.17-.29.21-.6.41-.91.61-.31.19-.63.36-.95.53-1.63.85,1.11-.4,0,.02-.68.25-1.38.43-2.08.57-1.36.28,1.8-.19.41-.05-.35.04-.72.05-1.08.05-.65.02-3.16-.35-.7.04-.86-.13-1.7-.38-2.52-.68-1.33-.48,1.54.71.26.09-.35-.17-.68-.37-1.02-.56-.33-.2-.64-.42-.95-.64,1.68,1.18.61.47.24.14-.55-.48-1.05-1.04-1.51-1.6,1.33,1.62.5.64.23.22-.27-.4-.5-.83-.73-1.26-.23-.43-.7-1.68.11.34-.13-.33-.24-.68-.35-1.02-.2-.61-.59-3.14-.27-.63-.09-.72-.1-1.45-.08-2.17.01-.36.05-.72.08-1.09-.24,2.35-.03.58.1.03.14-.59,1.15-2.94.2-.82.31-.7.71-1.36,1.14-2,.78-1.17-1.06,1.28-.17.21.24-.28.5-.55.76-.81.26-.27.54-.5.81-.75.9-.79-1.46,1.01.06,0,.6-.4,1.25-.73,1.91-1.04-2.16,1,.11.04.73-.12.35-.09.7-.15,1.06-.21-2.19.39-.95.12-.4.08.84-.06,1.7-.02,2.54.07-2.47-.26.05.1.69.29.36.1.72.24,1.06.38-1.96-.76-.7-.27-.26-.04.53.27,2.64,1.82.81.39.68.53,1.29,1.15,1.85,1.81.91,1.03-.99-1.37-.2-.25.21.3.39.61.58.92.18.31.34.63.5.96.61,1.23-.63-1.61-.14-.32.26.68.43,1.38.57,2.08.28,1.36-.19-1.8-.05-.41.05.48.05.96.05,1.44s-.04.98-.09,1.46c.25-2.35.04-.59-.09-.03-.12.48-.28.96-.45,1.43-.4,1.12.78-1.59-.1.08-1.73,3.35-.88,7.49,2.49,9.47,3.13,1.84,7.73.87,9.46-2.48,1.87-3.59,2.95-7.66,2.53-11.73-.47-4.65-2.18-8.47-5.05-12.12-5.01-6.41-14.49-8.7-22.08-6.32-8.54,2.7-14.02,10.32-14.71,19.09-.64,7.99,4.38,16.19,11.49,19.65,10.02,4.87,22.36,1.29,27.81-8.57,1.83-3.3.83-7.52-2.48-9.46-3.19-1.87-7.64-.81-9.47,2.48Z"/>
          </g>
          <path class="st3" d="M101,231.04c-3.67,6.84-12.2,9.41-19.04,5.74-6.85-3.68-9.42-12.2-5.74-19.04,3.68-6.84,12.2-9.41,19.05-5.73,6.84,3.67,9.41,12.2,5.74,19.04Z"/>
          <path class="st27" d="M91.1,231.89c-6.84-3.68-9.41-12.2-5.73-19.04.47-.88,1.03-1.7,1.65-2.43-4.42.51-8.53,3.1-10.8,7.31-3.67,6.84-1.1,15.37,5.74,19.04,5.96,3.2,13.19,1.66,17.38-3.3-2.75.31-5.62-.17-8.24-1.58Z"/>
          <path class="st10" d="M100.27,230.4c3.49-6.76.96-15.03-5.62-18.71.14.06.28.13.43.21,6.9,3.56,9.61,12.05,6.06,18.95-3.57,6.9-12.05,9.61-18.95,6.04-.14-.07-.29-.15-.43-.22,6.82,3.23,15.03.5,18.51-6.26Z"/>
        </g>
        <g>
          <path class="st18" d="M98.07,217.09c1.16,1.69,1.39,3.54.51,4.14-.88.6-2.52-.28-3.68-1.97-1.16-1.69-1.39-3.54-.51-4.14.88-.61,2.53.28,3.68,1.96Z"/>
          <path class="st18" d="M100.07,223.02c-.14.42-.6.62-1.02.47-.41-.15-.61-.61-.46-1.01.14-.41.6-.63,1.02-.47.4.14.62.59.46,1Z"/>
        </g>
        <g>
          <path class="st19" d="M90.37,240.22s-4.35-.87-8.57-3.15c-4.23-2.26-7.37-5.41-7.37-5.41l-12.48,33.81s.25,2.04,2.78,3.39c2.51,1.35,4.36.43,4.36.43l21.28-29.08Z"/>
          <path d="M92.2,233.55c-.85-.17-1.69-.41-2.52-.66-.95-.28-1.89-.62-2.82-.99-1.56-.61,1.42.64-.17-.09-.63-.28-1.24-.61-1.85-.94-.83-.46-1.62-.97-2.4-1.5-.36-.25-.71-.5-1.06-.76-1.06-.78,1.31,1.06-.1-.09-.68-.55-1.34-1.12-1.96-1.74-1.75-1.74-4.35-2.44-6.73-1.78-2.48.68-3.98,2.51-4.83,4.83-2.14,5.8-4.28,11.61-6.43,17.42-1.44,3.89-2.88,7.78-4.31,11.67-1.07,2.93-2.3,5.25-1.73,8.46.79,4.4,5.51,8.17,9.72,8.86,2.75.44,4.96.14,7.49-.93,1.23-.52,1.95-1.67,2.7-2.7,1.5-2.04,2.99-4.09,4.49-6.14,4.89-6.68,9.77-13.37,14.66-20.05.66-.9,1.32-1.81,1.99-2.71,2.23-3.05.53-7.71-2.48-9.47-3.5-2.05-7.24-.55-9.47,2.48-7.09,9.69-14.18,19.39-21.27,29.08.82-.83,1.66-1.66,2.48-2.49-.58.27,2.18-.85,1.32-.57-.53.17-1.47.17.93-.08-.55.06-1.62-.18.46.16-.28-.05-.55-.13-.83-.22.87.38.98.4.34.06-1.3-.76,1.12,1.02.18.08,1.34,1.36.59.85.25.21,1.11,2.12.46,1.35.37.68v3.69c4.16-11.27,8.32-22.54,12.48-33.8-3.86,1.01-7.71,2.03-11.57,3.05,5.08,5.06,11.95,8.88,18.99,10.33,3.69.76,7.46-1.02,8.51-4.83.95-3.45-1.14-7.75-4.84-8.51Z"/>
        </g>
        <path class="st3" d="M90.37,240.22s-4.35-.87-8.57-3.15c-4.23-2.26-7.37-5.41-7.37-5.41l-12.48,33.81s.25,2.04,2.78,3.39c2.51,1.35,4.36.43,4.36.43l21.28-29.08Z"/>
        <g>
          <g>
            <path class="st19" d="M77.25,247.96c-.3.55-.99.76-1.54.47h0c-.56-.3-.76-.99-.47-1.55l1.51-2.8c.3-.55.99-.76,1.54-.47h0c.55.3.77.99.47,1.54l-1.51,2.81Z"/>
            <path d="M76.05,247.26c.2-.3.5.11.39.31.03-.06.06-.12.1-.18.17-.32.35-.65.51-.96.29-.55.59-1.1.89-1.66-.17.31-.5-.09-.39-.3-.04.06-.07.12-.1.18-.17.32-.35.64-.51.96-.3.55-.6,1.1-.89,1.65-.84,1.57,1.55,2.97,2.38,1.4.51-.94,1.01-1.88,1.51-2.81.69-1.29.18-2.64-.96-3.43-1.19-.83-2.71-.08-3.43.96-.59.86-1.02,1.89-1.51,2.81-.69,1.29-.17,2.64.96,3.44,1.19.83,2.71.08,3.43-.96,1.02-1.47-1.37-2.85-2.38-1.4Z"/>
          </g>
          <path class="st31" d="M77.25,247.96c-.3.55-.99.76-1.54.47h0c-.56-.3-.76-.99-.47-1.55l1.51-2.8c.3-.55.99-.76,1.54-.47h0c.55.3.77.99.47,1.54l-1.51,2.81Z"/>
          <path class="st28" d="M75.45,246.99l1.51-2.8c.28-.52.9-.73,1.43-.51-.03-.02-.06-.04-.1-.06-.55-.29-1.24-.09-1.54.47l-1.51,2.8c-.29.55-.09,1.25.47,1.55.04.02.07.04.11.05-.48-.32-.64-.96-.37-1.48Z"/>
        </g>
        <g>
          <g>
            <path class="st19" d="M77.31,247.82c-.29.55-.99.76-1.54.47-.55-.3-.76-.99-.47-1.54.3-.55.99-.76,1.54-.46.55.29.76.99.46,1.54Z"/>
            <path d="M76.72,247.48c-.29.48-1.06.15-.81-.38.25-.52,1.06-.14.81.38-.38.8.81,1.5,1.19.7.43-.92.18-1.95-.71-2.48-.88-.53-1.99-.13-2.49.71-.52.87-.12,1.99.71,2.48.87.53,1.99.12,2.48-.71.46-.77-.74-1.46-1.19-.7Z"/>
          </g>
          <path class="st31" d="M77.31,247.82c-.29.55-.99.76-1.54.47-.55-.3-.76-.99-.47-1.54.3-.55.99-.76,1.54-.46.55.29.76.99.46,1.54Z"/>
        </g>
        <path class="st28" d="M75.52,246.87c.28-.52.9-.73,1.43-.51-.03-.02-.06-.04-.1-.06-.55-.3-1.24-.09-1.54.46-.3.55-.09,1.24.46,1.54.03.02.07.04.11.05-.47-.32-.64-.96-.36-1.48Z"/>
        <rect class="st11" x="80.81" y="230.58" width="1.18" height="15.74" transform="translate(-167.2 197.42) rotate(-61.78)"/>
        <path class="st24" d="M75.45,232.6c-.65-.57-1.02-.94-1.02-.94l-12.48,33.8s.09.76.75,1.66l12.75-34.53Z"/>
        <path class="st6" d="M89.02,239.9c.84.22,1.35.33,1.35.33l-21.28,29.08s-.69.34-1.8.29l21.73-29.7Z"/>
        <g>
          <g>
            <path class="st19" d="M92,238.87l-15.63-8.39-.83-.45-.87-.47c-.77-.41-1.63-.28-1.93.28-.31.56.06,1.35.84,1.76l1.22.65.48.26,15.63,8.39c.77.42,1.63.29,1.93-.27.31-.57-.07-1.36-.83-1.77Z"/>
            <path d="M94.44,234.69c-5.35-2.87-10.7-5.74-16.04-8.61-1.03-.54-2.07-1.19-3.22-1.41-3.73-.72-7.48,1.77-7.38,5.8.09,3.31,2.62,4.96,5.2,6.34,3.15,1.69,6.3,3.38,9.44,5.07,1.88,1,3.76,2.01,5.64,3.03,1.76.95,3.59,1.37,5.58.82,2.29-.63,4.19-2.97,4.12-5.38-.07-2.5-1.3-4.29-3.33-5.65-2.19-1.48-5.36-.43-6.62,1.74-1.4,2.38-.45,5.16,1.74,6.63-.47-1.23-.94-2.47-1.4-3.7.42-.71.84-1.43,1.25-2.14,1.1-1.37,2.81-1.08,3.91-.49-.03-.02-.06-.04-.1-.05-.17-.09-.36-.19-.54-.29-.7-.38-1.4-.76-2.11-1.13-2.12-1.14-4.25-2.28-6.37-3.42-1.79-.95-3.57-1.91-5.36-2.87-.37-.2-.74-.4-1.11-.6-.24-.12-.46-.25-.69-.37-.22-.12-.43-.24-.65-.35-1.73-.93,1.86.85,1,3.5-.41.71-.83,1.42-1.24,2.14-1.06.27-2.11.54-3.16.8-.76-.33-.94-.4-.55-.2.2.1.39.21.58.31.3.16.6.32.89.48.3.16.59.32.89.47,1.78.96,3.58,1.92,5.37,2.88,3.13,1.68,6.25,3.36,9.38,5.04,2.32,1.25,5.25.6,6.62-1.74,1.3-2.21.58-5.38-1.74-6.63Z"/>
          </g>
          <path class="st3" d="M92,238.87l-15.63-8.39-.83-.45-.87-.47c-.77-.41-1.63-.28-1.93.28-.31.56.06,1.35.84,1.76l1.22.65.48.26,15.63,8.39c.77.42,1.63.29,1.93-.27.31-.57-.07-1.36-.83-1.77Z"/>
          <path class="st24" d="M74.41,230.03l.88.47.83.44,15.63,8.39c.66.36,1.02.99.92,1.51.06-.06.12-.13.16-.21.31-.57-.06-1.36-.83-1.77l-15.63-8.39-.83-.45-.87-.47c-.77-.41-1.64-.28-1.94.28-.04.07-.07.16-.09.25.39-.38,1.11-.42,1.77-.06Z"/>
        </g>
        <polygon class="st16" points="87.28 242.28 88.41 242.9 89.12 241.92 87.99 241.31 87.28 242.28"/>
        <polygon class="st10" points="73.7 233.65 74.84 234.25 74.42 235.38 73.29 234.77 73.7 233.65"/>
      </g>
    </g>
    <g>
      <g>
        <rect class="st19" x="71.49" y="227.18" width="16.88" height="27.39" transform="translate(-170.44 199.37) rotate(-62.23)"/>
        <path d="M91.61,248.75c-8.08-4.25-16.16-8.51-24.24-12.76.83,3.16,1.65,6.3,2.48,9.47,2.62-4.99,5.25-9.96,7.86-14.94-3.15.82-6.31,1.65-9.47,2.48,8.08,4.26,16.16,8.51,24.25,12.77-.83-3.16-1.66-6.32-2.48-9.47-2.62,4.98-5.25,9.96-7.86,14.94-1.76,3.34-.87,7.5,2.48,9.46,3.14,1.85,7.71.86,9.47-2.48,2.62-4.98,5.24-9.96,7.86-14.93,1.7-3.22.96-7.66-2.48-9.47-8.08-4.25-16.16-8.51-24.25-12.76-3.22-1.7-7.66-.96-9.47,2.48-2.62,4.98-5.24,9.96-7.86,14.94-1.69,3.22-.95,7.66,2.48,9.47,8.08,4.26,16.16,8.51,24.25,12.76,3.34,1.76,7.5.88,9.47-2.48,1.85-3.15.85-7.71-2.48-9.47Z"/>
      </g>
      <rect class="st1" x="71.49" y="227.18" width="16.88" height="27.39" transform="translate(-170.44 199.37) rotate(-62.23)"/>
      <rect class="st21" x="60.63" y="233.73" width="16.88" height="2.86" transform="translate(-171.14 186.51) rotate(-62.18)"/>
      <rect class="st25" x="82.34" y="245.16" width="16.88" height="2.86" transform="translate(-169.68 211.85) rotate(-62.19)"/>
    </g>
    <g>
      <g>
        <path d="M57.63,251.8c6.13-6.71,12.62,2.63,8.23,7-4.39,4.36-15.22.64-8.23-7"/>
        <path d="M62.52,256.7c.28-.31.58-.59.9-.87-1.43,1.26-.7.54-.22.25,1.11-.65-1.66.59-.49.22,1.1-.35-2.06.07-.45.07,1.17,0-1.92-.37-.8-.09,1.04.25-1.81-.95-.46-.18.98.57-1.42-1.2-.57-.44.46.41,1.18,1.54-.21-.39.16.21.28.46.41.69.53.96-.66-1.92-.21-.4.16.56.21,1.66-.06-.78.07.62-.14,2.05.2-.5-.04.27-.12.53-.19.78.62-2.04.5-1.07.07-.43,1.1-1.67.8-.99.33-.55-.77.74,1.68-1.12.38-.33-.47.28-1.52.65.73-.27-.24.1-.48.17-.73.24-.24.07-.5.12-.75.16,2.48-.44,1.24-.16.57-.14-.25,0-.5-.02-.76-.04,2.49.2,1.28.2.63.04-.24-.06-.46-.14-.69-.22,2.24.8,1.19.54.62.2-.91-.54,1.48,1.23.69.55-1.05-.9.95,1.4.4.59-.33-.49-.53-1.41.33.89-.5-1.33.11,1.8.06.76-.05-1.1-.36,1.99-.14.87.12-.6.76-1.78-.21.32.14-.3.31-.58.49-.87.4-.57.26-.4-.41.5.17-.21.36-.42.54-.62,2.51-2.82,2.79-7,0-9.79-2.54-2.54-7.27-2.82-9.78,0-2.45,2.77-4.03,5.65-4.31,9.36-.23,2.88,1.33,6.29,3.59,8.06,4.67,3.66,11.41,4.49,16.54,1.1,5.67-3.74,7.53-11.68,3.45-17.36-1.18-1.64-2.31-2.79-4.03-3.9-1.7-1.11-3.5-1.37-5.46-1.62-3.61-.44-7.41,1.87-9.79,4.36-2.6,2.74-2.72,7.07,0,9.79s7.18,2.73,9.78,0h0Z"/>
      </g>
      <path class="st2" d="M57.63,251.8c6.13-6.71,12.62,2.63,8.23,7-4.39,4.36-15.22.64-8.23-7"/>
      <path class="st13" d="M58.22,252.32c2.67-2.92,5.4-2.8,7.27-1.38-1.86-1.88-4.91-2.37-7.86.87-3.22,3.53-2.66,6.21-.68,7.66-1.46-1.53-1.6-4.01,1.27-7.15Z"/>
      <path class="st30" d="M63.83,249.8c1.3,2.05,1.47,4.92-.45,6.82-2,1.98-5.32,2.3-7.7,1.33,1.44,3.07,7.26,3.76,10.19.84,2.83-2.81,1.15-7.67-2.03-9Z"/>
    </g>
  </g>
  <path d="M118.7,19.37c6.78.09,13.51.37,20.25,1.25-.85-.11-1.71-.23-2.57-.34,10.02,1.35,19.88,3.83,29.19,7.77-.77-.33-1.54-.65-2.31-.98,7.41,3.15,14.41,7.19,20.79,12.1-.66-.5-1.31-1-1.97-1.51,6.21,4.81,11.76,10.42,16.56,16.63-.5-.65-1.01-1.3-1.51-1.96,5.54,7.2,10.05,15.14,13.59,23.5-.33-.77-.65-1.54-.98-2.32,4.15,9.82,7.03,20.22,8.46,30.78-.12-.86-.23-1.72-.35-2.57.62,4.63.67,9.25.66,13.93-.01,8.31-.14,16.62-.3,24.93-.02.89-.02,1.78-.03,2.66,3.23-3.23,6.46-6.45,9.69-9.68-2.83-.22-5.65-.53-8.45-.9.85.11,1.71.23,2.57.34-15.75-2.14-31.18-6.47-45.83-12.62.77.32,1.54.65,2.32.98-12.37-5.23-24.43-11.66-35.09-19.86.65.5,1.3,1.01,1.96,1.51-7.16-5.55-13.67-11.89-19.51-18.83-3.19-3.8-10.5-3.8-13.69,0-5.84,6.95-12.35,13.28-19.51,18.83.65-.5,1.3-1.01,1.96-1.51-10.67,8.2-22.72,14.63-35.1,19.86.78-.32,1.55-.65,2.32-.98-14.65,6.15-30.07,10.48-45.83,12.62.86-.12,1.72-.23,2.58-.34-2.81.37-5.63.68-8.46.9,3.23,3.23,6.45,6.45,9.69,9.68-.11-7.44-.25-14.89-.31-22.34-.04-5.78-.25-11.62.41-17.38.07-.6.14-1.2.23-1.81-.12.85-.24,1.72-.35,2.57,1.43-10.56,4.31-20.96,8.45-30.78-.33.78-.65,1.55-.98,2.32,3.54-8.37,8.05-16.3,13.59-23.5-.51.66-1.01,1.31-1.52,1.96,4.81-6.21,10.36-11.82,16.56-16.63-.65.5-1.3,1-1.96,1.51,6.37-4.91,13.37-8.95,20.78-12.1-.77.32-1.55.65-2.32.98,9.32-3.93,19.18-6.41,29.19-7.77-.86.12-1.71.23-2.58.34,6.53-.86,13.11-1.24,19.69-1.25,5.28,0,9.69-4.39,9.69-9.68S123.98,0,118.7,0c-23.94.04-48.48,5.07-68.74,18.3-15.19,9.92-27.47,23.85-35.79,39.95-5.95,11.5-10.21,23.96-12.44,36.72-.73,4.16-1.4,8.41-1.56,12.64-.35,8.84-.04,17.73.1,26.58.05,3.01.09,6.03.14,9.04.08,4.97,4.36,10.12,9.69,9.69,27.5-2.17,54.4-10.76,78.4-24.3,14.14-7.98,26.88-18.3,37.33-30.76h-13.69c10.82,12.89,24.05,23.36,38.74,31.54,14.17,7.89,29.45,14.01,45.13,18.13,10.41,2.73,21.13,4.54,31.86,5.39,5.34.42,9.6-4.72,9.69-9.69.13-7.44.25-14.89.31-22.34.05-5.78.25-11.62-.4-17.38-1.29-11.2-3.87-22.17-8.02-32.67-6.28-15.92-15.45-30.68-28.17-42.29-16.26-14.82-36.96-23.71-58.64-26.81C134.65.62,126.74.11,118.7,0c-5.28-.06-9.69,4.46-9.69,9.69s4.4,9.61,9.69,9.68Z"/>
  <g>
    <path class="st0" d="M118.7,9.69h.57c95.9,0,107.67,82.17,108.79,96.77.42,5.51-.17,34.77-.17,34.77,0,.67,0,1.34-.02,2.01-14.81-1.14-45.86-6-78.67-26-12.42-7.59-22.34-16.81-30.22-26.21-7.87,9.4-17.8,18.62-30.22,26.21-32.8,20-63.85,24.86-78.67,26-.01-.67-.02-1.34-.02-2.01,0,0-.58-29.25-.16-34.77,1.11-14.6,12.88-96.77,108.79-96.77Z"/>
    <path class="st26" d="M228.09,112.95c-1.1-14.61-12.87-96.77-108.78-96.77h-.57C22.84,16.18,11.07,98.35,9.96,112.95c-.08,1.1-.12,3.15-.14,5.72-.02-5.16,0-9.64.14-11.48,1.11-14.61,12.88-96.77,108.78-96.77h.57c95.9,0,107.68,82.17,108.78,96.77.14,1.84.17,6.34.14,11.5-.02-2.58-.06-4.64-.14-5.74Z"/>
    <path class="st7" d="M88.08,111.87c12.67-7.81,22.85-18.31,30.9-27.92,8.04,9.62,18.28,20.03,30.89,27.92,39.23,24.53,78,30.85,77.99,31.53-14.81-1.15-45.86-6-78.67-26.01-12.42-7.58-22.35-16.8-30.22-26.21-7.87,9.41-17.8,18.63-30.23,26.21-32.79,20-63.84,24.85-78.66,26.01-.01-.68,32.62-3.55,77.99-31.53Z"/>
    <g>
      <path class="st18" d="M181.49,40.32c8.68,6.31,13.39,14.63,10.52,18.58-2.88,3.96-12.24,2.04-20.92-4.28-8.68-6.31-13.39-14.63-10.52-18.58,2.88-3.95,12.24-2.04,20.92,4.28Z"/>
      <path class="st18" d="M199.63,62.14c.02,1.76-1.4,3.21-3.16,3.22-1.77.02-3.2-1.4-3.22-3.16-.01-1.76,1.4-3.2,3.16-3.22,1.76-.02,3.21,1.4,3.22,3.16Z"/>
    </g>
  </g>
</svg>