<?xml version="1.0" encoding="UTF-8"?>
<svg id="Layer_1" xmlns="http://www.w3.org/2000/svg" version="1.1" viewBox="0 0 299.34 314.14">
  <!-- Generator: Adobe Illustrator 29.6.1, SVG Export Plug-In . SVG Version: 2.1.1 Build 9)  -->
  <defs>
    <style>
      .st0 {
        fill: #ffd7c3;
      }

      .st1 {
        fill: #7c0015;
      }

      .st2 {
        fill: #505e68;
      }

      .st3 {
        fill: #000002;
      }

      .st4 {
        fill: #39474f;
      }

      .st5 {
        fill: #727272;
      }

      .st6 {
        fill: #ffad8d;
      }

      .st7 {
        fill: #8e8e8e;
      }

      .st8 {
        fill: #0b0b17;
      }

      .st9 {
        fill: #ff9100;
      }

      .st10 {
        fill: #125693;
      }

      .st11 {
        fill: #ccc;
      }

      .st12 {
        fill: #ed1c24;
      }

      .st13 {
        fill: #28343a;
      }

      .st14 {
        fill: #08497a;
      }

      .st15 {
        fill: #ffe000;
      }

      .st16 {
        fill: #be1e2d;
      }

      .st17 {
        fill: #ffb8bd;
      }

      .st18 {
        fill: #fff;
      }

      .st19 {
        fill: #ff8a95;
      }

      .st20 {
        fill: #1f2034;
      }

      .st21 {
        fill: #121323;
      }

      .st22 {
        fill: #fde5d2;
      }

      .st23 {
        fill: #9cd9f7;
      }

      .st24 {
        fill: #37464f;
      }

      .st25 {
        fill: #0262a3;
      }

      .st26 {
        fill: #fcf2bb;
      }

      .st27 {
        fill: #b2b5b7;
      }

      .st28 {
        fill: #8f9194;
      }

      .st29 {
        fill: #2e74bc;
      }

      .st30 {
        fill: #e6e7e8;
      }

      .st31 {
        fill: #6a6b6d;
      }

      .st32 {
        fill: #a00a1c;
      }

      .st33 {
        fill: #717b84;
      }

      .st34 {
        fill: #a8a8a8;
      }

      .st35 {
        fill: #414354;
      }

      .st36 {
        fill: #caebff;
      }

      .st37 {
        fill: #cdcfd0;
      }

      .st38 {
        fill: #1c75bc;
      }

      .st39 {
        fill: #023b5e;
      }
    </style>
  </defs>
  <g>
    <g>
      <g>
        <g>
          <rect class="st22" x="246.94" y="233.04" width="1.67" height="8.98"/>
          <path d="M246.94,238.25h1.67c-1.74-1.74-3.48-3.48-5.21-5.21v8.98c1.74-1.74,3.48-3.47,5.21-5.21h-1.67c1.74,1.74,3.48,3.48,5.22,5.21v-8.98c0-2.84-2.37-5.21-5.22-5.21s-5.21,2.37-5.21,5.21v8.98c0,2.84,2.37,5.21,5.21,5.21h1.67c2.84,0,5.21-2.37,5.21-5.21v-8.98c0-2.84-2.37-5.21-5.21-5.21h-1.67c-2.84,0-5.21,2.37-5.21,5.21s2.37,5.21,5.21,5.21Z"/>
        </g>
        <rect class="st33" x="246.94" y="233.04" width="1.67" height="8.98"/>
        <rect class="st27" x="248.25" y="233.04" width=".36" height="8.98"/>
        <rect class="st2" x="246.94" y="237.42" width="1.67" height="4.6"/>
        <rect class="st33" x="248.25" y="237.42" width=".36" height="4.6"/>
        <rect class="st2" x="246.94" y="233.04" width=".36" height="8.98"/>
        <rect class="st24" x="246.94" y="237.42" width=".36" height="4.6"/>
      </g>
      <g>
        <g>
          <rect class="st22" x="243.29" y="231.19" width="8.98" height="1.67"/>
          <path d="M248.5,232.86v-1.67c-1.74,1.74-3.48,3.48-5.21,5.21h8.98c-1.74-1.74-3.48-3.47-5.21-5.21v1.67c1.74-1.74,3.48-3.47,5.21-5.21h-8.98c-2.85,0-5.21,2.37-5.21,5.21s2.37,5.21,5.21,5.21h8.98c2.84,0,5.21-2.37,5.21-5.21v-1.67c0-2.84-2.37-5.21-5.21-5.21h-8.98c-2.85,0-5.21,2.37-5.21,5.21v1.67c0,2.84,2.37,5.21,5.21,5.21s5.21-2.37,5.21-5.21Z"/>
        </g>
        <rect class="st33" x="243.29" y="231.19" width="8.98" height="1.67"/>
        <rect class="st27" x="243.29" y="231.19" width="8.98" height=".36"/>
        <rect class="st2" x="247.67" y="231.19" width="4.6" height="1.67"/>
        <rect class="st33" x="247.67" y="231.19" width="4.6" height=".36"/>
        <rect class="st2" x="243.29" y="232.51" width="8.98" height=".36"/>
        <rect class="st24" x="247.67" y="232.51" width="4.6" height=".36"/>
      </g>
    </g>
    <g>
      <g>
        <g>
          <g>
            <path class="st22" d="M257.76,267.85c.02-.4-.63-3.98-2.43-6.58-1.89-2.72-4.82-4.47-4.82-4.47v-3.65h-5.77v3.65s-2.93,1.75-4.82,4.47c-1.8,2.59-2.45,6.18-2.43,6.58h0v29.82c0,2.43,1.96,4.38,4.38,4.38h11.51c2.42,0,4.38-1.96,4.38-4.38v-29.82h0Z"/>
            <path d="M265.95,267.85c-.15-7.42-5.13-14.38-11.31-18.12,1.36,2.36,2.71,4.71,4.06,7.07v-3.65c0-4.47-3.72-8.19-8.19-8.19h-5.77c-4.46,0-8.19,3.72-8.19,8.19v3.65c1.35-2.36,2.7-4.72,4.06-7.07-6.17,3.75-11.15,10.7-11.3,18.12,2.73-2.73,5.46-5.46,8.19-8.19h0c-4.47,0-8.19,3.73-8.19,8.19v29.8c0,7.07,5.74,12.29,12.57,12.59,1.8.08,3.63,0,5.44,0h4.76c1.47,0,2.78-.16,4.28-.36,3.3-.45,6.18-3.21,7.89-5.87,2.46-3.82,1.72-9.2,1.72-13.56v-22.61c0-4.46-3.72-8.19-8.19-8.19h0c-4.47,0-8.19,3.73-8.19,8.19s3.73,8.19,8.19,8.19h0c-2.73-2.73-5.46-5.46-8.19-8.19v29.8c0,.23.43-2.29.14-1,.19-.41.37-.83.56-1.24-.41.72-.18.48.67-.71-.46.6-1.47.96.52-.32-1.24.8,1.98-.63.53-.29,1.91-.43,1.7-.22.94-.22h-9.21c-.75,0-3.5-.19-.46.22-.81-.21-.53-.06.87.47-1.35-.56,1.51,1.4.44.42-1.07-.98,1.11,1.73.42.44.19.41.38.83.56,1.24-.18-.83-.14-.5.14,1.02-.03-.68,0-1.37,0-2.04v-27.78c-2.73,2.73-5.46,5.46-8.19,8.19h0c4.53,0,8.1-3.73,8.19-8.19.01-.66.3-1.67-.23,1.63.06-.36.14-.72.23-1.06.12-.48.27-.95.42-1.41.66-2.04-.64,1.3-.01-.04.19-.41.42-.8.66-1.19.47-.69.31-.51-.47.53.19-.24.39-.47.6-.69.38-.43.8-.81,1.22-1.2.51-.46,2.11-1.62-.28.17.33-.25.68-.49,1.03-.71,2.61-1.62,4.08-4.26,4.08-7.32v-3.41c-2.73,2.73-5.46,5.46-8.19,8.19h5.77c-2.73-2.73-5.46-5.46-8.19-8.19v3.23c0,2.33.72,4.53,2.4,6.21.74.75,1.64,1.24,2.49,1.84,1.05.73-1.78-1.42-.65-.51.42.34.81.71,1.19,1.07.44.41.83.87,1.22,1.32-1.58-1.88-.32-.3-.02.25.14.27.27.54.4.81-.53-1.29-.64-1.54-.34-.76.18.48.33.98.46,1.47.11.38.2.77.28,1.17.24,1.2-.21-2.52-.19-1.41.09,4.46,3.66,8.19,8.19,8.19s8.28-3.72,8.19-8.19Z"/>
          </g>
          <path class="st12" d="M257.76,267.85c.02-.4-.63-3.98-2.43-6.58-1.89-2.72-4.82-4.47-4.82-4.47v-3.65h-5.77v3.65s-2.93,1.75-4.82,4.47c-1.8,2.59-2.45,6.18-2.43,6.58h0v29.82c0,2.43,1.96,4.38,4.38,4.38h11.51c2.42,0,4.38-1.96,4.38-4.38v-29.82h0Z"/>
          <path class="st17" d="M239.52,297.68v-29.82h0c-.02-.4.63-3.98,2.43-6.58,1.89-2.72,4.82-4.47,4.82-4.47v-3.65h-2.03v3.65s-2.93,1.75-4.82,4.47c-1.8,2.59-2.45,6.18-2.43,6.58h0v29.82c0,2.43,1.96,4.38,4.38,4.38h2.03c-2.42,0-4.38-1.96-4.38-4.38Z"/>
          <path class="st16" d="M255.74,297.68v-29.82h-.01c.02-.4-.63-3.98-2.42-6.58-1.89-2.72-4.82-4.47-4.82-4.47v-3.65h2.03v3.65s2.93,1.75,4.82,4.47c1.8,2.59,2.45,6.18,2.43,6.58h0v29.82c0,2.43-1.96,4.38-4.38,4.38h-2.03c2.42,0,4.39-1.96,4.39-4.38Z"/>
          <rect class="st32" x="237.46" y="274.52" width="20.28" height="8.64"/>
          <polygon class="st19" points="237.46 274.52 237.46 280.36 237.46 283.15 239.49 283.15 239.49 280.36 239.49 274.52 237.46 274.52"/>
          <polygon class="st1" points="255.71 274.52 255.71 280.36 255.71 283.15 257.74 283.15 257.74 280.36 257.74 274.52 255.71 274.52"/>
          <rect class="st3" x="236.47" y="283.15" width="22.62" height="2.91"/>
          <rect class="st3" x="236.47" y="271.65" width="22.62" height="2.91"/>
        </g>
        <g>
          <g>
            <rect class="st22" x="243.15" y="291.75" width="9.26" height="1.41"/>
            <path d="M252.41,290.18h-9.26c.99.99,1.99,1.99,2.98,2.98v-1.41c-.99.99-1.99,1.99-2.98,2.98h9.26c-.99-.99-1.99-1.99-2.98-2.98v1.41c0,3.84,5.96,3.84,5.96,0v-1.41c0-1.62-1.36-2.98-2.98-2.98h-9.26c-1.62,0-2.98,1.36-2.98,2.98v1.41c0,1.62,1.35,2.98,2.98,2.98h9.26c3.84,0,3.84-5.96,0-5.96Z"/>
          </g>
          <rect class="st18" x="243.15" y="291.75" width="9.26" height="1.41"/>
        </g>
      </g>
      <g>
        <g>
          <path class="st22" d="M251.92,246.92c0,2.29-1.86,4.14-4.14,4.14s-4.14-1.85-4.14-4.14,1.86-4.15,4.14-4.15,4.14,1.86,4.14,4.15Z"/>
          <path d="M246.71,246.92c.14-.72.15-.8.02-.23.08-.18.16-.36.25-.54-.3.49-.24.45.18-.13-.76.9.89-.5-.14.09.18-.08.36-.16.54-.24-.57.13-.5.12.22-.02.72.14.8.15.22.02.18.08.36.16.53.24-.48-.3-.44-.24.13.17-.91-.76.5.9-.09-.13.08.18.16.36.25.54-.13-.57-.13-.5.02.23-.15.72-.15.8-.02.22-.08.17-.17.35-.25.54.29-.49.24-.45-.18.13.75-.91-.9.5.13-.09-.18.08-.35.16-.53.24.57-.13.5-.12-.22.02-.72-.14-.8-.15-.22-.02-.18-.08-.36-.16-.54-.24.49.29.44.24-.13-.18.91.76-.49-.89.09.14-.08-.19-.16-.36-.25-.54.13.57.12.5-.02-.22.13,2.84,2.27,5.21,5.21,5.21,2.74,0,5.35-2.37,5.21-5.21-.25-5.26-4.1-9.11-9.36-9.36-5.25-.25-9.13,4.47-9.36,9.36-.25,5.25,4.47,9.13,9.36,9.36,5.25.25,9.12-4.47,9.36-9.36.13-2.84-2.48-5.21-5.21-5.21-2.94,0-5.08,2.38-5.21,5.21Z"/>
        </g>
        <path class="st18" d="M251.92,246.92c0,2.29-1.86,4.14-4.14,4.14s-4.14-1.85-4.14-4.14,1.86-4.15,4.14-4.15,4.14,1.86,4.14,4.15Z"/>
        <path class="st30" d="M244.95,246.82c0-1.96,1.38-3.61,3.22-4.04-.13-.01-.26-.02-.4-.02-2.29,0-4.14,1.86-4.14,4.15s1.86,4.14,4.14,4.14c.32,0,.63-.04.93-.1-2.1-.2-3.75-1.97-3.75-4.13Z"/>
      </g>
      <g>
        <rect class="st3" x="247.17" y="243.84" width=".73" height="3.8"/>
        <rect class="st3" x="247.17" y="246.91" width="3.8" height=".73"/>
      </g>
    </g>
  </g>
  <g>
    <g>
      <g>
        <g>
          <rect class="st22" x="265.19" y="233.04" width="1.67" height="8.98"/>
          <path d="M265.19,238.25h1.67c-1.74-1.74-3.48-3.48-5.21-5.21v8.98c1.74-1.74,3.48-3.47,5.21-5.21h-1.67c1.74,1.74,3.48,3.48,5.21,5.21v-8.98c0-2.84-2.37-5.21-5.21-5.21s-5.21,2.37-5.21,5.21v8.98c0,2.84,2.37,5.21,5.21,5.21h1.67c2.84,0,5.21-2.37,5.21-5.21v-8.98c0-2.84-2.37-5.21-5.21-5.21h-1.67c-2.84,0-5.21,2.37-5.21,5.21s2.37,5.21,5.21,5.21Z"/>
        </g>
        <rect class="st33" x="265.19" y="233.04" width="1.67" height="8.98"/>
        <rect class="st27" x="266.49" y="233.04" width=".36" height="8.98"/>
        <rect class="st2" x="265.19" y="237.42" width="1.67" height="4.6"/>
        <rect class="st33" x="266.49" y="237.42" width=".36" height="4.6"/>
        <rect class="st2" x="265.19" y="233.04" width=".36" height="8.98"/>
        <rect class="st24" x="265.19" y="237.42" width=".36" height="4.6"/>
      </g>
      <g>
        <g>
          <rect class="st22" x="261.53" y="231.19" width="8.99" height="1.67"/>
          <path d="M266.74,232.86v-1.67c-1.74,1.74-3.48,3.48-5.21,5.21h8.99c-1.74-1.74-3.48-3.47-5.21-5.21v1.67c1.74-1.74,3.48-3.47,5.21-5.21h-8.99c-2.84,0-5.21,2.37-5.21,5.21s2.37,5.21,5.21,5.21h8.99c2.84,0,5.21-2.37,5.21-5.21v-1.67c0-2.84-2.37-5.21-5.21-5.21h-8.99c-2.84,0-5.21,2.37-5.21,5.21v1.67c0,2.84,2.37,5.21,5.21,5.21s5.21-2.37,5.21-5.21Z"/>
        </g>
        <rect class="st33" x="261.53" y="231.19" width="8.99" height="1.67"/>
        <rect class="st27" x="261.53" y="231.19" width="8.99" height=".36"/>
        <rect class="st2" x="265.92" y="231.19" width="4.6" height="1.67"/>
        <rect class="st33" x="265.92" y="231.19" width="4.6" height=".36"/>
        <rect class="st2" x="261.53" y="232.51" width="8.99" height=".36"/>
        <rect class="st24" x="265.92" y="232.51" width="4.6" height=".36"/>
      </g>
    </g>
    <g>
      <g>
        <g>
          <g>
            <path class="st22" d="M276,267.85c.02-.4-.63-3.98-2.42-6.58-1.89-2.72-4.82-4.47-4.82-4.47v-3.65h-5.76v3.65s-2.93,1.75-4.82,4.47c-1.8,2.59-2.45,6.18-2.43,6.58h0v29.82c0,2.43,1.96,4.38,4.38,4.38h11.51c2.42,0,4.38-1.96,4.38-4.38v-29.82h-.01Z"/>
            <path d="M284.19,267.85c-.14-7.42-5.13-14.38-11.31-18.12,1.35,2.36,2.71,4.71,4.06,7.07v-3.65c0-4.47-3.73-8.19-8.19-8.19h-5.76c-4.47,0-8.19,3.72-8.19,8.19v3.65c1.35-2.36,2.7-4.72,4.06-7.07-6.17,3.74-11.16,10.71-11.3,18.12l8.19-8.19h0c-4.47,0-8.19,3.73-8.19,8.19v29.8c0,7.07,5.74,12.29,12.57,12.59,1.81.08,3.63,0,5.44,0h4.76c1.47,0,2.78-.16,4.28-.36,3.3-.45,6.18-3.21,7.89-5.87,2.46-3.82,1.72-9.2,1.72-13.56v-22.61c0-4.46-3.73-8.19-8.19-8.19h-.01c-4.46,0-8.19,3.73-8.19,8.19s3.72,8.19,8.19,8.19h.01c-2.73-2.73-5.46-5.46-8.19-8.19v29.8c0,.23.43-2.29.13-1,.19-.41.38-.83.56-1.24-.41.72-.18.48.67-.71-.47.6-1.47.96.52-.32-1.24.8,1.98-.63.53-.29,1.9-.43,1.69-.22.94-.22h-9.21c-.75,0-3.5-.19-.46.22-.81-.21-.53-.06.87.47-1.35-.56,1.51,1.4.44.42-1.07-.98,1.1,1.73.42.44.19.41.38.83.56,1.24-.18-.83-.13-.5.14,1.02-.03-.68,0-1.37,0-2.04v-27.78c-2.73,2.73-5.46,5.46-8.19,8.19h0c4.53,0,8.11-3.73,8.19-8.19.01-.66.31-1.67-.23,1.63.06-.36.15-.72.23-1.06.12-.48.27-.95.42-1.41.67-2.04-.64,1.3-.01-.04.19-.41.42-.8.66-1.19.47-.69.31-.51-.47.53.19-.24.4-.47.6-.69.38-.43.8-.81,1.23-1.2.51-.46,2.11-1.62-.29.17.33-.25.68-.49,1.03-.71,2.61-1.62,4.08-4.26,4.08-7.32v-3.41c-2.73,2.73-5.46,5.46-8.19,8.19h5.76l-8.19-8.19v3.23c0,2.33.72,4.53,2.4,6.21.74.75,1.64,1.24,2.49,1.84,1.05.73-1.78-1.42-.65-.51.42.34.81.71,1.2,1.07.44.41.83.87,1.22,1.32-1.58-1.88-.32-.3-.02.25.14.27.27.54.4.81-.53-1.29-.64-1.54-.34-.76.18.48.32.98.47,1.47.1.38.19.77.27,1.17.24,1.2-.21-2.52-.18-1.41.09,4.46,3.66,8.19,8.19,8.19s8.28-3.72,8.19-8.19Z"/>
          </g>
          <path class="st29" d="M276,267.85c.02-.4-.63-3.98-2.42-6.58-1.89-2.72-4.82-4.47-4.82-4.47v-3.65h-5.76v3.65s-2.93,1.75-4.82,4.47c-1.8,2.59-2.45,6.18-2.43,6.58h0v29.82c0,2.43,1.96,4.38,4.38,4.38h11.51c2.42,0,4.38-1.96,4.38-4.38v-29.82h-.01Z"/>
          <path class="st36" d="M257.76,297.68v-29.82h0c-.03-.4.63-3.98,2.43-6.58,1.89-2.72,4.82-4.47,4.82-4.47v-3.65h-2.03v3.65s-2.93,1.75-4.82,4.47c-1.8,2.59-2.45,6.18-2.43,6.58h0v29.82c0,2.43,1.96,4.38,4.38,4.38h2.03c-2.42,0-4.38-1.96-4.38-4.38Z"/>
          <path class="st10" d="M273.98,297.68v-29.82h-.01c.02-.4-.63-3.98-2.43-6.58-1.89-2.72-4.82-4.47-4.82-4.47v-3.65h2.03v3.65s2.93,1.75,4.82,4.47c1.8,2.59,2.45,6.18,2.42,6.58h.01v29.82c0,2.43-1.96,4.38-4.38,4.38h-2.03c2.42,0,4.39-1.96,4.39-4.38Z"/>
          <rect class="st14" x="255.7" y="274.52" width="20.28" height="8.64"/>
          <polygon class="st23" points="255.7 274.52 255.7 280.36 255.7 283.15 257.73 283.15 257.73 280.36 257.73 274.52 255.7 274.52"/>
          <polygon class="st39" points="273.95 274.52 273.95 280.36 273.95 283.15 275.98 283.15 275.98 280.36 275.98 274.52 273.95 274.52"/>
          <rect class="st3" x="254.71" y="283.15" width="22.62" height="2.91"/>
          <rect class="st3" x="254.71" y="271.65" width="22.62" height="2.91"/>
        </g>
        <g>
          <g>
            <rect class="st22" x="261.39" y="291.75" width="9.26" height="1.41"/>
            <path d="M270.65,290.18h-9.26c.99.99,1.99,1.99,2.98,2.98v-1.41c-.99.99-1.99,1.99-2.98,2.98h9.26c-.99-.99-1.99-1.99-2.98-2.98v1.41c0,3.84,5.96,3.84,5.96,0v-1.41c0-1.62-1.36-2.98-2.98-2.98h-9.26c-1.62,0-2.98,1.36-2.98,2.98v1.41c0,1.62,1.36,2.98,2.98,2.98h9.26c3.84,0,3.84-5.96,0-5.96Z"/>
          </g>
          <rect class="st18" x="261.39" y="291.75" width="9.26" height="1.41"/>
        </g>
      </g>
      <g>
        <g>
          <path class="st22" d="M270.16,246.92c0,2.29-1.86,4.14-4.14,4.14s-4.15-1.85-4.15-4.14,1.86-4.15,4.15-4.15,4.14,1.86,4.14,4.15Z"/>
          <path d="M264.95,246.92c.14-.72.15-.8.02-.23.09-.18.17-.36.25-.54-.3.49-.24.45.17-.13-.76.9.9-.5-.13.09.18-.08.36-.16.54-.24-.57.13-.5.12.22-.02.72.14.8.15.22.02.18.08.36.16.54.24-.49-.3-.44-.24.13.17-.91-.76.5.9-.09-.13.08.18.16.36.24.54-.13-.57-.12-.5.02.23-.14.72-.15.8-.02.22-.08.17-.16.35-.24.54.29-.49.24-.45-.18.13.76-.91-.89.5.14-.09-.18.08-.36.16-.54.24.58-.13.5-.12-.22.02-.72-.14-.8-.15-.22-.02-.18-.08-.36-.16-.54-.24.48.29.44.24-.13-.18.91.76-.49-.89.09.14-.08-.19-.16-.36-.25-.54.13.57.13.5-.02-.22.13,2.84,2.27,5.21,5.21,5.21,2.74,0,5.35-2.37,5.21-5.21-.25-5.26-4.09-9.11-9.35-9.36-5.25-.25-9.13,4.47-9.36,9.36-.25,5.25,4.47,9.13,9.36,9.36,5.25.25,9.12-4.47,9.35-9.36.14-2.84-2.47-5.21-5.21-5.21-2.94,0-5.08,2.38-5.21,5.21Z"/>
        </g>
        <path class="st18" d="M270.16,246.92c0,2.29-1.86,4.14-4.14,4.14s-4.15-1.85-4.15-4.14,1.86-4.15,4.15-4.15,4.14,1.86,4.14,4.15Z"/>
        <path class="st30" d="M263.2,246.82c0-1.96,1.37-3.61,3.22-4.04-.13-.01-.26-.02-.39-.02-2.29,0-4.15,1.86-4.15,4.15s1.86,4.14,4.15,4.14c.32,0,.63-.04.93-.1-2.1-.2-3.75-1.97-3.75-4.13Z"/>
      </g>
      <g>
        <rect class="st3" x="265.41" y="243.84" width=".73" height="3.8"/>
        <rect class="st3" x="265.41" y="246.91" width="3.8" height=".73"/>
      </g>
    </g>
  </g>
  <g>
    <g>
      <g>
        <path class="st2" d="M126.79,225.34s-32.08,38.1-18.16,46.32c13.92,8.21,33.4-27.4,33.4-27.4l-15.24-18.92Z"/>
        <path d="M123.9,222.44c-3.87,4.6-7.46,9.47-10.82,14.45-5.27,7.79-10.66,16.51-11.91,26-.51,3.89.48,8.23,3.52,10.92,3.68,3.26,8.86,3.93,13.42,2.29,4.77-1.72,8.76-5.09,12.25-8.68,3.55-3.67,6.67-7.79,9.56-12,2.02-2.94,3.95-5.95,5.67-9.07.96-1.76.55-3.47-.64-4.96-5.08-6.31-10.16-12.62-15.24-18.93-1.4-1.74-4.34-1.45-5.79,0-1.7,1.71-1.4,4.05,0,5.8,5.08,6.3,10.16,12.61,15.24,18.92-.22-1.66-.43-3.31-.64-4.96-.97,1.77-2.03,3.49-3.11,5.2-1.12,1.77-2.28,3.5-3.48,5.21-.66.93-1.33,1.85-2.01,2.75-.18.24-.36.47-.54.7.66-.86.03-.04-.09.11-.43.55-.87,1.09-1.32,1.63-1.59,1.92-3.27,3.76-5.07,5.48-.83.8-1.69,1.55-2.58,2.27-.76.61.72-.54-.05.04-.21.16-.44.32-.66.48-.5.36-1.02.69-1.55,1.01-.43.27-.88.51-1.33.74-.22.11-.44.21-.66.32-.81.38.91-.36.09-.04-.43.17-.88.31-1.33.44-.38.11-2.16.37-.67.19-.43.05-.87.06-1.3.06-.21,0-.43-.02-.64-.04,1.31.12.55.08.23.01-.43-.08-.85-.21-1.26-.36-.79-.28.92.42.15.06-.27-.13-.53-.28-.78-.43-1.07-.65.5.48-.2-.13-.27-.24-.5-.5-.72-.77.94,1.15.17.17-.02-.17-.59-1.07.26.86-.12-.31-.11-.35-.18-.7-.25-1.06-.13-.75.13,1.11.05.34-.02-.19-.03-.38-.04-.58-.02-.4-.01-.8,0-1.2.02-.38.24-2.1.03-.6.28-1.99.89-3.92,1.58-5.79.18-.5.38-.99.58-1.48-.48,1.17.23-.5.35-.77.5-1.12,1.05-2.21,1.61-3.3,2.22-4.27,4.81-8.35,7.54-12.32,1.21-1.77,2.46-3.51,3.75-5.23.53-.72,1.06-1.43,1.6-2.13.13-.16.25-.32.38-.48.47-.62-.63.81-.17.21.25-.33.51-.66.77-.99.8-1.02,1.6-2.03,2.43-3.01,1.44-1.71,1.68-4.12,0-5.8-1.47-1.47-4.36-1.71-5.79,0Z"/>
      </g>
      <g>
        <rect class="st3" x="115.9" y="241.46" width="7.96" height="22.74" transform="translate(-157.53 216.28) rotate(-57.13)"/>
        <path d="M127.36,262.76l-19.6-12.67,4.64-7.19,19.6,12.67-4.64,7.19ZM108.58,249.91l18.6,12.02,4-6.19-18.6-12.02-4,6.19Z"/>
      </g>
      <path class="st12" d="M116.97,246l9.41,6.14,4.15-15.66-3.71-4.65s-4.31,5.36-6.36,8.57c-2.05,3.21-3.49,5.59-3.49,5.59Z"/>
    </g>
    <g>
      <g>
        <polygon class="st12" points="125.1 263.59 107.68 253.25 112.24 245.57 129.66 255.9 125.1 263.59"/>
        <path d="M126.6,261.01c-5.81-3.45-11.61-6.89-17.42-10.33.36,1.36.71,2.72,1.07,4.08,1.52-2.56,3.04-5.12,4.55-7.69-1.36.36-2.71.72-4.07,1.07,5.81,3.44,11.62,6.89,17.42,10.33-.35-1.36-.71-2.71-1.07-4.08-1.52,2.56-3.04,5.13-4.55,7.69-1.97,3.31,3.19,6.3,5.14,3,1.52-2.56,3.04-5.12,4.56-7.68.83-1.4.32-3.25-1.07-4.08-5.81-3.44-11.61-6.89-17.42-10.33-1.4-.83-3.25-.32-4.08,1.07-1.52,2.56-3.04,5.12-4.55,7.68-.83,1.4-.32,3.25,1.07,4.07,5.81,3.45,11.62,6.89,17.42,10.33,3.31,1.96,6.31-3.19,3.01-5.14Z"/>
      </g>
      <rect class="st17" x="117.54" y="248.4" width=".9" height="13.88" transform="translate(-161.91 227.53) rotate(-59.52)"/>
    </g>
    <path class="st17" d="M125.99,232.64s-2.85,3.55-4.52,6.06c-1.66,2.51-4.12,6.36-4.12,6.36l8.94,5.41-6.06-5.84s.99-1.76,2.93-4.99c1.94-3.23,4.52-6.66,4.52-6.66l-1.69-.35Z"/>
    <g>
      <g>
        <path class="st3" d="M287.76,309.67c0,2.22-42.6,4.02-95.15,4.02s-95.15-1.8-95.15-4.02,42.6-4.01,95.15-4.01,95.15,1.8,95.15,4.01Z"/>
        <path d="M192.61,314.14c-25.43,0-49.33-.42-67.3-1.18-28.3-1.19-28.3-2.55-28.3-3.29s0-2.09,28.3-3.28c17.99-.76,41.89-1.18,67.3-1.18s49.31.42,67.3,1.18c28.3,1.2,28.3,2.55,28.3,3.28s0,2.1-28.3,3.29c-17.97.76-41.87,1.18-67.3,1.18ZM98.07,309.67c3.55,1.75,41.42,3.57,94.54,3.57s90.99-1.82,94.54-3.57c-3.56-1.75-41.43-3.56-94.54-3.56s-90.98,1.82-94.54,3.56Z"/>
      </g>
      <g>
        <path class="st29" d="M135.26,223.41s-14.24,78.77-4.56,82.15c9.68,3.38,18.65-12.04,18.65-12.04,0,0,7.72,2.36,21.01,2.6,13.3.23,24-2.75,24-2.75,0,0,9.92,17.15,20.62,13.61,10.7-3.54-6.3-83.76-6.3-83.76l-73.43.19Z"/>
        <path d="M131.32,222.33c-2.4,13.26-4.36,26.61-5.95,40-1.11,9.29-2.07,18.66-2.12,28.03-.03,3.66.14,7.33.77,10.95.51,2.91,1.6,5.65,4.02,7.45,2.2,1.65,5.56,1.49,8.11,1.11,3.3-.5,6.27-2.56,8.77-4.64,3.15-2.62,5.92-6.09,7.99-9.64-1.54.63-3.08,1.25-4.62,1.88,1.85.57,3.78.91,5.67,1.23,5.43.94,10.93,1.4,16.42,1.51,8.31.17,17.06-.66,25.1-2.9-1.54-.63-3.09-1.25-4.63-1.88,1.78,3.07,4.06,5.94,6.49,8.51,4,4.21,9.68,8.16,15.78,7.55,2.17-.22,4.34-.74,5.89-2.37,1.1-1.14,1.73-2.51,2.26-3.98,1.06-2.93,1.21-6.26,1.32-9.35.29-8.84-.77-17.76-1.89-26.52-1.26-9.77-2.83-19.51-4.58-29.21-1.09-5.99-2.22-11.98-3.48-17.94-.38-1.77-2.21-3.01-3.95-3.01-13.72.04-27.44.07-41.17.11-10.75.02-21.51.06-32.26.09-5.28.01-5.28,8.2,0,8.19,13.72-.04,27.44-.07,41.17-.12,10.75-.02,21.51-.05,32.26-.08-1.32-1-2.63-2-3.95-3.01,2.71,12.79,4.99,25.68,6.88,38.62.18,1.19.34,2.38.51,3.57.04.31.29,2.21.13,1,.1.69.18,1.38.27,2.08.31,2.44.6,4.87.86,7.31.47,4.46.84,8.94.98,13.42.06,1.9.07,3.8,0,5.69-.02.8-.08,1.61-.13,2.4-.03.37-.07.74-.11,1.11-.02.18-.04.35-.06.53-.09.71.17-1.22.03-.24-.18,1.19-.44,2.38-.87,3.51-.11.28.54-1.15.08-.24-.1.19-.21.38-.32.55-.41.63.82-.95.23-.29-.61.66.21-.12.3-.19-.34.24-1.09.46.46-.15-.23.09-.47.15-.71.21-.21.05-.42.1-.63.14.57-.06.62-.07.15-.02-.61.06-1.23.04-1.84-.02,1.11.1.1,0-.12-.06-.4-.09-.8-.21-1.19-.34-.18-.06-1.15-.46-.18-.04-.29-.13-.57-.27-.85-.41-.67-.34-1.3-.73-1.93-1.16-.27-.18-.53-.37-.79-.56.8.59-.07-.07-.19-.17-.59-.48-1.14-.99-1.69-1.52-.96-.93-1.86-1.93-2.72-2.95-.2-.24-1.34-1.68-.58-.7-.35-.46-.69-.92-1.02-1.39-.63-.88-1.24-1.78-1.78-2.71-.92-1.59-2.86-2.37-4.62-1.88-2.24.62-4.54,1.04-6.83,1.44-2.55.43-4.07.61-6.85.85-3.07.27-6.15.36-9.24.32-2.93-.05-5.86-.22-8.78-.5-.59-.06-1.17-.12-1.75-.19-.15-.02-1.78-.22-.92-.1-1.04-.14-2.08-.31-3.11-.48-1.8-.31-3.61-.66-5.36-1.18-1.75-.53-3.72.33-4.62,1.88-.55.95-1.18,1.84-1.82,2.73-.14.2-.29.39-.44.59-.55.73.59-.74,0,0-.36.46-.72.9-1.1,1.33-.89,1.03-1.84,2-2.85,2.9-.24.22-.49.43-.74.63-.84.71.68-.49-.2.16-.52.38-1.06.73-1.62,1.06-.27.16-.55.31-.84.45-.17.09-1.14.48-.17.09-.67.27-1.37.44-2.08.58,1.09-.2.11-.03-.13-.02-.31,0-.62,0-.93-.02-1.06-.06.89.18-.16-.04-.32-.07-.63-.17-.94-.28-.27-.09,1.21.63.5.17.06.04.94.85.33.2-.48-.52.74,1.06.25.31-.11-.17-.21-.36-.31-.54-.45-.87.4,1.02.09.24-.1-.28-.2-.57-.28-.85-.17-.57-.29-1.13-.4-1.7-.06-.32-.12-.64-.16-.96-.05-.32-.14-1.03.05.41-.03-.24-.06-.47-.08-.71-.42-3.65-.38-7.37-.27-11.03.28-9.6,1.34-19.17,2.53-28.69.15-1.18.3-2.36.46-3.53.04-.29.08-.58.12-.87.14-1.02-.13.94.01-.07.09-.66.18-1.33.27-2,.32-2.29.65-4.57.99-6.85.57-3.87,1.17-7.74,1.81-11.61.49-3.01.99-6.02,1.54-9.02.4-2.2-.57-4.41-2.86-5.04-2-.55-4.64.66-5.03,2.86Z"/>
      </g>
    </g>
    <g>
      <g>
        <path class="st2" d="M216.78,225.34s32.08,38.1,18.16,46.32c-13.92,8.21-33.4-27.4-33.4-27.4l15.24-18.92Z"/>
        <path d="M213.88,228.24c1.1,1.3,2.16,2.65,3.2,3.99.46.6-.64-.83-.17-.21.13.16.25.32.37.48.26.34.52.69.78,1.03.61.82,1.22,1.64,1.82,2.47,1.32,1.8,2.6,3.63,3.84,5.48,2.69,4.01,5.21,8.15,7.33,12.49.25.5.48,1.01.72,1.52.13.28.84,1.94.35.77.43,1.04.82,2.1,1.17,3.16.3.91.55,1.85.76,2.79.1.43.17.88.24,1.32-.23-1.49,0,.22.02.6.02.4.02.8,0,1.2,0,.2-.02.39-.04.58-.06.77.17-1.09.05-.34-.06.36-.15.71-.25,1.06-.35,1.18.44-.77-.12.31-.18.33-.94,1.37-.02.17-.22.28-.46.53-.72.77-.69.63.86-.54-.2.13-.18.12-.38.22-.57.33-.98.53.59-.2-.06.05-.41.16-.84.27-1.26.36-.3.07-1.1.14.23-.01-.21.02-.43.03-.64.04-.44.02-.87-.01-1.3-.06,1.48.14-.27-.09-.67-.19-.45-.12-.89-.27-1.33-.44-.82-.31.9.4.09.04-.23-.1-.44-.21-.66-.32-1.01-.5-1.96-1.11-2.87-1.75-.23-.16-.44-.32-.66-.48-.77-.58.72.57-.05-.04-.44-.35-.87-.72-1.3-1.09-.96-.84-1.86-1.72-2.75-2.63-1.75-1.79-3.37-3.7-4.92-5.66-.12-.15-.75-.96-.09-.11-.18-.24-.35-.47-.53-.7-.35-.46-.69-.92-1.04-1.39-.7-.96-1.39-1.93-2.06-2.92-1.1-1.6-2.15-3.23-3.17-4.88-.81-1.3-1.6-2.62-2.34-3.96-.21,1.65-.43,3.3-.64,4.96,5.08-6.31,10.16-12.62,15.24-18.92,1.4-1.74,1.71-4.09,0-5.8-1.45-1.45-4.39-1.74-5.79,0-5.08,6.31-10.16,12.62-15.24,18.93-1.19,1.49-1.6,3.2-.64,4.96,3.25,5.93,7.18,11.56,11.45,16.79,5.63,6.91,14.6,16.08,24.5,13.38,4.2-1.15,7.61-4.6,8.32-8.94.7-4.35-.35-8.69-1.93-12.74-3.47-8.87-8.86-16.91-14.51-24.52-1.98-2.67-4.01-5.32-6.15-7.87-1.44-1.71-4.32-1.47-5.79,0-1.68,1.68-1.43,4.09,0,5.8Z"/>
      </g>
      <g>
        <rect class="st3" x="212.33" y="248.85" width="22.74" height="7.97" transform="translate(-101.41 161.91) rotate(-32.87)"/>
        <path d="M216.22,262.76l-4.65-7.19,19.6-12.67,4.65,7.19-19.6,12.67ZM212.4,255.74l4,6.19,18.6-12.02-4-6.19-18.6,12.02Z"/>
      </g>
      <path class="st12" d="M226.6,246l-9.4,6.14-4.15-15.66,3.71-4.65s4.32,5.36,6.36,8.57c2.05,3.21,3.48,5.59,3.48,5.59Z"/>
    </g>
    <g>
      <g>
        <polygon class="st22" points="203.43 232.57 173 232.57 172.75 232.57 142.32 232.57 129.14 275.93 172.75 275.93 173 275.93 216.62 275.93 203.43 232.57"/>
        <path d="M203.43,224.38h-61.11c-3.72,0-6.83,2.52-7.9,6.01-4.2,13.81-8.4,27.63-12.6,41.45-.19.64-.39,1.28-.58,1.91-1.56,5.12,2.68,10.37,7.9,10.37h87.48c5.22,0,9.46-5.25,7.9-10.37-4.2-13.82-8.4-27.63-12.6-41.45-.19-.64-.39-1.28-.58-1.91-1.3-4.27-5.69-6.93-10.08-5.72-4.21,1.15-7.02,5.81-5.72,10.07,4.2,13.81,8.41,27.63,12.6,41.46.2.63.39,1.27.58,1.9,2.63-3.46,5.26-6.92,7.9-10.37h-87.48c2.63,3.45,5.27,6.91,7.9,10.37,4.2-13.81,8.4-27.63,12.6-41.45.19-.63.39-1.27.58-1.91-2.63,2-5.27,4.01-7.9,6.02h61.11c4.47,0,8.19-3.73,8.19-8.19s-3.72-8.19-8.19-8.19Z"/>
      </g>
      <polygon class="st12" points="203.43 232.57 173 232.57 172.75 232.57 142.32 232.57 129.14 275.93 172.75 275.93 173 275.93 216.62 275.93 203.43 232.57"/>
    </g>
    <g>
      <path class="st0" d="M193.05,222.99c0,11.29-9.16,20.45-20.44,20.45s-20.44-9.15-20.44-20.45,9.15-20.44,20.44-20.44,20.44,9.15,20.44,20.44Z"/>
      <path d="M189.33,222.99c-.06,5.97-3.15,11.37-8.28,14.44-5.17,3.1-11.7,2.97-16.88,0-5.16-2.96-8.22-8.55-8.28-14.44-.06-5.94,3.23-11.42,8.28-14.44,5.17-3.09,11.7-2.97,16.88,0,5.16,2.96,8.23,8.55,8.28,14.44.05,4.8,7.49,4.8,7.45,0-.07-7.22-3.28-14.24-8.97-18.76-5.97-4.75-13.62-6.43-21.05-4.7-6.88,1.61-12.91,6.64-15.93,12.99-3.29,6.91-3.06,14.82.34,21.64,4.96,9.95,16.66,14.76,27.28,12.29,10.72-2.5,18.21-12.62,18.32-23.46.05-4.8-7.4-4.8-7.45,0Z"/>
    </g>
    <g>
      <g>
        <path class="st22" d="M202.07,262.24c-2.49-10.13.59-27.01.59-27.01l-6.65.69s-.83,22.83-23.05,22.83c-.05,0-.1,0-.16,0h-.02c-.06,0-.11,0-.16,0-22.23,0-23.05-22.83-23.05-22.83l-6.65-.69s3.08,16.88.6,27.01c-2.49,10.13-12.99,13.69-12.99,13.69h84.55s-10.5-3.56-12.99-13.69Z"/>
        <path d="M209.25,260.26c-.14-.6-.27-1.21-.37-1.81-.36-2,.17,1.74-.06-.33-.16-1.48-.23-2.98-.26-4.47-.06-2.84.08-5.69.31-8.52.1-1.19.22-2.38.35-3.57.06-.53.12-1.05.19-1.57.08-.61.25-1.89-.12.85.03-.26.07-.51.11-.76.13-.96.28-1.91.45-2.86.37-2.04.33-3.9-.75-5.74-1.22-2.08-3.89-3.95-6.43-3.68-2.22.23-4.43.46-6.65.69-4.16.43-7.28,3.07-7.45,7.45-.02.5-.08.99-.14,1.48.33-2.72.21-1.44,0-.24-.14.74-.31,1.47-.49,2.21-.21.79-.45,1.56-.71,2.33-.14.41-.3.82-.46,1.23-.41,1.03.85-1.97.4-.94-.12.29-.25.57-.39.85-.42.87-.89,1.72-1.41,2.54-.27.43-.56.84-.86,1.25-.69.95,1.28-1.61.54-.69-.22.27-.45.54-.68.8-.72.81-1.52,1.55-2.36,2.22,2.2-1.78.48-.39-.11,0-.58.38-1.18.71-1.8,1.02-.28.14-.55.27-.83.39,2.29-1.04,1.15-.48.61-.27-.61.23-1.24.42-1.88.6-.67.19-1.35.33-2.03.45-.55.1-1.96.27.54-.04-.51.06-1.02.1-1.52.14-1.18.09-2.39.08-3.57.04-.77-.03-1.55-.1-2.31-.18,2.8.32-.14-.08-.84-.24-.65-.15-1.29-.35-1.93-.55-.31-.11-.6-.21-.91-.33-1.22-.47,1.82.8.63.26-1.16-.53-2.26-1.19-3.29-1.93-1-.72,1.57,1.25.62.48-.28-.24-.55-.47-.83-.72-.47-.42-.89-.87-1.32-1.33-.17-.2-.34-.39-.51-.59-1.04-1.24,1.05,1.41.37.49-.35-.47-.68-.96-.99-1.46-.6-.95-1.11-1.95-1.58-2.97-.25-.55-.66-1.6.39.94-.11-.28-.22-.55-.33-.84-.2-.53-.38-1.06-.55-1.61-.48-1.53-.83-3.09-1.06-4.67-.18-1.2.32,2.55.15,1.06-.02-.2-.05-.4-.06-.6-.02-.19-.03-.38-.04-.56-.17-4.38-3.29-7.01-7.45-7.45-2.22-.23-4.44-.46-6.65-.69-1.86-.2-3.99.91-5.26,2.18-2,2-2.4,4.56-1.92,7.24.13.72.24,1.44.35,2.16.05.31.09.62.14.94.24,1.68-.27-2.13-.04-.33.14,1.1.26,2.19.37,3.3.52,5.17.75,10.44.12,15.62.31-2.58.07-.65-.03-.08-.11.62-.25,1.24-.41,1.84-.17.66-.4,1.3-.65,1.93.91-2.34.04-.22-.26.31-.3.54-.64,1.06-1,1.56-.45.61-.28.39.52-.65-.22.27-.45.53-.68.8-.72.82-1.54,1.57-2.38,2.27-.95.79,1.71-1.27.31-.25-.38.27-.76.53-1.16.78-.66.42-1.35.81-2.05,1.17-1.09.55-2.15.94.19-.02-.17.07-.35.14-.53.2-3.16,1.09-5.47,3.71-5.47,7.18,0,4.06,3.39,7.45,7.44,7.45h84.55c3.31,0,6.3-2.28,7.18-5.47,1.13-4.1-1.37-7.85-5.2-9.16-.12-.04-.23-.08-.35-.13-.6-.24-1.5-.64,1.25.53-.25-.1-.48-.21-.73-.33-1.31-.62-2.55-1.37-3.72-2.2-1.41-1,1.27,1.02.31.25-.33-.27-.65-.55-.96-.84-.76-.69-1.45-1.44-2.1-2.23,1.58,1.93.43.53.1.05-.35-.52-.65-1.07-.94-1.62-.92-1.75.44,1.22-.04-.01-.25-.64-.44-1.3-.61-1.96-1.01-3.93-5.3-6.26-9.16-5.2-3.96,1.09-6.22,5.24-5.2,9.16,2.29,8.87,9.62,15.95,18.19,18.89.66-4.88,1.32-9.75,1.98-14.63h-84.55c.66,4.88,1.32,9.75,1.98,14.63,9.19-3.16,16.82-11.01,18.56-20.71,1.72-9.54.76-19.66-.97-29.15-2.39,3.14-4.79,6.29-7.18,9.42,2.22.24,4.43.47,6.65.7-2.48-2.48-4.96-4.96-7.45-7.45.28,7.31,3.1,14.42,7.58,20.14,3.66,4.67,9.18,7.9,14.93,9.23,6.41,1.49,13.96,1.35,20.08-1.2,4-1.67,7.65-3.91,10.52-7.23,2.68-3.1,4.47-6.4,5.98-10.19,1.33-3.35,2.12-7.16,2.25-10.75-2.48,2.48-4.96,4.96-7.44,7.45,2.22-.23,4.44-.46,6.65-.7-2.4-3.13-4.79-6.28-7.18-9.42-1.81,9.98-2.96,21-.59,30.97.94,3.95,5.35,6.25,9.16,5.2,4.02-1.1,6.14-5.21,5.2-9.16Z"/>
      </g>
      <path class="st29" d="M202.07,262.24c-2.49-10.13.59-27.01.59-27.01l-6.65.69s-.83,22.83-23.05,22.83c-.05,0-.1,0-.16,0h-.02c-.06,0-.11,0-.16,0-22.23,0-23.05-22.83-23.05-22.83l-6.65-.69s3.08,16.88.6,27.01c-2.49,10.13-12.99,13.69-12.99,13.69h84.55s-10.5-3.56-12.99-13.69Z"/>
      <path class="st10" d="M172.62,260.97h.39c23.54,0,25.64-22.84,25.81-25.33l-2.77.29s-.83,22.83-23.06,22.83c-.05,0-.1,0-.16,0h-.03c-.05,0-.1,0-.16,0-22.23,0-23.05-22.83-23.05-22.83l-2.77-.29c.16,2.49,2.27,25.33,25.8,25.33Z"/>
    </g>
    <path class="st29" d="M131.61,284.18l-1.11-8.25s26.12-2.27,43.29-2.27,42.78,2.27,42.78,2.27l-2.51,8.5s-10.99,3.96-41.47,3.96-40.99-4.22-40.99-4.22Z"/>
    <g>
      <g>
        <polygon class="st12" points="218.48 263.59 235.9 253.25 231.34 245.57 213.92 255.9 218.48 263.59"/>
        <path d="M219.98,266.16c5.81-3.45,11.62-6.89,17.42-10.33,1.39-.82,1.9-2.67,1.07-4.07-1.52-2.56-3.04-5.13-4.55-7.68-.83-1.39-2.67-1.9-4.08-1.07-5.81,3.45-11.62,6.89-17.43,10.33-1.39.83-1.9,2.67-1.07,4.08,1.52,2.56,3.04,5.13,4.56,7.68,1.96,3.3,7.11.31,5.14-3-1.52-2.56-3.04-5.12-4.56-7.69-.36,1.36-.71,2.72-1.07,4.08,5.8-3.44,11.62-6.89,17.42-10.33-1.36-.36-2.72-.71-4.08-1.07,1.52,2.57,3.04,5.13,4.56,7.69.36-1.36.71-2.72,1.07-4.08-5.81,3.44-11.62,6.89-17.42,10.33-3.3,1.96-.31,7.11,3.01,5.14Z"/>
      </g>
      <polygon class="st17" points="219.83 259.24 231.79 252.2 231.34 251.43 219.37 258.46 219.83 259.24"/>
    </g>
    <path class="st17" d="M217.59,232.64s2.85,3.55,4.52,6.06c1.66,2.51,4.12,6.36,4.12,6.36l-8.94,5.41,6.06-5.84s-.99-1.76-2.93-4.99c-1.94-3.23-4.52-6.66-4.52-6.66l1.69-.35Z"/>
    <g>
      <g>
        <path class="st22" d="M186.18,269.28h-26.86s0,12.47,13.43,12.47,13.43-12.47,13.43-12.47Z"/>
        <path d="M186.18,263.33h-26.86c-3.24,0-5.97,2.71-5.96,5.96.01,3.22,1.03,6.53,2.55,9.35,3.33,6.18,10.07,9.01,16.84,9.08,6.77.07,13.24-2.96,16.72-8.88,1.63-2.78,2.65-6.3,2.66-9.54.02-3.25-2.72-5.96-5.96-5.96s-5.94,2.71-5.96,5.96c0,.13,0,.27-.02.4,0,.16-.02.31-.04.46-.12,1.22.27-1.8.09-.69-.1.62-.25,1.23-.42,1.84-.09.32-.2.63-.32.95-.44,1.21.74-1.55,0-.03-.17.35-.36.67-.57,1-.12.2-.26.4-.4.59-.59.84.99-1.22.33-.43-.27.33-.58.63-.89.93-.2.18-.4.35-.61.52,1.47-1.21.68-.54.31-.28-.41.27-.84.5-1.28.71-1.05.52,1.4-.54.27-.12-.31.12-.63.21-.95.3-.57.17-1.15.28-1.74.38,1.94-.32-.71-.02-1.22-.01-.69,0-1.37-.05-2.06-.11,1.9.18-.13-.06-.59-.16-.54-.13-1.06-.3-1.58-.5,1.89.71,0-.05-.47-.33-.16-.1-.32-.2-.47-.31-.92-.61,1.17.95.33.27-.4-.34-.77-.71-1.12-1.09-.98-1.07.84,1.21.02.04-.27-.39-.5-.79-.72-1.2-.25-.47-.83-1.89.05.22-.16-.38-.29-.77-.41-1.15-.19-.61-.34-1.24-.45-1.87-.23-1.29.17,1.43.09.77-.03-.21-.04-.41-.06-.62-.01-.15-.02-.32-.02-.48-1.99,1.99-3.97,3.97-5.96,5.96h26.86c3.25,0,5.96-2.71,5.96-5.96s-2.71-5.96-5.96-5.96Z"/>
      </g>
      <path class="st38" d="M186.18,269.28h-26.86s0,12.47,13.43,12.47,13.43-12.47,13.43-12.47Z"/>
      <path class="st25" d="M172.75,278.47c-8.98,0-12.2-5.35-13.36-9.19h-.07s0,12.47,13.43,12.47,13.43-12.47,13.43-12.47h-.07c-1.16,3.84-4.38,9.19-13.36,9.19Z"/>
    </g>
    <path class="st36" d="M145.34,235.48l-2.44-.25s3.08,16.88.6,27.01c-2.49,10.13-12.99,13.69-12.99,13.69l1.11,8.25-.16,8.94s-.55,8.93,1.84,9.16c2.38.22,7.05-3.94,7.05-3.94,0,0-5.15,1.8-6.19,1.58-1.04-.22-1-6.79-1-6.79l.35-8.64-.53-7.58,2.68-1.38c3.38-1.89,8.6-5.79,10.27-12.61,2.37-9.65-.19-25.26-.57-27.42Z"/>
    <path class="st10" d="M200.13,235.48l2.44-.25s-3.09,16.88-.59,27.01c2.49,10.13,14.67,13.75,14.67,13.75l-2.53,8.69.4,9.39s.32,9.38-2.06,9.6c-2.39.23-7.6-3.78-7.6-3.78,0,0,5.79,1.73,6.83,1.51,1.04-.22.65-8.28.65-8.28l-.35-8.64,1.95-6.97-4.1-1.98c-3.38-1.89-8.6-5.79-10.27-12.61-2.37-9.65.19-25.26.57-27.42Z"/>
  </g>
  <g>
    <g>
      <g>
        <g>
          <rect x="63.77" y="82.8" width="19.31" height="6.46"/>
          <path d="M75.64,82.8v6.46c2.48-2.48,4.96-4.96,7.44-7.45h-19.31c2.48,2.48,4.96,4.96,7.45,7.45v-6.46c-2.48,2.48-4.96,4.96-7.45,7.45h19.31c4.06,0,7.45-3.39,7.45-7.45s-3.39-7.45-7.45-7.45h-19.31c-4.06,0-7.45,3.39-7.45,7.45v6.46c0,4.06,3.39,7.45,7.45,7.45h19.31c4.06,0,7.45-3.39,7.45-7.45v-6.46c0-4.06-3.39-7.45-7.45-7.45s-7.44,3.39-7.44,7.45Z"/>
        </g>
        <rect class="st37" x="63.77" y="82.8" width="19.31" height="6.46"/>
        <rect class="st18" x="63.77" y="87.86" width="19.31" height="1.39"/>
        <rect class="st28" x="63.77" y="82.8" width="9.88" height="6.46"/>
        <rect class="st11" x="63.77" y="87.86" width="9.88" height="1.39"/>
        <rect class="st34" x="63.77" y="82.8" width="19.31" height="1.39"/>
        <rect class="st31" x="63.77" y="82.8" width="9.88" height="1.39"/>
      </g>
      <g>
        <g>
          <rect x="54.86" y="76.37" width="3.58" height="19.32"/>
          <path d="M58.44,86.75h-3.58c2.98,2.98,5.96,5.96,8.94,8.94v-19.32c-2.98,2.98-5.96,5.96-8.94,8.94h3.58c-2.98-2.98-5.96-5.96-8.94-8.94v19.32c0,4.87,4.06,8.94,8.94,8.94s8.94-4.06,8.94-8.94v-19.32c0-4.87-4.07-8.94-8.94-8.94h-3.58c-4.87,0-8.94,4.06-8.94,8.94v19.32c0,4.87,4.07,8.94,8.94,8.94h3.58c4.87,0,8.94-4.06,8.94-8.94s-4.07-8.94-8.94-8.94Z"/>
        </g>
        <rect class="st33" x="54.86" y="76.37" width="3.58" height="19.32"/>
        <rect class="st27" x="54.86" y="76.37" width=".77" height="19.32"/>
        <rect class="st2" x="54.86" y="76.37" width="3.58" height="9.88"/>
        <rect class="st33" x="54.86" y="76.37" width=".77" height="9.88"/>
        <rect class="st2" x="57.67" y="76.37" width=".77" height="19.32"/>
        <rect class="st24" x="57.67" y="76.37" width=".77" height="9.88"/>
      </g>
    </g>
    <g>
      <g>
        <g>
          <rect x="262.18" y="82.8" width="19.32" height="6.46"/>
          <path d="M254.73,82.8v6.46c0,4.06,3.39,7.45,7.44,7.45h19.32c4.06,0,7.45-3.39,7.45-7.45v-6.46c0-4.06-3.39-7.45-7.45-7.45h-19.32c-4.06,0-7.44,3.39-7.44,7.45s3.39,7.45,7.44,7.45h19.32c-2.48-2.48-4.96-4.96-7.45-7.45v6.46c2.48-2.48,4.96-4.96,7.45-7.45h-19.32c2.49,2.48,4.96,4.96,7.45,7.45v-6.46c0-4.06-3.39-7.45-7.45-7.45s-7.44,3.39-7.44,7.45Z"/>
        </g>
        <rect class="st37" x="262.18" y="82.8" width="19.32" height="6.46"/>
        <rect class="st18" x="262.18" y="87.86" width="19.32" height="1.39"/>
        <rect class="st28" x="271.61" y="82.8" width="9.88" height="6.46"/>
        <rect class="st11" x="271.61" y="87.86" width="9.88" height="1.39"/>
        <rect class="st34" x="262.18" y="82.8" width="19.32" height="1.39"/>
        <rect class="st31" x="271.61" y="82.8" width="9.88" height="1.39"/>
      </g>
      <g>
        <g>
          <rect x="286.82" y="76.37" width="3.58" height="19.32"/>
          <path d="M286.82,104.62h3.58c4.87,0,8.94-4.06,8.94-8.94v-19.32c0-4.87-4.07-8.94-8.94-8.94h-3.58c-4.87,0-8.94,4.06-8.94,8.94v19.32c0,4.87,4.06,8.94,8.94,8.94s8.94-4.06,8.94-8.94v-19.32c-2.98,2.98-5.96,5.96-8.94,8.94h3.58c-2.98-2.98-5.96-5.96-8.94-8.94v19.32c2.98-2.98,5.96-5.96,8.94-8.94h-3.58c-4.87,0-8.94,4.06-8.94,8.94s4.06,8.94,8.94,8.94Z"/>
        </g>
        <rect class="st33" x="286.82" y="76.37" width="3.58" height="19.32"/>
        <rect class="st27" x="289.63" y="76.37" width=".77" height="19.32"/>
        <rect class="st2" x="286.82" y="76.37" width="3.58" height="9.88"/>
        <rect class="st33" x="289.63" y="76.37" width=".77" height="9.88"/>
        <rect class="st2" x="286.82" y="76.37" width=".77" height="19.32"/>
        <rect class="st24" x="286.82" y="76.37" width=".77" height="9.88"/>
      </g>
    </g>
  </g>
  <g>
    <g>
      <g>
        <path class="st22" d="M174.47,10.43c-80.36-.33-101.93,35.34-101.93,73.82,0,0-.05,10.76-.09,25.26h-.04c0,2.45.01,4.85.02,7.2,0,2.36-.01,4.76-.02,7.21h.04c.04,14.5.09,25.26.09,25.26,0,38.48,21.56,74.16,101.93,73.82,79.53-.32,98.36-35.34,98.36-73.82v-64.93c0-38.48-18.83-73.49-98.36-73.82Z"/>
        <path d="M174.47,0c-15.99-.05-32.19,1.22-47.75,5.05-11.49,2.82-22.96,7.31-32.72,14.1-8.69,6.04-16.11,13.62-21.48,22.8-4.61,7.89-7.64,16.81-9.03,25.83-2.14,13.76-1.42,27.87-1.46,41.74,3.48-3.48,6.95-6.95,10.43-10.43h-.04c-5.67,0-10.44,4.74-10.43,10.43.01,4.8.01,9.61,0,14.41-.01,5.68,4.75,10.43,10.43,10.43h.04c-3.48-3.48-6.95-6.95-10.43-10.43.02,7.37.05,14.73.08,22.1.01,3.27.02,6.54.24,9.81.34,5.04,1.03,10.09,2.13,15.02,1.09,4.91,2.82,9.53,4.79,14.14,3.67,8.61,9.49,16.5,16.43,22.76,8.92,8.05,19.47,13.61,30.75,17.59,13.8,4.87,28.63,6.87,43.18,7.72,16.95.99,34.06.22,50.8-2.6,12.48-2.11,24.86-5.92,35.95-12.12,9.47-5.29,17.47-12.56,23.74-21.38,10.18-14.3,13.14-32.25,13.14-49.43v-39.52c0-16.35,1.11-33.21-3.03-49.19-1.24-4.8-3.06-9.44-5.18-13.92-2.17-4.56-5-8.6-8.08-12.58-6.18-7.96-14.66-14.29-23.61-18.82C222.25,2.8,197.84.12,174.47,0c-5.68-.03-10.43,4.76-10.43,10.43s4.75,10.39,10.43,10.43c9.25.04,18.49.54,27.66,1.76-.92-.12-1.85-.25-2.77-.37,10.59,1.44,21.11,3.84,30.99,8-.83-.35-1.66-.7-2.49-1.05,5.78,2.46,11.29,5.53,16.27,9.38-.7-.55-1.41-1.09-2.11-1.63,3.86,3.01,7.35,6.46,10.35,10.33-.54-.7-1.08-1.41-1.63-2.11,3.01,3.92,5.48,8.21,7.41,12.76-.35-.83-.7-1.66-1.05-2.49,2.45,5.85,3.99,12.03,4.83,18.31-.12-.92-.25-1.85-.37-2.77.94,7.07.84,14.17.84,21.29v39.39c0,7.47.21,14.99-.1,22.45-.12,2.8-.37,5.61-.73,8.39.12-.92.25-1.85.37-2.77-.85,6.27-2.38,12.45-4.83,18.3.35-.83.7-1.66,1.05-2.49-1.93,4.55-4.4,8.84-7.41,12.76.54-.7,1.09-1.41,1.63-2.11-3,3.87-6.49,7.31-10.35,10.32.7-.54,1.4-1.08,2.11-1.63-4.98,3.84-10.49,6.91-16.27,9.37.83-.35,1.66-.7,2.49-1.05-9.88,4.16-20.4,6.56-30.99,8,.92-.13,1.85-.25,2.77-.38-18.72,2.49-38.09,2.52-56.82.05.93.13,1.85.25,2.77.38-10.79-1.46-21.5-3.9-31.56-8.11.83.35,1.66.7,2.49,1.05-6.05-2.56-11.83-5.76-17.04-9.77.7.54,1.41,1.09,2.11,1.63-4.07-3.15-7.74-6.77-10.9-10.83.54.7,1.09,1.41,1.63,2.11-3.1-4.02-5.65-8.43-7.65-13.1.35.83.7,1.66,1.05,2.49-2.44-5.79-3.99-11.89-4.84-18.11.13.93.25,1.85.38,2.77-.58-4.37-.77-8.75-.79-13.16-.03-8.1-.06-16.2-.08-24.3-.02-5.69-4.73-10.43-10.43-10.43h-.04c3.48,3.47,6.95,6.95,10.43,10.43.01-4.81.01-9.61,0-14.41-3.48,3.47-6.95,6.95-10.43,10.43h.04c5.7,0,10.41-4.74,10.43-10.43.02-8.1.05-16.2.08-24.3.01-4.4.21-8.79.79-13.16-.12.93-.25,1.85-.38,2.77.85-6.21,2.4-12.32,4.84-18.11-.35.83-.7,1.66-1.05,2.49,1.99-4.66,4.55-9.07,7.65-13.09-.54.7-1.09,1.41-1.63,2.11,3.16-4.06,6.84-7.68,10.9-10.83-.7.55-1.41,1.09-2.11,1.63,5.22-4.01,10.99-7.21,17.04-9.77-.83.35-1.66.7-2.49,1.05,10.06-4.21,20.77-6.66,31.56-8.11-.92.13-1.85.25-2.77.38,9.67-1.28,19.41-1.75,29.16-1.71,5.68,0,10.43-4.76,10.43-10.43S180.16.02,174.47,0Z"/>
      </g>
      <path class="st6" d="M163.49,237.02c6.02.25,12.06.28,18.09.07,1.67-1.09,3.12-2.42,4.29-3.96-8.74.46-17.51.42-26.23-.09-.13-.01-.26-.02-.4-.02,1.16,1.56,2.59,2.92,4.26,3.99Z"/>
      <path class="st33" d="M174.47,10.43c-80.36-.33-101.93,35.34-101.93,73.82,0,0-.05,10.76-.09,25.26h-.04c0,2.45.01,4.85.02,7.2,0,2.36-.01,4.76-.02,7.21h.04c.04,14.5.09,25.26.09,25.26,0,38.48,21.56,74.16,101.93,73.82,79.53-.32,98.36-35.34,98.36-73.82v-64.93c0-38.48-18.83-73.49-98.36-73.82Z"/>
      <path class="st27" d="M174.47,10.43c-1.97,0-3.91,0-5.82.04,76.41,1.39,94.65,35.91,94.65,73.79v64.93c0,37.88-18.24,72.4-94.65,73.78,1.91.04,3.84.05,5.82.04,79.53-.32,98.36-35.34,98.36-73.82v-64.93c0-38.48-18.83-73.49-98.36-73.82Z"/>
    </g>
    <path class="st2" d="M113.99,85.62c0-25.56.68-49.44,12.59-69.76-41.51,11.38-54.03,39.07-54.03,68.39,0,0-.05,10.76-.09,25.26h-.04c0,2.45.01,4.85.02,7.2,0,2.36-.01,4.76-.02,7.21h.04c.04,14.5.09,25.26.09,25.26,0,38.48,21.56,74.16,101.93,73.82,17.18-.07,31.53-1.75,43.46-4.75-108.42-10.12-103.95-65.17-103.95-132.63Z"/>
    <path class="st7" d="M177.82,222.97c.91-.01,1.82-.03,2.72-.06.17,0,.34-.01.51-.02.9-.02,1.8-.06,2.69-.09.11,0,.21-.01.32-.02.89-.04,1.78-.08,2.66-.12.05,0,.1-.01.16-.01.89-.05,1.78-.1,2.66-.16.13-.01.26-.02.39-.03.86-.06,1.71-.12,2.55-.19.12,0,.23-.02.35-.03.87-.07,1.74-.15,2.59-.23.02,0,.03,0,.04,0,.89-.09,1.77-.17,2.64-.27.03,0,.07,0,.11-.01.85-.1,1.69-.2,2.52-.3.08-.01.16-.02.24-.04.83-.1,1.65-.21,2.46-.33.04,0,.08-.01.12-.02,1.69-.24,3.34-.5,4.96-.79.01,0,.02,0,.03,0,.8-.14,1.6-.29,2.38-.44.03,0,.06,0,.09-.01,2.4-.47,4.7-.98,6.93-1.54h0c-2.33-.22-4.6-.46-6.82-.71-11.61,3.2-25.63,5.12-42.47,5.43.89.02,1.79.03,2.69.04.15,0,.29,0,.44,0,.89,0,1.78,0,2.68,0,.98,0,1.94-.01,2.9-.02.15,0,.3,0,.45-.01Z"/>
    <path class="st24" d="M190.56,218.84c-80.36.33-101.93-35.34-101.93-73.82,0,0-.05-10.76-.09-25.26h-.04c0-2.44,0-4.86.02-7.21,0-2.35-.01-4.76-.02-7.2h.04c.04-14.5.09-25.26.09-25.26,1.33-53.75,37.5-63.45,37.95-64.22-41.51,11.38-54.03,39.07-54.03,68.39,0,0-.05,10.76-.09,25.26h-.04c0,2.45.01,4.85.02,7.2,0,2.36-.01,4.76-.02,7.21h.04c.04,14.5.09,25.26.09,25.26,0,38.48,21.56,74.16,101.93,73.82,17.18-.07,31.53-1.75,43.46-4.75-1.37.16-18.91.55-27.38.58Z"/>
    <path class="st5" d="M177.82,222.97c.91-.01,1.82-.03,2.72-.06.17,0,.34-.01.51-.02.9-.02,1.8-.06,2.69-.09.11,0,.21-.01.32-.02.89-.04,1.78-.08,2.66-.12.05,0,.1-.01.16-.01.89-.05,1.78-.1,2.66-.16.13-.01.26-.02.39-.03.86-.06,1.71-.12,2.55-.19.12,0,.23-.02.35-.03.87-.07,1.74-.15,2.59-.23.02,0,.03,0,.04,0,.89-.09,1.77-.17,2.64-.27.03,0,.07,0,.11-.01.85-.1,1.69-.2,2.52-.3.08-.01.16-.02.24-.04.83-.1,1.65-.21,2.46-.33.04,0,.08-.01.12-.02,1.69-.24,3.34-.5,4.96-.79.01,0,.02,0,.03,0,.8-.14,1.6-.29,2.38-.44.03,0,.06,0,.09-.01,2.4-.47,4.7-.98,6.93-1.54h0c-.68.08-5.34.21-10.9.34-10.78,2.57-23.48,4.1-38.39,4.38.89.02,1.79.03,2.69.04.15,0,.29,0,.44,0,.89,0,1.78,0,2.68,0,.98,0,1.94-.01,2.9-.02.15,0,.3,0,.45-.01Z"/>
    <g>
      <g>
        <g>
          <path class="st22" d="M245.38,147.26c0,1.84-1.48,3.32-3.32,3.32H103.2c-1.83,0-3.32-1.48-3.32-3.32v-38.72c0-1.84,1.48-3.33,3.32-3.33h138.86c1.84,0,3.32,1.48,3.32,3.33v38.72Z"/>
          <path d="M266.13,145.68v-36.89c0-8.45-4.56-17.21-12.23-21.19-3.94-2.04-7.6-3.12-12.1-3.12H103.26c-2.11,0-4.2.48-6.29.81-4.04.66-7.38,3.44-10.4,5.9-3.36,2.74-4.88,6.59-6.4,10.46-1.34,3.42-1.04,7.76-1.04,11.46v34.13c0,2.1.48,4.18.82,6.25.68,4.16,3.58,7.56,6.11,10.66,2.6,3.2,6.58,4.71,10.25,6.14,2.14.84,4.64,1.04,6.89,1.04h137.78c6.83,0,13.29-2.24,18.21-7.18,3.29-3.29,5.24-7.23,6.2-11.52.47-1.72.73-3.52.73-5.37.03-.52.02-1.05,0-1.58Z"/>
          <g>
            <path class="st2" d="M79.2,155.72c0,2.1.48,4.19.82,6.25.68,4.16,3.58,7.57,6.11,10.67,2.6,3.2,6.59,4.7,10.25,6.14,2.14.84,4.64,1.03,6.89,1.03h137.78c6.83,0,13.28-2.24,18.21-7.17,3.3-3.29,5.24-7.23,6.21-11.53.47-1.71.73-3.52.73-5.36.03-.53.03-1.06,0-1.58v-6.91c0,1.85-.26,3.65-.73,5.37-.97,4.29-2.91,8.23-6.21,11.52-4.92,4.93-11.38,7.18-18.21,7.18H103.26c-2.25,0-4.75-.2-6.89-1.04-3.66-1.43-7.64-2.94-10.25-6.14-2.53-3.1-5.44-6.51-6.11-10.66-.34-2.07-.82-4.15-.82-6.25v8.49Z"/>
            <path class="st4" d="M103.26,179.81h25.89c-1.86-2.71-3.49-5.55-4.92-8.49h-20.97c-2.25,0-4.75-.2-6.89-1.04-3.66-1.43-7.64-2.94-10.25-6.14-2.53-3.1-5.44-6.51-6.11-10.66-.34-2.07-.82-4.15-.82-6.25v8.49c0,2.1.48,4.19.82,6.25.68,4.16,3.58,7.57,6.11,10.67,2.6,3.2,6.59,4.7,10.25,6.14,2.14.84,4.64,1.03,6.89,1.03Z"/>
            <path class="st7" d="M266.19,147.26c0,1.85-.26,3.65-.73,5.37-.55,2.43-1.41,4.74-2.65,6.89-.38,3.83-1,7.6-1.89,11.27,2.3-2.88,3.75-6.15,4.54-9.68.47-1.71.73-3.52.73-5.36.03-.53.03-1.06,0-1.58v-6.91Z"/>
            <path class="st13" d="M91.76,168.34c-2.12-1.04-4.11-2.32-5.63-4.19-2.53-3.1-5.44-6.51-6.11-10.66-.34-2.07-.82-4.15-.82-6.25v8.49c0,2.1.48,4.19.82,6.25.68,4.16,3.58,7.57,6.11,10.67,2.45,3.01,6.11,4.52,9.59,5.88-1.62-3.28-2.93-6.68-3.96-10.18Z"/>
          </g>
        </g>
        <g>
          <path class="st22" d="M245.38,147.26c0,1.84-1.48,3.32-3.32,3.32H103.2c-1.83,0-3.32-1.48-3.32-3.32v-38.72c0-1.84,1.48-3.33,3.32-3.33h138.86c1.84,0,3.32,1.48,3.32,3.33v38.72Z"/>
          <path class="st33" d="M255.06,146.45v-37.67c0-7.37-5.9-13.25-13.26-13.25H103.26c-1.13,0-2.24.24-3.35.42-4.45.73-7.55,4.76-9.07,8.63-.98,2.49-.64,5.85-.64,8.52v33.59c0,7.37,5.58,13.56,13.14,13.56h133.36c5.35,0,10.38.37,14.67-3.93,1.96-1.96,3.02-4.4,3.46-7.04.15-.66.23-1.34.23-2.04.01-.27.01-.54,0-.8Z"/>
        </g>
        <g>
          <path class="st20" d="M245.38,147.26c0,1.84-1.48,3.32-3.32,3.32H103.2c-1.83,0-3.32-1.48-3.32-3.32v-38.72c0-1.84,1.48-3.33,3.32-3.33h138.86c1.84,0,3.32,1.48,3.32,3.33v38.72Z"/>
          <path class="st8" d="M103.2,105.21c-1.83,0-3.32,1.48-3.32,3.33v38.72c0,1.84,1.48,3.32,3.32,3.32h14.19c-2.84-13.79-3.35-29.08-3.42-45.37h-10.77Z"/>
          <path d="M248.15,146.92v-38.14c0-3.6-2.75-6.34-6.34-6.34H108c-3.97,0-8.67-.65-10.49,3.98-.77,1.96-.4,4.63-.4,6.68v33.59c0,3.6,2.43,6.65,6.23,6.65h133.36c3.26,0,7.26.61,9.78-1.91.99-.99,1.47-2.31,1.62-3.67.03-.16.04-.33.04-.51,0-.12,0-.23,0-.33ZM241.88,147.81H103.31c-.44,0-.66-.18-.66-.6v-38.59c0-.43.19-.65.63-.65h138.56c.37,0,.63.04.71.24.16.4.07,1.1.07,1.61v37.43c-.02.43-.25.55-.74.55Z"/>
          <path class="st21" d="M241.87,145.6H103.3c-.44,0-.66-.18-.66-.6v2.21c0,.42.22.6.66.6h138.57c.48,0,.72-.13.74-.55v-2.21c-.02.43-.25.55-.74.55Z"/>
          <path class="st35" d="M103.23,110.74h138.55c.37,0,.63.04.72.24.03.09.05.19.07.31v-1.47c0-.5.09-1.21-.07-1.61-.08-.21-.34-.24-.72-.24H103.23c-.44,0-.63.21-.63.65v2.77c0-.43.19-.65.63-.65Z"/>
          <g>
            <path class="st2" d="M96.83,144.97c0,.61.07,1.21.21,1.78v-33.64c0-2.05-.37-4.72.39-6.68,1.82-4.62,6.53-3.98,10.49-3.98h133.8c3.02,0,5.44,1.93,6.14,4.68v-.06c0-3.6-2.75-6.34-6.35-6.34H107.71c-3.96,0-8.67-.65-10.49,3.98-.77,1.95-.39,4.63-.39,6.68v33.59Z"/>
            <path class="st2" d="M254.98,146.45v-37.67c0-.84-.08-1.66-.23-2.45.01.24.02.48.02.73v37.66c.01.27.01.54,0,.81,0,.69-.08,1.38-.23,2.04-.44,2.62-1.5,5.07-3.47,7.03-4.29,4.29-9.31,3.93-14.67,3.93H103.05c-6.65,0-11.77-4.8-12.91-10.98.42,6.99,5.85,12.71,13.11,12.71h133.36c5.36,0,10.38.37,14.67-3.93,1.96-1.96,3.02-4.4,3.47-7.04.15-.66.23-1.34.23-2.04.01-.27.01-.54,0-.8Z"/>
          </g>
          <g>
            <path class="st27" d="M103.35,155.42h133.35c3.27,0,7.27.61,9.78-1.91.99-.99,1.47-2.31,1.62-3.67.03-.16.04-.32.04-.5,0-.12,0-.23,0-.34v-1.74c0,.18-.02.35-.04.51-.15,1.36-.63,2.69-1.62,3.67-2.52,2.52-6.52,1.91-9.78,1.91H103.35c-3.79,0-6.23-3.05-6.23-6.65v2.07c0,3.6,2.43,6.65,6.23,6.65Z"/>
            <path class="st27" d="M90.85,106.66c1.52-3.87,4.62-7.91,9.07-8.63,1.11-.19,2.22-.43,3.35-.43h138.54c7.36,0,13.26,5.89,13.26,13.26v-2.08c0-7.37-5.9-13.25-13.26-13.25H103.26c-1.13,0-2.24.24-3.35.42-4.45.73-7.55,4.76-9.07,8.63-.71,1.8-.73,4.04-.69,6.16.05-1.45.21-2.87.69-4.09Z"/>
          </g>
        </g>
      </g>
      <g>
        <g>
          <g>
            <g>
              <path d="M135.09,83.43c0,1.98-1.61,3.59-3.59,3.59h-22.45c-1.98,0-3.59-1.61-3.59-3.59h0c0-1.99,1.61-3.6,3.59-3.6h22.45c1.98,0,3.59,1.61,3.59,3.6h0Z"/>
              <path d="M127.64,83.43c.06-.41.12-.81.19-1.21-.22.74-.1.5.35-.73.24-.3.48-.61.73-.92-.55.53-.33.37.65-.47.37-.15.73-.3,1.1-.45-.76.2-.48.17.84-.08h-21.86c-1.6,0,1.32.37.26.08.36.14.73.29,1.1.45.98.84,1.2.99.66.47.24.31.48.61.73.92.45,1.23.56,1.47.34.73.06.4.12.8.18,1.21-.25,1.32-.28,1.6-.08.84-.15.37-.29.73-.44,1.1-.84.99-.99,1.2-.47.66-.3.24-.61.48-.91.73-1.23.45-1.48.56-.73.34-.94.26-1.62.19-1.19.19h22.19c.53,0,.87.12-.96-.19.74.22.49.11-.74-.34-.98-.84-1.2-.99-.65-.47-.59-.56-.98-1.23-1.17-2.02.19.76.16.48-.09-.84.22,4.04,3.22,7.44,7.45,7.44,3.89,0,7.67-3.39,7.45-7.44-.32-6.05-4.85-11.04-11.12-11.04h-21.88c-4.16,0-8.22,2-10.19,5.8-3.17,6.13.06,14.81,7.33,16,1.65.27,3.1.28,4.74.28h19.84c6.33,0,10.95-4.86,11.28-11.03.22-4.06-3.55-7.45-7.45-7.45-4.22,0-7.23,3.39-7.45,7.45Z"/>
            </g>
            <path class="st33" d="M135.09,83.43c0,1.98-1.61,3.59-3.59,3.59h-22.45c-1.98,0-3.59-1.61-3.59-3.59h0c0-1.99,1.61-3.6,3.59-3.6h22.45c1.98,0,3.59,1.61,3.59,3.6h0Z"/>
            <path class="st2" d="M131.5,85.66h-22.45c-1.75,0-3.21-1.25-3.52-2.91-.04.22-.07.44-.07.68,0,1.98,1.61,3.59,3.59,3.59h22.45c1.98,0,3.59-1.61,3.59-3.59,0-.24-.02-.46-.06-.68-.32,1.66-1.78,2.91-3.53,2.91Z"/>
            <path class="st27" d="M109.05,80.98h22.45c1.79,0,3.27,1.31,3.54,3.03.03-.19.05-.38.05-.57,0-1.99-1.61-3.6-3.59-3.6h-22.45c-1.98,0-3.59,1.61-3.59,3.6,0,.19.02.38.05.57.27-1.71,1.75-3.03,3.54-3.03Z"/>
          </g>
          <rect class="st2" x="114.64" y="79.84" width="11.27" height="7.18"/>
          <rect class="st33" x="114.64" y="79.84" width="11.27" height="1.14"/>
          <rect class="st24" x="114.64" y="85.74" width="11.27" height="1.28"/>
          <g>
            <rect x="110.22" y="77.09" width="4.41" height="12.68"/>
            <rect x="125.93" y="77.09" width="4.41" height="12.68"/>
          </g>
        </g>
        <g>
          <g>
            <g>
              <path d="M239.8,83.43c0,1.98-1.61,3.59-3.59,3.59h-22.45c-1.98,0-3.59-1.61-3.59-3.59h0c0-1.99,1.61-3.6,3.59-3.6h22.45c1.98,0,3.59,1.61,3.59,3.6h0Z"/>
              <path d="M232.35,83.43c.06-.41.12-.81.18-1.21-.22.74-.1.5.34-.73.24-.3.49-.61.73-.92-.55.53-.33.37.65-.47.36-.15.73-.3,1.1-.45-.76.2-.48.17.85-.08h-21.86c-1.6,0,1.32.37.26.08.37.14.73.29,1.1.45.98.84,1.2.99.66.47.24.31.49.61.73.92.45,1.23.56,1.47.34.73.06.4.12.8.18,1.21-.25,1.32-.28,1.6-.08.84-.15.37-.3.73-.44,1.1-.84.99-1,1.2-.47.66-.3.24-.61.48-.91.73-1.23.45-1.48.56-.74.34-.93.26-1.62.19-1.19.19h22.19c.53,0,.87.12-.97-.19.74.22.49.11-.74-.34-.98-.84-1.2-.99-.65-.47-.59-.56-.98-1.23-1.18-2.02.2.76.17.48-.08-.84.22,4.04,3.22,7.44,7.45,7.44,3.89,0,7.67-3.39,7.45-7.44-.32-6.05-4.85-11.04-11.12-11.04h-21.88c-4.16,0-8.22,2-10.19,5.8-3.18,6.13.06,14.81,7.33,16,1.66.27,3.11.28,4.75.28h19.84c6.33,0,10.95-4.86,11.28-11.03.22-4.06-3.55-7.45-7.45-7.45-4.23,0-7.23,3.39-7.45,7.45Z"/>
            </g>
            <path class="st33" d="M239.8,83.43c0,1.98-1.61,3.59-3.59,3.59h-22.45c-1.98,0-3.59-1.61-3.59-3.59h0c0-1.99,1.61-3.6,3.59-3.6h22.45c1.98,0,3.59,1.61,3.59,3.6h0Z"/>
            <path class="st2" d="M236.21,85.66h-22.45c-1.75,0-3.2-1.25-3.52-2.91-.04.22-.07.44-.07.68,0,1.98,1.61,3.59,3.59,3.59h22.45c1.98,0,3.59-1.61,3.59-3.59,0-.24-.02-.46-.07-.68-.32,1.66-1.77,2.91-3.52,2.91Z"/>
            <path class="st27" d="M213.76,80.98h22.45c1.79,0,3.27,1.31,3.54,3.03.03-.19.05-.38.05-.57,0-1.99-1.61-3.6-3.59-3.6h-22.45c-1.98,0-3.59,1.61-3.59,3.6,0,.19.02.38.05.57.27-1.71,1.75-3.03,3.54-3.03Z"/>
          </g>
          <rect class="st2" x="219.35" y="79.84" width="11.26" height="7.18"/>
          <rect class="st33" x="219.35" y="79.84" width="11.26" height="1.14"/>
          <rect class="st24" x="219.35" y="85.74" width="11.26" height="1.28"/>
          <g>
            <rect x="214.92" y="77.09" width="4.4" height="12.68"/>
            <rect x="230.64" y="77.09" width="4.4" height="12.68"/>
          </g>
        </g>
      </g>
    </g>
    <path d="M73.65,46.67h197.16c-.73-3.38-1.69-6.68-2.9-9.88H76.8c-1.31,3.2-2.35,6.51-3.15,9.88Z"/>
    <g>
      <g>
        <g>
          <path d="M144.55,58.48c.03-.63-.06-1.26-.26-1.84-.94-4.03-4.23-6.79-8.61-7.03-5-.27-8.62,4.26-8.87,8.87-.27,5,4.26,8.62,8.87,8.87,4.24.23,7.48-3,8.52-6.79.25-.65.39-1.35.35-2.08Z"/>
          <g>
            <path class="st2" d="M138.77,58.48c0,1.71-1.39,3.09-3.09,3.09s-3.08-1.38-3.08-3.09,1.38-3.08,3.08-3.08,3.09,1.38,3.09,3.08Z"/>
            <path class="st33" d="M132.83,58.48c0-1.66,1.32-3.02,2.97-3.08h-.12c-1.7,0-3.08,1.38-3.08,3.08s1.38,3.09,3.08,3.09c.04,0,.07,0,.12,0-1.65-.06-2.97-1.41-2.97-3.08Z"/>
            <path class="st24" d="M138.53,58.48c0-1.66-1.32-3.02-2.97-3.08h.12c1.7,0,3.09,1.38,3.09,3.08s-1.39,3.09-3.09,3.09c-.04,0-.08,0-.12,0,1.65-.06,2.97-1.41,2.97-3.08Z"/>
            <path d="M137.38,59.55l-1.06-1.07,1.06-1.06c.18-.18.2-.45.04-.61l-.06-.06c-.16-.16-.43-.14-.61.04l-1.06,1.06-1.06-1.06c-.18-.18-.45-.2-.61-.04l-.06.06c-.16.16-.14.43.04.61l1.06,1.06-1.06,1.07c-.18.18-.2.45-.04.61l.06.06c.16.16.43.14.61-.04l1.06-1.07,1.06,1.07c.18.17.46.2.61.04l.06-.06c.16-.16.14-.43-.04-.61Z"/>
          </g>
        </g>
        <g>
          <g>
            <path d="M180.39,58.48c.03-.63-.06-1.26-.26-1.84-.95-4.03-4.23-6.79-8.61-7.03-5-.27-8.62,4.26-8.87,8.87-.27,5,4.26,8.62,8.87,8.87,4.24.23,7.48-3,8.52-6.79.26-.65.39-1.35.35-2.08Z"/>
            <g>
              <path class="st2" d="M174.61,58.48c0,1.71-1.38,3.09-3.09,3.09s-3.09-1.38-3.09-3.09,1.38-3.08,3.09-3.08,3.09,1.38,3.09,3.08Z"/>
              <path class="st33" d="M168.67,58.48c0-1.66,1.32-3.02,2.97-3.08h-.12c-1.71,0-3.09,1.38-3.09,3.08s1.38,3.09,3.09,3.09c.03,0,.08,0,.12,0-1.65-.06-2.97-1.41-2.97-3.08Z"/>
              <path class="st24" d="M174.38,58.48c0-1.66-1.32-3.02-2.97-3.08h.12c1.7,0,3.09,1.38,3.09,3.08s-1.38,3.09-3.09,3.09c-.04,0-.08,0-.12,0,1.65-.06,2.97-1.41,2.97-3.08Z"/>
              <path d="M173.22,59.55l-1.06-1.07,1.06-1.06c.18-.18.2-.45.04-.61l-.06-.06c-.16-.16-.43-.14-.61.04l-1.06,1.06-1.06-1.06c-.18-.18-.46-.2-.62-.04l-.06.06c-.16.16-.14.43.04.61l1.06,1.06-1.06,1.07c-.18.18-.2.45-.04.61l.06.06c.16.16.43.14.62-.04l1.06-1.07,1.06,1.07c.18.17.45.2.61.04l.06-.06c.16-.16.14-.43-.04-.61Z"/>
            </g>
          </g>
          <g>
            <path d="M108.71,58.48c.03-.63-.06-1.26-.26-1.84-.95-4.03-4.24-6.79-8.61-7.03-5-.27-8.62,4.26-8.87,8.87-.27,5,4.26,8.62,8.87,8.87,4.24.23,7.48-3,8.52-6.79.26-.65.39-1.35.35-2.08Z"/>
            <g>
              <path class="st2" d="M102.92,58.48c0,1.71-1.38,3.09-3.09,3.09s-3.09-1.38-3.09-3.09,1.38-3.08,3.09-3.08,3.09,1.38,3.09,3.08Z"/>
              <path class="st33" d="M96.98,58.48c0-1.66,1.32-3.02,2.97-3.08h-.12c-1.71,0-3.09,1.38-3.09,3.08s1.38,3.09,3.09,3.09c.04,0,.08,0,.12,0-1.65-.06-2.97-1.41-2.97-3.08Z"/>
              <path class="st24" d="M102.69,58.48c0-1.66-1.32-3.02-2.97-3.08h.12c1.7,0,3.09,1.38,3.09,3.08s-1.38,3.09-3.09,3.09c-.04,0-.08,0-.12,0,1.65-.06,2.97-1.41,2.97-3.08Z"/>
              <path d="M101.54,59.55l-1.06-1.07,1.06-1.06c.18-.18.19-.45.03-.61l-.06-.06c-.16-.16-.43-.14-.61.04l-1.06,1.06-1.06-1.06c-.18-.18-.45-.2-.61-.04l-.06.06c-.16.16-.14.43.04.61l1.06,1.06-1.06,1.07c-.18.18-.2.45-.04.61l.06.06c.16.16.43.14.61-.04l1.06-1.07,1.06,1.07c.18.17.45.2.61.04l.06-.06c.16-.16.14-.43-.03-.61Z"/>
            </g>
          </g>
        </g>
      </g>
      <g>
        <path d="M216.23,58.48c.04-.63-.06-1.26-.26-1.84-.95-4.03-4.24-6.79-8.61-7.03-5-.27-8.62,4.26-8.87,8.87-.27,5,4.26,8.62,8.87,8.87,4.24.23,7.48-3,8.52-6.79.25-.65.39-1.35.35-2.08Z"/>
        <g>
          <path class="st2" d="M210.45,58.48c0,1.71-1.38,3.09-3.09,3.09s-3.09-1.38-3.09-3.09,1.38-3.08,3.09-3.08,3.09,1.38,3.09,3.08Z"/>
          <path class="st33" d="M204.51,58.48c0-1.66,1.32-3.02,2.97-3.08h-.12c-1.7,0-3.09,1.38-3.09,3.08s1.38,3.09,3.09,3.09c.04,0,.08,0,.12,0-1.65-.06-2.97-1.41-2.97-3.08Z"/>
          <path class="st24" d="M210.22,58.48c0-1.66-1.32-3.02-2.97-3.08h.12c1.7,0,3.09,1.38,3.09,3.08s-1.38,3.09-3.09,3.09c-.04,0-.08,0-.12,0,1.65-.06,2.97-1.41,2.97-3.08Z"/>
          <path d="M209.06,59.55l-1.06-1.07,1.06-1.06c.18-.18.2-.45.04-.61l-.06-.06c-.16-.16-.43-.14-.61.04l-1.06,1.06-1.06-1.06c-.18-.18-.46-.2-.61-.04l-.06.06c-.16.16-.14.43.04.61l1.06,1.06-1.06,1.07c-.19.18-.2.45-.04.61l.06.06c.16.16.43.14.61-.04l1.06-1.07,1.06,1.07c.18.17.46.2.61.04l.06-.06c.16-.16.14-.43-.04-.61Z"/>
        </g>
      </g>
      <g>
        <path d="M252.08,58.48c.03-.63-.06-1.26-.26-1.84-.95-4.03-4.24-6.79-8.61-7.03-5-.27-8.62,4.26-8.87,8.87-.27,5,4.26,8.62,8.87,8.87,4.24.23,7.48-3,8.52-6.79.26-.65.39-1.35.35-2.08Z"/>
        <g>
          <path class="st2" d="M246.29,58.48c0,1.71-1.38,3.09-3.09,3.09s-3.09-1.38-3.09-3.09,1.38-3.08,3.09-3.08,3.09,1.38,3.09,3.08Z"/>
          <path class="st33" d="M240.35,58.48c0-1.66,1.32-3.02,2.97-3.08h-.12c-1.7,0-3.09,1.38-3.09,3.08s1.38,3.09,3.09,3.09c.04,0,.08,0,.12,0-1.65-.06-2.97-1.41-2.97-3.08Z"/>
          <path class="st24" d="M246.06,58.48c0-1.66-1.32-3.02-2.97-3.08h.11c1.71,0,3.09,1.38,3.09,3.08s-1.38,3.09-3.09,3.09c-.04,0-.08,0-.11,0,1.65-.06,2.97-1.41,2.97-3.08Z"/>
          <path d="M244.91,59.55l-1.06-1.07,1.06-1.06c.18-.18.2-.45.04-.61l-.06-.06c-.16-.16-.43-.14-.61.04l-1.06,1.06-1.06-1.06c-.18-.18-.45-.2-.61-.04l-.06.06c-.16.16-.14.43.04.61l1.06,1.06-1.06,1.07c-.18.18-.2.45-.04.61l.06.06c.16.16.43.14.61-.04l1.06-1.07,1.06,1.07c.18.17.45.2.61.04l.06-.06c.16-.16.14-.43-.04-.61Z"/>
        </g>
      </g>
    </g>
    <g>
      <path class="st18" d="M198.63,16.08c10.39,1.42,19.06,5.87,19.35,9.94.3,4.07-7.88,6.22-18.27,4.8-10.39-1.42-19.05-5.87-19.35-9.94-.3-4.07,7.88-6.22,18.27-4.8Z"/>
      <path class="st18" d="M226.82,27.06c.9,1.66.28,3.73-1.38,4.63s-3.73.28-4.64-1.38c-.9-1.66-.28-3.73,1.37-4.64,1.67-.9,3.74-.28,4.64,1.38Z"/>
    </g>
  </g>
  <g>
    <path class="st22" d="M262.28,236.52c-8.75,3.93-16.83,9.92-24.11,16.07-5.85,4.94-11.23,10.37-15.98,16.38-3.84,4.88-7.37,9.99-11.18,14.89-3.79,4.86-7.94,9.51-12.85,13.26-5.31,4.04-11.43,6.7-17.95,8-12.36,2.46-26.18,2.04-37.97-2.66-11.72-4.68-21.52-14.69-25.12-26.89-.1-.35-.2-.71-.28-1.07-.2-.94-1.64-.54-1.44.4.63,2.88,1.91,5.69,3.27,8.28,3.21,6.12,7.86,11.4,13.46,15.43,8.45,6.09,18.83,8.76,29.12,9.27,7.11.35,14.53-.14,21.46-1.79,6.2-1.47,11.91-4.37,16.94-8.25,9.81-7.58,16.27-18.5,23.84-28.11,9.03-11.45,20.6-21.1,33.14-28.5,2.08-1.22,4.21-2.44,6.41-3.42.88-.39.12-1.68-.75-1.29h0Z"/>
    <path d="M260.78,233.94c-8.27,3.75-15.66,9.1-22.66,14.84-6.91,5.65-13.23,11.92-18.72,18.96-5.64,7.24-10.66,14.99-17.05,21.62-5.95,6.18-13.07,10.54-21.44,12.54-8.19,1.96-17.06,2.27-25.38,1.02-7.89-1.18-15.36-3.91-21.78-8.67-5.6-4.15-10.21-10.07-12.77-16.56-.32-.83-.61-1.66-.87-2.51-.33-1.03-.47-2.27-1.29-3.07-1.74-1.69-4.66-1.43-5.93.72-1.13,1.94-.02,4.45.69,6.34.82,2.19,1.85,4.31,2.97,6.35,4.03,7.38,10.26,13.59,17.48,17.86,7.48,4.43,16.09,6.52,24.68,7.29,9.01.8,18.57.2,27.27-2.4,8.33-2.48,15.66-7.52,21.7-13.68,5.08-5.18,9.29-11.16,13.57-17,4.36-5.95,8.97-11.59,14.28-16.72,5.34-5.17,11.2-9.76,17.41-13.85,3.25-2.14,6.61-4.18,10.09-5.94,1.75-.88,4.2-2.31,3.26-4.77-.81-2.11-2.52-3.2-4.79-2.68-3.75.86-2.16,6.6,1.58,5.74.1-.02.21-.04.32-.07h-1.58c-.2-.11-.4-.22-.6-.33-.25-.45-.51-.88-.76-1.32,0-.09,0-.18-.01-.27.13-.5.27-1.01.4-1.51-.04.08-.08.16-.12.24.35-.35.71-.71,1.07-1.06-.82.58-1.87.95-2.77,1.41-.99.51-1.97,1.07-2.94,1.63-1.94,1.13-3.84,2.3-5.72,3.52-3.65,2.36-7.16,4.94-10.57,7.64-6.68,5.29-12.78,11.32-18.1,17.97-10.27,12.83-18.66,28.34-34.87,34.49-6.69,2.55-14.06,3.26-21.18,3.29-6.98.03-13.91-.87-20.55-3.09-6.38-2.13-12.11-5.77-16.83-10.55-2.25-2.28-4.17-4.82-5.83-7.56-.87-1.44-1.64-2.96-2.37-4.49-.34-.72-.64-1.46-.92-2.21-.18-.5-.34-1-.5-1.5-.05-.17-.09-.34-.14-.5-.12-.69-.18-.67-.18.04-.25.44-.51.88-.77,1.32-.61.16-1.21.31-1.82.47-.44-.25-.88-.51-1.31-.77.06.06.12.12.18.17-.25-.44-.51-.87-.76-1.31.68,1.63,1.05,3.42,1.72,5.09.77,1.88,1.64,3.7,2.66,5.46,1.89,3.28,4.27,6.3,6.91,9.01,5.46,5.59,12.3,9.55,19.7,11.97,8.36,2.74,17.41,3.45,26.14,2.82,8.73-.63,17.3-2.6,24.89-7.1,13.81-8.19,21.32-23.07,31.5-34.88,5-5.8,10.67-10.94,16.63-15.73,6.1-4.9,12.66-9.32,19.8-12.55,1.48-.67,1.82-2.78,1.07-4.08-.88-1.51-2.6-1.74-4.08-1.07Z"/>
  </g>
  <path class="st29" d="M262.28,236.52c-8.75,3.93-16.83,9.92-24.11,16.07-5.85,4.94-11.23,10.37-15.98,16.38-3.84,4.88-7.37,9.99-11.18,14.89-3.79,4.86-7.94,9.51-12.85,13.26-5.31,4.04-11.43,6.7-17.95,8-12.36,2.46-26.18,2.04-37.97-2.66-11.72-4.68-21.52-14.69-25.12-26.89-.1-.35-.2-.71-.28-1.07-.2-.94-1.64-.54-1.44.4.63,2.88,1.91,5.69,3.27,8.28,3.21,6.12,7.86,11.4,13.46,15.43,8.45,6.09,18.83,8.76,29.12,9.27,7.11.35,14.53-.14,21.46-1.79,6.2-1.47,11.91-4.37,16.94-8.25,9.81-7.58,16.27-18.5,23.84-28.11,9.03-11.45,20.6-21.1,33.14-28.5,2.08-1.22,4.21-2.44,6.41-3.42.88-.39.12-1.68-.75-1.29h0Z"/>
  <g>
    <path class="st36" d="M142.53,302.74c11.79,4.7,25.61,5.13,37.97,2.66,6.52-1.3,12.65-3.97,17.95-8,4.92-3.75,9.06-8.4,12.85-13.26,3.82-4.89,7.34-10.02,11.19-14.89,4.74-6.02,10.13-11.44,15.98-16.38,7.29-6.14,15.36-12.14,24.11-16.07.27-.12.52-.08.72.05-.19-.32-.59-.53-1.02-.34-8.75,3.93-16.83,9.92-24.11,16.07-5.85,4.94-11.23,10.36-15.98,16.38-3.84,4.88-7.37,9.99-11.18,14.89-3.79,4.86-7.94,9.51-12.85,13.26-5.31,4.04-11.43,6.7-17.95,8-12.36,2.46-26.18,2.04-37.97-2.66-5.43-2.17-10.44-5.48-14.62-9.62,4.24,4.28,9.36,7.7,14.91,9.91Z"/>
    <path class="st36" d="M118.96,283.47c-1.36-2.59-2.64-5.4-3.27-8.28-.15-.69.59-1.09,1.07-.87-.34-.7-1.56-.3-1.37.57.63,2.88,1.91,5.69,3.27,8.28,2.06,3.92,4.72,7.51,7.84,10.64-2.99-3.06-5.54-6.54-7.54-10.34Z"/>
  </g>
  <g>
    <path class="st10" d="M256.99,241.02v-.35c-.12.07-.24.14-.36.21-.45.27-.89.54-1.33.81v.35c.44-.27.89-.54,1.33-.81.12-.07.24-.14.36-.21Z"/>
    <path class="st10" d="M221.32,272.17c-6.69,8.88-12.82,18.46-21.68,25.31-5.02,3.88-10.74,6.78-16.94,8.25-6.93,1.65-14.35,2.14-21.46,1.79-10.29-.51-20.67-3.18-29.12-9.27-5.6-4.03-10.26-9.32-13.46-15.44-1.36-2.59-2.64-5.4-3.27-8.27-.02.1-.03.22,0,.35.63,2.88,1.91,5.69,3.27,8.28,3.21,6.12,7.86,11.4,13.46,15.43,8.45,6.09,18.83,8.76,29.12,9.27,7.11.35,14.53-.14,21.46-1.79,6.2-1.47,11.91-4.37,16.94-8.25,8.99-6.95,15.16-16.7,21.96-25.67-.09,0-.18.01-.27.01Z"/>
    <path class="st10" d="M235.02,257.27c0-.05,0-.1,0-.15v-.19c-3.18,2.95-6.19,6.08-8.99,9.36.1,0,.19.01.29.02,2.72-3.17,5.64-6.19,8.71-9.04Z"/>
  </g>
  <g>
    <g>
      <path class="st22" d="M247.12,238.55c.09,1.78-.42,3.64-.89,5.33-1.55,5.51-4.43,10.62-7.62,15.33-9.06,13.43-21.67,24.58-35.75,32.51-12.15,6.85-25.74,11.29-39.61,12.84-12.19,1.35-25.45,1.03-35.89-6.14-7.07-4.84-13.04-12.96-15.21-21.34-.24-.93-1.68-.53-1.43.4,1.33,5.18,4.24,10.14,7.5,14.31,3.13,4.01,7.06,7.38,11.51,9.85,5.46,3.04,11.52,4.37,17.71,4.79,27.51,1.88,55.34-9.2,75.69-27.4,8.81-7.88,16.92-17.38,22-28.11,1.73-3.64,3.69-8.21,3.48-12.36-.05-.95-1.54-.96-1.49,0h0Z"/>
      <path d="M244.14,238.55c.08,4.09-1.96,8.45-3.8,12.03-1.95,3.79-4.35,7.35-6.89,10.77-4.88,6.58-10.77,12.45-17.1,17.64-13.37,10.95-29.49,18.36-46.45,21.58-8.09,1.54-16.56,2.15-24.76,1.2-7.82-.92-15.09-4.14-20.73-9.65-2.83-2.77-5.13-5.99-6.96-9.49-.84-1.6-1.5-3.27-2.04-4.99-.31-.98-.46-2.18-1.26-2.92-.96-.88-2.25-1.38-3.56-1.02-5.39,1.48-1.54,8.55-.02,11.64,1.92,3.92,4.54,7.58,7.45,10.81,5.85,6.48,13.79,10.71,22.32,12.36,8.25,1.6,16.94,1.37,25.23.31,16.51-2.1,32.36-8.24,46.25-17.37,10.93-7.18,20.68-16.26,28.46-26.77,3.89-5.24,7.08-10.96,9.49-17.03,1.13-2.87,2.42-6.78,1.7-9.89-.41-1.78-1.98-2.89-3.78-2.9-2.16,0-3.32,1.77-3.56,3.69-.2,1.62,1.51,2.98,2.98,2.98,1.78,0,2.77-1.37,2.98-2.98.01-.09.02-.19.04-.28-.14.5-.27,1-.41,1.51.04-.07.08-.15.13-.22-.36.36-.72.72-1.07,1.07-.63,0-1.26,0-1.89,0-.36-.36-.71-.72-1.07-1.07-.06-.18-.12-.35-.18-.53,0,.33,0,.65-.02.98-.02.4-.07.77-.14,1.17-.17,1-.46,1.98-.76,2.96-.62,1.98-1.49,3.87-2.38,5.73-1.85,3.86-4.11,7.5-6.58,10.97-4.88,6.84-10.91,12.91-17.32,18.32-12.39,10.45-27.3,17.97-43.03,21.83-5.8,1.42-11.7,2.27-17.65,2.56-6.31.31-12.77.09-18.91-1.48-5.97-1.53-11.26-4.73-15.6-9.07-2.23-2.22-4.08-4.76-5.74-7.43-.84-1.35-1.58-2.75-2.26-4.19-.34-.72-.62-1.46-.9-2.21-.12-.33-.23-.66-.33-.99-.19-.57-.05-1.46-.37-.45-.25.44-.51.88-.77,1.32-.61.16-1.22.31-1.82.47-.44-.25-.88-.51-1.31-.76-.77-.71-.24-.07-.08.46.13.45.29.89.44,1.34.34.99.76,1.96,1.17,2.92.82,1.92,1.85,3.75,2.97,5.51,2.21,3.45,4.95,6.6,8.05,9.28,6.48,5.61,14.43,8.4,22.84,9.47,8.37,1.06,17.01.21,25.29-1.22,8.92-1.55,17.56-4.37,25.8-8.09,12.5-5.64,23.95-13.83,33.51-23.63,4.71-4.83,8.92-10.15,12.58-15.81,1.89-2.92,3.58-5.97,4.93-9.18,1.48-3.5,2.91-7.4,2.84-11.25-.07-3.84-6.03-3.85-5.96,0Z"/>
    </g>
    <path class="st12" d="M247.12,238.55c.09,1.78-.42,3.64-.89,5.33-1.55,5.51-4.43,10.62-7.62,15.33-9.06,13.43-21.67,24.58-35.75,32.51-12.15,6.85-25.74,11.29-39.61,12.84-12.19,1.35-25.45,1.03-35.89-6.14-7.07-4.84-13.04-12.96-15.21-21.34-.24-.93-1.68-.53-1.43.4,1.33,5.18,4.24,10.14,7.5,14.31,3.13,4.01,7.06,7.38,11.51,9.85,5.46,3.04,11.52,4.37,17.71,4.79,27.51,1.88,55.34-9.2,75.69-27.4,8.81-7.88,16.92-17.38,22-28.11,1.73-3.64,3.69-8.21,3.48-12.36-.05-.95-1.54-.96-1.49,0h0Z"/>
    <g>
      <path class="st17" d="M248.61,238.92c.01.18.01.36.01.53,0-.3,0-.6-.01-.9-.05-.95-1.54-.96-1.49,0,0,.1,0,.2,0,.3.03-.88,1.44-.86,1.48.07Z"/>
      <path class="st17" d="M112.16,277.45c2.16,8.39,8.14,16.49,15.21,21.34,10.45,7.16,23.71,7.49,35.89,6.13,13.87-1.54,27.46-5.99,39.61-12.83,14.07-7.93,26.69-19.08,35.75-32.5,3.18-4.71,6.07-9.82,7.62-15.33.44-1.58.91-3.31.9-4.98-.05,1.55-.48,3.15-.9,4.6-1.55,5.51-4.43,10.62-7.62,15.33-9.06,13.43-21.67,24.58-35.75,32.51-12.15,6.85-25.74,11.29-39.61,12.84-12.19,1.35-25.45,1.03-35.89-6.14-7.07-4.84-13.04-12.96-15.21-21.34-.24-.92-1.67-.54-1.44.39.17-.63,1.24-.81,1.44-.02Z"/>
    </g>
    <g>
      <path class="st16" d="M247.13,238.45s0,.06,0,.1c0,.07,0,.15,0,.23v-.33Z"/>
      <path class="st16" d="M245.13,250.39c-5.09,10.73-13.2,20.23-22,28.1-20.35,18.21-48.18,29.28-75.69,27.4-6.19-.43-12.25-1.74-17.71-4.79-4.44-2.48-8.37-5.84-11.51-9.85-3.24-4.15-6.14-9.09-7.48-14.24-.05.13-.06.28-.02.45,1.33,5.18,4.24,10.14,7.5,14.31,3.13,4.01,7.06,7.38,11.51,9.85,5.46,3.04,11.52,4.37,17.71,4.79,27.51,1.88,55.34-9.2,75.69-27.4,8.81-7.88,16.92-17.38,22-28.11,1.67-3.51,3.56-7.9,3.49-11.93-.1,3.89-1.89,8.05-3.49,11.41Z"/>
    </g>
  </g>
  <g>
    <g>
      <g>
        <path class="st22" d="M86.21,241.61s2.37.36,5.48,2.01c6.77,3.6,17.13,30.7,17.13,30.7l2.16-.85s-11.37-29.41-19.29-32.17c-3.26-1.14-5.65-1.7-5.65-1.7l.18,2.01Z"/>
        <path d="M84.63,247.36c.65.1,1.28.29,1.91.49.25.09.51.17.76.26,1.44.51-1.19-.56.37.15.49.22.97.46,1.42.75,1.01.64-1.3-1.09-.34-.27.26.22.5.46.74.71.26.27.51.55.76.84.1.13.2.25.3.37.65.8-.95-1.25-.31-.41,2.46,3.25,4.37,6.92,6.18,10.55.96,1.93,1.88,3.88,2.77,5.85.41.91.81,1.81,1.21,2.73.18.42.37.85.55,1.28.07.16.14.32.21.49.42.98-.61-1.45-.21-.49.73,1.73,1.44,3.47,2.12,5.22,1.06,2.78,4.1,5.43,7.33,4.16.72-.28,1.44-.56,2.16-.85,2.78-1.09,5.42-4.07,4.16-7.33-2.54-6.55-5.43-13.01-8.69-19.24-2.28-4.34-4.83-8.58-8.04-12.31-1.31-1.52-2.91-2.98-4.7-3.92-2.35-1.22-5.11-1.95-7.68-2.56-3.48-.82-7.91,1.73-7.54,5.75.06.67.12,1.34.18,2.01.3,3.23,2.49,5.96,5.96,5.96,3.02,0,6.25-2.71,5.96-5.96-.06-.67-.12-1.34-.18-2.01-2.52,1.91-5.03,3.83-7.54,5.74.66.15,1.3.33,1.96.52.72.2,1.43.43,2.15.65.52.17,1.04.35,1.55.53.8.27-1.6-.72-.82-.35.27.13.52.29.77.46,1.02.68-1.32-1.13-.1-.06.64.57,1.22,1.2,1.78,1.85.31.37,1.35,1.71.05.02.28.37.55.74.82,1.12.64.88,1.23,1.8,1.8,2.72,1.25,2,2.39,4.06,3.48,6.15,2.01,3.83,3.82,7.76,5.54,11.72.16.37.31.74.48,1.1.54,1.26-.65-1.54-.02-.03.24.58.48,1.17.72,1.76.21.51.42,1.02.62,1.54,1.39-2.44,2.77-4.88,4.16-7.33-.72.28-1.44.57-2.16.85,2.44,1.38,4.88,2.77,7.33,4.16-2.37-6.19-5.03-12.3-8-18.23-4.04-8.07-8.94-17.06-18.77-18.63-3.2-.51-6.4.77-7.33,4.16-.79,2.87.95,6.81,4.16,7.33Z"/>
      </g>
      <path class="st15" d="M86.21,241.61s2.37.36,5.48,2.01c6.77,3.6,17.13,30.7,17.13,30.7l2.16-.85s-11.37-29.41-19.29-32.17c-3.26-1.14-5.65-1.7-5.65-1.7l.18,2.01Z"/>
      <path class="st9" d="M92.26,243.46c-3.1-1.64-5.47-2.01-5.47-2.01l-.16-1.7c-.39-.1-.6-.15-.6-.15l.18,2.01s2.37.36,5.48,2.01c6.77,3.6,17.13,30.7,17.13,30.7l.55-.22c-.49-1.28-10.5-27.13-17.1-30.64Z"/>
      <path class="st26" d="M91.28,241.79c7.45,2.6,17.96,28.8,19.17,31.87l.52-.2s-11.37-29.41-19.29-32.17c-3.26-1.14-5.65-1.7-5.65-1.7l.05.61c.84.21,2.78.74,5.2,1.58Z"/>
    </g>
    <g>
      <g>
        <g>
          <path class="st22" d="M83.54,241.97c-.14,1.26-1.28,2.16-2.54,2.01l-.38-.05c-1.26-.14-2.15-1.28-2.01-2.54l.35-3.03c.15-1.26,1.29-2.16,2.55-2.01l.38.05c1.26.14,2.16,1.28,2.01,2.54l-.36,3.03Z"/>
          <path d="M77.8,240.4c-.03.13-.05.27-.08.4.38-1.31,1.22-2.18,2.51-2.6.26-.06.51-.11.77-.17-.52-.06-.25-.03.8.09,1.38.29,2.81,1.82,2.77,3.29,0-.09.02-.19.03-.28.11-.91.21-1.82.32-2.72-.21,1.76-.79,3.13-2.64,3.75-.26.06-.52.11-.77.17.52.06.25.04-.8-.09-1.37-.28-2.81-1.82-2.77-3.29,0,.09-.02.2-.03.28-.11.91-.22,1.83-.32,2.75-.38,3.24,3,5.96,5.95,5.96,3.54,0,5.58-2.73,5.96-5.96.09-.78.18-1.55.27-2.33.29-2.45-.51-4.53-2.03-6.45-4.12-5.21-13.2-2.72-14.52,3.58-.27,1.27-.33,2.63-.48,3.92-.29,2.45.51,4.53,2.02,6.44,4.12,5.21,13.21,2.73,14.53-3.58.67-3.17-.89-6.43-4.16-7.32-2.98-.83-6.66.97-7.33,4.16Z"/>
        </g>
        <path class="st33" d="M83.54,241.97c-.14,1.26-1.28,2.16-2.54,2.01l-.38-.05c-1.26-.14-2.15-1.28-2.01-2.54l.35-3.03c.15-1.26,1.29-2.16,2.55-2.01l.38.05c1.26.14,2.16,1.28,2.01,2.54l-.36,3.03Z"/>
        <path class="st2" d="M81.89,236.4l-.38-.05c-.06-.01-.11-.01-.16-.01,1.06.3,1.77,1.34,1.64,2.46l-.36,3.03c-.14,1.21-1.19,2.08-2.38,2.02.12.04.24.06.37.07l.38.05c1.26.14,2.4-.76,2.54-2.01l.36-3.03c.15-1.26-.75-2.4-2.01-2.54Z"/>
      </g>
      <g>
        <g>
          <polygon class="st22" points="63.69 236.28 63.41 237.21 63.4 237.21 63.4 237.24 63.39 237.27 63.4 237.27 63.42 238.24 74.68 242.09 75.12 238.86 75.13 238.81 75.57 235.59 63.69 236.28"/>
          <path d="M57.94,234.7c-.1.31-.19.62-.28.93,1.92-1.46,3.83-2.91,5.74-4.38h0c-3.19-.23-6.02,2.89-5.96,5.96.07-.51.14-1.02.2-1.52-.84,2.8.99,6.89,4.16,7.33h0c-1.46-1.92-2.92-3.83-4.37-5.74,0,.32.01.65.02.97.06,2.78,1.8,4.87,4.37,5.74,3.75,1.28,7.5,2.56,11.26,3.85,2.78.95,6.91-1.07,7.33-4.16.29-2.17.59-4.33.88-6.5.23-1.67.29-3.07-.6-4.59-1.02-1.73-3.08-3.07-5.14-2.95-3.96.23-7.92.47-11.88.7-3.24.19-5.95,2.56-5.95,5.95,0,3.11,2.71,6.15,5.95,5.96,3.96-.24,7.92-.47,11.88-.7-1.92-2.51-3.83-5.03-5.74-7.54-.29,2.16-.59,4.33-.88,6.49,2.44-1.39,4.88-2.77,7.33-4.16-3.75-1.28-7.5-2.56-11.26-3.85,1.46,1.91,2.92,3.83,4.37,5.74,0-.32-.01-.65-.02-.97-.05-2.39-1.76-5.39-4.38-5.74h0c1.39,2.44,2.77,4.88,4.16,7.33.16-.53.23-1.09.22-1.64-1.99,1.99-3.97,3.97-5.96,5.96h0c2.66.19,5.02-1.97,5.74-4.38.09-.31.19-.62.28-.93.94-3.11-1.09-6.48-4.16-7.33-3.19-.87-6.4,1.06-7.33,4.16Z"/>
        </g>
        <polygon class="st33" points="63.69 236.28 63.41 237.21 63.4 237.21 63.4 237.24 63.39 237.27 63.4 237.27 63.42 238.24 74.68 242.09 75.12 238.86 75.13 238.81 75.57 235.59 63.69 236.28"/>
        <polygon class="st27" points="63.41 237.63 63.6 236.97 75.47 236.27 75.57 235.59 63.69 236.28 63.41 237.21 63.4 237.21 63.4 237.24 63.39 237.27 63.4 237.27 63.41 237.63"/>
        <g>
          <rect class="st9" x="63.61" y="236.34" width=".13" transform="translate(-180.92 227.07) rotate(-72.75)"/>
          <polygon class="st2" points="63.67 237.43 63.65 236.46 63.64 236.46 63.65 236.43 63.65 236.43 63.41 237.21 63.4 237.21 63.4 237.24 63.39 237.27 63.4 237.27 63.42 238.24 74.68 242.09 74.8 241.23 63.67 237.43"/>
        </g>
      </g>
    </g>
  </g>
  <g>
    <g>
      <path class="st22" d="M111.51,286.12c-.62.35-1.4.13-1.74-.48l-.1-.19c-.35-.62-.13-1.4.48-1.74l1.49-.84c.62-.35,1.4-.13,1.74.48l.11.19c.35.62.13,1.4-.49,1.74l-1.49.84Z"/>
      <path d="M108.5,280.97l-.19.09c.48-.2.95-.4,1.43-.6-.07.02-.13.04-.2.05.52-.07,1.06-.14,1.58-.21-.13.03-.26.03-.4.02.53.07,1.06.14,1.59.21-.13-.02-.26-.05-.38-.1.48.2.95.4,1.43.59-.06-.03-.12-.06-.17-.09.4.31.81.62,1.21.93-.11-.08-.21-.16-.3-.27.31.4.62.8.94,1.2-.12-.18-.22-.35-.31-.55.2.47.4.95.6,1.43-.02-.06-.04-.13-.06-.2.07.53.14,1.06.21,1.58-.03-.13-.03-.26-.02-.39-.07.53-.14,1.06-.21,1.58.01-.13.05-.25.11-.38-.2.47-.4.95-.6,1.42.03-.05.06-.12.09-.17-.31.4-.62.81-.93,1.21.08-.12.16-.21.27-.3-.4.31-.8.62-1.21.93.58-.39,1.22-.75,1.85-1.04-.48.2-.95.4-1.43.6.07-.02.13-.04.2-.05-.53.06-1.06.14-1.58.21.13-.02.26-.03.39-.01-.52-.07-1.06-.14-1.58-.21.13.02.26.05.38.1-.47-.2-.95-.4-1.42-.59.06.03.12.06.18.09-.4-.3-.81-.62-1.21-.93.11.08.21.17.3.27-.31-.4-.62-.8-.93-1.2.12.18.22.35.31.54-.2-.47-.4-.95-.6-1.42.02.06.04.13.06.2-.07-.53-.14-1.06-.21-1.58.02.13.03.26.01.39.07-.53.14-1.06.22-1.58-.02.13-.05.25-.11.38.2-.47.4-.95.6-1.42-.03.06-.06.11-.1.17.31-.4.62-.8.93-1.2-.08.11-.17.21-.27.29.4-.31.8-.62,1.21-.93-.53.35-1.11.64-1.66.95-2.83,1.59-3.76,5.39-2.14,8.15,1.66,2.83,5.32,3.73,8.15,2.14,2.19-1.23,4.33-2.66,4.87-5.36.53-2.66-.21-5.13-2.04-7.08-.83-.88-2.16-1.62-3.34-1.85-1.99-.39-3.54-.09-5.37.76-2.23,1.03-4.37,2.85-4.87,5.36-.53,2.66.21,5.12,2.05,7.08.82.87,2.16,1.62,3.34,1.85,1.99.4,3.54.09,5.37-.76,1.33-.61,2.36-2.2,2.74-3.56.42-1.54.2-3.21-.6-4.59-.78-1.33-2.07-2.33-3.56-2.74-1.66-.46-3.08-.1-4.59.6Z"/>
    </g>
    <path class="st33" d="M111.51,286.12c-.62.35-1.4.13-1.74-.48l-.1-.19c-.35-.62-.13-1.4.48-1.74l1.49-.84c.62-.35,1.4-.13,1.74.48l.11.19c.35.62.13,1.4-.49,1.74l-1.49.84Z"/>
    <path class="st27" d="M110.43,284.19l1.49-.84c.56-.31,1.24-.16,1.63.32-.02-.04-.03-.09-.05-.13l-.11-.19c-.35-.61-1.13-.83-1.74-.48l-1.49.84c-.62.35-.84,1.12-.48,1.74l.1.19c.03.06.07.11.11.16-.25-.59-.03-1.29.55-1.61Z"/>
    <path class="st2" d="M113.49,283.54l-.11-.19s-.03-.05-.05-.07c.21.58-.02,1.24-.58,1.55l-1.49.84c-.59.34-1.33.14-1.7-.41.02.06.05.13.09.19l.1.19c.34.61,1.13.83,1.74.48l1.49-.84c.62-.35.84-1.12.49-1.74Z"/>
  </g>
  <g>
    <g>
      <path class="st22" d="M118.73,282.51c-.61.34-1.4.12-1.74-.49l-.11-.18c-.35-.62-.13-1.4.49-1.75l1.49-.83c.62-.35,1.4-.13,1.75.48l.1.18c.35.62.13,1.4-.49,1.75l-1.49.84Z"/>
      <path d="M115.72,277.37c-.06.02-.13.05-.19.09.47-.2.95-.4,1.42-.6-.07.01-.13.04-.2.05.53-.08,1.06-.14,1.58-.21-.13.02-.26.03-.39.01.52.08,1.06.14,1.58.21-.13-.01-.25-.05-.38-.11.47.2.95.4,1.42.6-.06-.04-.12-.06-.17-.1.4.31.81.62,1.21.94-.12-.07-.21-.17-.29-.27.31.4.62.81.93,1.21-.12-.18-.22-.35-.31-.55.2.47.4.95.6,1.42-.02-.06-.04-.13-.05-.19.07.53.14,1.05.21,1.58-.02-.13-.03-.27-.01-.39-.07.53-.14,1.05-.21,1.58.01-.13.05-.25.1-.38-.2.47-.4.95-.6,1.43.03-.06.06-.12.1-.18-.31.4-.62.81-.93,1.21.07-.11.16-.21.27-.29-.4.31-.8.62-1.21.94.58-.39,1.22-.75,1.85-1.04-.48.2-.95.4-1.43.6.07-.02.13-.03.2-.05-.53.07-1.06.14-1.58.21.13-.02.27-.02.4-.01-.53-.07-1.06-.14-1.59-.21.13.02.26.06.38.11-.47-.2-.95-.4-1.43-.6.06.03.12.06.17.09-.4-.31-.8-.62-1.21-.93.12.07.21.16.3.27-.31-.4-.62-.81-.93-1.21.12.18.22.35.31.55-.2-.48-.4-.95-.6-1.43.02.07.03.13.05.2-.07-.53-.14-1.06-.21-1.58.03.13.03.26.02.4.07-.53.14-1.05.21-1.59-.01.13-.05.26-.11.38.2-.47.4-.95.6-1.42-.03.06-.06.12-.1.17.31-.4.62-.8.93-1.21-.08.12-.16.21-.27.29.4-.3.81-.62,1.21-.93-.53.36-1.11.65-1.66.96-2.83,1.58-3.76,5.38-2.14,8.15,1.66,2.83,5.32,3.73,8.15,2.13,2.19-1.23,4.33-2.65,4.87-5.36.53-2.66-.21-5.13-2.05-7.08-.82-.88-2.16-1.62-3.34-1.86-1.98-.39-3.54-.09-5.37.76-2.23,1.03-4.37,2.86-4.87,5.36-.53,2.66.21,5.13,2.04,7.08.82.88,2.16,1.62,3.34,1.86,1.99.39,3.54.09,5.37-.76,1.33-.62,2.36-2.19,2.74-3.56.42-1.54.21-3.21-.6-4.59-.78-1.33-2.07-2.33-3.56-2.74-1.66-.46-3.08-.09-4.59.61Z"/>
    </g>
    <path class="st33" d="M118.73,282.51c-.61.34-1.4.12-1.74-.49l-.11-.18c-.35-.62-.13-1.4.49-1.75l1.49-.83c.62-.35,1.4-.13,1.75.48l.1.18c.35.62.13,1.4-.49,1.75l-1.49.84Z"/>
    <path class="st27" d="M117.65,280.57l1.49-.84c.55-.31,1.24-.16,1.62.32-.02-.05-.03-.09-.06-.13l-.1-.18c-.35-.62-1.13-.84-1.75-.48l-1.49.83c-.62.35-.83,1.13-.49,1.75l.11.18c.03.06.08.11.12.17-.25-.59-.03-1.29.55-1.62Z"/>
    <path class="st2" d="M120.71,279.92l-.1-.18s-.03-.05-.05-.08c.21.58-.02,1.24-.57,1.55l-1.49.84c-.59.33-1.33.14-1.7-.42.03.06.05.13.09.2l.11.18c.35.61,1.13.83,1.74.49l1.49-.84c.62-.35.84-1.13.49-1.75Z"/>
  </g>
  <g>
    <path d="M103.89,254.44c-2.05.75-3.56,1.58-5.22,3.04-1.64,1.45-2.43,3.23-3.25,5.18-1.43,3.43-.35,7.74,1.38,10.89.09.17.19.35.3.52.12.21.26.41.4.61,2.07,3.04,4.51,5.29,8.05,6.57,2.91,1.06,6.91.43,9.4-1.39,5.14-3.78,7.96-10.53,5.93-16.83-2.24-6.96-9.93-11.19-17-8.6ZM106.74,267.82s0-.01,0-.02c0,0,0,.01,0,.02h0Z"/>
    <path class="st29" d="M103.6,270.42c-5.18-8.3,6.38-12.32,9.64-6.51,3.25,5.82-3.74,15.96-9.64,6.51"/>
    <path class="st36" d="M104.3,269.96c-2.25-3.6-1.34-6.41.68-7.94-2.48,1.38-3.88,4.39-1.38,8.4,2.72,4.36,5.67,4.55,7.74,2.93-2.01,1.07-4.62.5-7.04-3.39Z"/>
    <path class="st10" d="M103.32,263.41c2.51-.76,5.52-.09,6.94,2.45,1.48,2.65.84,6.18-.85,8.37,3.59-.61,6-6.43,3.82-10.32-2.09-3.74-7.61-3.41-9.92-.5Z"/>
  </g>
  <g>
    <g>
      <path class="st22" d="M55.18,234.65l.83-1.65-1.21-.15.26-1.7s-2.22.72-2.23.61c-.01-.12.51-1.88.51-1.88l-1.56,1.42.76-3.59-2.15,1.47-1.05.39-.75-3.34-3.62,1.67-2.52-1.38-4.6,3.29-4.29-2.73-5.17-.38-2.39,2.26-3.11.87-7.86-3.13-.9,1.58-2.69,1.66-5.49.5,5.64,1.21,3.38,1.86,4.44-1.37,3.69,4.46,3.93-.43,1.21,1.01,1.02-.24,4.59,2.8,2.8-.47,4.04,1.66,3.49.51.59.77,4.12-1.56,1.91,2.07,1.95-2.42,1.11-.1.38-2.43,1.24-.41-.28-2.7Z"/>
      <path d="M60.33,237.65c.28-.54.55-1.1.83-1.64.97-1.95,1.13-4.09,0-6.02-1.16-1.98-2.98-2.68-5.14-2.95-.4-.05-.81-.1-1.21-.16,1.92,2.51,3.83,5.03,5.75,7.54.09-.57.17-1.14.26-1.71.33-2.18.11-4.16-1.53-5.79-1.45-1.45-3.8-2.18-5.8-1.53-.71.23-1.44.51-2.18.62h3.17s-.03,0-.05-.01c1.39,2.44,2.77,4.89,4.16,7.33.09-.63.32-1.27.5-1.88.74-2.56-.46-5.4-2.74-6.73-2.4-1.4-5.22-.87-7.22.94-.52.47-1.04.94-1.55,1.41,3.32,1.93,6.63,3.86,9.95,5.8.26-1.19.51-2.39.76-3.58.45-2.11.04-4.23-1.53-5.8-1.8-1.79-5.03-2.42-7.22-.93-.51.35-1.01.69-1.52,1.04-.67.46-1.43.66.72-.14-.33.12-.65.24-.97.36,2.44,1.38,4.89,2.78,7.33,4.16-.25-1.12-.5-2.23-.75-3.34-.33-1.47-1.46-2.81-2.74-3.56-1.98-1.15-4.03-.91-6.02,0-1.21.56-2.42,1.12-3.63,1.67h6.01c-.84-.46-1.68-.92-2.52-1.38-1.75-.95-4.29-1.23-6.01,0-1.53,1.1-3.07,2.2-4.6,3.29h6.02c-1.11-.7-2.22-1.41-3.33-2.11-.79-.5-1.46-.96-2.4-1.22-.88-.24-1.99-.24-2.92-.31-1.72-.13-3.71-.54-5.41-.07-2,.55-3.54,2.4-5.02,3.79.88-.5,1.75-1.02,2.63-1.53-1.04.3-2.08.59-3.11.88h3.17c-2.62-1.04-5.24-2.09-7.86-3.13-2.43-.96-5.51.62-6.73,2.74-.3.53-.6,1.05-.9,1.58.71-.71,1.42-1.43,2.14-2.14-.9.55-1.8,1.11-2.69,1.67,1-.28,2-.54,3-.82-1.83.17-3.66.33-5.49.5-2.68.24-4.99,1.64-5.75,4.38-.82,2.99.99,6.64,4.16,7.33,1.31.28,2.62.56,3.93.84.55.12,1.1.24,1.65.36.27.05-2.04-.97-1-.39.36.2.73.4,1.09.59,2.25,1.24,4.33,2.36,7.04,1.52,1.31-.4,2.63-.81,3.94-1.21-1.93-.51-3.86-1.03-5.8-1.54,1.17,1.41,2.34,2.82,3.51,4.24,2.2,2.65,5.42,1.85,8.32,1.53-1.4-.58-2.81-1.16-4.21-1.74.76.63,1.58,1.45,2.42,1.95,1.82,1.07,3.69.81,5.62.36-1.53-.2-3.06-.4-4.59-.6,1.4.85,2.8,1.71,4.2,2.56,2.49,1.52,5.12.81,7.78.36h-3.17c1.31.54,2.63,1.08,3.94,1.62,1.04.43,2.46.39,3.58.55-1.19-.91-2.38-1.82-3.56-2.74.2.26.4.51.59.77,1.53,1.99,4.04,3.76,6.73,2.74,1.37-.52,2.75-1.05,4.12-1.56-1.93-.51-3.86-1.03-5.8-1.54.63.69,1.27,1.38,1.9,2.07,2.03,2.21,6.44,2.46,8.43,0,.65-.8,1.3-1.61,1.95-2.42-1.41.58-2.81,1.16-4.21,1.74.37-.04.74-.06,1.11-.1,2.43-.22,5.31-1.63,5.74-4.37.13-.81.25-1.62.38-2.43-1.39,1.38-2.77,2.78-4.16,4.16.41-.14.82-.28,1.23-.41,2.33-.78,4.65-3.05,4.38-5.75-.1-.89-.19-1.8-.28-2.7-.33-3.23-2.45-5.96-5.96-5.96-2.99,0-6.29,2.73-5.96,5.96.1.89.19,1.8.28,2.7,1.46-1.91,2.92-3.83,4.37-5.74-.41.13-.82.27-1.23.41-1.82.6-3.84,2.1-4.16,4.16-.13.81-.25,1.62-.38,2.43,1.92-1.46,3.83-2.91,5.75-4.38-2.02.18-4.12.35-5.5,2.07-.59.73-1.18,1.47-1.77,2.2h8.43c-.64-.69-1.27-1.38-1.91-2.07-1.32-1.44-3.92-2.25-5.8-1.53-1.37.52-2.75,1.05-4.12,1.56,2.24.91,4.48,1.82,6.73,2.74-1.09-1.42-2.2-3.22-4.15-3.5-.49-.07-.97-.14-1.46-.21-.98-.14-1.86-.23-2.77-.6-1.1-.45-2.2-.9-3.3-1.35-1.58-.65-4.25.19-5.97.47,1.53.2,3.06.4,4.59.61-1.08-.66-2.17-1.33-3.25-1.99-.44-.27-.88-.54-1.32-.8-1.8-1.1-3.71-.82-5.63-.37,1.93.51,3.86,1.02,5.8,1.53-1.71-1.42-3.42-2.97-5.84-2.71-1.17.13-2.34.26-3.52.39,1.4.58,2.81,1.16,4.21,1.74-1.23-1.48-2.46-2.97-3.69-4.45-1.29-1.56-3.93-2.11-5.8-1.54-1.48.46-2.96.92-4.44,1.37,1.53.2,3.06.4,4.59.6-1.57-.87-3.31-2.15-5.08-2.53-1.79-.38-3.58-.77-5.37-1.15-.53,3.9-1.05,7.8-1.58,11.7,2.26-.2,4.87-.1,7.07-.7,1.39-.39,2.66-1.36,3.87-2.11,1.6-.99,2.4-2.32,3.29-3.86-2.25.91-4.49,1.82-6.73,2.73,2.58,1.03,5.17,2.06,7.75,3.09,1.93.77,4.36-.26,6.27-.8,2.09-.59,3.6-2.37,5.13-3.82-1.4.58-2.81,1.16-4.21,1.74,1.73.13,3.45.25,5.17.38-1-.27-2.01-.54-3.01-.81,1.43.91,2.86,1.82,4.29,2.72,1.66,1.06,4.37,1.18,6.02,0,1.53-1.1,3.07-2.19,4.6-3.29h-6.01c.62.34,1.24.68,1.86,1.02,2.25,1.23,4.29,1.45,6.69.35,1.2-.55,2.4-1.1,3.6-1.66-2.92-1.19-5.84-2.38-8.75-3.56.25,1.11.5,2.22.75,3.33.67,2.96,4.39,5.26,7.33,4.16,1.73-.65,3.11-1.43,4.62-2.46-2.92-2.24-5.83-4.49-8.75-6.73-.25,1.2-.51,2.38-.76,3.59-1.25,5.88,5.45,9.88,9.96,5.79.52-.47,1.04-.94,1.56-1.41-3.32-1.93-6.64-3.87-9.96-5.8-.18.61-.42,1.24-.5,1.88-.46,3.14.72,6.48,4.16,7.33,1.91.47,3.62-.04,5.39-.61-2.44-2.44-4.88-4.89-7.33-7.33-.09.56-.17,1.13-.26,1.7-.63,4.16,1.6,7.01,5.74,7.54.4.05.81.1,1.21.15-1.71-2.98-3.43-5.97-5.14-8.96-.28.54-.55,1.09-.83,1.64-1.45,2.9-.79,6.44,2.14,8.15,2.66,1.56,6.7.77,8.15-2.13Z"/>
    </g>
    <path class="st15" d="M55.18,234.65l.83-1.65-1.21-.15.26-1.7s-2.22.72-2.23.61c-.01-.12.51-1.88.51-1.88l-1.56,1.42.76-3.59-2.15,1.47-1.05.39-.75-3.34-3.62,1.67-2.52-1.38-4.6,3.29-4.29-2.73-5.17-.38-2.39,2.26-3.11.87-7.86-3.13-.9,1.58-2.69,1.66-5.49.5,5.64,1.21,3.38,1.86,4.44-1.37,3.69,4.46,3.93-.43,1.21,1.01,1.02-.24,4.59,2.8,2.8-.47,4.04,1.66,3.49.51.59.77,4.12-1.56,1.91,2.07,1.95-2.42,1.11-.1.38-2.43,1.24-.41-.28-2.7Z"/>
    <path class="st18" d="M55.04,235.14l.43-.87-.63-.08.13-.89s-1.16.38-1.17.32c0-.06.27-.98.27-.98l-.81.74.4-1.88-1.13.77-.55.21-.39-1.75-1.9.88-1.32-.72-2.41,1.72-2.25-1.43-2.7-.2-1.25,1.18-1.63.46-4.11-1.63-.47.82-1.41.87-2.87.26,2.95.63,1.77.97,2.32-.72,1.93,2.33,2.06-.22.64.53.54-.13,2.4,1.47,1.47-.25,2.11.86,1.82.27.31.4,2.16-.82,1,1.09,1.02-1.27.58-.05.2-1.27.65-.21-.14-1.41Z"/>
    <g>
      <polygon class="st9" points="52.28 228.9 52.54 227.7 51.91 228.14 51.62 229.51 52.28 228.9"/>
      <polygon class="st9" points="55.21 234.6 56.01 233 55.02 232.87 55.21 234.6"/>
      <polygon class="st9" points="54.07 235.98 53.69 238.41 52.58 238.5 50.63 240.92 48.72 238.85 44.6 240.42 44.01 239.65 40.52 239.14 36.48 237.49 33.69 237.96 29.1 235.16 28.07 235.4 26.86 234.39 22.93 234.82 19.25 230.36 14.81 231.73 11.49 229.91 11.43 229.94 5.95 230.44 11.59 231.65 14.97 233.52 19.41 232.14 23.1 236.6 27.02 236.17 28.23 237.18 29.26 236.94 33.85 239.74 36.65 239.27 40.68 240.92 44.17 241.43 44.76 242.2 48.88 240.63 50.79 242.7 52.74 240.28 53.85 240.18 54.23 237.75 55.47 237.34 55.28 235.58 54.07 235.98"/>
    </g>
  </g>
</svg>