<?xml version="1.0" encoding="UTF-8"?>
<svg id="Layer_1" xmlns="http://www.w3.org/2000/svg" version="1.1" viewBox="0 0 295.37 316.39">
  <!-- Generator: Adobe Illustrator 29.6.1, SVG Export Plug-In . SVG Version: 2.1.1 Build 9)  -->
  <defs>
    <style>
      .st0 {
        fill: #ac794e;
      }

      .st1 {
        fill: #000002;
      }

      .st2 {
        fill: #d13b6a;
      }

      .st3 {
        fill: #f38b9e;
      }

      .st4 {
        fill: #fff;
      }

      .st5 {
        fill: #f56a91;
      }

      .st6 {
        fill: #fde5d2;
      }

      .st7 {
        fill: #ffd2e0;
      }

      .st8 {
        fill: #e6e7e8;
      }

      .st9 {
        fill: #91592f;
      }
    </style>
  </defs>
  <g>
    <g>
      <path class="st1" d="M292.19,140.63s3.22,5.51.4,12.9c-2.82,7.39-5.06,4.12-6.32,8.6-1.26,4.48,5.56,10.21.18,19.34-5.38,9.14-18.72,1.88-20.88,8.06-2.14,6.18,10.4,13.88,11.16,20.29.36,3.01-3.53,7.05-7.48,7.12-4.45.08-9.05-4.04-9.05-4.04,0,0,5.47,1.35,6.58-2.68,1.13-4.03-4.56-8.46-4.56-8.46,0,0,1.39,7.03-6.86,11.96-8.24,4.92-24.09,3.76-26.24,8.06-2.15,4.3,5.28,5.02,2.51,12.54-2.77,7.53-20.24,3.95-20.24,3.95,0,0,.18,1.74,1.61,3.49,1.43,1.75,4.39,2.87,4.39,2.87,0,0-8.33,1.3-10.13-2.24-1.79-3.54-.17-8.87-.17-8.87l-7.7-5.38v-87.52h92.8Z"/>
      <path class="st1" d="M3.18,140.63s-3.22,5.51-.4,12.9c2.82,7.39,5.06,4.12,6.32,8.6,1.25,4.48-5.56,10.21-.18,19.34,5.37,9.14,18.72,1.88,20.87,8.06,2.15,6.18-10.39,13.88-11.16,20.29-.36,3.01,3.54,7.05,7.48,7.12,4.45.08,9.04-4.04,9.04-4.04,0,0-5.46,1.35-6.58-2.68-1.13-4.03,4.57-8.46,4.57-8.46,0,0-1.39,7.03,6.85,11.96,8.24,4.92,24.1,3.76,26.24,8.06,2.16,4.3-5.28,5.02-2.51,12.54,2.78,7.53,20.25,3.95,20.25,3.95,0,0-.18,1.74-1.61,3.49-1.44,1.75-4.39,2.87-4.39,2.87,0,0,8.33,1.3,10.13-2.24,1.79-3.54.18-8.87.18-8.87l7.7-5.38v-87.52H3.18Z"/>
    </g>
    <g>
      <g>
        <g>
          <path class="st0" d="M182.48,240.97s26.08,30.97,14.76,37.65c-11.32,6.69-27.15-22.26-27.15-22.26l12.39-15.39Z"/>
          <path d="M179.87,243.58c.29.35.57.7.85,1.06.32.39.64.78.95,1.18.19.24.38.48.57.73.1.13.2.26.31.4-.78-1-.21-.27-.03-.04,2.35,3.06,4.58,6.21,6.67,9.46,1.18,1.84,2.3,3.72,3.35,5.65.49.9.96,1.82,1.4,2.74.22.46.43.91.63,1.36.09.19.42.99.01.01.12.3.24.59.35.89.66,1.69,1.19,3.42,1.46,5.22-.2-1.35-.02.01-.01.33.02.36.01.72,0,1.07-.06,1.18.15-.69-.03.19-.07.37-.18.73-.32,1.07.48-1.25.07-.23-.12.08-.45.71.65-.69-.11.11-.11.11-.23.21-.35.32-.5.43.77-.57.22-.19-.32.22-.68.4-1.03.57,1.11-.52-.11,0-.43.07-.27.06-1,.15.21,0-.19.02-.39.04-.58.05-.4.01-.79-.02-1.17-.06,1.33.14-.25-.11-.61-.21-.29-.08-1.63-.63-.51-.14-.41-.18-.81-.39-1.2-.61-.41-.22-.8-.47-1.2-.72-.2-.13-.4-.27-.59-.4-.17-.12-1.08-.81-.24-.16-1.73-1.34-3.29-2.89-4.76-4.5-.73-.8-1.43-1.63-2.11-2.47-.34-.42-.68-.84-1-1.26.59.76.04.04-.08-.1-.21-.27-.42-.55-.62-.84-1.18-1.59-2.3-3.23-3.38-4.9-1.07-1.65-2.12-3.34-3.07-5.07-.19,1.5-.39,2.99-.58,4.48,4.13-5.13,8.26-10.25,12.39-15.38,1.26-1.56,1.54-3.68,0-5.22-1.31-1.31-3.96-1.57-5.22,0-4.13,5.13-8.26,10.26-12.39,15.38-1.08,1.34-1.45,2.89-.58,4.48,3.07,5.59,6.84,10.95,11.06,15.72,5.41,6.11,15.25,13.61,22.96,6.5,3.04-2.8,3.17-7.18,2.47-10.95-.76-4.1-2.74-8.04-4.72-11.67-3.58-6.54-8.03-12.62-12.71-18.41-.29-.36-.58-.71-.87-1.06-1.3-1.54-3.89-1.33-5.22,0-1.52,1.51-1.3,3.69,0,5.22Z"/>
        </g>
        <g>
          <rect class="st1" x="178.86" y="260.08" width="18.49" height="6.48" transform="translate(-112.76 144.14) rotate(-32.85)"/>
          <path d="M181.86,272.16l-4.39-6.8,16.88-10.9,4.39,6.79-16.88,10.91ZM179.69,265.85l2.64,4.09,14.17-9.16-2.64-4.08-14.18,9.15Z"/>
        </g>
        <path class="st5" d="M190.46,257.76l-7.65,4.99-3.37-12.72,3.01-3.78s3.51,4.37,5.17,6.97c1.66,2.61,2.83,4.54,2.83,4.54Z"/>
        <path class="st7" d="M188.13,256.86s-1.17-1.93-2.83-4.54c-.95-1.49-2.51-3.55-3.66-5.05l.81-1.03s3.51,4.37,5.17,6.97c1.66,2.61,2.83,4.54,2.83,4.54l-7.65,4.99,5.32-5.89Z"/>
      </g>
      <g>
        <g>
          <path class="st0" d="M109.23,240.97s-26.08,30.97-14.76,37.65c11.31,6.69,27.15-22.26,27.15-22.26l-12.39-15.39Z"/>
          <path d="M106.61,238.36c-3.67,4.38-7.08,9.04-10.19,13.84-2.48,3.82-4.66,7.78-6.42,11.97-1.52,3.63-2.49,7.55-1.8,11.48.77,4.38,4.73,7.08,8.9,7.6,4.46.56,8.61-2.06,11.92-4.71,3.63-2.92,6.58-6.63,9.34-10.35,2.03-2.74,3.9-5.61,5.63-8.55.28-.47.55-.94.81-1.42.87-1.59.5-3.14-.58-4.48-4.13-5.13-8.26-10.26-12.39-15.38-1.26-1.57-3.91-1.31-5.23,0-1.53,1.54-1.26,3.66,0,5.22,4.13,5.13,8.26,10.25,12.39,15.38-.19-1.49-.39-2.98-.58-4.48-.95,1.73-2,3.41-3.07,5.07-1.08,1.68-2.2,3.31-3.39,4.9-.31.43-.62.84-.94,1.26.61-.8-.42.51-.59.73-.74.91-1.5,1.8-2.29,2.68-1.46,1.62-3.04,3.15-4.76,4.5.85-.67-.41.28-.63.43-.39.27-.79.51-1.19.74-.39.23-.79.43-1.2.62-.72.34.81-.32.08-.04-.26.1-.53.19-.79.27-.39.13-.79.21-1.19.29,1.28-.24-.04-.02-.4-.02-.19,0-.39-.01-.58-.03-.75-.05.95.16.21.03-.35-.06-1.78-.61-.63-.12-.36-.16-.7-.35-1.03-.57-.57-.36.73.6.22.19-.13-.11-.24-.21-.35-.32-.78-.77.35.59-.11-.11-.08-.12-.16-.26-.24-.4-.42-.78.27.74.06.17-.12-.3-.19-.62-.26-.93-.19-.87.06.99-.03-.19-.02-.35-.02-.71,0-1.07.01-.32.17-1.69,0-.33.24-1.8.81-3.54,1.45-5.22.09-.22.18-.45.27-.67.32-.8-.34.79,0-.01.19-.45.4-.91.62-1.36.47-1.01.98-1.99,1.51-2.97,1.04-1.93,2.17-3.81,3.35-5.65,2.08-3.26,4.33-6.4,6.67-9.46.71-.93-.36.45.17-.23.2-.25.39-.5.58-.74.34-.43.69-.86,1.03-1.29.29-.35.57-.71.86-1.06,1.3-1.54,1.52-3.71,0-5.22-1.33-1.33-3.93-1.54-5.23,0Z"/>
        </g>
        <g>
          <rect class="st1" x="100.37" y="254.08" width="6.47" height="18.48" transform="translate(-173.78 207.43) rotate(-57.13)"/>
          <path d="M109.85,272.16l-16.87-10.91,4.38-6.79,16.88,10.9-4.39,6.8ZM95.21,260.78l14.16,9.16,2.64-4.09-14.18-9.15-2.63,4.08Z"/>
        </g>
        <path class="st5" d="M101.25,257.76l7.64,4.99,3.37-12.72-3.01-3.78s-3.5,4.37-5.17,6.97c-1.66,2.61-2.83,4.54-2.83,4.54Z"/>
        <path class="st7" d="M103.58,256.86s1.17-1.93,2.84-4.54c.95-1.49,2.5-3.55,3.65-5.05l-.81-1.03s-3.5,4.37-5.17,6.97c-1.66,2.61-2.83,4.54-2.83,4.54l7.64,4.99-5.32-5.89Z"/>
      </g>
      <g>
        <path class="st1" d="M91.74,312.23c0,1.63,24.67,2.95,55.11,2.95s55.11-1.32,55.11-2.95-24.67-2.94-55.11-2.94-55.11,1.32-55.11,2.94Z"/>
        <path d="M146.85,316.39c-14.75,0-28.61-.31-39.03-.86-17.28-.92-17.28-1.97-17.28-3.29s0-2.36,17.28-3.28c10.43-.56,24.29-.87,39.03-.87s28.6.31,39.04.87c17.29.92,17.29,1.96,17.29,3.28s0,2.37-17.29,3.29c-10.43.56-24.29.86-39.04.86ZM96.55,312.25c7.81.93,26.13,1.72,50.3,1.72s42.5-.8,50.3-1.72c-7.52-.88-25.11-1.75-50.3-1.75s-42.77.87-50.3,1.75Z"/>
      </g>
      <g>
        <path class="st4" d="M174.24,247.54s10.43,57.75,3.34,60.23c-7.09,2.48-13.67-8.83-13.67-8.83,0,0-5.65,1.73-15.4,1.91-9.75.17-17.6-2.02-17.6-2.02,0,0-7.27,12.58-15.12,9.98-7.85-2.59,4.62-61.41,4.62-61.41l53.83.14Z"/>
        <path d="M170.68,248.52c.77,4.29,1.46,8.6,2.12,12.9.31,2,.6,3.99.88,6,.07.51.14,1.02.21,1.53.04.28.27,1.95.12.83.14,1.14.3,2.29.44,3.44.56,4.44,1.05,8.89,1.41,13.36.31,3.77.53,7.56.48,11.34-.02,1.48-.08,2.98-.25,4.46-.13,1.14.12-.75-.01.11-.04.28-.1.57-.16.85-.1.5-.23.98-.39,1.46-.31.88.4-.84.09-.2-.08.16-.17.32-.28.48-.17.25.8-.88.22-.31-.44.44.97-.62.33-.28-.45.25,1.4-.52.41-.2-.18.06-1.13.22-.14.1-.28.04-.56.04-.83.04-.22,0-1.1-.16-.12.01-.27-.05-.54-.13-.81-.2-.16-.05-1.03-.39-.16-.02-.52-.22-1.02-.52-1.5-.83-.24-.16-.48-.32-.72-.5.73.53-.05-.05-.16-.14-.45-.37-.86-.77-1.27-1.18-.76-.75-1.45-1.57-2.11-2.41.7.89-.18-.26-.34-.49-.19-.27-.38-.55-.57-.84-.17-.25-.33-.51-.48-.77-.82-1.4-2.59-2.18-4.17-1.7-1.23.37-2.51.61-3.77.84-.71.13-1.42.23-2.14.34.84-.12-.38.04-.44.05-.51.06-1.04.12-1.56.17-2.16.22-4.35.32-6.52.37-2.14.05-4.28-.04-6.41-.21-2.12-.16-3.26-.31-5.07-.61-1.73-.28-3.46-.61-5.15-1.07-1.59-.44-3.34.27-4.17,1.7-.54.93-1.16,1.8-1.79,2.67-.12.17-.64.81,0,.01-.16.2-.32.4-.48.59-.34.42-.7.83-1.07,1.23-.38.43-.79.83-1.2,1.22-.21.2-.42.4-.64.59-.13.12-1.12.91-.39.35-.46.36-.95.68-1.45.98-.24.15-.5.28-.76.41-.85.43.73-.27-.16.07-.52.21-1.06.34-1.61.43.98-.17.1-.04-.12-.04-.23,0-1.41-.17-.42,0-.74-.13-1.36-.53-.24.04-.66-.33.79.69.32.27-.61-.55.34.51.19.29-.13-.18-.24-.38-.34-.58-.32-.65.4,1.07.08.18-.08-.23-.15-.47-.21-.7-.16-.59-.26-1.2-.36-1.79.22,1.46.04.21,0-.13-.03-.34-.06-.68-.08-1.03-.05-.82-.08-1.63-.09-2.45-.05-3.86.25-7.73.62-11.57.22-2.19.47-4.38.75-6.56.07-.54.14-1.07.21-1.61-.14,1.09.09-.62.13-.89.16-1.16.33-2.33.5-3.49.63-4.22,1.34-8.44,2.09-12.64.85-4.79,1.75-9.55,2.75-14.31.01-.03.02-.06.03-.1-1.19.91-2.38,1.81-3.57,2.71,13.24.04,26.47.07,39.71.11,4.71,0,9.41.02,14.12.04,4.77.02,4.77-7.38,0-7.39-13.24-.04-26.48-.07-39.71-.11-4.71-.01-9.41-.02-14.12-.04-1.57,0-3.22,1.12-3.56,2.71-2.72,12.87-4.97,25.9-6.44,38.97-.46,4.02-.81,8.05-.9,12.09-.06,3.12,0,6.4.78,9.44.38,1.44,1.03,2.67,1.95,3.83,1.28,1.6,3.61,2.01,5.51,2.11,5.44.27,10.23-4.03,13.38-8,1.06-1.32,2.1-2.69,2.96-4.16-1.39.56-2.78,1.13-4.17,1.7,5.97,1.65,12.41,2.23,18.58,2.15,5.39-.07,11.18-.46,16.38-2.04-1.39-.57-2.78-1.13-4.17-1.7,1.97,3.37,4.67,6.37,7.82,8.64,3.84,2.77,10.17,3.72,13.2-.63,1.56-2.24,1.74-5.55,1.91-8.16.24-3.66.07-7.36-.17-11.01-.91-14.34-3.11-28.65-5.62-42.78-.02-.11-.04-.21-.06-.31-.36-1.99-2.74-3.08-4.54-2.59-2.07.57-2.94,2.57-2.58,4.55Z"/>
      </g>
      <g>
        <g>
          <polygon class="st6" points="121.79 246.85 146.52 246.85 146.73 246.85 171.46 246.85 182.18 282.09 146.73 282.09 146.52 282.09 111.07 282.09 121.79 246.85"/>
          <path d="M121.79,254.24h49.67c-2.38-1.81-4.76-3.62-7.13-5.43,3.56,11.72,7.13,23.44,10.69,35.16.01.03.02.06.03.08,2.37-3.11,4.75-6.23,7.12-9.35h-71.1c2.37,3.12,4.75,6.24,7.13,9.35,3.56-11.71,7.12-23.43,10.69-35.15.01-.03.02-.06.03-.09,1.17-3.86-1.35-8.05-5.16-9.09-3.96-1.09-7.92,1.3-9.09,5.16-3.56,11.72-7.13,23.44-10.69,35.16,0,.03-.02.06-.03.09-1.4,4.62,2.42,9.36,7.13,9.36h71.1c4.71,0,8.53-4.73,7.12-9.36-3.56-11.72-7.12-23.43-10.69-35.16,0-.02-.01-.06-.02-.09-.96-3.16-3.77-5.43-7.12-5.43h-49.67c-4.04,0-7.39,3.37-7.39,7.39s3.36,7.39,7.39,7.39Z"/>
        </g>
        <polygon class="st5" points="121.79 246.85 146.52 246.85 146.73 246.85 171.46 246.85 182.18 282.09 146.73 282.09 146.52 282.09 111.07 282.09 121.79 246.85"/>
        <polygon class="st2" points="146.52 279.04 146.73 279.04 181.25 279.04 182.18 282.09 146.73 282.09 146.52 282.09 111.07 282.09 112 279.04 146.52 279.04"/>
      </g>
      <rect class="st8" x="117.03" y="288.84" width="59.35" height="4.13"/>
      <g>
        <polygon class="st4" points="157.45 246.8 157.45 290.31 189.29 290.31 178.08 246.8 157.45 246.8"/>
        <path d="M154.76,246.8v43.52c0,1.47,1.23,2.69,2.69,2.69h31.84c1.77,0,3.02-1.71,2.59-3.4-3.34-12.95-6.67-25.9-10.01-38.86-.4-1.56-.8-3.11-1.2-4.66-.3-1.15-1.41-1.97-2.59-1.97h-20.63c-3.47,0-3.47,5.38,0,5.38h20.63c-.86-.66-1.73-1.32-2.59-1.97,3.33,12.95,6.67,25.9,10.01,38.86.4,1.56.8,3.11,1.2,4.66.86-1.14,1.73-2.27,2.6-3.41h-31.84c.89.89,1.79,1.8,2.68,2.69v-43.52c0-3.47-5.37-3.47-5.37,0Z"/>
      </g>
      <g>
        <polygon class="st4" points="157.82 239.9 184.47 236.85 188.98 242.52 157.85 266.17 157.82 239.9"/>
        <path d="M157.82,242.59c8.88-1.02,17.76-2.04,26.65-3.05-.64-.26-1.27-.53-1.9-.79,1.5,1.89,3.01,3.78,4.52,5.67.18-1.41.36-2.82.55-4.22-10.16,7.72-20.32,15.44-30.48,23.15-.22.16-.44.33-.66.5,1.35.77,2.7,1.55,4.05,2.32,0-8.76-.02-17.51-.03-26.27,0-3.46-5.37-3.46-5.37,0,0,8.76.01,17.52.03,26.27,0,1.85,2.36,3.6,4.05,2.32,10.15-7.71,20.31-15.43,30.47-23.15.22-.17.44-.33.66-.5,1.48-1.12,1.71-2.76.55-4.22-.95-1.18-1.89-2.37-2.84-3.55-.88-1.1-1.97-3.09-3.64-2.9-2.53.29-5.05.58-7.58.87-6.34.72-12.68,1.45-19.02,2.18-1.45.17-2.69,1.1-2.69,2.68,0,1.34,1.23,2.86,2.69,2.69Z"/>
      </g>
      <g>
        <polygon class="st4" points="136.62 246.8 136.62 290.31 104.77 290.31 115.98 246.8 136.62 246.8"/>
        <path d="M133.93,246.8v43.52c.89-.89,1.79-1.79,2.69-2.69h-31.85c.87,1.14,1.73,2.27,2.59,3.41,3.34-12.96,6.67-25.91,10-38.86.4-1.55.8-3.11,1.2-4.66-.86.66-1.73,1.32-2.59,1.97h20.64c3.47,0,3.47-5.38,0-5.38h-20.64c-1.18,0-2.29.81-2.59,1.97-3.34,12.96-6.67,25.91-10.01,38.86-.4,1.56-.8,3.11-1.2,4.66-.43,1.69.83,3.4,2.59,3.4h31.85c1.46,0,2.68-1.22,2.68-2.69v-43.52c0-3.47-5.37-3.47-5.37,0Z"/>
      </g>
      <g>
        <polygon class="st4" points="136.25 239.9 109.6 236.85 105.08 242.52 136.23 266.17 136.25 239.9"/>
        <path d="M136.25,237.21c-6.34-.73-12.68-1.45-19.02-2.18-2.51-.29-5.02-.58-7.54-.87-1.66-.19-2.64,1.61-3.52,2.7-.99,1.25-1.99,2.5-2.99,3.75-1.17,1.46-.94,3.1.54,4.22,10.16,7.71,20.32,15.43,30.48,23.14.22.17.44.33.66.5,1.69,1.28,4.04-.47,4.04-2.32.01-8.76.02-17.51.03-26.27,0-3.46-5.37-3.46-5.37,0-.01,8.76-.02,17.52-.03,26.27,1.35-.77,2.7-1.55,4.05-2.32-10.16-7.72-20.32-15.43-30.48-23.15-.22-.16-.44-.33-.66-.5.18,1.41.36,2.82.54,4.22,1.51-1.89,3.01-3.78,4.52-5.67-.63.26-1.26.53-1.9.79,8.88,1.02,17.76,2.03,26.65,3.05,1.46.17,2.68-1.35,2.68-2.69,0-1.59-1.23-2.52-2.68-2.68Z"/>
      </g>
      <polygon class="st8" points="177.33 254.71 160.18 267.79 160.18 272.71 178.43 258.82 177.33 254.71"/>
      <polygon class="st8" points="116.8 254.71 133.95 267.79 133.95 272.71 115.7 258.82 116.8 254.71"/>
    </g>
    <g>
      <g>
        <path class="st6" d="M57.41,83.84c-.32,12.92,0,89.33,0,89.33,0,34.72,19.46,66.9,91.96,66.6,71.75-.29,88.74-31.88,88.74-66.6v-89.33H57.41Z"/>
        <path d="M48,83.84c-.38,15.17-.16,30.38-.13,45.57.03,14.29.07,28.59.13,42.89.06,14.89,3.03,30.08,11.61,42.53,5.57,8.08,12.8,14.68,21.23,19.7,9.7,5.77,20.74,9.35,31.77,11.49,14.85,2.87,30.11,3.59,45.2,2.98,13.44-.54,27.14-2.21,39.98-6.36,10.32-3.33,19.91-8.27,28.14-15.37,6.34-5.46,11.56-12.54,14.92-20.21,3.69-8.42,5.63-17.05,6.37-26.21.32-4.01.29-8.04.29-12.06v-84.93c0-5.13-4.28-9.41-9.4-9.41H57.41c-5.13,0-9.4,4.28-9.4,9.41s4.27,9.4,9.4,9.4h180.7c-3.13-3.13-6.28-6.27-9.41-9.4v80.18c0,7.06.17,14.13-.75,21.15.11-.84.22-1.67.34-2.5-.77,5.66-2.15,11.23-4.36,16.51.31-.75.63-1.49.94-2.24-1.74,4.1-3.97,7.97-6.69,11.5.5-.63.98-1.27,1.47-1.9-2.71,3.49-5.86,6.6-9.35,9.32.64-.49,1.27-.97,1.91-1.47-4.5,3.47-9.47,6.23-14.69,8.46.75-.32,1.5-.63,2.25-.95-8.91,3.76-18.4,5.92-27.95,7.22.83-.12,1.67-.22,2.5-.34-16.89,2.25-34.37,2.28-51.26.05.83.11,1.66.22,2.5.33-9.73-1.3-19.39-3.51-28.47-7.31.75.32,1.5.63,2.25.95-5.46-2.31-10.67-5.2-15.38-8.81.64.5,1.27.98,1.9,1.47-3.66-2.84-6.98-6.1-9.83-9.76.49.63.98,1.27,1.47,1.9-2.8-3.63-5.1-7.6-6.9-11.81.32.75.63,1.5.95,2.24-2.2-5.22-3.6-10.72-4.36-16.33.11.83.23,1.66.34,2.5-.62-4.71-.7-9.43-.72-14.16-.03-6.52-.04-13.06-.07-19.59-.05-18.22-.11-36.45-.04-54.67.02-3.98.02-7.96.12-11.93.12-5.13-4.37-9.41-9.41-9.41s-9.28,4.28-9.4,9.41Z"/>
      </g>
      <path class="st0" d="M57.41,83.84c-.32,12.92,0,89.33,0,89.33,0,34.72,19.46,66.9,91.96,66.6,71.75-.29,88.74-31.88,88.74-66.6v-89.33H57.41Z"/>
    </g>
    <path class="st4" d="M148.88,24.9c9.1,1.41,15.93,6.02,15.26,10.29-.66,4.27-8.57,6.59-17.66,5.18-9.09-1.41-15.92-6.01-15.27-10.29.67-4.27,8.58-6.59,17.67-5.18Z"/>
    <path class="st4" d="M151.24,37.9c0,1.96-1.6,3.56-3.56,3.56s-3.56-1.59-3.56-3.56,1.59-3.57,3.56-3.57,3.56,1.59,3.56,3.57Z"/>
    <path class="st1" d="M278.92,158.43s23.14-18.57,14.52-41.16c-8.6-22.6-25.56-23.13-25.56-23.13,0,0,11.57-9.59,4.04-26.64-7.53-17.04-36.31-16.14-36.31-16.14,0,0-.21-22.48-22.6-30.66-32.88-12.03-62.26,2.75-65.31,4.37t-.01,0h0s0,.01,0,.01h0s0-.01,0,0c-3.06-1.62-32.44-16.39-65.32-4.37-22.38,8.18-22.59,30.66-22.59,30.66,0,0-28.78-.89-36.32,16.14-7.53,17.04,4.04,26.64,4.04,26.64,0,0-16.94.54-25.56,23.13-8.61,22.59,14.52,41.16,14.52,41.16,0,0-12.48,4.77-11.95,17.95.54,13.19,25.35,13.86,25.35,13.86,0,0,27.35-39.47,27.39-39.65.59-2.27-2.35-16.99,19.22-26.56,20.58-9.12,67.97-20.1,71.21-34.85,0,.02,0,.04,0,.05v-.11s0,.01,0,.02v.09s0-.04.01-.05c3.23,14.74,50.63,25.72,71.21,34.85,21.57,9.57,18.63,24.29,19.22,26.56.05.18,27.39,39.65,27.39,39.65,0,0,24.81-.67,25.35-13.86.54-13.19-11.95-17.95-11.95-17.95Z"/>
    <path class="st9" d="M218.84,119.99c-20.58-9.13-67.97-20.1-71.21-34.84,0,.02,0,.03-.01.05v-.1h0s0,0,0,0v.1s0-.03,0-.05c-3.24,14.74-50.63,25.71-71.21,34.84-20.03,8.88-18.92,22.21-19.13,25.89.01,3.91.03,7.53.04,10.7.12-4.67.57-16.68,19.1-24.9,20.58-9.12,67.98-20.1,71.21-34.85,0,.02,0,.04,0,.05v-.09s0,0,0-.01h0v.1s0-.03.01-.05c3.24,14.74,50.62,25.72,71.21,34.85,21.34,9.46,18.7,23.96,19.2,26.48v-11.69c-.5-2.52,2.14-17.02-19.2-26.48Z"/>
    <g>
      <path class="st4" d="M51.35,125.92s32.25-50.38,96.74-50.38,95.93,50.38,95.93,50.38c0,0-18.95-60.43-95.93-60.43s-96.74,60.43-96.74,60.43Z"/>
      <path class="st4" d="M245.35,128.81l-1.67-2.67c-.31-.5-32.07-50.2-95.59-50.2s-96.08,49.7-96.4,50.2l-1.7,2.66.98-3c.05-.15,5.13-15.37,19.59-30.37,13.34-13.84,37.62-30.34,77.53-30.34s63.97,16.5,77.13,30.34c14.26,15,19.14,30.22,19.19,30.37l.94,3.01ZM148.09,65.9c-39.61,0-63.7,16.35-76.92,30.06-10.51,10.9-16.03,21.9-18.24,27.06,7.85-10.46,39.85-47.89,95.17-47.89s86.7,37.41,94.4,47.88c-2.15-5.16-7.52-16.16-17.88-27.06-13.05-13.71-36.91-30.06-76.52-30.06Z"/>
    </g>
    <g>
      <path class="st8" d="M148.09,71.91c-51.05,0-81.89,31.56-92.54,44.73-2.99,5.58-4.2,9.28-4.2,9.28,0,0,32.25-50.38,96.74-50.38s95.93,50.38,95.93,50.38c0,0-1.14-3.65-4.02-9.16-10.34-13.09-40.7-44.85-91.92-44.85Z"/>
      <path class="st4" d="M245.35,128.81l-1.67-2.67c-.31-.5-32.07-50.2-95.59-50.2s-96.08,49.7-96.4,50.2l-1.71,2.67.99-3.01s1.26-3.8,4.23-9.35c10.96-13.56,41.85-44.94,92.89-44.94s81.54,31.47,92.23,45c2.9,5.54,4.08,9.25,4.09,9.29l.94,3.01ZM148.09,72.31c-50.69,0-81.38,31.18-92.23,44.58-1.32,2.47-2.29,4.58-2.96,6.16,7.82-10.42,39.82-47.92,95.19-47.92s86.74,37.46,94.41,47.9c-.64-1.55-1.58-3.64-2.85-6.09-10.58-13.38-40.75-44.64-91.56-44.64Z"/>
    </g>
    <g>
      <g>
        <path class="st6" d="M233.27,42.38s-31.56-33.05-85-33.05c-.2,0-.39,0-.59,0-.19,0-.38,0-.58,0-53.44,0-85,33.05-85,33.05l36.75,39.84s19.3-12.81,48.83-12.82c29.54,0,48.84,12.82,48.84,12.82l36.75-39.84Z"/>
        <path d="M239.92,35.74c-2.27-2.38-4.88-4.5-7.46-6.53-7.23-5.67-14.87-10.67-23.11-14.77-11.34-5.66-23.43-9.86-35.9-12.14-15.5-2.85-31.09-2.96-46.67-.79-12.97,1.81-25.44,5.83-37.32,11.28-8.1,3.72-15.82,8.29-22.94,13.65-3.82,2.88-7.75,5.84-11.07,9.31-3.65,3.81-3.53,9.47,0,13.29,8.96,9.72,17.93,19.44,26.89,29.16,3.28,3.56,6.57,7.12,9.85,10.69,2.74,2.96,8,3.72,11.4,1.47,3.07-2.03,6.51-3.6,9.89-5.03-.75.31-1.5.63-2.25.95,8.15-3.43,16.75-5.71,25.51-6.9-.83.11-1.67.23-2.51.34,8.92-1.17,17.96-1.17,26.88,0-.83-.11-1.67-.23-2.51-.34,8.77,1.18,17.37,3.47,25.51,6.9-.75-.32-1.5-.63-2.25-.95,3.38,1.43,6.82,3,9.89,5.03,3.39,2.25,8.67,1.5,11.4-1.47,8.97-9.73,17.92-19.45,26.89-29.16,3.28-3.56,6.57-7.12,9.85-10.69,3.47-3.76,3.73-9.57,0-13.29-3.52-3.52-9.83-3.78-13.3,0-8.97,9.71-17.93,19.44-26.89,29.16-3.29,3.56-6.57,7.12-9.85,10.68,3.8-.48,7.6-.98,11.4-1.47-5.52-3.65-12.04-6.17-18.26-8.31-13.94-4.81-29.18-6.64-43.88-5.43-10.92.9-21.73,3.21-31.89,7.35-4.47,1.82-9.11,3.72-13.15,6.4,3.8.49,7.6.99,11.4,1.47-8.96-9.72-17.93-19.44-26.9-29.16-3.29-3.56-6.57-7.12-9.85-10.67v13.29c2.44-2.56,5.26-4.82,8.06-6.98-.63.49-1.27.98-1.9,1.47,8.47-6.54,17.83-11.91,27.67-16.09-.74.32-1.5.63-2.25.95,10.32-4.35,21.17-7.34,32.28-8.85-.83.11-1.67.23-2.5.34,11.64-1.54,23.52-1.54,35.16,0-.84-.11-1.67-.23-2.5-.34,11.1,1.51,21.95,4.5,32.27,8.85-.75-.32-1.5-.63-2.25-.95,9.84,4.19,19.2,9.56,27.68,16.09-.64-.49-1.27-.98-1.91-1.47,2.8,2.16,5.62,4.42,8.06,6.98,3.54,3.71,9.74,3.56,13.3,0,3.69-3.68,3.54-9.59,0-13.29Z"/>
      </g>
      <g>
        <path class="st4" d="M233.27,42.38s-31.56-33.05-85-33.05c-.2,0-.39,0-.59,0-.19,0-.38,0-.58,0-53.44,0-85,33.05-85,33.05l36.75,39.84s19.3-12.81,48.83-12.82c29.54,0,48.84,12.82,48.84,12.82l36.75-39.84Z"/>
        <path class="st4" d="M196.59,82.75l-.28-.19c-.2-.13-19.56-12.75-48.62-12.76-29.06,0-48.42,12.63-48.61,12.76l-.29.19-.23-.25-37.01-40.12.26-.27c.32-.33,32.29-33.18,85.29-33.18h.59s.59,0,.59,0c53,0,84.97,32.85,85.29,33.18l.26.27-.25.28-36.98,40.1ZM147.68,69c27.38,0,46.24,11.13,48.78,12.71l36.26-39.32c-3.18-3.14-34.35-32.66-84.44-32.66h-.58s-.59,0-.59,0c-50.09,0-81.27,29.52-84.44,32.66l36.26,39.32c2.53-1.58,21.39-12.7,48.76-12.71Z"/>
      </g>
      <g>
        <path class="st8" d="M229.56,38.95l-33.04,35.82s-19.3-12.82-48.84-12.82c-29.53,0-48.83,12.82-48.83,12.82l-33.03-35.82c-2.45,2.11-3.72,3.44-3.72,3.44l36.75,39.84s19.3-12.81,48.83-12.82c29.54,0,48.84,12.82,48.84,12.82l36.75-39.84s-1.27-1.32-3.71-3.44Z"/>
        <path class="st4" d="M98.78,82.75l-.23-.25-37.01-40.12.27-.27c.05-.05,1.3-1.36,3.74-3.46l.29-.25.26.29,32.81,35.58c2.53-1.58,21.39-12.7,48.76-12.71,27.38,0,46.24,11.12,48.78,12.71l33.07-35.86.3.25c2.42,2.1,3.68,3.41,3.73,3.46l.26.27-37.24,40.38-.28-.19c-.2-.13-19.56-12.75-48.62-12.76-29.07,0-48.42,12.63-48.61,12.76l-.29.19ZM147.68,69c27.38,0,46.24,11.13,48.78,12.71l36.26-39.32c-.46-.46-1.52-1.48-3.12-2.88l-33,35.79-.28-.19c-.2-.13-19.56-12.75-48.62-12.76-29.06,0-48.42,12.63-48.61,12.76l-.29.19-.23-.25-32.77-35.53c-1.61,1.4-2.67,2.42-3.13,2.88l36.26,39.32c2.53-1.58,21.39-12.7,48.76-12.71Z"/>
      </g>
    </g>
    <g>
      <g>
        <g>
          <path class="st6" d="M167.39,39.2c0,10.87-8.81,19.68-19.68,19.68s-19.68-8.81-19.68-19.68,8.81-19.68,19.68-19.68,19.68,8.81,19.68,19.68Z"/>
          <path d="M160.67,39.2c-.01.75-.05,1.5-.13,2.25.25-2.39-.07.14-.21.73-.17.7-.39,1.38-.64,2.07-.46,1.28.69-1.52.14-.28-.19.43-.41.85-.63,1.27-.34.62-.72,1.21-1.12,1.8-.26.38-1.09,1.4.21-.24-.23.28-.45.54-.69.81-.47.53-.98,1.02-1.49,1.48-.26.24-.54.46-.81.69,1.69-1.38.36-.29-.05,0-.59.4-1.2.75-1.82,1.08-.32.17-.64.32-.96.47-1.23.58,1.54-.61.28-.13-.67.26-1.37.46-2.06.64-.35.09-.71.16-1.07.23-1.82.36,1.18-.11-.04.02-.74.07-1.5.09-2.25.08-.59,0-3.21-.32-.81.02-.73-.1-1.44-.27-2.14-.45-.59-.16-3.28-1.19-1.1-.27-1.31-.55-2.53-1.28-3.69-2.1-1.09-.77,1.28,1.04.25.19-.27-.22-.53-.46-.8-.69-.6-.56-1.15-1.16-1.69-1.79-.86-1.01.98,1.33.19.25-.21-.28-.4-.58-.59-.87-.39-.59-.73-1.21-1.05-1.84-.16-.32-.3-.64-.45-.97.85,1.92.31.72.16.28-.29-.8-.49-1.62-.68-2.44-.08-.36-.14-.73-.2-1.09.35,2.14.12.81.07.32-.06-.76-.06-1.51-.04-2.26,0-.38.04-.74.07-1.12.12-1.4-.27,1.7-.04.33.14-.84.35-1.67.59-2.48.1-.35.23-.68.35-1.02.46-1.28-.68,1.52-.13.29.29-.65.63-1.28.99-1.89.35-.61.75-1.19,1.17-1.76-1.37,1.87.36-.32.79-.76.42-.43,2.61-2.21.76-.79.75-.57,1.55-1.07,2.37-1.53.31-.17.63-.33.95-.48,1.62-.79-1.06.4.04-.02.9-.34,1.83-.59,2.77-.8.35-.08.72-.13,1.08-.2-2.26.36-.46.08.06.05,1-.07,2.01-.03,3,.05,1.4.12-1.7-.27-.32-.04.48.07.96.18,1.43.29.47.11.93.25,1.39.4.47.15,2.13.83.07-.04.77.32,1.5.71,2.21,1.13.41.24.8.5,1.19.77,1.48,1-.85-.72.04.01.64.53,1.22,1.1,1.79,1.69.32.34.62.7.92,1.07-1.39-1.69-.29-.36-.01.06.46.68.87,1.4,1.25,2.14.23.45.87,2.08.05.02.17.44.33.9.47,1.36.26.81.44,1.64.59,2.48.22,1.18-.17-1.82-.01.05.04.5.05,1,.06,1.5.03,3.66,3.03,6.72,6.71,6.72s6.75-3.06,6.73-6.72c-.07-7.41-3.18-14.7-8.76-19.63-6.14-5.42-14-7.5-22.04-6.36-7.35,1.05-13.66,5.63-17.77,11.67-4.22,6.18-5.21,14.44-3.23,21.57,1.73,6.19,5.81,11.33,11.07,14.92,5.48,3.74,12.28,4.73,18.72,3.82,12.64-1.79,21.89-13.48,22.01-25.99.03-3.66-3.09-6.72-6.73-6.72s-6.68,3.06-6.71,6.72Z"/>
        </g>
        <path class="st5" d="M167.39,39.2c0,10.87-8.81,19.68-19.68,19.68s-19.68-8.81-19.68-19.68,8.81-19.68,19.68-19.68,19.68,8.81,19.68,19.68Z"/>
        <path class="st7" d="M129.5,39.2c0-10.63,8.41-19.28,18.94-19.67-.24,0-.48-.01-.73-.01-10.87,0-19.68,8.81-19.68,19.68s8.81,19.68,19.68,19.68c.25,0,.49,0,.73,0-10.53-.39-18.94-9.05-18.94-19.67Z"/>
        <path class="st2" d="M165.93,39.2c0-10.63-8.42-19.28-18.95-19.67.24,0,.48-.01.73-.01,10.87,0,19.68,8.81,19.68,19.68s-8.81,19.68-19.68,19.68c-.25,0-.49,0-.73,0,10.53-.39,18.95-9.05,18.95-19.67Z"/>
      </g>
      <g>
        <g>
          <polygon class="st6" points="158.27 35.51 151.4 35.51 151.4 28.65 144.01 28.65 144.01 35.51 137.16 35.51 137.16 42.9 144.01 42.9 144.01 49.76 151.4 49.76 151.4 42.9 158.27 42.9 158.27 35.51"/>
          <path d="M158.27,31.47h-6.86c1.35,1.35,2.69,2.69,4.03,4.04v-6.86c0-2.2-1.83-4.04-4.03-4.04h-7.39c-2.19,0-4.03,1.84-4.03,4.04v6.86c1.35-1.35,2.69-2.69,4.03-4.04h-6.86c-2.2,0-4.04,1.84-4.04,4.04v7.39c0,2.19,1.84,4.03,4.04,4.03h6.86c-1.35-1.35-2.68-2.68-4.03-4.03v6.86c0,2.2,1.84,4.04,4.03,4.04h7.39c2.2,0,4.03-1.84,4.03-4.04v-6.86c-1.34,1.35-2.69,2.68-4.03,4.03h6.86c2.2,0,4.03-1.84,4.03-4.03v-7.39c0-5.2-8.06-5.2-8.06,0v7.39c1.34-1.35,2.68-2.69,4.03-4.03h-6.86c-2.2,0-4.03,1.84-4.03,4.03v6.86c1.34-1.34,2.69-2.68,4.03-4.03h-7.39c1.35,1.35,2.69,2.69,4.03,4.03v-6.86c0-2.19-1.83-4.03-4.03-4.03h-6.86c1.34,1.34,2.69,2.68,4.03,4.03v-7.39c-1.34,1.34-2.68,2.69-4.03,4.03h6.86c2.2,0,4.03-1.83,4.03-4.03v-6.86c-1.34,1.35-2.69,2.69-4.03,4.03h7.39c-1.34-1.34-2.69-2.68-4.03-4.03v6.86c0,2.2,1.83,4.03,4.03,4.03h6.86c5.2,0,5.2-8.06,0-8.06Z"/>
        </g>
        <polygon class="st4" points="158.27 35.51 151.4 35.51 151.4 28.65 144.01 28.65 144.01 35.51 137.16 35.51 137.16 42.9 144.01 42.9 144.01 49.76 151.4 49.76 151.4 42.9 158.27 42.9 158.27 35.51"/>
        <g>
          <rect class="st8" x="144.01" y="28.65" width="1.05" height="6.86"/>
          <rect class="st8" x="144.01" y="42.9" width="1.05" height="6.86"/>
          <rect class="st8" x="137.16" y="35.51" width="1.05" height="7.39"/>
        </g>
      </g>
    </g>
  </g>
  <g>
    <path class="st3" d="M202.4,187.44c-.57,2.57,3.74,5.71,9.64,7,5.89,1.3,11.12.27,11.68-2.3.57-2.57-3.75-5.7-9.64-7-5.89-1.3-11.12-.27-11.68,2.3Z"/>
    <path class="st3" d="M93.59,187.44c.56,2.57-3.75,5.71-9.65,7-5.89,1.3-11.12.27-11.69-2.3-.57-2.57,3.75-5.7,9.64-7,5.89-1.3,11.12-.27,11.69,2.3Z"/>
    <g>
      <g>
        <g>
          <path d="M184.98,175.99s3.94-5.2,12.78-5.2,12.82,5.2,12.82,5.2c0,0,1.99-15.1-12.82-15.1s-12.78,15.1-12.78,15.1Z"/>
          <path d="M185.79,176.45c-.28.38-.04.06.03-.01.17-.2.35-.38.53-.55.66-.65,1.4-1.2,2.18-1.69,2.76-1.74,6-2.44,9.23-2.47,4.23-.04,9.43,1.41,12.16,4.92.58.74,1.51.02,1.61-.66.71-5.48-1.41-11.72-6.45-14.43-4.29-2.31-10.32-2.18-14.63,0-3.33,1.69-5.33,5.05-6.09,8.61-.4,1.87-.57,3.91-.32,5.82.16,1.18,2.04,1.2,1.88,0-.76-5.71,1.66-11.89,7.53-13.61,4.56-1.34,10.39-.6,13.6,3.15,1.99,2.33,2.66,5.62,2.68,8.61,0,.61-.01,1.24-.09,1.85.54-.22,1.07-.45,1.61-.67-3.05-3.92-8.79-5.43-13.49-5.47-4.81-.04-10.54,1.69-13.6,5.66-.74.96.9,1.9,1.62.95Z"/>
        </g>
        <path d="M208.03,165.1s2.02.04,4.95-1.32c2.93-1.36,5.05-4.85,5.05-4.85,0,0,1.21,4.75-2.48,7.53-2.7,2.03-5.82,2.47-5.82,2.47l-1.71-3.84Z"/>
        <path d="M210.81,170.11s1.71.32,4.42.31c2.71-.02,5.55-1.94,5.55-1.94,0,0-.63,4.05-4.62,4.95-2.76.62-5.24.18-5.24.18l-.1-3.5Z"/>
      </g>
      <g>
        <g>
          <path d="M112.37,175.99s-3.94-5.2-12.78-5.2-12.82,5.2-12.82,5.2c0,0-1.99-15.1,12.82-15.1s12.78,15.1,12.78,15.1Z"/>
          <path d="M113.19,175.51c-3-3.9-8.43-5.51-13.14-5.66-4.8-.15-10.84,1.47-13.94,5.47.53.22,1.07.45,1.6.67-.74-5.71,1.71-11.89,7.57-13.61,4.55-1.34,10.39-.61,13.59,3.15,1.99,2.33,2.64,5.63,2.66,8.61,0,.61-.01,1.24-.1,1.85-.16,1.2,1.72,1.18,1.88,0,.72-5.47-1.37-11.72-6.41-14.43-4.29-2.31-10.33-2.18-14.63,0-3.33,1.69-5.34,5.05-6.11,8.61-.4,1.87-.58,3.91-.33,5.82.09.69,1.03,1.4,1.6.66,2.66-3.43,7.59-4.8,11.7-4.92,3.3-.1,6.61.66,9.46,2.34.83.48,1.6,1.06,2.3,1.72.2.19.39.39.58.59.07.09.37.47.07.08.73.95,2.37.02,1.62-.95Z"/>
        </g>
        <path d="M89.33,165.1s-2.02.04-4.96-1.32c-2.93-1.36-5.05-4.85-5.05-4.85,0,0-1.21,4.75,2.48,7.53,2.7,2.03,5.81,2.47,5.81,2.47l1.72-3.84Z"/>
        <path d="M86.56,170.11s-1.72.32-4.43.31c-2.71-.02-5.55-1.94-5.55-1.94,0,0,.64,4.05,4.62,4.95,2.77.62,5.25.18,5.25.18l.1-3.5Z"/>
      </g>
    </g>
    <path d="M157.35,198.17c0,.08-.01.17-.02.25.14-1.25,0-.14-.08.17-.09.36-.21.7-.34,1.04.31-.8.01-.07-.08.09-.14.27-.3.53-.47.77-.41.62.13-.12-.19.24-.18.22-.38.41-.59.62-.11.1-.22.2-.34.29.24-.17.24-.17-.02,0-.35.25-.71.46-1.09.65-.47.26-.31.16-.65.28-.39.14-.79.25-1.19.35-.98.25-1.96.32-2.97.35-1.96.04-3.85-.23-5.68-.95-.98-.38-1.72-.96-2.56-1.92-.32-.36.26.4-.16-.22-.13-.19-.25-.39-.37-.6-.1-.18-.2-.38-.29-.56-.14-.3.22.59-.04-.12-.16-.43-.36-1.93-.21-.51-.16-1.46-1.1-2.7-2.69-2.7-1.34,0-2.85,1.24-2.69,2.7,1.51,13.73,27.4,13.98,28.1-.23.17-3.47-5.21-3.45-5.38,0h0Z"/>
  </g>
</svg>