<?xml version="1.0" encoding="UTF-8"?>
<svg id="Layer_1" xmlns="http://www.w3.org/2000/svg" version="1.1" viewBox="0 0 229.69 309.83">
  <!-- Generator: Adobe Illustrator 29.6.1, SVG Export Plug-In . SVG Version: 2.1.1 Build 9)  -->
  <defs>
    <style>
      .st0 {
        fill: #ffd7c3;
      }

      .st1, .st2 {
        fill-rule: evenodd;
      }

      .st1, .st3 {
        fill: #fff;
      }

      .st4, .st2 {
        fill: #000002;
      }

      .st5 {
        fill: #125693;
      }

      .st6 {
        fill: #fff3ee;
      }

      .st7 {
        fill: #f38b9e;
      }

      .st8 {
        fill: #6f2a0e;
      }

      .st9 {
        fill: #f6ba1b;
      }

      .st10 {
        fill: #e88311;
      }

      .st11 {
        fill: #fde5d2;
      }

      .st12 {
        fill: #ffc0a4;
      }

      .st13 {
        fill: #2e74bc;
      }

      .st14 {
        fill: #caebff;
      }

      .st15 {
        fill: #fde500;
      }
    </style>
  </defs>
  <g>
    <g>
      <g>
        <path class="st11" d="M178.82,268.07c-2.46-2.05-5.9-3.76-10.56-3.76h-.01c-4.65,0-8.1,1.71-10.55,3.76-3.66,3.05-5.13,6.85-5.13,6.85l.66,1.04s4.22-10.35,15.01-10.18h.03c10.79-.17,15.02,10.18,15.02,10.18l.66-1.04s-1.46-3.79-5.13-6.85Z"/>
        <path d="M182.48,264.41c-3.54-2.89-7.43-4.63-11.99-5.14-4.14-.47-8.2.39-11.97,2.12-3.72,1.71-6.74,4.87-8.97,8.23-.54.81-1.02,1.67-1.4,2.58-.74,1.75-1.19,3.52-.04,5.32.22.35.44.69.66,1.03.99,1.56,2.58,2.56,4.46,2.56,2.51,0,4.09-1.62,4.98-3.79-1.06,2.57-.1.34.25-.28.29-.5.61-1,.95-1.48.24-.35,1.1-1.43-.05.03.29-.36.59-.71.91-1.05.57-.62,1.2-1.2,1.85-1.74-1.35,1.11-.07.07.28-.16.4-.27.81-.5,1.24-.72.17-.09.35-.19.53-.27.98-.48-1.17.45-.13.05.48-.19.99-.34,1.5-.47.36-.1,2.22-.4.58-.19.71-.1,1.43-.11,2.14-.1-1.73-1.72-3.44-3.45-5.17-5.17h0c0,2.69,2.36,5.33,5.17,5.17h.03c2.81.14,5.17-2.47,5.17-5.17h0c-1.73,1.72-3.44,3.45-5.17,5.17.6,0,1.2.01,1.8.06.58.06.46.04-.36-.05.33.05.65.12.97.2.51.12,1.02.27,1.52.44.2.08.39.14.57.22-1.43-.56-.46-.18-.14-.03.84.42,1.63.93,2.38,1.49-1.39-1.04-.12-.07.18.21.37.33.72.69,1.06,1.05.27.28.52.58.77.88.32.4.19.23-.4-.53.13.17.25.34.37.51.35.48.68.99.98,1.51.38.63,1.4,3.01.33.42.72,1.73,1.71,3.08,3.61,3.61,2.31.63,4.58-.41,5.84-2.38.94-1.47,1.89-3.21,1.18-5.01-.31-.77-.63-1.54-1-2.27-1.32-2.59-3.26-4.98-5.45-6.87-2.14-1.83-5.21-2.11-7.31,0-1.88,1.87-2.14,5.48,0,7.31.77.66,1.48,1.36,2.15,2.13.17.19.96,1.25.14.16.26.35.51.73.75,1.11.32.5.61,1.03.88,1.56.39.76.46,1.12-.13-.39.17-1.32.35-2.65.52-3.98-.22.35-.44.69-.66,1.03,3.16.41,6.3.82,9.45,1.23-3.35-8.13-11-14.02-20-13.98-2.82.02-5.17,2.34-5.17,5.18h0c1.73-1.72,3.45-3.45,5.17-5.18h-.03c1.73,1.73,3.45,3.46,5.17,5.18h0c0-2.83-2.35-5.16-5.17-5.18-9-.04-16.64,5.85-20,13.98,3.15-.41,6.3-.82,9.45-1.23-.22-.34-.44-.69-.66-1.03.17,1.33.35,2.65.52,3.98-.82,2.09-.27.66.06,0,.21-.4.45-.79.69-1.18.17-.28.36-.55.55-.82.7-1.01-.73.89.09-.14.43-.54.91-1.03,1.4-1.53.32-.31.66-.61,1-.9.88-.74-.96.7,0,0,.47-.33.95-.62,1.45-.91.31-.18.63-.33.95-.49,1.14-.55-1.07.4.14-.05.61-.23,1.24-.4,1.88-.55.27-.06.54-.12.8-.16,1.39-.27-1.12.1.34-.03.45-.04.91-.05,1.37-.05.33,0,.59,0,.92.02.2,0,1.68.17.36-.01.68.1,1.33.25,1.99.43.38.1.74.22,1.11.36,1.22.42-1.01-.47.13.05.54.24,1.05.54,1.55.84.3.18.58.37.85.56.97.68-.9-.73,0,0,2.18,1.78,5.17,2.14,7.31,0,1.84-1.85,2.18-5.52,0-7.31Z"/>
      </g>
      <path class="st9" d="M178.82,268.07c-2.46-2.05-5.9-3.76-10.56-3.76h-.01c-4.65,0-8.1,1.71-10.55,3.76-3.66,3.05-5.13,6.85-5.13,6.85l.66,1.04s4.22-10.35,15.01-10.18h.03c10.79-.17,15.02,10.18,15.02,10.18l.66-1.04s-1.46-3.79-5.13-6.85Z"/>
    </g>
    <g>
      <g>
        <g>
          <path class="st11" d="M181.55,284.63h-23.64l2.63,16.53s2.41,1.45,9.18,1.45,9.19-1.45,9.19-1.45l2.64-16.53Z"/>
          <path d="M181.55,279.46h-23.64c-1.37,0-2.69.54-3.65,1.51-1.41,1.41-1.63,3.15-1.33,5.03.46,2.84.91,5.67,1.36,8.51.3,1.91.61,3.81.91,5.71.27,1.72.33,3.23,1.69,4.58,1.27,1.27,3.2,1.81,4.9,2.19,3.46.77,7.11.91,10.64.7,3.79-.23,10.77-.77,11.55-5.65.85-5.35,1.7-10.7,2.56-16.04.43-2.78-.67-5.55-3.62-6.36-2.48-.68-5.92.82-6.35,3.61-.88,5.51-1.76,11.01-2.64,16.52.79-1.02,1.58-2.05,2.38-3.08-.13.07-.25.12-.37.18,2.18-.96.28-.17-.34,0-.39.11-.79.19-1.18.26-.19.04-.38.07-.57.11-1.11.18,1.3-.16.09-.01-1.4.17-2.81.21-4.21.22-1.28,0-2.57-.06-3.84-.18-.24-.03-.47-.05-.7-.08,1.54.19.47.06.14,0-.43-.07-.84-.16-1.25-.26-.54-.13-1.08-.29-1.6-.5,1.97.77,1.09.51.67.27.79,1.03,1.58,2.06,2.38,3.08-.88-5.51-1.76-11.01-2.64-16.52-1.66,2.18-3.33,4.36-4.98,6.55h23.64c2.82,0,5.17-2.36,5.17-5.17s-2.35-5.17-5.17-5.17Z"/>
        </g>
        <path class="st13" d="M181.55,284.63h-23.64l2.63,16.53s2.41,1.45,9.18,1.45,9.19-1.45,9.19-1.45l2.64-16.53Z"/>
        <path class="st14" d="M161.7,301.16l-2.63-16.53h-1.16l2.63,16.53s2.41,1.45,9.18,1.45c.2,0,.39,0,.58,0-6.33-.07-8.61-1.45-8.61-1.45Z"/>
        <path class="st5" d="M177.76,301.16l2.63-16.53h1.16l-2.63,16.53s-2.41,1.45-9.19,1.45c-.2,0-.39,0-.58,0,6.33-.07,8.61-1.45,8.61-1.45Z"/>
      </g>
      <g>
        <g>
          <path class="st11" d="M184.2,281.15c0,.76-.62,1.37-1.37,1.37h-26.2c-.76,0-1.38-.61-1.38-1.37h0c0-.76.62-1.38,1.38-1.38h26.2c.76,0,1.37.62,1.37,1.38h0Z"/>
          <path d="M179.03,281.15c.46-3.91,5.76-3.79,3.41-3.79h-25.76c6.4,0,3.57,7.16-.05,7.58h25.67c2.55,0-2.81.16-3.27-3.79.33,2.8,2.11,5.17,5.17,5.17,2.57,0,5.49-2.37,5.17-5.17-.42-3.64-2.5-6.08-6.24-6.51-.27-.03-.51-.04-.77-.04h-24.95c-2.68,0-4.99.96-6.5,3.33-2.77,4.36,1.16,9.76,5.91,9.76h25.83c.72,0,1.46-.09,2.14-.33,2.9-1.03,4.23-3.27,4.57-6.22.32-2.8-2.6-5.17-5.17-5.17-3.06,0-4.84,2.37-5.17,5.17Z"/>
        </g>
        <path class="st13" d="M184.2,281.15c0,.76-.62,1.37-1.37,1.37h-26.2c-.76,0-1.38-.61-1.38-1.37h0c0-.76.62-1.38,1.38-1.38h26.2c.76,0,1.37.62,1.37,1.38h0Z"/>
        <path class="st5" d="M182.83,281.78h-26.2c-.63,0-1.15-.43-1.32-1-.04.12-.06.24-.06.38,0,.76.62,1.37,1.38,1.37h26.2c.76,0,1.37-.61,1.37-1.37,0-.13-.02-.25-.06-.38-.16.58-.69,1-1.32,1Z"/>
        <path class="st14" d="M182.83,280.51h-26.2c-.63,0-1.15.43-1.32,1-.04-.12-.06-.24-.06-.37,0-.76.62-1.38,1.38-1.38h26.2c.76,0,1.37.62,1.37,1.38,0,.13-.02.25-.06.37-.16-.58-.69-1-1.32-1Z"/>
      </g>
      <polygon class="st5" points="180.58 290.14 158.86 290.14 158.51 287.73 181 287.73 180.58 290.14"/>
    </g>
  </g>
  <g>
    <g>
      <g>
        <path class="st4" d="M180.09,305.14c0,1.92-29.21,3.48-65.23,3.48s-65.23-1.56-65.23-3.48,29.21-3.49,65.23-3.49,65.23,1.56,65.23,3.49Z"/>
        <path d="M114.85,309.83c-17.44,0-33.85-.36-46.19-1.02-20.25-1.08-20.25-2.28-20.25-3.67s0-2.59,20.25-3.68c12.34-.66,28.74-1.02,46.19-1.02s33.85.36,46.19,1.02c20.25,1.09,20.25,2.34,20.25,3.68s0,2.59-20.25,3.67c-12.34.66-28.75,1.02-46.19,1.02ZM53.7,305.14c7.87,1.11,29.36,2.28,61.15,2.28s53.29-1.16,61.16-2.28c-7.87-1.11-29.36-2.28-61.16-2.28s-53.29,1.17-61.15,2.28Z"/>
      </g>
      <g>
        <path class="st13" d="M82.43,230.29s-12.35,68.35-3.95,71.28c8.4,2.94,16.18-10.45,16.18-10.45,0,0,6.7,2.05,18.24,2.25,11.54.21,20.82-2.39,20.82-2.39,0,0,8.61,14.89,17.89,11.82,9.29-3.08-5.46-72.69-5.46-72.69l-63.71.17Z"/>
        <path d="M79,229.34c-2.07,11.51-3.78,23.1-5.16,34.71-.96,8.06-1.8,16.2-1.85,24.33-.02,3.18.12,6.37.67,9.51.44,2.52,1.39,4.89,3.48,6.46,1.92,1.43,4.83,1.3,7.04.96,2.86-.43,5.44-2.22,7.6-4.02,2.74-2.28,5.14-5.3,6.94-8.37-1.34.54-2.68,1.09-4.02,1.63,1.61.48,3.27.79,4.92,1.07,4.7.81,9.48,1.21,14.25,1.31,7.21.14,14.8-.58,21.78-2.52-1.34-.54-2.68-1.09-4.02-1.63,1.55,2.67,3.53,5.15,5.63,7.38,3.48,3.66,8.4,7.08,13.69,6.55,1.89-.19,3.76-.64,5.12-2.05.95-1,1.5-2.18,1.96-3.46.91-2.54,1.05-5.44,1.14-8.12.25-7.67-.66-15.4-1.65-23-1.08-8.48-2.45-16.93-3.97-25.34-.94-5.2-1.92-10.4-3.01-15.57-.32-1.53-1.92-2.62-3.43-2.61-11.92.03-23.81.06-35.72.09-9.33.03-18.66.05-27.99.07-4.58.01-4.58,7.12,0,7.11,11.9-.04,23.82-.07,35.72-.1,9.33-.03,18.66-.05,27.99-.08-1.14-.87-2.29-1.74-3.42-2.61,2.35,11.1,4.32,22.29,5.97,33.51.15,1.03.3,2.06.44,3.1.04.27.26,1.91.12.86.08.61.16,1.2.24,1.81.27,2.11.52,4.22.75,6.34.4,3.87.72,7.76.85,11.65.06,1.64.06,3.29,0,4.94-.02.7-.06,1.4-.12,2.09-.03.32-.06.63-.09.96-.01.15-.04.31-.05.46-.07.61.15-1.06.03-.2-.16,1.03-.39,2.07-.77,3.05-.09.24.47-1,.07-.2-.09.16-.18.32-.28.47-.36.55.72-.82.2-.26-.53.58.18-.11.26-.16-.29.2-.94.4.4-.13-.2.08-.41.13-.61.18-.18.06-.37.09-.55.12.5-.05.54-.06.14-.02-.54.06-1.07.03-1.6-.02.96.09.09,0-.1-.05-.35-.08-.69-.18-1.03-.29-.16-.05-1-.4-.16-.04-.25-.11-.5-.24-.74-.36-.58-.29-1.13-.64-1.67-1-.23-.16-.46-.32-.69-.49.69.51-.06-.06-.17-.14-.51-.42-.99-.87-1.46-1.32-.84-.8-1.62-1.67-2.37-2.56-.17-.21-1.15-1.46-.5-.61-.31-.4-.6-.8-.89-1.21-.55-.76-1.07-1.54-1.55-2.36-.8-1.37-2.48-2.06-4.01-1.63-1.94.54-3.94.91-5.92,1.24-2.21.38-3.53.53-5.94.74-2.67.24-5.35.32-8.02.28-2.55-.03-5.09-.18-7.62-.43-.51-.05-1.01-.1-1.52-.16-.13-.02-1.54-.2-.8-.09-.9-.12-1.79-.27-2.7-.42-1.56-.27-3.14-.57-4.66-1.03-1.52-.46-3.22.29-4.01,1.63-.48.83-1.02,1.61-1.58,2.37-.12.17-.25.34-.38.51-.48.63.51-.65,0,0-.31.39-.63.78-.96,1.15-.77.89-1.6,1.73-2.48,2.52-.21.19-.43.37-.64.55-.73.6.59-.43-.17.13-.44.33-.92.63-1.4.91-.24.14-.49.27-.73.39-.15.07-1,.41-.15.08-.58.23-1.19.39-1.8.5.94-.17.09-.03-.12-.02-.26.01-.53,0-.8-.02-.92-.05.77.15-.14-.04-.28-.06-.54-.15-.82-.24-.23-.08,1.06.55.43.15.06.04.82.74.29.17-.42-.46.65.92.21.27-.09-.15-.18-.31-.26-.47-.39-.76.34.88.08.21-.09-.24-.18-.49-.25-.74-.15-.49-.25-.98-.35-1.48-.06-.28-.1-.55-.14-.84-.04-.27-.12-.89.04.36-.02-.21-.05-.41-.07-.62-.36-3.17-.34-6.38-.24-9.57.25-8.32,1.17-16.64,2.21-24.9.12-1.02.26-2.04.39-3.06.03-.25.07-.5.1-.76.12-.88-.1.82.01-.06.08-.58.16-1.16.24-1.74.28-1.98.56-3.96.86-5.95.5-3.37,1.02-6.72,1.57-10.07.43-2.62.86-5.22,1.33-7.83.34-1.91-.49-3.83-2.48-4.38-1.74-.48-4.03.58-4.38,2.48Z"/>
      </g>
    </g>
    <g>
      <g>
        <path class="st0" d="M85.21,239.54s-42.53-7.72-42.71,6.31c-.18,14.03,35.04,13.33,35.04,13.33l7.67-19.64Z"/>
        <path d="M86.16,236.11c-4.88-.88-9.83-1.45-14.76-1.85-7.68-.62-16.23-1.06-23.64,1.44-3.14,1.06-6.52,2.95-7.89,6.14-1.71,4.02-.78,8.1,1.84,11.48,2.37,3.05,6.32,4.78,9.85,6.01,4.01,1.4,8.23,2.08,12.43,2.61,4.47.57,9.03.88,13.54.79,1.71-.03,2.83-1.09,3.42-2.61,2.56-6.55,5.12-13.09,7.68-19.63.71-1.81-.76-3.9-2.48-4.38-2.01-.55-3.67.68-4.37,2.48-2.56,6.55-5.12,13.09-7.68,19.64,1.15-.87,2.29-1.74,3.43-2.61-1.54.03-3.09-.01-4.63-.07-1.62-.06-3.24-.17-4.86-.29-.89-.08-1.78-.16-2.67-.26-.46-.05-.92-.11-1.39-.16-.22-.03-1.05-.14,0,0-.32-.05-.63-.09-.95-.14-2-.29-3.99-.68-5.95-1.16-.93-.23-1.85-.49-2.75-.77-.44-.14-.88-.29-1.32-.45-.29-.1-1.88-.74-.84-.3-.79-.33-1.56-.71-2.31-1.14-.36-.2-.7-.42-1.04-.64-.17-.11-.33-.22-.49-.33-.51-.37.69.56-.05-.04-.57-.47-1.09-1-1.55-1.58.77.96.01-.04-.14-.3-.09-.15-.17-.3-.25-.46-.42-.82.23.61.02.05-.12-.34-.21-.68-.28-1.02-.06-.27-.12-.94.02.23-.02-.19-.04-.37-.04-.55-.01-.34,0-.68.03-1.02-.13,1.36,0,.14.13-.23.24-.78-.45.84.03-.09.13-.25.3-.49.47-.73-.77,1.05-.12.18.13-.06.1-.1.22-.21.33-.31.65-.57-.58.43-.1.08.54-.4,1.13-.72,1.73-1,.16-.08.32-.14.49-.22-1.04.46-.41.17-.17.09.42-.16.84-.29,1.26-.43.78-.24,1.58-.43,2.37-.59.42-.09.85-.16,1.27-.23.21-.04.44-.07.65-.1.64-.09-.87.11.17-.02,7.65-.93,15.53-.27,23.16.66.48.06.97.12,1.46.19.63.09-1.02-.13-.1,0,.21.02.43.05.64.09.76.1,1.52.21,2.27.34.67.09,1.33.21,1.99.32,1.9.35,3.82-.48,4.38-2.48.47-1.74-.58-4.03-2.48-4.38Z"/>
      </g>
      <path class="st9" d="M65.42,241.05v13.96s9.81.55,9.81.55l5.1-13.21s-5.9-.93-9.2-1.09c-3.3-.16-5.71-.21-5.71-.21Z"/>
    </g>
    <g>
      <g>
        <path class="st0" d="M153.17,231.96s27.84,33.07,15.76,40.19c-12.08,7.13-28.99-23.77-28.99-23.77l13.23-16.42Z"/>
        <path d="M150.65,234.47c.96,1.13,1.88,2.3,2.78,3.47.4.53-.55-.71-.14-.18.12.14.22.28.32.42.23.3.45.59.68.89.53.7,1.06,1.42,1.58,2.14,1.15,1.56,2.25,3.15,3.34,4.76,2.33,3.48,4.51,7.07,6.36,10.84.21.44.42.88.62,1.32.12.24.73,1.69.31.67.38.91.71,1.82,1.02,2.75.26.8.47,1.61.66,2.42.08.38.15.77.21,1.15-.2-1.29,0,.2.02.53.02.35.02.69,0,1.04,0,.17-.02.33-.03.5-.06.66.15-.95.04-.29-.05.31-.13.61-.21.91-.3,1.03.39-.67-.1.27-.15.29-.81,1.18-.01.15-.19.24-.4.46-.63.66-.59.56.75-.46-.17.12-.16.1-.33.2-.5.29-.86.46.52-.18-.05.04-.36.14-.72.23-1.1.32-.26.05-.96.12.21-.01-.19.01-.38.02-.56.04-.38.02-.76-.01-1.13-.05,1.28.13-.24-.07-.58-.17-.39-.1-.77-.24-1.15-.38-.71-.27.78.35.08.03-.2-.09-.38-.18-.57-.28-.88-.43-1.7-.96-2.5-1.52-.19-.14-.39-.28-.57-.42-.67-.5.62.49-.04-.03-.38-.3-.75-.62-1.13-.95-.83-.73-1.62-1.5-2.39-2.28-1.51-1.55-2.92-3.21-4.27-4.91-.11-.13-.65-.84-.08-.09-.15-.2-.31-.4-.45-.61-.31-.4-.61-.8-.9-1.2-.61-.84-1.21-1.69-1.79-2.54-.96-1.39-1.87-2.81-2.76-4.24-.7-1.13-1.39-2.28-2.03-3.45-.19,1.44-.37,2.88-.56,4.31,4.41-5.48,8.82-10.95,13.23-16.43,1.21-1.5,1.47-3.55,0-5.02-1.26-1.26-3.82-1.51-5.03,0-4.4,5.47-8.81,10.95-13.22,16.42-1.04,1.29-1.39,2.79-.55,4.31,2.82,5.14,6.23,10.03,9.94,14.58,4.88,5.99,12.67,13.95,21.26,11.61,3.65-1,6.6-3.98,7.22-7.75.61-3.79-.31-7.55-1.67-11.06-3.01-7.69-7.69-14.68-12.6-21.27-1.72-2.32-3.48-4.62-5.33-6.83-1.25-1.48-3.75-1.28-5.03,0-1.45,1.45-1.24,3.54,0,5.02Z"/>
      </g>
      <g>
        <rect class="st4" x="149.3" y="252.36" width="19.73" height="6.91" transform="translate(-113.35 127.33) rotate(-32.87)"/>
        <path d="M152.52,265.19l-4.63-7.16,17.93-11.58,4.63,7.16-17.93,11.58ZM150.12,258.5l2.88,4.46,15.22-9.84-2.88-4.45-15.22,9.83Z"/>
      </g>
      <path class="st9" d="M161.69,249.88l-8.16,5.33-3.6-13.58,3.22-4.04s3.74,4.66,5.51,7.44c1.78,2.78,3.03,4.85,3.03,4.85Z"/>
    </g>
    <g>
      <g>
        <polygon class="st11" points="141.59 238.23 115.18 238.23 114.96 238.23 88.56 238.23 77.12 275.86 114.96 275.86 115.18 275.86 153.02 275.86 141.59 238.23"/>
        <path d="M141.59,231.12h-53.03c-3.23,0-5.93,2.18-6.85,5.22-3.65,11.99-7.29,23.99-10.93,35.97-.17.55-.33,1.1-.51,1.66-1.36,4.45,2.32,8.99,6.85,8.99h75.91c4.53,0,8.2-4.55,6.86-8.99-3.65-11.99-7.3-23.98-10.94-35.97-.17-.55-.33-1.1-.5-1.66-1.13-3.7-4.94-6.01-8.75-4.96-3.65,1-6.09,5.03-4.96,8.74,3.65,11.99,7.29,23.98,10.93,35.96.17.55.34,1.11.51,1.66,2.29-3,4.57-6,6.85-9h-75.91c2.29,3,4.57,6,6.85,9,3.65-11.99,7.3-23.98,10.94-35.96.17-.56.34-1.11.5-1.66-2.29,1.74-4.57,3.48-6.85,5.22h53.03c3.87,0,7.11-3.24,7.11-7.11s-3.24-7.11-7.11-7.11Z"/>
      </g>
      <polygon class="st9" points="141.59 238.23 115.18 238.23 114.96 238.23 88.56 238.23 77.12 275.86 114.96 275.86 115.18 275.86 153.02 275.86 141.59 238.23"/>
    </g>
    <g>
      <circle class="st0" cx="114.84" cy="229.92" r="17.74" transform="translate(-128.94 148.54) rotate(-45)"/>
      <path d="M129.34,229.92c-.05,5.18-2.74,9.86-7.19,12.53-4.48,2.68-10.15,2.57-14.65,0-4.47-2.56-7.13-7.42-7.19-12.53-.05-5.16,2.81-9.9,7.19-12.53,4.49-2.68,10.15-2.57,14.65,0,4.49,2.56,7.14,7.42,7.19,12.53.04,4.17,6.51,4.17,6.46,0-.06-6.26-2.84-12.35-7.78-16.27-5.17-4.12-11.82-5.58-18.26-4.08-5.97,1.39-11.21,5.76-13.83,11.27-2.85,6-2.66,12.86.3,18.77,4.3,8.63,14.46,12.81,23.66,10.66,9.31-2.17,15.81-10.95,15.9-20.36.05-4.17-6.42-4.16-6.46,0Z"/>
    </g>
    <g>
      <g>
        <g>
          <path class="st11" d="M10.78,90.5s-1.56,39.07-.41,62.99c1.15,23.92,16.3,32.17,16.3,32.17v-70.21l-15.88-24.96Z"/>
          <path d="M1.74,90.5c-.72,17.95-1.09,35.94-.72,53.9.13,6.67.32,13.33,1.68,19.88,1.17,5.64,3.42,11.24,6.51,16.11,2.18,3.43,4.83,6.74,7.93,9.4,1.54,1.32,3.17,2.71,4.96,3.69,5.97,3.27,13.61-.81,13.61-7.82v-70.12c0-3.04-1.44-4.98-2.94-7.33-1.85-2.91-3.69-5.81-5.54-8.72-2.88-4.52-5.76-9.05-8.64-13.57-2.63-4.16-8-5.81-12.38-3.24-4.13,2.42-5.89,8.21-3.24,12.38,5.29,8.32,10.59,16.64,15.88,24.96-.41-1.52-.82-3.04-1.24-4.57v70.21c4.54-2.6,9.08-5.21,13.62-7.81-.73-.4-1.41-.9-2.06-1.4.61.47,1.22.94,1.82,1.41-2.15-1.68-4.06-3.65-5.73-5.81.47.61.94,1.22,1.41,1.83-1.99-2.6-3.62-5.45-4.91-8.45.3.72.61,1.44.91,2.17-1.61-3.83-2.64-7.84-3.19-11.94.1.8.21,1.6.32,2.4-.75-5.93-.7-12.01-.78-17.98-.08-6.15-.05-12.3.02-18.46.1-9.38.33-18.74.66-28.1.03-1.01.07-2.02.11-3.03.2-4.93-4.26-9.05-9.05-9.05-5.08,0-8.84,4.12-9.04,9.05Z"/>
        </g>
        <path class="st8" d="M10.78,87.01s-1.56,42.55-.41,66.48c1.15,23.92,16.3,32.17,16.3,32.17v-70.21l-15.88-28.45Z"/>
      </g>
      <g>
        <g>
          <path class="st11" d="M218.89,90.5s1.56,39.07.42,62.99c-1.15,23.92-16.3,32.17-16.3,32.17v-70.21l15.88-24.96Z"/>
          <path d="M209.84,90.5c.72,17.95,1.1,35.94.72,53.9-.09,4.55-.13,9.15-.71,13.67.11-.8.21-1.6.33-2.4-.56,4.1-1.58,8.11-3.19,11.94.31-.73.61-1.44.92-2.17-1.29,3.01-2.93,5.86-4.92,8.45.47-.61.94-1.22,1.41-1.83-1.67,2.16-3.57,4.13-5.73,5.81.61-.47,1.22-.95,1.83-1.41-.66.5-1.33,1-2.06,1.4,4.54,2.6,9.08,5.21,13.62,7.81v-70.21c-.42,1.52-.83,3.05-1.24,4.57,5.29-8.32,10.59-16.64,15.88-24.96,2.64-4.16.88-9.96-3.24-12.38-4.38-2.56-9.73-.91-12.38,3.24-3.29,5.17-6.58,10.33-9.85,15.5-1.77,2.78-3.54,5.56-5.31,8.34-1.11,1.75-1.95,3.44-1.95,5.68v70.21c0,7,7.64,11.08,13.61,7.82,1.84-1.01,3.49-2.44,5.07-3.8,3.19-2.74,5.87-6.19,8.09-9.74,3.17-5.06,5.33-10.92,6.45-16.77,1.27-6.66,1.36-13.45,1.49-20.2.32-17.48-.05-35.01-.75-52.48-.19-4.93-3.96-9.05-9.04-9.05-4.79,0-9.25,4.12-9.05,9.05Z"/>
        </g>
        <path class="st8" d="M218.89,87.01s1.56,42.55.42,66.48c-1.15,23.92-16.3,32.17-16.3,32.17v-70.21l15.88-28.45Z"/>
      </g>
    </g>
    <g>
      <g>
        <path class="st11" d="M28.01,83.36c-.32,12.43,0,85.93,0,85.93,0,33.39,18.71,64.35,88.44,64.06,69.01-.28,85.35-30.67,85.35-64.06v-85.93H28.01Z"/>
        <path d="M18.97,83.36c-.37,14.6-.16,29.23-.13,43.83.02,13.75.06,27.5.12,41.24.06,14.32,2.92,28.94,11.17,40.91,5.35,7.77,12.31,14.12,20.41,18.95,9.34,5.55,19.95,8.99,30.56,11.05,14.28,2.75,28.96,3.45,43.47,2.86,12.93-.52,26.1-2.12,38.46-6.11,9.93-3.21,19.15-7.96,27.06-14.79,6.09-5.27,11.11-12.07,14.35-19.44,3.55-8.11,5.4-16.4,6.12-25.22.31-3.86.28-7.72.28-11.6v-81.7c0-4.93-4.12-9.04-9.05-9.04H28.01c-4.94,0-9.05,4.12-9.05,9.04s4.11,9.05,9.05,9.05h173.79c-3.01-3.02-6.03-6.03-9.05-9.05v77.12c0,6.8.16,13.6-.73,20.34.11-.8.22-1.6.33-2.4-.74,5.44-2.07,10.81-4.19,15.88.3-.72.61-1.44.91-2.16-1.67,3.95-3.82,7.67-6.44,11.07.47-.61.95-1.22,1.41-1.83-2.6,3.35-5.63,6.35-8.99,8.95.62-.47,1.22-.94,1.84-1.41-4.32,3.33-9.11,6-14.12,8.13.72-.31,1.44-.61,2.16-.91-8.57,3.61-17.71,5.69-26.9,6.94.8-.11,1.61-.21,2.41-.32-16.25,2.16-33.06,2.19-49.3.04.8.11,1.6.22,2.4.32-9.36-1.25-18.65-3.38-27.39-7.03.73.3,1.44.61,2.17.91-5.25-2.22-10.26-4.99-14.79-8.47.61.47,1.22.95,1.83,1.42-3.53-2.74-6.72-5.87-9.46-9.4.47.61.95,1.22,1.41,1.83-2.69-3.49-4.91-7.31-6.63-11.36.31.72.61,1.44.91,2.17-2.11-5.02-3.46-10.32-4.2-15.71.11.8.21,1.61.33,2.41-.61-4.53-.68-9.06-.7-13.62-.02-6.28-.05-12.56-.06-18.85-.05-17.52-.11-35.05-.04-52.58.02-3.82.02-7.65.11-11.47.13-4.93-4.21-9.04-9.04-9.04s-8.92,4.12-9.05,9.04Z"/>
      </g>
      <path class="st0" d="M28.01,83.36c-.32,12.43,0,85.93,0,85.93,0,33.39,18.71,64.35,88.44,64.06,69.01-.28,85.35-30.67,85.35-64.06v-85.93H28.01Z"/>
    </g>
    <g>
      <g>
        <g>
          <path class="st11" d="M66.21,22.92l.17-.48S25.47,39.62,14.61,75.11c-10.85,35.49-2.49,60.58-2.49,60.58l19.44-13.56s-7.2-68.73,34.64-99.21Z"/>
          <path d="M74.93,25.32c.05-.16.11-.31.16-.48,1.04-2.99-.16-6.64-2.33-8.8-2.06-2.06-5.93-3.54-8.8-2.33-12.83,5.4-24.72,13.45-34.86,22.97-8.36,7.86-15.67,17.35-20.17,27.95C2.99,78.67.28,94.31.01,109.51c-.12,7.16.51,14.32,1.73,21.38.42,2.41.89,4.88,1.66,7.2.76,2.28,2.05,4.17,4.16,5.41,2.62,1.53,6.54,1.81,9.13,0,6.48-4.52,12.96-9.04,19.45-13.56,2.45-1.71,4.81-4.55,4.47-7.81-1.01-9.71-.56-19.73.46-29.41.16-1.46.33-2.91.52-4.37-.1.8-.21,1.6-.32,2.4,1.5-11.14,4.17-22.17,8.55-32.54-.31.71-.61,1.44-.91,2.16,2.86-6.74,6.45-13.15,10.92-18.97-.48.61-.95,1.22-1.42,1.83,3.67-4.75,7.88-9.03,12.62-12.72-.61.47-1.22.94-1.84,1.42.53-.4,1.05-.8,1.59-1.2,1.97-1.45,3.48-2.95,4.16-5.4.64-2.33.31-4.88-.91-6.96-1.18-2.03-3.15-3.54-5.4-4.16-2.15-.59-5.12-.45-6.98.91-9.7,7.11-17.66,16.03-23.63,26.5-5.28,9.28-9.03,19.51-11.52,29.87-3.63,15.03-5.02,30.83-4.28,46.26.08,1.46.16,2.93.31,4.39,1.5-2.6,2.99-5.21,4.49-7.81-6.48,4.52-12.96,9.04-19.44,13.56,4.43,1.8,8.86,3.6,13.29,5.4-1.12-3.38-1.69-7-2.17-10.52.1.8.21,1.6.32,2.41-1.32-9.88-1.14-19.93.18-29.79-.1.8-.21,1.61-.32,2.41,1.22-8.86,3.16-17.9,6.62-26.17-.31.72-.61,1.44-.92,2.16,2.41-5.67,5.61-10.96,9.37-15.84-.48.62-.95,1.22-1.42,1.84,5.03-6.46,10.98-12.15,17.45-17.15-.61.47-1.22.94-1.83,1.41,6.98-5.36,14.66-10.34,22.8-13.78-.72.3-1.44.61-2.16.91h0c-3.71-3.71-7.42-7.42-11.13-11.13-.05.16-.11.31-.17.47-1.63,4.66,1.81,9.89,6.32,11.13,5,1.37,9.5-1.67,11.13-6.32Z"/>
        </g>
        <path class="st13" d="M66.21,22.92l.17-.48S25.47,39.62,14.61,75.11c-10.85,35.49-2.49,60.58-2.49,60.58l19.44-13.56s-7.2-68.73,34.64-99.21Z"/>
        <path class="st5" d="M19.83,75.11c9.89-29.84,46.55-52.67,46.55-52.67,0,0-40.91,17.18-51.76,52.67-10.85,35.49-2.49,60.58-2.49,60.58l4.39-3.06c-1.81-7.71-5.96-29.54,3.31-57.52Z"/>
      </g>
      <g>
        <g>
          <path class="st11" d="M163.46,22.92l-.16-.48s40.91,17.18,51.77,52.67c10.85,35.49,2.48,60.58,2.48,60.58l-19.44-13.56s7.2-68.73-34.65-99.21Z"/>
          <path d="M172.19,20.51c-.06-.16-.11-.31-.17-.47-3.71,3.71-7.42,7.42-11.12,11.12h0c-.72-.3-1.44-.6-2.17-.91,8.14,3.44,15.83,8.42,22.8,13.78-.61-.47-1.22-.94-1.82-1.41,6.47,5,12.42,10.68,17.45,17.15-.47-.61-.95-1.22-1.42-1.84,3.76,4.88,6.96,10.17,9.36,15.84-.31-.72-.61-1.44-.91-2.16,3.45,8.28,5.39,17.31,6.61,26.17-.11-.8-.21-1.6-.33-2.41,1.33,9.87,1.51,19.91.19,29.79.11-.8.21-1.6.32-2.41-.48,3.52-1.05,7.13-2.17,10.52,4.43-1.8,8.86-3.61,13.29-5.4-6.48-4.52-12.96-9.05-19.44-13.56,1.49,2.6,2.98,5.21,4.48,7.81,1.01-9.71.56-19.73-.46-29.41-2.16-20.6-7.63-41.66-19.91-58.69-5.3-7.35-11.45-13.56-18.76-18.91-1.87-1.36-4.84-1.5-6.97-.91-2.26.62-4.22,2.13-5.41,4.16-1.22,2.08-1.55,4.63-.91,6.96.67,2.45,2.18,3.96,4.15,5.4.54.4,1.06.79,1.59,1.2-.61-.47-1.22-.94-1.83-1.42,4.73,3.69,8.94,7.97,12.61,12.72-.46-.61-.94-1.22-1.41-1.83,4.45,5.82,8.05,12.23,10.92,18.97-.31-.72-.61-1.44-.92-2.16,4.38,10.37,7.05,21.4,8.55,32.54-.11-.8-.21-1.6-.32-2.4,1.47,11.03,2.03,22.41,1,33.51,0,.09-.02.18-.02.27-.34,3.26,2.03,6.1,4.48,7.81,6.48,4.52,12.95,9.04,19.44,13.56,1.91,1.34,4.79,1.51,6.97.92,3.16-.87,5.3-3.28,6.32-6.32,1.78-5.35,2.41-11.24,2.94-16.8,1.28-13.32-.1-26.93-3.09-39.94-1.66-7.18-3.94-14.15-7.25-20.75-2.78-5.55-6.41-10.61-10.33-15.4-6.64-8.13-14.85-14.96-23.51-20.87-6.08-4.16-12.53-7.75-19.33-10.61-2.87-1.21-6.74.27-8.8,2.33-2.16,2.16-3.37,5.81-2.33,8.8.06.16.12.32.17.48,1.62,4.65,6.12,7.69,11.13,6.32,4.5-1.24,7.94-6.47,6.31-11.13Z"/>
        </g>
        <path class="st13" d="M163.46,22.92l-.16-.48s40.91,17.18,51.77,52.67c10.85,35.49,2.48,60.58,2.48,60.58l-19.44-13.56s7.2-68.73-34.65-99.21Z"/>
      </g>
    </g>
    <path class="st5" d="M209.85,75.11c-9.89-29.84-46.55-52.67-46.55-52.67,0,0,40.91,17.18,51.77,52.67,10.85,35.49,2.49,60.58,2.49,60.58l-4.39-3.06c1.8-7.71,5.96-29.54-3.31-57.52Z"/>
    <g>
      <g>
        <path class="st11" d="M114.84,9.04C19.3,9.04,31.21,122.52,31.21,122.52c0,0,33.6-20.35,83.63-20.35s83.64,20.35,83.64,20.35c0,0,11.9-113.48-83.64-113.48Z"/>
        <path d="M114.84,0c-19.32.03-39.3,4.58-54.89,16.48-7.11,5.43-13.06,11.68-18.21,19.02-4.52,6.46-7.93,13.57-10.79,20.88-5.03,12.8-7.5,26.52-8.66,40.18-.68,7.98-.84,16.03-.28,24.02.04.65.09,1.3.16,1.96.35,3.27,1.51,6.07,4.48,7.81,2.76,1.62,6.37,1.67,9.14,0,4.08-2.46,8.51-4.43,12.89-6.28-.72.31-1.44.61-2.16.91,14.7-6.18,30.27-10.27,46.06-12.41-.8.11-1.6.21-2.4.32,16.38-2.18,32.99-2.18,49.37,0-.8-.11-1.61-.21-2.41-.32,15.79,2.14,31.36,6.22,46.06,12.41-.73-.3-1.44-.61-2.17-.91,4.38,1.85,8.82,3.82,12.89,6.28,2.76,1.67,6.38,1.62,9.13,0,2.97-1.74,4.14-4.54,4.48-7.81.54-5.14.55-10.37.43-15.53-.28-12.55-1.82-25.23-4.96-37.4-3.9-15.14-10.62-29.49-20.74-41.48-11.4-13.51-27.65-22.39-44.88-25.89C129.97.72,122.38.01,114.84,0c-4.93,0-9.05,4.12-9.05,9.04s4.12,9.04,9.05,9.05c4.72,0,9.43.28,14.12.89-.8-.1-1.61-.21-2.41-.32,7.23.98,14.33,2.76,21.07,5.59-.72-.3-1.44-.61-2.16-.91,5.46,2.31,10.61,5.28,15.32,8.9-.61-.47-1.22-.95-1.83-1.41,4.72,3.65,8.93,7.92,12.59,12.64-.47-.61-.95-1.22-1.41-1.83,4.52,5.86,8.16,12.35,11.04,19.16-.3-.72-.61-1.44-.91-2.16,4.35,10.32,7.01,21.3,8.51,32.38-.11-.8-.21-1.6-.32-2.39,1.27,9.47,1.73,19.08,1.33,28.64-.08,1.75-.16,3.51-.34,5.26,4.53-2.6,9.07-5.21,13.61-7.81-3.08-1.87-6.38-3.4-9.67-4.88-9.25-4.16-18.8-7.59-28.61-10.19-28.77-7.64-59.05-8.39-88.24-2.68-10.71,2.1-21.26,5.16-31.42,9.16-5.93,2.34-11.85,4.88-17.43,7.99-.35.19-.69.39-1.03.6,4.54,2.6,9.07,5.21,13.61,7.81-.54-5.14-.54-10.37-.43-15.53.14-6.14.61-12.29,1.43-18.37-.11.8-.22,1.6-.32,2.39,1.5-11.08,4.15-22.05,8.5-32.38-.3.72-.6,1.44-.91,2.16,2.9-6.81,6.53-13.3,11.05-19.16-.47.61-.95,1.22-1.41,1.83,3.65-4.72,7.87-8.98,12.59-12.64-.61.47-1.22.94-1.83,1.41,4.71-3.62,9.85-6.59,15.32-8.9-.72.3-1.44.61-2.16.91,6.74-2.83,13.84-4.61,21.07-5.59-.8.11-1.61.22-2.4.32,4.68-.61,9.4-.89,14.11-.89,4.93-.01,9.05-4.11,9.05-9.05S119.77,0,114.84,0Z"/>
      </g>
      <path class="st13" d="M114.84,9.04C19.3,9.04,31.21,122.52,31.21,122.52c0,0,33.6-20.35,83.63-20.35s83.64,20.35,83.64,20.35c0,0,11.9-113.48-83.64-113.48Z"/>
      <path class="st14" d="M114.84,15.25c73.86,0,83.51,67.82,84.08,98.6.51-26.52-4.73-104.8-84.08-104.8S30.25,87.33,30.75,113.85c.57-30.78,10.22-98.6,84.08-98.6Z"/>
      <path class="st5" d="M198.48,112.96s-33.61-20.35-83.64-20.35-83.63,20.35-83.63,20.35c0,0-.22-2.06-.36-5.62-.4,10.79.36,18.03.36,18.03,0,0,33.6-20.35,83.63-20.35s83.64,20.35,83.64,20.35c0,0,.75-7.23.35-18.03-.14,3.56-.35,5.62-.35,5.62Z"/>
    </g>
    <path class="st12" d="M191.07,156.6s-2.29,2.39-9.16,2.55c-6.86.16-30.78-16.23-67.01-16.23h-.13c-36.23,0-60.14,16.39-67.01,16.23-6.87-.16-9.16-2.55-9.16-2.55l-10.7-8.42c0,2.85.02,5.58.02,8.16l10.67,8.41s2.29,2.39,9.16,2.54c6.87.16,30.78-16.23,67.01-16.23h.13c36.23,0,60.14,16.39,67.01,16.23,6.87-.16,9.16-2.54,9.16-2.54l10.74-8.46v-8.14l-10.74,8.46Z"/>
    <g>
      <path class="st11" d="M114.92,107.56h-.16c-70.32,0-89.88,31.18-89.88,31.18l13.74,10.82s2.29,2.39,9.16,2.55c6.87.16,30.78-16.23,67.01-16.23h.13c36.23,0,60.14,16.39,67.01,16.23,6.87-.16,9.16-2.55,9.16-2.55l13.73-10.82s-19.56-31.18-89.88-31.18Z"/>
      <path d="M114.92,98.51c-24.19.23-48.59,3.38-70.58,13.96-6.43,3.09-12.35,6.97-17.84,11.5-2.61,2.15-5.09,4.52-7.17,7.2-.74.95-1.6,1.95-2.26,3-1.97,3.13-1.66,8.54,1.41,10.97,4.57,3.6,9.15,7.21,13.72,10.81,1.3,1.03,2.44,2.03,3.95,2.69,3.77,1.62,7.64,2.55,11.8,2.53,3.21-.03,6.27-1.14,9.22-2.29,5.92-2.31,11.74-4.82,17.76-6.89,8.52-2.94,17.3-5.11,26.23-6.32-.8.11-1.6.22-2.4.32,10.68-1.41,21.49-1.41,32.18,0-.8-.11-1.61-.21-2.41-.32,11.78,1.59,23.15,4.93,34.19,9.25,3.64,1.43,7.22,2.98,10.87,4.37,3.27,1.25,6.58,2.06,10.13,1.77,5.07-.4,9.66-1.7,13.61-4.96.99-.82,2-1.6,3-2.39,3.62-2.86,7.25-5.71,10.87-8.56,3.07-2.42,3.38-7.84,1.41-10.97-4.19-6.66-11.02-11.93-17.47-16.18-7.09-4.67-14.99-8.17-22.99-10.98-11.32-3.97-23.19-6.1-35.09-7.38-7.36-.79-14.74-1.12-22.13-1.13-4.93,0-9.05,4.12-9.05,9.05s4.12,9.04,9.05,9.05c8.96,0,17.91.51,26.8,1.68-.8-.11-1.61-.21-2.41-.32,11.83,1.59,23.55,4.37,34.57,9.01-.72-.3-1.44-.61-2.17-.91,6.67,2.84,13.09,6.35,18.83,10.79-.61-.47-1.22-.95-1.83-1.42,3.25,2.52,6.36,5.33,8.88,8.58-.47-.61-.94-1.22-1.41-1.83.28.37.56.74.81,1.12.47-3.65.94-7.3,1.41-10.96-4.67,3.68-9.34,7.34-13.99,11.04.61-.47,1.22-.94,1.83-1.41-.57.43-1.2.76-1.85,1.03.71-.3,1.44-.61,2.16-.91-1.3.53-2.66.84-4.05,1.05.8-.1,1.6-.21,2.4-.32-1.28.16-2.6.33-3.88.17.8.11,1.6.22,2.4.33-2.63-.37-5.2-1.53-7.63-2.51-4.02-1.62-8.04-3.29-12.09-4.8-12.37-4.6-25.19-7.56-38.35-8.73-14.42-1.29-29.1.16-43.13,3.65-9.76,2.42-19.03,6.13-28.34,9.88-2.45.99-5,2.15-7.64,2.51.8-.11,1.6-.21,2.4-.33-1.28.16-2.6,0-3.88-.17.8.1,1.6.21,2.41.32-1.39-.21-2.75-.52-4.06-1.05.73.3,1.44.61,2.17.91-.65-.28-1.28-.6-1.85-1.03.61.47,1.22.95,1.83,1.41-4.64-3.7-9.32-7.36-13.99-11.04.47,3.66.94,7.31,1.41,10.96.24-.39.53-.76.81-1.12-.47.61-.94,1.22-1.41,1.83,2.53-3.25,5.64-6.06,8.88-8.58-.61.47-1.22.95-1.83,1.42,5.75-4.43,12.16-7.95,18.84-10.79-.73.31-1.45.61-2.16.91,11.01-4.64,22.73-7.42,34.56-9.01-.8.11-1.61.21-2.4.32,8.95-1.18,17.93-1.6,26.95-1.68,4.93-.05,9.04-4.08,9.04-9.05s-4.11-9.09-9.04-9.05Z"/>
    </g>
    <path class="st9" d="M114.92,107.56h-.16c-70.32,0-89.88,31.18-89.88,31.18l13.74,10.82s2.29,2.39,9.16,2.55c6.87.16,30.78-16.23,67.01-16.23h.13c36.23,0,60.14,16.39,67.01,16.23,6.87-.16,9.16-2.55,9.16-2.55l13.73-10.82s-19.56-31.18-89.88-31.18Z"/>
    <path class="st15" d="M114.76,111.44s.06,0,.08,0c.03,0,.05,0,.08,0,58.33,0,81.74,21.46,88.03,28.77l1.86-1.47s-19.56-31.18-89.88-31.18h-.16c-70.32,0-89.88,31.18-89.88,31.18l1.86,1.47c6.29-7.31,29.7-28.77,88.03-28.77Z"/>
    <path class="st10" d="M191.07,144.82s-2.29,2.38-9.16,2.55c-6.86.16-30.78-16.23-67.01-16.23-.02,0-.03,0-.05,0h-.04s-.03,0-.04,0c-36.23,0-60.14,16.39-67.01,16.23-6.87-.17-9.16-2.55-9.16-2.55l-11.43-9c-1.61,1.81-2.31,2.92-2.31,2.92l13.74,10.82s2.29,2.39,9.16,2.55c6.87.16,30.78-16.23,67.01-16.23h.13c36.23,0,60.14,16.39,67.01,16.23,6.87-.16,9.16-2.55,9.16-2.55l13.73-10.82s-.7-1.11-2.31-2.92l-11.42,9Z"/>
    <g>
      <g>
        <g>
          <g>
            <g>
              <path class="st2" d="M55.28,180.29c0,8.18,6.63,14.81,14.81,14.81s14.8-6.63,14.8-14.81-6.63-14.81-14.8-14.81-14.81,6.63-14.81,14.81Z"/>
              <path d="M53.99,180.29c.06,5.81,3.15,11.09,8.16,14.02,5.06,2.94,11.51,2.68,16.45-.35,4.94-3.02,7.78-8.65,7.57-14.39-.2-5.74-3.7-10.98-8.75-13.61-4.98-2.6-11.1-2.25-15.85.66-4.73,2.89-7.53,8.18-7.59,13.67-.02,1.67,2.56,1.67,2.58,0,.07-5.86,3.8-11.03,9.38-12.88,5.58-1.84,11.85.35,15.22,5.11,3.39,4.78,3.2,11.46-.4,16.08-3.65,4.69-9.92,6.31-15.47,4.34-5.26-1.88-8.66-7.17-8.73-12.65-.02-1.66-2.6-1.66-2.58,0Z"/>
            </g>
            <path class="st1" d="M60.54,185.72c0,1.33,1.07,2.4,2.4,2.4s2.4-1.07,2.4-2.4-1.07-2.4-2.4-2.4-2.4,1.07-2.4,2.4Z"/>
            <path class="st1" d="M68.67,178.3c0,3.42,2.77,6.19,6.2,6.19s6.19-2.77,6.19-6.19-2.78-6.2-6.19-6.2-6.2,2.78-6.2,6.2Z"/>
          </g>
          <path class="st7" d="M71.97,201.81c.7,1.96-2.37,4.88-6.87,6.51-4.5,1.63-8.73,1.36-9.44-.6-.71-1.97,2.36-4.88,6.87-6.52,4.5-1.63,8.73-1.36,9.44.6Z"/>
        </g>
        <g>
          <g>
            <g>
              <path class="st2" d="M144.77,180.29c0,8.18,6.63,14.81,14.81,14.81s14.81-6.63,14.81-14.81-6.64-14.81-14.81-14.81-14.81,6.63-14.81,14.81Z"/>
              <path d="M143.48,180.29c.07,5.81,3.15,11.09,8.17,14.02,5.06,2.93,11.5,2.68,16.44-.35,4.94-3.02,7.78-8.65,7.57-14.39-.21-5.74-3.69-10.98-8.75-13.61-4.98-2.6-11.1-2.25-15.85.66-4.73,2.89-7.53,8.18-7.6,13.67-.02,1.67,2.56,1.67,2.59,0,.07-5.86,3.8-11.03,9.38-12.88,5.58-1.84,11.84.35,15.21,5.11,3.4,4.78,3.2,11.46-.39,16.08-3.65,4.69-9.93,6.31-15.46,4.34-5.27-1.88-8.67-7.17-8.73-12.65-.02-1.66-2.6-1.66-2.59,0Z"/>
            </g>
            <path class="st1" d="M150.02,185.72c0,1.33,1.07,2.4,2.4,2.4s2.4-1.07,2.4-2.4-1.07-2.4-2.4-2.4-2.4,1.07-2.4,2.4Z"/>
            <path class="st1" d="M158.16,178.3c0,3.42,2.77,6.19,6.19,6.19s6.19-2.77,6.19-6.19-2.78-6.2-6.19-6.2-6.19,2.78-6.19,6.2Z"/>
          </g>
          <path class="st7" d="M157.71,201.81c-.72,1.96,2.36,4.88,6.86,6.51,4.5,1.63,8.73,1.36,9.45-.6.71-1.97-2.37-4.88-6.87-6.52-4.5-1.63-8.73-1.36-9.44.6Z"/>
        </g>
      </g>
      <path d="M100.36,208.58c.09,1.92.83,3.89,1.94,5.45,2.77,3.87,7.3,5.27,11.9,5.38,6.66.15,14.3-3.24,15.11-10.59.17-1.55-1.42-2.84-2.84-2.84-1.68,0-2.68,1.3-2.85,2.84.16-1.49-.03-.07-.17.36-.04.16-.1.31-.16.46.37-.95.04-.12-.06.1-.1.19-.21.38-.32.56-.1.16-.7.96-.17.29-.38.48-.81.91-1.29,1.3.55-.46-.23.16-.35.24-.35.23-.72.43-1.1.61-.3.14-.32.15-.07.04-.18.07-.36.13-.54.2-.49.17-.99.31-1.49.42-1.07.25-2.1.31-3.29.33-1.05.01-2.03-.06-2.92-.23-.41-.08-.81-.19-1.21-.3-.18-.06-.36-.12-.55-.18-.85-.29.45.22-.33-.13-.31-.14-.6-.3-.89-.47-.14-.08-.28-.17-.41-.25-.64-.43.43.36-.15-.1-.27-.22-.52-.47-.76-.72-.09-.1-.18-.2-.27-.3-.44-.51.36.51-.02-.02-.29-.41-.54-.86-.75-1.32-.22-.47.26.7.01,0-.07-.2-.14-.41-.19-.61-.08-.28-.14-.57-.18-.84-.05-.28.08.94.05.34-.17-3.65-5.87-3.67-5.69,0h0Z"/>
    </g>
    <g>
      <path class="st3" d="M157.81,32.35c8.8,5.66,13.73,13.68,11.01,17.9-2.72,4.22-12.05,3.05-20.85-2.62-8.8-5.67-13.73-13.68-11.01-17.9,2.72-4.22,12.05-3.05,20.85,2.62Z"/>
      <path class="st3" d="M176.46,56.33c-.62,1.84-2.62,2.82-4.45,2.2-1.83-.62-2.82-2.61-2.2-4.44.62-1.83,2.62-2.82,4.45-2.21,1.84.62,2.82,2.61,2.2,4.45Z"/>
    </g>
    <g>
      <g>
        <path class="st11" d="M140.4,263.97c-2.16-8.79.52-23.43.52-23.43l-5.77.6s-.72,19.8-20,19.8h-.31c-19.29,0-20-19.8-20-19.8l-5.77-.6s2.67,14.65.51,23.43c-2.16,8.79-11.27,11.88-11.27,11.88h73.36s-9.11-3.1-11.27-11.88Z"/>
        <path d="M146.63,262.25c-.13-.52-.23-1.04-.33-1.56-.31-1.75.16,1.51-.05-.29-.14-1.29-.2-2.59-.23-3.88-.05-2.47.08-4.93.27-7.39.08-1.04.19-2.07.31-3.1.05-.46.1-.91.16-1.37.06-.52.23-1.64-.1.74.04-.22.06-.44.1-.66.11-.84.24-1.66.39-2.48.32-1.77.29-3.38-.65-4.98-1.06-1.81-3.38-3.43-5.58-3.2-1.93.2-3.84.4-5.77.59-3.61.38-6.32,2.66-6.47,6.47,0,.25-.03.51-.05.76-.02.14-.03.29-.05.42-.12.99.29-2.12.14-1.1-.06.42-.14.84-.22,1.25-.2,1.01-.45,2-.76,2.97-.18.59-.4,1.18-.63,1.77-.28.71.83-1.88.18-.45-.14.31-.29.62-.44.92-.29.56-.62,1.11-.95,1.65-.2.31-.4.61-.62.91-.83,1.16,1.11-1.36.19-.25-.49.59-1.02,1.14-1.59,1.67-.29.28-.59.53-.91.78,1.86-1.51.59-.47.12-.14-.64.43-1.32.8-2.01,1.14-1.41.69,1.54-.59.05-.02-.44.17-.89.3-1.35.44-.47.14-.95.25-1.44.35-.53.12-2.48.38-.14.08-1.06.14-2.14.2-3.2.18,2.15,2.15,4.31,4.3,6.45,6.46h0c0-3.46-2.93-6.55-6.45-6.46h-.02c-3.53-.08-6.46,3-6.46,6.46h0c2.15-2.15,4.31-4.31,6.46-6.46-.96.02-1.93-.05-2.88-.14-.69-.09-.43-.05.76.11-.31-.05-.61-.1-.92-.16-.49-.09-.98-.21-1.46-.34-.46-.12-.91-.27-1.36-.43-.17-.06-.35-.13-.51-.19-1.07-.4,1.56.69.54.23-.77-.36-1.52-.79-2.25-1.26-.28-.18-.54-.38-.8-.57,1.92,1.42.62.47.19.1-.58-.51-1.11-1.07-1.62-1.66-.09-.12-.2-.23-.29-.35-.65-.79,1.07,1.42.46.61-.22-.29-.43-.6-.63-.91-.39-.59-.74-1.21-1.07-1.83-.32-.61-1.25-2.83-.2-.29-.24-.58-.46-1.18-.65-1.78-.34-1.02-.61-2.08-.82-3.14-.08-.38-.14-.76-.2-1.14-.18-1.19.24,1.82.14,1.08-.02-.14-.04-.29-.05-.44-.03-.28-.06-.56-.06-.84-.16-3.8-2.86-6.09-6.47-6.47-1.92-.2-3.84-.4-5.77-.59-1.62-.17-3.47.79-4.58,1.89-1.73,1.74-2.08,3.96-1.66,6.29.11.63.21,1.26.31,1.88.04.27.08.54.12.81.21,1.46-.25-1.85-.05-.29.13.95.24,1.91.33,2.86.45,4.49.65,9.06.1,13.56.27-2.24.06-.57-.02-.08-.1.54-.22,1.07-.36,1.6-.15.57-.35,1.13-.57,1.67.79-2.03.03-.2-.22.27-.27.47-.56.92-.87,1.36-.39.53-.24.34.45-.57-.19.24-.39.47-.59.7-.63.71-1.33,1.36-2.06,1.96-.83.69,1.48-1.09.27-.21-.33.23-.66.46-1,.67-.57.38-1.17.71-1.78,1.02-.95.48-1.86.81.17-.02-.14.06-.3.13-.45.18-2.75.94-4.75,3.22-4.75,6.23,0,3.52,2.94,6.46,6.46,6.46h73.36c2.87,0,5.47-1.97,6.23-4.74.98-3.55-1.19-6.8-4.51-7.95-.1-.03-.2-.07-.3-.11-.52-.21-1.29-.56,1.09.46-.21-.09-.43-.19-.64-.29-1.13-.54-2.21-1.18-3.23-1.91-1.24-.87,1.1.88.27.21-.28-.23-.57-.47-.84-.72-.66-.6-1.25-1.25-1.81-1.94,1.37,1.67.38.47.09.05-.3-.45-.57-.93-.83-1.41-.8-1.52.38,1.06-.04-.01-.21-.55-.38-1.13-.53-1.7-.88-3.41-4.59-5.43-7.95-4.51-3.43.95-5.4,4.54-4.51,7.95,1.99,7.69,8.34,13.84,15.78,16.39.57-4.23,1.14-8.46,1.71-12.7h-73.36c.57,4.24,1.14,8.47,1.71,12.7,7.98-2.74,14.6-9.56,16.11-17.96,1.49-8.29.65-17.07-.84-25.3-2.08,2.72-4.16,5.44-6.23,8.17,1.92.2,3.84.4,5.77.6-2.15-2.15-4.31-4.31-6.46-6.46.17,4.65,1.62,9.36,3.8,13.44,4.48,8.37,13.45,12.98,22.81,12.83,3.52-.06,6.46-2.9,6.46-6.46h0c-2.15,2.15-4.31,4.31-6.46,6.46h.02c-2.16-2.15-4.31-4.31-6.46-6.46h0c0,3.56,2.93,6.41,6.46,6.46,9.43.16,18.24-4.48,22.8-12.83,2.21-4.03,3.62-8.82,3.8-13.44-2.15,2.15-4.31,4.31-6.46,6.46,1.93-.2,3.84-.4,5.77-.6-2.07-2.73-4.16-5.46-6.23-8.17-1.58,8.65-2.58,18.21-.52,26.87.81,3.42,4.64,5.42,7.95,4.51,3.48-.96,5.32-4.52,4.51-7.95Z"/>
      </g>
      <path class="st13" d="M140.4,263.97c-2.16-8.79.52-23.43.52-23.43l-5.77.6s-.72,19.8-20,19.8h-.31c-19.29,0-20-19.8-20-19.8l-5.77-.6s2.67,14.65.51,23.43c-2.16,8.79-11.27,11.88-11.27,11.88h73.36s-9.11-3.1-11.27-11.88Z"/>
      <path class="st5" d="M114.85,262.88c.05,0,.1,0,.16,0h.02c.06,0,.1,0,.16,0,20.42,0,22.25-19.83,22.39-21.99l-2.4.25s-.71,19.8-20,19.8h-.3c-19.29,0-20-19.8-20-19.8l-2.41-.25c.14,2.16,1.97,21.99,22.39,21.99Z"/>
    </g>
    <path class="st13" d="M79.26,283.01l-.95-7.16s22.65-1.97,37.56-1.97,37.13,1.97,37.13,1.97l-2.18,7.38s-9.53,3.44-35.98,3.44-35.57-3.67-35.57-3.67Z"/>
  </g>
  <g>
    <g>
      <rect class="st9" x="52.16" y="243.19" width="17.57" height="7.75" transform="translate(-189.24 293.55) rotate(-86.67)"/>
      <path d="M59.16,255.61c.34-5.85.68-11.7,1.02-17.54-.87.86-1.73,1.73-2.59,2.59,2.58.15,5.16.3,7.74.45-.87-.86-1.73-1.73-2.59-2.59-.34,5.85-.68,11.7-1.02,17.54.86-.86,1.72-1.72,2.58-2.58-2.58-.15-5.16-.3-7.74-.46-3.34-.19-3.31,4.98,0,5.17,2.58.16,5.16.31,7.74.46,1.47.09,2.5-1.24,2.58-2.59.35-5.85.69-11.69,1.03-17.54.08-1.47-1.25-2.51-2.59-2.59-2.59-.15-5.16-.3-7.74-.45-1.47-.09-2.5,1.25-2.59,2.59-.34,5.85-.68,11.7-1.03,17.54-.19,3.33,4.98,3.31,5.18,0Z"/>
    </g>
    <polygon class="st10" points="59.38 252.84 60.04 240.81 60.81 240.85 60.16 252.88 59.38 252.84"/>
  </g>
  <path class="st10" d="M79.89,242.25s-4.39-.7-6.99-.87-5.11-.32-5.11-.32l-.81,13.96,2.68-11.76h4.17l5.64.4.41-1.4Z"/>
  <g>
    <g>
      <rect class="st9" x="151.44" y="253.45" width="17.58" height="7.75" transform="translate(-108.81 117.65) rotate(-30.65)"/>
      <path d="M155.95,267.38c5.04-2.99,10.08-5.98,15.11-8.97,1.21-.71,1.65-2.32.93-3.54-1.32-2.22-2.63-4.44-3.96-6.67-.71-1.2-2.31-1.65-3.54-.92-5.03,2.98-10.07,5.97-15.11,8.96-1.21.72-1.65,2.31-.92,3.54,1.32,2.22,2.63,4.45,3.96,6.67,1.69,2.86,6.17.27,4.46-2.6-1.32-2.23-2.64-4.45-3.96-6.67-.32,1.18-.62,2.36-.93,3.54,5.04-2.99,10.08-5.98,15.12-8.96-1.18-.31-2.36-.62-3.54-.93,1.32,2.22,2.64,4.45,3.95,6.67.31-1.18.62-2.36.93-3.54-5.04,2.99-10.08,5.97-15.12,8.96-2.86,1.7-.27,6.17,2.61,4.47Z"/>
    </g>
    <polygon class="st10" points="155.81 261.37 166.19 255.27 165.81 254.59 155.42 260.7 155.81 261.37"/>
  </g>
  <path class="st10" d="M153.87,238.3s2.48,3.08,3.91,5.25c1.44,2.18,3.58,5.51,3.58,5.51l-7.76,4.7,5.26-5.06s-.86-1.53-2.54-4.34c-1.68-2.79-3.92-5.77-3.92-5.77l1.47-.29Z"/>
  <g>
    <g>
      <path class="st11" d="M126.62,270.09h-23.31s0,10.82,11.65,10.82,11.66-10.82,11.66-10.82Z"/>
      <path d="M126.62,264.92h-23.31c-2.81,0-5.18,2.35-5.17,5.17.01,2.79.9,5.66,2.21,8.11,2.89,5.36,8.74,7.82,14.61,7.88,5.88.06,11.49-2.56,14.51-7.71,1.41-2.41,2.3-5.48,2.31-8.28.01-2.82-2.36-5.17-5.17-5.17s-5.16,2.35-5.17,5.17c0,.12,0,.22-.01.35-.01.13-.02.27-.04.4-.1,1.06.24-1.56.09-.59-.09.54-.22,1.07-.37,1.59-.08.28-.18.55-.28.82-.38,1.05.65-1.34,0-.02-.15.29-.32.58-.49.87-.12.18-.23.35-.35.52-.51.73.86-1.06.28-.37-.24.28-.5.55-.77.8-.17.16-.34.31-.53.45,1.28-1.04.59-.47.27-.24-.35.23-.73.43-1.11.62-.91.45,1.21-.47.24-.1-.28.09-.55.17-.83.25-.49.15-1,.24-1.51.32,1.69-.27-.61-.01-1.06,0-.59,0-1.18-.03-1.78-.09,1.64.16-.12-.05-.51-.14-.47-.11-.92-.27-1.38-.43,1.65.61,0-.05-.4-.28-.14-.09-.28-.18-.42-.27-.8-.54,1.02.82.29.22-.34-.28-.66-.61-.97-.94-.85-.94.73,1.05.02.04-.23-.33-.43-.68-.62-1.04-.22-.41-.72-1.64.04.2-.14-.33-.25-.66-.36-1-.17-.53-.29-1.07-.4-1.63-.2-1.12.16,1.25.09.67-.02-.18-.04-.36-.05-.53-.02-.14-.02-.28-.02-.42-1.73,1.72-3.44,3.44-5.17,5.17h23.31c2.82,0,5.17-2.36,5.17-5.17s-2.35-5.17-5.17-5.17Z"/>
    </g>
    <path class="st9" d="M126.62,270.09h-23.31s0,10.82,11.65,10.82,11.66-10.82,11.66-10.82Z"/>
    <path class="st10" d="M114.96,278.06c-7.79,0-10.59-4.64-11.59-7.97h-.06s0,10.82,11.65,10.82,11.66-10.82,11.66-10.82h-.06c-1,3.32-3.8,7.97-11.59,7.97Z"/>
  </g>
  <path class="st14" d="M91.17,240.76l-2.11-.22s2.67,14.65.51,23.43c-2.16,8.79-11.27,11.88-11.27,11.88l.95,7.16-.14,7.75s-.47,7.75,1.6,7.94c2.07.2,6.11-3.42,6.11-3.42,0,0-4.47,1.56-5.38,1.37-.9-.2-.87-5.89-.87-5.89l.3-7.49-.46-6.58,2.33-1.19c2.94-1.63,7.46-5.03,8.91-10.95,2.05-8.37-.17-21.92-.5-23.79Z"/>
  <path class="st5" d="M138.73,240.76l2.11-.22s-2.68,14.65-.52,23.43c2.16,8.79,12.73,11.93,12.73,11.93l-2.19,7.54.33,8.14s.28,8.14-1.78,8.34c-2.07.2-6.59-3.28-6.59-3.28,0,0,5.02,1.5,5.93,1.3.91-.19.56-7.18.56-7.18l-.3-7.49,1.7-6.05-3.56-1.72c-2.94-1.63-7.46-5.03-8.92-10.95-2.05-8.37.17-21.92.5-23.79Z"/>
  <g>
    <g>
      <g>
        <g>
          <polygon class="st11" points="23.27 300.9 52.63 301.4 52.68 301.4 82.04 301.9 73.78 290.71 52.84 290.45 31.9 290 23.27 300.9"/>
          <path d="M23.27,306.72c10.51.17,21.01.36,31.51.53,9.09.16,18.17.31,27.25.46,4.08.07,7.7-5.12,5.02-8.75-1.85-2.51-3.7-5.02-5.55-7.53-.85-1.16-1.71-2.32-2.58-3.49-1.32-1.79-2.82-3.03-5.17-3.06-.28,0-.57,0-.85,0-6.62-.08-13.24-.16-19.87-.24-6.05-.08-12.1-.27-18.15-.39-.97-.02-1.94-.04-2.92-.06-2.58-.05-3.9,1.35-5.27,3.08-2.32,2.93-4.63,5.85-6.95,8.77-.2.26-.4.51-.59.76-1.96,2.48-2.43,5.79,0,8.23,2.04,2.04,6.25,2.49,8.23,0,2.88-3.64,5.75-7.27,8.63-10.9-1.37.56-2.74,1.13-4.11,1.7,11.89.26,23.78.49,35.67.63,2.07.03,4.14.05,6.21.08-1.67-.96-3.34-1.92-5.02-2.89,2.75,3.73,5.5,7.46,8.25,11.19,1.67-2.91,3.35-5.83,5.02-8.75-10.5-.18-21-.36-31.51-.54-9.09-.16-18.17-.31-27.25-.46-3.17-.05-5.82,2.69-5.82,5.82s2.65,5.76,5.82,5.81Z"/>
        </g>
        <polygon class="st9" points="23.27 300.9 52.63 301.4 52.68 301.4 82.04 301.9 73.78 290.71 52.84 290.45 31.9 290 23.27 300.9"/>
        <polygon class="st10" points="52.73 298.76 52.67 298.76 25.33 298.29 23.27 300.9 52.63 301.4 52.68 301.4 82.04 301.9 80.07 299.22 52.73 298.76"/>
        <polygon class="st13" points="82.04 301.9 73.78 290.71 64.08 290.55 72.34 301.73 82.04 301.9"/>
        <polygon class="st5" points="70.36 299.06 72.34 301.75 82.04 301.9 80.07 299.23 70.36 299.06"/>
        <polygon class="st13" points="23.27 300.9 31.9 290 41.6 290.17 32.97 301.06 23.27 300.9"/>
      </g>
      <g>
        <g>
          <g>
            <path class="st11" d="M52.97,282.75c.69.01,1.26-.81,1.29-1.84l.06-3.89.02-1.55.53-31.13c.01-1.03-.53-1.88-1.23-1.89-.69-.02-1.27.81-1.28,1.84l-.53,31.14-.04,2.77-.05,2.68c-.02,1.03.53,1.87,1.22,1.88Z"/>
            <path d="M52.97,288.57c2.09-.28,3.2-.76,4.82-2.01,1.06-.81,1.76-2.47,2.04-3.73.28-1.23.25-2.49.27-3.74.02-1.22.04-2.44.06-3.67.03-2.21.08-4.41.1-6.62.13-7.54.26-15.07.39-22.6.01-.62.02-1.25.03-1.87.04-2.48-1.25-5.62-3.62-6.77-1.67-.8-3.37-1.21-5.22-.7-1.84.51-3.34,1.82-4.28,3.45-1.43,2.46-1.06,6.02-1.11,8.79-.13,7.7-.26,15.4-.39,23.11-.02,1.26-.05,2.52-.07,3.78-.02,1.18-.04,2.35-.06,3.53-.02,1.13-.02,2.11.2,3.26.48,2.52,2.64,5.13,5.27,5.58,3.12.52,6.25-.78,7.15-4.06.77-2.82-.93-6.63-4.06-7.16,1.63.27,2.97,2.19,3.05,3.73,0-.08,0-.17,0-.25,0-.45.02-.89.03-1.35,0-.62.02-1.25.03-1.88.02-.84.03-1.67.04-2.51.05-2.79.09-5.59.15-8.39.12-7.15.24-14.29.36-21.44,0-.21,0-.43.01-.63v-.13c-.02,1.11-.73,2.71-1.85,3.2-.98.27-1.96.53-2.94.8-2.01.27-4.37-2.08-4.33-3.94,0,.07,0,.14,0,.2,0,.35,0,.7-.01,1.05-.03,1.31-.05,2.63-.07,3.94-.07,4.01-.14,8.03-.21,12.04-.09,5.43-.18,10.87-.27,16.31-.01.72-.02,1.44-.04,2.17,0,.25,0,.51,0,.78,0-.78.72-2.63,1.84-3.12.98-.27,1.96-.53,2.93-.79-.08,0-.17.02-.25.03-1.62.21-2.92.51-4.12,1.71-1.08,1.09-1.7,2.57-1.7,4.11,0,2.85,2.66,6.23,5.82,5.82Z"/>
          </g>
          <path class="st3" d="M52.97,282.75c.69.01,1.26-.81,1.29-1.84l.06-3.89.02-1.55.53-31.13c.01-1.03-.53-1.88-1.23-1.89-.69-.02-1.27.81-1.28,1.84l-.53,31.14-.04,2.77-.05,2.68c-.02,1.03.53,1.87,1.22,1.88Z"/>
        </g>
        <g>
          <g>
            <path class="st11" d="M54.92,241.68l.14-8.41c.02-1.03-.53-1.88-1.22-1.88-.69-.02-1.27.81-1.29,1.84l-.14,8.42,2.51.04Z"/>
            <path d="M60.74,241.68c.04-1.95.06-3.89.1-5.84.02-.84.03-1.69.05-2.53.02-1.55-.42-2.95-1.14-4.3-1.01-1.89-3.68-3.73-5.9-3.44-1.92.25-3.7.69-5.01,2.23-1.33,1.57-2.05,3.35-2.09,5.43-.02.78-.02,1.55-.04,2.33-.04,2.03-.07,4.05-.1,6.08-.05,3.21,2.68,5.76,5.82,5.82.84.01,1.67.02,2.51.04,3.17.05,5.82-2.68,5.82-5.82s-2.64-5.76-5.82-5.81c-.83-.01-1.67-.03-2.51-.04,1.93,1.93,3.88,3.87,5.82,5.81.02-1.54.05-3.06.08-4.6.01-.97.03-1.94.05-2.91,0-.25.01-.5.02-.75v-.15c-.02,1.12-.73,2.71-1.85,3.21-.98.27-1.96.53-2.93.79-2.12.28-4.36-2.3-4.34-3.87,0,.28-.02.55-.02.82-.01.97-.04,1.95-.05,2.92-.03,1.53-.05,3.06-.08,4.59-.05,3.17,2.69,5.82,5.81,5.82s5.77-2.64,5.82-5.82Z"/>
          </g>
          <path class="st13" d="M54.92,241.68l.14-8.41c.02-1.03-.53-1.88-1.22-1.88-.69-.02-1.27.81-1.29,1.84l-.14,8.42,2.51.04Z"/>
          <path class="st14" d="M54.4,233.26l-.14,8.42h.66s.14-8.41.14-8.41c.02-1.03-.53-1.88-1.22-1.88-.12,0-.22.02-.34.05.53.23.91.96.9,1.82Z"/>
          <path class="st5" d="M53.22,233.23l-.14,8.42h-.66s.14-8.43.14-8.43c.02-1.03.59-1.85,1.29-1.84.12,0,.22.02.33.07-.54.21-.94.92-.95,1.78Z"/>
        </g>
      </g>
      <g>
        <path class="st4" d="M24.48,285.07c.02-1.3,1.1-2.35,2.4-2.33l52.16.88c1.3.02,2.35,1.1,2.32,2.41h0c-.02,1.3-1.09,2.35-2.4,2.32l-52.16-.88c-1.31-.02-2.35-1.1-2.33-2.4h0Z"/>
        <path d="M79.01,289.57h-.06l-52.16-.88c-.95-.02-1.84-.4-2.51-1.09-.67-.68-1.02-1.59-1.01-2.54.03-1.94,1.63-3.52,3.57-3.52l52.23.88c.96.02,1.85.41,2.51,1.1.66.69,1.02,1.59,1,2.54-.03,1.93-1.63,3.5-3.57,3.5ZM26.86,283.96c-.65,0-1.16.51-1.17,1.13,0,.31.11.61.32.83.21.22.5.34.81.35l52.16.88.02,1.21v-1.21c.63,0,1.14-.49,1.15-1.13,0-.31-.11-.6-.32-.83-.22-.22-.5-.35-.81-.36l-52.16-.88h0Z"/>
      </g>
      <g>
        <path class="st4" d="M64.29,286.87c-.06-6.15-5.01-11.18-11.2-11.29-6.19-.1-11.31,4.74-11.57,10.9l22.77.39Z"/>
        <path d="M65.51,288.1l-25.25-.43.05-1.24c.29-6.76,5.82-12.06,12.59-12.06,7.09.12,12.53,5.61,12.59,12.48v1.24ZM42.85,285.3l20.14.34c-.64-4.96-4.79-8.76-9.93-8.85h0c-5.21,0-9.41,3.64-10.21,8.5Z"/>
      </g>
    </g>
    <polygon class="st5" points="35.17 298.46 33.1 301.07 23.39 300.9 25.47 298.29 35.17 298.46"/>
  </g>
  <g>
    <g>
      <path d="M42.46,248.21c-.53-10.79,12.78-8.45,12.78-1.09,0,7.36-12.17,13.36-12.78,1.09"/>
      <path d="M48.92,248.21c-.02-.51-.02-1.02.02-1.52.08-1.18-.29,1.75-.08.63.05-.25.12-.48.19-.73.41-1.42-.79,1.52-.12.28.1-.19.23-.36.35-.54-1.21,1.73-.88,1.1-.48.69.92-.96-1.49,1-.39.28.17-.11.33-.19.5-.28.85-.43-1.73.68-.83.36.31-.1.62-.17.94-.22-2.52.43-1.08.14-.36.16,1.36.05-1.89-.35-.55-.07.39.07.77.2,1.14.33-2.26-.84-1.02-.46-.46-.14.17.1.34.21.5.32.81.54-1.42-1.15-.68-.53.25.21.47.46.69.71-1.55-1.79-.58-.79-.24-.16.27.57.13.24-.4-.99.07.19.13.39.18.58.14.52.23,1.54-.08-.89.02.21.03.43.03.65,0,.14,0,.29-.01.43-.05,1.03.3-1.87.13-.86-.08.43-.21.84-.36,1.25.81-2.24.42-.94.11-.38-.3.55-1.39,1.9.16-.06-.22.28-.47.54-.73.8-.15.15-.3.3-.47.43-.75.66,1.44-1.07.65-.49-.28.21-.58.39-.88.55-.17.1-.36.19-.54.27,2.04-.96,1.33-.54.81-.36-.3.1-.61.18-.92.24,2.45-.46,1.18-.13.43-.16-.76-.05,2.1.46.67.02-.88-.27,1.71.79.88.36-.17-.08-.31-.18-.46-.29,1.88,1.3.91.74.46.2,1.52,1.8.51.63.2-.04,1.02,2.18.22.41.08-.26-.1-.47-.23-1.66.03.47-.04-.35-.06-.7-.07-1.04-.21-3.52-2.79-6.47-6.47-6.47-3.37,0-6.67,2.95-6.46,6.47.22,3.84,1.17,7.19,3.69,10.15,1.91,2.26,5.28,3.49,8.19,3.34,6.21-.33,10.93-4.75,13.12-10.33,2.23-5.71-.7-12.29-5.87-15.18-4.92-2.75-12.1-2.45-15.88,2.15-2.32,2.84-3.39,6.18-3.26,9.87.13,3.52,2.85,6.46,6.46,6.46,3.42,0,6.59-2.94,6.47-6.46h0Z"/>
    </g>
    <path class="st0" d="M42.46,248.21c-.53-10.79,12.78-8.45,12.78-1.09,0,7.36-12.17,13.36-12.78,1.09"/>
    <path class="st6" d="M43.38,248.14c-.23-4.68,2.15-6.89,4.92-7.28-3.14,0-6.1,2.15-5.84,7.35.28,5.66,3.01,7.42,5.88,6.97-2.51-.05-4.71-2-4.96-7.04Z"/>
    <path class="st12" d="M45.95,241.31c2.82.62,5.37,2.87,5.37,6.09s-2.51,6.41-5.31,7.6c3.78,1.35,9.22-2.96,9.22-7.88s-5.49-7.38-9.28-5.81Z"/>
  </g>
</svg>