<?xml version="1.0" encoding="UTF-8"?>
<svg id="Layer_1" xmlns="http://www.w3.org/2000/svg" version="1.1" viewBox="0 0 291.91 334.13">
  <!-- Generator: Adobe Illustrator 29.6.1, SVG Export Plug-In . SVG Version: 2.1.1 Build 9)  -->
  <defs>
    <style>
      .st0 {
        fill: #ffc325;
      }

      .st1 {
        fill: #ffd7c3;
      }

      .st2 {
        fill: #ffce00;
      }

      .st3 {
        fill: #0b397c;
      }

      .st4 {
        fill: #000002;
      }

      .st5 {
        fill: #fff4c7;
      }

      .st6 {
        fill: #0378be;
      }

      .st7 {
        fill: #ffb000;
      }

      .st8 {
        fill: #ff9d00;
      }

      .st9 {
        fill: #ffe18d;
      }

      .st10 {
        fill: #055b96;
      }

      .st11 {
        fill: #f38b9e;
      }

      .st12 {
        fill: #fff;
      }

      .st13 {
        fill: #fdc361;
      }

      .st14 {
        fill: #aee8ff;
      }

      .st15 {
        fill: #fde5d2;
      }

      .st16 {
        fill: #ffebde;
      }

      .st17 {
        fill: #81ccf2;
      }

      .st18 {
        fill: #ffc0a4;
      }

      .st19 {
        fill: #002b5e;
      }

      .st20 {
        fill: #00456b;
      }

      .st21 {
        fill: #e6e7e8;
      }

      .st22 {
        fill: #1a4591;
      }

      .st23 {
        fill: #ffd401;
      }
    </style>
  </defs>
  <g>
    <g>
      <path class="st1" d="M103.85,243.2s-30.96,36.77-17.52,44.69c13.43,7.93,32.23-26.43,32.23-26.43l-14.71-18.26Z"/>
      <path d="M101.05,240.4c-3.73,4.44-7.19,9.14-10.44,13.94-5.09,7.52-10.29,15.93-11.5,25.09-.49,3.76.47,7.95,3.39,10.54,3.56,3.15,8.55,3.79,12.95,2.21,4.59-1.65,8.46-4.9,11.81-8.37,3.44-3.55,6.44-7.53,9.23-11.59,1.95-2.82,3.82-5.74,5.47-8.75.92-1.7.53-3.36-.62-4.79-4.9-6.09-9.81-12.17-14.7-18.26-1.35-1.68-4.19-1.4-5.59,0-1.64,1.64-1.35,3.91,0,5.59,4.9,6.09,9.81,12.17,14.71,18.26-.21-1.6-.42-3.2-.62-4.79-.94,1.71-1.97,3.37-3.01,5.02-1.08,1.7-2.2,3.38-3.36,5.03-.63.9-1.28,1.79-1.94,2.66-.17.23-.34.45-.51.68.63-.83.03-.05-.09.1-.42.54-.84,1.05-1.27,1.57-1.53,1.85-3.16,3.62-4.9,5.29-.8.76-1.63,1.5-2.49,2.19-.73.59.7-.52-.04.04-.21.16-.42.31-.64.46-.48.34-.98.66-1.49.97-.42.25-.85.49-1.28.71-.22.12-.43.21-.64.31-.78.36.87-.35.09-.04-.42.17-.85.3-1.28.43-.38.11-2.08.36-.65.19-.42.05-.84.06-1.26.05-.21,0-.42-.02-.63-.05,1.27.11.54.08.23.02-.42-.08-.82-.21-1.22-.35-.76-.27.88.41.15.05-.26-.12-.51-.27-.76-.42-1.03-.63.48.46-.19-.13-.25-.22-.48-.48-.7-.74.9,1.1.16.17-.02-.17-.57-1.03.25.83-.11-.3-.11-.34-.18-.68-.24-1.02-.13-.72.12,1.07.05.33-.02-.18-.03-.37-.04-.55-.02-.38-.02-.77,0-1.16.02-.37.23-2.03.03-.58.27-1.92.86-3.78,1.53-5.59.18-.48.37-.95.56-1.43-.46,1.13.22-.47.34-.74.49-1.08,1.02-2.14,1.55-3.19,2.14-4.13,4.65-8.06,7.28-11.89,1.17-1.71,2.38-3.39,3.61-5.05.51-.69,1.03-1.37,1.55-2.05.12-.15.24-.31.35-.46.46-.6-.61.78-.16.2.25-.32.49-.63.74-.95.77-.98,1.55-1.96,2.35-2.91,1.38-1.65,1.62-3.97,0-5.59-1.42-1.42-4.2-1.65-5.59,0Z"/>
    </g>
    <path class="st12" d="M104.56,263.79l3.03-10.25-3.57-4.49s-5.91,7.34-7.89,10.44l8.43,4.3Z"/>
    <path class="st21" d="M104.65,263.63l-4.99-5.73c1.39-2.04,3.82-5.19,5.53-7.36l-1.17-1.48s-5.91,7.34-7.89,10.44c-1.98,3.09.32,3.73,2.42.16l6.1,3.97Z"/>
    <g>
      <rect class="st4" x="94.63" y="253.56" width="7.69" height="21.94" transform="translate(-177.15 203.67) rotate(-57.13)"/>
      <path d="M105.83,274.82l-19.78-12.78,5.05-7.81,19.78,12.78-5.05,7.81ZM88.28,261.56l17.07,11.03,3.3-5.1-17.07-11.03-3.3,5.1Z"/>
    </g>
  </g>
  <g>
    <g>
      <path class="st1" d="M188.58,243.3s30.96,36.77,17.52,44.7c-13.43,7.93-32.23-26.44-32.23-26.44l14.71-18.27Z"/>
      <path d="M185.79,246.1c1.06,1.26,2.08,2.56,3.09,3.86.44.58-.62-.8-.16-.21.12.16.24.31.36.47.25.33.5.66.75.99.6.79,1.18,1.59,1.76,2.38,1.27,1.74,2.51,3.5,3.7,5.29,2.6,3.87,5.04,7.86,7.08,12.05.24.49.47.97.7,1.46.12.27.8,1.87.34.75.42,1,.8,2.02,1.13,3.05.29.88.53,1.78.73,2.69.09.43.17.86.23,1.29-.22-1.45,0,.21.02.58.02.38.02.77,0,1.15,0,.19-.02.38-.03.56-.06.74.17-1.06.05-.33-.06.35-.14.68-.24,1.02-.33,1.14.42-.75-.11.3-.17.33-.91,1.32-.02.17-.21.27-.44.51-.69.73-.67.62.83-.52-.2.13-.18.12-.37.22-.55.32-.95.51.57-.2-.05.05-.4.15-.81.26-1.22.35-.29.06-1.06.13.23-.01-.21.02-.42.03-.63.04-.42.02-.84,0-1.26-.05,1.43.14-.26-.08-.64-.18-.44-.12-.86-.27-1.28-.42-.79-.3.87.39.09.04-.21-.1-.43-.2-.64-.31-.97-.48-1.88-1.07-2.77-1.69-.22-.15-.43-.31-.63-.46-.74-.55.69.55-.05-.04-.43-.34-.84-.69-1.25-1.05-.92-.81-1.79-1.66-2.66-2.54-1.69-1.73-3.25-3.57-4.75-5.46-.12-.14-.72-.92-.08-.1-.18-.22-.35-.45-.52-.68-.34-.45-.67-.89-1-1.34-.68-.93-1.34-1.87-1.99-2.82-1.06-1.55-2.08-3.12-3.07-4.72-.78-1.26-1.55-2.53-2.26-3.83-.2,1.6-.41,3.19-.62,4.79,4.9-6.09,9.81-12.18,14.7-18.27,1.35-1.67,1.65-3.94,0-5.59-1.4-1.4-4.24-1.68-5.59,0-4.9,6.09-9.81,12.18-14.71,18.27-1.15,1.43-1.55,3.09-.62,4.79,3.13,5.72,6.93,11.15,11.05,16.21,5.43,6.66,14.08,15.51,23.64,12.9,4.06-1.11,7.35-4.42,8.03-8.62.68-4.2-.34-8.39-1.87-12.29-3.34-8.55-8.55-16.32-14-23.66-1.92-2.58-3.87-5.13-5.94-7.59-1.39-1.65-4.16-1.43-5.59,0-1.62,1.62-1.39,3.94,0,5.59Z"/>
    </g>
    <path class="st12" d="M187.87,263.9l-3.04-10.25,3.58-4.48s5.91,7.34,7.88,10.44l-8.43,4.3Z"/>
    <path class="st21" d="M187.78,263.73l4.99-5.73c-1.39-2.04-3.82-5.19-5.54-7.37l1.18-1.47s5.91,7.34,7.88,10.44c1.97,3.1-.33,3.73-2.42.16l-6.1,3.97Z"/>
    <g>
      <rect class="st4" x="182.99" y="260.79" width="21.94" height="7.69" transform="translate(-112.55 147.58) rotate(-32.86)"/>
      <path d="M186.59,274.93l-5.04-7.81,19.78-12.78,5.05,7.81-19.79,12.78ZM183.78,267.6l3.29,5.1,17.08-11.03-3.3-5.1-17.08,11.03Z"/>
    </g>
  </g>
  <g>
    <path class="st22" d="M177.66,251.02h-63.4s-12.39,68.72-3.97,71.67c8.43,2.95,16.23-10.48,16.23-10.48,0,0,6.2,1.89,16.95,2.22h0c.81.04,1.64.04,2.48.04.84,0,1.67,0,2.49-.03h0c10.75-.34,16.95-2.23,16.95-2.23,0,0,7.8,13.42,16.23,10.48,8.43-2.94-3.96-71.67-3.96-71.67Z"/>
    <path d="M177.66,247.06h-63.4c-1.64,0-3.5,1.19-3.82,2.9-2.42,13.42-4.39,26.97-5.81,40.53-.85,8.21-1.73,16.67-1.02,24.93.24,2.73.55,6.01,2.16,8.35,3.19,4.61,9.75,3.67,14.02,1.18,4.18-2.44,7.71-6.61,10.13-10.76-1.49.6-2.98,1.21-4.46,1.82,5.74,1.74,12.05,2.16,18.01,2.37-1.32-1.31-2.64-2.64-3.95-3.95h0c0,2.21,1.79,3.91,3.95,3.96,1.66.04,3.31.04,4.96,0,2.16-.05,3.95-1.76,3.95-3.95h0c-1.32,1.3-2.64,2.63-3.95,3.94,5.95-.2,12.26-.63,18-2.37-1.49-.61-2.97-1.21-4.46-1.82,1.89,3.23,4.42,6.32,7.3,8.71,4.19,3.46,11.03,6.24,15.78,2.19,2.23-1.9,2.7-5.38,3.06-8.09.46-3.47.44-6.99.33-10.48-.28-9.29-1.37-18.56-2.57-27.78-1.06-8.01-2.25-16-3.58-23.96-.27-1.61-.55-3.21-.83-4.82-.38-2.12-2.93-3.29-4.86-2.76-2.21.61-3.13,2.74-2.76,4.86.76,4.22,1.44,8.46,2.11,12.71.66,4.25,1.28,8.51,1.86,12.78.13.97-.12-.91.01.06.03.28.08.56.11.84.07.56.14,1.13.23,1.69.16,1.24.31,2.48.46,3.72.29,2.39.56,4.8.81,7.2.83,8.13,1.71,16.54.93,24.71-.03.35-.07.7-.12,1.04.19-1.54.03-.28-.03.08-.1.61-.24,1.22-.41,1.81-.08.24-.15.47-.23.71-.28.75.51-1.08.09-.23-.09.17-.19.35-.3.51-.38.57.85-.92.17-.27-.48.46,1.03-.68.36-.29-.42.24,1.13-.45.68-.28-.3.11-.61.18-.91.25-1,.24.85-.05-.15.02-.3.02-.6,0-.89-.01-1.01-.05.87.17-.12-.03-.39-.07-.77-.2-1.15-.32-.96-.32.76.37-.17-.06-.28-.13-.54-.28-.82-.43-.54-.3-1.05-.65-1.55-1.02.78.56-.06-.06-.18-.16-.24-.2-.48-.41-.71-.62-.53-.48-1.03-.99-1.52-1.51-.58-.62-1.13-1.27-1.67-1.93-.46-.57.5.68-.16-.2-.22-.29-.43-.6-.64-.89-.4-.57-.79-1.15-1.13-1.76-.88-1.5-2.78-2.33-4.47-1.81-1.4.42-2.86.7-4.29.96-.78.14-1.56.26-2.34.38-1.24.18.81-.1-.5.07-.57.07-1.13.13-1.7.2-2.35.25-4.71.4-7.07.48-2.16.07-3.95,1.74-3.95,3.95h0c1.31-1.3,2.63-2.63,3.95-3.94-1.65.05-3.31.05-4.96,0,1.32,1.32,2.63,2.64,3.95,3.96h0c0-2.22-1.8-3.89-3.95-3.96-2.36-.08-4.72-.24-7.08-.48-.43-.05-.86-.1-1.28-.14-.27-.03-.55-.07-.81-.1.4.05.37.05-.1-.02-.78-.11-1.56-.24-2.34-.38-1.44-.26-2.9-.54-4.29-.96-1.69-.51-3.59.31-4.47,1.81-.57.99-1.24,1.93-1.93,2.84-.53.7.57-.72,0,0-.17.21-.34.42-.51.63-.37.45-.76.88-1.15,1.3-.41.45-.84.88-1.29,1.3-.23.21-.46.42-.69.62-.14.12-1.21.96-.42.36-.5.38-1.02.7-1.56,1.02-.26.16-.54.29-.81.43-.91.46.78-.28-.17.06-.28.11-.57.18-.85.26-.21.06-1.2.2-.12.06-.3.04-.59.05-.89.05-.2,0-.4-.01-.6-.03.55.08.6.08.15,0-.79-.16-1.47-.62-.24.02-.69-.36.85.74.37.29-.64-.58.4.59.22.35-.13-.19-.25-.39-.35-.59-.43-.84.38.98.09.23-.09-.23-.16-.47-.23-.71-.17-.6-.3-1.2-.41-1.81-.06-.36-.24-1.62-.03-.08-.04-.35-.08-.69-.12-1.04-.08-.82-.13-1.66-.18-2.49-.18-3.97-.01-7.96.23-11.92.29-4.69.75-9.38,1.27-14.05.27-2.4.56-4.79.87-7.18.07-.56.15-1.13.22-1.69.03-.28.07-.56.11-.84.13-.97-.12.91.01-.06.16-1.18.32-2.37.49-3.55.94-6.66,1.99-13.31,3.13-19.95.11-.66.23-1.32.34-1.98-1.27.97-2.54,1.93-3.8,2.9h63.4c5.1,0,5.1-7.9,0-7.9Z"/>
  </g>
  <g>
    <g>
      <polygon class="st15" points="175.54 250.17 146.18 250.17 145.93 250.17 116.57 250.17 103.85 292.01 145.93 292.01 146.18 292.01 188.26 292.01 175.54 250.17"/>
      <path d="M175.54,242.27h-58.97c-3.59,0-6.6,2.43-7.63,5.8-4.05,13.33-8.1,26.66-12.16,40-.19.62-.38,1.23-.56,1.85-1.5,4.94,2.58,10,7.62,10h84.42c5.03,0,9.12-5.06,7.62-10-4.06-13.34-8.11-26.67-12.16-40-.18-.61-.38-1.23-.56-1.84-1.25-4.12-5.48-6.69-9.72-5.52-4.07,1.12-6.77,5.6-5.52,9.72,4.05,13.33,8.11,26.66,12.16,40,.19.61.37,1.23.56,1.84,2.54-3.34,5.08-6.67,7.63-10.01h-84.42c2.54,3.34,5.08,6.67,7.63,10.01,4.05-13.34,8.1-26.67,12.16-40,.18-.61.37-1.23.56-1.84-2.54,1.94-5.08,3.87-7.62,5.8h58.97c4.3,0,7.91-3.59,7.91-7.9s-3.6-7.9-7.91-7.9Z"/>
    </g>
    <polygon class="st12" points="175.54 250.17 146.18 250.17 145.93 250.17 116.57 250.17 103.85 292.01 145.93 292.01 146.18 292.01 188.26 292.01 175.54 250.17"/>
  </g>
  <polygon class="st21" points="116.04 251.83 103.85 292.01 137.02 292.01 109.93 288.05 116.04 251.83"/>
  <polygon class="st21" points="176.07 251.83 188.25 292.01 155.08 292.01 182.17 288.05 176.07 251.83"/>
  <polygon class="st19" points="111.65 299.9 111.37 304.87 180.38 304.87 180.09 299.9 111.65 299.9"/>
  <rect class="st4" x="142.79" y="249.24" width="6.33" height="43.99"/>
  <g>
    <g>
      <g>
        <path class="st15" d="M151.67,298.8c0,1-.74,1.82-1.66,1.82l-8.07.03c-.93,0-1.68-.81-1.68-1.81v-4.85c-.01-1.01.73-1.82,1.65-1.82l8.07-.02c.92,0,1.67.81,1.68,1.81v4.85Z"/>
        <path d="M146.64,298.8c.16-1.75,1.28-3.2,3.31-3.21-.17,0-.35,0-.52,0-.65,0-1.3,0-1.95,0-1.55,0-3.1,0-4.64.01-.31,0-.61,0-.91,0,2.06,0,3.35,1.72,3.35,3.13v-.79c0-1.32-.01-2.65-.01-3.98,0,1.75-1.63,3.2-3.31,3.2h.52c.65,0,1.3,0,1.95,0,1.55,0,3.09-.01,4.63-.02h.92c-2.06,0-3.35-1.72-3.36-3.14,0,.26,0,.53,0,.79,0,1.33,0,2.66.01,3.98,0,2.74,2.28,5.03,5.03,5.03s5.04-2.29,5.03-5.03c0-1.59,0-3.18-.01-4.77-.01-4.24-3.42-6.93-7.44-6.92-2,0-4.02.01-6.02.02-.55,0-1.1-.02-1.66.04-3.81.43-6.02,3.09-6.36,6.82-.14,1.56.01,3.2.01,4.76.02,4.24,3.42,6.94,7.45,6.92,2,0,4.01-.01,6.02-.02.55,0,1.1.02,1.65-.04,3.81-.43,6.03-3.09,6.36-6.82.24-2.74-2.47-5.03-5.03-5.03-2.93,0-4.79,2.3-5.03,5.03Z"/>
      </g>
      <path class="st2" d="M151.67,298.8c0,1-.74,1.82-1.66,1.82l-8.07.03c-.93,0-1.68-.81-1.68-1.81v-4.85c-.01-1.01.73-1.82,1.65-1.82l8.07-.02c.92,0,1.67.81,1.68,1.81v4.85Z"/>
      <path class="st4" d="M149.99,297.96v-3.15c0-.65-.54-1.18-1.19-1.18l-5.71.02c-.65,0-1.18.53-1.17,1.18v.59h2.67c.55-.01.99.43.99.97s-.44.99-.98.99h-2.67v.59c.01.65.53,1.18,1.19,1.18l5.7-.02c.65,0,1.17-.53,1.17-1.18Z"/>
      <g>
        <path class="st5" d="M149.68,294.03c.18.21.3.49.3.78v3.15c0,.65-.52,1.18-1.17,1.18l-5.7.02c-.13,0-.24-.02-.36-.05.22.24.53.4.89.4l5.7-.02c.65,0,1.18-.53,1.18-1.18v-3.15c-.01-.53-.36-.98-.84-1.13Z"/>
        <path class="st5" d="M145.12,295.76c.09,0,.16,0,.24.03-.18-.23-.46-.37-.77-.37h-2.14v.35h2.67Z"/>
        <path class="st5" d="M140.79,299.18v-4.84c-.02-1.01.73-1.82,1.65-1.83l8.07-.03c.21,0,.4.04.58.11-.3-.28-.68-.46-1.11-.45l-8.07.02c-.92,0-1.67.82-1.67,1.82v4.85c.02.78.48,1.45,1.12,1.7-.35-.33-.57-.81-.57-1.36Z"/>
      </g>
    </g>
    <g>
      <path class="st7" d="M148.63,293.11l-5.7.02c-.65,0-1.18.53-1.18,1.18v.59h.17v-.07c0-.65.52-1.18,1.17-1.18l5.71-.02c.42,0,.8.22,1.01.57-.05-.61-.56-1.09-1.18-1.09Z"/>
      <path class="st7" d="M141.94,298.07s-.01-.06-.01-.09v-.59h2.67c.54,0,.98-.45.98-1,0-.2-.07-.39-.17-.55v.03c0,.54-.43.99-.98.99h-2.67v.6c0,.22.06.43.18.61Z"/>
      <path class="st7" d="M151.67,298.8v-4.85c-.01-.31-.09-.6-.22-.86.02.11.03.22.03.33v4.85c.02,1-.72,1.82-1.65,1.82l-8.07.03c-.64,0-1.19-.38-1.47-.95.14.84.83,1.48,1.65,1.48l8.07-.03c.92,0,1.67-.82,1.66-1.82Z"/>
    </g>
  </g>
  <g>
    <g>
      <g>
        <g>
          <polygon class="st15" points="138.76 248.02 132.89 257.13 116.98 246.79 138.76 248.02"/>
          <path d="M133.79,245.11c-1.95,3.04-3.91,6.08-5.87,9.12,2.62-.69,5.24-1.38,7.87-2.06-5.31-3.45-10.6-6.9-15.9-10.35-.97,3.57-1.94,7.14-2.9,10.71,7.26.41,14.52.82,21.78,1.23,3.13.18,5.75-2.75,5.75-5.75,0-3.27-2.62-5.57-5.75-5.75-7.26-.41-14.51-.82-21.78-1.23-2.53-.15-4.89,1.86-5.54,4.21-.71,2.58.47,5.08,2.64,6.5,5.3,3.45,10.6,6.9,15.91,10.35,2.71,1.76,6.23.47,7.86-2.06,1.96-3.04,3.91-6.07,5.87-9.11,1.7-2.64.55-6.34-2.06-7.87-2.79-1.63-6.18-.56-7.87,2.06Z"/>
        </g>
        <polygon class="st12" points="138.76 248.02 132.89 257.13 116.98 246.79 138.76 248.02"/>
      </g>
      <polygon class="st21" points="116.98 246.79 132.89 257.13 138.76 248.02 136.42 247.87 132.02 254.46 116.98 246.79"/>
    </g>
    <g>
      <g>
        <g>
          <polygon class="st15" points="153.16 248.02 159.03 257.13 174.94 246.79 153.16 248.02"/>
          <path d="M148.19,250.92c1.96,3.04,3.91,6.07,5.87,9.11,1.63,2.54,5.15,3.83,7.86,2.06,5.31-3.45,10.61-6.9,15.91-10.35,2.18-1.42,3.35-3.91,2.64-6.5-.65-2.36-3.01-4.36-5.54-4.21-7.27.41-14.52.82-21.78,1.23-3.13.18-5.75,2.48-5.75,5.75,0,3,2.62,5.93,5.75,5.75,7.26-.41,14.52-.82,21.78-1.23-.97-3.57-1.94-7.14-2.91-10.71-5.3,3.45-10.6,6.9-15.91,10.35,2.62.69,5.25,1.38,7.87,2.06-1.96-3.04-3.91-6.08-5.87-9.12-1.69-2.62-5.07-3.69-7.87-2.06-2.61,1.53-3.76,5.23-2.06,7.87Z"/>
        </g>
        <polygon class="st12" points="153.16 248.02 159.03 257.13 174.94 246.79 153.16 248.02"/>
      </g>
      <polygon class="st21" points="174.94 246.79 159.03 257.13 153.16 248.02 155.49 247.87 159.9 254.46 174.94 246.79"/>
    </g>
  </g>
  <g>
    <rect class="st12" x="162.31" y="265.2" width="14.09" height="4.22"/>
    <path d="M176.39,267.98h-14.09c.48.48.96.96,1.44,1.44v-4.22c-.48.48-.96.96-1.44,1.44h14.09c-.48-.48-.96-.96-1.44-1.44v4.22c0,1.85,2.88,1.85,2.88,0v-4.22c0-.79-.66-1.44-1.44-1.44h-14.09c-.78,0-1.43.65-1.43,1.44v4.22c0,.78.65,1.43,1.43,1.43h14.09c1.85,0,1.85-2.88,0-2.88Z"/>
  </g>
  <g>
    <g>
      <g>
        <polygon class="st15" points="97.58 243.77 88.78 252.95 92.49 259.12 102.74 248.3 97.58 243.77"/>
        <path d="M93.52,239.71c-2.93,3.06-5.86,6.12-8.8,9.18-1.77,1.85-2.24,4.72-.89,6.96,1.24,2.05,2.47,4.11,3.71,6.17,1.87,3.1,6.44,3.89,9.03,1.16,3.42-3.61,6.84-7.21,10.25-10.82,2.05-2.16,2.4-6.02,0-8.12-1.72-1.52-3.44-3.03-5.15-4.54-2.36-2.06-5.81-2.32-8.14,0-2.1,2.11-2.35,6.06,0,8.13,1.72,1.51,3.45,3.02,5.16,4.53v-8.12c-3.42,3.6-6.84,7.21-10.25,10.81,3.01.39,6.02.78,9.02,1.16-1.23-2.05-2.47-4.11-3.71-6.16-.3,2.32-.59,4.64-.89,6.96,2.93-3.06,5.86-6.12,8.8-9.18,2.16-2.26,2.25-5.88,0-8.13-2.19-2.18-5.97-2.26-8.14,0Z"/>
      </g>
      <polygon class="st6" points="97.58 243.77 88.78 252.95 92.49 259.12 102.74 248.3 97.58 243.77"/>
      <polygon class="st10" points="97.99 244.61 102.5 248.56 102.74 248.3 97.58 243.77 88.78 252.95 89.25 253.73 97.99 244.61"/>
    </g>
    <polygon class="st2" points="94.46 246.95 98.78 252.45 97.06 254.26 92.75 248.76 94.46 246.95"/>
    <polygon class="st2" points="91.81 249.75 96.13 255.25 94.41 257.06 90.1 251.56 91.81 249.75"/>
  </g>
  <g>
    <g>
      <g>
        <polygon class="st15" points="194.02 243.77 202.82 252.95 199.11 259.12 188.86 248.3 194.02 243.77"/>
        <path d="M189.95,247.83c2.93,3.06,5.87,6.12,8.79,9.18-.3-2.32-.6-4.64-.89-6.96-1.24,2.05-2.47,4.11-3.71,6.16,3.01-.39,6.02-.77,9.02-1.16-3.41-3.6-6.83-7.21-10.25-10.81v8.12c1.72-1.51,3.44-3.02,5.16-4.53,2.36-2.07,2.11-6.02,0-8.13-2.32-2.32-5.77-2.06-8.13,0-1.72,1.51-3.44,3.02-5.17,4.54-2.4,2.11-2.04,5.96,0,8.12,3.42,3.61,6.84,7.21,10.26,10.82,2.58,2.73,7.16,1.94,9.03-1.16,1.24-2.06,2.48-4.12,3.71-6.17,1.35-2.25.87-5.11-.9-6.96-2.93-3.06-5.86-6.12-8.79-9.18-2.16-2.26-5.95-2.18-8.13,0-2.25,2.25-2.16,5.87,0,8.13Z"/>
      </g>
      <polygon class="st6" points="194.02 243.77 202.82 252.95 199.11 259.12 188.86 248.3 194.02 243.77"/>
      <polygon class="st10" points="193.6 244.61 189.1 248.56 188.86 248.3 194.02 243.77 202.82 252.95 202.35 253.73 193.6 244.61"/>
    </g>
    <polygon class="st2" points="197.14 246.95 192.82 252.45 194.54 254.26 198.85 248.76 197.14 246.95"/>
    <polygon class="st2" points="199.79 249.75 195.47 255.25 197.19 257.06 201.5 251.56 199.79 249.75"/>
  </g>
  <g>
    <path class="st4" d="M211.38,329.42c0,1.93-29.29,3.5-65.42,3.5s-65.42-1.57-65.42-3.5,29.29-3.49,65.42-3.49,65.42,1.56,65.42,3.49Z"/>
    <path d="M145.95,334.13c-17.5,0-33.95-.37-46.33-1.03-20.31-1.09-20.31-2.34-20.31-3.68s0-2.59,20.31-3.68c12.38-.66,28.83-1.02,46.33-1.02s33.96.36,46.33,1.02c20.31,1.08,20.31,2.35,20.31,3.68s0,2.6-20.31,3.68c-12.38.66-28.83,1.03-46.33,1.03ZM84.49,329.41c7.79,1.12,29.4,2.3,61.46,2.3s53.67-1.18,61.46-2.3c-8.1-1.19-30.77-2.27-61.46-2.27s-53.36,1.08-61.46,2.27Z"/>
  </g>
  <g>
    <g>
      <g>
        <polygon class="st0" points="146.38 285.87 138.18 275.61 143.44 248.95 149.33 248.95 154.58 275.61 146.39 285.87 146.39 285.87 146.38 285.87 146.38 285.87 146.38 285.87"/>
        <path d="M150.45,281.8c-2.73-3.42-5.47-6.84-8.21-10.26.5,1.86.99,3.73,1.48,5.59,1.75-8.89,3.51-17.78,5.26-26.67-1.84,1.41-3.7,2.81-5.54,4.22h5.89c-1.84-1.41-3.69-2.81-5.54-4.22,1.75,8.89,3.5,17.78,5.25,26.67.49-1.87.98-3.73,1.48-5.59-1.46,1.82-2.91,3.64-4.37,5.46-1.86,2.33-5.52,5.78-5.52,8.87,2.42-1.85,4.85-3.7,7.28-5.55h0c-3.58-1.19-7.28,1.96-7.28,5.55h0c0,3.13,2.61,5.74,5.74,5.74s5.76-2.62,5.76-5.74h0c0-3.13-2.62-5.75-5.76-5.75s-5.74,2.62-5.74,5.75h0c0,3.13,2.61,5.74,5.74,5.74s5.76-2.62,5.76-5.74h0c-2.42,1.85-4.85,3.69-7.27,5.54h0c3.58,1.2,7.27-1.95,7.27-5.54h0c-.56,1.35-1.12,2.71-1.68,4.06,2.23-2.79,4.45-5.57,6.68-8.35.43-.54.86-1.07,1.29-1.61,1.47-1.83,2.19-3.5,1.71-5.91-.17-.83-.33-1.67-.5-2.51-1.53-7.77-3.07-15.54-4.59-23.31-.06-.28-.11-.55-.17-.83-.49-2.48-3.13-4.22-5.54-4.22h-5.89c-2.42,0-5.05,1.74-5.54,4.22-1.38,7.02-2.77,14.03-4.15,21.04-.3,1.53-.6,3.04-.89,4.57-.06.31-.13.64-.19.95-.46,2.34.08,3.96,1.54,5.8,2.38,2.97,4.75,5.94,7.13,8.91.33.42.66.83.99,1.25,1.97,2.45,6.1,2.03,8.13,0,2.4-2.4,1.96-5.69,0-8.13Z"/>
      </g>
      <polygon class="st10" points="146.38 285.87 138.18 275.61 143.44 248.95 149.33 248.95 154.58 275.61 146.39 285.87 146.39 285.87 146.38 285.87 146.38 285.87 146.38 285.87"/>
    </g>
    <polygon class="st6" points="146.38 285.85 138.18 275.61 143.44 248.95 146.38 248.95 146.38 285.85"/>
    <polygon class="st17" points="139.89 275.18 144.7 248.95 143.44 248.95 138.18 275.61 146.38 285.85 139.89 275.18"/>
    <polygon class="st20" points="152.86 275.18 148.04 248.95 149.31 248.95 154.57 275.61 146.37 285.85 152.86 275.18"/>
  </g>
  <g>
    <g>
      <g>
        <path class="st13" d="M145.95,10.06C81.25,10.06,8.35,68.3,9.99,88.69c1.64,20.48,44.23,12.29,44.23,12.29h183.47s42.59,8.2,44.23-12.29c1.63-20.39-71.27-78.63-135.98-78.63Z"/>
        <path d="M145.95,0c-28.92.05-57.34,10.11-82.5,23.8-11.79,6.42-22.9,13.94-33.36,22.34-8.36,6.71-15.99,14.13-22.44,22.71-2.61,3.47-4.53,7.1-6.18,11.11-1.7,4.16-1.78,8.48-1,12.85,1.07,6,5.37,10.93,10.32,14.16,4,2.61,8.92,4.03,13.61,4.72,10.76,1.59,21.8,1.04,32.48-1.01-.89.12-1.78.24-2.67.36h183.47c-.9-.12-1.78-.24-2.67-.36,5.85,1.12,11.87,1.74,17.82,1.93,5.19.16,10.3-.23,15.43-1.04,4.64-.74,9.51-2.29,13.39-4.97,4.92-3.39,9.03-8.41,9.89-14.5.47-3.37.51-5.39-.1-8.77-.38-2.12-1.32-4.12-2.16-6.08-1.38-3.22-3.34-6.17-5.46-8.94-3.23-4.25-6.69-8.24-10.49-11.99-8.73-8.59-18.62-16.11-28.83-22.86-11.19-7.4-23.08-13.79-35.44-19.02C189.09,5.97,167.82.04,145.95,0c-5.48,0-10.06,4.59-10.06,10.06s4.58,10.05,10.06,10.06c5.36.01,10.71.41,16.03,1.12-.89-.12-1.78-.24-2.67-.36,14.48,1.99,28.57,6.28,42.03,11.95-.81-.34-1.61-.68-2.4-1.01,17,7.19,33.15,16.56,47.78,27.82-.68-.52-1.36-1.05-2.04-1.57,8.46,6.53,16.67,13.75,23.23,22.24-.53-.68-1.05-1.36-1.57-2.04,2.17,2.83,4.19,5.84,5.59,9.14-.34-.8-.68-1.61-1.02-2.41.57,1.37,1.03,2.78,1.24,4.24-.12-.89-.24-1.78-.36-2.68.12.96.12,1.9,0,2.86.12-.9.24-1.79.36-2.67-.16,1.06-.42,2.1-.82,3.1.34-.8.68-1.6,1.02-2.41-.39.93-.89,1.79-1.5,2.6.53-.68,1.05-1.36,1.58-2.03-.7.9-1.52,1.7-2.42,2.4.68-.53,1.36-1.05,2.04-1.58-1.27.96-2.66,1.72-4.12,2.34.8-.34,1.6-.68,2.4-1.02-2.77,1.15-5.72,1.8-8.69,2.21.89-.12,1.79-.24,2.68-.36-7.42.98-15.02.56-22.4-.42.89.12,1.78.24,2.67.36-2.8-.38-5.56-1.02-8.39-1.02H54.25c-2.22,0-4.72.72-6.92,1.02.89-.12,1.78-.24,2.67-.36-7.4.98-14.99,1.4-22.4.42.89.12,1.78.24,2.67.36-2.97-.41-5.92-1.06-8.69-2.21.8.34,1.6.68,2.4,1.02-1.46-.62-2.84-1.38-4.11-2.34.68.53,1.36,1.05,2.03,1.58-.9-.71-1.71-1.5-2.42-2.4.52.68,1.05,1.35,1.57,2.03-.6-.81-1.1-1.67-1.49-2.6.33.8.68,1.6,1.01,2.41-.4-1-.67-2.04-.82-3.1.13.89.24,1.78.36,2.67-.12-.96-.13-1.9,0-2.86-.12.89-.23,1.78-.36,2.67.22-1.47.68-2.88,1.25-4.25-.34.8-.68,1.6-1.02,2.4,1.41-3.3,3.43-6.31,5.61-9.16-.52.68-1.05,1.36-1.57,2.04,6.51-8.42,14.63-15.58,23.03-22.08-.68.53-1.36,1.05-2.04,1.58,14.64-11.3,30.8-20.68,47.83-27.9-.81.34-1.6.67-2.4,1.01,13.6-5.73,27.85-10.07,42.51-12.04-.89.12-1.78.24-2.68.36,5.2-.69,10.42-1.06,15.66-1.08,5.48,0,10.06-4.56,10.06-10.06S151.43,0,145.95,0Z"/>
      </g>
      <path class="st6" d="M145.95,10.06C81.25,10.06,8.35,68.3,9.99,88.69c1.64,20.48,44.23,12.29,44.23,12.29h183.47s42.59,8.2,44.23-12.29c1.63-20.39-71.27-78.63-135.98-78.63Z"/>
      <path class="st10" d="M145.67,86.53s-124.1,5.78-133.33-6.4c-1.71,3.27-2.55,6.17-2.35,8.56,1.64,20.48,44.23,12.29,44.23,12.29h183.47s42.59,8.2,44.23-12.29c.19-2.39-.64-5.29-2.36-8.55-9.23,12.17-133.9,6.39-133.9,6.39Z"/>
      <path class="st14" d="M10.51,91.49c6.77-23.16,74.71-74.47,135.44-74.47s128.68,51.31,135.45,74.47c.27-.87.45-1.79.53-2.79,1.63-20.39-71.27-78.63-135.98-78.63S8.35,68.3,9.99,88.69c.08,1,.26,1.93.52,2.79Z"/>
    </g>
    <g>
      <g>
        <g>
          <g>
            <g>
              <path class="st13" d="M155.38,63.95h-51.48v.04c0,3.72,3.02,6.74,6.74,6.74h44.74v-6.78Z"/>
              <path d="M155.38,53.89h-51.48c-5.54,0-9.99,4.57-10.06,10.06-.08,6,3.45,11.99,8.76,14.79,2.69,1.41,5.54,2.06,8.57,2.06h44.21c5.49,0,10.06-4.57,10.06-10.06v-6.78c0-5.48-4.57-10.06-10.06-10.06s-10.06,4.57-10.06,10.06v6.78c3.35-3.35,6.71-6.71,10.06-10.06h-42.18c-1.11,0-2.24.05-3.34-.04.89.12,1.78.24,2.67.36-.64-.1-1.24-.25-1.84-.49.8.34,1.61.68,2.4,1.01-.57-.26-1.09-.57-1.58-.95.68.53,1.35,1.05,2.04,1.58-.38-.33-.72-.66-1.05-1.04.53.68,1.05,1.36,1.57,2.04-.38-.5-.69-1.02-.95-1.59.34.8.67,1.6,1.01,2.4-.23-.6-.39-1.2-.48-1.84.12.89.24,1.78.35,2.67-.02-.28-.05-.54-.04-.83-3.35,3.35-6.71,6.71-10.06,10.06h51.48c5.49,0,10.06-4.57,10.06-10.06s-4.57-10.06-10.06-10.06Z"/>
            </g>
            <path class="st23" d="M155.38,63.95h-51.48v.04c0,3.72,3.02,6.74,6.74,6.74h44.74v-6.78Z"/>
            <path class="st8" d="M104.09,63.95h-.19v.04c0,3.72,3.02,6.74,6.74,6.74h44.74v-1.61h-44.74c-3.18,0-5.84-2.21-6.55-5.18Z"/>
          </g>
          <g>
            <g>
              <path class="st13" d="M140.61,48.7h-51.48s0,.03,0,.04c0,3.72,3.02,6.74,6.75,6.74h44.74v-6.78Z"/>
              <path d="M140.61,38.65h-51.48c-5.66,0-9.83,4.58-10.06,10.06-.25,5.95,3.56,12.05,8.75,14.78,2.69,1.42,5.54,2.06,8.57,2.06h44.21c5.48,0,10.06-4.58,10.06-10.06v-6.78c0-5.48-4.57-10.06-10.06-10.06s-10.06,4.57-10.06,10.06v6.78c3.35-3.35,6.7-6.71,10.06-10.06h-42.18c-1.11,0-2.24.05-3.34-.04.89.12,1.78.24,2.67.36-.65-.1-1.24-.25-1.84-.49.8.34,1.6.68,2.4,1.02-.57-.27-1.09-.57-1.59-.95.68.52,1.36,1.04,2.03,1.57-.38-.33-.72-.67-1.04-1.04.53.68,1.05,1.36,1.58,2.04-.38-.5-.69-1.02-.96-1.59.34.8.68,1.6,1.01,2.4-.23-.6-.39-1.2-.48-1.84.12.9.24,1.79.36,2.68-.02-.28-.05-.55-.04-.83-3.35,3.35-6.71,6.71-10.06,10.06h51.48c5.48,0,10.06-4.58,10.06-10.06s-4.57-10.06-10.06-10.06Z"/>
            </g>
            <path class="st23" d="M140.61,48.7h-51.48s0,.03,0,.04c0,3.72,3.02,6.74,6.75,6.74h44.74v-6.78Z"/>
            <path class="st8" d="M89.36,48.7h-.23s0,.03,0,.04c0,3.72,3.02,6.74,6.75,6.74h44.74v-1.78h-44.74c-3.12,0-5.74-2.12-6.51-5.01Z"/>
          </g>
        </g>
        <g>
          <g>
            <g>
              <path class="st13" d="M136.53,63.95h51.48s0,.03,0,.04c0,3.72-3.02,6.74-6.74,6.74h-44.74v-6.78Z"/>
              <path d="M136.53,74.01h51.48c-3.35-3.35-6.7-6.71-10.06-10.06,0,.28-.02.55-.05.83.12-.89.24-1.79.36-2.67-.1.64-.25,1.24-.49,1.84.34-.8.67-1.6,1.01-2.4-.26.57-.57,1.09-.95,1.59.53-.68,1.05-1.36,1.58-2.04-.33.38-.66.72-1.05,1.04.68-.53,1.37-1.05,2.04-1.58-.5.38-1.02.69-1.59.95.8-.34,1.6-.67,2.4-1.01-.6.23-1.19.39-1.84.49.89-.12,1.78-.24,2.68-.36-1.87.16-3.79.04-5.66.04h-39.87c3.35,3.35,6.71,6.71,10.06,10.06v-6.78c0-5.48-4.58-10.06-10.06-10.06s-10.06,4.57-10.06,10.06v6.78c0,5.48,4.58,10.06,10.06,10.06h44.74c9.07,0,16.93-7.7,16.8-16.84-.07-5.48-4.52-10.06-10.06-10.06h-51.48c-5.48,0-10.06,4.57-10.06,10.06s4.58,10.06,10.06,10.06Z"/>
            </g>
            <path class="st23" d="M136.53,63.95h51.48s0,.03,0,.04c0,3.72-3.02,6.74-6.74,6.74h-44.74v-6.78Z"/>
            <path class="st8" d="M187.71,63.95c-.85,2.75-3.41,4.75-6.44,4.75h-44.74v2.04h44.74c3.72,0,6.74-3.02,6.74-6.74,0-.01,0-.03,0-.04h-.29Z"/>
          </g>
          <g>
            <g>
              <path class="st13" d="M151.3,48.7h51.48v.04c0,3.72-3.01,6.74-6.74,6.74h-44.74v-6.78Z"/>
              <path d="M151.3,58.77h51.48c-3.35-3.36-6.7-6.71-10.06-10.06,0,.28-.02.54-.04.83.12-.89.23-1.78.36-2.68-.09.64-.24,1.24-.48,1.84.33-.8.67-1.6,1.01-2.4-.26.58-.57,1.09-.96,1.59.53-.68,1.05-1.36,1.58-2.04-.32.38-.66.72-1.04,1.04.68-.53,1.36-1.05,2.04-1.57-.5.38-1.02.69-1.59.95.8-.34,1.6-.68,2.4-1.02-.6.24-1.2.39-1.84.49.89-.12,1.78-.24,2.67-.36-1.87.16-3.79.04-5.66.04h-39.86c3.35,3.35,6.71,6.71,10.06,10.06v-6.78c0-5.48-4.57-10.06-10.06-10.06s-10.06,4.57-10.06,10.06v6.78c0,5.48,4.57,10.06,10.06,10.06h44.74c9.06,0,16.93-7.7,16.8-16.85-.07-5.48-4.52-10.06-10.06-10.06h-51.48c-5.48,0-10.06,4.57-10.06,10.06s4.57,10.06,10.06,10.06Z"/>
            </g>
            <path class="st23" d="M151.3,48.7h51.48v.04c0,3.72-3.01,6.74-6.74,6.74h-44.74v-6.78Z"/>
            <path class="st8" d="M202.57,48.7c-.75,2.92-3.38,5.09-6.53,5.09h-44.74v1.7h44.74c3.72,0,6.74-3.02,6.74-6.74v-.04h-.2Z"/>
          </g>
        </g>
      </g>
      <g>
        <g>
          <path class="st13" d="M158.11,59.25c0,6.71-5.44,12.15-12.16,12.15s-12.15-5.44-12.15-12.15,5.44-12.15,12.15-12.15,12.16,5.44,12.16,12.15Z"/>
          <path d="M148.05,59.25c-.02.54-.05,1.06-.11,1.59.12-.89.24-1.78.36-2.68-.15,1.03-.41,2.01-.78,2.97.34-.8.68-1.6,1.02-2.4-.44,1.04-1,2.01-1.69,2.92.52-.68,1.05-1.36,1.57-2.04-.62.78-1.32,1.47-2.1,2.11.68-.53,1.36-1.05,2.04-1.58-.91.69-1.87,1.24-2.92,1.69.8-.34,1.6-.68,2.4-1.02-.97.38-1.95.63-2.97.78.89-.12,1.78-.24,2.67-.36-1.06.12-2.1.12-3.16,0,.88.12,1.78.24,2.67.36-1.02-.15-2-.41-2.97-.78.8.34,1.6.68,2.4,1.02-1.05-.45-2-1-2.92-1.69.68.53,1.36,1.05,2.04,1.58-.78-.63-1.48-1.33-2.11-2.11.52.68,1.04,1.36,1.58,2.04-.69-.91-1.25-1.87-1.69-2.92.34.8.68,1.6,1.02,2.4-.38-.96-.63-1.94-.78-2.97.12.89.24,1.78.36,2.68-.13-1.06-.13-2.11,0-3.17-.12.89-.24,1.78-.36,2.68.15-1.03.4-2,.78-2.97-.34.8-.68,1.6-1.02,2.4.44-1.04,1-2.01,1.69-2.92-.53.68-1.06,1.36-1.58,2.03.63-.78,1.32-1.47,2.11-2.11-.68.52-1.36,1.05-2.04,1.57.92-.69,1.87-1.24,2.92-1.69-.8.34-1.6.67-2.4,1.01.98-.37,1.95-.63,2.97-.78-.89.12-1.78.24-2.67.36,1.06-.12,2.1-.12,3.16,0-.89-.12-1.78-.24-2.67-.36,1.03.15,2.01.41,2.97.78-.8-.34-1.6-.67-2.4-1.01,1.05.44,2.01,1,2.92,1.69-.68-.53-1.36-1.05-2.04-1.57.78.63,1.48,1.33,2.1,2.11-.52-.68-1.05-1.36-1.57-2.03.69.91,1.24,1.87,1.69,2.92-.34-.8-.68-1.6-1.02-2.4.38.97.64,1.95.78,2.97-.12-.89-.24-1.78-.36-2.68.06.53.09,1.05.11,1.58.08,5.48,4.5,10.06,10.06,10.06s10.15-4.57,10.06-10.06c-.16-10.11-7.32-19.85-17.56-21.69-5.55-1-11.03-.28-15.96,2.58-4.79,2.78-7.83,7.18-9.79,12.23-1.65,4.25-1.5,9.88.14,14.1,1.97,5.09,5.19,9.31,9.98,12.07,8.77,5.07,21.21,3.31,27.68-4.72,3.44-4.27,5.43-9.03,5.52-14.59.09-5.48-4.64-10.06-10.06-10.06s-9.98,4.58-10.06,10.06Z"/>
        </g>
        <path class="st23" d="M158.11,59.25c0,6.71-5.44,12.15-12.16,12.15s-12.15-5.44-12.15-12.15,5.44-12.15,12.15-12.15,12.16,5.44,12.16,12.15Z"/>
        <path class="st9" d="M136.01,59.25c0-6.33,4.85-11.54,11.05-12.09-.36-.03-.73-.05-1.1-.05-6.71,0-12.15,5.44-12.15,12.15s5.44,12.15,12.15,12.15c.38,0,.74-.02,1.1-.05-6.19-.55-11.05-5.76-11.05-12.1Z"/>
        <path class="st8" d="M155.91,59.25c0-6.33-4.86-11.54-11.05-12.09.36-.03.73-.05,1.1-.05,6.71,0,12.16,5.44,12.16,12.15s-5.44,12.15-12.16,12.15c-.37,0-.73-.02-1.1-.05,6.19-.55,11.05-5.76,11.05-12.1Z"/>
      </g>
    </g>
    <g>
      <g>
        <g>
          <g>
            <path class="st12" d="M61.73,149.04c-1.15,10.53-10.61,18.12-21.13,16.97-10.52-1.15-18.12-10.61-16.98-21.14,1.15-10.53,10.61-18.13,21.14-16.97,10.52,1.15,18.12,10.61,16.97,21.14Z"/>
            <path d="M53.11,149.04c-.01.13-.03.27-.04.4.1-.76.2-1.52.3-2.29-.24,1.71-.68,3.35-1.33,4.95.29-.69.58-1.37.87-2.06-.46,1.06-.99,2.07-1.62,3.04-.37.57-1.62,2.13.23-.21-.39.5-.82.96-1.26,1.41-.35.36-.72.7-1.1,1.03-1.6,1.42,1.72-1.19-.04.04-1.05.72-2.16,1.3-3.32,1.81.68-.3,1.37-.58,2.06-.87-1.55.63-3.15,1.08-4.8,1.33.76-.11,1.52-.21,2.29-.31-1.72.22-3.44.23-5.16.02.76.1,1.53.21,2.29.3-1.71-.24-3.35-.68-4.95-1.33.68.29,1.37.58,2.06.87-1.06-.46-2.07-.99-3.05-1.62-.58-.37-2.13-1.62.21.24-.5-.4-.96-.82-1.41-1.26-.36-.35-.7-.73-1.03-1.1-1.42-1.61,1.19,1.71-.03-.05-.72-1.04-1.31-2.16-1.82-3.32.29.69.58,1.38.87,2.06-.63-1.55-1.07-3.14-1.33-4.8.1.77.2,1.53.31,2.29-.22-1.72-.23-3.44-.02-5.16-.1.77-.2,1.53-.3,2.29.24-1.71.68-3.35,1.33-4.95-.29.69-.58,1.37-.87,2.06.46-1.06,1-2.07,1.62-3.04.37-.57,1.62-2.13-.23.21.39-.5.82-.96,1.26-1.41.35-.36.72-.7,1.1-1.04,1.6-1.42-1.71,1.19.05-.03,1.03-.72,2.16-1.3,3.31-1.81-.68.29-1.37.58-2.06.87,1.55-.64,3.14-1.08,4.8-1.33-.77.1-1.53.2-2.29.31,1.71-.22,3.43-.23,5.15-.02-.76-.1-1.53-.2-2.29-.31,1.71.24,3.35.68,4.95,1.33-.69-.29-1.37-.58-2.06-.87,1.06.46,2.08.99,3.04,1.62.58.37,2.14,1.61-.21-.23.5.39.96.82,1.41,1.25.36.35.7.72,1.04,1.1,1.42,1.6-1.19-1.71.03.05.73,1.04,1.31,2.16,1.81,3.32-.29-.69-.58-1.37-.87-2.06.64,1.55,1.08,3.14,1.33,4.8-.1-.77-.21-1.53-.31-2.29.21,1.58.23,3.16.07,4.76-.46,4.69,4.27,8.62,8.62,8.62,2.28,0,4.49-.92,6.1-2.52,1.74-1.74,2.3-3.73,2.53-6.1.81-8.21-2.68-16.8-8.7-22.38-6.84-6.34-16.03-8.55-25.09-6.81-7.89,1.52-15.23,7.42-18.69,14.62-4.03,8.37-3.85,17.82.53,26.02,2.54,4.76,6.93,8.94,11.79,11.28,5.92,2.85,12.16,3.54,18.6,2.3,5.32-1.02,10.53-4.18,14.18-8.13,1.86-2.02,3.53-4.33,4.67-6.84,1.54-3.37,2.27-6.38,2.71-10.05.25-2.13-1.07-4.65-2.53-6.1-1.61-1.61-3.82-2.53-6.1-2.53s-4.49.91-6.1,2.53c-1.76,1.76-2.24,3.71-2.53,6.1Z"/>
          </g>
          <path class="st1" d="M61.73,149.04c-1.15,10.53-10.61,18.12-21.13,16.97-10.52-1.15-18.12-10.61-16.98-21.14,1.15-10.53,10.61-18.13,21.14-16.97,10.52,1.15,18.12,10.61,16.97,21.14Z"/>
          <path class="st16" d="M56.87,147.97c-.84,7.71-7.77,13.28-15.48,12.44-7.71-.84-13.28-7.78-12.44-15.49.84-7.71,7.78-13.28,15.48-12.44,7.71.84,13.28,7.77,12.44,15.49Z"/>
        </g>
        <g>
          <g>
            <path class="st12" d="M268.29,149.04c-1.15,10.53-10.61,18.12-21.13,16.97-10.52-1.15-18.12-10.61-16.98-21.14,1.15-10.53,10.61-18.13,21.14-16.97,10.52,1.15,18.12,10.61,16.97,21.14Z"/>
            <path d="M259.66,149.04c-.01.13-.03.27-.05.4.1-.76.2-1.52.31-2.29-.24,1.71-.68,3.35-1.33,4.95.28-.69.57-1.37.87-2.06-.46,1.06-1,2.07-1.62,3.04-.37.57-1.62,2.13.23-.21-.39.5-.82.96-1.26,1.41-.35.36-.73.7-1.1,1.03-1.6,1.42,1.71-1.19-.04.04-1.04.72-2.16,1.3-3.32,1.81.69-.3,1.37-.58,2.06-.87-1.55.63-3.15,1.08-4.8,1.33.76-.11,1.53-.21,2.29-.31-1.72.22-3.43.23-5.16.02.76.1,1.52.21,2.29.3-1.71-.24-3.35-.68-4.95-1.33.69.29,1.37.58,2.06.87-1.07-.46-2.08-.99-3.04-1.62-.58-.37-2.13-1.62.21.24-.49-.4-.96-.82-1.41-1.26-.37-.35-.71-.73-1.04-1.1-1.42-1.61,1.2,1.71-.03-.05-.72-1.04-1.31-2.16-1.82-3.32.29.69.57,1.38.87,2.06-.63-1.55-1.08-3.14-1.33-4.8.1.77.2,1.53.31,2.29-.22-1.72-.23-3.44-.02-5.16-.11.77-.21,1.53-.31,2.29.25-1.71.68-3.35,1.34-4.95-.29.69-.58,1.37-.87,2.06.46-1.06,1-2.07,1.62-3.04.37-.57,1.62-2.13-.23.21.39-.5.82-.96,1.26-1.41.35-.36.72-.7,1.1-1.04,1.6-1.42-1.71,1.19.04-.03,1.03-.72,2.16-1.3,3.32-1.81-.69.29-1.37.58-2.06.87,1.55-.64,3.14-1.08,4.8-1.33-.76.1-1.53.2-2.29.31,1.73-.22,3.44-.23,5.16-.02-.77-.1-1.53-.2-2.29-.31,1.7.24,3.35.68,4.95,1.33-.69-.29-1.37-.58-2.06-.87,1.06.46,2.07.99,3.04,1.62.58.37,2.14,1.61-.21-.23.5.39.96.82,1.42,1.25.36.35.7.72,1.03,1.1,1.42,1.6-1.19-1.71.03.05.72,1.04,1.31,2.16,1.82,3.32-.29-.69-.58-1.37-.87-2.06.64,1.55,1.08,3.14,1.33,4.8-.1-.77-.2-1.53-.3-2.29.21,1.58.22,3.16.07,4.76-.46,4.69,4.27,8.62,8.62,8.62,2.27,0,4.49-.92,6.1-2.52,1.74-1.74,2.29-3.73,2.53-6.1.81-8.21-2.68-16.8-8.7-22.38-6.84-6.34-16.03-8.55-25.08-6.81-7.89,1.52-15.24,7.42-18.7,14.62-4.02,8.37-3.85,17.82.53,26.02,2.55,4.76,6.93,8.94,11.78,11.28,5.93,2.85,12.17,3.54,18.61,2.3,5.32-1.02,10.53-4.18,14.18-8.13,1.87-2.02,3.53-4.33,4.67-6.84,1.54-3.37,2.27-6.38,2.71-10.05.25-2.13-1.08-4.65-2.53-6.1-1.61-1.61-3.82-2.53-6.1-2.53s-4.49.91-6.1,2.53c-1.77,1.76-2.24,3.71-2.53,6.1Z"/>
          </g>
          <path class="st1" d="M268.29,149.04c-1.15,10.53-10.61,18.12-21.13,16.97-10.52-1.15-18.12-10.61-16.98-21.14,1.15-10.53,10.61-18.13,21.14-16.97,10.52,1.15,18.12,10.61,16.97,21.14Z"/>
          <path class="st16" d="M263.43,147.97c-.85,7.71-7.78,13.28-15.49,12.44-7.71-.84-13.28-7.78-12.44-15.49.85-7.71,7.78-13.28,15.49-12.44,7.71.84,13.28,7.77,12.44,15.49Z"/>
        </g>
      </g>
      <g>
        <path class="st15" d="M40.92,112.67c.04,26.01.15,51.58.15,51.58,0,40.33,22.6,77.72,106.83,77.37,83.36-.34,103.1-37.04,103.1-77.37v-51.58H40.92Z"/>
        <path d="M30.86,112.67c.03,15.55.07,31.11.13,46.67.03,7.73.33,15.32,1.6,22.98,2.95,17.89,12.33,34.76,26.74,45.91,4.45,3.44,9.02,6.53,14.03,9.09,5.53,2.81,11.36,5.14,17.27,7.01,13.67,4.34,28.16,6.21,42.43,7,16.5.91,33.07.19,49.42-2.28,12.52-1.89,24.73-5.35,36.14-10.88,8.84-4.29,17.16-10.29,23.63-17.71,6.43-7.35,11.08-15.71,14.22-24.94,4.63-13.63,4.59-27.97,4.59-42.18v-40.68c0-5.48-4.58-10.06-10.06-10.06H40.92c-5.49,0-10.06,4.57-10.06,10.06s4.57,10.06,10.06,10.06h210.07c-3.35-3.35-6.71-6.71-10.06-10.06v42.98c0,7.57.11,15.12-.89,22.65.12-.89.24-1.78.36-2.67-.89,6.53-2.48,12.95-5.03,19.03.34-.8.68-1.6,1.02-2.4-2.01,4.75-4.59,9.24-7.74,13.34.53-.68,1.05-1.36,1.58-2.04-3.2,4.14-6.94,7.82-11.08,11.03.68-.53,1.35-1.05,2.03-1.57-5.2,3.99-10.96,7.18-16.99,9.74.8-.34,1.6-.68,2.4-1.02-10.32,4.33-21.31,6.84-32.37,8.34.9-.12,1.78-.24,2.68-.36-19.73,2.63-40.15,2.65-59.89,0,.89.12,1.78.24,2.68.36-11.24-1.54-22.39-4.11-32.87-8.51.8.34,1.6.68,2.4,1.01-6.29-2.67-12.28-6-17.71-10.16.68.53,1.36,1.05,2.04,1.58-4.27-3.3-8.13-7.1-11.44-11.36.53.68,1.05,1.36,1.57,2.04-3.29-4.27-6-8.94-8.09-13.9.34.8.68,1.61,1.01,2.41-2.52-6.03-4.13-12.39-5.01-18.87.12.9.24,1.79.36,2.67-.85-6.43-.81-12.86-.84-19.32-.05-15-.1-30.01-.12-45.01,0-5.48-4.57-10.06-10.06-10.06s-10.07,4.57-10.06,10.06Z"/>
      </g>
      <path class="st1" d="M40.92,112.67c.04,26.01.15,51.58.15,51.58,0,40.33,22.6,77.72,106.83,77.37,83.36-.34,103.1-37.04,103.1-77.37v-51.58H40.92Z"/>
      <path class="st18" d="M145.92,154.02c-53.29,0-88.23-7.08-104.97-11.55.04-13.4.09-22.99.09-22.99,0-2.1.06-4.18.19-6.25,16.84,4.47,51.69,11.47,104.69,11.47s88.1-7.06,104.88-11.52c.11,2.08.16,4.19.16,6.3v22.97c-16.7,4.47-51.67,11.57-105.04,11.57Z"/>
      <g>
        <g>
          <g>
            <g>
              <g>
                <path class="st4" d="M101.98,176.68c0,9.39-7.62,17.02-17.02,17.02s-17.02-7.62-17.02-17.02,7.62-17.02,17.02-17.02,17.02,7.61,17.02,17.02Z"/>
                <path d="M99.83,176.68c-.08,6.16-3.88,11.78-9.7,13.94-6,2.22-12.58.24-16.68-4.54-4.08-4.76-4.31-11.85-1.19-17.12,3.16-5.34,9.62-8.06,15.66-6.86,6.92,1.38,11.83,7.59,11.92,14.57.02,2.78,4.33,2.78,4.31,0-.07-6.75-3.56-12.88-9.28-16.43-5.78-3.58-13.21-3.53-19.13-.38-5.91,3.15-9.53,9.42-9.91,16.01-.39,6.73,3.16,13.08,8.63,16.82,5.83,3.98,13.63,4.05,19.77.78,6.14-3.26,9.85-9.94,9.93-16.8.03-2.79-4.28-2.78-4.31,0Z"/>
              </g>
              <path class="st12" d="M97.2,172.2c0,2.31-1.87,4.18-4.18,4.18s-4.18-1.87-4.18-4.18,1.88-4.18,4.18-4.18,4.18,1.87,4.18,4.18Z"/>
            </g>
            <path class="st11" d="M85.6,205.89c.36,2.66-4.22,5.47-10.22,6.29-6.01.81-11.17-.68-11.53-3.34-.37-2.66,4.21-5.48,10.22-6.29,6.01-.82,11.17.68,11.53,3.34Z"/>
          </g>
          <g>
            <g>
              <g>
                <circle class="st4" cx="206.95" cy="176.68" r="17.02"/>
                <path d="M221.82,176.68c-.08,6.16-3.88,11.78-9.7,13.94-6,2.22-12.58.24-16.69-4.54-4.08-4.76-4.3-11.85-1.18-17.12,3.15-5.34,9.61-8.06,15.65-6.86,6.92,1.38,11.83,7.59,11.91,14.57.03,2.78,4.34,2.78,4.31,0-.08-6.75-3.55-12.88-9.28-16.43-5.78-3.58-13.21-3.53-19.13-.38-5.91,3.15-9.54,9.42-9.92,16.01-.39,6.73,3.16,13.08,8.63,16.82,5.83,3.98,13.63,4.05,19.77.78,6.13-3.26,9.85-9.94,9.93-16.8.03-2.79-4.28-2.78-4.31,0Z"/>
              </g>
              <path class="st12" d="M219.19,172.2c0,2.31-1.87,4.18-4.17,4.18s-4.18-1.87-4.18-4.18,1.87-4.18,4.18-4.18,4.17,1.87,4.17,4.18Z"/>
            </g>
            <path class="st11" d="M206.31,205.89c-.36,2.66,4.21,5.47,10.22,6.29,6.01.81,11.18-.68,11.54-3.34.36-2.66-4.21-5.48-10.23-6.29-6.01-.82-11.17.68-11.53,3.34Z"/>
          </g>
        </g>
        <path d="M127.31,209.93c.12,2.51,1.05,5.09,2.51,7.12,3.6,5.02,9.4,6.91,15.4,7.03,5.7.11,12.04-1.49,15.86-5.98,1.94-2.27,3.2-4.92,3.53-7.89.25-2.34-2.16-4.31-4.31-4.31-2.55,0-4.06,1.98-4.31,4.31.23-2.17.03-.41-.18.25-.07.22-.16.43-.24.64.62-1.54.2-.51.03-.16-.14.27-.29.53-.45.79-.19.3-.95,1.27-.03.11-.47.59-1.02,1.13-1.6,1.62,1.06-.89-.11.05-.39.23-.4.26-.83.47-1.25.68-.43.2-.36.17.2-.06-.3.13-.61.23-.91.33-.55.19-1.11.33-1.68.46-.25.06-2.02.32-1.16.22-.88.1-1.76.13-2.65.14-.73.01-1.47-.03-2.2-.08-.27-.02-.54-.05-.81-.08.98.11-.24-.06-.37-.09-.57-.11-1.13-.26-1.68-.43-.21-.06-.42-.13-.61-.21-1.02-.36.84.4-.1-.04-.43-.2-.84-.43-1.24-.67-.15-.1-.3-.19-.44-.29-.77-.52.77.64.06.06-.3-.25-.59-.53-.86-.81-.16-.16-.3-.33-.44-.5-.54-.63.63.86.16.2-.37-.51-.67-1.07-.94-1.64-.24-.5.44,1.19.06.12-.08-.22-.14-.45-.21-.68-.09-.34-.16-.69-.22-1.04-.05-.35.14,1.49.1.65-.11-2.35-1.87-4.31-4.31-4.31-2.26,0-4.42,1.96-4.31,4.31h0Z"/>
      </g>
      <g>
        <g>
          <path class="st13" d="M34.05,121.44s10.59,13.07,113.91,13.07,109.9-14.05,109.9-14.05c0,0-20.45-10.45-110.63-10.45s-113.18,11.43-113.18,11.43Z"/>
          <path d="M26.93,128.55c.92,1.13,2.32,1.97,3.59,2.72,2.79,1.66,5.95,2.8,9.03,3.81,4.85,1.58,9.85,2.64,14.87,3.53,9.42,1.69,18.96,2.78,28.48,3.62,30.71,2.68,61.75,2.85,92.55,1.97,21.78-.62,43.98-1.72,65.38-6.22,8.13-1.7,16.5-4,23.08-9.27,1.03-.82,2.12-2.05,2.65-3.17,1.2-2.53,1.78-4.96,1.01-7.75-.65-2.39-2.36-4.86-4.62-6.01-5.19-2.65-11.2-3.88-16.86-5-19.92-3.93-40.4-5.28-60.64-6.11-31.9-1.31-64.03-1.19-95.88,1.21-10.76.81-21.5,1.98-32.17,3.62-5.88.91-11.74,1.99-17.5,3.48-3.7.95-7.48,2.07-10.92,3.78-4.91,2.43-6.23,9.28-3.61,13.76,2.91,4.97,8.85,6.04,13.76,3.61.16-.07.33-.15.49-.22-.8.34-1.6.68-2.4,1.02,7.1-3,15.07-4.29,22.61-5.55,2.86-.48,5.73-.9,8.6-1.29-.88.12-1.78.24-2.68.36,26.97-3.62,54.32-4.37,81.48-4.37,26.87,0,53.92.63,80.61,4.01.74.09,1.49.19,2.23.29-.89-.12-1.78-.24-2.68-.36,8.84,1.2,18.11,2.44,26.51,5.61.27.1.53.2.79.31-.8-.34-1.6-.68-2.41-1.02.17.07.34.14.49.22-1.2-4.59-2.41-9.18-3.61-13.77-.04.09-.1.17-.16.24.52-.68,1.05-1.36,1.57-2.04-.3.39-.68.71-1.06,1.01.68-.52,1.35-1.05,2.03-1.58-1.4,1.08-3.04,1.86-4.66,2.54.8-.33,1.6-.67,2.4-1.01-8.77,3.68-18.57,5.13-27.93,6.39.9-.12,1.78-.24,2.68-.36-27.38,3.66-55.22,3.99-82.79,3.84-24.83-.13-49.85-.79-74.49-4.09.89.12,1.78.24,2.68.37-9.46-1.28-19.43-2.69-28.31-6.42.81.34,1.61.68,2.4,1.02-1.36-.57-2.75-1.21-3.93-2.12.68.52,1.36,1.05,2.04,1.57-.16-.13-.34-.26-.48-.43-1.6-1.96-4.68-2.95-7.11-2.95-2.66,0-5.23,1.07-7.12,2.95-1.88,1.88-2.94,4.46-2.94,7.12,0,2.88,1.19,4.96,2.94,7.11Z"/>
        </g>
        <path class="st22" d="M34.05,121.44s10.59,13.07,113.91,13.07,109.9-14.05,109.9-14.05c0,0-20.45-10.45-110.63-10.45s-113.18,11.43-113.18,11.43Z"/>
        <path class="st3" d="M148.1,130.93c-70.86,0-100.81-5.76-113.16-9.88-.61.24-.89.38-.89.38,0,0,10.59,13.07,113.91,13.07s109.9-14.05,109.9-14.05h0c-11.33,4.41-39.65,10.47-109.77,10.47Z"/>
      </g>
      <g>
        <g>
          <path class="st13" d="M212.13,103.25c-28.93-2.8-64.78-3.05-66.15-3.06h-.04c-1.37,0-37.22.26-66.15,3.06-29.5,2.86-47.49,6.61-47.49,6.61l1.44,7.22s21.94-4.62,49.29-7.15c30.11-2.79,62-2.88,62.94-2.88s32.83.09,62.94,2.88c27.35,2.54,49.29,7.15,49.29,7.15l1.44-7.22s-17.99-3.74-47.49-6.61Z"/>
          <path d="M212.13,93.19c-21.95-2.11-44.1-2.93-66.15-3.07,3.35,3.35,6.71,6.71,10.06,10.06h0c0-5.48-4.58-10.06-10.06-10.06h-.04c-5.49,0-10.06,4.58-10.06,10.06h0c3.35-3.35,6.71-6.71,10.06-10.06-24.27.14-48.62,1.16-72.75,3.74-14.55,1.56-29.23,3.31-43.57,6.29-2.48.51-4.76,2.49-6.02,4.62-1.44,2.46-1.56,5.03-1.01,7.75.48,2.41.96,4.81,1.44,7.22.5,2.47,2.51,4.77,4.62,6.02,2.44,1.43,5.05,1.58,7.75,1.01,9.81-2.05,19.75-3.57,29.69-4.91-.89.12-1.79.24-2.68.36,27.26-3.65,54.89-5.02,82.38-5.12,8.5-.03,17.03.25,25.53.56,17.43.64,34.86,1.77,52.18,3.91,1.67.2,3.33.42,5,.64-.89-.12-1.78-.24-2.67-.36,9.93,1.34,19.87,2.86,29.68,4.91,2.71.57,5.31.42,7.75-1.01,2.12-1.24,4.13-3.55,4.62-6.02.48-2.41.96-4.81,1.44-7.22.54-2.72.42-5.29-1.02-7.75-1.25-2.13-3.54-4.11-6.01-4.62-4.2-.87-8.45-1.56-12.69-2.23-12.44-1.97-24.95-3.52-37.49-4.73-5.46-.54-10.06,4.98-10.06,10.06,0,2.66,1.06,5.24,2.95,7.12,2.03,2.03,4.35,2.68,7.11,2.95,7.66.74,15.31,1.62,22.93,2.64-.89-.12-1.78-.24-2.67-.36,8.21,1.11,16.45,2.28,24.56,3.97-2.34-4.13-4.69-8.25-7.03-12.38-.48,2.4-.96,4.81-1.44,7.22,4.12-2.34,8.25-4.69,12.37-7.03-26.43-5.55-53.53-8.16-80.47-9.45-18.63-.89-37.19-1.11-55.82-.52-30.57.98-61.13,3.64-91.18,9.5-.78.15-1.56.31-2.34.46,4.12,2.35,8.25,4.69,12.37,7.03-.48-2.41-.96-4.81-1.44-7.22-2.34,4.12-4.68,8.25-7.03,12.38,8.11-1.69,16.36-2.86,24.56-3.97-.89.12-1.79.24-2.68.36,28.26-3.79,56.72-5.27,85.21-5.66,1.29-.02,2.59-.04,3.88-.04,5.48-.04,10.06-4.55,10.06-10.06h0c-3.35,3.35-6.71,6.7-10.06,10.06h.04c-3.35-3.36-6.7-6.71-10.05-10.06h0c0,5.51,4.58,10.03,10.05,10.06,22.06.13,44.21.95,66.15,3.06,5.47.53,10.06-4.97,10.06-10.06,0-2.66-1.06-5.23-2.94-7.11-2.02-2.02-4.36-2.68-7.12-2.95Z"/>
        </g>
        <path class="st23" d="M212.13,103.25c-28.93-2.8-64.78-3.05-66.15-3.06h-.04c-1.37,0-37.22.26-66.15,3.06-29.5,2.86-47.49,6.61-47.49,6.61l1.44,7.22s21.94-4.62,49.29-7.15c30.11-2.79,62-2.88,62.94-2.88s32.83.09,62.94,2.88c27.35,2.54,49.29,7.15,49.29,7.15l1.44-7.22s-17.99-3.74-47.49-6.61Z"/>
        <path class="st8" d="M79.78,106.52c28.94-2.8,64.79-3.05,66.15-3.06h.04c1.37,0,37.22.26,66.15,3.06,26.27,2.55,43.42,5.79,46.85,6.48l.64-3.21s-17.99-3.74-47.49-6.61c-28.93-2.81-64.78-3.05-66.15-3.06h-.04c-1.37,0-37.22.26-66.15,3.06-29.5,2.86-47.49,6.61-47.49,6.61l.65,3.21c3.43-.69,20.57-3.93,46.85-6.48Z"/>
      </g>
    </g>
  </g>
</svg>