<?xml version="1.0" encoding="UTF-8"?>
<svg id="Layer_1" xmlns="http://www.w3.org/2000/svg" version="1.1" viewBox="0 0 308.23 311.86">
  <!-- Generator: Adobe Illustrator 29.6.1, SVG Export Plug-In . SVG Version: 2.1.1 Build 9)  -->
  <defs>
    <style>
      .st0 {
        fill: #ffd3a4;
      }

      .st1 {
        fill: #ffd7c3;
      }

      .st2 {
        fill: #8b5e3c;
      }

      .st3 {
        fill: #d1d3d4;
      }

      .st4 {
        fill: #000002;
      }

      .st5 {
        fill: #603913;
      }

      .st6 {
        fill: #ed1c24;
      }

      .st7 {
        fill: #f1f2f2;
      }

      .st8 {
        fill: #ff616d;
      }

      .st9 {
        fill: #f38b9e;
      }

      .st10 {
        fill: #be1e2d;
      }

      .st11 {
        fill: #fff;
      }

      .st12 {
        fill: #754c29;
      }

      .st13 {
        fill: #6cb4e5;
      }

      .st14 {
        fill: #f7941e;
      }

      .st15 {
        fill: #d66100;
      }

      .st16 {
        fill: #fde5d2;
      }

      .st17 {
        fill: #ffebde;
      }

      .st18 {
        fill: #0262a3;
      }

      .st19 {
        fill: #ffc0a4;
      }

      .st20 {
        fill: #1c75bc;
      }
    </style>
  </defs>
  <g>
    <path class="st20" d="M115.87,249.4c-3.03,21.85-5.8,50.04-.25,51.97,9.12,3.19,17.57-11.34,17.57-11.34,0,0,6.72,2.05,18.36,2.41h0c.87.03,1.77.04,2.69.04s1.8,0,2.69-.04h0c11.64-.36,18.36-2.41,18.36-2.41,0,0,8.45,14.54,17.58,11.34,5.54-1.93,2.77-30.12-.26-51.97h-76.73Z"/>
    <path d="M112.44,248.46c-1.81,13.12-3.62,26.42-3.56,39.7.02,4.41.15,9.16,2.02,13.24,2.24,4.88,8.68,4.51,12.85,2.73,5.28-2.26,9.66-7.43,12.51-12.31-1.34.55-2.68,1.09-4.02,1.63,6.15,1.87,12.93,2.33,19.31,2.54-1.19-1.18-2.37-2.37-3.56-3.55h0c0,1.99,1.62,3.5,3.56,3.56,1.79.05,3.58.05,5.37,0,1.93-.05,3.55-1.57,3.55-3.56h0c-1.18,1.18-2.37,2.37-3.55,3.55,6.38-.21,13.15-.68,19.3-2.54-1.34-.54-2.68-1.08-4.02-1.63,4.1,7.03,11.4,14.64,20.23,13.33,4.34-.64,5.94-4.68,6.54-8.52.83-5.33.68-10.78.4-16.16-.54-10.71-1.89-21.39-3.36-32.01-.21-1.54-2-2.61-3.43-2.61h-76.73c-4.58,0-4.58,7.11,0,7.11h76.73c-1.14-.87-2.28-1.74-3.43-2.61.86,6.19,1.73,13.26,2.35,19.92.58,6.15,1.02,12.34.96,18.53-.02,1.19-.06,2.38-.13,3.57-.03.53-.08,1.07-.13,1.6-.02.25-.05.5-.08.76-.08.67.12-.79-.04.23-.12.82-.3,1.64-.54,2.44-.09.31-.58,1.48-.05.27-.14.31-.31.61-.49.89-.32.48.61-.74.24-.32-.08.09-.17.17-.25.24.83-.73.64-.47.35-.31-.49.29,1.23-.45.29-.14-.27.09-.54.15-.82.21-.91.2.78-.06-.13.02-.27.02-.54.01-.81,0-.18,0-.35-.02-.53-.03.51.07.56.07.16,0-.53-.09-1.04-.25-1.55-.43-.86-.3.69.32-.15-.06-.25-.12-.49-.24-.73-.36-.5-.27-.96-.57-1.42-.88-.23-.16-.46-.32-.68-.49.72.53-.25-.22-.38-.32-.98-.83-1.87-1.75-2.73-2.7-.4-.44-.78-.9-1.15-1.35-.15-.19-.29-.38-.44-.56.65.83.02.02-.11-.16-.64-.87-1.27-1.77-1.82-2.71-.79-1.35-2.49-2.1-4.01-1.63-5.95,1.79-11.12,2.07-17.42,2.27-1.94.06-3.56,1.57-3.56,3.56h0c1.19-1.18,2.37-2.37,3.56-3.55-1.8.05-3.59.05-5.37,0,1.18,1.18,2.37,2.37,3.55,3.55h0c0-1.99-1.62-3.5-3.55-3.56-6.3-.2-11.48-.48-17.42-2.27-1.52-.47-3.22.28-4.01,1.63-.45.77-.95,1.5-1.46,2.22-.25.34-.49.68-.74,1,.66-.87-.3.38-.47.58-.73.88-1.51,1.73-2.33,2.54-.4.39-.81.76-1.24,1.13-.21.18-.43.36-.65.54.67-.54-.07.04-.18.12-.46.32-.93.62-1.41.89-.23.14-.48.26-.73.39-.16.08-.32.16-.5.23.44-.18.47-.2.1-.06-.5.18-1.02.32-1.55.43-.89.19.8-.07-.1.01-.27.02-.53.02-.8.01-.18,0-1.08-.12-.13.02-.28-.04-.55-.11-.82-.18-.34-.09-1.23-.49.11.11-.28-.13-.75-.56.26.25-.1-.07-.18-.16-.26-.24-.39-.4.58.79.24.32-.17-.24-.3-.48-.43-.74-.28-.58.35.87.11.25-.06-.16-.12-.33-.17-.5-.14-.43-.25-.87-.35-1.31-.1-.43-.17-.86-.24-1.29-.03-.21-.14-1.02,0,0-.03-.24-.06-.5-.09-.74-.13-1.2-.19-2.39-.24-3.6-.24-5.98.18-11.99.69-17.94.33-3.84.74-7.68,1.18-11.5.44-3.76.92-7.44,1.39-10.84.27-1.92-.44-3.81-2.48-4.37-1.68-.46-4.11.55-4.38,2.48Z"/>
  </g>
  <g>
    <g>
      <path class="st1" d="M116.26,229.97s-27.84,33.07-15.76,40.2c12.08,7.12,28.99-23.77,28.99-23.77l-13.23-16.42Z"/>
      <path d="M113.75,227.46c-3.36,3.98-6.47,8.21-9.39,12.53-4.58,6.76-9.25,14.33-10.34,22.56-.44,3.38.42,7.15,3.05,9.47,3.2,2.83,7.69,3.41,11.64,1.98,4.14-1.49,7.61-4.41,10.63-7.53,3.09-3.19,5.78-6.77,8.3-10.41,1.75-2.55,3.43-5.17,4.92-7.88.83-1.53.49-3.01-.55-4.31-4.41-5.48-8.82-10.95-13.23-16.42-1.21-1.51-3.77-1.26-5.02,0-1.48,1.48-1.21,3.52,0,5.03,4.41,5.47,8.82,10.95,13.22,16.42-.18-1.44-.37-2.87-.55-4.31-.84,1.54-1.77,3.04-2.7,4.51-.98,1.53-1.98,3.04-3.03,4.52-.57.81-1.15,1.6-1.75,2.39-.15.2-.3.4-.46.61.58-.75.03-.04-.07.09-.37.48-.76.95-1.14,1.41-1.38,1.66-2.84,3.26-4.41,4.76-.72.69-1.47,1.34-2.23,1.97-.66.53.62-.47-.04.03-.19.15-.38.28-.57.42-.44.31-.88.6-1.34.88-.37.23-.76.44-1.15.65-.19.1-.38.19-.58.28-.7.32.79-.32.08-.04-.37.15-.76.27-1.15.38-.34.1-1.88.32-.58.17-.38.05-.76.05-1.13.05-.19,0-.37-.02-.56-.04,1.14.1.47.06.2.01-.38-.07-.74-.18-1.1-.32-.68-.24.79.36.13.05-.23-.11-.46-.25-.68-.38-.93-.56.44.43-.17-.11-.22-.21-.43-.43-.62-.66.81.98.15.14-.02-.16-.51-.92.22.75-.1-.27-.1-.29-.16-.61-.22-.91-.11-.65.11.96.05.29-.02-.16-.03-.33-.03-.5-.02-.35-.01-.7,0-1.05.01-.33.21-1.82.02-.52.25-1.73.77-3.41,1.38-5.04.16-.43.33-.85.5-1.28-.42,1.01.2-.43.31-.68.44-.96.91-1.92,1.4-2.86,1.92-3.71,4.18-7.25,6.54-10.69,1.05-1.54,2.14-3.05,3.25-4.54.46-.62.93-1.23,1.39-1.84.1-.15.21-.29.32-.43.4-.54-.55.7-.14.18.22-.28.44-.56.67-.85.69-.88,1.39-1.76,2.11-2.61,1.25-1.48,1.46-3.57,0-5.03-1.28-1.29-3.78-1.48-5.02,0Z"/>
    </g>
    <path class="st6" d="M116.9,248.49l2.73-9.21-3.22-4.04s-5.31,6.6-7.09,9.38l7.58,3.87Z"/>
    <path class="st10" d="M116.98,248.35l-4.49-5.15c1.24-1.84,3.44-4.67,4.98-6.62l-1.06-1.33s-5.31,6.6-7.09,9.38c-1.77,2.79.29,3.36,2.17.15l5.48,3.57Z"/>
    <g>
      <rect class="st4" x="107.97" y="239.29" width="6.91" height="19.73" transform="translate(-158.32 207.55) rotate(-57.14)"/>
      <path d="M118.08,258.53l-17.93-11.58,4.63-7.16,17.92,11.58-4.62,7.16ZM102.37,246.46l15.22,9.83,2.87-4.45-15.22-9.83-2.88,4.45Z"/>
    </g>
  </g>
  <g>
    <g>
      <path class="st1" d="M192.46,230.07s27.84,33.06,15.75,40.19c-12.08,7.13-28.98-23.77-28.98-23.77l13.23-16.42Z"/>
      <path d="M189.95,232.58c.95,1.13,1.87,2.3,2.78,3.47.4.52-.56-.72-.15-.18.11.14.22.28.33.42.23.29.45.59.68.89.53.71,1.06,1.43,1.59,2.14,1.14,1.56,2.25,3.15,3.33,4.76,2.34,3.48,4.53,7.08,6.37,10.84.21.43.42.88.62,1.32.11.24.72,1.68.3.67.38.91.72,1.82,1.02,2.75.26.79.47,1.59.66,2.41.08.38.14.77.2,1.15-.2-1.29,0,.19.02.52.02.35.02.69,0,1.04,0,.17-.02.34-.04.5-.05.67.14-.95.04-.29-.05.3-.13.62-.22.91-.3,1.03.39-.66-.1.27-.15.29-.82,1.19-.02.16-.19.24-.4.46-.63.66-.6.55.75-.47-.17.12-.16.1-.33.2-.5.29-.85.46.52-.19-.05.04-.35.14-.72.24-1.1.32-.26.06-.95.12.21-.01-.19.02-.38.02-.56.04-.38.02-.76-.01-1.13-.04,1.28.12-.23-.08-.58-.17-.39-.1-.77-.24-1.15-.38-.71-.27.78.34.08.03-.2-.08-.39-.18-.58-.28-.87-.43-1.7-.96-2.49-1.52-.19-.14-.38-.28-.57-.42-.67-.5.62.5-.04-.03-.39-.31-.76-.63-1.13-.95-.84-.73-1.62-1.5-2.39-2.28-1.52-1.55-2.93-3.21-4.27-4.91-.11-.13-.64-.83-.08-.09-.15-.2-.31-.4-.46-.61-.3-.4-.61-.8-.9-1.21-.61-.83-1.2-1.69-1.79-2.54-.95-1.39-1.87-2.8-2.75-4.24-.7-1.13-1.39-2.28-2.03-3.44-.18,1.44-.37,2.87-.56,4.31,4.41-5.47,8.82-10.95,13.23-16.42,1.21-1.51,1.48-3.54,0-5.02-1.26-1.27-3.82-1.52-5.03,0-4.41,5.47-8.82,10.95-13.23,16.42-1.04,1.29-1.4,2.78-.56,4.31,2.82,5.14,6.23,10.03,9.94,14.57,4.89,6,12.67,13.95,21.26,11.61,3.65-.99,6.61-3.98,7.22-7.76.61-3.78-.31-7.54-1.68-11.05-3-7.69-7.68-14.67-12.58-21.27-1.73-2.31-3.48-4.62-5.34-6.82-1.25-1.48-3.75-1.29-5.03,0-1.46,1.45-1.25,3.54,0,5.02Z"/>
    </g>
    <path class="st6" d="M191.82,248.59l-2.73-9.22,3.22-4.03s5.31,6.6,7.09,9.38l-7.58,3.87Z"/>
    <path class="st10" d="M191.74,248.44l4.49-5.15c-1.25-1.83-3.44-4.66-4.98-6.62l1.06-1.32s5.31,6.6,7.09,9.38c1.78,2.79-.29,3.36-2.18.14l-5.48,3.57Z"/>
    <g>
      <rect class="st4" x="187.43" y="245.79" width="19.73" height="6.92" transform="translate(-103.69 146.97) rotate(-32.87)"/>
      <path d="M190.65,258.62l-4.63-7.16,17.92-11.58,4.63,7.16-17.93,11.58ZM188.25,251.94l2.88,4.45,15.22-9.83-2.88-4.45-15.22,9.83Z"/>
    </g>
  </g>
  <g>
    <g>
      <polygon class="st16" points="180.73 236.24 154.32 236.24 154.11 236.24 127.7 236.24 116.26 273.87 154.11 273.87 154.32 273.87 192.17 273.87 180.73 236.24"/>
      <path d="M180.73,229.14h-53.03c-3.22,0-5.92,2.18-6.85,5.22-3.65,11.99-7.29,23.98-10.94,35.97-.17.55-.33,1.1-.5,1.66-1.35,4.45,2.33,8.99,6.85,8.99h75.91c4.53,0,8.21-4.55,6.85-8.99-3.64-11.99-7.29-23.98-10.93-35.97-.17-.55-.33-1.1-.51-1.66-1.13-3.7-4.93-6.01-8.74-4.96-3.66,1-6.09,5.03-4.96,8.74,3.65,11.99,7.29,23.98,10.93,35.96.17.56.34,1.11.51,1.66,2.28-3,4.57-6,6.85-8.99h-75.91c2.29,3,4.57,5.99,6.85,8.99,3.65-11.99,7.29-23.97,10.94-35.96.17-.55.34-1.1.51-1.66-2.29,1.74-4.57,3.48-6.86,5.22h53.03c3.87,0,7.11-3.23,7.11-7.11s-3.24-7.11-7.11-7.11Z"/>
    </g>
    <polygon class="st6" points="180.73 236.24 154.32 236.24 154.11 236.24 127.7 236.24 116.26 273.87 154.11 273.87 154.32 273.87 192.17 273.87 180.73 236.24"/>
  </g>
  <polygon class="st10" points="127.22 237.74 116.26 273.87 146.09 273.87 121.73 270.31 127.22 237.74"/>
  <polygon class="st10" points="181.2 237.74 192.16 273.87 162.33 273.87 186.69 270.31 181.2 237.74"/>
  <g>
    <path class="st4" d="M212.96,307.51c0,1.74-26.34,3.14-58.84,3.14s-58.83-1.4-58.83-3.14,26.34-3.14,58.83-3.14,58.84,1.4,58.84,3.14Z"/>
    <path d="M154.12,311.86c-15.74,0-30.54-.33-41.66-.92-18.38-.98-18.38-2.12-18.38-3.43s0-2.45,18.38-3.43c11.12-.59,25.92-.92,41.66-.92s30.54.33,41.67.92c18.38.98,18.38,2.12,18.38,3.43s0,2.45-18.38,3.43c-11.12.59-25.92.92-41.67.92ZM99.66,307.51c7.87,1.03,27.83,1.93,54.47,1.93s46.6-.9,54.47-1.93c-7.87-1.03-27.83-1.93-54.47-1.93s-46.6.9-54.47,1.93Z"/>
  </g>
  <g>
    <g>
      <g>
        <path class="st11" d="M78.4,142.5c-1.04,9.47-9.55,16.3-19.01,15.26-9.47-1.03-16.3-9.54-15.26-19,1.03-9.46,9.54-16.3,19-15.27,9.46,1.04,16.3,9.55,15.27,19.01Z"/>
        <path d="M70.64,142.5c-.01.13-.03.24-.05.36.09-.69.18-1.37.28-2.06-.21,1.54-.61,3.01-1.19,4.45.26-.62.52-1.24.78-1.85-.42.95-.9,1.86-1.46,2.74-.33.53-1.45,1.92.21-.19-.35.45-.73.87-1.13,1.27-.32.33-.65.63-.99.94-1.45,1.28,1.54-1.07-.05.03-.93.65-1.94,1.17-2.98,1.63.62-.26,1.24-.52,1.85-.78-1.39.58-2.82.97-4.32,1.2.69-.09,1.37-.19,2.06-.28-1.55.2-3.09.2-4.64.02.69.1,1.37.18,2.06.28-1.53-.22-3.01-.61-4.44-1.2.61.26,1.23.52,1.85.78-.96-.42-1.86-.89-2.74-1.46-.52-.34-1.91-1.45.19.21-.44-.35-.86-.74-1.27-1.14-.33-.31-.63-.65-.93-.99-1.28-1.44,1.07,1.54-.03-.04-.65-.94-1.17-1.95-1.63-2.98.26.62.52,1.23.79,1.85-.58-1.39-.98-2.82-1.2-4.31.09.69.18,1.37.27,2.06-.2-1.55-.2-3.09-.01-4.63-.1.69-.19,1.37-.28,2.06.22-1.54.61-3.01,1.2-4.45-.26.62-.52,1.23-.79,1.85.42-.96.9-1.87,1.46-2.74.33-.53,1.46-1.92-.21.18.35-.44.74-.86,1.13-1.26.32-.33.65-.63.99-.94,1.44-1.28-1.54,1.07.04-.03.94-.65,1.95-1.18,2.98-1.63-.62.26-1.24.52-1.85.78,1.39-.57,2.83-.97,4.32-1.19-.69.09-1.37.19-2.06.27,1.55-.2,3.09-.21,4.64-.02-.69-.09-1.37-.19-2.06-.27,1.54.21,3.01.61,4.45,1.2-.62-.26-1.23-.52-1.85-.78.95.42,1.86.9,2.74,1.46.52.33,1.92,1.45-.19-.21.45.35.87.73,1.27,1.13.33.31.63.65.92.99,1.29,1.44-1.07-1.54.03.04.65.93,1.18,1.94,1.63,2.98-.26-.62-.52-1.24-.78-1.85.57,1.4.97,2.82,1.2,4.32-.09-.69-.19-1.37-.28-2.06.19,1.42.2,2.84.06,4.27-.42,4.21,3.84,7.75,7.76,7.75,2.04,0,4.03-.82,5.48-2.27,1.56-1.56,2.06-3.35,2.27-5.48.73-7.39-2.41-15.1-7.82-20.12-6.16-5.7-14.42-7.69-22.57-6.12-7.08,1.37-13.7,6.67-16.81,13.14-3.62,7.52-3.46,16.02.47,23.4,2.29,4.28,6.23,8.04,10.6,10.14,5.33,2.56,10.94,3.18,16.73,2.07,4.78-.92,9.46-3.76,12.75-7.31,1.68-1.81,3.17-3.9,4.2-6.15,1.38-3.03,2.05-5.74,2.44-9.05.23-1.92-.96-4.18-2.27-5.48-1.45-1.45-3.43-2.27-5.48-2.27s-4.04.82-5.49,2.27c-1.59,1.59-2.01,3.34-2.27,5.48Z"/>
      </g>
      <path class="st1" d="M78.4,142.5c-1.04,9.47-9.55,16.3-19.01,15.26-9.47-1.03-16.3-9.54-15.26-19,1.03-9.46,9.54-16.3,19-15.27,9.46,1.04,16.3,9.55,15.27,19.01Z"/>
      <path class="st17" d="M74.02,141.54c-.76,6.93-6.99,11.94-13.93,11.18-6.93-.76-11.94-6.99-11.19-13.92.76-6.94,7-11.94,13.92-11.19,6.94.76,11.95,7,11.19,13.93Z"/>
    </g>
    <g>
      <g>
        <path class="st11" d="M264.13,142.5c-1.04,9.47-9.54,16.3-19,15.26-9.46-1.03-16.29-9.54-15.26-19,1.03-9.46,9.54-16.3,19-15.27,9.46,1.04,16.3,9.55,15.26,19.01Z"/>
        <path d="M256.38,142.5c-.02.13-.03.24-.05.36.09-.69.18-1.37.28-2.06-.21,1.54-.61,3.01-1.19,4.45.26-.62.52-1.24.78-1.85-.42.95-.89,1.86-1.46,2.74-.32.53-1.45,1.92.21-.19-.35.45-.74.87-1.13,1.27-.31.33-.65.63-.99.94-1.45,1.28,1.54-1.07-.05.03-.93.65-1.94,1.17-2.98,1.63.61-.26,1.23-.52,1.85-.78-1.4.58-2.83.97-4.32,1.2.69-.09,1.38-.19,2.06-.28-1.55.2-3.09.2-4.64.02.69.1,1.38.18,2.06.28-1.54-.22-3.01-.61-4.45-1.2.61.26,1.23.52,1.85.78-.96-.42-1.86-.89-2.74-1.46-.51-.34-1.92-1.45.18.21-.44-.35-.85-.74-1.27-1.14-.32-.31-.62-.65-.93-.99-1.28-1.44,1.07,1.54-.03-.04-.65-.94-1.18-1.95-1.63-2.98.27.62.52,1.23.79,1.85-.58-1.39-.97-2.82-1.2-4.31.09.69.19,1.37.28,2.06-.2-1.55-.21-3.09-.02-4.63-.09.69-.18,1.37-.28,2.06.22-1.54.61-3.01,1.2-4.45-.26.62-.52,1.23-.78,1.85.42-.96.9-1.87,1.46-2.74.33-.53,1.45-1.92-.21.18.35-.44.74-.86,1.13-1.26.32-.33.65-.63.99-.94,1.44-1.28-1.54,1.07.04-.03.94-.65,1.95-1.18,2.98-1.63-.62.26-1.24.52-1.85.78,1.4-.57,2.82-.97,4.31-1.19-.68.09-1.37.19-2.06.27,1.55-.2,3.09-.21,4.64-.02-.69-.09-1.37-.19-2.06-.27,1.54.21,3.01.61,4.45,1.2-.62-.26-1.24-.52-1.85-.78.96.42,1.86.9,2.74,1.46.52.33,1.92,1.45-.19-.21.44.35.86.73,1.27,1.13.33.31.64.65.94.99,1.28,1.44-1.07-1.54.03.04.65.93,1.17,1.94,1.63,2.98-.26-.62-.52-1.24-.78-1.85.57,1.4.97,2.82,1.19,4.32-.09-.69-.18-1.37-.27-2.06.18,1.42.2,2.84.06,4.27-.42,4.21,3.84,7.75,7.75,7.75,2.05,0,4.04-.82,5.49-2.27,1.56-1.56,2.05-3.35,2.27-5.48.73-7.39-2.41-15.1-7.82-20.12-6.15-5.7-14.42-7.69-22.56-6.12-7.09,1.37-13.7,6.67-16.81,13.14-3.62,7.52-3.46,16.02.48,23.4,2.29,4.28,6.23,8.04,10.6,10.14,5.33,2.56,10.94,3.18,16.73,2.07,4.78-.92,9.47-3.76,12.76-7.31,1.68-1.81,3.17-3.9,4.19-6.15,1.39-3.03,2.05-5.74,2.44-9.05.23-1.92-.96-4.18-2.27-5.48-1.45-1.45-3.44-2.27-5.49-2.27s-4.04.82-5.48,2.27c-1.59,1.59-2.01,3.34-2.27,5.48Z"/>
      </g>
      <path class="st1" d="M264.13,142.5c-1.04,9.47-9.54,16.3-19,15.26-9.46-1.03-16.29-9.54-15.26-19,1.03-9.46,9.54-16.3,19-15.27,9.46,1.04,16.3,9.55,15.26,19.01Z"/>
      <path class="st17" d="M259.76,141.54c-.76,6.93-6.99,11.94-13.93,11.18-6.93-.76-11.94-6.99-11.18-13.92.76-6.94,7-11.94,13.93-11.19,6.93.76,11.94,7,11.18,13.93Z"/>
    </g>
  </g>
  <g>
    <g>
      <path class="st16" d="M59.67,113c.04,23.39.14,46.39.14,46.39,0,36.26,20.32,69.89,96.06,69.58,74.96-.31,92.71-33.32,92.71-69.58v-46.39H59.67Z"/>
      <path d="M50.63,113c.03,13.99.07,27.98.12,41.97.03,6.96.3,13.78,1.43,20.67,2.65,16.09,11.09,31.25,24.05,41.28,4,3.09,8.11,5.88,12.62,8.17,4.97,2.54,10.21,4.62,15.53,6.31,12.29,3.9,25.32,5.58,38.15,6.29,14.84.82,29.74.17,44.44-2.04,11.26-1.7,22.23-4.8,32.5-9.77,7.95-3.86,15.43-9.26,21.25-15.93,5.77-6.62,9.96-14.13,12.78-22.43,4.17-12.26,4.13-25.15,4.13-37.93v-36.58c0-4.93-4.12-9.04-9.04-9.04H59.67c-4.93,0-9.04,4.12-9.04,9.04s4.11,9.05,9.04,9.05h188.92c-3.02-3.01-6.04-6.03-9.05-9.05v38.65c0,6.81.1,13.6-.81,20.36.11-.8.22-1.6.33-2.4-.8,5.87-2.23,11.64-4.53,17.11.31-.72.61-1.44.92-2.16-1.81,4.28-4.13,8.31-6.96,12,.47-.61.95-1.22,1.41-1.84-2.88,3.73-6.24,7.04-9.97,9.92.61-.47,1.22-.94,1.84-1.42-4.68,3.6-9.85,6.46-15.28,8.76.72-.3,1.44-.61,2.16-.91-9.28,3.9-19.16,6.15-29.11,7.5.8-.11,1.6-.21,2.4-.32-17.74,2.37-36.1,2.38-53.84,0,.8.11,1.6.21,2.4.32-10.11-1.38-20.13-3.69-29.55-7.64.72.3,1.44.6,2.15.91-5.65-2.39-11.04-5.39-15.92-9.13.61.47,1.22.94,1.84,1.41-3.84-2.97-7.31-6.38-10.29-10.21.47.61.94,1.21,1.41,1.82-2.96-3.83-5.39-8.04-7.28-12.49.31.72.61,1.44.91,2.16-2.27-5.42-3.71-11.14-4.5-16.96.1.8.21,1.6.32,2.4-.76-5.77-.73-11.57-.76-17.38-.05-13.49-.09-26.98-.11-40.47,0-4.93-4.11-9.04-9.05-9.04s-9.05,4.12-9.04,9.04Z"/>
    </g>
    <path class="st1" d="M59.67,113c.04,23.39.14,46.39.14,46.39,0,36.26,20.32,69.89,96.06,69.58,74.96-.31,92.71-33.32,92.71-69.58v-46.39H59.67Z"/>
  </g>
  <path class="st19" d="M154.12,131.52c-36.04,0-69.02-1.95-94.39-5.18.02,8.38.05,15.29.06,19.14,25.37,3.22,58.32,5.17,94.33,5.17s69.07-1.96,94.46-5.19v-19.13c-25.39,3.23-58.39,5.19-94.46,5.19Z"/>
  <g>
    <path class="st16" d="M154.12,92.06c-80.15,0-145.12,9.65-145.12,21.55,0,5.04,11.68,9.68,31.23,13.35l21.39-10.29-8.19,12.45c26.1,3.73,61.59,6.03,100.7,6.03,22.1,0,43.05-.73,61.8-2.04l-7.17-20.09,27.36,18.36c6.06-.61,11.78-1.3,17.13-2.04l-11.1-9.64,17.75,8.66c24.4-3.85,39.35-9.05,39.35-14.75,0-11.9-64.97-21.55-145.12-21.55Z"/>
    <path d="M154.12,83.01c-33.73,0-67.56,1.48-101,6.06-10.65,1.46-21.39,3.21-31.71,6.31-7.09,2.13-15.55,5.04-19.65,11.72-3.24,5.28-1.77,11.69,2.34,16.01,4.34,4.55,11.1,6.8,16.94,8.59,3.75,1.17,7.58,2.08,11.42,2.9,3.16.68,7.04,1.94,10.18,1.07.87-.24,1.86-.76,2.73-1.19,3.42-1.64,6.84-3.28,10.25-4.93,3.52-1.7,7.04-3.39,10.56-5.08-4.12-4.13-8.25-8.26-12.38-12.38-2.73,4.15-5.45,8.3-8.19,12.45-1.3,1.98-1.53,4.74-.92,6.97.75,2.74,3.32,5.89,6.32,6.32,33.17,4.73,66.76,6.24,100.24,6.36,21.57.07,43.15-.55,64.67-2.05,2.46-.17,4.62-.86,6.4-2.65,2.15-2.15,3.39-5.82,2.32-8.8-2.39-6.7-4.78-13.39-7.17-20.09-4.43,3.4-8.86,6.81-13.29,10.22,5.71,3.83,11.42,7.67,17.13,11.5,3.03,2.03,6.07,4.07,9.1,6.1,2.06,1.39,4.2,2.16,6.84,1.89,4.49-.47,8.98-.99,13.46-1.59,1.65-.21,3.29-.44,4.94-.66,3-.42,5.57-3.59,6.32-6.32.81-2.94.06-6.73-2.33-8.8-3.7-3.21-7.4-6.43-11.11-9.64-3.65,4.73-7.3,9.47-10.96,14.2,5.9,2.88,11.81,5.76,17.71,8.63,2.47,1.2,4.34,1.36,7.02.94,1.1-.17,2.21-.36,3.31-.54,2.26-.38,4.51-.79,6.76-1.23,3.77-.73,7.53-1.58,11.24-2.57,5.68-1.51,11.74-3.35,16.69-6.59,2.49-1.62,4.73-3.56,6.25-6.14,1.74-2.97,2-6.17,1.35-9.47-.79-4.04-4.14-7.06-7.33-9.28-3.04-2.12-6.7-3.46-10.16-4.69-4.11-1.46-8.36-2.54-12.61-3.5-12.71-2.88-25.71-4.55-38.65-5.95-16.1-1.74-32.28-2.77-48.47-3.39-12.18-.47-24.37-.69-36.55-.69-4.93,0-9.05,4.12-9.05,9.05s4.12,9.05,9.05,9.05c32.5,0,65.19,1.25,97.42,5.57-.8-.1-1.6-.21-2.4-.32,7.79,1.06,15.57,2.3,23.26,4,5.52,1.22,11.08,2.64,16.31,4.84-.72-.3-1.44-.61-2.16-.92,1.95.84,3.87,1.77,5.56,3.06-.61-.47-1.22-.94-1.83-1.42.58.46,1.13.97,1.6,1.55-.47-.61-.94-1.22-1.41-1.83.28.36.52.74.7,1.16-.31-.71-.61-1.44-.91-2.16.12.3.21.6.25.93-.1-.8-.21-1.6-.32-2.4.03.27.03.54,0,.82.11-.8.21-1.61.33-2.4-.05.31-.13.61-.24.91.3-.72.61-1.44.91-2.16-.18.42-.4.8-.68,1.16.47-.61.95-1.22,1.41-1.83-.49.62-1.07,1.15-1.69,1.64.61-.47,1.22-.94,1.83-1.41-1.68,1.27-3.59,2.2-5.52,3.03.72-.3,1.44-.61,2.16-.91-9.84,4.12-20.72,5.95-31.19,7.61,2.32.3,4.65.61,6.96.91-5.91-2.88-11.83-5.77-17.75-8.65-3.69-1.81-7.93-1.62-10.96,1.41-3.3,3.3-3.73,9.55,0,12.79,3.7,3.21,7.4,6.43,11.1,9.64,1.33-5.04,2.66-10.08,3.99-15.12-.51.07-1.01.14-1.52.21.81-.11,1.61-.22,2.41-.32-5.19.69-10.4,1.3-15.61,1.84,1.52.41,3.04.82,4.57,1.23-9.12-6.12-18.24-12.24-27.36-18.37-6.42-4.3-15.93,2.84-13.29,10.22,2.39,6.69,4.79,13.39,7.18,20.09,2.9-3.82,5.81-7.63,8.72-11.45-36.04,2.51-72.3,2.71-108.38.91-16.91-.84-33.82-2.17-50.61-4.41.8.11,1.6.22,2.4.33-1.16-.16-2.34-.32-3.5-.49,1.8,4.43,3.6,8.86,5.4,13.29,2.73-4.15,5.46-8.3,8.19-12.44,2.22-3.38,1.35-8.21-1.41-10.97-3.05-3.05-7.26-3.2-10.96-1.41-7.13,3.43-14.26,6.86-21.38,10.29,2.32-.3,4.65-.61,6.97-.91-7.81-1.48-15.75-3.14-23.1-6.23.72.3,1.44.61,2.16.91-1.94-.83-3.85-1.77-5.54-3.05.61.47,1.22.95,1.83,1.42-.62-.49-1.2-1.03-1.69-1.66.47.61.94,1.22,1.41,1.84-.23-.32-.42-.64-.58-.99.3.72.61,1.44.91,2.16-.14-.32-.24-.65-.29-1,.11.8.21,1.6.32,2.4-.03-.29-.03-.56,0-.85-.1.8-.21,1.6-.32,2.4.05-.32.13-.63.25-.93-.31.72-.61,1.44-.91,2.16.17-.42.42-.8.69-1.16-.47.61-.95,1.22-1.41,1.83.47-.59,1.02-1.09,1.6-1.55-.6.47-1.22.95-1.83,1.42,1.68-1.29,3.61-2.23,5.55-3.06-.72.31-1.45.61-2.16.92,5.13-2.16,10.59-3.56,16.02-4.78,7.77-1.74,15.66-3,23.55-4.06-.8.11-1.6.22-2.4.32,32.24-4.32,64.93-5.57,97.42-5.57,4.93,0,9.05-4.12,9.05-9.05s-4.12-9.05-9.05-9.05Z"/>
  </g>
  <path class="st14" d="M154.12,92.06c-80.15,0-145.12,9.65-145.12,21.55,0,5.04,11.68,9.68,31.23,13.35l21.39-10.29-8.19,12.45c26.1,3.73,61.59,6.03,100.7,6.03,22.1,0,43.05-.73,61.8-2.04l-7.17-20.09,27.36,18.36c6.06-.61,11.78-1.3,17.13-2.04l-11.1-9.64,17.75,8.66c24.4-3.85,39.35-9.05,39.35-14.75,0-11.9-64.97-21.55-145.12-21.55Z"/>
  <g>
    <path class="st15" d="M154.12,127.91c-36.97,0-70.71-2.05-96.33-5.43l-4.37,6.64c26.1,3.73,61.59,6.03,100.7,6.03,22.1,0,43.05-.73,61.8-2.04l-2.52-7.07c-18.1,1.2-38.16,1.88-59.28,1.88Z"/>
    <path class="st15" d="M61.62,109.44l-21.39,10.28c-14.77-2.77-25.05-6.1-29.19-9.74-1.34,1.18-2.04,2.38-2.04,3.62,0,5.04,11.68,9.68,31.23,13.35l14.42-6.94,6.97-10.58Z"/>
    <path class="st15" d="M297.21,109.98c-4.87,4.27-18.19,8.11-37.32,11.13l-17.75-8.65,11.1,9.64c-1.58.23-3.2.43-4.86.64l11.51,5.61c24.4-3.85,39.35-9.05,39.35-14.75,0-1.24-.7-2.44-2.04-3.62Z"/>
    <path class="st15" d="M236.12,124.15l-27.36-18.37,3.4,9.52,23.96,16.09c6.06-.61,11.78-1.3,17.13-2.04l-7.25-6.29c-3.19.38-6.48.76-9.88,1.1Z"/>
  </g>
  <g>
    <path class="st16" d="M256.31,92.77c-.44-15.54-4.35-34.52-17.64-50.68C210.62,7.95,154.43,9.04,154.12,9.05c-.31,0-56.5-1.1-84.54,33.04-13.28,16.17-17.2,35.15-17.63,50.68,0,0,26.94,12.29,101.9,12.29s102.46-12.29,102.46-12.29Z"/>
    <path d="M265.35,92.77c-.42-14.41-3.53-28.5-9.94-41.45-6.23-12.58-15.9-22.96-27.42-30.85-9.32-6.39-20.01-10.9-30.8-14.13-9.19-2.75-18.67-4.41-28.2-5.47-7.03-.79-14.11-1.08-21.18-.71-18.74.98-37.38,5.03-54.46,12.92-10.6,4.89-20.56,11.8-28.37,20.51-10.17,11.33-16.95,25.43-19.95,40.32-1.25,6.2-1.95,12.54-2.14,18.86-.09,2.91,1.73,6.56,4.48,7.81,6.52,2.96,13.59,4.67,20.56,6.16,21.42,4.56,43.48,6.3,65.33,7.03,27.8.92,55.87.31,83.49-3.24,13.02-1.67,26.26-3.65,38.74-7.85,1.83-.61,3.61-1.32,5.37-2.1,2.03-.9,3.6-3.35,4.16-5.4.64-2.34.31-4.88-.91-6.97-1.19-2.02-3.15-3.53-5.41-4.16-2.55-.7-4.65-.12-6.97.91-.04.02-.1.04-.14.06.72-.3,1.44-.61,2.16-.91-7.09,2.99-14.93,4.54-22.43,5.97-5.05.97-10.13,1.77-15.22,2.46.8-.11,1.6-.22,2.4-.33-27.3,3.65-55.04,4.31-82.54,3.55-15.49-.43-30.99-1.45-46.35-3.51.8.11,1.6.21,2.4.33-11.75-1.58-23.73-3.57-34.97-7.49-.83-.29-1.66-.59-2.47-.94.72.31,1.44.61,2.16.91-.08-.03-.16-.07-.24-.1,1.5,2.6,2.98,5.21,4.48,7.81.1-3.61.39-7.21.87-10.8-.11.8-.21,1.61-.32,2.4,1.04-7.5,2.94-14.87,5.89-21.85-.31.72-.61,1.44-.91,2.16,2.47-5.78,5.62-11.23,9.44-16.22-.47.61-.94,1.22-1.41,1.83,3.75-4.84,8.08-9.13,12.91-12.88-.61.47-1.22.95-1.83,1.41,6.16-4.73,12.96-8.52,20.1-11.56-.72.31-1.44.61-2.17.92,11-4.64,22.68-7.51,34.49-9.11-.8.11-1.61.22-2.41.32,7.48-1,15.03-1.51,22.57-1.25,4.82.17,9.63.61,14.41,1.25-.8-.1-1.61-.21-2.41-.32,11.81,1.6,23.49,4.47,34.49,9.11-.72-.31-1.44-.61-2.16-.92,7.13,3.04,13.94,6.83,20.1,11.56-.61-.47-1.22-.94-1.83-1.41,4.83,3.74,9.17,8.04,12.91,12.88-.47-.61-.94-1.22-1.41-1.83,3.82,4.99,6.97,10.44,9.44,16.22-.3-.72-.6-1.44-.91-2.16,2.94,6.99,4.85,14.35,5.89,21.85-.11-.8-.22-1.6-.33-2.4.48,3.59.76,7.19.87,10.8.15,4.93,4.01,9.05,9.05,9.05s9.2-4.11,9.05-9.05Z"/>
  </g>
  <path class="st14" d="M256.31,92.77c-.44-15.54-4.35-34.52-17.64-50.68C210.62,7.95,154.43,9.04,154.12,9.05c-.31,0-56.5-1.1-84.54,33.04-13.28,16.17-17.2,35.15-17.63,50.68,0,0,26.94,12.29,101.9,12.29s102.46-12.29,102.46-12.29Z"/>
  <path class="st0" d="M69.58,48.81C97.63,14.66,153.82,15.76,154.12,15.76c.31,0,56.5-1.1,84.54,33.05,11.46,13.95,15.95,30.01,17.24,44.13.26-.11.39-.17.39-.17-.44-15.54-4.35-34.52-17.64-50.68C210.62,7.95,154.43,9.04,154.12,9.05c-.31,0-56.5-1.1-84.54,33.04-13.28,16.17-17.2,35.15-17.63,50.68,0,0,.13.06.39.17,1.3-14.13,5.78-30.18,17.24-44.13Z"/>
  <g>
    <g>
      <path class="st16" d="M153.85,84.5c-61.79,0-90.95-8.34-99.29-11.28-1.7,6.97-2.44,13.8-2.61,20.06,0,0,26.94,12.28,101.9,12.28s102.46-12.28,102.46-12.28c-.17-6.27-.92-13.1-2.62-20.08-8.42,2.92-37.96,11.29-99.84,11.29Z"/>
      <path d="M153.85,75.46c-21.41-.01-42.88-.91-64.12-3.74.8.1,1.6.21,2.41.33-11.79-1.58-23.82-3.57-35.1-7.51-.03-.01-.05-.02-.07-.02-4.54-1.6-10.04,1.76-11.12,6.32-1.76,7.34-2.71,14.92-2.94,22.47-.09,2.9,1.73,6.56,4.48,7.81,6.52,2.96,13.59,4.67,20.56,6.16,21.42,4.56,43.48,6.31,65.33,7.03,27.8.92,55.87.31,83.49-3.24,13.02-1.67,26.26-3.65,38.74-7.85,1.83-.62,3.61-1.32,5.37-2.1,2.76-1.23,4.57-4.93,4.48-7.81-.22-7.55-1.18-15.13-2.94-22.48-1.1-4.57-6.58-7.89-11.13-6.32-11.26,3.9-23.25,5.89-35.03,7.48.8-.11,1.6-.21,2.41-.33-21.46,2.89-43.18,3.8-64.81,3.82-4.94,0-9.05,4.11-9.05,9.05s4.12,9.04,9.05,9.04c25.69,0,51.49-1.33,76.86-5.59,8.55-1.44,17.18-3.18,25.39-6.02-3.71-2.11-7.42-4.21-11.13-6.32.74,3.08,1.32,6.19,1.75,9.34-.11-.8-.22-1.6-.32-2.4.47,3.56.75,7.14.86,10.73,1.5-2.61,2.99-5.21,4.48-7.81-.04.02-.1.04-.14.06.72-.31,1.44-.61,2.16-.91-7.09,2.98-14.93,4.54-22.43,5.97-5.05.97-10.13,1.77-15.22,2.45.8-.11,1.6-.21,2.4-.32-27.3,3.66-55.04,4.32-82.54,3.55-15.49-.43-30.99-1.46-46.35-3.51.8.1,1.6.21,2.4.32-11.75-1.59-23.73-3.57-34.97-7.49-.83-.29-1.66-.59-2.47-.93.72.3,1.44.6,2.16.91-.08-.04-.16-.07-.24-.11,1.5,2.6,2.98,5.2,4.48,7.81.11-3.59.39-7.17.86-10.73-.1.8-.21,1.61-.32,2.4.43-3.14,1.01-6.25,1.75-9.33-3.71,2.11-7.42,4.21-11.12,6.32,11.2,3.93,23.16,5.91,34.88,7.49,22.15,3,44.47,4.1,66.82,4.1,4.93,0,9.04-4.12,9.04-9.04s-4.11-9.04-9.04-9.05Z"/>
    </g>
    <path class="st6" d="M153.85,84.5c-61.79,0-90.95-8.34-99.29-11.28-1.7,6.97-2.44,13.8-2.61,20.06,0,0,26.94,12.28,101.9,12.28s102.46-12.28,102.46-12.28c-.17-6.27-.92-13.1-2.62-20.08-8.42,2.92-37.96,11.29-99.84,11.29Z"/>
    <path class="st8" d="M54.56,79.04c8.34,2.93,37.5,11.28,99.29,11.28s91.42-8.38,99.84-11.3c1.2,4.92,1.92,9.77,2.3,14.39.21-.08.31-.13.31-.13-.17-6.27-.92-13.1-2.62-20.08-8.42,2.92-37.96,11.29-99.84,11.29s-90.95-8.34-99.29-11.28c-1.7,6.97-2.44,13.8-2.61,20.06,0,0,.1.05.31.13.38-4.62,1.1-9.46,2.3-14.38Z"/>
    <path class="st10" d="M153.85,100.06c-70.5,0-98.52-10.87-101.61-12.16-.15,1.84-.25,3.64-.29,5.39,0,0,26.94,12.28,101.9,12.28s102.46-12.28,102.46-12.28c-.05-1.75-.14-3.55-.29-5.39-3.12,1.28-31.64,12.16-102.17,12.16Z"/>
  </g>
  <path class="st11" d="M191.33,32.75c10.09,3.05,17.15,9.21,15.77,13.75-1.38,4.54-10.67,5.73-20.75,2.67-10.09-3.06-17.15-9.21-15.77-13.75,1.38-4.54,10.67-5.73,20.75-2.67Z"/>
  <path class="st11" d="M215.2,49.55c0,1.61-1.3,2.91-2.91,2.91s-2.9-1.3-2.9-2.91,1.3-2.91,2.9-2.91,2.91,1.3,2.91,2.91Z"/>
  <g>
    <g>
      <g>
        <g>
          <g>
            <path class="st4" d="M114.58,169.33c0,8.45-6.85,15.3-15.3,15.3s-15.3-6.85-15.3-15.3,6.85-15.3,15.3-15.3,15.3,6.85,15.3,15.3Z"/>
            <path d="M112.64,169.33c-.06,5.55-3.48,10.6-8.72,12.55-5.4,2-11.31.22-15-4.08-3.67-4.28-3.87-10.65-1.07-15.4,2.84-4.8,8.65-7.24,14.08-6.16,6.22,1.23,10.63,6.83,10.71,13.1.03,2.5,3.9,2.51,3.88,0-.07-6.06-3.2-11.57-8.35-14.77-5.2-3.22-11.87-3.17-17.2-.34-5.31,2.83-8.57,8.47-8.92,14.39-.35,6.05,2.84,11.76,7.76,15.12,5.24,3.58,12.26,3.64,17.77.7,5.52-2.94,8.86-8.93,8.94-15.11.02-2.5-3.85-2.5-3.88,0Z"/>
          </g>
          <path class="st11" d="M110.29,165.31c0,2.08-1.68,3.76-3.76,3.76s-3.76-1.68-3.76-3.76,1.68-3.76,3.76-3.76,3.76,1.69,3.76,3.76Z"/>
        </g>
        <path class="st9" d="M99.86,195.6c.33,2.39-3.79,4.93-9.2,5.66-5.41.74-10.05-.61-10.37-3-.33-2.39,3.79-4.92,9.2-5.66,5.4-.74,10.04.61,10.37,3Z"/>
      </g>
      <g>
        <g>
          <g>
            <path class="st4" d="M224.28,169.33c0,8.45-6.85,15.3-15.3,15.3s-15.3-6.85-15.3-15.3,6.85-15.3,15.3-15.3,15.3,6.85,15.3,15.3Z"/>
            <path d="M222.34,169.33c-.06,5.55-3.48,10.6-8.72,12.55-5.39,2-11.31.22-15-4.08-3.67-4.28-3.87-10.65-1.07-15.4,2.84-4.8,8.65-7.24,14.08-6.16,6.22,1.23,10.64,6.83,10.71,13.1.03,2.5,3.91,2.51,3.88,0-.07-6.06-3.2-11.57-8.35-14.77-5.19-3.22-11.88-3.17-17.2-.34-5.31,2.83-8.58,8.47-8.91,14.39-.35,6.05,2.83,11.76,7.76,15.12,5.24,3.58,12.26,3.64,17.78.7,5.51-2.94,8.86-8.93,8.93-15.11.03-2.5-3.85-2.5-3.88,0Z"/>
          </g>
          <path class="st11" d="M219.98,165.31c0,2.08-1.68,3.76-3.76,3.76s-3.76-1.68-3.76-3.76,1.68-3.76,3.76-3.76,3.76,1.69,3.76,3.76Z"/>
        </g>
        <path class="st9" d="M208.4,195.6c-.33,2.39,3.8,4.93,9.2,5.66,5.4.74,10.04-.61,10.37-3,.32-2.39-3.79-4.92-9.2-5.66-5.4-.74-10.04.61-10.37,3Z"/>
      </g>
    </g>
    <path d="M137.36,199.23c.1,2.26.93,4.58,2.25,6.41,3.24,4.51,8.46,6.21,13.85,6.32,5.12.1,10.82-1.34,14.27-5.38,1.74-2.04,2.87-4.42,3.17-7.08.24-2.11-1.93-3.87-3.88-3.87-2.28,0-3.65,1.77-3.88,3.87.22-1.95.03-.37-.15.22-.07.2-.14.39-.22.58.56-1.38.2-.46.03-.14-.12.24-.27.48-.42.71-.16.26-.84,1.14-.02.09-.42.54-.92,1.02-1.45,1.46.95-.8-.09.04-.35.2-.36.23-.74.43-1.12.61-.38.18-.32.16.17-.05-.27.11-.54.2-.81.29-.5.17-1,.3-1.51.42-.23.05-1.81.28-1.04.19-.79.09-1.58.12-2.38.13-.66,0-1.32-.02-1.98-.08-.25-.02-.49-.04-.73-.07.89.1-.2-.06-.32-.08-.51-.1-1.02-.24-1.51-.38-.19-.06-.37-.13-.55-.2-.91-.32.76.36-.09-.03-.38-.17-.76-.38-1.11-.6-.14-.08-.27-.17-.4-.26-.7-.47.69.57.06.05-.27-.22-.53-.47-.78-.72-.13-.14-.27-.3-.39-.46-.49-.56.57.78.14.19-.33-.47-.61-.96-.85-1.48-.22-.45.4,1.07.07.11-.08-.2-.13-.4-.19-.61-.09-.31-.15-.62-.2-.94-.05-.32.13,1.34.09.58-.1-2.11-1.69-3.87-3.88-3.87-2.04,0-3.98,1.77-3.87,3.87h0Z"/>
  </g>
  <g>
    <path class="st16" d="M186.48,254.74s-6.89,0-9.74-2.93c-2.84-2.93-4.05-15.62-4.05-15.62h-5.17v13.72h-26.69v-13.72h-5.17s-1.2,12.68-4.05,15.62c-2.84,2.93-9.73,2.93-9.73,2.93l-5.62,19.3h75.83l-5.61-19.3Z"/>
    <path d="M186.48,247.64c-.59,0-1.17-.04-1.74-.09-.24-.02-.48-.05-.71-.08-1.12-.13,2.21.34.55.06-.69-.12-1.38-.28-2.05-.48-.3-.08-.59-.18-.88-.29-1.12-.39,1.83.89.31.11-.26-.13-.51-.3-.75-.46,1.85,1.24.92.76.46.27,1.78,1.93.7.96.28.14-.66-1.3.66,1.67.25.64-.13-.31-.24-.63-.35-.95-.83-2.47-1.3-5.07-1.71-7.64-.09-.55-.17-1.12-.24-1.69.4,2.96.14,1.03.05.34-.05-.44-.1-.88-.14-1.31-.37-3.86-2.95-7.11-7.11-7.11h-5.17c-3.88,0-7.11,3.24-7.11,7.11v13.72c2.37-2.37,4.74-4.74,7.11-7.11h-26.69c2.37,2.37,4.74,4.74,7.11,7.11v-13.72c0-3.87-3.24-7.11-7.11-7.11h-5.17c-4.15,0-6.73,3.26-7.11,7.11-.03.38-.07.77-.12,1.15-.05.42-.1.85-.16,1.28.4-3.06.1-.75-.01-.03-.4,2.67-.91,5.33-1.75,7.9-.08.24-.17.48-.25.72-.53,1.45.7-1.56.26-.61-.2.43-.43.84-.71,1.22,1.37-1.92,1.08-1.33.58-.85-.79.77,1.7-1.13.28-.26-.25.15-.53.28-.8.41,2.21-1.05.85-.36.27-.17-.67.21-1.36.37-2.06.51-.27.06-.56.1-.84.14,1.44-.19,1.81-.24,1.1-.15-.17.02-.33.04-.49.05-.65.07-1.31.12-1.97.12-3.2.01-5.97,2.16-6.86,5.22-1.86,6.43-3.74,12.86-5.61,19.3-1.29,4.45,2.28,9,6.85,9h75.83c4.58,0,8.15-4.55,6.86-9-1.88-6.44-3.75-12.87-5.62-19.3-1.08-3.72-4.97-6-8.75-4.96-3.69,1.01-6.04,5.02-4.96,8.75,1.88,6.43,3.75,12.86,5.62,19.29,2.29-3,4.57-5.99,6.86-8.99h-75.83c2.29,3,4.57,6,6.85,8.99,1.87-6.43,3.75-12.86,5.62-19.29-2.28,1.74-4.57,3.47-6.85,5.21,2.68,0,5.47-.4,8.03-1.18,2.51-.76,4.84-1.99,6.73-3.83,1.6-1.57,2.41-3.57,3.23-5.61,1.86-4.65,2.42-10.09,2.9-15.03-2.37,2.37-4.74,4.74-7.11,7.11h5.17c-2.37-2.37-4.74-4.74-7.11-7.11v13.72c0,3.87,3.23,7.11,7.11,7.11h26.69c3.87,0,7.1-3.23,7.1-7.11v-13.72c-2.37,2.37-4.74,4.74-7.1,7.11h5.17c-2.37-2.37-4.74-4.74-7.11-7.11.48,4.98,1.1,10.32,2.9,15.03.83,2.18,1.62,3.71,3.12,5.48,1.61,1.92,4.26,3.05,6.55,3.86,2.59.92,5.57,1.27,8.32,1.28,3.88.01,7.11-3.25,7.11-7.11s-3.23-7.09-7.11-7.11Z"/>
  </g>
  <path class="st20" d="M186.48,254.74s-6.89,0-9.74-2.93c-2.84-2.93-4.05-15.62-4.05-15.62h-5.17v13.72h-26.69v-13.72h-5.17s-1.2,12.68-4.05,15.62c-2.84,2.93-9.73,2.93-9.73,2.93l-5.62,19.3h75.83l-5.61-19.3Z"/>
  <g>
    <path class="st13" d="M121.88,257.5s6.89,0,9.73-2.93c2.84-2.93,4.05-15.62,4.05-15.62h5.17v-2.75h-5.17s-1.2,12.68-4.05,15.62c-2.84,2.93-9.73,2.93-9.73,2.93l-5.62,19.3h.8l4.82-16.54Z"/>
    <path class="st13" d="M176.74,254.57c2.84,2.93,9.74,2.93,9.74,2.93l4.81,16.54h.8l-5.61-19.3s-6.89,0-9.74-2.93c-2.84-2.93-4.05-15.62-4.05-15.62h-5.17v2.75h5.17s1.21,12.69,4.05,15.62Z"/>
    <rect class="st18" x="140.83" y="249.92" width="26.69" height="2.76"/>
  </g>
  <g>
    <polygon class="st20" points="116.12 281.84 192.36 282.29 192.09 274.04 116.26 274.04 116.12 281.84"/>
    <path class="st20" d="M192.78,282.7h-.42l-76.66-.46.16-8.6h76.62l.3,9.06ZM116.53,281.44l75.42.45-.25-7.44h-75.05l-.13,6.99Z"/>
  </g>
  <g>
    <g>
      <rect class="st6" x="104.85" y="241.72" width="7.76" height="17.57" transform="translate(-162.19 216.22) rotate(-59.32)"/>
      <path d="M115.62,256.09c-5.04-2.99-10.08-5.97-15.12-8.96.31,1.18.62,2.35.92,3.54,1.32-2.22,2.64-4.45,3.96-6.67-1.18.31-2.36.62-3.54.93,5.04,2.99,10.08,5.98,15.11,8.96-.31-1.18-.61-2.35-.93-3.53-1.32,2.22-2.63,4.45-3.95,6.67-1.7,2.88,2.77,5.47,4.46,2.61,1.32-2.22,2.64-4.45,3.95-6.67.72-1.22.28-2.82-.93-3.54-5.04-2.98-10.08-5.97-15.12-8.96-1.22-.72-2.82-.28-3.54.93-1.32,2.22-2.64,4.44-3.95,6.67-.72,1.22-.28,2.82.93,3.54,5.04,2.98,10.08,5.97,15.12,8.96,2.88,1.7,5.47-2.77,2.61-4.46Z"/>
    </g>
    <rect class="st10" x="107.76" y="245.15" width=".78" height="12.04" transform="translate(-163.16 216.93) rotate(-59.51)"/>
  </g>
  <g>
    <g>
      <rect class="st6" x="191.35" y="246.63" width="17.58" height="7.76" transform="translate(-99.79 137.14) rotate(-30.67)"/>
      <path d="M195.87,260.55c5.04-2.99,10.08-5.98,15.12-8.96,1.21-.71,1.65-2.32.93-3.54-1.32-2.22-2.64-4.44-3.95-6.67-.72-1.21-2.32-1.65-3.54-.93-5.04,2.98-10.07,5.97-15.12,8.96-1.2.72-1.65,2.32-.93,3.54,1.32,2.22,2.64,4.45,3.95,6.67,1.7,2.86,6.17.27,4.46-2.61-1.32-2.22-2.64-4.45-3.95-6.67-.31,1.18-.62,2.36-.93,3.53,5.04-2.98,10.08-5.97,15.12-8.96-1.18-.31-2.36-.62-3.53-.93,1.32,2.22,2.64,4.45,3.95,6.67.31-1.18.62-2.36.93-3.54-5.03,2.99-10.08,5.97-15.12,8.96-2.87,1.7-.27,6.16,2.61,4.46Z"/>
    </g>
    <rect class="st10" x="194.71" y="250.77" width="12.04" height=".78" transform="translate(-99.66 136.53) rotate(-30.48)"/>
  </g>
  <g>
    <g>
      <g>
        <path class="st16" d="M171,261.42h-33.77s0,15.68,16.89,15.68,16.89-15.68,16.89-15.68Z"/>
        <path d="M171,255.61h-33.77c-3.16,0-5.82,2.64-5.81,5.81.02,6.97,3.58,13.51,9.09,17.64,5.13,3.84,12.22,4.32,18.33,3.46,5.72-.82,10.4-3.87,13.85-8.4,2.61-3.42,4.12-8.37,4.13-12.69,0-3.17-2.66-5.81-5.81-5.81s-5.81,2.64-5.82,5.81c0,.48-.05.96-.1,1.44.26-2.18.13-.86-.08.09-.14.68-.33,1.35-.55,2.02-.11.34-.23.68-.37,1.01-.32.83.66-1.52.29-.7-.08.18-.16.35-.25.53-.39.8-.85,1.55-1.37,2.27-.55.77.98-1.24.39-.5-.14.17-.28.33-.43.5-.3.34-.62.65-.96.96-.17.15-.35.3-.53.46-.77.64,1.24-.92.42-.33-.47.34-.98.64-1.49.92-.23.13-.46.24-.7.35-.98.47,1.41-.57.39-.16-.54.21-1.09.38-1.64.53-.59.17-1.2.28-1.81.39-1.21.21,1.48-.17.23-.03-.47.05-.94.08-1.4.1-.74.04-1.48.03-2.22,0-.5-.02-2.91-.3-.85-.02-1.3-.19-2.56-.52-3.78-.98-1.02-.39,1.36.61.39.16-.24-.1-.48-.23-.7-.35-.44-.23-.87-.5-1.29-.78-.37-.24-1.15-.87.4.34-.18-.14-.36-.3-.54-.45-.4-.35-.77-.73-1.13-1.11-.15-.16-.29-.33-.43-.5-.61-.73.95,1.25.39.5-.25-.34-.47-.69-.69-1.05-.21-.34-.4-.69-.58-1.05-.09-.17-.17-.35-.26-.53-.52-1.11.55,1.34.22.53-.55-1.35-.91-2.77-1.13-4.21-.06-.38.23,2,.1.7-.02-.19-.03-.38-.05-.56,0-.16-.02-.32-.02-.48-1.94,1.94-3.88,3.88-5.82,5.82h33.77c3.17,0,5.81-2.64,5.81-5.82s-2.64-5.81-5.81-5.81Z"/>
      </g>
      <path class="st6" d="M171,261.42h-33.77s0,15.68,16.89,15.68,16.89-15.68,16.89-15.68Z"/>
      <path class="st10" d="M154.11,272.96c-11.29,0-15.34-6.72-16.79-11.54h-.09s0,15.68,16.89,15.68,16.89-15.68,16.89-15.68h-.09c-1.45,4.83-5.51,11.54-16.79,11.54Z"/>
    </g>
    <rect class="st4" x="135.57" y="264.48" width="36.71" height="4.65"/>
  </g>
  <g>
    <g>
      <path class="st16" d="M110.72,296.67c.43.99-.02,2.14-1,2.57h0c-.99.43-2.13-.02-2.56-1l-14.76-33.76c-.43-.98.02-2.13,1.01-2.56h0c.98-.43,2.13.02,2.56,1l14.76,33.76Z"/>
      <path d="M103.86,298.56c.04.11.07.22.11.33-.49-1.93-.06-3.62,1.28-5.07,1.94-2.23,5.29-1.8,7.3-.04.71.61.89,1.21.71.81-.1-.21-.18-.41-.27-.62-.42-.95-.84-1.91-1.26-2.86-1.46-3.35-2.92-6.69-4.39-10.04-2.8-6.42-5.61-12.84-8.41-19.26-.11-.24-.21-.49-.32-.74-.02-.05-.05-.11-.07-.16-.2-.46-.05-.57.59,1.35,1.32,3.97-2.62,7.19-6.3,6.43-.58-.12-2.64-1.33-3-2.14.03.06.06.12.08.18.13.29.25.58.38.88,1.17,2.67,2.34,5.34,3.5,8.01,3.12,7.14,6.24,14.27,9.36,21.41.47,1.08.94,2.16,1.41,3.25,1.56,3.54,6.68,4.33,9.73,2.54,1.59-.93,2.77-2.48,3.26-4.25.55-2.02.09-3.64-.72-5.48-4.86-11.11-9.71-22.22-14.57-33.34-1.41-3.23-4.81-4.99-8.21-5.1-2.28-.07-4.3,1.03-6.01,2.41-1.36,1.1-1.98,2.63-2.6,4.2-.89,2.29-.08,4.79.83,6.89.82,1.88,1.65,3.76,2.47,5.64,3.2,7.32,6.39,14.63,9.59,21.94.82,1.87,1.64,3.75,2.46,5.62,1.02,2.34,3.05,3.8,5.38,4.7,6.71,2.64,13.57-4.72,11.39-11.27-1.22-3.67-4.86-6.04-8.74-4.96-3.59.98-6.19,5.07-4.97,8.75Z"/>
    </g>
    <path class="st12" d="M110.72,296.67c.43.99-.02,2.14-1,2.57h0c-.99.43-2.13-.02-2.56-1l-14.76-33.76c-.43-.98.02-2.13,1.01-2.56h0c.98-.43,2.13.02,2.56,1l14.76,33.76Z"/>
    <path class="st5" d="M107.9,297.91l-14.75-33.76c-.38-.85-.09-1.84.64-2.36-.13.02-.26.07-.39.12-.99.43-1.44,1.58-1.01,2.56l14.76,33.76c.43.99,1.58,1.44,2.56,1,.13-.06.25-.12.36-.21-.88.18-1.8-.27-2.18-1.12Z"/>
    <path class="st2" d="M109.97,297l-14.75-33.75c-.38-.86-1.29-1.31-2.18-1.13.11-.08.23-.15.36-.21.98-.43,2.13.02,2.56,1l14.76,33.76c.43.99-.02,2.14-1,2.57-.13.06-.26.1-.39.12.73-.53,1.02-1.5.64-2.36Z"/>
    <g>
      <g>
        <path class="st16" d="M88.96,226.46c-.93.27,2.12,6.27,4,12.13,1.55,4.83,2.06,9.68,1.15,10.23-2.01,1.24-8.74-20.68-11.1-19.7-2.25.92,8.3,20.25,5.78,21.9h0s-.06.03-.1.05c-.03.02-.07.03-.1.04h0c-2.93.73-9.95-20.13-12.15-19.11-2.31,1.08,9.2,20.9,6.92,21.53-1.02.29-4.24-3.38-6.73-7.79-3.03-5.36-5.36-11.67-6.19-11.18-1.51.89,3.46,16.9,10.22,21.87,2.53,1.87,5.46,2.41,8.23,1.91l.53,1.23c.4.92,1.48,1.34,2.4.94l1.67-.73c.92-.4,1.34-1.48.94-2.4l-.53-1.22c2.24-1.7,3.84-4.21,4.19-7.34.93-8.34-7.44-22.86-9.12-22.35Z"/>
        <path d="M85.38,220.33c-3.28,1.64-3.98,5.4-3.42,8.66.2,1.15.68,2.26,1.1,3.33,1.35,3.49,2.8,6.94,3.74,10.56.23.89.42,1.79.58,2.71.09.5.25,2.04-.03-.28.05.36.07.7.09,1.06.01.31.01.61.01.91-.02,1.18.35-2,.14-.96-.01.06-.03.12-.05.17.74-2.29,2.27-3.78,4.58-4.48,1.66-.57,3.82-.13,5.11.62,2.05,1.21,1.54,1.33.99.69,1.84,2.16,1.01,1.35.61.73-.4-.62-.73-1.29-1.06-1.95-1.77-3.57-3.19-7.31-4.83-10.93-1.83-4.05-4.55-9.48-9.83-9.2-3.3.18-6.55,2.29-7.26,5.71-.39,1.92-.25,3.64.21,5.55.57,2.32,1.54,4.56,2.41,6.78,1.01,2.55,2.05,5.1,2.92,7.7.32.97.61,1.96.8,2.97.24,1.22-.24-2.09-.15-1.17.01.17.02.34.01.5-.01,1.06.38-2.19.19-1.38.34-1.45,1.47-2.66,2.94-3.74,3.24.85,6.49,1.7,9.73,2.55h0c-1.75-3.5-6.52-4.36-9.73-2.55.5-.21,1-.42,1.5-.63-4.14,1.34-6.9,6.45-4.25,10.44h0c1.41-3.48,2.83-6.96,4.25-10.44,1.83-.35,3.41-.22,4.81.57-.32-.18,1.81,1.59.84.61-.1-.1-.18-.2-.28-.31-.58-.69,1.29,1.7.74.95-.25-.34-.48-.69-.7-1.04-1.02-1.63-1.87-3.36-2.71-5.09-1.68-3.41-3.12-7.05-5.22-10.23-1.69-2.54-4.28-5.13-7.63-4.87-2.57.2-5.28,1.33-6.48,3.8-.69,1.43-1.22,2.96-1.01,4.57.6,4.56,2.62,8.65,4.48,12.82.41.92.82,1.84,1.22,2.75.2.45.39.89.59,1.34.1.21.19.43.28.64.43,1.01-.84-2.01-.28-.65.54,1.32,1.12,2.67,1.39,4.08.15.77-.16-2.48-.19-1.21.08-2.82,1.88-5.24,4.92-6.33,1.15-.01,2.29-.02,3.44-.02,1.43.68,1.85.84,1.25.5-.88-.51,1.58,1.3.72.55-.57-.48-1.06-1.05-1.54-1.62-.3-.35-1.14-1.47.14.21-.26-.34-.51-.69-.75-1.04-.53-.74-1.01-1.53-1.48-2.3-1.02-1.67-1.88-3.43-2.74-5.19-1.37-2.78-2.51-5.68-4.58-8.04-2.07-2.37-6.48-3.19-9.11-1.28-2.51,1.81-3.46,3.8-3.74,6.79-.2,2.01.47,4.3,1.02,6.24.79,2.82,1.93,5.54,3.13,8.2,1.64,3.63,3.78,7.04,6.45,10,1.56,1.71,3.53,3.23,5.65,4.16,3.79,1.67,7.38,2,11.45,1.35-2.68-1.09-5.35-2.18-8.03-3.27.87,1.98,2.05,3.53,3.95,4.68,2.1,1.27,4.36,1.2,6.71.86.92-.13,1.85-.75,2.72-1.14,2.67-1.16,4.17-3.11,5.24-5.81,1.07-2.75-.26-5.49-1.34-7.96-.37,2.87-.74,5.74-1.11,8.62,4.2-3.29,6.38-8.72,6.34-13.96-.02-3.93-1.1-7.9-2.5-11.55-1.35-3.47-2.9-6.92-4.95-10.04-2.52-3.84-5.69-7.02-10.73-6.01-3.8.75-5.93,5.21-4.97,8.74,1.09,3.94,4.95,5.71,8.74,4.96-2.75.54-4.45-.16-6.21-1.54.26.2.47.45.69.69,1.07,1.22-1.21-1.69-.17-.22.31.45.61.91.89,1.38.7,1.12,1.32,2.28,1.91,3.45.33.65.63,1.31.93,1.98.22.48.71,1.68-.21-.51.17.4.33.81.49,1.21.55,1.41,1,2.86,1.39,4.33.18.7.33,1.41.46,2.13.1.55.23,1.82-.08-.7.05.38.07.76.1,1.14.04.63.02,1.27-.03,1.9-.09,1.12.31-1.86.03-.44-.1.51-.28,1-.45,1.48.72-1.99.33-.82.08-.33-.27.48-1.37,1.88.06.08-.53.68-1.18,1.25-1.85,1.77-.88.89-1.49,1.93-1.83,3.13-.55,2.01-.08,3.64.72,5.48.31.71.84,2.59-.08-.16-.65-1.93.33-5.12,2.18-5.92-.23.1-.46.2-.69.29-.27.12-.53.24-.8.35,1.94-.85,4.34-1.03,6.43.78.9.78.91,1.25.59.51-.13-.27-.25-.55-.37-.83-.64-1.07-1.48-1.92-2.55-2.55-1.78-1.05-3.51-1.04-5.47-.72,2.41-.39-.22-.07-.92-.12,2.12.14.87.13.29,0-.4-.08-.79-.22-1.18-.36,1.91.66.63.26.16,0-.39-.21-.75-.47-1.11-.72,2.22,1.56.4.27-.13-.27-.4-.4-.77-.82-1.12-1.25-.78-.94,1.13,1.49.39.51-.18-.24-.35-.49-.52-.74-.78-1.11-1.46-2.29-2.1-3.48-.59-1.12-1.14-2.26-1.63-3.42,1.06,2.45.13.3-.09-.27-.24-.63-.46-1.27-.68-1.91-.33-.96-.62-1.93-.86-2.92-.1-.41-.19-.82-.27-1.23-.32-1.69.19,2.09.07.54-.05-.74.2-2.02-.23,1.06.07-.56.75-1.82-.63,1.4,1.46-3.4-13.27-1.2-10.56,1.46.64.63-1.26-1.74-.7-.89.13.19.24.39.35.59.35.62.66,1.27.97,1.91,1.59,3.22,3.06,6.49,4.96,9.55,1.95,3.14,4.4,6.7,7.69,8.59,2.23,1.29,5.74,1.74,7.93.07,2.32-1.76,3.6-3.75,3.69-6.67.05-1.76-.55-3.58-1.17-5.21-.86-2.29-1.86-4.53-2.85-6.75-.41-.92-.83-1.85-1.24-2.77-.2-.45-.4-.91-.6-1.37-.28-.63-1.17-2.76-.05-.08-.63-1.5-1.26-3.03-1.67-4.61-.18-.71-.32-2.1.08.99-.09-.72.18-1.89-.25,1.22.07-.55,1-1.95-.63,1.44-.78,1.61-2.42,2.45-3.99,3.05-.9.34-2.79.23-3.49.01-1.23-.36-1.98-.92-2.74-1.56.17.14.31.32.45.49-1.82-2.26-.91-1.2-.53-.6.45.7.84,1.43,1.23,2.16,1.92,3.64,3.52,7.44,5.47,11.06.93,1.72,1.99,3.27,3.24,4.79,2.1,2.56,5.31,3.39,8.46,2.78,4.38-.83,6.67-6.8,4.25-10.44h0c-1.41,3.48-2.83,6.96-4.25,10.44.66-.21,1.3-.46,1.9-.8-3.24-.85-6.49-1.7-9.73-2.55h0c1.6,3.21,6.75,4.75,9.73,2.55,1.72-1.27,3.11-2.68,3.61-4.84.46-1.97.25-3.14-.03-5.12-.23-1.64-.83-3.24-1.39-4.8-1.38-3.83-3.07-7.54-4.35-11.41-.21-.65-.41-1.32-.55-1.99-.31-1.4.2,2.13.12,1.03,0-.11,0-.2,0-.3-.06,1.58-.18,1.76-.86,3.16-1.29,2.64-4.98,3.84-7.48,3.08-1.63-.5-1.51-.61-2.81-1.63.08.06.14.13.21.19.89.89-1.26-1.73-.59-.78.21.29.39.61.58.92,1.93,3.32,3.27,7,4.79,10.51.89,2.05,1.75,4.15,2.93,6.05.96,1.55,2,2.64,3.49,3.68,3.33,2.29,8.48.79,10.35-2.67,1.23-2.27,1.41-4.8,1.11-7.33-.36-3.12-1-6.12-1.99-9.1-.74-2.22-1.63-4.4-2.49-6.58-.33-.84-.66-1.68-.95-2.53-.11-.32-.21-.63-.3-.96-.03-.13-.06-.25-.09-.38.07.52.14,1.04.21,1.58-.08-2.35-1.19-.47-3.36,5.65,3.46-1.74,4.41-6.54,2.55-9.72-2.05-3.5-6.26-4.3-9.72-2.55Z"/>
      </g>
      <path class="st7" d="M88.96,226.46c-.93.27,2.12,6.27,4,12.13,1.55,4.83,2.06,9.68,1.15,10.23-2.01,1.24-8.74-20.68-11.1-19.7-2.25.92,8.3,20.25,5.78,21.9h0s-.06.03-.1.05c-.03.02-.07.03-.1.04h0c-2.93.73-9.95-20.13-12.15-19.11-2.31,1.08,9.2,20.9,6.92,21.53-1.02.29-4.24-3.38-6.73-7.79-3.03-5.36-5.36-11.67-6.19-11.18-1.51.89,3.46,16.9,10.22,21.87,2.53,1.87,5.46,2.41,8.23,1.91l.53,1.23c.4.92,1.48,1.34,2.4.94l1.67-.73c.92-.4,1.34-1.48.94-2.4l-.53-1.22c2.24-1.7,3.84-4.21,4.19-7.34.93-8.34-7.44-22.86-9.12-22.35Z"/>
      <g>
        <path class="st11" d="M89.71,252.04h0s.07-.02.1-.04c.03-.01.07-.03.1-.05h0c2.52-1.64-8.03-20.97-5.78-21.9.05-.03.11-.03.17-.03-.51-.7-.95-1.04-1.29-.9-2.25.92,8.3,20.25,5.78,21.9h0s-.06.03-.1.05c-.03.02-.07.03-.1.04h0c-.13.04-.28.02-.43-.03.59.71,1.11,1.08,1.55.96Z"/>
        <path class="st11" d="M95.23,249.76c.91-.55.4-5.41-1.15-10.23-1.89-5.87-4.92-11.86-4-12.13.07-.02.15-.01.24.02-.59-.68-1.07-1.03-1.36-.95-.93.27,2.12,6.27,4,12.13,1.55,4.83,2.06,9.68,1.15,10.23-.03.02-.06.03-.1.04.49.73.91,1.08,1.22.89Z"/>
        <path class="st11" d="M90.54,260.5l-.53-1.23c-.23.05-.45.08-.68.1l.09.2c.23.51.66.88,1.17,1.02-.02-.03-.03-.05-.05-.09Z"/>
        <path class="st11" d="M84.48,254.46c2.27-.63-9.24-20.46-6.93-21.53.06-.02.12-.03.19-.03-.52-.7-.97-1.05-1.31-.9-2.31,1.08,9.2,20.9,6.92,21.53-.2.05-.47-.03-.81-.25.85.84,1.54,1.29,1.93,1.18Z"/>
        <path class="st11" d="M71.47,235.57c-.45-.76-.8-1.15-1.03-1.02-1.51.89,3.46,16.9,10.22,21.87,0,.01.01.01.03.02-6.04-5.63-10.34-19.45-9.21-20.88Z"/>
      </g>
      <g>
        <path class="st3" d="M89.76,241.57c-.79-1.81-1.61-3.75-2.39-5.54.8,1.85,1.61,3.79,2.39,5.54Z"/>
        <path class="st3" d="M78.53,239.88c.79,1.8,1.65,3.72,2.44,5.53-.76-1.76-1.63-3.67-2.44-5.53Z"/>
        <path class="st3" d="M97.56,247.62c-.35,3.13-1.95,5.64-4.19,7.34l.52,1.2c2.24-1.7,3.84-4.21,4.19-7.34.44-3.93-1.18-9.22-3.2-13.67,1.76,4.17,3.07,8.88,2.67,12.46Z"/>
        <path class="st3" d="M92.97,258.58l-1.67.73c-.92.4-1.99-.02-2.4-.94l.52,1.2c.4.92,1.48,1.34,2.4.94l1.67-.73c.92-.4,1.34-1.48.94-2.4l-.52-1.2c.4.92-.02,2-.94,2.4Z"/>
        <path class="st3" d="M88.36,257.14c-2.77.5-5.7-.04-8.23-1.91-2.9-2.13-5.47-6.3-7.34-10.43,1.91,4.5,4.68,9.29,7.87,11.63,2.53,1.87,5.46,2.41,8.23,1.91l-.52-1.2Z"/>
      </g>
    </g>
  </g>
  <path class="st13" d="M116.26,273.87s-1.4,24.1,1.38,24.62c1.03.18,3.76-.55,5.82-2.22,3.5-2.85,6.01-6.97,6.01-6.97,0,0-3.43,4.05-6.89,6.55-1.75,1.26-3.64,1.81-4.31,1.42-2-1.17-2-23.39-2-23.39Z"/>
  <path class="st13" d="M192.26,273.87s1.41,24.1-1.37,24.62c-1.03.18-3.76-.55-5.81-2.22-3.5-2.85-6.02-6.97-6.02-6.97,0,0,3.43,4.05,6.89,6.55,1.75,1.26,3.64,1.81,4.31,1.42,2-1.17,2-23.39,2-23.39Z"/>
</svg>