<?xml version="1.0" encoding="UTF-8"?>
<svg id="Layer_1" xmlns="http://www.w3.org/2000/svg" version="1.1" viewBox="0 0 293.33 308.34">
  <!-- Generator: Adobe Illustrator 29.6.1, SVG Export Plug-In . SVG Version: 2.1.1 Build 9)  -->
  <defs>
    <style>
      .st0 {
        fill: #8f8e93;
      }

      .st1 {
        fill: #f15a29;
      }

      .st2 {
        fill: #ffd7c3;
      }

      .st3, .st4, .st5, .st6 {
        fill-rule: evenodd;
      }

      .st3, .st7 {
        fill: #fff;
      }

      .st8 {
        fill: #eef9ff;
      }

      .st9 {
        fill: #6c6c6d;
      }

      .st10, .st4 {
        fill: #000002;
      }

      .st11 {
        fill: #ce8d6a;
      }

      .st12 {
        fill: #77320c;
      }

      .st13 {
        fill: #a65f33;
      }

      .st14 {
        fill: #f38b9e;
      }

      .st15 {
        fill: #4c1603;
      }

      .st16 {
        fill: #ce997c;
      }

      .st17 {
        fill: #6f2a0e;
      }

      .st18 {
        fill: #aee0ff;
      }

      .st19 {
        fill: #ffc688;
      }

      .st20 {
        fill: #f7941e;
      }

      .st21 {
        fill: #fde5d2;
      }

      .st22 {
        fill: #82442f;
      }

      .st23 {
        fill: #fefefe;
      }

      .st24 {
        fill: #904619;
      }

      .st25 {
        fill: #c2c2c4;
      }

      .st6, .st26 {
        fill: #ffc0a4;
      }

      .st27 {
        fill: #c7e7ff;
      }
    </style>
  </defs>
  <g>
    <g>
      <g>
        <path class="st2" d="M109.25,229.6s-27.84,33.06-15.75,40.19c12.08,7.13,28.99-23.77,28.99-23.77l-13.23-16.42Z"/>
        <path d="M106.75,227.08c-3.37,3.99-6.47,8.21-9.4,12.53-4.57,6.76-9.24,14.32-10.33,22.56-.45,3.38.42,7.14,3.05,9.47,3.19,2.82,7.69,3.41,11.65,1.99,4.13-1.49,7.61-4.4,10.63-7.53,3.08-3.18,5.78-6.76,8.3-10.41,1.75-2.55,3.43-5.17,4.91-7.88.84-1.52.48-3.02-.55-4.31-4.41-5.47-8.82-10.95-13.22-16.42-1.21-1.51-3.76-1.26-5.02,0-1.48,1.48-1.22,3.52,0,5.03,4.41,5.47,8.81,10.95,13.22,16.42-.19-1.44-.36-2.88-.55-4.31-.84,1.54-1.77,3.04-2.7,4.52-.97,1.54-1.98,3.04-3.03,4.52-.57.81-1.15,1.61-1.74,2.4-.16.2-.32.4-.46.61.57-.74.02-.04-.08.09-.38.47-.76.95-1.15,1.42-1.38,1.66-2.84,3.26-4.4,4.76-.72.68-1.47,1.34-2.23,1.97-.66.53.63-.47-.03.03-.2.14-.39.28-.58.42-.43.31-.88.6-1.34.88-.38.22-.77.43-1.15.63-.19.1-.39.2-.58.28-.7.32.79-.32.08-.04-.38.15-.76.28-1.15.39-.34.09-1.87.32-.58.16-.37.05-.74.05-1.12.05-.19,0-.38-.01-.57-.03,1.14.1.48.06.2.01-.37-.08-.74-.19-1.09-.32-.69-.25.79.36.13.05-.24-.11-.46-.24-.68-.38-.93-.57.43.42-.17-.12-.24-.2-.43-.43-.63-.66.81.99.15.14-.01-.16-.51-.93.22.75-.1-.27-.09-.3-.16-.61-.22-.92-.12-.65.12.97.05.3-.02-.16-.03-.33-.03-.5-.02-.35-.01-.69,0-1.04.01-.33.21-1.82.02-.53.25-1.72.78-3.4,1.37-5.03.16-.43.33-.86.51-1.28-.42,1.02.19-.43.3-.68.44-.96.91-1.92,1.4-2.86,1.93-3.71,4.18-7.26,6.54-10.7,1.06-1.53,2.15-3.04,3.25-4.54.46-.62.93-1.23,1.39-1.84.11-.14.22-.28.33-.43.41-.53-.55.71-.14.19.22-.28.44-.57.66-.86.7-.88,1.39-1.75,2.11-2.61,1.25-1.48,1.45-3.57,0-5.03-1.28-1.28-3.78-1.48-5.02,0Z"/>
      </g>
      <g>
        <polygon class="st10" points="109.67 261.7 93.09 251 96.85 245.19 113.42 255.9 109.67 261.7"/>
        <path d="M109.91,262.81l-17.93-11.58,4.63-7.16,17.92,11.58-4.62,7.16ZM94.21,250.76l15.23,9.83,2.87-4.45-15.21-9.83-2.88,4.45Z"/>
      </g>
      <path class="st13" d="M100.74,247.51l8.16,5.33,3.6-13.59-3.21-4.03s-3.75,4.65-5.52,7.44c-1.78,2.78-3.03,4.84-3.03,4.84Z"/>
    </g>
    <g>
      <g>
        <rect class="st13" x="97.6" y="247.54" width="7.76" height="17.58" transform="translate(-170.75 212.86) rotate(-59.33)"/>
        <path d="M108.36,261.91c-5.03-2.98-10.07-5.97-15.11-8.95.31,1.18.62,2.36.93,3.53,1.32-2.22,2.63-4.44,3.95-6.66-1.18.3-2.36.61-3.54.92,5.04,2.99,10.08,5.98,15.12,8.96-.31-1.18-.62-2.36-.93-3.53-1.32,2.23-2.63,4.45-3.95,6.67-1.7,2.88,2.77,5.47,4.47,2.6,1.31-2.22,2.63-4.45,3.95-6.67.72-1.22.28-2.82-.92-3.53-5.03-2.99-10.08-5.98-15.12-8.96-1.22-.72-2.82-.28-3.53.92-1.33,2.22-2.64,4.45-3.95,6.67-.72,1.22-.28,2.82.92,3.53,5.04,3,10.08,5.98,15.12,8.97,2.88,1.7,5.47-2.77,2.6-4.47Z"/>
      </g>
      <rect class="st11" x="100.51" y="250.96" width=".78" height="12.04" transform="translate(-171.76 213.63) rotate(-59.53)"/>
    </g>
    <polygon class="st11" points="108.91 235.63 104.23 241.87 100.74 247.51 108.24 252.43 103 246.97 105.26 242.45 108.91 235.63"/>
  </g>
  <g>
    <path class="st10" d="M205.48,303.99c0,1.74-26.34,3.14-58.83,3.14s-58.83-1.4-58.83-3.14,26.34-3.15,58.83-3.15,58.83,1.41,58.83,3.15Z"/>
    <path d="M146.65,308.34c-15.74,0-30.54-.33-41.66-.92-18.38-.98-18.38-2.12-18.38-3.43s0-2.45,18.38-3.43c11.13-.6,25.93-.92,41.66-.92s30.53.33,41.66.92c18.38.98,18.38,2.12,18.38,3.43s0,2.45-18.38,3.43c-11.12.59-25.92.92-41.66.92ZM92.28,304c7.94,1.02,27.84,1.92,54.37,1.92s46.43-.9,54.37-1.92c-7.64-.97-26.69-1.95-54.37-1.95s-46.73.98-54.37,1.95Z"/>
  </g>
  <g>
    <path class="st13" d="M117.4,234.92s-11.14,61.65-3.56,64.29c7.58,2.65,14.59-9.42,14.59-9.42,0,0,6.04,1.85,16.45,2.03,10.41.19,18.78-2.16,18.78-2.16,0,0,7.75,13.43,16.14,10.66,8.38-2.77-4.94-65.55-4.94-65.55l-57.46.15Z"/>
    <path d="M113.97,233.98c-2.18,12.08-3.96,24.29-5.23,36.5-.77,7.37-1.56,14.96-.89,22.36.22,2.41.5,5.39,1.98,7.42,3,4.13,8.92,3.23,12.8.85,3.64-2.23,6.73-5.85,8.87-9.53-1.33.54-2.67,1.09-4.01,1.63,5.53,1.68,11.65,2.04,17.39,2.16,6.53.13,13.41-.53,19.73-2.28-1.33-.55-2.67-1.09-4.01-1.64,3.99,6.86,12.41,15.73,21.13,11.88,2.24-.99,3.3-3.77,3.76-6,.63-3.08.68-6.27.61-9.4-.18-8.39-1.35-16.79-2.59-25.08-1.11-7.45-2.42-14.87-3.85-22.25-.44-2.26-.88-4.53-1.36-6.78-.32-1.53-1.92-2.62-3.43-2.61-12.38.03-24.75.07-37.14.1-6.77.02-13.55.04-20.33.05-4.58.02-4.58,7.12,0,7.11,12.38-.03,24.76-.07,37.14-.1,6.78-.02,13.55-.03,20.33-.06-1.14-.87-2.28-1.74-3.43-2.61.79,3.71,1.51,7.44,2.19,11.18.71,3.76,1.37,7.53,1.99,11.3.35,2.1.68,4.2.99,6.31.16,1.03.31,2.05.45,3.09.07.51.14,1.03.21,1.55.04.25.08.51.11.77-.14-1.04.02.14.04.35.98,7.45,1.95,15.12,1.5,22.64-.04.65-.1,1.3-.17,1.95-.08.64.14-.97.05-.35-.02.14-.05.29-.06.43-.06.3-.12.62-.19.93-.09.46-.23.92-.39,1.37-.25.69.45-.96.08-.19-.1.19-.21.38-.32.55-.16.23.75-.85.18-.28-.52.53.81-.55.31-.23-.65.41,1.22-.42.19-.09-.27.07-.54.13-.82.18.96-.18-.17-.02-.4-.02-.27,0-.54-.03-.79-.06.96.1.09-.02-.11-.06-.26-.06-.51-.14-.77-.22-.16-.04-.99-.4-.16-.04-.51-.22-.99-.5-1.46-.79-.24-.14-.47-.3-.7-.46-.16-.11-.32-.22-.47-.33.35.28.37.29.06.04-.94-.76-1.81-1.61-2.63-2.49-.41-.44-.81-.91-1.19-1.38-.16-.19-.31-.38-.47-.57.65.81,0-.02-.13-.19-.65-.87-1.28-1.78-1.82-2.72-.8-1.38-2.48-2.06-4.01-1.63-6,1.66-11.51,2.12-17.84,2.03-5.72-.08-10.21-.3-15.5-1.9-1.52-.46-3.22.28-4.01,1.63-.52.89-1.12,1.73-1.74,2.56-.48.63.51-.65,0,0-.15.19-.31.38-.46.57-.33.4-.68.79-1.04,1.17-.37.4-.76.79-1.16,1.17-.2.19-.41.38-.62.56-.12.11-1.09.86-.38.32-.45.33-.92.63-1.4.91-.24.14-.49.26-.73.38-.83.41.71-.25-.16.06-.25.1-.51.17-.76.23-.18.06-1.07.19-.1.07-.27.03-.54.04-.8.04-.18,0-.36-.01-.54-.03.5.08.54.08.13,0-.28-.05-.55-.14-.81-.23,1.14.37.9.4.61.25-.62-.32.76.67.33.27-.58-.53.36.53.2.31-.12-.17-.22-.35-.32-.53-.39-.76.34.88.08.21-.08-.21-.14-.42-.21-.63-.16-.54-.27-1.09-.37-1.63-.05-.33-.21-1.46-.02-.08-.05-.32-.08-.63-.12-.94-.07-.74-.12-1.49-.15-2.24-.17-3.58-.01-7.17.21-10.73.27-4.23.68-8.44,1.16-12.65.24-2.15.51-4.31.79-6.46.06-.51.13-1.02.2-1.52.04-.25.07-.51.1-.76-.14,1.01-.01.14.01-.05.14-1.07.29-2.13.44-3.19.85-5.96,1.78-11.9,2.81-17.83.1-.57.2-1.13.3-1.69.34-1.9-.49-3.83-2.48-4.38-1.74-.48-4.03.58-4.38,2.49Z"/>
  </g>
  <g>
    <g>
      <polygon class="st21" points="173.39 234.18 146.99 234.18 146.77 234.18 120.37 234.18 108.93 271.81 146.77 271.81 146.99 271.81 184.83 271.81 173.39 234.18"/>
      <path d="M173.39,227.08h-53.02c-3.23,0-5.93,2.18-6.85,5.22-3.65,11.99-7.29,23.97-10.93,35.96-.17.56-.34,1.12-.51,1.66-1.35,4.44,2.33,8.99,6.86,8.99h75.9c4.53,0,8.2-4.55,6.86-8.99-3.65-11.99-7.3-23.98-10.94-35.97-.17-.55-.33-1.1-.5-1.65-1.13-3.71-4.94-6.02-8.75-4.97-3.66,1.01-6.09,5.04-4.96,8.75,3.65,11.99,7.29,23.97,10.93,35.97.17.55.34,1.1.51,1.65,2.29-3,4.57-5.99,6.85-8.99h-75.9c2.28,3,4.57,5.99,6.85,8.99,3.65-11.98,7.3-23.97,10.94-35.96.17-.55.33-1.1.51-1.66-2.29,1.74-4.58,3.48-6.86,5.22h53.02c3.87,0,7.11-3.23,7.11-7.11s-3.24-7.11-7.11-7.11Z"/>
    </g>
    <polygon class="st11" points="173.39 234.18 146.99 234.18 146.77 234.18 120.37 234.18 108.93 271.81 146.77 271.81 146.99 271.81 184.83 271.81 173.39 234.18"/>
  </g>
  <rect class="st24" x="115.12" y="279.01" width="63.36" height="4.41"/>
  <g>
    <g>
      <polygon class="st21" points="140.86 240.15 140.86 283.32 104.5 283.44 119.77 233.24 140.86 240.15"/>
      <path d="M133.75,240.15v43.18c2.37-2.37,4.74-4.74,7.11-7.11-12.01.04-24.01.07-36.03.12h-.33c2.29,3,4.57,6,6.85,8.99,3.7-12.15,7.39-24.3,11.08-36.45,1.4-4.58,2.79-9.17,4.19-13.75-2.92,1.66-5.83,3.31-8.74,4.96,7.03,2.3,14.06,4.61,21.09,6.92,3.68,1.21,7.76-1.37,8.75-4.96,1.06-3.87-1.29-7.54-4.97-8.74-7.03-2.31-14.06-4.61-21.09-6.92-3.75-1.23-7.66,1.4-8.75,4.96-3.7,12.15-7.39,24.3-11.08,36.46-1.39,4.58-2.79,9.17-4.18,13.75-1.35,4.43,2.33,9.01,6.85,8.99,12.01-.04,24.02-.07,36.02-.11.12,0,.23,0,.34,0,3.87-.01,7.11-3.22,7.11-7.11v-43.18c0-3.87-3.23-7.11-7.11-7.11s-7.11,3.24-7.11,7.11Z"/>
    </g>
    <polygon class="st13" points="140.86 240.15 140.86 283.32 104.5 283.44 119.77 233.24 140.86 240.15"/>
    <polygon class="st11" points="123.33 234.38 119.77 233.24 104.5 283.44 108.3 283.43 123.33 234.38"/>
  </g>
  <g>
    <g>
      <g>
        <path class="st2" d="M183.55,229.6s27.85,33.06,15.77,40.19c-12.08,7.13-28.99-23.77-28.99-23.77l13.22-16.42Z"/>
        <path d="M181.04,232.11c.96,1.13,1.87,2.3,2.78,3.46.4.53-.55-.72-.14-.19.11.14.21.28.32.43.23.29.46.59.68.89.54.7,1.06,1.42,1.59,2.14,1.14,1.56,2.25,3.15,3.34,4.76,2.33,3.48,4.51,7.07,6.36,10.84.22.43.43.87.62,1.31.11.24.72,1.69.31.68.38.9.71,1.82,1.02,2.75.25.79.47,1.6.65,2.41.09.38.15.76.21,1.15-.2-1.29,0,.19.02.53.02.35.02.69,0,1.04,0,.17-.02.34-.03.5-.06.67.15-.95.04-.3-.05.31-.13.62-.22.92-.3,1.03.39-.68-.1.27-.15.29-.82,1.18-.02.16-.19.24-.39.46-.63.66-.59.56.75-.47-.17.12-.16.1-.32.2-.5.28-.86.47.51-.17-.04.05-.36.14-.73.24-1.1.32-.26.06-.96.12.2-.01-.19.02-.38.03-.56.03-.38.02-.76,0-1.13-.05,1.28.13-.24-.07-.58-.16-.39-.1-.77-.24-1.15-.39-.71-.27.79.35.08.04-.19-.09-.39-.19-.58-.28-.88-.43-1.7-.96-2.49-1.52-.2-.13-.39-.28-.58-.42-.67-.5.63.5-.04-.03-.38-.31-.75-.63-1.13-.95-.83-.72-1.61-1.49-2.38-2.28-1.52-1.55-2.93-3.21-4.27-4.91-.11-.13-.65-.83-.08-.09-.16-.2-.31-.41-.46-.61-.3-.4-.59-.8-.89-1.21-.61-.83-1.21-1.69-1.79-2.53-.96-1.39-1.88-2.81-2.76-4.24-.7-1.14-1.39-2.28-2.03-3.45-.18,1.44-.36,2.88-.55,4.31,4.41-5.48,8.82-10.95,13.23-16.42,1.22-1.51,1.48-3.55,0-5.03-1.26-1.26-3.8-1.51-5.03,0-4.41,5.47-8.81,10.95-13.22,16.42-1.03,1.29-1.39,2.78-.55,4.31,2.82,5.14,6.23,10.03,9.94,14.58,4.88,5.99,12.67,13.95,21.26,11.6,3.65-.99,6.61-3.98,7.22-7.75.61-3.78-.31-7.55-1.68-11.06-3.01-7.69-7.69-14.67-12.59-21.27-1.72-2.32-3.48-4.62-5.34-6.82-1.25-1.48-3.74-1.28-5.03,0-1.45,1.46-1.24,3.54,0,5.03Z"/>
      </g>
      <g>
        <rect class="st10" x="181.11" y="248.31" width="19.73" height="6.91" transform="translate(-106.06 143.95) rotate(-32.87)"/>
        <path d="M184.33,261.14l-4.63-7.16,17.93-11.58,4.63,7.16-17.93,11.58ZM181.93,254.46l2.88,4.45,15.22-9.83-2.88-4.46-15.22,9.83Z"/>
      </g>
      <path class="st13" d="M192.08,247.51l-8.16,5.33-3.6-13.59,3.22-4.03s3.74,4.65,5.52,7.44c1.78,2.78,3.03,4.84,3.03,4.84Z"/>
    </g>
    <g>
      <g>
        <rect class="st13" x="182.47" y="252.45" width="17.58" height="7.76" transform="translate(-104 133.42) rotate(-30.67)"/>
        <path d="M186.98,266.38c5.04-2.99,10.08-5.97,15.12-8.97,1.21-.71,1.65-2.31.93-3.53-1.32-2.23-2.64-4.45-3.96-6.67-.72-1.2-2.31-1.65-3.53-.92-5.04,2.98-10.08,5.97-15.12,8.96-1.2.71-1.64,2.31-.92,3.53,1.32,2.22,2.64,4.45,3.96,6.67,1.7,2.87,6.16.27,4.46-2.6-1.32-2.22-2.63-4.45-3.96-6.67-.31,1.18-.62,2.36-.93,3.53,5.04-2.98,10.09-5.97,15.11-8.96-1.17-.31-2.35-.62-3.53-.92,1.32,2.22,2.64,4.44,3.95,6.66.31-1.17.62-2.35.93-3.53-5.04,2.99-10.08,5.97-15.11,8.95-2.87,1.7-.27,6.17,2.6,4.47Z"/>
      </g>
      <polygon class="st24" points="186.85 260.37 197.23 254.27 196.83 253.59 186.46 259.7 186.85 260.37"/>
    </g>
    <polygon class="st24" points="183.94 235.63 188.63 241.87 192.12 247.51 184.62 252.43 189.85 246.97 187.59 242.45 183.94 235.63"/>
  </g>
  <g>
    <g>
      <polygon class="st21" points="142.99 250.02 134.24 283.32 188.25 283.44 172.98 233.24 142.99 250.02"/>
      <path d="M136.14,248.13c-2.92,11.1-5.83,22.2-8.74,33.3-1.18,4.47,2.19,8.99,6.85,9,12.61.03,25.22.06,37.82.08,5.4.01,10.79.02,16.19.04,4.53.01,8.2-4.56,6.85-8.99-3.69-12.15-7.39-24.3-11.08-36.46-1.39-4.58-2.79-9.17-4.18-13.75-1.35-4.43-6.36-6.53-10.44-4.24-10,5.59-19.99,11.18-29.99,16.78-3.38,1.89-4.48,6.43-2.55,9.72,1.99,3.39,6.34,4.45,9.73,2.55,9.99-5.59,19.99-11.18,30-16.78-3.49-1.42-6.97-2.84-10.45-4.25,3.69,12.15,7.39,24.3,11.08,36.45,1.39,4.58,2.79,9.17,4.18,13.75,2.29-3,4.57-5.99,6.85-8.99-12.61-.03-25.21-.06-37.81-.08-5.4-.02-10.79-.02-16.19-.04,2.29,3,4.58,6,6.86,8.99,2.91-11.1,5.82-22.2,8.74-33.3.99-3.75-1.19-7.71-4.96-8.75-3.7-1.02-7.76,1.22-8.75,4.96Z"/>
    </g>
    <polygon class="st13" points="142.99 250.02 134.37 283.32 188.25 283.44 172.98 233.24 142.99 250.02"/>
    <polygon class="st11" points="138.33 283.32 146.95 250.02 173.56 235.13 172.98 233.24 142.99 250.02 134.37 283.32 188.25 283.44 188.24 283.43 138.33 283.32"/>
    <polygon class="st24" points="169.7 235.11 172.98 233.24 188.25 283.44 184.45 283.43 169.7 235.11"/>
  </g>
  <g>
    <g>
      <g>
        <path class="st21" d="M42.19,127.02c-.02,8.49.08,16.89.42,23.76,1.15,23.93,16.3,32.18,16.3,32.18v-55.93h-16.71Z"/>
        <path d="M33.13,127.02c0,7.93.05,15.84.43,23.76.36,7.62,2.03,14.7,5.07,21.65,3.15,7.18,8.54,13.73,15.15,18,.18.12.36.23.55.34,5.97,3.27,13.61-.81,13.61-7.82v-55.93c0-4.93-4.12-9.04-9.05-9.04h-16.71c-4.94,0-9.06,4.12-9.06,9.04s4.12,9.05,9.06,9.05h16.71c-3.01-3.01-6.03-6.03-9.05-9.05v55.93c4.54-2.6,9.08-5.2,13.61-7.81-.73-.39-1.4-.9-2.06-1.4.61.47,1.23.94,1.84,1.41-2.16-1.67-4.06-3.65-5.74-5.8.47.61.95,1.21,1.42,1.83-2-2.6-3.62-5.44-4.92-8.45.31.72.61,1.44.91,2.15-1.61-3.82-2.62-7.83-3.18-11.93.1.8.21,1.6.32,2.4-.55-4.3-.6-8.66-.69-12.99-.12-5.12-.14-10.23-.14-15.35,0-4.93-4.12-9.04-9.04-9.04s-9.05,4.12-9.06,9.04Z"/>
      </g>
      <path class="st17" d="M42.19,127.02c-.02,8.49.08,16.89.42,23.76,1.15,23.93,16.3,32.18,16.3,32.18v-55.93h-16.71Z"/>
      <path class="st22" d="M46.86,150.78c0-6.87-.43-15.26-.41-23.76h-4.26c-.02,8.49.08,16.89.42,23.76,1.15,23.93,16.3,32.18,16.3,32.18,0,0-12.04-12.51-12.04-32.18Z"/>
    </g>
    <g>
      <g>
        <path class="st21" d="M251.11,127.02c.02,8.49-.09,16.89-.42,23.76-1.15,23.93-16.3,32.18-16.3,32.18v-55.93h16.71Z"/>
        <path d="M242.07,127.02c0,4.96-.02,9.92-.13,14.88-.1,4.48-.13,9.01-.7,13.46.1-.8.22-1.61.32-2.4-.56,4.1-1.58,8.11-3.18,11.93.31-.72.61-1.44.91-2.15-1.29,3.01-2.92,5.85-4.91,8.45.47-.62.95-1.22,1.41-1.83-1.68,2.15-3.58,4.13-5.73,5.8.61-.47,1.22-.94,1.83-1.41-.65.5-1.33,1.01-2.06,1.4,4.54,2.61,9.08,5.21,13.62,7.81v-55.93c-3.01,3.02-6.03,6.03-9.05,9.05h16.71c4.94,0,9.05-4.12,9.05-9.05s-4.11-9.04-9.05-9.04h-16.71c-4.93,0-9.05,4.12-9.05,9.04v55.93c0,7,7.64,11.08,13.62,7.82,1.84-1.02,3.5-2.44,5.07-3.79,3.2-2.75,5.88-6.19,8.09-9.74,3.18-5.06,5.33-10.92,6.45-16.77,1.5-7.84,1.45-15.93,1.54-23.88.03-3.18.05-6.37.03-9.56,0-4.93-4.1-9.04-9.05-9.04s-9.05,4.12-9.04,9.04Z"/>
      </g>
      <path class="st17" d="M251.11,127.02c.02,8.49-.09,16.89-.42,23.76-1.15,23.93-16.3,32.18-16.3,32.18v-55.93h16.71Z"/>
      <path class="st22" d="M246.43,150.78c0-6.87.44-15.26.42-23.76h4.26c.02,8.49-.09,16.89-.42,23.76-1.15,23.93-16.3,32.18-16.3,32.18,0,0,12.03-12.51,12.03-32.18Z"/>
    </g>
  </g>
  <g>
    <g>
      <path class="st21" d="M59.82,74.54c-.31,12.43,0,85.92,0,85.92,0,33.38,18.72,64.34,88.45,64.06,69.01-.28,85.35-30.67,85.35-64.06v-85.92H59.82Z"/>
      <path d="M50.78,74.54c-.37,14.6-.16,29.23-.13,43.83.03,13.75.07,27.5.12,41.25.06,14.32,2.91,28.94,11.17,40.91,5.35,7.77,12.31,14.12,20.41,18.95,9.33,5.54,19.95,8.99,30.56,11.05,14.28,2.76,28.96,3.46,43.47,2.87,12.93-.52,26.1-2.12,38.45-6.12,9.93-3.21,19.15-7.96,27.07-14.79,6.09-5.26,11.11-12.07,14.35-19.44,3.55-8.1,5.4-16.4,6.12-25.22.32-3.86.29-7.72.29-11.6v-81.69c0-4.94-4.12-9.05-9.05-9.05H59.82c-4.93,0-9.04,4.11-9.04,9.05s4.11,9.05,9.04,9.05h173.8c-3.02-3.03-6.03-6.03-9.05-9.05v77.11c0,6.8.16,13.6-.73,20.35.1-.8.21-1.6.32-2.41-.73,5.45-2.06,10.81-4.18,15.89.29-.72.61-1.44.91-2.16-1.67,3.94-3.82,7.66-6.44,11.07.47-.61.94-1.22,1.41-1.83-2.6,3.35-5.63,6.34-8.99,8.96.61-.47,1.22-.95,1.83-1.42-4.32,3.34-9.1,6-14.11,8.14.72-.3,1.43-.62,2.17-.91-8.57,3.61-17.71,5.69-26.89,6.94.8-.11,1.6-.22,2.4-.32-16.24,2.16-33.05,2.19-49.29.05.8.11,1.6.21,2.4.32-9.36-1.26-18.65-3.38-27.39-7.03.72.3,1.44.61,2.16.91-5.25-2.23-10.26-5-14.78-8.48.61.47,1.21.95,1.82,1.41-3.53-2.74-6.72-5.87-9.46-9.39.48.61.95,1.22,1.42,1.83-2.7-3.49-4.91-7.31-6.64-11.36.31.72.62,1.44.92,2.16-2.12-5.02-3.46-10.32-4.2-15.71.11.8.21,1.6.32,2.4-.59-4.52-.67-9.06-.7-13.62-.02-6.28-.04-12.56-.06-18.84-.04-17.53-.1-35.05-.03-52.58.01-3.82.02-7.65.11-11.47.12-4.94-4.2-9.05-9.05-9.05s-8.92,4.12-9.04,9.05Z"/>
    </g>
    <path class="st2" d="M59.82,74.54c-.31,12.43,0,85.92,0,85.92,0,33.38,18.72,64.34,88.45,64.06,69.01-.28,85.35-30.67,85.35-64.06v-85.92H59.82Z"/>
  </g>
  <g>
    <g>
      <g>
        <g>
          <path class="st4" d="M76.26,168.59c0,8.83,7.16,15.97,15.97,15.97s15.97-7.14,15.97-15.97-7.15-15.97-15.97-15.97-15.97,7.15-15.97,15.97Z"/>
          <path d="M74.97,168.59c.06,5.85,2.96,11.15,7.79,14.43,4.88,3.32,11.23,3.6,16.57,1.3,5.23-2.24,8.99-7.34,9.92-12.9.96-5.77-1.14-11.67-5.43-15.62-5.06-4.66-12.45-5.62-18.69-2.95-6.19,2.66-10.09,9.09-10.16,15.73-.02,1.67,2.57,1.67,2.59,0,.06-5.91,3.52-11.06,8.88-13.49,5.38-2.45,11.88-1.01,16.05,3,4.29,4.12,5.45,10.49,3.37,15.98-2.06,5.43-7.55,9-13.27,9.19-8.2.28-14.94-6.59-15.03-14.67-.02-1.66-2.6-1.66-2.59,0Z"/>
        </g>
        <path class="st3" d="M81.92,174.45c0,1.43,1.17,2.59,2.59,2.59s2.59-1.16,2.59-2.59-1.16-2.58-2.59-2.58-2.59,1.16-2.59,2.58Z"/>
        <path class="st3" d="M90.69,166.46c0,3.69,3,6.67,6.68,6.67s6.68-2.98,6.68-6.67-2.99-6.68-6.68-6.68-6.68,2.98-6.68,6.68Z"/>
      </g>
      <path class="st14" d="M94.26,189.35c.77,2.12-2.55,5.26-7.4,7.02-4.86,1.76-9.42,1.47-10.19-.65-.77-2.12,2.54-5.26,7.41-7.02,4.86-1.77,9.42-1.47,10.18.65Z"/>
    </g>
    <g>
      <g>
        <g>
          <path class="st4" d="M185.09,168.59c0,8.83,7.15,15.97,15.97,15.97s15.97-7.14,15.97-15.97-7.15-15.97-15.97-15.97-15.97,7.15-15.97,15.97Z"/>
          <path d="M183.8,168.59c.07,5.85,2.96,11.15,7.79,14.43,4.88,3.32,11.23,3.6,16.57,1.3,5.23-2.24,8.99-7.34,9.92-12.9.97-5.77-1.14-11.67-5.42-15.62-5.07-4.66-12.46-5.62-18.71-2.95-6.19,2.66-10.08,9.09-10.16,15.73-.02,1.67,2.57,1.67,2.59,0,.07-5.91,3.53-11.06,8.88-13.49,5.37-2.45,11.87-1.01,16.05,3,4.29,4.12,5.45,10.49,3.38,15.98-2.07,5.43-7.56,9-13.27,9.19-8.21.28-14.95-6.59-15.04-14.67-.02-1.66-2.6-1.66-2.59,0Z"/>
        </g>
        <path class="st3" d="M190.76,174.45c0,1.43,1.16,2.59,2.59,2.59s2.59-1.16,2.59-2.59-1.17-2.58-2.59-2.58-2.59,1.16-2.59,2.58Z"/>
        <path class="st3" d="M199.52,166.46c0,3.69,2.99,6.67,6.68,6.67s6.68-2.98,6.68-6.67-2.99-6.68-6.68-6.68-6.68,2.98-6.68,6.68Z"/>
      </g>
      <path class="st14" d="M199.04,189.35c-.77,2.12,2.55,5.26,7.41,7.02,4.85,1.76,9.41,1.47,10.18-.65.77-2.12-2.55-5.26-7.41-7.02-4.85-1.77-9.42-1.47-10.18.65Z"/>
    </g>
  </g>
  <path class="st26" d="M146.63,132.11c-32.97,0-63.24-3.41-86.94-9.09.01,6.55.03,12.96.05,18.62,23.7,5.68,53.94,9.08,86.89,9.08s63.27-3.41,86.97-9.1v-18.61c-23.7,5.69-53.98,9.1-86.97,9.1Z"/>
  <g>
    <g>
      <path class="st21" d="M284.28,93.48c0,22.33-61.62,40.44-137.63,40.44S9.01,115.8,9.01,93.48s61.62-40.44,137.64-40.44,137.63,18.1,137.63,40.44Z"/>
      <path d="M275.23,93.48c0,.57-.05,1.13-.12,1.7.11-.8.21-1.61.32-2.41-.17,1.15-.49,2.28-.94,3.34.31-.72.61-1.44.91-2.16-.62,1.43-1.43,2.75-2.38,3.98.47-.61.94-1.22,1.41-1.83-1.59,2.04-3.49,3.78-5.52,5.36.61-.47,1.22-.94,1.83-1.41-4.76,3.64-10.15,6.37-15.66,8.7.72-.31,1.44-.61,2.17-.91-17.68,7.43-36.9,11.15-55.81,13.71.8-.11,1.6-.21,2.4-.32-32.92,4.4-66.52,4.81-99.57,1.69-4.96-.46-9.91-1.03-14.84-1.69.8.11,1.6.21,2.4.32-18.91-2.55-38.14-6.28-55.81-13.71.72.31,1.44.61,2.16.91-5.5-2.33-10.91-5.06-15.66-8.7.61.47,1.22.94,1.83,1.41-2.04-1.57-3.93-3.32-5.52-5.36.47.61.95,1.22,1.42,1.83-.95-1.23-1.77-2.56-2.38-3.98.31.72.61,1.44.91,2.16-.45-1.07-.77-2.19-.94-3.34.1.8.22,1.61.32,2.41-.14-1.13-.14-2.26,0-3.39-.1.8-.21,1.6-.32,2.4.17-1.15.49-2.27.94-3.34-.31.71-.61,1.44-.91,2.16.61-1.43,1.43-2.75,2.38-3.98-.47.61-.95,1.22-1.42,1.83,1.59-2.03,3.49-3.78,5.52-5.36-.61.47-1.22.94-1.83,1.41,4.75-3.65,10.15-6.37,15.66-8.7-.72.3-1.44.61-2.16.91,17.66-7.42,36.89-11.15,55.81-13.7-.8.11-1.6.21-2.4.32,32.91-4.4,66.52-4.81,99.56-1.7,4.95.47,9.91,1.04,14.84,1.7-.8-.11-1.6-.21-2.4-.32,18.91,2.55,38.13,6.28,55.81,13.7-.72-.3-1.44-.6-2.17-.91,5.5,2.33,10.9,5.05,15.66,8.7-.61-.47-1.22-.94-1.83-1.41,2.03,1.58,3.93,3.32,5.52,5.36-.47-.61-.94-1.22-1.41-1.83.95,1.23,1.76,2.55,2.38,3.98-.3-.72-.61-1.44-.91-2.16.45,1.07.77,2.19.94,3.34-.11-.8-.21-1.6-.32-2.4.07.55.12,1.12.12,1.69.03,4.94,4.1,9.04,9.05,9.04s9.08-4.11,9.05-9.04c-.05-8.35-5.06-15.64-11.44-20.64-8.5-6.67-18.36-10.98-28.53-14.47-12.28-4.2-25.05-6.95-37.84-9.04-16.27-2.65-32.71-4.22-49.19-4.93-32.91-1.4-66.28.39-98.64,6.74-11.92,2.34-23.79,5.38-35.05,9.94-8.97,3.63-18.19,8.01-24.98,15.11-5.93,6.2-9.31,14.69-6.86,23.22,2.45,8.52,9.63,14.7,16.89,19.21,9.24,5.74,19.87,9.47,30.27,12.47,13.86,4,28.09,6.44,42.38,8.34,32.92,4.37,66.57,4.68,99.61,1.48,15.15-1.46,30.3-3.67,45.13-7.15,11.65-2.73,23.17-6.35,33.97-11.57,11.31-5.47,24.19-14.81,24.28-28.72.02-4.93-4.14-9.05-9.05-9.05s-9.01,4.12-9.05,9.05Z"/>
    </g>
    <path class="st13" d="M284.28,93.48c0,22.33-61.62,40.44-137.63,40.44S9.01,115.8,9.01,93.48s61.62-40.44,137.64-40.44,137.63,18.1,137.63,40.44Z"/>
    <path class="st16" d="M146.65,56.92c73.8,0,134.04,17.06,137.48,38.5.1-.65.16-1.29.16-1.94,0-22.34-61.62-40.44-137.63-40.44S9.01,71.14,9.01,93.48c0,.65.06,1.29.16,1.94,3.45-21.44,63.67-38.5,137.48-38.5Z"/>
    <path class="st24" d="M146.65,125.39c-71.11,0-129.62-15.85-136.88-36.18-.5,1.4-.76,2.83-.76,4.27,0,22.33,61.62,40.44,137.64,40.44s137.63-18.11,137.63-40.44c0-1.44-.26-2.86-.76-4.27-7.25,20.33-65.76,36.18-136.88,36.18Z"/>
    <g>
      <g>
        <path class="st21" d="M235.96,87.32s-1.39-63.84-37-77.28c-15.7-5.92-27.81,16.65-52.48,16.65S109.66,4.12,93.97,10.04c-35.62,13.44-37.02,77.28-37.02,77.28,0,0,27.02,17.08,89.49,17.08h.04c62.47,0,89.48-17.08,89.48-17.08Z"/>
        <path d="M245.01,87.32c-.07-3.04-.35-6.08-.66-9.12-.82-7.91-2.06-15.81-3.94-23.55-4.57-18.74-13.27-38.24-30.07-49-1.62-1.04-3.33-1.94-5.09-2.72-2.34-1.03-4.68-2.1-7.23-2.47-3.4-.49-6.03-.45-9.44.08-1.82.3-3.58.9-5.28,1.61-8.72,3.67-16.21,9.59-24.92,13.27.72-.3,1.44-.61,2.16-.91-3.53,1.47-7.2,2.55-11,3.09.8-.11,1.6-.21,2.41-.32-3.64.48-7.31.48-10.95,0,.8.11,1.6.21,2.4.32-3.79-.54-7.46-1.62-10.99-3.09.71.31,1.43.61,2.15.91-9.46-3.99-17.44-10.89-27.24-14.13-5.07-1.67-10.99-1.79-16.01.13-5.51,2.1-10.21,4.95-14.75,8.72-7.25,6.02-12.67,14.38-16.55,22.89-3.9,8.55-6.72,17.49-8.64,26.69-1.49,7.16-2.5,14.44-3.11,21.72-.43,5.21-1.24,10.47,4.3,13.8,3.13,1.88,6.58,3.27,9.95,4.69,6.59,2.75,13.46,4.84,20.38,6.56,11.77,2.92,23.84,4.66,35.9,5.77,14.97,1.37,30.09,1.55,45.1.74,13.17-.71,26.34-2.27,39.26-4.95,7.98-1.64,15.89-3.78,23.54-6.64,4.65-1.75,9.59-3.59,13.83-6.26,4.16-2.63,5.8-8.01,3.24-12.37-2.43-4.15-8.21-5.88-12.38-3.25-2.36,1.49-4.99,2.62-7.54,3.7.72-.3,1.44-.61,2.16-.91-13.77,5.81-28.65,8.97-43.42,10.96.8-.1,1.6-.21,2.41-.32-25.44,3.38-51.64,3.38-77.07,0,.8.11,1.61.22,2.41.32-14.77-1.98-29.65-5.15-43.42-10.96.71.3,1.44.61,2.16.91-2.56-1.08-5.19-2.22-7.54-3.7,1.49,2.6,2.98,5.21,4.48,7.81.1-4.69.62-9.4,1.25-14.05-.11.8-.22,1.6-.32,2.41,1.54-11.42,4.17-22.81,8.65-33.46-.31.72-.61,1.44-.91,2.16,2.36-5.57,5.25-10.93,8.94-15.74-.47.61-.94,1.22-1.41,1.83,2.44-3.16,5.22-6.06,8.38-8.52-.61.48-1.22.95-1.83,1.41,2.63-2.02,5.5-3.71,8.56-5.01-.72.3-1.44.61-2.16.91,1.48-.62,2.97-1.12,4.57-1.35-.8.1-1.6.21-2.4.32,1.39-.17,2.79-.16,4.18.02-.8-.11-1.6-.21-2.41-.32,1.99.29,3.9.89,5.74,1.67-.72-.3-1.44-.61-2.16-.91,4.23,1.81,8.09,4.35,12.03,6.72,5.08,3.05,10.35,5.76,15.96,7.71,6.17,2.15,13.01,3.02,19.52,2.45,7.11-.63,13.54-2.66,19.97-5.71,6.94-3.3,13.06-8.13,20.12-11.17-.72.3-1.44.61-2.16.91,1.85-.78,3.76-1.38,5.75-1.67-.8.11-1.6.22-2.41.32,1.4-.18,2.78-.19,4.17-.02-.8-.1-1.6-.21-2.4-.32,1.59.23,3.08.73,4.57,1.35-.72-.31-1.44-.61-2.17-.91,3.06,1.3,5.92,2.99,8.56,5.01-.61-.47-1.22-.93-1.83-1.41,3.16,2.46,5.93,5.36,8.38,8.52-.47-.61-.94-1.22-1.41-1.83,3.68,4.81,6.58,10.17,8.94,15.74-.31-.72-.61-1.44-.92-2.16,4.48,10.64,7.11,22.04,8.65,33.46-.1-.8-.22-1.6-.32-2.41.62,4.65,1.14,9.36,1.25,14.05.1,4.93,4.03,9.05,9.04,9.05s9.16-4.12,9.05-9.05Z"/>
      </g>
      <path class="st13" d="M235.96,87.32s-1.39-63.84-37-77.28c-15.7-5.92-27.55,16.68-52.48,16.68S109.66,4.12,93.97,10.04c-35.62,13.44-37.02,77.28-37.02,77.28,0,0,27.02,17.08,89.49,17.08h.04c62.47,0,89.48-17.08,89.48-17.08Z"/>
      <path class="st16" d="M93.97,15.89c15.69-5.92,27.58,16.68,52.51,16.68s36.78-22.6,52.48-16.68c29.14,10.99,35.37,55.71,36.67,71.62.22-.13.33-.2.33-.2,0,0-1.39-63.84-37-77.28-15.7-5.92-27.55,16.68-52.48,16.68S109.66,4.12,93.97,10.04c-35.62,13.44-37.02,77.28-37.02,77.28,0,0,.12.07.34.2,1.3-15.91,7.53-60.63,36.67-71.62Z"/>
      <path class="st24" d="M146.49,69.26c-37.61,0-73.54-9.76-84.79-14.77-1.25,4.81-2.64,12.09-3.34,16.3,8.93,4.41,36.8,15.7,88.09,15.7h.04c51.3,0,79.16-11.29,88.09-15.7-.69-4.21-2.19-11.15-3.45-15.96-11.25,5.01-47.02,14.42-84.64,14.42Z"/>
      <g>
        <g>
          <path class="st21" d="M146.86,84.08h-.04c-52.68,0-80.15-12.15-87.46-15.96-1.85,11.07-2.03,19.2-2.03,19.2,0,0,27.01,17.08,89.49,17.08h.03c62.48,0,89.5-17.08,89.5-17.08,0,0-.18-8.12-2.03-19.2-7.32,3.81-34.78,15.96-87.46,15.96Z"/>
          <path d="M146.86,75.03c-6.77-.18-13.52-.2-20.27-.63-6.22-.39-12.42-1-18.6-1.83.8.11,1.6.22,2.41.33-14.64-1.99-29.38-5.14-43.04-10.89.72.31,1.44.61,2.16.91-1.9-.8-3.76-1.66-5.59-2.6-2.19-1.14-4.54-1.58-6.96-.91-2.8.77-5.82,3.31-6.32,6.32-1.1,6.63-1.95,13.35-2.29,20.07-.02.46-.04.92-.06,1.39-.1,3.3,1.75,6.23,4.49,7.95.16.1.32.2.47.28,3.61,2.09,7.54,3.68,11.4,5.22,18.83,7.47,39.45,10.55,59.52,12.02,27.55,2.01,55.9.73,82.89-5.39,7.45-1.69,14.84-3.82,21.95-6.63,3.87-1.53,7.78-3.14,11.4-5.22.16-.09.32-.19.48-.28,2.73-1.7,4.58-4.62,4.49-7.9-.01-.49-.04-.96-.06-1.44-.32-6.73-1.19-13.44-2.28-20.07-.37-2.2-2.32-4.33-4.16-5.41-2.89-1.69-6.22-1.51-9.13,0-1.82.95-3.7,1.8-5.59,2.6.72-.31,1.44-.61,2.16-.91-13.66,5.75-28.4,8.91-43.04,10.89.81-.11,1.61-.22,2.41-.33-12.87,1.73-25.86,2.45-38.84,2.46-4.94,0-9.05,4.12-9.05,9.05s4.11,9.05,9.05,9.04c15.03-.01,30-1.07,44.87-3.3,9.67-1.45,19.26-3.51,28.6-6.44,6.33-1.99,12.65-4.38,18.55-7.44-4.43-1.81-8.86-3.61-13.28-5.41.28,1.75.55,3.5.79,5.26-.11-.8-.22-1.6-.32-2.41.61,4.61,1.13,9.28,1.24,13.93,1.5-2.6,2.99-5.21,4.48-7.81-2.36,1.49-4.99,2.62-7.54,3.7.72-.3,1.43-.61,2.16-.91-13.78,5.81-28.66,8.97-43.42,10.96.8-.1,1.6-.21,2.4-.32-25.44,3.38-51.63,3.38-77.07,0,.8.11,1.61.22,2.41.32-14.77-1.98-29.64-5.15-43.42-10.96.72.3,1.44.61,2.16.91-2.56-1.08-5.18-2.22-7.55-3.7,1.5,2.6,2.99,5.21,4.49,7.81.1-4.65.62-9.32,1.23-13.93-.1.8-.21,1.6-.32,2.41.24-1.76.5-3.52.79-5.26-4.43,1.8-8.86,3.6-13.28,5.41,12.9,6.7,27.4,10.47,41.63,12.99,7.99,1.41,16.07,2.42,24.16,3.12,8.76.75,17.49.84,26.27,1.07,4.93.13,9.05-4.21,9.05-9.04s-4.12-8.91-9.05-9.05Z"/>
        </g>
        <path class="st17" d="M146.86,84.08h-.04c-52.68,0-80.15-12.15-87.46-15.96-1.85,11.07-2.03,19.2-2.03,19.2,0,0,27.01,17.08,89.49,17.08h.03c62.48,0,89.5-17.08,89.5-17.08,0,0-.18-8.12-2.03-19.2-7.32,3.81-34.78,15.96-87.46,15.96Z"/>
        <path class="st22" d="M59.36,73.42c7.31,3.8,34.78,15.95,87.46,15.95h.03c52.69,0,80.15-12.15,87.47-15.95.95,5.71,1.47,10.64,1.73,14.08.19-.12.29-.18.29-.18,0,0-.18-8.12-2.03-19.2-7.32,3.81-34.78,15.96-87.46,15.96h-.04c-52.68,0-80.15-12.15-87.46-15.96-1.85,11.07-2.03,19.2-2.03,19.2,0,0,.1.06.3.18.27-3.44.77-8.37,1.73-14.08Z"/>
        <path class="st15" d="M146.86,99.64h-.04c-58.98,0-86.35-15.23-89.23-16.93-.22,2.9-.26,4.61-.26,4.61,0,0,27.01,17.08,89.49,17.08h.03c62.48,0,89.5-17.08,89.5-17.08,0,0-.04-1.7-.25-4.61-2.88,1.7-30.25,16.93-89.23,16.93Z"/>
      </g>
    </g>
    <g>
      <path class="st7" d="M197.86,34.96c6.51,4.99,13.62,6.66,15.88,3.71,2.26-2.95-1.19-9.38-7.71-14.38-6.51-4.99-13.62-6.66-15.88-3.71-2.26,2.94,1.19,9.38,7.71,14.37Z"/>
      <path class="st7" d="M214.82,42.65c-.53,1.4.19,2.96,1.59,3.5,1.41.53,2.97-.19,3.5-1.6.53-1.4-.18-2.96-1.59-3.49-1.41-.53-2.97.19-3.5,1.59Z"/>
    </g>
  </g>
  <g>
    <path class="st5" d="M181.29,189.45c4.98-.58,7.22.92,8.29,5.16,2.07,8.26-3.93,15.97-13.43,17.18-7.82.99-19.89-.77-29.48-9.66-.75.61-1.52,1.25-2.31,1.87-8.89,6.84-18.89,9.63-29.86,7.13-8.13-1.84-12.53-8.92-10.89-16.15,1.01-4.45,3.22-6.04,8.24-5.6-1,.71-1.82,1.19-2.53,1.81-1.88,1.62-2.15,5.06-.59,6.89,1.52,1.77,3.49,1.53,5.85-.61,2.44-2.2,4.79-4.52,7.44-6.44,6.83-4.98,14.35-6.06,22.45-3.56,1.24.38,2.8.47,4.02.09,8.96-2.84,17.05-1.24,24.34,4.55,2.04,1.63,3.91,3.5,5.84,5.29,2.37,2.2,4.3,2.46,5.85.74,1.67-1.86,1.36-5.43-.68-7.08-.64-.52-1.39-.89-2.53-1.62Z"/>
    <path class="st6" d="M176.21,211.72c-7.82.99-19.89-.76-29.49-9.66-.75.61-1.52,1.26-2.31,1.87-8.89,6.84-18.88,9.63-29.86,7.14-6.35-1.44-10.4-6.07-11.11-11.47-.91,6.78,3.44,13.2,11.11,14.93,10.97,2.49,20.97-.29,29.86-7.13.8-.61,1.57-1.26,2.31-1.87,9.6,8.9,21.67,10.65,29.49,9.66,8.92-1.13,14.75-8,13.72-15.67-.84,6.18-6.16,11.25-13.72,12.2Z"/>
  </g>
  <g>
    <g>
      <polygon class="st21" points="124.42 235.56 132.57 249.15 150.57 243.47 124.42 235.56"/>
      <path d="M118.28,239.15c2.72,4.53,5.43,9.06,8.14,13.6,1.59,2.66,4.98,4.23,8.03,3.26,6.01-1.89,12.01-3.79,18-5.69,3.04-.96,5.22-3.6,5.22-6.85s-2.18-5.93-5.22-6.85c-8.71-2.64-17.43-5.27-26.15-7.91-3.71-1.12-7.74,1.3-8.75,4.96-1.04,3.8,1.26,7.62,4.96,8.75,8.72,2.63,17.43,5.27,26.15,7.9v-13.71c-6,1.89-12,3.79-18,5.69,2.67,1.09,5.35,2.18,8.02,3.26-2.71-4.53-5.43-9.05-8.15-13.58-1.99-3.32-6.36-4.53-9.73-2.55-3.31,1.93-4.54,6.4-2.55,9.72Z"/>
    </g>
    <polygon class="st24" points="124.42 235.56 132.57 249.15 150.57 243.47 124.42 235.56"/>
    <polygon class="st13" points="147.78 244.35 150.57 243.47 124.42 235.56 125.68 237.67 147.78 244.35"/>
    <polygon class="st12" points="133.34 247 126.94 236.33 124.42 235.56 132.57 249.15 150.57 243.47 147.48 242.53 133.34 247"/>
  </g>
  <g>
    <g>
      <polygon class="st21" points="140.58 250.02 151.34 252.04 155.74 245.83 171.89 245.19 172.15 232.65 140.58 250.02"/>
      <path d="M138.69,256.87c3.59.67,7.18,1.35,10.77,2.03,3.39.63,6.04-.47,8.02-3.27,1.46-2.07,2.93-4.13,4.39-6.2-2.04,1.17-4.09,2.34-6.14,3.52,5.39-.21,10.77-.42,16.15-.64,3.94-.16,7.03-3.12,7.11-7.11.09-4.18.18-8.36.26-12.54.12-5.53-6.08-8.68-10.69-6.14-10.46,5.75-20.92,11.5-31.37,17.24-.07.04-.14.07-.21.12-3.39,1.87-4.47,6.45-2.55,9.72,2,3.4,6.33,4.42,9.73,2.55,10.45-5.74,20.92-11.49,31.38-17.24.06-.04.13-.07.2-.12-3.57-2.04-7.13-4.09-10.7-6.14-.09,4.18-.17,8.36-.26,12.54,2.37-2.37,4.74-4.74,7.11-7.11-4.57.18-9.14.36-13.72.54-.77.04-1.53.06-2.3.09-2.76.11-4.69,1.3-6.26,3.53-.16.22-.31.43-.46.65-1.32,1.85-2.62,3.71-3.94,5.56,2.68-1.09,5.36-2.18,8.02-3.27-3.58-.68-7.18-1.35-10.77-2.03-3.8-.72-7.65,1-8.74,4.96-.96,3.49,1.16,8.02,4.96,8.74Z"/>
    </g>
    <polygon class="st24" points="140.58 250.02 151.34 252.04 155.74 245.83 171.89 245.19 172.15 232.65 140.58 250.02"/>
    <polygon class="st13" points="172.12 234.41 172.15 232.65 140.58 250.02 142.93 250.45 172.12 234.41"/>
    <polygon class="st12" points="170.88 233.35 170.66 243.7 154.52 244.36 150.12 250.56 142.28 249.08 140.58 250.02 151.34 252.04 155.74 245.83 171.89 245.19 172.15 232.65 170.88 233.35"/>
  </g>
  <polygon class="st24" points="134.44 256.22 127.31 283.36 123.95 283.36 131.41 256.09 134.44 256.22"/>
  <g>
    <g>
      <g>
        <g>
          <path class="st21" d="M149.23,265.43c0,.77-.62,1.38-1.38,1.38s-1.37-.62-1.37-1.38.62-1.38,1.37-1.38,1.38.62,1.38,1.38Z"/>
          <path d="M146.33,265.43c.1-.51.1-.63.03-.34.07-.31.23-.57.46-.8-.21.21-.12.14.26-.18.14-.06.29-.12.44-.17-.31.08-.18.06.33-.04.87-.04,1.49.73,1.54,1.53.05.87-.73,1.49-1.54,1.54-.87.05-1.49-.73-1.52-1.54.09,1.59,1.26,2.91,2.9,2.91,1.52,0,3-1.31,2.91-2.91-.13-2.41-1.87-4.15-4.29-4.28-1.14-.06-2.13.51-2.97,1.2-.9.73-1.25,1.99-1.31,3.08-.06,1.14.52,2.14,1.21,2.98.73.89,1.99,1.25,3.08,1.31,1.14.06,2.14-.53,2.98-1.21.89-.73,1.26-1.98,1.31-3.08.09-1.58-1.39-2.9-2.91-2.9-1.64,0-2.82,1.32-2.9,2.9Z"/>
        </g>
        <path class="st24" d="M149.23,265.43c0,.77-.62,1.38-1.38,1.38s-1.37-.62-1.37-1.38.62-1.38,1.37-1.38,1.38.62,1.38,1.38Z"/>
        <path class="st13" d="M146.78,265.43c0-.71.54-1.28,1.23-1.36-.05,0-.1-.01-.16-.01-.76,0-1.37.62-1.37,1.38s.62,1.38,1.37,1.38c.05,0,.1,0,.16-.02-.69-.07-1.23-.65-1.23-1.37Z"/>
        <path class="st12" d="M147.85,264.06c-.06,0-.13.01-.2.02.66.1,1.17.67,1.17,1.36s-.51,1.26-1.17,1.36c.07.02.14.03.2.03.76,0,1.38-.62,1.38-1.38s-.62-1.38-1.38-1.38Z"/>
      </g>
      <g>
        <g>
          <path class="st21" d="M162.42,265.43c0,.77-.62,1.38-1.38,1.38s-1.38-.62-1.38-1.38.62-1.38,1.38-1.38,1.38.62,1.38,1.38Z"/>
          <path d="M159.51,265.43c.1-.51.11-.63.03-.34.08-.31.23-.57.46-.8-.21.21-.13.14.26-.18.14-.06.29-.12.44-.17-.3.08-.18.06.34-.04.87-.04,1.49.73,1.53,1.53.05.87-.73,1.49-1.53,1.54-.87.05-1.48-.73-1.53-1.54.09,1.59,1.26,2.91,2.91,2.91,1.52,0,2.99-1.31,2.9-2.91-.13-2.41-1.87-4.15-4.28-4.28-1.14-.06-2.14.51-2.99,1.2-.89.73-1.24,1.99-1.3,3.08-.07,1.14.51,2.14,1.2,2.98.73.89,1.99,1.25,3.08,1.31,1.14.06,2.14-.53,2.98-1.21.89-.73,1.25-1.98,1.3-3.08.09-1.58-1.39-2.9-2.9-2.9-1.65,0-2.82,1.32-2.91,2.9Z"/>
        </g>
        <path class="st24" d="M162.42,265.43c0,.77-.62,1.38-1.38,1.38s-1.38-.62-1.38-1.38.62-1.38,1.38-1.38,1.38.62,1.38,1.38Z"/>
        <path class="st13" d="M159.95,265.43c0-.71.55-1.28,1.24-1.36-.05,0-.1-.01-.15-.01-.76,0-1.38.62-1.38,1.38s.62,1.38,1.38,1.38c.05,0,.1,0,.15-.02-.69-.07-1.24-.65-1.24-1.37Z"/>
        <path class="st12" d="M161.04,264.06c-.08,0-.14.01-.2.02.66.1,1.17.67,1.17,1.36s-.51,1.26-1.17,1.36c.06.02.13.03.2.03.76,0,1.38-.62,1.38-1.38s-.62-1.38-1.38-1.38Z"/>
      </g>
    </g>
    <g>
      <g>
        <g>
          <path class="st21" d="M149.23,276.29c0,.76-.62,1.38-1.38,1.38s-1.37-.62-1.37-1.38.62-1.37,1.37-1.37,1.38.61,1.38,1.37Z"/>
          <path d="M146.33,276.29c.1-.52.1-.63.03-.33.07-.31.23-.58.46-.8-.21.2-.12.14.26-.18.14-.06.29-.12.44-.18-.31.07-.18.06.33-.03.87-.05,1.49.73,1.54,1.52.05.87-.73,1.49-1.54,1.53-.87.04-1.49-.73-1.52-1.53.09,1.58,1.26,2.91,2.9,2.91,1.52,0,3-1.32,2.91-2.91-.13-2.42-1.87-4.16-4.29-4.28-1.14-.06-2.13.51-2.97,1.21-.9.73-1.25,1.98-1.31,3.08-.06,1.14.52,2.14,1.21,2.98.73.89,1.99,1.25,3.08,1.31,1.14.06,2.14-.52,2.98-1.21.89-.72,1.26-1.98,1.31-3.08.09-1.58-1.39-2.9-2.91-2.9-1.64,0-2.82,1.32-2.9,2.9Z"/>
        </g>
        <path class="st24" d="M149.23,276.29c0,.76-.62,1.38-1.38,1.38s-1.37-.62-1.37-1.38.62-1.37,1.37-1.37,1.38.61,1.38,1.37Z"/>
        <path class="st13" d="M146.78,276.29c0-.71.54-1.29,1.23-1.36-.05,0-.1-.01-.16-.01-.76,0-1.37.61-1.37,1.37s.62,1.38,1.37,1.38c.05,0,.1,0,.16-.01-.69-.08-1.23-.66-1.23-1.37Z"/>
        <path class="st12" d="M147.85,274.92c-.06,0-.13,0-.2.02.66.1,1.17.67,1.17,1.36s-.51,1.26-1.17,1.36c.07.01.14.02.2.02.76,0,1.38-.62,1.38-1.38s-.62-1.37-1.38-1.37Z"/>
      </g>
      <g>
        <g>
          <path class="st21" d="M162.42,276.29c0,.76-.62,1.38-1.38,1.38s-1.38-.62-1.38-1.38.62-1.37,1.38-1.37,1.38.61,1.38,1.37Z"/>
          <path d="M159.51,276.29c.1-.52.11-.63.03-.33.08-.31.23-.58.46-.8-.21.2-.13.14.26-.18.14-.06.29-.12.44-.18-.3.07-.18.06.34-.03.87-.05,1.49.73,1.53,1.52.05.87-.73,1.49-1.53,1.53-.87.04-1.48-.73-1.53-1.53.09,1.58,1.26,2.91,2.91,2.91,1.52,0,2.99-1.32,2.9-2.91-.13-2.42-1.87-4.16-4.28-4.28-1.14-.06-2.14.51-2.99,1.21-.89.73-1.24,1.98-1.3,3.08-.07,1.14.51,2.14,1.2,2.98.73.89,1.99,1.25,3.08,1.31,1.14.06,2.14-.52,2.98-1.21.89-.72,1.25-1.98,1.3-3.08.09-1.58-1.39-2.9-2.9-2.9-1.65,0-2.82,1.32-2.91,2.9Z"/>
        </g>
        <path class="st24" d="M162.42,276.29c0,.76-.62,1.38-1.38,1.38s-1.38-.62-1.38-1.38.62-1.37,1.38-1.37,1.38.61,1.38,1.37Z"/>
        <path class="st13" d="M159.95,276.29c0-.71.55-1.29,1.24-1.36-.05,0-.1-.01-.15-.01-.76,0-1.38.61-1.38,1.37s.62,1.38,1.38,1.38c.05,0,.1,0,.15-.01-.69-.08-1.24-.66-1.24-1.37Z"/>
        <path class="st12" d="M161.04,274.92c-.08,0-.14,0-.2.02.66.1,1.17.67,1.17,1.36s-.51,1.26-1.17,1.36c.06.01.13.02.2.02.76,0,1.38-.62,1.38-1.38s-.62-1.37-1.38-1.37Z"/>
      </g>
    </g>
  </g>
  <polygon class="st24" points="138.33 283.44 187.86 283.44 187.18 281.29 138.33 283.44"/>
  <polygon class="st11" points="123.63 283.45 104.74 283.44 105.4 281.29 123.63 283.45"/>
  <g>
    <g>
      <g>
        <g>
          <polygon class="st21" points="94.35 255.9 92.03 256.85 85.97 241.93 88.3 240.98 94.35 255.9"/>
          <path d="M92.8,250.3c-.77.31-1.55.63-2.32.94,2.38,1.36,4.76,2.71,7.15,4.06-2.01-4.97-4.04-9.95-6.05-14.92-1.36,2.38-2.71,4.76-4.06,7.15.77-.32,1.55-.63,2.33-.95-2.38-1.35-4.77-2.71-7.15-4.06,2.01,4.97,4.03,9.94,6.05,14.92,1.19,2.93,3.82,4.98,7.15,4.06,2.78-.76,5.25-4.21,4.06-7.15-2.01-4.97-4.04-9.94-6.05-14.92-.6-1.47-1.25-2.64-2.67-3.48-1.21-.71-3.11-1.14-4.48-.58-.78.31-1.55.63-2.32.94-1.47.59-2.64,1.25-3.48,2.67-.71,1.22-1.14,3.12-.58,4.48,2.02,4.98,4.04,9.95,6.06,14.92.59,1.46,1.25,2.63,2.67,3.47,1.22.72,3.12,1.14,4.48.59.77-.31,1.55-.63,2.33-.95,2.93-1.19,4.98-3.82,4.06-7.15-.77-2.78-4.21-5.25-7.15-4.06Z"/>
        </g>
        <polygon class="st0" points="94.35 255.9 92.03 256.85 85.97 241.93 88.3 240.98 94.35 255.9"/>
        <polygon class="st25" points="85.97 241.93 92.03 256.85 92.53 256.64 86.47 241.72 85.97 241.93"/>
        <polygon class="st9" points="87.78 241.19 93.84 256.11 94.34 255.91 88.28 240.98 87.78 241.19"/>
      </g>
      <g>
        <g>
          <path class="st21" d="M102.91,271.63c.35.89.03,1.86-.73,2.17l-3.29,1.34c-.77.31-1.67-.15-2.04-1.05l-5.11-12.59c-.36-.89-.04-1.86.73-2.17l3.29-1.33c.76-.31,1.67.16,2.03,1.04l5.13,12.6Z"/>
          <path d="M96.68,273.35c-.82-2.66,1.57-4.89,3.76-5.78-.1.04-.2.08-.29.12-.4.17-.8.33-1.21.5-.43.18-.87.35-1.29.53-.13.05-.26.1-.39.15,1.78-.71,4.19.73,5.35,2.27.62.83.66,1.66.4,1.03-.08-.2-.16-.38-.24-.58-.3-.73-.59-1.47-.89-2.2-1.29-3.17-2.58-6.34-3.86-9.52.18.44-.46,2.92-.62,3.31-.81,1.83-4.66,2.97-2.55,2.12.84-.35,1.7-.7,2.55-1.04.89-.36-.47.28-2.47-.07-2.44-.44-2.72-1.86-3.35-3.4.05.11.09.22.14.33.25.61.5,1.22.75,1.84,1.36,3.34,2.72,6.69,4.08,10.03.05.12.1.24.15.36.66,1.63,1.39,2.93,2.97,3.86,1.49.87,3.31,1.1,4.98.65,3.09-.85,5.84-4.68,4.51-7.95-1.18-2.91-2.37-5.84-3.56-8.74-.51-1.25-1.02-2.51-1.53-3.76-1.1-2.73-2.62-4.46-5.41-5.58-1.78-.71-3.74-.43-5.45.27-.79.32-1.58.64-2.36.96-3.51,1.42-5.51,3.91-5.7,7.76-.08,1.7.73,3.26,1.34,4.78,1.34,3.31,2.69,6.62,4.04,9.93.89,2.2,1.89,3.79,3.95,5.12,2.08,1.33,4.78,1.28,7,.38.81-.33,1.63-.66,2.44-.99,1.92-.78,3.76-1.85,4.64-3.84.92-2.05,1.28-4.09.6-6.28-1.04-3.36-4.48-5.47-7.95-4.51-3.31.91-5.55,4.58-4.51,7.95Z"/>
        </g>
        <path class="st20" d="M102.91,271.63c.35.89.03,1.86-.73,2.17l-3.29,1.34c-.77.31-1.67-.15-2.04-1.05l-5.11-12.59c-.36-.89-.04-1.86.73-2.17l3.29-1.33c.76-.31,1.67.16,2.03,1.04l5.13,12.6Z"/>
        <path class="st19" d="M97.79,273.71l-5.11-12.6c-.36-.89-.03-1.86.73-2.16l-.93.38c-.77.31-1.09,1.28-.73,2.17l5.11,12.59c.36.9,1.27,1.36,2.04,1.05l.93-.38c-.76.31-1.67-.16-2.04-1.05Z"/>
        <path class="st1" d="M101.97,272.01l-5.12-12.6c-.36-.89-1.27-1.36-2.03-1.05l.94-.38c.76-.31,1.67.16,2.03,1.04l5.13,12.6c.35.89.03,1.86-.73,2.17l-.93.38c.76-.31,1.08-1.28.73-2.17Z"/>
      </g>
    </g>
    <g>
      <g>
        <g>
          <g>
            <path class="st21" d="M98.52,219.01c3.95,9.73-.73,20.8-10.45,24.75-9.73,3.96-20.81-.73-24.75-10.46-3.95-9.73.73-20.8,10.46-24.75,9.72-3.95,20.81.74,24.75,10.46Z"/>
            <path d="M92.3,220.73c.53,1.34.91,2.71,1.16,4.13-.39-2.29-.02.12,0,.71.04.79,0,1.6-.07,2.4-.12,1.31.25-1.66.05-.36-.06.33-.13.67-.2,1-.14.66-.34,1.32-.55,1.96-.11.32-.22.63-.35.95.74-1.88.3-.72.1-.31-.34.72-.74,1.4-1.17,2.07-.18.28-.38.56-.58.84,1.15-1.61.46-.59.17-.24-.44.53-.92,1.02-1.41,1.49-.25.24-.52.47-.78.69-.99.85,1.26-.93.21-.15-.66.49-1.37.92-2.1,1.32-.31.17-.64.33-.96.49-1.21.59,1.46-.58.2-.07-.67.26-1.36.47-2.05.65-.55.15-3.04.55-.7.24-.8.11-1.62.14-2.42.14-.68,0-1.37-.05-2.06-.12,2.34.24-.05-.06-.62-.19-.67-.16-1.31-.36-1.96-.59-.42-.15-1.59-.67.29.14-.42-.18-.82-.39-1.22-.6-.61-.31-1.19-.68-1.76-1.05-.36-.24-1.38-1.02.21.21-.27-.21-.53-.44-.79-.66-.52-.46-1-.95-1.47-1.45-.24-.25-.46-.52-.68-.79,1.33,1.59.24.3-.04-.1-.4-.59-.75-1.2-1.08-1.83-.17-.32-.32-.65-.47-.98.82,1.78.26.61.1.19-.25-.67-.45-1.36-.62-2.06-.09-.34-.15-.69-.22-1.03-.22-1.15.17,1.76,0-.02-.06-.69-.08-1.38-.06-2.08,0-.57.31-3.01-.02-.66.21-1.46.62-2.88,1.16-4.26-.83,2.11.24-.36.54-.89.22-.4.46-.78.72-1.15.95-1.43-.69.81,0-.06.5-.62,1.06-1.2,1.63-1.76.33-.31.69-.61,1.04-.91-1.59,1.33-.29.24.1-.04.69-.47,1.41-.87,2.15-1.25,1.58-.8-.94.34.12-.08.45-.18.91-.32,1.37-.47.79-.24,1.6-.42,2.42-.55-2.17.37-.5.06.02.03.46-.04.92-.04,1.38-.05.62,0,3.38.32,1.02-.01.89.13,1.78.34,2.64.6.34.1.66.21.98.32,1.63.57-1-.47.02,0,.83.38,1.62.83,2.38,1.32.29.19.57.38.84.58-1.69-1.22-.33-.26.04.05.69.6,1.32,1.28,1.93,1.97.85.99-.93-1.26-.15-.21.28.38.54.77.79,1.17.26.4.49.82.71,1.24.21.4.91,2.03.1.1.68,1.63,1.38,2.93,2.97,3.86,1.5.87,3.32,1.11,4.98.65,3.07-.85,5.88-4.69,4.51-7.95-1.5-3.59-3.37-6.78-6.2-9.5-2.73-2.63-5.94-4.43-9.47-5.74-6.77-2.51-14.63-1.44-20.85,2.02-12.86,7.16-16.88,25.38-7.83,37.1,3.77,4.88,8.86,8.5,14.96,9.82,6.24,1.35,12.67.34,18.23-2.76,10.58-5.89,15.62-19.66,11.16-30.95-1.3-3.27-4.28-5.53-7.95-4.51-3.12.86-5.81,4.67-4.51,7.95Z"/>
          </g>
          <path class="st0" d="M98.52,219.01c3.95,9.73-.73,20.8-10.45,24.75-9.73,3.96-20.81-.73-24.75-10.46-3.95-9.73.73-20.8,10.46-24.75,9.72-3.95,20.81.74,24.75,10.46Z"/>
          <path class="st25" d="M74.12,209.41c9.58-3.89,20.48.6,24.57,10.03-.05-.14-.11-.28-.17-.43-3.94-9.72-15.03-14.4-24.75-10.46-9.73,3.95-14.41,15.03-10.46,24.75.06.14.12.29.18.42-3.64-9.61,1.05-20.42,10.63-24.32Z"/>
          <path class="st9" d="M87.72,242.91c9.58-3.89,14.27-14.71,10.63-24.32.06.14.12.28.17.42,3.95,9.73-.73,20.8-10.45,24.75-9.73,3.96-20.81-.73-24.75-10.46-.06-.14-.12-.29-.17-.43,4.09,9.43,15,13.93,24.58,10.04Z"/>
        </g>
        <g>
          <g>
            <path class="st21" d="M93.51,221.05c2.82,6.96-.52,14.88-7.48,17.71-6.96,2.82-14.89-.53-17.71-7.48-2.82-6.96.52-14.89,7.48-17.71,6.95-2.82,14.88.53,17.71,7.48Z"/>
            <path d="M90.4,221.91c1.09,2.76,1.17,4.81.39,7.42-.63,2.12-2.27,4.25-4.17,5.5-1.22.8-2.01,1.1-3.48,1.46-.88.22-.8.17-1.55.23-.34.02-.69.01-1.03,0-.12,0-1.35-.11-.83-.04-.66-.1-1.33-.27-1.97-.46-.84-.25-.76-.24-1.41-.56-1.43-.71-2.01-1.19-3.11-2.34-1.62-1.71-2.59-4.37-2.67-6.64-.06-1.49.05-1.98.5-3.49.25-.84.24-.76.56-1.41.15-.3.32-.59.5-.88.06-.12.7-1.03.46-.74,1.77-2.29,3.72-3.4,6.48-4.01,2.1-.46,4.75,0,6.74,1.05,1.28.68,1.77,1.1,2.82,2.19.66.7,1.46,1.94,1.78,2.71.68,1.62,2.11,2.77,3.97,2.26,1.54-.42,2.94-2.35,2.26-3.97-2.65-6.29-8.15-10.4-15.01-10.84-6.49-.43-12.87,3.52-15.73,9.27-3.07,6.16-1.97,13.28,2.32,18.55,4.08,5,11.22,6.84,17.32,5.16,9.32-2.56,14.61-13.17,11.1-22.14-.64-1.65-2.14-2.77-3.98-2.26-1.56.43-2.9,2.33-2.26,3.98Z"/>
          </g>
          <path class="st27" d="M93.51,221.05c2.82,6.96-.52,14.88-7.48,17.71-6.96,2.82-14.89-.53-17.71-7.48-2.82-6.96.52-14.89,7.48-17.71,6.95-2.82,14.88.53,17.71,7.48Z"/>
          <path class="st8" d="M76.23,214.62c6.78-2.76,14.48.36,17.48,6.96-.06-.17-.12-.35-.2-.53-2.82-6.96-10.76-10.3-17.71-7.48-6.96,2.82-10.3,10.75-7.48,17.71.07.17.14.35.22.51-2.45-6.83.9-14.43,7.68-17.17Z"/>
          <path class="st18" d="M83.49,232.48c-5.87,2.38-12.43.36-16.04-4.5.15,1.11.44,2.21.88,3.3,2.82,6.96,10.75,10.3,17.71,7.48,6.96-2.83,10.3-10.75,7.48-17.71-.44-1.08-1-2.08-1.66-2.97.81,6-2.49,12.03-8.37,14.41Z"/>
        </g>
      </g>
      <path class="st23" d="M86.45,218c1.1,2.69-.2,5.76-2.89,6.86-2.7,1.09-5.77-.21-6.86-2.9-1.1-2.7.2-5.77,2.89-6.86,2.7-1.1,5.77.2,6.86,2.9Z"/>
      <path class="st23" d="M92.04,220.76c.41,1.02-.08,2.18-1.1,2.6-1.02.41-2.18-.08-2.6-1.1-.42-1.02.08-2.18,1.1-2.59,1.02-.42,2.19.07,2.6,1.1Z"/>
    </g>
  </g>
  <g>
    <path class="st2" d="M85.3,267.32c-4.11-12.05,11.75-13.73,14.14-5.39,2.4,8.34-9.46,19.12-14.14,5.39"/>
    <path d="M88.1,266.55c-.2-.59-.36-1.18-.48-1.79-.19-.9.03.55-.06-.33-.03-.25-.03-.51-.03-.77,0-.24,0-.48.03-.73.05-.79-.12.6.02-.14.05-.25.5-1.46.19-.73.16-.37.38-.71.61-1.04-.47.66.29-.25.47-.42.51-.45-.53.38.03-.02.16-.12.33-.21.5-.31.17-.1.35-.18.52-.27-.75.36.05,0,.23-.06.38-.12.77-.2,1.16-.27-.88.16.39-.01.63-.01.24,0,1.53.13.64,0,.47.07.93.19,1.37.34.15.04.79.31.06,0,.18.07.36.17.54.27.2.1,1.23.82.58.31.32.25.61.54.88.84.46.52-.36-.52.04.06.16.23.29.47.42.72.34.64-.21-.6.05.1.08.21.14.43.2.66.06.24.11.48.15.71-.12-.71-.01.06,0,.19.02.48-.01.97-.06,1.46.08-.73-.03.06-.05.18-.05.24-.12.47-.18.7-.06.24-.14.47-.23.69-.27.76.25-.53-.08.2-.2.44-.45.86-.69,1.26-.13.21-.27.4-.4.59.39-.55-.06.06-.13.16-.35.4-.74.77-1.15,1.11.54-.46-.47.29-.68.4-.13.07-.79.36-.07.07-.19.07-.39.13-.59.2-.19.06-.39.09-.59.13.8-.15.17-.04-.03-.03-.2,0-.4-.01-.6-.03.85.08-.02-.05-.23-.12-.68-.2.56.28-.09-.04-.2-.1-.39-.23-.58-.36.56.38-.08-.07-.16-.15-.2-.18-.38-.38-.55-.57-.42-.48-1.22-2.05-1.61-3.15-.53-1.49-1.97-2.48-3.58-2.03-1.44.4-2.55,2.08-2.03,3.57,1.77,5.02,5.65,9.96,11.59,8.39,4.35-1.17,7.58-5.66,8.35-9.94.83-4.61-.96-9.4-5.32-11.51-3.91-1.9-8.64-1.53-12.06,1.19-3.59,2.85-3.89,7.79-2.55,11.86.49,1.51,1.99,2.47,3.57,2.03,1.48-.4,2.53-2.07,2.03-3.57h0Z"/>
  </g>
</svg>