<?xml version="1.0" encoding="UTF-8"?>
<svg id="Layer_1" xmlns="http://www.w3.org/2000/svg" version="1.1" viewBox="0 0 277.46 306.14">
  <!-- Generator: Adobe Illustrator 29.6.1, SVG Export Plug-In . SVG Version: 2.1.1 Build 9)  -->
  <defs>
    <style>
      .st0 {
        fill: #ffd7c3;
      }

      .st1 {
        fill: #055e9b;
      }

      .st2, .st3, .st4, .st5, .st6, .st7, .st8, .st9, .st10, .st11, .st12, .st13, .st14, .st15, .st16, .st17 {
        fill-rule: evenodd;
      }

      .st2, .st18 {
        fill: #fff;
      }

      .st19 {
        fill: #ffce00;
      }

      .st3 {
        fill: #929497;
      }

      .st20 {
        fill: #511703;
      }

      .st21 {
        fill: #fccd0c;
      }

      .st4 {
        fill: #00d2f7;
      }

      .st22, .st7 {
        fill: #000002;
      }

      .st23 {
        fill: #727272;
      }

      .st24 {
        fill: #8e8e8e;
      }

      .st25 {
        fill: #fff4c7;
      }

      .st5, .st26 {
        fill: #fff6c2;
      }

      .st27 {
        fill: #125693;
      }

      .st28 {
        fill: #ffb000;
      }

      .st29 {
        fill: #aeeaff;
      }

      .st30 {
        fill: #ccc;
      }

      .st6 {
        fill: #d1d2d3;
      }

      .st31 {
        fill: #ed1c24;
      }

      .st32 {
        fill: #ffdcb6;
      }

      .st33 {
        fill: #abcb83;
      }

      .st34 {
        fill: #f9a11b;
      }

      .st35 {
        fill: #8eaf5f;
      }

      .st8 {
        fill: #5b5b5b;
      }

      .st36 {
        fill: #f38b9e;
      }

      .st37 {
        fill: #6f2a0e;
      }

      .st38, .st10 {
        fill: #fdc361;
      }

      .st9 {
        fill: #b7b7b7;
      }

      .st39 {
        fill: #fde101;
      }

      .st40, .st16 {
        fill: #fde5d2;
      }

      .st11 {
        fill: #646465;
      }

      .st41 {
        fill: #ff9700;
      }

      .st42 {
        fill: #82442f;
      }

      .st12 {
        fill: #04b8ef;
      }

      .st13 {
        fill: #95968e;
      }

      .st14 {
        fill: #5d5e60;
      }

      .st43, .st17 {
        fill: #f9b015;
      }

      .st44 {
        fill: #fbf0dc;
      }

      .st45 {
        fill: #27aae1;
      }

      .st46 {
        fill: #a00d1f;
      }

      .st47 {
        fill: #0b1c39;
      }

      .st48 {
        fill: #2e74bc;
      }

      .st49 {
        fill: #b7b6b2;
      }

      .st50 {
        fill: #d4e5bd;
      }

      .st51 {
        fill: #e6e7e8;
      }

      .st52 {
        fill: #f4bba2;
      }

      .st15 {
        fill: #e5e5e5;
      }

      .st53 {
        fill: #caebff;
      }

      .st54 {
        fill: #1c75bc;
      }

      .st55 {
        fill: #fffbc7;
      }

      .st56 {
        fill: #fff200;
      }

      .st57 {
        fill: #ff838c;
      }
    </style>
  </defs>
  <g>
    <path class="st0" d="M214.83,281.15c1.5,2.79,1.14,7.31-2.72,7.71-3.25.35-6.8-.98-9.85-1.96-10.35-3.29-20.35-7.62-30.77-10.74-5.07-1.52-10.26-2.79-15.53-3.3-6.4-.62-12.97.27-19.24,1.55-9.31,1.9-18.55,5.02-27.13,9.1-.09.04-.17.08-.25.12-.75.36-.1,1.48.65,1.11,7.65-3.75,15.95-6.49,24.22-8.46,6.6-1.56,13.51-2.63,20.31-2.24,5.31.29,10.54,1.61,15.64,3.08,10.52,3.04,20.6,7.37,31,10.79,3.26,1.08,6.78,2.27,10.26,2.29,3.76,0,6.01-3.26,5.48-6.85-.14-.98-.48-1.98-.95-2.86-.39-.73-1.51-.08-1.11.66h0Z"/>
    <path d="M211.77,282.94c.42.82-.24-.72.07.16.1.27.17.55.23.82.21.92-.05-.76.02.18.02.28,0,.56-.01.85.05-.9,0-.09-.06.13-.21.86.36-.63-.04.13-.39.75.51-.51-.07.11-.29.25-.26.24.09-.06-.35.18-.32.17.08-.02-.62.23-.83.14-1.77.11-.71-.04-1.48-.21-2.26-.39-1.96-.46-3.87-1.16-5.78-1.77-7.83-2.53-15.47-5.63-23.25-8.32-7.94-2.74-16.12-5.12-24.54-5.68-8.3-.55-16.83,1.15-24.83,3.22-3.94,1.02-7.81,2.27-11.61,3.69-1.96.73-3.89,1.53-5.82,2.34-1.92.82-3.96,1.56-5.61,2.84-1,.77-1.46,2.74-1.02,3.9.45,1.18,1,2,2.08,2.66,2.37,1.43,5.02-.49,7.18-1.46,3.56-1.59,7.25-2.91,10.97-4.09,7.55-2.4,15.41-4.32,23.35-4.71,8.19-.41,16.04,1.65,23.8,4.11,5.61,1.78,11.1,3.86,16.62,5.9,5.58,2.06,11.26,4.38,17.09,5.62,2.94.62,6.05.91,8.83-.4,2.37-1.12,3.99-3.36,4.69-5.84.79-2.79.09-5.73-1.18-8.26-.84-1.67-3.14-2.51-4.87-1.85-2.16.82-3.44,2.94-2.75,5.25.56,1.85,2.47,3.01,4.37,2.48,1.83-.5,3.05-2.51,2.48-4.36-.03-.09-.06-.19-.08-.27v1.89c-.19.32-.38.64-.57.96-.52.3-1.04.61-1.57.91-.16.01-.33.02-.49.04-.6-.16-1.19-.32-1.79-.48-.65-.29-.86-1.09-.57-.22-.01-.04.28,1.3.2.66.04.34.04.68.03,1.02-.03,1.04.16-.63-.07.35-.02.12-.4,1.04-.08.33-.13.28-.31.54-.48.8.43-.63-.17.1-.27.19.68-.62-.87.37-.04.03-.31.13-.64.2-.96.26.77-.16-.58-.04-.58-.04-.81-.02-1.58-.13-2.37-.29-2.04-.39-4.04-1.06-6.02-1.71-7.75-2.55-15.33-5.58-23.04-8.26-7.91-2.75-16.09-5.25-24.48-5.87-8.25-.61-16.61.99-24.56,3.04-3.77.97-7.48,2.12-11.14,3.43-1.83.65-3.64,1.37-5.44,2.12-1.02.43-2.05.87-3.06,1.32-.44.2-.88.41-1.32.61.05-.03-1.33.5-.73.34h1.88c.32.19.64.38.96.56.3.52.61,1.04.91,1.57.01.16.03.32.04.49-.16.6-.32,1.2-.48,1.79-.23.26-.47.52-.7.77.29-.13.58-.27.87-.41.44-.2.88-.4,1.32-.61.76-.34,1.51-.68,2.27-1,1.95-.81,3.91-1.56,5.91-2.28,3.82-1.37,7.71-2.52,11.66-3.49,7.86-1.93,15.93-3.18,24.02-2.22,8.01.96,15.86,3.75,23.41,6.46,7.67,2.75,15.27,5.69,23.05,8.13,4.13,1.3,9.83,2.57,13.21-1,2.75-2.93,2.5-7.45.78-10.8-.88-1.73-3.26-2.22-4.86-1.28-1.74,1.03-2.15,3.14-1.27,4.87Z"/>
  </g>
  <path class="st45" d="M214.83,281.15c1.5,2.79,1.14,7.31-2.72,7.71-3.25.35-6.8-.98-9.85-1.96-10.35-3.29-20.35-7.62-30.77-10.74-5.07-1.52-10.26-2.79-15.53-3.3-6.4-.62-12.97.27-19.24,1.55-9.31,1.9-18.55,5.02-27.13,9.1-.09.04-.17.08-.25.12-.75.36-.1,1.48.65,1.11,7.65-3.75,15.95-6.49,24.22-8.46,6.6-1.56,13.51-2.63,20.31-2.24,5.31.29,10.54,1.61,15.64,3.08,10.52,3.04,20.6,7.37,31,10.79,3.26,1.08,6.78,2.27,10.26,2.29,3.76,0,6.01-3.26,5.48-6.85-.14-.98-.48-1.98-.95-2.86-.39-.73-1.51-.08-1.11.66h0Z"/>
  <g>
    <path class="st54" d="M215.64,284.27c.05-1.22-.25-2.51-.81-3.55-.02-.04-.03-.06-.04-.09-.06.16-.06.33.04.53.5.92.78,2.03.81,3.12Z"/>
    <path class="st54" d="M211.42,289.76c-3.48,0-6.99-1.2-10.26-2.28-10.4-3.42-20.47-7.75-31-10.79-5.09-1.47-10.33-2.78-15.64-3.08-6.8-.38-13.71.67-20.31,2.24-8.27,1.97-16.57,4.71-24.22,8.46-.42.2-.81-.06-.94-.4-.2.46.34,1.12.94.83,7.65-3.75,15.95-6.49,24.22-8.46,6.6-1.56,13.51-2.63,20.31-2.24,5.31.29,10.54,1.61,15.64,3.08,10.52,3.04,20.6,7.37,31,10.79,3.26,1.08,6.78,2.27,10.26,2.29,3.47,0,5.65-2.77,5.55-6.02-.1,3.06-2.23,5.59-5.55,5.58Z"/>
  </g>
  <g>
    <path class="st53" d="M215.95,280.85c.47.88.81,1.88.95,2.86.05.29.07.57.07.86.01-.39,0-.8-.07-1.21-.14-.98-.48-1.98-.95-2.86-.37-.68-1.38-.15-1.17.53.14-.47.87-.73,1.17-.17Z"/>
    <path class="st53" d="M109.35,283.98c.08-.04.16-.08.25-.12,8.58-4.09,17.82-7.2,27.13-9.1,6.27-1.28,12.83-2.17,19.24-1.55,5.27.51,10.46,1.79,15.53,3.31,10.42,3.12,20.42,7.45,30.77,10.75,3.05.96,6.6,2.29,9.85,1.95,2.57-.27,3.59-2.38,3.53-4.57-.06,2.07-1.09,3.96-3.53,4.21-3.25.35-6.8-.98-9.85-1.96-10.35-3.29-20.35-7.62-30.77-10.74-5.07-1.52-10.26-2.79-15.53-3.3-6.4-.62-12.97.27-19.24,1.55-9.31,1.9-18.55,5.02-27.13,9.1-.09.04-.17.08-.25.12-.31.15-.38.43-.3.68.04-.13.14-.25.3-.33Z"/>
  </g>
  <g>
    <path class="st0" d="M208.63,279.26c1.5,2.78,1.13,7.31-2.72,7.71-3.26.34-6.81-.98-9.85-1.95-10.36-3.3-20.35-7.62-30.77-10.75-5.07-1.51-10.25-2.79-15.54-3.3-6.4-.62-12.96.27-19.23,1.55-9.31,1.9-18.54,5.01-27.13,9.1-.08.04-.17.08-.25.12-.75.36-.09,1.48.65,1.12,7.65-3.75,15.95-6.49,24.22-8.46,6.6-1.57,13.51-2.63,20.31-2.25,5.31.3,10.55,1.6,15.64,3.08,10.52,3.05,20.6,7.38,30.99,10.79,3.26,1.07,6.78,2.28,10.25,2.28,3.76,0,6.01-3.25,5.48-6.84-.14-.97-.48-1.98-.95-2.85-.4-.73-1.51-.08-1.11.65h0Z"/>
    <path d="M205.56,281.05c.42.81-.24-.72.08.17.09.26.16.54.23.81.21.92-.05-.76.02.19.02.27,0,.55,0,.84.05-.89,0-.08-.06.13-.21.85.36-.63-.04.13-.38.76.51-.51-.07.11-.29.25-.25.23.1-.07-.35.18-.32.18.08-.01-.61.23-.83.14-1.77.1-.72-.03-1.49-.21-2.26-.39-1.96-.46-3.87-1.15-5.78-1.77-7.83-2.54-15.47-5.63-23.25-8.32-7.94-2.74-16.12-5.11-24.53-5.67-8.3-.56-16.84,1.14-24.84,3.22-3.93,1.02-7.8,2.28-11.6,3.69-1.97.72-3.89,1.52-5.82,2.34-1.91.81-3.96,1.56-5.61,2.84-1,.77-1.46,2.74-1.02,3.9.44,1.17,1,2,2.08,2.66,2.36,1.43,5.01-.5,7.17-1.47,3.56-1.6,7.25-2.91,10.97-4.1,7.55-2.39,15.41-4.31,23.34-4.71,8.2-.4,16.05,1.66,23.8,4.12,5.61,1.77,11.11,3.86,16.63,5.89,5.58,2.06,11.25,4.39,17.08,5.62,2.94.62,6.06.92,8.84-.4,2.37-1.13,3.99-3.36,4.69-5.85.79-2.79.08-5.73-1.18-8.25-.85-1.66-3.15-2.52-4.87-1.86-2.16.83-3.44,2.95-2.74,5.25.56,1.85,2.46,3.01,4.37,2.48,1.83-.51,3.05-2.52,2.49-4.37-.03-.09-.06-.18-.09-.26v1.88c-.19.32-.38.65-.57.96-.52.3-1.04.61-1.56.91-.17.02-.32.03-.49.04-.6-.16-1.2-.32-1.8-.48-.65-.29-.86-1.07-.57-.22-.01-.04.29,1.31.2.66.04.33.04.68.03,1.02-.02,1.04.16-.64-.07.35-.03.12-.4,1.04-.08.34-.13.28-.3.54-.47.79.42-.62-.17.09-.27.19.68-.62-.87.37-.04.04-.31.13-.63.18-.96.25.78-.16-.58-.05-.58-.05-.8-.02-1.58-.13-2.37-.28-2.05-.39-4.04-1.06-6.01-1.71-7.76-2.55-15.33-5.58-23.04-8.25-7.91-2.75-16.1-5.25-24.49-5.87-8.24-.61-16.6.99-24.55,3.04-3.76.97-7.48,2.12-11.14,3.43-1.83.65-3.64,1.37-5.43,2.12-1.02.43-2.05.88-3.07,1.33-.44.19-.88.4-1.32.61.05-.03-1.33.5-.73.33h1.89c.32.19.64.38.95.57.31.52.61,1.05.92,1.57.02.16.03.32.04.49-.16.59-.32,1.2-.49,1.79-.23.26-.47.52-.7.77.29-.14.59-.28.88-.41.44-.21.88-.4,1.32-.61.76-.34,1.51-.67,2.27-.99,1.95-.82,3.93-1.57,5.91-2.29,3.82-1.36,7.72-2.52,11.66-3.49,7.86-1.93,15.94-3.18,24.03-2.21,8,.95,15.86,3.74,23.41,6.45,7.67,2.76,15.27,5.7,23.05,8.14,4.13,1.3,9.83,2.58,13.21-1.01,2.75-2.92,2.49-7.44.78-10.8-.88-1.73-3.27-2.21-4.86-1.27-1.74,1.02-2.16,3.13-1.28,4.86Z"/>
  </g>
  <path class="st31" d="M208.63,279.26c1.5,2.78,1.13,7.31-2.72,7.71-3.26.34-6.81-.98-9.85-1.95-10.36-3.3-20.35-7.62-30.77-10.75-5.07-1.51-10.25-2.79-15.54-3.3-6.4-.62-12.96.27-19.23,1.55-9.31,1.9-18.54,5.01-27.13,9.1-.08.04-.17.08-.25.12-.75.36-.09,1.48.65,1.12,7.65-3.75,15.95-6.49,24.22-8.46,6.6-1.57,13.51-2.63,20.31-2.25,5.31.3,10.55,1.6,15.64,3.08,10.52,3.05,20.6,7.38,30.99,10.79,3.26,1.07,6.78,2.28,10.25,2.28,3.76,0,6.01-3.25,5.48-6.84-.14-.97-.48-1.98-.95-2.85-.4-.73-1.51-.08-1.11.65h0Z"/>
  <g>
    <path class="st46" d="M209.45,282.37c.04-1.22-.26-2.5-.81-3.54-.02-.04-.03-.06-.05-.1-.06.16-.06.34.05.53.49.92.79,2.03.81,3.11Z"/>
    <path class="st46" d="M205.21,287.86c-3.48,0-7-1.21-10.25-2.28-10.4-3.42-20.48-7.75-30.99-10.8-5.09-1.46-10.33-2.78-15.64-3.08-6.8-.38-13.71.68-20.31,2.25-8.27,1.97-16.57,4.71-24.22,8.46-.42.21-.82-.06-.94-.39-.2.46.34,1.12.94.83,7.65-3.75,15.95-6.49,24.22-8.46,6.6-1.57,13.51-2.63,20.31-2.25,5.31.3,10.55,1.6,15.64,3.08,10.52,3.05,20.6,7.38,30.99,10.79,3.26,1.07,6.78,2.28,10.25,2.28,3.47,0,5.65-2.77,5.55-6.02-.1,3.06-2.23,5.59-5.55,5.58Z"/>
  </g>
  <g>
    <path class="st57" d="M209.75,279.12c.47.87.81,1.88.95,2.86.04.26.06.53.07.79.02-.43,0-.87-.07-1.31-.14-.97-.48-1.98-.95-2.85-.38-.72-1.46-.12-1.14.6.2-.42.85-.61,1.14-.08Z"/>
    <path class="st57" d="M103.15,282.25c.08-.05.17-.09.25-.13,8.58-4.08,17.82-7.2,27.13-9.1,6.27-1.28,12.84-2.17,19.23-1.55,5.29.51,10.47,1.78,15.54,3.3,10.42,3.12,20.41,7.45,30.77,10.75,3.04.98,6.59,2.3,9.85,1.96,2.6-.28,3.61-2.43,3.53-4.65-.08,2.03-1.13,3.88-3.53,4.13-3.26.34-6.81-.98-9.85-1.95-10.36-3.3-20.35-7.62-30.77-10.75-5.07-1.51-10.25-2.79-15.54-3.3-6.4-.62-12.96.27-19.23,1.55-9.31,1.9-18.54,5.01-27.13,9.1-.08.04-.17.08-.25.12-.35.17-.39.49-.27.76.05-.1.14-.18.27-.24Z"/>
  </g>
  <g>
    <g>
      <path class="st0" d="M196.94,228.47s27.65,33.22,15.53,40.29c-12.12,7.06-28.85-23.94-28.85-23.94l13.31-16.35Z"/>
      <path d="M194.43,230.99c.26.3.51.62.76.93.27.34.55.7.83,1.04.17.22.34.44.51.66.17.2.54.69-.18-.24.13.17.27.34.39.51,2.16,2.81,4.22,5.7,6.18,8.65,2.31,3.49,4.48,7.1,6.3,10.87.21.44.41.88.61,1.32.1.22.2.44.29.65.33.77-.31-.74,0,.02.37.9.7,1.82,1,2.75.26.79.47,1.6.64,2.42.09.38.15.77.21,1.16-.2-1.3,0,.19.01.52.01.35,0,.7,0,1.04,0,.17-.02.34-.03.5-.06.67.14-.95.03-.3-.05.31-.13.61-.22.91-.31,1.03.38-.66-.1.27-.16.3-.83,1.18-.02.16-.19.24-.41.46-.63.66-.59.55.74-.47-.18.11-.16.1-.33.19-.49.28-.86.45.51-.18-.06.04-.36.14-.72.23-1.1.31-.71.14.92-.1.2-.02-.18.03-.38.03-.56.04-.38.02-.76-.01-1.13-.05,1.28.13-.24-.08-.57-.18-.4-.1-.78-.24-1.15-.39-.71-.27.78.35.08.03-.19-.09-.39-.19-.58-.28-.87-.45-1.69-.98-2.49-1.54-.19-.13-.38-.28-.57-.41.79.58.11.07-.03-.04-.38-.31-.76-.63-1.12-.95-.83-.73-1.61-1.51-2.38-2.3-1.51-1.55-2.91-3.22-4.25-4.93-.55-.7.46.61-.07-.1-.15-.2-.31-.4-.46-.61-.3-.4-.6-.81-.89-1.21-.61-.84-1.2-1.69-1.77-2.54-.95-1.4-1.85-2.82-2.73-4.25-.69-1.14-1.38-2.29-2.01-3.46-.18,1.44-.37,2.87-.55,4.31,4.44-5.44,8.88-10.9,13.32-16.34,1.22-1.5,1.47-3.55,0-5.03-1.26-1.26-3.8-1.51-5.03,0-4.43,5.45-8.88,10.9-13.32,16.35-1.04,1.29-1.38,2.78-.55,4.31,2.78,5.16,6.17,10.06,9.85,14.63,4.87,6.03,12.59,14.01,21.2,11.71,3.66-.98,6.62-3.96,7.25-7.72.63-3.78-.27-7.55-1.62-11.07-2.97-7.7-7.61-14.72-12.48-21.34-1.71-2.33-3.46-4.63-5.3-6.85-1.24-1.5-3.75-1.28-5.03,0-1.46,1.46-1.24,3.54,0,5.03Z"/>
    </g>
    <g>
      <rect class="st22" x="192.94" y="248.9" width="19.73" height="6.92" transform="translate(-103.89 148.67) rotate(-32.53)"/>
      <path d="M196.1,261.69l-4.58-7.19,17.99-11.48,4.59,7.19-17.99,11.48ZM193.74,255l2.85,4.47,15.27-9.74-2.85-4.47-15.28,9.74Z"/>
    </g>
    <path class="st18" d="M205.36,246.44l-8.19,5.29-3.52-13.61,3.24-4.02s3.72,4.68,5.48,7.47c1.76,2.8,3,4.86,3,4.86Z"/>
  </g>
  <g>
    <g>
      <rect class="st18" x="195.07" y="250" width="17.57" height="7.75" transform="translate(-100.3 137.7) rotate(-30.33)"/>
      <path d="M199.53,263.89c5.06-2.96,10.11-5.92,15.17-8.88,1.21-.71,1.64-2.32.93-3.53-1.3-2.23-2.61-4.46-3.91-6.69-.71-1.22-2.32-1.64-3.54-.93-5.06,2.96-10.11,5.92-15.17,8.88-1.21.71-1.63,2.32-.92,3.54,1.3,2.23,2.61,4.46,3.91,6.69,1.69,2.88,6.15.27,4.47-2.61-1.31-2.23-2.62-4.46-3.92-6.69-.31,1.17-.61,2.36-.93,3.53,5.06-2.96,10.11-5.92,15.17-8.88-1.18-.31-2.36-.61-3.54-.93,1.31,2.23,2.61,4.46,3.92,6.7.31-1.18.62-2.36.92-3.54-5.05,2.96-10.11,5.92-15.17,8.88-2.88,1.69-.27,6.15,2.6,4.46Z"/>
    </g>
    <polygon class="st51" points="199.42 257.9 209.84 251.86 209.45 251.18 199.04 257.23 199.42 257.9"/>
  </g>
  <path class="st51" d="M197.6,234.82s2.46,3.09,3.89,5.28c1.43,2.18,3.54,5.53,3.54,5.53l-7.78,4.65,5.28-5.03s-.85-1.53-2.51-4.35c-1.67-2.8-3.89-5.79-3.89-5.79l1.46-.29Z"/>
  <g>
    <g>
      <g>
        <path class="st0" d="M126.92,232.81s-42.75-6.34-42.48,7.68c.27,14.03,35.44,12.2,35.44,12.2l7.04-19.88Z"/>
        <path d="M127.87,229.38c-4.85-.72-9.74-1.16-14.63-1.41-4-.2-8.02-.23-12.02.04-3.85.25-7.82.72-11.47,2.03-3.13,1.12-6.49,2.98-7.91,6.17-1.74,3.91-.87,8.12,1.74,11.41,2.4,3.01,6.23,4.72,9.8,5.89,4.02,1.31,8.28,1.9,12.47,2.33,4.64.47,9.37.64,14.03.4,1.68-.09,2.87-1.04,3.43-2.6,2.34-6.63,4.7-13.26,7.04-19.88.65-1.82-.72-3.88-2.48-4.37-1.97-.54-3.73.66-4.37,2.48-2.34,6.62-4.69,13.25-7.04,19.88,1.15-.87,2.28-1.74,3.43-2.61-5.06.26-10.19.04-15.22-.53-.27-.03-1.86-.23-.74-.08-.48-.06-.96-.13-1.44-.21-1.04-.17-2.08-.36-3.11-.58-1.9-.4-3.78-.93-5.6-1.61-.21-.08-.42-.16-.62-.25.97.4.25.1.05.02-.39-.17-.77-.36-1.14-.55-.77-.4-1.5-.87-2.2-1.38.96.71-.07-.1-.29-.29-.27-.25-.51-.52-.75-.8-.45-.52.52.72.12.16-.11-.13-.21-.29-.3-.43-.18-.29-.75-1.59-.27-.4-.13-.33-.23-.67-.31-1.01-.04-.17-.07-.35-.11-.53.2,1.14.07.49.05.21-.02-.34-.02-.68,0-1.01.04-.65-.16.96-.05.34.03-.2.08-.39.14-.57.04-.14.08-.28.13-.42.2-.57-.39.87-.13.33.13-.26.28-.51.44-.74.34-.51-.59.73-.21.26.09-.12.2-.23.3-.34.24-.27.51-.5.78-.71-1,.81-.07.07.2-.11.29-.18.59-.35.88-.5.32-.17.64-.31.96-.46-1.17.52.25-.08.55-.18,1.65-.57,3.36-.94,5.08-1.21.22-.03.44-.07.66-.1.81-.12-.86.12-.04,0,.46-.06.93-.12,1.39-.16,1.03-.1,2.06-.18,3.09-.24,2.03-.12,4.05-.14,6.08-.13,3.72.04,7.44.25,11.15.58,1.77.16,3.55.35,5.32.56.28.04.56.07.83.11.12.02.24.03.35.04.64.08-1.1-.15-.51-.07.2.03.39.06.58.08,1.92.28,3.81-.44,4.38-2.48.46-1.69-.56-4.08-2.48-4.37Z"/>
      </g>
      <path class="st18" d="M107.2,234.97l.12,13.96s3.56.29,5.46.35c1.91.06,5.49-.09,5.49-.09l3.86-13.39s-5.92-.75-9.22-.79c-3.3-.06-5.71-.04-5.71-.04Z"/>
    </g>
    <g>
      <g>
        <rect class="st18" x="92.84" y="236.24" width="17.57" height="7.75" transform="translate(-141.84 333.45) rotate(-88.03)"/>
        <path d="M100.04,248.77c.19-5.86.39-11.71.6-17.57-.86.87-1.73,1.72-2.58,2.59,2.58.09,5.16.18,7.75.27-.86-.86-1.73-1.73-2.59-2.58-.2,5.85-.4,11.7-.6,17.56.86-.87,1.72-1.72,2.59-2.59-2.59-.09-5.17-.17-7.75-.27-3.34-.11-3.33,5.06,0,5.17,2.58.09,5.16.18,7.75.27,1.44.05,2.54-1.21,2.59-2.58.2-5.86.4-11.71.6-17.56.05-1.45-1.22-2.55-2.59-2.59-2.59-.09-5.17-.17-7.75-.27-1.45-.05-2.54,1.22-2.59,2.59-.2,5.86-.4,11.71-.59,17.57-.12,3.33,5.05,3.32,5.17,0Z"/>
      </g>
      <rect class="st51" x="94.75" y="239.53" width="12.04" height=".78" transform="translate(-142.09 333.4) rotate(-88.27)"/>
    </g>
    <path class="st51" d="M121.16,235.54s-3.92-.5-6.53-.58c-2.61-.09-6.57-.15-6.57-.15l.08,9.06,1.55-7.13s1.76-.07,5.02-.11c3.27-.04,6.97.31,6.97.31l-.51-1.4Z"/>
  </g>
  <g>
    <g>
      <path class="st22" d="M223.45,301.8c-.01,1.92-29.23,3.31-65.25,3.11-36.03-.2-65.23-1.93-65.21-3.86,0-1.92,29.22-3.31,65.25-3.11,36.02.2,65.22,1.93,65.21,3.86Z"/>
      <path d="M165.11,306.14c-2.27,0-4.58,0-6.92-.02-21.56-.12-63.1-1.12-65.97-4.03l-.35-.36-.09-.69c0-1.07.02-4.33,59.55-4.33,2.27,0,4.58,0,6.92.02,21.56.12,63.1,1.12,65.97,4.03l.35.36.09.69c0,1.07-.03,4.33-59.55,4.33ZM96.99,301.07c7.8,1.16,29.31,2.46,61.22,2.63,2.33.02,4.64.02,6.9.02,27.17,0,46.86-.9,54.33-1.94-7.8-1.16-29.32-2.45-61.21-2.63-2.33-.01-4.64-.02-6.9-.02-27.18,0-46.87.9-54.34,1.94Z"/>
    </g>
    <g>
      <path class="st45" d="M126.22,226.4s-12.74,68.28-4.36,71.26c8.38,2.98,16.24-10.36,16.24-10.36,0,0,6.68,2.09,18.22,2.36,11.54.27,20.84-2.27,20.84-2.27,0,0,8.52,14.93,17.82,11.91,9.3-3.02-5.06-72.71-5.06-72.71l-63.71-.2Z"/>
      <path d="M122.79,225.45c-2.14,11.49-3.91,23.08-5.36,34.68-1,8.06-1.88,16.19-1.97,24.31-.04,3.19.09,6.37.62,9.51.43,2.54,1.36,4.89,3.46,6.48,1.9,1.44,4.83,1.3,7.03.99,2.87-.42,5.45-2.2,7.62-3.99,2.75-2.27,5.17-5.26,6.98-8.33-1.34.54-2.68,1.08-4.02,1.63,1.6.5,3.28.81,4.92,1.11,4.7.83,9.47,1.25,14.24,1.38,7.21.19,14.8-.5,21.79-2.39-1.34-.55-2.68-1.09-4.02-1.64,1.51,2.64,3.44,5.11,5.5,7.32,3.44,3.69,8.23,7.07,13.5,6.74,3.76-.24,6.01-2,7.31-5.41.96-2.51,1.11-5.39,1.22-8.03.32-7.64-.55-15.37-1.48-22.95-1.03-8.5-2.36-16.96-3.82-25.39-.92-5.28-1.88-10.56-2.96-15.81-.32-1.54-1.93-2.6-3.43-2.61-11.9-.03-23.81-.07-35.72-.11-9.33-.03-18.66-.06-27.99-.09-4.58-.01-4.58,7.09,0,7.11,11.91.04,23.81.08,35.73.11,9.33.03,18.66.06,27.98.09-1.14-.88-2.28-1.74-3.42-2.62,2.29,11.11,4.21,22.31,5.78,33.55.08.51.14,1.03.22,1.55.02.18.14,1.08.01.09.03.25.07.51.1.77.15,1.12.29,2.23.43,3.35.25,2.12.5,4.24.7,6.36.39,3.87.68,7.76.79,11.65.04,1.65.04,3.29-.03,4.94-.03.69-.07,1.39-.13,2.08-.03.32-.06.65-.09.97-.13,1.11.13-.81-.04.25-.16,1.03-.39,2.06-.77,3.04.54-1.39.02-.11-.23.27-.36.54.72-.83.19-.27-.53.58.18-.11.26-.16-.3.2-.94.39.4-.13-.2.07-.41.13-.61.18-.18.04-.36.08-.54.11.5-.05.55-.06.14-.02-.53.04-1.06.02-1.58-.03.97.09.1,0-.1-.05-.35-.07-.69-.18-1.02-.29-.15-.05-.99-.39-.14-.03-.25-.11-.5-.23-.74-.35-.57-.29-1.12-.64-1.65-.99-.23-.16-.45-.32-.68-.49.7.52-.05-.05-.16-.13-.5-.42-.98-.86-1.45-1.31-.83-.8-1.6-1.66-2.35-2.55-.17-.2-1.15-1.46-.5-.6-.3-.4-.6-.81-.89-1.22-.57-.8-1.12-1.63-1.61-2.49-.8-1.38-2.49-2.04-4.01-1.63-1.95.53-3.95.89-5.93,1.21-.45.07-.9.14-1.35.21-.43.06-.48.07-.14.02-.25.04-.5.07-.76.1-1.23.16-2.46.27-3.7.37-2.66.22-5.34.29-8.02.24-2.54-.05-5.09-.22-7.61-.47-.51-.05-1.02-.11-1.52-.17-.24-.03-.48-.06-.72-.09.37.05.34.05-.08-.01-.91-.13-1.8-.27-2.7-.43-1.56-.28-3.13-.59-4.64-1.06-1.52-.47-3.22.29-4.02,1.63-.48.82-1.03,1.6-1.59,2.36-.12.17-.25.34-.37.51.61-.82.11-.16-.01,0-.31.39-.63.77-.97,1.14-.77.89-1.6,1.73-2.49,2.51-.21.19-.43.37-.64.54-.73.6.58-.43-.18.13-.45.32-.93.62-1.41.91-.24.13-.49.26-.73.39-.83.42.7-.26-.15.07-.58.23-1.19.38-1.81.49.96-.17.09-.04-.11-.03-.27.02-.54,0-.81-.02.93.06.07,0-.14-.04-.28-.06-.55-.15-.82-.24-.23-.07,1.06.55.43.14.06.04.81.75.29.18-.42-.46.64.92.21.27-.1-.15-.18-.31-.26-.47-.38-.76.34.88.09.21-.1-.24-.17-.48-.24-.74-.14-.49-.25-.98-.34-1.48-.05-.28-.1-.55-.14-.84-.09-.62.13.99.05.36-.03-.21-.05-.41-.07-.62-.34-3.17-.29-6.4-.19-9.58.29-8.32,1.26-16.63,2.34-24.89.04-.25.07-.5.1-.76.12-.89-.11.81,0-.08.07-.51.14-1.01.21-1.52.14-1.08.3-2.16.46-3.24.29-1.98.58-3.96.89-5.94.52-3.35,1.06-6.71,1.63-10.06.44-2.62.89-5.22,1.38-7.82.35-1.9-.5-3.83-2.48-4.37-1.75-.48-4.02.57-4.37,2.48Z"/>
    </g>
  </g>
  <g>
    <g>
      <polygon class="st40" points="185.33 234.68 158.92 234.53 158.7 234.53 132.3 234.38 120.64 271.94 158.49 272.16 158.71 272.16 196.55 272.36 185.33 234.68"/>
      <path d="M185.33,227.57c-10.62-.06-21.24-.12-31.86-.18-7.06-.04-14.12-.08-21.17-.12-3.24-.02-5.92,2.2-6.86,5.22-3.71,11.97-7.42,23.93-11.14,35.91-.18.55-.34,1.1-.52,1.65-1.38,4.46,2.35,8.98,6.85,9,12.32.07,24.64.14,36.96.21,11.78.07,23.56.13,35.34.2,1.2,0,2.41.02,3.61.02,4.55.02,8.17-4.57,6.85-8.99-3.58-12.01-7.16-24.02-10.73-36.03-.16-.55-.33-1.11-.49-1.66-1.11-3.71-4.95-6.01-8.74-4.96-3.68,1.02-6.07,5.03-4.97,8.75,3.58,12.01,7.16,24.01,10.73,36.02.17.55.33,1.11.5,1.66,2.29-3,4.57-6,6.86-9-12.32-.07-24.65-.14-36.96-.2-11.78-.07-23.56-.14-35.33-.21-1.21,0-2.41-.01-3.62-.02,2.29,3,4.57,6,6.86,9,3.72-11.97,7.43-23.94,11.14-35.91.17-.55.34-1.1.51-1.66-2.29,1.74-4.57,3.48-6.86,5.22,10.62.06,21.24.12,31.86.17,7.05.04,14.11.09,21.17.13,3.87.02,7.11-3.26,7.11-7.11s-3.23-7.08-7.11-7.11Z"/>
    </g>
    <polygon class="st18" points="185.33 234.68 158.92 234.53 158.7 234.53 132.3 234.38 120.64 271.94 158.49 272.16 158.71 272.16 196.55 272.36 185.33 234.68"/>
  </g>
  <g>
    <path class="st0" d="M176.37,226.31c-.06,9.8-8.05,17.7-17.84,17.65-9.8-.06-17.69-8.05-17.64-17.84.06-9.8,8.04-17.7,17.84-17.64,9.8.05,17.69,8.04,17.64,17.83Z"/>
    <path d="M173.13,226.31c-.08,5.17-2.8,9.84-7.27,12.49-4.48,2.64-10.15,2.5-14.65-.11-2.14-1.25-3.89-3.08-5.17-5.24-.74-1.26-.97-1.84-1.39-3.31-.47-1.61-.53-2.34-.54-4.02-.02-5.13,2.86-9.87,7.27-12.48,4.47-2.64,10.15-2.51,14.65.1,2.14,1.25,3.89,3.08,5.17,5.25.74,1.25.96,1.83,1.39,3.3.46,1.61.53,2.35.54,4.02.02,4.17,6.48,4.17,6.46,0-.03-6.26-2.8-12.36-7.7-16.31-5.16-4.15-11.79-5.62-18.24-4.16-5.97,1.36-11.23,5.71-13.88,11.2-2.89,5.99-2.7,12.86.21,18.78,4.27,8.65,14.4,12.87,23.62,10.77,9.32-2.12,15.85-10.88,16-20.28.07-4.16-6.4-4.16-6.46,0Z"/>
  </g>
  <g>
    <g>
      <path class="st40" d="M183.99,260.41c-2.11-8.8.65-23.43.65-23.43l-5.78.57s-.83,19.8-20.11,19.69h-.31c-19.28-.11-19.89-19.92-19.89-19.92l-5.77-.63s2.59,14.66.39,23.43c-2.21,8.78-11.34,11.82-11.34,11.82l36.44.21h.47l36.44.2s-9.1-3.15-11.2-11.94Z"/>
      <path d="M190.22,258.7c-.12-.52-.22-1.04-.31-1.58-.31-1.74.16,1.51-.04-.28-.13-1.29-.18-2.59-.21-3.89-.03-2.46.1-4.93.31-7.38.09-1.03.2-2.07.32-3.1.05-.46.11-.91.17-1.36-.34,2.54-.09.66,0,.07.12-.82.25-1.65.41-2.47.33-1.76.28-3.39-.66-4.98-1.06-1.82-3.38-3.42-5.58-3.2-1.92.19-3.85.38-5.78.57-3.63.36-6.29,2.67-6.46,6.46-.02.43-.08.86-.13,1.28.4-3.08.13-.96-.01-.21-.12.64-.27,1.28-.44,1.9-.18.68-.39,1.36-.63,2.02-.13.36-.27.71-.41,1.07,1-2.47.28-.66,0-.09-.37.76-.79,1.49-1.24,2.2-.23.38-.49.73-.75,1.08,1.51-2.05.29-.38-.14.09-.62.7-1.32,1.33-2.06,1.92,1.92-1.53.41-.34-.1-.01-.5.32-1.03.61-1.56.88-.24.12-.48.23-.72.34,2-.89,1-.43.53-.25-.53.2-1.08.37-1.63.51-.58.16-1.17.28-1.76.38-.48.09-1.7.22.46-.04-.44.05-.88.09-1.32.12-1.03.06-2.07.05-3.11.02-.67-.02-1.34-.09-2.01-.17,2.43.29-.12-.07-.72-.21-.57-.14-1.12-.31-1.67-.49-.27-.09-.53-.2-.79-.29,2.02.79,1.01.43.55.22-1.01-.47-1.95-1.04-2.85-1.7-.86-.62,1.37,1.09.55.41-.25-.2-.48-.41-.72-.62-.4-.37-.77-.76-1.14-1.17-.15-.17-.29-.34-.44-.52-.9-1.07.92,1.22.33.42-.3-.4-.58-.84-.85-1.27-.51-.83-.95-1.7-1.36-2.58-.39-.89.71,1.71.35.81-.1-.24-.19-.48-.28-.72-.17-.46-.33-.92-.46-1.4-.41-1.32-.71-2.68-.9-4.06.39,2.68.08.89.05-.09-.13-3.82-2.87-6.06-6.46-6.46-1.93-.21-3.85-.43-5.77-.63-1.61-.18-3.47.8-4.57,1.89-1.74,1.74-2.07,3.95-1.66,6.29.11.62.2,1.25.29,1.88.08.56.24,1.79-.09-.69.05.4.1.81.16,1.21.11.96.21,1.91.3,2.87.21,2.15.33,4.31.37,6.47.02,1.2,0,2.4-.04,3.6-.02.59-.07,1.17-.12,1.77-.04.53-.32,2.66,0,.34-.14.97-.33,1.95-.59,2.9-.13.5-.92,2.49-.05.45-.22.51-.48,1.01-.76,1.5-.26.46-.56.91-.87,1.34-.4.53-.24.34.44-.57-.19.24-.39.46-.59.69-.63.71-1.34,1.36-2.08,1.96-.83.68,1.49-1.1.27-.22-.33.24-.67.46-1.01.67-.58.36-1.18.69-1.78,1-.24.12-.48.23-.72.34-1.01.46,1.81-.75.88-.38-.15.06-.31.13-.46.18-2.75.92-4.74,3.23-4.74,6.23,0,3.54,2.94,6.44,6.46,6.47,12.03.06,24.07.14,36.11.2,11.79.07,23.59.13,35.39.2.62,0,1.24,0,1.86.01,2.87,0,5.47-1.98,6.23-4.75.98-3.57-1.2-6.78-4.51-7.95-.1-.03-.2-.07-.3-.12-.84-.33,1.83.79,1.09.46-.21-.09-.42-.18-.63-.29-1.13-.54-2.2-1.2-3.22-1.93-.83-.6,1.46,1.18.27.21-.29-.23-.56-.48-.83-.73-.65-.6-1.25-1.26-1.81-1.95,1.37,1.69.37.46.1.04-.3-.46-.56-.93-.81-1.41-.79-1.53.38,1.05-.03-.01-.21-.56-.37-1.14-.52-1.71-.86-3.42-4.61-5.43-7.95-4.51-3.45.95-5.37,4.54-4.51,7.94,1.95,7.72,8.3,13.87,15.72,16.46.57-4.23,1.14-8.46,1.71-12.69-12.04-.07-24.07-.14-36.1-.21-11.8-.06-23.6-.13-35.4-.2-.62,0-1.24,0-1.86-.01.57,4.23,1.15,8.46,1.72,12.69,7.99-2.7,14.62-9.5,16.18-17.9,1.54-8.28.73-17.06-.72-25.3-2.08,2.72-4.15,5.45-6.23,8.18,1.93.21,3.85.42,5.77.63-2.16-2.15-4.31-4.3-6.46-6.46.21,6.36,2.64,12.52,6.51,17.5,3.15,4.07,7.93,6.89,12.91,8.07,5.55,1.33,12.11,1.22,17.43-.96,3.49-1.43,6.65-3.39,9.16-6.24,2.35-2.68,3.9-5.55,5.22-8.82,1.17-2.9,1.86-6.2,2-9.32-2.15,2.15-4.3,4.31-6.46,6.46,1.93-.19,3.86-.38,5.78-.57-2.08-2.72-4.15-5.46-6.23-8.17-1.62,8.65-2.65,18.2-.65,26.86.79,3.44,4.66,5.42,7.95,4.51,3.5-.96,5.31-4.51,4.51-7.94Z"/>
    </g>
    <path class="st45" d="M183.99,260.41c-2.11-8.8.65-23.43.65-23.43l-5.78.57s-.83,19.8-20.11,19.69h-.31c-19.28-.11-19.89-19.92-19.89-19.92l-5.77-.63s2.59,14.66.39,23.43c-2.21,8.78-11.34,11.82-11.34,11.82l36.44.21h.47l36.44.2s-9.1-3.15-11.2-11.94Z"/>
    <path class="st54" d="M158.45,259.17h.18c.05,0,.11,0,.16,0,20.42.12,22.36-19.7,22.51-21.86l-2.4.24s-.83,19.8-20.12,19.69h-.3c-19.29-.11-19.9-19.92-19.9-19.92l-2.4-.26c.13,2.16,1.84,21.99,22.27,22.1Z"/>
  </g>
  <path class="st48" d="M122.75,279.11l-.92-7.17s22.67-1.84,37.58-1.76c14.91.09,37.11,2.18,37.11,2.18l-2.21,7.37s-9.55,3.38-36.01,3.24c-26.45-.16-35.55-3.86-35.55-3.86Z"/>
  <path class="st53" d="M134.9,236.92l-2.12-.22s2.59,14.66.39,23.43c-2.21,8.78-11.34,11.82-11.34,11.82l.92,7.17-.18,7.75s-.52,7.75,1.55,7.96c2.07.2,6.13-3.39,6.13-3.39,0,0-4.48,1.54-5.38,1.34-.9-.2-.83-5.9-.83-5.9l.34-7.49-.43-6.57,2.33-1.18c2.94-1.62,7.49-4.99,8.97-10.9,2.1-8.35-.04-21.91-.35-23.79Z"/>
  <path class="st54" d="M182.45,237.19l2.11-.21s-2.76,14.63-.65,23.43c2.12,8.8,12.66,12,12.66,12l-2.24,7.53.3,8.14s.23,8.14-1.84,8.33c-2.07.18-6.57-3.31-6.57-3.31,0,0,5.01,1.53,5.92,1.34.91-.19.61-7.18.61-7.18l-.26-7.49,1.73-6.05-3.54-1.73c-2.92-1.66-7.43-5.07-8.85-11-2.01-8.38.29-21.91.63-23.79Z"/>
  <g>
    <path class="st40" d="M122.96,269.1s16.81,2.89,35.2,2.98c18.4.11,36.04-2.64,36.04-2.64l2.36,4.29s-20.12,2.64-38.04,2.55c-17.92-.1-36.7-3-36.7-3l1.13-4.19Z"/>
    <path d="M121.42,274.7c24.1,4.13,48.62,3.93,72.78.58.52-.08,1.03-.15,1.55-.23-2.19-.89-4.38-1.78-6.57-2.67.79,1.43,1.58,2.86,2.36,4.29,1.67-2.92,3.35-5.84,5.02-8.75-9.86,1.29-19.82,2.07-29.77,2.42-13.86.48-27.74-.56-41.48-2.38-.99-.14,1.63.21.69.09-.25-.04-.5-.06-.76-.1-.34-.05-.68-.09-1.02-.14-.29-.04-.57-.09-.86-.13,1.36,2.38,2.71,4.77,4.06,7.15.37-1.4.76-2.8,1.14-4.19.83-3.05-1-6.31-4.06-7.15-3.04-.84-6.33,1-7.16,4.06-.38,1.4-.76,2.79-1.13,4.19-.75,2.79.91,6.67,4.06,7.15,10.72,1.65,21.59,2.68,32.43,3.08,13.45.5,26.96-.48,40.32-1.99,1.18-.13,2.36-.27,3.53-.42,2.11-.28,3.88-.94,5.02-2.88,1.07-1.83,1.01-4.04,0-5.87-.79-1.43-1.58-2.86-2.36-4.29-1.36-2.46-4-3.07-6.57-2.67-.21.04-.42.06-.63.09-.25.04-.51.07-.76.12-.16.02-.32.04-.48.06-1.21.17,1.54-.2.59-.07-2.39.32-4.79.59-7.19.85-7.46.78-14.96,1.26-22.46,1.38-7.9.11-15.79-.31-23.65-1.06-2.93-.28-5.86-.61-8.78-.99-.44-.06-1.57-.21.44.06-.26-.03-.52-.07-.77-.1-.46-.06-.92-.13-1.37-.2-.72-.1-1.44-.21-2.16-.33-.31-.05-.61-.09-.91-.14-3.12-.54-6.25.78-7.16,4.06-.78,2.82.93,6.62,4.06,7.16Z"/>
  </g>
  <path class="st37" d="M122.96,269.1s16.81,2.89,35.2,2.98c18.4.11,36.04-2.64,36.04-2.64l2.36,4.29s-20.12,2.64-38.04,2.55c-17.92-.1-36.7-3-36.7-3l1.13-4.19Z"/>
  <path class="st42" d="M122.96,270.25s16.8,2.89,35.2,3c18.39.11,36.04-2.64,36.04-2.64l1.76,3.2c.4-.05.61-.07.61-.07l-2.36-4.29s-17.64,2.75-36.04,2.64c-18.4-.1-35.2-2.98-35.2-2.98l-1.13,4.19s.11.02.3.05l.83-3.08Z"/>
  <path class="st20" d="M158.54,274.86c-16.47-.09-33.66-2.55-36.34-2.94l-.37,1.37s18.78,2.89,36.7,3c17.92.1,38.04-2.55,38.04-2.55l-.73-1.33c-3.78.47-21.41,2.54-37.3,2.45Z"/>
  <g>
    <g>
      <polygon class="st48" points="138.9 280.6 132.89 280.2 133.91 264.88 139.93 265.27 138.9 280.6"/>
      <path d="M138.9,278.66c-2.01-.13-4.01-.26-6.02-.4.65.65,1.29,1.29,1.94,1.94.34-5.11.68-10.22,1.02-15.32-.65.64-1.29,1.29-1.94,1.93,2.01.13,4.01.27,6.02.4-.64-.65-1.29-1.3-1.94-1.94-.34,5.11-.68,10.22-1.03,15.33-.16,2.49,3.71,2.48,3.88,0,.34-5.11.68-10.22,1.02-15.33.08-1.1-.94-1.87-1.94-1.94-2.01-.13-4.01-.27-6.02-.4-1.11-.07-1.87.94-1.94,1.94-.34,5.1-.68,10.21-1.02,15.32-.08,1.11.94,1.88,1.94,1.94,2.01.13,4.01.27,6.02.4,2.5.17,2.48-3.71,0-3.88Z"/>
    </g>
    <rect class="st53" x="129.87" y="272.4" width="11.5" height=".58" transform="translate(-144.34 392.59) rotate(-86.74)"/>
    <polygon class="st27" points="137.07 278.56 136.49 278.52 137.26 267.04 137.84 267.08 137.07 278.56"/>
  </g>
  <g>
    <g>
      <rect class="st48" x="177.44" y="265.31" width="6.03" height="15.36" transform="translate(-14.84 10.41) rotate(-3.18)"/>
      <path d="M177.86,282.76c2-.11,4.01-.22,6.02-.33,1.01-.05,2-.84,1.94-1.94-.29-5.11-.57-10.22-.85-15.33-.06-1.01-.84-2-1.94-1.93-2.01.1-4.02.22-6.02.34-1.01.05-2,.84-1.95,1.93.29,5.11.57,10.22.85,15.33.14,2.49,4.02,2.5,3.88,0-.29-5.11-.57-10.22-.85-15.33-.65.65-1.3,1.29-1.94,1.93,2-.1,4.01-.22,6.02-.33-.65-.65-1.29-1.3-1.94-1.94.28,5.12.57,10.22.84,15.33.65-.64,1.3-1.29,1.94-1.93-2.01.1-4.02.22-6.02.33-2.49.14-2.5,4.02,0,3.88Z"/>
    </g>
    <polygon class="st53" points="181.26 278.71 181.84 278.69 181.21 267.2 180.63 267.23 181.26 278.71"/>
    <polygon class="st27" points="179.71 278.79 180.29 278.77 179.66 267.28 179.08 267.32 179.71 278.79"/>
  </g>
  <g>
    <g>
      <g>
        <path class="st40" d="M165.29,276.6c0,1.19-.89,2.16-1.98,2.16h-9.6c-1.09-.01-1.99-.98-1.99-2.17v-5.76c0-1.2.9-2.16,1.99-2.16h9.6c1.09,0,1.98.97,1.98,2.17v5.76Z"/>
        <path d="M159.48,276.6c.16-2.08,1.74-3.65,3.79-3.65h-2.76c-1.94,0-3.89,0-5.83,0-1.56,0-1.03-.41,1.06.55,1.12.52,1.81,2.43,1.81,2.98v-5.63c0,2.08-1.87,3.65-3.79,3.65h2.77c1.94,0,3.89,0,5.83,0,1.56,0,1.04.41-1.05-.55-1.12-.51-1.81-2.42-1.81-2.97v5.63c0,3.17,2.64,5.82,5.81,5.82s5.81-2.65,5.82-5.82v-4.76c0-1.11-.06-2.12-.31-3.23-.81-3.55-4.15-5.45-7.49-5.74-3.05-.27-6.23,0-9.29-.01-4.53,0-8.11,3.56-8.11,8.11v5.15c0,4.49,3.17,8.45,7.88,8.46h9.21c4.68,0,7.77-3.48,8.11-7.97.23-3.16-2.83-5.81-5.82-5.81-3.35,0-5.58,2.65-5.81,5.81Z"/>
      </g>
      <path class="st19" d="M165.29,276.6c0,1.19-.89,2.16-1.98,2.16h-9.6c-1.09-.01-1.99-.98-1.99-2.17v-5.76c0-1.2.9-2.16,1.99-2.16h9.6c1.09,0,1.98.97,1.98,2.17v5.76Z"/>
      <path class="st22" d="M163.31,275.58v-3.74c0-.78-.63-1.4-1.41-1.4h-6.78c-.78,0-1.41.62-1.41,1.4v.71h3.18c.65,0,1.17.53,1.17,1.17s-.53,1.17-1.17,1.17h-3.18s0,.7,0,.7c0,.78.62,1.4,1.4,1.4h6.79c.78,0,1.41-.62,1.41-1.4Z"/>
      <g>
        <path class="st25" d="M162.95,270.91c.22.25.36.58.36.94v3.74c0,.78-.63,1.4-1.41,1.4h-6.79c-.14,0-.28-.03-.42-.06.26.28.63.47,1.05.47h6.78c.78,0,1.41-.62,1.41-1.4v-3.75c0-.63-.41-1.16-.98-1.34Z"/>
        <path class="st25" d="M157.53,272.95c.1,0,.2,0,.29.03-.21-.27-.55-.44-.92-.44h-2.55v.41h3.18Z"/>
        <path class="st25" d="M152.36,277v-5.77c0-1.19.9-2.16,1.99-2.16h9.59c.24.01.47.06.68.14-.35-.33-.81-.54-1.31-.54h-9.6c-1.1,0-1.99.96-1.99,2.15v5.76c0,.93.54,1.72,1.3,2.03-.41-.39-.67-.97-.67-1.62Z"/>
      </g>
    </g>
    <g>
      <path class="st28" d="M161.71,269.81h-6.79c-.77,0-1.4.63-1.41,1.4v.7h.2v-.08c0-.77.63-1.4,1.41-1.4h6.78c.51,0,.95.27,1.19.68-.05-.73-.66-1.3-1.39-1.3Z"/>
      <path class="st28" d="M153.72,275.69s0-.08,0-.11v-.7h3.18c.65,0,1.17-.51,1.17-1.17,0-.24-.07-.47-.2-.65,0,0,0,.02,0,.04,0,.64-.53,1.17-1.17,1.17h-3.18s0,.7,0,.7c0,.27.08.51.21.73Z"/>
      <path class="st28" d="M165.29,276.6v-5.76c0-.37-.08-.72-.23-1.03.02.13.04.27.04.4v5.76c0,1.2-.89,2.16-1.99,2.16h-9.59c-.76,0-1.41-.47-1.75-1.14.17,1,.98,1.76,1.95,1.76h9.6c1.09.01,1.98-.96,1.98-2.15Z"/>
    </g>
  </g>
  <g>
    <g>
      <g>
        <polygon class="st40" points="116.96 295.52 118.15 298.78 119.15 298.77 119.2 298.77 120.19 298.75 121.28 295.46 120 294.35 119.8 281.4 118.01 281.43 118.21 294.37 116.96 295.52"/>
        <path d="M111.98,296.9c.39,1.09.79,2.17,1.18,3.26.79,2.16,2.55,3.83,4.99,3.79.68-.01,1.36-.02,2.04-.04,2.39-.04,4.25-1.56,4.98-3.79.37-1.1.72-2.2,1.09-3.3.54-1.63-.01-3.88-1.33-5.03-.42-.38-.85-.74-1.28-1.12.5,1.22,1.01,2.43,1.52,3.65-.07-4.32-.14-8.63-.2-12.94-.05-2.78-2.32-5.21-5.17-5.17-.6,0-1.19.01-1.79.02-2.79.04-5.21,2.31-5.17,5.17.07,4.31.13,8.62.2,12.94.51-1.22,1.01-2.44,1.51-3.66-.41.39-.83.77-1.24,1.15-2.06,1.92-1.93,5.38,0,7.31,2.05,2.05,5.25,1.92,7.31,0,.73-.68,1.53-1.32,2.04-2.2.57-.97.72-2.02.7-3.11-.02-1.4-.04-2.8-.06-4.21-.05-2.75-.09-5.49-.13-8.23-1.73,1.72-3.45,3.44-5.17,5.16.59,0,1.19-.01,1.79-.02-1.73-1.73-3.45-3.45-5.17-5.17.04,2.66.08,5.32.12,7.99.02,1.45.04,2.89.07,4.34,0,.68,0,1.31.19,1.99.43,1.56,1.48,2.41,2.61,3.4-.44-1.68-.89-3.36-1.33-5.04-.36,1.1-.72,2.2-1.08,3.29,1.67-1.26,3.33-2.53,4.98-3.8-.68.01-1.36.02-2.04.04,1.66,1.26,3.32,2.53,4.98,3.79-.4-1.09-.79-2.16-1.18-3.26-.96-2.64-3.48-4.4-6.36-3.61-2.55.7-4.57,3.71-3.61,6.36Z"/>
      </g>
      <polygon class="st49" points="116.67 295.48 117.79 298.77 118.78 298.77 118.84 298.77 119.83 298.78 120.98 295.5 119.72 294.36 119.79 281.42 118 281.42 117.94 294.36 116.67 295.48"/>
      <g>
        <polygon class="st18" points="119.35 298.29 118.35 298.28 118.3 298.28 117.62 298.28 117.78 298.77 118.78 298.77 118.84 298.77 119.83 298.78 120.98 295.5 120.49 295.06 119.35 298.29"/>
        <polygon class="st18" points="119.24 293.88 119.72 294.32 119.79 281.42 119.3 281.42 119.24 293.88"/>
      </g>
    </g>
    <g>
      <g>
        <g>
          <path class="st40" d="M116.11,264.73c-.02-1.12.87-2.03,1.99-2.05l1.06-.02c1.11-.02,2.02.87,2.04,1.98l.1,6.72c.01,1.11-.87,2.03-1.98,2.04l-1.07.02c-1.11.02-2.03-.87-2.04-1.99l-.1-6.71Z"/>
          <path d="M121.28,264.73c-.07,1.07-.58,2.07-1.49,2.65-.88.56-2.35.47-1.48.46.21,0,.43,0,.64,0h.21c-.85-.02-1.59-.33-2.22-.95-.48-.4-.92-3.16-.9-1.93,0,.4,0,.81.02,1.21.03,1.73.06,3.47.08,5.2-.02-1.06.61-2.09,1.5-2.66.88-.56,2.34-.48,1.48-.46-.21,0-.43,0-.64.02h-.21c.84,0,1.59.32,2.22.94.48.4.92,3.16.9,1.94,0-.4-.02-.81-.02-1.21-.02-1.74-.05-3.47-.08-5.2-.04-2.82-2.32-5.17-5.17-5.17s-5.21,2.34-5.17,5.17c.03,2.24.06,4.47.1,6.71.07,4.2,3.54,7.21,7.63,7.15,4.36-.07,7.51-2.81,7.8-7.23.14-2.21-.07-4.5-.1-6.72-.06-4.2-3.55-7.2-7.63-7.14-4.36.06-7.51,2.81-7.8,7.22-.19,2.82,2.49,5.17,5.17,5.17,2.96,0,4.99-2.37,5.17-5.17Z"/>
        </g>
        <g>
          <rect class="st44" x="118.19" y="274.11" width="1.47" height="3.74" transform="translate(-157.62 393.6) rotate(-89.73)"/>
          <path class="st47" d="M117.06,276.54c1.24,0,2.49,0,3.74.01-.44-.43-.87-.86-1.3-1.29,0,.5,0,.98,0,1.47.43-.43.86-.86,1.29-1.29-1.25,0-2.49-.01-3.74-.02.43.43.86.86,1.29,1.29,0-.49,0-.98,0-1.47,0-1.66-2.57-1.66-2.58,0,0,.49,0,.98,0,1.47,0,.7.59,1.29,1.29,1.29,1.24.01,2.49.02,3.74.02.7,0,1.29-.6,1.29-1.29,0-.49,0-.98,0-1.47,0-.71-.59-1.29-1.29-1.29-1.25-.01-2.5-.02-3.74-.02-1.67,0-1.67,2.59,0,2.59Z"/>
        </g>
        <g>
          <path class="st40" d="M116.51,277.03c0-.41.31-.74.72-.74l3.21-.05c.41-.02.74.31.74.72h0c0,.4-.32.74-.72.74l-3.2.05c-.41.01-.74-.32-.74-.72h0Z"/>
          <path d="M121.49,278.4c-.46,3.13-6.2,3.08-3.83,3.05.39,0,.78,0,1.17-.02.34,0,.68-.01,1.03-.01,2.56-.04-3.08.21-3.67-3.09v-2.75c.46-3.12,6.2-3.08,3.83-3.04-.39,0-.78.01-1.17.02-.34,0-.69,0-1.03,0-2.57.04,3.08-.21,3.67,3.08-.5-2.78-3.84-4.31-6.36-3.61-2.9.8-4.1,3.59-3.61,6.36.46,2.62,3.16,4.56,5.74,4.53.53,0,1.06-.02,1.59-.02.53-.01,1.06-.02,1.59-.03,3.21-.04,5.91-2.66,5.91-5.91s-2.72-5.95-5.92-5.89c-.47,0-.95.02-1.42.02-.58,0-1.16.02-1.73.03-2.56.03-5.37,1.84-5.76,4.54-.21,1.44-.25,2.67.52,3.98.68,1.15,1.8,2.02,3.09,2.37,1.34.36,2.79.18,3.99-.52,1.04-.61,2.19-1.84,2.38-3.09Z"/>
        </g>
      </g>
      <g>
        <path class="st28" d="M116.43,264.67c0-1.11.92-2.01,2.03-2.01h1.06c1.11.01,2.01.92,2.01,2.03l-.03,6.71c0,1.12-.91,2.02-2.02,2.01h-1.06c-1.11-.01-2.01-.92-2.01-2.03l.03-6.71Z"/>
        <path class="st41" d="M117.07,271.39l.03-6.72c0-1.11.91-2.01,2.03-2h-.67c-1.11,0-2.02.89-2.03,2l-.03,6.71c0,1.11.89,2.02,2.01,2.03h.65c-1.11-.02-1.99-.92-1.99-2.03Z"/>
        <rect class="st44" x="118.19" y="274.11" width="1.47" height="3.74" transform="translate(-157.62 393.6) rotate(-89.73)"/>
        <path class="st28" d="M116.58,276.98c0-.4.33-.73.74-.73l3.2.02c.41,0,.74.33.74.74h0c-.01.4-.34.73-.74.73l-3.21-.02c-.41,0-.73-.33-.73-.74h0Z"/>
        <path class="st41" d="M117.18,276.98c0-.4.33-.73.74-.73l2.61.02h-.01l-3.2-.02c-.41,0-.74.32-.74.73,0,.41.33.74.73.74h.6c-.4,0-.73-.33-.73-.74Z"/>
        <path class="st32" d="M121.03,264.55l-.03,6.71c0,1.12-.91,2.02-2.02,2.01h-1.07c-.1,0-.21-.02-.31-.04.25.12.52.18.82.18h1.06c1.12.01,2.02-.89,2.02-2l.03-6.71c0-1-.73-1.84-1.69-2,.7.32,1.19,1.02,1.19,1.85Z"/>
        <path class="st18" d="M120.76,276.86c0,.4-.33.73-.74.73l-3.14-.02c.12.09.27.14.44.14l3.2.02c.4,0,.74-.32.74-.73,0-.4-.33-.73-.73-.73h-.07c.18.13.29.35.29.59Z"/>
      </g>
    </g>
    <rect class="st22" x="118.27" y="272.59" width="1.39" height="6.06" transform="translate(-157.31 393.08) rotate(-89.69)"/>
    <path class="st22" d="M118.43,263.84c0-.28.23-.5.51-.5h0c.27,0,.5.23.5.5l-.02,7.29c0,.27-.23.5-.51.5h0c-.28,0-.5-.22-.5-.5l.03-7.28Z"/>
  </g>
  <g>
    <g>
      <path class="st0" d="M200.96,272.96c-.59-.91-1.09-1.88-1.55-2.83-1.84-3.88-3-8.1-4-12.26-1.04-4.32-1.84-8.7-2.51-13.09-.59-3.82-1.1-7.67-1.43-11.52-.07-.83-1.37-.83-1.29,0,.46,5.31,1.22,10.62,2.14,15.87.77,4.47,1.71,8.93,2.96,13.29,1.02,3.61,2.26,7.27,4.18,10.53h1.51Z"/>
      <path d="M204.02,271.17c-3.87-6.18-5.29-13.94-6.62-21-.68-3.61-1.26-7.24-1.73-10.88-.25-2-.47-4.01-.65-6.02-.23-2.57-2.57-4.88-5.31-4.04-2.37.72-3.22,2.71-3,5.03.18,1.99.42,3.98.68,5.97.54,4.13,1.18,8.24,1.95,12.34,1.4,7.54,3.17,15.48,7.04,22.19.62,1.08,1.83,1.76,3.07,1.76h1.51c4.58,0,4.58-7.11,0-7.11h-1.51c1.02.59,2.04,1.17,3.07,1.76-3.23-5.61-4.66-12.23-5.94-18.51-.67-3.28-1.22-6.59-1.72-9.9-.23-1.5-.43-3.01-.61-4.51-.21-1.66-.66-3.56-.5-5.22-.16.59-.33,1.2-.49,1.79.04-.06.08-.12.1-.18-.42.42-.85.85-1.27,1.28h-2.62c-.43-.43-.85-.85-1.27-1.28-.23-1.03-.3-1.15-.19-.36.04.51.1,1.01.15,1.51.09.84.19,1.67.29,2.5.24,1.99.52,3.97.81,5.95.53,3.6,1.13,7.18,1.87,10.73,1.39,6.74,3.09,13.89,6.77,19.79,1.02,1.64,3.15,2.27,4.86,1.27,1.63-.96,2.3-3.21,1.28-4.86Z"/>
    </g>
    <path class="st24" d="M200.96,272.96c-.59-.91-1.09-1.88-1.55-2.83-1.84-3.88-3-8.1-4-12.26-1.04-4.32-1.84-8.7-2.51-13.09-.59-3.82-1.1-7.67-1.43-11.52-.07-.83-1.37-.83-1.29,0,.46,5.31,1.22,10.62,2.14,15.87.77,4.47,1.71,8.93,2.96,13.29,1.02,3.61,2.26,7.27,4.18,10.53h1.51Z"/>
    <path class="st23" d="M199.41,270.13c-1.84-3.88-3-8.1-4-12.26-1.04-4.32-1.84-8.7-2.51-13.09-.59-3.82-1.1-7.67-1.43-11.52-.04-.48-.5-.69-.87-.6.27.06.51.25.54.6.34,3.85.85,7.7,1.43,11.52.68,4.39,1.47,8.76,2.51,13.09,1,4.16,2.16,8.38,4.01,12.26.45.95.95,1.92,1.54,2.83h.32c-.59-.91-1.09-1.88-1.55-2.83Z"/>
    <path class="st30" d="M192.69,249.14c-.91-5.25-1.67-10.56-2.13-15.87-.03-.34.16-.53.4-.6-.38-.1-.83.09-.79.6.46,5.31,1.22,10.62,2.14,15.87.77,4.47,1.71,8.93,2.96,13.29,1.02,3.61,2.26,7.27,4.18,10.53h.38c-1.91-3.26-3.15-6.92-4.18-10.53-1.24-4.37-2.18-8.82-2.96-13.29Z"/>
  </g>
  <g>
    <g>
      <path class="st0" d="M178,234.28c.47,5.31,1.23,10.62,2.14,15.88.78,4.47,1.71,8.92,2.96,13.29,1.08,3.78,2.38,7.62,4.44,10.98,1.88,3.07,5.1,5.79,8.95,5.19,2.66-.41,4.52-3.18,5.15-5.61.2-.81-1.04-1.15-1.25-.34-.69,2.71-2.85,5.21-5.88,4.66-3.71-.67-5.77-4.06-7.26-7.18-1.84-3.88-3-8.1-4-12.26-1.04-4.32-1.84-8.7-2.51-13.09-.59-3.82-1.1-7.67-1.43-11.52-.08-.82-1.37-.83-1.3,0h0Z"/>
      <path d="M174.45,234.28c.76,8.46,2.04,16.94,3.96,25.23.89,3.85,1.96,7.7,3.45,11.37,1.42,3.49,3.18,7.04,6.14,9.47,3.17,2.61,7.4,3.78,11.28,2.06,3.2-1.42,5.66-5.21,5.92-8.67.19-2.51-2.92-4.86-5.31-3.96-1.08.41-2.07.97-2.58,2.08-.24.53-.38.99-.56,1.52.18-.53-.32.59-.4.73-.53.88.39-.38-.3.35-.67.72.47-.24-.34.27-.79.5.53-.12-.38.13.77-.21-.54-.06.11.03-1.4-.19-1.88-.64-2.89-1.76-.75-.81.33.52-.33-.39-.21-.29-.4-.59-.59-.89-.43-.71-.81-1.44-1.18-2.19-.91-1.83-1.56-3.76-2.18-5.71-1.35-4.33-2.32-8.8-3.15-13.26-.79-4.27-1.44-8.58-1.93-12.9-.31-2.65-.02-5.46-2.49-7.13-1.08-.73-3.15-.81-4.21,0-1.35,1.02-1.89,1.92-2.05,3.62-.18,1.93,1.75,3.55,3.55,3.55,2.08,0,3.38-1.63,3.56-3.55,0-.09.02-.17.02-.25-.16.6-.33,1.2-.49,1.79.04-.06.07-.12.1-.18-.42.42-.85.85-1.28,1.28h-2.62c-.43-.43-.85-.85-1.27-1.28-.24-1.03-.3-1.15-.2-.36.03.34.07.67.1,1.01.07.67.14,1.34.22,2.01.19,1.65.41,3.3.64,4.95.4,2.96.87,5.91,1.41,8.85,1.02,5.71,2.28,11.47,4.31,16.91,1.67,4.47,3.98,9.59,8.48,11.83,2.69,1.34,5.64,1.46,8.32.02,1.25-.68,2.15-1.77,2.98-2.89.28-.37.5-.79.7-1.21.17-.39.33-.78.49-1.17.33-.88.58-.63-.32.19-.52.3-1.04.61-1.57.92-.84-.22-1.69-.44-2.53-.65-.31-.53-.61-1.05-.91-1.58-.37-1.15.09-1.44-.26-.46.2-.56-.34.61-.42.73-.36.63-.79.98-1.17,1.22-.38.2-.41.22-.09.06-.4.09-.45.11-.13.08-.16.02-1.47-.03-.96.05-.15-.02-1.35-.38-.92-.2-.46-.2-.88-.46-1.3-.73-1.28-.83-2.27-2.42-3.21-4.17-1.08-2.02-1.84-4.17-2.53-6.36-3.09-9.79-4.71-20.2-5.61-30.4-.18-1.93-1.49-3.56-3.56-3.56-1.81,0-3.73,1.62-3.55,3.56Z"/>
    </g>
    <path class="st24" d="M178,234.28c.47,5.31,1.23,10.62,2.14,15.88.78,4.47,1.71,8.92,2.96,13.29,1.08,3.78,2.38,7.62,4.44,10.98,1.88,3.07,5.1,5.79,8.95,5.19,2.66-.41,4.52-3.18,5.15-5.61.2-.81-1.04-1.15-1.25-.34-.69,2.71-2.85,5.21-5.88,4.66-3.71-.67-5.77-4.06-7.26-7.18-1.84-3.88-3-8.1-4-12.26-1.04-4.32-1.84-8.7-2.51-13.09-.59-3.82-1.1-7.67-1.43-11.52-.08-.82-1.37-.83-1.3,0h0Z"/>
    <g>
      <path class="st23" d="M178.93,234.28c.33,3.85.85,7.7,1.43,11.52.68,4.39,1.47,8.77,2.51,13.09,1,4.16,2.16,8.38,4,12.26,1.49,3.12,3.55,6.51,7.26,7.18.35.06.68.08,1.01.07-.21,0-.42-.03-.64-.07-3.71-.67-5.77-4.06-7.26-7.18-1.84-3.88-3-8.1-4-12.26-1.04-4.32-1.84-8.7-2.51-13.09-.59-3.82-1.1-7.67-1.43-11.52-.05-.49-.53-.69-.89-.6.26.07.49.27.52.6Z"/>
      <path class="st23" d="M200.79,273.22c.32.08.58.37.47.78-.62,2.43-2.49,5.2-5.14,5.61-.3.04-.59.07-.88.08.41.01.83-.02,1.25-.08,2.66-.41,4.52-3.18,5.15-5.61.14-.57-.42-.9-.84-.78Z"/>
    </g>
    <g>
      <path class="st30" d="M187.97,274.42c-2.07-3.36-3.37-7.2-4.44-10.98-1.25-4.37-2.18-8.82-2.96-13.29-.91-5.26-1.67-10.56-2.14-15.88-.03-.32.14-.51.37-.59-.39-.11-.85.08-.81.59.47,5.31,1.23,10.62,2.14,15.88.78,4.47,1.71,8.92,2.96,13.29,1.08,3.78,2.38,7.62,4.44,10.98,1.74,2.84,4.63,5.38,8.1,5.27-3.27-.1-6-2.54-7.67-5.27Z"/>
      <path class="st30" d="M200.82,273.66c.06-.24.2-.36.37-.43-.31-.1-.7,0-.81.43-.61,2.38-2.36,4.61-4.84,4.73,2.7.13,4.62-2.21,5.28-4.73Z"/>
    </g>
  </g>
  <g>
    <g>
      <path class="st0" d="M183.22,232.64c.46,5.32,1.22,10.62,2.14,15.88.77,4.47,1.71,8.92,2.96,13.29,1.07,3.78,2.38,7.62,4.44,10.97,1.88,3.07,5.09,5.79,8.95,5.2,2.65-.42,4.52-3.19,5.14-5.62.21-.8-1.04-1.14-1.24-.34-.7,2.72-2.86,5.22-5.88,4.68-3.71-.68-5.78-4.06-7.26-7.18-1.85-3.88-3-8.09-4.01-12.26-1.04-4.32-1.84-8.69-2.51-13.08-.59-3.83-1.1-7.67-1.43-11.52-.08-.83-1.37-.83-1.29,0h0Z"/>
      <path d="M179.66,232.64c.76,8.46,2.03,16.95,3.96,25.23.89,3.86,1.96,7.71,3.45,11.37,1.42,3.49,3.18,7.04,6.14,9.48,3.17,2.6,7.4,3.77,11.28,2.05,3.2-1.42,5.67-5.21,5.92-8.67.18-2.51-2.93-4.86-5.3-3.97-1.09.41-2.08.98-2.59,2.09-.24.52-.39.99-.57,1.52.18-.53-.32.59-.4.73-.53.87.39-.38-.3.35-.66.71.48-.26-.33.27-.79.5.53-.11-.38.14.77-.21-.54-.06.11.02-1.4-.19-1.88-.64-2.89-1.75-.74-.82.33.51-.32-.39-.21-.29-.4-.6-.58-.9-.44-.7-.82-1.44-1.19-2.18-.9-1.84-1.57-3.77-2.18-5.72-1.35-4.32-2.31-8.79-3.14-13.25-.8-4.28-1.45-8.58-1.94-12.9-.3-2.66-.02-5.47-2.5-7.13-1.08-.73-3.14-.81-4.21,0-1.35,1.02-1.88,1.92-2.05,3.62-.18,1.93,1.75,3.55,3.56,3.55,2.07,0,3.37-1.63,3.55-3.55,0-.08.01-.16.02-.25-.16.6-.32,1.2-.49,1.79.04-.06.07-.12.1-.19-.43.43-.85.86-1.28,1.28h-2.62c-.42-.42-.85-.85-1.28-1.27-.23-1.03-.29-1.15-.19-.36.03.33.06.67.1,1.01.06.67.14,1.33.22,2,.19,1.65.41,3.31.64,4.95.4,2.96.87,5.91,1.4,8.85,1.02,5.71,2.29,11.46,4.31,16.91,1.66,4.46,3.98,9.59,8.48,11.84,2.69,1.33,5.64,1.45,8.31.02,1.26-.67,2.15-1.77,2.99-2.88.28-.38.49-.8.69-1.21.17-.39.34-.78.5-1.18.33-.88.58-.63-.32.2-.53.31-1.05.61-1.57.91-.84-.22-1.69-.44-2.52-.66-.31-.53-.61-1.05-.92-1.56-.37-1.15.1-1.44-.26-.47.21-.56-.34.61-.41.73-.37.63-.79.99-1.17,1.22-.38.2-.4.21-.1.06-.4.09-.44.11-.12.08-.16.02-1.47-.04-.96.04-.14-.02-1.34-.38-.92-.2-.46-.2-.88-.46-1.3-.74-1.28-.83-2.27-2.42-3.21-4.17-1.09-2.02-1.84-4.17-2.53-6.36-3.09-9.79-4.71-20.21-5.61-30.41-.18-1.93-1.49-3.55-3.55-3.55-1.81,0-3.73,1.62-3.56,3.55Z"/>
    </g>
    <path class="st24" d="M183.22,232.64c.46,5.32,1.22,10.62,2.14,15.88.77,4.47,1.71,8.92,2.96,13.29,1.07,3.78,2.38,7.62,4.44,10.97,1.88,3.07,5.09,5.79,8.95,5.2,2.65-.42,4.52-3.19,5.14-5.62.21-.8-1.04-1.14-1.24-.34-.7,2.72-2.86,5.22-5.88,4.68-3.71-.68-5.78-4.06-7.26-7.18-1.85-3.88-3-8.09-4.01-12.26-1.04-4.32-1.84-8.69-2.51-13.08-.59-3.83-1.1-7.67-1.43-11.52-.08-.83-1.37-.83-1.29,0h0Z"/>
    <g>
      <path class="st23" d="M184.14,232.64c.34,3.85.84,7.7,1.43,11.52.68,4.39,1.47,8.76,2.51,13.08,1,4.17,2.16,8.38,4.01,12.26,1.48,3.12,3.55,6.51,7.25,7.18.35.06.69.08,1.01.06-.21,0-.42-.02-.64-.06-3.71-.68-5.78-4.06-7.26-7.18-1.85-3.88-3-8.09-4.01-12.26-1.04-4.32-1.84-8.69-2.51-13.08-.59-3.83-1.1-7.67-1.43-11.52-.04-.49-.52-.69-.88-.6.25.06.48.26.51.6Z"/>
      <path class="st23" d="M206,271.58c.32.08.58.38.48.77-.62,2.44-2.49,5.21-5.14,5.62-.3.05-.6.07-.88.07.41.01.83,0,1.25-.07,2.65-.42,4.52-3.19,5.14-5.62.14-.55-.42-.89-.85-.77Z"/>
    </g>
    <g>
      <path class="st30" d="M193.18,272.78c-2.06-3.36-3.36-7.2-4.44-10.97-1.24-4.37-2.18-8.81-2.95-13.29-.91-5.25-1.67-10.56-2.14-15.88-.03-.32.15-.51.38-.59-.38-.11-.85.08-.81.59.46,5.32,1.22,10.62,2.14,15.88.77,4.47,1.71,8.92,2.96,13.29,1.07,3.78,2.38,7.62,4.44,10.97,1.74,2.84,4.63,5.38,8.1,5.27-3.28-.1-6-2.54-7.67-5.27Z"/>
      <path class="st30" d="M206.03,272.01c.06-.22.21-.36.37-.42-.31-.1-.7,0-.8.42-.61,2.39-2.37,4.62-4.84,4.74,2.71.13,4.63-2.21,5.27-4.74Z"/>
    </g>
  </g>
  <g>
    <g>
      <g>
        <path class="st40" d="M61.16,135.87s-48.69.04-51.52,5.38c-2.83,5.34,4.38,16.26,27.08,20.28,22.7,4.02,40.12,0,40.12,0l-.54-22.14-15.14-3.51Z"/>
        <path d="M61.16,126.82c-13.07.01-26.28.31-39.26,1.88-7.97.96-19.04,1.85-21.42,11.3-2.77,10.99,6.98,20.12,15.88,24.48,5.85,2.87,12.07,4.73,18.46,5.85,7.43,1.3,14.98,2.02,22.53,2.03,7.25,0,14.81-.48,21.9-2.11,3.83-.88,6.73-4.84,6.64-8.72-.18-7.38-.36-14.76-.54-22.14-.1-3.91-2.68-7.8-6.64-8.72-5.05-1.17-10.09-2.34-15.14-3.52-4.79-1.12-9.78,1.43-11.12,6.31-1.27,4.61,1.52,10.02,6.32,11.14,5.05,1.17,10.09,2.34,15.14,3.52-2.21-2.91-4.42-5.82-6.64-8.73.18,7.38.36,14.76.53,22.14,2.21-2.9,4.43-5.81,6.64-8.72-1.64.38-3.32.62-4.98.85.8-.12,1.6-.22,2.4-.33-9.99,1.33-20.17,1.22-30.15-.07.8.11,1.6.21,2.4.33-6.37-.85-12.69-2.16-18.64-4.65.72.31,1.44.61,2.16.91-2.86-1.22-5.59-2.69-8.05-4.58.61.47,1.22.94,1.83,1.41-1.32-1.04-2.54-2.19-3.58-3.5.47.61.94,1.22,1.42,1.83-.68-.87-1.27-1.8-1.71-2.82.31.72.61,1.44.91,2.16-.29-.71-.51-1.44-.62-2.21.11.8.22,1.61.33,2.41-.06-.54-.07-1.08,0-1.62-.11.8-.22,1.6-.33,2.4.07-.46.19-.9.38-1.33-.31.72-.61,1.44-.92,2.16.09-.19.18-.38.31-.55-.47.61-.94,1.22-1.41,1.83.12-.14.24-.26.38-.37-.6.47-1.21.94-1.83,1.41.4-.31.87-.54,1.33-.74-.72.3-1.44.61-2.16.91,2.83-1.18,6.03-1.59,9.06-2-.8.11-1.6.22-2.4.32,13.38-1.77,27.05-2.02,40.54-2.04h.06c4.93,0,9.05-4.11,9.05-9.05s-4.12-9.05-9.05-9.05Z"/>
      </g>
      <path class="st54" d="M61.16,135.87s-48.69.04-51.52,5.38c-2.83,5.34,4.38,16.26,27.08,20.28,22.7,4.02,40.12,0,40.12,0l-.54-22.14-15.14-3.51Z"/>
      <path class="st1" d="M36.72,159.02c-18.19-3.23-26.43-10.87-27.53-16.53-1.25,5.64,6.48,15.3,27.53,19.03,22.7,4.02,40.12,0,40.12,0l-.06-2.49c-1.12.25-18.12,3.87-40.06-.01Z"/>
    </g>
    <path class="st45" d="M76.3,139.38l-15.14-3.51s-48.69.04-51.52,5.38c-1.57,2.96-.05,7.64,5.47,11.89l11.35.72s13.61.74,27.83,0c12.69-.65,20.71-2.79,22.28-3.24l-.27-11.23Z"/>
    <g>
      <g>
        <path class="st40" d="M76.3,139.4v-.02l-15.14-3.51s-48.69.04-51.52,5.38c-1.75,3.31.34,8.75,7.57,13.37-2.53-3.15-5.16-7.38-2.96-9.32,3.75-3.31,52.42-2.09,62.04-5.9Z"/>
        <path d="M85.35,139.4v-.02c-.08-3.91-2.69-7.8-6.64-8.72-2.9-.67-5.79-1.35-8.69-2.02-1.74-.4-3.48-.81-5.21-1.21-1.23-.29-2.48-.61-3.76-.61-5.24.01-10.48.13-15.71.31-9.17.3-18.31.87-27.4,2.1-2.88.39-5.89.81-8.62,1.88-2.13.83-4.3,1.71-5.87,3.47-1.45,1.64-2.27,3.13-2.91,5.26-.77,2.57-.48,4.74-.11,7.32.46,3.29,2.55,6.18,4.54,8.71,2.09,2.65,4.88,4.74,7.69,6.57,3.39,2.2,8.19,1.36,10.96-1.41,1.69-1.69,2.65-4.01,2.65-6.4,0-2.62-1.08-4.43-2.65-6.4-.18-.22-.35-.44-.53-.66.48.61.94,1.22,1.41,1.83-1.01-1.34-1.96-2.73-2.66-4.27.31.72.61,1.44.91,2.16-.27-.66-.48-1.31-.58-2.02.11.8.22,1.61.32,2.4-.02-.31-.02-.59.01-.9-.1.8-.21,1.61-.32,2.4.03-.19.07-.36.14-.54-.31.72-.61,1.43-.91,2.16.06-.18.16-.34.26-.5-.47.61-.95,1.22-1.41,1.83.14-.17.26-.32.43-.46-.61.47-1.22.94-1.83,1.41.18-.14.38-.24.59-.33-.72.3-1.45.61-2.16.92,1.32-.54,2.8-.72,4.2-.91-.8.11-1.6.21-2.41.32,8.21-1.08,16.59-1.17,24.87-1.53,9.56-.4,19.11-.81,28.6-2.08,2.06-.28,4.2-.58,6.15-1.33,2.29-.89,4.12-1.97,5.41-4.16,1.22-2.09,1.55-4.64.91-6.97-.62-2.26-2.14-4.22-4.16-5.41-1.91-1.12-4.81-1.75-6.97-.9-2.01.78-4.23,1.07-6.35,1.36.8-.1,1.6-.21,2.4-.32-17.71,2.35-35.71,1.23-53.42,3.61-2.3.31-4.53.81-6.58,1.99-1.69.96-3.02,2.45-4.02,4.09-1.74,2.85-1.58,5.85-1.14,8.98.26,1.85,1.27,3.67,2.18,5.29,1.07,1.91,2.51,3.64,3.87,5.34,3.65-4.74,7.31-9.47,10.96-14.21-.77-.5-1.52-1.03-2.26-1.6.61.47,1.22.94,1.82,1.42-1.33-1.05-2.54-2.22-3.59-3.55.47.61.94,1.22,1.41,1.83-.63-.84-1.18-1.73-1.61-2.69.3.72.61,1.44.91,2.16-.31-.74-.53-1.49-.64-2.28.11.8.22,1.61.33,2.4-.06-.54-.06-1.07,0-1.61-.1.8-.22,1.6-.32,2.4.08-.43.19-.84.35-1.25-.31.72-.61,1.44-.91,2.16.1-.21.19-.42.33-.6-.47.61-.94,1.22-1.41,1.83.12-.14.24-.26.38-.37-.6.47-1.21.94-1.83,1.41.4-.31.87-.54,1.33-.74-.72.3-1.44.61-2.16.91,2.83-1.18,6.03-1.59,9.06-2-.8.11-1.6.22-2.4.32,13.38-1.77,27.05-2.02,40.54-2.04h.06c-.8-.11-1.6-.21-2.41-.32,5.05,1.17,10.09,2.34,15.14,3.52-2.21-2.91-4.42-5.82-6.64-8.73v.02c.09,4.93,4.04,9.05,9.04,9.05s9.14-4.12,9.05-9.05Z"/>
      </g>
      <path class="st45" d="M76.3,139.4v-.02l-15.14-3.51s-48.69.04-51.52,5.38c-1.75,3.31.34,8.75,7.57,13.37-2.53-3.15-5.16-7.38-2.96-9.32,3.75-3.31,52.42-2.09,62.04-5.9Z"/>
      <path class="st29" d="M11.13,142.4c2.84-5.34,51.52-5.38,51.52-5.38l12.22,2.83c.55-.15,1.03-.3,1.44-.46v-.02l-15.14-3.51s-48.69.04-51.52,5.38c-1.64,3.09.08,8.04,6.21,12.45-4.91-4.1-6.22-8.47-4.72-11.29Z"/>
      <path class="st54" d="M14.2,145.3c3.74-3.31,52.42-2.09,62.04-5.9v-.02l-2.61-.6c-12.19,3.27-57.05,2.28-60.64,5.45-2.14,1.89.76,6.62,3.25,9.78.29.2.6.4.91.61-2.54-3.15-5.16-7.38-2.96-9.32Z"/>
    </g>
    <path d="M25.21,150.69s1.81,4.3,6.21,6.9c4.4,2.6,10.6,4.8,10.6,4.8l-19.39-1-1.29-5.2,3.87-5.5Z"/>
  </g>
  <g>
    <g>
      <path class="st40" d="M58.46,83.2s-1.56,39.06-.42,62.99c1.15,23.93,16.3,32.18,16.3,32.18v-70.21l-15.88-24.96Z"/>
      <path d="M49.41,83.2c-.72,17.95-1.09,35.95-.72,53.9.14,6.66.33,13.33,1.69,19.89,1.17,5.63,3.41,11.24,6.51,16.1,2.18,3.44,4.83,6.74,7.93,9.4,1.54,1.32,3.17,2.71,4.96,3.7,5.97,3.27,13.61-.81,13.61-7.81v-70.13c0-3.04-1.45-4.99-2.94-7.33-1.85-2.9-3.7-5.81-5.54-8.71-2.87-4.52-5.75-9.04-8.63-13.57-2.64-4.15-8-5.81-12.37-3.25-4.13,2.42-5.9,8.21-3.25,12.38,5.3,8.32,10.59,16.64,15.88,24.96-.42-1.52-.83-3.04-1.24-4.56v70.21c4.54-2.6,9.07-5.21,13.62-7.81-.73-.4-1.4-.9-2.06-1.4.61.47,1.22.93,1.83,1.41-2.16-1.67-4.06-3.65-5.74-5.8.48.61.94,1.22,1.41,1.83-1.99-2.6-3.62-5.44-4.91-8.45.3.72.61,1.44.91,2.16-1.6-3.82-2.63-7.83-3.19-11.94.11.8.22,1.61.32,2.4-.76-5.92-.7-12-.78-17.97-.08-6.15-.06-12.31.02-18.46.11-9.37.33-18.74.67-28.1.04-1.01.07-2.02.1-3.03.2-4.93-4.26-9.04-9.04-9.04-5.08,0-8.85,4.12-9.05,9.04Z"/>
    </g>
    <path class="st37" d="M58.46,79.72s-1.56,42.55-.42,66.48c1.15,23.93,16.3,32.18,16.3,32.18v-70.21l-15.88-28.45Z"/>
    <path class="st42" d="M61.4,146.19c-.89-18.59-.14-48.4.24-60.79l-3.18-5.69s-1.56,42.55-.42,66.48c1.15,23.93,16.3,32.18,16.3,32.18v-2.48c-4.53-3.97-12.13-13.02-12.94-29.7Z"/>
  </g>
  <g>
    <g>
      <path class="st40" d="M260.37,83.78s1.35,39.07.06,62.99c-1.28,23.92-16.48,32.09-16.48,32.09l.4-70.21,16.02-24.87Z"/>
      <path d="M251.33,83.78c.61,17.95.88,35.95.41,53.9-.12,4.55-.18,9.15-.79,13.66.11-.8.21-1.6.32-2.4-.57,3.99-1.58,7.9-3.13,11.63.31-.72.61-1.44.91-2.16-1.3,3.04-2.93,5.91-4.94,8.53.47-.61.94-1.22,1.42-1.82-1.7,2.18-3.63,4.18-5.82,5.88.61-.47,1.22-.94,1.83-1.42-.69.53-1.4,1.06-2.16,1.47,4.54,2.61,9.08,5.21,13.62,7.82.06-11.36.12-22.72.18-34.07.08-12.02.14-24.04.21-36.05v-.08c-.4,1.52-.82,3.04-1.24,4.56,5.34-8.29,10.69-16.57,16.03-24.87,2.67-4.15.87-9.96-3.25-12.38-4.39-2.57-9.71-.89-12.37,3.25-3.32,5.15-6.64,10.3-9.95,15.45-1.79,2.77-3.57,5.54-5.35,8.31-1.13,1.75-1.94,3.42-1.96,5.68,0,.28,0,.55,0,.82-.08,13.31-.15,26.63-.23,39.94-.05,9.81-.11,19.63-.17,29.45-.04,7.04,7.67,11.03,13.62,7.81,1.84-1,3.5-2.43,5.08-3.78,3.21-2.72,5.9-6.16,8.14-9.7,3.2-5.05,5.38-10.9,6.53-16.75,1.31-6.64,1.43-13.44,1.59-20.19.42-17.48.16-35-.44-52.48-.17-4.93-3.99-9.05-9.05-9.05-4.8,0-9.21,4.12-9.04,9.05Z"/>
    </g>
    <path class="st37" d="M260.4,80.29s1.32,42.56.04,66.48c-1.28,23.92-16.48,32.09-16.48,32.09l.4-70.21,16.04-28.36Z"/>
    <path class="st42" d="M260.4,80.29l-3.78,6.69c.31,12.95.83,41.68-.14,59.77-.86,15.95-7.91,24.9-12.5,29.08l-.02,3.03s15.2-8.17,16.48-32.09c1.28-23.91-.04-66.48-.04-66.48Z"/>
  </g>
  <g>
    <g>
      <path class="st40" d="M72.64,75.58c-.38,12.43-.49,85.93-.49,85.93-.19,33.38,18.35,64.45,88.08,64.56,69.02.1,85.53-30.18,85.71-63.57l.49-85.92-173.8-.99Z"/>
      <path d="M63.59,75.58c-.44,14.6-.31,29.22-.37,43.83-.06,13.75-.09,27.5-.12,41.24-.02,14.33,2.78,28.95,10.96,40.98,5.31,7.79,12.25,14.17,20.33,19.04,9.29,5.6,19.91,9.09,30.5,11.21,14.26,2.84,28.94,3.61,43.45,3.1,12.93-.45,26.12-1.99,38.5-5.91,9.95-3.15,19.17-7.87,27.13-14.65,6.12-5.22,11.18-12.02,14.45-19.36,3.6-8.09,5.47-16.38,6.24-25.19.34-3.86.33-7.72.35-11.59.08-14.42.17-28.84.24-43.24.08-12.48.14-24.96.21-37.43,0-.34,0-.68,0-1.02.03-4.96-4.13-9.02-9.04-9.05-5.93-.03-11.85-.07-17.78-.1-14.17-.08-28.34-.16-42.51-.24-17-.1-34-.2-50.99-.29-14.41-.08-28.83-.16-43.24-.25-6.41-.04-12.82-.07-19.24-.11h-.04c-4.93-.03-9.05,4.14-9.05,9.05s4.12,9.02,9.05,9.05c5.93.03,11.85.07,17.78.1,14.17.08,28.34.16,42.51.24,17,.1,33.99.19,50.99.29,14.42.08,28.83.17,43.24.24,6.42.04,12.83.08,19.24.12h.04c-3.02-3.02-6.03-6.03-9.05-9.04-.06,10.11-.12,20.22-.18,30.35-.09,15.59-.17,31.18-.26,46.77-.04,6.64.09,13.29-.79,19.9.11-.8.22-1.6.33-2.4-.74,5.52-2.1,10.95-4.26,16.1.3-.72.6-1.44.91-2.17-1.68,3.94-3.83,7.66-6.45,11.06.47-.61.94-1.22,1.41-1.84-2.61,3.36-5.63,6.33-8.99,8.94.61-.47,1.23-.94,1.83-1.41-4.31,3.32-9.08,5.97-14.09,8.09.72-.3,1.44-.61,2.16-.91-8.43,3.53-17.4,5.57-26.44,6.79.8-.11,1.6-.21,2.41-.32-16.25,2.16-33.05,2.12-49.3-.03.81.11,1.61.21,2.41.32-9.51-1.29-18.96-3.45-27.83-7.19.72.31,1.43.61,2.16.91-5.27-2.23-10.28-5.02-14.81-8.52.61.47,1.22.95,1.83,1.42-3.52-2.75-6.72-5.89-9.46-9.43.47.61.94,1.22,1.41,1.84-2.69-3.5-4.9-7.32-6.62-11.38.3.72.61,1.44.91,2.16-2.08-4.95-3.41-10.18-4.13-15.5.11.8.21,1.61.33,2.41-.61-4.6-.68-9.21-.68-13.84,0-6.19.02-12.38.04-18.57.05-17.55.09-35.11.27-52.66.03-3.96.05-7.92.18-11.89.15-4.93-4.23-9.05-9.05-9.05s-8.9,4.12-9.05,9.05Z"/>
    </g>
    <path class="st0" d="M72.64,75.58c-.38,12.43-.49,85.93-.49,85.93-.19,33.38,18.35,64.45,88.08,64.56,69.02.1,85.53-30.18,85.71-63.57l.49-85.92-173.8-.99Z"/>
  </g>
  <g>
    <g>
      <g>
        <g>
          <g>
            <path class="st7" d="M94.85,169.97c-.05,8.93,7.15,16.2,16.07,16.26,8.93.05,16.2-7.15,16.26-16.07.04-8.93-7.15-16.21-16.07-16.26-8.93-.05-16.2,7.15-16.26,16.07Z"/>
            <path d="M93.56,169.97c.03,5.85,2.86,11.15,7.62,14.51,4.75,3.36,11.21,3.91,16.54,1.69,5.28-2.2,9.16-6.93,10.37-12.5,1.24-5.72-.62-11.71-4.67-15.89-4.88-5.03-12.68-6.5-19.11-3.83-6.46,2.69-10.63,9.06-10.75,16.01-.03,1.67,2.56,1.67,2.58,0,.1-5.89,3.53-11.03,8.85-13.51,5.33-2.49,11.84-1.21,16.12,2.69,4.38,4,5.79,10.28,3.95,15.84-1.81,5.47-7.03,9.37-12.7,9.89-8.7.81-16.16-6.28-16.21-14.91,0-1.66-2.59-1.67-2.58,0Z"/>
          </g>
          <path class="st2" d="M100.56,175.93c-.01,1.45,1.16,2.63,2.6,2.63,1.45,0,2.63-1.16,2.63-2.61,0-1.44-1.16-2.62-2.61-2.63-1.44,0-2.62,1.16-2.63,2.6Z"/>
          <path class="st2" d="M109.47,167.89c-.02,3.74,2.99,6.78,6.72,6.8,3.73.02,6.78-2.98,6.8-6.71.02-3.74-2.99-6.78-6.72-6.8-3.73-.02-6.78,2.98-6.8,6.72Z"/>
        </g>
        <path class="st36" d="M112.93,193.56c.77,2.15-2.6,5.32-7.53,7.07-4.93,1.76-9.54,1.43-10.3-.71-.77-2.15,2.61-5.31,7.53-7.07,4.92-1.75,9.54-1.43,10.3.71Z"/>
      </g>
      <g>
        <g>
          <g>
            <path class="st7" d="M192.5,170.52c-.05,8.93,7.15,16.21,16.07,16.26,8.93.05,16.2-7.14,16.26-16.07.05-8.93-7.14-16.2-16.07-16.25-8.93-.05-16.2,7.15-16.25,16.07Z"/>
            <path d="M191.2,170.52c.03,5.85,2.86,11.15,7.63,14.51,4.75,3.36,11.21,3.91,16.53,1.69,5.28-2.2,9.17-6.93,10.37-12.5,1.23-5.72-.63-11.71-4.67-15.88-4.88-5.04-12.68-6.51-19.11-3.83-6.46,2.69-10.63,9.05-10.75,16.01-.03,1.67,2.56,1.67,2.59,0,.1-5.89,3.53-11.03,8.85-13.51,5.33-2.48,11.84-1.21,16.11,2.7,4.38,3.99,5.79,10.27,3.95,15.83-1.82,5.46-7.03,9.37-12.7,9.89-8.7.81-16.17-6.28-16.21-14.91,0-1.67-2.6-1.67-2.59,0Z"/>
          </g>
          <path class="st2" d="M198.19,176.49c0,1.45,1.16,2.63,2.6,2.64,1.45,0,2.63-1.16,2.64-2.61,0-1.44-1.16-2.62-2.6-2.63-1.44,0-2.63,1.16-2.64,2.6Z"/>
          <path class="st2" d="M207.11,168.44c-.02,3.73,2.98,6.78,6.73,6.79,3.73.02,6.77-2.98,6.79-6.72.03-3.72-2.98-6.77-6.72-6.79-3.73-.02-6.77,2.99-6.79,6.72Z"/>
        </g>
        <path class="st36" d="M206.47,194.1c-.79,2.14,2.55,5.33,7.46,7.15,4.9,1.81,9.52,1.54,10.3-.6.8-2.14-2.55-5.35-7.45-7.15-4.91-1.81-9.52-1.54-10.32.6Z"/>
      </g>
    </g>
    <path d="M144.12,201.14c.09,2.08.91,4.23,2.12,5.9,2.97,4.11,7.81,5.6,12.71,5.73,7.1.19,15.33-3.37,16.24-11.23.17-1.54-1.43-2.84-2.85-2.84-1.68,0-2.66,1.3-2.84,2.84.18-1.53-.06.06-.21.5-.07.22-.38.95.01.03-.1.22-.21.44-.32.66-.13.24-.27.47-.42.7-.06.1-.13.2-.19.29-.36.52.41-.51,0,0-.43.54-.94,1.01-1.47,1.44.54-.43-.44.26-.59.35-.36.22-.74.42-1.14.59.39-.18-.73.26-.92.32-.5.16-1.02.28-1.54.39-1.01.21-2.17.26-3.35.27-1.19,0-2.2-.07-3.28-.28-.51-.1-1.01-.24-1.5-.4-.18-.06-.37-.12-.55-.19-.85-.3.46.22-.32-.14-.38-.18-.74-.39-1.1-.61-.13-.08-.26-.17-.39-.27-.63-.43.43.37-.13-.11-.27-.22-.52-.47-.76-.73-.09-.1-.18-.2-.27-.31-.44-.51.36.51-.02-.02-.33-.47-.61-.97-.85-1.48-.14-.3.23.62-.04-.14-.07-.21-.13-.41-.19-.62-.09-.3-.15-.62-.2-.94.18,1.18.07.59.06.3-.16-3.65-5.84-3.67-5.69,0h0Z"/>
  </g>
  <path class="st52" d="M245.93,134.73c-7.69-1.02-15.44-1.68-23.17-2.3-32.94-2.65-66.06-3.38-99.09-2.41-17.14.5-34.38,1.23-51.44,3.15-.01,4.41-.03,8.45-.03,11.89,17.05-1.92,34.28-2.64,51.4-3.15,33.03-.97,66.14-.23,99.09,2.42,7.73.62,15.48,1.28,23.18,2.3.05,0,.12,0,.17.01l.06-11.89c-.06,0-.11,0-.17-.01Z"/>
  <g>
    <g>
      <g>
        <path class="st40" d="M112.24,24.46l.18-.49s-42.83,17.56-54.47,54.48c-11.63,36.92-4.9,55.46-4.9,55.46,0,0,3.93-2.12,8.26-3.7,4.33-1.58,13.91-2.57,13.91-2.57,0,0-6.9-71.76,37.02-103.18Z"/>
        <path d="M122.24,27.31c.06-.17.12-.33.18-.49,1.23-3.43-.13-7.63-2.59-10.13-2.34-2.39-6.79-4.12-10.09-2.77-5.13,2.11-10.04,4.58-14.81,7.42-9.76,5.79-19,12.84-26.81,21.07-4.81,5.07-9.19,10.69-12.78,16.7-4.09,6.86-6.86,14.35-9.02,22.01-3.78,13.42-6.29,27.78-5.44,41.77.22,3.65.65,7.33,1.4,10.91.2.94.41,1.89.74,2.8.95,2.64,2.25,4.78,4.73,6.26,3.26,1.95,7.2,1.86,10.49.09,2.02-1.09,4.11-2.04,6.22-2.92-.83.34-1.66.69-2.49,1.03,4.4-1.78,9.06-2.51,13.76-3.1-.92.12-1.85.23-2.77.35.73-.09,1.46-.18,2.19-.26,2.87-.29,5.24-.88,7.38-2.98,1.79-1.76,3.36-4.72,3.11-7.32-1.11-11.64-.31-23.69,1.32-35.23-.13.92-.27,1.84-.4,2.76,1.66-11.58,4.53-23.03,9.17-33.8-.35.82-.72,1.65-1.07,2.48,3.07-7.07,6.91-13.78,11.66-19.85-.55.7-1.1,1.39-1.64,2.09,3.89-4.93,8.35-9.37,13.34-13.17-.7.54-1.41,1.07-2.12,1.6.51-.38,1.02-.76,1.53-1.13,2.29-1.64,4.03-3.36,4.83-6.17.76-2.67.41-5.61-.98-8.02-1.34-2.33-3.58-4.09-6.17-4.83-2.45-.7-5.87-.57-8.02.98-11.19,8.05-20.25,18.39-26.78,30.57-5.74,10.71-9.69,22.39-12.14,34.28-3.11,15.1-4.51,30.94-3.39,46.36.02.3.05.6.07.9,3.5-3.43,6.99-6.87,10.48-10.31-4.17.44-8.37.97-12.5,1.81-5.22,1.06-10.25,3.32-14.92,5.84,5.07,2.11,10.14,4.23,15.21,6.34-.79-2.19-1.12-4.59-1.41-6.89.12.92.23,1.85.35,2.77-.98-7.93-.53-16.01.57-23.91-.13.92-.26,1.84-.39,2.76.75-5.21,1.81-10.38,3.1-15.47,1.34-5.29,2.85-10.57,5.02-15.57-.35.82-.71,1.65-1.06,2.47,2.53-5.77,5.85-11.15,9.73-16.11-.55.7-1.09,1.4-1.64,2.09,5.32-6.74,11.61-12.65,18.44-17.83-.71.54-1.41,1.07-2.12,1.6,7.32-5.52,15.38-10.64,23.89-14.16-.83.34-1.67.68-2.5,1.02h0c-4.22-4.3-8.45-8.6-12.68-12.9-.06.16-.12.33-.18.5-1.92,5.33,1.99,11.38,7.15,12.85,5.73,1.63,10.94-1.83,12.85-7.15Z"/>
      </g>
      <path class="st45" d="M112.24,24.46l.18-.49s-42.83,17.56-54.47,54.48c-11.63,36.92-4.9,55.46-4.9,55.46,0,0,3.93-2.12,8.26-3.7,4.33-1.58,13.91-2.57,13.91-2.57,0,0-6.9-71.76,37.02-103.18Z"/>
      <path class="st54" d="M63.88,78.5c10.98-35.3,45.09-51.7,48.36-54.04l.18-.49s-42.83,17.56-54.47,54.48c-11.63,36.92-4.9,55.46-4.9,55.46,0,0,2.26-1.22,5.25-2.5-1.36-6.24-3.45-23.87,5.58-52.91Z"/>
    </g>
    <g>
      <g>
        <path class="st40" d="M207.53,25.27l-.17-.5s42.53,18.28,53.53,55.4c11,37.11,3.96,55.54,3.96,55.54,0,0-3.89-2.19-8.19-3.84-4.3-1.66-13.86-2.81-13.86-2.81,0,0,8.12-71.63-35.26-103.79Z"/>
        <path d="M217.57,22.59c-.06-.16-.11-.33-.17-.5-4.3,4.22-8.6,8.45-12.9,12.68h0c-.82-.35-1.65-.7-2.47-1.06,8.45,3.66,16.41,8.91,23.64,14.56-.69-.55-1.39-1.1-2.08-1.65,6.74,5.3,12.93,11.32,18.14,18.14-.53-.7-1.07-1.41-1.6-2.12,3.8,5.03,7.02,10.46,9.46,16.27-.34-.83-.68-1.66-1.03-2.49,2.01,4.88,3.39,10.01,4.63,15.13,1.29,5.29,2.29,10.64,2.97,16.05-.12-.92-.23-1.85-.35-2.77.97,7.92,1.28,16,.17,23.92.13-.92.27-1.84.39-2.76-.33,2.29-.7,4.69-1.52,6.86,5.11-2.03,10.22-4.05,15.32-6.08-4.53-2.54-9.4-4.82-14.46-6-4.21-.99-8.55-1.59-12.83-2.11,3.43,3.5,6.87,6.99,10.3,10.49,1.45-12.79.48-25.91-1.14-38.62-3.08-24.08-11.94-48.54-29.42-65.96-3.02-3-6.35-5.69-9.77-8.24-2.13-1.58-5.54-1.77-8-1.12-2.6.69-4.87,2.41-6.25,4.72-1.43,2.39-1.83,5.31-1.11,8,.75,2.83,2.46,4.57,4.73,6.26.51.38,1.01.76,1.52,1.15-.7-.54-1.4-1.09-2.09-1.64,4.93,3.89,9.31,8.4,13.12,13.4-.54-.71-1.07-1.41-1.6-2.12,4.65,6.15,8.37,12.93,11.31,20.04-.34-.83-.68-1.66-1.03-2.49,4.45,10.85,7.14,22.34,8.6,33.95-.12-.92-.23-1.84-.35-2.77,1.43,11.56,2.04,23.63.72,35.25-.29,2.6,1.22,5.59,2.98,7.38,2.1,2.13,4.46,2.76,7.33,3.11.72.09,1.46.19,2.18.29-.92-.13-1.84-.26-2.76-.39,4.68.67,9.33,1.47,13.7,3.33-.82-.36-1.65-.72-2.47-1.07,2.1.91,4.17,1.9,6.17,3.02,2.46,1.38,5.25,1.85,8,1.12,3.74-.99,6-3.73,7.33-7.2.44-1.15.7-2.39.96-3.6.92-4.36,1.42-8.84,1.59-13.29.28-6.79-.39-13.53-1.26-20.26-1.08-8.36-2.97-16.64-5.44-24.69-7.46-24.29-26.86-43.16-48.3-55.79-3.95-2.32-8-4.35-12.2-6.16-3.28-1.41-7.75.24-10.13,2.59-2.51,2.46-3.93,6.64-2.76,10.09.06.17.12.33.17.5,1.82,5.36,6.97,8.9,12.72,7.37,5.2-1.38,9.2-7.36,7.37-12.73Z"/>
      </g>
      <path class="st45" d="M207.53,25.27l-.17-.5s42.53,18.28,53.53,55.4c11,37.11,3.96,55.54,3.96,55.54,0,0-3.89-2.19-8.19-3.84-4.3-1.66-13.86-2.81-13.86-2.81,0,0,8.12-71.63-35.26-103.79Z"/>
      <path class="st54" d="M254.96,80.12c-10.37-35.48-44.21-52.46-47.43-54.85l-.17-.5s42.53,18.28,53.53,55.4c11,37.11,3.96,55.54,3.96,55.54,0,0-2.25-1.26-5.21-2.6,1.47-6.22,3.85-23.8-4.68-53Z"/>
    </g>
  </g>
  <path class="st40" d="M159.75,10.39c-99.67-.84-88.26,117.63-88.26,117.63,0,0,35.09-4.04,87.29-3.59,52.19.44,87.21,5.07,87.21,5.07,0,0,13.42-118.26-86.24-119.11Z"/>
  <path d="M159.84,0c-11.95-.09-24.19,1.36-35.53,5.28-10.34,3.58-19.66,8.86-27.98,15.98-13.85,11.84-22.91,28.52-28.37,45.69-4.47,14.07-6.58,29.01-7.14,43.75-.21,5.72-.27,11.54.28,17.24.28,2.86.9,5.26,2.98,7.38,1.73,1.76,4.75,3.4,7.33,3.11,17.31-1.99,34.83-2.73,52.23-3.23,33.03-.97,66.15-.24,99.09,2.41,7.73.62,15.48,1.29,23.17,2.31,2.57.33,5.62-1.25,7.38-2.99,2.12-2.09,2.79-4.46,3.11-7.32.72-6.37.72-12.87.52-19.26-.46-15.02-2.56-30.24-7.19-44.56-5.58-17.26-14.91-33.88-29.14-45.47-8.14-6.63-17.06-11.6-27.01-15.02C182.81,1.59,171.18.12,159.84,0c-5.67-.06-10.43,4.64-10.48,10.3-.05,5.67,4.64,10.43,10.31,10.49,4.94.04,9.87.38,14.76,1.07-.92-.13-1.84-.27-2.76-.39,7.56,1.08,14.99,3.03,22.01,6.06-.83-.36-1.65-.72-2.48-1.07,5.65,2.46,10.98,5.61,15.83,9.42-.7-.55-1.4-1.1-2.09-1.64,4.91,3.88,9.28,8.39,13.06,13.38-.53-.71-1.07-1.41-1.6-2.12,4.62,6.13,8.33,12.9,11.27,19.98-.34-.83-.69-1.66-1.02-2.5,4.46,10.84,7.13,22.32,8.59,33.93-.12-.92-.23-1.85-.35-2.77,1.3,10.46,1.69,21.07,1.02,31.58-.08,1.24-.16,2.48-.3,3.71,3.49-3.43,6.99-6.87,10.48-10.3-17.28-2.28-34.77-3.32-52.17-4.12-33-1.53-66.13-1.35-99.11.73-7.74.49-15.5,1.03-23.21,1.91,3.44,3.49,6.87,6.98,10.31,10.48-.62-6.38-.5-12.88-.19-19.27.25-5.35.76-10.7,1.51-16-.14.92-.27,1.84-.4,2.76,1.66-11.57,4.53-23.02,9.17-33.77-.36.82-.72,1.65-1.07,2.48,3.07-7.04,6.88-13.74,11.61-19.79-.54.7-1.1,1.4-1.64,2.1,3.87-4.92,8.31-9.36,13.29-13.15-.71.53-1.41,1.07-2.12,1.6,4.92-3.72,10.3-6.78,15.98-9.14-.83.35-1.66.69-2.49,1.03,7.08-2.91,14.53-4.72,22.11-5.68-.92.12-1.85.23-2.77.35,4.91-.6,9.84-.85,14.78-.82,5.66.04,10.43-4.64,10.48-10.31.05-5.66-4.64-10.45-10.3-10.48Z"/>
  <path class="st45" d="M159.75,10.39c-99.67-.84-88.26,117.63-88.26,117.63,0,0,35.09-4.04,87.29-3.59,52.19.44,87.21,5.07,87.21,5.07,0,0,13.42-118.26-86.24-119.11Z"/>
  <path class="st29" d="M159.7,15.69c77.54.66,86.62,72.39,86.84,104.2.68-28.2-4.58-108.8-86.8-109.5-82.22-.7-88.84,79.81-88.65,108.01.76-31.8,11.06-103.37,88.6-102.72Z"/>
  <path class="st54" d="M246.04,123.17s-35.02-4.63-87.21-5.07c-52.19-.44-87.28,3.6-87.28,3.6,0,0-.33-3.43-.39-9.11-.25,9.38.33,15.45.33,15.45,0,0,35.09-4.04,87.29-3.59,52.19.44,87.21,5.07,87.21,5.07,0,0,.69-6.06.59-15.44-.15,5.68-.55,9.11-.55,9.11Z"/>
  <g>
    <g>
      <path class="st40" d="M159.3,65.03c-27.5-.23-36.33,23.4-36.33,23.4l36.09.31h.04l36.09.31s-8.39-23.78-35.9-24.01Z"/>
      <path d="M159.39,54.64c-13.35-.05-26.27,4.81-35.66,14.4-4.62,4.71-8.43,10.36-10.75,16.54-.95,2.51-.31,5.77.98,8.02,1.83,3.18,5.27,5.19,8.93,5.23,12.3.1,24.61.21,36.91.31,11.78.1,23.55.2,35.31.3,2.75.02,5.43-1.06,7.38-2.98,2.48-2.44,3.97-6.68,2.76-10.09-2.19-6.17-5.85-11.72-10.27-16.53-9.13-9.92-22.24-15.02-35.59-15.2-5.67-.07-10.43,4.66-10.48,10.31-.05,5.69,4.64,10.41,10.3,10.48,2,.02,3.98.17,5.95.44-.92-.13-1.84-.26-2.76-.4,3.35.5,6.6,1.38,9.71,2.7-.83-.36-1.65-.71-2.47-1.07,2.96,1.29,5.71,2.94,8.25,4.93-.7-.55-1.39-1.1-2.09-1.64,2.6,2.07,4.91,4.47,6.93,7.11-.53-.71-1.07-1.41-1.61-2.12,1.92,2.55,3.61,5.31,4.83,8.26-.34-.83-.68-1.66-1.02-2.49.07.19.16.38.22.57,3.38-4.36,6.76-8.71,10.13-13.08-12.3-.1-24.6-.21-36.91-.31-11.77-.1-23.54-.2-35.32-.3,3.31,4.42,6.61,8.83,9.91,13.25.07-.19.16-.38.23-.57-.35.82-.71,1.65-1.07,2.47,1.28-2.94,3.02-5.67,4.98-8.18-.55.7-1.1,1.39-1.65,2.1,2.07-2.62,4.42-4.96,7.06-6.99-.7.53-1.41,1.07-2.12,1.6,2.58-1.95,5.37-3.55,8.35-4.79-.83.34-1.66.68-2.49,1.02,3.14-1.26,6.4-2.09,9.75-2.53-.92.11-1.84.23-2.76.35,1.98-.24,3.96-.35,5.95-.34,5.66.02,10.44-4.62,10.48-10.3.05-5.65-4.64-10.46-10.31-10.49Z"/>
    </g>
    <path class="st37" d="M159.3,65.03c-27.5-.23-36.33,23.4-36.33,23.4l36.09.31h.04l36.09.31s-8.39-23.78-35.9-24.01Z"/>
    <path class="st42" d="M159.25,71.5c18.64.16,29.68,9.7,35.6,17.54h.34s-8.39-23.78-35.9-24.01c-27.5-.23-36.33,23.4-36.33,23.4h.36c6.07-7.74,17.27-17.09,35.92-16.93Z"/>
  </g>
  <g>
    <path class="st18" d="M197.2,28.84c8.56,3.97,14.38,9.59,13.01,12.54-1.37,2.95-9.42,2.12-17.98-1.85-8.56-3.97-14.38-9.59-13.01-12.55,1.37-2.95,9.42-2.12,17.98,1.85Z"/>
    <path class="st18" d="M217.37,44.69c-.01,1.48-1.22,2.68-2.71,2.67-1.48-.02-2.67-1.23-2.66-2.71.01-1.49,1.22-2.68,2.71-2.67,1.49.02,2.68,1.23,2.66,2.71Z"/>
  </g>
  <g>
    <g>
      <g>
        <path class="st40" d="M185,98.24l-61.22-.52s-.25,23.92-.2,23.92l61.22.52c6.6.05,12-5.25,12.06-11.86s-5.25-12.01-11.86-12.06Z"/>
        <path d="M185.09,87.84c-14.52-.12-29.05-.24-43.57-.37-5.89-.05-11.78-.1-17.66-.15-4.5-.03-8.99,3.08-10.09,7.55-.5,2.05-.42,4.14-.44,6.23-.04,2.78-.06,5.56-.08,8.34-.03,2.81-.05,5.62-.06,8.43-.01,2.14-.14,4.34.34,6.45,1.03,4.49,5.47,7.68,9.96,7.72,14.52.12,29.05.25,43.57.37,5.83.05,11.65.1,17.47.14,8.23.07,16.82-4.6,20.29-12.28,2.38-5.25,3.27-10.97,1.47-16.58-1.71-5.33-5.18-9.75-9.94-12.7-3.34-2.06-7.37-3.05-11.25-3.15-5.67-.14-10.44,4.72-10.49,10.3-.05,5.74,4.64,10.34,10.31,10.48.55.02,1.08.06,1.62.13-.92-.13-1.84-.27-2.76-.39,1.04.17,2.04.45,3.03.85-.83-.36-1.65-.71-2.48-1.07.95.43,1.82.95,2.65,1.58-.7-.54-1.4-1.09-2.1-1.64.8.65,1.51,1.37,2.14,2.17-.54-.71-1.07-1.41-1.61-2.12.61.83,1.12,1.71,1.53,2.67-.34-.83-.68-1.66-1.03-2.49.39.99.66,1.99.81,3.04-.12-.92-.23-1.85-.35-2.77.12,1.09.11,2.15-.03,3.24.13-.92.26-1.84.4-2.76-.17,1.05-.45,2.04-.86,3.03.36-.83.71-1.65,1.07-2.48-.43.95-.95,1.81-1.57,2.64.55-.69,1.1-1.39,1.64-2.09-.65.8-1.37,1.51-2.18,2.14.7-.54,1.41-1.07,2.12-1.61-.84.62-1.71,1.12-2.67,1.53.83-.34,1.66-.68,2.49-1.02-.99.38-1.99.65-3.04.8.92-.12,1.84-.23,2.77-.35-1.74.19-3.52.07-5.27.06-3.44-.03-6.89-.06-10.33-.09-9.5-.08-19-.16-28.5-.24-6.25-.05-12.5-.11-18.75-.16,3.32,2.57,6.64,5.15,9.96,7.72h0c.11.92.23,1.84.35,2.77-.28-3.9.03-7.91.06-11.81.03-3.99-.21-8.11.14-12.1-.13.92-.26,1.84-.39,2.76t0,0c-3.37,2.52-6.73,5.03-10.09,7.55,14.52.12,29.05.24,43.57.37,5.89.05,11.77.1,17.66.15,5.67.05,10.43-4.64,10.48-10.3.05-5.67-4.64-10.44-10.3-10.49Z"/>
      </g>
      <path class="st45" d="M185,98.24l-61.22-.52s-.25,23.92-.2,23.92l61.22.52c6.6.05,12-5.25,12.06-11.86s-5.25-12.01-11.86-12.06Z"/>
      <path class="st29" d="M123.73,102.76l61.22.52c5.74.04,10.5,4.13,11.61,9.53.18-.81.28-1.65.29-2.52.06-6.6-5.25-12.01-11.86-12.06l-61.22-.52s-.1,7.79-.16,14.48c.05-5.03.09-9.44.11-9.44Z"/>
      <path class="st54" d="M123.61,116.59l61.22.52c5.74.04,10.57-3.96,11.77-9.34.17.81.26,1.66.25,2.52-.06,6.6-5.46,11.91-12.06,11.86l-61.22-.52s.03-7.79.09-14.48c-.04,5.03-.07,9.44-.05,9.44Z"/>
    </g>
    <g>
      <g>
        <g>
          <path d="M163,109.89c-.01,1.51-1.26,2.74-2.77,2.72-1.52-.01-2.74-1.25-2.73-2.76.01-1.53,1.25-2.74,2.77-2.73,1.52.02,2.74,1.25,2.73,2.78Z"/>
          <path d="M157.8,109.85c.17-.89.19-1.06.05-.52.13-.52.39-.95.78-1.31-.39.36-.25.27.4-.28.24-.1.48-.19.72-.28-.54.14-.37.12.51-.04.88.18,1.05.19.52.05.51.13.95.39,1.31.78-.37-.39-.28-.25.28.4.1.24.19.48.29.73-.14-.54-.13-.37.04.51-.18.88-.19,1.05-.06.51-.13.52-.39.95-.77,1.32.39-.37.25-.28-.4.28-.24.1-.48.19-.73.28.54-.13.37-.12-.51.04-.88-.17-1.05-.19-.51-.05-.52-.13-.95-.39-1.31-.78.36.39.27.25-.28-.4-.09-.24-.19-.48-.28-.72.13.54.12.37-.04-.51.13,2.82,2.2,5.21,5.15,5.23,2.72.02,5.37-2.32,5.24-5.15-.21-4.49-3.39-7.73-7.88-8.01-4.47-.28-7.75,3.76-8.01,7.88-.28,4.47,3.75,7.76,7.88,8.01,4.48.28,7.75-3.76,8.02-7.88.18-2.83-2.44-5.22-5.16-5.24-2.94-.03-5.07,2.32-5.24,5.16Z"/>
        </g>
        <path class="st56" d="M163,109.89c-.01,1.51-1.26,2.74-2.77,2.72-1.52-.01-2.74-1.25-2.73-2.76.01-1.53,1.25-2.74,2.77-2.73,1.52.02,2.74,1.25,2.73,2.78Z"/>
        <path class="st55" d="M158.29,109.85c.01-1.39,1.04-2.52,2.38-2.7-.13-.02-.26-.03-.39-.03-1.52,0-2.76,1.21-2.77,2.73-.01,1.51,1.21,2.75,2.73,2.76.14,0,.27,0,.39-.02-1.33-.2-2.34-1.36-2.33-2.74Z"/>
        <path class="st34" d="M162.21,109.88c.01-1.38-1-2.54-2.33-2.74.13-.02.26-.03.39-.03,1.52.02,2.74,1.25,2.73,2.78-.01,1.51-1.26,2.74-2.77,2.72-.13,0-.26-.01-.39-.03,1.33-.18,2.36-1.31,2.38-2.7Z"/>
      </g>
      <g>
        <g>
          <g>
            <path d="M140.29,109.69c-.01,1.52-1.26,2.74-2.78,2.72-1.52-.01-2.73-1.25-2.72-2.77,0-1.52,1.25-2.73,2.77-2.72,1.52.01,2.74,1.26,2.73,2.77Z"/>
            <path d="M135.09,109.65c.18-.88.19-1.06.05-.52.13-.51.39-.95.78-1.31-.39.37-.25.28.4-.28.24-.1.48-.19.73-.28-.54.13-.37.12.51-.05.88.18,1.05.2.51.05.51.13.95.39,1.32.78-.37-.39-.28-.25.27.4.09.24.19.48.29.73-.14-.54-.12-.38.04.51-.18.88-.19,1.05-.06.51-.13.52-.39.96-.78,1.31.39-.37.25-.28-.4.28-.25.09-.49.18-.73.28.54-.14.37-.12-.51.04-.89-.18-1.05-.19-.51-.05-.52-.13-.96-.39-1.32-.78.37.39.27.26-.28-.4-.09-.25-.19-.48-.28-.72.13.54.12.36-.04-.51.12,2.83,2.21,5.21,5.16,5.24,2.72.02,5.37-2.32,5.24-5.16-.21-4.49-3.39-7.73-7.88-8.02-4.47-.27-7.76,3.76-8.01,7.88-.28,4.47,3.75,7.76,7.88,8.01,4.48.27,7.76-3.76,8.02-7.88.18-2.83-2.44-5.22-5.16-5.24-2.94-.02-5.06,2.33-5.24,5.15Z"/>
          </g>
          <path class="st56" d="M140.29,109.69c-.01,1.52-1.26,2.74-2.78,2.72-1.52-.01-2.73-1.25-2.72-2.77,0-1.52,1.25-2.73,2.77-2.72,1.52.01,2.74,1.26,2.73,2.77Z"/>
          <path class="st55" d="M135.58,109.66c.01-1.39,1.04-2.52,2.37-2.7-.13-.02-.25-.03-.39-.04-1.52,0-2.76,1.21-2.77,2.72-.01,1.52,1.2,2.76,2.72,2.77.13,0,.27,0,.39-.02-1.32-.2-2.34-1.35-2.33-2.74Z"/>
          <path class="st34" d="M139.5,109.69c0-1.39-1.01-2.54-2.33-2.74.13-.02.26-.03.39-.03,1.52.01,2.74,1.26,2.73,2.77-.01,1.52-1.26,2.74-2.78,2.72-.13,0-.26-.01-.39-.03,1.33-.18,2.36-1.32,2.38-2.7Z"/>
        </g>
        <g>
          <g>
            <path d="M185.7,110.08c-.01,1.52-1.26,2.74-2.77,2.72-1.52-.01-2.74-1.25-2.72-2.77.01-1.52,1.25-2.74,2.77-2.72,1.52.01,2.74,1.25,2.73,2.77Z"/>
            <path d="M180.51,110.03c.18-.88.19-1.05.05-.51.13-.52.39-.96.79-1.32-.39.37-.25.27.4-.28.24-.1.48-.19.72-.28-.54.13-.37.12.51-.04.88.17,1.05.19.51.05.51.13.95.39,1.32.78-.37-.39-.28-.25.27.4.1.24.19.48.29.72-.14-.54-.12-.36.03.52-.17.88-.19,1.05-.05.51-.13.52-.39.95-.78,1.32.39-.37.26-.28-.4.28-.24.09-.49.19-.73.28.54-.13.36-.12-.51.04-.88-.17-1.06-.19-.51-.05-.52-.13-.96-.39-1.32-.79.37.39.28.26-.28-.4-.09-.24-.19-.49-.28-.73.12.54.11.37-.05-.51.13,2.83,2.21,5.22,5.15,5.25,2.72.02,5.37-2.32,5.25-5.16-.2-4.49-3.39-7.73-7.88-8.02-4.47-.27-7.76,3.76-8.01,7.88-.28,4.48,3.75,7.76,7.88,8.02,4.47.28,7.75-3.75,8.01-7.88.17-2.83-2.44-5.22-5.16-5.24-2.95-.03-5.06,2.32-5.24,5.15Z"/>
          </g>
          <path class="st56" d="M185.7,110.08c-.01,1.52-1.26,2.74-2.77,2.72-1.52-.01-2.74-1.25-2.72-2.77.01-1.52,1.25-2.74,2.77-2.72,1.52.01,2.74,1.25,2.73,2.77Z"/>
          <path class="st55" d="M180.99,110.04c0-1.38,1.04-2.52,2.38-2.7-.13-.02-.26-.04-.4-.04-1.52-.01-2.75,1.21-2.77,2.72-.01,1.52,1.21,2.76,2.72,2.77.14,0,.27,0,.39-.02-1.33-.2-2.34-1.36-2.33-2.74Z"/>
          <path class="st34" d="M184.92,110.08c.01-1.38-1-2.54-2.33-2.74.12-.01.25-.03.39-.03,1.52.01,2.74,1.25,2.73,2.77-.01,1.52-1.26,2.74-2.77,2.72-.13,0-.26-.01-.39-.04,1.33-.18,2.37-1.31,2.38-2.7Z"/>
        </g>
      </g>
    </g>
  </g>
  <rect x="129.64" y="26.92" width="59.6" height="10.3" transform="translate(126.01 191.23) rotate(-89.51)"/>
  <g>
    <g>
      <g>
        <g>
          <g>
            <g>
              <path class="st13" d="M87.34,249.03c2.12,0,4.23-.01,6.35,0,.95,0,1.65-.32,1.79-1.33.12-.83-.65-1.51-1.75-1.51-4.31-.03-8.63-.02-12.95,0-.94,0-1.71.43-1.71,1.42,0,1.07.8,1.43,1.8,1.43,2.16-.02,4.32,0,6.48,0Z"/>
              <path class="st14" d="M87.34,245.1c2.12,0,4.23,0,6.35,0,.95,0,1.65-.32,1.79-1.33.12-.83-.65-1.51-1.75-1.51-4.31-.02-8.63-.02-12.95,0-.94,0-1.71.43-1.71,1.42,0,1.07.8,1.44,1.8,1.43,2.16-.02,4.32,0,6.48,0Z"/>
              <path class="st14" d="M92.74,250.27c-.5-.04-7.6,0-10.78,0-.08,1.5.62,2.63,2,2.74,2.18.18,4.39.17,6.57,0,1.32-.1,2.03-1.22,2.21-2.75Z"/>
            </g>
            <g>
              <path class="st6" d="M87.37,249.03c2.12,0,4.23-.01,6.35,0,.94,0,1.64-.32,1.78-1.33.12-.83-.65-1.51-1.75-1.51-4.32-.03-8.63-.02-12.95,0-.94,0-1.71.43-1.72,1.42,0,1.07.8,1.43,1.8,1.43,2.16-.02,4.32,0,6.48,0Z"/>
              <path class="st3" d="M87.37,245.1c2.12,0,4.23,0,6.35,0,.94,0,1.64-.32,1.78-1.33.12-.83-.65-1.51-1.75-1.51-4.32-.02-8.63-.02-12.95,0-.94,0-1.71.43-1.72,1.42,0,1.07.8,1.44,1.8,1.43,2.16-.02,4.32,0,6.48,0Z"/>
              <path class="st3" d="M92.77,250.27c-.5-.04-7.6,0-10.78,0-.07,1.5.62,2.63,2.01,2.74,2.18.18,4.39.17,6.56,0,1.33-.1,2.03-1.22,2.21-2.75Z"/>
            </g>
          </g>
          <g>
            <path class="st13" d="M87.34,249.05c2.12,0,4.23-.01,6.35,0,.95.01,1.65-.32,1.79-1.32.11-.84-.65-1.51-1.75-1.52-4.32-.02-8.63-.02-12.95,0-.94,0-1.71.43-1.72,1.42,0,1.07.8,1.43,1.8,1.42,2.16-.01,4.31,0,6.47,0Z"/>
            <path class="st14" d="M87.34,245.11c2.12,0,4.23-.01,6.35,0,.95,0,1.65-.32,1.79-1.33.11-.82-.65-1.51-1.75-1.51-4.32-.02-8.63-.01-12.95,0-.94,0-1.71.44-1.72,1.43,0,1.07.8,1.43,1.8,1.43,2.16-.02,4.31,0,6.47,0Z"/>
            <path class="st14" d="M92.73,250.27c-.49-.04-7.6,0-10.77,0-.08,1.5.61,2.64,2.01,2.75,2.18.17,4.39.17,6.56,0,1.33-.1,2.03-1.22,2.21-2.75Z"/>
          </g>
          <g>
            <g>
              <g>
                <path class="st10" d="M87.37,249.05c2.12,0,4.23-.01,6.35,0,.95.01,1.65-.32,1.79-1.32.11-.84-.65-1.51-1.75-1.52-4.32-.02-8.63-.02-12.95,0-.94,0-1.71.43-1.71,1.42,0,1.07.8,1.43,1.8,1.42,2.16-.01,4.32,0,6.48,0Z"/>
                <path d="M87.37,255.51c2.12,0,4.23,0,6.35,0,3.69.02,7.22-2.35,8.02-6.08.91-4.22-1.6-8.48-5.91-9.43-2.57-.56-5.44-.27-8.05-.27-2.32,0-4.65,0-6.97,0-2.14,0-4.21.77-5.78,2.24-1.67,1.56-2.17,3.46-2.4,5.65-.22,2.05.98,4.16,2.31,5.61,1.39,1.51,3.63,2.21,5.62,2.27,2.27.08,4.55,0,6.81,0,3.52,0,6.46-2.94,6.46-6.46s-2.94-6.46-6.46-6.46c-1.16,0-2.33,0-3.49,0h-1.99c-.33,0-.66,0-1,0,.76.02,1.45.24,2.1.65,3.76,3.34,3.39,6.43-1.13,9.28-1.22.12-1.41.17-.55.14.66,0,1.32,0,1.99,0h3.98c1.33,0,2.66,0,3.99,0,.67,0,1.33,0,1.99,0,.85.02.66-.02-.54-.13-2.82-1.12-3.99-3.2-3.5-6.22.62-1.81,1.75-3,3.38-3.54,1.3-.14,1.5-.21.64-.19-.66,0-1.3,0-1.96,0-1.3,0-2.6,0-3.91,0-3.52,0-6.46,2.94-6.46,6.46s2.94,6.46,6.46,6.46Z"/>
              </g>
              <g>
                <path class="st10" d="M87.37,245.11c2.12,0,4.23-.01,6.35,0,.95,0,1.65-.32,1.79-1.33.11-.82-.65-1.51-1.75-1.51-4.32-.02-8.63-.01-12.95,0-.94,0-1.71.44-1.71,1.43,0,1.07.8,1.43,1.8,1.43,2.16-.02,4.32,0,6.48,0Z"/>
                <path d="M87.37,251.58c2.12,0,4.23,0,6.35,0,3.69.02,7.22-2.35,8.02-6.08.91-4.22-1.6-8.49-5.91-9.43-2.57-.56-5.44-.27-8.05-.27-2.32,0-4.65,0-6.97.01-2.14,0-4.21.76-5.78,2.23-1.67,1.56-2.17,3.46-2.4,5.65-.22,2.06.98,4.17,2.31,5.61,1.39,1.5,3.63,2.19,5.62,2.27,2.27.07,4.55,0,6.81,0,3.52,0,6.46-2.94,6.46-6.46s-2.94-6.46-6.46-6.46c-1.16,0-2.33,0-3.49,0-.66,0-1.33,0-1.99,0-.33,0-.66,0-1,0,.76.02,1.45.24,2.1.64,3.76,3.34,3.39,6.44-1.13,9.28-1.22.12-1.41.17-.55.15.66,0,1.32,0,1.99,0,1.33,0,2.66,0,3.98,0s2.66,0,3.99,0c.67,0,1.33,0,1.99,0,.85.03.66-.02-.54-.13-2.82-1.12-3.99-3.19-3.5-6.22.62-1.81,1.75-2.99,3.38-3.54,1.29-.14,1.5-.21.64-.18-.66,0-1.3,0-1.96,0-1.3,0-2.6,0-3.91,0-3.52,0-6.46,2.94-6.46,6.46s2.94,6.46,6.46,6.46Z"/>
              </g>
              <g>
                <path class="st10" d="M92.76,250.27c-.49-.04-7.6,0-10.78,0-.08,1.5.61,2.64,2,2.75,2.18.17,4.39.17,6.57,0,1.33-.1,2.03-1.22,2.21-2.75Z"/>
                <path d="M92.76,243.81c-3.57-.19-7.2,0-10.78,0s-6.42,2.94-6.46,6.46c-.04,3.21,1.36,6.11,4.05,7.9,2.17,1.44,4.94,1.41,7.45,1.44,2.68.03,5.22-.12,7.68-1.26,2.3-1.07,3.94-3.95,4.3-6.37.52-3.48-.81-6.93-4.51-7.94-3.09-.85-7.43,1.02-7.95,4.51-.05.37-.13.71-.23,1.07.33-1.09.94-1.81,1.87-2.43.33-.14.66-.29.99-.44,1.06-.14,1.19-.19.39-.12-.67.04-1.35.05-2.02.06-1.01.01-2.02-.03-3.03-.09,1.04.06,1.93.53,2.7,1.23.52.49.89,1.09,1.11,1.77.11,1.17.16,1.38.14.67-2.15,2.15-4.31,4.3-6.46,6.46,3.58,0,7.21-.19,10.78,0,3.52.19,6.46-3.08,6.46-6.46,0-3.67-2.94-6.28-6.46-6.46Z"/>
              </g>
            </g>
            <g>
              <path class="st12" d="M87.37,249.05c2.12,0,4.23-.01,6.35,0,.95.01,1.65-.32,1.79-1.32.11-.84-.65-1.51-1.75-1.52-4.32-.02-8.63-.02-12.95,0-.94,0-1.71.43-1.71,1.42,0,1.07.8,1.43,1.8,1.42,2.16-.01,4.32,0,6.48,0Z"/>
              <path class="st12" d="M87.37,245.1c2.12,0,4.23,0,6.35,0,.95,0,1.65-.32,1.79-1.33.11-.83-.65-1.51-1.75-1.51-4.32-.02-8.63-.02-12.95,0-.94,0-1.71.43-1.71,1.41,0,1.08.8,1.43,1.8,1.43,2.16-.01,4.32,0,6.48,0Z"/>
              <path class="st12" d="M92.76,250.27c-.49-.04-7.6,0-10.78,0-.08,1.5.61,2.64,2,2.75,2.18.17,4.39.17,6.57,0,1.33-.1,2.03-1.23,2.21-2.75Z"/>
            </g>
          </g>
          <path class="st6" d="M88.72,249.03l-2.23-2.85c2.43,0,4.85,0,7.29.01,1.11,0,1.87.68,1.75,1.52-.14,1-.84,1.33-1.78,1.32-1.67-.01-3.35,0-5.02,0Z"/>
          <path class="st6" d="M89.63,250.27c1.65,0,2.92,0,3.12,0-.13,1.09-.52,1.97-1.21,2.42l-1.92-2.43Z"/>
          <path class="st4" d="M91.6,252.67c-2.13-.13-4.05-1.03-5.5-2.4,3.08-.01,6.34-.02,6.66,0-.13,1.06-.5,1.93-1.17,2.39Z"/>
          <path class="st4" d="M87.41,249.04h-2.33c-.61-.84-1.08-1.81-1.36-2.84,3.36-.01,6.72-.01,10.08,0,1.1,0,1.86.68,1.75,1.52-.14,1-.84,1.33-1.79,1.32-2.12-.01-4.23,0-6.35,0Z"/>
          <path class="st4" d="M87.42,245.1h-3.91c-.05-.4-.08-.8-.08-1.21,0-.55.06-1.1.16-1.63,3.41-.01,6.82-.01,10.23,0,1.1,0,1.86.68,1.75,1.51-.14,1.01-.84,1.33-1.79,1.33-2.12-.01-4.23,0-6.35,0Z"/>
        </g>
        <g>
          <g>
            <path class="st38" d="M65.9,213.24c0-11.9,9.65-21.54,21.54-21.54s21.54,9.64,21.54,21.54c0,7.05-3.39,13.31-8.63,17.24,0,0-3.02,2.81-3.74,4.42-.51,1.14-.82,2.28-.94,2.83-.04.65-.57,1.17-1.24,1.17h-13.91c-.54,0-.99-.34-1.17-.81h0c-.03-.1-.06-.21-.07-.32-.13-.54-.43-1.69-.96-2.87-.66-1.47-3.26-3.94-3.71-4.36-5.28-3.93-8.71-10.21-8.71-17.29Z"/>
            <path d="M72.36,213.24c0-.73.04-1.44.11-2.17.12-1.34-.25,1.64-.04.32.05-.35.12-.69.2-1.03.14-.68.33-1.35.54-2.02.1-.33.22-.65.34-.97.39-1.07-.71,1.55.01-.04.57-1.24,1.29-2.4,2.08-3.5.75-1.04-.99,1.23-.18.24.22-.27.44-.51.66-.76.53-.59,1.1-1.13,1.69-1.66.25-.22.51-.43.78-.65-1.55,1.27-.6.46-.23.2.55-.39,1.13-.75,1.71-1.09.59-.35,1.2-.65,1.82-.93,1.18-.54-1.5.6-.28.13.43-.17.87-.3,1.31-.44.66-.21,1.34-.36,2.03-.51.34-.08.69-.13,1.04-.19-2.07.33-.77.11-.31.08.72-.07,1.44-.08,2.16-.08.37,0,.72.02,1.08.04.5.04,2.26.28.05-.04,1.39.2,2.73.56,4.05,1.02.42.15,1.62.65-.27-.14.32.13.63.28.94.43.72.34,1.4.74,2.08,1.16.45.28,2.36,1.75.61.36.53.42,1.03.88,1.52,1.35.48.47.94.97,1.38,1.47.29.33,1.06,1.35-.17-.25.28.36.53.73.79,1.11.37.57.72,1.15,1.03,1.76.26.48,1.2,2.71.35.62.57,1.4.95,2.86,1.21,4.35.23,1.32-.19-1.66-.05-.32.04.36.06.72.08,1.07.04.77.03,1.55,0,2.33-.02.4-.06.81-.1,1.21.2-1.95.06-.55-.01-.12-.16.91-.42,1.8-.7,2.69-.13.4-.83,2.15-.04.28-.25.6-.55,1.18-.85,1.75-.24.45-.51.89-.79,1.33-.25.39-1.61,2.18-.34.57-.72.91-1.52,1.73-2.37,2.51-.19.17-.38.33-.58.5-.1.08-.2.16-.3.24,1.13-.88.94-.71-.6.47-.12.11-.24.23-.35.33-1.55,1.49-3.04,3.15-4.19,4.98-.79,1.27-1.28,2.84-1.69,4.28-.83,2.91,7.25-3.05,4.57-3.05h-13.14c-2.37,0,2.6-.21,3.93,2.38-1.02-1.99-3.4-3.2-5.58-3.2h0c2.08,1.59,4.16,3.17,6.23,4.74-.38-1.5-.88-2.86-1.5-4.29-.59-1.39-1.6-2.55-2.57-3.7-.63-.74-1.33-1.44-2.02-2.11-.57-.57-2.69-2.16-.91-.76-.6-.47-1.16-.98-1.7-1.51-.46-.44-.88-.91-1.29-1.39-.16-.19-.32-.38-.48-.59,1.19,1.48.34.43.11.09-.73-1.04-1.34-2.17-1.86-3.33.87,1.9-.02-.15-.18-.62-.21-.61-.36-1.24-.51-1.88-.11-.48-.42-2.78-.16-.62-.1-.81-.13-1.61-.14-2.42-.03-3.53-2.91-6.46-6.46-6.46s-6.49,2.93-6.46,6.46c.06,6.93,2.6,13.21,7.01,18.5.81.97,1.73,1.85,2.69,2.66.2.16.39.32.59.47.43.33.87.67,1.31,1.01-.94-.77-1.22-.97-.83-.61.35.33.7.68,1.04,1.03.38.39.76.8,1.11,1.21,1.15,1.3-.73-1.14.12.2.09.14.17.29.24.44-.72-1.46-.14-.23-.03.13.17.5.28,1.01.4,1.52.69,2.78,3.41,4.74,6.23,4.74h0c-1.86-1.07-3.72-2.13-5.58-3.2,1.63,3.19,4.92,4.02,8.16,4.02h12.44c3.16,0,6.86-2.29,7.47-5.61.12-.65.31-1.27.52-1.89.45-1.36-.48.95-.06.09.12-.24.27-.46.42-.68.66-.97-1.03,1.28-.25.34.21-.25.42-.49.64-.73.43-.47.88-.92,1.33-1.37.42-.42,1.32-1.1-.52.31.95-.73,1.89-1.45,2.77-2.26,1.54-1.41,2.83-3.1,4.02-4.79,4.5-6.36,5.62-14.71,3.92-22.19-2.97-13.16-16.33-22.64-29.71-21.2-6.87.75-13.26,3.68-17.99,8.79-4.8,5.19-7.44,12.01-7.5,19.07-.03,3.52,2.96,6.46,6.46,6.46s6.43-2.94,6.46-6.46Z"/>
          </g>
          <path class="st39" d="M65.9,213.24c0-11.9,9.65-21.54,21.54-21.54s21.54,9.64,21.54,21.54c0,7.05-3.39,13.31-8.63,17.24,0,0-3.02,2.81-3.74,4.42-.51,1.14-.82,2.28-.94,2.83-.04.65-.57,1.17-1.24,1.17h-13.91c-.54,0-.99-.34-1.17-.81h0c-.03-.1-.06-.21-.07-.32-.13-.54-.43-1.69-.96-2.87-.66-1.47-3.26-3.94-3.71-4.36-5.28-3.93-8.71-10.21-8.71-17.29Z"/>
          <path class="st43" d="M91.65,237.73c.13-.55.43-1.69.95-2.83.72-1.62,3.75-4.42,3.75-4.42,5.24-3.93,8.62-10.19,8.62-17.24,0-11.22-8.58-20.43-19.53-21.44.66-.06,1.32-.1,2-.1,11.89,0,21.54,9.64,21.54,21.54,0,7.05-3.39,13.31-8.63,17.24,0,0-3.02,2.81-3.74,4.42-.51,1.14-.82,2.28-.94,2.83-.04.65-.57,1.17-1.24,1.17h-4.01c.66,0,1.2-.52,1.24-1.17Z"/>
          <path class="st26" d="M83.23,237.73c-.14-.55-.44-1.69-.95-2.83-.72-1.62-3.74-4.42-3.74-4.42-5.24-3.93-8.62-10.19-8.62-17.24,0-11.22,8.58-20.43,19.53-21.44-.66-.06-1.33-.1-2-.1-11.89,0-21.54,9.64-21.54,21.54,0,7.05,3.39,13.31,8.63,17.24,0,0,3.02,2.81,3.74,4.42.51,1.14.82,2.28.95,2.83.03.65.57,1.17,1.24,1.17h4.02c-.66,0-1.21-.52-1.24-1.17Z"/>
        </g>
      </g>
      <path class="st18" d="M81.63,195.2c-2.01.81-3.3,2.31-2.88,3.37.42,1.04,2.39,1.24,4.4.43,2.01-.81,3.29-2.31,2.88-3.36-.42-1.05-2.4-1.24-4.4-.43Z"/>
      <path class="st18" d="M76.45,199.28c-.17.46.07.96.52,1.12.46.17.96-.07,1.12-.53.16-.46-.07-.95-.53-1.12-.46-.16-.96.07-1.12.53Z"/>
    </g>
    <path d="M95.41,227.17c-.4-.83-1.22-1.3-2.12-1.02-.96.3-1.57,1.41-1.92,2.27-.28.68-.46,1.38-.59,2.1-.3-.17-.53-.45-.68-.82.68-.39,1.08-1.28,1.08-2.04,0-.7-.79-1.47-1.52-1.1-.68.37-.53,1.39-.44,2.02.04.23.08.46.13.7-.29-.09-.53-.43-.73-.8.18-.35.29-.74.32-1.09.04-.56-.77-1.4-1.19-.7-.3.5-.05,1.21.21,1.76-.14.2-.32.36-.52.44-.21-.08-.39-.25-.52-.45.04-.07.07-.15.1-.22.2-.47.46-1.32-.06-1.69-.64-.47-1.07.58-1,1.04.05.3.16.63.32.93-.2.37-.45.68-.75.76.17-.68.33-1.47.12-2.15-.2-.69-.96-.76-1.49-.39-.95.66-.36,2.41.61,2.97-.16.36-.39.62-.68.79-.17-.97-.46-1.93-.95-2.79-.51-.94-1.4-1.88-2.56-1.56-.98.26-1.44,1.45-1.31,2.38.16,1.1.91,1.87,1.86,2.37.76.38,1.66.58,2.49.42.35,2.64-.03,5.33-.04,7.98,0,.38.58.38.58,0,.01-2.68.35-5.36.04-8.03,0-.04-.01-.08-.02-.12.59-.25.92-.71,1.14-1.27.11,0,.23,0,.33-.04.4-.12.72-.44.95-.81.2.21.43.38.7.46.03.01.06.02.11.02h.03s.08-.01.11-.02c.27-.08.51-.25.7-.46.29.44.75.87,1.27.87.14.36.34.69.64.95.16.14.33.25.51.33-.03.25-.06.51-.09.76-.21,2.46.1,4.92.1,7.38,0,.38.59.38.59,0-.01-2.65-.34-5.3-.05-7.95,1.33.26,2.93-.47,3.74-1.4.63-.73.85-1.87.43-2.75ZM79.92,228.81c-.21-.62-.09-1.33.34-1.82.55-.61,1.31-.32,1.8.17.9.88,1.26,2.33,1.47,3.54-1.33.32-3.16-.6-3.61-1.89ZM84.85,227.07c.54-.04.25,1.43.1,2.06-.64-.5-1.08-1.99-.1-2.06ZM86.58,227.09c.14-.16.08.03.08.19-.01.12-.03.28-.09.46-.06-.19-.12-.48,0-.65ZM88.22,227.37c-.01-.08-.01-.35-.01-.35.14-.11.12.55.11.61,0,.02,0,.04-.01.06-.04-.13-.07-.24-.09-.32ZM89.89,227.1c.16-.11.43.05.54.14.17.16.16.42.15.63-.03.45-.31.95-.67,1.24-.07-.27-.13-.56-.16-.84-.04-.29-.14-.97.14-1.18ZM95.02,228.5c-.2,1.43-2.26,2.54-3.7,2.23.19-1.15.56-2.28,1.22-3.24.39-.56,1.04-1.07,1.74-.74.63.3.83,1.12.74,1.76Z"/>
  </g>
  <g>
    <g>
      <g>
        <g>
          <rect class="st40" x="202.99" y="249.17" width="19.19" height="30.4" rx="1.52" ry="1.52"/>
          <path d="M215.72,278.05c.59-5.12,7.54-4.94,4.33-4.94h-15.21c-2.85,0,4.61,6.65,4.61,4.89v-27.23c0-2.48-7.39,4.87-4.75,4.87h15.96c-5.03,0-4.94-7.46-4.94-4.57v26.98c0,3.52,2.94,6.46,6.46,6.46s6.46-2.94,6.46-6.46v-27.1c0-4.47-3.48-8.24-8.03-8.24h-16.01c-3,0-5.46,1.57-7.03,4.05-1.01,1.59-1.04,3.44-1.04,5.24v22.11c0,1.41-.12,2.88.04,4.29.51,4.43,3.68,7.63,8.28,7.63h15.56c.89,0,1.81-.08,2.64-.38,1.84-.66,3.32-1.71,4.38-3.38.87-1.38,1.03-2.63,1.21-4.21.4-3.5-3.24-6.46-6.46-6.46-3.83,0-6.06,2.97-6.46,6.46Z"/>
        </g>
        <rect class="st21" x="202.99" y="249.17" width="19.19" height="30.4" rx="1.52" ry="1.52"/>
        <path class="st5" d="M204.7,278.05v-27.36c0-.84.68-1.52,1.52-1.52h-1.71c-.84,0-1.52.68-1.52,1.52v27.36c0,.84.68,1.52,1.52,1.52h1.71c-.83,0-1.52-.68-1.52-1.52Z"/>
        <path class="st17" d="M220.47,278.05v-27.36c0-.84-.68-1.52-1.52-1.52h1.71c.84,0,1.52.68,1.52,1.52v27.36c0,.84-.68,1.52-1.52,1.52h-1.71c.84,0,1.52-.68,1.52-1.52Z"/>
      </g>
      <g>
        <g>
          <rect class="st40" x="206.74" y="252.73" width="11.69" height="3.93"/>
          <path d="M218.43,254.72h-11.69c.65.65,1.3,1.29,1.94,1.94v-3.93c-.64.65-1.29,1.29-1.94,1.94h11.69c-.64-.65-1.29-1.29-1.94-1.94v3.93c0,2.5,3.87,2.5,3.87,0v-3.93c0-1.06-.88-1.94-1.93-1.94h-11.69c-1.06,0-1.94.88-1.94,1.94v3.93c0,1.05.88,1.93,1.94,1.93h11.69c2.5,0,2.5-3.88,0-3.88Z"/>
        </g>
        <rect class="st33" x="206.74" y="252.73" width="11.69" height="3.93"/>
        <rect class="st50" x="206.74" y="252.73" width="11.69" height=".74"/>
        <rect class="st35" x="206.74" y="255.92" width="11.69" height=".75"/>
      </g>
    </g>
    <g>
      <g>
        <path class="st16" d="M218.27,269c0,3.15-2.55,5.7-5.69,5.7s-5.69-2.55-5.69-5.7,2.55-5.69,5.69-5.69,5.69,2.55,5.69,5.69Z"/>
        <path d="M216.33,269c-.07,2.1-1.65,3.69-3.75,3.75-2.11.06-3.69-1.75-3.75-3.75-.06-2.1,1.75-3.68,3.75-3.75,2.1-.07,3.69,1.75,3.75,3.75.08,2.49,3.95,2.51,3.88,0-.13-4.24-3.39-7.49-7.63-7.63-4.24-.13-7.5,3.59-7.63,7.63-.13,4.24,3.58,7.5,7.63,7.63,4.24.13,7.5-3.58,7.63-7.63.08-2.5-3.8-2.49-3.88,0Z"/>
      </g>
      <path class="st11" d="M218.27,269c0,3.15-2.55,5.7-5.69,5.7s-5.69-2.55-5.69-5.7,2.55-5.69,5.69-5.69,5.69,2.55,5.69,5.69Z"/>
      <path class="st9" d="M207.97,269c0-2.96,2.26-5.39,5.15-5.66-.18-.01-.35-.02-.53-.02-3.14,0-5.69,2.55-5.69,5.69s2.55,5.7,5.69,5.7c.18,0,.36-.02.53-.04-2.88-.27-5.15-2.7-5.15-5.66Z"/>
      <path class="st8" d="M217.2,269c0-2.96-2.27-5.39-5.16-5.66.18-.01.36-.02.54-.02,3.14,0,5.69,2.55,5.69,5.69s-2.55,5.7-5.69,5.7c-.18,0-.36-.02-.54-.04,2.89-.27,5.16-2.7,5.16-5.66Z"/>
    </g>
    <g>
      <path class="st16" d="M209.31,264.37c-.82.57-1.49,1.35-1.92,2.26l8.39,7.09c.82-.57,1.49-1.35,1.92-2.27l-8.39-7.08Z"/>
      <path d="M208.33,262.69c-1.1.82-1.99,1.74-2.62,2.97-.37.73-.38,1.77.31,2.35,2.8,2.36,5.59,4.72,8.39,7.08.62.52,1.62.85,2.35.31,1.1-.82,1.99-1.74,2.62-2.97.37-.73.38-1.77-.3-2.35-2.8-2.36-5.59-4.73-8.39-7.09-1.9-1.6-4.65,1.13-2.74,2.75,2.79,2.36,5.59,4.72,8.39,7.08-.1-.79-.2-1.56-.3-2.34-.31.61-.67,1.15-1.23,1.57.79.11,1.57.2,2.35.3-2.79-2.36-5.59-4.72-8.39-7.08.1.79.2,1.57.3,2.35.31-.61.67-1.16,1.22-1.57.85-.63,1.28-1.66.7-2.65-.49-.84-1.8-1.33-2.65-.7Z"/>
    </g>
    <path class="st9" d="M209.31,264.37c-.82.57-1.49,1.35-1.92,2.26l8.39,7.09c.82-.57,1.49-1.35,1.92-2.27l-8.39-7.08Z"/>
    <path class="st15" d="M209.27,264.37c-.39.27-.74.59-1.06.95-.34.4-.62.84-.84,1.33l.81.69c.31-.99.87-1.86,1.6-2.54l-.51-.43Z"/>
    <path class="st11" d="M215.8,273.71c.29-.19.57-.42.81-.66,0-.01.02-.02.03-.03.02-.02.05-.04.07-.06.42-.45.76-.95,1.02-1.5l-.79-.67c-.32.97-.89,1.84-1.65,2.49l.52.43Z"/>
  </g>
</svg>