<?xml version="1.0" encoding="UTF-8"?>
<svg id="Layer_1" xmlns="http://www.w3.org/2000/svg" version="1.1" viewBox="0 0 259.56 298.24">
  <!-- Generator: Adobe Illustrator 29.6.1, SVG Export Plug-In . SVG Version: 2.1.1 Build 9)  -->
  <defs>
    <style>
      .st0 {
        fill: #ffd3a4;
      }

      .st1 {
        fill: #f15a29;
      }

      .st2 {
        fill: #ffd7c3;
      }

      .st3 {
        fill: #ffce00;
      }

      .st4 {
        fill: #000002;
      }

      .st5 {
        fill: #0b0b17;
      }

      .st6 {
        fill: #ff9100;
      }

      .st7 {
        fill: #4d4f66;
      }

      .st8 {
        fill: #ffe000;
      }

      .st9 {
        fill: #fff;
      }

      .st10 {
        fill: #1f2034;
      }

      .st11 {
        fill: #fdc361;
      }

      .st12 {
        fill: #ffe861;
      }

      .st13 {
        fill: #f7941e;
      }

      .st14 {
        fill: #fde5d2;
      }

      .st15 {
        fill: #363951;
      }

      .st16 {
        fill: #5e606d;
      }

      .st17 {
        fill: #747582;
      }

      .st18 {
        fill: #e6e7e8;
      }

      .st19 {
        fill: #ff7300;
      }

      .st20 {
        fill: #fffcdc;
      }
    </style>
  </defs>
  <g>
    <g>
      <g>
        <g>
          <g>
            <g>
              <g>
                <path class="st14" d="M47.13,193.77l-3.24.05s-1.78.09-2.73.96c-.96.87-1.11,2.41-1.11,2.41v3.65h3.56l.06-2.83s.14-.28.54-.53c.39-.24.89-.26.89-.26h1.75l.28-3.45Z"/>
                <path d="M47.13,183.86c-1.04.02-2.09.03-3.13.04-1.21.02-2.42.26-3.61.47-2.48.46-4.34,1.89-6.25,3.39-2.63,2.07-4.01,6.4-4.01,9.65v3.42c0,5.41,4.51,9.92,9.91,9.92h3.56c5.5,0,9.8-4.51,9.92-9.92.02-.94.04-1.89.06-2.83-.45,1.67-.9,3.33-1.35,5.01.02-.03.03-.06.05-.08-.51.67-1.03,1.34-1.55,2,.14-.18.3-.32.49-.45-.67.52-1.33,1.03-2.01,1.55.13-.06.27-.12.41-.18-.79.33-1.58.66-2.37,1,.12-.02.23-.05.34-.07-.88.12-1.76.24-2.64.35.63-.05,1.26-.01,1.89-.01,2.62,0,5.16-1.05,7.01-2.9,1.97-1.97,2.68-4.31,2.9-7.01.09-1.14.19-2.3.28-3.45.44-5.39-4.84-9.92-9.92-9.92-2.62,0-5.16,1.05-7.01,2.9-1.97,1.97-2.68,4.31-2.9,7.01-.1,1.15-.19,2.3-.28,3.45,3.3-3.3,6.61-6.61,9.92-9.91h-1.7c-4.12,0-7.79,2.22-9.99,5.61-1.54,2.38-1.41,5.22-1.47,7.92,3.31-3.3,6.61-6.61,9.92-9.92h-3.56c3.3,3.31,6.61,6.62,9.92,9.92,0-1.21-.13-2.49,0-3.69-.12.88-.24,1.76-.36,2.64.06-.39.16-.76.3-1.14-.33.79-.67,1.58-1,2.37.16-.35.32-.64.54-.95-.52.67-1.03,1.34-1.55,2,.16-.19.33-.36.54-.5-.67.52-1.34,1.03-2.01,1.55.2-.13.41-.25.63-.34-.79.34-1.58.66-2.37,1,.48-.18.96-.29,1.48-.37-.88.12-1.76.24-2.64.35,1.18-.13,2.4-.06,3.59-.08,5.41-.07,9.92-4.45,9.92-9.92s-4.51-9.99-9.92-9.92Z"/>
              </g>
              <path class="st18" d="M47.13,193.77l-3.24.05s-1.78.09-2.73.96c-.96.87-1.11,2.41-1.11,2.41v3.65h3.56l.06-2.83s.14-.28.54-.53c.39-.24.89-.26.89-.26h1.75l.28-3.45Z"/>
            </g>
            <g>
              <g>
                <path class="st14" d="M47.13,246.58l-3.24-.04s-1.78-.08-2.73-.95c-.96-.88-1.11-2.41-1.11-2.41v-3.65h3.56l.06,2.83s.14.28.54.53c.39.25.89.26.89.26h1.75l.28,3.45Z"/>
                <path d="M47.13,236.66c-1.18-.02-2.4.05-3.59-.08.88.12,1.76.24,2.64.35-.51-.07-.99-.2-1.48-.37.79.34,1.58.66,2.37,1-.22-.09-.43-.2-.63-.34.67.52,1.34,1.03,2.01,1.55-.21-.14-.39-.3-.54-.5.52.66,1.03,1.33,1.55,2-.22-.31-.38-.6-.54-.95.33.79.67,1.58,1,2.37-.14-.38-.24-.75-.3-1.14.12.88.24,1.76.36,2.63-.14-1.2,0-2.48,0-3.69-3.31,3.31-6.62,6.62-9.92,9.92h3.56c-3.31-3.31-6.61-6.62-9.92-9.92.06,2.7-.07,5.54,1.47,7.92,2.31,3.57,5.76,5.27,9.95,5.62.57.05,1.17,0,1.75,0-3.31-3.3-6.62-6.61-9.92-9.92.09,1.15.18,2.3.28,3.45.22,2.71.93,5.04,2.9,7.02,1.86,1.85,4.4,2.9,7.01,2.9,5.08,0,10.36-4.52,9.92-9.92-.09-1.14-.19-2.3-.28-3.45-.22-2.71-.93-5.04-2.9-7.01-1.85-1.85-4.4-2.9-7.01-2.9-.63,0-1.27.04-1.89-.02.88.12,1.76.24,2.64.35-.12-.02-.23-.05-.34-.07.79.33,1.58.67,2.37,1-.13-.06-.27-.12-.41-.18.67.51,1.34,1.03,2.01,1.55-.19-.12-.35-.27-.49-.45.52.67,1.04,1.34,1.55,2.01-.02-.03-.03-.05-.05-.08.45,1.67.9,3.34,1.35,5.01-.02-.94-.04-1.89-.06-2.83-.12-5.4-4.42-9.92-9.92-9.92h-3.56c-5.4,0-9.91,4.51-9.91,9.92,0,4.71.27,9.11,3.74,12.8,3.59,3.81,8.43,4.12,13.25,4.19,5.41.08,9.92-4.57,9.92-9.92s-4.51-9.84-9.92-9.92Z"/>
              </g>
              <path class="st1" d="M47.13,246.58l-3.24-.04s-1.78-.08-2.73-.95c-.96-.88-1.11-2.41-1.11-2.41v-3.65h3.56l.06,2.83s.14.28.54.53c.39.25.89.26.89.26h1.75l.28,3.45Z"/>
            </g>
          </g>
          <g>
            <g>
              <path class="st14" d="M39.25,207.01h3.59c1.13,0,2.05.92,2.05,2.05v22.22c0,1.13-.92,2.05-2.05,2.05h-3.59c-1.13,0-2.05-.92-2.05-2.05v-22.23c0-1.13.92-2.05,2.05-2.05Z"/>
              <path d="M34.97,231.29c-.01.13-.02.25-.03.37.11-.88.23-1.76.36-2.64-.03.12-.07.23-.1.35.33-.79.66-1.57,1-2.37-.08.22-.2.42-.35.61.52-.67,1.03-1.34,1.55-2.01-.08.09-.16.17-.24.25.67-.51,1.34-1.03,2.01-1.55-.18.16-.38.27-.61.36.79-.34,1.58-.67,2.37-1-.12.03-.23.06-.35.09.88-.12,1.76-.24,2.64-.35-1.4.12-2.92.12-4.32,0,.88.12,1.75.24,2.64.35-.12-.03-.23-.06-.35-.09.79.33,1.58.66,2.37,1-.23-.09-.43-.2-.61-.36.67.52,1.34,1.04,2.01,1.55-.08-.08-.16-.16-.24-.25.52.67,1.03,1.34,1.55,2.01-.15-.19-.27-.39-.35-.61.33.79.67,1.58,1,2.37-.03-.12-.06-.23-.1-.35.12.88.24,1.76.35,2.64-.34-3.77-.03-7.7-.03-11.48s-.31-7.71.03-11.48c-.11.88-.24,1.76-.35,2.64.03-.12.07-.23.1-.35-.33.79-.67,1.58-1,2.37.08-.22.2-.43.35-.61-.51.66-1.03,1.34-1.55,2,.08-.08.16-.16.24-.25-.67.52-1.33,1.04-2.01,1.56.18-.16.38-.28.61-.36-.79.34-1.58.67-2.37,1,.12-.03.23-.06.35-.09-.88.12-1.76.23-2.64.35,1.41-.13,2.92-.13,4.32,0-.88-.12-1.75-.24-2.64-.35.12.03.23.06.35.09-.79-.33-1.58-.66-2.37-1,.22.08.42.2.61.36-.67-.52-1.34-1.04-2.01-1.56.08.09.16.17.24.25-.51-.66-1.03-1.34-1.55-2,.15.18.27.38.35.61-.33-.79-.66-1.58-1-2.37.03.12.06.23.1.35-.12-.88-.24-1.76-.36-2.64.33,3.68.03,7.51.03,11.2v11.4c0,5.41,4.51,9.92,9.92,9.92s9.92-4.51,9.92-9.92v-20.84c0-3.56-.76-7.09-3.39-9.73-2.41-2.41-5.55-3.64-8.95-3.64h-3c-6.77,0-12.19,5.43-12.19,12.2v22c0,6.54,5.48,11.97,12,11.97h3.46c2.17,0,4.64-.56,6.43-1.84,3.65-2.58,5.24-5.7,5.64-10.13.48-5.39-4.88-9.92-9.92-9.92-2.62,0-5.16,1.05-7.01,2.9-1.99,1.99-2.66,4.3-2.9,7.02Z"/>
            </g>
            <path class="st13" d="M39.25,207.01h3.59c1.13,0,2.05.92,2.05,2.05v22.22c0,1.13-.92,2.05-2.05,2.05h-3.59c-1.13,0-2.05-.92-2.05-2.05v-22.23c0-1.13.92-2.05,2.05-2.05Z"/>
            <path class="st0" d="M38.76,231.29v-22.23c0-1.14.92-2.05,2.05-2.05h-1.56c-1.13,0-2.05.92-2.05,2.05v22.23c0,1.14.92,2.05,2.05,2.05h1.56c-1.13,0-2.05-.91-2.05-2.05Z"/>
            <path class="st1" d="M43.33,231.29v-22.23c0-1.14-.92-2.05-2.05-2.05h1.56c1.13,0,2.05.92,2.05,2.05v22.23c0,1.14-.92,2.05-2.05,2.05h-1.56c1.13,0,2.05-.91,2.05-2.05Z"/>
          </g>
        </g>
        <g>
          <g>
            <g>
              <g>
                <path class="st14" d="M210.9,193.77l3.24.05s1.78.09,2.73.96c.96.87,1.1,2.41,1.1,2.41v3.65h-3.56l-.06-2.83s-.14-.28-.54-.53c-.4-.24-.89-.26-.89-.26h-1.75l-.28-3.45Z"/>
                <path d="M210.9,203.69c1.19.02,2.41-.05,3.58.08-.88-.12-1.75-.24-2.64-.35.51.08,1,.19,1.48.37-.79-.34-1.58-.66-2.37-1,.23.09.44.2.64.34-.67-.52-1.34-1.03-2.01-1.55.21.14.38.3.54.5-.51-.66-1.03-1.33-1.55-2,.22.31.38.6.53.95-.33-.79-.67-1.58-1-2.37.13.38.24.75.29,1.14-.12-.88-.24-1.75-.35-2.64.13,1.21,0,2.49,0,3.69,3.31-3.3,6.61-6.61,9.92-9.92h-3.56c3.31,3.31,6.61,6.62,9.91,9.92-.06-2.7.08-5.54-1.47-7.92-2.31-3.56-5.76-5.27-9.95-5.61-.58-.05-1.17,0-1.75,0,3.31,3.3,6.61,6.61,9.92,9.91-.1-1.14-.19-2.3-.28-3.45-.22-2.71-.93-5.04-2.9-7.01-1.85-1.85-4.4-2.9-7.01-2.9-5.07,0-10.36,4.53-9.92,9.92.09,1.15.19,2.3.28,3.45.23,2.71.94,5.04,2.91,7.01,1.85,1.85,4.39,2.9,7.01,2.9.63,0,1.27-.04,1.89.01-.88-.12-1.76-.24-2.64-.35.12.02.23.04.35.07-.79-.33-1.58-.67-2.37-1,.14.06.27.12.41.18-.67-.52-1.34-1.03-2.01-1.55.19.12.35.27.49.45-.51-.66-1.03-1.33-1.55-2,.02.02.04.05.05.08-.45-1.68-.9-3.34-1.36-5.01.02.94.04,1.89.07,2.83.12,5.41,4.42,9.92,9.92,9.92h3.56c5.41,0,9.92-4.51,9.92-9.92,0-4.7-.27-9.1-3.74-12.79-3.59-3.81-8.43-4.12-13.25-4.19-5.41-.08-9.92,4.57-9.92,9.92s4.51,9.84,9.92,9.92Z"/>
              </g>
              <path class="st18" d="M210.9,193.77l3.24.05s1.78.09,2.73.96c.96.87,1.1,2.41,1.1,2.41v3.65h-3.56l-.06-2.83s-.14-.28-.54-.53c-.4-.24-.89-.26-.89-.26h-1.75l-.28-3.45Z"/>
            </g>
            <g>
              <g>
                <path class="st14" d="M210.9,246.58l3.24-.04s1.78-.08,2.73-.95c.96-.88,1.1-2.41,1.1-2.41v-3.65h-3.56l-.06,2.83s-.14.28-.54.53c-.4.25-.89.26-.89.26h-1.75l-.28,3.45Z"/>
                <path d="M210.9,256.5c1.04-.01,2.09-.03,3.13-.04,1.21-.02,2.42-.26,3.61-.48,2.48-.45,4.34-1.88,6.25-3.39,2.64-2.06,4.01-6.4,4.01-9.65v-3.43c0-5.4-4.51-9.92-9.92-9.92h-3.56c-5.5,0-9.8,4.51-9.92,9.92-.02.95-.04,1.89-.07,2.83.46-1.67.91-3.34,1.36-5.01-.02.03-.03.05-.05.08.52-.67,1.04-1.34,1.55-2.01-.13.18-.29.33-.49.45.67-.52,1.34-1.03,2.01-1.55-.14.06-.27.12-.41.18.79-.33,1.58-.67,2.37-1-.12.02-.23.05-.35.07.88-.12,1.76-.24,2.64-.35-.62.05-1.26.02-1.89.02-2.62,0-5.16,1.05-7.01,2.9-1.97,1.97-2.68,4.31-2.91,7.01-.09,1.15-.18,2.3-.28,3.45-.44,5.4,4.84,9.92,9.92,9.92,2.62,0,5.16-1.05,7.01-2.9,1.97-1.97,2.68-4.3,2.9-7.02.09-1.14.18-2.3.28-3.45-3.31,3.31-6.61,6.62-9.92,9.92h1.7c4.12,0,7.79-2.22,10-5.62,1.55-2.38,1.41-5.22,1.47-7.92-3.31,3.31-6.61,6.62-9.91,9.92h3.56c-3.31-3.31-6.61-6.62-9.92-9.92,0,1.21.13,2.49,0,3.69.12-.88.23-1.75.35-2.63-.06.39-.16.76-.29,1.14.33-.79.66-1.58,1-2.37-.15.35-.32.64-.53.95.51-.67,1.03-1.34,1.55-2-.16.19-.33.35-.54.5.67-.52,1.34-1.03,2.01-1.55-.2.13-.41.24-.64.34.79-.34,1.58-.66,2.37-1-.48.17-.97.29-1.48.37.88-.12,1.76-.24,2.64-.35-1.18.13-2.4.06-3.58.08-5.41.08-9.92,4.46-9.92,9.92s4.51,10,9.92,9.92Z"/>
              </g>
              <path class="st1" d="M210.9,246.58l3.24-.04s1.78-.08,2.73-.95c.96-.88,1.1-2.41,1.1-2.41v-3.65h-3.56l-.06,2.83s-.14.28-.54.53c-.4.25-.89.26-.89.26h-1.75l-.28,3.45Z"/>
            </g>
          </g>
          <g>
            <g>
              <path class="st14" d="M213.13,231.29c0,1.14.92,2.05,2.06,2.05h3.59c1.13,0,2.05-.91,2.05-2.05v-22.23c0-1.14-.92-2.05-2.05-2.05h-3.59c-1.13,0-2.06.92-2.06,2.05v22.23Z"/>
              <path d="M203.21,231.29c.2,2.25.49,4.42,1.84,6.33,1.7,2.41,3.86,4.36,6.78,5.16,1.75.48,3.39.48,5.15.48,1.61,0,3.22.05,4.8-.39,2.15-.59,4-1.66,5.57-3.24,2.3-2.3,3.11-5.18,3.39-8.34.25-2.82,0-5.77,0-8.59v-12.25c0-3.56-.76-7.09-3.39-9.73-2.41-2.41-5.54-3.64-8.95-3.64h-3c-2.38,0-4.14.63-6.26,1.63-3.76,1.79-5.55,6.12-5.89,9.97-.05.49-.03.99-.03,1.48v21.11c0,5.41,4.51,9.92,9.92,9.92s9.92-4.51,9.92-9.92v-11.11c0-3.79-.31-7.71.03-11.48-.12.88-.24,1.76-.35,2.64.03-.12.07-.23.1-.35-.33.79-.66,1.58-1,2.37.08-.22.2-.43.35-.61-.51.66-1.03,1.34-1.55,2,.08-.08.16-.16.25-.25-.67.52-1.34,1.04-2.01,1.56.18-.16.38-.28.61-.36-.79.34-1.58.67-2.37,1,.11-.03.23-.06.34-.09-.88.12-1.75.23-2.63.35,1.41-.13,2.92-.13,4.33,0-.88-.12-1.76-.24-2.64-.35.12.03.23.06.35.09-.79-.33-1.58-.66-2.37-1,.22.08.42.2.6.36-.67-.52-1.33-1.04-2-1.56.08.09.16.17.25.25-.52-.66-1.03-1.34-1.55-2,.15.18.27.38.35.61-.33-.79-.66-1.58-1-2.37.03.12.06.23.1.35-.12-.88-.24-1.76-.36-2.64.34,3.77.03,7.7.03,11.48s.31,7.71-.03,11.48c.12-.88.24-1.76.36-2.64-.03.12-.07.23-.1.35.33-.79.66-1.57,1-2.37-.08.22-.2.42-.35.61.52-.67,1.03-1.34,1.55-2.01-.08.09-.16.17-.25.25.67-.51,1.34-1.03,2-1.55-.18.16-.38.27-.6.36.79-.34,1.58-.67,2.37-1-.12.03-.23.06-.35.09.88-.12,1.76-.24,2.64-.35-1.41.12-2.92.12-4.33,0,.88.12,1.75.24,2.63.35-.11-.03-.23-.06-.34-.09.79.33,1.58.66,2.37,1-.23-.09-.43-.2-.61-.36.67.52,1.34,1.04,2.01,1.55-.08-.08-.16-.16-.25-.25.51.67,1.03,1.34,1.55,2.01-.15-.19-.27-.39-.35-.61.33.79.67,1.58,1,2.37-.03-.12-.06-.23-.1-.35.12.88.24,1.76.35,2.64-.01-.12-.02-.24-.03-.37-.25-2.71-.92-5.03-2.91-7.02-1.85-1.85-4.39-2.9-7.01-2.9-5.04,0-10.4,4.53-9.92,9.92Z"/>
            </g>
            <path class="st13" d="M213.13,231.29c0,1.14.92,2.05,2.06,2.05h3.59c1.13,0,2.05-.91,2.05-2.05v-22.23c0-1.14-.92-2.05-2.05-2.05h-3.59c-1.13,0-2.06.92-2.06,2.05v22.23Z"/>
            <path class="st0" d="M219.27,231.29v-22.23c0-1.14-.92-2.05-2.05-2.05h1.56c1.13,0,2.05.92,2.05,2.05v22.23c0,1.14-.92,2.05-2.05,2.05h-1.56c1.13,0,2.05-.91,2.05-2.05Z"/>
            <path class="st1" d="M214.69,231.29v-22.23c0-1.14.92-2.05,2.05-2.05h-1.55c-1.13,0-2.06.92-2.06,2.05v22.23c0,1.14.92,2.05,2.06,2.05h1.55c-1.13,0-2.05-.91-2.05-2.05Z"/>
          </g>
        </g>
      </g>
      <g>
        <g>
          <path class="st14" d="M200.94,206.41v40.44c0,9.34-7.58,16.92-16.92,16.92h-110.01c-9.35,0-16.93-7.58-16.93-16.92v-40.44h143.86Z"/>
          <path d="M191.02,206.41v39.87c0,.97-.04,1.95-.16,2.93.12-.88.24-1.76.35-2.64-.21,1.39-.57,2.74-1.09,4.05.33-.79.67-1.58,1-2.37-.59,1.39-1.33,2.67-2.23,3.88.52-.67,1.03-1.34,1.55-2-.92,1.17-1.96,2.21-3.14,3.14.67-.52,1.34-1.03,2.01-1.55-1.21.91-2.49,1.64-3.88,2.23.79-.33,1.58-.67,2.37-1-1.31.53-2.66.88-4.05,1.1.87-.12,1.75-.24,2.63-.36-3.28.42-6.72.17-10.02.17h-95c-3.19,0-6.53.24-9.71-.17.88.12,1.75.24,2.64.36-1.4-.21-2.74-.57-4.06-1.1.79.33,1.58.67,2.37,1-1.39-.59-2.67-1.33-3.88-2.23.67.52,1.34,1.03,2.01,1.55-1.17-.93-2.22-1.97-3.14-3.14.52.66,1.03,1.33,1.55,2-.91-1.21-1.65-2.49-2.23-3.88.33.79.67,1.58,1,2.37-.52-1.31-.88-2.66-1.09-4.05.12.88.23,1.75.35,2.64-.28-2.22-.16-4.51-.16-6.75v-36.05c-3.31,3.31-6.61,6.61-9.92,9.92h143.86c5.41,0,9.92-4.51,9.92-9.92s-4.51-9.92-9.92-9.92H57.08c-5.4,0-9.92,4.51-9.92,9.92v39.87c0,7.1,2.5,13.38,7.1,18.73,4.79,5.59,12.55,8.68,19.82,8.68h109.39c5.04,0,9.96-1.22,14.3-3.79,8.09-4.78,12.98-13.72,13.08-23.05.02-1.85,0-3.7,0-5.55v-34.89c0-5.4-4.51-9.92-9.92-9.92s-9.92,4.51-9.92,9.92Z"/>
        </g>
        <path class="st13" d="M200.94,206.41v40.44c0,9.34-7.58,16.92-16.92,16.92h-110.01c-9.35,0-16.93-7.58-16.93-16.92v-40.44h143.86Z"/>
        <path class="st1" d="M74.01,259.78h110.01c9.34,0,16.92-7.57,16.92-16.93v3.99c0,9.34-7.58,16.92-16.92,16.92h-110.01c-9.35,0-16.93-7.58-16.93-16.92v-3.99c0,9.35,7.57,16.93,16.93,16.93Z"/>
      </g>
    </g>
    <g>
      <g>
        <g>
          <path class="st9" d="M26.88,112.63s-11.34,27.51-7.04,50.17c4.29,22.66,31.7,31.01,31.7,31.01l-.98,9.08s-32.12-8.53-38.91-36.39c-6.79-27.86,8.51-61.17,8.51-61.17l6.71,7.3Z"/>
          <path d="M17.32,109.99c-3.25,7.91-5.4,16.44-6.79,24.86-2.47,15.05-3.04,32.05,5.91,45.21,5.11,7.51,12.17,13.48,20.09,17.88,3.91,2.17,8.1,4.13,12.38,5.44-2.42-3.19-4.85-6.37-7.28-9.57-.33,3.03-.65,6.05-.98,9.08,4.18-3.19,8.37-6.38,12.56-9.56-2.26-.61-4.46-1.47-6.61-2.38.79.34,1.58.66,2.37,1-5.35-2.27-10.44-5.15-15.06-8.69.67.52,1.34,1.03,2,1.55-3.5-2.71-6.7-5.8-9.44-9.29.52.67,1.04,1.34,1.55,2-2.31-3-4.25-6.25-5.73-9.73.33.79.67,1.58,1,2.37-1.65-3.96-2.62-8.12-3.2-12.36.12.88.24,1.76.35,2.64-.94-7.23-.69-14.54.27-21.75-.12.88-.24,1.76-.35,2.63,1.5-10.96,4.51-21.82,8.81-32.02-.33.79-.67,1.58-1,2.37.19-.44.38-.89.58-1.33-5.19.67-10.38,1.34-15.58,2,2.24,2.43,4.47,4.87,6.71,7.3,3.66,3.98,10.32,3.7,14.03,0,3.94-3.94,3.65-10.05,0-14.03-2.24-2.43-4.47-4.86-6.71-7.29-1.74-1.89-4.48-2.91-7.01-2.91-3.22,0-7.15,1.83-8.56,4.92-3.38,7.38-5.98,15.18-7.94,23.05-3.75,15.05-5.31,31.32-1.39,46.5,5.42,21.03,24.35,35.72,44.28,42.16.46.15.91.29,1.37.42,2.57.69,5.34.35,7.64-1,3.27-1.92,4.53-4.98,4.92-8.57.33-3.03.65-6.04.98-9.08.47-4.4-3.39-8.37-7.28-9.56-1.36-.41-2.68-.95-3.98-1.5.79.33,1.58.66,2.37,1-4.78-2.03-9.33-4.62-13.44-7.79.67.52,1.34,1.03,2.01,1.55-2.96-2.31-5.66-4.92-7.96-7.88.51.67,1.03,1.33,1.55,2.01-1.75-2.3-3.23-4.77-4.37-7.43.33.79.66,1.58,1,2.37-1.21-2.9-1.93-5.9-2.37-9.01.12.88.24,1.76.35,2.64-.87-6.58-.62-13.22.24-19.77-.12.88-.24,1.75-.35,2.63,1.27-9.42,3.6-18.99,7.22-27.8.95-2.32.21-5.58-1-7.64-1.3-2.22-3.45-3.88-5.93-4.56-2.56-.7-5.35-.35-7.64,1-2.44,1.43-3.53,3.42-4.56,5.92Z"/>
        </g>
        <path class="st13" d="M26.88,112.63s-11.34,27.51-7.04,50.17c4.29,22.66,31.7,31.01,31.7,31.01l-.98,9.08s-32.12-8.53-38.91-36.39c-6.79-27.86,8.51-61.17,8.51-61.17l6.71,7.3Z"/>
        <path class="st0" d="M24.31,113.76s-11.33,27.51-7.04,50.17c4.3,22.67,31.71,31.02,31.71,31.02l-.78,7.2c1.49.51,2.36.75,2.36.75l.98-9.08s-27.41-8.35-31.7-31.01c-4.3-22.66,7.04-50.17,7.04-50.17l-6.71-7.3s-.44.96-1.14,2.68l5.28,5.74Z"/>
        <path class="st1" d="M14.35,165.32c-5.61-23.02,3.87-49.76,7.32-58.35l-1.5-1.63s-15.3,33.31-8.51,61.17c6.79,27.85,38.91,36.39,38.91,36.39l.21-1.96c-7.66-2.66-30.79-12.46-36.43-35.61Z"/>
      </g>
      <rect class="st4" x="19.79" y="184.62" width="21.11" height="6.38" transform="translate(-140.39 103.9) rotate(-54.65)"/>
      <rect class="st4" x="8.58" y="172.04" width="21.11" height="6.38" transform="translate(-99.89 45.21) rotate(-36.24)"/>
      <rect class="st4" x="3.2" y="155.8" width="21.11" height="6.37" transform="translate(-15.63 2.13) rotate(-5.67)"/>
      <rect class="st4" x="11.54" y="130.71" width="6.38" height="21.11" transform="translate(-124.01 110.85) rotate(-71.68)"/>
    </g>
    <g>
      <g>
        <g>
          <path class="st9" d="M232.76,112.63s11.34,27.51,7.04,50.17c-4.3,22.66-31.7,31.01-31.7,31.01l.98,9.08s32.12-8.53,38.91-36.39c6.79-27.86-8.51-61.17-8.51-61.17l-6.71,7.3Z"/>
          <path d="M223.2,115.26c3.63,8.81,5.95,18.38,7.22,27.8-.12-.88-.24-1.75-.35-2.63.85,6.55,1.11,13.2.24,19.77.12-.88.24-1.76.35-2.64-.44,3.11-1.15,6.11-2.37,9.01.33-.79.67-1.58,1-2.37-1.15,2.66-2.62,5.13-4.37,7.43.52-.68,1.03-1.34,1.55-2.01-2.3,2.97-5,5.58-7.96,7.88.67-.52,1.34-1.03,2.01-1.55-4.12,3.18-8.66,5.76-13.44,7.79.79-.33,1.58-.67,2.37-1-1.3.55-2.63,1.09-3.98,1.5-3.89,1.19-7.75,5.16-7.28,9.56.33,3.03.65,6.05.98,9.08.3,2.74.89,5,2.9,7.01,2.52,2.52,6.23,3.47,9.65,2.55,5.56-1.48,11.01-4.04,16.03-6.82,10.22-5.68,19.47-13.97,25.07-24.34,7.76-14.37,7.72-31.18,5.37-46.92-1.52-10.22-4.41-20.33-8.36-29.87-.58-1.4-1.15-2.8-1.78-4.18-1.02-2.23-3.65-3.94-5.92-4.56-3.31-.91-7.29-.02-9.65,2.55-2.23,2.43-4.47,4.86-6.71,7.29-3.65,3.98-3.94,10.08,0,14.03,3.7,3.7,10.37,3.98,14.03,0,2.23-2.43,4.47-4.87,6.71-7.3-5.2-.66-10.39-1.33-15.58-2,.2.44.39.88.57,1.33-.33-.79-.66-1.58-1-2.37,4.3,10.2,7.3,21.07,8.8,32.02-.12-.87-.23-1.76-.35-2.63.96,7.21,1.21,14.53.27,21.75.12-.88.24-1.76.35-2.64-.58,4.24-1.56,8.4-3.21,12.36.33-.79.67-1.58,1-2.37-1.48,3.49-3.42,6.74-5.73,9.73.52-.66,1.03-1.33,1.55-2-2.74,3.49-5.93,6.58-9.44,9.29.67-.52,1.34-1.03,2.01-1.55-4.62,3.54-9.71,6.42-15.06,8.69.79-.33,1.58-.66,2.37-1-2.15.91-4.35,1.77-6.61,2.38,4.19,3.19,8.37,6.37,12.56,9.56-.33-3.03-.65-6.04-.98-9.08-2.42,3.19-4.85,6.38-7.28,9.57,6.21-1.9,12.34-5.03,17.67-8.73,5.59-3.88,10.21-8.31,14.23-13.79,2.12-2.88,3.54-6.04,4.92-9.33,1.52-3.64,2.08-7.45,2.59-11.33,1.52-11.41-.18-23.25-2.86-34.36-1.29-5.36-2.86-10.75-4.96-15.86-1.03-2.51-2.12-4.5-4.56-5.92-2.29-1.35-5.08-1.7-7.64-1-2.48.68-4.63,2.34-5.93,4.56-1.21,2.06-1.95,5.32-1,7.64Z"/>
        </g>
        <path class="st13" d="M232.76,112.63s11.34,27.51,7.04,50.17c-4.3,22.66-31.7,31.01-31.7,31.01l.98,9.08s32.12-8.53,38.91-36.39c6.79-27.86-8.51-61.17-8.51-61.17l-6.71,7.3Z"/>
        <path class="st0" d="M235.33,113.76s11.33,27.51,7.04,50.17c-4.3,22.67-31.71,31.02-31.71,31.02l.78,7.2c-1.49.51-2.36.75-2.36.75l-.98-9.08s27.41-8.35,31.7-31.01c4.3-22.66-7.04-50.17-7.04-50.17l6.71-7.3s.44.96,1.14,2.68l-5.28,5.74Z"/>
        <path class="st1" d="M245.3,165.32c5.61-23.02-3.86-49.76-7.32-58.35l1.5-1.63s15.3,33.31,8.51,61.17c-6.79,27.85-38.91,36.39-38.91,36.39l-.22-1.96c7.66-2.66,30.79-12.46,36.43-35.61Z"/>
      </g>
      <rect class="st4" x="226.11" y="177.25" width="6.37" height="21.11" transform="translate(-66.39 167.35) rotate(-35.36)"/>
      <rect class="st4" x="237.32" y="164.67" width="6.37" height="21.11" transform="translate(-42.94 265.81) rotate(-53.8)"/>
      <rect class="st4" x="242.71" y="148.43" width="6.37" height="21.11" transform="translate(63.41 387.98) rotate(-84.33)"/>
      <rect class="st4" x="234.36" y="138.08" width="21.11" height="6.38" transform="translate(-31.99 84.15) rotate(-18.32)"/>
    </g>
    <g>
      <g>
        <g>
          <path class="st9" d="M33.83,80.24s-.1,0-.16,0c-10.35-.05-18.81,15.07-18.92,33.8-.1,18.72,8.2,33.95,18.55,34,.05,0,.1,0,.16,0l.38-67.79Z"/>
          <path d="M33.83,70.33c-3.79-.11-7.61,1.1-10.89,2.93-3.65,2.04-6.31,5.03-8.8,8.29-4.43,5.8-6.94,13.26-8.15,20.39-2.78,16.33-.79,35.73,10.87,48.43,4.16,4.53,10.37,7.71,16.6,7.58,5.43-.1,9.89-4.43,9.92-9.92.08-13.22.15-26.45.23-39.67.05-9.37.1-18.75.16-28.12.03-5.4-4.53-9.92-9.92-9.92s-9.89,4.52-9.92,9.92c-.08,13.23-.15,26.45-.23,39.68-.05,9.37-.1,18.74-.16,28.11,3.31-3.31,6.61-6.61,9.92-9.92-.5.01-1-.03-1.5-.09.88.12,1.75.23,2.64.35-1-.15-1.94-.41-2.87-.8.79.34,1.58.67,2.37,1-1.05-.46-2.02-1.04-2.94-1.73.67.52,1.34,1.03,2.01,1.55-1.34-1.03-2.5-2.24-3.54-3.56.52.68,1.03,1.34,1.55,2.01-1.64-2.12-2.92-4.46-3.98-6.91.33.79.66,1.58,1,2.37-1.66-3.96-2.7-8.11-3.31-12.35.12.88.24,1.76.35,2.64-.72-5.38-.72-10.82-.03-16.2-.12.88-.24,1.75-.36,2.64.59-4.29,1.62-8.5,3.26-12.51-.33.79-.66,1.58-1,2.37,1.1-2.6,2.44-5.08,4.16-7.33-.52.67-1.03,1.33-1.55,2.01,1.05-1.34,2.21-2.56,3.55-3.61-.67.52-1.34,1.03-2.01,1.55,1-.75,2.05-1.39,3.2-1.87-.79.33-1.58.66-2.37,1,.93-.37,1.88-.63,2.87-.76-.88.12-1.76.24-2.64.35.5-.05,1-.09,1.51-.08,5.41.16,9.92-4.63,9.92-9.92s-4.52-9.76-9.92-9.92Z"/>
        </g>
        <path class="st8" d="M33.83,80.24s-.1,0-.16,0c-10.35-.05-18.81,15.07-18.92,33.8-.1,18.72,8.2,33.95,18.55,34,.05,0,.1,0,.16,0l.38-67.79Z"/>
        <path class="st6" d="M18.24,114.05c.09-16.67,6.82-30.48,15.59-33.28v-.53s-.1,0-.15,0c-10.35-.05-18.81,15.07-18.92,33.8-.1,18.72,8.2,33.95,18.55,34,.05,0,.1,0,.16,0v-.53c-8.74-2.89-15.31-16.79-15.22-33.45Z"/>
      </g>
      <g>
        <g>
          <path class="st9" d="M224.19,80.24c.05,0,.1,0,.16,0,10.34-.05,18.82,15.07,18.92,33.8s-8.2,33.95-18.54,34c-.05,0-.1,0-.16,0l-.38-67.79Z"/>
          <path d="M224.19,90.16c.51-.01,1,.02,1.51.08-.88-.12-1.76-.24-2.64-.35.99.13,1.94.39,2.87.76-.79-.33-1.58-.67-2.37-1,1.15.48,2.21,1.12,3.2,1.87-.67-.52-1.34-1.03-2.01-1.55,1.34,1.05,2.51,2.27,3.55,3.61-.52-.68-1.03-1.34-1.55-2.01,1.72,2.25,3.06,4.73,4.16,7.33-.33-.79-.67-1.58-1-2.37,1.65,4.01,2.68,8.22,3.27,12.51-.12-.88-.24-1.76-.35-2.64.7,5.38.69,10.82-.03,16.2.12-.88.24-1.76.35-2.64-.6,4.24-1.65,8.4-3.31,12.35.33-.79.67-1.58,1-2.37-1.06,2.45-2.34,4.79-3.98,6.91.52-.67,1.03-1.33,1.55-2.01-1.04,1.32-2.2,2.53-3.54,3.56.67-.52,1.34-1.03,2.01-1.55-.92.69-1.89,1.27-2.94,1.73.79-.33,1.58-.66,2.37-1-.93.38-1.88.65-2.87.8.88-.12,1.76-.24,2.64-.35-.5.06-1,.1-1.5.09,3.31,3.31,6.61,6.61,9.92,9.92-.07-13.22-.15-26.45-.22-39.67-.05-9.37-.11-18.75-.16-28.12-.03-5.4-4.49-9.92-9.92-9.92s-9.95,4.52-9.92,9.92c.07,13.23.15,26.45.22,39.68.05,9.37.11,18.74.16,28.11.03,5.49,4.49,9.81,9.92,9.92,3.79.08,7.62-1.12,10.88-3,3.66-2.1,6.22-5.07,8.75-8.35,2.33-3.03,3.83-6.59,5.22-10.11,1.32-3.32,2.17-6.82,2.73-10.35,1.47-9.27,1.3-18.54-.81-27.71-1.74-7.54-5.17-14.95-10.5-20.62-4.21-4.47-10.41-7.65-16.65-7.48-5.4.16-9.92,4.39-9.92,9.92s4.51,10.07,9.92,9.92Z"/>
        </g>
        <path class="st8" d="M224.19,80.24c.05,0,.1,0,.16,0,10.34-.05,18.82,15.07,18.92,33.8s-8.2,33.95-18.54,34c-.05,0-.1,0-.16,0l-.38-67.79Z"/>
        <path class="st6" d="M239.79,114.05c-.1-16.67-6.82-30.48-15.59-33.28v-.53s.1,0,.15,0c10.34-.05,18.82,15.07,18.92,33.8s-8.2,33.95-18.54,34c-.05,0-.1,0-.16,0v-.53c8.74-2.89,15.31-16.79,15.22-33.45Z"/>
      </g>
    </g>
    <g>
      <g>
        <path class="st8" d="M87.31,210.96s-30.52,36.25-17.28,44.06c13.25,7.82,31.78-26.06,31.78-26.06l-14.5-18.01Z"/>
        <path d="M84.55,208.21c-3.68,4.37-7.09,9.01-10.3,13.73-5.02,7.42-10.14,15.71-11.33,24.74-.49,3.7.46,7.84,3.34,10.38,3.51,3.1,8.43,3.73,12.77,2.18,4.53-1.63,8.34-4.84,11.65-8.25,3.38-3.5,6.35-7.42,9.1-11.42,1.92-2.79,3.76-5.66,5.39-8.63.91-1.67.53-3.31-.61-4.72-4.84-6-9.67-12.01-14.5-18.01-1.33-1.66-4.13-1.39-5.51,0-1.62,1.62-1.33,3.86,0,5.51,4.83,6,9.67,12.01,14.5,18-.2-1.57-.41-3.14-.61-4.72-.92,1.69-1.93,3.32-2.96,4.95-1.06,1.67-2.17,3.33-3.32,4.95-.62.88-1.26,1.75-1.92,2.63-.17.22-.33.44-.51.66.63-.81.03-.04-.08.1-.41.53-.83,1.04-1.25,1.55-1.51,1.83-3.11,3.58-4.83,5.22-.79.75-1.61,1.47-2.46,2.15-.72.58.69-.51-.04.04-.21.16-.42.31-.63.46-.48.34-.97.66-1.47.96-.41.25-.84.48-1.26.71-.21.1-.42.2-.63.3-.77.35.86-.35.09-.04-.42.17-.83.3-1.26.42-.37.11-2.05.35-.64.19-.41.05-.83.06-1.24.05-.2,0-.41-.02-.61-.04,1.25.11.52.07.22.01-.41-.08-.81-.2-1.2-.34-.75-.27.87.4.14.05-.26-.12-.5-.27-.74-.41-1.02-.62.48.46-.19-.13-.25-.22-.47-.47-.68-.73.89,1.09.16.16-.02-.17-.55-1.02.25.82-.11-.3-.11-.33-.17-.66-.24-1-.13-.71.12,1.06.05.33-.02-.19-.03-.37-.04-.55-.02-.38-.01-.76,0-1.14.02-.36.23-2,.02-.57.27-1.89.85-3.73,1.51-5.52.18-.47.36-.94.55-1.41-.46,1.11.21-.47.33-.73.48-1.06,1-2.11,1.54-3.14,2.11-4.07,4.57-7.95,7.17-11.72,1.15-1.68,2.35-3.34,3.56-4.98.5-.68,1.01-1.35,1.52-2.02.12-.15.24-.3.35-.46.45-.59-.6.77-.16.2.24-.31.49-.62.73-.93.76-.96,1.52-1.93,2.31-2.87,1.37-1.62,1.6-3.91,0-5.51-1.4-1.4-4.14-1.63-5.51,0Z"/>
      </g>
      <g>
        <path class="st8" d="M171.04,210.96s30.52,36.25,17.28,44.06c-13.24,7.82-31.78-26.06-31.78-26.06l14.5-18.01Z"/>
        <path d="M168.29,213.71c1.05,1.25,2.05,2.52,3.04,3.8.44.57-.61-.79-.16-.2.12.16.24.31.35.46.25.32.5.65.74.98.59.78,1.17,1.56,1.74,2.34,1.25,1.72,2.47,3.46,3.65,5.22,2.56,3.81,4.96,7.75,6.98,11.88.23.48.46.96.68,1.44.12.27.8,1.84.33.73.41.99.78,2,1.11,3.01.28.87.52,1.75.72,2.65.09.41.16.84.23,1.26-.22-1.43,0,.2.03.57.02.38.01.76,0,1.14,0,.18-.02.37-.04.55-.06.73.16-1.04.05-.33-.05.34-.14.67-.24,1-.33,1.13.42-.73-.11.3-.16.32-.9,1.3-.02.17-.21.27-.44.51-.69.73-.65.61.81-.52-.19.13-.17.12-.36.21-.54.31-.94.51.56-.19-.06.05-.39.15-.79.25-1.2.34-.29.06-1.05.13.23-.01-.21.02-.41.03-.62.04-.42.02-.83-.02-1.24-.05,1.41.14-.26-.09-.63-.19-.43-.12-.85-.26-1.26-.42-.78-.29.86.38.09.04-.21-.1-.42-.2-.63-.3-.96-.48-1.86-1.06-2.74-1.67-.21-.15-.42-.3-.62-.46-.74-.55.68.54-.05-.04-.42-.33-.83-.69-1.24-1.03-.91-.8-1.77-1.64-2.62-2.5-1.66-1.7-3.2-3.52-4.68-5.38-.11-.14-.71-.91-.08-.1-.17-.22-.34-.44-.51-.66-.33-.44-.66-.88-.98-1.33-.67-.91-1.32-1.84-1.96-2.78-1.04-1.52-2.05-3.07-3.02-4.65-.77-1.24-1.53-2.49-2.23-3.78-.2,1.58-.41,3.15-.61,4.72,4.83-6,9.67-12,14.5-18,1.33-1.65,1.62-3.89,0-5.51-1.38-1.39-4.18-1.66-5.51,0-4.83,6-9.67,12-14.5,18.01-1.14,1.41-1.52,3.05-.61,4.72,3.09,5.64,6.83,11,10.89,15.98,5.35,6.57,13.89,15.29,23.31,12.72,4-1.09,7.25-4.36,7.91-8.5.67-4.14-.34-8.27-1.84-12.12-3.3-8.43-8.43-16.09-13.81-23.33-1.88-2.54-3.81-5.06-5.85-7.48-1.37-1.63-4.1-1.4-5.51,0-1.6,1.59-1.37,3.88,0,5.51Z"/>
      </g>
      <g>
        <path class="st4" d="M193.52,294.37c0,1.9-28.88,3.45-64.5,3.45s-64.51-1.54-64.51-3.45,28.88-3.45,64.51-3.45,64.5,1.54,64.5,3.45Z"/>
        <path d="M129.01,298.24c-17.24,0-33.45-.36-45.63-1.01-19.3-1.03-19.3-2.22-19.3-2.86s0-1.83,19.3-2.86c12.19-.65,28.39-1.01,45.63-1.01s33.45.36,45.63,1.01c19.3,1.03,19.3,2.22,19.3,2.86s0,1.83-19.3,2.86c-12.19.65-28.39,1.01-45.63,1.01ZM65.05,294.37c2.49,1.48,28.16,3.02,63.97,3.02s61.48-1.54,63.96-3.02c-2.49-1.48-28.16-3.02-63.96-3.02s-61.48,1.54-63.97,3.02Z"/>
      </g>
      <g>
        <path class="st8" d="M96.95,218.65s-12.22,67.58-3.91,70.49c8.31,2.9,16-10.33,16-10.33,0,0,6.62,2.03,18.03,2.23,11.42.2,20.59-2.37,20.59-2.37,0,0,8.51,14.72,17.69,11.69,9.18-3.04-5.41-71.87-5.41-71.87l-63,.17Z"/>
        <path d="M93.19,217.62c-2.39,13.25-4.34,26.62-5.74,40.02-.84,8.07-1.71,16.39-.98,24.51.24,2.64.55,5.91,2.17,8.14,3.29,4.53,9.79,3.54,14.03.94,4-2.45,7.38-6.42,9.73-10.44-1.47.6-2.93,1.19-4.4,1.79,6.06,1.84,12.78,2.23,19.06,2.36,7.16.15,14.71-.58,21.63-2.5-1.46-.59-2.93-1.19-4.4-1.79,4.37,7.52,13.6,17.24,23.17,13.02,2.46-1.08,3.62-4.13,4.12-6.57.69-3.38.75-6.88.67-10.31-.2-9.21-1.48-18.41-2.84-27.5-1.22-8.17-2.65-16.3-4.22-24.4-.48-2.48-.97-4.96-1.5-7.43-.35-1.68-2.1-2.87-3.76-2.86-13.57.04-27.14.07-40.72.11-7.43.02-14.85.04-22.28.06-5.03,0-5.03,7.8,0,7.79,13.57-.04,27.14-.07,40.72-.11,7.43-.02,14.85-.04,22.28-.06-1.25-.95-2.5-1.9-3.76-2.86.87,4.07,1.65,8.16,2.41,12.25.77,4.12,1.49,8.26,2.17,12.39.38,2.3.74,4.61,1.09,6.92.17,1.12.33,2.26.5,3.38.08.57.16,1.13.24,1.7.04.28.08.57.11.85-.15-1.14.02.16.05.38,1.07,8.17,2.12,16.57,1.63,24.83-.04.71-.1,1.42-.19,2.13-.08.7.15-1.07.05-.39-.02.16-.05.31-.07.47-.06.35-.13.69-.2,1.02-.12.51-.26,1.02-.44,1.51-.27.76.5-1.06.08-.21-.1.21-.23.42-.35.61-.17.25.83-.94.21-.31-.57.58.89-.61.34-.25-.71.45,1.34-.45.2-.1-.29.09-.59.14-.89.2,1.04-.2-.19-.02-.44-.02-.3,0-.59-.03-.88-.06,1.06.1.1-.02-.11-.07-.29-.07-.57-.16-.85-.25-.17-.06-1.08-.45-.17-.05-.55-.25-1.08-.55-1.6-.86-.26-.16-.51-.33-.77-.5-.17-.12-.33-.24-.5-.36.38.29.4.31.05.04-1.03-.83-1.97-1.76-2.87-2.73-.46-.49-.89-1-1.31-1.51-.17-.21-.34-.42-.51-.62.7.88-.01-.02-.15-.21-.72-.95-1.4-1.95-2-2.99-.87-1.5-2.72-2.25-4.4-1.79-6.58,1.82-12.62,2.32-19.56,2.23-6.27-.09-11.19-.33-16.99-2.09-1.67-.51-3.54.31-4.4,1.79-.57.97-1.22,1.9-1.9,2.8-.52.7.56-.71,0,0-.17.21-.34.42-.51.62-.37.44-.75.87-1.13,1.29-.41.44-.83.87-1.28,1.28-.22.21-.45.42-.68.62-.14.12-1.19.93-.42.35-.49.37-1,.7-1.54,1-.26.15-.53.29-.8.42-.9.45.77-.28-.17.06-.27.1-.56.18-.84.25-.2.06-1.17.2-.11.07-.29.04-.59.04-.87.04-.2,0-.4-.01-.59-.02.54.08.59.08.14,0-.31-.06-.6-.16-.9-.25,1.25.41.98.44.67.28-.68-.35.84.73.35.29-.63-.58.4.57.22.33-.14-.18-.24-.38-.35-.58-.43-.83.37.96.09.23-.09-.23-.16-.46-.23-.7-.17-.59-.3-1.19-.4-1.79-.06-.36-.23-1.61-.03-.08-.05-.34-.08-.69-.12-1.03-.08-.82-.13-1.64-.17-2.46-.18-3.92,0-7.86.23-11.77.29-4.63.75-9.25,1.27-13.87.26-2.36.55-4.72.85-7.08.07-.55.15-1.11.22-1.67.04-.27.07-.55.11-.83-.15,1.11-.02.15,0-.06.16-1.17.32-2.33.49-3.5.93-6.53,1.95-13.05,3.08-19.55.11-.62.22-1.24.33-1.86.37-2.08-.54-4.19-2.72-4.79-1.9-.52-4.42.63-4.79,2.73Z"/>
      </g>
      <g>
        <g>
          <polygon class="st14" points="158.34 217.84 129.39 217.84 129.15 217.84 100.21 217.84 87.66 259.09 129.15 259.09 129.39 259.09 170.88 259.09 158.34 217.84"/>
          <path d="M158.34,210.04h-58.13c-3.54,0-6.5,2.39-7.52,5.72-3.99,13.15-7.99,26.29-11.99,39.43-.19.61-.37,1.21-.55,1.82-1.48,4.87,2.55,9.87,7.51,9.87h83.22c4.96,0,8.99-4.99,7.52-9.87-4-13.14-8-26.29-11.99-39.43-.18-.61-.37-1.21-.55-1.82-1.24-4.06-5.41-6.59-9.59-5.44-4.01,1.1-6.68,5.52-5.44,9.58,4,13.14,8,26.29,11.99,39.44.18.6.37,1.21.55,1.81,2.5-3.29,5.01-6.58,7.51-9.86h-83.22c2.51,3.29,5.01,6.58,7.51,9.86,4-13.14,8-26.29,11.99-39.43.19-.61.37-1.21.55-1.82-2.51,1.9-5.01,3.82-7.51,5.72h58.13c4.25,0,7.79-3.55,7.79-7.79s-3.54-7.79-7.79-7.79Z"/>
        </g>
        <polygon class="st8" points="158.34 217.84 129.39 217.84 129.15 217.84 100.21 217.84 87.66 259.09 129.15 259.09 129.39 259.09 170.88 259.09 158.34 217.84"/>
      </g>
      <rect class="st6" x="94.44" y="266.98" width="69.47" height="4.84"/>
    </g>
    <g>
      <g>
        <g>
          <path class="st14" d="M130.77,9.92c-76.45-.32-96.96,33.62-96.96,70.23,0,0-.05,10.24-.09,24.03h-.03c0,2.33.01,4.62.02,6.86,0,2.23-.01,4.53-.02,6.85h.03c.04,13.79.09,24.03.09,24.03,0,36.61,20.51,70.55,96.96,70.23,75.66-.31,93.58-33.62,93.58-70.23v-61.78c0-36.61-17.91-69.92-93.58-70.23Z"/>
          <path d="M130.77,0c-15.21-.05-30.62,1.15-45.43,4.8-10.93,2.69-21.85,6.95-31.12,13.41-8.27,5.74-15.34,12.96-20.43,21.68-4.39,7.51-7.27,16-8.6,24.57-2.03,13.09-1.35,26.51-1.39,39.71,3.31-3.31,6.61-6.61,9.92-9.92h-.03c-5.39,0-9.93,4.51-9.92,9.92.01,4.57.01,9.14,0,13.71-.01,5.41,4.52,9.92,9.92,9.92h.03c-3.3-3.31-6.61-6.61-9.92-9.92.02,7.01.05,14.02.08,21.03.01,3.11.01,6.22.23,9.33.32,4.79.98,9.6,2.02,14.28,1.04,4.66,2.69,9.06,4.56,13.45,3.49,8.19,9.03,15.7,15.63,21.65,8.48,7.66,18.52,12.94,29.25,16.73,13.13,4.63,27.24,6.54,41.08,7.34,16.12.95,32.41.22,48.34-2.48,11.87-2,23.65-5.63,34.19-11.52,9.01-5.04,16.62-11.95,22.59-20.33,9.68-13.61,12.5-30.69,12.5-47.03v-37.6c0-15.55,1.06-31.59-2.88-46.79-1.18-4.57-2.91-8.98-4.93-13.24-2.06-4.34-4.75-8.18-7.69-11.97-5.88-7.57-13.94-13.6-22.45-17.91C176.22,2.66,153,.11,130.77,0c-5.41-.03-9.91,4.53-9.91,9.92s4.51,9.89,9.91,9.92c8.79.04,17.59.51,26.32,1.68-.88-.12-1.75-.24-2.64-.35,10.08,1.37,20.09,3.65,29.48,7.61-.79-.33-1.58-.67-2.37-1,5.5,2.34,10.74,5.26,15.48,8.91-.67-.51-1.34-1.03-2.01-1.55,3.68,2.86,7,6.14,9.86,9.82-.52-.67-1.03-1.34-1.55-2.01,2.86,3.73,5.22,7.81,7.05,12.14-.33-.79-.66-1.58-1-2.37,2.33,5.57,3.79,11.44,4.6,17.42-.12-.88-.23-1.76-.36-2.64.89,6.73.8,13.49.8,20.26v37.48c0,7.11.2,14.25-.1,21.36-.12,2.67-.35,5.33-.7,7.98.12-.87.24-1.75.36-2.63-.81,5.97-2.27,11.85-4.6,17.41.33-.79.67-1.58,1-2.37-1.83,4.32-4.19,8.41-7.05,12.13.52-.67,1.03-1.34,1.55-2.01-2.85,3.68-6.18,6.96-9.86,9.82.67-.51,1.34-1.03,2.01-1.55-4.74,3.65-9.98,6.57-15.48,8.92.79-.33,1.58-.67,2.37-1-9.39,3.96-19.4,6.23-29.48,7.61.88-.12,1.76-.24,2.64-.36-17.81,2.37-36.24,2.4-54.05.05.88.12,1.76.24,2.64.35-10.26-1.38-20.45-3.7-30.02-7.71.79.33,1.58.66,2.37,1-5.76-2.44-11.25-5.48-16.21-9.29.67.51,1.34,1.03,2.01,1.55-3.87-3-7.37-6.44-10.37-10.3.52.67,1.03,1.34,1.55,2.01-2.95-3.83-5.38-8.01-7.27-12.46.33.79.67,1.58,1,2.37-2.32-5.5-3.8-11.31-4.6-17.23.12.88.24,1.76.35,2.64-.55-4.16-.73-8.34-.75-12.53-.03-7.71-.06-15.41-.08-23.12-.01-5.4-4.5-9.92-9.92-9.92h-.03c3.31,3.31,6.61,6.62,9.92,9.92.01-4.56.01-9.14,0-13.71-3.31,3.3-6.61,6.61-9.92,9.92h.03c5.42,0,9.9-4.51,9.92-9.92.03-7.71.05-15.41.08-23.12.02-4.2.2-8.37.75-12.53-.12.88-.24,1.76-.35,2.64.81-5.91,2.28-11.72,4.6-17.23-.33.79-.67,1.58-1,2.37,1.89-4.45,4.33-8.63,7.27-12.46-.52.67-1.03,1.33-1.55,2.01,3.01-3.87,6.5-7.3,10.37-10.3-.67.52-1.34,1.04-2.01,1.55,4.96-3.82,10.46-6.86,16.21-9.3-.79.34-1.58.67-2.37,1.01,9.58-4.01,19.76-6.34,30.02-7.72-.88.12-1.76.24-2.64.36,9.2-1.21,18.47-1.66,27.74-1.63,5.41.02,9.92-4.53,9.92-9.92S136.17.02,130.77,0Z"/>
        </g>
        <path class="st8" d="M130.77,9.92c-76.45-.32-96.96,33.62-96.96,70.23,0,0-.05,10.24-.09,24.03h-.03c0,2.33.01,4.62.02,6.86,0,2.23-.01,4.53-.02,6.85h.03c.04,13.79.09,24.03.09,24.03,0,36.61,20.51,70.55,96.96,70.23,75.66-.31,93.58-33.62,93.58-70.23v-61.78c0-36.61-17.91-69.92-93.58-70.23Z"/>
        <g>
          <path class="st6" d="M33.69,104.18h0c0,.66,0,1.32,0,1.97,0-.66,0-1.32,0-1.97Z"/>
          <path class="st6" d="M130.77,202.37c-76.45.32-96.96-33.62-96.96-70.23,0,0-.05-10.24-.09-24.03h-.03c0,.98,0,1.96,0,2.92,0,2.23-.01,4.53-.02,6.85h.03c.04,13.79.09,24.03.09,24.03,0,36.61,20.51,70.55,96.96,70.23,75.66-.31,93.58-33.62,93.58-70.23v-9.77c0,36.61-17.91,69.92-93.58,70.23Z"/>
        </g>
        <path class="st20" d="M130.83,16.72c63.59.26,86.9,23.54,92.99,52.64-3.56-32.12-24.86-59.17-93.01-59.44-69.73-.29-92.93,27.92-96.46,60.65,6.29-29.81,31.31-54.12,96.49-53.86Z"/>
      </g>
      <g>
        <g>
          <path class="st14" d="M49.64,81.68c-.16,1.99-.23,4-.23,6,0,0-.03,8.56-.07,20.1h-.03c0,1.95.01,3.86.02,5.73,0,1.87-.01,3.79-.02,5.73h.03c.04,11.54.07,20.09.07,20.09,0,30.61,17.15,58.98,81.07,58.72,63.26-.27,78.23-28.12,78.23-58.72v-51.64c0-2.01-.07-4.02-.21-6,0,0-23.54-10.37-80.07-10.37s-78.79,10.37-78.79,10.37Z"/>
          <path d="M39.73,81.68c-.65,8.64-.28,17.44-.3,26.1,3.31-3.31,6.61-6.62,9.92-9.92h-.03c-5.39,0-9.92,4.52-9.91,9.92,0,3.82,0,7.64,0,11.46,0,5.41,4.52,9.92,9.91,9.92h.03c-3.31-3.31-6.61-6.62-9.92-9.92.02,6.39.04,12.78.07,19.17.01,3.38.14,6.75.56,10.11,1.18,9.51,3.75,18.73,8.93,26.9,5.53,8.73,13.42,15.77,22.49,20.66,11.91,6.43,25.1,9.3,38.44,10.84,15.98,1.85,32.33,1.33,48.2-1.16,11.66-1.83,23.5-5.45,33.47-11.9,8.31-5.38,15.43-12.72,19.9-21.6,4.34-8.63,6.37-17.93,6.99-27.54.46-7.25.16-14.59.16-21.86v-15.59c0-8.5.36-17.11-.21-25.6-.22-3.23-1.67-7.13-4.91-8.56-11-4.84-23.24-6.88-35.06-8.49-15.32-2.08-30.72-3.08-46.18-3.22-15.47-.14-30.97.46-46.34,2.29-13.87,1.65-28.26,3.71-41.16,9.36-.04.02-.09.04-.14.06-4.9,2.27-6.1,9.24-3.56,13.57,1.3,2.22,3.45,3.87,5.93,4.56,2.76.76,5.14.17,7.64-1,.13-.06.26-.11.39-.16-.79.33-1.58.66-2.37,1,2.98-1.25,6.1-2.16,9.21-3.01,7.49-2.01,15.16-3.37,22.84-4.4-.87.12-1.76.24-2.63.35,14.62-1.96,29.39-2.71,44.14-2.79,15.38-.08,30.8.58,46.08,2.43,1.06.13,2.11.27,3.17.4-.88-.12-1.76-.24-2.64-.35,8.11,1.09,16.2,2.52,24.1,4.65,2.98.79,5.99,1.64,8.84,2.85-.79-.33-1.58-.66-2.37-1,.03.01.06.02.09.04-1.63-2.85-3.27-5.71-4.91-8.56.55,8.16.21,16.41.21,24.58v15c0,9.53.58,19.3-.69,28.78.12-.88.24-1.76.36-2.64-.68,4.95-1.9,9.82-3.83,14.43.33-.79.67-1.58,1-2.37-1.53,3.6-3.48,6.98-5.85,10.08.52-.67,1.03-1.34,1.55-2-2.44,3.15-5.28,5.95-8.43,8.39.67-.52,1.34-1.03,2.01-1.55-3.92,2.99-8.23,5.39-12.76,7.33.78-.33,1.58-.66,2.37-1-7.82,3.29-16.15,5.2-24.54,6.36.88-.12,1.76-.24,2.64-.35-15.04,2.01-30.61,2.03-45.65.02.88.12,1.75.24,2.64.35-8.54-1.17-17-3.13-24.95-6.48.79.33,1.58.66,2.37,1-4.75-2.03-9.28-4.55-13.38-7.7.67.52,1.34,1.03,2.01,1.55-3.26-2.52-6.19-5.41-8.72-8.67.52.68,1.03,1.34,1.55,2.01-2.45-3.19-4.47-6.67-6.04-10.37.33.79.66,1.58,1,2.37-1.95-4.62-3.18-9.49-3.85-14.45.12.88.24,1.76.35,2.64-.46-3.47-.61-6.95-.62-10.44-.03-6.44-.05-12.87-.07-19.32-.02-5.4-4.5-9.92-9.92-9.92h-.03c3.31,3.31,6.62,6.62,9.92,9.92,0-3.82,0-7.64,0-11.46-3.31,3.3-6.61,6.61-9.92,9.92h.03c5.42,0,9.9-4.51,9.92-9.92.02-8.66-.35-17.46.3-26.1.4-5.4-4.82-9.92-9.92-9.92-2.62,0-5.16,1.06-7.01,2.9-1.97,1.96-2.7,4.31-2.91,7.01Z"/>
        </g>
        <path class="st10" d="M49.64,81.68c-.16,1.99-.23,4-.23,6,0,0-.03,8.56-.07,20.1h-.03c0,1.95.01,3.86.02,5.73,0,1.87-.01,3.79-.02,5.73h.03c.04,11.54.07,20.09.07,20.09,0,30.61,17.15,58.98,81.07,58.72,63.26-.27,78.23-28.12,78.23-58.72v-51.64c0-2.01-.07-4.02-.21-6,0,0-23.54-10.37-80.07-10.37s-78.79,10.37-78.79,10.37Z"/>
        <path class="st17" d="M208.51,81.68s-23.54-10.37-80.07-10.37c-1,0-1.99,0-2.98.01,54.38.35,77.1,10.36,77.1,10.36.14,1.99.21,3.99.21,6v51.64c0,30.27-14.64,57.83-76.12,58.7,1.26.02,2.54.02,3.84.02,63.26-.27,78.23-28.12,78.23-58.72v-51.64c0-2.01-.07-4.02-.21-6Z"/>
        <path class="st5" d="M171.28,178.21c-63.91.26-81.06-28.12-81.06-58.72,0,0-.04-8.56-.07-20.1h-.03c0-1.95.01-3.86.02-5.73,0-1.87-.01-3.79-.02-5.73h.03c.02-6.01.04-11.21.05-14.81-28.6,2.98-40.55,8.54-40.55,8.54-.16,1.99-.23,4-.23,6,0,0-.03,8.56-.07,20.1h-.03c0,1.95.01,3.86.02,5.73,0,1.87-.01,3.79-.02,5.73h.03c.04,11.54.07,20.09.07,20.09,0,30.61,17.15,58.98,81.07,58.72,35.21-.15,55.46-8.84,66.5-21.79-7.52,1.23-16.05,1.92-25.69,1.96Z"/>
        <path class="st7" d="M128.43,79.81c49.73,0,74.43,7.87,80.29,10.03v-2.16c0-2.01-.07-4.02-.21-6,0,0-23.54-10.37-80.08-10.37s-78.79,10.37-78.79,10.37c-.16,1.99-.23,4-.23,6,0,0,0,.77,0,2.15,5.65-2.18,29.38-10.02,79.02-10.02Z"/>
        <path class="st15" d="M49.41,89.84c3.93-1.52,16.64-5.79,40.75-8.23.01-3.32.02-6.2.03-8.46-.52.06-1.04.11-1.54.17-.05,0-.09,0-.14.01-.52.06-1.03.12-1.53.17-.08.01-.17.02-.25.04-1.11.13-2.19.26-3.24.4-.04,0-.08.01-.13.01-.5.07-.99.13-1.48.2-.04,0-.08.01-.12.02-1.05.14-2.07.29-3.06.44-.03,0-.05,0-.08,0-20.29,3.04-28.98,7.08-28.98,7.08-.16,1.99-.23,4-.23,6.01,0,0,0,.76,0,2.14Z"/>
      </g>
    </g>
    <g>
      <g>
        <g>
          <path class="st14" d="M161.93,186.95c0,18.18-14.73,32.92-32.91,32.92s-32.92-14.74-32.92-32.92,14.74-32.92,32.92-32.92,32.91,14.74,32.91,32.92Z"/>
          <path d="M152.01,186.95c0,1.44-.1,2.88-.28,4.31.12-.88.24-1.76.35-2.64-.39,2.9-1.15,5.71-2.27,8.42.33-.78.67-1.57,1-2.36-1.12,2.62-2.55,5.09-4.29,7.36.51-.67,1.03-1.34,1.55-2.01-1.75,2.24-3.75,4.24-5.99,5.99.67-.52,1.34-1.03,2.01-1.55-2.27,1.73-4.73,3.16-7.36,4.29.79-.34,1.58-.67,2.37-1.01-2.7,1.12-5.52,1.88-8.42,2.28.88-.12,1.76-.24,2.64-.36-2.87.36-5.75.36-8.61,0,.88.12,1.76.24,2.63.36-2.9-.4-5.71-1.16-8.42-2.28.79.34,1.58.67,2.37,1.01-2.63-1.13-5.09-2.56-7.36-4.29.67.52,1.34,1.03,2.01,1.55-2.24-1.75-4.24-3.75-5.99-5.99.52.67,1.04,1.34,1.55,2.01-1.73-2.27-3.16-4.73-4.29-7.36.33.79.67,1.58,1,2.36-1.12-2.7-1.88-5.51-2.27-8.42.12.88.24,1.76.35,2.64-.36-2.87-.36-5.74,0-8.61-.12.88-.24,1.76-.35,2.63.4-2.9,1.15-5.71,2.27-8.42-.33.79-.67,1.58-1,2.37,1.13-2.63,2.55-5.09,4.29-7.37-.51.67-1.03,1.34-1.55,2.01,1.75-2.24,3.75-4.24,5.99-5.99-.67.52-1.34,1.04-2.01,1.55,2.27-1.73,4.73-3.17,7.36-4.29-.79.34-1.58.67-2.37,1,2.71-1.11,5.52-1.87,8.42-2.27-.87.12-1.75.24-2.63.35,2.86-.35,5.74-.35,8.61,0-.88-.12-1.76-.24-2.64-.35,2.9.4,5.71,1.15,8.42,2.27-.79-.33-1.58-.66-2.37-1,2.63,1.12,5.09,2.56,7.36,4.29-.67-.51-1.34-1.03-2.01-1.55,2.24,1.75,4.24,3.75,5.99,5.99-.52-.67-1.04-1.34-1.55-2.01,1.73,2.27,3.17,4.73,4.29,7.37-.33-.79-.67-1.58-1-2.37,1.12,2.71,1.88,5.52,2.27,8.42-.12-.87-.24-1.76-.35-2.63.18,1.43.27,2.86.28,4.31.03,5.4,4.49,9.92,9.92,9.92s9.95-4.52,9.92-9.92c-.1-15.62-8.83-30.53-22.74-37.82-13.93-7.3-31.76-6.62-44.6,2.74-6.16,4.49-11.41,10.29-14.43,17.35-.88,2.08-1.74,4.12-2.36,6.29-.66,2.33-.97,4.74-1.27,7.14-.5,4.06-.14,7.97.46,12.01,1.14,7.68,5.02,14.67,9.93,20.54,4.91,5.88,11.73,9.99,18.91,12.47,12.33,4.28,27.23,2.03,37.75-5.64,5.48-3.99,10.15-8.94,13.32-14.98,3.25-6.21,4.97-13.09,5.01-20.1.03-5.41-4.54-9.92-9.92-9.92s-9.89,4.51-9.92,9.92Z"/>
        </g>
        <path class="st8" d="M161.93,186.95c0,18.18-14.73,32.92-32.91,32.92s-32.92-14.74-32.92-32.92,14.74-32.92,32.92-32.92,32.91,14.74,32.91,32.92Z"/>
        <path class="st20" d="M129.01,158.56c17.41,0,31.67,13.53,32.84,30.65.05-.75.08-1.51.08-2.27,0-18.18-14.73-32.92-32.91-32.92s-32.92,14.74-32.92,32.92c0,.76.03,1.52.08,2.27,1.16-17.12,15.42-30.65,32.84-30.65Z"/>
        <path class="st6" d="M129.01,215.35c17.41,0,31.67-13.53,32.84-30.65.05.74.08,1.51.08,2.27,0,18.17-14.73,32.91-32.91,32.91s-32.92-14.74-32.92-32.91c0-.76.03-1.53.08-2.27,1.16,17.12,15.42,30.65,32.84,30.65Z"/>
      </g>
      <g>
        <path class="st4" d="M129.01,164.82c-12.22,0-22.12,9.91-22.12,22.12s9.9,22.12,22.12,22.12,22.12-9.9,22.12-22.12-9.9-22.12-22.12-22.12ZM129.01,203.02c-8.88,0-16.07-7.2-16.07-16.07s7.19-16.07,16.07-16.07,16.07,7.19,16.07,16.07-7.19,16.07-16.07,16.07Z"/>
        <g>
          <path d="M129.01,163.41c-13.2.12-23.87,11.12-23.52,24.33.35,13.18,12.08,23.49,25.1,22.69,12.57-.77,22.27-11.81,21.94-24.28-.33-12.59-11.07-22.63-23.52-22.74-1.83-.02-1.83,2.82,0,2.84,6.44.06,12.33,2.98,16.35,7.99,4.04,5.02,5.24,11.93,3.64,18.09-1.58,6.11-6.06,11.04-11.76,13.63-5.87,2.66-12.91,2.11-18.47-1.01-8.19-4.58-12.09-14.39-9.76-23.38,2.34-9.01,10.79-15.24,20-15.32,1.82-.02,1.83-2.85,0-2.84Z"/>
          <path d="M129.01,201.6c-6.47-.08-12.13-4.27-14.05-10.45-1.92-6.2.75-13.01,6.13-16.53,5.43-3.56,12.76-2.9,17.61,1.33,4.88,4.26,6.3,11.46,3.54,17.3-2.41,5.11-7.64,8.29-13.24,8.35-1.83.02-1.83,2.86,0,2.84,6.39-.08,12.22-3.51,15.34-9.09,3.15-5.61,2.73-12.72-.76-18.06-3.5-5.33-9.83-8.29-16.15-7.75-6.29.54-11.88,4.61-14.43,10.35-2.4,5.42-1.81,11.78,1.42,16.72,3.2,4.89,8.77,7.75,14.58,7.82,1.83.02,1.82-2.81,0-2.84Z"/>
        </g>
      </g>
      <g>
        <rect class="st4" x="124.5" y="202.9" width="9.03" height="21.83"/>
        <path d="M133.95,225.16h-9.88v-22.68h9.88v22.68ZM124.92,224.31h8.18v-20.98h-8.18v20.98Z"/>
      </g>
      <g>
        <g>
          <rect class="st4" x="100.7" y="163.06" width="9.03" height="21.83" transform="translate(-98.1 172.37) rotate(-58.38)"/>
          <path d="M112.29,184.13l-.36-.22-18.96-11.66,5.18-8.42.36.22,18.96,11.66-5.18,8.41ZM94.13,171.97l17.87,10.99,4.29-6.96-17.87-10.99-4.29,6.97Z"/>
        </g>
        <g>
          <rect class="st4" x="141.9" y="169.46" width="21.83" height="9.03" transform="translate(-68.51 105.88) rotate(-31.6)"/>
          <path d="M145.74,184.13l-5.18-8.41,19.32-11.89,5.18,8.42-19.32,11.88ZM141.73,175.99l4.29,6.96,17.87-10.99-4.29-6.97-17.87,10.99Z"/>
        </g>
      </g>
    </g>
    <path class="st6" d="M143.79,186.92c0,8.16-6.62,14.79-14.78,14.79s-14.78-6.62-14.78-14.79,6.62-14.79,14.78-14.79,14.78,6.62,14.78,14.79Z"/>
    <path class="st12" d="M129.01,175.68c7.56,0,13.79,5.68,14.67,13.01.07-.58.11-1.17.11-1.77,0-8.16-6.62-14.79-14.78-14.79s-14.78,6.62-14.78,14.79c0,.6.04,1.19.11,1.77.88-7.33,7.11-13.01,14.67-13.01Z"/>
    <path class="st19" d="M129.01,198.16c7.56,0,13.79-5.68,14.67-13.01.07.58.11,1.17.11,1.77,0,8.16-6.62,14.79-14.78,14.79s-14.78-6.62-14.78-14.79c0-.6.04-1.19.11-1.77.88,7.33,7.11,13.01,14.67,13.01Z"/>
    <g>
      <rect class="st4" x="74.5" y="236.65" width="5.85" height="15.02" transform="translate(-171.49 183.74) rotate(-58.76)"/>
      <path d="M82.47,251.14l-13.57-8.22,3.48-5.73,13.57,8.23-3.48,5.72ZM70.07,242.62l12.11,7.35,2.6-4.27-12.11-7.35-2.59,4.28Z"/>
    </g>
    <path class="st2" d="M71.85,242.94l9.87,5.95s-5.95,5.95-9.68,2.93c-3.73-3.03-.19-8.88-.19-8.88Z"/>
    <g>
      <rect class="st4" x="173.27" y="240.26" width="15.02" height="5.85" transform="translate(-99.96 129.13) rotate(-31.26)"/>
      <path d="M175.73,250.17l-3.48-5.73,13.57-8.23,3.48,5.73-.36.22-13.2,8.01ZM173.43,244.72l2.59,4.28,12.11-7.35-2.6-4.28-12.11,7.35Z"/>
    </g>
    <path class="st2" d="M186.61,242.94l-9.87,5.95s5.95,5.95,9.68,2.93c3.73-3.03.19-8.88.19-8.88Z"/>
    <g>
      <g>
        <g>
          <path class="st4" d="M173.65,212.66c-.21,1.2-1.35,2.01-2.56,1.8l-4.36-.76c-1.21-.21-2.01-1.36-1.8-2.56l4.75-27.24c.21-1.21,1.36-2.01,2.56-1.8l4.36.76c1.2.21,2.01,1.36,1.8,2.56l-4.75,27.24Z"/>
          <path d="M171.47,214.92c-.15,0-.3-.02-.45-.04l-4.36-.76c-1.43-.25-2.4-1.62-2.15-3.05l4.75-27.24c.24-1.42,1.6-2.41,3.05-2.15l4.36.76c1.43.25,2.4,1.62,2.15,3.05l-4.75,27.24c-.22,1.27-1.31,2.19-2.6,2.19ZM171.85,182.49c-.87,0-1.6.62-1.75,1.48l-4.75,27.24c-.17.97.48,1.9,1.46,2.07l4.36.76c.99.17,1.9-.5,2.07-1.46l4.75-27.24c.17-.97-.48-1.9-1.46-2.07l-4.36-.76c-.1-.02-.21-.03-.31-.03Z"/>
        </g>
        <g>
          <g>
            <path class="st14" d="M197.75,181.43l-7.35-1.28c-2.03-.35-3.96,1-4.31,3.04l-2.27,13.05-1.41,8.08-2.27,13.05c-.35,2.03,1,3.96,3.03,4.32l7.35,1.28c2.03.35,3.96-1.01,4.31-3.04l2.27-13.05,1.41-8.09,2.27-13.04c.35-2.03-1-3.97-3.04-4.32Z"/>
            <path d="M200.39,171.86c-1.67-.29-3.35-.58-5.02-.87-.74-.13-1.48-.26-2.21-.39-3.74-.65-6.83-.32-10.24,1.41-3.64,1.84-5.92,5.8-6.59,9.68-.35,2.02-.7,4.04-1.06,6.06-.99,5.71-1.99,11.43-2.99,17.14-.74,4.27-1.58,8.53-2.11,12.84-.44,3.59,1.69,7.47,4.04,9.96,1.65,1.75,4.28,3.18,6.64,3.59,1.96.34,3.92.68,5.89,1.03,1.39.24,2.77.43,4.17.59,3.54.44,7.93-1.71,10.2-4.31,2.14-2.44,3.13-5.07,3.66-8.14.64-3.63,1.26-7.26,1.9-10.89.66-3.79,1.32-7.59,1.98-11.38.5-2.89,1.01-5.78,1.51-8.67.28-1.62.71-3.27.58-4.91-.47-5.95-4.3-11.39-10.34-12.76-5.27-1.2-10.72,1.54-12.2,6.93-1.38,5.03,1.66,11.01,6.92,12.21.25.04.5.11.73.2-.79-.33-1.58-.67-2.37-1,.35.16.64.32.95.54-.67-.52-1.34-1.03-2.01-1.55.28.24.51.48.74.78-.51-.67-1.03-1.34-1.55-2.01.13.2.25.4.35.62-.33-.79-.67-1.58-1-2.37.13.35.23.68.29,1.04-.12-.88-.24-1.75-.36-2.64.03.39.02.73-.02,1.12.12-.88.24-1.76.35-2.64-1.01,5.79-2.01,11.58-3.02,17.37-.45,2.58-.9,5.16-1.35,7.74-.35,2.03-.71,4.06-1.06,6.1-.21,1.22-.33,2.53-.72,3.71.33-.79.67-1.58,1-2.37-.16.34-.32.64-.55.95.52-.67,1.04-1.34,1.55-2.01-.24.28-.48.51-.78.74.67-.52,1.34-1.03,2-1.55-.19.14-.4.26-.62.35.79-.33,1.58-.66,2.37-1-.35.14-.67.23-1.04.29.88-.12,1.75-.24,2.64-.35-.39.03-.74.02-1.12-.02.88.12,1.76.24,2.64.35-2.64-.46-5.54-.63-8.08-1.48.79.34,1.58.66,2.37,1-.35-.16-.64-.32-.95-.54.67.51,1.33,1.03,2,1.55-.28-.24-.51-.48-.73-.78.52.67,1.03,1.34,1.55,2.01-.13-.2-.25-.4-.35-.62.33.79.67,1.58,1,2.37-.14-.35-.22-.67-.29-1.04.12.88.24,1.76.35,2.64-.03-.39-.02-.74.03-1.12-.12.88-.24,1.76-.35,2.64,1.01-5.79,2.01-11.57,3.02-17.36.45-2.58.9-5.16,1.35-7.74.35-2.03.71-4.06,1.06-6.1.21-1.22.32-2.53.72-3.71-.33.79-.66,1.58-1,2.37.16-.35.33-.64.55-.95-.52.67-1.03,1.34-1.55,2.01.24-.28.48-.51.78-.74-.67.52-1.34,1.03-2,1.55.19-.14.4-.26.62-.36-.79.34-1.58.67-2.37,1,.35-.13.67-.23,1.04-.29-.88.12-1.76.24-2.64.36.39-.04.74-.02,1.12.02-.88-.12-1.76-.24-2.64-.35,2.45.43,4.9.85,7.35,1.28,2.73.47,5.18.44,7.64-1,2.22-1.29,3.88-3.45,4.56-5.92.7-2.56.34-5.36-1-7.64-1.2-2.04-3.51-4.14-5.93-4.56Z"/>
          </g>
          <path class="st8" d="M197.75,181.43l-7.35-1.28c-2.03-.35-3.96,1-4.31,3.04l-2.27,13.05-1.41,8.08-2.27,13.05c-.35,2.03,1,3.96,3.03,4.32l7.35,1.28c2.03.35,3.96-1.01,4.31-3.04l2.27-13.05,1.41-8.09,2.27-13.04c.35-2.03-1-3.97-3.04-4.32Z"/>
          <path class="st20" d="M197.75,181.43l-7.35-1.28c-2.03-.35-3.96,1-4.31,3.04l-.79,4.5c.35-2.03,2.28-3.39,4.31-3.04l7.35,1.29c2.03.35,3.39,2.29,3.04,4.31l.78-4.5c.35-2.03-1-3.97-3.04-4.32Z"/>
          <path class="st6" d="M192.07,214.06l-7.35-1.28c-2.03-.35-3.39-2.29-3.04-4.32l-1.55,8.9c-.35,2.03,1,3.96,3.03,4.32l7.35,1.28c2.03.35,3.96-1.01,4.31-3.04l1.55-8.9c-.35,2.03-2.29,3.39-4.32,3.04Z"/>
        </g>
      </g>
      <g>
        <g>
          <path class="st4" d="M84.38,212.66c.21,1.2,1.35,2.01,2.55,1.8l4.36-.76c1.2-.21,2.01-1.36,1.8-2.56l-4.75-27.24c-.21-1.21-1.36-2.01-2.56-1.8l-4.36.76c-1.21.21-2.01,1.36-1.8,2.56l4.75,27.24Z"/>
          <path d="M86.55,214.92c-1.28,0-2.38-.92-2.59-2.19l-4.75-27.24c-.25-1.43.72-2.8,2.15-3.05l4.36-.76c1.43-.26,2.81.73,3.05,2.15l4.75,27.24c.25,1.43-.72,2.8-2.15,3.05l-4.36.76c-.15.03-.31.04-.45.04ZM86.17,182.49c-.1,0-.21,0-.32.03l-4.36.76c-.97.17-1.62,1.1-1.45,2.07l4.75,27.24c.17.96,1.07,1.62,2.07,1.46l4.36-.76c.97-.17,1.62-1.1,1.46-2.07l-4.75-27.24c-.15-.86-.89-1.48-1.75-1.48Z"/>
        </g>
        <g>
          <g>
            <path class="st14" d="M60.27,181.43l7.35-1.28c2.03-.35,3.96,1,4.32,3.04l2.27,13.05,1.41,8.08,2.27,13.05c.35,2.03-1.01,3.96-3.03,4.32l-7.35,1.28c-2.03.35-3.96-1.01-4.31-3.04l-2.27-13.05-1.41-8.09-2.27-13.04c-.36-2.03,1-3.97,3.03-4.32Z"/>
            <path d="M62.91,190.99c2.45-.43,4.9-.86,7.35-1.28-.88.12-1.75.24-2.64.35.39-.05.74-.06,1.12-.02-.88-.12-1.76-.24-2.64-.36.37.07.69.16,1.04.29-.79-.33-1.58-.66-2.37-1,.22.1.42.22.62.36-.67-.52-1.34-1.04-2.01-1.55.29.23.54.46.78.74-.52-.67-1.03-1.34-1.55-2.01.22.31.39.6.54.95-.33-.79-.66-1.58-1-2.37.38,1.12.48,2.33.68,3.47.37,2.11.74,4.23,1.1,6.33.45,2.58.9,5.15,1.35,7.74,1.01,5.79,2.01,11.57,3.02,17.36-.12-.88-.24-1.75-.35-2.64.05.39.05.74.02,1.12.12-.88.23-1.76.35-2.64-.06.37-.16.69-.29,1.04.33-.79.67-1.58,1-2.37-.1.22-.21.43-.35.62.51-.67,1.03-1.34,1.55-2.01-.23.29-.46.54-.74.78.67-.51,1.34-1.03,2.01-1.55-.31.22-.6.39-.95.54.79-.34,1.58-.66,2.37-1-2.54.86-5.44,1.02-8.08,1.48.88-.12,1.76-.24,2.64-.35-.38.04-.73.05-1.12.02.88.12,1.76.24,2.64.35-.37-.06-.69-.16-1.04-.29.79.34,1.58.67,2.37,1-.22-.09-.42-.21-.62-.35.67.52,1.34,1.03,2,1.55-.29-.23-.53-.46-.78-.74.52.67,1.04,1.34,1.55,2.01-.22-.3-.39-.61-.55-.95.33.79.67,1.58,1,2.37-.37-1.11-.48-2.33-.69-3.48-.36-2.11-.73-4.22-1.1-6.33-.45-2.58-.9-5.16-1.35-7.74-1.01-5.79-2.02-11.57-3.03-17.37.12.88.24,1.76.35,2.64-.05-.39-.05-.73-.03-1.12-.12.88-.24,1.76-.36,2.64.07-.37.16-.69.3-1.04-.33.79-.67,1.58-1,2.37.1-.22.21-.43.35-.62-.51.67-1.03,1.34-1.55,2.01.23-.3.46-.54.74-.78-.67.51-1.34,1.03-2.01,1.55.31-.22.6-.39.95-.54-.79.33-1.58.66-2.37,1,.24-.09.48-.16.73-.2,5.27-1.2,8.31-7.18,6.93-12.21-1.48-5.38-6.93-8.12-12.2-6.93-3.64.82-6.57,3.29-8.53,6.39-1.96,3.09-2.02,6.73-1.42,10.19.25,1.47.51,2.95.77,4.42.53,3.03,1.06,6.07,1.59,9.11,1.17,6.71,2.34,13.42,3.5,20.12.86,4.93,5.23,9.55,10.21,10.45,2.53.46,4.47.31,6.99-.13,1.03-.19,2.05-.36,3.08-.54,2.67-.47,4.98-.77,7.42-2.18,3.02-1.74,5.62-5.13,6.24-8.58.45-2.52.33-4.35-.11-6.85-1.17-6.71-2.34-13.42-3.51-20.13-.76-4.38-1.52-8.75-2.29-13.13-.46-2.62-1.94-5.21-3.87-7.03-2.53-2.38-5.55-3.5-8.96-3.77-1.36-.11-2.74.2-4.08.43-2.34.41-4.69.82-7.04,1.22-2.42.42-4.73,2.52-5.92,4.56-1.34,2.29-1.71,5.08-1,7.64.68,2.48,2.34,4.63,4.56,5.92,2.47,1.45,4.92,1.47,7.64,1Z"/>
          </g>
          <path class="st8" d="M60.27,181.43l7.35-1.28c2.03-.35,3.96,1,4.32,3.04l2.27,13.05,1.41,8.08,2.27,13.05c.35,2.03-1.01,3.96-3.03,4.32l-7.35,1.28c-2.03.35-3.96-1.01-4.31-3.04l-2.27-13.05-1.41-8.09-2.27-13.04c-.36-2.03,1-3.97,3.03-4.32Z"/>
          <path class="st20" d="M60.27,181.43l7.35-1.28c2.03-.35,3.96,1,4.32,3.04l.78,4.5c-.35-2.03-2.29-3.39-4.32-3.04l-7.35,1.29c-2.03.35-3.39,2.29-3.04,4.31l-.78-4.5c-.36-2.03,1-3.97,3.03-4.32Z"/>
          <path class="st6" d="M65.96,214.06l7.35-1.28c2.03-.35,3.39-2.29,3.04-4.32l1.55,8.9c.35,2.03-1.01,3.96-3.03,4.32l-7.35,1.28c-2.03.35-3.96-1.01-4.31-3.04l-1.55-8.9c.35,2.03,2.29,3.39,4.32,3.04Z"/>
        </g>
      </g>
    </g>
    <path class="st9" d="M204.59,49.76c-1.9,2.71-8.69,1.22-15.17-3.32-6.48-4.54-10.19-10.43-8.29-13.14,1.9-2.71,8.7-1.22,15.17,3.33,6.48,4.54,10.19,10.43,8.28,13.13Z"/>
    <path class="st9" d="M210.85,54.06c-.55,1.27-2.03,1.85-3.3,1.29-1.27-.55-1.85-2.03-1.29-3.3.55-1.27,2.03-1.85,3.3-1.29,1.27.55,1.85,2.03,1.29,3.3Z"/>
    <g>
      <g>
        <rect x="64.95" y="29.55" width="58.21" height="12.74" transform="translate(57.62 129.78) rotate(-89.68)"/>
        <rect x="134.86" y="29.94" width="58.21" height="12.74" transform="translate(126.75 200.08) rotate(-89.68)"/>
      </g>
      <g>
        <g>
          <g>
            <rect class="st13" x="123.73" y="10.59" width="12.91" height="6.95" transform="translate(115.35 144.17) rotate(-89.67)"/>
            <path d="M135.75,20.55c.03-4.3.05-8.61.08-12.91.01-1.17-.97-2.12-2.12-2.13-2.32,0-4.64-.02-6.95-.04-1.17,0-2.12.97-2.12,2.12-.03,4.31-.05,8.61-.08,12.91,0,1.17.98,2.12,2.13,2.12,2.32.02,4.64.03,6.95.05,2.74.02,2.74-4.24,0-4.26-2.31-.01-4.64-.03-6.95-.03.71.7,1.42,1.41,2.13,2.12.02-4.31.05-8.61.07-12.91-.71.71-1.41,1.42-2.12,2.13,2.31.01,4.63.02,6.95.04-.71-.71-1.41-1.42-2.12-2.12-.03,4.3-.05,8.61-.08,12.91-.01,2.74,4.24,2.74,4.25,0Z"/>
          </g>
          <polygon class="st1" points="131.56 9.78 131.53 18.42 128.84 18.37 128.85 17.13 130.72 17.14 131.56 9.78"/>
        </g>
        <g>
          <g>
            <g>
              <rect class="st13" x="108.51" y="10.59" width="12.91" height="6.95" transform="translate(100.22 128.95) rotate(-89.67)"/>
              <path d="M120.53,20.55c.02-4.3.05-8.61.07-12.91,0-1.17-.97-2.12-2.13-2.13-2.32,0-4.64-.02-6.95-.04-1.16,0-2.12.97-2.12,2.12-.03,4.31-.05,8.61-.08,12.91,0,1.17.97,2.12,2.12,2.12,2.32.02,4.64.03,6.95.05,2.74.02,2.74-4.24,0-4.26-2.32-.01-4.64-.03-6.95-.03.71.7,1.42,1.41,2.12,2.12.03-4.31.05-8.61.08-12.91-.71.71-1.41,1.42-2.12,2.13,2.32.01,4.64.02,6.95.04-.71-.71-1.42-1.42-2.12-2.12-.03,4.3-.05,8.61-.08,12.91-.02,2.74,4.23,2.74,4.25,0Z"/>
            </g>
            <polygon class="st1" points="116.34 9.78 116.31 18.42 113.62 18.37 113.62 17.13 115.5 17.14 116.34 9.78"/>
          </g>
          <g>
            <g>
              <rect class="st13" x="138.95" y="10.59" width="12.91" height="6.95" transform="translate(130.45 159.39) rotate(-89.65)"/>
              <path d="M150.97,20.55c.03-4.3.05-8.61.07-12.91,0-1.17-.97-2.12-2.12-2.13-2.32,0-4.64-.02-6.96-.04-1.16,0-2.12.97-2.12,2.12-.03,4.31-.05,8.61-.08,12.91,0,1.17.97,2.12,2.13,2.12,2.32.02,4.64.03,6.95.05,2.74.02,2.74-4.24,0-4.26-2.31-.01-4.63-.03-6.95-.03.71.7,1.41,1.41,2.12,2.12.03-4.31.05-8.61.08-12.91-.71.71-1.42,1.42-2.13,2.13,2.32.01,4.64.02,6.96.04-.71-.71-1.41-1.42-2.12-2.12-.03,4.3-.05,8.61-.08,12.91-.02,2.74,4.23,2.74,4.25,0Z"/>
            </g>
            <polygon class="st1" points="146.78 9.78 146.75 18.42 144.06 18.37 144.07 17.13 145.94 17.14 146.78 9.78"/>
          </g>
        </g>
      </g>
    </g>
    <path class="st16" d="M202.72,79.72v8.24c2.82.8,4.8,1.48,6,1.92v-2.16c0-2.02-.07-4.02-.21-6,0,0-1.86-.81-5.8-2Z"/>
  </g>
  <g>
    <g>
      <path class="st14" d="M109.83,250.38s-4.04,3.41-10.37,6.29c-6.33,2.88-12.28,3.78-12.28,3.78l-1.14,2.6,4.78.5s4.63-.59,11.14-4.09c6.52-3.49,10.39-6.69,10.39-6.69l-2.52-2.39Z"/>
      <path d="M105.12,245.67c-.06.05-.13.11-.2.16-1.03.83,1.57-1.19.45-.35-1,.75-2.04,1.44-3.09,2.1-1.4.89-2.84,1.69-4.31,2.44-.46.23-.92.45-1.39.68-.23.1-1.88.83-.42.21-.97.4-1.95.76-2.94,1.1-2.44.84-4.96,1.51-7.5,1.96-3.24.57-4.31,3.15-5.44,5.71-.99,2.25-1.31,4.49,0,6.72,1.28,2.19,3.34,3.05,5.75,3.3.8.09,1.59.17,2.39.25.73.07,1.67.34,2.4.24,2.51-.33,4.85-.88,7.25-1.75,6.84-2.49,13.36-6.35,18.99-10.96,2.76-2.26,2.44-7.1,0-9.42-.84-.8-1.68-1.6-2.52-2.4-2.63-2.49-6.8-2.61-9.42,0-2.51,2.52-2.63,6.92,0,9.42.84.8,1.68,1.6,2.52,2.4v-9.42c-.09.07-.17.13-.26.2-.64.5,1.62-1.25.89-.69-.16.12-.31.24-.48.36-1.1.82-2.24,1.59-3.39,2.34-1.73,1.13-3.52,2.18-5.33,3.18-.93.51-1.88.99-2.83,1.44-.44.21-.88.4-1.31.59,1.77-.77-.04-.01-.41.13-1.28.48-2.58.88-3.9,1.21-.85.21-3.38.55.19.08-.73.09-1.67-.17-2.39-.25-.8-.08-1.59-.16-2.39-.25,1.92,3.34,3.83,6.69,5.75,10.02.38-.87.76-1.73,1.15-2.6-1.33,1.02-2.65,2.04-3.98,3.06,4.97-.76,9.81-2.57,14.35-4.67,4.02-1.85,7.85-4.27,11.24-7.11,2.78-2.33,2.4-7.02,0-9.42-2.74-2.73-6.64-2.33-9.42,0Z"/>
    </g>
    <g>
      <path class="st13" d="M109.83,250.38s-4.04,3.41-10.37,6.29c-6.33,2.88-12.28,3.78-12.28,3.78,0,0-2.31.97-1.14,2.6,1.17,1.63,4.78.5,4.78.5,0,0,4.63-.59,11.14-4.09,6.52-3.49,10.39-6.69,10.39-6.69l-2.52-2.39Z"/>
      <path class="st0" d="M87.18,261.44s5.95-.9,12.28-3.78c6.33-2.88,10.37-6.29,10.37-6.29l1.95,1.85c.38-.29.57-.45.57-.45l-2.52-2.39s-4.04,3.41-10.37,6.29c-6.33,2.88-12.28,3.78-12.28,3.78,0,0-1.93.81-1.37,2.2.34-.77,1.37-1.21,1.37-1.21Z"/>
      <path class="st1" d="M101.96,258.18c-6.52,3.49-11.14,4.09-11.14,4.09,0,0-3.61,1.13-4.78-.5-.06-.09-.11-.17-.16-.25-.23.41-.28.92.16,1.53,1.17,1.63,4.78.5,4.78.5,0,0,4.63-.59,11.14-4.09,6.52-3.49,10.39-6.69,10.39-6.69l-.74-.7c-1.41,1.07-4.8,3.5-9.65,6.11Z"/>
      <g>
        <g>
          <path class="st14" d="M147.17,250.38s4.04,3.41,10.37,6.29c6.33,2.88,12.28,3.78,12.28,3.78l1.14,2.6-4.78.5s-4.63-.59-11.15-4.09c-6.51-3.49-10.39-6.69-10.39-6.69l2.52-2.39Z"/>
          <path d="M142.46,255.08c3.41,2.86,7.23,5.21,11.23,7.11,4.51,2.13,9.4,3.91,14.35,4.67-1.32-1.02-2.65-2.04-3.98-3.06.38.87.76,1.73,1.15,2.6,1.92-3.34,3.83-6.68,5.75-10.02-1.59.17-3.17.34-4.76.5.07,0,2.48.37,1.45.19-.36-.06-.72-.14-1.07-.22-1.27-.28-2.51-.68-3.74-1.12-.38-.14-.76-.28-1.14-.43-1.43-.55,1.42.63-.07-.02-1.1-.48-2.17-1.02-3.23-1.58-1.87-.99-3.69-2.07-5.48-3.21-1.21-.77-2.39-1.58-3.55-2.42-.53-.39-1.93-1.48.33.27-.12-.09-.24-.19-.35-.28v9.42c.84-.8,1.68-1.59,2.52-2.4,2.63-2.5,2.52-6.9,0-9.42-2.61-2.61-6.79-2.49-9.42,0-.84.8-1.68,1.59-2.52,2.4-2.44,2.31-2.76,7.16,0,9.42,5.56,4.56,11.92,8.23,18.61,10.82,1.87.73,3.86,1.38,5.85,1.66,2.24.31,4.32-.02,6.56-.26,2.4-.25,4.47-1.11,5.75-3.3,1.31-2.23.99-4.47,0-6.72-1.1-2.49-2.15-5.16-5.33-5.69-2.42-.4-4.81-1.06-7.14-1.82-.81-.26-1.61-.55-2.41-.86-.22-.09-1.88-.79-.42-.16-.5-.21-.98-.44-1.47-.67-1.68-.8-3.31-1.71-4.9-2.68-1.11-.68-2.19-1.41-3.24-2.18-1.4-1.02,1.17.94.35.28-.1-.08-.19-.16-.28-.23-2.78-2.33-6.68-2.73-9.42,0-2.4,2.4-2.79,7.08,0,9.42Z"/>
        </g>
        <path class="st13" d="M147.17,250.38s4.04,3.41,10.37,6.29c6.33,2.88,12.28,3.78,12.28,3.78,0,0,2.31.97,1.14,2.6-1.17,1.63-4.78.5-4.78.5,0,0-4.63-.59-11.15-4.09-6.51-3.49-10.39-6.69-10.39-6.69l2.52-2.39Z"/>
        <path class="st0" d="M147.17,251.37s4.04,3.41,10.37,6.29c6.33,2.88,12.28,3.78,12.28,3.78,0,0,1.03.43,1.37,1.21.57-1.38-1.37-2.2-1.37-2.2,0,0-5.96-.9-12.28-3.78-6.33-2.88-10.37-6.29-10.37-6.29l-2.52,2.39s.2.16.57.45l1.95-1.85Z"/>
        <path class="st1" d="M170.97,261.77c-1.17,1.63-4.78.5-4.78.5,0,0-4.63-.59-11.15-4.09-4.85-2.6-8.24-5.03-9.65-6.11l-.74.7s3.87,3.19,10.39,6.69c6.52,3.49,11.15,4.09,11.15,4.09,0,0,3.61,1.13,4.78-.5.43-.61.39-1.12.16-1.53-.05.08-.09.17-.16.25Z"/>
      </g>
      <g>
        <g>
          <path class="st14" d="M144.57,239.1s3.24-4.17,8.83-8.31c5.59-4.14,11.22-6.26,11.22-6.26l.58-2.78-4.78.51s-4.4,1.54-10.05,6.32c-5.64,4.78-8.77,8.7-8.77,8.7l2.97,1.81Z"/>
          <path d="M149.28,243.81c1.07-1.37,2.3-2.62,3.54-3.83,1.26-1.23,2.6-2.38,3.97-3.48-1.23.99.24-.16.42-.3.44-.32.9-.63,1.35-.94.85-.58,1.73-1.11,2.62-1.64,1.33-.79,2.7-1.5,4.1-2.17.52-.25,1.04-.49,1.58-.71.89-.39-1.91.77-.58.25,2.42-.95,4.29-2.46,4.85-5.13.16-.79.32-1.56.49-2.35.37-1.79.27-3.51-.68-5.12-1.09-1.87-3.49-3.54-5.75-3.3-.8.08-1.59.17-2.39.25-1.22.13-3.04.09-4.16.49-2.2.79-4.31,1.87-6.31,3.09-5.73,3.51-11.24,8.37-15.45,13.64-1.15,1.44-1.95,2.79-1.95,4.71,0,2.38,1.28,4.51,3.3,5.75.99.61,1.98,1.21,2.97,1.82,3.1,1.89,7.31.69,9.11-2.4,1.86-3.18.7-7.22-2.39-9.11-.99-.6-1.98-1.21-2.96-1.81.45,3.48.9,6.97,1.35,10.46,1.09-1.35,2.3-2.61,3.52-3.85,1.42-1.44,2.9-2.82,4.42-4.14.41-.36.83-.71,1.25-1.06.21-.17,1.63-1.28.28-.25.85-.65,1.72-1.25,2.61-1.83,1.19-.78,2.42-1.48,3.69-2.11.35-.17.7-.33,1.06-.48-2.44,1.05-1.53.62-.97.42-1.9.69-2.21.28-1.12.17.58-.06,1.17-.12,1.74-.18.8-.09,1.59-.17,2.39-.25-2.14-2.81-4.28-5.62-6.42-8.44-.19.93-.39,1.85-.58,2.78,1.55-1.55,3.1-3.1,4.65-4.65-4.54,1.73-8.88,4.06-12.81,6.93-3.68,2.69-7.35,5.74-10.18,9.36-1.14,1.46-1.95,2.77-1.95,4.71,0,1.76.7,3.46,1.95,4.71,2.33,2.33,7.18,2.87,9.42,0Z"/>
        </g>
        <path class="st13" d="M144.57,239.1s3.24-4.17,8.83-8.31c5.59-4.14,11.22-6.26,11.22-6.26,0,0,2.06-1.43.58-2.78-1.48-1.35-4.78.51-4.78.51,0,0-4.4,1.54-10.05,6.32-5.64,4.78-8.77,8.7-8.77,8.7l2.97,1.81Z"/>
        <path class="st0" d="M150.65,229.62c5.65-4.77,10.05-6.32,10.05-6.32,0,0,3.3-1.86,4.78-.51.09.08.16.16.23.25.07-.4-.03-.85-.52-1.29-1.48-1.35-4.78.51-4.78.51,0,0-4.4,1.54-10.05,6.32-5.64,4.78-8.77,8.7-8.77,8.7l.77.47c1.07-1.26,3.93-4.44,8.29-8.13Z"/>
        <path class="st1" d="M165.2,221.76c-.48-.44-1.15-.54-1.84-.47.16.08.3.17.43.28,1.48,1.35-.58,2.78-.58,2.78,0,0-5.63,2.12-11.22,6.25-4.49,3.33-7.47,6.68-8.46,7.87l1.05.63s3.24-4.17,8.83-8.31c5.59-4.14,11.22-6.26,11.22-6.26,0,0,2.06-1.43.58-2.78Z"/>
      </g>
      <g>
        <g>
          <path class="st14" d="M113.77,239.1s-3.24-4.17-8.84-8.31c-5.59-4.14-11.22-6.26-11.22-6.26l-.58-2.78,4.78.51s4.4,1.54,10.05,6.32c5.64,4.78,8.77,8.7,8.77,8.7l-2.96,1.81Z"/>
          <path d="M118.48,234.4c-2.84-3.63-6.51-6.62-10.18-9.36-3.88-2.9-8.29-5.21-12.81-6.93,1.55,1.55,3.1,3.1,4.65,4.65-.19-.93-.38-1.85-.58-2.78-2.14,2.81-4.28,5.62-6.42,8.44,1.59.17,3.17.33,4.76.51-2.39-.26-2.18-.41-1.46-.13.74.29-1.93-.83-1.1-.47.24.11.47.21.71.32,1.24.58,2.41,1.27,3.57,1.99.74.46,1.46.96,2.17,1.47.24.17,1.54,1.18.24.16.57.45,1.12.91,1.67,1.38,1.58,1.34,3.09,2.75,4.55,4.21,1.32,1.31,2.63,2.67,3.8,4.13.45-3.48.9-6.97,1.35-10.46-.99.61-1.98,1.21-2.96,1.81-3.09,1.89-4.25,5.93-2.39,9.11,1.8,3.08,6.01,4.29,9.11,2.4.99-.61,1.98-1.21,2.97-1.82,1.48-.91,2.59-2.29,3.06-3.98.68-2.49-.18-4.56-1.71-6.48-4.16-5.2-9.54-9.86-15.12-13.43-2.08-1.33-4.32-2.46-6.63-3.3-1.03-.38-2.77-.35-3.9-.47-.89-.1-1.77-.19-2.66-.28-1.66-.18-3.57.81-4.71,1.95-1.76,1.76-2.21,4.11-1.71,6.48.15.72.29,1.43.44,2.14.57,2.72,2.36,4.35,4.9,5.33.53.21,1.54.64-.78-.34.5.21.99.44,1.48.66,1.5.7,2.96,1.48,4.39,2.31,1.69.98,3.31,2.07,4.88,3.24-1.24-.93.16.14.34.29.39.32.77.65,1.15.97.69.6,1.35,1.21,2,1.84,1.25,1.2,2.48,2.46,3.54,3.83,2.24,2.87,7.08,2.33,9.42,0,1.24-1.25,1.95-2.95,1.95-4.71,0-1.93-.81-3.24-1.95-4.71Z"/>
        </g>
        <path class="st13" d="M113.77,239.1s-3.24-4.17-8.84-8.31c-5.59-4.14-11.22-6.26-11.22-6.26,0,0-2.06-1.43-.58-2.78,1.48-1.35,4.78.51,4.78.51,0,0,4.4,1.54,10.05,6.32,5.64,4.78,8.77,8.7,8.77,8.7l-2.96,1.81Z"/>
        <path class="st0" d="M92.71,222.53c1.48-1.35,4.78.51,4.78.51,0,0,4.4,1.54,10.05,6.31,4.66,3.94,7.6,7.3,8.48,8.36l.71-.43s-3.12-3.93-8.77-8.7c-5.65-4.78-10.05-6.32-10.05-6.32,0,0-3.3-1.87-4.78-.51-.32.29-.48.59-.52.88.03-.04.06-.07.1-.1Z"/>
        <path class="st1" d="M114.48,238.39s-3.24-4.17-8.84-8.31c-5.58-4.14-11.22-6.26-11.22-6.26,0,0-1.6-1.11-.96-2.29-.11.06-.22.13-.32.22-1.48,1.35.58,2.78.58,2.78,0,0,5.63,2.12,11.22,6.26,5.59,4.14,8.84,8.31,8.84,8.31l2.96-1.81s-.05-.06-.15-.19l-2.11,1.29Z"/>
      </g>
      <g>
        <g>
          <path class="st14" d="M146.82,250.59c0,1.32-1.27,2.38-2.83,2.38l-31.35-.17c-1.56-.01-2.81-1.09-2.81-2.41l.08-13.48c0-1.32,1.28-2.39,2.83-2.38l31.35.17c1.56.01,2.81,1.09,2.8,2.41l-.08,13.49Z"/>
          <path d="M140.16,250.59c.2-2.12,1.48-4.29,3.83-4.28h-.16c-.36,0-.73,0-1.09,0-1.47,0-2.94-.02-4.41-.02-4.46-.02-8.92-.05-13.38-.08-3.64-.02-7.29-.04-10.92-.06-.37,0-.74,0-1.11-.01h-.23c1.26,0,2.44.78,3.17,1.9,1.03,1.6.64,3.3.66,1.5,0-.88,0-1.77.01-2.65.01-2.25.02-4.49.04-6.74,0-.8,0-1.6.01-2.4,0-.22,0-.44,0-.66,0-.04,0-.1,0-.15,0,1.15-.47,2.23-1.25,3.11-.63.7-1.71,1.14-2.55,1.14.07,0,.16,0,.24,0,.41,0,.83,0,1.24,0,1.54,0,3.07.02,4.61.02,8.03.05,16.06.09,24.1.14.32,0,.65,0,.97,0h.16c-2.33-.02-3.68-2.08-3.85-4.25.09,1.15-.01,2.35-.02,3.49-.02,3.33-.04,6.66-.06,9.99-.02,3.63,3.05,6.66,6.66,6.66s6.64-3.03,6.66-6.66c.02-3.5.04-6.99.06-10.48.01-1.84.13-3.67-.33-5.47-1.08-4.24-5.39-6.59-9.5-6.6-7.63-.05-15.27-.09-22.91-.13-2.66-.01-5.31-.03-7.96-.04-5.07-.04-9.55,3.92-9.57,9.1,0,1.49-.01,2.98-.03,4.46-.01,2.21-.02,4.42-.03,6.63-.01,2.45-.07,4.8,1.34,7,1.96,3.04,5.22,4.39,8.74,4.41,1.25,0,2.5.01,3.75.02,6.31.04,12.62.07,18.93.11,2.31.01,4.6.02,6.91.04.38,0,.76,0,1.14,0,2.49.01,4.69-.95,6.56-2.53,1.98-1.67,2.7-4.04,2.93-6.51.33-3.62-3.28-6.66-6.66-6.66-3.88,0-6.32,3.05-6.66,6.66Z"/>
        </g>
        <path class="st3" d="M146.82,250.59c0,1.32-1.27,2.38-2.83,2.38l-31.35-.17c-1.56-.01-2.81-1.09-2.81-2.41l.08-13.48c0-1.32,1.28-2.39,2.83-2.38l31.35.17c1.56.01,2.81,1.09,2.8,2.41l-.08,13.49Z"/>
        <path class="st20" d="M109.91,238.69c0-1.32,1.28-2.39,2.83-2.38l31.35.17c1.49.01,2.7,1,2.8,2.25v-1.63c.01-1.32-1.24-2.4-2.8-2.41l-31.35-.17c-1.55-.01-2.82,1.06-2.83,2.38l-.08,13.48c0,.06,0,.11.01.17l.07-11.86Z"/>
        <path class="st6" d="M109.91,248.79c0,1.32,1.28,2.39,2.83,2.38l31.35-.17c1.49-.01,2.7-1.01,2.8-2.25v1.63c.01,1.32-1.24,2.4-2.8,2.41l-31.35.17c-1.55,0-2.82-1.05-2.83-2.38l-.08-13.49c0-.06,0-.12.01-.17l.07,11.86Z"/>
      </g>
      <g>
        <g>
          <path class="st11" d="M120.85,243.62c0,1.33-1.09,2.4-2.41,2.39-1.32-.01-2.39-1.09-2.38-2.41,0-1.33,1.09-2.39,2.41-2.39,1.32,0,2.4,1.09,2.38,2.41Z"/>
          <path d="M115.9,243.62c.16-.88.18-1.07.05-.56.13-.52.38-.97.77-1.34-.36.35-.22.24.43-.32.25-.1.49-.2.73-.3-.5.13-.32.11.56-.06,1.44-.07,2.51,1.2,2.57,2.54.07,1.44-1.2,2.51-2.55,2.57-1.44.07-2.51-1.2-2.57-2.55.13,2.7,2.16,4.96,4.96,4.96,2.61,0,5.09-2.26,4.96-4.96-.2-4.17-3.2-7.12-7.34-7.37-1.96-.12-3.67.89-5.12,2.07-1.54,1.24-2.14,3.4-2.25,5.28-.12,1.95.89,3.67,2.06,5.12,1.24,1.54,3.41,2.14,5.28,2.26,1.96.12,3.67-.89,5.12-2.06,1.54-1.25,2.14-3.41,2.25-5.29.16-2.7-2.38-4.96-4.96-4.96-2.82,0-4.8,2.26-4.96,4.96Z"/>
        </g>
        <path class="st13" d="M120.85,243.62c0,1.33-1.09,2.4-2.41,2.39-1.32-.01-2.39-1.09-2.38-2.41,0-1.33,1.09-2.39,2.41-2.39,1.32,0,2.4,1.09,2.38,2.41Z"/>
        <path class="st1" d="M118.44,245.46c-1.24-.01-2.25-.94-2.37-2.14-.01.09-.01.18-.02.27,0,1.33,1.06,2.41,2.38,2.41,1.33.01,2.41-1.06,2.41-2.38,0-.09,0-.18-.01-.28-.14,1.2-1.17,2.12-2.4,2.12Z"/>
        <path class="st0" d="M118.46,241.74c-1.23,0-2.25.92-2.4,2.12,0-.09-.01-.18-.01-.28,0-1.32,1.09-2.39,2.41-2.38,1.33,0,2.4,1.08,2.38,2.41,0,.09,0,.19-.01.27-.13-1.2-1.14-2.13-2.37-2.14Z"/>
      </g>
      <g>
        <g>
          <path class="st11" d="M140.94,243.97c0,.91-.75,1.65-1.66,1.64l-5.47-.03c-.91,0-1.65-.75-1.64-1.66h0c0-.91.75-1.65,1.66-1.64l5.47.03c.91,0,1.65.75,1.64,1.66h0Z"/>
          <path d="M135.98,243.97c.42-3.5,5.12-3.31,2.69-3.32-.66,0-1.32,0-1.99-.01-.69,0-1.38,0-2.07-.01-2.72-.02,2.13-.2,2.51,3.29.37,3.43-5.21,3.31-2.7,3.32.66,0,1.33.01,1.99.01.69,0,1.38.01,2.08.02,2.71.01-2.14.2-2.52-3.3.29,2.69,2.03,4.96,4.96,4.96,2.48,0,5.26-2.27,4.96-4.96-.43-3.91-2.71-6.15-6.6-6.62-.84-.1-1.75,0-2.59-.01-.95,0-1.9-.01-2.85-.02-1.64,0-3.38.65-4.56,1.81-1.4,1.39-1.85,2.89-2.08,4.79-.19,1.54.76,3.47,1.81,4.54,1.39,1.4,2.89,1.85,4.79,2.08.84.1,1.75,0,2.59.01.95,0,1.9.01,2.85.02,1.65.01,3.38-.65,4.56-1.81,1.4-1.39,1.85-2.89,2.08-4.79.33-2.69-2.5-4.96-4.96-4.96-2.95,0-4.63,2.28-4.96,4.96Z"/>
        </g>
        <path class="st13" d="M140.94,243.97c0,.91-.75,1.65-1.66,1.64l-5.47-.03c-.91,0-1.65-.75-1.64-1.66h0c0-.91.75-1.65,1.66-1.64l5.47.03c.91,0,1.65.75,1.64,1.66h0Z"/>
        <path class="st1" d="M139.28,244.92l-5.47-.02c-.79,0-1.45-.57-1.6-1.32-.03.12-.04.23-.04.35,0,.91.73,1.66,1.64,1.66l5.47.03c.91,0,1.66-.73,1.66-1.64,0-.12-.01-.24-.03-.35-.17.74-.83,1.29-1.62,1.29Z"/>
        <path class="st0" d="M139.29,243.01l-5.47-.03c-.79,0-1.46.55-1.62,1.29-.02-.12-.03-.23-.03-.35,0-.91.75-1.65,1.66-1.64l5.47.03c.91,0,1.65.75,1.64,1.66,0,.12-.01.24-.04.35-.16-.75-.81-1.31-1.6-1.31Z"/>
      </g>
      <g>
        <g>
          <rect class="st4" x="98.63" y="255.46" width="2.74" height="6.14" transform="translate(-79.87 47.62) rotate(-19.31)"/>
          <path d="M99.47,262.43l-2.31-6.59,3.38-1.19,2.32,6.6-3.39,1.19ZM98.23,256.35l1.75,4.99,1.78-.62-1.75-4.99-1.78.63Z"/>
        </g>
        <g>
          <rect class="st4" x="90.98" y="258.08" width="2.74" height="6.14" transform="translate(-81.18 45.24) rotate(-19.31)"/>
          <path d="M91.82,265.05l-2.32-6.6,3.39-1.19,2.32,6.6-3.39,1.19ZM90.59,258.97l1.75,4.99,1.78-.62-1.75-4.99-1.78.62Z"/>
        </g>
      </g>
      <g>
        <rect class="st4" x="153.89" y="257.16" width="6.14" height="2.74" transform="translate(-138.96 321.05) rotate(-70.67)"/>
        <path d="M157.5,262.43l-3.39-1.19,2.32-6.6,3.39,1.19-2.32,6.59ZM155.19,260.72l1.78.62,1.75-4.99-1.78-.63-1.75,4.99Z"/>
      </g>
      <g>
        <rect class="st4" x="161.54" y="259.78" width="6.14" height="2.74" transform="translate(-136.28 330.14) rotate(-70.69)"/>
        <path d="M165.15,265.05l-3.39-1.19,2.32-6.6,3.38,1.19-2.31,6.6ZM162.84,263.34l1.78.62,1.75-4.99-1.78-.62-1.76,4.99Z"/>
      </g>
      <g>
        <rect class="st4" x="153.21" y="224.83" width="2.74" height="6.14" transform="translate(-96.85 115.58) rotate(-31.78)"/>
        <path d="M154.89,231.82l-3.69-5.94,3.05-1.89,3.68,5.94-3.05,1.89ZM152.38,226.15l2.79,4.49,1.6-1-2.79-4.49-1.6,1Z"/>
      </g>
      <g>
        <polygon class="st4" points="160.91 227.7 163.24 226.25 160 221.03 157.67 222.48 160.91 227.7"/>
        <path d="M160.78,228.28l-3.69-5.94,3.05-1.89,3.69,5.94-3.04,1.9ZM158.26,222.61l2.79,4.49,1.6-1-2.79-4.49-1.6,1Z"/>
      </g>
      <g>
        <rect class="st4" x="100.14" y="226.53" width="6.14" height="2.74" transform="translate(-144.88 195.62) rotate(-58.22)"/>
        <path d="M102.9,231.82l-3.05-1.89,3.69-5.94,3.05,1.89-3.69,5.94ZM101.02,229.65l1.6,1,2.79-4.5-1.6-.99-2.79,4.49Z"/>
      </g>
      <g>
        <rect class="st4" x="94.26" y="222.99" width="6.14" height="2.74" transform="translate(-144.56 188.34) rotate(-58.08)"/>
        <path d="M97.02,228.28l-3.05-1.9,3.69-5.94,3.05,1.89-3.69,5.94ZM95.14,226.11l1.6,1,2.79-4.5-1.6-.99-2.79,4.49Z"/>
      </g>
    </g>
  </g>
</svg>