<?xml version="1.0" encoding="UTF-8"?>
<svg id="Layer_1" xmlns="http://www.w3.org/2000/svg" version="1.1" viewBox="0 0 344.61 321.29">
  <!-- Generator: Adobe Illustrator 29.6.1, SVG Export Plug-In . SVG Version: 2.1.1 Build 9)  -->
  <defs>
    <style>
      .st0 {
        fill: #9d8336;
      }

      .st1 {
        fill: #ffd7c3;
      }

      .st2 {
        fill: #8b5e3c;
      }

      .st3 {
        fill: #ffce00;
      }

      .st4 {
        fill: #000002;
      }

      .st5 {
        fill: #bb7f4b;
      }

      .st6 {
        fill: #683818;
      }

      .st7 {
        fill: #603913;
      }

      .st8 {
        fill: #ff6671;
      }

      .st9 {
        fill: #fff4c7;
      }

      .st10 {
        fill: #ba7f4f;
      }

      .st11 {
        fill: #3c2415;
      }

      .st12 {
        fill: #d99435;
      }

      .st13 {
        fill: #ed1c24;
      }

      .st14 {
        fill: #f38b9e;
      }

      .st15 {
        fill: #be1e2d;
      }

      .st16 {
        fill: #fff;
      }

      .st17 {
        fill: #f8deab;
      }

      .st18 {
        fill: #fde5d2;
      }

      .st19 {
        fill: #846820;
      }

      .st20 {
        fill: #723206;
      }

      .st21 {
        fill: #ff9700;
      }

      .st22 {
        fill: #cf9d6a;
      }

      .st23 {
        fill: #99581e;
      }

      .st24 {
        fill: #8c5a35;
      }

      .st25 {
        fill: #af9656;
      }

      .st26 {
        fill: #ffc5ab;
      }
    </style>
  </defs>
  <g>
    <g>
      <g>
        <rect class="st18" x="181.1" y="211.21" width="132.15" height="4.63" transform="translate(-75.93 261.34) rotate(-49.24)"/>
        <path d="M212.12,258.87c-1.17-1-2.34-2.01-3.51-3.02v12.53c4.65-5.41,9.31-10.82,13.96-16.24,10.14-11.8,20.29-23.6,30.44-35.4,9.91-11.53,19.83-23.07,29.74-34.6,4.01-4.65,8.01-9.31,12.01-13.97h-12.53c1.17,1.01,2.34,2.02,3.51,3.02v-12.52c-4.65,5.41-9.31,10.82-13.96,16.23-10.15,11.8-20.29,23.6-30.43,35.41-9.92,11.53-19.84,23.06-29.75,34.6-4.01,4.66-8.01,9.31-12.01,13.97-1.58,1.83-2.59,3.78-2.59,6.26,0,2.34.94,4.61,2.59,6.26,3.22,3.22,9.38,3.66,12.53,0,4.65-5.41,9.31-10.82,13.96-16.24,10.15-11.8,20.29-23.6,30.44-35.4,9.92-11.54,19.83-23.07,29.75-34.6,4-4.66,8.01-9.31,12.01-13.97,1.58-1.84,2.59-3.78,2.59-6.26,0-2.19-.88-4.79-2.59-6.26-1.17-1.01-2.34-2.02-3.51-3.02-1.84-1.58-3.78-2.6-6.26-2.6-2.19,0-4.79.88-6.27,2.6-4.65,5.41-9.31,10.82-13.96,16.23-10.15,11.8-20.29,23.6-30.43,35.4-9.92,11.54-19.84,23.07-29.75,34.61-4,4.65-8,9.31-12.01,13.96-1.58,1.84-2.59,3.78-2.59,6.26,0,2.2.88,4.8,2.59,6.27,1.17,1.01,2.34,2.01,3.51,3.02,1.84,1.58,3.78,2.59,6.26,2.59,2.34,0,4.61-.93,6.26-2.59,3.22-3.22,3.67-9.38,0-12.53Z"/>
      </g>
      <rect class="st7" x="181.1" y="211.21" width="132.15" height="4.63" transform="translate(-75.93 261.34) rotate(-49.24)"/>
      <polygon class="st2" points="203.52 263.12 202.35 262.11 288.5 161.91 289.67 162.92 203.52 263.12"/>
      <rect class="st11" x="182.27" y="213.76" width="132.15" height="1.54" transform="translate(-76.2 263.17) rotate(-49.35)"/>
    </g>
    <g>
      <g>
        <path class="st18" d="M299.63,176.93s-1.02,11.9-6.23,17.59c-5.21,5.69-18.48,9.78-18.48,9.78,0,0,15.95,3.6,24.59,12.44,8.64,8.83,6.9,20.93,14.73,27.82,7.82,6.89,21.52,5.06,21.52,5.06,0,0-7.4-.6-13-10.77-5.6-10.17,4.42-33.3-7.93-48.72-6.27-7.82-15.21-13.19-15.21-13.19Z"/>
        <path d="M290.77,176.93c-.03.44-.1.89-.15,1.34.1-.78.21-1.57.31-2.35-.5,3.73-1.37,7.46-2.84,10.95.3-.71.59-1.42.9-2.12-.67,1.55-1.46,3.02-2.47,4.37.46-.59.92-1.2,1.38-1.79-.84,1.07-1.81,2-2.88,2.84.6-.46,1.2-.93,1.8-1.39-3,2.3-6.44,3.99-9.91,5.46.71-.29,1.41-.59,2.12-.89-2.12.89-4.27,1.73-6.47,2.4-3.78,1.18-6.5,4.51-6.5,8.54,0,3.8,2.68,7.68,6.5,8.54,3.63.83,7.2,2.11,10.62,3.55-.7-.29-1.41-.59-2.12-.89,3.84,1.64,7.55,3.61,10.88,6.16-.59-.46-1.19-.92-1.79-1.39,1.84,1.44,3.51,3.03,4.94,4.87-.46-.59-.92-1.2-1.38-1.79,1.45,1.92,2.6,4.02,3.55,6.22-.29-.71-.59-1.41-.89-2.11,2.04,4.83,3.34,9.91,5.44,14.71,2.29,5.29,6.48,9.83,11.6,12.48,5,2.59,10.47,3.68,16.06,3.99,2.08.12,4.21.11,6.28-.17,2.45-.32,4.44-.77,6.26-2.59,1.66-1.66,2.59-3.93,2.59-6.26s-.93-4.61-2.59-6.26c-1.77-1.77-3.84-2.38-6.26-2.59-.05,0-.09-.01-.14-.02.79.11,1.57.21,2.36.32-.91-.13-1.8-.43-2.65-.77.7.3,1.41.59,2.11.89-1.4-.59-2.68-1.38-3.9-2.3.6.46,1.2.92,1.8,1.38-1.41-1.11-2.64-2.39-3.76-3.79.46.6.92,1.2,1.38,1.79-1.17-1.51-2.27-3.14-3.04-4.9.31.71.6,1.41.89,2.11-.56-1.37-.88-2.8-1.09-4.26.1.79.21,1.57.32,2.36-.66-5.09-.12-10.29.09-15.4.26-6.5.06-13.08-1.47-19.43-3.1-12.8-13.45-22.46-24.23-29.26-.1-.07-.21-.14-.32-.2-4.13-2.5-9.71-.95-12.12,3.18-2.46,4.21-.95,9.63,3.18,12.12,1.88,1.13,3.65,2.44,5.38,3.77-.59-.47-1.19-.93-1.79-1.38,3.69,2.86,7.16,6.05,10.06,9.73-.46-.6-.92-1.2-1.38-1.8,1.41,1.84,2.57,3.84,3.49,5.96-.3-.7-.6-1.41-.9-2.11,1.18,2.84,1.92,5.81,2.34,8.86-.1-.79-.21-1.57-.31-2.36,1.41,10.78-1.38,21.76.91,32.44,1.48,6.89,6.61,12.75,12.11,16.83,3.11,2.3,6.88,3.62,10.7,3.95v-17.71c-3.12.4-6.36.28-9.46-.14.79.11,1.56.21,2.36.32-2.47-.35-4.89-.95-7.19-1.92.7.3,1.41.6,2.12.89-1.46-.63-2.81-1.4-4.08-2.36.6.46,1.19.92,1.8,1.38-1.09-.85-2.04-1.81-2.9-2.89.46.61.93,1.2,1.39,1.79-1.15-1.51-2.05-3.17-2.8-4.91.3.71.59,1.41.89,2.11-2.28-5.41-3.6-11.12-6.23-16.42-3-6.03-8-10.66-13.59-14.25-4.47-2.88-9.51-4.98-14.5-6.74-2.05-.72-4.15-1.38-6.27-1.87v17.08c3.02-.93,5.94-2.17,8.85-3.41,4.62-1.96,9.04-4.45,12.76-7.86,4.14-3.8,6.47-9.44,7.91-14.76.86-3.2,1.41-6.58,1.69-9.88.42-4.82-4.35-8.86-8.86-8.86-2.34,0-4.61.94-6.26,2.59-1.77,1.77-2.38,3.84-2.6,6.26Z"/>
      </g>
      <path class="st13" d="M299.63,176.93s-1.02,11.9-6.23,17.59c-5.21,5.69-18.48,9.78-18.48,9.78,0,0,15.95,3.6,24.59,12.44,8.64,8.83,6.9,20.93,14.73,27.82,7.82,6.89,21.52,5.06,21.52,5.06,0,0-7.4-.6-13-10.77-5.6-10.17,4.42-33.3-7.93-48.72-6.27-7.82-15.21-13.19-15.21-13.19Z"/>
      <path class="st8" d="M311.98,191.43c12.34,15.41,1.88,38.8,7.93,48.72,6.55,10.76,15.87,9.46,15.87,9.46,0,0-7.41-.6-13.01-10.77-5.59-10.17,4.42-33.3-7.93-48.72-6.27-7.83-15.21-13.2-15.21-13.2,0,0-.1,1.17-.39,2.94,3.1,2.15,8.52,6.31,12.74,11.57Z"/>
      <path class="st15" d="M317.19,242.14c-7.82-6.89-6.09-18.98-14.73-27.81-6.7-6.85-17.79-10.56-22.44-11.87-2.93,1.17-5.11,1.84-5.11,1.84,0,0,15.95,3.6,24.59,12.44,8.64,8.83,6.9,20.93,14.73,27.82,7.82,6.89,21.52,5.06,21.52,5.06,0,0-14.94-4.28-18.57-7.47Z"/>
    </g>
  </g>
  <g>
    <g>
      <path class="st18" d="M90.79,229.69v43.66c0,10.09,8.18,18.28,18.27,18.28h118.79c10.09,0,18.27-8.19,18.27-18.28v-43.66H90.79Z"/>
      <path d="M81.94,229.69v43.51c0,6.88,2.58,13.03,6.94,18.25,4.87,5.83,12.72,8.97,20.19,9.04.57,0,1.14,0,1.71,0h117.07c7.14,0,13.96-2.89,19.09-7.83,5.15-4.97,8.06-12.2,8.06-19.33v-43.63c0-4.83-4.02-8.86-8.86-8.86H90.79c-4.83,0-8.86,4.03-8.86,8.86s4.03,8.86,8.86,8.86h155.34c-2.95-2.95-5.91-5.9-8.86-8.86v37.9c0,2.71.17,5.51-.16,8.21.11-.79.21-1.57.32-2.35-.23,1.58-.64,3.11-1.24,4.58.3-.7.6-1.41.89-2.11-.61,1.44-1.39,2.77-2.32,4.02.46-.6.92-1.2,1.39-1.8-1.02,1.31-2.18,2.47-3.49,3.49.6-.46,1.19-.92,1.79-1.38-1.25.94-2.59,1.71-4.02,2.32.7-.3,1.41-.6,2.12-.9-1.48.61-3,1.02-4.59,1.24.79-.1,1.57-.21,2.36-.32-2.66.34-5.43.17-8.11.17h-105.1c-3.45,0-7.05.27-10.49-.17.78.11,1.56.21,2.35.32-1.58-.22-3.1-.63-4.58-1.24.7.3,1.41.6,2.12.9-1.44-.61-2.77-1.39-4.02-2.32.6.46,1.19.92,1.8,1.38-1.32-1.02-2.48-2.18-3.49-3.49.46.6.92,1.2,1.38,1.8-.93-1.25-1.71-2.59-2.32-4.02.3.7.6,1.41.89,2.11-.6-1.48-1.01-3-1.24-4.58.11.79.21,1.57.31,2.35-.23-1.88-.16-3.78-.16-5.66v-40.45c0-4.83-4.03-8.86-8.86-8.86s-8.86,4.03-8.86,8.86Z"/>
    </g>
    <path class="st0" d="M90.79,229.69v43.66c0,10.09,8.18,18.28,18.27,18.28h118.79c10.09,0,18.27-8.19,18.27-18.28v-43.66H90.79Z"/>
    <path class="st19" d="M227.86,287.32h-118.79c-10.09,0-18.27-8.18-18.27-18.27v4.3c0,10.09,8.18,18.28,18.27,18.28h118.79c10.09,0,18.27-8.19,18.27-18.28v-4.3c0,10.09-8.18,18.27-18.27,18.27Z"/>
  </g>
  <g>
    <g>
      <g>
        <path class="st18" d="M263.82,208.96s-35.16-26.78-95.32-26.78-95.39,26.78-95.39,26.78c0,0-4.02,3.35-2.62,19.66,1.06,12.26,9.17,19.66,9.17,19.66,0,0,42.25-13.04,88.8-13.04s88.8,13.04,88.8,13.04c0,0,8.12-7.4,9.17-19.66,1.41-16.31-2.62-19.66-2.62-19.66Z"/>
        <path d="M268.29,201.32c-2.12-1.62-4.43-3.01-6.73-4.37-6.82-4.02-14.03-7.31-21.37-10.28-23.62-9.55-49.49-13.69-74.9-13.32-25.41.38-50.48,5.57-73.84,15.55-6.13,2.62-12.11,5.62-17.8,9.1-1.39.86-2.77,1.74-4.12,2.68-.96.67-2.11,1.35-2.86,2.21-2.38,2.74-3.78,6.08-4.44,9.63-1.34,7.21-1.19,14.88.26,22.05,1.3,6.46,4.57,12.18,8.56,17.32,2.74,3.52,6.39,6.3,11.31,4.82,15.89-4.77,32.37-7.9,48.79-10.12-.79.1-1.57.21-2.35.32,13.15-1.77,26.39-2.8,39.67-2.81,13.27-.02,26.53,1.04,39.67,2.81-.79-.11-1.57-.21-2.36-.32,11.79,1.59,23.51,3.78,35.09,6.52,4.71,1.11,9.42,2.29,14.05,3.71,6.49,2,11.04-4.49,14.05-9.07,4.05-6.18,5.92-13.26,6.45-20.56.41-5.64.35-11.75-1.31-17.2-.72-2.36-2.02-5.6-4.01-7.28-1.86-1.57-3.76-2.6-6.26-2.6-2.34,0-4.61.94-6.26,2.6-3.2,3.19-3.69,9.4,0,12.52.12.1.21.22.3.34-.46-.6-.92-1.2-1.38-1.79.41.54.71,1.14.97,1.76-.3-.71-.59-1.41-.89-2.12.7,1.69,1.06,3.5,1.3,5.3-.1-.79-.21-1.57-.31-2.36.58,4.57.47,9.34-.14,13.9.1-.79.21-1.57.32-2.36-.4,2.72-1.15,5.35-2.21,7.88.3-.7.59-1.41.9-2.11-1.13,2.6-2.56,5.06-4.29,7.31.46-.59.92-1.2,1.39-1.79-.76.99-1.57,1.97-2.49,2.82,2.87-.76,5.74-1.52,8.62-2.28-4.54-1.4-9.17-2.54-13.78-3.64-11.52-2.75-23.19-4.92-34.93-6.52-16.01-2.19-32.09-3.47-48.26-3.12-15.56.33-31.08,2.07-46.43,4.59-13.07,2.15-26.24,4.79-38.91,8.69,2.87.76,5.74,1.52,8.62,2.28-.92-.84-1.73-1.83-2.49-2.82.46.6.92,1.2,1.39,1.79-1.73-2.25-3.16-4.71-4.29-7.31.3.7.59,1.41.89,2.11-1.07-2.53-1.8-5.17-2.21-7.88.11.79.21,1.57.32,2.36-.61-4.56-.72-9.33-.14-13.9-.1.79-.21,1.57-.32,2.36.24-1.8.61-3.61,1.3-5.3-.3.71-.59,1.41-.89,2.12.26-.62.57-1.22.97-1.76-.46.6-.92,1.19-1.38,1.79.09-.12.18-.24.3-.34-.6.46-1.2.92-1.79,1.38,1.89-1.43,3.93-2.68,5.96-3.9,5.63-3.37,11.53-6.27,17.56-8.82-.7.3-1.41.59-2.11.89,14.54-6.13,29.92-10.17,45.55-12.3-.79.1-1.57.21-2.36.31,17.43-2.33,35.16-2.34,52.59,0-.79-.1-1.57-.21-2.36-.31,15.62,2.12,30.99,6.17,45.53,12.3-.7-.29-1.41-.59-2.12-.89,5.99,2.54,11.83,5.41,17.42,8.74,2.07,1.24,4.16,2.52,6.08,3.98,1.79,1.36,4.77,1.46,6.83.9,2.21-.61,4.13-2.09,5.29-4.07,1.2-2.05,1.52-4.54.9-6.83-.67-2.43-2.15-3.83-4.08-5.29Z"/>
      </g>
      <path class="st0" d="M263.82,208.96s-35.16-26.78-95.32-26.78-95.39,26.78-95.39,26.78c0,0-4.02,3.35-2.62,19.66,1.06,12.26,9.17,19.66,9.17,19.66,0,0,42.25-13.04,88.8-13.04s88.8,13.04,88.8,13.04c0,0,8.12-7.4,9.17-19.66,1.41-16.31-2.62-19.66-2.62-19.66Z"/>
      <path class="st25" d="M73.12,212.77s35.22-26.77,95.39-26.77,95.32,26.77,95.32,26.77c0,0,2.58,2.14,2.89,11.35.37-12.44-2.89-15.15-2.89-15.15,0,0-35.16-26.78-95.32-26.78s-95.39,26.78-95.39,26.78c0,0-3.26,2.71-2.89,15.16.31-9.21,2.89-11.36,2.89-11.36Z"/>
      <path class="st19" d="M266.44,223.86c-1.06,12.26-9.17,19.65-9.17,19.65,0,0-42.25-13.04-88.8-13.04s-88.8,13.04-88.8,13.04c0,0-8.11-7.39-9.17-19.65-.12-1.43-.2-2.76-.25-4-.1,2.39-.05,5.28.25,8.75,1.06,12.26,9.17,19.66,9.17,19.66,0,0,42.25-13.04,88.8-13.04s88.8,13.04,88.8,13.04c0,0,8.11-7.4,9.17-19.66.3-3.48.35-6.36.25-8.75-.05,1.24-.13,2.56-.25,4Z"/>
    </g>
    <path d="M84.35,251.05s.56-14.27-.24-22.13c-.75-7.41-2.4-16.3-8.64-15.46-2.23.3-4,4.88-2.29,14.21,1.71,9.33,4.43,8.47,4.43,8.47,0,0-1.65-2.6-2.49-8.65-.84-6.06-.53-9.14.66-8.99,1.2.14,3.01,2.63,4.04,9.95,1.44,10.15-.16,21.33-.16,21.33l4.68,1.27Z"/>
  </g>
  <g>
    <ellipse class="st4" cx="168.47" cy="317.83" rx="57.61" ry="3.08"/>
    <path d="M168.47,321.29c-15.4,0-29.87-.32-40.76-.9-17.23-.92-17.23-1.98-17.23-2.56s0-1.63,17.23-2.55c10.89-.58,25.37-.9,40.76-.9s29.86.32,40.75.9c17.23.92,17.23,1.98,17.23,2.55s0,1.64-17.23,2.56c-10.88.58-25.35.9-40.75.9ZM111.34,317.83c2.22,1.32,25.15,2.7,57.13,2.7s54.9-1.37,57.12-2.7c-2.22-1.32-25.15-2.7-57.12-2.7s-54.9,1.37-57.13,2.7Z"/>
  </g>
  <g>
    <g>
      <g>
        <g>
          <path class="st1" d="M124.85,220.34s-13.51,7.97-20.74,19.86c-7.66,12.61-8.84,29.32-.48,34.26,16.27,9.6,39.03-32.01,39.03-32.01l-17.81-22.12Z"/>
          <path d="M123.1,217.34c-7.73,4.57-14.75,10.97-20.05,18.2-3.92,5.35-6.63,11.74-7.91,18.23-1.17,5.93-1.19,12.19,1.37,17.76,2.03,4.42,6.3,7.22,11.04,7.78,3.73.44,7.51-.92,10.71-2.73,7.44-4.21,13.18-11.33,18.18-18.09,3.36-4.54,6.51-9.31,9.23-14.27.82-1.49.47-2.95-.54-4.21-5.94-7.37-11.87-14.74-17.81-22.12-1.19-1.48-3.69-1.24-4.92,0-1.45,1.45-1.19,3.45,0,4.92,5.94,7.37,11.88,14.74,17.81,22.12-.18-1.41-.36-2.81-.54-4.21-2.19,3.99-4.68,7.83-7.28,11.56-.54.78-1.1,1.55-1.66,2.32-.29.39-.58.79-.87,1.18-.15.2-.3.4-.45.6-.11.14-.81,1.04-.22.28-1.3,1.68-2.66,3.31-4.06,4.9-1.4,1.58-2.86,3.09-4.4,4.52-.71.66-1.45,1.3-2.2,1.92-.19.15-.37.3-.55.45-.64.51.61-.47-.04.03-.43.32-.87.63-1.31.94-.73.5-1.48.96-2.25,1.38-.37.21-.75.4-1.13.58-.19.09-.38.17-.57.26,1.01-.45.12-.06-.11.03-.73.28-1.48.49-2.25.66-.18.04-.37.07-.55.1-.71.12.89-.1.18-.03-.43.04-.86.06-1.29.05-.31,0-1.62-.15-.35.02-.37-.05-.73-.13-1.09-.22-.36-.09-.72-.21-1.07-.35-.67-.25.78.35.13.04-.24-.1-.47-.23-.7-.36-.21-.12-.42-.25-.62-.38-.14-.09-.81-.63-.13-.08-.4-.33-.77-.71-1.11-1.1-.59-.66.42.6-.1-.13-.16-.21-.3-.44-.44-.66-.15-.23-.27-.47-.4-.71-.08-.14-.57-1.24-.23-.43-2.01-4.87-1.38-10.18,0-15.4,1.59-6.02,4.68-11.64,8.63-16.25,1.67-1.95,3.49-3.76,5.38-5.49.89-.81,1.82-1.61,2.75-2.38.4-.32.79-.64,1.19-.96.09-.07.86-.67.2-.17.22-.17.44-.33.66-.5,1.69-1.28,3.44-2.52,5.26-3.6,3.86-2.28.36-8.3-3.51-6Z"/>
        </g>
        <g>
          <rect class="st4" x="110.58" y="236.35" width="9.31" height="30.23" transform="translate(-158.52 211.84) rotate(-57.14)"/>
          <path d="M125.48,263.93l-.21-.13-25.6-16.54,5.32-8.25.21.14,25.6,16.55-5.33,8.24ZM100.37,247.1l24.96,16.12,4.78-7.39-24.97-16.13-4.77,7.4Z"/>
        </g>
      </g>
      <path class="st22" d="M107.79,240.84l22.27,14.62,8.35-12.72-14.3-17.78s-4.49,3.04-9.42,7.78c-4.94,4.74-6.9,8.1-6.9,8.1Z"/>
      <path class="st17" d="M110.74,240.59s1.96-3.35,6.9-8.09c2.91-2.8,5.66-5.01,7.43-6.34l-.96-1.2s-4.49,3.04-9.42,7.78c-4.94,4.74-6.9,8.1-6.9,8.1l22.27,14.62,1.01-1.54-20.33-13.33Z"/>
    </g>
    <g>
      <g>
        <g>
          <path class="st1" d="M212.07,220.34s13.51,7.97,20.75,19.86c7.66,12.61,8.85,29.32.48,34.26-16.27,9.6-39.03-32.01-39.03-32.01l17.81-22.12Z"/>
          <path d="M210.32,223.34c.66.4,1.32.82,1.96,1.25.7.47,1.39.95,2.07,1.44.41.3.82.6,1.23.91.22.16.44.33.66.5-.67-.51.33.27.44.35,4.58,3.64,8.97,7.96,12.08,12.53,1.79,2.62,3.31,5.62,4.33,8.3.55,1.45,1.01,2.93,1.41,4.43.19.73.36,1.47.51,2.2.08.36.14.73.21,1.1.02.13.21,1.45.14.88.18,1.39.25,2.78.25,4.19,0,.66-.03,1.32-.09,1.98-.02.32-.06.64-.1.96.09-.81-.09.47-.12.61-.11.59-.26,1.17-.43,1.75-.08.28-.18.55-.27.83-.05.13-.41,1-.07.22-.22.51-.48.99-.76,1.46-.14.23-.29.45-.44.66-.23.31-.21.29.06-.08-.11.14-.23.27-.34.4-.17.19-.36.37-.55.55-.12.11-.8.66-.09.12-.38.29-.79.54-1.22.77-.17.1-.35.18-.53.27-.65.32.79-.3.13-.04-.4.16-.83.28-1.25.39-.3.07-1.61.25-.34.1-.36.04-.73.05-1.1.06-.37,0-.74-.02-1.11-.05-.71-.06.89.14.18.03-.25-.04-.5-.09-.74-.14-.77-.17-1.52-.42-2.25-.69-.21-.08-.88-.38.08.04-.19-.09-.38-.17-.57-.26-.45-.21-.89-.45-1.32-.69-.77-.43-1.52-.91-2.25-1.41-.38-.26-.75-.53-1.12-.8-.66-.49.61.48-.04-.03-.25-.2-.49-.4-.74-.6-3.23-2.66-6.08-5.79-8.73-9.01-.32-.39-.64-.79-.96-1.19-.16-.2-1.12-1.44-.54-.68-.66-.85-1.29-1.7-1.92-2.57-1.13-1.54-2.22-3.11-3.28-4.7-1.95-2.92-3.83-5.9-5.52-8.98-.18,1.4-.36,2.8-.54,4.21,5.93-7.37,11.87-14.74,17.81-22.12,1.19-1.47,1.45-3.47,0-4.92-1.23-1.24-3.73-1.48-4.92,0-5.93,7.37-11.87,14.74-17.81,22.12-1.02,1.26-1.36,2.72-.54,4.21,2.19,3.99,4.68,7.83,7.28,11.56,4.94,7.07,10.48,13.99,17.51,19.1,3.21,2.33,6.81,3.96,10.76,4.44,4.07.49,8.38-1.22,11.16-4.19,3.9-4.16,4.84-10.3,4.54-15.78-.37-6.71-2.51-13.28-5.69-19.17-3.42-6.34-8.52-11.75-14.02-16.33-2.82-2.36-5.8-4.64-8.97-6.51-3.87-2.29-7.37,3.72-3.52,6Z"/>
        </g>
        <g>
          <rect class="st4" x="206.58" y="246.82" width="30.23" height="9.31" transform="translate(-100.98 160.53) rotate(-32.86)"/>
          <path d="M211.45,263.93l-5.32-8.24.21-.14,25.6-16.54.14.21,5.19,8.04-.21.14-25.6,16.54ZM206.82,255.84l4.77,7.39,24.97-16.12-4.78-7.4-24.96,16.13Z"/>
        </g>
      </g>
      <path class="st22" d="M229.15,240.84l-22.27,14.62-8.35-12.72,14.31-17.78s4.49,3.04,9.42,7.78c4.94,4.74,6.9,8.1,6.9,8.1Z"/>
      <path class="st17" d="M226.2,240.59s-1.96-3.35-6.9-8.09c-2.91-2.8-5.66-5.01-7.44-6.34l.96-1.2s4.49,3.04,9.42,7.78c4.94,4.74,6.9,8.1,6.9,8.1l-22.27,14.62-1-1.54,20.33-13.33Z"/>
    </g>
  </g>
  <g>
    <g>
      <polygon class="st22" points="113.79 258.59 96.01 247.23 101.02 239.39 118.8 250.75 113.79 258.59"/>
      <path d="M115.07,256.4c-5.93-3.78-11.85-7.57-17.78-11.36.3,1.16.6,2.31.9,3.46,1.67-2.62,3.35-5.23,5.02-7.85-1.15.3-2.31.61-3.46.91,5.93,3.79,11.85,7.57,17.78,11.36-.3-1.15-.61-2.31-.91-3.46-1.67,2.62-3.34,5.23-5.01,7.85-1.76,2.76,2.62,5.3,4.37,2.56,1.67-2.62,3.34-5.23,5.01-7.85.76-1.2.22-2.74-.91-3.46-5.93-3.79-11.85-7.57-17.78-11.37-1.2-.76-2.74-.21-3.46.91-1.67,2.62-3.34,5.23-5.01,7.84-.76,1.2-.22,2.74.91,3.46,5.93,3.79,11.85,7.58,17.78,11.37,2.76,1.76,5.3-2.62,2.55-4.38Z"/>
    </g>
    <polygon class="st17" points="113.06 255.06 99.5 246.46 100.5 244.94 113.99 253.54 113.06 255.06"/>
  </g>
  <g>
    <g>
      <polygon class="st22" points="224.28 258.59 242.06 247.23 237.05 239.39 219.27 250.75 224.28 258.59"/>
      <path d="M225.56,260.78c5.93-3.79,11.85-7.58,17.78-11.37,1.13-.72,1.67-2.26.91-3.46-1.67-2.62-3.34-5.23-5.01-7.84-.72-1.13-2.27-1.68-3.46-.91-5.93,3.79-11.86,7.58-17.78,11.37-1.13.72-1.67,2.27-.91,3.46,1.67,2.62,3.34,5.23,5.01,7.85,1.75,2.74,6.14.2,4.37-2.56-1.67-2.62-3.34-5.23-5.01-7.85-.31,1.16-.61,2.31-.91,3.46,5.93-3.79,11.86-7.57,17.78-11.36-1.15-.31-2.31-.61-3.46-.91,1.67,2.62,3.34,5.23,5.02,7.85.3-1.15.6-2.31.91-3.46-5.93,3.79-11.85,7.58-17.78,11.36-2.74,1.76-.2,6.14,2.55,4.38Z"/>
    </g>
    <polygon class="st17" points="225.01 255.06 238.57 246.46 237.58 244.94 224.09 253.54 225.01 255.06"/>
  </g>
  <g>
    <g>
      <path class="st18" d="M168.47,281.31h-47.79s6.52,11.66,17.47,16.05c.54,6.26,2.15,11.16,5.58,12.61,4.94,2.08,9.77-5.29,11.15-7.63,4.09.63,8.58.98,13.51.98.03,0,.05,0,.08,0s.05,0,.08,0c4.92,0,9.42-.35,13.51-.98,1.38,2.34,6.21,9.71,11.15,7.63,3.44-1.45,5.05-6.35,5.58-12.61,10.95-4.39,17.47-16.05,17.47-16.05h-47.79Z"/>
      <path d="M168.47,273.72h-47.79c-5.83,0-9.36,6.43-6.56,11.43,1.62,2.88,3.76,5.54,5.91,8.02,4.42,5.1,9.88,8.96,16.1,11.51-1.86-2.44-3.72-4.88-5.57-7.32.4,4.49,1.16,8.58,3.07,12.68.75,1.6,1.9,3.13,3.2,4.32,2.33,2.13,4.92,3.14,8.02,3.52,4.23.5,8.32-2.03,11.27-4.8,2.1-1.97,3.85-4.44,5.32-6.91-2.86,1.16-5.72,2.33-8.58,3.49,10.43,1.58,20.79,1.58,31.21,0-2.86-1.17-5.72-2.33-8.57-3.49,1.42,2.39,3.13,4.71,5.09,6.69,2.88,2.92,7.23,5.53,11.49,5.02,3.07-.37,5.46-1.36,7.82-3.35,1.35-1.14,2.44-2.66,3.26-4.21,2.13-4.02,2.81-8.49,3.21-12.96-1.86,2.44-3.72,4.88-5.57,7.32,6.25-2.55,11.64-6.43,16.09-11.51,2.17-2.46,4.3-5.14,5.91-8.02,2.81-4.99-.72-11.43-6.55-11.43h-47.79c-4.14,0-7.59,3.46-7.59,7.59s3.45,7.6,7.59,7.6h47.79c-2.19-3.81-4.37-7.62-6.56-11.42-.34.61-.73,1.2-1.12,1.78-.42.62-.85,1.23-1.29,1.82-.14.2-.29.39-.43.58.29-.38.58-.76.88-1.14-.11.13-.21.27-.32.41-.35.43-.7.85-1.06,1.27-1.59,1.87-3.35,3.59-5.25,5.15-1.49,1.23,1.45-1.06-.13.09-.57.42-1.17.81-1.78,1.19-1.24.78-2.55,1.45-3.9,2.02.6-.25,1.21-.51,1.81-.76-.12.04-.23.09-.35.14-1.28.36-2.4,1.01-3.35,1.95-1.52,1.53-2.03,3.29-2.22,5.37-.06.71-.14,1.42-.23,2.12.09-.68.18-1.35.27-2.02-.29,2.1-.73,4.17-1.53,6.14.26-.61.51-1.21.77-1.81-.17.39-.35.77-.55,1.14-.33.62-1.53,2.1.21-.08-.45.55-1.86,1.64.37-.07-.35.27-.73.47-1.13.64.6-.25,1.21-.51,1.82-.76-.37.14-.73.24-1.12.31.67-.09,1.35-.18,2.02-.27-.46.06-.91.06-1.37,0,.68.09,1.35.19,2.02.27-.47-.08-.9-.21-1.34-.38.6.25,1.21.51,1.81.77-.36-.16-.7-.33-1.03-.52-.17-.1-.34-.21-.5-.33-1.07-.71,1.57,1.28.57.46-.72-.59-1.35-1.28-1.96-1.97-.4-.47-1.42-1.79.26.38-.28-.35-.54-.72-.8-1.1-.4-.58-.77-1.17-1.13-1.77-.68-1.14-1.58-2.05-2.72-2.72-1.92-1.12-3.74-1.09-5.85-.77-.55.09-1.1.16-1.66.24.67-.09,1.35-.18,2.01-.27-7.89,1.03-15.97,1.03-23.86,0,.68.09,1.35.19,2.02.27-.55-.07-1.11-.15-1.66-.24-1.35-.36-2.69-.36-4.04,0-1.9.53-3.53,1.8-4.53,3.49-.31.53-.64,1.04-.98,1.55-.2.29-.4.58-.61.86-1.02,1.41,1.26-1.55.12-.16-.59.72-1.24,1.38-1.92,2-1.35,1.22,1.58-1.07.09-.08-.4.27-.84.49-1.28.68.6-.26,1.21-.51,1.81-.77-.44.17-.88.29-1.34.38.67-.09,1.35-.18,2.02-.27-.47.06-.91.06-1.38,0,.67.09,1.35.19,2.02.27-.39-.07-.75-.17-1.11-.31.6.26,1.21.51,1.81.76-.32-.14-.62-.31-.91-.49-.6-.43-.29-.19.91.71-.21-.18-.39-.38-.57-.57-.48-.56-.26-.27.66.88-.17-.24-.33-.49-.48-.74-.27-.45-.49-.92-.7-1.41.25.61.51,1.21.77,1.81-.81-1.96-1.24-4.04-1.54-6.14.09.68.18,1.35.27,2.02-.09-.71-.17-1.41-.23-2.12,0-1.37-.35-2.65-1.04-3.83-1.09-1.86-2.62-2.7-4.53-3.49-.12-.04-.23-.1-.34-.14.6.25,1.21.51,1.81.76-1.24-.53-2.43-1.14-3.59-1.83-.62-.37-1.21-.76-1.8-1.17-.29-.2-.57-.42-.86-.62,1.98,1.47.87.68.44.33-1.91-1.54-3.65-3.3-5.25-5.15-.3-.35-.6-.71-.89-1.07-.16-.2-.33-.4-.49-.61,1.67,2.11.95,1.23.59.76-.5-.66-.97-1.34-1.43-2.02-.39-.58-.77-1.17-1.12-1.78-2.19,3.8-4.37,7.61-6.56,11.42h47.79c4.14,0,7.59-3.45,7.59-7.6s-3.45-7.59-7.59-7.59Z"/>
    </g>
    <path class="st22" d="M168.47,281.31h-47.79s6.52,11.66,17.47,16.05c.54,6.26,2.15,11.16,5.58,12.61,4.94,2.08,9.77-5.29,11.15-7.63,4.09.63,8.58.98,13.51.98.03,0,.05,0,.08,0s.05,0,.08,0c4.92,0,9.42-.35,13.51-.98,1.38,2.34,6.21,9.71,11.15,7.63,3.44-1.45,5.05-6.35,5.58-12.61,10.95-4.39,17.47-16.05,17.47-16.05h-47.79Z"/>
  </g>
  <g>
    <g>
      <path class="st18" d="M213.38,246.57c-8.56-17.97-20.79-26.5-20.79-26.5l-24.11-.24h-.01l-24.11.24s-12.24,8.53-20.8,26.5c-8.55,17.97-5.78,32.51-5.78,32.51,0,0,15.6,4.02,50.7,4.02s50.69-4.02,50.69-4.02c0,0,2.78-14.54-5.78-32.51Z"/>
      <path d="M219.94,242.74c-4.79-9.98-11.65-19.51-20.2-26.64-1.05-.88-2.14-1.72-3.24-2.52-1.42-1.03-3.18-1.09-4.85-1.11-3.33-.03-6.66-.06-9.98-.1-11.97-.12-23.93-.02-35.91.1-1.79.02-3.7-.03-5.25,1.06-.99.7-1.94,1.46-2.89,2.22-2.96,2.4-5.65,5.14-8.13,8.03-9.53,11.05-16.76,24.68-18.88,39.22-.88,6-1.28,12.12-.15,18.1.47,2.51,2.91,4.69,5.3,5.3,4.18,1.07,8.56,1.56,12.83,2.11,11.44,1.48,23,2,34.53,2.15,13.26.17,26.57-.18,39.76-1.52,5.94-.6,11.95-1.29,17.78-2.61.17-.04.34-.08.51-.13,2.39-.62,4.83-2.79,5.31-5.3.72-3.78.83-7.7.59-11.54-.57-9.4-3.13-18.33-7.13-26.83-1.77-3.74-7.05-4.68-10.39-2.72-3.8,2.22-4.49,6.64-2.72,10.38.43.89.83,1.8,1.22,2.71-.26-.61-.51-1.21-.77-1.82,2.16,5.16,3.68,10.55,4.46,16.08-.09-.67-.18-1.35-.27-2.02.58,4.3.79,8.72.21,13.04.09-.67.18-1.35.27-2.02-.03.23-.06.46-.11.69,1.77-1.77,3.54-3.54,5.3-5.31-3.17.82-6.48,1.25-9.72,1.7.67-.1,1.34-.18,2.02-.28-11.02,1.48-22.16,2.05-33.28,2.26-13.57.25-27.18-.06-40.69-1.34-2.66-.26-5.31-.55-7.96-.91.67.09,1.35.18,2.02.28-3.25-.44-6.55-.88-9.73-1.7,1.77,1.77,3.54,3.53,5.3,5.31-.04-.23-.07-.46-.1-.69.09.68.18,1.35.27,2.02-.58-4.31-.37-8.74.2-13.04-.09.67-.18,1.35-.27,2.02.78-5.54,2.3-10.92,4.46-16.08-.26.61-.51,1.21-.77,1.82,1.9-4.46,4.24-8.72,6.93-12.76.57-.85,1.15-1.68,1.75-2.51.29-.39.58-.79.87-1.17.79-1.04-1.29,1.64-.11.14,1.12-1.42,2.29-2.79,3.51-4.13,1.72-1.88,3.56-3.68,5.49-5.35.7-.6,3.2-2.53.25-.26.2-.15.4-.31.6-.45-1.28.35-2.56.69-3.83,1.03,10.69-.11,21.38-.27,32.08-.16,5.39.06,10.77.11,16.16.16-1.28-.34-2.56-.69-3.83-1.03.16.12.32.23.47.35.77.58-1.87-1.45-1.19-.91.12.09.23.18.35.27.29.22.57.45.85.69,1.79,1.5,3.47,3.13,5.08,4.83,1.12,1.17,2.19,2.39,3.23,3.64.46.55,2.45,3.12.74.89.59.78,1.17,1.57,1.74,2.37,2.6,3.67,4.86,7.58,6.8,11.64,1.8,3.73,7.04,4.69,10.39,2.72,3.79-2.21,4.51-6.65,2.72-10.38Z"/>
    </g>
    <path class="st5" d="M130,292.36c10.97,1.34,22.05,1.84,33.1,1.97,13.26.16,26.57-.18,39.77-1.52,1.33-.13,2.67-.28,4-.43,1.64-1.37,3.08-2.82,4.31-4.2-2.77.38-5.55.68-8.31.95-13.2,1.34-26.5,1.69-39.77,1.52-11.53-.14-23.09-.67-34.53-2.15-.96-.13-1.92-.25-2.88-.38,1.23,1.39,2.68,2.84,4.32,4.22Z"/>
    <path class="st22" d="M213.38,246.57c-8.56-17.97-20.79-26.5-20.79-26.5l-24.11-.24h-.01l-24.11.24s-12.24,8.53-20.8,26.5c-8.55,17.97-5.78,32.51-5.78,32.51,0,0,15.01,4.02,50.7,4.02s50.69-4.02,50.69-4.02c0,0,2.78-14.54-5.78-32.51Z"/>
    <path class="st5" d="M121.99,279.09s-2.78-14.54,5.77-32.51c8.56-17.97,20.8-26.5,20.8-26.5l22.01-.22-2.1-.02h-.01l-24.11.24s-12.24,8.53-20.8,26.5c-8.55,17.97-5.78,32.51-5.78,32.51,0,0,15.01,4.02,50.7,4.02.71,0,1.41,0,2.11,0-34.16-.16-48.58-4.02-48.58-4.02Z"/>
    <path class="st5" d="M214.94,279.09s2.78-14.54-5.77-32.51c-8.56-17.97-20.8-26.5-20.8-26.5l-22.01-.22,2.1-.02h.01l24.11.24s12.24,8.53,20.79,26.5c8.56,17.97,5.78,32.51,5.78,32.51,0,0-15.01,4.02-50.7,4.02-.71,0-1.41,0-2.11,0,34.16-.16,48.58-4.02,48.58-4.02Z"/>
  </g>
  <g>
    <g>
      <circle class="st16" cx="132.85" cy="249.53" r="3.09"/>
      <path d="M130.87,249.53c.15-.79.16-.91.03-.37.1-.45.32-.83.66-1.14-.38.38-.29.3.29-.19.21-.09.42-.17.62-.25-.54.13-.42.13.37-.03.79.16.91.16.37.03.45.1.83.32,1.14.66-.37-.39-.31-.29.19.29.08.21.17.41.25.63-.14-.54-.13-.42.02.37-.15.78-.16.91-.02.37-.1.45-.32.83-.66,1.14.39-.38.29-.31-.29.19-.21.08-.42.16-.63.25.54-.14.42-.13-.37.02-.79-.15-.91-.16-.37-.02-.45-.1-.83-.32-1.14-.66.37.38.31.29-.2-.29-.08-.21-.16-.41-.24-.62.13.54.12.41-.03-.37.15,2.75,2.19,5.06,5.06,5.06,2.65,0,5.21-2.3,5.06-5.06-.25-4.61-3.55-7.9-8.15-8.15-4.59-.25-7.92,3.92-8.15,8.15-.25,4.59,3.92,7.92,8.15,8.15,4.59.24,7.93-3.92,8.15-8.15.15-2.76-2.41-5.06-5.06-5.06-2.87,0-4.91,2.3-5.06,5.06Z"/>
    </g>
    <circle class="st3" cx="132.85" cy="249.53" r="3.09"/>
    <path class="st21" d="M132.84,251.89c-1.58,0-2.88-1.19-3.07-2.72-.01.12-.02.25-.02.37,0,1.7,1.38,3.09,3.09,3.09s3.09-1.38,3.09-3.09c0-.12-.01-.25-.03-.37-.18,1.54-1.48,2.72-3.07,2.72Z"/>
    <path class="st9" d="M132.84,247.17c-1.58,0-2.88,1.19-3.07,2.72-.01-.12-.02-.24-.02-.36,0-1.7,1.38-3.09,3.09-3.09s3.09,1.38,3.09,3.09c0,.12-.01.25-.03.36-.18-1.54-1.48-2.72-3.07-2.72Z"/>
  </g>
  <path class="st5" d="M177.91,271.59c11.27-4.8,21.6-11.55,30.85-19.55,1.71-1.48,3.42-3.03,5.07-4.63-.13-.27-.26-.55-.39-.83-.64-1.34-1.3-2.63-1.97-3.88-2,2.03-4.12,3.95-6.25,5.79-9.25,8.01-19.58,14.76-30.86,19.55-13.18,5.61-27.27,9.45-41.38,11.88-1.8.31-3.6.61-5.41.89,3.83.52,8.84,1.06,15.15,1.5,12.02-2.44,23.93-5.93,35.18-10.71Z"/>
  <rect x="165.16" y="247.78" width="7.63" height="40.87"/>
  <g>
    <g>
      <path class="st18" d="M218.79,278.49s-19.86,2.56-42.59,3.03c-2.56.05-12.91.05-15.47,0-22.73-.47-42.59-3.03-42.59-3.03l-2.96,2.15s18.94,2.85,47.27,3.29c2.05.04,4.06.04,6.02.01,1.96.02,3.97.02,6.02-.01,28.33-.44,47.28-3.29,47.28-3.29l-2.97-2.15Z"/>
      <path d="M218.79,272.16c-19.54,2.51-39.38,3.46-59.07,3.01-11.01-.25-22.01-.98-32.97-2.06-2.61-.26-5.22-.53-7.82-.84-2.84-.35-4.81,1.36-6.96,2.91-1.86,1.35-3.13,3.07-3.13,5.47,0,2.55,1.9,5.69,4.64,6.1,6.38.95,12.83,1.57,19.26,2.09,14.54,1.18,29.14,1.66,43.72,1.38,15.66-.3,31.46-1.15,46.96-3.47,2.1-.32,3.89-2.49,4.42-4.42.81-2.94-.58-5.46-2.91-7.15-.99-.71-1.98-1.43-2.96-2.15-2.8-2.03-7.04-.49-8.66,2.27-1.87,3.2-.52,6.64,2.27,8.65.99.72,1.97,1.43,2.96,2.15.5-3.86,1.01-7.71,1.51-11.56-.4.06-.81.11-1.21.17,3.05-.42.87-.12.13-.02-.72.09-1.43.18-2.15.27-4.44.52-8.89.94-13.34,1.29-14.64,1.17-29.35,1.62-44.04,1.3-10.69-.23-21.37-.82-32-1.82-2.98-.28-5.96-.6-8.92-.96-.46-.06-.93-.12-1.39-.18-.19-.02-.38-.05-.56-.08,2.68.36,1.72.24,1.13.16-.29-.04-.57-.08-.86-.12.5,3.85,1,7.71,1.51,11.56.99-.72,1.98-1.43,2.96-2.15-1.06.3-2.13.58-3.19.87,19.54,2.51,39.38,3.46,59.07,3.01,13.87-.32,27.82-1.24,41.59-3.01,1.75-.22,3.17-.55,4.47-1.85,1.18-1.18,1.85-2.8,1.85-4.47,0-3.12-2.9-6.77-6.33-6.33Z"/>
    </g>
    <path class="st24" d="M218.79,278.49s-19.86,2.56-42.59,3.03c-2.56.05-12.91.05-15.47,0-22.73-.47-42.59-3.03-42.59-3.03l-2.96,2.15s18.94,2.85,47.27,3.29c2.05.04,4.06.04,6.02.01,1.96.02,3.97.02,6.02-.01,28.33-.44,47.28-3.29,47.28-3.29l-2.97-2.15Z"/>
    <path class="st6" d="M174.48,283.28c-2.04.03-4.05.04-6.02.01-1.96.02-3.97.02-6.02-.01-25.06-.39-42.77-2.67-46.53-3.19l-.75.55s18.94,2.85,47.27,3.29c2.05.04,4.06.04,6.02.01,1.96.02,3.97.02,6.02-.01,28.33-.44,47.28-3.29,47.28-3.29l-.75-.55c-3.76.52-21.47,2.79-46.53,3.19Z"/>
    <path class="st5" d="M118.14,279.34s19.86,2.55,42.59,3.03c2.56.05,12.92.05,15.47,0,22.73-.47,42.59-3.03,42.59-3.03l1.99,1.44c.64-.09.98-.13.98-.13l-2.97-2.15s-19.86,2.56-42.59,3.03c-2.56.05-12.91.05-15.47,0-22.73-.47-42.59-3.03-42.59-3.03l-2.96,2.15s.33.05.97.13l1.99-1.44Z"/>
  </g>
  <g>
    <g>
      <path class="st18" d="M211.21,233.42s-16.55,20.96-45.69,31.33c-29.14,10.38-51,11.06-51,11.06l1.02-6.46s22.51-1.77,46-9.8c23.1-7.89,43.78-28.86,43.78-28.86l5.89,2.73Z"/>
      <path d="M206.74,228.95c-3.08,3.89-6.8,7.35-10.53,10.59-.87.75-1.74,1.48-2.62,2.21-.47.38-.94.76-1.41,1.14-.24.19-.48.38-.73.57,1.68-1.31.4-.3.03-.02-2.27,1.71-4.6,3.34-6.99,4.89-2.64,1.71-5.35,3.3-8.12,4.78-1.41.75-2.85,1.46-4.29,2.15-.74.36-1.49.7-2.24,1.04-.38.17-.76.34-1.14.5-.63.27-.51.23.35-.14-.26.11-.52.22-.78.33-12.43,5.12-25.78,8.52-39.01,10.8-1.18.2-2.37.39-3.56.58-.55.08-1.09.15-1.64.24-.26.04-.52.07-.78.11,2.26-.31,1.17-.16.68-.09-1.67.22-3.35.41-5.03.57-1.45.14-2.92.27-4.38.31,2.04,2.67,4.07,5.34,6.1,8.01.34-2.15.68-4.31,1.02-6.46-2.04,1.55-4.07,3.1-6.1,4.65,8.54-.68,17.08-2.16,25.46-3.95,7.64-1.62,15.21-3.65,22.6-6.21,6.64-2.29,12.98-5.46,18.97-9.1,6.97-4.23,13.53-9.18,19.75-14.45,2.57-2.18,5.11-4.41,7.48-6.81-2.56.33-5.11.66-7.67.99,1.96.91,3.93,1.82,5.89,2.72,3.13,1.45,6.79.91,8.65-2.27,1.62-2.76.86-7.2-2.27-8.65-1.96-.91-3.93-1.82-5.89-2.73-2.6-1.2-5.53-1.17-7.67.99-1.34,1.36-2.75,2.65-4.17,3.93-1.57,1.41-3.18,2.8-4.81,4.15-.94.78-1.88,1.54-2.84,2.3-.4.32-2.26,1.76-.52.42-.63.48-1.26.96-1.9,1.44-5.05,3.76-10.33,7.21-15.88,10.18-1.4.75-2.83,1.47-4.27,2.15-.72.35-1.45.68-2.18,1-.35.16-1.66.7.04-.01-.49.2-.98.4-1.48.59-3.59,1.42-7.3,2.55-11,3.62-8.67,2.52-17.54,4.42-26.46,5.82-.81.13-1.63.25-2.44.37-.63.09-3.39.46-.77.12-1.17.16-2.34.29-3.5.43-1.04.11-2.08.22-3.12.32-2.58.2-5.65,1.75-6.1,4.64-.34,2.15-.68,4.31-1.02,6.46-.27,1.76-.29,3.29.64,4.88,1.1,1.87,3.25,3.2,5.46,3.13,6.15-.2,12.34-1.18,18.39-2.23,14.11-2.43,28.2-6.26,41.38-11.88,11.27-4.8,21.6-11.54,30.85-19.55,3.73-3.23,7.46-6.71,10.53-10.59,1.09-1.38,1.85-2.64,1.85-4.47,0-1.68-.67-3.29-1.85-4.47-2.23-2.23-6.81-2.71-8.95,0Z"/>
    </g>
    <g>
      <path class="st24" d="M211.21,233.42s-16.55,20.96-45.69,31.33c-29.14,10.38-51,11.06-51,11.06l1.02-6.46s22.51-1.77,46-9.8c23.1-7.89,43.78-28.86,43.78-28.86l5.89,2.73Z"/>
      <g>
        <path class="st5" d="M115.49,271.37s22.51-1.77,46-9.8c23.1-7.89,43.78-28.86,43.78-28.86l4.7,2.18c.83-.94,1.25-1.47,1.25-1.47l-5.89-2.73s-20.68,20.97-43.78,28.86c-23.48,8.03-46,9.8-46,9.8l-1.02,6.46s.09,0,.27,0l.7-4.43Z"/>
        <path class="st6" d="M209.43,232.59c-4.25,4.85-19.88,21.17-44.51,29.94-25.56,9.1-45.51,10.74-50.03,11.02l-.36,2.27s21.86-.69,51-11.06c29.14-10.37,45.69-31.33,45.69-31.33l-1.79-.83Z"/>
      </g>
    </g>
  </g>
  <g>
    <g>
      <path class="st13" d="M205.65,226.46c0,8.62-16.65,15.6-37.18,15.6s-37.19-6.98-37.19-15.6,16.65-15.6,37.19-15.6,37.18,6.99,37.18,15.6Z"/>
      <path d="M202.49,226.46c0,.2-.01.39-.02.58-.05.7.13-.77,0-.08-.07.39-.19.76-.33,1.14.33-.92-.16.29-.3.53-.1.19-.23.36-.34.54-.49.74.18-.19-.17.24-.61.75-1.33,1.4-2.08,2.01-.67.54.52-.38-.19.14-.22.16-.44.31-.67.46-.55.38-1.13.72-1.71,1.05-2.46,1.4-4.35,2.1-7.16,2.96-3.12.97-6.33,1.63-9.56,2.11-7.13,1.07-14.56,1.01-21.73.17-3.15-.37-6.32-1.02-9.4-1.87-1.38-.38-2.75-.82-4.1-1.32-1.4-.51-1.99-.77-3.42-1.49-1.03-.52-2.03-1.12-2.99-1.76-.22-.15-.44-.31-.66-.47.59.43-.09-.07-.18-.15-.44-.36-.86-.75-1.26-1.16-.17-.17-1.07-1.28-.54-.57-.26-.34-.49-.7-.7-1.07-.1-.17-.19-.36-.28-.54-.31-.65.26.68.02.01-.11-.3-.38-1.73-.24-.68-.05-.39-.05-.77-.03-1.16,0-.22.13-.88-.02.07.03-.2.08-.39.12-.57.05-.19.11-.38.17-.57.22-.67-.31.67-.02.02.2-.45.46-.86.73-1.27.09-.13.55-.72.03-.06.14-.18.29-.35.44-.52.32-.36.66-.69,1.01-1.01.18-.17.38-.34.57-.5.09-.06.76-.58.18-.14.51-.39,1.05-.74,1.59-1.08,1.02-.63,2.09-1.18,3.18-1.7,1.02-.48,2.18-.92,3.61-1.41,3.02-1.03,6.15-1.74,9.29-2.29,7.1-1.23,14.48-1.3,21.65-.61,3.5.34,6.97.97,10.39,1.86,3.05.79,5.76,1.75,8.24,3,1.11.56,2.19,1.21,3.22,1.92.08.06.8.59.21.13.27.21.53.43.78.65.42.37.81.76,1.2,1.18.15.17.3.34.44.52-.53-.65-.07-.07.03.06.28.4.51.82.73,1.27.31.65-.26-.68-.02-.02.09.25.16.5.22.75.05.21.15.89.02-.07.03.26.04.52.04.77.06,4.08,6.38,4.08,6.33,0-.07-4.75-3.32-8.3-7.01-10.87-4.72-3.27-10.58-5.03-16.14-6.2-7.27-1.52-14.79-1.96-22.2-1.56-6.79.37-13.67,1.46-20.08,3.75-4.9,1.75-9.81,4.24-13.01,8.46-2.64,3.48-2.9,8-.73,11.78,2.51,4.37,7.38,6.92,11.85,8.79,6.1,2.56,12.77,3.7,19.32,4.29,10.85.99,22.43.13,32.75-3.55,6.55-2.34,15.14-6.87,15.26-14.89.06-4.08-6.27-4.07-6.33,0Z"/>
    </g>
    <g>
      <g>
        <path class="st13" d="M166.34,231.95s-9.51-2.23-15.52,2.11c-6.02,4.35-4.6,19.96-4.6,19.96,0,0,14.44.31,18.96-6.31,4.51-6.62,1.16-15.75,1.16-15.75Z"/>
        <path d="M167.26,228.6c-7.5-1.74-17.97-.83-21.92,6.77-1.93,3.71-2.48,8.02-2.69,12.13-.11,2.16-.11,4.36.08,6.52.17,1.92,1.45,3.43,3.48,3.47,5.91.12,12.61-.87,17.71-3.99,7.38-4.52,8.53-14.87,5.77-22.47-.65-1.78-2.34-2.96-4.28-2.43-1.72.47-3.08,2.5-2.43,4.28.24.67.42,1.38.59,2.08.07.31.13.62.2.94.04.2.24,1.6.13.7.13,1.05.17,2.11.16,3.17-.03,1.85-.39,3.53-1.27,5.18-.23.42-.48.81-.76,1.2.54-.76-.29.28-.46.44-.12.12-.25.24-.38.35-.66.58.6-.42-.12.1-.36.26-.74.49-1.12.72-.31.18-.64.34-.96.5-.16.08-.33.15-.5.24-.85.39.68-.27-.2.07-.78.31-1.59.55-2.4.77-.8.23-1.61.4-2.42.56-.43.08-.87.16-1.31.22-.17.03-.34.06-.51.08.97-.14.12-.02-.06,0-1.77.21-3.59.35-5.37.31,1.16,1.16,2.32,2.32,3.48,3.48-.16-1.76-.17-3.53-.13-5.29.02-.76.06-1.51.11-2.27.03-.45.08-.88.12-1.33.02-.18.04-.36.06-.54.1-.92-.12.77.02-.16.25-1.78.66-3.54,1.32-5.22-.34.89.09-.15.17-.32.18-.37.39-.72.61-1.06.09-.13.18-.27.27-.39-.54.76-.09.14.04-.01.17-.19,1.13-.98.3-.35.47-.36.99-.65,1.52-.93.21-.11.42-.21.63-.3-.59.27.46-.16.47-.16.55-.19,1.11-.33,1.67-.45.22-.05.44-.1.67-.14.06-.01,1.16-.16.41-.08,1.86-.22,3.75-.18,5.61,0,.15.02.31.04.46.05.79.09-.83-.12-.11-.02.27.04.54.08.8.13.23.04.46.08.69.14,1.84.43,3.76-.55,4.28-2.43.49-1.77-.58-3.85-2.43-4.28Z"/>
      </g>
      <path class="st15" d="M149.84,250.13l13.54-14.84s-6.78-1.46-10.68,2.08c-3.49,3.17-2.85,12.76-2.85,12.76Z"/>
      <g>
        <path class="st13" d="M171.41,231.95s9.51-2.23,15.52,2.11c6.02,4.35,4.6,19.96,4.6,19.96,0,0-14.44.31-18.96-6.31-4.51-6.62-1.16-15.75-1.16-15.75Z"/>
        <path d="M172.33,235.31c.19-.05.38-.08.57-.12.24-.05.49-.09.74-.13.93-.14-.76.09.3-.04,1.83-.2,3.69-.22,5.52-.06.42.05.44.05.07,0,.23.03.45.07.67.11.57.1,1.12.24,1.68.39.23.06.45.13.67.2,0,0,1.07.42.47.16.54.23,1.06.52,1.56.83.2.13.4.27.59.4-.78-.55-.18-.12-.02.03.18.17.96,1.14.36.34.49.65.87,1.39,1.2,2.13-.39-.88.05.2.12.38.15.41.27.84.39,1.27.25.88.42,1.78.57,2.67.03.19.06.36.08.54.14.93-.09-.76.02.16.05.45.09.9.13,1.35.07.85.11,1.7.14,2.55.06,1.84.04,3.7-.12,5.53,1.16-1.16,2.32-2.32,3.48-3.48-1.71.03-3.43-.1-5.13-.28-.2-.03-1.32-.18-.3-.03-.43-.06-.87-.14-1.29-.21-.81-.14-1.61-.31-2.41-.51-.82-.2-1.62-.45-2.42-.72-.17-.06-.35-.13-.53-.2-.88-.33.66.3-.19-.07-.42-.18-.83-.39-1.23-.61-.31-.17-.62-.36-.92-.55-.15-.1-.29-.2-.44-.3-.73-.51.56.47-.11-.1-.27-.23-.5-.47-.74-.72-.12-.13-.23-.25-.34-.38.64.74-.06-.13-.13-.23-.7-1.07-.86-1.56-1.17-2.6-.17-.58-.29-1.17-.39-1.76.04.34.03.29-.01-.13-.04-.34-.06-.69-.07-1.03-.05-.97,0-1.95.08-2.91.02-.2.04-.4.06-.6-.1.88.01-.04.03-.18.07-.42.15-.82.24-1.23.17-.77.37-1.56.64-2.3.65-1.79-.71-3.82-2.43-4.28-1.93-.54-3.63.65-4.28,2.43-2.77,7.64-1.56,17.57,5.55,22.32,3.46,2.32,7.77,3.2,11.82,3.73,2.01.27,4.07.45,6.11.4,2.03-.04,3.31-1.56,3.48-3.47.54-6.09.13-12.85-2.5-18.43-3.69-7.85-14.56-8.73-22.03-6.99-1.85.43-2.92,2.5-2.43,4.28.52,1.88,2.44,2.85,4.28,2.43Z"/>
      </g>
      <path class="st15" d="M187.96,250.13l-13.54-14.84s6.79-1.45,10.69,2.08c3.49,3.16,2.85,12.76,2.85,12.76Z"/>
    </g>
  </g>
  <g>
    <g>
      <path class="st18" d="M72.19,130.69c-.01,8.23.09,16.37.41,23.03,1.11,23.18,15.8,31.19,15.8,31.19v-54.21h-16.21Z"/>
      <path d="M63.34,130.69c-.01,7.82.02,15.64.43,23.45.39,7.39,2.07,14.31,5.1,21.04,3.08,6.81,8.3,13.13,14.66,17.13.13.09.26.17.4.24,5.84,3.2,13.33-.8,13.33-7.65v-54.21c0-4.83-4.03-8.86-8.86-8.86h-16.21c-4.83,0-8.86,4.03-8.86,8.86s4.03,8.86,8.86,8.86h16.21c-2.95-2.96-5.91-5.9-8.86-8.86v54.21c4.44-2.55,8.88-5.1,13.33-7.65-.72-.39-1.39-.89-2.04-1.4.59.47,1.2.93,1.79,1.39-2.08-1.62-3.91-3.52-5.52-5.59.46.6.92,1.19,1.39,1.79-1.96-2.56-3.56-5.35-4.81-8.31.3.7.59,1.41.89,2.11-1.52-3.65-2.49-7.48-3.03-11.4.1.79.21,1.58.32,2.36-.55-4.24-.59-8.54-.68-12.81-.11-4.9-.14-9.8-.13-14.7,0-4.83-4.04-8.86-8.86-8.86s-8.85,4.03-8.86,8.86Z"/>
    </g>
    <path class="st20" d="M76.74,153.72c0-6.66-.42-14.8-.41-23.03h-4.14c-.01,8.23.09,16.37.41,23.03,1.11,23.18,15.8,31.19,15.8,31.19,0,0-11.66-12.12-11.66-31.19Z"/>
  </g>
  <g>
    <g>
      <path class="st18" d="M264.89,130.69c.02,8.23-.09,16.37-.41,23.03-1.11,23.18-15.8,31.19-15.8,31.19v-54.21h16.2Z"/>
      <path d="M256.02,130.69c.01,4.9-.02,9.8-.12,14.7-.09,4.27-.13,8.57-.68,12.81.11-.78.21-1.56.31-2.36-.53,3.91-1.51,7.75-3.02,11.4.3-.71.59-1.41.89-2.11-1.26,2.96-2.85,5.76-4.81,8.31.46-.6.93-1.2,1.39-1.79-1.61,2.07-3.44,3.98-5.51,5.59.6-.46,1.19-.92,1.79-1.39-.64.5-1.31,1-2.03,1.4,4.44,2.55,8.88,5.1,13.33,7.65v-54.21c-2.95,2.96-5.9,5.91-8.86,8.86h16.2c4.83,0,8.86-4.03,8.86-8.86s-4.03-8.86-8.86-8.86h-16.2c-4.83,0-8.86,4.03-8.86,8.86v54.21c0,6.85,7.48,10.85,13.33,7.65,1.82-1,3.46-2.41,5.01-3.75,3.14-2.72,5.79-6.14,7.96-9.67,3.09-5.04,5.18-10.85,6.21-16.67,1.39-7.82,1.32-15.87,1.39-23.79.02-2.66.03-5.32.02-7.99,0-4.83-4.02-8.86-8.86-8.86s-8.87,4.03-8.86,8.86Z"/>
    </g>
    <path class="st20" d="M260.35,153.72c0-6.66.42-14.8.41-23.03h4.13c.02,8.23-.09,16.37-.41,23.03-1.11,23.18-15.8,31.19-15.8,31.19,0,0,11.66-12.12,11.66-31.19Z"/>
  </g>
  <g>
    <g>
      <path class="st18" d="M83.39,76.21c-.31,12.17,0,84.13,0,84.13,0,32.7,18.32,63.01,86.6,62.72,67.57-.28,83.57-30.03,83.57-62.72v-84.13H83.39Z"/>
      <path d="M74.53,76.21c-.35,14.29-.15,28.62-.12,42.92.02,13.46.06,26.93.12,40.39.06,14.02,2.85,28.33,10.93,40.06,5.24,7.61,12.05,13.83,19.99,18.55,9.14,5.43,19.53,8.81,29.93,10.81,13.98,2.71,28.36,3.38,42.56,2.81,12.66-.51,25.56-2.08,37.66-5.99,9.72-3.14,18.74-7.8,26.49-14.48,5.97-5.15,10.88-11.82,14.05-19.03,3.48-7.93,5.29-16.06,6-24.69.3-3.78.28-7.57.28-11.36v-79.99c0-4.83-4.03-8.86-8.86-8.86H83.39c-4.83,0-8.86,4.02-8.86,8.86s4.03,8.86,8.86,8.86h170.17c-2.95-2.95-5.91-5.9-8.86-8.86v75.51c0,6.65.16,13.31-.71,19.92.1-.78.21-1.57.31-2.36-.72,5.34-2.02,10.59-4.1,15.55.3-.7.59-1.41.89-2.11-1.64,3.86-3.73,7.51-6.3,10.84.46-.59.92-1.19,1.39-1.79-2.55,3.29-5.52,6.22-8.8,8.77.59-.46,1.19-.92,1.79-1.39-4.23,3.27-8.92,5.88-13.83,7.97.71-.29,1.41-.59,2.12-.89-8.39,3.54-17.33,5.58-26.33,6.8.79-.11,1.57-.21,2.36-.32-15.9,2.12-32.36,2.14-48.27.05.79.1,1.57.21,2.36.31-9.17-1.24-18.26-3.31-26.81-6.89.7.3,1.41.6,2.11.9-5.14-2.18-10.05-4.9-14.48-8.3.6.46,1.19.92,1.79,1.39-3.45-2.68-6.58-5.75-9.26-9.2.46.6.92,1.2,1.39,1.8-2.64-3.42-4.81-7.16-6.5-11.12.3.7.59,1.41.89,2.11-2.07-4.91-3.39-10.1-4.11-15.38.1.79.21,1.57.32,2.36-.59-4.43-.66-8.87-.68-13.33-.03-6.15-.05-12.3-.07-18.45-.05-17.16-.1-34.33-.03-51.49.02-3.75.02-7.49.11-11.23.12-4.83-4.12-8.86-8.86-8.86s-8.74,4.03-8.86,8.86Z"/>
    </g>
    <path class="st1" d="M83.39,76.21c-.31,12.17,0,84.13,0,84.13,0,32.7,18.32,63.01,86.6,62.72,67.57-.28,83.57-30.03,83.57-62.72v-84.13H83.39Z"/>
  </g>
  <g>
    <g>
      <g>
        <g>
          <path class="st4" d="M131.25,169.83c0,7.99-6.48,14.48-14.48,14.48s-14.47-6.49-14.47-14.48,6.48-14.47,14.47-14.47,14.48,6.48,14.48,14.47Z"/>
          <path d="M129.35,169.83c-.06,5.43-3.52,10.26-8.7,11.97-5.25,1.73-11.15-.34-14.27-4.87-3.11-4.52-2.86-10.78.61-15.03,3.55-4.35,9.42-5.69,14.6-3.71,4.72,1.81,7.7,6.7,7.76,11.63.03,2.45,3.82,2.45,3.79,0-.07-5.89-3.19-11.28-8.3-14.24-5.14-2.98-11.69-2.74-16.71.33-5.02,3.07-7.93,8.8-7.72,14.63.21,5.9,3.82,11.32,9.08,13.95,5.04,2.52,11.14,2.17,15.92-.75,4.81-2.95,7.67-8.32,7.73-13.91.03-2.45-3.76-2.44-3.79,0Z"/>
        </g>
        <path class="st16" d="M127.18,166.02c0,1.96-1.59,3.56-3.56,3.56s-3.56-1.6-3.56-3.56,1.59-3.55,3.56-3.55,3.56,1.59,3.56,3.55Z"/>
      </g>
      <g>
        <g>
          <g>
            <path class="st4" d="M237.17,169.83c0,7.99-6.48,14.48-14.48,14.48s-14.47-6.49-14.47-14.48,6.48-14.47,14.47-14.47,14.48,6.48,14.48,14.47Z"/>
            <path d="M235.27,169.83c-.07,5.43-3.52,10.26-8.7,11.97-5.17,1.7-11.01-.28-14.15-4.7-3.14-4.42-3.06-10.65.29-14.95,3.44-4.42,9.27-5.93,14.49-4.08,4.88,1.74,8.01,6.69,8.07,11.75.03,2.45,3.82,2.45,3.8,0-.07-5.89-3.19-11.28-8.3-14.24-5.13-2.98-11.69-2.74-16.71.33-5.01,3.06-7.93,8.79-7.72,14.62.21,5.82,3.72,11.18,8.86,13.86,5.07,2.64,11.29,2.31,16.13-.65,4.81-2.95,7.67-8.32,7.74-13.91.03-2.45-3.76-2.44-3.8,0Z"/>
          </g>
          <path class="st16" d="M233.11,166.02c0,1.96-1.59,3.56-3.56,3.56s-3.55-1.6-3.55-3.56,1.59-3.55,3.55-3.55,3.56,1.59,3.56,3.55Z"/>
        </g>
        <path class="st14" d="M114.66,191.52c.31,2.26-3.59,4.66-8.7,5.35-5.11.7-9.5-.57-9.81-2.83-.31-2.26,3.59-4.66,8.69-5.35,5.11-.7,9.51.57,9.81,2.83Z"/>
        <path class="st14" d="M222.14,191.52c-.31,2.26,3.58,4.66,8.7,5.35,5.11.7,9.5-.57,9.81-2.83.31-2.26-3.58-4.66-8.69-5.35-5.11-.7-9.5.57-9.81,2.83Z"/>
      </g>
    </g>
    <path d="M176.7,199.15c-.04.29-.13.59-.23.87-.05.15-.11.29-.16.43.36-.9.1-.24,0-.04-.09.19-.2.36-.3.54-.1.16-.68.93-.17.29-.33.42-.72.79-1.12,1.14-.24.19-.22.18.04-.03-.13.09-.25.17-.38.26-.28.18-.57.34-.86.48-.48.25-.87.36-1.73.58-.94.24-1.72.29-2.77.32-1.77.05-3.28-.16-4.96-.79.46.17-.43-.22-.52-.27-.28-.14-.55-.32-.81-.5-.39-.27.28.26-.29-.24-.25-.21-.47-.46-.69-.71-.34-.38.33.49-.11-.15-.12-.18-.23-.37-.34-.55-.1-.17-.18-.34-.27-.53-.16-.33.25.69,0-.04-.15-.42-.32-1.77-.16-.33-.16-1.51-1.14-2.78-2.79-2.78-1.39,0-2.95,1.27-2.78,2.78.22,1.97,1.05,3.71,2.29,5.25,2.55,3.18,6.74,4.29,10.64,4.42,4.08.14,8.5-.98,11.33-4.09,1.18-1.29,2.29-3.07,2.55-4.84.21-1.5-.35-2.98-1.95-3.42-1.32-.36-3.21.44-3.42,1.95h0Z"/>
  </g>
  <g>
    <g>
      <g>
        <path class="st18" d="M268.3,71.72c-7.4-18.98-29.54-36.37-50.65-48.35-26.81-15.22-48.89-14.5-49.18-14.5-.29,0-22.37-.72-49.18,14.5-21.11,11.98-43.25,29.38-50.65,48.35-7.4,18.97-3.13,29.25-3.13,29.25h205.92s4.27-10.28-3.13-29.25Z"/>
        <path d="M276.84,69.36c-1.36-3.43-2.88-6.75-4.79-9.91-1.97-3.29-4.32-6.35-6.72-9.35-4.34-5.4-9.38-10.23-14.67-14.68-11.7-9.84-24.85-18.63-38.81-24.92-11.66-5.25-23.75-8.76-36.46-10.13-3.29-.35-6.61-.47-9.91-.31-25.74,1.28-49.85,13.25-70.25,28.33-11.93,8.83-23.36,19.07-30.92,32.01-3.7,6.33-6.27,13.52-7.67,20.71-1.01,5.17-1.62,10.59-.91,15.85.27,2.07.43,4.39,1.24,6.36.42,1.5,1.18,2.81,2.28,3.91,1.65,1.66,3.92,2.6,6.26,2.6h205.92c1.6,0,3.09-.41,4.47-1.21,2.17-1.28,3.15-3.06,4.07-5.3.25-.59.4-1.24.55-1.87.59-2.57.88-5.24.98-7.88.29-8.21-1.71-16.6-4.65-24.22-.87-2.24-1.93-4.04-4.08-5.29-2.04-1.19-4.54-1.52-6.82-.89-2.21.61-4.13,2.08-5.29,4.07-1.1,1.88-1.71,4.71-.89,6.82,1.82,4.71,3.23,9.58,3.93,14.58-.11-.79-.21-1.57-.32-2.36.47,3.54.61,7.13.13,10.67.1-.79.21-1.57.31-2.36-.18,1.33-.41,2.75-.93,4,2.85-2.16,5.69-4.33,8.54-6.5H65.5c2.85,2.17,5.69,4.34,8.54,6.5-.52-1.25-.74-2.67-.93-4,.11.79.21,1.57.32,2.36-.48-3.54-.34-7.13.13-10.67-.1.79-.21,1.57-.32,2.36.75-5.34,2.26-10.59,4.33-15.57-.3.71-.6,1.41-.9,2.12,1.99-4.73,4.73-9.07,7.85-13.12-.46.59-.92,1.19-1.39,1.79,5.83-7.48,12.89-13.92,20.38-19.71-.59.46-1.19.92-1.79,1.39,10.67-8.21,22.34-15.55,34.75-20.81-.7.3-1.41.6-2.12.89,8.72-3.65,17.89-6.31,27.27-7.58-.79.11-1.57.21-2.36.32,6.17-.81,12.2-.81,18.37,0-.79-.1-1.57-.21-2.36-.32,9.38,1.27,18.54,3.93,27.27,7.58-.7-.29-1.41-.59-2.11-.89,12.41,5.25,24.08,12.6,34.75,20.81-.6-.47-1.19-.92-1.8-1.39,7.49,5.79,14.55,12.23,20.38,19.71-.46-.6-.92-1.2-1.39-1.79,3.12,4.05,5.85,8.39,7.85,13.12-.3-.71-.6-1.41-.9-2.12.14.33.27.66.4.99.89,2.24,1.92,4.03,4.07,5.29,2.05,1.2,4.54,1.52,6.83.89,2.22-.61,4.13-2.1,5.29-4.07,1.09-1.87,1.72-4.73.9-6.83Z"/>
      </g>
      <path class="st22" d="M268.3,71.72c-7.4-18.98-29.54-36.37-50.65-48.35-26.81-15.22-48.89-14.5-49.18-14.5-.29,0-22.37-.72-49.18,14.5-21.11,11.98-43.25,29.38-50.65,48.35-7.4,18.97-3.13,29.25-3.13,29.25h205.92s4.27-10.28-3.13-29.25Z"/>
      <path class="st17" d="M268.3,71.72c-7.4-18.98-29.54-36.37-50.65-48.35-26.81-15.22-48.89-14.5-49.18-14.5-.06,0-1.06-.04-2.85.05,6.81.33,25.09,2.38,46.33,14.45,21.11,11.98,43.25,29.38,50.65,48.35,7.4,18.97,3.13,29.25,3.13,29.25h5.69s4.27-10.28-3.13-29.25Z"/>
    </g>
    <g>
      <path class="st16" d="M201.98,22.93c9.42,3.64,15.76,9.94,14.16,14.07-1.6,4.13-10.52,4.54-19.94.91-9.42-3.63-15.76-9.93-14.16-14.06,1.6-4.14,10.53-4.55,19.94-.92Z"/>
      <path class="st16" d="M223.64,38.56c.73,1.64-.01,3.56-1.65,4.28-1.64.73-3.56-.01-4.28-1.65-.73-1.64.02-3.56,1.65-4.28,1.64-.73,3.56.01,4.28,1.65Z"/>
    </g>
  </g>
  <path class="st12" d="M271.73,83.33c-2.07-.96-4.17-1.86-6.29-2.72.88,3.61,1.3,6.77,1.46,9.45,1.93.81,3.86,1.66,5.76,2.55.01-2.54-.22-5.64-.93-9.28Z"/>
  <g>
    <g>
      <g>
        <path class="st18" d="M175.18,285.3c-.01,1.09-.83,1.97-1.83,1.96l-8.75-.07c-1,0-1.8-.89-1.8-1.99l.05-5.25c0-1.09.83-1.97,1.82-1.96l8.75.07c1,0,1.81.89,1.8,1.98l-.04,5.25Z"/>
        <path d="M168.85,285.3c.22-2.45,1.99-4.39,4.46-4.37-.17,0-.35,0-.52,0-.7,0-1.39-.01-2.1-.01-1.75-.02-3.5-.03-5.25-.04-2.18-.02.21-.39,2.46,1.37.62.49,1.22,3.35,1.22,2.83,0-.3,0-.59,0-.88.01-1.41.02-2.83.03-4.24-.02,2.46-2.16,4.39-4.46,4.37h.52c.7.01,1.39.01,2.09.02,1.75.02,3.5.03,5.25.05,2.18.02-.21.39-2.46-1.38-.63-.48-1.22-3.35-1.22-2.83,0,.29,0,.59,0,.88-.01,1.41-.02,2.83-.03,4.24-.03,3.45,2.9,6.33,6.33,6.33s6.3-2.88,6.33-6.33c.01-1.54.02-3.07.03-4.61.03-4.75-3.18-8.92-8.2-8.95-2.97-.03-6.04-.31-8.99-.04-3.64.32-6.63,2.6-7.57,6.22-.29,1.13-.26,2.31-.27,3.47,0,.93-.02,1.87-.02,2.8-.01,1.74.27,3.26.96,4.9,2.35,5.51,9.67,4.44,14.53,4.48.57,0,1.13.04,1.69-.02,2.14-.18,4.05-.92,5.54-2.51,1.53-1.64,2.09-3.54,2.29-5.74.31-3.44-3.11-6.33-6.33-6.33-3.68,0-6.02,2.9-6.33,6.33Z"/>
      </g>
      <path class="st3" d="M175.18,285.3c-.01,1.09-.83,1.97-1.83,1.96l-8.75-.07c-1,0-1.8-.89-1.8-1.99l.05-5.25c0-1.09.83-1.97,1.82-1.96l8.75.07c1,0,1.81.89,1.8,1.98l-.04,5.25Z"/>
      <path class="st4" d="M173.37,284.37l.03-3.41c0-.71-.57-1.29-1.27-1.29l-6.18-.05c-.71-.01-1.28.56-1.29,1.27v.64s2.89.02,2.89.02c.59,0,1.06.49,1.06,1.08,0,.58-.49,1.06-1.08,1.05l-2.89-.02v.63c0,.71.56,1.29,1.26,1.29l6.18.05c.71,0,1.29-.56,1.29-1.27Z"/>
      <g>
        <path class="st9" d="M173.08,280.11c.2.23.32.53.32.86l-.03,3.41c0,.71-.58,1.28-1.29,1.27l-6.18-.05c-.13,0-.26-.02-.38-.06.23.27.57.43.95.44l6.18.05c.71,0,1.28-.57,1.29-1.27l.03-3.41c0-.58-.37-1.06-.89-1.23Z"/>
        <path class="st9" d="M168.12,281.93c.09,0,.18.01.27.04-.2-.25-.5-.42-.83-.42l-2.32-.02v.38s2.89.02,2.89.02Z"/>
        <path class="st9" d="M163.38,285.59l.04-5.25c0-1.09.83-1.96,1.83-1.96l8.75.07c.22,0,.43.05.62.13-.32-.31-.73-.5-1.2-.5l-8.75-.07c-1-.01-1.82.87-1.82,1.96l-.05,5.25c0,.86.48,1.58,1.18,1.86-.38-.36-.61-.89-.6-1.48Z"/>
      </g>
    </g>
    <g>
      <path class="st21" d="M171.95,279.1l-6.18-.05c-.71-.01-1.29.56-1.29,1.27v.64s.18,0,.18,0v-.07c0-.71.58-1.28,1.29-1.27l6.18.05c.46,0,.87.25,1.09.62-.05-.66-.59-1.19-1.26-1.2Z"/>
      <path class="st21" d="M164.63,284.4v-.73s2.9.02,2.9.02c.59,0,1.07-.47,1.08-1.05,0-.22-.06-.43-.18-.61,0,.01,0,.02,0,.03,0,.59-.49,1.06-1.08,1.06l-2.9-.02v.64c0,.24.06.47.18.66Z"/>
      <path class="st21" d="M175.18,285.3l.04-5.25c0-.34-.07-.66-.21-.94.02.13.03.24.03.36l-.04,5.26c-.01,1.09-.83,1.96-1.83,1.96l-8.74-.07c-.69,0-1.28-.43-1.59-1.05.15.91.88,1.61,1.76,1.62l8.75.07c1,0,1.82-.87,1.83-1.96Z"/>
    </g>
  </g>
  <path class="st5" d="M271.73,83.33c-12.94-5.99-26.81-9.94-40.77-12.7-27.42-5.44-55.71-5.74-83.62-5.13-23.19.51-54.32,9.87-56.09,1.01-3.76-18.81,34.59-49.19,67.68-56.95-8.98,1.23-23.45,4.61-39.63,13.8-21.11,11.99-43.25,29.38-50.65,48.36-2.59,6.64-3.75,12.21-4.17,16.65v.03c-.03.37-.06.73-.09,1.09,0,.02,0,.04,0,.06-.02.35-.04.68-.06,1.01v.09c-.01.32-.02.63-.03.94,0,.04,0,.08,0,.12,0,.29,0,.58,0,.86v.04h0c.04,5.49,1.23,8.35,1.23,8.35,0,0,46.41-22.48,46.03-22.58,11.85-2.1,23.86-3.35,35.8-4.04,27.87-1.61,56.2-.3,83.62,5.14,14.28,2.83,28.5,6.89,41.69,13.12.01-2.54-.22-5.64-.93-9.28Z"/>
  <g>
    <g>
      <path class="st18" d="M168.49,107.97h-.05c-63,0-95.84,15.31-104.59,20.11-2.21-13.95-2.42-24.19-2.42-24.19,0,0,32.3-21.53,107.01-21.53h.05c74.7,0,107.01,21.53,107.01,21.53,0,0-.21,10.25-2.42,24.19-8.75-4.8-41.59-20.11-104.59-20.11Z"/>
      <path d="M168.49,99.12c-25.56,0-51.47,2.36-76.23,8.88-11.26,2.97-22.62,6.82-32.87,12.44,4.34,1.77,8.68,3.53,13.02,5.29-.28-1.76-.53-3.52-.77-5.27.11.79.21,1.57.32,2.36-.83-6.27-1.52-12.6-1.65-18.92-1.46,2.55-2.93,5.1-4.39,7.65,3.45-2.3,7.39-4,11.19-5.61-.71.3-1.41.6-2.12.89,16.05-6.77,33.32-10.6,50.52-12.99.36-.05.73-.1,1.09-.15-.79.11-1.57.21-2.36.32,27.98-3.74,56.72-3.84,84.75-.47,1.24.15,2.47.31,3.71.47-.79-.1-1.57-.21-2.36-.32,17.42,2.35,34.89,6.17,51.17,12.95.15.06.3.13.45.19-.7-.3-1.41-.59-2.12-.89,3.8,1.61,7.74,3.31,11.19,5.61-1.46-2.55-2.93-5.1-4.39-7.65-.14,6.32-.83,12.65-1.65,18.92.11-.79.21-1.57.31-2.36-.23,1.75-.49,3.52-.77,5.27,4.34-1.76,8.68-3.53,13.02-5.29-11.14-6.1-23.56-10.14-35.83-13.2-23.85-5.95-48.69-8.11-73.23-8.12-4.83,0-8.86,4.03-8.86,8.86s4.03,8.86,8.86,8.86c14.78,0,29.55.84,44.2,2.79-.79-.1-1.57-.21-2.36-.31,17.52,2.36,35.11,6.2,51.46,13.06.05.02.1.04.15.07-.71-.3-1.41-.6-2.12-.89,2.98,1.26,5.93,2.63,8.78,4.19,2.11,1.15,4.49,1.54,6.82.89,2.72-.74,5.72-3.23,6.19-6.19,1.13-7.18,2.01-14.42,2.49-21.68.32-4.87.76-9.33-4.2-12.55-1.81-1.18-3.76-2.16-5.71-3.11-13.63-6.66-28.4-10.93-43.25-13.87-27.42-5.44-55.75-6.74-83.62-5.14-22.23,1.29-44.73,4.51-65.94,11.5-6.14,2.02-12.19,4.4-18.02,7.19-2.14,1.02-4.27,2.1-6.28,3.37-2.72,1.73-4.6,4.51-4.51,7.84.03,1.33.1,2.67.18,4,.46,7.52,1.38,15.01,2.55,22.44.34,2.15,2.27,4.25,4.07,5.3,2.79,1.63,6.14,1.53,8.94,0,2.85-1.56,5.79-2.93,8.78-4.19-.7.3-1.41.59-2.12.89,16.28-6.86,33.79-10.71,51.24-13.09.12-.02.25-.03.37-.04-.79.1-1.57.21-2.36.31,14.66-1.96,29.46-2.79,44.25-2.79,4.83,0,8.86-4.04,8.86-8.86s-4.03-8.86-8.86-8.86Z"/>
    </g>
    <g>
      <g>
        <path class="st23" d="M168.49,108.23h-.05c-63,0-95.84,15.31-104.59,20.11-2.21-13.95-2.42-24.19-2.42-24.19,0,0,32.3-21.53,107.01-21.53h.05c74.7,0,107.01,21.53,107.01,21.53,0,0-.21,10.25-2.42,24.19-8.75-4.8-41.59-20.11-104.59-20.11Z"/>
        <path class="st10" d="M168.49,88.61s-.02,0-.02,0c-.01,0-.02,0-.02,0-70.54,0-103.27,19.2-106.71,21.34-.26-3.66-.3-5.81-.3-5.81,0,0,32.3-21.53,107.01-21.53h.05c74.7,0,107.01,21.53,107.01,21.53,0,0-.04,2.15-.3,5.81-3.44-2.14-36.17-21.34-106.71-21.34Z"/>
      </g>
      <g>
        <g>
          <path class="st18" d="M273.72,142.01s0-.05.01-.08c.02-.25.05-.5.06-.75.09-1.71-1.88-3.23-4.78-4.11-.17-.05-.33-.1-.51-.15-3.85-1.08-8.02-1.92-12.14-2.71-7.57-1.46-15.44-2.57-23.38-3.46-28.74-3.18-58.93-3.85-88.26-2.79-21.39.76-43.34,2.37-63.39,6.25-4.11.8-8.3,1.62-12.14,2.71-.17.05-.34.1-.51.15-2.92.89-4.88,2.42-4.77,4.14.01.24.03.48.06.72,0,.04.01.09.02.13-33.81-2.46-55.2-6.1-55.2-10.16,0-7.42,71.51-26.73,159.72-26.73s159.73,19.32,159.73,26.73c0,4.03-21.11,7.64-54.52,10.1Z"/>
          <path d="M282.58,142.01c.84-7.19-5.62-11.86-11.72-13.62-4.76-1.38-9.68-2.27-14.54-3.16-10.72-1.96-21.57-3.23-32.42-4.23-20.56-1.9-41.22-2.53-61.86-2.3-18.44.21-36.93,1-55.28,2.94-9.5,1-18.98,2.34-28.36,4.16-4.22.81-8.51,1.59-12.6,2.92-5.76,1.88-11.48,6.66-10.67,13.36,2.95-2.96,5.91-5.91,8.86-8.86-9.28-.68-18.55-1.49-27.79-2.63-.92-.11-1.84-.23-2.76-.35,3.29.43.05,0-.71-.11-1.73-.25-3.47-.52-5.2-.81-2.72-.45-5.43-.99-8.11-1.65-1-.25-1.99-.53-2.97-.83-.42-.13-.83-.27-1.25-.43-.19-.06-.38-.14-.56-.21-1.11-.43,2.6,1.14,1.27.54-.55-.25-1.07-.53-1.56-.88,2.89,2.04,1.78,1.48,1.19.87-.66-.69,1.68,2.26,1.15,1.5-.42-.61-.74-2.26.71,1.74-.38-1.04.18,3.01.26,1.87-.27,3.92-.51,2.77-.23,1.97-1.24,3.45-1.13,2.43-.69,1.71.64-1.03-1.85,2.25-1.01,1.31.25-.28.54-.52.83-.76-3.12,2.49-1.29.98-.42.45,1.12-.69,2.31-1.26,3.5-1.81.34-.16.69-.31,1.03-.46,1.07-.46-2.47,1.04-1.39.59.19-.08.38-.16.57-.24.89-.35,1.78-.69,2.67-1.02,4.34-1.59,8.78-2.91,13.24-4.13,12.79-3.49,25.84-6.03,38.91-8.15,3.97-.65,7.94-1.24,11.93-1.8.5-.07.99-.13,1.48-.2,1.86-.25-2.23.3-.36.05,1.01-.13,2.02-.27,3.02-.39,2.23-.28,4.46-.55,6.7-.81,9.1-1.06,18.23-1.9,27.36-2.55,20.06-1.43,40.19-1.86,60.3-1.32,18.9.5,37.78,1.88,56.55,4.11,2.04.24,4.09.5,6.13.76.5.07,1,.14,1.51.2,1.88.25-2.23-.3-.36-.05,1.15.16,2.3.32,3.45.48,3.94.56,7.87,1.17,11.8,1.82,7.05,1.17,14.08,2.49,21.07,3.98,10.15,2.19,20.37,4.66,30.11,8.31.8.3,1.6.61,2.38.94,1.09.44-2.46-1.04-1.39-.59.18.08.35.16.53.23.39.17.77.35,1.16.53,1.13.53,2.24,1.1,3.28,1.78.2.13.39.27.59.4,1.01.72-2.26-1.81-1.21-.93.15.12.28.25.42.38.59.58,1.39,1.77-.96-1.3.09.1.16.22.23.35.51.92-1.03-2.8-.74-1.72.28,1-.24-3.11-.27-1.96.11-3.3.49-2.84.25-2.05.91-3.08,1.16-2.46.71-1.74-.51.81,1.87-2.25,1.07-1.42-.05.05-.1.11-.15.15-.53.49-1.58,1.13,1.42-1.09-.34.25-.73.46-1.11.66-.2.1-.41.2-.61.29-.92.42,2.77-1.11,1.06-.46-.62.24-1.26.44-1.89.63-3.58,1.1-7.3,1.78-10.99,2.41-1.19.2-2.38.39-3.56.56-.56.09-1.12.16-1.68.25-.72.1-3.49.47-.28.05-2.89.38-5.78.72-8.68,1.04-7.06.77-14.14,1.37-21.22,1.89-4.81.36-8.86,3.76-8.86,8.86,0,4.56,4.04,9.22,8.86,8.86,9.22-.69,18.43-1.5,27.6-2.64,6.94-.86,13.93-1.77,20.73-3.44,2.62-.63,5.04-1.52,7.52-2.57,1.66-.71,3.42-1.75,4.58-3.15,2.27-2.75,3.84-6.4,2.54-10.01-.73-2.03-1.73-3.84-3.37-5.29-2.42-2.11-5.1-3.58-8.02-4.84-4.32-1.85-8.71-3.45-13.21-4.82-11.66-3.57-23.65-6.12-35.64-8.3-36.36-6.63-73.48-9.63-110.42-9.49-36.44.13-73.06,3.35-108.87,10.12-11.57,2.19-23.12,4.75-34.34,8.33-4.23,1.36-8.41,2.91-12.44,4.77-2.55,1.17-5.25,2.67-7.18,4.74-3.95,4.25-4.6,11.15.13,15.24,3.6,3.12,8.24,4.49,12.8,5.55,6.75,1.56,13.68,2.43,20.55,3.28,9.07,1.12,18.19,1.91,27.31,2.57,4.4.32,9.41-4.29,8.86-8.86-.04-.29-.06-.57-.08-.85-.09.56-.17,1.14-.26,1.71-.77,1.57-.93,1.98-.48,1.21-.3.41-.6.82-.9,1.23.65-.58.39-.38-.79.6.49-.34,2.06-.99-.34.01,2.27-.95,4.84-1.38,7.24-1.92,4.83-1.07,9.69-1.96,14.58-2.75,2.36-.38,4.72-.73,7.09-1.05-2.6.36-.48.06.03,0,.6-.07,1.2-.15,1.8-.22,1.4-.17,2.81-.34,4.21-.5,5.07-.57,10.15-1.02,15.23-1.41,20.53-1.55,41.18-2.03,61.76-1.67,16.04.28,32.07,1.18,48.04,2.83,1.84.2,3.69.39,5.52.61,1.04.13,2.08.25,3.12.38.42.05.83.1,1.24.16,2.18.28-2.04-.28.13.01,4.09.56,8.16,1.21,12.22,1.96,3.73.69,7.45,1.43,11.14,2.32.94.23,1.87.47,2.8.73.35.09.7.2,1.04.32,1.84.6-1.83-.9-.24-.06.79.49.56.28-.69-.63.71.55.95,1.52-.42-.66-.58-1-.89-2.08-.91-3.24,0,.27-.04.57-.07.83-.56,4.81,4.45,8.86,8.86,8.86,2.34,0,4.61-.94,6.26-2.6,1.81-1.8,2.31-3.81,2.6-6.26Z"/>
        </g>
        <path class="st26" d="M252.14,142.42c-4.03-.74-8.09-1.39-12.15-1.95-.06,0-.13-.02-.2-.02-.41-.06-.83-.11-1.24-.16-1.04-.13-2.08-.25-3.12-.38-1.84-.21-3.68-.41-5.52-.61-15.96-1.65-31.99-2.55-48.04-2.83-20.58-.36-41.23.12-61.76,1.67-5.08.39-10.16.84-15.23,1.41-1.41.15-2.81.32-4.21.5-.6.07-1.2.15-1.8.22-.11.01-.29.04-.49.06-2.21.31-4.42.63-6.63.99-2.84.46-5.67.95-8.5,1.5.01,2.97.02,5.77.03,8.35,2.82-.54,5.64-1.04,8.47-1.49,2.21-.36,4.42-.68,6.63-.99.2-.03.38-.05.49-.06.6-.08,1.2-.16,1.8-.22,1.4-.18,2.81-.34,4.21-.5,5.07-.56,10.15-1.02,15.23-1.4,20.53-1.56,41.17-2.03,61.76-1.67,16.04.28,32.08,1.18,48.04,2.83,1.84.2,3.68.4,5.52.61,1.04.12,2.08.25,3.12.38.41.05.83.1,1.24.16.07,0,.14.02.2.03,4.06.55,8.12,1.21,12.15,1.95.45.08.9.17,1.35.25v-8.35c-.45-.09-.9-.17-1.35-.25Z"/>
        <path class="st24" d="M273.72,142.01s0-.05.01-.08c.02-.25.05-.5.06-.75.09-1.71-1.88-3.23-4.78-4.11-.17-.05-.33-.1-.51-.15-3.85-1.08-8.02-1.92-12.14-2.71-7.57-1.46-15.44-2.57-23.38-3.46-28.74-3.18-58.93-3.85-88.26-2.79-21.39.76-43.34,2.37-63.39,6.25-4.11.8-8.3,1.62-12.14,2.71-.17.05-.34.1-.51.15-2.92.89-4.88,2.42-4.77,4.14.01.24.03.48.06.72,0,.04.01.09.02.13-33.81-2.46-55.2-6.1-55.2-10.16,0-7.42,71.51-26.73,159.72-26.73s159.73,19.32,159.73,26.73c0,4.03-21.11,7.64-54.52,10.1Z"/>
        <path class="st6" d="M273.68,142.01c21.57-1.58,38.01-3.65,46.96-6-9.82,1.5-22.7,2.85-37.96,3.97,0-.03,0-.06.01-.09.03-.27.05-.54.07-.81.11-1.85-2.04-3.5-5.19-4.46-.18-.05-.36-.11-.55-.16-4.17-1.17-8.71-2.08-13.17-2.95-8.23-1.59-16.76-2.79-25.38-3.74-31.2-3.46-63.97-4.18-95.81-3.04-23.22.83-47.05,2.57-68.82,6.78-4.47.87-9,1.77-13.18,2.95-.18.05-.37.11-.55.16-3.16.97-5.3,2.62-5.18,4.49.02.26.04.53.07.78,0,.05,0,.1.01.14-15.57-1.13-28.72-2.49-38.69-4.02,9.03,2.37,25.73,4.46,47.64,6.06,0-.04-.01-.09-.02-.13-.02-.24-.05-.48-.06-.72-.1-1.72,1.86-3.25,4.78-4.14.17-.05.34-.1.51-.15,3.84-1.09,8.02-1.91,12.14-2.71,20.05-3.88,42-5.49,63.39-6.25,29.33-1.05,59.52-.38,88.26,2.79,7.94.88,15.8,1.99,23.38,3.46,4.12.79,8.29,1.63,12.14,2.71.18.05.34.1.51.15,2.9.88,4.88,2.4,4.78,4.11-.01.25-.04.5-.06.75,0,.02-.01.05-.01.08Z"/>
        <path class="st22" d="M168.42,105.25c-88.22,0-159.73,19.31-159.73,26.73,0,1.41,2.6,2.78,7.41,4.06,3.32-7.44,70.24-24.97,152.32-24.97s149,17.53,152.32,24.97c4.81-1.28,7.41-2.64,7.41-4.06,0-7.42-71.51-26.73-159.72-26.73Z"/>
      </g>
    </g>
  </g>
</svg>