<?xml version="1.0" encoding="UTF-8"?>
<svg id="Layer_1" xmlns="http://www.w3.org/2000/svg" version="1.1" viewBox="0 0 254.31 315.9">
  <!-- Generator: Adobe Illustrator 29.6.1, SVG Export Plug-In . SVG Version: 2.1.1 Build 9)  -->
  <defs>
    <style>
      .st0 {
        fill: #f15a29;
      }

      .st1 {
        fill: #ffd7c3;
      }

      .st2 {
        fill: #8b5e3c;
      }

      .st3 {
        fill: #58595b;
      }

      .st4, .st5, .st6 {
        fill-rule: evenodd;
      }

      .st4, .st7 {
        fill: #fff;
      }

      .st8 {
        fill: #ffce00;
      }

      .st9 {
        fill: #d1d3d4;
      }

      .st10, .st5 {
        fill: #000002;
      }

      .st11 {
        fill: #b2e296;
      }

      .st12 {
        fill: #db3a0f;
      }

      .st13 {
        fill: #603913;
      }

      .st14 {
        fill: #3c2415;
      }

      .st15 {
        fill: #f6d88f;
      }

      .st16 {
        fill: #ffb000;
      }

      .st17 {
        fill: #690600;
      }

      .st18 {
        fill: #f38b9e;
      }

      .st19 {
        fill: #6f2a0e;
      }

      .st20 {
        fill: #68bd46;
      }

      .st21 {
        fill: #fff5de;
      }

      .st22, .st6 {
        fill: #fdc361;
      }

      .st23 {
        fill: #f7941e;
      }

      .st24 {
        fill: #380100;
      }

      .st25 {
        fill: #fde5d2;
      }

      .st26 {
        fill: #ddb966;
      }

      .st27 {
        fill: #509f32;
      }

      .st28 {
        fill: #82442f;
      }

      .st29 {
        fill: #cbf7b5;
      }

      .st30 {
        fill: #808285;
      }

      .st31 {
        fill: #ffc0a4;
      }

      .st32 {
        fill: #939598;
      }

      .st33 {
        fill: #e6e7e8;
      }

      .st34 {
        fill: #a50400;
      }

      .st35 {
        fill: #ffe3c5;
      }
    </style>
  </defs>
  <g>
    <g>
      <g>
        <path class="st1" d="M75.6,238.03s-27.84,33.07-15.76,40.19c12.08,7.13,28.99-23.77,28.99-23.77l-13.23-16.42Z"/>
        <path d="M73.09,235.52c-3.35,3.99-6.46,8.21-9.39,12.53-4.57,6.76-9.25,14.33-10.33,22.56-.44,3.38.41,7.15,3.05,9.48,3.2,2.82,7.69,3.41,11.65,1.98,4.13-1.49,7.6-4.41,10.62-7.54,3.08-3.18,5.79-6.76,8.3-10.41,1.75-2.54,3.43-5.17,4.92-7.87.84-1.53.48-3.02-.55-4.31-4.41-5.47-8.82-10.95-13.23-16.42-1.22-1.51-3.76-1.26-5.03,0-1.48,1.48-1.21,3.52,0,5.02,4.41,5.48,8.82,10.95,13.23,16.43-.18-1.44-.37-2.88-.55-4.31-.84,1.54-1.77,3.04-2.7,4.51-.97,1.54-1.98,3.04-3.02,4.52-.57.81-1.16,1.6-1.75,2.39-.16.2-.31.4-.47.61.57-.75.03-.04-.08.09-.38.47-.76.95-1.14,1.41-1.38,1.67-2.83,3.27-4.4,4.76-.72.69-1.47,1.34-2.25,1.96-.65.54.63-.47-.04.03-.18.14-.38.28-.57.42-.43.31-.89.61-1.34.88-.38.24-.77.45-1.16.64-.19.1-.39.19-.57.28-.7.33.79-.31.08-.03-.38.14-.76.27-1.15.38-.33.1-1.87.32-.58.17-.38.05-.76.05-1.14.05-.19,0-.37-.02-.56-.04,1.14.1.48.06.2.01-.37-.07-.74-.19-1.09-.32-.69-.24.79.36.13.04-.23-.1-.46-.24-.68-.38-.93-.56.43.42-.17-.12-.23-.2-.43-.43-.63-.66.81.99.15.15-.02-.15-.5-.93.23.75-.1-.27-.1-.3-.16-.61-.22-.92-.12-.64.12.97.04.3-.02-.17-.02-.33-.03-.5-.02-.35-.01-.69,0-1.04.01-.33.21-1.82.02-.53.25-1.72.77-3.4,1.38-5.03.16-.43.33-.86.5-1.29-.42,1.02.19-.43.3-.67.44-.97.91-1.92,1.4-2.86,1.92-3.71,4.17-7.26,6.54-10.7,1.06-1.54,2.14-3.05,3.26-4.54.46-.62.92-1.23,1.39-1.85.1-.14.21-.28.32-.42.41-.53-.55.71-.14.18.22-.28.44-.56.66-.85.69-.88,1.39-1.76,2.11-2.62,1.24-1.48,1.46-3.57,0-5.02-1.28-1.28-3.78-1.48-5.03,0Z"/>
      </g>
      <g>
        <rect class="st10" x="66.15" y="252.02" width="6.91" height="19.73" transform="translate(-188.14 178.22) rotate(-57.13)"/>
        <path d="M76.25,271.26l-17.93-11.58,4.62-7.16,17.93,11.58-4.63,7.16ZM60.55,259.2l15.22,9.84,2.88-4.46-15.23-9.83-2.87,4.45Z"/>
      </g>
      <path class="st8" d="M67.08,255.96l8.16,5.33,3.6-13.58-3.22-4.04s-3.75,4.65-5.52,7.44c-1.77,2.78-3.03,4.85-3.03,4.85Z"/>
    </g>
    <g>
      <g>
        <rect class="st8" x="64.67" y="254.61" width="7.75" height="17.58" transform="translate(-192.99 188.07) rotate(-59.35)"/>
        <path d="M75.44,268.98c-5.04-2.98-10.08-5.97-15.12-8.96.31,1.18.62,2.36.94,3.54,1.31-2.22,2.63-4.45,3.95-6.67-1.18.31-2.36.62-3.53.93,5.03,2.98,10.07,5.97,15.11,8.96-.31-1.18-.62-2.36-.93-3.54-1.32,2.22-2.63,4.45-3.95,6.67-1.71,2.87,2.76,5.47,4.46,2.6,1.32-2.22,2.64-4.45,3.96-6.67.72-1.22.28-2.82-.93-3.54-5.04-2.98-10.08-5.97-15.12-8.96-1.22-.72-2.82-.28-3.54.92-1.31,2.23-2.63,4.45-3.95,6.67-.72,1.22-.27,2.82.93,3.54,5.04,2.99,10.07,5.98,15.12,8.97,2.87,1.7,5.47-2.77,2.61-4.47Z"/>
      </g>
      <polygon class="st35" points="72.96 267.45 62.58 261.34 62.97 260.67 73.35 266.78 72.96 267.45"/>
    </g>
    <path class="st35" d="M75.63,243.65s-3.2,3.8-4.65,5.98c-1.44,2.18-3.57,5.51-3.57,5.51l8.31,4.98-5.81-5.35s.86-1.53,2.54-4.34c1.68-2.8,3.92-5.77,3.92-5.77l-.74-1.02Z"/>
    <g>
      <g>
        <path class="st10" d="M180.68,311.21c0,1.92-29.2,3.48-65.23,3.48s-65.23-1.56-65.23-3.48,29.21-3.49,65.23-3.49,65.23,1.56,65.23,3.49Z"/>
        <path d="M115.46,315.9c-17.45,0-33.85-.36-46.19-1.02-20.25-1.08-20.25-2.28-20.25-3.67s0-2.59,20.25-3.68c12.34-.66,28.75-1.02,46.19-1.02s33.85.36,46.19,1.02c20.25,1.09,20.25,2.34,20.25,3.68s0,2.59-20.25,3.67c-12.34.66-28.74,1.02-46.19,1.02ZM54.3,311.21c7.87,1.11,29.36,2.28,61.16,2.28s53.28-1.16,61.15-2.28c-7.87-1.11-29.35-2.28-61.15-2.28s-53.29,1.17-61.16,2.28Z"/>
      </g>
      <g>
        <path class="st0" d="M83.03,236.36s-12.34,68.35-3.95,71.28c8.39,2.93,16.18-10.45,16.18-10.45,0,0,6.69,2.05,18.23,2.25,11.54.21,20.83-2.39,20.83-2.39,0,0,8.6,14.89,17.88,11.82,9.29-3.08-5.46-72.69-5.46-72.69l-63.72.17Z"/>
        <path d="M79.61,235.42c-2.08,11.51-3.79,23.1-5.16,34.71-.96,8.06-1.79,16.2-1.84,24.33-.02,3.17.12,6.37.66,9.51.44,2.52,1.39,4.89,3.49,6.46,1.9,1.43,4.82,1.3,7.03.96,2.86-.43,5.44-2.22,7.6-4.02,2.74-2.28,5.14-5.3,6.94-8.37-1.34.54-2.68,1.09-4.02,1.63,1.61.49,3.27.79,4.92,1.07,4.7.81,9.47,1.21,14.25,1.31,7.21.14,14.8-.58,21.78-2.52-1.34-.54-2.67-1.09-4.02-1.63,1.55,2.67,3.52,5.15,5.63,7.38,3.47,3.66,8.4,7.08,13.7,6.55,1.88-.19,3.76-.64,5.11-2.05.96-1,1.51-2.18,1.96-3.46.92-2.54,1.06-5.44,1.15-8.12.25-7.67-.66-15.4-1.64-23-1.09-8.48-2.45-16.93-3.97-25.34-.94-5.2-1.92-10.4-3.02-15.57-.33-1.53-1.92-2.62-3.42-2.61-11.92.03-23.82.06-35.72.09-9.33.02-18.67.05-28,.07-4.58.01-4.58,7.12,0,7.11,11.91-.04,23.81-.07,35.72-.1,9.33-.03,18.66-.05,28-.08-1.15-.87-2.29-1.74-3.43-2.61,2.35,11.1,4.32,22.29,5.97,33.51.16,1.03.3,2.06.44,3.1.04.27.25,1.91.12.86.08.61.16,1.2.24,1.81.27,2.11.51,4.22.74,6.34.41,3.87.73,7.76.85,11.65.05,1.64.06,3.29,0,4.94-.02.7-.06,1.4-.11,2.09-.03.32-.06.63-.09.96-.02.15-.04.31-.06.46-.07.61.16-1.06.02-.2-.16,1.03-.38,2.07-.76,3.04-.09.24.48-.99.07-.2-.08.16-.18.32-.28.47-.36.55.71-.82.2-.26-.53.58.17-.11.25-.16-.3.2-.95.4.4-.13-.2.08-.4.13-.61.18-.18.06-.36.09-.54.12.5-.05.54-.06.13-.02-.53.06-1.07.03-1.6-.02.96.09.09,0-.11-.05-.35-.08-.69-.18-1.03-.29-.16-.05-.99-.4-.16-.04-.25-.11-.5-.24-.74-.36-.58-.29-1.13-.64-1.67-1-.23-.16-.46-.32-.68-.49.69.51-.07-.06-.17-.14-.5-.42-.99-.87-1.46-1.32-.84-.8-1.62-1.67-2.36-2.56-.17-.21-1.16-1.46-.5-.61-.31-.39-.6-.8-.89-1.2-.54-.76-1.07-1.54-1.55-2.36-.79-1.37-2.48-2.06-4.01-1.63-1.94.54-3.94.91-5.92,1.24-2.2.38-3.53.53-5.95.74-2.66.24-5.33.32-8.01.28-2.54-.03-5.09-.18-7.62-.43-.51-.05-1-.1-1.52-.16-.13-.02-1.54-.2-.8-.09-.9-.12-1.8-.27-2.7-.42-1.56-.27-3.13-.57-4.65-1.03-1.52-.46-3.23.29-4.02,1.63-.48.83-1.02,1.61-1.58,2.37-.13.17-.25.34-.38.51-.48.63.51-.65-.01,0-.3.39-.63.78-.95,1.15-.77.89-1.6,1.73-2.48,2.52-.21.19-.42.37-.64.55-.73.6.59-.43-.17.13-.44.33-.92.63-1.4.91-.24.14-.49.27-.73.39-.15.07-.99.41-.15.08-.58.23-1.19.39-1.8.5.94-.17.09-.03-.12-.02-.27.01-.54,0-.8-.02-.92-.05.77.15-.14-.04-.28-.06-.55-.15-.82-.24-.23-.08,1.05.55.43.15.06.04.81.74.28.17-.42-.46.64.92.21.27-.1-.15-.19-.31-.27-.47-.39-.76.34.88.07.21-.09-.24-.17-.49-.24-.74-.14-.49-.25-.98-.35-1.48-.05-.28-.1-.55-.14-.84-.04-.27-.12-.89.05.36-.02-.21-.05-.41-.08-.62-.36-3.17-.33-6.38-.24-9.57.24-8.32,1.16-16.64,2.2-24.9.13-1.02.26-2.04.4-3.06.04-.25.06-.5.1-.76.12-.88-.11.82,0-.06.08-.58.16-1.16.24-1.74.27-1.98.56-3.97.86-5.95.49-3.37,1.02-6.72,1.56-10.07.43-2.62.86-5.22,1.33-7.83.34-1.91-.49-3.83-2.48-4.38-1.74-.48-4.02.58-4.37,2.48Z"/>
      </g>
    </g>
    <g>
      <g>
        <path class="st1" d="M153.77,238.03s27.84,33.07,15.76,40.19c-12.08,7.13-28.99-23.77-28.99-23.77l13.22-16.42Z"/>
        <path d="M151.26,240.54c.95,1.13,1.86,2.3,2.78,3.47.4.53-.56-.71-.14-.18.1.14.21.28.32.42.22.3.45.59.68.89.53.7,1.06,1.42,1.59,2.14,1.14,1.56,2.25,3.15,3.33,4.76,2.33,3.48,4.52,7.07,6.36,10.84.22.44.42.88.62,1.32.12.24.73,1.69.31.67.38.91.72,1.82,1.02,2.75.26.8.47,1.61.66,2.42.08.38.15.77.21,1.15-.2-1.29,0,.2.02.53.02.35.02.69,0,1.04,0,.17-.02.33-.03.5-.06.66.14-.95.03-.3-.05.32-.12.62-.21.92-.3,1.03.38-.67-.1.27-.15.29-.82,1.18-.02.15-.19.24-.4.46-.63.66-.6.56.74-.46-.17.12-.16.1-.33.2-.5.29-.85.46.52-.18-.05.04-.36.14-.72.23-1.1.32-.26.05-.96.12.2-.01-.18.01-.38.02-.56.04-.38.02-.76-.01-1.13-.05,1.28.13-.24-.07-.58-.17-.39-.1-.77-.24-1.15-.38-.72-.27.78.35.08.03-.19-.09-.38-.18-.57-.28-.87-.43-1.7-.96-2.49-1.52-.2-.14-.39-.28-.58-.42-.67-.5.62.49-.04-.03-.39-.3-.76-.62-1.13-.95-.83-.73-1.62-1.5-2.39-2.28-1.51-1.55-2.92-3.21-4.27-4.91-.1-.13-.65-.84-.08-.09-.16-.2-.31-.4-.46-.61-.31-.4-.6-.8-.9-1.2-.61-.84-1.2-1.69-1.78-2.54-.96-1.39-1.87-2.81-2.76-4.25-.7-1.13-1.39-2.27-2.03-3.44-.18,1.44-.37,2.88-.55,4.31,4.41-5.48,8.82-10.95,13.23-16.43,1.21-1.5,1.48-3.55,0-5.02-1.26-1.26-3.8-1.51-5.02,0-4.41,5.47-8.82,10.95-13.23,16.42-1.04,1.29-1.39,2.79-.55,4.31,2.82,5.14,6.24,10.03,9.94,14.58,4.89,5.99,12.67,13.95,21.26,11.61,3.65-1,6.6-3.98,7.22-7.75.61-3.79-.31-7.55-1.69-11.06-3.01-7.69-7.68-14.68-12.59-21.27-1.71-2.32-3.47-4.62-5.33-6.83-1.25-1.48-3.75-1.28-5.02,0-1.46,1.45-1.25,3.54,0,5.02Z"/>
      </g>
      <g>
        <rect class="st10" x="149.9" y="258.43" width="19.73" height="6.91" transform="translate(-116.56 128.63) rotate(-32.87)"/>
        <path d="M153.12,271.26l-4.63-7.16,17.93-11.58,4.63,7.16-17.93,11.58ZM150.72,264.58l2.88,4.46,15.22-9.84-2.88-4.45-15.22,9.83Z"/>
      </g>
      <path class="st8" d="M162.29,255.96l-8.16,5.33-3.6-13.58,3.22-4.04s3.74,4.65,5.51,7.44c1.78,2.78,3.03,4.85,3.03,4.85Z"/>
    </g>
    <g>
      <g>
        <polygon class="st25" points="142.18 244.31 115.78 244.31 115.56 244.31 89.16 244.31 77.71 281.93 115.56 281.93 115.78 281.93 153.62 281.93 142.18 244.31"/>
        <path d="M142.18,237.2h-53.02c-3.23,0-5.93,2.18-6.86,5.22-3.64,11.99-7.29,23.98-10.93,35.97-.17.55-.34,1.1-.5,1.66-1.35,4.45,2.32,8.99,6.85,8.99h75.91c4.53,0,8.21-4.55,6.86-8.99-3.64-11.99-7.29-23.98-10.93-35.97-.17-.55-.34-1.1-.51-1.66-1.13-3.7-4.93-6.01-8.75-4.96-3.65,1-6.09,5.03-4.96,8.74,3.65,11.99,7.3,23.98,10.94,35.96.17.55.33,1.11.5,1.66,2.29-3,4.57-6,6.85-9h-75.91c2.29,3,4.57,6,6.86,9,3.65-11.99,7.29-23.98,10.93-35.97.17-.55.34-1.1.51-1.66-2.29,1.74-4.57,3.48-6.85,5.22h53.02c3.87,0,7.11-3.24,7.11-7.11s-3.23-7.11-7.11-7.11Z"/>
      </g>
      <polygon class="st8" points="142.18 244.31 115.78 244.31 115.56 244.31 89.16 244.31 77.71 281.93 115.56 281.93 115.78 281.93 153.62 281.93 142.18 244.31"/>
    </g>
    <g>
      <path class="st1" d="M133.17,235.99c0,9.8-7.94,17.74-17.74,17.74s-17.74-7.94-17.74-17.74,7.94-17.74,17.74-17.74,17.74,7.94,17.74,17.74Z"/>
      <path d="M129.95,235.99c-.05,5.18-2.74,9.86-7.18,12.53-4.49,2.68-10.16,2.57-14.65,0-4.48-2.57-7.14-7.42-7.19-12.53-.05-5.16,2.8-9.9,7.19-12.53,4.48-2.68,10.15-2.57,14.65,0,4.47,2.56,7.13,7.42,7.18,12.53.05,4.17,6.51,4.17,6.47,0-.07-6.26-2.85-12.35-7.79-16.27-5.17-4.12-11.82-5.58-18.27-4.08-5.97,1.39-11.2,5.76-13.82,11.27-2.85,6-2.66,12.86.3,18.77,4.31,8.63,14.46,12.81,23.67,10.66,9.31-2.17,15.81-10.95,15.9-20.36.04-4.17-6.42-4.16-6.47,0Z"/>
    </g>
    <g>
      <g>
        <path class="st25" d="M141,270.05c-2.16-8.79.51-23.43.51-23.43l-5.77.6s-.72,19.8-20.01,19.8h-.3c-19.29,0-20-19.8-20-19.8l-5.78-.6s2.68,14.65.52,23.43c-2.16,8.79-11.27,11.88-11.27,11.88h73.36s-9.11-3.1-11.27-11.88Z"/>
        <path d="M147.23,268.33c-.12-.52-.23-1.04-.33-1.56-.31-1.75.16,1.51-.04-.29-.14-1.29-.2-2.59-.24-3.88-.05-2.47.08-4.93.27-7.39.08-1.04.18-2.07.31-3.1.05-.46.1-.91.16-1.37.06-.52.22-1.64-.1.74.02-.22.06-.44.09-.66.12-.84.24-1.66.39-2.48.32-1.77.29-3.38-.65-4.98-1.05-1.81-3.38-3.43-5.58-3.2-1.92.2-3.85.4-5.77.59-3.62.38-6.32,2.66-6.47,6.47-.01.43-.06.85-.12,1.28.29-2.36.19-1.25,0-.21-.12.65-.27,1.29-.43,1.92-.17.68-.39,1.36-.62,2.02-.12.37-.25.72-.4,1.07-.35.89.73-1.71.35-.81-.11.24-.23.49-.35.73-.35.76-.77,1.5-1.22,2.21-.24.37-.49.73-.75,1.09-.59.82,1.11-1.4.47-.61-.19.24-.39.47-.59.69-.63.71-1.32,1.34-2.05,1.93,1.91-1.55.42-.34-.09,0-.5.33-1.03.61-1.56.89-.24.12-.49.23-.73.34,2-.9,1-.42.53-.24-.53.2-1.07.37-1.62.52-.58.16-1.17.28-1.77.4-.47.09-1.7.24.46-.05-.43.06-.87.09-1.32.13-1.03.07-2.08.06-3.1.04-.68-.02-1.34-.09-2.01-.16,2.42.28-.12-.06-.73-.2-.57-.14-1.12-.3-1.67-.48-.27-.09-.53-.18-.79-.28-1.07-.41,1.57.69.54.23-1.01-.46-1.96-1.03-2.86-1.68-.87-.63,1.36,1.08.54.42-.25-.2-.48-.42-.72-.63-.4-.36-.78-.75-1.14-1.15-.15-.17-.3-.34-.44-.51-.91-1.07.91,1.22.32.43-.31-.41-.59-.84-.86-1.27-.52-.82-.97-1.69-1.38-2.57-.21-.48-.57-1.38.35.81-.1-.24-.19-.48-.28-.72-.17-.47-.34-.94-.48-1.4-.42-1.33-.72-2.68-.92-4.05-.16-1.03.28,2.21.13.92-.02-.18-.03-.35-.06-.53-.01-.16-.02-.32-.03-.48-.14-3.8-2.85-6.09-6.46-6.47-1.93-.2-3.85-.4-5.78-.59-1.61-.17-3.46.79-4.57,1.89-1.74,1.74-2.08,3.96-1.66,6.29.12.63.21,1.26.31,1.88.03.27.08.54.12.81.21,1.46-.24-1.85-.05-.29.13.95.23,1.91.33,2.86.45,4.49.65,9.06.1,13.55.27-2.23.06-.57-.03-.07-.1.54-.22,1.07-.36,1.6-.15.57-.35,1.13-.56,1.67.79-2.03.03-.2-.23.27-.27.47-.56.92-.87,1.36-.39.53-.24.34.45-.57-.19.24-.39.47-.6.7-.62.71-1.33,1.36-2.06,1.96-.83.68,1.48-1.09.27-.21-.33.24-.66.46-1,.67-.57.38-1.17.71-1.78,1.02-.94.48-1.85.81.18-.02-.16.06-.31.13-.47.18-2.74.94-4.74,3.22-4.74,6.23,0,3.52,2.94,6.46,6.46,6.46h73.36c2.88,0,5.47-1.97,6.23-4.74.98-3.55-1.18-6.8-4.51-7.95-.1-.03-.2-.07-.29-.11-.53-.21-1.3-.56,1.08.46-.21-.09-.42-.19-.63-.29-1.14-.54-2.22-1.19-3.23-1.91-1.23-.87,1.1.89.26.21-.28-.23-.55-.47-.83-.72-.66-.6-1.25-1.25-1.82-1.94,1.37,1.67.38.47.09.05-.31-.45-.57-.93-.83-1.41-.8-1.52.38,1.06-.03-.01-.22-.55-.39-1.13-.53-1.7-.88-3.41-4.59-5.43-7.95-4.51-3.43.95-5.39,4.54-4.51,7.95,1.99,7.69,8.35,13.84,15.79,16.39.57-4.23,1.14-8.46,1.71-12.7h-73.36c.58,4.24,1.14,8.47,1.72,12.7,7.98-2.74,14.59-9.56,16.11-17.96,1.49-8.29.65-17.07-.84-25.3-2.08,2.72-4.16,5.45-6.23,8.18,1.93.2,3.85.4,5.78.6-2.15-2.15-4.31-4.31-6.47-6.46.25,6.35,2.69,12.51,6.58,17.47,3.18,4.05,7.96,6.85,12.95,8.01,5.57,1.29,12.12,1.18,17.43-1.04,3.47-1.45,6.64-3.4,9.13-6.28,2.33-2.68,3.88-5.55,5.18-8.84,1.15-2.9,1.84-6.21,1.96-9.33-2.16,2.15-4.31,4.31-6.46,6.46,1.92-.2,3.84-.4,5.77-.6-2.08-2.73-4.16-5.46-6.23-8.18-1.56,8.66-2.57,18.22-.51,26.87.82,3.42,4.65,5.42,7.95,4.51,3.48-.96,5.33-4.52,4.51-7.95Z"/>
      </g>
      <path class="st0" d="M141,270.05c-2.16-8.79.51-23.43.51-23.43l-5.77.6s-.72,19.8-20.01,19.8h-.3c-19.29,0-20-19.8-20-19.8l-5.78-.6s2.68,14.65.52,23.43c-2.16,8.79-11.27,11.88-11.27,11.88h73.36s-9.11-3.1-11.27-11.88Z"/>
      <path class="st12" d="M115.45,268.95c.05,0,.1,0,.16,0h.02c.05,0,.1,0,.16,0,20.42,0,22.25-19.83,22.39-21.99l-2.4.25s-.71,19.8-20,19.8h-.31c-19.29,0-20-19.8-20-19.8l-2.4-.25c.14,2.16,1.97,21.99,22.39,21.99Z"/>
    </g>
    <path class="st0" d="M79.87,289.09l-.96-7.16s22.66-1.97,37.56-1.97,37.12,1.97,37.12,1.97l-2.17,7.38s-9.54,3.44-35.98,3.44-35.57-3.67-35.57-3.67Z"/>
    <g>
      <g>
        <polygon class="st8" points="155.24 271.21 170.35 262.25 166.4 255.58 151.28 264.55 155.24 271.21"/>
        <path d="M156.54,273.45c5.04-2.99,10.08-5.98,15.12-8.97,1.21-.71,1.65-2.32.92-3.54-1.32-2.22-2.63-4.44-3.95-6.67-.71-1.2-2.32-1.65-3.54-.92-5.04,2.98-10.07,5.97-15.12,8.96-1.2.72-1.65,2.31-.92,3.54,1.32,2.22,2.63,4.45,3.95,6.67,1.69,2.86,6.17.27,4.46-2.6-1.32-2.23-2.64-4.45-3.96-6.67-.31,1.18-.62,2.36-.93,3.54,5.04-2.99,10.08-5.98,15.12-8.96-1.18-.31-2.36-.62-3.54-.93,1.32,2.22,2.64,4.45,3.95,6.67.31-1.18.62-2.36.93-3.54-5.04,2.99-10.08,5.97-15.11,8.96-2.87,1.7-.27,6.17,2.6,4.47Z"/>
      </g>
      <polygon class="st35" points="156.41 267.45 166.79 261.34 166.4 260.67 156.02 266.78 156.41 267.45"/>
    </g>
    <path class="st35" d="M153.87,243.48s3.07,3.98,4.51,6.15c1.44,2.18,3.57,5.51,3.57,5.51l-7.76,4.7,5.26-5.06s-.86-1.53-2.54-4.34c-1.68-2.8-3.92-5.77-3.92-5.77l.87-1.19Z"/>
    <path class="st23" d="M91.78,246.84l-2.12-.22s2.68,14.65.52,23.43c-2.16,8.79-11.27,11.88-11.27,11.88l.96,7.16-.14,7.75s-.47,7.75,1.59,7.94c2.07.19,6.12-3.42,6.12-3.42,0,0-4.47,1.56-5.38,1.37-.9-.2-.87-5.89-.87-5.89l.31-7.49-.47-6.58,2.32-1.19c2.94-1.63,7.46-5.03,8.92-10.95,2.05-8.37-.16-21.92-.49-23.79Z"/>
    <path class="st12" d="M139.32,246.84l2.11-.22s-2.67,14.65-.52,23.43c2.16,8.79,12.73,11.93,12.73,11.93l-2.19,7.54.35,8.14s.28,8.14-1.79,8.34c-2.07.2-6.59-3.29-6.59-3.29,0,0,5.03,1.51,5.93,1.31.91-.19.57-7.18.57-7.18l-.31-7.49,1.7-6.05-3.56-1.72c-2.93-1.63-7.46-5.03-8.91-10.95-2.06-8.37.16-21.92.49-23.79Z"/>
    <path class="st23" d="M140.53,274.78h-50.02v-3.62h48.48s.31,1.08.63,1.84c.32.76.92,1.78.92,1.78Z"/>
    <path class="st23" d="M146.28,280.68c-1.57-1.01-2.56-1.98-2.56-1.98h-57.69l-4.18,3.62h67.39s-1.38-.63-2.96-1.64Z"/>
    <g>
      <g>
        <g>
          <g>
            <path class="st25" d="M10.79,90.5s-1.57,39.06-.42,62.99c1.15,23.92,16.3,32.18,16.3,32.18v-70.21l-15.88-24.96Z"/>
            <path d="M1.74,90.5c-.72,17.94-1.08,35.94-.72,53.9.13,6.66.32,13.33,1.69,19.88,1.17,5.64,3.41,11.24,6.51,16.11,2.18,3.44,4.83,6.73,7.93,9.39,1.54,1.32,3.17,2.71,4.96,3.7,5.98,3.27,13.62-.81,13.62-7.81v-70.13c0-3.04-1.46-4.98-2.95-7.32-1.85-2.9-3.7-5.81-5.54-8.71-2.88-4.53-5.76-9.05-8.63-13.57-2.64-4.16-8.01-5.81-12.38-3.24-4.13,2.42-5.89,8.21-3.24,12.38,5.29,8.32,10.59,16.64,15.89,24.96-.42-1.52-.83-3.04-1.24-4.56v70.21c4.53-2.6,9.08-5.21,13.61-7.81-.72-.4-1.4-.9-2.05-1.41.62.48,1.22.95,1.83,1.41-2.15-1.67-4.05-3.64-5.73-5.8.47.61.94,1.22,1.41,1.83-2-2.6-3.62-5.44-4.91-8.46.3.73.61,1.44.91,2.17-1.61-3.82-2.63-7.83-3.19-11.94.1.8.21,1.6.32,2.4-.76-5.93-.7-12.01-.78-17.98-.09-6.15-.06-12.31.02-18.46.1-9.37.33-18.74.66-28.11.03-1.01.08-2.02.12-3.03.2-4.93-4.27-9.05-9.05-9.05-5.09,0-8.85,4.12-9.05,9.05Z"/>
          </g>
          <path class="st19" d="M10.79,87.01s-1.57,42.55-.42,66.48c1.15,23.92,16.3,32.18,16.3,32.18v-70.21l-15.88-28.45Z"/>
          <path class="st28" d="M13.73,153.49c-.89-18.58-.14-48.41.24-60.8l-3.17-5.68s-1.57,42.55-.42,66.48c1.15,23.92,16.3,32.18,16.3,32.18v-2.48c-4.54-3.96-12.13-13.02-12.94-29.7Z"/>
        </g>
        <g>
          <g>
            <path class="st25" d="M218.89,90.5s1.56,39.06.42,62.99c-1.15,23.92-16.3,32.18-16.3,32.18v-70.21l15.88-24.96Z"/>
            <path d="M209.85,90.5c.72,17.94,1.09,35.94.72,53.9-.09,4.55-.13,9.15-.71,13.67.1-.8.21-1.61.32-2.4-.56,4.1-1.58,8.12-3.19,11.94.31-.72.61-1.44.91-2.17-1.29,3.01-2.91,5.86-4.91,8.46.47-.61.94-1.22,1.41-1.83-1.67,2.16-3.58,4.13-5.73,5.8.61-.47,1.22-.94,1.82-1.41-.65.51-1.33,1.01-2.05,1.41,4.54,2.6,9.07,5.21,13.61,7.81v-70.21c-.42,1.52-.83,3.04-1.23,4.56,5.29-8.32,10.59-16.64,15.88-24.96,2.65-4.16.88-9.96-3.25-12.38-4.37-2.56-9.73-.91-12.37,3.24-3.29,5.16-6.58,10.33-9.87,15.5-1.77,2.78-3.54,5.56-5.31,8.34-1.11,1.75-1.95,3.43-1.95,5.69v70.21c0,7,7.64,11.08,13.61,7.81,1.84-1.01,3.5-2.44,5.08-3.79,3.19-2.74,5.87-6.19,8.09-9.74,3.17-5.06,5.33-10.92,6.45-16.77,1.27-6.66,1.37-13.45,1.49-20.2.32-17.49-.05-35.01-.75-52.47-.2-4.92-3.97-9.05-9.05-9.05-4.79,0-9.25,4.11-9.05,9.05Z"/>
          </g>
          <path class="st19" d="M218.89,87.01s1.56,42.55.42,66.48c-1.15,23.92-16.3,32.18-16.3,32.18v-70.21l15.88-28.45Z"/>
          <path class="st28" d="M218.89,87.01l-3.75,6.71c.38,12.94,1.07,41.67.2,59.77-.77,15.95-7.76,24.94-12.33,29.16v3.02s15.15-8.26,16.3-32.18c1.14-23.93-.42-66.48-.42-66.48Z"/>
        </g>
      </g>
      <g>
        <g>
          <path class="st25" d="M28.01,83.37c-.31,12.43,0,85.92,0,85.92,0,33.39,18.71,64.35,88.45,64.06,69.01-.29,85.35-30.67,85.35-64.06v-85.92H28.01Z"/>
          <path d="M18.96,83.37c-.36,14.6-.14,29.23-.12,43.83.02,13.75.06,27.5.12,41.25.06,14.32,2.92,28.93,11.17,40.91,5.36,7.77,12.3,14.13,20.41,18.95,9.33,5.55,19.95,8.99,30.56,11.04,14.28,2.77,28.96,3.46,43.46,2.87,12.94-.51,26.11-2.12,38.46-6.11,9.93-3.21,19.14-7.96,27.06-14.79,6.1-5.25,11.11-12.07,14.34-19.44,3.56-8.1,5.42-16.4,6.13-25.22.31-3.86.28-7.73.28-11.6v-81.69c0-4.93-4.12-9.05-9.05-9.05H28.01c-4.92,0-9.05,4.12-9.05,9.05s4.12,9.04,9.05,9.04h173.8c-3.01-3.02-6.03-6.03-9.05-9.04v77.12c0,6.79.16,13.6-.73,20.34.11-.8.21-1.61.32-2.41-.74,5.45-2.07,10.81-4.19,15.88.3-.72.61-1.44.91-2.16-1.67,3.95-3.82,7.67-6.44,11.07.47-.61.95-1.22,1.41-1.83-2.6,3.36-5.63,6.35-8.99,8.95.62-.47,1.22-.94,1.83-1.41-4.32,3.34-9.1,6-14.12,8.13.72-.31,1.44-.61,2.16-.91-8.57,3.61-17.69,5.69-26.9,6.94.81-.11,1.61-.22,2.41-.32-16.25,2.17-33.06,2.19-49.31.04.81.11,1.61.22,2.41.33-9.36-1.26-18.65-3.39-27.38-7.04.72.3,1.44.6,2.16.91-5.25-2.22-10.26-5-14.78-8.48.6.47,1.21.94,1.83,1.41-3.53-2.73-6.72-5.87-9.46-9.39.47.61.94,1.22,1.41,1.83-2.69-3.49-4.91-7.31-6.64-11.36.31.72.61,1.44.91,2.16-2.12-5.02-3.46-10.32-4.2-15.71.12.8.22,1.6.33,2.4-.61-4.52-.67-9.06-.7-13.62-.02-6.28-.05-12.56-.07-18.84-.05-17.53-.1-35.05-.03-52.58.02-3.83.02-7.65.12-11.47.12-4.93-4.21-9.05-9.05-9.05s-8.92,4.12-9.05,9.05Z"/>
        </g>
        <path class="st1" d="M28.01,83.37c-.31,12.43,0,85.92,0,85.92,0,33.39,18.71,64.35,88.45,64.06,69.01-.29,85.35-30.67,85.35-64.06v-85.92H28.01Z"/>
      </g>
      <g>
        <g>
          <g>
            <path class="st25" d="M66.21,22.92l.17-.47S25.46,39.62,14.61,75.11c-10.85,35.49-2.49,60.57-2.49,60.57l19.44-13.56s-7.2-68.72,34.65-99.21Z"/>
            <path d="M74.94,25.32c.05-.16.11-.32.16-.48,1.05-2.99-.16-6.64-2.32-8.8-2.06-2.05-5.93-3.53-8.8-2.33-12.84,5.41-24.73,13.45-34.86,22.97-8.36,7.86-15.67,17.35-20.16,27.95C2.99,78.67.28,94.31.01,109.51c-.12,7.16.51,14.32,1.73,21.38.42,2.4.89,4.87,1.66,7.2.76,2.28,2.05,4.17,4.16,5.41,2.62,1.53,6.55,1.81,9.13,0,6.48-4.52,12.96-9.04,19.44-13.56,2.45-1.71,4.82-4.55,4.48-7.81-1.01-9.71-.56-19.73.46-29.41.16-1.46.33-2.92.53-4.37-.11.8-.21,1.6-.32,2.4,1.5-11.14,4.17-22.17,8.55-32.55-.31.72-.61,1.44-.92,2.16,2.87-6.74,6.46-13.15,10.92-18.96-.47.61-.95,1.22-1.41,1.83,3.67-4.75,7.88-9.03,12.61-12.72-.61.47-1.22.95-1.83,1.42.53-.41,1.06-.8,1.59-1.2,1.98-1.45,3.49-2.96,4.16-5.41.64-2.33.31-4.88-.92-6.97-1.18-2.03-3.14-3.54-5.4-4.16-2.14-.59-5.11-.45-6.97.91-9.71,7.11-17.67,16.03-23.63,26.5-5.28,9.27-9.02,19.51-11.52,29.87-3.61,15.02-5.01,30.83-4.27,46.26.07,1.46.15,2.93.31,4.38,1.49-2.6,2.98-5.21,4.48-7.81-6.48,4.52-12.96,9.04-19.44,13.56,4.43,1.81,8.86,3.61,13.29,5.41-1.12-3.38-1.7-7-2.17-10.52.1.8.22,1.6.32,2.4-1.32-9.88-1.14-19.92.18-29.79-.11.8-.21,1.6-.32,2.4,1.22-8.86,3.16-17.89,6.62-26.17-.31.71-.61,1.44-.91,2.15,2.41-5.67,5.6-10.95,9.36-15.83-.47.61-.94,1.22-1.41,1.83,5.03-6.46,10.97-12.15,17.45-17.14-.61.47-1.22.94-1.83,1.41,6.98-5.36,14.67-10.34,22.8-13.78-.72.31-1.44.61-2.16.91,0,0,0,0,0,0-3.71-3.71-7.42-7.42-11.13-11.13-.05.16-.1.31-.16.48-1.63,4.66,1.81,9.89,6.31,11.13,4.99,1.37,9.5-1.67,11.13-6.32Z"/>
          </g>
          <path class="st0" d="M66.21,22.92l.17-.47S25.46,39.62,14.61,75.11c-10.85,35.49-2.49,60.57-2.49,60.57l19.44-13.56s-7.2-68.72,34.65-99.21Z"/>
          <path class="st23" d="M19.83,75.11c9.89-29.84,46.55-52.67,46.55-52.67,0,0-40.92,17.17-51.77,52.67-10.85,35.49-2.49,60.57-2.49,60.57l4.39-3.06c-1.81-7.7-5.97-29.54,3.31-57.51Z"/>
        </g>
        <g>
          <g>
            <path class="st25" d="M163.46,22.92l-.16-.47s40.91,17.17,51.76,52.67c10.85,35.49,2.49,60.57,2.49,60.57l-19.44-13.56s7.2-68.72-34.65-99.21Z"/>
            <path d="M172.19,20.51c-.06-.16-.11-.31-.17-.48-3.71,3.71-7.42,7.42-11.13,11.13t0,0c-.72-.31-1.44-.61-2.17-.91,8.14,3.44,15.83,8.42,22.81,13.78-.61-.47-1.22-.94-1.83-1.41,6.47,5,12.42,10.68,17.45,17.14-.47-.61-.95-1.22-1.42-1.83,3.76,4.88,6.96,10.16,9.36,15.83-.3-.71-.61-1.44-.91-2.15,3.46,8.28,5.39,17.31,6.61,26.17-.1-.8-.21-1.6-.32-2.4,1.32,9.87,1.5,19.91.19,29.79.1-.8.21-1.61.32-2.4-.47,3.52-1.05,7.14-2.17,10.52,4.43-1.8,8.86-3.6,13.29-5.41-6.48-4.52-12.96-9.04-19.44-13.56,1.5,2.6,2.99,5.21,4.48,7.81,1.02-9.71.56-19.73-.45-29.41-2.16-20.6-7.62-41.67-19.9-58.69-5.31-7.35-11.45-13.55-18.77-18.91-1.87-1.36-4.83-1.5-6.97-.91-2.26.62-4.22,2.13-5.4,4.16-1.22,2.09-1.55,4.64-.92,6.97.67,2.45,2.18,3.96,4.16,5.41.54.39,1.06.79,1.59,1.2-.61-.47-1.22-.95-1.83-1.42,4.73,3.69,8.95,7.97,12.61,12.72-.47-.61-.94-1.22-1.41-1.83,4.46,5.81,8.05,12.23,10.91,18.96-.3-.72-.61-1.44-.91-2.16,4.38,10.38,7.04,21.4,8.54,32.55-.1-.8-.21-1.6-.32-2.4,1.47,11.03,2.03,22.41,1,33.51,0,.09-.02.18-.03.27-.33,3.26,2.03,6.1,4.49,7.81,6.48,4.52,12.96,9.04,19.44,13.56,1.92,1.34,4.79,1.51,6.98.91,3.15-.88,5.31-3.28,6.31-6.32,1.78-5.35,2.41-11.24,2.94-16.8,1.28-13.32-.09-26.93-3.09-39.94-1.66-7.19-3.94-14.15-7.25-20.76-2.78-5.54-6.41-10.6-10.32-15.4-6.66-8.13-14.86-14.96-23.51-20.87-6.09-4.16-12.53-7.75-19.32-10.61-2.87-1.2-6.75.28-8.81,2.33-2.16,2.16-3.37,5.81-2.33,8.8.06.16.12.32.17.48,1.63,4.65,6.14,7.69,11.14,6.32,4.5-1.24,7.94-6.47,6.32-11.13Z"/>
          </g>
          <path class="st0" d="M163.46,22.92l-.16-.47s40.91,17.17,51.76,52.67c10.85,35.49,2.49,60.57,2.49,60.57l-19.44-13.56s7.2-68.72-34.65-99.21Z"/>
        </g>
      </g>
      <path class="st23" d="M209.85,75.11c-9.9-29.84-46.55-52.67-46.55-52.67,0,0,40.91,17.17,51.76,52.67,10.85,35.49,2.49,60.57,2.49,60.57l-4.39-3.06c1.81-7.7,5.97-29.54-3.3-57.51Z"/>
      <g>
        <g>
          <path class="st25" d="M114.84,9.05C19.3,9.05,31.2,122.52,31.2,122.52c0,0,33.61-20.35,83.64-20.35s83.64,20.35,83.64,20.35c0,0,11.9-113.47-83.64-113.47Z"/>
          <path d="M114.84,0c-19.32.03-39.3,4.58-54.88,16.48-7.11,5.43-13.08,11.67-18.21,19.01-4.53,6.46-7.93,13.57-10.8,20.89-5.03,12.8-7.5,26.52-8.66,40.18-.68,7.97-.84,16.03-.28,24.01.04.66.09,1.3.16,1.96.34,3.27,1.51,6.07,4.49,7.81,2.75,1.62,6.37,1.66,9.13,0,4.08-2.46,8.51-4.43,12.9-6.28-.72.31-1.44.61-2.17.91,14.7-6.18,30.27-10.27,46.06-12.4-.8.1-1.6.21-2.4.32,16.38-2.18,32.99-2.18,49.37,0-.8-.11-1.6-.22-2.4-.32,15.79,2.13,31.35,6.22,46.06,12.4-.72-.3-1.44-.61-2.17-.91,4.38,1.85,8.82,3.82,12.9,6.28,2.75,1.66,6.37,1.62,9.13,0,2.98-1.74,4.14-4.54,4.48-7.81.54-5.14.55-10.37.43-15.53-.27-12.55-1.82-25.23-4.95-37.4-3.9-15.14-10.62-29.5-20.74-41.49-11.4-13.5-27.65-22.39-44.88-25.89C129.97.72,122.38.01,114.84,0c-4.94,0-9.05,4.12-9.05,9.05s4.11,9.04,9.05,9.05c4.72,0,9.44.29,14.11.9-.8-.11-1.6-.21-2.4-.32,7.23.97,14.33,2.76,21.06,5.58-.72-.3-1.43-.61-2.16-.91,5.47,2.31,10.62,5.29,15.32,8.9-.61-.47-1.22-.95-1.83-1.41,4.73,3.66,8.94,7.92,12.6,12.64-.47-.61-.94-1.22-1.41-1.83,4.52,5.87,8.16,12.35,11.04,19.16-.3-.72-.61-1.43-.91-2.16,4.36,10.32,7.01,21.29,8.51,32.38-.1-.8-.21-1.61-.32-2.41,1.26,9.48,1.73,19.09,1.33,28.65-.07,1.75-.16,3.51-.34,5.26,4.54-2.6,9.07-5.21,13.61-7.82-3.08-1.86-6.38-3.4-9.67-4.87-9.25-4.17-18.8-7.59-28.6-10.2-28.78-7.64-59.06-8.39-88.24-2.67-10.71,2.1-21.26,5.16-31.42,9.16-5.94,2.34-11.86,4.88-17.43,7.99-.35.19-.69.39-1.03.59,4.54,2.61,9.08,5.21,13.61,7.82-.53-5.14-.54-10.37-.43-15.53.13-6.14.6-12.28,1.42-18.38-.11.8-.22,1.61-.32,2.41,1.5-11.09,4.15-22.06,8.5-32.38-.3.72-.61,1.44-.91,2.16,2.89-6.81,6.52-13.3,11.04-19.16-.47.61-.94,1.22-1.41,1.83,3.66-4.72,7.87-8.98,12.6-12.64-.62.47-1.22.94-1.83,1.41,4.7-3.62,9.85-6.59,15.31-8.9-.72.31-1.44.61-2.16.91,6.74-2.82,13.84-4.61,21.07-5.58-.81.11-1.61.22-2.41.32,4.68-.61,9.4-.89,14.12-.9,4.94,0,9.05-4.11,9.05-9.05S119.77,0,114.84,0Z"/>
        </g>
        <path class="st0" d="M114.84,9.05C19.3,9.05,31.2,122.52,31.2,122.52c0,0,33.61-20.35,83.64-20.35s83.64,20.35,83.64,20.35c0,0,11.9-113.47-83.64-113.47Z"/>
        <path class="st23" d="M114.84,15.25c73.86,0,83.5,67.82,84.08,98.6.51-26.52-4.72-104.8-84.08-104.8S30.25,87.32,30.76,113.85c.57-30.78,10.21-98.6,84.08-98.6Z"/>
        <path class="st23" d="M198.48,112.96s-33.6-20.34-83.64-20.34-83.64,20.34-83.64,20.34c0,0-.21-2.06-.35-5.62-.4,10.8.35,18.03.35,18.03,0,0,33.61-20.34,83.64-20.34s83.64,20.34,83.64,20.34c0,0,.76-7.22.35-18.03-.14,3.56-.35,5.62-.35,5.62Z"/>
      </g>
      <path class="st31" d="M191.07,156.61s-2.29,2.39-9.16,2.54c-6.87.16-30.78-16.23-67-16.23h-.14c-36.23,0-60.14,16.39-67,16.23-6.87-.16-9.16-2.54-9.16-2.54l-10.69-8.43c0,2.84.01,5.58.02,8.16l10.67,8.41s2.29,2.38,9.16,2.55c6.86.16,30.78-16.23,67-16.23h.14c36.22,0,60.13,16.4,67,16.23s9.16-2.55,9.16-2.55l10.74-8.46v-8.14l-10.74,8.46Z"/>
      <g>
        <path class="st25" d="M114.92,107.56h-.16c-70.32,0-89.88,31.19-89.88,31.19l13.73,10.82s2.29,2.39,9.16,2.55c6.86.16,30.78-16.22,67-16.22h.14c36.22,0,60.13,16.39,67,16.22,6.87-.15,9.16-2.55,9.16-2.55l13.73-10.82s-19.56-31.19-89.88-31.19Z"/>
        <path d="M114.92,98.51c-24.18.23-48.58,3.38-70.58,13.97-6.42,3.09-12.35,6.97-17.84,11.5-2.61,2.15-5.09,4.52-7.17,7.21-.74.94-1.6,1.95-2.25,2.99-1.97,3.13-1.67,8.54,1.41,10.96,4.57,3.6,9.14,7.2,13.72,10.81,1.3,1.03,2.43,2.03,3.95,2.68,3.77,1.62,7.64,2.55,11.8,2.52,3.2-.02,6.27-1.13,9.21-2.28,5.92-2.31,11.75-4.82,17.76-6.89,8.52-2.93,17.3-5.1,26.23-6.31-.8.11-1.61.21-2.41.32,10.68-1.41,21.5-1.41,32.18,0-.8-.11-1.6-.21-2.41-.32,11.78,1.59,23.16,4.92,34.19,9.25,3.64,1.42,7.22,2.98,10.87,4.36,3.28,1.24,6.59,2.05,10.13,1.77,5.08-.4,9.66-1.7,13.61-4.97.99-.81,2.01-1.59,3.01-2.38,3.63-2.86,7.25-5.71,10.87-8.56,3.08-2.43,3.38-7.84,1.41-10.96-4.19-6.66-11.02-11.94-17.47-16.18-7.1-4.67-15-8.17-23-10.98-11.32-3.98-23.19-6.1-35.09-7.38-7.35-.79-14.74-1.12-22.13-1.13-4.93,0-9.05,4.12-9.05,9.05s4.12,9.05,9.05,9.05c8.95.01,17.91.51,26.8,1.69-.8-.11-1.61-.22-2.41-.32,11.83,1.59,23.55,4.37,34.56,9.01-.72-.31-1.44-.61-2.16-.91,6.67,2.83,13.09,6.35,18.83,10.78-.61-.47-1.22-.94-1.83-1.41,3.25,2.51,6.36,5.32,8.88,8.58-.47-.61-.95-1.22-1.42-1.83.28.37.57.73.81,1.12.48-3.66.95-7.31,1.42-10.96-4.66,3.68-9.35,7.34-13.99,11.04.61-.47,1.22-.94,1.84-1.41-.57.44-1.21.75-1.86,1.04.72-.3,1.44-.61,2.16-.91-1.3.54-2.66.85-4.05,1.06.8-.11,1.6-.21,2.4-.32-1.27.17-2.6.34-3.88.18.8.11,1.6.22,2.41.33-2.64-.37-5.2-1.53-7.64-2.52-4.02-1.61-8.02-3.28-12.09-4.8-12.38-4.6-25.19-7.56-38.34-8.73-14.43-1.28-29.11.17-43.14,3.65-9.76,2.42-19.04,6.13-28.34,9.88-2.45.99-5,2.15-7.64,2.52.8-.11,1.6-.22,2.4-.33-1.28.16-2.61-.01-3.88-.18.8.11,1.6.22,2.41.32-1.39-.21-2.75-.52-4.05-1.06.72.31,1.44.61,2.16.91-.65-.28-1.29-.6-1.85-1.04.6.47,1.21.94,1.83,1.41-4.64-3.69-9.33-7.36-13.99-11.04.47,3.65.94,7.31,1.41,10.96.25-.39.53-.76.81-1.12-.47.61-.95,1.22-1.42,1.83,2.52-3.26,5.63-6.07,8.88-8.58-.61.48-1.22.94-1.83,1.41,5.74-4.43,12.16-7.95,18.84-10.78-.73.3-1.45.61-2.16.91,11.01-4.65,22.73-7.42,34.56-9.01-.8.11-1.6.21-2.41.32,8.95-1.18,17.94-1.6,26.96-1.69,4.93-.05,9.05-4.08,9.05-9.05s-4.12-9.09-9.05-9.05Z"/>
      </g>
      <path class="st0" d="M114.92,107.56h-.16c-70.32,0-89.88,31.19-89.88,31.19l13.73,10.82s2.29,2.39,9.16,2.55c6.86.16,30.78-16.22,67-16.22h.14c36.22,0,60.13,16.39,67,16.22,6.87-.15,9.16-2.55,9.16-2.55l13.73-10.82s-19.56-31.19-89.88-31.19Z"/>
      <path class="st23" d="M114.76,111.44h.16c58.34,0,81.74,21.46,88.03,28.77l1.86-1.47s-19.56-31.19-89.88-31.19h-.16c-70.32,0-89.88,31.19-89.88,31.19l1.86,1.47c6.28-7.31,29.69-28.77,88.02-28.77Z"/>
      <path class="st35" d="M191.07,144.82s-2.29,2.38-9.16,2.55c-6.87.16-30.78-16.23-67-16.23-.02,0-.04,0-.05,0h-.04s-.04,0-.05,0c-36.23,0-60.14,16.39-67,16.23-6.87-.16-9.16-2.55-9.16-2.55l-11.42-9.01c-1.6,1.81-2.31,2.93-2.31,2.93l13.73,10.82s2.29,2.39,9.16,2.55c6.86.16,30.78-16.22,67-16.22h.14c36.22,0,60.13,16.39,67,16.22,6.87-.15,9.16-2.55,9.16-2.55l13.73-10.82s-.71-1.12-2.31-2.93l-11.42,9.01Z"/>
      <g>
        <g>
          <g>
            <g>
              <g>
                <path class="st5" d="M55.28,180.29c0,8.17,6.63,14.81,14.81,14.81s14.81-6.64,14.81-14.81-6.63-14.81-14.81-14.81-14.81,6.63-14.81,14.81Z"/>
                <path d="M53.99,180.29c.08,5.81,3.15,11.1,8.17,14.02,5.06,2.93,11.51,2.68,16.45-.35,4.94-3.02,7.78-8.65,7.57-14.38-.21-5.75-3.69-10.99-8.75-13.62-4.98-2.6-11.09-2.25-15.85.66-4.73,2.89-7.52,8.18-7.6,13.68-.01,1.66,2.58,1.66,2.59,0,.06-5.85,3.8-11.03,9.38-12.88,5.58-1.84,11.84.35,15.22,5.11,3.39,4.79,3.2,11.46-.4,16.08-3.65,4.69-9.93,6.32-15.46,4.34-5.27-1.87-8.67-7.16-8.73-12.65-.02-1.67-2.6-1.67-2.59,0Z"/>
              </g>
              <path class="st4" d="M60.54,185.72c0,1.33,1.07,2.4,2.4,2.4s2.4-1.07,2.4-2.4-1.08-2.4-2.4-2.4-2.4,1.07-2.4,2.4Z"/>
              <path class="st4" d="M68.67,178.3c0,3.42,2.77,6.2,6.2,6.2s6.19-2.78,6.19-6.2-2.78-6.19-6.19-6.19-6.2,2.77-6.2,6.19Z"/>
            </g>
            <path class="st18" d="M71.97,201.81c.71,1.96-2.37,4.88-6.87,6.51-4.5,1.63-8.73,1.36-9.44-.6-.72-1.96,2.36-4.88,6.86-6.51,4.5-1.63,8.73-1.37,9.45.6Z"/>
          </g>
          <g>
            <g>
              <g>
                <path class="st5" d="M144.77,180.29c0,8.17,6.63,14.81,14.81,14.81s14.81-6.64,14.81-14.81-6.63-14.81-14.81-14.81-14.81,6.63-14.81,14.81Z"/>
                <path d="M143.48,180.29c.07,5.81,3.14,11.1,8.16,14.02,5.06,2.93,11.5,2.68,16.45-.35,4.94-3.02,7.78-8.65,7.57-14.38-.2-5.75-3.69-10.99-8.75-13.62-4.98-2.6-11.1-2.25-15.85.66-4.73,2.89-7.53,8.18-7.59,13.68-.02,1.66,2.56,1.66,2.58,0,.07-5.85,3.8-11.03,9.38-12.88,5.58-1.84,11.85.35,15.22,5.11,3.39,4.79,3.2,11.46-.4,16.08-3.65,4.69-9.93,6.32-15.47,4.34-5.27-1.87-8.67-7.16-8.73-12.65-.02-1.67-2.6-1.67-2.58,0Z"/>
              </g>
              <path class="st4" d="M150.02,185.72c0,1.33,1.07,2.4,2.4,2.4s2.4-1.07,2.4-2.4-1.07-2.4-2.4-2.4-2.4,1.07-2.4,2.4Z"/>
              <path class="st4" d="M158.16,178.3c0,3.42,2.77,6.2,6.19,6.2s6.19-2.78,6.19-6.2-2.78-6.19-6.19-6.19-6.19,2.77-6.19,6.19Z"/>
            </g>
            <path class="st18" d="M157.7,201.81c-.71,1.96,2.37,4.88,6.87,6.51,4.5,1.63,8.73,1.36,9.44-.6.72-1.96-2.36-4.88-6.86-6.51-4.51-1.63-8.73-1.37-9.45.6Z"/>
          </g>
        </g>
        <path d="M100.37,208.58c.09,1.93.83,3.9,1.94,5.45,2.77,3.87,7.3,5.28,11.9,5.38,6.66.16,14.3-3.23,15.11-10.59.17-1.55-1.42-2.85-2.84-2.85-1.68,0-2.67,1.3-2.85,2.85.17-1.49-.02-.07-.17.37-.05.15-.11.3-.16.46.37-.95.04-.12-.08.09-.09.2-.2.38-.32.56-.1.17-.69.97-.17.3-.37.48-.81.91-1.28,1.3.54-.46-.24.16-.35.23-.35.24-.73.43-1.1.62-.3.13-.32.15-.07.05-.18.07-.35.13-.53.2-.49.17-.99.31-1.5.42-1.08.25-2.1.31-3.3.32-1.04.02-2.02-.06-2.9-.23-.41-.07-.81-.18-1.21-.3-.18-.05-.38-.12-.57-.17-.85-.3.46.22-.32-.14-.31-.14-.61-.3-.9-.47-.13-.09-.27-.17-.4-.26-.65-.42.42.37-.15-.1-.27-.22-.52-.47-.76-.72-.09-.1-.18-.2-.27-.3-.44-.51.36.51-.02-.02-.29-.41-.54-.86-.75-1.32-.23-.47.27.7.01,0-.08-.2-.14-.4-.2-.61-.07-.28-.13-.56-.17-.84-.05-.28.09.95.04.34-.17-3.65-5.85-3.67-5.68,0h0Z"/>
      </g>
      <g>
        <path class="st7" d="M157.82,32.34c8.79,5.67,13.72,13.68,11.01,17.9-2.72,4.22-12.05,3.05-20.85-2.62-8.8-5.67-13.73-13.68-11.02-17.9,2.72-4.22,12.05-3.05,20.86,2.62Z"/>
        <path class="st7" d="M176.46,56.34c-.62,1.84-2.61,2.82-4.45,2.2-1.83-.62-2.82-2.61-2.2-4.44.62-1.83,2.61-2.82,4.45-2.2,1.83.62,2.82,2.61,2.2,4.45Z"/>
      </g>
    </g>
  </g>
  <g>
    <g>
      <path class="st10" d="M249.22,311.34c0,1.21-14.71,2.19-32.86,2.19s-32.85-.98-32.85-2.19,14.71-2.19,32.85-2.19,32.86.98,32.86,2.19Z"/>
      <path d="M216.36,314.73c-34.06,0-34.06-2.38-34.06-3.4s0-3.4,34.06-3.4,34.07,2.38,34.07,3.4,0,3.4-34.07,3.4ZM189.05,311.33c5.31.53,14.76.98,27.31.98s22.01-.45,27.31-.98c-5.3-.53-14.76-.98-27.31-.98s-22,.46-27.31.98Z"/>
    </g>
    <g>
      <g>
        <g>
          <g>
            <g>
              <g>
                <path class="st22" d="M237.85,243.51l3.66-7.21s1.8-.38,3.55.53c1.74.91,2.23,2.59,2.23,2.59l-.48.37s.21.07.46.48c.24.4-.25,1.12.02,2.18.28,1.06.89,1.7,1.11,2.1.22.39-.03.9-.03.9l-8.43.76-2.1-2.68Z"/>
                <path d="M242.87,246.44c1.22-2.4,2.44-4.8,3.66-7.21-1.16.89-2.32,1.78-3.48,2.67-1.89.36-1.3.13-.43.13.61.04.47.02-.4-.08,1.32.24-.81-.53.23.08-.68-.57-.8-.66-.36-.26.84.79-.76-1.14-.21-.28.71,1.11-.44-1.34-.19-.54.89-2.19,1.78-4.38,2.67-6.57-.16.13-.32.25-.49.38-1.68,1.3-2.88,2.77-2.88,5.02,0,2,1.1,4.05,2.88,5.02-1.21-5.61-1.95-7.3-2.24-5.07-.1.62-.18,1.25-.24,1.89-.09.9.14,1.89.4,2.75.25.8.62,1.58,1.05,2.3,1.25,2.1-.12-2.68-.08-2.78,1.87-1.43,3.74-2.85,5.61-4.27-2.81.25-5.62.51-8.43.76,1.36.57,2.74,1.14,4.11,1.7-.7-.89-1.4-1.78-2.1-2.68-1.95-2.5-6.18-2.04-8.22,0-1.09,1.08-1.7,2.57-1.7,4.11,0,1.69.7,2.84,1.7,4.11.68.87,1.36,1.74,2.04,2.6,1.4,1.79,3.59,1.84,5.59,1.66,2.34-.21,4.68-.42,7.01-.63,2.86-.25,4.54-1.66,5.61-4.27.49-1.19.37-2.78.03-3.99-.21-.72-.44-1.19-.81-1.73-.25-.36-.83-1.53-.18,0-.04-.12-.08-.25-.12-.38.17.54.17,1.07,0,1.61.18-1.21.43-2.39.04-3.6-.55-1.68-1.59-3.28-3.19-4.15v10.04c.16-.12.32-.25.49-.38,2.04-1.58,3.52-3.85,2.67-6.57-1.02-3.26-3.54-5.72-6.74-6.85-3.29-1.15-8.01-.94-9.79,2.58-1.18,2.33-2.36,4.65-3.54,6.98-1.44,2.83-.77,6.29,2.08,7.96,2.62,1.53,6.52.74,7.96-2.09Z"/>
              </g>
              <path class="st32" d="M237.85,243.51l3.66-7.21s1.8-.38,3.55.53c1.74.91,2.23,2.59,2.23,2.59l-.48.37s.21.07.46.48c.24.4-.25,1.12.02,2.18.28,1.06.89,1.7,1.11,2.1.22.39-.03.9-.03.9l-8.43.76-2.1-2.68Z"/>
            </g>
            <polygon points="247.58 240.28 240.83 243.01 247.43 238.9 247.58 240.28"/>
            <path class="st7" d="M244.18,236.54s-.4-.2-.8-.25c-.4-.06-.76.07-.76.07l-3.01,5.39,4.58-5.21Z"/>
          </g>
          <polygon points="248.03 243.83 242.78 244.58 248.49 244.58 248.03 243.83"/>
        </g>
        <g>
          <g>
            <path class="st22" d="M230.43,245.04c.13-.13.26-.24.4-.36,2.06-1.6,5.02-1.25,6.63.81,1.61,2.05,1.24,5.02-.81,6.63-.28.21-.58.39-.88.54-.54-1.71-1.38-3.36-2.55-4.86-.83-1.06-1.77-1.98-2.8-2.76Z"/>
            <path d="M234.55,249.16c.41-.37.25-.26-.47.33.55-.3.4-.27-.43.1.22-.08.44-.15.67-.2-.97.1-1.14.13-.51.11.63.04.46,0-.52-.09.59.18.45.1-.41-.24.21.1.41.22.61.35-.21-.16-.42-.31-.62-.46.42.44.35.33-.2-.34.31.55.28.4-.1-.43.08.22.15.44.2.67-.1-.97-.13-1.15-.11-.51-.03.63,0,.46.09-.52-.18.59-.1.45.24-.41-.1.21-.21.41-.35.61.57-.69.63-.81.21-.36.99-.98.5-.38.02-.13,2.85,1.16,5.69,2.31,8.54,3.47-1.29-3.95-3.55-7.62-6.85-10.18-1.28-1-2.42-1.7-4.11-1.7-1.54,0-3.02.62-4.11,1.7-2.04,2.03-2.51,6.27,0,8.23.57.44,1.11.91,1.63,1.43.21.21.4.43.6.64,1,1.11-.68-.98.18.21.41.58.76,1.21,1.09,1.84.28.58.25.5-.06-.24.16.38.29.78.41,1.17,1.2,3.68,5.12,5.27,8.55,3.48,5.29-2.77,7.33-10.18,3.76-15.12-3.89-5.38-11.28-6.2-16.16-1.62-2.32,2.16-2.19,6.04,0,8.23,2.29,2.29,5.91,2.16,8.22,0Z"/>
          </g>
          <path class="st9" d="M230.43,245.04c.13-.13.26-.24.4-.36,2.06-1.6,5.02-1.25,6.63.81,1.61,2.05,1.24,5.02-.81,6.63-.28.21-.58.39-.88.54-.54-1.71-1.38-3.36-2.55-4.86-.83-1.06-1.77-1.98-2.8-2.76Z"/>
        </g>
        <g>
          <g>
            <path class="st22" d="M213.77,244.73c-6.62,5.17-7.78,14.74-2.6,21.35,5.18,6.62,14.74,7.78,21.35,2.61,6.62-5.18,7.79-14.74,2.61-21.35-5.18-6.62-14.73-7.79-21.35-2.6Z"/>
            <path d="M209.65,240.62c-2.96,2.38-4.91,5.55-6.3,9.04-1.39,3.48-1.37,7.24-.86,10.88,1.04,7.56,7.02,13.51,13.92,16.09,7.15,2.67,15.12.48,20.78-4.29,5.81-4.89,7.82-12.88,6.48-20.13-1.34-7.19-6.91-12.65-13.49-15.28-6.2-2.48-14.09-1.24-19.36,2.79-1.26.96-2.23,1.88-2.67,3.48-.42,1.49-.2,3.13.58,4.47,1.46,2.48,5.43,4.01,7.96,2.09.59-.45,1.18-.85,1.82-1.22.31-.19.63-.34.95-.5,1.14-.57-1.28.49-.09.03.65-.25,1.33-.43,2.01-.59.34-.07.68-.13,1.02-.19-1.88.31-.27.07.17.05.69-.04,1.37,0,2.06.06,1.26.11-1.43-.23-.19-.01.34.06.68.14,1,.23.47.12,2.64.95.89.2.75.32,1.46.73,2.14,1.16.3.2,1.31.95-.02-.09.28.22.55.46.82.7.54.48,1.02,1.02,1.5,1.58-1.04-1.24-.24-.29-.03,0,.21.3.39.61.58.92.18.3.34.62.5.95.27.57.21.43-.16-.41.09.21.17.43.25.66.22.65.4,1.33.54,2.02.08.4.21,1.63,0-.18.04.34.06.69.07,1.03.04.69,0,1.38-.06,2.06-.12,1.26.23-1.44,0-.19-.08.45-.2.89-.32,1.34-.09.33-.2.66-.32.99-.41,1.18.58-1.26.06-.12-.29.63-.64,1.24-1.02,1.83-.19.3-.94,1.3.1-.04-.22.29-.46.55-.7.82-.24.27-.49.52-.75.77-.26.25-1.6,1.32-.23.27-.58.44-1.2.82-1.84,1.17-.31.18-.63.33-.96.48,1.53-.71.44-.2.08-.06-.66.23-1.33.4-2.02.54-.39.09-1.63.21.18,0-.46.05-.91.07-1.37.08-.68.02-1.37-.04-2.06-.11,1.99.22-.31-.13-.81-.27-.33-.09-.66-.21-.99-.32-1.18-.41,1.26.58.12.06-.74-.34-1.44-.76-2.12-1.21-1.05-.7,1.04.87.05.06-.28-.23-.54-.47-.8-.72-.33-.31-1.86-2.14-.78-.74-.44-.57-.82-1.2-1.18-1.83-.17-.32-.32-.64-.47-.96.76,1.62.08.13-.05-.25-.22-.66-.37-1.34-.5-2.03-.23-1.25.15,1.45.04.18-.04-.34-.04-.69-.05-1.03-.02-.69.04-1.37.11-2.05-.22,1.98.13-.31.27-.81.1-.33.21-.66.32-.98.41-1.19-.58,1.26-.06.11.28-.63.64-1.24,1.02-1.82.18-.3.94-1.3-.09.03.21-.28.46-.55.69-.81.57-.63,1.21-1.2,1.87-1.73,2.48-1.99,2.06-6.17,0-8.23-2.42-2.42-5.75-1.98-8.23,0Z"/>
          </g>
          <path class="st30" d="M213.77,244.73c-6.62,5.17-7.78,14.74-2.6,21.35,5.18,6.62,14.74,7.78,21.35,2.61,6.62-5.18,7.79-14.74,2.61-21.35-5.18-6.62-14.73-7.79-21.35-2.6Z"/>
          <path class="st3" d="M230.17,267.61c6.62-5.18,7.78-14.74,2.61-21.35-1.29-1.64-2.85-2.95-4.57-3.91,2.62.93,5.03,2.6,6.88,4.95,5.18,6.62,4.01,16.18-2.6,21.36-4.96,3.89-11.59,4.2-16.78,1.31,4.75,1.68,10.22.98,14.47-2.36Z"/>
        </g>
      </g>
      <g>
        <g>
          <g>
            <path class="st22" d="M216.38,255.67h22.85l-5.83,46.56s-.13,1.35-1.06,2.78c-1.09,1.68-2.19,1.81-2.19,1.81h-27.5s-1.1-.13-2.19-1.81c-.93-1.43-1.06-2.78-1.06-2.78l-5.83-46.56h22.81Z"/>
            <path d="M216.38,261.48h22.85c-1.94-1.93-3.87-3.87-5.82-5.81-1.6,12.78-3.2,25.57-4.8,38.35-.31,2.42-.61,4.85-.91,7.27-.03.23-.06.47-.09.71-.13.99.29-1.92.13-.99-.05.29-.14.58-.23.86.44-1.43.03-.16-.19.2.12-.16.25-.31.37-.45-.47.45-.33.39.43-.24-.44.34-1.32.5.67-.21-.84.3,2.01-.16,1.26-.16h-26.43c-.83,0-2.19-.23.55.2-.4-.06-1.22-.53.92.42-.43-.19-.86-.76.28.26-.92-.83.63,1.06-.15-.24-.77-1.29.32,1.04-.03-.12-.2-.62-.31-1.96.02.69,0-.05-.01-.09-.02-.14-.08-.61-.15-1.22-.23-1.84-.86-6.88-1.73-13.76-2.59-20.65-1-7.97-2-15.95-3-23.92-1.94,1.94-3.88,3.88-5.81,5.81h22.81c3.17,0,5.82-2.65,5.82-5.81s-2.65-5.81-5.82-5.81h-22.81c-2.87,0-6.21,2.66-5.82,5.81,1.61,12.78,3.2,25.57,4.81,38.35.3,2.42.61,4.85.91,7.27.11.84.21,1.67.33,2.52.49,3.46,3.59,8.02,7.31,8.61,3.48.55,7.18.21,10.69.21h17.52c2.59,0,4.78-.89,6.6-2.8,2.1-2.18,2.96-4.88,3.33-7.8.68-5.46,1.36-10.93,2.05-16.39,1.25-9.99,2.5-19.98,3.75-29.97.4-3.15-2.94-5.81-5.81-5.81h-22.85c-3.17,0-5.81,2.64-5.81,5.81s2.64,5.81,5.81,5.81Z"/>
          </g>
          <path class="st20" d="M216.38,255.67h22.85l-5.83,46.56s-.13,1.35-1.06,2.78c-1.09,1.68-2.19,1.81-2.19,1.81h-27.5s-1.1-.13-2.19-1.81c-.93-1.43-1.06-2.78-1.06-2.78l-5.83-46.56h22.81Z"/>
          <path class="st27" d="M195.35,255.67l5.83,46.56s.13,1.35,1.05,2.78c1.1,1.68,2.19,1.81,2.19,1.81h-1.78s-1.1-.13-2.19-1.81c-.93-1.43-1.06-2.78-1.06-2.78l-5.83-46.56h1.78Z"/>
          <path class="st29" d="M237.45,255.67l-5.84,46.56s-.12,1.35-1.05,2.78c-1.1,1.68-2.2,1.81-2.2,1.81h1.78s1.1-.13,2.19-1.81c.93-1.43,1.06-2.78,1.06-2.78l5.83-46.56h-1.78Z"/>
        </g>
        <polygon class="st27" points="216.42 255.67 239.23 255.67 239.01 257.38 193.78 257.38 193.57 255.67 216.38 255.67 216.42 255.67"/>
        <polygon class="st11" points="237.23 257.38 237.45 255.67 239.23 255.67 239.01 257.38 237.23 257.38"/>
      </g>
      <g>
        <g>
          <g>
            <path class="st22" d="M189.41,238.17c.68-1.3,1.77-1.63,1.77-1.63l18.7-5.21h.02s18.71-5.21,18.71-5.21c0,0,1.1-.28,2.36.48,1.26.76,1.66,2.17,1.66,2.17l-21.76,6.06h-.02s-21.75,6.05-21.75,6.05c0,0-.38-1.42.31-2.71Z"/>
            <path d="M194.43,241.1c.07-.12.14-.24.21-.36-.27.5-.66.89-1.17,1.15.43-.32,1.43-.62-.79.27.05-.02.09-.03.14-.04.39-.11.77-.21,1.16-.32,1.6-.44,3.19-.89,4.79-1.33,3.7-1.03,7.39-2.06,11.1-3.08,5.4-1.51,10.81-3.01,16.22-4.51,1.22-.34,2.43-.68,3.65-1.02.63-.17,1.14-.13-.8.05.97-.09-1.59-.38-.32-.05-.27-.07-1.59-1.12-.91-.4-.99-1.04-.51-.66-.28-.19-.79-1.57-.54-1.36-.4-.93,1.36-2.38,2.71-4.77,4.06-7.16-10.97,3.06-21.94,6.11-32.91,9.16-3.54.98-7.09,1.97-10.63,2.95,2.38,1.35,4.77,2.71,7.16,4.06-.1-.43-.09-.94.12.96-.02-.2-.02-.4-.01-.62.03.52-.1.99-.39,1.42,1.29-2.89.87-6.23-2.09-7.96-2.5-1.47-6.66-.81-7.95,2.08-1.06,2.36-1.51,4.65-.9,7.2.75,3.07,4.17,4.88,7.16,4.05,10.96-3.05,21.94-6.1,32.91-9.15,3.54-.98,7.08-1.97,10.62-2.96,2.98-.82,5.01-4.12,4.06-7.16-.53-1.69-1.49-3.34-2.83-4.51-2.42-2.1-5.21-2.7-8.3-2.22-.75.12-1.5.42-2.22.62-3.8,1.06-7.59,2.11-11.38,3.17-5.13,1.43-10.26,2.86-15.4,4.28-2.31.63-4.62,1.28-6.93,1.93-2.86.79-5.17,2.03-6.79,4.73-1.63,2.72-.62,6.37,2.08,7.96,2.76,1.62,6.33.63,7.96-2.08Z"/>
          </g>
          <path class="st8" d="M189.41,238.17c.68-1.3,1.77-1.63,1.77-1.63l18.7-5.21h.02s18.71-5.21,18.71-5.21c0,0,1.1-.28,2.36.48,1.26.76,1.66,2.17,1.66,2.17l-21.76,6.06h-.02s-21.75,6.05-21.75,6.05c0,0-.38-1.42.31-2.71Z"/>
          <path class="st16" d="M229.67,226.57l-19.56,5.44h-.02s-19.56,5.45-19.56,5.45c0,0-.54.17-1.11.72h0c.69-1.3,1.77-1.64,1.77-1.64l18.71-5.21h.02s18.71-5.21,18.71-5.21c0,0,1.1-.27,2.36.48h0c-.77-.17-1.32-.04-1.32-.04Z"/>
        </g>
        <g>
          <g>
            <path class="st22" d="M187.77,246.68l2.63-.73,1.29-.36,45.08-12.54c.86-.24,1.76.26,1.99,1.13.24.86-.26,1.75-1.12,2l-45.08,12.54-2.54.71-1.39.39c-.85.24-1.75-.27-2-1.12-.24-.87.27-1.76,1.13-2Z"/>
            <path d="M189.31,252.29c12.04-3.35,24.08-6.7,36.12-10.05,3.15-.87,6.29-1.75,9.44-2.63.89-.25,1.78-.49,2.67-.74.2-.06.41-.12.62-.17.04-.01.09-.03.13-.04,0,0,.01,0,.02,0-2.55.44-4.26-.54-5.16-2.94-.44-2.54.54-4.25,2.93-5.15-1.27.49-2.7.74-4.01,1.11-3.27.91-6.53,1.82-9.8,2.72-7.82,2.18-15.65,4.35-23.47,6.54-2.32.65-4.65,1.29-6.96,1.94-.36.09-.72.2-1.08.29-.75.21-1.51.42-2.27.63-.28.07-.56.15-.84.23-.18.05-.35.1-.53.14-1.1.3-.03.45,3.2.45,2.07,1.5,2.57,3.41,1.48,5.75-.84.63-1.67,1.27-2.5,1.9,2.95-1.15,4.96-3.86,4.06-7.15-.78-2.82-4.2-5.21-7.16-4.06-3.27,1.28-5.35,3.65-5.45,7.28-.12,3.92,3.44,7.2,7.22,7.31,1.94.06,4.02-.76,5.88-1.28,1.27-.35,2.54-.7,3.8-1.05,7.23-2.02,14.47-4.03,21.7-6.04,6.24-1.74,12.49-3.48,18.74-5.21.35-.1.72-.2,1.07-.3,3.33-.92,5.35-3.93,5.45-7.28.12-3.93-3.43-7.2-7.23-7.31-1.91-.06-3.94.75-5.76,1.25-13.47,3.75-26.95,7.49-40.43,11.25-1.66.46-3.33.93-4.99,1.39-3.05.84-4.91,4.09-4.06,7.15.84,3.04,4.1,4.91,7.16,4.06Z"/>
          </g>
          <path class="st8" d="M187.77,246.68l2.63-.73,1.29-.36,45.08-12.54c.86-.24,1.76.26,1.99,1.13.24.86-.26,1.75-1.12,2l-45.08,12.54-2.54.71-1.39.39c-.85.24-1.75-.27-2-1.12-.24-.87.27-1.76,1.13-2Z"/>
          <path class="st16" d="M188.31,248.66l1.39-.38,2.54-.71,45.08-12.54c.66-.18,1.11-.74,1.18-1.39.12.16.21.34.26.54.24.86-.26,1.75-1.12,2l-45.08,12.54-2.54.71-1.39.39c-.85.24-1.75-.27-2-1.12-.05-.2-.07-.4-.04-.61.39.51,1.06.77,1.72.59Z"/>
        </g>
      </g>
      <g>
        <g>
          <g>
            <path class="st6" d="M214,286.58c0,.55.02,1.7.02,2.25h0s-.03-.03-.03-.03c0,0,1.42-2.36,2.1-3.54.01-.02.01-.05,0-.07-.68-1.27-1.37-2.54-2.05-3.8-.01,0-.03-.03-.03-.03l.03,2.49s-2.44,1.14-3.81-.23c-1.37-1.37,1.97-5.11,1.97-5.11,0,0-1.24-.66-2.46-1.38,0,.01-.02.03-.02.05-.61,1.07-4.02,5.79-2.3,8.33,1.73,2.55,6.55,1.07,6.58,1.07Z"/>
            <path d="M209.47,286.58c.01.75.02,1.49.03,2.25.02,1.49.82,3.23,2.24,3.9,0,0,.01,0,.01,0,1.86.88,3.95.82,5.48-.71,1.7-1.7,1.81-4.72,0-6.4-.01-.01-.02-.03-.03-.04.24,1.82.47,3.65.71,5.47.7-1.17,1.41-2.35,2.09-3.53,1.21-2.09.35-3.99-.68-5.9-.65-1.19-1.22-2.43-2.1-3.47-2.61-3.09-7.76-.53-7.72,3.19.01.83.02,1.66.03,2.49.74-1.3,1.49-2.6,2.24-3.91.44-.2,1.3-.51.53-.25-.14.04-.3.09-.45.12-.93.24,1.12-.05.09-.04,1.25-.02,1.99,1.1,2.38,2.17.15.54.14,1.07-.02,1.61.03-.23.12-.45.19-.66-.47,1.33-.07.27.12-.06.2-.35.44-.69.68-1.02.49-.67-.76.95-.13.18.08-.1.16-.2.24-.28,1.86-2.11,1.78-5.65-.92-7.11-.83-.45-1.65-.91-2.46-1.38-2.22-1.27-4.83-.45-6.19,1.62-2.48,3.82-4.56,8.26-2.46,12.71,2.05,4.34,7.89,4.39,11.83,3.38,2.38-.61,3.8-3.22,3.16-5.56-.66-2.41-3.18-3.77-5.57-3.16-.2.05-.41.11-.62.16-.19.04-.38.08-.57.11-.72.13,1.26-.12,0-.02-.27.02-.53.02-.81.02-1.28,0,.61.16-.16-.01-.73-.16.87.56-.16-.08.38.19.65.47.84.85-.24-.42-.2-.3.12.36-.32-.89.04,1.1.02.12-.01-.74-.25,1.01.06-.25.08-.3.19-.6.29-.88-.43,1.2.06-.09.18-.35.49-.97,1.06-1.9,1.66-2.8-2.07.54-4.13,1.08-6.19,1.62.82.46,1.64.92,2.46,1.37-.31-2.37-.61-4.73-.91-7.1-1.79,2.02-3.82,4.8-3.61,7.65.2,2.8,2.21,5.18,5.04,5.67,2.1.36,3.98-.02,5.89-.88,1.39-.63,2.25-2.45,2.23-3.9,0-.83-.02-1.66-.02-2.49-2.57,1.07-5.14,2.14-7.72,3.2-1.04-1.22.08.51.24.8.38.7.76,1.41,1.14,2.11-.2-.76-.41-1.52-.62-2.29v.07c.2-.76.41-1.52.62-2.29-.69,1.18-1.39,2.37-2.1,3.54-1.02,1.7-.76,4.12.71,5.48,0,.01.02.02.03.04,1.83-2.37,3.65-4.73,5.48-7.11h0c.74,1.3,1.48,2.6,2.23,3.91-.01-.75-.02-1.5-.03-2.25-.03-2.46-2.03-4.52-4.52-4.52s-4.57,2.05-4.53,4.52Z"/>
          </g>
          <g>
            <path class="st6" d="M223.73,278.63c.47-.27,1.48-.84,1.95-1.11h0s-.02.04-.02.04c0,0-2.75-.1-4.11-.12-.02,0-.04,0-.06.03-.77,1.21-1.55,2.42-2.32,3.64,0,.01-.02.04-.02.04l2.16-1.23s2.19,1.58,1.65,3.44c-.53,1.86-5.43.76-5.43.76,0,0,.02,1.4,0,2.82h.05c1.24.01,7.02.71,8.4-2.04,1.4-2.75-2.25-6.25-2.26-6.28Z"/>
            <path d="M226.01,282.54c.65-.38,1.29-.74,1.95-1.12,1.33-.76,2.32-2.34,2.23-3.9h0c-.09-2.04-1.3-3.82-3.31-4.37-2.34-.65-4.96.77-5.57,3.15,0,.02,0,.03-.01.05,1.45-1.11,2.9-2.21,4.36-3.32-1.37-.05-2.74-.09-4.11-.12-2.37-.04-3.6,1.71-4.74,3.49-.73,1.15-1.55,2.25-2.02,3.54-1.41,3.88,3.41,6.95,6.64,5.11.72-.41,1.44-.82,2.16-1.23h-4.56c-1.59-1.18-.83-.65-.48-.33.12.1.22.21.33.33-.81-.87-.25-.33-.06,0-.65-1.14-.13-2.25.68-3.21.38-.38.83-.64,1.35-.77-.31.13-1.16.23.32.03-.72.1-1.47.03-2.19-.05,1.67.18.2.02-.23-.08-2.82-.62-5.77,1.3-5.73,4.37.01.94,0,1.88-.01,2.82-.03,2.58,2.1,4.36,4.53,4.51,3.86.26,8.35.16,11.24-2.77,3.99-4.04,1.45-9.79-1.85-13.26-1.7-1.78-4.69-1.71-6.4,0-1.78,1.77-1.7,4.62,0,6.4.17.17.34.35.49.53.74.84-.51-.72,0-.02.22.3.41.61.59.94.14.25.5,1.15.04-.02.07.19.13.38.17.57-.07-.73-.08-.84-.05-.34-.02.5,0,.38.06-.35.29-.59.33-.69.13-.31.49-.58.57-.71.25-.37.62-.44.72-.53.34-.27-.29.18-1.07.43.15-.03-.35.13-.7.2-1.06.28-.8.17,1.11-.09-.19.02-.36.03-.73.04-1.1.04-.93.02-1.88-.02-2.82-.09,1.51,1.51,3.02,3.02,4.53,4.53.01-.94.01-1.89,0-2.82-1.91,1.45-3.82,2.9-5.73,4.36,2.76.6,5.77.83,8.36-.53,2.56-1.34,3.42-4.73,2.52-7.34-.68-1.96-1.99-3.39-3.62-4.6-1.26-.95-3.27-.74-4.56,0-.72.41-1.45.82-2.17,1.22,2.22,1.71,4.43,3.4,6.64,5.11-.55,1.53.4-.28.59-.57.43-.68.86-1.35,1.29-2.02-.54.54-1.09,1.08-1.63,1.62.02-.01.04-.02.06-.04-.76.21-1.52.42-2.29.62,1.37.02,2.74.07,4.11.12,1.97.06,3.87-1.43,4.36-3.32,0-.02,0-.03,0-.05-2.96-.4-5.92-.8-8.88-1.2h0c.75-1.3,1.5-2.6,2.25-3.9-.65.38-1.3.75-1.95,1.12-2.13,1.23-2.86,4.07-1.62,6.19,1.25,2.14,4.05,2.85,6.19,1.62Z"/>
          </g>
          <g>
            <path class="st6" d="M211.78,274.42c-.47-.27-1.47-.84-1.93-1.11t-.02,0s.05-.02.05-.02c0,0,1.32,2.41,1.99,3.6.02.02.03.03.06.03,1.43.06,2.87.11,4.31.16.01,0,.04,0,.04,0l-2.16-1.24s.25-2.68,2.12-3.17c1.88-.49,3.41,4.29,3.41,4.29,0,0,1.21-.73,2.43-1.43,0-.02-.01-.03-.01-.04-.62-1.07-2.96-6.4-6.03-6.21-3.07.2-4.24,5.11-4.26,5.13Z"/>
            <path d="M214.07,270.52c-.65-.37-1.29-.74-1.95-1.11-1.34-.76-3.24-.9-4.57,0,0,0,0,0,0,0-1.69,1.14-2.64,3.05-2.07,5.1.64,2.36,3.19,3.84,5.56,3.16.02,0,.03,0,.05-.01-1.7-.69-3.41-1.38-5.11-2.08.66,1.2,1.32,2.41,1.99,3.6,1.16,2.07,3.29,2.25,5.4,2.33,1.37.05,2.76.2,4.12-.06,3.93-.78,4.3-6.42,1.07-8.27-.72-.42-1.44-.83-2.17-1.24.76,1.29,1.5,2.6,2.25,3.9-.04.29-.24,1.52-.09.73.08-.39.58-1.47-.02-.2.24-.4.16-.32-.27.25.45-.58-.61.34-.83.41-.93.24-1.8.14-2.59-.31-.92-.45-.64-.55-.25-.14-.93-.99-.2-.24.01.11.21.36.39.74.57,1.12.29.65-.43-1.12-.02,0,.04.12.08.24.12.36.88,2.72,4.05,4.27,6.64,2.7.81-.49,1.62-.96,2.43-1.43,2.26-1.29,2.69-3.99,1.63-6.2-1.96-4.06-4.85-8.09-9.7-8.49-4.77-.39-7.74,4.55-8.87,8.46-.69,2.37.8,4.91,3.16,5.56,2.4.66,4.87-.79,5.56-3.16.05-.19.11-.37.17-.55.07-.23.16-.46.24-.68.25-.67-.53,1.12,0,.03.15-.3.33-.59.51-.88.41-.65-.74.77.12-.09.36-.31.25-.24-.31.23.42-.24.28-.2-.4.12.47-.12.32-.12-.43,0,.49.01.34-.03-.45-.1.89.15-.95-.52-.13-.08.63.34-.73-.71.17.13.29.27.54.57.79.87-.83-1.01,0,.05.14.28.61.92,1.14,1.91,1.62,2.89.54-2.06,1.08-4.12,1.62-6.18-.81.47-1.62.94-2.43,1.43,2.21.9,4.43,1.8,6.64,2.7-.98-3.02-2.64-6.3-5.84-7.39-2.76-.94-5.67.69-7.18,2.98-.89,1.37-1.24,2.88-1.41,4.48-.16,1.53.98,3.18,2.24,3.9.73.42,1.44.83,2.16,1.24.36-2.75.72-5.51,1.08-8.26,1.66-.33-.38-.21-.76-.22-.8-.04-1.59-.06-2.39-.09.76.21,1.51.41,2.28.62-.02-.01-.03-.02-.05-.04.54.54,1.09,1.09,1.62,1.62-.68-1.2-1.33-2.4-1.99-3.6-.96-1.75-3.2-2.62-5.11-2.07-.01,0-.03,0-.05,0,1.16,2.76,2.32,5.52,3.49,8.27,0,0,0-.01,0-.01h-4.57c.65.37,1.3.74,1.95,1.11,2.15,1.22,4.93.53,6.19-1.62,1.24-2.11.52-4.97-1.62-6.19Z"/>
          </g>
        </g>
        <g>
          <path class="st4" d="M214,286.58c0,.55.02,1.7.02,2.25h0s-.03-.03-.03-.03c0,0,1.42-2.36,2.1-3.54.01-.02.01-.05,0-.07-.68-1.27-1.37-2.54-2.05-3.8-.01,0-.03-.03-.03-.03l.03,2.49s-2.44,1.14-3.81-.23c-1.37-1.37,1.97-5.11,1.97-5.11,0,0-1.24-.66-2.46-1.38,0,.01-.02.03-.02.05-.61,1.07-4.02,5.79-2.3,8.33,1.73,2.55,6.55,1.07,6.58,1.07Z"/>
          <path class="st4" d="M223.73,278.63c.47-.27,1.48-.84,1.95-1.11h0s-.02.04-.02.04c0,0-2.75-.1-4.11-.12-.02,0-.04,0-.06.03-.77,1.21-1.55,2.42-2.32,3.64,0,.01-.02.04-.02.04l2.16-1.23s2.19,1.58,1.65,3.44c-.53,1.86-5.43.76-5.43.76,0,0,.02,1.4,0,2.82h.05c1.24.01,7.02.71,8.4-2.04,1.4-2.75-2.25-6.25-2.26-6.28Z"/>
          <path class="st4" d="M211.78,274.42c-.47-.27-1.47-.84-1.93-1.11t-.02,0s.05-.02.05-.02c0,0,1.32,2.41,1.99,3.6.02.02.03.03.06.03,1.43.06,2.87.11,4.31.16.01,0,.04,0,.04,0l-2.16-1.24s.25-2.68,2.12-3.17c1.88-.49,3.41,4.29,3.41,4.29,0,0,1.21-.73,2.43-1.43,0-.02-.01-.03-.01-.04-.62-1.07-2.96-6.4-6.03-6.21-3.07.2-4.24,5.11-4.26,5.13Z"/>
        </g>
        <g>
          <g>
            <path class="st33" d="M214.02,288.83h0s0,0,0-.01h0Z"/>
            <path class="st33" d="M207.98,286.07c-1.73-2.55,1.68-7.27,2.29-8.33.01-.02.02-.03.03-.04.65.37,1.29.73,1.75.99.1-.12.15-.17.15-.17,0,0-1.24-.66-2.46-1.38,0,.01-.02.03-.02.05-.61,1.07-4.02,5.79-2.3,8.33.18.28.41.5.66.69-.04-.04-.07-.08-.1-.13Z"/>
            <path class="st33" d="M210.6,283.92c.05.1.11.19.19.27,1.37,1.38,3.81.23,3.81.23l-.02-2.02c-.17-.33-.35-.66-.54-1-.01,0-.03-.03-.03-.03l.03,2.49s-2.05.95-3.44.06Z"/>
            <path class="st33" d="M214,288.8s.01,0,.02.02v-.06s-.02.05-.02.05Z"/>
            <path class="st33" d="M214.56,287.14s-.21.06-.55.14c0,.51.01,1.1.02,1.47.08-.12.28-.46.54-.91,0-.27,0-.52,0-.7Z"/>
          </g>
          <g>
            <path class="st33" d="M225.68,277.51s-.01.01-.02.01h.02Z"/>
            <path class="st33" d="M225.66,277.52s-.04.03-.05.04c.04,0,.05,0,.05,0v-.04Z"/>
            <path class="st33" d="M218.11,284.68s4.89,1.1,5.42-.76c.42-1.46-.83-2.74-1.38-3.22.55.63,1.13,1.6.83,2.66-.53,1.86-5.43.76-5.43.76,0,0,.02,1.4,0,2.82h.05c.13,0,.31.01.53.02.01-1.22,0-2.29,0-2.29Z"/>
            <path class="st33" d="M222.05,278.04s.03-.03.06-.03c.69,0,1.74.03,2.6.06.33-.19.66-.38.89-.51-.38-.01-2.8-.09-4.06-.11-.02,0-.04,0-.06.03-.77,1.21-1.55,2.42-2.32,3.64,0,.01-.02.04-.02.04l1.43-.81c.48-.77.98-1.54,1.47-2.3Z"/>
          </g>
          <g>
            <path class="st33" d="M210.47,273.91s-.03-.02-.06-.03c0,0-.01,0-.02,0,0,0,0,0,.01,0h0s.03-.01.03-.01c0,0,0,.02.02.05.49.28,1.43.82,1.88,1.08.02-.02,1.19-4.94,4.26-5.13.93-.06,1.81.4,2.59,1.1-.9-.99-1.97-1.74-3.15-1.66-3.07.2-4.24,5.11-4.26,5.13-.45-.25-1.38-.79-1.88-1.07.18.33,1.34,2.46,1.96,3.56.02.02.03.03.06.03.06,0,.14,0,.21,0-.64-1.13-1.52-2.74-1.67-3.03Z"/>
            <path class="st33" d="M209.85,273.32s.04.02.05.03c-.02-.03-.02-.04-.02-.04,0,0-.01.02-.03.02Z"/>
            <path class="st33" d="M209.83,273.32s.02,0,.02,0c0,0,0,0,0,0t-.02,0Z"/>
            <path class="st33" d="M216.28,277.09l-1.58-.91c-.02.14-.03.22-.03.22l1.18.68c.13,0,.26.01.39.02.01,0,.04,0,.04,0Z"/>
            <path class="st33" d="M217.93,273.54c1.03,1.26,1.72,3.43,1.72,3.43,0,0,.11-.06.29-.17-.38-.95-1.11-2.56-2.02-3.26Z"/>
          </g>
        </g>
      </g>
    </g>
  </g>
  <g>
    <g>
      <g>
        <path class="st22" d="M45.89,239.79c-6.11,2.1-8.94,4.86-8.94,4.86l8.74,17.14,6.92-2.36h0l6.92-2.37-3.59-18.91s-3.92-.45-10.05,1.63Z"/>
        <path d="M44.35,234.18c-4.06,1.42-8.36,3.32-11.51,6.36-1.96,1.89-2.1,4.73-.92,7.04,2.92,5.72,5.83,11.44,8.75,17.15,1.12,2.21,4.23,3.47,6.57,2.68,4.61-1.58,9.22-3.16,13.84-4.73,3.19-1.09,4.68-3.89,4.07-7.16-1.2-6.3-2.4-12.6-3.59-18.91-.52-2.71-3.17-4-5.61-4.27-.9-.1-1.83-.04-2.73.04-3.02.24-5.99.85-8.86,1.81-3.01,1-4.94,3.97-4.06,7.16.81,2.93,4.15,5.07,7.15,4.06,1.3-.43,2.62-.8,3.95-1.1.5-.1.99-.19,1.49-.28.64-.09.46-.07-.55.07.29-.04.59-.06.88-.09.9-.08,1.83-.13,2.73-.03-1.87-1.43-3.74-2.85-5.61-4.27,1.2,6.3,2.4,12.6,3.6,18.91,1.35-2.38,2.71-4.77,4.06-7.15-4.61,1.58-9.23,3.16-13.84,4.73,2.19.89,4.38,1.78,6.57,2.67-2.92-5.72-5.83-11.43-8.74-17.15-.31,2.34-.61,4.7-.91,7.05.14-.14.31-.27.46-.4.82-.69-1.25.94-.51.4.31-.24.62-.45.95-.66.8-.53,1.63-.99,2.48-1.43.59-.31,1.2-.58,1.81-.85-.72.3-.77.33-.15.08.45-.18.9-.33,1.35-.5,2.99-1.04,4.95-3.94,4.06-7.15-.8-2.9-4.16-5.11-7.15-4.06Z"/>
      </g>
      <path class="st15" d="M45.89,239.79c-6.11,2.1-8.94,4.86-8.94,4.86l8.74,17.14,6.92-2.36h0l6.92-2.37-3.59-18.91s-3.92-.45-10.05,1.63Z"/>
      <path class="st26" d="M45.89,239.79c-.21.07-.43.16-.64.23,5.74-1.84,9.39-1.42,9.39-1.42l3.6,18.91,1.29-.45-3.59-18.91s-3.92-.45-10.05,1.63Z"/>
      <path class="st21" d="M46.43,239.61c-.17.06-.36.12-.54.17-6.11,2.1-8.94,4.86-8.94,4.86l8.74,17.14,1.08-.36-8.75-17.15s2.66-2.61,8.41-4.67Z"/>
    </g>
    <g>
      <g>
        <g>
          <path class="st22" d="M69.45,306.37c.18.53-.1,1.12-.63,1.3h0c-.54.19-1.11-.1-1.3-.64l-14.88-43.52c-.18-.54.1-1.12.64-1.3h0c.53-.19,1.11.1,1.29.63l14.89,43.52Z"/>
          <path d="M63.83,307.91c.02.11.04.22.06.32v-3.09c1.02-1.01,2.03-2.03,3.05-3.03h3.09c2.23.33,3.62,4.93,3,3.11-.09-.27-.18-.55-.28-.81-.34-.97-.67-1.96-1.01-2.94-1.11-3.24-2.21-6.49-3.33-9.73-2.61-7.64-5.23-15.29-7.84-22.93-.57-1.67-1.15-3.34-1.72-5.02-.24-.71-.55-1.41-.67-2.15v3.09c-1.02,1.01-2.03,2.02-3.05,3.03h-3.09c-2.23-.33-3.62-4.93-3-3.12.1.27.19.55.28.82.33.97.67,1.96,1,2.93,1.11,3.24,2.22,6.49,3.33,9.73,2.62,7.65,5.23,15.29,7.85,22.93.78,2.29,1.56,4.57,2.34,6.85,1.03,3,3.95,4.94,7.15,4.06,2.92-.8,5.09-4.16,4.06-7.15-4.17-12.23-8.36-24.45-12.54-36.68-.72-2.11-1.45-4.22-2.17-6.34-.84-2.43-2.44-4.84-5.21-5.26-2.25-.33-4.61-.02-6.28,1.7-1.29,1.35-2.11,3.04-2.11,4.94,0,.63.12,1.43.33,2.08,1.84,5.36,3.67,10.73,5.51,16.09,2.32,6.79,4.65,13.58,6.96,20.37.68,1.98,1.36,3.95,2.03,5.93.1.3.21.61.31.91,1.22,3.57,4.43,5.39,8.13,4.76,1.63-.28,3.56-1.59,4.3-3.11.91-1.87,1.07-3.33.72-5.4-.54-3.13-4.33-4.84-7.15-4.06-3.28.9-4.6,4.03-4.06,7.15Z"/>
        </g>
        <path class="st13" d="M69.45,306.37c.18.53-.1,1.12-.63,1.3h0c-.54.19-1.11-.1-1.3-.64l-14.88-43.52c-.18-.54.1-1.12.64-1.3h0c.53-.19,1.11.1,1.29.63l14.89,43.52Z"/>
        <path class="st14" d="M68.15,306.81l-14.88-43.52c-.14-.42,0-.87.33-1.13-.12,0-.23.02-.34.05-.54.18-.82.76-.64,1.3l14.88,43.52c.19.54.77.83,1.3.64.11-.04.21-.1.29-.17-.42,0-.8-.27-.95-.69Z"/>
        <path class="st2" d="M68.8,306.59l-14.88-43.52c-.14-.42-.53-.69-.96-.69.09-.07.18-.13.31-.17.53-.19,1.11.1,1.29.63l14.89,43.52c.18.53-.1,1.12-.63,1.3-.12.04-.23.05-.35.05.33-.26.48-.71.34-1.13Z"/>
      </g>
      <g>
        <path class="st22" d="M45.59,262.01c1.45,3.71,5.59,5.65,9.4,4.35,3.81-1.3,5.89-5.37,4.77-9.19l-14.17,4.84Z"/>
        <path d="M39.97,263.56c1.33,3.16,3.22,5.83,6.34,7.45,3.13,1.63,6.83,2.02,10.21.95,6.86-2.16,10.67-9.46,8.83-16.34-.77-2.93-4.17-5.09-7.15-4.06-4.72,1.61-9.45,3.23-14.17,4.84-2.99,1.03-4.94,3.96-4.06,7.16.8,2.91,4.16,5.09,7.16,4.06,4.72-1.62,9.44-3.23,14.17-4.84-2.38-1.36-4.77-2.71-7.16-4.06.12.4.28,1.61.07-.15.03.35.03.69.02,1.04-.03,1.26.28-1.41.03-.19-.1.45-.73,1.83.01.2-.14.31-.32.6-.5.88-.35.5-.26.38.28-.37-.15.17-.31.33-.48.49-.88.87,1.12-.75.08-.06-.38.25-1.81.78-.21.19-.35.12-.7.2-1.05.27,1.63-.34.63-.09.15-.08-.44.01-1.58-.21.18.08-.45-.07-.88-.22-1.3-.37,1.55.55.55.21.17-.01-.51-.34-.39-.23.35.32-.18-.14-.35-.29-.51-.45-.29-.27-.97-1.21.01.12-.24-.34-.93-1.8-.24-.17-.62-1.47-1.24-2.64-2.68-3.47-1.34-.79-2.98-1-4.48-.59-2.75.76-5.29,4.23-4.06,7.16Z"/>
      </g>
      <path class="st17" d="M45.59,262.01c1.45,3.71,5.59,5.65,9.4,4.35,3.81-1.3,5.89-5.37,4.77-9.19l-14.17,4.84Z"/>
      <path class="st34" d="M46.95,261.54l-1.37.47c1.45,3.71,5.59,5.65,9.4,4.35.23-.08.46-.17.68-.27-3.61.86-7.34-1.07-8.71-4.55Z"/>
      <path class="st24" d="M58.38,257.64l1.37-.47c1.12,3.82-.96,7.89-4.77,9.19-.23.08-.46.14-.7.2,3.37-1.53,5.15-5.33,4.09-8.92Z"/>
    </g>
    <polygon class="st10" points="50.6 237.67 52.19 245.83 48.79 237.63 50.6 237.67"/>
    <polygon class="st10" points="41.7 240.77 43.5 246.55 40.41 241.4 41.7 240.77"/>
    <polygon class="st10" points="43.87 240.03 47.23 251.67 42.59 240.65 43.87 240.03"/>
    <polygon class="st26" points="58.47 251.45 44.18 256.33 43.5 254.92 57.97 249.98 58.47 251.45"/>
  </g>
</svg>