<?xml version="1.0" encoding="UTF-8"?>
<svg id="Layer_1" xmlns="http://www.w3.org/2000/svg" version="1.1" viewBox="0 0 229.48 319.18">
  <!-- Generator: Adobe Illustrator 29.6.1, SVG Export Plug-In . SVG Version: 2.1.1 Build 9)  -->
  <defs>
    <style>
      .st0 {
        fill: #ffd7c3;
      }

      .st1 {
        fill: #000002;
      }

      .st2 {
        fill: #0461a0;
      }

      .st3 {
        fill: #fff3ee;
      }

      .st4, .st5 {
        fill-rule: evenodd;
      }

      .st4, .st6 {
        fill: #1c75bc;
      }

      .st7 {
        fill: #f38b9e;
      }

      .st8 {
        fill: #6f2a0e;
      }

      .st9 {
        fill: #fff;
      }

      .st10 {
        fill: #fde5d2;
      }

      .st11 {
        fill: #82442f;
      }

      .st12 {
        fill: #27aae1;
      }

      .st13 {
        fill: #ffc0a4;
      }

      .st14 {
        fill: #e6e7e8;
      }

      .st15 {
        fill: #f4bba2;
      }
    </style>
  </defs>
  <g>
    <g>
      <path class="st9" d="M75.15,229.43s-34.55,41.03-19.56,49.88c14.99,8.85,35.97-29.5,35.97-29.5l-16.41-20.38Z"/>
      <path d="M72.64,226.91c-2.92,3.46-5.65,7.1-8.3,10.77-4.77,6.61-9.31,13.54-12.6,21.02-2.86,6.5-5.71,15.04-.77,21.26,2.29,2.89,6.34,4.34,9.96,4.2,4.03-.17,7.8-2.04,11-4.38,6.42-4.7,11.47-11.08,16.01-17.56,2.4-3.42,4.69-6.96,6.7-10.63.84-1.52.48-3.01-.55-4.31-5.47-6.8-10.94-13.58-16.41-20.38-1.21-1.51-3.76-1.26-5.02,0-1.48,1.48-1.21,3.52,0,5.02,5.47,6.79,10.95,13.58,16.42,20.38-.19-1.44-.37-2.87-.56-4.3-2.4,4.38-5.18,8.58-8.11,12.61-.29.4-.59.81-.89,1.21-.15.2-1.12,1.46-.53.7-.69.89-1.4,1.77-2.11,2.63-1.39,1.67-2.85,3.29-4.38,4.82-.72.72-1.46,1.41-2.22,2.08-.37.33-.74.65-1.13.96-.19.16-.38.31-.57.46-.49.39.57-.43-.23.17-.74.55-1.51,1.06-2.3,1.54-.38.23-.76.44-1.15.65-.28.14-1.79.81-.69.36-.75.31-1.52.55-2.31.73-.19.05-.38.07-.57.11-.72.13.91-.11.19-.02-.44.05-.88.06-1.32.05-.32,0-1.64-.2-.36,0-.38-.06-.75-.15-1.1-.25-.19-.05-.37-.12-.55-.18-.68-.24.79.36.12.06-.4-.18-.79-.4-1.17-.64-.92-.58.45.42-.17-.12-.23-.2-.45-.42-.65-.65-.55-.61.5.76-.08-.12-.19-.29-.35-.6-.5-.92-.27-.57.35.88.13.3-.05-.15-.1-.3-.14-.44-.1-.29-.16-.6-.23-.91-.23-1.1.05.7-.03-.18-.03-.4-.05-.79-.05-1.19,0-.35.02-.71.04-1.06.02-.31.2-1.64.02-.35.12-.85.3-1.69.51-2.52.44-1.77,1.06-3.5,1.74-5.19.08-.18.4-.94,0-.01.09-.22.19-.43.28-.65.2-.44.39-.88.6-1.31.45-.97.93-1.92,1.42-2.86.97-1.87,2.01-3.7,3.1-5.51,3.04-5.07,6.43-9.92,9.98-14.64.33-.44.67-.88,1.01-1.32.07-.09.14-.19.21-.28.41-.53-.55.7-.14.18.16-.21.33-.42.49-.63.53-.68,1.05-1.34,1.59-2,.48-.59.96-1.2,1.46-1.78,1.25-1.48,1.45-3.57,0-5.02-1.28-1.28-3.78-1.48-5.02,0Z"/>
    </g>
    <g>
      <g>
        <g>
          <path class="st10" d="M84.01,255.87c1.24.54,1.8,1.97,1.26,3.2l-9.21,21.24c-.53,1.23-1.97,1.8-3.2,1.27l-30.74-13.33c-1.24-.53-1.8-1.97-1.27-3.2l9.21-21.24c.53-1.24,1.97-1.8,3.2-1.27l30.74,13.32Z"/>
          <path d="M80.75,261.45c.11.05.21.11.32.17-1.02-.6-1.66-1.45-1.93-2.52-.44-1.12.13-2.29.56-3.27-.02.05-.05.11-.07.16-.16.36-.32.73-.47,1.09-.61,1.41-1.23,2.83-1.84,4.25-1.63,3.75-3.25,7.49-4.88,11.24-.54,1.25-1.09,2.51-1.63,3.76-.1.24-.2.47-.3.7,0,.01-.01.02-.01.04-.06.1-.11.21-.17.32.61-1.02,1.45-1.66,2.53-1.93,1.09-.43,2.46.22,3.21.54-1.97-.85-3.93-1.7-5.89-2.56-7.15-3.09-14.29-6.19-21.44-9.29-.94-.41-1.89-.82-2.83-1.22-.16-.07-.33-.14-.5-.22,0,0-.01,0-.02,0-.11-.06-.21-.11-.32-.17,1.01.61,1.66,1.45,1.93,2.53.42,1.06-.26,2.57-.53,3.18,1.1-2.53,2.2-5.07,3.3-7.61,1.57-3.62,3.13-7.24,4.71-10.85.38-.87.75-1.73,1.13-2.6.06-.14.12-.25.2-.4-1.28,2.44-3.75,2.25-5.78,1.37.17.08.34.14.51.23,6.32,2.73,12.63,5.47,18.95,8.21,3.76,1.63,7.52,3.26,11.27,4.89,1.67.73,3.15,1.15,4.98.65,1.61-.44,3.01-1.52,3.86-2.97,1.62-2.76.92-7.44-2.31-8.84-5.32-2.3-10.64-4.61-15.96-6.92-3.54-1.54-7.08-3.07-10.62-4.61-2.65-1.15-5.55-2.75-8.45-2.88-3.36-.15-6.69,2.21-7.98,5.22-.51,1.18-1.03,2.36-1.54,3.54-1.62,3.74-3.24,7.48-4.86,11.21-.64,1.47-1.28,2.95-1.92,4.42-.51,1.18-1.26,2.51-1.49,3.74-.74,3.87.88,8.27,4.7,9.93.83.37,1.65.72,2.47,1.07,7.08,3.07,14.16,6.14,21.24,9.21,2.18.95,4.36,1.89,6.55,2.84.79.34,1.57.76,2.42.92,4.04.77,7.29-.86,9.64-4.1.43-.59.65-1.44.94-2.1,1.95-4.51,3.91-9.02,5.87-13.53.75-1.74,1.5-3.47,2.25-5.21.32-.74.7-1.52.96-2.27,1.37-3.93-.58-8.58-4.23-10.49-3.12-1.63-6.99-.82-8.83,2.32-1.71,2.93-.8,7.2,2.31,8.83Z"/>
        </g>
        <path class="st6" d="M84.01,255.87c1.24.54,1.8,1.97,1.26,3.2l-9.21,21.24c-.53,1.23-1.97,1.8-3.2,1.27l-30.74-13.33c-1.24-.53-1.8-1.97-1.27-3.2l9.21-21.24c.53-1.24,1.97-1.8,3.2-1.27l30.74,13.32Z"/>
        <path class="st12" d="M73.62,279.84l-30.73-13.32c-1.24-.54-1.8-1.97-1.27-3.2l-.76,1.74c-.53,1.23.03,2.67,1.27,3.2l30.74,13.33c1.24.53,2.67-.04,3.2-1.27l.75-1.74c-.53,1.23-1.97,1.8-3.21,1.26Z"/>
        <path class="st2" d="M83.26,257.61l-30.74-13.32c-1.24-.54-2.67.04-3.2,1.26l.76-1.74c.53-1.24,1.97-1.8,3.2-1.27l30.74,13.32c1.24.54,1.8,1.97,1.26,3.2l-.76,1.74c.54-1.23-.03-2.67-1.26-3.2Z"/>
      </g>
      <g>
        <g>
          <path class="st10" d="M42.93,247.85l-3.3,7.61-.31.7-.39.92c-.26.6.01,1.3.62,1.56l.12.05c.6.27,1.3-.02,1.56-.62l.62-1.43.08-.18,3.3-7.61c.26-.6-.02-1.3-.62-1.56l-.12-.06c-.6-.26-1.3.02-1.56.62Z"/>
          <path d="M37.35,244.6c-1.05,2.43-2.11,4.86-3.16,7.3-.82,1.88-1.78,3.69-1.8,5.8-.03,3.3,2.43,6.33,5.56,7.22,3.49.99,7-.51,8.85-3.59.42-.69.67-1.54.99-2.29.67-1.54,1.33-3.08,2-4.61.86-1.99,1.96-3.99,1.98-6.19.03-3.3-2.43-6.35-5.56-7.23-3.5-.98-7,.51-8.85,3.59-1.82,3.01-.68,7.07,2.32,8.83,3.07,1.79,7.01.69,8.83-2.31-2.41.57-4.81,1.15-7.21,1.72,2.32,1.03,1.77-1.37-1.64-7.24-.03.07-.06.14-.09.21-.16.37-.32.73-.48,1.1-.51,1.18-1.02,2.35-1.53,3.52-.63,1.45-1.25,2.9-1.88,4.34-1.02,2.36,9.52-.67,7.14-1.71,4.19,1.82.59,9.82,1.99,6.59.14-.31.28-.63.41-.95.31-.7.61-1.4.91-2.1.8-1.83,1.59-3.66,2.38-5.49.72-1.68,1.15-3.15.65-4.98-.44-1.62-1.52-3.01-2.96-3.86-2.76-1.62-7.44-.92-8.84,2.32Z"/>
        </g>
        <path class="st14" d="M42.93,247.85l-3.3,7.61-.31.7-.39.92c-.26.6.01,1.3.62,1.56l.12.05c.6.27,1.3-.02,1.56-.62l.62-1.43.08-.18,3.3-7.61c.26-.6-.02-1.3-.62-1.56l-.12-.06c-.6-.26-1.3.02-1.56.62Z"/>
      </g>
    </g>
    <g>
      <path class="st0" d="M153.37,229.43s34.55,41.03,19.56,49.88c-14.99,8.85-35.97-29.5-35.97-29.5l16.41-20.38Z"/>
      <path d="M150.86,231.94c.79.93,1.55,1.89,2.31,2.86.38.47.75.95,1.12,1.43.51.66-.52-.67.17.22.26.34.52.68.77,1.02,1.05,1.38,2.07,2.77,3.07,4.17,4.76,6.63,9.29,13.58,12.53,21.1-.43-1,.16.41.26.65.16.43.32.85.47,1.27.32.88.6,1.77.85,2.68.22.78.4,1.56.54,2.36.03.19.06.38.09.57.12.72-.11-.91-.02-.2.05.42.08.84.1,1.27.03.68,0,1.36-.07,2.04.15-1.35,0-.17-.06.16-.08.35-.19.69-.31,1.04-.21.59.38-.87.13-.3-.06.14-.13.27-.2.4-.14.27-.3.51-.47.76-.35.51.59-.72.19-.24-.1.12-.2.23-.31.33-.23.25-1.26,1.04-.22.27-.28.2-.57.39-.86.55-.27.15-1.54.69-.41.24-.36.14-.73.25-1.1.35-.18.05-.37.09-.55.13-.63.12.98-.09,0,0-.37.03-.75.03-1.12.03-.31,0-1.66-.19-.38,0-.85-.13-1.68-.37-2.49-.66-.19-.07-.38-.14-.57-.22,1,.4.29.12.08.02-.39-.18-.78-.38-1.15-.58-.86-.47-1.69-1-2.5-1.56-.21-.15-1.44-1.07-.61-.44-.38-.3-.76-.61-1.13-.92-.84-.7-1.63-1.43-2.42-2.19-2.37-2.29-4.53-4.8-6.56-7.38-.12-.14-.83-1.07-.24-.29-.26-.34-.51-.67-.77-1.01-.5-.66-.98-1.33-1.47-2-.85-1.2-1.69-2.41-2.5-3.62-1.78-2.67-3.49-5.38-5.03-8.19-.18,1.43-.37,2.86-.55,4.3,5.47-6.8,10.94-13.58,16.41-20.38,1.21-1.51,1.48-3.54,0-5.02-1.26-1.26-3.8-1.51-5.02,0-5.47,6.79-10.94,13.58-16.41,20.38-1.04,1.29-1.39,2.78-.55,4.31,2.4,4.38,5.18,8.57,8.11,12.61,4.96,6.83,10.87,14.28,18.64,18.05,3.59,1.74,7.75,2.61,11.62,1.24,3.62-1.28,6.38-3.91,7.48-7.63,1-3.36.44-7.11-.46-10.42-1.07-3.94-2.83-7.73-4.72-11.34-5.06-9.7-11.64-18.83-18.68-27.19-1.25-1.48-3.74-1.28-5.02,0-1.45,1.45-1.24,3.54,0,5.02Z"/>
    </g>
    <g>
      <path class="st6" d="M79,234.91s-16.81,72.87-4.28,77.26c9.1,3.19,17.54-11.33,17.54-11.33,0,0,7.26,2.22,19.76,2.44,12.51.23,22.57-2.59,22.57-2.59,0,0,9.33,16.14,19.39,12.81,10.06-3.33-5.93-78.78-5.93-78.78l-69.06.19Z"/>
      <path d="M75.58,233.97c-2.47,10.73-4.5,21.59-6.17,32.47-1.32,8.56-2.45,17.2-2.79,25.86-.25,6.21-.45,13.35,2.4,19.05,2.86,5.73,10,5.67,15.06,2.99,4.68-2.47,8.61-7.16,11.25-11.69-1.34.54-2.67,1.09-4.01,1.63,1.69.51,3.46.83,5.19,1.14,5.12.89,10.32,1.33,15.51,1.43,7.79.16,15.98-.63,23.52-2.72-1.33-.54-2.67-1.09-4.01-1.63,3.88,6.69,10.37,13.99,18.44,14.94,3.46.41,7.1-.62,8.81-3.8,1.28-2.38,1.64-5.15,1.88-7.79.66-7.11-.1-14.38-.85-21.44-.94-8.73-2.25-17.42-3.71-26.08-1.38-8.19-2.89-16.39-4.61-24.53-.32-1.53-1.92-2.61-3.42-2.61-11.42.03-22.85.06-34.27.09-11.59.04-23.19.06-34.78.1h0c-4.58.01-4.58,7.11,0,7.1,11.43-.03,22.85-.06,34.28-.09,11.59-.03,23.19-.06,34.78-.09h0c-1.14-.87-2.28-1.74-3.42-2.61,2.24,10.6,4.15,21.28,5.82,31.99.34,2.13.65,4.27.96,6.41.07.52.14,1.03.21,1.55.04.26.08.51.11.77.12.89-.11-.81.01.09.14,1.11.29,2.23.43,3.34.51,4.1.94,8.21,1.24,12.33.26,3.5.41,7.03.32,10.55-.03,1.41-.12,2.82-.29,4.23-.08.64.14-.97.05-.35-.02.15-.04.29-.06.43-.04.28-.1.55-.15.83-.1.53-.23,1.06-.39,1.58-.11.37-.62,1.57-.02.17-.12.27-.25.53-.4.77-.49.81.66-.71.05-.05-.66.72.8-.46.08-.04-.28.16-.8.3.53-.21-.37.14-.77.23-1.15.31-.4.08-.36.07.14,0-.18.02-.36.04-.54.04-.44.02-.89,0-1.33-.04,1.01.09-.14-.05-.36-.1-.44-.1-.86-.24-1.28-.39-.37-.14-.34-.13.1.06-.25-.1-.5-.23-.74-.35-.41-.2-.81-.43-1.2-.68-.32-.19-.63-.4-.93-.62-.15-.1-.3-.21-.45-.33-.77-.55.57.46-.17-.13-.65-.53-1.27-1.1-1.87-1.69-1.18-1.15-2.26-2.41-3.28-3.7.64.81,0-.01-.13-.19-.21-.27-.4-.55-.61-.83-.29-.42-.58-.84-.86-1.27-.27-.41-.53-.82-.78-1.23-.8-1.38-2.48-2.06-4.01-1.63-2,.55-4.06.94-6.11,1.29-2.36.41-3.66.58-6.17.81-2.94.28-5.89.39-8.84.37-2.76-.03-5.52-.18-8.26-.43-1.14-.1-2.26-.23-3.39-.38.37.05.35.05-.07-.01-.32-.04-.64-.09-.96-.14-.48-.07-.97-.16-1.45-.24-1.74-.29-3.5-.62-5.19-1.13-1.52-.47-3.23.28-4.01,1.63-.44.76-.95,1.49-1.46,2.21-.24.34-.49.68-.74,1.01.66-.88-.31.37-.47.58-.73.88-1.51,1.72-2.33,2.53-.4.39-.81.76-1.23,1.13-.21.18-.43.36-.65.54.67-.55-.07.04-.18.12-.45.32-.92.62-1.41.89-.24.14-.48.27-.73.39-.16.08-.33.16-.49.22.43-.18.47-.2.1-.05-.5.19-1.02.32-1.54.43-.89.18.79-.07-.11,0-.27.02-.53.02-.8.02-.19,0-1.07-.12-.13.02-.27-.05-.55-.11-.81-.19-.21-.05-.42-.12-.63-.2,1.24.44.73.32.43.17-.16-.09-.32-.19-.47-.3,1.12.81.47.38.21.12-.14-.14-.27-.29-.4-.45.89,1.11.26.32.07,0-.12-.2-.22-.4-.33-.61-.06-.11-.1-.22-.16-.34-.23-.51.38.92.16.39-.22-.55-.39-1.12-.55-1.69-.16-.59-.28-1.19-.4-1.79-.06-.32-.11-.65-.16-.97-.04-.27-.12-.94.03.27-.03-.24-.05-.47-.08-.7-.18-1.61-.26-3.21-.29-4.82-.09-3.81.11-7.62.41-11.42.16-2.1.37-4.19.6-6.28.11-1.03.23-2.05.36-3.08.06-.52.13-1.04.19-1.55.03-.26.07-.52.1-.77.02-.2.18-1.4.05-.35,1.09-8.1,2.49-16.16,4.04-24.18.94-4.85,1.92-9.69,3.03-14.49.43-1.88-.56-3.83-2.48-4.37-1.81-.5-3.93.6-4.37,2.48Z"/>
    </g>
    <g>
      <g>
        <path class="st1" d="M181.94,315.18c0,2-30.26,3.61-67.6,3.61s-67.6-1.62-67.6-3.61,30.26-3.61,67.6-3.61,67.6,1.62,67.6,3.61Z"/>
        <path d="M114.34,319.18c-18.07,0-35.05-.38-47.82-1.06-20.16-1.08-20.16-2.34-20.16-2.95s0-1.86,20.16-2.94c12.78-.68,29.76-1.06,47.82-1.06s35.04.38,47.82,1.06c20.16,1.08,20.16,2.33,20.16,2.94s0,1.87-20.16,2.95c-12.77.68-29.75,1.06-47.82,1.06ZM47.2,315.18c2.1,1.58,29.12,3.23,67.14,3.23s65.05-1.65,67.14-3.23c-2.1-1.57-29.12-3.22-67.14-3.22s-65.04,1.65-67.14,3.22Z"/>
      </g>
      <g>
        <g>
          <polygon class="st10" points="144.91 239.93 114.57 239.93 114.32 239.93 83.98 239.93 70.83 283.16 114.32 283.16 114.57 283.16 158.05 283.16 144.91 239.93"/>
          <path d="M144.91,232.19h-60.93c-3.51,0-6.46,2.38-7.47,5.69-3.74,12.33-7.49,24.65-11.24,36.98-.64,2.08-1.27,4.17-1.9,6.25-1.47,4.84,2.53,9.81,7.47,9.81h87.22c4.94,0,8.94-4.96,7.47-9.81-3.75-12.33-7.5-24.65-11.25-36.98-.63-2.08-1.26-4.17-1.9-6.25-1.23-4.04-5.38-6.55-9.53-5.41-3.99,1.1-6.64,5.49-5.41,9.53,3.75,12.32,7.49,24.65,11.24,36.97.63,2.09,1.27,4.17,1.9,6.26,2.49-3.27,4.98-6.54,7.47-9.81h-87.22c2.49,3.27,4.98,6.54,7.47,9.81,3.75-12.33,7.5-24.65,11.25-36.97.64-2.08,1.27-4.17,1.9-6.25-2.49,1.89-4.98,3.79-7.48,5.69h60.93c4.22,0,7.74-3.53,7.74-7.75s-3.52-7.75-7.74-7.75Z"/>
        </g>
        <polygon class="st9" points="144.91 239.93 114.57 239.93 114.32 239.93 83.98 239.93 70.83 283.16 114.32 283.16 114.57 283.16 158.05 283.16 144.91 239.93"/>
      </g>
    </g>
    <polygon class="st2" points="153.47 294.79 73.61 294.79 73.79 290.95 153.15 290.95 153.47 294.79"/>
    <g>
      <path class="st0" d="M132.07,231.44c0,9.79-7.94,17.72-17.73,17.72s-17.72-7.94-17.72-17.72,7.94-17.73,17.72-17.73,17.73,7.94,17.73,17.73Z"/>
      <path d="M128.84,231.44c-.05,5.18-2.74,9.86-7.18,12.52-4.48,2.68-10.14,2.57-14.63,0-4.47-2.56-7.13-7.41-7.18-12.52-.05-5.15,2.8-9.89,7.18-12.52,4.48-2.69,10.14-2.57,14.63,0,4.47,2.56,7.13,7.41,7.18,12.52.04,4.16,6.49,4.16,6.45,0-.06-6.26-2.85-12.34-7.77-16.26-5.17-4.12-11.81-5.58-18.25-4.08-5.97,1.39-11.2,5.76-13.81,11.26-2.85,5.99-2.65,12.85.3,18.76,4.3,8.62,14.44,12.79,23.65,10.65,9.3-2.17,15.79-10.94,15.88-20.33.04-4.17-6.41-4.16-6.45,0Z"/>
    </g>
    <g>
      <g>
        <g>
          <g>
            <g>
              <path class="st10" d="M10.77,90.41s-1.57,39.03-.42,62.93c1.15,23.91,16.28,32.15,16.28,32.15v-70.14l-15.86-24.94Z"/>
              <path d="M1.73,90.41c-.72,17.93-1.09,35.91-.72,53.86.14,6.66.33,13.32,1.68,19.86,1.17,5.63,3.41,11.24,6.5,16.09,2.19,3.43,4.83,6.73,7.93,9.39,1.53,1.32,3.16,2.71,4.95,3.69,5.96,3.27,13.6-.81,13.6-7.8v-70.06c0-3.04-1.45-4.98-2.94-7.32-1.85-2.9-3.69-5.81-5.54-8.71-2.88-4.52-5.75-9.04-8.62-13.56-2.64-4.14-8-5.8-12.37-3.23-4.13,2.41-5.89,8.2-3.24,12.36,5.29,8.31,10.58,16.63,15.86,24.94-.41-1.52-.82-3.04-1.23-4.56v70.14c4.53-2.6,9.07-5.2,13.6-7.8-.72-.4-1.4-.91-2.05-1.4.61.47,1.22.94,1.82,1.42-2.15-1.68-4.05-3.65-5.73-5.8.47.61.94,1.22,1.41,1.83-1.99-2.6-3.62-5.44-4.91-8.45.3.72.61,1.44.91,2.16-1.6-3.81-2.63-7.82-3.18-11.92.11.8.21,1.6.32,2.39-.76-5.92-.7-11.99-.78-17.95-.08-6.15-.06-12.3.01-18.44.11-9.37.34-18.73.66-28.08.03-1.01.07-2.02.11-3.03.2-4.92-4.26-9.04-9.03-9.04-5.08,0-8.84,4.12-9.04,9.04Z"/>
            </g>
            <path class="st8" d="M10.77,86.93s-1.57,42.52-.42,66.42c1.15,23.91,16.28,32.15,16.28,32.15v-70.14l-15.86-28.43Z"/>
            <path class="st11" d="M13.71,153.34c-.89-18.56-.14-48.35.23-60.74l-3.17-5.68s-1.57,42.52-.42,66.42c1.15,23.91,16.28,32.15,16.28,32.15v-2.48c-4.53-3.96-12.12-13.01-12.93-29.67Z"/>
          </g>
          <g>
            <g>
              <path class="st10" d="M218.7,90.41s1.56,39.03.42,62.93c-1.15,23.91-16.28,32.15-16.28,32.15v-70.14l15.87-24.94Z"/>
              <path d="M209.66,90.41c.72,17.93,1.09,35.91.72,53.86-.1,4.54-.13,9.14-.71,13.65.1-.8.21-1.6.32-2.39-.56,4.1-1.58,8.11-3.18,11.92.3-.71.61-1.44.91-2.16-1.29,3.01-2.92,5.85-4.91,8.45.47-.61.94-1.22,1.41-1.83-1.67,2.15-3.57,4.12-5.73,5.8.61-.47,1.22-.95,1.83-1.42-.65.5-1.33,1.01-2.05,1.4,4.53,2.6,9.07,5.2,13.6,7.8v-70.14c-.41,1.52-.82,3.04-1.24,4.56,5.29-8.31,10.58-16.63,15.87-24.94,2.65-4.16.89-9.95-3.24-12.36-4.37-2.56-9.73-.91-12.37,3.23-3.28,5.17-6.57,10.33-9.85,15.49-1.77,2.78-3.53,5.55-5.3,8.32-1.11,1.75-1.95,3.44-1.95,5.69v70.14c0,7,7.64,11.07,13.6,7.8,1.84-1,3.5-2.43,5.07-3.79,3.19-2.74,5.87-6.19,8.09-9.73,3.16-5.06,5.32-10.91,6.44-16.75,1.27-6.65,1.37-13.43,1.49-20.18.32-17.47-.05-34.97-.74-52.43-.2-4.92-3.96-9.04-9.04-9.04-4.78,0-9.24,4.12-9.04,9.04Z"/>
            </g>
            <path class="st8" d="M218.7,86.93s1.56,42.52.42,66.42c-1.15,23.91-16.28,32.15-16.28,32.15v-70.14l15.87-28.43Z"/>
            <path class="st11" d="M218.7,86.93l-3.74,6.71c.38,12.93,1.07,41.64.2,59.71-.76,15.95-7.75,24.92-12.32,29.14v3.01s15.13-8.24,16.28-32.15c1.15-23.9-.42-66.42-.42-66.42Z"/>
          </g>
        </g>
        <g>
          <g>
            <path class="st10" d="M27.98,83.29c-.31,12.42,0,85.85,0,85.85,0,33.36,18.7,64.29,88.37,64,68.95-.28,85.27-30.64,85.27-64v-85.85H27.98Z"/>
            <path d="M18.94,83.29c-.36,14.59-.15,29.2-.12,43.79.02,13.73.06,27.47.12,41.21.06,14.3,2.91,28.9,11.15,40.87,5.35,7.77,12.3,14.11,20.4,18.93,9.32,5.54,19.93,8.99,30.54,11.04,14.27,2.75,28.94,3.45,43.43,2.87,12.92-.52,26.08-2.12,38.42-6.11,9.92-3.21,19.13-7.96,27.03-14.78,6.1-5.25,11.11-12.05,14.34-19.42,3.55-8.09,5.4-16.38,6.12-25.19.32-3.86.29-7.72.29-11.59v-81.62c0-4.92-4.11-9.04-9.04-9.04H27.98c-4.92,0-9.04,4.12-9.04,9.04s4.11,9.04,9.04,9.04h173.64c-3.01-3.01-6.02-6.03-9.04-9.04v77.05c0,6.78.16,13.58-.73,20.33.11-.8.22-1.6.32-2.4-.73,5.44-2.06,10.8-4.19,15.87.3-.72.61-1.44.91-2.16-1.67,3.94-3.81,7.66-6.43,11.06.47-.62.94-1.22,1.41-1.84-2.6,3.36-5.63,6.35-8.98,8.96.61-.47,1.22-.94,1.83-1.41-4.32,3.33-9.09,5.99-14.11,8.12.72-.3,1.44-.61,2.16-.91-8.56,3.61-17.68,5.69-26.87,6.93.8-.1,1.6-.21,2.4-.32-16.23,2.16-33.02,2.19-49.26.04.8.11,1.6.21,2.41.32-9.35-1.26-18.63-3.38-27.36-7.03.72.3,1.44.61,2.16.91-5.25-2.22-10.25-4.99-14.77-8.47.61.47,1.22.95,1.83,1.41-3.53-2.73-6.71-5.86-9.46-9.39.47.61.95,1.22,1.41,1.83-2.68-3.49-4.9-7.3-6.63-11.35.3.72.61,1.44.91,2.16-2.12-5.02-3.46-10.31-4.19-15.7.11.8.22,1.6.32,2.39-.6-4.51-.68-9.04-.69-13.6-.03-6.28-.05-12.55-.06-18.83-.06-17.51-.11-35.02-.04-52.53.02-3.82.02-7.64.11-11.46.12-4.92-4.21-9.04-9.04-9.04s-8.92,4.12-9.04,9.04Z"/>
          </g>
          <path class="st0" d="M27.98,83.29c-.31,12.42,0,85.85,0,85.85,0,33.36,18.7,64.29,88.37,64,68.95-.28,85.27-30.64,85.27-64v-85.85H27.98Z"/>
        </g>
        <g>
          <g>
            <g>
              <path class="st10" d="M66.15,22.89l.17-.48S25.44,39.58,14.6,75.04c-10.84,35.46-2.48,60.53-2.48,60.53l19.42-13.55s-7.2-68.68,34.61-99.12Z"/>
              <path d="M74.86,25.3c.06-.16.11-.32.17-.48,1.04-2.98-.16-6.63-2.33-8.79-2.06-2.05-5.93-3.53-8.79-2.33-12.83,5.4-24.7,13.44-34.83,22.95-8.36,7.85-15.66,17.33-20.15,27.92C2.99,78.6.27,94.22.02,109.41c-.12,7.16.5,14.32,1.72,21.37.42,2.41.89,4.87,1.66,7.19.76,2.28,2.05,4.17,4.16,5.4,2.62,1.53,6.53,1.8,9.12,0,6.48-4.52,12.95-9.04,19.43-13.55,2.45-1.71,4.81-4.55,4.47-7.8-1.01-9.71-.56-19.72.46-29.39.15-1.46.33-2.91.52-4.37-.1.8-.21,1.6-.32,2.41,1.5-11.14,4.16-22.15,8.54-32.52-.31.71-.61,1.44-.91,2.16,2.86-6.73,6.45-13.14,10.91-18.95-.47.61-.94,1.22-1.41,1.83,3.66-4.74,7.87-9.02,12.61-12.71-.61.47-1.22.95-1.83,1.41.52-.4,1.05-.8,1.59-1.19,1.98-1.45,3.48-2.96,4.15-5.4.64-2.34.31-4.88-.91-6.97-1.18-2.02-3.14-3.53-5.4-4.15-2.14-.59-5.11-.45-6.96.91-9.7,7.1-17.65,16.01-23.61,26.47-5.28,9.27-9.02,19.49-11.51,29.85-3.62,15.01-5.01,30.8-4.27,46.22.07,1.47.15,2.93.3,4.39,1.5-2.6,2.98-5.21,4.47-7.81-6.47,4.52-12.95,9.04-19.42,13.55,4.42,1.79,8.85,3.6,13.28,5.4-1.12-3.38-1.69-6.99-2.17-10.51.1.8.21,1.6.32,2.4-1.32-9.87-1.14-19.9.18-29.76-.1.8-.21,1.6-.32,2.4,1.22-8.85,3.16-17.88,6.61-26.14-.31.71-.61,1.44-.91,2.16,2.4-5.67,5.59-10.95,9.35-15.82-.47.61-.94,1.22-1.41,1.84,5.03-6.46,10.97-12.13,17.44-17.13-.61.47-1.22.94-1.83,1.41,6.97-5.36,14.65-10.33,22.78-13.77-.72.3-1.44.61-2.16.91h0c-3.71-3.71-7.41-7.41-11.12-11.12-.06.16-.11.32-.17.47-1.62,4.66,1.81,9.88,6.32,11.12,4.99,1.37,9.5-1.67,11.12-6.31Z"/>
            </g>
            <path class="st6" d="M66.15,22.89l.17-.48S25.44,39.58,14.6,75.04c-10.84,35.46-2.48,60.53-2.48,60.53l19.42-13.55s-7.2-68.68,34.61-99.12Z"/>
            <path class="st2" d="M19.81,75.04c9.88-29.81,46.51-52.62,46.51-52.62,0,0-40.88,17.16-51.72,52.62-10.84,35.46-2.48,60.53-2.48,60.53l4.38-3.07c-1.8-7.7-5.96-29.51,3.31-57.46Z"/>
          </g>
          <g>
            <g>
              <path class="st10" d="M163.32,22.89l-.17-.48s40.88,17.16,51.72,52.62c10.84,35.46,2.49,60.53,2.49,60.53l-19.42-13.55s7.2-68.68-34.61-99.12Z"/>
              <path d="M172.03,20.49c-.06-.15-.11-.32-.17-.47-3.71,3.71-7.41,7.41-11.12,11.12h0c-.72-.31-1.44-.61-2.16-.91,8.13,3.44,15.81,8.41,22.79,13.77-.61-.47-1.22-.94-1.83-1.41,6.47,5,12.41,10.67,17.43,17.13-.47-.61-.94-1.23-1.41-1.84,3.76,4.87,6.95,10.15,9.35,15.82-.3-.72-.61-1.44-.91-2.16,3.45,8.27,5.39,17.29,6.6,26.14-.1-.8-.21-1.6-.32-2.4,1.32,9.86,1.5,19.89.19,29.76.1-.8.21-1.6.32-2.4-.48,3.52-1.05,7.13-2.17,10.51,4.42-1.8,8.85-3.6,13.28-5.4-6.47-4.52-12.95-9.04-19.42-13.55,1.5,2.6,2.98,5.21,4.48,7.81,1.01-9.71.56-19.72-.46-29.39-2.16-20.59-7.62-41.63-19.89-58.64-5.3-7.34-11.44-13.55-18.74-18.89-1.86-1.36-4.83-1.5-6.97-.91-2.26.62-4.22,2.13-5.4,4.15-1.22,2.09-1.55,4.63-.91,6.97.67,2.45,2.17,3.95,4.15,5.4.54.39,1.06.79,1.59,1.19-.61-.47-1.22-.94-1.83-1.41,4.73,3.68,8.94,7.97,12.61,12.71-.47-.61-.94-1.22-1.41-1.83,4.45,5.81,8.04,12.22,10.9,18.95-.31-.72-.61-1.44-.91-2.16,4.37,10.37,7.04,21.38,8.54,32.52-.11-.81-.21-1.6-.32-2.41,1.47,11.02,2.03,22.39,1,33.49,0,.09-.02.18-.03.27-.34,3.25,2.02,6.09,4.48,7.8,6.47,4.51,12.95,9.04,19.42,13.55,1.91,1.33,4.79,1.51,6.97.91,3.16-.87,5.3-3.27,6.31-6.31,1.77-5.35,2.41-11.23,2.94-16.79,1.27-13.31-.09-26.91-3.09-39.9-1.66-7.18-3.94-14.14-7.25-20.74-2.78-5.55-6.4-10.59-10.32-15.38-6.64-8.13-14.84-14.96-23.48-20.85-6.09-4.15-12.52-7.75-19.31-10.6-2.87-1.21-6.74.28-8.8,2.33-2.16,2.16-3.37,5.81-2.32,8.79.05.16.11.32.17.48,1.62,4.65,6.12,7.68,11.12,6.31,4.51-1.25,7.94-6.46,6.31-11.12Z"/>
            </g>
            <path class="st6" d="M163.32,22.89l-.17-.48s40.88,17.16,51.72,52.62c10.84,35.46,2.49,60.53,2.49,60.53l-19.42-13.55s7.2-68.68-34.61-99.12Z"/>
          </g>
        </g>
        <path class="st2" d="M209.66,75.04c-9.89-29.81-46.51-52.62-46.51-52.62,0,0,40.88,17.16,51.72,52.62,10.84,35.46,2.49,60.53,2.49,60.53l-4.38-3.07c1.8-7.7,5.96-29.51-3.31-57.46Z"/>
        <g>
          <g>
            <path class="st10" d="M114.73,9.04C19.28,9.04,31.17,122.41,31.17,122.41c0,0,33.57-20.33,83.56-20.33s83.56,20.33,83.56,20.33c0,0,11.89-113.38-83.56-113.38Z"/>
            <path d="M114.73,0c-19.29.03-39.27,4.57-54.83,16.46-7.11,5.43-13.06,11.67-18.2,19-4.52,6.45-7.92,13.55-10.79,20.86-5.02,12.79-7.49,26.5-8.65,40.14-.68,7.96-.84,16.01-.29,23.99.05.65.09,1.3.16,1.96.34,3.26,1.51,6.06,4.48,7.8,2.76,1.61,6.37,1.67,9.12,0,4.07-2.46,8.5-4.42,12.88-6.28-.72.31-1.44.61-2.16.91,14.69-6.18,30.24-10.26,46.02-12.4-.8.11-1.6.21-2.4.32,16.36-2.18,32.96-2.18,49.33,0-.8-.11-1.6-.21-2.4-.32,15.77,2.14,31.33,6.22,46.01,12.4-.72-.3-1.44-.61-2.16-.91,4.38,1.85,8.81,3.81,12.88,6.28,2.75,1.67,6.36,1.61,9.12,0,2.97-1.74,4.14-4.54,4.48-7.8.54-5.14.55-10.36.43-15.51-.28-12.55-1.82-25.22-4.96-37.38-3.9-15.12-10.6-29.47-20.71-41.44-11.4-13.49-27.63-22.37-44.84-25.87C129.86.71,122.27,0,114.73,0c-4.92-.01-9.04,4.12-9.04,9.04s4.11,9.03,9.04,9.04c4.72,0,9.43.28,14.1.9-.8-.11-1.6-.22-2.4-.33,7.22.97,14.32,2.76,21.05,5.58-.72-.31-1.44-.61-2.16-.91,5.46,2.31,10.6,5.28,15.3,8.89-.61-.47-1.22-.94-1.83-1.41,4.72,3.65,8.93,7.92,12.58,12.63-.47-.61-.94-1.22-1.41-1.83,4.52,5.87,8.15,12.35,11.04,19.15-.3-.72-.61-1.44-.91-2.17,4.35,10.32,7.01,21.29,8.5,32.36-.11-.8-.21-1.6-.32-2.4,1.26,9.47,1.73,19.07,1.33,28.62-.07,1.75-.16,3.51-.34,5.26,4.53-2.61,9.07-5.21,13.6-7.81-3.08-1.86-6.38-3.39-9.66-4.87-9.24-4.16-18.78-7.58-28.58-10.18-28.75-7.63-59-8.39-88.16-2.67-10.71,2.1-21.24,5.16-31.4,9.15-5.93,2.34-11.84,4.88-17.41,7.98-.35.19-.69.39-1.03.59,4.53,2.6,9.07,5.2,13.6,7.81-.54-5.14-.54-10.36-.43-15.51.14-6.14.6-12.28,1.42-18.37-.11.8-.21,1.6-.32,2.4,1.5-11.07,4.15-22.04,8.5-32.36-.31.72-.61,1.44-.91,2.17,2.89-6.81,6.52-13.29,11.04-19.15-.47.61-.94,1.22-1.41,1.83,3.65-4.71,7.86-8.98,12.58-12.63-.61.47-1.22.94-1.82,1.41,4.69-3.61,9.84-6.58,15.3-8.89-.72.3-1.44.61-2.16.91,6.73-2.82,13.83-4.61,21.05-5.58-.8.11-1.6.22-2.4.33,4.68-.62,9.39-.89,14.1-.9,4.93,0,9.04-4.11,9.04-9.04S119.66-.01,114.73,0Z"/>
          </g>
          <path class="st6" d="M114.73,9.04C19.28,9.04,31.17,122.41,31.17,122.41c0,0,33.57-20.33,83.56-20.33s83.56,20.33,83.56,20.33c0,0,11.89-113.38-83.56-113.38Z"/>
          <path class="st12" d="M114.73,15.23c73.8,0,83.43,67.76,84.01,98.51.5-26.5-4.72-104.7-84.01-104.7S30.22,87.24,30.73,113.74c.57-30.75,10.21-98.51,84-98.51Z"/>
          <path class="st2" d="M198.29,112.85s-33.58-20.33-83.56-20.33-83.56,20.33-83.56,20.33c0,0-.22-2.06-.35-5.62-.4,10.79.35,18.01.35,18.01,0,0,33.58-20.32,83.56-20.32s83.56,20.32,83.56,20.32c0,0,.76-7.22.35-18.01-.14,3.56-.35,5.62-.35,5.62Z"/>
        </g>
        <path class="st15" d="M190.89,156.46s-2.29,2.38-9.15,2.54c-6.86.16-30.75-16.22-66.94-16.22h-.13c-36.2,0-60.08,16.37-66.95,16.22-6.86-.16-9.14-2.54-9.14-2.54l-10.69-8.42c0,2.84.02,5.57.03,8.15l10.66,8.4s2.28,2.39,9.14,2.55c6.86.16,30.75-16.22,66.95-16.22.02,0,.03,0,.05,0h.03s.03,0,.05,0c36.2,0,60.08,16.38,66.94,16.22,6.86-.16,9.15-2.55,9.15-2.55l10.73-8.45v-8.13l-10.73,8.45Z"/>
        <g>
          <path class="st10" d="M114.81,107.46h-.16c-70.26,0-89.8,31.16-89.8,31.16l13.73,10.81s2.28,2.38,9.14,2.54c6.86.16,30.75-16.21,66.95-16.21h.13c36.2,0,60.08,16.37,66.94,16.21,6.86-.16,9.15-2.54,9.15-2.54l13.72-10.81s-19.55-31.16-89.8-31.16Z"/>
          <path d="M114.81,98.42c-24.14.15-48.58,3.39-70.52,13.95-6.42,3.08-12.34,6.96-17.83,11.49-2.6,2.15-5.09,4.52-7.16,7.19-.74.95-1.6,1.96-2.26,3-1.97,3.12-1.66,8.53,1.41,10.95,4.57,3.6,9.14,7.2,13.71,10.8,1.3,1.03,2.43,2.03,3.95,2.68,3.77,1.63,7.63,2.56,11.79,2.52,3.2-.02,6.27-1.13,9.2-2.28,5.92-2.31,11.74-4.82,17.75-6.89,8.51-2.93,17.28-5.1,26.21-6.3-.8.1-1.6.21-2.4.32,10.67-1.4,21.48-1.4,32.15,0-.8-.1-1.61-.21-2.41-.32,11.77,1.59,23.13,4.92,34.16,9.24,3.63,1.42,7.22,2.97,10.86,4.36,3.28,1.24,6.58,2.05,10.12,1.77,5.07-.4,9.65-1.7,13.6-4.96.98-.81,2-1.59,3-2.38,3.62-2.85,7.24-5.7,10.86-8.56,3.07-2.42,3.38-7.83,1.41-10.95-4.19-6.66-11.01-11.93-17.45-16.17-7.1-4.66-14.98-8.16-22.97-10.97-11.31-3.97-23.17-6.09-35.06-7.37-7.34-.79-14.73-1.11-22.12-1.12-4.92,0-9.04,4.12-9.04,9.04s4.11,9.04,9.04,9.04c8.95.01,17.9.51,26.77,1.69-.8-.11-1.6-.21-2.4-.32,11.82,1.59,23.53,4.36,34.54,9.01-.72-.31-1.44-.61-2.16-.91,6.67,2.83,13.07,6.34,18.82,10.77-.61-.47-1.22-.94-1.83-1.41,3.24,2.52,6.35,5.32,8.87,8.57-.47-.61-.94-1.22-1.41-1.82.28.36.56.73.81,1.12.47-3.65.95-7.3,1.41-10.95-4.66,3.67-9.33,7.33-13.98,11.03.61-.47,1.22-.95,1.83-1.41-.57.43-1.2.76-1.85,1.03.72-.3,1.44-.61,2.16-.91-1.3.53-2.66.85-4.05,1.05.8-.11,1.6-.21,2.4-.32-1.27.16-2.59.33-3.87.17.8.11,1.6.22,2.4.32-2.63-.36-5.19-1.52-7.63-2.51-4.02-1.61-8.02-3.28-12.08-4.79-12.36-4.6-25.17-7.56-38.32-8.72-14.4-1.28-29.08.17-43.09,3.64-9.75,2.43-19.02,6.12-28.32,9.87-2.44.99-5,2.15-7.63,2.51.8-.1,1.61-.21,2.41-.32-1.28.16-2.61-.01-3.88-.17.8.1,1.6.21,2.4.32-1.39-.2-2.75-.53-4.05-1.05.72.3,1.44.61,2.16.91-.65-.28-1.29-.6-1.85-1.03.61.47,1.22.94,1.83,1.41-4.64-3.7-9.31-7.36-13.98-11.03.47,3.65.95,7.3,1.41,10.95.25-.39.53-.76.81-1.12-.47.61-.94,1.22-1.41,1.82,2.52-3.26,5.63-6.06,8.88-8.57-.61.47-1.22.94-1.83,1.41,5.74-4.43,12.15-7.94,18.81-10.77-.72.3-1.44.61-2.16.91,11.01-4.64,22.72-7.42,34.53-9.01-.8.11-1.6.21-2.4.32,8.94-1.18,17.92-1.62,26.93-1.69,4.93-.03,9.04-4.08,9.04-9.04s-4.11-9.07-9.04-9.04Z"/>
        </g>
        <path class="st6" d="M114.81,107.46h-.16c-70.26,0-89.8,31.16-89.8,31.16l13.73,10.81s2.28,2.38,9.14,2.54c6.86.16,30.75-16.21,66.95-16.21h.13c36.2,0,60.08,16.37,66.94,16.21,6.86-.16,9.15-2.54,9.15-2.54l13.72-10.81s-19.55-31.16-89.8-31.16Z"/>
        <path class="st2" d="M114.65,111.34h.16c58.28,0,81.67,21.44,87.94,28.75l1.86-1.47s-19.55-31.16-89.8-31.16h-.16c-70.26,0-89.8,31.16-89.8,31.16l1.86,1.47c6.28-7.31,29.67-28.75,87.94-28.75Z"/>
        <path class="st12" d="M190.89,144.69s-2.29,2.38-9.15,2.54c-6.86.16-30.75-16.21-66.94-16.21h-.13c-36.2,0-60.08,16.38-66.95,16.21-6.86-.16-9.14-2.54-9.14-2.54l-11.42-8.99c-1.61,1.81-2.31,2.92-2.31,2.92l13.73,10.81s2.28,2.38,9.14,2.54c6.86.16,30.75-16.21,66.95-16.21h.13c36.2,0,60.08,16.37,66.94,16.21,6.86-.16,9.15-2.54,9.15-2.54l13.72-10.81s-.7-1.11-2.3-2.92l-11.42,8.99Z"/>
        <g>
          <path class="st9" d="M157.67,32.32c8.79,5.66,13.72,13.67,11,17.88-2.72,4.21-12.04,3.04-20.83-2.62-8.79-5.66-13.72-13.67-11-17.88,2.72-4.22,12.04-3.05,20.83,2.62Z"/>
          <path class="st9" d="M176.3,56.29c-.62,1.83-2.6,2.82-4.44,2.2-1.83-.62-2.82-2.61-2.2-4.45.62-1.83,2.61-2.82,4.44-2.19,1.84.61,2.82,2.6,2.2,4.44Z"/>
        </g>
      </g>
      <g>
        <g>
          <g>
            <g>
              <path class="st1" d="M78.49,183.65c0,7.7-6.24,13.95-13.94,13.95s-13.94-6.25-13.94-13.95,6.24-13.94,13.94-13.94,13.94,6.23,13.94,13.94Z"/>
              <path d="M76.56,183.65c-.08,5.64-3.91,10.38-9.37,11.72-5.52,1.35-11.07-1.7-13.53-6.65-2.44-4.92-.78-11.27,3.53-14.56,4.45-3.41,10.83-3.3,15.12.32,2.71,2.29,4.21,5.65,4.25,9.17.03,2.5,3.9,2.5,3.87,0-.08-6.01-3.45-11.55-8.86-14.24-5.5-2.73-12.24-1.94-17,1.9-4.77,3.84-6.77,10.07-5.48,16,1.26,5.8,6.1,10.4,11.79,11.79,9.9,2.42,19.42-5.44,19.54-15.45.03-2.49-3.84-2.49-3.87,0Z"/>
            </g>
            <path class="st9" d="M74.57,179.98c0,1.89-1.53,3.42-3.42,3.42s-3.42-1.53-3.42-3.42,1.54-3.43,3.42-3.43,3.42,1.54,3.42,3.43Z"/>
          </g>
          <g>
            <g>
              <g>
                <path class="st1" d="M180.51,183.65c0,7.7-6.24,13.95-13.94,13.95s-13.94-6.25-13.94-13.95,6.24-13.94,13.94-13.94,13.94,6.23,13.94,13.94Z"/>
                <path d="M178.58,183.65c-.07,5.64-3.91,10.38-9.37,11.72-5.52,1.35-11.07-1.7-13.53-6.65-2.44-4.92-.77-11.27,3.53-14.56,4.45-3.41,10.83-3.3,15.12.32,2.71,2.29,4.21,5.65,4.25,9.17.03,2.5,3.9,2.5,3.87,0-.08-6.01-3.45-11.55-8.86-14.24-5.5-2.73-12.24-1.94-17,1.9-4.77,3.84-6.77,10.07-5.48,16,1.26,5.8,6.1,10.4,11.79,11.79,9.9,2.42,19.42-5.44,19.54-15.45.03-2.49-3.84-2.49-3.87,0Z"/>
              </g>
              <path class="st9" d="M176.6,179.98c0,1.89-1.53,3.42-3.42,3.42s-3.42-1.53-3.42-3.42,1.54-3.43,3.42-3.43,3.42,1.54,3.42,3.43Z"/>
            </g>
            <path class="st7" d="M62.52,204.54c.3,2.18-3.46,4.49-8.38,5.15-4.92.67-9.16-.55-9.45-2.73s3.45-4.48,8.38-5.15c4.92-.66,9.15.55,9.45,2.73Z"/>
            <path class="st7" d="M166.05,204.54c-.3,2.18,3.45,4.49,8.38,5.15,4.92.67,9.16-.55,9.45-2.73.3-2.18-3.45-4.48-8.38-5.15-4.92-.66-9.16.55-9.45,2.73Z"/>
          </g>
        </g>
        <path d="M122.12,210.26c-.04.29-.12.57-.22.84-.05.14-.1.29-.16.44.37-.92.1-.24,0-.04-.1.19-.21.37-.32.55-.1.15-.59.8-.08.15-.29.38-.63.71-.99,1.02-.24.2-.22.19.05-.03-.13.09-.26.19-.39.27-.28.19-.57.35-.87.5-.3.13-.32.15-.06.05-.17.08-.35.14-.53.2-.38.14-.78.24-1.18.33-.87.21-1.54.24-2.48.27-1.71.05-3.11-.15-4.73-.74.47.17-.44-.23-.53-.28-.29-.15-.55-.33-.82-.51.57.39-.17-.15-.28-.25-.2-.18-.38-.38-.55-.58-.35-.39.33.5-.11-.16-.13-.18-.24-.38-.34-.56-.1-.17-.19-.35-.27-.53.4.87.13.3.05.09-.15-.43-.31-1.73-.15-.28-.17-1.54-1.16-2.84-2.84-2.84-1.42,0-3.01,1.3-2.84,2.84.21,1.94,1.02,3.64,2.24,5.17,2.48,3.1,6.55,4.17,10.35,4.31,3.98.14,8.28-.96,11.04-3.98,1.15-1.26,2.25-3.01,2.5-4.74.22-1.53-.35-3.05-1.98-3.49-1.35-.37-3.28.45-3.5,1.98h0Z"/>
      </g>
    </g>
    <g>
      <g>
        <path d="M54.88,278.2c-7.02-4.92.94-12.13,5.55-8.55,4.62,3.59,2.44,14.17-5.55,8.55"/>
        <path d="M58.14,272.62c1.45,1.06.46.35.15.05-.16-.16-.31-.32-.46-.5.67.91.83,1.09.48.56-.61-.98.56,1.58.2.52-.48-1.42.07,1.45.05.47-.02-1.08-.34,1.81-.11.76.3-1.41-.66,1.29-.21.42.66-1.28-.94,1.06-.3.31.36-.42,1.43-1.2-.38.17.2-.15.42-.28.64-.4,1.28-.74-1.35.48-.39.17.51-.17,1.59-.28-.74.03.33-.05.66-.03.99-.01-2.04-.13-1.34-.21-.73-.03-1.89-.55-.99-.47-.37-.07-1.69-1.09-.87-.7-.43-.24.68.7-1.09-1.58-.34-.42.13.19.23.38.33.58.45.88-.68-1.84-.24-.51.07.21.12.43.16.65.31,1.38-.16-1.63-.08-.62.06.73-.28,2.59.14,0-.04.27-.12.54-.2.8-.28.92.87-1.78.26-.63-.24.46-.87,1.21.59-.68-.15.2-.34.36-.52.53,1.09-.79,1.37-1.02.85-.7-.55.28-.2.14,1.03-.42-.58.22-1.67.18.75-.04-.21.02-.44,0-.65-.01,2.25.15,1.18.17.51-.03-.95-.29,1.66.83.19.06-.41-.21-.8-.48-1.18-.74-2.91-1.98-7.15-.56-8.83,2.32-1.87,3.2-.58,6.85,2.31,8.83,2.22,1.51,5.12,2.71,7.86,2.47,3.48-.32,6.25-1.96,8.14-4.91,2.53-3.98,2.18-10.26-.66-14-1.14-1.51-2.08-2.51-3.71-3.57-1.61-1.04-3.35-1.29-5.19-1.51-3.22-.39-6.34,1.34-8.71,3.3-2.38,1.96-3.76,5.38-3.69,8.42.09,4.26,2.68,7.4,5.96,9.8,2.85,2.08,7.19.48,8.84-2.31,1.92-3.27.52-6.76-2.32-8.84h0Z"/>
      </g>
      <path class="st0" d="M54.88,278.2c-7.02-4.92.94-12.13,5.55-8.55,4.62,3.59,2.44,14.17-5.55,8.55"/>
      <path class="st3" d="M55.29,277.58c-3.05-2.15-3.27-4.72-2.17-6.64-1.53,1.97-1.63,4.87,1.76,7.25,3.68,2.59,6.13,1.74,7.25-.28-1.25,1.55-3.56,1.98-6.84-.33Z"/>
      <path class="st13" d="M52.26,272.63c1.76-1.46,4.42-1.96,6.44-.39,2.1,1.63,2.79,4.7,2.18,7.04,2.69-1.72,2.64-7.24-.44-9.64-2.96-2.3-7.31-.15-8.17,2.99Z"/>
    </g>
    <g>
      <g>
        <g>
          <g>
            <g>
              <path d="M192.24,257.91l-6.48-5.82c-.4-.36-1.01-.32-1.37.07l-2.01,2.24c-.36.4-.32,1.01.07,1.37l1.22,1.1-1.3,1.45,4.04,3.62,1.3-1.45,1.22,1.09c.4.36,1.01.33,1.37-.07l2.01-2.24c.36-.4.32-1.02-.08-1.38Z"/>
              <path d="M192.7,257.46c-2.16-1.93-4.31-3.88-6.47-5.81-1.57-1.41-3.01.87-3.93,1.89-.59.65-1.01,1.27-.67,2.18.25.66,1.08,1.17,1.58,1.62v-.91c-.44.48-.87.97-1.3,1.46-.23.24-.27.66,0,.91,1.35,1.21,2.7,2.42,4.04,3.63.25.22.67.27.91,0,.43-.48.87-.96,1.3-1.45h-.91c1.17,1.06,2.38,2.27,3.76.74,1.05-1.17,3.01-2.6,1.68-4.24-.52-.65-1.43.27-.91.91.44.55-1.36,2.05-1.68,2.41-.69.77-1.37-.22-1.93-.73-.25-.22-.67-.28-.91,0-.44.48-.87.96-1.3,1.45h.91c-1.35-1.21-2.69-2.42-4.04-3.62v.91c.44-.48.87-.96,1.3-1.45.23-.25.27-.66,0-.91-.39-.35-.79-.71-1.18-1.06-.49-.43.66-1.35.89-1.61.14-.15,1.1-1.52,1.48-1.19.26.23.51.46.76.7,1.9,1.7,3.8,3.41,5.7,5.12.62.55,1.53-.35.91-.91Z"/>
            </g>
            <g>
              <path class="st9" d="M186.8,258c-.13.15-.36.16-.5.03h0c-.15-.13-.16-.36-.03-.5l1.66-1.85c.13-.15.36-.17.5-.04h0c.15.13.16.36.03.51l-1.66,1.85Z"/>
              <g>
                <path class="st9" d="M184.46,255.89c-.14.15-.36.16-.51.03h0c-.15-.13-.16-.36-.03-.5l1.66-1.85c.13-.15.36-.16.51-.03h0c.14.13.16.36.03.51l-1.66,1.85Z"/>
                <path class="st9" d="M189.15,260.1c-.13.15-.36.16-.5.03h0c-.15-.13-.16-.36-.03-.51l1.66-1.85c.13-.14.36-.15.5-.03h0c.15.13.16.36.03.51l-1.66,1.85Z"/>
              </g>
            </g>
          </g>
          <g>
            <path d="M193.88,271.75l-.32-6.03c-.02-.37-.44-.64-.93-.62l-1.44.08c-.5.03-.88.35-.86.71l.13,2.43-2.46.13.06,1.17,2.46-.13.13,2.44c.02.37.44.65.93.62l1.45-.08c.49-.02.88-.34.86-.72Z"/>
            <path d="M171.81,251.93l6.04-.32c.37-.02.69.36.71.86l.08,1.44c.03.5-.25.91-.62.94l-2.44.13.13,2.45-1.17.06-.13-2.46-2.44.13c-.37.02-.69-.37-.71-.87l-.08-1.44c-.03-.49.25-.91.61-.93Z"/>
          </g>
          <g>
            <g>
              <path class="st10" d="M182.12,281.14c-4.56,5.09-12.38,5.5-17.46.94-5.08-4.57-5.5-12.38-.94-17.47,4.56-5.08,12.38-5.5,17.46-.94,5.08,4.57,5.5,12.38.93,17.46Z"/>
              <path d="M178.47,277.49c-.25.28-.51.54-.77.79-.2.19-1.17.95-.07.12-.57.43-1.19.78-1.82,1.1-1.09.55,1.09-.4-.05.03-.33.12-.66.21-1,.31-.33.09-.68.16-1.01.22-1.2.23,1.22-.11,0,0-.69.05-1.38.02-2.07-.04,1.49.13.34.04,0-.02-.34-.07-.68-.17-1.01-.27-.34-.09-.67-.22-.99-.35,1.32.51.22.06-.05-.08-.32-.17-.62-.36-.92-.55-.46-.33-.4-.27.16.16-.2-.15-.38-.31-.57-.48-.28-.24-.54-.51-.79-.77-.19-.2-.95-1.17-.12-.07-.43-.56-.78-1.18-1.1-1.81-.56-1.08.4,1.08-.03-.05-.12-.33-.22-.66-.31-.99-.1-.33-.16-.67-.23-1.02-.23-1.2.12,1.22.02,0-.06-.69-.02-1.38.03-2.07-.13,1.49-.04.33.03,0,.07-.35.17-.68.26-1.02.1-.34.23-.66.35-.99-.51,1.32-.06.22.08-.04.17-.32.36-.62.55-.92.32-.46.27-.4-.16.16.15-.19.31-.38.47-.57.25-.28.51-.53.78-.79.2-.19,1.17-.95.07-.12.57-.43,1.19-.78,1.82-1.1,1.08-.55-1.09.4.05-.03.32-.12.66-.22.99-.31.33-.09.68-.16,1.01-.22,1.2-.24-1.22.12,0,.02.69-.06,1.38-.03,2.07.03-1.49-.13-.34-.03,0,.03.34.08.68.17,1.01.26.34.1.66.23.99.35-1.32-.51-.22-.05.05.09.32.16.62.36.92.55.46.32.4.26-.16-.17.19.16.38.31.56.48.28.24.54.51.79.77.19.2.95,1.17.12.07.43.56.78,1.18,1.1,1.82.56,1.08-.4-1.09.03.05.12.32.22.66.31,1,.1.33.16.67.23,1.01.23,1.2-.12-1.22-.02,0,.06.69.03,1.38-.03,2.07.12-1.49.04-.33-.03,0-.07.34-.16.68-.26,1-.1.34-.23.67-.35,1,.51-1.32.06-.23-.08.05-.17.32-.36.62-.55.92-.32.45-.27.4.16-.16-.15.19-.31.38-.48.56-1.85,2.12-2.09,5.22,0,7.31,1.89,1.89,5.45,2.12,7.31,0,5.11-5.87,6.18-14.15,2.18-20.94-3.97-6.74-12.16-9.79-19.62-7.89-7.57,1.92-12.71,9.07-12.94,16.72-.23,7.82,5.26,14.68,12.54,17.01,6.23,2,13.45-.14,17.84-4.89,1.91-2.07,2.04-5.25,0-7.31-1.93-1.93-5.4-2.06-7.31,0Z"/>
            </g>
            <path class="st6" d="M182.12,281.14c-4.56,5.09-12.38,5.5-17.46.94-5.08-4.57-5.5-12.38-.94-17.47,4.56-5.08,12.38-5.5,17.46-.94,5.08,4.57,5.5,12.38.93,17.46Z"/>
            <g>
              <g>
                <path class="st10" d="M179.54,278.82c-3.28,3.65-8.9,3.96-12.55.68-3.65-3.28-3.96-8.9-.68-12.56,3.28-3.65,8.9-3.96,12.55-.68,3.65,3.29,3.95,8.9.67,12.56Z"/>
                <path d="M178.63,277.91c-2.86,3.05-7.52,3.44-10.73.67-3.17-2.72-3.35-7.62-.67-10.73,2.73-3.16,7.62-3.35,10.73-.68,3.17,2.73,3.35,7.62.67,10.73-1.08,1.25.74,3.09,1.82,1.82,3.66-4.24,3.46-10.51-.67-14.38-4.09-3.83-10.63-3.32-14.38.68-3.83,4.08-3.33,10.63.67,14.38,4.09,3.83,10.63,3.32,14.38-.68,1.14-1.21-.68-3.04-1.82-1.82Z"/>
              </g>
              <path class="st9" d="M179.54,278.82c-3.28,3.65-8.9,3.96-12.55.68-3.65-3.28-3.96-8.9-.68-12.56,3.28-3.65,8.9-3.96,12.55-.68,3.65,3.29,3.95,8.9.67,12.56Z"/>
            </g>
          </g>
        </g>
        <g>
          <path class="st4" d="M175.43,273.32c-.09,1.61-1.45,2.84-3.06,2.75-1.61-.09-2.83-1.46-2.75-3.06.09-1.6,1.46-2.83,3.06-2.75,1.61.09,2.83,1.46,2.75,3.06Z"/>
          <path d="M174.79,273.32c-.31,2.92-4.52,2.59-4.52-.31,0-1.29,1.25-2.1,2.42-2.1,1.29,0,2.1,1.25,2.1,2.41,0,.84,1.29.84,1.29,0,0-2.03-1.41-3.49-3.39-3.7-2.01-.22-3.51,1.57-3.71,3.39-.22,2.01,1.57,3.52,3.39,3.7,2.01.22,3.51-1.57,3.71-3.39.09-.82-1.2-.81-1.29,0Z"/>
        </g>
        <path class="st5" d="M173.75,273.84l5.13-.97-.02-.24-5.22-.32c-.27-.36-.72-.58-1.21-.55-.77.05-1.35.72-1.3,1.48.05.77.72,1.35,1.48,1.3.49-.04.9-.31,1.13-.71Z"/>
      </g>
      <g>
        <g>
          <g>
            <polygon points="177.84 268.41 177.22 267.84 178.45 266.5 179.06 267.07 177.84 268.41"/>
            <rect x="167.39" y="277.79" width="1.82" height=".84" transform="translate(-150.28 213.14) rotate(-47.28)"/>
          </g>
          <g>
            <rect x="167.42" y="267" width=".84" height="1.82" transform="translate(-143.29 211.84) rotate(-47.72)"/>
            <rect x="178.18" y="276.85" width=".84" height="1.82" transform="translate(-146.95 222.4) rotate(-47.61)"/>
          </g>
        </g>
        <g>
          <g>
            <rect x="179.6" y="272.09" width="1.82" height=".84" transform="translate(-12.03 8.37) rotate(-2.57)"/>
            <rect x="165.03" y="272.74" width="1.82" height=".84" transform="translate(-11.16 7.1) rotate(-2.37)"/>
          </g>
          <g>
            <polygon points="173.36 266.44 172.52 266.48 172.44 264.66 173.27 264.62 173.36 266.44"/>
            <polygon points="174 281.01 173.17 281.04 173.09 279.23 173.93 279.19 174 281.01"/>
          </g>
        </g>
      </g>
    </g>
    <rect x="154.5" y="248.14" width="13.26" height="5.68" transform="translate(-93.14 95.08) rotate(-25.79)"/>
    <polygon class="st9" points="152.62 238.6 156.07 250.22 162.27 247.32 158.73 242.18 155.6 237.94 152.62 238.6"/>
    <path d="M86.63,233.73c-.4,3.62.28,7.58,1.5,10.99,2.78,7.73,9.25,12.78,17.17,14.62,5.69,1.31,11.86,1.28,17.57.13,4.36-.88,8.52-2.79,11.83-5.79,4.62-4.18,6.83-10.38,7.17-16.48.06-1.15.08-2.33-.06-3.47-.13-1.05-.78-1.94-1.94-1.94-.96,0-2.07.89-1.94,1.94.13,1.07.12,2.16.07,3.23-.02.51-.06,1.02-.12,1.53-.01.14-.12,1.03-.05.47-.05.35-.1.69-.17,1.04-.24,1.37-.61,2.71-1.08,4.02-.42,1.15-1.12,2.56-1.99,3.87-.85,1.29-1.97,2.49-3.3,3.63-3.16,2.66-7.65,4.09-11.83,4.6-8.83,1.09-19.69-.4-25.08-7.74-1.88-2.56-2.78-4.87-3.44-7.92-.13-.6-.23-1.19-.31-1.78.08.56-.03-.31-.05-.46-.04-.29-.06-.59-.08-.89-.06-.83-.08-1.67-.06-2.5,0-.37.02-.73.06-1.1.12-1.06-.97-1.94-1.94-1.94-1.14,0-1.82.89-1.93,1.94h0Z"/>
  </g>
  <g>
    <g>
      <path class="st10" d="M116.97,272.16l2.25-1.02s1.12-2.93.58-6.54c-.54-3.6-4.18-3.37-4.18-3.37,0,0,2.09,1.17,2.61,4.17.52,3.01-1.26,6.75-1.26,6.75Z"/>
      <path d="M119.57,276.62c2.13-.95,3.7-1.63,4.62-4.12.75-2.01.95-4.34.89-6.46-.09-3.58-1.35-6.63-4.4-8.63-1.38-.9-3.44-1.42-5.08-1.33-2.31.12-4.35,1.49-4.98,3.79-.61,2.22.38,4.68,2.38,5.83.1.06.19.12.28.19-1.6-1.15-.59-.44-.21-.04.32.39.22.25-.32-.41.18.25.32.53.46.81-.29-.71-.33-.79-.15-.24.11.34.19,1.55.08.14.03.4-.22,2.36.03.86-.1.58-.25,1.14-.41,1.69-.13.44-.28.88-.45,1.31-.32.83.61-1.35.19-.46-1.19,2.55-.74,5.55,1.86,7.07,2.26,1.32,5.87.7,7.07-1.85,1.29-2.76,2.27-5.91,2.01-8.99-.29-3.53-2.06-7.16-5.22-8.99-.87,3.21-1.74,6.42-2.61,9.63.09,0,.18,0,.27,0,1.18.02-1.47-.3-.33-.04,1.14.26-1.17-.66-.08-.04.8.46-.98-.88-.31-.21-.93-.93-.46-.64-.21-.15-.31-.77-.38-.88-.22-.34-.32-1.25,0,.11.01.4.02.44,0,.88,0,1.32-.01.29-.19,1.66.03.16-.11.76-.28,1.53-.55,2.25.79-1.03,1.58-2.06,2.38-3.09-.75.34-1.5.67-2.25,1.01-2.57,1.15-3.16,4.83-1.86,7.07,1.54,2.62,4.5,3.01,7.07,1.85Z"/>
    </g>
    <g>
      <g>
        <path class="st10" d="M115.93,271.84l-.71-.48s.2-1.02.3-1.89c.09-.87-.17-2.3-.17-2.3,0,0-2,.21-2.91-1.38-1.06-1.84-.4-3.44.34-3.87,1.5-.89,3.5,1.1,3.86,4.07.35,2.97-.7,5.85-.7,5.85Z"/>
        <path d="M118.53,267.38c-.24-.16-.48-.32-.71-.48.79,1.95,1.58,3.89,2.37,5.84.48-2.43.56-4.52.14-6.95-.36-2.1-2.87-3.98-4.98-3.79-.47.04-1.36-.17.38.12-.47-.08-.97-.51.22.13.57.31.87.76,1.1,1.33-.04-.13-.07-.27-.11-.39.14.44.15.89,0,1.35-.1.22-.21.45-.32.68.48-.78.06-.4-1.24,1.14-1.07.77-2.51.5-3.62,0,.87.39-.9-.86-.17-.11-.91-.95-.28-.34-.07.06-.61-1.14-.1-.14-.01.21.34,1.29-.05-1.08.03.38.02.45-.01.89-.04,1.34-.09,1.42.19-1.06-.03.22-.06.32-.14.63-.21.95-.08.35-.18.69-.31,1.03-.95,2.65,1.04,5.65,3.61,6.35,2.87.79,5.41-.96,6.36-3.6.98-2.74,1.11-5.76.7-8.6-.57-3.92-3.66-8.03-7.94-8.08-5.19-.06-7.81,5.23-6.58,9.79.94,3.53,4.55,6.33,8.26,6-1.66-1.27-3.32-2.53-4.98-3.8.06.36.12.88-.09-.7.06.45.08.88.08,1.32,0,1.1.2-1.15,0,.05-.05.27-.09.52-.15.79-.47,2.41.33,4.45,2.38,5.83.24.16.47.32.71.48,2.34,1.57,5.71.46,7.07-1.85,1.49-2.55.48-5.5-1.85-7.07Z"/>
      </g>
      <path class="st12" d="M115.93,271.84l-.71-.48s.2-1.02.3-1.89c.09-.87-.17-2.3-.17-2.3,0,0-2,.21-2.91-1.38-1.06-1.84-.4-3.44.34-3.87,1.5-.89,3.5,1.1,3.86,4.07.35,2.97-.7,5.85-.7,5.85Z"/>
    </g>
    <path class="st6" d="M116.97,272.16l1.95-.95s.94-2.9.4-6.51c-.54-3.6-3.69-3.46-3.69-3.46,0,0,1.54,1.49,2.05,4.5.52,3.01-.7,6.41-.7,6.41Z"/>
  </g>
</svg>