<?xml version="1.0" encoding="UTF-8"?>
<svg id="Layer_1" xmlns="http://www.w3.org/2000/svg" version="1.1" viewBox="0 0 326.63 326.13">
  <!-- Generator: Adobe Illustrator 29.6.1, SVG Export Plug-In . SVG Version: 2.1.1 Build 9)  -->
  <defs>
    <style>
      .st0 {
        fill: #ac794e;
      }

      .st1 {
        fill: #935b31;
      }

      .st2 {
        fill: #97d5ff;
      }

      .st3 {
        fill: #000002;
      }

      .st4 {
        fill: #fffcd2;
      }

      .st5 {
        fill: #b6e259;
      }

      .st6 {
        fill: #ff9d00;
      }

      .st7 {
        fill: #ed1c24;
      }

      .st8 {
        fill: #f1f2f2;
      }

      .st9 {
        fill: #f38b9e;
      }

      .st10 {
        fill: #6f2a0e;
      }

      .st11 {
        fill: #be1e2d;
      }

      .st12 {
        fill: #fff;
      }

      .st13 {
        fill: #fdc361;
      }

      .st14 {
        fill: #fde5d2;
      }

      .st15 {
        fill: #a13c12;
      }

      .st16 {
        fill: #ffd401;
      }

      .st17 {
        fill: #ffcad5;
      }

      .st18 {
        fill: #1c75bc;
      }
    </style>
  </defs>
  <polygon class="st17" points="120.95 224.63 116.76 230.63 112.91 237.47 121.39 242.32 115.37 236.53 118.21 231.29 121.99 225.83 120.95 224.63"/>
  <g>
    <g>
      <path class="st0" d="M90.51,233.24s-31.89,37.88-18.05,46.05c13.84,8.17,33.21-27.23,33.21-27.23l-15.15-18.82Z"/>
      <path d="M87.63,230.37c-3.84,4.57-7.42,9.41-10.76,14.35-5.24,7.75-10.6,16.41-11.85,25.85-.51,3.87.48,8.19,3.5,10.85,3.66,3.24,8.81,3.91,13.34,2.28,4.74-1.71,8.72-5.05,12.17-8.63,3.53-3.65,6.63-7.75,9.51-11.93,2.01-2.91,3.93-5.91,5.63-9.02.96-1.75.56-3.46-.63-4.94-5.05-6.27-10.1-12.55-15.15-18.81-1.4-1.73-4.32-1.45-5.76,0-1.69,1.69-1.39,4.03,0,5.76,5.05,6.27,10.1,12.54,15.15,18.82-.21-1.64-.42-3.29-.64-4.93-.97,1.76-2.02,3.48-3.1,5.17-1.11,1.75-2.27,3.48-3.46,5.18-.66.92-1.33,1.84-2.01,2.74-.18.23-.35.47-.53.7.66-.85.03-.05-.09.1-.43.54-.87,1.09-1.31,1.62-1.58,1.91-3.25,3.74-5.05,5.45-.82.78-1.68,1.53-2.56,2.25-.76.61.72-.54-.05.04-.22.16-.44.32-.66.47-.49.36-1.01.69-1.54,1.01-.43.27-.87.51-1.32.73-.22.12-.44.22-.66.32-.8.37.9-.36.09-.04-.43.17-.87.31-1.32.44-.38.11-2.15.37-.66.19-.43.05-.87.06-1.3.05-.21,0-.43-.02-.64-.04,1.31.12.54.08.23.02-.43-.08-.85-.21-1.25-.36-.79-.28.91.42.14.05-.27-.12-.52-.27-.77-.43-1.07-.65.5.48-.2-.13-.26-.23-.49-.5-.71-.77.93,1.13.17.17-.02-.18-.58-1.07.25.86-.12-.31-.11-.34-.18-.7-.25-1.05-.14-.74.12,1.11.04.34-.02-.19-.03-.38-.04-.57-.02-.4-.01-.79,0-1.19.01-.38.24-2.09.02-.6.28-1.97.89-3.9,1.58-5.77.18-.49.38-.98.58-1.47-.48,1.16.22-.49.35-.77.5-1.11,1.04-2.2,1.6-3.28,2.21-4.25,4.79-8.31,7.5-12.25,1.2-1.76,2.45-3.49,3.72-5.2.53-.71,1.06-1.41,1.59-2.11.12-.16.25-.32.37-.48.47-.61-.63.81-.16.21.26-.33.51-.65.76-.98.79-1.01,1.59-2.02,2.42-3,1.43-1.7,1.67-4.09,0-5.76-1.47-1.47-4.33-1.7-5.76,0Z"/>
    </g>
    <path class="st18" d="M76.31,261.53l10.56,6.52,7.47-24.15-3.69-4.62s-6.09,7.56-8.12,10.75c-2.03,3.19-6.22,11.5-6.22,11.5Z"/>
    <g>
      <rect class="st3" x="75.65" y="257.14" width="7.92" height="22.6" transform="translate(-189.08 189.67) rotate(-57.14)"/>
      <path d="M87.04,278.31l-19.49-12.59,4.62-7.15,19.49,12.58-4.62,7.15ZM68.37,265.55l18.49,11.95,3.97-6.16-18.49-11.94-3.98,6.15Z"/>
    </g>
    <path class="st2" d="M79.64,260.28s4.19-8.31,6.22-11.5c1.29-2.01,4.19-5.77,6.15-8.27l-1.21-1.52s-6.09,7.56-8.12,10.75c-2.03,3.19-6.22,11.5-6.22,11.5l10.56,6.51-7.38-7.47Z"/>
  </g>
  <g>
    <path class="st0" d="M169.98,232.44s49.33-4.37,48.07,11.65c-1.26,16.02-41.36,11.55-41.36,11.55l-6.71-23.21Z"/>
    <path d="M169.98,236.5c5.28-.46,10.6-.59,15.9-.53,4.57.04,9.16.28,13.7.86-1.3-.17.48.07.8.12.53.08,1.05.17,1.58.26,1.1.2,2.19.43,3.27.69.94.23,1.87.5,2.79.8.43.14.87.3,1.3.46.21.08.41.16.62.25-1.25-.51-.25-.1.02.02.73.34,1.44.73,2.12,1.17.16.11.31.21.47.32.61.44-.81-.65-.24-.19.32.26.62.55.91.85.12.12.23.25.34.38.46.54-.64-.86-.23-.29.2.27.36.56.51.85.43.82-.34-1.04.02.09.05.15.09.32.13.48.23.96-.09-.94-.02-.25.04.35.03.7.02,1.06-.01.3-.12,1.05.06-.26-.03.21-.08.42-.12.63-.08.4-.21.8-.36,1.18.49-1.35-.09.12-.3.47-.1.18-.22.34-.33.51-.45.64.64-.79.14-.19-.27.32-.56.61-.85.89-.15.14-.31.28-.48.42-.62.52.8-.6.15-.11-.42.31-.86.59-1.3.85-.4.24-.81.45-1.22.65-.21.1-.43.21-.65.3-.8.37.9-.37.08-.03-1.02.41-2.07.75-3.12,1.05-1.03.29-2.07.53-3.12.74-.54.11-1.08.21-1.62.3-.35.06-2.38.34-1.12.18-4.44.58-8.95.71-13.42.64-3.24-.05-6.49-.2-9.71-.55,1.31,1,2.62,1.99,3.92,2.99-2.23-7.74-4.47-15.47-6.71-23.21-1.46-5.04-9.31-2.89-7.85,2.17,2.24,7.73,4.47,15.47,6.71,23.21.55,1.89,2.08,2.79,3.93,2.99,5.81.64,11.74.73,17.57.42,8.91-.48,20.05-1.81,25.71-9.59,2.56-3.51,2.82-8.46.83-12.26-1.91-3.63-5.87-5.66-9.54-7.04-4.24-1.6-8.84-2.24-13.32-2.74-4.52-.5-9.08-.66-13.62-.67-4.78-.02-9.58.12-14.34.54-2.21.2-4.07,1.71-4.07,4.07,0,2.07,1.86,4.27,4.07,4.07Z"/>
  </g>
  <g>
    <path class="st18" d="M101.6,241.3h65.32s12.76,70.8,4.08,73.84c-8.68,3.03-16.72-10.79-16.72-10.79,0,0-6.39,1.95-17.47,2.29h0c-.83.03-1.69.04-2.56.04s-1.72,0-2.56-.03h0c-11.08-.35-17.47-2.3-17.47-2.3,0,0-8.04,13.83-16.72,10.79-8.68-3.03,4.08-73.84,4.08-73.84Z"/>
    <path d="M101.6,245.37h65.32c-1.31-.99-2.62-1.99-3.93-2.99.79,4.36,1.49,8.72,2.17,13.09.68,4.38,1.32,8.77,1.93,13.16.13,1-.13-.94,0,.07.04.29.08.58.12.87.08.58.15,1.17.23,1.75.17,1.28.32,2.55.48,3.83.3,2.47.58,4.95.83,7.42.87,8.38,1.77,17.04.96,25.46-.03.36-.08.72-.12,1.08.2-1.59.03-.29-.03.08-.1.62-.24,1.25-.42,1.87-.07.24-.15.49-.24.73-.28.78.53-1.12.09-.24-.09.18-.19.36-.31.53-.38.59.87-.95.18-.28-.49.48,1.07-.7.38-.3-.29.17-.84.29.7-.29-.31.11-.62.19-.94.26-1.03.25.88-.05-.16.02-.31.02-.62,0-.92,0-1.04-.05.89.18-.12-.03-.4-.08-.79-.21-1.18-.34-.99-.33.79.38-.17-.06-.29-.14-.56-.29-.84-.44-.56-.31-1.09-.68-1.61-1.05.8.58-.06-.06-.19-.16-.25-.21-.49-.42-.73-.63-.55-.49-1.06-1.02-1.56-1.55-.6-.64-1.17-1.31-1.72-2-.48-.59.52.7-.16-.2-.23-.3-.45-.61-.66-.92-.41-.59-.81-1.19-1.17-1.81-.91-1.55-2.86-2.4-4.6-1.87-1.44.44-2.94.72-4.42,1-.8.14-1.61.27-2.41.39-1.28.19.83-.1-.51.07-.58.07-1.17.14-1.75.2-2.42.26-4.85.41-7.29.49-2.22.08-4.07,1.8-4.07,4.07h0c1.35-1.35,2.71-2.7,4.07-4.07-1.71.05-3.41.05-5.12,0,1.36,1.36,2.72,2.72,4.07,4.07h0c0-2.28-1.86-4-4.07-4.08-2.44-.08-4.86-.24-7.29-.49-.44-.05-.89-.1-1.33-.15-.28-.03-.56-.07-.84-.1.41.05.38.05-.1-.02-.8-.12-1.6-.25-2.41-.39-1.48-.27-2.98-.55-4.42-1-1.74-.53-3.7.33-4.6,1.87-.59,1.02-1.28,1.98-1.99,2.93-.55.73.58-.74,0,0-.18.23-.36.44-.53.66-.38.46-.78.9-1.18,1.34-.43.46-.87.9-1.33,1.34-.23.22-.48.43-.71.64-.14.12-1.25.98-.43.37-.51.38-1.05.73-1.61,1.05-.27.16-.56.3-.84.44-.95.47.8-.3-.18.06-.29.11-.59.19-.88.27-.21.05-1.23.21-.12.07-.3.04-.61.04-.91.05-.21,0-.41-.01-.62-.03.57.09.62.09.15,0-.81-.16-1.51-.64-.24.02-.7-.37.88.76.38.3-.66-.6.41.61.23.35-.14-.19-.25-.4-.36-.6-.45-.87.39,1.01.09.24-.09-.24-.16-.49-.24-.73-.18-.61-.31-1.24-.42-1.87-.07-.37-.24-1.67-.03-.08-.05-.36-.08-.72-.12-1.08-.09-.85-.14-1.71-.18-2.56-.19-4.09-.01-8.2.24-12.28.3-4.84.77-9.66,1.31-14.48.28-2.46.58-4.93.89-7.39.07-.58.15-1.17.23-1.75.04-.29.08-.58.12-.87.14-1.01-.12.94.01-.07.16-1.22.33-2.44.5-3.66.97-6.87,2.05-13.73,3.23-20.56.12-.68.23-1.36.36-2.04.4-2.18-.56-4.38-2.84-5.01-1.99-.55-4.61.66-5.01,2.84-2.49,13.83-4.52,27.79-5.98,41.76-.89,8.46-1.79,17.17-1.05,25.68.24,2.81.57,6.2,2.23,8.6,3.28,4.75,10.04,3.79,14.44,1.22,4.31-2.51,7.94-6.81,10.44-11.09-1.53.63-3.07,1.25-4.59,1.88,5.91,1.79,12.41,2.23,18.54,2.44-1.36-1.36-2.71-2.71-4.07-4.07h0c0,2.27,1.86,4.02,4.07,4.08,1.71.04,3.41.04,5.12,0,2.22-.06,4.07-1.81,4.07-4.07h0c-1.36,1.35-2.72,2.71-4.07,4.06,6.13-.21,12.63-.65,18.55-2.44-1.53-.63-3.07-1.25-4.6-1.88,1.95,3.33,4.55,6.52,7.52,8.97,4.31,3.57,11.36,6.43,16.26,2.25,2.3-1.96,2.78-5.53,3.15-8.33.47-3.57.44-7.2.34-10.79-.28-9.58-1.41-19.14-2.65-28.63-1.08-8.25-2.32-16.48-3.69-24.68-.28-1.65-.56-3.31-.86-4.96-.32-1.76-2.24-2.99-3.93-2.99h-65.32c-5.25,0-5.25,8.14,0,8.14Z"/>
  </g>
  <g>
    <path class="st3" d="M66.85,322.08c0,1.99,30.18,3.6,67.4,3.6s67.41-1.61,67.41-3.6-30.18-3.6-67.41-3.6-67.4,1.61-67.4,3.6Z"/>
    <path d="M134.26,326.13c-18.01,0-34.95-.38-47.69-1.06-20.16-1.08-20.16-2.32-20.16-2.99s0-1.92,20.16-2.99c12.74-.68,29.68-1.05,47.69-1.05s34.95.37,47.69,1.05c20.16,1.08,20.16,2.32,20.16,2.99s0,1.91-20.16,2.99c-12.74.68-29.68,1.06-47.69,1.06ZM67.44,322.08c.73.37,4.16,1.33,20.23,2.16,12.6.64,29.14,1,46.6,1s34-.36,46.59-1c16.07-.82,19.5-1.78,20.23-2.16-.73-.37-4.16-1.34-20.23-2.16-12.6-.64-29.14-1-46.59-1s-34,.36-46.6,1c-16.06.83-19.5,1.79-20.23,2.16Z"/>
  </g>
  <g>
    <g>
      <polygon class="st14" points="103.78 240.43 134.03 240.43 134.29 240.43 164.53 240.43 177.64 283.53 134.29 283.53 134.03 283.53 90.68 283.53 103.78 240.43"/>
      <path d="M103.78,248.57h60.75c-2.62-1.99-5.24-3.99-7.85-5.98,4.18,13.73,8.36,27.47,12.53,41.2.19.63.38,1.27.57,1.9,2.62-3.44,5.24-6.87,7.85-10.31h-86.96c2.62,3.44,5.23,6.87,7.85,10.31,4.18-13.74,8.36-27.47,12.53-41.21.2-.63.39-1.27.58-1.9,1.29-4.25-1.5-8.87-5.69-10.02-4.36-1.2-8.73,1.45-10.02,5.69-4.18,13.74-8.35,27.47-12.53,41.21-.2.64-.39,1.27-.58,1.9-1.55,5.09,2.66,10.31,7.85,10.31h86.96c5.19,0,9.4-5.21,7.85-10.31-4.18-13.74-8.36-27.47-12.53-41.21-.19-.63-.39-1.27-.58-1.9-1.06-3.48-4.15-5.98-7.85-5.98h-60.75c-4.44,0-8.15,3.71-8.15,8.14s3.71,8.14,8.15,8.14Z"/>
    </g>
    <polygon class="st12" points="103.78 240.43 134.03 240.43 134.29 240.43 164.53 240.43 177.64 283.53 134.29 283.53 134.03 283.53 90.68 283.53 103.78 240.43"/>
  </g>
  <polygon class="st8" points="165.08 242.14 177.64 283.53 143.47 283.53 171.37 279.45 165.08 242.14"/>
  <polygon class="st8" points="103.24 242.14 90.69 283.53 124.85 283.53 96.95 279.45 103.24 242.14"/>
  <path class="st18" d="M201.28,237.08l-.16,14.36s-6.32.74-11.61.74-10.25-.29-10.25-.29l-4.43-15.84s9.69-.64,13.47-.48c3.78.16,12.98,1.51,12.98,1.51Z"/>
  <path class="st2" d="M198.66,239.13s-9.21-1.35-12.98-1.51c-2.39-.1-7.13.12-10.3.29l-.55-1.86s9.69-.64,13.47-.48c3.78.16,12.98,1.51,12.98,1.51l-.16,14.36-2.46-12.31Z"/>
  <g>
    <rect class="st3" x="201.09" y="232.44" width="7.92" height="22.61" transform="translate(-10.72 9.44) rotate(-2.57)"/>
    <path d="M201.31,255.52l-1.04-23.17,8.5-.38,1.04,23.17-8.51.38ZM200.89,232.91l.99,21.99,7.32-.33-.99-21.99-7.32.33Z"/>
  </g>
  <polygon class="st2" points="169.67 292.8 169.97 297.92 98.65 297.92 98.96 292.8 169.67 292.8"/>
  <g>
    <polygon class="st18" points="134.94 261.96 134.94 291.2 184.09 291.2 170.33 237.77 134.94 261.96"/>
    <path d="M130.87,261.96v29.24c0,2.22,1.85,4.07,4.07,4.07h49.15c2.68,0,4.59-2.6,3.93-5.16-3.68-14.28-7.36-28.56-11.04-42.84-.91-3.53-1.82-7.06-2.72-10.59-.62-2.42-3.81-3.92-5.98-2.43-11.57,7.91-23.13,15.82-34.7,23.73-.23.16-.46.31-.68.47-1.83,1.25-2.64,3.56-1.46,5.57,1.06,1.81,3.74,2.72,5.57,1.46,11.57-7.91,23.13-15.82,34.7-23.73.23-.16.46-.31.68-.47-1.99-.81-3.98-1.62-5.98-2.43,3.67,14.28,7.35,28.56,11.03,42.84.91,3.53,1.82,7.06,2.73,10.59,1.31-1.72,2.62-3.44,3.93-5.16h-49.15c1.36,1.36,2.72,2.72,4.07,4.07v-29.24c0-5.25-8.14-5.25-8.14,0Z"/>
  </g>
  <g>
    <polygon class="st18" points="134.74 261.96 134.74 291.2 85.58 291.2 99.34 237.77 134.74 261.96"/>
    <path d="M130.66,261.96v29.24c1.36-1.36,2.72-2.71,4.08-4.07h-49.15c1.31,1.72,2.62,3.44,3.93,5.16,3.67-14.28,7.35-28.56,11.03-42.84.91-3.53,1.82-7.06,2.73-10.59-1.99.81-3.99,1.62-5.98,2.43,11.57,7.91,23.13,15.82,34.7,23.73.23.16.46.31.69.47,1.83,1.25,4.51.35,5.57-1.46,1.18-2.01.37-4.32-1.46-5.57-11.57-7.91-23.14-15.81-34.7-23.72-.23-.16-.46-.31-.68-.47-2.17-1.48-5.36.01-5.98,2.43-3.68,14.28-7.35,28.56-11.04,42.84-.91,3.53-1.82,7.06-2.72,10.59-.66,2.56,1.25,5.16,3.92,5.16h49.15c2.22,0,4.07-1.85,4.07-4.07v-29.24c0-5.25-8.15-5.25-8.15,0Z"/>
  </g>
  <g>
    <polygon class="st7" points="134.84 257.27 134.84 242.09 129.44 242.09 127.03 251.83 134.84 257.27"/>
    <polygon class="st11" points="134.84 257.27 134.84 242.09 140.24 242.09 142.65 251.83 134.84 257.27"/>
    <g>
      <rect class="st3" x="118.32" y="244.08" width="11.94" height="5.09" transform="translate(-144.71 309.14) rotate(-76.34)"/>
      <path d="M125.75,251.6c-1.64-.4-3.29-.8-4.94-1.2.34.6.69,1.21,1.03,1.82.94-3.87,1.88-7.73,2.82-11.61-.61.35-1.21.69-1.82,1.04,1.65.4,3.29.8,4.94,1.2-.34-.61-.69-1.21-1.03-1.82-.94,3.87-1.88,7.74-2.82,11.61-.45,1.85,2.4,2.64,2.85.79.94-3.87,1.88-7.73,2.82-11.61.18-.77-.23-1.62-1.04-1.82-1.64-.4-3.29-.8-4.94-1.21-.76-.18-1.62.23-1.82,1.04-.94,3.87-1.88,7.74-2.82,11.6-.19.77.23,1.63,1.03,1.82,1.65.4,3.29.8,4.94,1.2,1.86.45,2.64-2.4.79-2.85Z"/>
    </g>
    <g>
      <rect class="st3" x="142.93" y="240.65" width="5.08" height="11.94" transform="translate(-54.17 41.38) rotate(-13.67)"/>
      <path d="M144.8,254.45c1.65-.4,3.29-.8,4.94-1.2.8-.19,1.22-1.06,1.03-1.82-.94-3.87-1.88-7.74-2.82-11.6-.2-.8-1.06-1.22-1.82-1.04-1.65.4-3.29.8-4.94,1.21-.8.19-1.22,1.05-1.03,1.82.94,3.87,1.88,7.74,2.82,11.61.45,1.85,3.31,1.07,2.86-.79-.94-3.87-1.88-7.74-2.82-11.61-.35.61-.69,1.22-1.03,1.82,1.65-.4,3.29-.8,4.94-1.2-.61-.35-1.21-.69-1.82-1.04.94,3.87,1.88,7.74,2.82,11.61.35-.61.69-1.21,1.03-1.82-1.65.4-3.29.8-4.94,1.2-1.86.45-1.07,3.3.79,2.85Z"/>
    </g>
  </g>
  <g>
    <g>
      <path class="st13" d="M148.26,277.59c0,.73-.59,1.31-1.31,1.31s-1.32-.59-1.32-1.31.59-1.31,1.32-1.31,1.31.59,1.31,1.31Z"/>
      <path d="M154.71,278.53c.02-.41-.02-.81-.11-1.19-.05-.29-.11-.59-.22-.86-.48-1.21-.74-1.62-1.58-2.65-1.13-1.4-3.12-1.95-4.82-2.04-1.81-.1-3.37.83-4.7,1.91-1.4,1.14-1.95,3.12-2.04,4.83-.1,1.81.83,3.37,1.91,4.7,1.14,1.4,3.12,1.95,4.83,2.04,1.8.1,3.36-.82,4.7-1.91.99-.81,1.55-2.04,1.83-3.29.16-.49.24-1,.21-1.54Z"/>
    </g>
    <path class="st16" d="M149.74,278.53c0,.97-.79,1.76-1.76,1.76s-1.77-.79-1.77-1.76.79-1.76,1.77-1.76,1.76.79,1.76,1.76Z"/>
    <path class="st4" d="M146.53,278.53c0-.92.71-1.68,1.61-1.75-.05,0-.11,0-.16,0-.98,0-1.77.79-1.77,1.76s.79,1.76,1.77,1.76c.05,0,.1,0,.16,0-.9-.08-1.61-.84-1.61-1.76Z"/>
    <path class="st6" d="M149.42,278.53c0-.92-.71-1.68-1.6-1.75.05,0,.11,0,.16,0,.97,0,1.76.79,1.76,1.76s-.79,1.76-1.76,1.76c-.05,0-.11,0-.16,0,.9-.08,1.6-.84,1.6-1.76Z"/>
  </g>
  <g>
    <g>
      <path class="st18" d="M98.01,248.84l4.33,6.78,4.96-2.33-.54,6.04s3.27,2.19,8.64,3.09c5.37.91,12.61-.76,12.61-.76l-25.45-18.33-4.55,5.51Z"/>
      <path d="M91.62,252.58c1.45,2.26,2.89,4.52,4.34,6.78,2.32,3.62,6.36,4.43,10.12,2.66,1.65-.78,3.3-1.56,4.96-2.34-3.71-2.13-7.43-4.26-11.14-6.39-.18,2.01-.36,4.02-.54,6.04-.24,2.63,1.61,5.04,3.67,6.39,3.97,2.63,9.02,3.79,13.68,4.27,4.34.46,9.05-.23,13.28-1.19,2.49-.56,4.51-2.77,5.17-5.17.95-3.44-.67-6.4-3.4-8.36-8.49-6.11-16.97-12.22-25.45-18.33-2.49-1.79-7.02-1.21-8.97,1.16-1.52,1.84-3.03,3.67-4.55,5.51-2.57,3.11-3.06,7.41,0,10.47,2.65,2.65,7.9,3.12,10.47,0,1.52-1.84,3.03-3.67,4.55-5.51-2.99.38-5.98.77-8.98,1.16,8.49,6.11,16.97,12.22,25.46,18.33.59-4.51,1.18-9.02,1.77-13.53-1.04.24-2.11.41-3.17.57,2.64-.39.63-.09.04-.02-.57.06-1.14.1-1.71.14-1.2.08-2.41.09-3.61.04-.55-.03-2.67-.35-.23.03-.68-.1-1.36-.26-2.03-.42-1.13-.27-2.24-.64-3.33-1.06-1.28-.49,1.84.84.24.08-.3-.14-.6-.29-.9-.45-.29-.15-.57-.31-.85-.5,1.22,2.13,2.44,4.26,3.67,6.39.18-2.01.36-4.02.55-6.04.23-2.54-1.57-5.17-3.67-6.39-2.44-1.43-5.02-1.16-7.48,0-1.65.78-3.3,1.56-4.95,2.34,3.38.89,6.75,1.77,10.13,2.65-1.44-2.26-2.89-4.52-4.34-6.78-2.17-3.39-6.54-4.76-10.13-2.66-3.38,1.98-4.84,6.73-2.66,10.13Z"/>
    </g>
    <path class="st18" d="M98.01,248.84l4.33,6.78,4.96-2.33-.54,6.04s3.27,2.19,8.64,3.09c5.37.91,12.61-.76,12.61-.76l-25.45-18.33-4.55,5.51Z"/>
    <path class="st2" d="M116.37,260.97c-5.37-.9-8.64-3.09-8.64-3.09l.55-6.04-4.96,2.33-4.24-6.62-1.07,1.29,4.33,6.78,4.96-2.33-.54,6.04s3.27,2.19,8.64,3.09c5.37.91,12.61-.76,12.61-.76,0,0-.33-.41-.92-1.09-2.51.43-7.05,1.01-10.72.39Z"/>
  </g>
  <g>
    <g>
      <path class="st18" d="M171.66,248.84l-4.34,6.78-4.95-2.33.54,6.04s-3.27,2.19-8.64,3.09c-5.37.91-12.62-.76-12.62-.76l25.45-18.33,4.55,5.51Z"/>
      <path d="M165.27,245.11c-1.45,2.26-2.9,4.52-4.34,6.78,3.38-.88,6.76-1.77,10.13-2.65-1.65-.78-3.3-1.56-4.95-2.34-2.45-1.16-5.03-1.43-7.47,0-2.1,1.23-3.9,3.86-3.67,6.39.18,2.01.37,4.02.54,6.04,1.22-2.13,2.44-4.26,3.67-6.39-.22.14-.44.27-.68.4-.6.34-2.98,1.37-.49.33-1.04.43-2.11.77-3.2,1.07-.65.18-1.32.32-1.97.45-.9.15-.7.13.57-.05-.29.04-.59.06-.88.09-2.32.19-4.67,0-6.96-.29,2.76.35-.15-.05-.84-.18-.37-.07-.74-.14-1.1-.23.59,4.51,1.18,9.02,1.77,13.53,8.48-6.11,16.97-12.22,25.45-18.33-2.99-.38-5.98-.77-8.97-1.16,1.52,1.84,3.03,3.67,4.55,5.51,2.57,3.12,7.82,2.65,10.47,0,3.05-3.06,2.57-7.36,0-10.47-1.52-1.84-3.03-3.67-4.55-5.51-1.95-2.37-6.49-2.95-8.97-1.16-8.48,6.11-16.97,12.22-25.45,18.33-2.17,1.57-3.67,3.59-3.67,6.39,0,3.18,2.25,6.42,5.44,7.14,4.14.94,8.58,1.49,12.84,1.23,4.74-.3,10.11-1.66,14.12-4.31,2.06-1.36,3.9-3.76,3.67-6.39-.18-2.01-.36-4.02-.54-6.04-3.71,2.13-7.43,4.26-11.14,6.39,1.65.78,3.3,1.56,4.95,2.34,3.76,1.77,7.81.97,10.13-2.66,1.45-2.26,2.89-4.52,4.34-6.78,2.18-3.4.72-8.15-2.66-10.13-3.59-2.1-7.96-.73-10.13,2.66Z"/>
    </g>
    <path class="st18" d="M171.66,248.84l-4.34,6.78-4.95-2.33.54,6.04s-3.27,2.19-8.64,3.09c-5.37.91-12.62-.76-12.62-.76l25.45-18.33,4.55,5.51Z"/>
    <path class="st2" d="M153.3,260.97c5.37-.9,8.64-3.09,8.64-3.09l-.55-6.04,4.95,2.33,4.24-6.62,1.07,1.29-4.34,6.78-4.95-2.33.54,6.04s-3.27,2.19-8.64,3.09c-5.37.91-12.62-.76-12.62-.76,0,0,.33-.41.93-1.09,2.51.43,7.05,1.01,10.72.39Z"/>
  </g>
  <g>
    <g>
      <g>
        <g>
          <path d="M62.17,139.72c0-.18,0-.35,0-.52-.21-8.15-3.52-15.98-9.35-21.71-5.91-5.81-14.22-9.06-22.49-8.84-8.23.22-16.36,3.79-21.95,9.87C2.75,124.62-.46,132.94.05,141.26c.5,8.01,3.89,15.72,9.83,21.19,5.95,5.47,13.87,8.56,21.97,8.35,8.05-.21,15.82-3.61,21.46-9.35,5.54-5.64,8.65-13.34,8.84-21.21,0-.17.01-.34,0-.51ZM38.32,149.13c-.85.57-1.72,1.08-2.63,1.54-.98.34-1.99.62-3.02.83-1.06.07-2.13.07-3.19,0-1.03-.21-2.03-.48-3.02-.83-.91-.45-1.78-.97-2.62-1.54-.77-.68-1.5-1.4-2.17-2.17-.57-.84-1.08-1.71-1.53-2.62-.35-.99-.62-1.99-.83-3.02-.07-1.06-.07-2.12,0-3.19.21-1.02.48-2.03.83-3.02.45-.91.96-1.78,1.53-2.62.67-.77,1.39-1.49,2.17-2.17.84-.57,1.71-1.08,2.62-1.53.99-.35,1.99-.62,3.02-.83,1.06-.07,2.13-.07,3.19,0,1.03.21,2.03.48,3.02.83.91.45,1.78.96,2.62,1.53.77.68,1.49,1.4,2.17,2.17.57.84,1.08,1.71,1.53,2.62.35.99.62,2,.83,3.03.04.53.06,1.05.06,1.58,0,.53-.03,1.05-.06,1.57-.21,1.03-.48,2.04-.83,3.04-.45.91-.96,1.78-1.53,2.62-.68.77-1.4,1.5-2.17,2.17Z"/>
          <path class="st0" d="M52.54,139.72c0,11.85-9.61,21.46-21.46,21.46s-21.46-9.61-21.46-21.46,9.61-21.46,21.46-21.46,21.46,9.61,21.46,21.46Z"/>
        </g>
        <g>
          <path d="M269.64,139.72c0-.18,0-.35-.01-.52-.2-8.15-3.52-15.98-9.35-21.71-5.91-5.81-14.22-9.06-22.49-8.84-8.24.22-16.36,3.79-21.95,9.87-5.61,6.09-8.83,14.41-8.31,22.73.49,8.01,3.89,15.72,9.83,21.19,5.95,5.47,13.87,8.56,21.97,8.35,8.05-.21,15.82-3.61,21.46-9.35,5.54-5.64,8.65-13.34,8.84-21.21.01-.17.01-.34.01-.51ZM245.79,149.13c-.84.57-1.71,1.08-2.62,1.54-.98.34-1.99.62-3.01.83-1.07.07-2.13.07-3.2,0-1.02-.21-2.03-.48-3.01-.83-.91-.45-1.79-.97-2.63-1.54-.77-.68-1.49-1.4-2.17-2.17-.57-.84-1.08-1.71-1.53-2.62-.35-.99-.62-1.99-.83-3.02-.07-1.06-.07-2.12,0-3.19.21-1.02.48-2.03.83-3.02.45-.91.96-1.78,1.53-2.62.68-.77,1.4-1.49,2.17-2.17.84-.57,1.72-1.08,2.62-1.53.99-.35,1.99-.62,3.02-.83,1.06-.07,2.13-.07,3.2,0,1.02.21,2.03.48,3.01.83.91.45,1.78.96,2.62,1.53.77.68,1.5,1.4,2.17,2.17.57.84,1.08,1.71,1.53,2.62.35.99.62,2,.83,3.03.04.53.06,1.05.06,1.58,0,.53-.03,1.05-.06,1.57-.21,1.03-.48,2.04-.83,3.04-.46.91-.96,1.78-1.53,2.62-.68.77-1.4,1.5-2.17,2.17Z"/>
          <path class="st0" d="M260.01,139.72c0,11.85-9.61,21.46-21.46,21.46s-21.46-9.61-21.46-21.46,9.61-21.46,21.46-21.46,21.46,9.61,21.46,21.46Z"/>
        </g>
      </g>
      <g>
        <g>
          <g>
            <path class="st14" d="M241.84,91.01l-24.16-17.64-3.61-18.42s-28.69,11.17-79.49,11.17-79.31-10.07-79.31-10.07l-3.33,17.32-24.16,17.64-1.6,2.84c.03,28.58.16,58.53.16,58.53,0,41.71,23.38,80.38,110.48,80.02,86.21-.35,106.62-38.31,106.62-80.02v-58.51l-1.62-2.86Z"/>
            <path d="M247.07,82.06c-8.05-5.88-16.11-11.76-24.16-17.64,1.59,2.07,3.18,4.13,4.76,6.2-1.2-6.14-2.4-12.28-3.6-18.42-1-5.15-7.76-9.18-12.75-7.24-3.16,1.23-6.47,2.13-9.75,3.01-9.25,2.47-18.7,4.21-28.18,5.49.92-.12,1.84-.24,2.75-.37-28.69,3.83-58.13,3.62-86.81-.22.92.12,1.84.25,2.75.37-8.51-1.15-16.99-2.65-25.33-4.71-2.92-.72-5.88-1.47-8.72-2.48-5.03-1.77-11.74,1.96-12.75,7.24-1.11,5.78-2.21,11.55-3.33,17.33,1.59-2.07,3.18-4.13,4.76-6.2-5.87,4.29-11.74,8.57-17.61,12.86-2.18,1.59-4.36,3.18-6.54,4.77-1.71,1.25-2.72,1.94-3.79,3.83-.23.4-.45.79-.67,1.19-.25.44-.49.88-.74,1.31-1.19,2.11-1.55,4.22-1.54,6.6,0,4.68.01,9.37.03,14.05.03,13.69.07,27.37.13,41.05.03,7.94.57,15.8,2.12,23.62,1.76,8.88,5.1,17.63,9.82,25.37,5.53,9.04,12.92,16.43,21.48,22.59,9.41,6.76,20.47,11.33,31.56,14.51,14.57,4.17,29.92,5.88,45.03,6.44,16.78.62,33.66-.28,50.22-3.14,12.5-2.16,24.79-5.93,36.07-11.82,8.83-4.62,17.11-10.95,23.42-18.69,6.33-7.76,10.97-16.41,13.95-25.98,4.32-13.89,4.18-28.34,4.18-42.7v-46.19c0-3.21-1.55-5.65-3.03-8.29-2.78-4.91-9.36-6.54-14.18-3.72-4.92,2.88-6.5,9.26-3.72,14.18.54.95,1.08,1.91,1.62,2.86-.47-1.74-.95-3.49-1.41-5.23v43.86c0,9.7.36,19.48-.92,29.11.12-.91.25-1.84.37-2.75-.92,6.8-2.59,13.5-5.25,19.83.35-.82.7-1.65,1.05-2.47-2.08,4.89-4.74,9.51-7.98,13.73.54-.7,1.08-1.4,1.62-2.1-3.3,4.27-7.16,8.06-11.42,11.36.7-.54,1.4-1.08,2.1-1.62-5.36,4.11-11.28,7.4-17.48,10.04.83-.35,1.65-.7,2.47-1.04-10.74,4.53-22.18,7.13-33.7,8.69.92-.12,1.84-.24,2.75-.37-20.33,2.7-41.37,2.72-61.71.01.92.12,1.84.25,2.76.37-11.7-1.59-23.31-4.26-34.21-8.86.83.35,1.65.7,2.48,1.04-6.47-2.76-12.64-6.19-18.22-10.48.7.54,1.4,1.08,2.1,1.62-4.46-3.46-8.5-7.43-11.95-11.89.54.7,1.08,1.39,1.62,2.1-3.33-4.34-6.06-9.07-8.2-14.11.35.82.7,1.65,1.04,2.48-2.65-6.28-4.32-12.92-5.23-19.67.12.92.24,1.84.37,2.76-.92-7.01-.84-14.05-.87-21.11-.06-16.1-.1-32.2-.13-48.3v-2.26c-.47,1.75-.95,3.49-1.42,5.23.54-.95,1.07-1.89,1.61-2.84-1.24,1.24-2.48,2.48-3.72,3.72,5.87-4.29,11.74-8.57,17.61-12.86,2.18-1.59,4.36-3.18,6.54-4.77,2.27-1.65,4.28-3.61,4.83-6.5.12-.63.24-1.26.36-1.89.41-2.16.83-4.32,1.24-6.47.56-2.89,1.11-5.78,1.66-8.67-4.25,2.41-8.5,4.83-12.75,7.24,3.91,1.38,7.99,2.34,12.02,3.26,12.16,2.79,24.6,4.51,37.01,5.68,31.71,3,64.28,1.92,95.5-4.64,6.64-1.39,13.44-2.93,19.78-5.39-4.25-2.41-8.5-4.83-12.75-7.24.64,3.26,1.27,6.52,1.91,9.79.41,2.12.83,4.25,1.25,6.38.12.6.23,1.2.35,1.8.57,2.92,2.53,4.96,4.86,6.66,5.94,4.34,11.88,8.67,17.82,13.01,2.11,1.54,4.22,3.08,6.33,4.63,2.14,1.56,5.54,1.72,7.99,1.04,2.59-.71,4.83-2.45,6.19-4.76,1.4-2.39,1.78-5.31,1.04-7.99-.77-2.81-2.49-4.54-4.76-6.19Z"/>
          </g>
          <path class="st0" d="M241.84,91.01l-24.16-17.64-3.61-18.42s-28.69,11.17-79.49,11.17-79.31-10.07-79.31-10.07l-3.33,17.32-24.16,17.64-1.6,2.84c.03,28.58.16,58.53.16,58.53,0,41.71,23.38,80.38,110.48,80.02,86.21-.35,106.62-38.31,106.62-80.02v-58.51l-1.62-2.86Z"/>
        </g>
        <g>
          <path class="st3" d="M259.46,119.7c2.13-1.2,3.58-3.48,3.58-6.1s-1.52-5.03-3.76-6.21c1.99-1.23,3.32-3.43,3.32-5.95,0-2.9-1.76-5.38-4.27-6.45,1.97-1.24,3.28-3.43,3.28-5.93,0-3.24-2.21-5.97-5.21-6.77,1.67-1.28,2.74-3.29,2.74-5.55,0-3.36-2.37-6.17-5.53-6.85,1.28-1.27,2.08-3.04,2.08-4.98,0-3.75-2.94-6.8-6.65-6.99.88-1.17,1.39-2.61,1.39-4.18,0-3.87-3.14-7.01-7.01-7.01-.41,0-.81.04-1.21.11.42-.9.66-1.9.66-2.96,0-3.87-3.14-7.01-7.01-7.01-1.15,0-2.23.28-3.18.77.22-.68.34-1.39.34-2.14,0-3.88-3.14-7.01-7.01-7.01-1.02,0-1.99.22-2.86.62-.16-3.72-3.22-6.69-6.99-6.69-1.24,0-2.4.32-3.41.89,0-.11.02-.23.02-.34,0-3.87-3.14-7.01-7.01-7.01-1.6,0-3.06.54-4.24,1.44-.48-3.41-3.4-6.04-6.94-6.04-1.7,0-3.26.61-4.48,1.62-.75-3.06-3.51-5.34-6.8-5.34-1.71,0-3.27.61-4.48,1.62-1.02-2.62-3.55-4.47-6.53-4.47-2.22,0-4.21,1.05-5.49,2.66-.86-2.9-3.54-5.02-6.72-5.02-2.36,0-4.43,1.16-5.7,2.94-1.01-2.63-3.55-4.5-6.54-4.5-2.81,0-5.22,1.65-6.34,4.04-.41-1.31-1.2-2.45-2.23-3.31,0,0-.01,0-.02-.01-.16-.13-.33-.26-.5-.38,0-.01-.03-.02-.04-.03-.54-.37-1.14-.66-1.78-.86-.04-.01-.08-.02-.12-.04-.17-.05-.33-.09-.51-.13-.05-.01-.11-.02-.17-.04-.17-.03-.33-.05-.5-.08-.05,0-.11-.01-.16-.02-.22-.02-.44-.04-.66-.04h0c-.23,0-.45.01-.66.04-.05,0-.11.02-.16.02-.17.02-.34.05-.5.08-.06.01-.11.02-.17.04-.17.04-.33.08-.5.13-.04.02-.08.02-.12.04-.64.2-1.23.49-1.78.86-.01,0-.03.02-.04.03-.18.12-.34.24-.51.38,0,0-.01.01-.02.01-1.03.86-1.82,2-2.23,3.31-1.12-2.39-3.54-4.04-6.34-4.04-2.99,0-5.53,1.87-6.54,4.5-1.27-1.78-3.35-2.94-5.7-2.94-3.18,0-5.86,2.12-6.72,5.02-1.28-1.62-3.26-2.66-5.49-2.66-2.98,0-5.51,1.85-6.53,4.47-1.22-1.01-2.78-1.62-4.48-1.62-3.3,0-6.05,2.28-6.8,5.34-1.22-1.01-2.78-1.62-4.48-1.62-3.54,0-6.46,2.63-6.94,6.04-1.18-.9-2.64-1.44-4.24-1.44-3.87,0-7.01,3.14-7.01,7.01,0,.11,0,.22.01.34-1.01-.56-2.17-.89-3.41-.89-3.77,0-6.83,2.97-7,6.69-.87-.39-1.84-.62-2.86-.62-3.87,0-7.01,3.14-7.01,7.01,0,.74.12,1.46.33,2.14-.96-.49-2.04-.77-3.18-.77-3.87,0-7,3.14-7,7.01,0,1.06.24,2.05.66,2.96-.39-.07-.79-.11-1.21-.11-3.87,0-7,3.13-7,7.01,0,1.57.52,3.01,1.39,4.18-3.7.19-6.65,3.24-6.65,6.99,0,1.95.8,3.71,2.08,4.98-3.16.68-5.53,3.48-5.53,6.85,0,2.26,1.08,4.27,2.75,5.55-3,.8-5.21,3.52-5.21,6.77,0,2.5,1.31,4.69,3.28,5.93-2.51,1.07-4.26,3.55-4.26,6.45,0,2.52,1.33,4.71,3.32,5.95-2.23,1.18-3.76,3.51-3.76,6.21s1.44,4.9,3.57,6.1c-1.36.86-2.26,2.36-2.26,4.08,0,2.66,2.16,4.82,4.82,4.82.58,0,1.12-.11,1.63-.29.12,1.15.19,1.78.19,1.78l1.73-3.06c.49-.53.86-1.17,1.07-1.88l10.44-18.46,24.16-17.64,3.33-17.32s28.52,10.08,79.31,10.08,79.49-11.17,79.49-11.17l3.61,18.42,24.16,17.64,10.45,18.46c.21.71.58,1.35,1.06,1.88l1.74,3.06s.08-.63.19-1.78c.51.18,1.06.29,1.64.29,2.66,0,4.82-2.16,4.82-4.82,0-1.72-.91-3.23-2.27-4.08Z"/>
          <path class="st12" d="M71.22,26.79c-8.78,2.79-14.78,8.59-13.39,12.94,1.38,4.36,9.62,5.63,18.41,2.84,8.78-2.79,14.78-8.58,13.4-12.94-1.38-4.36-9.63-5.63-18.41-2.84Z"/>
          <path class="st12" d="M48.07,44.8c-.11,2.26,1.62,4.17,3.88,4.29,2.25.11,4.17-1.62,4.29-3.88.11-2.25-1.62-4.17-3.88-4.29-2.25-.11-4.17,1.62-4.29,3.88Z"/>
        </g>
        <path class="st1" d="M241.79,106.8l-24.16-17.64-3.58-19.54s-9.29,4.04-26.8,7.49c0,0-4.62.84-6.9,1.25-12.1,2-27.31,3.56-45.36,3.56h-.11s0,0,0,0h-.12s0,0-.02,0h-.1c-50.8,0-79.31-10.07-79.31-10.07l-3.33,17.32-24.16,17.64-1.61,2.84c0,6.21.02,1.33.04,7.35l31.54-24.01,2.21-11.41s23.81,7.66,74.61,7.66h.34c50.8,0,74.61-7.66,74.61-7.66l2.21,11.41,31.55,24.01c.02-6.02.03-1.14.04-7.35l-1.61-2.84Z"/>
      </g>
    </g>
    <g>
      <g>
        <g>
          <g>
            <g>
              <path class="st3" d="M86.58,143.32c0,10.48-8.5,18.98-18.98,18.98s-18.98-8.5-18.98-18.98,8.5-18.98,18.98-18.98,18.98,8.5,18.98,18.98Z"/>
              <path d="M83.79,143.32c-.11,8-6.06,15.1-14.13,16.09-8.21,1-15.75-4.34-17.82-12.27-2.04-7.8,2.55-16.17,10.02-18.99,7.78-2.94,16.33.64,20.19,7.85,1.2,2.24,1.71,4.8,1.74,7.32.05,3.59,5.62,3.59,5.57,0-.12-8.84-5.42-16.83-13.64-20.18-8.21-3.34-17.71-1.17-23.86,5.13-6.31,6.47-7.52,16.17-3.96,24.29,3.5,7.99,12.18,12.84,20.74,12.5,11.56-.47,20.57-10.35,20.73-21.74.05-3.59-5.52-3.59-5.57,0Z"/>
            </g>
            <path class="st12" d="M81.25,138.32c0,2.57-2.08,4.66-4.66,4.66s-4.67-2.09-4.67-4.66,2.09-4.67,4.67-4.67,4.66,2.09,4.66,4.67Z"/>
          </g>
          <g>
            <g>
              <g>
                <path class="st3" d="M225.48,143.32c0,10.48-8.5,18.98-18.98,18.98s-18.99-8.5-18.99-18.98,8.5-18.98,18.99-18.98,18.98,8.5,18.98,18.98Z"/>
                <path d="M222.7,143.32c-.11,8-6.06,15.1-14.13,16.09-8.21,1-15.75-4.34-17.82-12.27-2.04-7.8,2.56-16.17,10.02-18.99,7.78-2.94,16.33.64,20.18,7.85,1.2,2.24,1.71,4.8,1.74,7.32.05,3.59,5.62,3.59,5.57,0-.12-8.84-5.42-16.83-13.64-20.18-8.21-3.34-17.71-1.17-23.86,5.13-6.31,6.47-7.53,16.17-3.96,24.29,3.5,7.99,12.17,12.84,20.74,12.5,11.55-.47,20.57-10.35,20.72-21.74.05-3.59-5.52-3.59-5.57,0Z"/>
              </g>
              <path class="st12" d="M220.16,138.32c0,2.57-2.09,4.66-4.66,4.66s-4.66-2.09-4.66-4.66,2.09-4.67,4.66-4.67,4.66,2.09,4.66,4.67Z"/>
            </g>
            <path class="st9" d="M64.83,173.12c.4,2.96-4.71,6.11-11.41,7.02-6.71.91-12.47-.76-12.87-3.72-.4-2.97,4.7-6.11,11.41-7.02,6.7-.91,12.46.75,12.87,3.72Z"/>
            <path class="st9" d="M205.79,173.12c-.4,2.96,4.71,6.11,11.4,7.02,6.7.91,12.47-.76,12.87-3.72.41-2.97-4.7-6.11-11.41-7.02-6.7-.91-12.46.75-12.87,3.72Z"/>
          </g>
        </g>
        <path d="M144.42,201.96c0,.1-.02.2-.03.3.22-1.82.07-.57-.04-.12-.1.42-.24.83-.4,1.23.51-1.33-.31.5-.57.89-.5.77.6-.71-.01.04-.25.3-.53.57-.81.84-.13.12-.93.74-.16.16-.37.28-.77.5-1.17.73-.07.04-1.16.53-.41.22-.52.21-1.07.37-1.6.51-1.23.33-2.06.38-3.44.42-2.33.07-4.18-.19-6.36-.98.72.26-.4-.2-.45-.22-.43-.21-.83-.47-1.22-.72-.59-.39.39.38-.43-.36-.29-.26-.55-.55-.81-.84-.64-.72.51.73-.02-.01-.19-.27-.35-.55-.52-.82-.14-.25-.27-.52-.39-.77.57,1.23.18.42.07.11-.22-.61-.43-2.38-.2-.32-.25-2.21-1.67-4.08-4.08-4.08-2.04,0-4.33,1.86-4.08,4.08,1.95,17.51,34.4,17.84,35.29-.27.26-5.27-7.91-5.24-8.17,0h0Z"/>
      </g>
      <path d="M256.5,128.22c-4.36-26.88-27.68-47.41-55.8-47.41s-51.63,20.7-55.86,47.75c-2.71-1.12-5.71-1.64-8.79-1.71-3.49-.09-7.19.48-10.47,1.88-4.15-27.13-27.59-47.92-55.88-47.92s-51.44,20.53-55.8,47.41c-4.59.51-8.17,4.4-8.17,9.13s3.58,8.62,8.17,9.12c4.37,26.89,27.68,47.42,55.8,47.42s53.27-22.18,56.23-50.62c.05-.3.13-.79.22-1.09.04-.11.08-.22.12-.33.2-.38.8-1.27.86-1.41.32-.36.68-.69,1.04-1.01.07-.05.17-.11.31-.19.39-.26.8-.48,1.22-.69.04-.02.08-.04.11-.05.14-.05.27-.1.4-.15.54-.19,1.09-.33,1.65-.46.17-.04,1.37-.23,1.3-.24.77-.07,1.55-.1,2.32-.12.72,0,1.43.03,2.15.08.23.02.38.04.45.05.16.03.33.05.5.08.56.1,1.11.26,1.66.41.17.05.72.27.96.36.27.14.52.28.78.43.14.08.42.29.62.43.16.14.31.29.45.44.12.12.24.25.36.39.25.37.47.76.67,1.15.08.23.15.47.22.71.03.11.05.21.08.32,2.54,28.88,26.78,51.53,56.31,51.53s51.44-20.53,55.8-47.42c4.59-.51,8.16-4.4,8.16-9.12s-3.57-8.62-8.16-9.13ZM69.69,181.71c-24.5,0-44.36-19.86-44.36-44.36s19.86-44.36,44.36-44.36,44.36,19.86,44.36,44.36-19.86,44.36-44.36,44.36ZM144.32,141.59c0,.07,0,.13.01.21-.02-.21-.03-.25-.01-.21ZM200.7,181.71c-24.5,0-44.36-19.86-44.36-44.36s19.86-44.36,44.36-44.36,44.36,19.86,44.36,44.36-19.86,44.36-44.36,44.36Z"/>
    </g>
  </g>
  <polygon class="st2" points="97.58 261.45 90.87 287.12 130.35 287.12 93.98 284.95 100.25 262.19 97.58 261.45"/>
  <polygon class="st2" points="172.06 261.45 178.77 287.12 139.29 287.12 175.66 284.95 169.39 262.19 172.06 261.45"/>
  <g>
    <g>
      <g>
        <path class="st5" d="M217.28,239.51c-.75.63-1.62.83-1.93.45h0c-.31-.38.05-1.19.8-1.82l101.85-84.56c.75-.62,1.62-.83,1.93-.45h0c.32.38-.04,1.19-.8,1.82l-101.86,84.56Z"/>
        <path d="M213.92,233.75c-1.81,1.19-.21,1.34,4.79.45.79.8,1.59,1.6,2.39,2.39-.03-.07-.07-.14-.1-.22.3,1.12.61,2.24.91,3.36-.03,3.85-2.41,4.24-.98,3.06.09-.08.19-.16.28-.24.38-.32.76-.63,1.14-.94,1.46-1.22,2.93-2.44,4.39-3.65,5.16-4.28,10.33-8.57,15.49-12.86,14.54-12.07,29.08-24.14,43.62-36.22,11.17-9.27,22.34-18.54,33.51-27.81.84-.69,1.67-1.39,2.51-2.08.21-.18.42-.35.63-.53.05-.05.11-.09.16-.13.02-.01.03-.03.05-.04-1.63,1.35-3.22,2.63-6.13.58-.8-.8-1.59-1.59-2.39-2.39.03.08.07.15.1.22-.3-1.12-.61-2.24-.91-3.37.03-3.84,2.4-4.24.98-3.06-.1.08-.19.16-.28.24-.38.31-.76.63-1.14.94-1.46,1.22-2.93,2.43-4.39,3.65-5.17,4.28-10.33,8.57-15.49,12.86-14.54,12.07-29.08,24.14-43.62,36.21-11.17,9.27-22.34,18.54-33.51,27.82-1.12.93-2.23,1.86-3.35,2.79-2.8,2.32-2.39,7.03,0,9.42,2.75,2.75,6.63,2.32,9.42,0,7.25-6.02,14.5-12.04,21.75-18.06,14.56-12.08,29.12-24.17,43.68-36.26,11.08-9.2,22.16-18.4,33.24-27.6.97-.8,1.93-1.6,2.89-2.4.87-.72,1.59-1.61,2.14-2.6,2.22-3.98.41-9.92-4.45-10.79-3.1-.55-5.59.4-7.96,2.37-2.23,1.85-4.46,3.7-6.68,5.55-12.44,10.32-24.87,20.64-37.3,30.96-14.08,11.69-28.16,23.38-42.24,35.06-4.12,3.41-8.23,6.83-12.35,10.25-.95.79-1.91,1.58-2.85,2.37-.14.12-.27.23-.41.34-3.05,2.52-3.4,6.51-1.85,9.89,1.88,4.09,7.86,4.25,11.06,1.94,2.94-2.12,4.36-5.75,2.39-9.12-1.7-2.9-6.16-4.52-9.12-2.39Z"/>
      </g>
      <path class="st10" d="M217.28,239.51c-.75.63-1.62.83-1.93.45h0c-.31-.38.05-1.19.8-1.82l101.85-84.56c.75-.62,1.62-.83,1.93-.45h0c.32.38-.04,1.19-.8,1.82l-101.86,84.56Z"/>
    </g>
    <path class="st15" d="M216.62,238.79l101.86-84.56c.55-.45,1.15-.68,1.56-.63.03-.18,0-.35-.1-.47-.31-.38-1.18-.18-1.93.45l-101.85,84.56c-.75.63-1.11,1.44-.8,1.82.09.1.22.16.37.18.05-.41.38-.92.89-1.35Z"/>
  </g>
</svg>