<?xml version="1.0" encoding="UTF-8"?>
<svg id="Layer_1" xmlns="http://www.w3.org/2000/svg" version="1.1" viewBox="0 0 308.9 334.62">
  <!-- Generator: Adobe Illustrator 29.6.1, SVG Export Plug-In . SVG Version: 2.1.1 Build 9)  -->
  <defs>
    <style>
      .st0 {
        fill: #ffd3a4;
      }

      .st1 {
        fill: #f15a29;
      }

      .st2 {
        fill: #0b0b17;
      }

      .st2, .st3, .st4, .st5 {
        fill-rule: evenodd;
      }

      .st6 {
        fill: #fff3c0;
      }

      .st3, .st7 {
        fill: #fff;
      }

      .st8 {
        fill: #ffce00;
      }

      .st9 {
        fill: #000002;
      }

      .st10 {
        fill: #ff9100;
      }

      .st11 {
        fill: #ed1c24;
      }

      .st12 {
        fill: #ff949c;
      }

      .st13 {
        fill: #be1e2d;
      }

      .st4 {
        fill: #1f2034;
      }

      .st14 {
        fill: #fdc361;
      }

      .st15 {
        fill: #f7941e;
      }

      .st16 {
        fill: #fde5d2;
      }

      .st17 {
        fill: #e6e7e8;
      }

      .st5 {
        fill: #4d4f66;
      }
    </style>
  </defs>
  <path class="st9" d="M211.92,330.25c0,2.41-25.27,4.37-56.44,4.37s-56.42-1.96-56.42-4.37,25.26-4.37,56.42-4.37,56.44,1.96,56.44,4.37Z"/>
  <g>
    <g>
      <g>
        <g>
          <path class="st7" d="M53.56,197.25s-.32,27.13,10.98,44.88c11.29,17.75,37.33,15.57,37.33,15.57l2.23,8.02s-30.09,3.62-45.25-17.69c-15.15-21.31-13.44-54.69-13.44-54.69l8.15,3.91Z"/>
          <path d="M44.51,197.31c-.09,7.54.95,15.21,2.34,22.6,1.25,6.67,3.27,13.03,5.96,19.25,2.55,5.91,6.04,11.55,10.93,15.8,6.85,5.93,15.46,9.5,24.37,10.89,4.5.7,9.24,1.26,13.82.88-2.92-2.19-5.85-4.38-8.77-6.57.74,2.67,1.49,5.35,2.23,8.02,2.88-3.84,5.76-7.68,8.64-11.52-4.37.51-8.91.25-13.25-.28.81.1,1.6.21,2.41.31-4.9-.62-9.71-1.79-14.28-3.65.73.3,1.45.6,2.17.9-3.51-1.46-6.82-3.3-9.85-5.61.62.47,1.23.94,1.85,1.4-2.54-1.96-4.81-4.2-6.79-6.7.48.61.95,1.21,1.43,1.82-2.86-3.68-5.12-7.79-6.98-12.05.32.72.62,1.44.93,2.16-3.23-7.53-5.19-15.54-6.35-23.64.11.81.22,1.6.34,2.4-.95-6.72-1.54-13.65-1.2-20.45-4.51,2.64-9.03,5.28-13.55,7.91,2.72,1.3,5.43,2.61,8.15,3.91,4.45,2.14,9.76,1.17,12.35-3.33,2.33-4.04,1.11-10.22-3.34-12.35-2.71-1.3-5.43-2.61-8.14-3.91-2.98-1.43-6.2-1.68-9.13.07-2.86,1.71-4.26,4.6-4.42,7.85-.29,5.77.13,11.64.79,17.37,1.5,12.95,4.54,25.76,10.96,37.21,1.81,3.23,4,6.2,6.36,9.04,2.27,2.7,4.94,4.88,7.74,7,4.66,3.56,10.09,6.02,15.66,7.83,7.67,2.5,16.14,3.48,24.21,3.07.69-.04,1.39-.07,2.08-.16,2.49-.29,4.55-.84,6.37-2.7,2.27-2.3,3.13-5.7,2.26-8.82-.74-2.68-1.5-5.35-2.23-8.02-1.03-3.66-4.82-6.9-8.78-6.58-3.31.27-6.7.03-9.98-.38.8.1,1.61.21,2.41.31-4.28-.55-8.48-1.56-12.48-3.19.72.3,1.44.6,2.17.89-2.79-1.16-5.44-2.62-7.86-4.43.61.47,1.22.94,1.84,1.4-2.04-1.56-3.87-3.35-5.46-5.37.47.61.95,1.22,1.43,1.82-2.29-2.97-4.02-6.36-5.51-9.79.31.72.62,1.44.94,2.15-3.02-7.1-4.8-14.67-5.88-22.3.11.8.22,1.6.34,2.4-.69-4.95-1.19-10-1.14-15,.05-4.93-4.25-9.02-9.12-8.98-5,.04-8.92,4.19-8.98,9.12Z"/>
        </g>
        <path class="st15" d="M53.56,197.25s-.32,27.13,10.98,44.88c11.29,17.75,37.33,15.57,37.33,15.57l2.23,8.02s-30.09,3.62-45.25-17.69c-15.15-21.31-13.44-54.69-13.44-54.69l8.15,3.91Z"/>
        <path class="st0" d="M51.76,199.07s-.31,27.13,10.99,44.88c11.29,17.75,37.33,15.58,37.33,15.58l1.77,6.36c1.44-.07,2.26-.17,2.26-.17l-2.23-8.02s-26.04,2.18-37.33-15.57c-11.3-17.74-10.98-44.88-10.98-44.88l-8.15-3.91s-.05.96-.06,2.66l6.4,3.08Z"/>
        <path class="st1" d="M60.73,246.12c-12.52-17.61-13.53-43.46-13.5-51.92l-1.82-.87s-1.71,33.38,13.44,54.69c15.15,21.31,45.25,17.69,45.25,17.69l-.49-1.74c-7.39.35-30.28-.15-42.88-17.86Z"/>
      </g>
      <polygon class="st9" points="82.43 269.8 76.78 268.44 81.32 249.72 86.97 251.1 82.43 269.8"/>
      <rect class="st9" x="58.5" y="249.98" width="19.25" height="5.81" transform="translate(-182.31 176.25) rotate(-57.91)"/>
      <rect class="st9" x="48.46" y="238.04" width="19.26" height="5.82" transform="translate(-104.45 53.84) rotate(-27.43)"/>
      <rect class="st9" x="43.31" y="222.71" width="19.26" height="5.81" transform="translate(-13.37 3.56) rotate(-3.42)"/>
    </g>
    <g>
      <g>
        <path class="st7" d="M105.7,241.35l.46,61.14c.04,4.15,3.42,7.48,7.57,7.45l81.63-.61c4.14-.04,7.48-3.42,7.45-7.57l-.46-61.14-96.64.73Z"/>
        <path d="M96.65,241.42c.09,12.12.18,24.23.28,36.35.05,6.95.11,13.9.16,20.84.01,1.3.02,2.62.02,3.91.07,9.02,7.67,16.53,16.7,16.46,10.78-.08,21.56-.16,32.33-.24,14.83-.12,29.65-.23,44.47-.34,1.47,0,2.93-.02,4.4-.03,6.12-.05,12.43-3.34,15.05-9.1,1.15-2.55,1.81-5.01,1.8-7.85,0-.6,0-1.18-.01-1.78-.02-2.52-.05-5.03-.06-7.55-.12-15.33-.22-30.65-.35-45.99-.01-1.85-.03-3.71-.04-5.55-.04-4.93-4.19-9.01-9.11-8.98-9.37.07-18.73.14-28.1.21-16.41.12-32.83.25-49.24.37-6.43.04-12.87.1-19.3.15-4.93.03-9.01,4.17-8.98,9.11.04,4.93,4.19,9.01,9.12,8.98,9.36-.07,18.72-.14,28.09-.21,16.41-.13,32.83-.25,49.24-.38,6.44-.05,12.87-.1,19.31-.14-3.04-2.99-6.07-5.99-9.12-8.98.1,12.12.18,24.24.28,36.36.05,5.87.09,11.72.13,17.58.02,2.72.28,5.55,0,8.26.1-.8.2-1.61.3-2.41-.1.69-.28,1.32-.53,1.96.29-.72.59-1.45.89-2.17-.28.61-.61,1.17-1.01,1.7.47-.61.93-1.22,1.4-1.84-.35.43-.73.81-1.15,1.17.61-.48,1.21-.95,1.82-1.43-.53.41-1.08.75-1.69,1.04.72-.31,1.44-.62,2.15-.93-.63.27-1.27.45-1.95.56.8-.12,1.6-.23,2.4-.34-3.24.4-6.65.12-9.9.14-7.25.06-14.48.11-21.72.17-15.1.11-30.19.22-45.29.34-2.24.02-4.57.22-6.81-.02.8.1,1.6.2,2.41.3-.68-.1-1.32-.28-1.96-.54.72.3,1.44.59,2.17.9-.61-.28-1.17-.61-1.7-1.02.61.47,1.22.94,1.84,1.4-.43-.35-.81-.73-1.17-1.15.47.6.95,1.21,1.43,1.82-.41-.53-.75-1.08-1.04-1.69.31.71.62,1.43.93,2.15-.27-.63-.45-1.26-.57-1.94.12.8.23,1.6.34,2.4-.16-1.32-.09-2.67-.1-3.98-.02-2.75-.04-5.51-.07-8.27-.06-8.13-.12-16.26-.18-24.38-.06-8.53-.13-17.04-.2-25.56-.03-4.94-4.17-9.02-9.1-8.98-4.93.03-9.01,4.17-8.98,9.11Z"/>
      </g>
      <path class="st7" d="M105.7,241.35l.46,61.14c.04,4.15,3.42,7.48,7.57,7.45l81.63-.61c4.14-.04,7.48-3.42,7.45-7.57l-.46-61.14-96.64.73Z"/>
    </g>
    <g>
      <g>
        <path class="st7" d="M191.99,253.41s27.89,33,15.83,40.15c-12.06,7.16-29.03-23.7-29.03-23.7l13.2-16.45Z"/>
        <path d="M189.5,255.94c.25.31.51.62.76.92.28.35.56.69.84,1.04.17.22.34.43.51.65.16.21.54.69-.18-.24.13.17.27.34.39.51,2.18,2.8,4.27,5.67,6.25,8.61,2.34,3.47,4.53,7.06,6.38,10.82.21.44.42.88.62,1.32.1.21.2.43.29.66.34.76-.31-.74,0,.02.38.89.72,1.81,1.03,2.74.26.79.47,1.6.65,2.41.09.38.16.77.22,1.15-.21-1.3,0,.2.01.53.02.35.02.69,0,1.04,0,.16-.01.33-.04.5-.05.66.14-.95.04-.3-.05.31-.13.61-.21.92-.3,1.02.38-.68-.1.27-.15.3-.82,1.19-.03.16-.18.24-.39.46-.62.66-.6.56.74-.48-.18.12-.16.1-.33.19-.5.28-.85.47.51-.18-.05.04-.35.14-.72.24-1.1.32-.7.16.92-.1.2-.02-.18.03-.37.04-.55.04-.38.02-.76-.01-1.14-.05,1.29.13-.23-.07-.58-.17-.39-.11-.78-.24-1.15-.39-.71-.26.79.35.09.04-.2-.09-.39-.18-.58-.28-.87-.43-1.7-.96-2.49-1.52-.19-.13-.38-.28-.57-.42.79.58.11.08-.04-.04-.39-.3-.76-.62-1.13-.95-.83-.72-1.62-1.49-2.39-2.27-1.52-1.55-2.93-3.2-4.28-4.9-.56-.69.47.6-.08-.09-.16-.2-.31-.4-.47-.61-.31-.4-.59-.8-.89-1.21-.61-.84-1.2-1.68-1.8-2.53-.95-1.39-1.87-2.81-2.76-4.24-.7-1.13-1.39-2.27-2.04-3.44-.17,1.44-.34,2.88-.52,4.31,4.4-5.48,8.79-10.96,13.19-16.44,1.21-1.51,1.44-3.57-.04-5.02-1.28-1.26-3.81-1.48-5.02.04-4.4,5.48-8.79,10.97-13.19,16.45-1.04,1.3-1.36,2.79-.53,4.31,2.83,5.14,6.26,10.01,9.97,14.55,4.91,5.99,12.68,13.9,21.28,11.54,3.65-1.01,6.59-4.01,7.19-7.78.6-3.77-.33-7.54-1.71-11.05-3.02-7.68-7.72-14.66-12.64-21.24-1.72-2.31-3.49-4.61-5.35-6.81-1.25-1.48-3.76-1.25-5.02.04-1.46,1.47-1.21,3.54.04,5.02Z"/>
      </g>
      <g>
        <path class="st7" d="M115.95,253.56s-27.77,33.11-15.69,40.21c12.09,7.11,28.93-23.82,28.93-23.82l-13.25-16.39Z"/>
        <path d="M113.42,251.06c-3.35,4-6.45,8.23-9.36,12.56-4.53,6.72-9.31,14.37-10.28,22.58-.4,3.4.42,7.12,3.08,9.46,3.2,2.82,7.71,3.37,11.65,1.94,4.13-1.5,7.6-4.43,10.61-7.56,3.08-3.19,5.77-6.78,8.27-10.43,1.75-2.55,3.43-5.17,4.9-7.88.84-1.54.45-3.02-.58-4.31-4.42-5.47-8.84-10.93-13.26-16.39-1.21-1.51-3.78-1.23-5.02.03-1.47,1.49-1.18,3.53.04,5.03,4.42,5.46,8.83,10.92,13.25,16.39-.2-1.43-.39-2.87-.58-4.3-.84,1.54-1.76,3.03-2.7,4.52-.96,1.54-1.97,3.04-3.01,4.52-.57.81-1.15,1.61-1.74,2.4-.53.7.46-.61-.08.09-.15.2-.32.4-.47.61-.37.47-.75.94-1.14,1.42-1.37,1.66-2.83,3.26-4.39,4.76-.72.69-1.47,1.34-2.24,1.97-.66.53.62-.48-.05.03-.18.14-.38.28-.57.42-.43.31-.89.6-1.34.88-.38.23-.76.44-1.15.65-.19.1-.39.19-.58.28-.7.33.78-.32.08-.04-.38.15-.76.27-1.15.39-.33.09-1.87.32-.58.16-.38.04-.75.05-1.13.04-.19,0-.38-.02-.56-.03,1.14.1.47.06.21,0-.38-.07-.74-.19-1.1-.31,1.12.4-.24-.14-.54-.33-.94-.57.44.41-.17-.13-.25-.21-.96-1.09-.16-.07-.18-.23-.34-.49-.48-.75-.13-.24-.36-.81.11.3-.08-.18-.14-.38-.2-.57-.1-.3-.17-.61-.22-.92-.12-.65.12.96.06.3-.02-.17-.03-.33-.05-.5-.02-.35-.01-.69,0-1.04.01-.18.02-.36.04-.54.07-.96-.11.66-.02.02.25-1.72.77-3.4,1.37-5.03.09-.25.66-1.66.24-.65.18-.44.38-.88.57-1.3.43-.98.91-1.92,1.4-2.86,1.91-3.72,4.16-7.26,6.52-10.71,1.05-1.54,2.13-3.05,3.24-4.55.23-.32.47-.63.71-.95.18-.24,1-1.32.23-.32.43-.56.86-1.12,1.29-1.67.69-.88,1.38-1.76,2.11-2.62,1.24-1.48,1.42-3.58-.04-5.02-1.29-1.28-3.78-1.45-5.02.03Z"/>
      </g>
      <g>
        <path class="st7" d="M182.33,260.46l-26.27.05h-4.47s-26.27.06-26.27.06c0,0-11.01,61.81-3.43,64.45,7.58,2.62,14.58-9.45,14.58-9.45,0,0,5.58,1.69,15.25,1.97h0c.73.03,1.48.04,2.23.04s1.51-.01,2.23-.04h0c9.66-.32,15.24-2.03,15.24-2.03,0,0,7.05,12.06,14.61,9.39,7.57-2.66-3.68-64.42-3.68-64.42Z"/>
        <path d="M182.3,256.91c-10.69.02-21.39.04-32.09.06-8.31,0-16.61.03-24.92.04-1.48,0-3.13,1.1-3.41,2.63-2.15,12.08-3.89,24.26-5.14,36.46-.76,7.39-1.54,14.99-.88,22.42.21,2.46.51,5.4,1.97,7.5,2.88,4.14,8.78,3.25,12.61,1.02,3.75-2.21,6.91-5.97,9.09-9.7-1.34.56-2.67,1.11-4.01,1.66,5.17,1.56,10.85,1.93,16.19,2.1-1.19-1.18-2.38-2.35-3.57-3.53h0c.01,1.99,1.63,3.49,3.57,3.53,1.49.03,2.98.03,4.46,0,1.94-.06,3.54-1.62,3.53-3.59h0c-1.17,1.19-2.35,2.38-3.53,3.58,5.35-.2,11.03-.6,16.19-2.17-1.34-.54-2.68-1.07-4.02-1.6,1.71,2.9,3.98,5.67,6.58,7.81,3.78,3.11,9.93,5.56,14.2,1.9,1.77-1.52,2.34-4.29,2.62-6.48.44-3.4.49-6.8.38-10.22-.27-8.35-1.26-16.69-2.36-24.97-.96-7.19-2.05-14.38-3.27-21.53-.24-1.45-.49-2.89-.75-4.34-.35-1.9-2.67-2.94-4.39-2.45-1.99.57-2.79,2.49-2.45,4.39.69,3.8,1.32,7.62,1.92,11.43.28,1.82.57,3.64.84,5.46.13.94.28,1.89.41,2.84.03.2.15,1.06,0,.02.03.24.07.48.1.74.08.57.16,1.15.24,1.73.59,4.28,1.13,8.57,1.57,12.86.77,7.31,1.57,14.87.88,22.22-.03.32-.18,1.55,0,.14-.04.29-.09.58-.13.87-.09.55-.21,1.09-.36,1.63-.07.21-.14.42-.22.63-.09.25.47-1,.08-.21-.08.16-.17.32-.27.46-.02.04.73-.81.15-.24-.43.42.93-.62.32-.27-.38.22,1.02-.42.61-.25-.27.1-.54.16-.82.23-.91.21.77-.05-.14,0-.27.02-.54,0-.8,0-.9-.04.78.14-.1-.02-.35-.07-.7-.18-1.03-.3-.87-.28.69.33-.15-.06-.25-.11-.49-.24-.73-.38-.5-.27-.95-.59-1.41-.92.7.51-.05-.05-.16-.14-.21-.19-.43-.37-.63-.56-.47-.42-.93-.88-1.36-1.34-.53-.56-1.02-1.15-1.51-1.74.65.8,0-.02-.13-.19-.2-.27-.39-.53-.58-.8-.36-.52-.71-1.04-1.03-1.58-.8-1.35-2.52-2.06-4.03-1.6-4.92,1.5-8.97,1.71-14.29,1.89-1.93.08-3.54,1.61-3.53,3.58h0c1.18-1.18,2.36-2.38,3.53-3.57-1.49.05-2.98.05-4.47.01,1.19,1.17,2.39,2.35,3.58,3.53h0c-.01-2-1.64-3.47-3.58-3.54-3.84-.12-7.01-.39-10.3-.96-1.33-.24-2.7-.49-4-.88-1.52-.46-3.22.32-4,1.66-.51.89-1.12,1.73-1.73,2.55.66-.89-.31.37-.48.58-.33.4-.67.79-1.03,1.18-.37.4-.77.79-1.16,1.17-.2.19-.42.38-.62.56-.14.12-.28.24-.43.37.35-.27.37-.28.05-.05-.45.34-.92.64-1.4.92-.24.14-.49.27-.73.39-.82.41.7-.27-.15.05-.25.09-.51.16-.77.23-.18.05-1.07.18-.1.06-.26.03-.53.04-.8.04-.18,0-.36-.01-.54-.03.5.08.54.08.13,0-.28-.05-.55-.14-.82-.22,1.15.37.91.39.61.24-.62-.32.77.66.33.26-.58-.52.37.53.21.31-.13-.17-.22-.35-.32-.53-.39-.76.34.88.09.2-.08-.2-.15-.42-.21-.63-.16-.54-.27-1.09-.38-1.63-.02-.14-.05-.28-.07-.43-.1-.62.14.99.05.36-.04-.31-.08-.62-.11-.94-.08-.74-.12-1.49-.16-2.24-.17-3.57-.03-7.15.19-10.72.25-4.22.66-8.43,1.12-12.63.12-1.04.23-2.08.35-3.11.06-.51.13-1.03.19-1.55.03-.25.06-.52.1-.77.02-.21.17-1.38.04-.33.27-2.08.54-4.15.83-6.22.84-6,1.77-11.98,2.79-17.95.1-.59.2-1.19.31-1.78-1.14.88-2.28,1.75-3.41,2.63,10.7-.02,21.39-.04,32.09-.06,8.31-.01,16.61-.03,24.92-.05,4.58-.01,4.53-7.11-.05-7.11Z"/>
      </g>
      <g>
        <g>
          <polygon class="st16" points="180.42 259.7 154.02 259.75 153.8 259.75 127.4 259.81 116.03 297.44 153.87 297.38 154.09 297.38 191.93 297.3 180.42 259.7"/>
          <path d="M180.37,252.6c-10.62.02-21.23.05-31.86.06-7.05.01-14.11.03-21.17.04-3.23,0-5.89,2.23-6.81,5.27-3.63,12-7.25,23.99-10.87,35.98-.16.56-.33,1.11-.49,1.66-1.36,4.47,2.41,8.96,6.92,8.94,12.31-.02,24.64-.05,36.95-.08,11.78-.02,23.55-.04,35.33-.06,1.21,0,2.41,0,3.61,0,4.55-.01,8.14-4.63,6.78-9.05-3.67-11.98-7.33-23.96-11-35.95-.17-.55-.34-1.1-.51-1.65-1.14-3.71-5-5.97-8.78-4.91-3.66,1.05-6.03,5.09-4.89,8.79,3.67,11.98,7.33,23.96,11,35.94.17.55.33,1.11.51,1.66,2.26-3.02,4.52-6.03,6.78-9.04-12.31.02-24.63.04-36.95.07-11.78.02-23.55.04-35.33.06-1.21,0-2.41,0-3.61,0,2.3,2.98,4.61,5.97,6.93,8.95,3.61-12,7.24-23.99,10.86-35.98.17-.55.33-1.11.5-1.66-2.27,1.75-4.54,3.52-6.81,5.26,10.62-.02,21.23-.04,31.85-.06,7.05-.01,14.11-.04,21.17-.05,3.87,0,7.08-3.3,7.05-7.16-.03-3.89-3.29-7.06-7.16-7.05Z"/>
        </g>
        <polygon class="st7" points="180.42 259.7 154.02 259.75 153.8 259.75 127.4 259.81 116.03 297.44 153.87 297.38 154.09 297.38 191.93 297.3 180.42 259.7"/>
      </g>
    </g>
    <g>
      <path class="st11" d="M111.72,287.34l-9.26-6.64s.23-.62.95-2.07c.72-1.45,1.19-2.16,1.19-2.16l8.49,6.29-1.37,4.59Z"/>
      <path class="st12" d="M103.97,280.11s.22-.61.95-2.07c.19-.38.36-.7.51-.99l-.83-.61s-.47.71-1.19,2.16c-.72,1.46-.95,2.07-.95,2.07l9.26,6.64-7.75-7.22Z"/>
      <rect class="st9" x="107.58" y="271.61" width="3.88" height="12.18" transform="translate(-178.98 201.03) rotate(-53.59)"/>
      <rect class="st9" x="104.08" y="279.47" width="3.88" height="12.18" transform="translate(-188.39 207.41) rotate(-54.77)"/>
    </g>
    <g>
      <path class="st11" d="M196.3,287.17l9.24-6.68s-.23-.61-.96-2.07c-.73-1.45-1.2-2.16-1.2-2.16l-8.47,6.33,1.39,4.58Z"/>
      <rect class="st9" x="192.38" y="275.59" width="12.18" height="3.88" transform="translate(-126.35 173.11) rotate(-36.61)"/>
      <rect class="st9" x="195.91" y="283.44" width="12.18" height="3.88" transform="translate(-128.05 170.01) rotate(-35.44)"/>
    </g>
    <path d="M88.39,100.12c-.21.58-.86.88-1.44.67h0c-.58-.21-.88-.86-.66-1.44l2.05-5.58c.21-.58.86-.88,1.44-.66h0c.58.21.88.86.66,1.44l-2.04,5.58Z"/>
    <path d="M93.28,89.44c-.31.54-.99.73-1.53.42h0c-.54-.3-.72-.99-.41-1.52l2.96-5.15c.31-.54.99-.73,1.53-.42h0c.53.31.72.99.42,1.53l-2.96,5.15Z"/>
    <path class="st12" d="M204.03,279.95s-.24-.61-.98-2.06c-.2-.37-.38-.7-.53-.97l.81-.62s.48.71,1.23,2.15c.74,1.44.98,2.05.98,2.05l-9.25,6.53,7.74-7.08Z"/>
    <g>
      <g>
        <rect class="st15" x="108.42" y="264.63" width="4.22" height="7.84" transform="translate(-176.94 227.37) rotate(-59.48)"/>
        <path d="M113.48,271.24c-2.26-1.33-4.5-2.65-6.75-3.98.17.59.32,1.18.48,1.77.71-1.21,1.43-2.42,2.14-3.64-.58.16-1.18.32-1.76.48,2.25,1.33,4.5,2.66,6.75,3.98-.16-.59-.32-1.18-.48-1.76-.72,1.21-1.42,2.42-2.14,3.62-.85,1.44,1.4,2.73,2.24,1.29.72-1.21,1.43-2.43,2.15-3.64.36-.61.12-1.41-.48-1.77-2.25-1.32-4.5-2.66-6.75-3.98-.61-.37-1.4-.13-1.76.47-.71,1.21-1.43,2.42-2.15,3.64-.36.61-.12,1.41.48,1.76,2.25,1.33,4.51,2.66,6.75,3.99,1.44.85,2.72-1.4,1.29-2.25Z"/>
      </g>
      <polygon class="st1" points="107.86 267.93 112.37 270.61 113.18 269.19 112.53 268.81 111.96 269.79 107.86 267.93"/>
    </g>
    <g>
      <g>
        <rect class="st15" x="193.64" y="267.2" width="7.84" height="4.22" transform="translate(-111.45 142.54) rotate(-31.43)"/>
        <path d="M195.97,274.27c2.23-1.36,4.46-2.73,6.69-4.09.59-.36.82-1.17.45-1.77-.73-1.21-1.47-2.4-2.2-3.6-.36-.59-1.17-.82-1.78-.45-2.23,1.36-4.46,2.72-6.69,4.08-.59.36-.83,1.17-.44,1.77.73,1.2,1.47,2.4,2.19,3.61.86,1.41,3.09.1,2.23-1.32-.74-1.2-1.47-2.41-2.21-3.61-.14.59-.3,1.18-.45,1.78,2.23-1.37,4.46-2.73,6.69-4.09-.6-.15-1.18-.3-1.77-.45.73,1.2,1.47,2.4,2.2,3.6.15-.6.3-1.18.45-1.77-2.23,1.36-4.46,2.72-6.69,4.08-1.42.87-.11,3.09,1.32,2.23Z"/>
      </g>
      <polygon class="st1" points="200.21 268.65 195.74 271.4 194.91 269.99 195.55 269.6 196.14 270.57 200.21 268.65"/>
    </g>
    <g>
      <path class="st16" d="M137,286.09s-3.65,3.13-9.41,5.81c-5.75,2.67-11.18,3.53-11.18,3.53l-1.03,2.37,4.37.43s4.22-.58,10.14-3.81c5.92-3.23,9.43-6.16,9.43-6.16l-2.32-2.17Z"/>
      <path d="M132.68,281.82c-.06.05-.12.1-.17.14-.94.77,1.42-1.09.4-.31-.9.68-1.84,1.32-2.8,1.93-1.26.82-2.58,1.56-3.91,2.25-.42.22-.84.43-1.26.63-.2.11-1.71.77-.38.2-.88.37-1.78.7-2.68,1.02-2.21.79-4.5,1.41-6.82,1.84-2.94.54-3.9,2.9-4.92,5.24-.88,2.06-1.17,4.1.05,6.14,1.18,1.98,3.07,2.75,5.27,2.96.73.07,1.46.14,2.18.22.67.06,1.52.3,2.19.2,2.29-.32,4.42-.84,6.59-1.65,6.23-2.32,12.13-5.88,17.24-10.12,2.5-2.08,2.18-6.49-.06-8.59-.77-.72-1.55-1.44-2.31-2.17-2.42-2.26-6.22-2.34-8.59.07-2.28,2.31-2.35,6.33.06,8.59.77.72,1.55,1.44,2.32,2.16-.02-2.86-.04-5.73-.06-8.59-.08.07-.14.13-.24.19-.57.46,1.48-1.15.82-.63-.14.11-.29.22-.43.33-1,.75-2.03,1.46-3.08,2.15-1.57,1.05-3.19,2.01-4.84,2.93-.85.47-1.71.91-2.58,1.34-.4.19-.8.36-1.19.54,1.62-.72-.03-.01-.37.12-1.16.44-2.35.81-3.55,1.12-.77.2-3.08.53.17.07-.66.09-1.52-.14-2.18-.21-.73-.06-1.46-.13-2.18-.21,1.77,3.04,3.54,6.07,5.31,9.1.33-.78.69-1.58,1.03-2.37-1.21.95-2.41,1.88-3.61,2.82,4.53-.73,8.93-2.41,13.06-4.36,3.64-1.71,7.13-3.94,10.2-6.56,2.52-2.15,2.14-6.43-.06-8.6-2.51-2.47-6.07-2.08-8.59.07Z"/>
    </g>
    <path class="st15" d="M137,286.09s-3.65,3.13-9.41,5.81c-5.75,2.67-11.18,3.53-11.18,3.53,0,0-2.11.9-1.03,2.37,1.08,1.48,4.37.43,4.37.43,0,0,4.22-.58,10.14-3.81,5.92-3.23,9.43-6.16,9.43-6.16l-2.32-2.17Z"/>
    <path class="st0" d="M116.42,296.33s5.42-.86,11.17-3.53c5.75-2.67,9.42-5.81,9.42-5.81l1.79,1.68c.34-.27.52-.41.52-.41l-2.32-2.17s-3.65,3.13-9.41,5.81c-5.75,2.67-11.18,3.53-11.18,3.53,0,0-1.76.76-1.23,2.01.31-.71,1.24-1.11,1.24-1.11Z"/>
    <path class="st1" d="M129.88,293.25c-5.92,3.24-10.13,3.8-10.13,3.8,0,0-3.29,1.06-4.37-.42-.06-.07-.1-.16-.14-.22-.21.37-.25.84.15,1.38,1.08,1.48,4.37.43,4.37.43,0,0,4.22-.58,10.14-3.81,5.92-3.23,9.43-6.16,9.43-6.16l-.68-.64c-1.28.99-4.36,3.23-8.77,5.63Z"/>
    <g>
      <g>
        <path class="st16" d="M171.05,285.82s3.71,3.09,9.5,5.67c5.78,2.59,11.22,3.36,11.22,3.36l1.07,2.37-4.36.48s-4.23-.51-10.19-3.65c-5.98-3.14-9.53-6.03-9.53-6.03l2.29-2.2Z"/>
        <path d="M166.79,290.15c3.12,2.58,6.63,4.7,10.3,6.41,4.13,1.92,8.6,3.5,13.12,4.16-1.22-.92-2.43-1.84-3.65-2.77.35.79.7,1.58,1.06,2.36,1.72-3.06,3.44-6.12,5.17-9.18-1.45.16-2.9.32-4.34.48.07,0,2.26.32,1.32.17-.32-.05-.65-.12-.98-.19-1.17-.26-2.3-.61-3.42-.99-.35-.13-.7-.26-1.04-.39-1.3-.5,1.3.56-.06-.02-1-.43-1.99-.91-2.96-1.41-1.71-.89-3.38-1.87-5.02-2.89-1.11-.69-2.19-1.43-3.25-2.18-.48-.35-1.77-1.34.3.24-.11-.07-.21-.16-.32-.24.02,2.87.05,5.72.07,8.59.76-.74,1.52-1.47,2.28-2.21,2.38-2.3,2.25-6.31-.06-8.59-2.4-2.37-6.21-2.23-8.59.07-.76.73-1.52,1.47-2.29,2.2-2.21,2.13-2.46,6.55.07,8.58,5.1,4.12,10.92,7.42,17.05,9.74,1.71.65,3.53,1.24,5.35,1.48,2.04.27,3.94-.05,5.98-.28,2.19-.24,4.06-1.04,5.22-3.05,1.18-2.04.87-4.08-.05-6.13-1.02-2.26-2-4.68-4.9-5.15-2.21-.35-4.38-.94-6.52-1.62-.74-.23-1.48-.5-2.21-.76-.2-.08-1.72-.71-.39-.14-.44-.19-.89-.4-1.34-.61-1.54-.71-3.03-1.54-4.48-2.41-1.02-.61-2.01-1.27-2.97-1.96-1.29-.92,1.07.84.31.25-.09-.07-.17-.13-.25-.21-2.56-2.1-6.12-2.45-8.59.07-2.17,2.2-2.49,6.48.06,8.58Z"/>
      </g>
      <path class="st15" d="M171.05,285.82s3.71,3.09,9.5,5.67c5.78,2.59,11.22,3.36,11.22,3.36,0,0,2.12.87,1.07,2.37-1.05,1.49-4.36.48-4.36.48,0,0-4.23-.51-10.19-3.65-5.98-3.14-9.53-6.03-9.53-6.03l2.29-2.2Z"/>
      <path class="st0" d="M171.06,286.74s3.71,3.08,9.5,5.66c5.79,2.59,11.22,3.36,11.22,3.36,0,0,.94.39,1.25,1.1.51-1.28-1.26-2-1.26-2,0,0-5.43-.77-11.22-3.36-5.8-2.58-9.5-5.67-9.5-5.67l-2.29,2.2s.18.15.53.42l1.76-1.7Z"/>
      <path class="st1" d="M192.83,296.05c-1.06,1.5-4.35.49-4.35.49,0,0-4.23-.51-10.19-3.65-4.45-2.34-7.55-4.54-8.84-5.51l-.67.64s3.55,2.89,9.53,6.03c5.96,3.15,10.19,3.65,10.19,3.65,0,0,3.31,1,4.36-.48.39-.56.34-1.03.13-1.4-.04.07-.09.15-.14.22Z"/>
    </g>
    <g>
      <g>
        <path class="st16" d="M168.6,275.57s2.93-3.83,8-7.64c5.06-3.82,10.18-5.78,10.18-5.78l.51-2.54-4.36.5s-4.01,1.43-9.12,5.83c-5.12,4.39-7.94,7.99-7.94,7.99l2.72,1.63Z"/>
        <path d="M172.93,279.83c.96-1.25,2.08-2.41,3.2-3.52,1.14-1.14,2.36-2.19,3.6-3.2-1.12.91.22-.15.38-.27.4-.3.81-.58,1.23-.87.77-.53,1.58-1.03,2.38-1.51,1.21-.72,2.45-1.38,3.72-2,.47-.23.95-.45,1.43-.66.81-.37-1.74.71-.53.23,2.2-.89,3.9-2.28,4.39-4.71.14-.72.28-1.43.43-2.14.32-1.64.22-3.21-.65-4.68-1.01-1.69-3.2-3.2-5.26-2.97-.73.09-1.46.17-2.18.25-1.12.13-2.77.1-3.79.48-2.01.73-3.92,1.73-5.73,2.86-5.2,3.24-10.19,7.72-13.99,12.55-1.04,1.32-1.75,2.56-1.74,4.31.01,2.18,1.2,4.11,3.05,5.22.9.55,1.81,1.1,2.71,1.64,2.84,1.71,6.67.58,8.29-2.24,1.68-2.91.59-6.59-2.24-8.29-.9-.54-1.81-1.09-2.71-1.63.43,3.18.86,6.35,1.3,9.53.97-1.24,2.08-2.4,3.18-3.53,1.28-1.32,2.63-2.59,4.01-3.81.37-.33.76-.65,1.13-.97.19-.16,1.48-1.18.26-.23.76-.59,1.56-1.15,2.37-1.69,1.07-.71,2.2-1.37,3.35-1.95.32-.16.65-.3.97-.45-2.22.97-1.39.58-.88.39-1.72.63-2.01.27-1.02.15.53-.06,1.06-.12,1.59-.18.73-.09,1.45-.17,2.18-.25-1.97-2.56-3.94-5.1-5.92-7.65-.17.85-.34,1.7-.51,2.54,1.4-1.43,2.81-2.85,4.21-4.27-4.13,1.6-8.08,3.76-11.63,6.4-3.34,2.48-6.67,5.29-9.23,8.6-1.03,1.34-1.75,2.54-1.74,4.31.02,1.6.67,3.15,1.81,4.28,2.14,2.11,6.56,2.56,8.59-.06Z"/>
      </g>
      <path class="st15" d="M168.6,275.57s2.93-3.83,8-7.64c5.06-3.82,10.18-5.78,10.18-5.78,0,0,1.88-1.32.51-2.54-1.36-1.22-4.36.5-4.36.5,0,0-4.01,1.43-9.12,5.83-5.12,4.39-7.94,7.99-7.94,7.99l2.72,1.63Z"/>
      <path class="st0" d="M174.09,266.88c5.11-4.39,9.12-5.84,9.12-5.84,0,0,2.99-1.72,4.35-.5.09.08.16.15.22.22.06-.36-.04-.77-.48-1.17-1.36-1.22-4.36.5-4.36.5,0,0-4.01,1.43-9.12,5.83-5.12,4.39-7.94,7.99-7.94,7.99l.7.42c.97-1.15,3.56-4.07,7.51-7.47Z"/>
      <path class="st1" d="M187.3,259.6c-.45-.4-1.06-.48-1.69-.42.14.07.28.15.39.26,1.36,1.22-.51,2.54-.51,2.54,0,0-5.13,1.97-10.19,5.78-4.08,3.06-6.77,6.14-7.67,7.23l.96.57s2.93-3.83,8-7.64c5.06-3.82,10.18-5.78,10.18-5.78,0,0,1.88-1.32.51-2.54Z"/>
    </g>
    <g>
      <g>
        <path class="st16" d="M140.52,275.78s-2.98-3.79-8.11-7.52c-5.12-3.73-10.28-5.62-10.28-5.62l-.55-2.53,4.36.43s4.02,1.38,9.21,5.69c5.18,4.32,8.05,7.88,8.05,7.88l-2.69,1.67Z"/>
        <path d="M144.78,271.45c-2.61-3.29-5.98-5.99-9.35-8.46-3.55-2.62-7.59-4.7-11.73-6.23,1.43,1.4,2.85,2.81,4.28,4.21-.19-.84-.37-1.69-.55-2.53-1.93,2.57-3.86,5.15-5.8,7.73,1.45.14,2.9.29,4.35.43-2.18-.22-1.99-.36-1.34-.11.68.26-1.76-.74-1-.41.22.09.43.19.65.29,1.13.52,2.21,1.14,3.27,1.79.68.43,1.33.87,1.99,1.33.22.16,1.41,1.06.22.14.52.4,1.02.83,1.52,1.25,1.45,1.21,2.84,2.49,4.18,3.81,1.22,1.19,2.42,2.42,3.49,3.74.39-3.18.77-6.36,1.16-9.55-.89.56-1.79,1.13-2.69,1.68-2.81,1.75-3.84,5.44-2.12,8.32,1.67,2.8,5.51,3.87,8.33,2.12.89-.56,1.79-1.12,2.7-1.68,1.35-.84,2.35-2.1,2.76-3.65.61-2.28-.2-4.16-1.61-5.9-3.83-4.71-8.77-8.93-13.88-12.15-1.89-1.19-3.95-2.21-6.07-2.96-.93-.33-2.52-.29-3.55-.4-.81-.08-1.62-.16-2.43-.24-1.52-.15-3.26.77-4.28,1.81-1.59,1.62-1.98,3.76-1.52,5.92.14.65.28,1.3.42,1.95.54,2.48,2.18,3.95,4.5,4.84.48.18,1.41.57-.72-.31.46.19.91.39,1.36.6,1.37.62,2.71,1.33,4.02,2.07,1.55.88,3.04,1.87,4.47,2.92-1.14-.83.14.13.31.27.36.29.71.58,1.06.88.64.54,1.24,1.1,1.84,1.66,1.15,1.08,2.27,2.23,3.26,3.47,2.06,2.6,6.48,2.08,8.59-.06,1.13-1.14,1.76-2.71,1.74-4.31-.01-1.76-.76-2.96-1.81-4.28Z"/>
      </g>
      <path class="st15" d="M140.52,275.78s-2.98-3.79-8.11-7.52c-5.12-3.73-10.28-5.62-10.28-5.62,0,0-1.89-1.29-.55-2.53,1.34-1.25,4.36.43,4.36.43,0,0,4.02,1.38,9.21,5.69,5.18,4.32,8.05,7.88,8.05,7.88l-2.69,1.67Z"/>
      <path class="st0" d="M121.2,260.82c1.34-1.25,4.36.43,4.36.43,0,0,4.03,1.38,9.2,5.7,4.28,3.56,6.99,6.6,7.8,7.56l.64-.39s-2.87-3.56-8.05-7.88c-5.18-4.32-9.21-5.69-9.21-5.69,0,0-3.02-1.67-4.36-.43-.29.27-.43.54-.47.79.03-.02.06-.05.09-.08Z"/>
      <path class="st1" d="M141.16,275.13s-2.98-3.79-8.11-7.53c-5.12-3.73-10.28-5.62-10.28-5.62,0,0-1.47-1-.89-2.09-.1.06-.2.13-.29.21-1.34,1.24.55,2.53.55,2.53,0,0,5.16,1.89,10.28,5.62,5.13,3.73,8.11,7.52,8.11,7.52l2.69-1.67s-.05-.06-.13-.17l-1.92,1.2Z"/>
    </g>
    <g>
      <g>
        <path class="st16" d="M170.73,286.02c0,1.21-1.15,2.19-2.57,2.19l-28.59.06c-1.42,0-2.57-.98-2.58-2.18l-.02-12.29c0-1.21,1.15-2.2,2.57-2.2l28.59-.06c1.42,0,2.57.98,2.58,2.19l.02,12.3Z"/>
        <path d="M164.66,286.07c.16-1.93,1.32-3.93,3.46-3.93h-.14c-.33,0-.66,0-1,0-1.34,0-2.68,0-4.02,0-4.07,0-8.14.01-12.21.03-3.32,0-6.64.01-9.96.02h-1.23c1.15,0,2.24.69,2.91,1.71.95,1.46.61,3.01.61,1.37,0-.81,0-1.62,0-2.42,0-2.05,0-4.1-.01-6.14,0-.73,0-1.46,0-2.19v-.74c0,1.05-.41,2.04-1.11,2.84-.57.65-1.55,1.05-2.32,1.06h.22c.38,0,.75,0,1.12,0,1.4,0,2.81,0,4.21,0,7.32-.01,14.65-.03,21.97-.05h1.03c-2.12.01-3.37-1.87-3.54-3.84.09,1.04,0,2.13,0,3.18,0,3.04.01,6.07.02,9.11.01,3.31,2.82,6.05,6.12,6.03,3.33-.02,6.03-2.8,6.03-6.12,0-3.18-.01-6.37-.02-9.55,0-1.67.09-3.34-.34-4.98-1.02-3.86-4.97-5.98-8.72-5.97-6.97.02-13.93.03-20.89.05-2.42,0-4.84.01-7.26.01-4.63.01-8.68,3.64-8.67,8.37,0,1.36,0,2.72.01,4.07,0,2.02,0,4.04.01,6.05,0,2.23-.04,4.37,1.27,6.36,1.81,2.76,4.8,3.97,8,3.96,1.14,0,2.28,0,3.42,0,5.75,0,11.5-.02,17.26-.03,2.1-.01,4.2-.02,6.3-.02h1.03c2.27,0,4.27-.89,5.97-2.35,1.79-1.53,2.44-3.69,2.63-5.96.28-3.3-3.04-6.05-6.12-6.03-3.54.02-5.75,2.82-6.03,6.12Z"/>
      </g>
      <path class="st7" d="M170.73,286.02c0,1.21-1.15,2.19-2.57,2.19l-28.59.06c-1.42,0-2.57-.98-2.58-2.18l-.02-12.29c0-1.21,1.15-2.2,2.57-2.2l28.59-.06c1.42,0,2.57.98,2.58,2.19l.02,12.3Z"/>
      <path class="st17" d="M136.99,275.43c0-1.22,1.15-2.19,2.57-2.2l28.59-.05c1.36,0,2.48.89,2.57,2.03v-1.48c-.01-1.21-1.16-2.19-2.58-2.19l-28.59.06c-1.42,0-2.57.98-2.57,2.2l.02,12.29s.01.1.02.15l-.03-10.81Z"/>
      <path class="st17" d="M170.71,282.75c0,1.2-1.15,2.19-2.57,2.19l-28.59.06c-1.32,0-2.41-.84-2.56-1.93v3.03c.01,1.2,1.16,2.18,2.58,2.18l28.59-.06c1.42,0,2.58-.98,2.57-2.19l-.02-12.3c0-.09-.01-.17-.02-.25l.02,9.27Z"/>
    </g>
    <g>
      <g>
        <path class="st14" d="M147,279.85c0,1.21-.98,2.19-2.18,2.19-1.21,0-2.19-.98-2.19-2.19s.98-2.19,2.19-2.19c1.2,0,2.19.98,2.19,2.19Z"/>
        <path d="M142.48,279.88c.14-.8.16-.98.04-.51.12-.48.35-.88.7-1.22-.33.32-.2.22.39-.29.22-.1.44-.19.66-.28-.46.13-.3.1.51-.06,1.3-.07,2.29,1.07,2.36,2.31.07,1.3-1.08,2.29-2.3,2.36-1.32.08-2.3-1.08-2.37-2.3.13,2.46,2,4.5,4.56,4.48,2.37-.02,4.62-2.09,4.49-4.55-.21-3.8-2.97-6.48-6.75-6.67-1.78-.09-3.34.84-4.65,1.92-1.4,1.14-1.93,3.12-2.02,4.84-.1,1.78.84,3.34,1.92,4.65,1.14,1.4,3.12,1.93,4.83,2.02,1.78.09,3.34-.84,4.66-1.92,1.39-1.14,1.92-3.11,2.01-4.83.12-2.46-2.2-4.5-4.55-4.49-2.58.02-4.36,2.1-4.49,4.56Z"/>
      </g>
      <path class="st11" d="M147,279.85c0,1.21-.98,2.19-2.18,2.19-1.21,0-2.19-.98-2.19-2.19s.98-2.19,2.19-2.19c1.2,0,2.19.98,2.19,2.19Z"/>
      <path class="st13" d="M144.82,281.55c-1.13,0-2.05-.85-2.18-1.95-.01.09-.02.17-.02.25,0,1.21.99,2.19,2.19,2.18,1.21,0,2.19-.98,2.19-2.19,0-.09-.01-.17-.02-.25-.12,1.1-1.04,1.95-2.17,1.95Z"/>
      <path class="st12" d="M144.81,278.16c-1.13,0-2.05.85-2.17,1.94-.01-.07-.02-.16-.02-.25,0-1.21.98-2.19,2.19-2.19,1.21,0,2.19.97,2.19,2.19,0,.08-.01.17-.02.25-.13-1.1-1.05-1.93-2.18-1.93Z"/>
    </g>
    <g>
      <g>
        <path class="st14" d="M165.32,280.03c0,.83-.67,1.51-1.5,1.51h-4.99c-.83,0-1.51-.66-1.51-1.5h0c0-.83.67-1.5,1.5-1.5h4.99c.83-.01,1.51.66,1.51,1.49h0Z"/>
        <path d="M160.8,280.07c.36-3.19,4.64-3.05,2.43-3.05h-1.81c-.63,0-1.26,0-1.89.01-2.47,0,1.95-.2,2.31,2.98.37,3.13-4.72,3.05-2.42,3.04h1.81c.63,0,1.26,0,1.89,0,2.47,0-1.94.2-2.31-2.98.28,2.45,1.89,4.51,4.55,4.49,2.26-.02,4.78-2.11,4.49-4.56-.42-3.57-2.52-5.59-6.07-5.99-.76-.08-1.59,0-2.37,0-.87,0-1.74,0-2.6,0-1.5,0-3.08.61-4.14,1.68-1.27,1.28-1.67,2.65-1.86,4.39-.16,1.4.71,3.16,1.68,4.13,1.28,1.27,2.64,1.67,4.38,1.86.77.08,1.59,0,2.36,0,.87,0,1.74,0,2.61,0,1.5,0,3.08-.62,4.15-1.69,1.28-1.27,1.66-2.64,1.86-4.38.28-2.46-2.32-4.5-4.55-4.49-2.7.02-4.21,2.11-4.49,4.55Z"/>
      </g>
      <path class="st8" d="M165.32,280.03c0,.83-.67,1.51-1.5,1.51h-4.99c-.83,0-1.51-.66-1.51-1.5h0c0-.83.67-1.5,1.5-1.5h4.99c.83-.01,1.51.66,1.51,1.49h0Z"/>
      <path class="st10" d="M163.82,280.91h-4.99c-.72.01-1.32-.5-1.47-1.17-.02.1-.03.21-.03.31,0,.84.68,1.51,1.51,1.5h4.99c.83,0,1.5-.68,1.5-1.51,0-.11-.01-.21-.03-.32-.15.68-.75,1.19-1.47,1.19Z"/>
      <path class="st6" d="M163.82,279.17h-4.98c-.73.01-1.33.52-1.47,1.2-.02-.1-.03-.2-.03-.32,0-.83.67-1.5,1.5-1.5h4.99c.83-.01,1.51.66,1.51,1.49,0,.11-.01.21-.03.32-.15-.68-.76-1.18-1.48-1.18Z"/>
    </g>
    <g>
      <g>
        <rect class="st9" x="126.85" y="290.79" width="2.5" height="5.6" transform="translate(-91.52 60.41) rotate(-19.71)"/>
        <path d="M127.14,298.19l-2.71-7.55,4.63-1.66,2.71,7.55-4.63,1.66ZM127.52,292.11l1.08,3,.07-.03-1.08-3-.07.03Z"/>
      </g>
      <g>
        <rect class="st9" x="119.89" y="293.23" width="2.5" height="5.6" transform="translate(-93.27 58.67) rotate(-19.84)"/>
        <path d="M120.18,300.64l-2.72-7.55,4.62-1.67,2.72,7.54-4.62,1.67ZM120.56,294.55l1.08,3,.08-.03-1.08-3-.08.03Z"/>
      </g>
    </g>
    <g>
      <rect class="st9" x="177.24" y="291.95" width="5.6" height="2.5" transform="translate(-155.85 367.75) rotate(-70.96)"/>
      <path d="M181.06,297.79l-4.64-1.6,2.59-7.58,4.65,1.59-2.6,7.59ZM179.48,294.69l.08.03,1.03-3.01-.07-.03-1.03,3.01Z"/>
    </g>
    <g>
      <polygon class="st9" points="184.94 297.78 187.3 298.59 189.12 293.29 186.76 292.49 184.94 297.78"/>
      <path d="M188.06,300.12l-4.65-1.58,2.59-7.59,4.66,1.59-2.6,7.58ZM186.48,297.03l.08.02,1.03-3.01-.08-.03-1.03,3.01Z"/>
    </g>
    <g>
      <rect class="st9" x="176.4" y="262.49" width="2.5" height="5.59" transform="translate(-114.18 135.78) rotate(-32.26)"/>
      <path d="M177.72,269.98l-4.28-6.77,4.16-2.62,4.28,6.77-4.16,2.62ZM176.77,263.96l1.7,2.69.07-.04-1.7-2.69-.07.04Z"/>
    </g>
    <g>
      <polygon class="st9" points="183.43 265.05 185.54 263.71 182.55 258.99 180.43 260.31 183.43 265.05"/>
      <path d="M183.06,266.71l-4.29-6.78,4.17-2.61,4.28,6.77-4.16,2.62ZM182.11,260.69l1.7,2.69.07-.04-1.7-2.69-.07.04Z"/>
    </g>
    <g>
      <polygon class="st9" points="130.42 268.68 128.29 267.38 131.2 262.6 133.33 263.9 130.42 268.68"/>
      <path d="M130.83,270.34l-4.2-2.55,4.18-6.85,4.19,2.57-4.16,6.84ZM129.95,266.98l.07.04,1.65-2.71-.07-.04-1.65,2.71Z"/>
    </g>
    <g>
      <rect class="st9" x="122.63" y="261.2" width="5.6" height="2.5" transform="translate(-163.85 231.96) rotate(-58.44)"/>
      <path d="M125.43,267.15l-4.18-2.57,4.17-6.84,4.19,2.56-4.18,6.84ZM124.57,263.79l.07.04,1.66-2.72-.07-.04-1.66,2.72Z"/>
    </g>
    <g>
      <g>
        <g>
          <path class="st7" d="M34.1,87.57c-.07,0-.13,0-.21,0-13.82.03-24.98,20.33-24.94,45.33.06,25.01,11.29,45.27,25.12,45.24.07,0,.13,0,.21,0l-.18-90.56Z"/>
          <path d="M34.03,78.52c-12.88-.27-22.67,10.72-27.5,21.59C.04,114.75-1.25,130.97,1.07,146.71c1.39,9.42,4.49,19.18,10.14,26.94,5.43,7.48,13.42,13.77,23.14,13.52,4.95-.13,8.99-4.11,8.97-9.11-.02-9.78-.04-19.55-.05-29.33-.04-16.04-.06-32.09-.09-48.13-.01-4.37-.02-8.74-.03-13.1-.01-4.93-4.2-9.01-9.12-8.98-4.95.04-8.98,4.18-8.98,9.12.02,9.77.04,19.55.06,29.32.04,16.04.06,32.09.09,48.14.01,4.37.02,8.73.03,13.1,3-3.04,5.99-6.08,8.97-9.12-.65.02-1.29-.02-1.93-.1.8.1,1.6.2,2.41.31-1.33-.17-2.6-.51-3.84-1.02.73.3,1.45.6,2.17.9-1.46-.61-2.8-1.4-4.06-2.34.62.47,1.22.93,1.84,1.4-1.85-1.41-3.46-3.08-4.89-4.91.48.61.95,1.21,1.43,1.82-2.19-2.84-3.91-5.98-5.33-9.26.31.71.62,1.43.92,2.15-2.2-5.2-3.61-10.69-4.42-16.27.11.8.23,1.61.33,2.4-1.02-7.24-1.07-14.59-.16-21.85-.1.8-.2,1.61-.31,2.4.76-5.74,2.13-11.41,4.34-16.79-.3.73-.59,1.45-.89,2.17,1.39-3.32,3.09-6.49,5.25-9.38-.47.62-.94,1.23-1.4,1.84,1.41-1.85,3.01-3.56,4.84-5-.61.47-1.21.95-1.82,1.43,1.26-.96,2.59-1.78,4.04-2.42-.71.3-1.44.62-2.15.92,1.23-.52,2.5-.88,3.82-1.09-.8.12-1.6.22-2.4.35.72-.1,1.45-.15,2.18-.14,4.93.1,9.01-4.29,8.98-9.12-.04-5.03-4.18-8.88-9.12-8.98Z"/>
        </g>
        <path class="st7" d="M34.1,87.57c-.07,0-.13,0-.21,0-13.82.03-24.98,20.33-24.94,45.33.06,25.01,11.29,45.27,25.12,45.24.07,0,.13,0,.21,0l-.18-90.56Z"/>
        <path class="st17" d="M13.61,132.89c-.04-22.27,8.8-40.8,20.49-44.61v-.71c-.07,0-.13,0-.21,0-13.82.03-24.98,20.33-24.94,45.33.06,25.01,11.29,45.27,25.12,45.24.07,0,.13,0,.21,0v-.7c-11.71-3.78-20.63-22.27-20.67-44.54Z"/>
        <path class="st17" d="M290.52,132.35c-.05-22.26-8.96-40.76-20.67-44.53v-.71c.08,0,.14,0,.21,0,13.82-.03,25.07,20.23,25.11,45.24.05,25.01-11.11,45.31-24.93,45.33-.07,0-.14,0-.21,0v-.71c11.7-3.82,20.53-22.35,20.49-44.61Z"/>
      </g>
      <g>
        <g>
          <path class="st7" d="M269.85,87.11c.08,0,.14,0,.21,0,13.82-.03,25.07,20.23,25.11,45.24.05,25.01-11.11,45.31-24.93,45.33-.07,0-.14,0-.21,0l-.18-90.56Z"/>
          <path d="M269.93,96.16c.65-.02,1.29.02,1.93.1-.8-.11-1.6-.2-2.41-.3,1.32.17,2.6.51,3.84,1.01-.72-.3-1.44-.6-2.17-.89,1.45.61,2.8,1.4,4.06,2.34-.61-.47-1.22-.94-1.84-1.4,1.85,1.41,3.46,3.08,4.89,4.91-.47-.61-.95-1.21-1.43-1.81,2.19,2.83,3.92,5.97,5.33,9.25-.31-.72-.62-1.43-.92-2.15,2.2,5.2,3.61,10.69,4.43,16.26-.12-.79-.22-1.6-.34-2.4,1.03,7.24,1.07,14.59.16,21.85.1-.81.2-1.61.31-2.41-.76,5.75-2.13,11.41-4.34,16.79.3-.72.6-1.45.9-2.17-1.4,3.31-3.1,6.49-5.26,9.38.47-.62.94-1.23,1.4-1.84-1.42,1.85-3.01,3.56-4.84,5.01.61-.48,1.21-.95,1.82-1.43-1.25.96-2.6,1.79-4.04,2.43.72-.31,1.43-.62,2.15-.93-1.24.52-2.5.89-3.83,1.09.8-.12,1.6-.23,2.41-.34-.73.09-1.46.16-2.19.14,3.04,2.99,6.08,5.99,9.12,8.98-.02-9.77-.04-19.55-.05-29.32-.03-16.05-.07-32.1-.1-48.14-.01-4.37-.02-8.73-.03-13.1,0-4.93-4.2-9.01-9.11-8.98-4.95.04-8.99,4.19-8.98,9.11.02,9.77.04,19.55.06,29.33.03,16.04.06,32.09.09,48.14.01,4.36.02,8.73.03,13.1.02,5.05,4.21,8.86,9.12,8.98,12.87.3,22.68-10.75,27.5-21.58,6.5-14.64,7.79-30.87,5.47-46.61-1.39-9.41-4.49-19.17-10.13-26.94-5.44-7.48-13.42-13.77-23.14-13.53-4.93.12-9.02,4.12-8.98,9.11.03,4.87,4.18,9.1,9.12,8.98Z"/>
        </g>
        <path class="st7" d="M269.85,87.11c.08,0,.14,0,.21,0,13.82-.03,25.07,20.23,25.11,45.24.05,25.01-11.11,45.31-24.93,45.33-.07,0-.14,0-.21,0l-.18-90.56Z"/>
        <path class="st17" d="M270.06,87.1c-.07,0-.13,0-.21,0v.71c11.71,3.78,20.63,22.27,20.67,44.53.04,22.27-8.8,40.8-20.49,44.61v.71c.07,0,.14,0,.21,0,13.82-.02,24.99-20.32,24.93-45.33-.05-25.01-11.29-45.26-25.11-45.24Z"/>
      </g>
      <g>
        <g>
          <path class="st7" d="M273,129.74c.13,66.79-53.91,121.04-120.7,121.17-66.79.13-121.05-53.91-121.17-120.69-.13-66.79,53.91-121.05,120.7-121.18,66.79-.13,121.04,53.91,121.17,120.71Z"/>
          <path d="M263.96,129.81c0,5.17-.31,10.32-.95,15.44.11-.8.21-1.6.31-2.4-1.35,10.62-4.09,21.03-8.16,30.93.3-.72.6-1.44.9-2.17-4.01,9.66-9.25,18.77-15.58,27.1.47-.61.94-1.22,1.4-1.84-6.25,8.16-13.49,15.52-21.56,21.88.61-.48,1.21-.96,1.82-1.43-8.23,6.45-17.25,11.83-26.84,15.98.72-.31,1.43-.62,2.15-.92-9.82,4.22-20.17,7.12-30.75,8.64.8-.12,1.59-.23,2.4-.35-10.7,1.5-21.57,1.58-32.29.25.8.1,1.61.2,2.4.3-10.62-1.34-21.03-4.09-30.93-8.16.72.29,1.45.59,2.17.89-9.66-4.01-18.77-9.25-27.1-15.58.61.47,1.23.93,1.84,1.4-8.16-6.25-15.51-13.49-21.88-21.56.48.61.96,1.21,1.43,1.82-6.45-8.23-11.82-17.25-15.97-26.84.31.72.61,1.43.92,2.15-4.23-9.83-7.12-20.17-8.64-30.76.11.8.23,1.6.35,2.4-1.5-10.7-1.59-21.57-.26-32.29-.09.8-.2,1.6-.3,2.41,1.35-10.63,4.09-21.04,8.17-30.94-.3.72-.6,1.45-.89,2.17,4-9.66,9.25-18.77,15.58-27.1-.47.62-.94,1.22-1.4,1.84,6.24-8.16,13.48-15.51,21.56-21.88-.61.48-1.22.95-1.82,1.43,8.23-6.46,17.25-11.82,26.84-15.97-.72.31-1.43.61-2.15.92,9.83-4.22,20.17-7.12,30.76-8.63-.81.12-1.61.22-2.4.35,10.7-1.5,21.57-1.58,32.29-.26-.8-.1-1.61-.2-2.4-.3,10.62,1.35,21.03,4.09,30.93,8.17-.72-.3-1.44-.59-2.17-.9,9.67,4.01,18.77,9.26,27.1,15.58-.61-.46-1.22-.93-1.84-1.4,8.16,6.24,15.52,13.49,21.88,21.56-.47-.61-.95-1.22-1.44-1.82,6.46,8.23,11.83,17.26,15.99,26.84-.31-.71-.61-1.43-.92-2.15,4.21,9.82,7.12,20.16,8.63,30.75-.12-.8-.22-1.6-.33-2.4.77,5.58,1.17,11.21,1.2,16.85.02,4.93,4.2,9.02,9.11,8.98,4.95-.04,8.99-4.18,8.98-9.12-.09-24.64-7.22-49.17-20.58-69.9-12.95-20.1-31.51-36.67-53.11-46.96C185.84,2.09,160.37-2.22,135.61,1.09c-6.49.87-12.91,2.07-19.23,3.86-6.19,1.75-12.16,4.09-18.05,6.7-11,4.88-21.07,11.49-30.3,19.21-18.47,15.41-32.13,36.25-39.65,59.04-7.83,23.76-8.28,49.97-1.81,74.1,6.22,23.23,19.25,44.66,36.84,61.04,17.67,16.47,40.01,28.01,63.76,32.52,24.55,4.66,50.47,2.45,73.62-7.11,5.89-2.43,11.64-5.16,17.13-8.39,5.47-3.2,10.56-6.9,15.53-10.82,9.43-7.43,17.49-16.26,24.52-25.96,14.41-19.87,22.45-43.93,23.87-68.36.14-2.41.2-4.83.2-7.25,0-4.93-4.21-9.01-9.11-8.98-4.96.04-8.98,4.19-8.98,9.12Z"/>
        </g>
        <path class="st7" d="M273,129.74c.13,66.79-53.91,121.04-120.7,121.17-66.79.13-121.05-53.91-121.17-120.69-.13-66.79,53.91-121.05,120.7-121.18,66.79-.13,121.04,53.91,121.17,120.71Z"/>
        <path class="st17" d="M151.84,15.74c65.67-.13,119.22,52.11,121.12,117.35.03-1.12.04-2.23.04-3.35-.13-66.8-54.38-120.83-121.17-120.71-66.79.13-120.83,54.39-120.7,121.18,0,1.11.02,2.23.05,3.34,1.65-65.24,54.99-117.69,120.66-117.82Z"/>
      </g>
      <g>
        <rect x="114.18" y="7.61" width="11.62" height="39.92" transform="translate(-.06 .24) rotate(-.12)"/>
        <rect x="177.93" y="7.48" width="11.62" height="39.92" transform="translate(-.07 .46) rotate(-.14)"/>
      </g>
      <g>
        <g>
          <path class="st3" d="M264.44,136.49c.44,59.31-49.25,107.76-111.01,108.22-61.76.47-112.18-47.23-112.63-106.53-.44-59.3,49.25-107.76,111-108.23,61.76-.46,112.18,47.24,112.63,106.54Z"/>
          <path d="M262.5,136.5c.13,22.83-7.48,45.24-21.39,63.33-13.94,18.11-33.56,31.4-55.39,38.05-22.98,7-48.02,6.43-70.7-1.43-21.39-7.39-40.4-21.54-53.46-40.04-13.28-18.81-19.86-41.67-18.66-64.66,1.17-22.66,10.3-44.5,25.1-61.64,15-17.39,35.42-29.58,57.69-35.03,23.31-5.71,48.24-3.75,70.42,5.32,20.89,8.54,38.98,23.74,50.93,42.88,9.94,15.93,15.28,34.43,15.46,53.2.02,2.5,3.9,2.46,3.87-.03-.21-23.12-8.07-45.7-22.16-64.02-14.08-18.31-33.7-31.83-55.64-38.9-23.04-7.41-48.39-7.36-71.46-.1-21.92,6.9-41.65,20.47-55.74,38.65-14.17,18.29-22.17,40.79-22.51,63.94-.33,23.12,7.21,45.98,20.94,64.55,13.71,18.54,33.08,32.39,54.87,39.85,22.89,7.83,48.24,8.21,71.42,1.39,22.08-6.51,42.08-19.74,56.51-37.69,14.48-17.99,22.9-40.3,23.71-63.39.05-1.43.06-2.85.05-4.28-.02-2.5-3.89-2.47-3.87.03Z"/>
        </g>
        <g>
          <g>
            <g>
              <path class="st3" d="M249.01,137.15c.1,50.43-42.98,91.39-96.22,91.5-53.24.1-96.48-40.69-96.57-91.13-.1-50.43,42.99-91.4,96.22-91.5,53.24-.11,96.48,40.69,96.58,91.13Z"/>
              <path d="M239.97,137.21c0,3.74-.23,7.48-.69,11.19.1-.81.21-1.61.3-2.41-.99,7.68-2.99,15.19-5.95,22.35.3-.73.6-1.45.9-2.17-2.98,7.15-6.88,13.88-11.56,20.05.47-.62.94-1.22,1.4-1.84-4.87,6.36-10.54,12.07-16.84,17.02.61-.48,1.21-.95,1.82-1.43-6.62,5.15-13.87,9.44-21.57,12.76.72-.31,1.44-.61,2.15-.92-8.08,3.45-16.57,5.82-25.26,7.09.8-.12,1.6-.22,2.4-.34-9.15,1.29-18.44,1.36-27.61.2.8.1,1.6.2,2.41.3-8.72-1.13-17.27-3.38-25.41-6.72.72.29,1.44.59,2.17.89-7.75-3.21-15.08-7.4-21.78-12.47.61.47,1.22.94,1.84,1.4-6.37-4.86-12.12-10.48-17.09-16.78.48.61.95,1.21,1.43,1.82-4.77-6.1-8.77-12.77-11.86-19.88.31.72.62,1.44.92,2.16-3.05-7.11-5.18-14.58-6.29-22.23.12.8.23,1.6.35,2.4-1.1-7.76-1.16-15.64-.19-23.41-.1.8-.2,1.6-.3,2.4.99-7.68,2.99-15.19,5.95-22.35-.3.72-.6,1.44-.9,2.16,2.98-7.15,6.89-13.88,11.57-20.05-.47.62-.93,1.23-1.4,1.84,4.87-6.36,10.54-12.06,16.84-17.02-.61.48-1.21.95-1.82,1.43,6.62-5.17,13.87-9.45,21.57-12.77-.72.3-1.44.62-2.15.93,8.08-3.46,16.57-5.83,25.27-7.09-.8.12-1.6.23-2.41.34,9.16-1.29,18.44-1.36,27.61-.2-.81-.1-1.61-.2-2.41-.3,8.72,1.13,17.27,3.39,25.4,6.73-.72-.3-1.44-.6-2.16-.9,7.75,3.22,15.07,7.4,21.78,12.47-.61-.47-1.23-.93-1.84-1.4,6.37,4.86,12.12,10.48,17.09,16.78-.48-.61-.95-1.22-1.43-1.83,4.78,6.1,8.78,12.77,11.87,19.88-.31-.72-.62-1.44-.93-2.16,3.06,7.11,5.18,14.58,6.29,22.24-.12-.8-.23-1.6-.35-2.4.58,4.05.87,8.13.88,12.21.02,4.93,4.2,9.01,9.11,8.98,4.95-.04,9-4.19,8.98-9.12-.09-25-10.14-48.92-27.23-67.07-8.21-8.72-18.17-16.03-28.88-21.39-11.93-5.97-24.55-9.46-37.77-10.99-24.95-2.88-51.18,3.49-72.02,17.5-20.43,13.72-35.86,34.46-42,58.4-6.26,24.37-2.41,50.64,10.15,72.38,12.48,21.6,33.02,37.53,56.39,45.8,23.88,8.45,51.32,7.98,74.93-1.15,23.11-8.93,43.03-25.52,54.83-47.45,7.59-14.1,11.59-30.01,11.59-46.03,0-4.93-4.21-9.01-9.11-8.98-4.96.04-8.98,4.19-8.98,9.12Z"/>
            </g>
            <path class="st4" d="M249.01,137.15c.1,50.43-42.98,91.39-96.22,91.5-53.24.1-96.48-40.69-96.57-91.13-.1-50.43,42.99-91.4,96.22-91.5,53.24-.11,96.48,40.69,96.58,91.13Z"/>
            <path class="st2" d="M183.93,194.29c-53.24.1-96.48-40.69-96.58-91.12-.03-14.59,3.56-28.38,9.95-40.62-24.9,16.55-41.15,43.98-41.09,74.97.1,50.44,43.34,91.23,96.57,91.13,37.84-.08,70.54-20.79,86.27-50.88-15.61,10.37-34.62,16.48-55.13,16.52Z"/>
            <path class="st5" d="M152.45,51.98c52.19-.1,94.76,39.1,96.51,88.15.03-.99.05-1.98.05-2.97-.09-50.44-43.34-91.24-96.58-91.13-53.23.1-96.31,41.07-96.22,91.5,0,1,.03,2,.06,2.98,1.56-49.06,43.98-88.42,96.17-88.53Z"/>
          </g>
          <g>
            <path class="st7" d="M200.27,74.55c11.51,7,17.9,17.53,14.26,23.52-3.64,5.99-15.93,5.18-27.45-1.81-11.52-7-17.9-17.53-14.25-23.52,3.64-5.99,15.93-5.18,27.44,1.82Z"/>
            <path class="st7" d="M228.18,105.03c.2,2.65-1.79,4.96-4.45,5.16-2.64.2-4.95-1.79-5.15-4.45-.2-2.64,1.79-4.96,4.45-5.15,2.65-.2,4.96,1.78,5.16,4.44Z"/>
          </g>
        </g>
      </g>
      <g>
        <g>
          <path d="M294.07,50.16c.33,3.01,3.04,5.2,6.05,4.88,3.01-.32,5.2-3.03,4.87-6.04-.32-3.02-3.03-5.21-6.05-4.88-3.02.32-5.2,3.04-4.88,6.05Z"/>
          <path d="M290.2,50.19c.34,2.45,1.16,4.6,3.04,6.31,1.85,1.69,4.41,2.6,6.91,2.41,5.06-.38,9.11-4.83,8.73-9.95-.38-5.06-4.83-9.11-9.95-8.73-5.06.38-9.1,4.83-8.72,9.95.15,2.11,1.68,3.86,3.9,3.84,2-.01,4-1.79,3.84-3.9-.02-.23.12-1.57-.04-.73.05-.22.11-.44.19-.66-.25.79.14-.14.22-.28-.27.34-.25.34.04,0,.69-.76-.59.33.28-.24.39-.21.39-.23,0-.06.11-.05,1.2-.3.35-.18.24-.03,1.57.12.73-.03.23.05.44.11.65.18-.78-.25.14.13.29.23-.34-.27-.34-.26-.01.03.77.69-.33-.59.24.27.21.4.23.4.06,0,.05.12.3,1.2.18.36.04.23-.12,1.56.04.72-.05.22-.12.44-.19.66.25-.79-.13.14-.22.28.27-.34.26-.34-.03,0-.69.76.59-.34-.27.23-.4.21-.4.23,0,.06-.12.05-1.21.3-.35.19-.24.03-1.56-.13-.73.04-.22-.05-.44-.11-.66-.19.79.25-.14-.13-.28-.22.34.27.34.25,0-.04-.76-.69.34.58-.24-.28-.21-.4-.22-.4-.06,0-.05-.12-.31-1.2-.18-.35-.29-2.09-1.59-3.87-3.9-3.85-1.91.02-4.14,1.81-3.84,3.91Z"/>
        </g>
        <polygon points="302.5 115.09 296.82 115.11 296.69 51.94 302.38 51.94 302.5 115.09"/>
      </g>
    </g>
    <g>
      <g>
        <g>
          <rect class="st15" x="6.49" y="131.26" width="11.77" height="6.34" transform="translate(-1.76 .17) rotate(-.75)"/>
          <path d="M18.3,135.59c-3.93.06-7.85.11-11.78.15.65.65,1.3,1.28,1.95,1.93-.03-2.12-.05-4.23-.08-6.34-.64.65-1.28,1.3-1.93,1.95,3.92-.05,7.86-.1,11.78-.15-.66-.65-1.3-1.29-1.96-1.93.03,2.12.05,4.23.08,6.35.04,2.5,3.91,2.47,3.88-.03-.03-2.12-.06-4.24-.08-6.35-.02-1.05-.89-1.93-1.96-1.92-3.92.05-7.85.1-11.78.16-1.05.01-1.93.89-1.92,1.95.03,2.11.06,4.23.09,6.34.01,1.05.89,1.94,1.95,1.92,3.93-.05,7.86-.11,11.78-.16,2.5-.04,2.47-3.91-.03-3.88Z"/>
        </g>
        <polygon class="st1" points="8.48 135.72 16.36 135.64 16.29 133.18 15.16 133.19 15.18 134.9 8.48 135.72"/>
      </g>
      <g>
        <g>
          <g>
            <rect class="st15" x="6.39" y="117.39" width="11.77" height="6.34" transform="translate(-1.54 .17) rotate(-.73)"/>
            <path d="M18.19,121.71c-3.93.05-7.85.1-11.78.16.65.64,1.3,1.28,1.96,1.92-.04-2.11-.06-4.23-.09-6.34-.64.65-1.28,1.3-1.92,1.95,3.93-.05,7.86-.1,11.78-.16-.65-.63-1.3-1.28-1.96-1.92.03,2.11.06,4.22.09,6.34.03,2.49,3.91,2.46,3.88-.04-.03-2.11-.06-4.22-.09-6.34-.02-1.05-.9-1.93-1.95-1.92-3.93.06-7.86.11-11.78.16-1.05.01-1.94.9-1.92,1.95.03,2.11.06,4.23.09,6.34.01,1.05.89,1.94,1.95,1.93,3.93-.05,7.85-.11,11.77-.16,2.5-.03,2.48-3.91-.02-3.88Z"/>
          </g>
          <polygon class="st1" points="8.37 121.83 16.25 121.75 16.18 119.3 15.06 119.31 15.08 121.02 8.37 121.83"/>
        </g>
        <g>
          <g>
            <rect class="st15" x="6.6" y="145.14" width="11.78" height="6.34" transform="translate(-2.04 .19) rotate(-.79)"/>
            <path d="M18.4,149.47c-3.93.05-7.85.1-11.77.16.64.64,1.3,1.28,1.95,1.92-.03-2.11-.05-4.22-.08-6.34-.64.65-1.28,1.3-1.93,1.95,3.93-.05,7.86-.11,11.78-.16-.65-.63-1.3-1.28-1.95-1.92.02,2.11.05,4.22.08,6.34.03,2.5,3.91,2.47,3.88-.03-.03-2.11-.06-4.23-.09-6.34-.02-1.05-.9-1.94-1.95-1.93-3.93.06-7.86.11-11.78.16-1.06.01-1.94.88-1.93,1.95.03,2.11.06,4.23.09,6.34.01,1.06.89,1.94,1.95,1.93,3.93-.06,7.85-.11,11.78-.16,2.49-.03,2.46-3.91-.04-3.87Z"/>
          </g>
          <polygon class="st1" points="8.58 149.6 16.46 149.52 16.4 147.06 15.27 147.08 15.29 148.79 8.58 149.6"/>
        </g>
      </g>
    </g>
    <g>
      <g>
        <g>
          <rect class="st15" x="285.8" y="129.15" width="11.77" height="6.34" transform="translate(-.2 .44) rotate(-.09)"/>
          <path d="M285.82,137.44c3.93-.01,7.85-.01,11.78-.02,1.06,0,1.92-.89,1.92-1.95,0-2.11,0-4.22,0-6.34,0-1.06-.9-1.93-1.96-1.93-3.93.01-7.85.01-11.78.02-1.06,0-1.93.9-1.93,1.95,0,2.12,0,4.23.01,6.34.01,2.5,3.88,2.47,3.88-.03,0-2.12-.01-4.23-.01-6.34-.64.65-1.28,1.3-1.92,1.95,3.93,0,7.85-.01,11.78-.01-.65-.65-1.3-1.29-1.95-1.93,0,2.12,0,4.23.01,6.34.64-.65,1.28-1.3,1.92-1.95-3.93,0-7.85.01-11.78.02-2.5,0-2.47,3.88.03,3.88Z"/>
        </g>
        <polygon class="st1" points="295.61 133.55 287.73 133.58 287.75 131.13 288.89 131.13 288.89 132.84 295.61 133.55"/>
      </g>
      <g>
        <g>
          <g>
            <rect class="st15" x="285.69" y="115.27" width="11.78" height="6.34" transform="translate(-.18 .44) rotate(-.09)"/>
            <path d="M285.72,123.57c3.93-.01,7.85-.01,11.77-.02,1.06,0,1.93-.91,1.93-1.96-.01-2.12-.01-4.23-.02-6.34,0-1.06-.9-1.92-1.95-1.92-3.93,0-7.85.02-11.78.02-1.06,0-1.92.9-1.92,1.95,0,2.11,0,4.23.01,6.34,0,2.5,3.88,2.48,3.87-.03,0-2.11,0-4.23-.02-6.34-.63.65-1.27,1.3-1.92,1.95,3.93,0,7.85-.01,11.78-.02-.65-.64-1.3-1.28-1.95-1.92,0,2.11,0,4.23.01,6.35.64-.65,1.28-1.3,1.92-1.95-3.93,0-7.86.01-11.78.01-2.5,0-2.46,3.88.04,3.88Z"/>
          </g>
          <polygon class="st1" points="295.51 119.67 287.62 119.71 287.65 117.25 288.78 117.25 288.79 118.96 295.51 119.67"/>
        </g>
        <g>
          <g>
            <polygon class="st15" points="285.91 149.39 297.68 149.36 297.68 143.02 285.89 143.04 285.91 149.39"/>
            <path d="M285.92,151.32c3.93,0,7.85-.01,11.78-.02,1.07,0,1.93-.9,1.93-1.96,0-2.11-.01-4.23-.01-6.34,0-1.06-.91-1.92-1.96-1.92-3.92,0-7.84.01-11.78.02-1.06,0-1.92.89-1.92,1.95,0,2.11.01,4.23.01,6.34,0,2.5,3.88,2.47,3.87-.03,0-2.11,0-4.23,0-6.34-.65.65-1.28,1.3-1.93,1.95,3.93,0,7.85-.02,11.78-.02-.65-.64-1.3-1.28-1.95-1.92,0,2.11,0,4.23.01,6.35.64-.65,1.28-1.3,1.92-1.95-3.93,0-7.85.01-11.78.02-2.5,0-2.47,3.88.03,3.87Z"/>
          </g>
          <polygon class="st1" points="295.72 147.43 287.83 147.46 287.86 145.01 288.99 145.01 289 146.72 295.72 147.43"/>
        </g>
      </g>
    </g>
    <g>
      <g>
        <g>
          <polygon class="st15" points="155.98 19.86 155.95 8.08 149.61 8.1 149.62 19.87 155.98 19.86"/>
          <path d="M157.91,19.84c0-3.92-.02-7.85-.03-11.78,0-1.06-.89-1.92-1.95-1.92-2.12,0-4.23.01-6.34.01-1.06,0-1.93.9-1.92,1.95,0,3.93.01,7.85.02,11.78,0,1.06.89,1.92,1.95,1.92,2.11,0,4.23,0,6.34,0,2.5,0,2.46-3.88-.03-3.88-2.12,0-4.23,0-6.34.01.65.64,1.3,1.28,1.96,1.92,0-3.92-.01-7.85-.02-11.77-.65.65-1.29,1.3-1.93,1.96,2.12,0,4.23,0,6.34,0-.65-.65-1.3-1.29-1.95-1.93.01,3.93.02,7.86.02,11.78,0,2.49,3.88,2.46,3.88-.04Z"/>
        </g>
        <polygon class="st1" points="154.02 10.05 154.05 17.93 151.59 17.91 151.59 16.78 153.31 16.77 154.02 10.05"/>
      </g>
      <g>
        <g>
          <g>
            <rect class="st15" x="135.74" y="8.19" width="6.34" height="11.78" transform="translate(-.02 .21) rotate(-.09)"/>
            <path d="M144.03,19.95c0-3.92-.01-7.86-.01-11.78,0-1.06-.9-1.92-1.96-1.92-2.11,0-4.23,0-6.34,0-1.06,0-1.92.9-1.92,1.95,0,3.93.02,7.85.02,11.78,0,1.06.89,1.93,1.95,1.93,2.11,0,4.23-.01,6.34-.01,2.5,0,2.47-3.88-.03-3.87-2.11,0-4.23,0-6.34,0,.65.64,1.3,1.28,1.95,1.92,0-3.92-.02-7.85-.02-11.78-.64.65-1.28,1.3-1.92,1.96,2.12,0,4.23-.01,6.35-.01-.66-.64-1.3-1.29-1.96-1.92,0,3.92.01,7.85.02,11.77,0,2.51,3.87,2.48,3.87-.02Z"/>
          </g>
          <polygon class="st1" points="140.13 10.16 140.17 18.04 137.72 18.01 137.72 16.88 139.43 16.88 140.13 10.16"/>
        </g>
        <g>
          <g>
            <rect class="st15" x="163.5" y="7.99" width="6.34" height="11.77" transform="translate(-.02 .25) rotate(-.09)"/>
            <path d="M171.79,19.74c0-3.93-.01-7.85-.02-11.78,0-1.06-.9-1.93-1.96-1.93-2.11.01-4.23.01-6.34.01-1.06.01-1.92.91-1.92,1.96,0,3.92.01,7.85.02,11.78,0,1.06.91,1.92,1.96,1.92,2.11,0,4.23,0,6.34-.01,2.49,0,2.46-3.88-.04-3.88-2.11,0-4.23.01-6.34.01.65.65,1.3,1.29,1.95,1.93,0-3.93,0-7.85-.01-11.78-.64.65-1.28,1.3-1.92,1.95,2.11,0,4.23,0,6.34-.01-.65-.63-1.3-1.28-1.95-1.92,0,3.92.01,7.85.02,11.78,0,2.5,3.88,2.48,3.87-.03Z"/>
          </g>
          <polygon class="st1" points="167.9 9.95 167.94 17.83 165.47 17.81 165.47 16.67 167.19 16.67 167.9 9.95"/>
        </g>
      </g>
    </g>
    <path class="st7" d="M137.51,297.02s-3.81,2.53-6.63,4.15c-2.78,1.61-7.66,3.34-7.66,3.34l.2.33s13.66,1.19,29.77,1.07c16.11-.12,31.61-1.02,31.61-1.02l-.05-.86s-3.89-1.39-7.48-3.22c-3.59-1.82-6.1-3.78-6.1-3.78l-33.67-.02Z"/>
    <g>
      <g>
        <polygon class="st15" points="129.82 312.52 121.98 312.63 121.93 308.41 129.77 308.31 129.82 312.52"/>
        <path d="M129.81,311.24c-2.61.04-5.22.07-7.84.11.44.43.87.85,1.3,1.28-.02-1.4-.04-2.81-.05-4.22-.43.44-.86.87-1.29,1.3,2.62-.03,5.22-.07,7.83-.1-.43-.43-.87-.86-1.3-1.28.02,1.4.03,2.81.06,4.22.02,1.66,2.62,1.65,2.59-.02-.02-1.41-.04-2.82-.06-4.22-.01-.71-.59-1.29-1.3-1.29-2.61.03-5.22.07-7.83.1-.7.01-1.29.59-1.29,1.3.02,1.41.04,2.81.06,4.22,0,.7.59,1.29,1.29,1.28,2.62-.04,5.23-.07,7.85-.11,1.66-.02,1.65-2.61-.02-2.59Z"/>
      </g>
      <polygon class="st1" points="123.28 311.33 128.53 311.27 128.48 309.64 127.73 309.65 127.75 310.79 123.28 311.33"/>
    </g>
    <g>
      <g>
        <rect class="st15" x="178.62" y="307.93" width="7.84" height="4.22" transform="translate(-.93 .55) rotate(-.17)"/>
        <path d="M178.63,313.45c2.61,0,5.22,0,7.84,0,.7,0,1.28-.6,1.28-1.3,0-1.41,0-2.81,0-4.22,0-.71-.6-1.28-1.3-1.28-2.62,0-5.22,0-7.84.01-.71,0-1.28.6-1.28,1.3,0,1.41,0,2.82,0,4.22.01,1.66,2.59,1.65,2.59-.02,0-1.41,0-2.81,0-4.22-.43.43-.86.87-1.28,1.3,2.61,0,5.22-.01,7.83-.02-.43-.42-.87-.86-1.3-1.28,0,1.41,0,2.81,0,4.22.43-.43.85-.87,1.28-1.3-2.61,0-5.22.01-7.84.02-1.66,0-1.65,2.59.02,2.57Z"/>
      </g>
      <polygon class="st1" points="185.14 310.86 179.9 310.88 179.92 309.25 180.67 309.25 180.67 310.39 185.14 310.86"/>
    </g>
  </g>
</svg>