<?xml version="1.0" encoding="UTF-8"?>
<svg id="Layer_1" xmlns="http://www.w3.org/2000/svg" version="1.1" viewBox="0 0 291.08 331.76">
  <!-- Generator: Adobe Illustrator 29.6.1, SVG Export Plug-In . SVG Version: 2.1.1 Build 9)  -->
  <defs>
    <style>
      .st0 {
        fill: #ffd7c3;
      }

      .st1, .st2 {
        fill: #000002;
      }

      .st3 {
        fill: #00407a;
      }

      .st4 {
        fill: #1694d3;
      }

      .st5 {
        fill: #025f9e;
      }

      .st6 {
        fill: #0378be;
      }

      .st7 {
        fill: #66addd;
      }

      .st8 {
        fill: #ff9d00;
      }

      .st2, .st9 {
        fill-rule: evenodd;
      }

      .st10 {
        fill: #f1f2f2;
      }

      .st11 {
        fill: #f38b9e;
      }

      .st12 {
        fill: #fff;
      }

      .st13 {
        fill: #fdc361;
      }

      .st14 {
        fill: #fde5d2;
      }

      .st15 {
        fill: #1158a3;
      }

      .st16 {
        fill: #ffebde;
      }

      .st17 {
        fill: #fff5ca;
      }

      .st9, .st18 {
        fill: #ffc0a4;
      }

      .st19 {
        fill: #399eec;
      }

      .st20 {
        fill: #e6e7e8;
      }

      .st21 {
        fill: #ffd401;
      }

      .st22 {
        fill: #1c75bc;
      }
    </style>
  </defs>
  <g>
    <g>
      <path class="st0" d="M187.94,241.08s30.87,36.67,17.47,44.57c-13.39,7.91-32.14-26.36-32.14-26.36l14.67-18.21Z"/>
      <path d="M185.15,243.86c1.06,1.26,2.07,2.55,3.08,3.85.44.57-.61-.8-.16-.21.12.16.24.31.36.46.25.33.5.66.74.99.59.79,1.18,1.58,1.76,2.37,1.27,1.74,2.5,3.49,3.7,5.28,2.59,3.86,5.01,7.84,7.05,12.01.24.48.46.97.69,1.47.12.27.81,1.86.34.74.42,1,.79,2.02,1.13,3.05.28.88.53,1.77.72,2.68.1.42.17.85.23,1.28-.22-1.44.01.21.03.58.02.38.01.77,0,1.15-.01.19-.02.37-.03.55-.07.74.16-1.05.04-.33-.05.34-.14.68-.24,1.02-.33,1.14.42-.74-.11.3-.17.33-.91,1.32-.02.18-.21.27-.45.51-.69.73-.66.62.83-.52-.2.13-.18.12-.36.22-.55.31-.95.52.57-.19-.06.05-.39.15-.81.26-1.21.35-.29.06-1.06.13.22-.02-.21.02-.42.03-.62.04-.42.01-.84-.01-1.26-.05,1.42.14-.26-.09-.64-.18-.43-.12-.85-.27-1.28-.43-.79-.3.87.39.09.04-.21-.1-.43-.2-.64-.3-.96-.49-1.88-1.07-2.76-1.69-.21-.15-.43-.31-.63-.46-.75-.55.68.54-.05-.04-.43-.34-.84-.69-1.25-1.05-.92-.8-1.79-1.65-2.65-2.53-1.68-1.72-3.24-3.55-4.73-5.44-.11-.15-.72-.92-.09-.1-.17-.23-.34-.45-.51-.67-.33-.45-.67-.89-.99-1.34-.68-.93-1.33-1.87-1.99-2.81-1.06-1.55-2.07-3.12-3.05-4.7-.79-1.25-1.55-2.52-2.25-3.82-.21,1.59-.42,3.18-.62,4.77,4.89-6.07,9.78-12.14,14.67-18.21,1.35-1.67,1.64-3.93,0-5.57-1.4-1.4-4.22-1.68-5.57,0-4.89,6.07-9.78,12.14-14.67,18.21-1.15,1.43-1.54,3.08-.62,4.77,3.13,5.71,6.91,11.12,11.02,16.16,5.42,6.65,14.04,15.47,23.58,12.88,4.05-1.1,7.33-4.41,8-8.6.68-4.19-.34-8.36-1.86-12.26-3.34-8.53-8.52-16.28-13.96-23.59-1.91-2.57-3.86-5.12-5.92-7.57-1.38-1.65-4.15-1.42-5.57,0-1.62,1.61-1.38,3.93,0,5.57Z"/>
    </g>
    <path class="st12" d="M191.84,275.61l-7.64-24.21,3.57-4.47s4.47,5.67,8.13,11.51c3.27,5.21,5.87,10.11,6.64,12.01l-10.7,5.17Z"/>
  </g>
  <g>
    <g>
      <rect class="st22" x="188.02" y="268.96" width="19.49" height="8.6" transform="translate(-106.04 126.68) rotate(-28.35)"/>
      <path d="M192.67,284.15c5.72-3.09,11.44-6.17,17.15-9.25,1.41-.76,1.75-2.59,1.03-3.92-1.36-2.53-2.72-5.05-4.09-7.57-.76-1.4-2.59-1.75-3.92-1.03-5.71,3.09-11.43,6.17-17.15,9.26-1.4.76-1.75,2.58-1.02,3.92,1.36,2.52,2.71,5.04,4.08,7.56,1.76,3.25,6.71.36,4.96-2.89-1.37-2.52-2.72-5.05-4.09-7.57-.35,1.31-.69,2.62-1.03,3.92,5.71-3.08,11.43-6.17,17.15-9.25-1.3-.34-2.62-.69-3.92-1.03,1.36,2.52,2.72,5.05,4.08,7.57.35-1.31.69-2.62,1.03-3.93-5.72,3.09-11.44,6.17-17.15,9.26-3.26,1.75-.36,6.7,2.89,4.95Z"/>
    </g>
    <rect class="st4" x="191.71" y="273.59" width="13.35" height=".87" transform="translate(-105.83 126.03) rotate(-28.16)"/>
  </g>
  <path class="st20" d="M187.77,246.92s4.31,5.54,6.72,9.27c2.41,3.73,4.9,8.06,4.9,8.06l-9.36,5.05,6.05-6.06s-1.59-3.99-2.87-6.43c-1.29-2.43-5.43-9.89-5.43-9.89Z"/>
  <g>
    <g>
      <path class="st0" d="M103.55,241.08s-30.87,36.67-17.47,44.57c13.39,7.91,32.14-26.36,32.14-26.36l-14.67-18.21Z"/>
      <path d="M100.76,238.29c-3.72,4.42-7.17,9.11-10.41,13.89-5.07,7.5-10.25,15.89-11.46,25.02-.5,3.74.47,7.92,3.38,10.5,3.54,3.13,8.52,3.78,12.91,2.2,4.58-1.65,8.44-4.89,11.79-8.35,3.42-3.53,6.41-7.51,9.2-11.55,1.94-2.82,3.8-5.72,5.45-8.73.92-1.69.54-3.35-.62-4.77-4.89-6.07-9.77-12.14-14.66-18.21-1.35-1.68-4.19-1.4-5.58,0-1.64,1.64-1.34,3.9,0,5.57,4.9,6.07,9.78,12.14,14.66,18.21-.2-1.59-.41-3.18-.61-4.77-.93,1.7-1.96,3.36-3,5-1.07,1.7-2.19,3.37-3.35,5.01-.63.89-1.28,1.78-1.95,2.66-.17.22-.33.44-.51.67.63-.83.04-.05-.08.1-.42.53-.84,1.05-1.27,1.56-1.52,1.85-3.15,3.62-4.88,5.28-.8.76-1.63,1.49-2.48,2.18-.73.59.69-.52-.05.04-.21.16-.42.31-.63.46-.48.34-.98.67-1.5.97-.41.26-.84.49-1.28.72-.21.1-.42.2-.64.3-.77.36.87-.35.09-.04-.42.16-.85.3-1.28.43-.37.1-2.07.35-.64.18-.42.05-.84.06-1.25.05-.21,0-.42-.02-.62-.04,1.26.11.52.07.22.02-.42-.08-.82-.21-1.22-.35-.76-.27.88.4.14.05-.26-.12-.51-.27-.74-.42-1.04-.62.48.47-.2-.13-.26-.22-.48-.47-.69-.73.9,1.1.16.16-.03-.18-.56-1.03.25.83-.11-.3-.1-.33-.18-.67-.24-1.02-.13-.72.13,1.07.05.33-.02-.19-.03-.37-.04-.55-.02-.38-.01-.77,0-1.15.02-.37.24-2.03.03-.58.27-1.91.86-3.78,1.52-5.58.18-.48.37-.95.56-1.42-.46,1.12.21-.47.34-.74.48-1.07,1.01-2.13,1.55-3.18,2.14-4.12,4.63-8.04,7.26-11.86,1.17-1.71,2.38-3.38,3.61-5.04.51-.68,1.02-1.37,1.54-2.05.12-.15.24-.3.35-.46.46-.59-.6.78-.16.21.25-.32.5-.63.75-.95.76-.98,1.54-1.95,2.34-2.9,1.38-1.64,1.62-3.96,0-5.57-1.42-1.42-4.19-1.65-5.58,0Z"/>
    </g>
    <path class="st12" d="M99.65,275.61l7.64-24.21-3.57-4.47s-4.47,5.67-8.13,11.51c-3.27,5.21-5.88,10.11-6.64,12.01l10.7,5.17Z"/>
  </g>
  <g>
    <path class="st22" d="M177.16,248.88h-63.23s-12.34,68.53-3.95,71.46c8.41,2.93,16.18-10.45,16.18-10.45,0,0,6.19,1.89,16.91,2.22h0c.81.03,1.64.04,2.48.03.84,0,1.67,0,2.48-.03h0c10.72-.33,16.9-2.22,16.9-2.22,0,0,7.79,13.38,16.18,10.45,8.41-2.94-3.95-71.46-3.95-71.46Z"/>
    <path d="M177.16,244.94h-63.23c-1.63,0-3.49,1.19-3.8,2.89-2.41,13.39-4.37,26.9-5.78,40.42-.86,8.19-1.74,16.62-1.03,24.86.24,2.72.56,6,2.16,8.32,3.18,4.6,9.72,3.67,13.98,1.19,4.17-2.44,7.68-6.6,10.1-10.73-1.48.6-2.97,1.2-4.45,1.81,5.73,1.73,12.02,2.16,17.95,2.36-1.31-1.31-2.62-2.63-3.94-3.94h0c0,2.2,1.8,3.89,3.94,3.95,1.65.04,3.3.04,4.95,0,2.14-.05,3.94-1.75,3.94-3.94h0c-1.32,1.3-2.63,2.62-3.94,3.94,5.93-.2,12.23-.63,17.95-2.36-1.49-.61-2.97-1.21-4.45-1.81,1.88,3.22,4.41,6.3,7.27,8.68,4.18,3.46,11,6.22,15.74,2.18,2.23-1.89,2.7-5.36,3.06-8.06.45-3.45.42-6.97.32-10.45-.28-9.27-1.36-18.52-2.57-27.71-1.04-7.98-2.24-15.95-3.57-23.88-.27-1.61-.54-3.21-.83-4.81-.39-2.12-2.92-3.28-4.85-2.75-2.2.6-3.13,2.73-2.75,4.85.76,4.21,1.44,8.44,2.1,12.68.66,4.24,1.28,8.48,1.86,12.73.12.97-.13-.91,0,.07.04.28.08.56.11.84.08.56.15,1.12.23,1.69.16,1.23.31,2.47.46,3.71.29,2.39.56,4.79.81,7.18.83,8.11,1.7,16.49.92,24.65-.03.34-.08.69-.12,1.04.19-1.54.03-.28-.03.07-.11.61-.24,1.22-.42,1.81-.06.24-.14.47-.23.7-.28.75.51-1.08.09-.23-.08.18-.18.35-.29.51-.37.57.85-.91.17-.26-.48.46,1.03-.68.36-.3-.43.25,1.13-.45.67-.28-.29.11-.6.19-.91.26-1,.24.85-.05-.15.01-.29.02-.59,0-.89,0-1-.05.86.17-.12-.03-.39-.08-.77-.2-1.14-.32-.96-.32.76.36-.17-.06-.28-.13-.54-.28-.81-.43-.54-.3-1.05-.65-1.55-1.02.77.56-.06-.05-.18-.15-.24-.2-.47-.41-.71-.62-.53-.47-1.02-.98-1.51-1.5-.59-.62-1.13-1.26-1.66-1.93-.46-.57.5.68-.15-.2-.23-.29-.43-.59-.64-.89-.4-.57-.79-1.15-1.14-1.75-.87-1.5-2.76-2.32-4.45-1.81-1.4.42-2.85.7-4.28.96-.78.14-1.55.26-2.33.38-1.23.18.81-.1-.5.07-.57.07-1.13.13-1.69.2-2.34.25-4.7.39-7.05.47-2.15.07-3.94,1.74-3.94,3.95h0c1.31-1.31,2.63-2.62,3.94-3.93-1.65.04-3.3.04-4.95,0,1.32,1.31,2.63,2.62,3.94,3.94h0c0-2.21-1.79-3.88-3.94-3.95-2.36-.08-4.71-.23-7.05-.47-.43-.04-.85-.1-1.28-.15-.27-.03-.54-.06-.81-.1.4.05.37.04-.09-.02-.78-.11-1.56-.24-2.33-.38-1.44-.26-2.89-.54-4.28-.96-1.69-.51-3.57.31-4.45,1.81-.58.99-1.25,1.92-1.93,2.83-.53.7.57-.72,0,0-.17.21-.34.42-.52.63-.36.44-.75.87-1.14,1.3-.41.45-.85.88-1.29,1.29-.22.21-.46.42-.69.62-.13.12-1.21.95-.42.36-.5.37-1.02.7-1.56,1.02-.26.15-.54.29-.81.43-.91.45.78-.29-.17.06-.28.1-.57.18-.85.25-.21.06-1.19.21-.12.07-.29.04-.59.04-.88.04-.2,0-.4-.01-.6-.03.55.08.6.09.14,0-.79-.15-1.46-.62-.23.02-.68-.35.85.75.36.3-.64-.59.4.58.22.34-.13-.18-.25-.38-.35-.59-.43-.84.38.98.09.23-.09-.23-.17-.47-.24-.7-.17-.59-.3-1.2-.41-1.81-.07-.36-.23-1.62-.03-.07-.04-.35-.09-.7-.12-1.04-.09-.83-.14-1.66-.18-2.48-.18-3.96-.01-7.93.24-11.89.28-4.68.75-9.35,1.27-14.01.27-2.38.55-4.78.86-7.16.08-.56.15-1.12.23-1.69.04-.28.07-.56.11-.84.13-.98-.12.91.01-.07.16-1.18.32-2.36.49-3.54.95-6.65,1.98-13.28,3.13-19.9.11-.66.22-1.31.35-1.97-1.27.96-2.53,1.93-3.8,2.89h63.23c5.09,0,5.09-7.88,0-7.88Z"/>
  </g>
  <g>
    <g>
      <polygon class="st14" points="175.04 248.03 145.76 248.03 145.52 248.03 116.24 248.03 103.56 289.76 145.52 289.76 145.76 289.76 187.73 289.76 175.04 248.03"/>
      <path d="M175.04,240.15h-58.8c-3.58,0-6.58,2.42-7.6,5.78-4.04,13.29-8.09,26.59-12.13,39.88-.19.61-.37,1.22-.56,1.84-1.5,4.93,2.58,9.98,7.6,9.98h84.17c5.02,0,9.1-5.05,7.6-9.98-4.04-13.29-8.09-26.59-12.13-39.88-.18-.62-.37-1.22-.56-1.84-1.25-4.1-5.47-6.67-9.69-5.51-4.06,1.12-6.76,5.59-5.51,9.7,4.04,13.29,8.08,26.59,12.13,39.88.18.61.38,1.23.56,1.84,2.53-3.33,5.06-6.65,7.6-9.97h-84.17c2.53,3.32,5.06,6.65,7.6,9.97,4.04-13.29,8.08-26.59,12.13-39.89.18-.61.37-1.22.56-1.83-2.53,1.93-5.07,3.86-7.6,5.78h58.8c4.3,0,7.89-3.58,7.89-7.88s-3.58-7.88-7.89-7.88Z"/>
    </g>
    <polygon class="st12" points="175.04 248.03 145.76 248.03 145.52 248.03 116.24 248.03 103.56 289.76 145.52 289.76 145.76 289.76 187.73 289.76 175.04 248.03"/>
  </g>
  <polygon class="st20" points="115.7 249.69 103.56 289.76 136.64 289.76 109.62 285.8 115.7 249.69"/>
  <polygon class="st20" points="175.57 249.69 187.71 289.76 154.64 289.76 181.65 285.8 175.57 249.69"/>
  <polygon class="st5" points="111.34 297.62 111.05 302.57 179.87 302.57 179.58 297.62 111.34 297.62"/>
  <g>
    <g>
      <g>
        <path class="st14" d="M151.24,296.52c0,1-.74,1.82-1.66,1.82l-8.05.03c-.91,0-1.66-.81-1.66-1.81l-.02-4.84c0-1,.74-1.81,1.66-1.82l8.05-.02c.92,0,1.67.8,1.67,1.81l.02,4.83Z"/>
        <path d="M146.22,296.52c.16-1.74,1.28-3.19,3.3-3.2h-.52c-.65,0-1.29,0-1.94,0-1.54,0-3.08.01-4.62.02-.31,0-.61,0-.92,0,2.06,0,3.35,1.72,3.35,3.13v-.79c0-1.32-.01-2.64-.02-3.97.01,1.75-1.62,3.19-3.3,3.2.17,0,.35,0,.52,0,.65,0,1.29,0,1.95,0,1.54,0,3.08,0,4.62-.01.3,0,.61,0,.91,0-2.05,0-3.34-1.71-3.35-3.12,0,.26,0,.52,0,.78,0,1.32,0,2.65.01,3.97.01,2.73,2.27,5.01,5.02,5.01s5.02-2.28,5.01-5.01c0-1.58,0-3.17-.01-4.75-.02-4.23-3.41-6.92-7.42-6.9-2,0-4,.01-6.01.02-.54,0-1.1-.02-1.65.04-3.8.43-6.01,3.09-6.34,6.79-.14,1.56,0,3.19.01,4.76.02,4.23,3.41,6.91,7.42,6.9,2,0,4.01-.01,6.01-.02.55,0,1.1.02,1.64-.04,3.8-.43,6.02-3.09,6.34-6.8.25-2.73-2.46-5.01-5.01-5.01-2.92,0-4.77,2.29-5.02,5.01Z"/>
      </g>
      <path class="st21" d="M151.24,296.52c0,1-.74,1.82-1.66,1.82l-8.05.03c-.91,0-1.66-.81-1.66-1.81l-.02-4.84c0-1,.74-1.81,1.66-1.82l8.05-.02c.92,0,1.67.8,1.67,1.81l.02,4.83Z"/>
      <path class="st1" d="M149.57,295.68v-3.14c-.01-.65-.54-1.17-1.19-1.17l-5.7.02c-.65,0-1.18.53-1.17,1.18v.59h2.67c.54-.01.99.43.99.97s-.44.98-.98.98h-2.67v.6c0,.65.54,1.17,1.19,1.17h5.69c.65-.01,1.18-.55,1.18-1.2Z"/>
      <g>
        <path class="st17" d="M149.26,291.76c.19.21.3.48.3.78v3.14c.01.65-.51,1.18-1.17,1.18h-5.69c-.13.01-.24,0-.35-.04.21.24.53.39.88.39h5.69c.65-.02,1.18-.55,1.17-1.2v-3.14c-.01-.53-.36-.98-.84-1.12Z"/>
        <path class="st17" d="M144.71,293.49c.08,0,.16,0,.24.03-.18-.23-.46-.38-.77-.37h-2.14v.35h2.67Z"/>
        <path class="st17" d="M140.39,296.9v-4.83c-.02-1,.73-1.82,1.65-1.82l8.05-.03c.2,0,.39.04.57.12-.29-.28-.68-.45-1.1-.45l-8.05.02c-.92,0-1.66.82-1.66,1.82l.02,4.84c0,.78.46,1.44,1.09,1.69-.34-.33-.57-.81-.57-1.35Z"/>
      </g>
    </g>
    <g>
      <path class="st8" d="M148.21,290.84l-5.69.02c-.65,0-1.18.53-1.18,1.18v.59h.17v-.07c0-.65.53-1.18,1.17-1.18l5.7-.02c.42,0,.8.23,1,.56-.05-.61-.56-1.09-1.18-1.09Z"/>
      <path class="st8" d="M141.53,295.8s0-.06,0-.09v-.59h2.67c.54-.01.98-.45.98-.99,0-.2-.06-.39-.17-.55v.03c0,.54-.44.98-.98.98h-2.67v.6c0,.23.06.43.17.61Z"/>
      <path class="st8" d="M151.24,296.52l-.02-4.83c0-.32-.07-.61-.2-.86.02.11.03.22.03.34v4.83c.02,1-.73,1.82-1.65,1.82l-8.05.03c-.63,0-1.19-.38-1.47-.95.15.84.83,1.47,1.64,1.47l8.05-.03c.92,0,1.67-.82,1.66-1.82Z"/>
    </g>
  </g>
  <g>
    <path class="st1" d="M210.78,327.06c0,1.93-29.21,3.49-65.24,3.49s-65.25-1.56-65.25-3.49,29.21-3.49,65.25-3.49,65.24,1.56,65.24,3.49Z"/>
    <path d="M145.54,331.76c-17.45,0-33.86-.37-46.2-1.03-20.25-1.08-20.25-2.34-20.25-3.67s0-2.59,20.25-3.67c12.35-.66,28.76-1.02,46.2-1.02s33.85.36,46.19,1.02c20.25,1.08,20.25,2.34,20.25,3.67s0,2.59-20.25,3.67c-12.34.66-28.75,1.03-46.19,1.03ZM84.37,327.06c7.87,1.11,29.36,2.28,61.17,2.28s53.3-1.17,61.17-2.28c-7.87-1.12-29.36-2.28-61.17-2.28s-53.3,1.17-61.17,2.28Z"/>
  </g>
  <g>
    <g>
      <g>
        <polygon class="st13" points="128.86 255.15 142.69 274.42 125.5 267.7 127.37 264.53 120.65 262.85 119.08 252.87 128.86 255.15"/>
        <path d="M122.66,258.76c4.61,6.42,9.23,12.85,13.84,19.27,2.7-3.51,5.4-7.02,8.09-10.53-5.73-2.24-11.46-4.48-17.2-6.72,1.43,3.51,2.85,7.02,4.28,10.53.62-1.06,1.25-2.11,1.88-3.16,2.33-3.92.2-9.41-4.28-10.53-2.24-.56-4.49-1.12-6.72-1.68,1.66,1.67,3.33,3.34,5,5.01-.53-3.33-1.05-6.65-1.58-9.98-2.94,2.94-5.88,5.88-8.81,8.82,3.26.76,6.52,1.52,9.78,2.27,3.8.88,7.75-1.13,8.82-5.01,1-3.64-1.21-7.93-5.01-8.81-3.26-.76-6.52-1.52-9.78-2.27-2.52-.58-5.11-.02-6.97,1.84-1.96,1.96-2.26,4.36-1.84,6.97.53,3.33,1.05,6.66,1.58,9.98.37,2.34,2.81,4.46,5.01,5,2.24.55,4.48,1.12,6.72,1.68-1.43-3.51-2.86-7.02-4.28-10.53-.62,1.06-1.25,2.11-1.88,3.16-.98,1.64-1.23,3.68-.72,5.52.71,2.61,2.6,4.07,5,5,5.73,2.24,11.47,4.49,17.2,6.72,5.73,2.24,11.64-5.58,8.09-10.53-4.61-6.42-9.22-12.84-13.84-19.27-2.27-3.17-6.19-4.69-9.8-2.57-3.13,1.84-4.85,6.62-2.58,9.8Z"/>
      </g>
      <polygon class="st22" points="128.86 255.15 142.69 274.42 125.5 267.7 127.37 264.53 120.65 262.85 119.08 252.87 128.86 255.15"/>
    </g>
    <g>
      <g>
        <polygon class="st13" points="163.67 255.15 149.83 274.42 167.03 267.7 165.15 264.53 171.87 262.85 173.46 252.87 163.67 255.15"/>
        <path d="M157.48,251.53c-4.61,6.42-9.22,12.84-13.84,19.27-3.54,4.94,2.37,12.76,8.1,10.53,5.73-2.23,11.47-4.48,17.19-6.72,1.81-.71,3.26-1.55,4.28-3.29,1.29-2.21,1.31-5.04,0-7.24-.62-1.05-1.25-2.11-1.87-3.16-1.43,3.51-2.86,7.02-4.28,10.53,2.23-.56,4.47-1.12,6.72-1.68,2.19-.55,4.62-2.66,5-5,.53-3.33,1.05-6.66,1.58-9.98.41-2.61.12-5.01-1.85-6.97-1.86-1.86-4.45-2.43-6.97-1.84-3.26.76-6.52,1.52-9.79,2.27-3.8.88-6,5.17-5,8.81,1.07,3.88,5.01,5.89,8.81,5.01,3.26-.76,6.52-1.52,9.79-2.27-2.94-2.94-5.88-5.88-8.82-8.82-.53,3.33-1.05,6.66-1.58,9.98,1.67-1.67,3.34-3.34,5.01-5.01-2.24.56-4.48,1.12-6.73,1.68-4.49,1.12-6.6,6.61-4.27,10.53.62,1.05,1.25,2.1,1.88,3.16,1.43-3.51,2.85-7.02,4.28-10.53-5.73,2.24-11.47,4.48-17.19,6.72,2.7,3.51,5.39,7.02,8.09,10.53,4.61-6.42,9.22-12.85,13.83-19.27,2.29-3.18.56-7.97-2.57-9.8-3.61-2.11-7.54-.6-9.81,2.57Z"/>
      </g>
      <polygon class="st22" points="163.67 255.15 149.83 274.42 167.03 267.7 165.15 264.53 171.87 262.85 173.46 252.87 163.67 255.15"/>
    </g>
  </g>
  <polygon class="st1" points="140.09 281.04 146.28 283.4 152.95 280.89 145.96 280.03 140.09 281.04"/>
  <polygon class="st12" points="134.42 250.62 146.27 267.24 158.69 249.88 134.42 250.62"/>
  <polygon class="st19" points="136.62 253.82 155.83 253.82 152.98 257.83 139.57 257.83 136.62 253.82"/>
  <polygon class="st19" points="141.79 261.04 150.8 261.04 148.64 264.02 143.97 264.02 141.79 261.04"/>
  <rect class="st1" x="143.22" y="276.89" width="6.23" height="11.61"/>
  <g>
    <g>
      <polygon class="st22" points="100.27 281.67 83.11 272.42 87.2 264.85 104.34 274.11 100.27 281.67"/>
      <path d="M101.71,279.2c-5.71-3.09-11.44-6.17-17.16-9.26.34,1.31.69,2.62,1.03,3.93,1.36-2.53,2.72-5.05,4.08-7.57-1.3.34-2.61.69-3.91,1.03,5.71,3.08,11.43,6.17,17.15,9.25-.33-1.3-.68-2.62-1.02-3.92-1.36,2.52-2.72,5.04-4.09,7.57-1.75,3.26,3.2,6.15,4.95,2.89,1.36-2.53,2.72-5.04,4.08-7.56.72-1.34.38-3.16-1.03-3.92-5.72-3.09-11.44-6.17-17.15-9.26-1.34-.72-3.17-.38-3.92,1.03-1.36,2.52-2.73,5.05-4.08,7.57-.73,1.33-.39,3.16,1.02,3.92,5.72,3.08,11.44,6.17,17.16,9.25,3.25,1.75,6.15-3.2,2.89-4.95Z"/>
    </g>
    <polygon class="st4" points="98.79 277.55 87.02 271.25 87.43 270.49 99.2 276.79 98.79 277.55"/>
  </g>
  <path class="st20" d="M103.72,246.92s-4.31,5.54-6.72,9.27c-2.42,3.73-4.89,8.06-4.89,8.06l9.36,5.05-6.05-6.06s1.59-3.99,2.87-6.43c1.29-2.43,5.43-9.89,5.43-9.89Z"/>
  <polygon class="st7" points="119.08 252.87 120.65 262.85 127.37 264.53 125.5 267.7 142.57 274.41 128.51 266.81 130.38 263.34 122.99 261.58 121.42 253.46 119.08 252.87"/>
  <polygon class="st7" points="173.46 252.87 171.87 262.85 165.15 264.53 167.03 267.7 149.95 274.41 164.02 266.81 162.15 263.34 169.52 261.58 171.11 253.46 173.46 252.87"/>
  <g>
    <g>
      <polygon class="st14" points="96.17 240.96 89.4 251.67 94.24 256.96 102.12 244.36 96.17 240.96"/>
      <path d="M91.23,238.06c-2.26,3.57-4.51,7.15-6.78,10.72-1.41,2.23-.8,5.09.9,6.95,1.61,1.76,3.23,3.53,4.84,5.29,2.57,2.8,7.12,1.86,9-1.16,2.63-4.2,5.25-8.4,7.88-12.61,1.64-2.63.59-6.33-2.06-7.84-1.98-1.14-3.96-2.28-5.94-3.41-2.71-1.55-6.26-.65-7.84,2.05-1.57,2.68-.65,6.29,2.06,7.84,1.99,1.14,3.96,2.27,5.95,3.41-.69-2.61-1.37-5.23-2.06-7.85-2.62,4.21-5.25,8.41-7.87,12.61,3-.39,6-.78,9.01-1.16-1.62-1.76-3.23-3.53-4.85-5.29.3,2.31.59,4.63.89,6.95,2.26-3.58,4.52-7.15,6.78-10.72,1.67-2.64.57-6.3-2.06-7.84-2.76-1.62-6.18-.58-7.84,2.05Z"/>
    </g>
    <polygon class="st6" points="96.17 240.96 89.4 251.67 94.24 256.96 102.12 244.36 96.17 240.96"/>
    <polygon class="st5" points="101.43 243.97 93.69 256.37 94.24 256.96 102.12 244.36 101.43 243.97"/>
    <polygon class="st7" points="96.74 241.7 101.93 244.66 102.12 244.36 96.17 240.96 89.4 251.67 94.24 256.96 90.71 251.31 96.74 241.7"/>
  </g>
  <g>
    <g>
      <polygon class="st14" points="194.52 240.96 201.29 251.67 196.44 256.96 188.57 244.36 194.52 240.96"/>
      <path d="M189.57,243.85c2.26,3.57,4.51,7.15,6.77,10.72.3-2.32.6-4.63.9-6.95-1.62,1.76-3.24,3.53-4.85,5.29,3,.39,6,.78,9,1.16-2.62-4.21-5.25-8.4-7.87-12.61-.69,2.62-1.37,5.23-2.06,7.85,1.98-1.13,3.96-2.27,5.95-3.41,2.71-1.55,3.63-5.16,2.06-7.84-1.59-2.71-5.13-3.61-7.85-2.05-1.98,1.13-3.96,2.27-5.95,3.41-2.64,1.51-3.69,5.21-2.05,7.84,2.62,4.2,5.25,8.4,7.87,12.61,1.88,3.01,6.43,3.96,9,1.16,1.62-1.76,3.23-3.53,4.85-5.29,1.7-1.86,2.31-4.71.89-6.95-2.26-3.57-4.52-7.15-6.77-10.72-1.67-2.63-5.08-3.68-7.85-2.05-2.62,1.54-3.72,5.2-2.05,7.84Z"/>
    </g>
    <polygon class="st6" points="194.52 240.96 201.29 251.67 196.44 256.96 188.57 244.36 194.52 240.96"/>
    <polygon class="st5" points="189.25 243.97 197 256.37 196.44 256.96 188.57 244.36 189.25 243.97"/>
    <polygon class="st7" points="193.94 241.7 188.76 244.66 188.57 244.36 194.52 240.96 201.29 251.67 196.44 256.96 199.98 251.31 193.94 241.7"/>
  </g>
  <g>
    <g>
      <path class="st13" d="M145.54,10.03C81.02,10.03,8.33,68.11,9.96,88.44c1.64,20.42,44.11,12.26,44.11,12.26h182.95s42.47,8.17,44.11-12.26c1.62-20.33-71.08-78.4-135.59-78.4Z"/>
      <path d="M145.54,0c-28.84.05-57.19,10.08-82.26,23.73-11.75,6.4-22.84,13.9-33.28,22.28-8.34,6.69-15.94,14.09-22.37,22.64-2.59,3.46-4.53,7.08-6.16,11.08-1.7,4.15-1.77,8.46-.99,12.81,1.06,5.98,5.35,10.9,10.29,14.12,4,2.6,8.9,4.02,13.58,4.71,10.74,1.59,21.75,1.03,32.39-1.01-.89.12-1.78.24-2.67.36h182.95c-.89-.12-1.78-.24-2.67-.36,5.83,1.12,11.83,1.73,17.77,1.93,5.17.17,10.28-.22,15.38-1.03,4.63-.74,9.49-2.28,13.36-4.97,4.9-3.39,9-8.38,9.85-14.45.48-3.36.52-5.38-.09-8.75-.39-2.11-1.33-4.1-2.16-6.06-1.37-3.21-3.31-6.14-5.43-8.91-3.22-4.24-6.67-8.21-10.46-11.95-8.71-8.57-18.57-16.06-28.75-22.79-11.17-7.38-23.02-13.76-35.34-18.97C188.55,5.96,167.34.04,145.54,0c-5.47,0-10.03,4.57-10.03,10.03s4.56,10.02,10.03,10.03c5.35.01,10.68.41,15.98,1.12-.89-.12-1.78-.24-2.67-.36,14.45,1.98,28.49,6.27,41.91,11.91-.8-.34-1.59-.67-2.4-1.01,16.95,7.17,33.05,16.51,47.64,27.74-.67-.53-1.34-1.04-2.03-1.57,8.44,6.52,16.62,13.72,23.17,22.18-.53-.67-1.04-1.36-1.57-2.03,2.17,2.83,4.18,5.82,5.58,9.11-.33-.8-.68-1.59-1.02-2.4.57,1.36,1.02,2.77,1.24,4.24-.12-.89-.24-1.78-.36-2.67.12.96.12,1.89,0,2.85.12-.88.24-1.78.36-2.67-.16,1.07-.42,2.1-.82,3.1.34-.8.68-1.6,1.02-2.4-.39.93-.89,1.79-1.49,2.59.52-.68,1.04-1.35,1.56-2.03-.7.9-1.51,1.69-2.41,2.4.68-.53,1.35-1.05,2.03-1.57-1.26.96-2.64,1.71-4.1,2.33.8-.34,1.59-.67,2.4-1.01-2.77,1.14-5.71,1.79-8.67,2.21.89-.12,1.78-.24,2.67-.36-7.39.97-14.97.55-22.34-.42.88.12,1.77.23,2.66.36-2.79-.38-5.54-1.02-8.36-1.02H54.09c-2.19,0-4.7.72-6.89,1.02.89-.12,1.78-.24,2.67-.36-7.38.97-14.95,1.4-22.35.42.89.12,1.78.24,2.67.36-2.96-.41-5.9-1.06-8.67-2.21.8.34,1.59.67,2.4,1.01-1.46-.62-2.84-1.37-4.11-2.33.68.52,1.36,1.04,2.03,1.57-.91-.71-1.71-1.5-2.42-2.4.53.68,1.05,1.35,1.58,2.03-.61-.8-1.1-1.66-1.5-2.59.33.8.67,1.6,1.01,2.4-.4-1-.66-2.02-.81-3.1.12.89.23,1.79.35,2.67-.12-.96-.13-1.89,0-2.85-.12.89-.24,1.78-.35,2.66.21-1.46.67-2.87,1.24-4.23-.33.8-.67,1.6-1.01,2.39,1.41-3.3,3.43-6.3,5.61-9.13-.53.68-1.05,1.36-1.58,2.03,6.5-8.39,14.61-15.53,22.97-22.01-.68.52-1.36,1.05-2.03,1.57,14.6-11.26,30.72-20.63,47.69-27.82-.8.33-1.6.67-2.4,1.01,13.57-5.72,27.78-10.04,42.4-12.01-.89.12-1.78.25-2.67.36,5.18-.68,10.38-1.06,15.62-1.06,5.47-.01,10.03-4.56,10.03-10.03S151,0,145.54,0Z"/>
    </g>
    <path class="st12" d="M145.54,10.03C81.02,10.03,8.33,68.11,9.96,88.44c1.64,20.42,44.11,12.26,44.11,12.26h182.95s42.47,8.17,44.11-12.26c1.62-20.33-71.08-78.4-135.59-78.4Z"/>
    <path class="st20" d="M145.25,86.28s-123.74,5.77-132.95-6.37c-1.71,3.26-2.54,6.15-2.35,8.53,1.64,20.42,44.11,12.26,44.11,12.26h182.95s42.47,8.17,44.11-12.26c.19-2.38-.64-5.27-2.35-8.53-9.21,12.15-133.52,6.37-133.52,6.37Z"/>
    <path class="st10" d="M10.48,91.23c6.75-23.1,74.5-74.26,135.06-74.26s128.32,51.16,135.07,74.26c.26-.87.44-1.8.52-2.79,1.62-20.33-71.08-78.4-135.59-78.4S8.33,68.11,9.96,88.44c.08,1,.27,1.92.53,2.79Z"/>
  </g>
  <g>
    <g>
      <g>
        <g>
          <path class="st12" d="M61.55,148.61c-1.14,10.5-10.58,18.08-21.07,16.93-10.5-1.15-18.08-10.59-16.92-21.08,1.14-10.49,10.58-18.07,21.08-16.93,10.49,1.15,18.06,10.58,16.91,21.08Z"/>
          <path d="M52.96,148.61c-.01.13-.03.27-.05.4.1-.76.21-1.52.31-2.29-.24,1.7-.68,3.34-1.32,4.93.28-.68.57-1.37.86-2.05-.46,1.06-.99,2.06-1.61,3.04-.38.58-1.62,2.12.22-.21-.39.5-.81.95-1.25,1.41-.35.36-.72.7-1.1,1.03-1.6,1.42,1.71-1.19-.05.03-1.03.72-2.15,1.31-3.31,1.81.69-.29,1.37-.57,2.05-.86-1.54.63-3.13,1.08-4.78,1.32.76-.1,1.52-.21,2.28-.31-1.72.22-3.42.23-5.14.02.76.1,1.52.21,2.29.31-1.7-.24-3.34-.68-4.93-1.33.68.29,1.37.58,2.05.87-1.06-.46-2.07-.99-3.04-1.62-.57-.37-2.12-1.61.21.24-.48-.39-.95-.82-1.41-1.26-.36-.35-.7-.72-1.03-1.09-1.42-1.61,1.18,1.71-.04-.05-.72-1.03-1.3-2.15-1.81-3.3.29.69.58,1.37.86,2.05-.63-1.55-1.07-3.13-1.32-4.78.1.76.21,1.52.31,2.28-.22-1.71-.23-3.42-.02-5.14-.1.76-.21,1.53-.31,2.28.24-1.7.68-3.34,1.32-4.94-.29.69-.57,1.37-.86,2.06.46-1.06.99-2.07,1.61-3.04.37-.57,1.62-2.12-.23.21.39-.49.82-.95,1.26-1.41.35-.36.72-.7,1.1-1.03,1.6-1.42-1.71,1.18.05-.03,1.03-.72,2.15-1.31,3.31-1.81-.69.29-1.37.58-2.05.87,1.55-.63,3.13-1.08,4.79-1.32-.77.1-1.53.2-2.29.31,1.72-.23,3.43-.23,5.15-.02-.76-.1-1.53-.2-2.29-.31,1.71.24,3.34.68,4.93,1.32-.68-.29-1.36-.57-2.06-.87,1.06.46,2.07,1,3.04,1.62.57.37,2.13,1.61-.21-.23.49.39.96.82,1.41,1.26.36.35.69.72,1.03,1.1,1.41,1.6-1.19-1.71.03.04.72,1.04,1.3,2.16,1.81,3.31-.29-.68-.58-1.37-.87-2.05.64,1.54,1.08,3.13,1.33,4.79-.1-.76-.21-1.52-.31-2.29.2,1.58.23,3.16.06,4.74-.46,4.67,4.26,8.6,8.6,8.6,2.27,0,4.48-.91,6.08-2.52,1.73-1.73,2.29-3.72,2.52-6.08.81-8.19-2.67-16.75-8.68-22.32-6.82-6.32-15.99-8.52-25.02-6.78-7.86,1.51-15.19,7.4-18.63,14.57-4.02,8.34-3.84,17.77.53,25.95,2.53,4.74,6.91,8.91,11.75,11.24,5.91,2.85,12.13,3.53,18.55,2.29,5.3-1.02,10.5-4.17,14.14-8.11,1.86-2.01,3.52-4.32,4.65-6.82,1.53-3.37,2.27-6.37,2.7-10.03.25-2.13-1.07-4.63-2.52-6.08-1.6-1.61-3.81-2.52-6.08-2.52s-4.47.91-6.07,2.52c-1.76,1.76-2.24,3.71-2.52,6.08Z"/>
        </g>
        <path class="st0" d="M61.55,148.61c-1.14,10.5-10.58,18.08-21.07,16.93-10.5-1.15-18.08-10.59-16.92-21.08,1.14-10.49,10.58-18.07,21.08-16.93,10.49,1.15,18.06,10.58,16.91,21.08Z"/>
        <path class="st16" d="M56.71,147.55c-.84,7.69-7.75,13.24-15.44,12.4-7.69-.84-13.24-7.75-12.41-15.45.84-7.69,7.76-13.24,15.45-12.4,7.69.84,13.24,7.76,12.4,15.45Z"/>
      </g>
      <g>
        <g>
          <path class="st12" d="M267.53,148.61c-1.15,10.5-10.58,18.08-21.08,16.93-10.5-1.15-18.08-10.59-16.93-21.08,1.15-10.49,10.58-18.07,21.08-16.93,10.49,1.15,18.07,10.58,16.93,21.08Z"/>
          <path d="M258.93,148.61c-.02.13-.03.27-.05.4.1-.76.2-1.52.31-2.29-.25,1.7-.68,3.34-1.33,4.93.29-.68.58-1.37.87-2.05-.46,1.06-.99,2.06-1.62,3.04-.37.58-1.61,2.12.24-.21-.39.5-.82.95-1.26,1.41-.35.36-.72.7-1.09,1.03-1.6,1.42,1.71-1.19-.05.03-1.03.72-2.15,1.31-3.31,1.81.69-.29,1.37-.57,2.06-.86-1.55.63-3.13,1.08-4.79,1.32.76-.1,1.52-.21,2.29-.31-1.71.22-3.43.23-5.14.02.76.1,1.52.21,2.29.31-1.7-.24-3.34-.68-4.94-1.33.69.29,1.37.58,2.06.87-1.06-.46-2.07-.99-3.04-1.62-.58-.37-2.13-1.61.21.24-.5-.39-.96-.82-1.41-1.26-.36-.35-.7-.72-1.03-1.09-1.41-1.61,1.19,1.71-.03-.05-.72-1.03-1.31-2.15-1.81-3.3.3.69.58,1.37.87,2.05-.64-1.55-1.08-3.13-1.33-4.78.1.76.2,1.52.31,2.28-.22-1.71-.22-3.42-.02-5.14-.11.76-.21,1.53-.31,2.28.24-1.7.67-3.34,1.32-4.94-.29.69-.58,1.37-.87,2.06.46-1.06,1-2.07,1.62-3.04.36-.57,1.61-2.12-.23.21.39-.49.82-.95,1.25-1.41.35-.36.73-.7,1.1-1.03,1.6-1.42-1.71,1.18.05-.03,1.03-.72,2.16-1.31,3.31-1.81-.69.29-1.37.58-2.06.87,1.55-.63,3.13-1.08,4.79-1.32-.76.1-1.52.2-2.29.31,1.73-.23,3.42-.23,5.15-.02-.77-.1-1.52-.2-2.29-.31,1.71.24,3.34.68,4.94,1.32-.68-.29-1.37-.57-2.06-.87,1.06.46,2.07,1,3.04,1.62.58.37,2.12,1.61-.21-.23.5.39.96.82,1.41,1.26.36.35.7.72,1.03,1.1,1.42,1.6-1.18-1.71.04.04.72,1.04,1.3,2.16,1.81,3.31-.29-.68-.58-1.37-.87-2.05.64,1.54,1.08,3.13,1.32,4.79-.1-.76-.2-1.52-.3-2.29.2,1.58.22,3.16.06,4.74-.46,4.67,4.26,8.6,8.6,8.6,2.27,0,4.47-.91,6.08-2.52,1.73-1.73,2.28-3.72,2.52-6.08.81-8.19-2.67-16.75-8.68-22.32-6.82-6.32-15.99-8.52-25.01-6.78-7.86,1.51-15.2,7.4-18.65,14.57-4.01,8.34-3.83,17.77.53,25.95,2.53,4.74,6.92,8.91,11.75,11.24,5.91,2.85,12.13,3.53,18.55,2.29,5.31-1.02,10.5-4.17,14.14-8.11,1.86-2.01,3.52-4.32,4.66-6.82,1.54-3.37,2.26-6.37,2.7-10.03.25-2.13-1.07-4.63-2.52-6.08-1.6-1.61-3.81-2.52-6.08-2.52s-4.48.91-6.08,2.52c-1.76,1.76-2.23,3.71-2.52,6.08Z"/>
        </g>
        <path class="st0" d="M267.53,148.61c-1.15,10.5-10.58,18.08-21.08,16.93-10.5-1.15-18.08-10.59-16.93-21.08,1.15-10.49,10.58-18.07,21.08-16.93,10.49,1.15,18.07,10.58,16.93,21.08Z"/>
        <path class="st16" d="M262.68,147.55c-.84,7.69-7.75,13.24-15.44,12.4-7.7-.84-13.24-7.75-12.4-15.45.84-7.69,7.76-13.24,15.44-12.4,7.68.84,13.24,7.76,12.4,15.45Z"/>
      </g>
    </g>
    <g>
      <path class="st14" d="M40.8,112.35c.05,25.94.16,51.43.16,51.43,0,40.22,22.54,77.5,106.53,77.16,83.12-.34,102.8-36.94,102.8-77.16v-51.43H40.8Z"/>
      <path d="M30.77,112.35c.02,15.51.07,31.03.13,46.54.03,7.71.32,15.28,1.59,22.92,2.93,17.84,12.3,34.66,26.66,45.78,4.43,3.43,8.99,6.51,14,9.06,5.51,2.81,11.32,5.12,17.22,6.99,13.63,4.33,28.07,6.2,42.31,6.98,16.45.91,32.98.19,49.28-2.27,12.48-1.88,24.65-5.33,36.04-10.84,8.82-4.27,17.11-10.27,23.57-17.66,6.4-7.33,11.04-15.67,14.17-24.88,4.62-13.59,4.58-27.89,4.58-42.06v-40.56c0-5.47-4.57-10.03-10.03-10.03H40.8c-5.47,0-10.03,4.56-10.03,10.03s4.56,10.03,10.03,10.03h209.48c-3.34-3.34-6.69-6.69-10.03-10.03v42.86c0,7.54.12,15.08-.89,22.58.13-.88.24-1.78.36-2.66-.89,6.5-2.48,12.91-5.02,18.98.34-.8.68-1.6,1.02-2.4-2,4.74-4.58,9.22-7.71,13.3.53-.68,1.05-1.35,1.57-2.03-3.19,4.13-6.92,7.8-11.06,10.99.68-.52,1.36-1.04,2.03-1.57-5.19,3.98-10.93,7.16-16.94,9.71.79-.34,1.6-.68,2.4-1.01-10.29,4.32-21.25,6.82-32.29,8.31.89-.12,1.78-.24,2.67-.36-19.68,2.63-40.04,2.64-59.71.01.89.12,1.78.24,2.66.36-11.2-1.53-22.32-4.09-32.77-8.48.8.34,1.59.67,2.4,1.01-6.27-2.66-12.25-5.99-17.66-10.14.68.53,1.36,1.05,2.03,1.57-4.26-3.29-8.1-7.07-11.41-11.32.52.68,1.04,1.35,1.57,2.03-3.29-4.25-5.98-8.91-8.07-13.86.33.8.68,1.6,1.01,2.39-2.52-6.02-4.12-12.35-5-18.81.12.89.25,1.78.36,2.67-.84-6.4-.81-12.83-.84-19.27-.06-14.96-.1-29.92-.12-44.88-.01-5.47-4.56-10.03-10.04-10.03s-10.04,4.56-10.03,10.03Z"/>
    </g>
    <path class="st0" d="M40.8,112.35c.05,25.94.16,51.43.16,51.43,0,40.22,22.54,77.5,106.53,77.16,83.12-.34,102.8-36.94,102.8-77.16v-51.43H40.8Z"/>
    <path class="st18" d="M145.51,157.02c-53.14,0-87.98-7.06-104.67-11.52.05-13.36.09-22.92.09-22.92,0-2.09.06-4.17.19-6.24,16.79,4.46,51.55,11.45,104.4,11.45s87.85-7.03,104.56-11.49c.12,2.08.17,4.18.17,6.28v22.91c-16.66,4.45-51.52,11.54-104.74,11.54Z"/>
    <g>
      <g>
        <g>
          <g>
            <path class="st1" d="M101.69,176.18c0,9.36-7.59,16.97-16.97,16.97s-16.97-7.6-16.97-16.97,7.6-16.97,16.97-16.97,16.97,7.6,16.97,16.97Z"/>
            <path d="M99.54,176.18c-.08,6.14-3.86,11.75-9.67,13.9-5.97,2.22-12.54.25-16.63-4.53-4.07-4.74-4.29-11.81-1.19-17.08,3.15-5.32,9.6-8.03,15.62-6.84,6.9,1.38,11.79,7.57,11.88,14.54.03,2.77,4.34,2.77,4.3,0-.08-6.73-3.54-12.84-9.26-16.38-5.76-3.58-13.17-3.52-19.07-.38-5.89,3.13-9.51,9.39-9.88,15.96-.39,6.71,3.15,13.04,8.61,16.78,5.81,3.97,13.59,4.04,19.71.78,6.12-3.26,9.82-9.91,9.9-16.75.03-2.78-4.27-2.78-4.3,0Z"/>
          </g>
          <path class="st12" d="M96.93,171.71c0,2.3-1.87,4.17-4.17,4.17s-4.17-1.87-4.17-4.17,1.87-4.17,4.17-4.17,4.17,1.87,4.17,4.17Z"/>
        </g>
        <path class="st11" d="M85.37,205.3c.36,2.65-4.21,5.46-10.2,6.27-5.99.82-11.14-.67-11.5-3.32-.36-2.65,4.2-5.46,10.19-6.27,5.99-.81,11.14.67,11.51,3.33Z"/>
      </g>
      <g>
        <g>
          <g>
            <path class="st1" d="M223.33,176.18c0,9.36-7.59,16.97-16.97,16.97s-16.97-7.6-16.97-16.97,7.6-16.97,16.97-16.97,16.97,7.6,16.97,16.97Z"/>
            <path d="M221.19,176.18c-.08,6.14-3.87,11.75-9.66,13.9-5.99,2.22-12.55.25-16.64-4.53-4.07-4.74-4.3-11.81-1.19-17.08,3.15-5.32,9.59-8.03,15.61-6.84,6.9,1.38,11.8,7.57,11.88,14.54.03,2.77,4.33,2.77,4.29,0-.08-6.73-3.54-12.84-9.25-16.38-5.76-3.58-13.17-3.52-19.08-.38-5.89,3.13-9.5,9.39-9.88,15.96-.39,6.71,3.15,13.05,8.61,16.78,5.81,3.97,13.59,4.04,19.71.78,6.12-3.26,9.82-9.91,9.9-16.75.03-2.78-4.27-2.78-4.29,0Z"/>
          </g>
          <path class="st12" d="M218.57,171.71c0,2.3-1.87,4.17-4.17,4.17s-4.17-1.87-4.17-4.17,1.86-4.17,4.17-4.17,4.17,1.87,4.17,4.17Z"/>
        </g>
        <path class="st11" d="M205.72,205.3c-.36,2.65,4.21,5.46,10.2,6.27,5.99.82,11.14-.67,11.5-3.32.36-2.65-4.2-5.46-10.2-6.27-5.99-.81-11.14.67-11.5,3.33Z"/>
      </g>
    </g>
    <g>
      <g>
        <path class="st13" d="M33.95,124.53s10.56,13.03,113.59,13.03,109.58-14,109.58-14c0,0-20.39-10.42-110.31-10.42s-112.87,11.4-112.87,11.4Z"/>
        <path d="M26.86,131.62c.92,1.13,2.32,1.96,3.57,2.71,2.79,1.66,5.93,2.8,9,3.8,4.83,1.57,9.83,2.63,14.82,3.52,9.39,1.69,18.9,2.77,28.41,3.61,30.62,2.68,61.57,2.85,92.29,1.97,21.72-.62,43.86-1.72,65.19-6.2,8.11-1.71,16.45-4,23.01-9.25,1.03-.82,2.12-2.05,2.64-3.16,1.19-2.52,1.77-4.95,1.02-7.73-.66-2.38-2.37-4.85-4.61-5.99-5.18-2.64-11.18-3.87-16.81-4.98-19.86-3.92-40.29-5.26-60.47-6.09-31.81-1.31-63.85-1.2-95.61,1.2-10.73.81-21.43,1.97-32.07,3.61-5.86.91-11.71,1.99-17.45,3.46-3.69.95-7.46,2.07-10.89,3.77-4.9,2.42-6.22,9.25-3.6,13.72,2.91,4.95,8.83,6.03,13.73,3.6.16-.08.32-.15.48-.22-.8.34-1.59.68-2.4,1.02,7.08-2.99,15.03-4.29,22.54-5.53,2.86-.48,5.71-.9,8.58-1.29-.89.12-1.78.24-2.67.36,26.88-3.61,54.16-4.36,81.25-4.36,26.79,0,53.77.63,80.38,4,.74.1,1.48.19,2.23.29-.89-.12-1.78-.24-2.67-.36,8.81,1.19,18.06,2.43,26.43,5.6.27.1.53.2.79.32-.8-.34-1.6-.68-2.4-1.02.16.07.32.14.49.22-1.21-4.57-2.4-9.15-3.6-13.72-.04.08-.1.16-.16.24.52-.68,1.04-1.36,1.56-2.03-.29.39-.67.71-1.06,1,.67-.52,1.36-1.04,2.03-1.56-1.4,1.07-3.03,1.85-4.65,2.54.8-.33,1.6-.68,2.4-1.01-8.75,3.67-18.51,5.12-27.85,6.38.89-.12,1.78-.24,2.67-.36-27.3,3.65-55.07,3.98-82.56,3.83-24.75-.13-49.71-.79-74.28-4.07.88.12,1.78.24,2.67.36-9.44-1.27-19.37-2.68-28.22-6.4.8.33,1.59.68,2.4,1.01-1.36-.58-2.75-1.21-3.93-2.12.68.52,1.36,1.04,2.03,1.57-.16-.13-.34-.27-.47-.43-1.59-1.95-4.67-2.93-7.09-2.93-2.65,0-5.22,1.06-7.1,2.93-1.87,1.87-2.93,4.45-2.93,7.1,0,2.87,1.18,4.94,2.93,7.09Z"/>
      </g>
      <path class="st15" d="M33.95,124.53s10.56,13.03,113.59,13.03,109.58-14,109.58-14c0,0-20.39-10.42-110.31-10.42s-112.87,11.4-112.87,11.4Z"/>
      <path class="st3" d="M147.68,134c-70.67,0-100.53-5.74-112.84-9.84-.61.24-.88.38-.88.38,0,0,10.56,13.03,113.59,13.03s109.58-14,109.58-14h0c-11.3,4.39-39.54,10.44-109.45,10.44Z"/>
    </g>
    <g>
      <g>
        <path class="st13" d="M211.53,102.96c-28.86-2.79-64.61-3.05-65.97-3.06h-.05c-1.36,0-37.12.26-65.97,3.06-29.41,2.85-47.36,6.58-47.36,6.58l1.44,7.2s21.87-4.6,49.14-7.13c30.03-2.78,61.82-2.87,62.76-2.88.94,0,32.73.1,62.76,2.88,27.27,2.53,49.14,7.13,49.14,7.13l1.44-7.2s-17.94-3.73-47.35-6.58Z"/>
        <path d="M211.53,92.92c-21.9-2.11-43.97-2.93-65.97-3.05,3.34,3.35,6.68,6.69,10.03,10.03h0c0-5.47-4.56-10.03-10.03-10.03h-.05c-5.47,0-10.03,4.56-10.03,10.03h0c3.35-3.35,6.69-6.69,10.03-10.03-24.21.14-48.48,1.15-72.55,3.73-14.51,1.55-29.14,3.3-43.44,6.27-2.47.51-4.76,2.48-6,4.61-1.43,2.45-1.55,5-1.01,7.73.48,2.4.96,4.8,1.43,7.2.5,2.47,2.5,4.76,4.61,6,2.44,1.42,5.03,1.58,7.73,1.01,9.78-2.05,19.7-3.56,29.6-4.9-.89.12-1.78.24-2.67.36,27.19-3.64,54.73-5.01,82.15-5.1,8.49-.04,16.98.24,25.46.55,17.38.63,34.76,1.76,52.03,3.9,1.67.2,3.33.42,4.99.64-.89-.12-1.78-.24-2.66-.36,9.89,1.34,19.81,2.85,29.6,4.9,2.7.57,5.29.41,7.72-1.01,2.11-1.23,4.12-3.53,4.61-6,.48-2.39.95-4.8,1.44-7.2.54-2.72.42-5.28-1.01-7.73-1.25-2.13-3.53-4.1-6-4.61-4.19-.87-8.42-1.55-12.64-2.22-12.41-1.96-24.89-3.5-37.38-4.72-5.46-.53-10.03,4.97-10.03,10.03,0,2.65,1.06,5.22,2.94,7.09,2.02,2.02,4.34,2.67,7.1,2.94,7.63.75,15.26,1.61,22.86,2.63-.89-.12-1.78-.24-2.67-.35,8.19,1.1,16.4,2.27,24.49,3.95-2.34-4.11-4.67-8.23-7.01-12.34-.47,2.4-.95,4.8-1.43,7.2,4.11-2.34,8.23-4.67,12.34-7.01-26.35-5.53-53.38-8.13-80.23-9.42-18.58-.89-37.09-1.11-55.67-.51-30.49.98-60.95,3.63-90.92,9.47-.78.15-1.55.31-2.33.46,4.12,2.34,8.23,4.67,12.34,7.01-.48-2.4-.96-4.8-1.43-7.2-2.34,4.12-4.68,8.23-7.01,12.34,8.09-1.68,16.3-2.85,24.49-3.95-.89.12-1.77.24-2.67.35,28.18-3.78,56.55-5.25,84.97-5.64,1.29-.02,2.57-.04,3.87-.05,5.47-.03,10.03-4.54,10.03-10.03h0c-3.34,3.34-6.68,6.69-10.03,10.03h.05c-3.35-3.34-6.69-6.69-10.03-10.03h0c0,5.49,4.57,10,10.03,10.03,21.99.13,44.07.95,65.97,3.05,5.45.53,10.03-4.96,10.03-10.03,0-2.65-1.06-5.22-2.94-7.1-2.01-2.02-4.34-2.67-7.09-2.94Z"/>
      </g>
      <path class="st22" d="M211.53,102.96c-28.86-2.79-64.61-3.05-65.97-3.06h-.05c-1.36,0-37.12.26-65.97,3.06-29.41,2.85-47.36,6.58-47.36,6.58l1.44,7.2s21.87-4.6,49.14-7.13c30.03-2.78,61.82-2.87,62.76-2.88.94,0,32.73.1,62.76,2.88,27.27,2.53,49.14,7.13,49.14,7.13l1.44-7.2s-17.94-3.73-47.35-6.58Z"/>
      <path class="st7" d="M79.55,106.22c28.85-2.8,64.61-3.05,65.97-3.06h.05c1.36.01,37.11.26,65.97,3.06,26.2,2.54,43.29,5.77,46.71,6.45l.64-3.2s-17.94-3.73-47.35-6.58c-28.86-2.8-64.61-3.05-65.97-3.06h-.05c-1.36,0-37.12.26-65.97,3.06-29.41,2.85-47.36,6.58-47.36,6.58l.64,3.2c3.43-.68,20.52-3.91,46.71-6.45Z"/>
    </g>
  </g>
  <g>
    <g>
      <path class="st13" d="M167.27,45.01s-1.3,2.85-3.04,4.75c-1.74,1.9-4.98,3.6-4.98,3.6l4.51,1.06c-1.76,1.58-5.14,4.35-7.8,4.94-3.79.85-6.01.9-6.95.22-.57-.4-1.1-6.74-1.43-11.67h6.18v-3.87h-6.41c-.04-.67-.07-1.2-.09-1.52,3.62-.79,6.34-4.01,6.34-7.87,0-4.45-3.61-8.06-8.06-8.06s-8.06,3.61-8.06,8.06c0,3.86,2.71,7.08,6.33,7.87-.01.32-.04.86-.08,1.52h-6.4v3.87h6.17c-.32,4.92-.85,11.26-1.42,11.67-.94.67-3.16.62-6.94-.22-2.67-.59-6.05-3.36-7.81-4.94l4.51-1.06s-3.24-1.7-4.98-3.6c-1.74-1.9-3.04-4.75-3.04-4.75,0,0-1.5,2-1.43,6.65.03,2.61,1.37,6.58,1.37,6.58l2.35-3.01c.89,2.11,3.09,6.23,7.42,8.68,1.25.71,2.51,1.25,3.7,1.66,1.34.74,2.87,1.69,3.82,2.64,1.89,1.9,4.33,5.66,4.49,5.91h0s0,0,0,0h0s0,0,0,0c.16-.25,2.59-4.01,4.49-5.91.94-.95,2.48-1.9,3.82-2.64,1.2-.41,2.45-.95,3.7-1.66,4.32-2.45,6.53-6.56,7.42-8.68l2.36,3.01s1.32-3.97,1.36-6.58c.08-4.64-1.43-6.65-1.43-6.65ZM142.31,34.71c0-1.82,1.47-3.29,3.3-3.29s3.29,1.47,3.29,3.29-1.48,3.3-3.29,3.3-3.3-1.48-3.3-3.3Z"/>
      <g>
        <path d="M158.6,39.95c-.67,1.44-1.51,2.81-2.47,4.08.52-.68,1.04-1.35,1.56-2.03-.62.76-1.3,1.42-2.07,2.03.67-.52,1.34-1.04,2.03-1.57-1.1.83-2.25,1.59-3.47,2.24-7.58,4.03-5.94,16.38,2.4,18.34,1.5.35,3,.7,4.51,1.06-1.47-5.59-2.95-11.18-4.43-16.77-.76.68-1.52,1.32-2.33,1.94.67-.52,1.36-1.04,2.03-1.56-1.27.96-2.58,1.84-4.04,2.52.8-.34,1.6-.68,2.4-1.01-1.37.57-2.85.81-4.32,1.03.9-.13,1.78-.24,2.67-.36-.99.13-1.97.21-2.96.09.89.12,1.78.24,2.67.36-.29-.05-.55-.12-.82-.22.79.33,1.6.67,2.4,1-.1-.04-.21-.1-.31-.17.67.52,1.36,1.04,2.03,1.57-.01-.02-.04-.04-.05-.05.53.68,1.05,1.35,1.58,2.03-.05-.06-.07-.12-.1-.19.33.8.68,1.6,1.01,2.39-.28-.77-.37-1.61-.48-2.41.13.89.24,1.78.36,2.67-.38-2.99-.59-6-.79-9.01-3.35,3.35-6.69,6.69-10.03,10.03h6.18c5.47,0,10.03-4.56,10.03-10.03v-3.87c0-5.47-4.56-10.03-10.03-10.03h-6.41c3.34,3.35,6.69,6.69,10.03,10.03-.03-.51-.06-1.02-.08-1.52-2.46,3.22-4.91,6.45-7.37,9.67,8.07-1.96,14.66-10.26,13.62-18.74-.57-4.58-2.12-8.79-5.63-11.98-3.45-3.15-7.72-4.81-12.38-4.92-4.73-.11-8.85,1.99-12.38,4.92-3.57,2.96-5.08,7.56-5.62,11.98-1.05,8.48,5.54,16.77,13.61,18.73-2.46-3.22-4.91-6.45-7.37-9.67-.03.51-.06,1.02-.08,1.52,3.34-3.34,6.68-6.69,10.03-10.03h-6.4c-5.47,0-10.03,4.56-10.03,10.03v3.87c0,5.47,4.57,10.03,10.03,10.03h6.17c-3.35-3.34-6.7-6.69-10.03-10.03-.2,3.01-.41,6.02-.79,9.01.12-.88.24-1.78.36-2.67-.12.81-.2,1.64-.47,2.41.34-.8.67-1.6,1-2.39-.02.07-.05.13-.1.19.53-.67,1.04-1.35,1.57-2.03-.02.01-.03.03-.05.05.67-.52,1.34-1.05,2.03-1.57-.09.06-.2.13-.3.17.8-.33,1.6-.67,2.4-1-.27.11-.54.17-.82.22.88-.12,1.78-.24,2.66-.36-.99.12-1.97.04-2.95-.09.88.12,1.78.24,2.67.36-1.47-.22-2.94-.46-4.31-1.03.8.34,1.59.68,2.4,1.01-1.45-.67-2.77-1.55-4.04-2.52.67.52,1.35,1.04,2.03,1.56-.8-.62-1.58-1.26-2.33-1.94-1.47,5.59-2.95,11.18-4.42,16.77,1.5-.35,3-.7,4.5-1.06,8.34-1.95,9.98-14.31,2.4-18.34-1.21-.65-2.37-1.41-3.47-2.24.68.53,1.36,1.04,2.03,1.57-.77-.61-1.44-1.27-2.07-2.03.52.68,1.04,1.35,1.57,2.03-.97-1.26-1.81-2.63-2.48-4.08-1.45-3.11-5.39-4.97-8.66-4.97-3.82,0-6.52,2.02-8.67,4.97-2,2.76-2.52,6.96-2.77,10.21-.27,3.56.57,7.35,1.69,10.74,1.11,3.37,3.5,6.05,7.01,7.01,3.12.86,7.63.14,9.76-2.58.78-1,1.56-2.01,2.35-3.02-5.25-.67-10.51-1.35-15.76-2.03,1.19,2.76,3.01,5.2,4.98,7.44,3.2,3.66,7.64,5.91,12.13,7.51-.8-.33-1.59-.68-2.39-1.02.98.54,1.92,1.13,2.83,1.79-.68-.52-1.35-1.05-2.03-1.57,1.05.83,1.89,1.81,2.72,2.86-.53-.68-1.05-1.36-1.57-2.03.98,1.26,1.9,2.56,2.76,3.91-.46-1.7-.92-3.38-1.37-5.07h0c0,4.47,3.07,8.5,7.37,9.69,4.33,1.19,9.06-.73,11.33-4.61h0c-5.77,0-11.55,0-17.32,0h0c2.51,3.78,6.79,5.87,11.33,4.62,4.29-1.18,7.37-5.21,7.37-9.68h0c-.46,1.68-.92,3.36-1.37,5.06.87-1.35,1.79-2.65,2.76-3.91-.52.68-1.04,1.35-1.57,2.03.83-1.05,1.67-2.03,2.73-2.86-.68.52-1.36,1.05-2.03,1.57.91-.66,1.85-1.24,2.82-1.79-.79.34-1.59.68-2.39,1.02,4.47-1.59,8.54-3.75,11.87-7.21,2.12-2.21,4.02-4.9,5.25-7.74-5.25.68-10.51,1.36-15.76,2.03.79,1.01,1.57,2.01,2.36,3.02,2.12,2.72,6.63,3.44,9.76,2.58,3.5-.96,5.89-3.63,7.01-7.01,1.08-3.27,1.79-6.82,1.71-10.27-.08-3.31-.76-7.88-2.79-10.68-1.59-2.2-3.29-3.86-5.99-4.61-2.59-.71-5.42-.34-7.73,1.01-2.25,1.32-3.92,3.49-4.61,6-.65,2.38-.49,5.65,1.01,7.73.21.28.35.61.49.93-.33-.8-.67-1.6-1.01-2.4.39.94.62,1.92.77,2.92-.12-.89-.24-1.78-.36-2.66.19,1.44.22,2.88.03,4.32.12-.89.24-1.78.36-2.67-.27,1.71-.69,3.41-1.24,5.05,5.59-1.47,11.18-2.95,16.76-4.43-.78-1.01-1.56-2.01-2.34-3.01-1.54-1.97-4.72-2.94-7.1-2.94-3.19,0-7.31,1.84-8.66,4.97-.69,1.62-1.59,3.12-2.66,4.51.52-.68,1.04-1.35,1.56-2.04-.86,1.08-1.81,2.05-2.89,2.91.68-.52,1.36-1.04,2.03-1.57-1.3.99-2.71,1.76-4.21,2.4.8-.34,1.6-.68,2.4-1.01-2.18.88-4.28,1.71-6.21,3.05-1.88,1.29-3.48,2.63-4.88,4.38-2.59,3.2-5.95,6.95-5.95,11.32,6.23-1.68,12.46-3.38,18.7-5.06,0,0,0,0,0,0-2-3-4.96-4.97-8.66-4.97s-6.88,1.91-8.66,4.97c0,0,0,0,0,0,6.22,1.69,12.46,3.38,18.69,5.06,0-4.31-3.19-7.82-5.7-11.01-1.4-1.78-2.9-3.06-4.75-4.42-2.04-1.49-4.25-2.37-6.59-3.32.8.34,1.59.67,2.4,1.01-1.5-.65-2.91-1.41-4.21-2.4.68.53,1.36,1.05,2.03,1.57-1.07-.87-2.03-1.83-2.89-2.91.53.68,1.04,1.36,1.57,2.04-1.07-1.39-1.96-2.9-2.66-4.51-.97-2.25-3.74-3.99-5.99-4.61-3.12-.86-7.63-.15-9.76,2.58-.79,1-1.57,2-2.35,3.01,5.59,1.48,11.18,2.95,16.76,4.43-.54-1.64-.96-3.34-1.23-5.05.12.89.24,1.78.36,2.67-.2-1.45-.16-2.88.02-4.32-.12.88-.24,1.77-.36,2.66.16-1,.39-1.97.77-2.92-.33.8-.67,1.6-1.01,2.4.14-.32.28-.65.49-.93h-17.32c2.4,5.17,6.61,9.29,11.62,11.95.8-6.12,1.6-12.22,2.4-18.34-1.51.35-3.01.7-4.51,1.06-7.13,1.67-10,11.8-4.43,16.76,3.32,2.96,6.69,5.33,10.79,7.04,2.17.9,4.69,1.09,6.98,1.38,2.03.26,3.79.06,5.85-.31,4.95-.88,7.89-5.39,8.53-10.02.53-3.88.89-7.76,1.15-11.68.36-5.46-4.84-10.03-10.03-10.03h-6.17c3.34,3.34,6.69,6.68,10.03,10.03v-3.87c-3.34,3.34-6.69,6.69-10.03,10.03h6.4c5.7,0,9.73-4.58,10.03-10.03.03-.51.05-1.02.08-1.52.23-4.33-3.21-8.66-7.36-9.68-.52-.13-1-.28-1.5-.48.8.33,1.6.67,2.4,1.01-.59-.28-1.13-.59-1.66-.97.67.52,1.36,1.05,2.03,1.57-.61-.49-1.13-1.02-1.61-1.63.53.68,1.04,1.35,1.57,2.03-.38-.54-.69-1.08-.96-1.68.34.8.68,1.6,1.02,2.4-.25-.62-.42-1.24-.54-1.89.13.89.24,1.78.36,2.66-.1-.81-.1-1.59,0-2.41-.12.89-.24,1.78-.36,2.67.11-.64.27-1.24.51-1.86-.34.8-.68,1.6-1.01,2.4.31-.71.68-1.34,1.14-1.95-.53.68-1.05,1.35-1.57,2.03.4-.48.83-.91,1.32-1.32-.68.53-1.36,1.04-2.04,1.57.62-.46,1.26-.84,1.96-1.14-.8.34-1.6.68-2.4,1.01.61-.23,1.21-.4,1.86-.51-.89.12-1.78.24-2.67.36.81-.1,1.58-.1,2.38,0-.89-.12-1.78-.24-2.67-.36.64.11,1.25.28,1.86.51-.8-.34-1.6-.67-2.4-1.01.7.31,1.34.68,1.95,1.14-.67-.53-1.34-1.04-2.02-1.57.48.41.91.84,1.32,1.32-.53-.67-1.05-1.35-1.57-2.03.46.61.83,1.24,1.14,1.95-.33-.8-.68-1.6-1.01-2.4.23.62.4,1.22.51,1.86-.12-.89-.24-1.78-.36-2.67.1.81.1,1.59,0,2.41.12-.89.24-1.78.36-2.66-.12.66-.29,1.27-.53,1.89.33-.8.67-1.6,1-2.4-.27.6-.58,1.14-.95,1.68.52-.68,1.04-1.36,1.56-2.03-.48.62-1,1.15-1.61,1.63.68-.53,1.36-1.05,2.03-1.57-.53.38-1.08.7-1.66.97.8-.34,1.59-.68,2.39-1.01-.49.2-.98.36-1.5.48-4.14,1.01-7.58,5.35-7.35,9.67.02.5.05,1.01.08,1.52.31,5.46,4.33,10.03,10.03,10.03h6.41c-3.35-3.34-6.69-6.69-10.03-10.03v3.87c3.34-3.34,6.68-6.69,10.03-10.03h-6.18c-5.19,0-10.4,4.57-10.03,10.03.2,3.01.4,6.02.79,9.01.2,1.53.28,3.54.84,5.08,1.38,3.84,3.91,6.33,7.83,7.55,1.74.54,3.82.61,5.66.41,2.26-.24,4.85-.48,7.02-1.28,4.27-1.56,7.78-4.19,11.16-7.19,5.57-4.96,2.7-15.1-4.43-16.76-1.5-.36-3-.71-4.5-1.06.8,6.11,1.6,12.22,2.4,18.34,5-2.66,9.21-6.78,11.61-11.95,1.18-2.53,1.78-4.94,1.02-7.73-.69-2.51-2.37-4.68-4.61-6-4.38-2.56-11.42-1.36-13.73,3.6Z"/>
        <path d="M152.33,34.71c0-.12.02-.24.02-.36-.12.89-.24,1.78-.36,2.67.06-.36.14-.66.28-1-.33.8-.67,1.6-1.01,2.4.09-.21.21-.4.34-.58-.52.68-1.04,1.35-1.56,2.03.21-.27.44-.49.71-.71-.68.52-1.35,1.05-2.03,1.57.18-.13.38-.25.58-.34-.8.34-1.59.68-2.4,1.01.34-.13.65-.22,1-.27-.88.12-1.78.23-2.67.36.24-.02.48-.02.72,0-.89-.12-1.77-.24-2.66-.36.35.05.66.14,1,.27-.8-.33-1.59-.67-2.4-1.01.21.1.4.21.58.34-.68-.52-1.35-1.05-2.03-1.57.27.22.49.44.72.71-.53-.68-1.05-1.36-1.57-2.03.13.19.24.38.34.58-.33-.8-.68-1.59-1.01-2.4.13.34.21.65.27,1-.12-.89-.24-1.78-.36-2.67.02.24.02.48,0,.71.12-.89.24-1.78.36-2.67-.06.36-.14.67-.27,1,.34-.8.68-1.6,1.01-2.39-.1.2-.21.4-.34.59.52-.68,1.04-1.36,1.57-2.04-.23.28-.45.49-.72.72.68-.53,1.35-1.04,2.03-1.57-.18.13-.38.25-.58.34.8-.34,1.6-.67,2.4-1.01-.33.13-.65.21-1,.27.89-.12,1.77-.24,2.66-.36-.24.03-.48.03-.72,0,.89.12,1.78.24,2.67.36-.36-.06-.66-.14-1-.27.8.34,1.6.67,2.4,1.01-.21-.1-.4-.21-.58-.34.68.53,1.36,1.04,2.03,1.57-.27-.22-.5-.44-.71-.72.52.68,1.04,1.36,1.56,2.04-.13-.19-.25-.39-.34-.59.34.79.68,1.59,1.01,2.39-.13-.33-.21-.64-.28-1,.12.89.24,1.78.36,2.67,0-.12-.01-.24-.02-.36-.3-5.46-4.34-10.03-10.03-10.03-5.25,0-10.33,4.56-10.03,10.03.07,1.33.16,2.77.65,4.03.97,2.46,1.45,3.2,3.14,5.27,2.25,2.76,6.15,3.85,9.54,4.03,3.57.19,6.65-1.63,9.29-3.79,2.77-2.25,3.84-6.15,4.02-9.54.2-3.58-1.63-6.66-3.78-9.3-2.25-2.76-6.16-3.84-9.54-4.03-3.58-.19-6.66,1.64-9.31,3.78-2.77,2.25-3.85,6.16-4.02,9.54-.29,5.46,4.79,10.03,10.03,10.03,5.69,0,9.73-4.58,10.03-10.03Z"/>
      </g>
    </g>
    <path class="st21" d="M167.27,45.01s-1.3,2.85-3.04,4.75c-1.74,1.9-4.98,3.6-4.98,3.6l4.51,1.06c-1.76,1.58-5.14,4.35-7.8,4.94-3.79.85-6.01.9-6.95.22-.57-.4-1.1-6.74-1.43-11.67h6.18v-3.87h-6.41c-.04-.67-.07-1.2-.09-1.52,3.62-.79,6.34-4.01,6.34-7.87,0-4.45-3.61-8.06-8.06-8.06s-8.06,3.61-8.06,8.06c0,3.86,2.71,7.08,6.33,7.87-.01.32-.04.86-.08,1.52h-6.4v3.87h6.17c-.32,4.92-.85,11.26-1.42,11.67-.94.67-3.16.62-6.94-.22-2.67-.59-6.05-3.36-7.81-4.94l4.51-1.06s-3.24-1.7-4.98-3.6c-1.74-1.9-3.04-4.75-3.04-4.75,0,0-1.5,2-1.43,6.65.03,2.61,1.37,6.58,1.37,6.58l2.35-3.01c.89,2.11,3.09,6.23,7.42,8.68,1.25.71,2.51,1.25,3.7,1.66,1.34.74,2.87,1.69,3.82,2.64,1.89,1.9,4.33,5.66,4.49,5.91h0s0,0,0,0h0s0,0,0,0c.16-.25,2.59-4.01,4.49-5.91.94-.95,2.48-1.9,3.82-2.64,1.2-.41,2.45-.95,3.7-1.66,4.32-2.45,6.53-6.56,7.42-8.68l2.36,3.01s1.32-3.97,1.36-6.58c.08-4.64-1.43-6.65-1.43-6.65ZM142.31,34.71c0-1.82,1.47-3.29,3.3-3.29s3.29,1.47,3.29,3.29-1.48,3.3-3.29,3.3-3.3-1.48-3.3-3.3Z"/>
    <g>
      <path class="st17" d="M145.6,39.37c1.81,0,3.29-1.47,3.29-3.29,0-.23-.02-.46-.07-.68-.31,1.49-1.63,2.62-3.22,2.62s-2.92-1.13-3.23-2.62c-.05.22-.07.45-.07.68,0,1.82,1.47,3.29,3.3,3.29Z"/>
      <path class="st17" d="M164.23,51.12c1.73-1.9,3.04-4.74,3.04-4.74,0,0,1.27,1.71,1.41,5.62.01-.11.01-.23.01-.33.08-4.64-1.43-6.65-1.43-6.65,0,0-1.3,2.85-3.04,4.75-1.74,1.9-4.98,3.6-4.98,3.6l1.66.39c1.06-.67,2.4-1.62,3.33-2.63Z"/>
      <path class="st17" d="M147.33,43.87s-.05.01-.07.02c.02.32.05.85.09,1.52h6.41v-1.36h-6.41c0-.06,0-.12-.01-.18Z"/>
      <path class="st17" d="M149.01,59.58c-.53-.36-1-5.65-1.33-10.3h-.09c.32,4.92.86,11.26,1.43,11.67.94.67,3.15.62,6.95-.22,2.67-.6,6.04-3.37,7.8-4.95l-1.24-.29c-1.85,1.54-4.43,3.4-6.56,3.87-3.79.85-6.01.9-6.95.22Z"/>
      <path class="st17" d="M123.82,46.37s1.3,2.84,3.04,4.74c.92,1.01,2.26,1.96,3.33,2.63l1.65-.39s-3.24-1.7-4.98-3.6c-1.74-1.9-3.04-4.75-3.04-4.75,0,0-1.5,2-1.43,6.65,0,.11,0,.22.01.33.14-3.91,1.42-5.62,1.42-5.62Z"/>
      <path class="st17" d="M127.32,55.77c1.76,1.58,5.14,4.35,7.81,4.95,3.78.84,6.01.89,6.94.22.57-.4,1.1-6.75,1.42-11.67h-.09c-.33,4.66-.81,9.94-1.33,10.3-.94.67-3.16.62-6.94-.22-2.13-.47-4.72-2.33-6.56-3.87l-1.25.29Z"/>
      <path class="st17" d="M143.81,43.88s-.05,0-.07-.02c0,.06,0,.12-.01.18h-6.4v1.36h6.4c.04-.67.07-1.2.08-1.53Z"/>
      <path class="st17" d="M145.54,27.95c4.23,0,7.69,3.25,8.03,7.39.02-.23.03-.45.03-.69,0-4.45-3.61-8.06-8.06-8.06s-8.06,3.61-8.06,8.06c0,.23.01.46.03.69.34-4.14,3.81-7.39,8.03-7.39Z"/>
    </g>
    <g>
      <path class="st8" d="M147.26,41.01c.02.32.04.84.08,1.49,3.59-.82,6.26-4.02,6.26-7.85,0-.26-.01-.51-.04-.75-.32,3.52-2.92,6.38-6.3,7.12Z"/>
      <path class="st8" d="M145.6,31.42c1.56,0,2.87,1.08,3.2,2.54.06-.24.09-.49.09-.75,0-1.82-1.48-3.29-3.3-3.29s-3.29,1.47-3.29,3.29c0,.26.03.51.09.75.34-1.46,1.65-2.54,3.2-2.54Z"/>
      <path class="st8" d="M163.76,52.91l-2.68-.63c-1.02.66-1.82,1.08-1.82,1.08l3.13.73c.52-.43.99-.83,1.37-1.18Z"/>
      <path class="st8" d="M153.76,46.41h-6.18c.03.49.07.99.1,1.5h6.07v-1.5Z"/>
      <path class="st8" d="M128.7,54.09l3.13-.73s-.8-.42-1.82-1.08l-2.69.63c.39.35.86.75,1.38,1.18Z"/>
      <path class="st8" d="M143.74,42.5c.03-.65.06-1.16.07-1.48-3.38-.74-5.97-3.6-6.29-7.12-.02.24-.03.5-.03.75,0,3.83,2.67,7.02,6.25,7.85Z"/>
      <path class="st8" d="M167.33,56.73l-2.36-3.01c-.89,2.11-3.09,6.22-7.42,8.68-1.25.71-2.5,1.25-3.7,1.66-1.34.74-2.88,1.69-3.82,2.63-1.89,1.9-4.33,5.67-4.49,5.91v.02s0,0-.01,0h0s0-.01,0-.01c-.16-.24-2.59-4.01-4.49-5.91-.95-.94-2.48-1.9-3.82-2.63-1.19-.41-2.45-.95-3.7-1.66-4.32-2.45-6.53-6.57-7.42-8.68l-2.36,3.01s-1.19-3.58-1.35-6.17c-.01.35-.02.72-.01,1.1.03,2.61,1.36,6.58,1.36,6.58l2.36-3.01c.89,2.11,3.1,6.23,7.42,8.68,1.25.71,2.51,1.25,3.7,1.66,1.34.74,2.87,1.69,3.82,2.64,1.9,1.9,4.34,5.66,4.49,5.91h0s0,0,0,0c0,0,.01,0,.01,0h0c.16-.26,2.59-4.02,4.49-5.92.94-.95,2.48-1.9,3.82-2.64,1.2-.41,2.44-.95,3.7-1.66,4.33-2.45,6.53-6.56,7.42-8.68l2.36,3.01s1.32-3.97,1.36-6.58c0-.39,0-.75-.02-1.1-.15,2.6-1.34,6.17-1.34,6.17Z"/>
      <path class="st8" d="M143.5,46.41h-6.17v1.5h6.07c.04-.51.07-1.01.1-1.5Z"/>
    </g>
  </g>
  <g>
    <path class="st2" d="M185.91,200.87c5.79-.68,8.41,1.07,9.65,6.01,2.4,9.62-4.57,18.6-15.65,20.01-9.11,1.15-23.17-.89-34.35-11.26-.87.71-1.77,1.47-2.7,2.18-10.35,7.97-22.01,11.22-34.8,8.31-9.47-2.15-14.59-10.4-12.69-18.81,1.17-5.18,3.76-7.03,9.6-6.53-1.17.82-2.12,1.39-2.96,2.11-2.18,1.88-2.5,5.89-.68,8.03,1.76,2.06,4.06,1.78,6.81-.71,2.83-2.56,5.59-5.26,8.66-7.5,7.96-5.8,16.72-7.05,26.16-4.15,1.44.45,3.26.55,4.68.1,10.44-3.31,19.86-1.45,28.36,5.31,2.39,1.9,4.57,4.07,6.81,6.15,2.77,2.56,5.01,2.87,6.82.87,1.96-2.16,1.59-6.33-.78-8.24-.74-.61-1.63-1.06-2.94-1.89Z"/>
    <path class="st9" d="M179.97,226.82c-9.11,1.16-23.17-.89-34.35-11.25-.87.7-1.77,1.46-2.7,2.18-10.36,7.97-22.01,11.22-34.79,8.32-7.4-1.68-12.12-7.08-12.94-13.37-1.06,7.91,4,15.37,12.94,17.4,12.79,2.9,24.44-.35,34.79-8.32.92-.71,1.82-1.47,2.7-2.18,11.18,10.37,25.24,12.41,34.35,11.26,10.4-1.32,17.19-9.32,15.99-18.26-.98,7.2-7.18,13.11-15.99,14.22Z"/>
  </g>
</svg>