<?xml version="1.0" encoding="UTF-8"?>
<svg id="Layer_1" xmlns="http://www.w3.org/2000/svg" version="1.1" viewBox="0 0 229.69 314.8">
  <!-- Generator: Adobe Illustrator 29.6.1, SVG Export Plug-In . SVG Version: 2.1.1 Build 9)  -->
  <defs>
    <style>
      .st0 {
        fill: #ffd7c3;
      }

      .st1 {
        fill: #fff8a4;
      }

      .st2 {
        fill: #000002;
      }

      .st3 {
        fill: #fa0;
      }

      .st4 {
        fill: #bcbec0;
      }

      .st5 {
        fill: #ed1c24;
      }

      .st6 {
        fill: #f38b9e;
      }

      .st7 {
        fill: #6f2a0e;
      }

      .st8 {
        fill: #be1e2d;
      }

      .st9 {
        fill: #fff;
      }

      .st10 {
        fill: #fde5d2;
      }

      .st11 {
        fill: #82442f;
      }

      .st12 {
        fill: #939598;
      }

      .st13 {
        fill: #e6e7e8;
      }

      .st14 {
        fill: #f4bba2;
      }

      .st15 {
        fill: #fff200;
      }

      .st16 {
        fill: #ff838c;
      }
    </style>
  </defs>
  <g>
    <g>
      <path class="st10" d="M39.34,279.97c-4.86,3.35-8.94,9.55-6.51,15.52,1.92,4.71,6.88,7.93,11.64,9.15,5.29,1.36,10.94,1.1,16.26.1,4.92-.94,9.87-2.6,14.03-5.41.97-.66-.14-2.1-1.11-1.44-4.38,2.96-9.68,4.53-14.86,5.35-5.29.84-11.04.88-16.12-1.05-4.37-1.67-9.12-5.94-8.79-11,.21-3.38,2.56-6.33,4.98-8.5.5-.45,1.02-.88,1.57-1.27.97-.66-.15-2.1-1.11-1.44h0Z"/>
      <path d="M37.05,276.07c-6.35,4.47-11.43,12.23-8.73,20.23,2.48,7.38,9.95,11.9,17.3,13.2,8.06,1.42,16.85.27,24.45-2.72,1.88-.74,3.72-1.59,5.47-2.61.93-.54,1.84-1.12,2.64-1.84,1.45-1.33,1.56-3.3,1.29-5.1-.18-1.18-1.43-2.77-2.52-3.27-1.5-.69-2.57-.8-4.23-.57-.98.14-2,1.03-2.83,1.52-.89.53-1.81.98-2.75,1.41-.49.22-.54.24-.14.06-.28.11-.55.21-.83.32-.55.21-1.12.39-1.68.58-1.27.4-2.56.73-3.86,1.02-1.29.29-2.6.51-3.91.7.86-.12-.88.08-1.04.1-.76.08-1.51.11-2.27.14-1.37.05-2.74,0-4.1-.12-.3-.03-.6-.06-.91-.09.45.06.4.05-.14-.04-.74-.13-1.48-.3-2.21-.49-.58-.15-1.16-.34-1.72-.54-.57-.22-.57-.21.01.04-.33-.13-.65-.3-.96-.46-.44-.22-.85-.48-1.27-.73-.21-.13-.42-.27-.62-.42-1.02-.7.68.59-.27-.21-.38-.32-.74-.68-1.1-1.03-.17-.18-.34-.37-.5-.55-.81-.92.5.73-.19-.27-.28-.4-.51-.83-.73-1.27-.22-.46-.21-.43.03.09-.13-.34-.21-.68-.3-1.03-.1-.51-.1-.47,0,.14-.02-.25-.03-.49-.02-.73.04-.5.02-.5-.06.02.06-.39.16-.79.28-1.17.18-.49.17-.51-.03-.05.11-.25.23-.48.36-.73.31-.61.7-1.17,1.09-1.71-.53.74.49-.53.61-.66.45-.48.94-.94,1.43-1.38.2-.19.4-.36.61-.53-.39.28-.37.27.05-.03,1.02-.73,2.21-1.8,2.41-3.13.31-1.96.06-4.1-1.6-5.44-1.98-1.6-4.19-1.82-6.48-.68-2.21,1.1-2.8,4.17-1.62,6.18,1.31,2.23,3.98,2.72,6.19,1.63-.18.1-.36.19-.55.28h-2.41c-1.04-.43-1.77-1.17-2.21-2.21v-2.4c1.6-1.78,1.96-2.3,1.06-1.57-.42.32-.83.64-1.23.97-.52.42-1,.88-1.48,1.34-1.15,1.12-2.15,2.41-3.06,3.73-1.97,2.9-2.69,6.38-2.18,9.81.81,5.47,5.61,10.06,10.51,12.12,6.24,2.64,12.87,2.66,19.49,1.7,2.77-.4,5.51-1.05,8.17-1.94,1.63-.54,3.22-1.22,4.77-1.96.66-.32,1.31-.67,1.95-1.03.25-.15.5-.3.75-.46.13-.07.25-.16.37-.24.55-.34.49-.33-.18.05h-2.4c-1.05-.43-1.78-1.17-2.21-2.21v-2.4c1.6-1.73,1.93-2.25.96-1.57-.25.16-.5.31-.76.46-.51.31-1.03.58-1.56.86-.53.27-1.07.52-1.6.77-.5.22-.55.24-.16.06-.41.17-.83.32-1.25.48-2.53.92-5.17,1.55-7.82,2.01-.32.06-.63.11-.95.16-.56.08-.64.09-.23.04-.8.1-1.6.17-2.41.22-1.45.11-2.9.11-4.35.06-.64-.02-1.28-.08-1.93-.14-.56-.07-.64-.08-.23-.02-.48-.07-.95-.16-1.42-.25-1.22-.23-2.39-.57-3.55-1-.48-.19-.48-.19.02.01-.23-.1-.47-.21-.7-.32-.47-.22-.92-.48-1.37-.74-.45-.27-.87-.55-1.3-.85q-.42-.3-.01,0c-.3-.24-.58-.5-.87-.76-.38-.35-.72-.72-1.06-1.1-.32-.4-.33-.39,0,.02-.23-.3-.44-.62-.63-.95-.27-.43-.49-.88-.71-1.35.2.47.21.45.03-.05-.13-.38-.21-.77-.29-1.17.21,1.05,0-.5.01-.74,0-.26.02-.52.04-.77-.08,1.1.05-.12.1-.31.12-.51.29-1,.46-1.48-.21.47-.2.47.02,0,.16-.36.36-.71.56-1.05.26-.46.57-.89.88-1.33-.31.39-.29.37.03-.04.25-.31.53-.6.8-.89.36-.39.76-.75,1.15-1.12.2-.17.4-.34.6-.51-.77.64.23-.15.33-.22,2.01-1.42,2.95-3.93,1.63-6.19-1.17-1.99-4.17-3.04-6.19-1.62Z"/>
    </g>
    <path class="st15" d="M39.34,279.97c-4.86,3.35-8.94,9.55-6.51,15.52,1.92,4.71,6.88,7.93,11.64,9.15,5.29,1.36,10.94,1.1,16.26.1,4.92-.94,9.87-2.6,14.03-5.41.97-.66-.14-2.1-1.11-1.44-4.38,2.96-9.68,4.53-14.86,5.35-5.29.84-11.04.88-16.12-1.05-4.37-1.67-9.12-5.94-8.79-11,.21-3.38,2.56-6.33,4.98-8.5.5-.45,1.02-.88,1.57-1.27.97-.66-.15-2.1-1.11-1.44h0Z"/>
    <g>
      <path class="st1" d="M36.02,297.36c1.72,2.44,4.45,4.35,7.05,5.34,5.07,1.93,10.82,1.89,16.12,1.05,5.17-.82,10.48-2.38,14.86-5.34.37-.25.76-.2,1.05.01-.17-.53-.83-.94-1.44-.53-4.38,2.96-9.68,4.53-14.86,5.35-5.29.84-11.04.88-16.12-1.05-2.41-.92-4.93-2.63-6.66-4.83Z"/>
      <path class="st1" d="M33.22,296.01c-2.44-5.96,1.64-12.16,6.5-15.51.37-.25.76-.2,1.05,0-.18-.53-.84-.94-1.43-.52-4.86,3.35-8.94,9.55-6.51,15.52.44,1.07,1.04,2.07,1.76,2.99-.55-.77-1.01-1.6-1.37-2.48Z"/>
    </g>
    <g>
      <path class="st3" d="M40.61,280.93c-.55.39-1.08.82-1.58,1.26-1.93,1.74-3.82,3.97-4.6,6.52.86-2.34,2.63-4.4,4.45-6.03.5-.45,1.02-.88,1.57-1.27.27-.19.37-.44.37-.68-.05.08-.12.14-.2.2Z"/>
      <path class="st3" d="M74.93,298.84c-4.17,2.82-9.12,4.48-14.03,5.41-5.33,1.01-10.98,1.26-16.27-.09-4.76-1.22-9.72-4.45-11.63-9.15-.94-2.33-.91-4.68-.21-6.89-.84,2.34-.96,4.88.05,7.37,1.92,4.71,6.88,7.93,11.64,9.15,5.29,1.36,10.94,1.1,16.26.1,4.92-.94,9.87-2.6,14.03-5.41.28-.19.38-.44.38-.69-.06.07-.13.13-.21.2Z"/>
    </g>
  </g>
  <g>
    <path class="st0" d="M76.98,232.91s-27.84,33.07-15.76,40.2c12.08,7.13,28.99-23.77,28.99-23.77l-13.22-16.42Z"/>
    <path d="M74.46,230.4c-3.35,3.98-6.47,8.21-9.39,12.53-4.57,6.76-9.25,14.33-10.34,22.56-.44,3.38.42,7.15,3.05,9.47,3.19,2.83,7.69,3.41,11.64,1.98,4.14-1.49,7.61-4.41,10.63-7.53,3.08-3.19,5.78-6.77,8.3-10.41,1.75-2.55,3.43-5.17,4.92-7.88.83-1.53.48-3.01-.55-4.31-4.41-5.48-8.82-10.95-13.23-16.42-1.22-1.51-3.77-1.26-5.03,0-1.48,1.48-1.22,3.52,0,5.03,4.41,5.47,8.82,10.95,13.22,16.42-.18-1.44-.36-2.87-.55-4.31-.84,1.54-1.76,3.04-2.7,4.51-.97,1.53-1.98,3.04-3.02,4.52-.57.81-1.15,1.6-1.75,2.39-.16.2-.31.4-.46.61.57-.75.03-.04-.08.09-.38.48-.76.95-1.15,1.41-1.37,1.66-2.84,3.26-4.4,4.76-.72.69-1.47,1.34-2.24,1.97-.65.53.63-.47-.04.03-.19.15-.38.28-.57.42-.43.32-.89.61-1.34.88-.38.23-.76.44-1.15.65-.19.1-.38.19-.58.28-.7.32.79-.32.08-.04-.38.15-.76.27-1.15.38-.34.1-1.87.32-.58.17-.38.05-.75.05-1.13.05-.18,0-.38-.02-.56-.04,1.14.1.48.06.21.01-.38-.07-.74-.18-1.1-.31-.68-.25.8.37.13.05-.23-.11-.46-.24-.68-.38-.93-.56.44.43-.17-.11-.23-.2-.43-.43-.62-.67.81.99.15.14-.02-.16-.51-.92.23.76-.1-.27-.09-.3-.16-.61-.21-.91-.12-.65.11.96.05.29-.02-.16-.03-.33-.04-.5-.01-.35,0-.7,0-1.05.01-.33.21-1.82.02-.52.25-1.73.77-3.41,1.37-5.04.16-.43.33-.85.51-1.28-.42,1.01.19-.43.3-.68.44-.96.91-1.92,1.4-2.86,1.93-3.71,4.18-7.25,6.55-10.69,1.05-1.54,2.14-3.05,3.25-4.54.45-.62.92-1.23,1.39-1.84.11-.15.22-.29.33-.43.41-.53-.55.7-.14.18.22-.28.44-.56.67-.85.7-.88,1.39-1.76,2.11-2.61,1.25-1.48,1.46-3.57,0-5.03-1.28-1.28-3.77-1.48-5.03,0Z"/>
  </g>
  <g>
    <g>
      <g>
        <g>
          <path class="st10" d="M87.41,285.02c5.03-2.48,13.62-8.77,8.83-22.95-4.78-14.18-15.4-13.88-20.91-12.8-8.61,1.69-25.42,8.04-32.52,13.17-2.5,1.81-11.23,15.96-9.55,20.91,1.67,4.95,17.22,11,20.3,10.92,8.75-.23,25.98-5.37,33.86-9.25Z"/>
          <path d="M90.68,290.6c4.2-2.1,7.87-5.3,10.35-9.29,3.72-6,3.7-13.51,1.73-20.08-1.95-6.54-5.82-12.84-11.95-16.16-4.15-2.25-9.06-3.09-13.73-2.53-5.34.65-10.47,2.23-15.54,4.02-6.1,2.16-12.17,4.65-17.86,7.75-2.09,1.14-4.4,2.42-6.07,4.15-1.59,1.64-2.91,3.62-4.15,5.54-2.75,4.31-5.42,9.27-6.44,14.31-.64,3.13-.61,6.24,1.02,9.09,1.45,2.51,3.89,4.36,6.23,5.94,4.3,2.89,9.36,5.01,14.3,6.52,5.03,1.53,10.12.55,15.17-.45,6.03-1.2,11.97-2.94,17.76-5,3.11-1.11,6.2-2.34,9.17-3.79,3.16-1.55,3.99-5.98,2.31-8.85-1.88-3.2-5.67-3.86-8.84-2.31-.48.23-.96.46-1.44.67-.26.12-.52.24-.78.35-1.09.47,1.56-.65.44-.18-1.31.54-2.64,1.04-3.97,1.53-2.89,1.04-5.81,1.97-8.76,2.82-2.97.86-5.96,1.61-8.98,2.23-1.32.27-2.65.51-3.98.71-.48.07-1.73.23.48-.06-.3.04-.59.08-.89.1-.64.08-1.3.13-1.95.17-.36.02-.72.04-1.09.02-1.09-.07,2.18.37.72.08-.89-.18-1.76-.44-2.62-.72-1.02-.32-2.03-.7-3.02-1.09-.27-.11-.54-.21-.81-.32-1.11-.46,1.55.66.44.18-.65-.28-1.3-.58-1.95-.88-2.2-1.04-4.34-2.22-6.3-3.67,1.93,1.43.4.31-.03-.09-.32-.29-.62-.62-.91-.95,1.54,1.8.59.81.27.21.96,1.83.59,1.51.41.93-.36-1.17.17,1.8.09.85-.04-.4-.01-.81.02-1.2.08-1.03-.29,1.88-.11.83.04-.24.1-.47.14-.71.25-1.13.64-2.24,1.05-3.32.1-.28.22-.55.33-.81-.82,1.99-.37.88-.18.45.25-.55.51-1.1.78-1.64.59-1.18,1.21-2.33,1.87-3.46.56-.97,1.16-1.92,1.78-2.85.28-.41.56-.82.85-1.22.13-.19.27-.36.4-.54.59-.81-1.2,1.51-.38.5.55-.68,2.29-2.06-.01-.33.96-.72,2.01-1.35,3.05-1.95,2.46-1.43,5.03-2.66,7.63-3.82.46-.21,2.86-1.23.85-.38.7-.3,1.4-.58,2.1-.86,1.52-.61,3.05-1.19,4.59-1.74,2.74-1,5.52-1.9,8.33-2.69,1.13-.31,2.28-.61,3.43-.86.44-.1.89-.19,1.34-.28.65-.12,2.43-.33-.3.02,1.51-.2,3.03-.22,4.55-.09,1.46.13-1.83-.29-.37-.05.46.08.91.19,1.37.31.47.12.92.27,1.38.43.47.17,1.43.62-.63-.28.23.1.46.21.68.33.39.2.76.42,1.13.65.23.14.45.29.67.44.93.65-1.32-1.06-.43-.34.85.68,1.6,1.48,2.3,2.31-1.42-1.71-.15-.17.15.28.4.59.74,1.21,1.08,1.84.24.44,1.26,2.82.48.92.33.81.61,1.63.87,2.46.22.69.39,1.38.55,2.08.1.4.17.79.24,1.19.25,1.41-.17-1.58-.02-.2.14,1.26.14,2.54.04,3.8-.08.68-.03.42.12-.78-.05.3-.1.61-.17.91-.12.58-.28,1.14-.46,1.7-.09.27-.19.53-.29.8.78-2.01.42-1,.2-.54-.23.48-.5.94-.78,1.39-.22.36-.48.72-.73,1.06,1.45-1.95.29-.41-.11.02-.59.63-1.24,1.22-1.91,1.76-.5.39-.23.2.77-.59-.18.13-.36.25-.54.39-.35.24-.7.47-1.06.69-.65.4-1.32.77-2,1.11-3.15,1.56-4.01,5.96-2.32,8.84,1.87,3.19,5.68,3.89,8.84,2.32Z"/>
        </g>
        <path class="st5" d="M87.41,285.02c5.03-2.48,13.62-8.77,8.83-22.95-4.78-14.18-15.4-13.88-20.91-12.8-8.61,1.69-25.42,8.04-32.52,13.17-2.5,1.81-11.23,15.96-9.55,20.91,1.67,4.95,17.22,11,20.3,10.92,8.75-.23,25.98-5.37,33.86-9.25Z"/>
        <path class="st16" d="M43.34,264.04c7.1-5.13,23.92-11.48,32.53-13.17,5.4-1.07,15.72-1.36,20.63,12-.08-.27-.16-.54-.26-.8-4.78-14.18-15.4-13.88-20.91-12.8-8.61,1.69-25.42,8.04-32.52,13.17-2.5,1.81-11.23,15.96-9.55,20.91.09.25.21.51.36.77-.62-5.54,7.36-18.37,9.72-20.08Z"/>
        <path class="st8" d="M53.02,292.68c8.76-.23,25.99-5.37,33.86-9.25,4.94-2.44,13.33-8.46,9.12-22.06.1.26.19.53.28.8,4.79,14.17-3.83,20.37-8.86,22.85-7.87,3.88-25.1,9.02-33.86,9.25-3.08.08-18.6-5.88-20.27-10.83-.09-.25-.14-.54-.17-.84,2.86,4.79,16.98,10.15,19.9,10.07Z"/>
      </g>
      <g>
        <g>
          <path class="st10" d="M82.88,258.66c.05,0,.11.02.16.03.06.02.13.04.2.06.04.02.07.03.12.04.25.08-.26-.1,0,0,.61.22,1.19.53,1.73.87,1.74,1.11,2.94,3.03,3.63,4.98.72,2.06.77,4.25.09,6.33-.16.5-.48,1.12-.78,1.61-.18.29.05-.08-.04.06-.04.06-.09.12-.13.18-.05.06-.09.12-.14.17-.99,1.15.79,2.7,1.77,1.54,2.47-2.85,2.56-7.24,1.45-10.64-1.11-3.37-3.94-6.81-7.59-7.54-1.49-.29-1.96,2.01-.48,2.31h0Z"/>
          <path d="M81.68,263.01c.19.04.37.1.55.15,2.37.69,4.92-.81,5.56-3.16.69-2.51-.84-4.74-3.16-5.56-.04-.02-.09-.04-.14-.05-2.35-.75-4.93.86-5.57,3.16-.7,2.56.87,4.66,3.16,5.56.2.08.11.04-.29-.12.24.12.47.24.68.37.22.13.44.27.66.42-.41-.3-.43-.29-.03.05.18.19.36.38.53.58-.31-.4-.31-.38-.01.04.14.22.28.45.4.68.08.12.59,1.3.2.35.23.55.38,1.12.5,1.7-.03-.45-.02-.4.03.16.02.31.02.61.01.91-.05.56-.04.61.03.17-.05.3-.12.61-.2.9-.18.54-.18.59-.02.17-.15.31-.33.62-.51.92-1.26,2.12-.49,4.94,1.62,6.18,2.2,1.29,4.85.45,6.19-1.62,0-.02.03-.04.04-.06,2.79-4.35-3.58-9.2-7.11-5.48-.2.22-1.39,1.78-.28.36-.69.88-1.03,1.44-1.43,2.5-.66,1.77.16,4.05,1.39,5.35,1.13,1.18,2.66,1.81,4.29,1.82,2.15,0,3.66-1.32,4.86-2.93,2.82-3.79,3.02-9.1,1.77-13.5-1.34-4.72-4.84-8.85-9.44-10.61-2.81-1.07-6.36-.65-7.81,2.37-1.62,3.36-.11,7.13,3.52,8.23,2.36.72,4.92-.83,5.57-3.16.67-2.42-.8-4.84-3.16-5.56,2.21.67,2.88,3.01,1.98,4.87-1,1.33-2.19,1.88-3.54,1.64.24.06.47.13.71.22-1.02-.34.35.21.58.35.21.13.42.27.61.42-.42-.32-.44-.32-.05.01.28.25.54.53.8.81.32.39.33.38,0-.03.15.21.29.41.43.62.28.42.51.85.75,1.3.22.47.22.44,0-.08.08.23.16.45.24.68.12.35.2.7.29,1.05.06.22.29,1.79.16.63.06.5.06,1.01.07,1.51,0,.23-.18,1.84,0,.68-.08.5-.21.98-.35,1.45-.18.49-.16.47.05-.04-.11.23-.22.44-.34.66-.12.21-.26.42-.4.62.85-1.28,2.28-1.55,4.3-.79,1.84,1.38,2.08,3.09.7,5.15.89-1.15.94-1.22.14-.19-2.36-1.83-4.73-3.66-7.1-5.48-.02.02-.03.05-.05.07,2.61,1.52,5.21,3.04,7.81,4.56,2.18-3.69,2.54-8.27.93-12.26-1.61-4-4.29-6.74-8.3-8.31-.8,2.9-1.61,5.81-2.4,8.72.05.02.09.03.14.05.8-2.9,1.6-5.81,2.4-8.72-.18-.05-.36-.1-.55-.16-2.39-.57-4.89.73-5.56,3.16-.63,2.31.76,4.99,3.16,5.56Z"/>
        </g>
        <path class="st9" d="M82.88,258.66c.05,0,.11.02.16.03.06.02.13.04.2.06.04.02.07.03.12.04.25.08-.26-.1,0,0,.61.22,1.19.53,1.73.87,1.74,1.11,2.94,3.03,3.63,4.98.72,2.06.77,4.25.09,6.33-.16.5-.48,1.12-.78,1.61-.18.29.05-.08-.04.06-.04.06-.09.12-.13.18-.05.06-.09.12-.14.17-.99,1.15.79,2.7,1.77,1.54,2.47-2.85,2.56-7.24,1.45-10.64-1.11-3.37-3.94-6.81-7.59-7.54-1.49-.29-1.96,2.01-.48,2.31h0Z"/>
      </g>
      <g>
        <g>
          <g>
            <path class="st10" d="M47.39,267.72c-.62.21-1.29-.13-1.5-.74h0c-.21-.63.12-1.3.74-1.51l24.21-8.18c.62-.21,1.3.12,1.51.74h0c.21.63-.12,1.3-.74,1.51l-24.21,8.19Z"/>
            <path d="M46.19,263.36c11.88-2.31-.63,7.24,1.76,6.43.11-.03.22-.07.33-.11.46-.16.91-.31,1.37-.46,1.51-.51,3.02-1.02,4.53-1.53,3.91-1.32,7.82-2.64,11.73-3.96,1.48-.5,2.97-1.01,4.45-1.5.41-.14.82-.28,1.23-.42,2.26-.76,2.58-7.9-1.2-6.62-2.19.74-4.38,1.48-6.56,2.22-5.88,1.99-11.77,3.97-17.64,5.96-2.33.79-3.85,3.08-3.16,5.56.63,2.28,3.23,3.96,5.56,3.16,6.03-2.04,12.05-4.08,18.08-6.1,2.37-.81,4.96-1.42,7.21-2.53,2.85-1.41,3.71-4.96,2.37-7.7-1.14-2.3-4.15-3.65-6.63-2.82-.69.24-1.39.47-2.08.7-5.33,1.8-10.65,3.6-15.98,5.4-1.86.63-3.74,1.26-5.61,1.9-1.52.51-2.83,1.22-3.75,2.6-1.25,1.88-1.04,4.08-.09,6.01,1.18,2.39,4.12,3,6.47,2.54,2.42-.47,3.78-3.33,3.16-5.57-.69-2.52-3.15-3.62-5.56-3.16Z"/>
          </g>
          <path class="st9" d="M47.39,267.72c-.62.21-1.29-.13-1.5-.74h0c-.21-.63.12-1.3.74-1.51l24.21-8.18c.62-.21,1.3.12,1.51.74h0c.21.63-.12,1.3-.74,1.51l-24.21,8.19Z"/>
        </g>
        <g>
          <g>
            <path class="st10" d="M55.42,289.33c-.62.21-1.29-.13-1.51-.74h0c-.2-.62.13-1.3.75-1.51l24.21-8.18c.63-.21,1.3.13,1.51.75h0c.21.62-.12,1.3-.75,1.51l-24.21,8.18Z"/>
            <path d="M54.22,284.97c11.88-2.31-.63,7.24,1.76,6.44.11-.04.22-.08.33-.12.46-.15.91-.3,1.37-.46,1.51-.51,3.02-1.02,4.53-1.53,3.91-1.32,7.82-2.64,11.72-3.96,1.48-.5,2.97-1,4.46-1.5.41-.14.82-.28,1.24-.42,2.25-.76,2.57-7.9-1.21-6.62-2.19.73-4.38,1.48-6.56,2.22-5.88,1.98-11.76,3.97-17.64,5.95-2.33.79-3.84,3.09-3.16,5.56.62,2.28,3.23,3.95,5.56,3.16,6.03-2.03,12.05-4.07,18.08-6.1,2.37-.81,4.96-1.41,7.22-2.53,2.85-1.41,3.72-4.96,2.36-7.7-1.14-2.3-4.14-3.65-6.62-2.81-.7.23-1.39.46-2.08.7-5.33,1.8-10.66,3.6-15.98,5.4-1.88.63-3.74,1.26-5.61,1.89-1.51.51-2.82,1.22-3.74,2.6-1.26,1.89-1.05,4.08-.09,6.02,1.18,2.39,4.11,2.99,6.47,2.54,2.42-.47,3.77-3.33,3.16-5.56-.69-2.52-3.15-3.63-5.56-3.16Z"/>
          </g>
          <path class="st9" d="M55.42,289.33c-.62.21-1.29-.13-1.51-.74h0c-.2-.62.13-1.3.75-1.51l24.21-8.18c.63-.21,1.3.13,1.51.75h0c.21.62-.12,1.3-.75,1.51l-24.21,8.18Z"/>
        </g>
      </g>
    </g>
    <g>
      <path class="st15" d="M41.6,281.05c0,1.52-1.23,2.76-2.75,2.76s-2.76-1.24-2.76-2.76,1.23-2.75,2.76-2.75,2.75,1.24,2.75,2.75Z"/>
      <path d="M40.31,281.05c-.1,1.89-2.82,1.89-2.93,0-.1-1.89,2.83-1.88,2.93,0,.09,1.66,2.68,1.67,2.59,0-.13-2.29-1.76-3.93-4.05-4.05-2.29-.12-3.94,1.95-4.06,4.05-.12,2.29,1.95,3.94,4.06,4.05,2.27.13,3.93-1.94,4.05-4.05.09-1.67-2.49-1.66-2.59,0Z"/>
    </g>
  </g>
  <g>
    <path class="st5" d="M146.87,234.26h-64.3s-12.56,69.68-4.02,72.66c8.54,2.99,16.45-10.62,16.45-10.62,0,0,6.29,1.92,17.19,2.26h0c.82.03,1.67.04,2.52.04s1.69,0,2.51-.03h0c10.9-.35,17.19-2.26,17.19-2.26,0,0,7.92,13.61,16.46,10.62,8.54-2.98-4.02-72.66-4.02-72.66Z"/>
    <path d="M146.87,230.7h-64.3c-1.47,0-3.15,1.07-3.43,2.61-2.06,11.43-3.75,22.94-5.14,34.47-.98,8.16-1.83,16.38-1.97,24.6-.05,3.31.07,6.61.53,9.9.33,2.36,1,4.75,2.62,6.56,1.52,1.69,4.2,2.13,6.33,2.04,3.37-.14,6.32-1.76,8.9-3.8,3.05-2.41,5.7-5.64,7.67-9-1.34.55-2.68,1.09-4.02,1.64,5.78,1.75,12.14,2.18,18.14,2.38-1.19-1.18-2.37-2.37-3.55-3.55h0c0,1.98,1.61,3.51,3.55,3.55,1.68.05,3.36.05,5.03,0,1.94-.04,3.56-1.57,3.56-3.55h0c-1.18,1.18-2.37,2.37-3.56,3.54,6-.2,12.36-.63,18.14-2.38-1.33-.55-2.67-1.09-4.01-1.64,3.84,6.58,12.02,15.4,20.53,12.24,5.45-2.02,5.41-9.89,5.51-14.67.16-7.91-.62-15.86-1.49-23.71-.92-8.37-2.08-16.72-3.37-25.04-.7-4.53-1.43-9.07-2.24-13.58-.34-1.9-2.64-2.97-4.37-2.49-2,.55-2.83,2.47-2.49,4.38.63,3.46,1.19,6.94,1.75,10.41.57,3.6,1.12,7.2,1.63,10.8.14.97.28,1.95.41,2.91.07.5.14.99.21,1.49.02.2.14,1.07,0,.05.05.34.09.67.14,1.01.28,2.14.55,4.28.81,6.42.97,8.13,1.8,16.32,1.91,24.51.02,1.64,0,3.27-.08,4.91-.03.69-.08,1.37-.14,2.06-.03.32-.06.64-.1.95-.03.28-.13.92.05-.34-.03.19-.06.38-.09.58-.16,1.01-.39,2.02-.77,2.97.55-1.39.05-.14-.2.22-.36.54.72-.83.21-.29-.57.61.74-.49.28-.19-.56.36.86-.32.49-.19-.26.1-.54.17-.82.24-.18.05-1.08.14-.13.05-.26.02-.53.02-.8.02-.19,0-1.08-.1-.1.03-.53-.07-1.05-.22-1.55-.39-.16-.05-.98-.4-.15-.04-.25-.11-.49-.24-.73-.36-.49-.26-.96-.55-1.41-.87-.24-.16-.46-.32-.69-.49.7.52-.04-.06-.15-.14-.42-.36-.84-.74-1.23-1.12-.7-.68-1.36-1.41-1.99-2.15-.31-.37-.62-.75-.92-1.13.68.86-.19-.27-.33-.48-.5-.7-.99-1.41-1.43-2.16-.79-1.35-2.5-2.1-4.02-1.63-1.43.43-2.91.72-4.37.98-.79.15-1.58.27-2.38.39-.22.03-.45.07-.67.1.36-.05.32-.04-.12.01-.5.06-1.01.12-1.51.17-2.39.26-4.79.41-7.19.48-1.93.06-3.54,1.57-3.54,3.56h0c1.18-1.18,2.36-2.37,3.54-3.55-1.67.04-3.35.04-5.03,0,1.19,1.18,2.37,2.37,3.55,3.56h0c0-1.99-1.62-3.5-3.55-3.56-2.4-.08-4.79-.23-7.18-.48-.51-.05-1.01-.11-1.52-.17-.45-.05-.48-.06-.12-.01-.23-.03-.45-.06-.67-.1-.8-.11-1.59-.24-2.38-.39-1.47-.25-2.95-.55-4.37-.98-1.52-.46-3.23.28-4.02,1.63-.47.8-1,1.57-1.54,2.32-.12.17-.24.34-.37.5-.47.63.51-.65,0,0-.3.39-.61.76-.93,1.14-.76.88-1.57,1.73-2.43,2.51-.21.19-.42.38-.63.56-.11.09-.84.68-.16.14-.44.34-.91.65-1.38.94-.47.29-.95.54-1.45.77.82-.38.01-.02-.15.04-.34.12-.68.21-1.03.29-.19.05-1.07.14-.1.04-.26.03-.53.03-.79.03-.18,0-1.09-.09-.13.04-.28-.04-.55-.1-.81-.17-.21-.04-.41-.12-.61-.19,1.2.44.89.4.61.25-.62-.34.8.71.28.21-.57-.54.37.53.2.31-.1-.14-.19-.29-.27-.45-.09-.16-.17-.33-.25-.51.59,1.34.17.4.06.06-.16-.47-.27-.94-.37-1.42-.06-.27-.11-.54-.16-.8-.02-.14-.05-.28-.07-.43-.14-.85.1.81.02.2-.4-3.1-.39-6.25-.32-9.37.18-8.29,1.07-16.56,2.08-24.78.13-1.03.26-2.06.39-3.08.07-.51.14-1.02.2-1.53.03-.25.06-.5.1-.76.02-.17.05-.34.07-.51-.07.53-.08.59-.03.2.28-2.03.56-4.05.85-6.07.51-3.5,1.05-7,1.61-10.5.5-3.1,1.01-6.21,1.57-9.3-1.14.87-2.29,1.74-3.43,2.61h64.3c4.58,0,4.58-7.11,0-7.11Z"/>
  </g>
  <g>
    <ellipse class="st2" cx="114.58" cy="310.45" rx="58.83" ry="3.14"/>
    <path d="M114.58,314.8c-15.74,0-30.54-.33-41.67-.92-18.38-.98-18.38-2.12-18.38-3.43s0-2.45,18.38-3.43c11.13-.59,25.93-.92,41.67-.92s30.54.33,41.67.92c18.38.98,18.38,2.12,18.38,3.43s0,2.45-18.38,3.43c-11.13.59-25.93.92-41.67.92ZM60.11,310.45c7.87,1.03,27.83,1.93,54.47,1.93s46.6-.9,54.47-1.93c-7.87-1.03-27.83-1.93-54.47-1.93s-46.6.9-54.47,1.93Z"/>
  </g>
  <g>
    <path class="st0" d="M153.03,232.91s27.84,33.07,15.76,40.2c-12.08,7.13-28.98-23.77-28.98-23.77l13.23-16.42Z"/>
    <path d="M150.51,235.43c.96,1.13,1.87,2.29,2.77,3.46.4.52-.55-.71-.14-.18.1.14.21.28.32.43.23.29.46.59.68.88.53.71,1.06,1.43,1.58,2.15,1.15,1.56,2.25,3.15,3.34,4.76,2.33,3.47,4.52,7.07,6.37,10.84.21.43.42.88.62,1.31.11.24.72,1.68.3.68.37.9.71,1.81,1.01,2.74.26.8.47,1.61.66,2.41.08.39.15.77.21,1.15-.2-1.3,0,.19.02.52.02.35.01.7,0,1.05,0,.17-.02.33-.03.5-.06.66.14-.95.04-.29-.05.31-.12.61-.22.91-.3,1.03.38-.66-.1.27-.15.29-.82,1.19-.01.16-.19.24-.4.46-.62.67-.59.55.74-.47-.18.11-.16.11-.32.2-.5.29-.85.47.52-.18-.05.04-.35.13-.72.23-1.09.31-.26.06-.96.12.2-.01-.19.02-.37.03-.56.04-.38.02-.76-.01-1.14-.05,1.29.13-.23-.08-.58-.17-.39-.11-.78-.24-1.15-.38-.71-.26.78.35.08.04-.2-.09-.39-.18-.57-.28-.88-.44-1.7-.96-2.5-1.53-.19-.13-.38-.27-.57-.42-.66-.5.62.5-.04-.03-.38-.3-.75-.62-1.12-.95-.83-.73-1.62-1.5-2.39-2.29-1.52-1.54-2.92-3.2-4.27-4.91-.11-.13-.64-.83-.07-.09-.16-.21-.31-.4-.46-.61-.31-.4-.61-.81-.9-1.21-.61-.83-1.2-1.68-1.79-2.54-.95-1.39-1.87-2.81-2.75-4.24-.7-1.14-1.39-2.27-2.03-3.45-.18,1.44-.37,2.87-.55,4.31,4.4-5.47,8.81-10.95,13.22-16.42,1.21-1.51,1.48-3.55,0-5.03-1.26-1.26-3.8-1.51-5.02,0-4.41,5.47-8.82,10.95-13.23,16.42-1.04,1.29-1.39,2.78-.56,4.31,2.82,5.14,6.23,10.03,9.94,14.57,4.89,6,12.67,13.95,21.27,11.61,3.65-.99,6.6-3.98,7.21-7.75.61-3.78-.3-7.54-1.68-11.06-3.01-7.69-7.69-14.68-12.59-21.27-1.73-2.31-3.48-4.61-5.34-6.82-1.25-1.48-3.74-1.28-5.02,0-1.46,1.46-1.25,3.55,0,5.03Z"/>
  </g>
  <g>
    <g>
      <polygon class="st10" points="141.44 239.18 115.04 239.18 114.82 239.18 88.42 239.18 76.98 276.8 114.82 276.8 115.04 276.8 152.88 276.8 141.44 239.18"/>
      <path d="M141.44,232.07h-53.02c-3.23,0-5.93,2.18-6.86,5.22-3.65,11.99-7.29,23.98-10.93,35.97-.17.55-.33,1.1-.51,1.66-1.34,4.45,2.33,8.99,6.86,8.99h75.91c4.53,0,8.2-4.55,6.85-8.99-3.65-11.99-7.29-23.98-10.93-35.97-.17-.55-.34-1.1-.51-1.66-1.13-3.7-4.94-6.01-8.74-4.96-3.66,1-6.09,5.04-4.97,8.74,3.65,11.99,7.3,23.98,10.94,35.96.17.56.33,1.11.5,1.66,2.29-3,4.57-6,6.86-8.99h-75.91c2.29,3,4.57,5.99,6.85,8.99,3.64-11.99,7.29-23.97,10.93-35.96.17-.55.34-1.1.5-1.66-2.28,1.74-4.56,3.48-6.85,5.22h53.02c3.88,0,7.11-3.23,7.11-7.11s-3.23-7.11-7.11-7.11Z"/>
    </g>
    <polygon class="st0" points="141.44 239.18 115.04 239.18 114.82 239.18 88.42 239.18 76.98 276.8 114.82 276.8 115.04 276.8 152.88 276.8 141.44 239.18"/>
  </g>
  <g>
    <rect class="st2" x="75.56" y="293.07" width="19.53" height="6.31"/>
    <path class="st2" d="M95.09,298.74h-19.53c.22.21.43.43.65.65v-6.31c-.22.22-.43.43-.65.65h19.53c-.21-.22-.43-.43-.65-.65v6.31c0,.83,1.29.83,1.29,0v-6.31c0-.35-.3-.65-.65-.65h-19.53c-.35,0-.65.29-.65.65v6.31c0,.35.29.65.65.65h19.53c.83,0,.83-1.29,0-1.29Z"/>
  </g>
  <g>
    <rect class="st2" x="134.72" y="293.07" width="19.53" height="6.31"/>
    <path class="st2" d="M154.25,298.74h-19.53c.21.21.43.43.64.65v-6.31c-.21.22-.43.43-.64.65h19.53c-.22-.22-.44-.43-.65-.65v6.31c0,.83,1.3.83,1.3,0v-6.31c0-.35-.3-.65-.65-.65h-19.53c-.35,0-.65.29-.65.65v6.31c0,.35.29.65.65.65h19.53c.83,0,.83-1.29,0-1.29Z"/>
  </g>
  <path class="st0" d="M79.26,300.03h8.98s-4.5,5.48-7.86,4.85c-1.04-.2-1.12-4.85-1.12-4.85Z"/>
  <path class="st0" d="M150.22,300.03h-8.98s4.51,5.48,7.87,4.85c1.04-.2,1.12-4.85,1.12-4.85Z"/>
  <polygon class="st8" points="150.1 287.5 79.3 287.5 79.5 283.93 149.93 283.93 150.1 287.5"/>
  <g>
    <g>
      <path class="st10" d="M147.41,239.47c-3.38,4.12-15.81,18.01-35.86,25.93-20.82,8.21-37.22,10.12-40.94,10.47l-.24,1.89s18-1.18,41.73-10.54c23.74-9.37,36.79-27.1,36.79-27.1l-1.5-.63Z"/>
      <path d="M144.21,236.27c-2.12,2.58-4.44,5-6.87,7.3-1.88,1.78-3.83,3.47-5.85,5.09-.27.21-.54.43-.81.63-.93.73.76-.57-.2.15-.57.44-1.15.87-1.73,1.29-1.33.96-2.69,1.89-4.06,2.78-6.34,4.13-12.47,6.9-19.07,9.3-6.69,2.43-13.53,4.44-20.46,6.03-3.29.74-6.59,1.39-9.92,1.91-.58.1-1.16.18-1.74.26-.38.06-1.46.2.24-.04-.29.05-.58.08-.87.12-.75.09-1.5.17-2.25.25-2.7.25-4.2,1.89-4.53,4.52-.08.63-.15,1.26-.23,1.89-.29,2.34,2.27,4.67,4.52,4.52,7.21-.47,14.46-2.03,21.44-3.78,14.11-3.53,28.15-8.55,40.21-16.82,7.72-5.29,15.19-11.7,20.78-19.29,1.34-1.81.49-5.29-1.62-6.18-.5-.21-1-.42-1.5-.63-2.27-.96-4.83-.71-6.18,1.62-1.13,1.92-.65,5.22,1.62,6.19.5.21.99.42,1.5.63-.54-2.07-1.08-4.12-1.62-6.19-.06.08-.13.17-.19.25,1.32-1.71.34-.45.01-.04-.8.98-1.64,1.93-2.49,2.88-2.98,3.26-6.23,6.27-9.65,9.06-.51.42-1.03.83-1.56,1.24.91-.71-.02.02-.17.13-.28.21-.56.42-.84.62-1.27.95-2.57,1.85-3.88,2.73-2.75,1.84-5.62,3.51-8.56,5.04-1.51.79-3.04,1.51-4.6,2.21-.4.18-.8.35-1.2.52.83-.35-.51.21-.55.22-1.07.43-2.16.85-3.25,1.25-3.66,1.39-7.37,2.62-11.12,3.76-6.5,1.96-13.12,3.54-19.82,4.67-1.06.18-2.11.33-3.17.48-.35.05-1.18.16.43-.06-.23.04-.47.06-.7.1-.41.04-.81.09-1.22.14-.7.08-1.39.15-2.09.2,1.51,1.51,3.02,3.01,4.53,4.53.08-.63.15-1.26.23-1.89-1.51,1.51-3.02,3.02-4.52,4.53,9.52-.9,18.96-3.03,28.11-5.77,7.63-2.28,15.23-4.99,22.36-8.58,6-3.02,11.56-6.79,16.8-10.99,4.62-3.68,8.97-7.8,12.72-12.38,1.56-1.9,1.87-4.53,0-6.4-1.61-1.62-4.84-1.9-6.4,0Z"/>
    </g>
    <path class="st15" d="M147.41,239.47c-3.38,4.12-15.81,18.01-35.86,25.93-20.82,8.21-37.22,10.12-40.94,10.47l-.24,1.89s18-1.18,41.73-10.54c23.74-9.37,36.79-27.1,36.79-27.1l-1.5-.63Z"/>
    <path class="st1" d="M70.62,276.54c3.72-.35,20.12-2.26,40.94-10.47,20.05-7.92,32.48-21.8,35.86-25.92l1.1.46c.26-.32.4-.51.4-.51l-1.5-.63c-3.38,4.12-15.81,18.01-35.86,25.93-20.82,8.21-37.22,10.12-40.94,10.47l-.24,1.89s.03,0,.09,0l.15-1.2Z"/>
    <path class="st3" d="M148.21,239.81c-1.6,2.09-14.45,18.13-36.62,26.87-21.22,8.38-37.85,10.2-41.13,10.5l-.08.57s18-1.18,41.73-10.54c23.74-9.37,36.79-27.1,36.79-27.1l-.7-.29Z"/>
  </g>
  <g>
    <path d="M87,227.77c-.4,3.63.29,7.59,1.5,10.99,2.78,7.75,9.26,12.8,17.19,14.64,5.7,1.32,11.86,1.28,17.59.13,4.37-.88,8.53-2.79,11.84-5.79,4.63-4.18,6.83-10.37,7.17-16.49.07-1.15.09-2.33-.06-3.48-.13-1.05-.79-1.95-1.93-1.95-.97,0-2.07.89-1.94,1.95.13,1.06.12,2.16.07,3.24-.02.51-.06,1.02-.11,1.52-.01.14-.13,1.02-.05.47-.05.35-.1.69-.16,1.04-.25,1.37-.61,2.72-1.08,4.03-.42,1.15-1.13,2.55-2,3.88-.85,1.29-1.96,2.49-3.31,3.62-3.16,2.67-7.65,4.09-11.84,4.61-8.84,1.09-19.71-.4-25.1-7.75-1.88-2.56-2.78-4.87-3.45-7.93-.13-.59-.23-1.19-.32-1.78.08.56-.03-.31-.05-.46-.03-.29-.06-.59-.08-.89-.06-.83-.08-1.67-.06-2.51.01-.36.03-.73.06-1.09.12-1.06-.97-1.95-1.94-1.95-1.14,0-1.82.89-1.94,1.95h0Z"/>
    <g>
      <g>
        <path class="st10" d="M117.38,266.23l2.25-1.02s1.13-2.93.59-6.54c-.54-3.61-4.18-3.38-4.18-3.38,0,0,2.1,1.17,2.61,4.18.52,3.01-1.26,6.75-1.26,6.75Z"/>
        <path d="M119.98,270.7c2.13-.96,3.71-1.63,4.63-4.12.74-2.01.95-4.34.9-6.47-.09-3.58-1.35-6.64-4.4-8.63-1.38-.9-3.45-1.42-5.09-1.33-2.32.12-4.35,1.49-4.99,3.8-.61,2.22.38,4.68,2.38,5.83.1.06.19.13.28.19-1.61-1.16-.59-.45-.22-.04.33.39.22.25-.32-.42.18.25.32.53.46.81-.28-.71-.34-.79-.14-.24.1.35.19,1.55.08.14.03.4-.21,2.36.02.86-.09.57-.24,1.14-.4,1.69-.13.45-.29.88-.45,1.31-.32.84.61-1.35.19-.45-1.19,2.55-.74,5.55,1.86,7.07,2.26,1.33,5.87.7,7.07-1.85,1.29-2.76,2.28-5.92,2.01-8.99-.29-3.54-2.05-7.17-5.22-9-.87,3.21-1.74,6.42-2.61,9.63.09,0,.18,0,.27,0,1.18.03-1.48-.31-.33-.04,1.14.27-1.17-.68-.08-.05.8.46-.99-.88-.31-.21-.93-.92-.46-.63-.21-.15-.31-.77-.39-.88-.22-.33-.32-1.25,0,.11.01.4.02.45,0,.89,0,1.33-.01.28-.19,1.65.03.16-.11.76-.29,1.54-.55,2.26.79-1.03,1.59-2.06,2.38-3.1-.75.34-1.5.68-2.24,1.02-2.57,1.15-3.17,4.84-1.86,7.07,1.53,2.62,4.5,3.01,7.07,1.85Z"/>
      </g>
      <g>
        <g>
          <path class="st10" d="M116.33,265.92l-.71-.48s.21-1.03.3-1.9c.1-.87-.16-2.3-.16-2.3,0,0-2,.22-2.92-1.38-1.06-1.84-.4-3.45.34-3.88,1.5-.89,3.51,1.1,3.86,4.08.36,2.98-.7,5.86-.7,5.86Z"/>
          <path d="M118.94,261.46c-.24-.16-.47-.32-.71-.48.79,1.94,1.58,3.88,2.38,5.84.48-2.43.56-4.52.14-6.95-.37-2.1-2.88-3.97-4.98-3.79-.47.04-1.36-.18.38.12-.46-.08-.97-.51.22.13.57.3.88.76,1.1,1.34-.04-.13-.08-.27-.11-.4.15.45.15.9,0,1.36-.1.22-.21.46-.32.68.48-.78.06-.4-1.24,1.15-1.07.77-2.52.49-3.63,0,.87.39-.9-.86-.17-.11-.91-.94-.29-.34-.07.06-.61-1.14-.1-.13,0,.21.33,1.29-.05-1.09.02.38.03.44,0,.9-.03,1.34-.09,1.42.19-1.06-.03.21-.05.32-.13.64-.21.96-.08.35-.19.69-.31,1.03-.95,2.66,1.04,5.66,3.61,6.36,2.87.79,5.41-.96,6.36-3.61.97-2.74,1.11-5.76.7-8.61-.57-3.92-3.67-8.04-7.95-8.08-5.2-.06-7.81,5.24-6.59,9.8.95,3.53,4.55,6.33,8.27,6-1.66-1.26-3.33-2.53-4.98-3.79.06.35.13.87-.09-.7.06.44.09.88.09,1.32,0,1.1.21-1.15,0,.05-.04.26-.09.53-.14.79-.48,2.41.33,4.46,2.38,5.84.23.16.48.32.71.48,2.34,1.57,5.72.47,7.07-1.86,1.5-2.55.48-5.5-1.85-7.07Z"/>
        </g>
        <path class="st12" d="M116.33,265.92l-.71-.48s.21-1.03.3-1.9c.1-.87-.16-2.3-.16-2.3,0,0-2,.22-2.92-1.38-1.06-1.84-.4-3.45.34-3.88,1.5-.89,3.51,1.1,3.86,4.08.36,2.98-.7,5.86-.7,5.86Z"/>
      </g>
      <path class="st4" d="M117.38,266.23l1.95-.95s.93-2.91.4-6.52c-.54-3.6-3.69-3.46-3.69-3.46,0,0,1.53,1.51,2.05,4.51.52,3.01-.7,6.42-.7,6.42Z"/>
    </g>
  </g>
  <g>
    <g>
      <g>
        <g>
          <path class="st10" d="M10.78,90.5s-1.57,39.06-.42,62.99c1.15,23.93,16.3,32.18,16.3,32.18v-70.21l-15.88-24.96Z"/>
          <path d="M1.74,90.5c-.72,17.94-1.09,35.94-.72,53.9.14,6.66.33,13.33,1.68,19.88,1.17,5.64,3.42,11.25,6.51,16.11,2.18,3.44,4.83,6.74,7.93,9.4,1.53,1.32,3.16,2.71,4.95,3.7,5.97,3.27,13.62-.81,13.62-7.81v-70.13c0-3.04-1.45-4.98-2.94-7.32-1.85-2.9-3.69-5.81-5.54-8.71-2.88-4.52-5.76-9.04-8.64-13.57-2.64-4.15-8-5.8-12.38-3.25-4.13,2.43-5.89,8.21-3.24,12.38,5.29,8.32,10.59,16.64,15.88,24.96-.41-1.52-.83-3.04-1.24-4.57v70.21c4.54-2.6,9.08-5.21,13.61-7.82-.73-.39-1.4-.89-2.06-1.4.61.47,1.22.95,1.83,1.41-2.16-1.67-4.06-3.65-5.74-5.8.48.61.94,1.22,1.42,1.83-2-2.6-3.62-5.44-4.91-8.45.3.72.6,1.44.91,2.16-1.6-3.82-2.62-7.83-3.19-11.94.11.8.22,1.6.32,2.4-.76-5.93-.7-12.01-.78-17.98-.08-6.15-.05-12.3.02-18.45.11-9.37.33-18.74.66-28.1.03-1.01.08-2.02.11-3.03.19-4.93-4.27-9.05-9.05-9.05-5.08,0-8.85,4.12-9.05,9.05Z"/>
        </g>
        <path class="st7" d="M10.78,87s-1.57,42.55-.42,66.48c1.15,23.93,16.3,32.18,16.3,32.18v-70.21l-15.88-28.45Z"/>
        <path class="st11" d="M13.73,153.48c-.89-18.59-.14-48.4.23-60.79l-3.18-5.69s-1.57,42.55-.42,66.48c1.15,23.93,16.3,32.18,16.3,32.18v-2.48c-4.53-3.96-12.14-13.02-12.94-29.7Z"/>
      </g>
      <g>
        <g>
          <path class="st10" d="M218.89,90.5s1.56,39.06.42,62.99c-1.15,23.93-16.3,32.18-16.3,32.18v-70.21l15.88-24.96Z"/>
          <path d="M209.85,90.5c.72,17.94,1.09,35.94.72,53.9-.1,4.55-.13,9.14-.71,13.67.1-.8.22-1.61.33-2.4-.56,4.1-1.59,8.12-3.19,11.94.31-.72.61-1.44.91-2.16-1.29,3.01-2.92,5.85-4.91,8.45.47-.61.94-1.22,1.41-1.83-1.67,2.15-3.58,4.13-5.74,5.8.61-.47,1.22-.94,1.84-1.41-.66.51-1.33,1.01-2.06,1.4,4.53,2.61,9.07,5.21,13.61,7.82v-70.21c-.41,1.52-.82,3.05-1.24,4.57,5.29-8.32,10.59-16.64,15.88-24.96,2.65-4.17.89-9.96-3.24-12.38-4.38-2.56-9.73-.91-12.38,3.25-3.29,5.17-6.58,10.34-9.86,15.5-1.77,2.78-3.53,5.56-5.31,8.34-1.11,1.75-1.95,3.43-1.95,5.69v70.21c0,7,7.65,11.08,13.62,7.81,1.84-1.01,3.5-2.43,5.08-3.79,3.19-2.74,5.87-6.2,8.09-9.74,3.17-5.06,5.33-10.92,6.45-16.78,1.27-6.65,1.36-13.45,1.49-20.2.33-17.48-.05-35-.75-52.47-.19-4.93-3.97-9.05-9.05-9.05-4.78,0-9.24,4.12-9.05,9.05Z"/>
        </g>
        <path class="st7" d="M218.89,87s1.56,42.55.42,66.48c-1.15,23.93-16.3,32.18-16.3,32.18v-70.21l15.88-28.45Z"/>
        <path class="st11" d="M218.89,87l-3.74,6.71c.38,12.94,1.06,41.68.2,59.76-.77,15.96-7.76,24.94-12.33,29.16v3.02s15.15-8.25,16.3-32.18c1.15-23.93-.42-66.48-.42-66.48Z"/>
      </g>
    </g>
    <g>
      <g>
        <path class="st10" d="M28.01,83.36c-.31,12.44,0,85.92,0,85.92,0,33.4,18.71,64.35,88.44,64.07,69.01-.29,85.36-30.67,85.36-64.07v-85.92H28.01Z"/>
        <path d="M18.96,83.36c-.36,14.61-.15,29.23-.12,43.83.02,13.75.06,27.5.12,41.25.06,14.32,2.92,28.93,11.17,40.92,5.35,7.76,12.31,14.11,20.41,18.94,9.33,5.55,19.95,9,30.56,11.05,14.28,2.75,28.96,3.45,43.47,2.86,12.93-.52,26.1-2.12,38.46-6.12,9.93-3.21,19.14-7.96,27.06-14.79,6.1-5.26,11.12-12.06,14.35-19.44,3.55-8.1,5.41-16.4,6.12-25.21.32-3.86.29-7.73.29-11.6v-81.7c0-4.93-4.12-9.04-9.05-9.04H28.01c-4.92,0-9.05,4.11-9.05,9.04s4.12,9.05,9.05,9.05h173.8c-3.02-3.01-6.03-6.04-9.05-9.05v77.13c0,6.79.16,13.59-.73,20.34.11-.8.22-1.61.32-2.4-.73,5.44-2.06,10.8-4.19,15.88.3-.72.6-1.44.91-2.16-1.68,3.95-3.82,7.67-6.43,11.07.47-.61.94-1.22,1.41-1.83-2.6,3.35-5.63,6.35-8.98,8.96.61-.47,1.22-.94,1.82-1.41-4.32,3.34-9.1,6-14.11,8.14.71-.31,1.44-.61,2.16-.92-8.57,3.61-17.7,5.69-26.89,6.94.8-.1,1.6-.21,2.41-.32-16.25,2.17-33.06,2.19-49.3.05.8.1,1.6.21,2.4.32-9.36-1.26-18.65-3.38-27.38-7.04.72.31,1.44.61,2.16.91-5.25-2.22-10.26-4.99-14.79-8.47.61.47,1.22.94,1.83,1.41-3.53-2.74-6.72-5.87-9.46-9.39.47.61.95,1.22,1.41,1.82-2.69-3.48-4.9-7.3-6.63-11.36.31.72.61,1.44.91,2.16-2.12-5.02-3.46-10.32-4.19-15.71.11.8.22,1.6.33,2.4-.61-4.53-.68-9.06-.7-13.61-.02-6.28-.05-12.57-.06-18.84-.06-17.53-.11-35.06-.04-52.59.01-3.82.02-7.65.11-11.48.12-4.93-4.21-9.04-9.05-9.04s-8.92,4.11-9.05,9.04Z"/>
      </g>
      <path class="st0" d="M28.01,83.36c-.31,12.44,0,85.92,0,85.92,0,33.4,18.71,64.35,88.44,64.07,69.01-.29,85.36-30.67,85.36-64.07v-85.92H28.01Z"/>
    </g>
    <g>
      <g>
        <g>
          <path class="st10" d="M66.21,22.91l.17-.47S25.46,39.62,14.62,75.1c-10.86,35.49-2.49,60.58-2.49,60.58l19.44-13.56s-7.2-68.73,34.64-99.21Z"/>
          <path d="M74.94,25.32c.06-.16.11-.32.16-.48,1.05-2.99-.16-6.64-2.33-8.8-2.06-2.05-5.93-3.53-8.8-2.33-12.84,5.4-24.73,13.45-34.86,22.97-8.36,7.86-15.67,17.35-20.17,27.95C2.99,78.66.28,94.3.02,109.51c-.12,7.16.51,14.32,1.73,21.37.42,2.42.89,4.88,1.66,7.21.76,2.28,2.05,4.17,4.16,5.4,2.62,1.54,6.54,1.81,9.13,0,6.48-4.52,12.95-9.04,19.44-13.56,2.46-1.71,4.82-4.55,4.48-7.81-1.01-9.71-.56-19.73.46-29.42.16-1.46.33-2.91.53-4.37-.11.8-.22,1.61-.32,2.4,1.5-11.14,4.17-22.16,8.55-32.54-.31.72-.62,1.44-.92,2.16,2.87-6.73,6.46-13.15,10.91-18.97-.47.61-.94,1.22-1.41,1.83,3.67-4.74,7.88-9.03,12.62-12.72-.61.47-1.22.95-1.83,1.42.52-.4,1.05-.8,1.59-1.2,1.98-1.45,3.49-2.95,4.16-5.4.64-2.34.31-4.89-.91-6.97-1.19-2.02-3.15-3.54-5.41-4.16-2.13-.59-5.11-.46-6.97.91-9.71,7.11-17.66,16.03-23.63,26.5-5.28,9.27-9.03,19.51-11.53,29.87-3.62,15.02-5.01,30.82-4.27,46.26.07,1.46.14,2.93.3,4.39,1.49-2.6,2.99-5.21,4.48-7.81-6.48,4.52-12.96,9.04-19.43,13.56,4.43,1.8,8.86,3.6,13.29,5.41-1.13-3.39-1.69-7.01-2.17-10.52.1.8.21,1.61.32,2.41-1.32-9.88-1.13-19.92.19-29.79-.11.8-.21,1.61-.32,2.41,1.22-8.87,3.15-17.9,6.61-26.17-.3.72-.61,1.44-.91,2.16,2.4-5.68,5.59-10.96,9.36-15.84-.47.61-.95,1.22-1.42,1.83,5.03-6.46,10.98-12.14,17.45-17.14-.61.47-1.22.94-1.82,1.41,6.98-5.36,14.66-10.34,22.8-13.79-.72.31-1.44.61-2.16.92,0,0,0,0,0,0-3.71-3.71-7.42-7.42-11.13-11.13-.05.16-.11.32-.17.47-1.63,4.66,1.81,9.89,6.32,11.13,4.99,1.38,9.5-1.67,11.13-6.31Z"/>
        </g>
        <path class="st5" d="M66.21,22.91l.17-.47S25.46,39.62,14.62,75.1c-10.86,35.49-2.49,60.58-2.49,60.58l19.44-13.56s-7.2-68.73,34.64-99.21Z"/>
        <path class="st8" d="M19.83,75.1c9.89-29.84,46.55-52.67,46.55-52.67,0,0-40.91,17.18-51.76,52.67-10.86,35.49-2.49,60.58-2.49,60.58l4.39-3.06c-1.8-7.71-5.97-29.54,3.31-57.52Z"/>
      </g>
      <g>
        <g>
          <path class="st10" d="M163.47,22.91l-.16-.47s40.91,17.18,51.76,52.67c10.85,35.49,2.49,60.58,2.49,60.58l-19.44-13.56s7.2-68.73-34.64-99.21Z"/>
          <path d="M172.19,20.51c-.06-.16-.11-.32-.17-.47-3.71,3.7-7.41,7.41-11.13,11.13,0,0,0,0,0,0-.72-.3-1.44-.61-2.16-.92,8.14,3.45,15.83,8.42,22.81,13.79-.61-.47-1.22-.94-1.83-1.41,6.47,5,12.42,10.68,17.45,17.14-.47-.61-.94-1.22-1.41-1.83,3.76,4.88,6.96,10.15,9.36,15.84-.3-.72-.6-1.44-.91-2.16,3.46,8.28,5.39,17.3,6.62,26.17-.11-.8-.21-1.61-.32-2.41,1.32,9.87,1.51,19.91.18,29.79.11-.8.22-1.6.32-2.41-.48,3.52-1.05,7.13-2.17,10.52,4.43-1.81,8.86-3.61,13.29-5.41-6.48-4.52-12.96-9.04-19.44-13.56,1.49,2.6,2.98,5.21,4.47,7.81,1.02-9.71.56-19.73-.45-29.42-2.16-20.6-7.63-41.66-19.91-58.69-5.31-7.36-11.45-13.56-18.77-18.92-1.86-1.37-4.83-1.5-6.97-.91-2.26.62-4.22,2.13-5.4,4.16-1.22,2.08-1.56,4.63-.92,6.97.68,2.45,2.18,3.95,4.16,5.4.54.39,1.07.79,1.59,1.2-.62-.47-1.22-.94-1.83-1.42,4.73,3.69,8.95,7.98,12.61,12.72-.47-.61-.95-1.22-1.41-1.83,4.46,5.82,8.04,12.23,10.91,18.97-.3-.72-.61-1.44-.91-2.16,4.38,10.38,7.04,21.4,8.54,32.54-.11-.8-.22-1.6-.32-2.4,1.47,11.03,2.03,22.42,1,33.52,0,.09-.02.18-.03.27-.34,3.26,2.03,6.1,4.49,7.81,6.48,4.52,12.95,9.04,19.43,13.56,1.92,1.33,4.8,1.51,6.97.91,3.16-.87,5.31-3.28,6.32-6.32,1.78-5.35,2.41-11.24,2.93-16.8,1.28-13.32-.09-26.93-3.09-39.94-1.66-7.19-3.95-14.16-7.25-20.75-2.79-5.55-6.41-10.61-10.33-15.4-6.65-8.13-14.85-14.97-23.51-20.87-6.09-4.16-12.53-7.75-19.33-10.61-2.87-1.21-6.75.27-8.8,2.33-2.16,2.17-3.37,5.81-2.33,8.8.06.16.11.32.17.48,1.62,4.64,6.13,7.69,11.13,6.31,4.51-1.24,7.95-6.47,6.32-11.13Z"/>
        </g>
        <path class="st5" d="M163.47,22.91l-.16-.47s40.91,17.18,51.76,52.67c10.85,35.49,2.49,60.58,2.49,60.58l-19.44-13.56s7.2-68.73-34.64-99.21Z"/>
      </g>
    </g>
    <path class="st8" d="M209.85,75.1c-9.89-29.84-46.55-52.67-46.55-52.67,0,0,40.91,17.18,51.76,52.67,10.85,35.49,2.49,60.58,2.49,60.58l-4.39-3.06c1.81-7.71,5.97-29.54-3.31-57.52Z"/>
    <g>
      <g>
        <path class="st10" d="M114.84,9.04C19.3,9.04,31.2,122.51,31.2,122.51c0,0,33.61-20.34,83.64-20.34s83.63,20.34,83.63,20.34c0,0,11.9-113.47-83.63-113.47Z"/>
        <path d="M114.84,0c-19.31.02-39.31,4.58-54.89,16.47-7.12,5.44-13.07,11.68-18.22,19.02-4.52,6.46-7.93,13.57-10.8,20.89-5.03,12.79-7.5,26.52-8.66,40.17-.68,7.97-.84,16.03-.29,24.02.05.65.09,1.3.16,1.95.35,3.27,1.51,6.07,4.48,7.82,2.76,1.61,6.38,1.66,9.13,0,4.09-2.47,8.52-4.43,12.9-6.28-.72.3-1.44.61-2.16.92,14.7-6.19,30.27-10.27,46.06-12.41-.8.1-1.6.21-2.4.32,16.38-2.18,32.99-2.18,49.37,0-.8-.11-1.6-.22-2.4-.32,15.79,2.14,31.36,6.22,46.06,12.41-.72-.31-1.44-.61-2.16-.92,4.38,1.85,8.82,3.81,12.89,6.28,2.76,1.66,6.37,1.61,9.13,0,2.97-1.74,4.14-4.54,4.48-7.82.54-5.13.55-10.36.43-15.52-.28-12.56-1.83-25.23-4.96-37.4-3.91-15.14-10.62-29.5-20.74-41.48-11.4-13.51-27.65-22.39-44.88-25.89C129.97.72,122.39,0,114.84,0c-4.94,0-9.05,4.12-9.05,9.04s4.12,9.04,9.05,9.05c4.72,0,9.43.28,14.11.9-.8-.11-1.6-.21-2.4-.32,7.23.97,14.33,2.76,21.07,5.58-.72-.3-1.44-.61-2.16-.91,5.46,2.31,10.62,5.29,15.32,8.9-.61-.47-1.22-.94-1.83-1.41,4.72,3.66,8.93,7.92,12.59,12.64-.48-.61-.95-1.22-1.41-1.82,4.52,5.86,8.15,12.35,11.04,19.16-.31-.72-.61-1.44-.91-2.15,4.36,10.32,7.01,21.29,8.5,32.37-.1-.8-.21-1.6-.32-2.4,1.26,9.48,1.73,19.08,1.33,28.64-.07,1.76-.16,3.52-.34,5.26,4.53-2.6,9.07-5.21,13.61-7.8-3.08-1.87-6.38-3.41-9.67-4.88-9.25-4.16-18.81-7.58-28.61-10.19-28.77-7.64-59.06-8.4-88.24-2.67-10.72,2.1-21.26,5.16-31.42,9.16-5.93,2.34-11.85,4.88-17.43,7.99-.34.2-.69.39-1.03.6,4.54,2.6,9.08,5.2,13.61,7.8-.53-5.13-.54-10.36-.43-15.52.14-6.14.61-12.29,1.42-18.38-.11.8-.22,1.6-.32,2.4,1.5-11.08,4.15-22.05,8.5-32.37-.31.71-.6,1.43-.91,2.15,2.89-6.81,6.53-13.3,11.05-19.16-.47.61-.95,1.22-1.41,1.82,3.66-4.72,7.87-8.98,12.59-12.64-.61.47-1.22.94-1.83,1.41,4.7-3.61,9.85-6.59,15.32-8.9-.72.31-1.44.61-2.16.91,6.73-2.82,13.84-4.61,21.07-5.58-.8.11-1.6.21-2.4.32,4.68-.62,9.4-.89,14.12-.9,4.93,0,9.05-4.11,9.05-9.05S119.77,0,114.84,0Z"/>
      </g>
      <path class="st5" d="M114.84,9.04C19.3,9.04,31.2,122.51,31.2,122.51c0,0,33.61-20.34,83.64-20.34s83.63,20.34,83.63,20.34c0,0,11.9-113.47-83.63-113.47Z"/>
      <path class="st16" d="M114.84,15.25c73.86,0,83.5,67.82,84.08,98.6.5-26.53-4.72-104.8-84.08-104.8S30.26,87.32,30.76,113.85c.57-30.77,10.21-98.6,84.08-98.6Z"/>
      <path class="st8" d="M198.47,112.95s-33.6-20.35-83.63-20.35-83.64,20.35-83.64,20.35c0,0-.21-2.06-.35-5.62-.4,10.8.35,18.02.35,18.02,0,0,33.61-20.34,83.64-20.34s83.63,20.34,83.63,20.34c0,0,.76-7.22.36-18.02-.14,3.56-.36,5.62-.36,5.62Z"/>
    </g>
    <path class="st14" d="M191.07,156.6s-2.29,2.38-9.16,2.55c-6.87.16-30.78-16.23-67.01-16.23-.01,0-.03,0-.05,0h-.03s-.03,0-.05,0c-36.22,0-60.13,16.39-67,16.23-6.87-.16-9.16-2.55-9.16-2.55l-10.69-8.43c0,2.84.02,5.58.02,8.16l10.67,8.41s2.29,2.39,9.16,2.55c6.87.16,30.78-16.23,67-16.23.02,0,.03,0,.05,0h.03s.04,0,.05,0c36.23,0,60.14,16.39,67.01,16.23,6.87-.15,9.16-2.55,9.16-2.55l10.74-8.46v-8.15l-10.74,8.46Z"/>
    <g>
      <path class="st10" d="M114.92,107.56h-.16c-70.33,0-89.89,31.18-89.89,31.18l13.74,10.82s2.29,2.39,9.16,2.55c6.87.16,30.78-16.23,67-16.23h.13c36.23,0,60.14,16.39,67.01,16.23,6.87-.16,9.16-2.55,9.16-2.55l13.74-10.82s-19.56-31.18-89.88-31.18Z"/>
      <path d="M114.92,98.51c-24.15.12-48.64,3.41-70.58,13.97-6.42,3.09-12.36,6.97-17.85,11.51-2.61,2.15-5.09,4.53-7.17,7.2-.74.95-1.6,1.96-2.25,3-1.97,3.13-1.66,8.54,1.41,10.96,4.57,3.6,9.14,7.21,13.72,10.81,1.3,1.02,2.43,2.03,3.95,2.68,3.77,1.63,7.64,2.56,11.8,2.53,3.21-.03,6.27-1.13,9.22-2.29,5.91-2.31,11.74-4.82,17.76-6.89,8.52-2.94,17.3-5.11,26.23-6.31-.8.11-1.6.22-2.4.33,10.68-1.41,21.5-1.41,32.17,0-.8-.11-1.6-.22-2.4-.33,11.78,1.59,23.15,4.93,34.19,9.25,3.64,1.43,7.22,2.98,10.88,4.37,3.27,1.23,6.58,2.04,10.13,1.77,5.08-.41,9.66-1.7,13.61-4.97.99-.82,2-1.59,3.01-2.39,3.63-2.85,7.25-5.71,10.87-8.56,3.07-2.42,3.38-7.83,1.41-10.96-4.19-6.67-11.02-11.94-17.47-16.18-7.1-4.68-15-8.17-23-10.99-11.31-3.97-23.18-6.09-35.09-7.37-7.35-.79-14.75-1.12-22.13-1.13-4.94,0-9.05,4.12-9.05,9.05s4.11,9.04,9.05,9.04c8.95.01,17.91.51,26.8,1.69-.81-.11-1.61-.21-2.41-.32,11.83,1.59,23.55,4.36,34.56,9.01-.72-.3-1.44-.61-2.16-.91,6.67,2.83,13.08,6.34,18.83,10.78-.61-.47-1.22-.94-1.83-1.42,3.25,2.52,6.36,5.33,8.88,8.58-.47-.61-.94-1.22-1.41-1.83.28.36.57.73.81,1.12.48-3.65.94-7.31,1.42-10.96-4.67,3.68-9.35,7.34-13.99,11.04.61-.47,1.22-.95,1.83-1.42-.57.44-1.2.76-1.86,1.04.72-.3,1.45-.61,2.17-.91-1.3.54-2.66.85-4.05,1.06.8-.11,1.6-.21,2.4-.32-1.27.16-2.6.34-3.88.18.8.11,1.61.21,2.41.33-2.64-.37-5.19-1.53-7.64-2.52-4.03-1.62-8.02-3.29-12.09-4.8-12.37-4.6-25.19-7.56-38.35-8.73-14.42-1.28-29.1.16-43.13,3.65-9.76,2.42-19.04,6.13-28.35,9.88-2.45.99-5,2.15-7.64,2.52.8-.11,1.6-.22,2.4-.33-1.28.16-2.61-.02-3.88-.18.8.11,1.6.21,2.4.32-1.39-.21-2.75-.52-4.06-1.06.73.3,1.44.61,2.17.91-.65-.28-1.29-.6-1.85-1.04.61.47,1.22.95,1.83,1.42-4.65-3.71-9.33-7.37-13.99-11.04.47,3.65.94,7.31,1.41,10.96.25-.39.53-.76.81-1.12-.47.61-.94,1.22-1.41,1.83,2.52-3.26,5.63-6.07,8.88-8.58-.61.47-1.23.94-1.83,1.42,5.75-4.44,12.16-7.95,18.83-10.78-.72.3-1.44.61-2.16.91,11.01-4.65,22.73-7.42,34.56-9.01-.8.11-1.61.22-2.4.32,8.94-1.18,17.93-1.64,26.95-1.69,4.93-.02,9.05-4.1,9.05-9.04s-4.12-9.07-9.05-9.05Z"/>
    </g>
    <path class="st5" d="M114.92,107.56h-.16c-70.33,0-89.89,31.18-89.89,31.18l13.74,10.82s2.29,2.39,9.16,2.55c6.87.16,30.78-16.23,67-16.23h.13c36.23,0,60.14,16.39,67.01,16.23,6.87-.16,9.16-2.55,9.16-2.55l13.74-10.82s-19.56-31.18-89.88-31.18Z"/>
    <path class="st8" d="M114.76,111.43s.05,0,.08,0c.02,0,.05,0,.08,0,58.34,0,81.74,21.46,88.02,28.78l1.86-1.47s-19.56-31.18-89.88-31.18h-.16c-70.33,0-89.89,31.18-89.89,31.18l1.86,1.47c6.28-7.31,29.7-28.78,88.03-28.78Z"/>
    <path class="st16" d="M191.07,144.82s-2.29,2.39-9.16,2.55c-6.87.16-30.78-16.23-67.01-16.23h-.13c-36.22,0-60.13,16.39-67,16.23-6.87-.16-9.16-2.55-9.16-2.55l-11.43-9c-1.61,1.81-2.31,2.92-2.31,2.92l13.74,10.82s2.29,2.39,9.16,2.55c6.87.16,30.78-16.23,67-16.23h.13c36.23,0,60.14,16.39,67.01,16.23,6.87-.16,9.16-2.55,9.16-2.55l13.74-10.82s-.7-1.11-2.31-2.92l-11.42,9Z"/>
  </g>
  <g>
    <g>
      <g>
        <g>
          <path class="st2" d="M79.02,183.81c0,7.71-6.25,13.96-13.96,13.96s-13.95-6.25-13.95-13.96,6.25-13.95,13.95-13.95,13.96,6.25,13.96,13.95Z"/>
          <path d="M77.08,183.81c-.07,5.64-3.91,10.4-9.38,11.73-5.52,1.34-11.08-1.7-13.54-6.66-2.45-4.92-.77-11.28,3.54-14.58,4.45-3.42,10.84-3.31,15.13.32,2.71,2.29,4.21,5.65,4.26,9.18.03,2.5,3.91,2.5,3.88,0-.08-6.02-3.45-11.56-8.87-14.25-5.51-2.73-12.25-1.93-17.02,1.9-4.77,3.85-6.77,10.08-5.48,16.02,1.26,5.81,6.11,10.41,11.8,11.8,9.91,2.42,19.44-5.44,19.56-15.47.03-2.5-3.85-2.5-3.88,0Z"/>
        </g>
        <path class="st9" d="M75.1,180.14c0,1.89-1.53,3.43-3.43,3.43s-3.42-1.54-3.42-3.43,1.52-3.43,3.42-3.43,3.43,1.54,3.43,3.43Z"/>
      </g>
      <g>
        <g>
          <g>
            <path class="st2" d="M181.14,183.81c0,7.71-6.25,13.96-13.96,13.96s-13.95-6.25-13.95-13.96,6.25-13.95,13.95-13.95,13.96,6.25,13.96,13.95Z"/>
            <path d="M179.19,183.81c-.07,5.64-3.91,10.4-9.38,11.73-5.52,1.34-11.08-1.7-13.54-6.66-2.45-4.92-.78-11.28,3.53-14.58,4.45-3.42,10.84-3.31,15.14.32,2.71,2.29,4.21,5.65,4.25,9.18.03,2.5,3.91,2.5,3.88,0-.08-6.02-3.45-11.56-8.87-14.25-5.5-2.73-12.25-1.93-17.01,1.9-4.77,3.85-6.77,10.08-5.48,16.02,1.26,5.81,6.1,10.41,11.8,11.8,9.91,2.42,19.43-5.44,19.56-15.47.03-2.5-3.84-2.5-3.88,0Z"/>
          </g>
          <path class="st9" d="M177.21,180.14c0,1.89-1.53,3.43-3.42,3.43s-3.43-1.54-3.43-3.43,1.54-3.43,3.43-3.43,3.42,1.54,3.42,3.43Z"/>
        </g>
        <path class="st6" d="M63.03,204.72c.3,2.18-3.46,4.49-8.39,5.16-4.92.67-9.16-.56-9.46-2.74-.29-2.18,3.46-4.49,8.39-5.16,4.93-.67,9.16.55,9.46,2.74Z"/>
        <path class="st6" d="M166.65,204.72c-.3,2.18,3.46,4.49,8.38,5.16,4.92.67,9.16-.56,9.46-2.74.3-2.18-3.46-4.49-8.38-5.16-4.93-.67-9.16.55-9.46,2.74Z"/>
      </g>
    </g>
    <path d="M122.69,210.45c-.04.28-.12.57-.21.84-.05.15-.11.29-.17.45.37-.93.1-.25,0-.05-.1.19-.21.37-.32.55-.09.15-.59.8-.07.15-.29.38-.63.71-.99,1.02-.23.2-.22.19.05-.02-.12.09-.26.18-.38.27-.28.19-.57.35-.87.5-.29.13-.32.15-.06.05-.18.07-.35.14-.54.2-.39.14-.79.24-1.18.33-.87.21-1.54.24-2.48.27-1.71.05-3.11-.14-4.73-.74.47.17-.44-.22-.53-.28-.29-.14-.55-.32-.82-.51.57.39-.16-.15-.27-.25-.2-.19-.38-.38-.56-.58-.34-.39.34.5-.11-.15-.12-.19-.24-.38-.35-.57-.1-.17-.18-.35-.26-.53.39.87.12.3.05.08-.15-.43-.31-1.72-.16-.28-.17-1.54-1.17-2.84-2.85-2.84-1.42,0-3.01,1.3-2.84,2.84.22,1.95,1.02,3.65,2.24,5.17,2.48,3.1,6.56,4.17,10.36,4.31,3.97.14,8.29-.96,11.05-3.98,1.15-1.26,2.25-3.01,2.5-4.74.22-1.54-.35-3.05-1.99-3.5-1.35-.37-3.27.45-3.5,1.98h0Z"/>
  </g>
  <g>
    <g>
      <polygon class="st10" points="139.24 45.88 122.76 45.88 122.76 29.39 106.23 29.39 106.23 45.88 89.75 45.88 89.75 62.41 106.23 62.41 106.23 78.89 122.76 78.89 122.76 62.41 139.24 62.41 139.24 45.88"/>
      <path d="M139.24,36.83h-16.48c3.01,3.02,6.03,6.03,9.05,9.05v-16.48c0-4.93-4.12-9.05-9.05-9.05h-16.53c-4.93,0-9.05,4.12-9.05,9.05v16.48c3.02-3.02,6.03-6.03,9.05-9.05h-16.48c-4.93,0-9.05,4.12-9.05,9.05v16.53c0,4.93,4.12,9.04,9.05,9.04h16.48c-3.01-3.02-6.03-6.03-9.05-9.04v16.48c0,4.94,4.12,9.05,9.05,9.05h16.53c4.93,0,9.05-4.11,9.05-9.05v-16.48c-3.02,3.01-6.03,6.03-9.05,9.04h16.48c4.93,0,9.05-4.11,9.05-9.04v-16.53c0-4.93-4.12-9.05-9.05-9.05s-9.05,4.12-9.05,9.05v16.53c3.02-3.01,6.03-6.03,9.05-9.05h-16.48c-4.93,0-9.05,4.12-9.05,9.05v16.48c3.01-3.01,6.03-6.03,9.05-9.04h-16.53c3.02,3.02,6.03,6.03,9.05,9.04v-16.48c0-4.93-4.12-9.05-9.05-9.05h-16.48c3.01,3.01,6.03,6.03,9.05,9.05v-16.53c-3.02,3.01-6.04,6.03-9.05,9.05h16.48c4.94,0,9.05-4.11,9.05-9.05v-16.48c-3.02,3.02-6.04,6.03-9.05,9.05h16.53c-3.01-3.02-6.03-6.03-9.05-9.05v16.48c0,4.93,4.12,9.05,9.05,9.05h16.48c4.93,0,9.05-4.11,9.05-9.05s-4.12-9.05-9.05-9.05Z"/>
    </g>
    <polygon class="st9" points="139.24 45.88 122.76 45.88 122.76 29.39 106.23 29.39 106.23 45.88 89.75 45.88 89.75 62.41 106.23 62.41 106.23 78.89 122.76 78.89 122.76 62.41 139.24 62.41 139.24 45.88"/>
    <g>
      <rect class="st13" x="106.23" y="29.39" width="2.84" height="16.48"/>
      <rect class="st13" x="106.23" y="62.41" width="2.84" height="16.48"/>
      <rect class="st13" x="89.75" y="45.88" width="2.83" height="16.53"/>
    </g>
  </g>
</svg>