<?xml version="1.0" encoding="UTF-8"?>
<svg id="Layer_1" xmlns="http://www.w3.org/2000/svg" version="1.1" viewBox="0 0 229.69 326.94">
  <!-- Generator: Adobe Illustrator 29.6.1, SVG Export Plug-In . SVG Version: 2.1.1 Build 9)  -->
  <defs>
    <style>
      .st0 {
        fill: #eec17d;
      }

      .st1 {
        fill: #ffd7c3;
      }

      .st2, .st3 {
        fill-rule: evenodd;
      }

      .st2, .st4 {
        fill: #fff;
      }

      .st5 {
        fill: #d18b4b;
      }

      .st6 {
        fill: #ea2127;
      }

      .st7, .st3 {
        fill: #000002;
      }

      .st8 {
        fill: #ffe5c5;
      }

      .st9 {
        fill: #d8a35b;
      }

      .st10 {
        fill: #edc39d;
      }

      .st11 {
        fill: #ed1c24;
      }

      .st12 {
        fill: #fff3ee;
      }

      .st13 {
        fill: #f1f2f2;
      }

      .st14 {
        fill: #f38b9e;
      }

      .st15 {
        fill: #6f2a0e;
      }

      .st16 {
        fill: #be1e2d;
      }

      .st17 {
        fill: #ecab69;
      }

      .st18 {
        fill: #fde5d2;
      }

      .st19 {
        fill: #82442f;
      }

      .st20 {
        fill: #ffc0a4;
      }

      .st21 {
        fill: #e6e7e8;
      }

      .st22 {
        fill: #ff7d87;
      }
    </style>
  </defs>
  <g>
    <g>
      <g>
        <path class="st1" d="M154.49,247.72s27.84,33.06,15.76,40.19c-12.08,7.14-28.99-23.77-28.99-23.77l13.23-16.42Z"/>
        <path d="M151.97,250.23c.95,1.13,1.86,2.3,2.78,3.46.4.53-.56-.72-.14-.18.11.14.21.28.32.42.23.29.45.59.68.89.54.7,1.06,1.42,1.59,2.14,1.14,1.56,2.25,3.16,3.33,4.76,2.34,3.48,4.53,7.07,6.37,10.84.21.44.42.88.62,1.32.11.25.73,1.69.3.68.38.9.72,1.81,1.02,2.75.26.79.47,1.59.66,2.41.09.38.15.77.21,1.15-.2-1.29,0,.19.02.52.02.35.02.7.01,1.05-.01.17-.02.34-.04.5-.06.67.14-.95.04-.29-.05.3-.13.61-.22.92-.29,1.03.39-.67-.1.27-.16.29-.82,1.18-.02.15-.18.25-.4.46-.62.66-.6.56.74-.47-.18.12-.16.1-.33.19-.49.28-.85.46.51-.17-.05.05-.36.14-.73.23-1.1.32-.26.05-.96.12.2-.02-.19.02-.37.03-.56.03-.38.02-.76,0-1.13-.04,1.28.12-.24-.08-.58-.17-.4-.1-.78-.24-1.15-.38-.71-.27.78.35.07.03-.19-.08-.38-.18-.58-.28-.87-.44-1.69-.96-2.49-1.52-.2-.14-.38-.28-.57-.42-.67-.5.62.49-.03-.04-.39-.31-.76-.62-1.13-.95-.83-.72-1.62-1.49-2.39-2.27-1.52-1.55-2.93-3.21-4.27-4.91-.1-.13-.65-.83-.07-.09-.16-.21-.32-.4-.47-.61-.31-.4-.6-.8-.89-1.21-.61-.84-1.21-1.69-1.79-2.54-.95-1.39-1.87-2.81-2.75-4.24-.7-1.14-1.4-2.28-2.04-3.45-.18,1.44-.37,2.87-.55,4.31,4.4-5.47,8.81-10.95,13.22-16.42,1.21-1.51,1.48-3.55,0-5.03-1.26-1.26-3.81-1.51-5.02,0-4.4,5.47-8.82,10.95-13.23,16.42-1.04,1.29-1.39,2.78-.56,4.3,2.82,5.15,6.23,10.04,9.93,14.58,4.89,6,12.67,13.95,21.26,11.6,3.65-.99,6.61-3.98,7.22-7.75.61-3.78-.31-7.55-1.68-11.06-3.01-7.69-7.68-14.67-12.59-21.27-1.73-2.32-3.48-4.61-5.34-6.82-1.25-1.48-3.75-1.28-5.02,0-1.46,1.46-1.25,3.54,0,5.03Z"/>
      </g>
      <path class="st6" d="M166.85,272.41l-9.21,5.68-6.52-21.07,3.22-4.04s5.32,6.6,7.09,9.39c1.78,2.78,5.43,10.04,5.43,10.04Z"/>
      <path class="st22" d="M164.07,271.57s-3.65-7.25-5.43-10.03c-1.12-1.77-3.65-5.05-5.37-7.22l1.06-1.33s5.32,6.6,7.09,9.39c1.78,2.78,5.43,10.04,5.43,10.04l-9.21,5.68,6.44-6.52Z"/>
      <g>
        <g>
          <rect class="st11" x="153.88" y="264.89" width="17.57" height="7.75" transform="translate(-110.95 114.39) rotate(-29.38)"/>
          <path d="M167.11,258.84c-5.1,2.88-10.21,5.75-15.31,8.62-1.24.71-1.61,2.33-.92,3.54,1.26,2.25,2.53,4.51,3.8,6.76.7,1.24,2.33,1.61,3.54.92,5.1-2.88,10.21-5.76,15.3-8.62,1.25-.7,1.62-2.33.94-3.54-1.27-2.24-2.54-4.5-3.81-6.75-1.63-2.9-6.1-.29-4.46,2.62,1.26,2.25,2.53,4.5,3.8,6.75.31-1.18.62-2.36.93-3.53-5.1,2.87-10.21,5.75-15.32,8.63,1.18.31,2.36.62,3.54.93-1.27-2.26-2.54-4.5-3.8-6.76-.31,1.18-.62,2.36-.92,3.53,5.1-2.87,10.2-5.75,15.3-8.62,2.91-1.63.3-6.1-2.61-4.46Z"/>
        </g>
        <rect class="st16" x="156.33" y="267.47" width="12.04" height=".78" transform="translate(-110.06 113.28) rotate(-29.21)"/>
      </g>
    </g>
    <g>
      <path class="st1" d="M77.35,247.72s-27.84,33.06-15.76,40.19c12.08,7.14,28.99-23.77,28.99-23.77l-13.23-16.42Z"/>
      <path d="M74.83,245.21c-3.35,3.99-6.47,8.21-9.39,12.53-4.58,6.77-9.25,14.33-10.34,22.57-.44,3.37.42,7.14,3.05,9.47,3.2,2.83,7.7,3.41,11.64,1.99,4.14-1.49,7.61-4.41,10.63-7.53,3.08-3.18,5.79-6.76,8.3-10.41,1.75-2.54,3.43-5.16,4.91-7.88.84-1.52.48-3.01-.55-4.3-4.4-5.48-8.82-10.95-13.23-16.42-1.22-1.51-3.76-1.26-5.03,0-1.47,1.48-1.21,3.52,0,5.03,4.41,5.47,8.82,10.95,13.23,16.42-.18-1.44-.37-2.87-.55-4.31-.85,1.54-1.77,3.04-2.71,4.52-.96,1.54-1.98,3.04-3.02,4.52-.58.81-1.15,1.61-1.75,2.4-.14.2-.31.4-.46.61.57-.74.04-.04-.07.09-.38.48-.76.95-1.14,1.41-1.39,1.67-2.84,3.27-4.4,4.76-.72.69-1.47,1.35-2.24,1.97-.66.54.62-.47-.03.04-.2.14-.39.28-.58.42-.43.3-.88.6-1.34.88-.38.23-.77.44-1.15.64-.19.1-.39.19-.58.28-.7.33.79-.31.08-.03-.38.14-.76.27-1.15.38-.33.1-1.88.32-.58.17-.38.04-.76.05-1.13.04-.19,0-.38-.02-.56-.03,1.14.1.47.06.2.02-.37-.08-.73-.19-1.09-.32-.68-.24.79.36.13.05-.23-.11-.46-.24-.68-.38-.93-.56.43.42-.17-.12-.23-.2-.43-.43-.62-.66.81.99.15.14-.02-.15-.51-.94.22.75-.1-.27-.1-.3-.16-.61-.21-.92-.12-.65.11.96.04.29-.02-.16-.03-.33-.04-.5-.02-.35-.01-.7,0-1.05.02-.33.21-1.82.02-.52.25-1.72.77-3.4,1.38-5.03.16-.43.33-.86.5-1.28-.41,1.01.19-.43.3-.68.44-.96.92-1.92,1.4-2.86,1.92-3.71,4.17-7.25,6.54-10.69,1.05-1.54,2.14-3.04,3.25-4.54.46-.62.92-1.23,1.39-1.85.11-.14.21-.28.32-.42.42-.54-.54.71-.14.18.22-.28.44-.57.67-.86.69-.88,1.39-1.76,2.11-2.61,1.25-1.48,1.46-3.57,0-5.03-1.28-1.28-3.78-1.48-5.03,0Z"/>
    </g>
    <path class="st6" d="M64.98,272.41l9.22,5.68,6.52-21.07-3.22-4.04s-5.32,6.6-7.09,9.39c-1.78,2.78-5.43,10.04-5.43,10.04Z"/>
    <path class="st22" d="M67.76,271.57s3.65-7.25,5.43-10.03c1.12-1.77,3.65-5.05,5.37-7.22l-1.06-1.33s-5.32,6.6-7.09,9.39c-1.78,2.78-5.43,10.04-5.43,10.04l9.22,5.68-6.44-6.52Z"/>
    <g>
      <path class="st11" d="M143.58,252.08h-57.01s-11.14,61.79-3.57,64.44c7.58,2.64,14.6-9.42,14.6-9.42,0,0,5.57,1.7,15.24,2h0c.73.03,1.48.04,2.23.04s1.51,0,2.23-.02h0c9.68-.31,15.25-2.01,15.25-2.01,0,0,7.02,12.06,14.59,9.42,7.58-2.65-3.56-64.44-3.56-64.44Z"/>
      <path d="M143.58,248.53h-57.01c-1.47,0-3.15,1.07-3.43,2.61-2.17,12.07-3.95,24.25-5.22,36.45-.77,7.39-1.56,14.99-.92,22.42.21,2.45.5,5.41,1.95,7.51,2.86,4.15,8.76,3.3,12.6,1.06,3.76-2.19,6.93-5.94,9.12-9.68-1.33.54-2.68,1.09-4.01,1.63,5.16,1.56,10.84,1.95,16.19,2.12-1.18-1.18-2.37-2.37-3.55-3.55h0c0,1.98,1.62,3.52,3.55,3.56,1.49.04,2.98.04,4.46,0,1.94-.04,3.56-1.58,3.56-3.54h0c-1.19,1.17-2.37,2.36-3.56,3.54,5.35-.17,11.03-.57,16.19-2.12-1.34-.55-2.67-1.09-4.01-1.63,1.7,2.91,3.97,5.68,6.57,7.83,3.76,3.11,9.92,5.61,14.19,1.97,2.01-1.71,2.43-4.83,2.75-7.28.41-3.12.39-6.29.29-9.42-.25-8.36-1.22-16.7-2.32-24.98-.94-7.2-2.02-14.38-3.22-21.54-.24-1.44-.49-2.89-.75-4.33-.35-1.9-2.63-2.96-4.38-2.48-1.99.54-2.82,2.47-2.48,4.37.69,3.8,1.3,7.62,1.89,11.43.59,3.83,1.15,7.66,1.67,11.49.12.87-.1-.82,0,.06.04.25.08.5.11.76.06.51.13,1.02.2,1.52.14,1.12.28,2.23.41,3.35.27,2.15.51,4.31.73,6.48.75,7.31,1.54,14.87.84,22.22-.04.31-.07.63-.11.94.18-1.38.03-.25-.03.08-.09.55-.21,1.09-.36,1.63-.06.21-.14.42-.21.63-.26.68.45-.97.08-.21-.08.16-.17.31-.27.46-.34.51.76-.83.15-.24-.42.42.93-.61.33-.27-.39.22,1.02-.4.61-.25-.27.1-.54.17-.82.24-.9.21.77-.05-.14.02-.27.02-.53,0-.8-.02-.9-.04.79.16-.1-.02-.35-.07-.69-.17-1.03-.29-.86-.3.69.33-.14-.06-.25-.12-.5-.25-.73-.39-.49-.27-.95-.59-1.4-.92.7.51-.06-.04-.17-.13-.21-.18-.42-.37-.63-.56-.47-.43-.92-.89-1.37-1.35-.53-.57-1.02-1.14-1.5-1.74-.42-.51.46.61-.13-.18-.2-.26-.39-.53-.58-.8-.36-.51-.71-1.03-1.03-1.57-.79-1.35-2.49-2.1-4.02-1.64-1.25.38-2.56.63-3.86.87-.7.12-1.4.23-2.1.34-1.11.17.73-.09-.45.06-.51.06-1.02.12-1.52.17-2.11.23-4.24.36-6.37.43-1.93.07-3.55,1.57-3.55,3.56h0c1.18-1.18,2.37-2.36,3.55-3.55-1.48.04-2.97.04-4.46,0,1.19,1.19,2.37,2.37,3.56,3.56h0c0-2-1.62-3.5-3.56-3.57-2.12-.07-4.24-.21-6.36-.43-.38-.04-.77-.09-1.15-.13-.24-.03-.49-.06-.73-.09.36.05.33.04-.09-.02-.7-.1-1.4-.22-2.1-.34-1.29-.24-2.6-.49-3.86-.87-1.52-.46-3.23.29-4.01,1.64-.52.88-1.11,1.73-1.74,2.55-.47.63.51-.65,0,0-.16.19-.31.38-.47.57-.33.4-.68.79-1.03,1.17-.37.4-.77.79-1.16,1.17-.2.19-.42.38-.63.56-.12.11-1.08.85-.38.32-.45.34-.91.64-1.4.92-.24.14-.49.27-.74.39-.82.41.7-.26-.14.06-.25.09-.51.16-.77.23-.18.05-1.07.18-.11.06-.25.04-.52.04-.79.04-.18,0-.36,0-.54-.02.49.08.54.08.13,0-.71-.14-1.32-.56-.21.02-.62-.32.77.67.32.27-.57-.53.37.53.21.31-.12-.17-.22-.34-.31-.53-.4-.76.33.88.08.21-.08-.21-.14-.42-.21-.63-.16-.54-.27-1.08-.37-1.63-.06-.32-.21-1.46-.03-.08-.03-.3-.08-.62-.1-.94-.07-.75-.12-1.49-.16-2.24-.17-3.57-.02-7.16.21-10.72.26-4.21.67-8.43,1.14-12.63.24-2.15.51-4.31.78-6.46.07-.51.13-1.02.2-1.52.04-.25.06-.5.1-.76.12-.88-.11.81.01-.06.14-1.06.29-2.13.44-3.19.84-6,1.78-11.98,2.81-17.94.1-.59.21-1.19.31-1.78-1.14.87-2.28,1.74-3.42,2.62h57.01c4.59,0,4.59-7.11,0-7.11Z"/>
    </g>
    <g>
      <path class="st7" d="M173.9,322.59c0,1.74-26.33,3.15-58.83,3.15s-58.83-1.41-58.83-3.15,26.34-3.14,58.83-3.14,58.83,1.41,58.83,3.14Z"/>
      <path d="M115.07,326.94c-15.73,0-30.53-.33-41.66-.92-18.38-.98-18.38-2.12-18.38-3.43s0-2.44,18.38-3.43c11.14-.59,25.93-.92,41.66-.92s30.53.33,41.67.92c18.37.98,18.37,2.11,18.37,3.43s0,2.45-18.37,3.43c-11.13.59-25.93.92-41.67.92ZM60.81,322.59c7.72.97,26.72,1.94,54.26,1.94s46.43-.9,54.36-1.92c-7.65-.97-26.69-1.95-54.36-1.95s-46.54.97-54.26,1.93Z"/>
    </g>
    <polygon class="st16" points="84.33 296.15 84.07 300.61 146.14 300.61 145.87 296.15 84.33 296.15"/>
    <g>
      <g>
        <g>
          <polygon class="st18" points="142.06 251.23 115.66 251.23 115.43 251.23 89.04 251.23 77.59 288.86 115.43 288.86 115.66 288.86 153.5 288.86 142.06 251.23"/>
          <path d="M142.06,244.13h-53.02c-3.23,0-5.93,2.18-6.86,5.22-3.65,11.98-7.3,23.97-10.95,35.96-.16.55-.33,1.1-.5,1.65-1.35,4.45,2.33,9.01,6.85,9.01h75.91c4.53,0,8.21-4.56,6.86-9.01-3.65-11.98-7.3-23.97-10.94-35.96-.17-.55-.33-1.11-.5-1.66-1.13-3.71-4.93-6.02-8.75-4.96-3.66,1.01-6.09,5.04-4.96,8.75,3.65,11.99,7.29,23.97,10.94,35.96.16.55.34,1.1.5,1.66,2.28-3,4.57-6,6.85-9h-75.91c2.29,3,4.57,6,6.85,9,3.65-12,7.3-23.98,10.94-35.97.17-.55.33-1.1.5-1.65-2.29,1.74-4.57,3.47-6.85,5.21h53.02c3.87,0,7.11-3.23,7.11-7.11s-3.24-7.11-7.11-7.11Z"/>
        </g>
        <polygon class="st4" points="142.06 251.23 115.66 251.23 115.43 251.23 89.04 251.23 77.59 288.86 115.43 288.86 115.66 288.86 153.5 288.86 142.06 251.23"/>
      </g>
      <polygon class="st13" points="88.55 252.73 77.59 288.86 107.42 288.86 83.06 285.29 88.55 252.73"/>
      <polygon class="st21" points="142.53 252.73 153.49 288.86 123.66 288.86 148.02 285.29 142.53 252.73"/>
    </g>
    <g>
      <g>
        <rect class="st11" x="65.29" y="259.98" width="7.75" height="17.57" transform="translate(-198.96 197.16) rotate(-60.62)"/>
        <path d="M62.11,263.3c5.1,2.88,10.21,5.76,15.32,8.62-.31-1.18-.62-2.35-.93-3.53-1.27,2.26-2.54,4.5-3.81,6.76,1.18-.31,2.36-.62,3.54-.93-5.1-2.88-10.21-5.76-15.31-8.63.31,1.18.61,2.35.92,3.53,1.27-2.25,2.54-4.5,3.81-6.75,1.63-2.91-2.83-5.51-4.47-2.62-1.26,2.26-2.53,4.51-3.8,6.75-.68,1.22-.31,2.84.93,3.54,5.1,2.87,10.21,5.75,15.31,8.62,1.21.68,2.84.31,3.54-.92,1.27-2.25,2.53-4.51,3.8-6.76.69-1.21.31-2.83-.93-3.54-5.1-2.88-10.2-5.75-15.31-8.62-2.91-1.64-5.51,2.83-2.61,4.46Z"/>
      </g>
      <rect class="st16" x="69.09" y="261.84" width=".78" height="12.04" transform="translate(-198.23 197.8) rotate(-60.79)"/>
    </g>
    <g>
      <g>
        <g>
          <g>
            <path class="st18" d="M112.01,261.65s-6.73-3.04-9.05-.98c-2.33,2.07-.96,8.27-.96,8.27,0,0-5.88-3.46-8.72-7.52-2.85-4.05-3.1-9.86-3.1-9.86l10.4.9,11.44,9.18Z"/>
            <path d="M114.62,257.19c-4.26-1.91-9.51-3.6-13.91-1.23-4.92,2.64-4.7,9.69-3.7,14.36,2.53-1.94,5.06-3.89,7.59-5.84-.95-.57-1.88-1.21-2.78-1.87-.25-.18-1.44-1.11-.26-.19-.47-.36-.93-.75-1.38-1.15-.93-.81-1.8-1.69-2.6-2.64.93,1.1-.1-.21-.27-.47-.35-.54-.63-1.12-.9-1.71.59,1.29-.16-.55-.25-.87-.17-.55-.31-1.11-.45-1.67-.09-.39-.17-.8-.24-1.2-.04-.18-.06-.36-.09-.54-.16-.99.17,1.36.06.46-.04-.36-.08-.72-.09-1.07-1.72,1.72-3.45,3.44-5.17,5.17,3.46.3,6.93.61,10.4.9-1.22-.5-2.43-1.01-3.65-1.51,3.82,3.06,7.63,6.12,11.44,9.18,2.2,1.75,5.16,2.15,7.31,0,1.83-1.83,2.2-5.55,0-7.31-3.64-2.92-7.29-5.84-10.93-8.76-1.31-1.05-2.52-1.78-4.29-1.93-1.06-.09-2.12-.19-3.19-.28-2.36-.21-4.72-.42-7.08-.62-2.72-.24-5.31,2.53-5.17,5.17.21,4.49,1.48,9.43,4.23,13.04,2.72,3.57,6.3,6.51,10.15,8.8,1.59.94,3.63.93,5.21,0,2.08-1.22,2.87-3.55,2.38-5.83-.06-.29-.11-.58-.16-.87-.13-.77.19,1.62.05.32-.05-.43-.07-.87-.09-1.3-.02-.38-.01-.76,0-1.13,0-.19.02-.38.03-.57.09-1.07-.22,1.3-.01.26.09-.44.61-1.56-.1-.02.08-.14.16-.29.25-.43-.17.22-.34.45-.51.67.39-.37.21-.24-.52.39.63-.42-1.38.39-.15.13-1.74.36-.37.1.19.12.92.05-1.38-.25.03,0,.47.09.94.21,1.39.33.72.19,1.41.43,2.11.69.26.1.51.2.77.31-1.83-.75-1.26-.54-.87-.36,2.57,1.15,5.54.77,7.07-1.86,1.31-2.23.72-5.92-1.86-7.07Z"/>
          </g>
          <path class="st4" d="M112.01,261.65s-6.73-3.04-9.05-.98c-2.33,2.07-.96,8.27-.96,8.27,0,0-4.85-2.7-8.38-7.18-3.54-4.47-3.45-10.2-3.45-10.2l10.4.9,11.44,9.18Z"/>
          <path class="st21" d="M96.08,260.29c-2.33-2.95-3.09-6.45-3.33-8.5l-2.57-.22s-.09,5.73,3.45,10.2c3.53,4.48,8.38,7.18,8.38,7.18,0,0-.35-1.56-.39-3.38-1.66-1.24-3.77-3.03-5.54-5.28Z"/>
        </g>
        <g>
          <g>
            <path class="st18" d="M122.35,261.65s6.73-3.04,9.05-.98c2.33,2.07.97,8.27.97,8.27,0,0,5.88-3.46,8.72-7.52,2.84-4.05,3.1-9.86,3.1-9.86l-10.4.9-11.44,9.18Z"/>
            <path d="M124.96,266.11c.05-.03.1-.05.16-.08-2.03.87-.92.39-.45.2.66-.25,1.34-.49,2.03-.69.36-.11.73-.2,1.09-.28.42-.1,2.13-.3.32-.1.36-.04.72-.05,1.08-.04.55.04.35,0-.61-.11.42.07,1.2.43-.35-.24.45.26.28.11-.5-.45.36.37.25.2-.33-.5.09.14.17.28.25.43-.69-1.29-.29-.71-.16-.24.38,1.34-.05-.91.04,0,.05.47.05.95.05,1.42,0,.6-.33,3.27-.02,1.08-.05.35-.11.71-.18,1.06-.39,1.82-.03,3.67,1.33,5.02,1.63,1.64,4.26,2,6.26.81,3.86-2.29,7.44-5.23,10.15-8.8,2.75-3.61,4.01-8.55,4.24-13.04.12-2.64-2.46-5.41-5.17-5.17-2.28.2-4.55.39-6.84.59-1.11.1-2.25.2-3.37.29-1.58.14-2.61.53-3.86,1.54-.17.13-.34.27-.51.4-3.64,2.92-7.28,5.84-10.92,8.76-2.2,1.77-1.83,5.48,0,7.31,2.15,2.15,5.11,1.75,7.31,0,3.81-3.06,7.63-6.12,11.44-9.18-1.22.5-2.44,1.01-3.65,1.51,3.47-.29,6.93-.6,10.4-.9-1.73-1.72-3.45-3.45-5.17-5.17-.01.29-.04.58-.07.87-.13,1.22.22-1.41,0,0-.08.5-.19.99-.3,1.48-.23,1.05-.55,2.07-.93,3.06.28-.64.31-.71.07-.18-.16.35-.35.7-.54,1.03-.17.31-1.38,1.94-.47.8-.69.87-1.5,1.65-2.32,2.4-.44.4-.91.8-1.38,1.18-.44.35-.36.29.24-.17-.25.2-.51.39-.78.58-.89.66-1.82,1.3-2.78,1.87,2.53,1.95,5.06,3.9,7.59,5.84,1.04-4.84,1.12-11.19-3.52-14.24-4.17-2.74-9.95-.75-14.1,1.11-2.57,1.15-3.16,4.84-1.85,7.07,1.54,2.63,4.5,3.01,7.07,1.86Z"/>
          </g>
          <path class="st4" d="M122.35,261.65s6.73-3.04,9.05-.98c2.33,2.07.97,8.27.97,8.27,0,0,4.84-2.7,8.38-7.18,3.53-4.47,3.45-10.2,3.45-10.2l-10.4.9-11.44,9.18Z"/>
        </g>
      </g>
      <g>
        <rect class="st4" x="112.85" y="262.85" width="8.66" height="15.6"/>
        <path d="M121.51,275.86h-8.66c.86.86,1.72,1.72,2.59,2.59v-15.6c-.87.87-1.73,1.72-2.59,2.59h8.66c-.86-.86-1.73-1.72-2.59-2.59v15.6c0,3.33,5.17,3.33,5.17,0v-15.6c0-1.41-1.18-2.58-2.59-2.58h-8.66c-1.41,0-2.57,1.17-2.57,2.58v15.6c0,1.4,1.17,2.59,2.57,2.59h8.66c3.33,0,3.33-5.17,0-5.17Z"/>
      </g>
      <g>
        <path class="st1" d="M134.93,242.54c0,9.8-7.94,17.74-17.75,17.74s-17.74-7.94-17.74-17.74,7.94-17.74,17.74-17.74,17.75,7.94,17.75,17.74Z"/>
        <path d="M131.69,242.54c-.06,5.19-2.74,9.87-7.19,12.53-4.49,2.69-10.15,2.58-14.65,0-4.48-2.56-7.13-7.42-7.19-12.53-.05-5.15,2.8-9.91,7.19-12.53,4.48-2.68,10.15-2.57,14.65,0,4.47,2.58,7.14,7.42,7.19,12.53.04,4.17,6.5,4.17,6.46,0-.06-6.26-2.85-12.35-7.78-16.28-5.18-4.12-11.81-5.57-18.26-4.07-5.97,1.39-11.21,5.76-13.82,11.27-2.86,6-2.66,12.86.29,18.77,4.31,8.63,14.46,12.8,23.67,10.66,9.31-2.17,15.81-10.95,15.9-20.36.04-4.17-6.42-4.16-6.46,0Z"/>
      </g>
    </g>
    <path class="st21" d="M96.08,260.29c-2.33-2.95-3.09-6.45-3.33-8.5l-2.57-.22s-.09,5.73,3.45,10.2c3.53,4.48,8.38,7.18,8.38,7.18,0,0-.35-1.56-.39-3.38-1.66-1.24-3.77-3.03-5.54-5.28Z"/>
    <path class="st21" d="M138.29,260.26c2.33-2.96,3.08-6.46,3.33-8.5l2.57-.23s.08,5.73-3.45,10.21c-3.53,4.48-8.38,7.18-8.38,7.18,0,0,.34-1.56.39-3.38,1.66-1.24,3.76-3.03,5.54-5.28Z"/>
    <g>
      <g>
        <g>
          <path class="st18" d="M124.37,14.29c0,2.86-4.27,5.17-9.53,5.17s-9.53-2.31-9.53-5.17,4.27-5.17,9.53-5.17,9.53,2.31,9.53,5.17Z"/>
          <path d="M115.32,14.29c0,.16-.01.33-.05.48.12-.8.22-1.6.33-2.4-.05.24-.12.47-.21.7.3-.72.61-1.44.91-2.16-.15.32-.32.59-.54.88.47-.61.95-1.22,1.42-1.83-.32.38-.66.69-1.05.99.61-.47,1.23-.95,1.83-1.42-.55.39-1.12.71-1.73.99.72-.31,1.45-.61,2.17-.91-1.22.51-2.48.81-3.78,1,.8-.1,1.6-.22,2.41-.32-1.47.16-2.92.16-4.37,0,.8.1,1.6.21,2.4.32-1.3-.18-2.56-.49-3.78-1,.72.31,1.44.61,2.16.91-.61-.28-1.18-.59-1.73-.99.61.47,1.22.95,1.84,1.42-.39-.3-.73-.61-1.05-.99.47.61.94,1.22,1.41,1.83-.21-.28-.39-.56-.54-.88.31.72.61,1.44.91,2.16-.09-.23-.16-.46-.21-.7.1.8.21,1.6.32,2.4-.05-.33-.05-.63,0-.97-.11.81-.22,1.6-.32,2.4.05-.24.12-.47.21-.7-.3.71-.61,1.44-.91,2.16.15-.31.32-.6.54-.88-.47.61-.94,1.23-1.41,1.84.31-.37.66-.69,1.05-.99-.61.47-1.22.94-1.84,1.42.55-.39,1.12-.71,1.73-.98-.72.3-1.44.61-2.16.91,1.22-.51,2.47-.81,3.78-1-.8.1-1.6.22-2.4.32,1.46-.17,2.9-.17,4.37,0-.8-.11-1.61-.22-2.41-.32,1.3.18,2.56.49,3.78,1-.72-.3-1.45-.61-2.17-.91.61.28,1.18.59,1.73.98-.6-.47-1.22-.95-1.83-1.42.39.29.73.62,1.05.99-.47-.61-.95-1.22-1.42-1.84.21.28.39.57.54.88-.3-.72-.61-1.44-.91-2.16.09.23.16.46.21.7-.11-.8-.21-1.6-.33-2.4.03.16.05.32.05.48.21,4.92,3.96,9.05,9.05,9.05,4.77,0,9.25-4.12,9.04-9.05-.81-19.05-36.34-19.05-37.15,0-.21,4.78,3.07,8.78,6.85,11.22,3.35,2.16,7.81,2.94,11.73,2.99,8.59.11,18.18-4.68,18.58-14.22.21-4.93-4.27-9.04-9.04-9.04-5.09,0-8.84,4.12-9.05,9.04Z"/>
        </g>
        <path class="st16" d="M124.37,14.29c0,2.86-4.27,5.17-9.53,5.17s-9.53-2.31-9.53-5.17,4.27-5.17,9.53-5.17,9.53,2.31,9.53,5.17Z"/>
      </g>
      <g>
        <g>
          <g>
            <g>
              <path class="st18" d="M10.79,101.85s-1.56,39.06-.42,62.99c1.14,23.92,16.3,32.18,16.3,32.18v-70.21l-15.88-24.96Z"/>
              <path d="M1.73,101.85c-.71,17.95-1.09,35.94-.71,53.9.14,6.66.32,13.34,1.69,19.88,1.17,5.64,3.41,11.24,6.51,16.11,2.18,3.44,4.83,6.72,7.93,9.39,1.54,1.32,3.17,2.71,4.96,3.7,5.97,3.27,13.61-.81,13.61-7.81v-70.13c0-3.04-1.45-4.98-2.94-7.32-1.85-2.9-3.69-5.81-5.54-8.71-2.88-4.53-5.76-9.04-8.63-13.57-2.64-4.15-8.01-5.81-12.38-3.24-4.13,2.42-5.89,8.21-3.24,12.38,5.29,8.32,10.59,16.64,15.88,24.96-.41-1.52-.83-3.04-1.23-4.56v70.21c4.54-2.61,9.08-5.21,13.61-7.81-.73-.4-1.41-.9-2.05-1.4.6.47,1.22.94,1.83,1.41-2.16-1.67-4.06-3.65-5.74-5.81.47.61.95,1.22,1.41,1.83-1.99-2.6-3.62-5.44-4.91-8.45.3.72.61,1.44.91,2.16-1.6-3.82-2.63-7.84-3.19-11.94.1.8.21,1.6.32,2.4-.76-5.93-.7-12-.79-17.98-.08-6.15-.05-12.31.02-18.46.1-9.37.33-18.74.66-28.1.03-1.01.07-2.01.11-3.03.2-4.93-4.27-9.04-9.05-9.04-5.08,0-8.85,4.12-9.05,9.04Z"/>
            </g>
            <path class="st15" d="M10.79,98.36s-1.56,42.55-.42,66.48c1.14,23.92,16.3,32.18,16.3,32.18v-70.21l-15.88-28.45Z"/>
            <path class="st19" d="M13.64,164.84c-.89-18.65-.14-48.64.24-60.94l-3.09-5.54s-1.56,42.55-.42,66.48c1.14,23.92,16.3,32.18,16.3,32.18v-2.4c-4.52-3.92-12.22-12.99-13.03-29.78Z"/>
          </g>
          <g>
            <g>
              <path class="st18" d="M218.89,101.85s1.56,39.06.42,62.99c-1.15,23.92-16.3,32.18-16.3,32.18v-70.21l15.88-24.96Z"/>
              <path d="M209.85,101.85c.72,17.95,1.09,35.94.72,53.9-.1,4.55-.14,9.15-.71,13.66.1-.8.21-1.6.32-2.4-.55,4.1-1.58,8.12-3.18,11.94.31-.72.61-1.44.91-2.16-1.29,3.01-2.92,5.85-4.91,8.45.47-.61.94-1.22,1.41-1.83-1.67,2.16-3.58,4.13-5.73,5.81.61-.47,1.22-.94,1.83-1.41-.65.5-1.33,1-2.06,1.4,4.54,2.6,9.08,5.21,13.61,7.81v-70.21c-.41,1.52-.82,3.04-1.24,4.56,5.29-8.32,10.59-16.64,15.88-24.96,2.65-4.17.88-9.95-3.24-12.38-4.38-2.56-9.73-.91-12.38,3.24-3.28,5.17-6.58,10.33-9.86,15.5-1.77,2.78-3.54,5.56-5.3,8.34-1.12,1.75-1.95,3.44-1.95,5.69v70.2c0,7,7.64,11.08,13.61,7.81,1.84-1.01,3.5-2.44,5.07-3.79,3.19-2.75,5.87-6.2,8.09-9.75,3.17-5.06,5.33-10.92,6.45-16.77,1.28-6.66,1.37-13.45,1.5-20.2.32-17.48-.05-35-.75-52.48-.19-4.92-3.96-9.04-9.04-9.04-4.79,0-9.24,4.11-9.05,9.04Z"/>
            </g>
            <path class="st15" d="M218.89,98.36s1.56,42.55.42,66.48c-1.15,23.92-16.3,32.18-16.3,32.18v-70.21l15.88-28.45Z"/>
            <path class="st19" d="M218.89,98.36l-3.01,5.39c.38,12.21,1.14,42.36.24,61.09-.81,16.89-8.6,25.97-13.11,29.85v2.33s15.15-8.26,16.3-32.18c1.15-23.93-.42-66.48-.42-66.48Z"/>
          </g>
        </g>
        <g>
          <g>
            <path class="st18" d="M28.01,94.71c-.31,12.44,0,85.92,0,85.92,0,33.39,18.71,64.35,88.44,64.06,69.03-.29,85.36-30.67,85.36-64.06v-85.92H28.01Z"/>
            <path d="M18.97,94.71c-.36,14.6-.15,29.23-.13,43.83.02,13.75.06,27.5.12,41.25.06,14.32,2.91,28.93,11.17,40.91,5.35,7.78,12.3,14.13,20.42,18.95,9.32,5.54,19.95,8.99,30.56,11.05,14.27,2.76,28.96,3.45,43.47,2.86,12.93-.51,26.1-2.12,38.45-6.11,9.93-3.2,19.14-7.96,27.06-14.79,6.1-5.27,11.12-12.07,14.35-19.44,3.55-8.09,5.41-16.39,6.12-25.21.31-3.86.28-7.73.28-11.6v-81.69c0-4.93-4.12-9.05-9.05-9.05H28.01c-4.93,0-9.04,4.12-9.04,9.05s4.11,9.05,9.04,9.05h173.8c-3.01-3.01-6.03-6.03-9.05-9.05v77.13c0,6.79.16,13.59-.73,20.34.1-.81.21-1.61.32-2.41-.73,5.45-2.07,10.81-4.19,15.89.3-.72.61-1.44.91-2.16-1.67,3.95-3.82,7.67-6.42,11.07.47-.61.94-1.22,1.41-1.83-2.61,3.36-5.64,6.34-8.99,8.96.61-.47,1.22-.95,1.82-1.41-4.31,3.33-9.1,6-14.12,8.13.72-.3,1.44-.61,2.16-.91-8.57,3.61-17.7,5.69-26.9,6.94.8-.1,1.6-.21,2.41-.32-16.25,2.16-33.05,2.19-49.3.05.8.11,1.6.21,2.4.32-9.36-1.26-18.65-3.38-27.38-7.04.72.3,1.44.61,2.16.91-5.25-2.22-10.26-5-14.79-8.47.61.47,1.22.94,1.84,1.41-3.53-2.74-6.72-5.88-9.46-9.4.47.62.95,1.22,1.41,1.83-2.69-3.48-4.91-7.3-6.64-11.36.31.72.61,1.44.91,2.16-2.11-5.02-3.46-10.32-4.19-15.71.1.81.21,1.61.32,2.41-.6-4.53-.67-9.06-.69-13.62-.02-6.28-.04-12.56-.06-18.84-.05-17.53-.1-35.05-.04-52.59.01-3.82.01-7.65.12-11.47.12-4.93-4.21-9.05-9.05-9.05s-8.93,4.12-9.04,9.05Z"/>
          </g>
          <path class="st1" d="M28.01,94.71c-.31,12.44,0,85.92,0,85.92,0,33.39,18.71,64.35,88.44,64.06,69.03-.29,85.36-30.67,85.36-64.06v-85.92H28.01Z"/>
        </g>
        <g>
          <g>
            <g>
              <path class="st18" d="M66.21,34.27l.16-.48S25.46,50.97,14.61,86.46c-10.85,35.49-2.49,60.58-2.49,60.58l19.44-13.56s-7.2-68.73,34.65-99.21Z"/>
              <path d="M74.94,36.67c.05-.16.11-.32.17-.48,1.04-2.98-.17-6.64-2.33-8.8-2.06-2.06-5.93-3.54-8.8-2.33-12.84,5.4-24.73,13.45-34.86,22.97-8.36,7.86-15.67,17.34-20.16,27.95C2.99,90.02.28,105.66.01,120.87c-.12,7.16.51,14.32,1.73,21.37.42,2.41.89,4.87,1.66,7.2.76,2.28,2.04,4.17,4.16,5.4,2.62,1.54,6.54,1.81,9.13,0,6.48-4.52,12.96-9.04,19.44-13.56,2.45-1.72,4.81-4.55,4.47-7.81-1.01-9.71-.56-19.73.46-29.41.15-1.46.33-2.92.52-4.37-.1.8-.21,1.61-.32,2.4,1.5-11.14,4.17-22.17,8.54-32.54-.3.72-.6,1.44-.91,2.16,2.87-6.74,6.46-13.15,10.91-18.97-.47.61-.94,1.22-1.41,1.83,3.67-4.75,7.87-9.03,12.61-12.72-.61.47-1.22.94-1.82,1.41.53-.4,1.05-.8,1.58-1.2,1.98-1.45,3.49-2.95,4.16-5.4.64-2.33.31-4.88-.92-6.97-1.18-2.02-3.14-3.53-5.4-4.16-2.13-.59-5.1-.45-6.97.92-9.71,7.11-17.67,16.02-23.63,26.49-5.28,9.27-9.02,19.51-11.52,29.87-3.62,15.03-5.01,30.83-4.28,46.27.07,1.46.15,2.93.31,4.39,1.49-2.6,2.98-5.21,4.48-7.81-6.48,4.53-12.97,9.05-19.44,13.56,4.43,1.81,8.86,3.61,13.29,5.41-1.12-3.38-1.69-7-2.17-10.52.11.8.21,1.61.32,2.4-1.33-9.88-1.14-19.92.19-29.79-.12.8-.22,1.61-.33,2.41,1.22-8.87,3.16-17.9,6.62-26.18-.31.72-.61,1.45-.91,2.16,2.4-5.67,5.6-10.95,9.36-15.83-.47.61-.94,1.22-1.42,1.83,5.03-6.46,10.98-12.15,17.46-17.15-.62.47-1.22.94-1.83,1.42,6.98-5.37,14.66-10.34,22.8-13.79-.73.3-1.44.61-2.17.91h0c-3.71-3.71-7.42-7.43-11.13-11.13-.05.16-.1.32-.17.48-1.63,4.66,1.81,9.88,6.33,11.13,4.99,1.37,9.5-1.67,11.12-6.32Z"/>
            </g>
            <path class="st11" d="M66.21,34.27l.16-.48S25.46,50.97,14.61,86.46c-10.85,35.49-2.49,60.58-2.49,60.58l19.44-13.56s-7.2-68.73,34.65-99.21Z"/>
            <path class="st16" d="M19.83,86.46c9.89-29.84,46.55-52.67,46.55-52.67,0,0-40.91,17.18-51.76,52.67-10.85,35.49-2.49,60.58-2.49,60.58l4.39-3.06c-1.81-7.71-5.97-29.54,3.31-57.52Z"/>
          </g>
          <g>
            <g>
              <path class="st18" d="M163.47,34.27l-.17-.48s40.91,17.18,51.76,52.67c10.85,35.49,2.49,60.58,2.49,60.58l-19.44-13.56s7.2-68.73-34.64-99.21Z"/>
              <path d="M172.19,31.86c-.05-.16-.11-.32-.17-.48-3.71,3.71-7.41,7.42-11.12,11.13h0c-.72-.31-1.44-.61-2.16-.91,8.14,3.44,15.82,8.42,22.8,13.79-.61-.47-1.22-.95-1.83-1.42,6.47,5,12.42,10.68,17.45,17.15-.47-.61-.94-1.22-1.41-1.83,3.76,4.88,6.96,10.16,9.37,15.83-.31-.71-.61-1.44-.92-2.16,3.46,8.28,5.39,17.31,6.62,26.18-.1-.8-.22-1.61-.32-2.41,1.32,9.87,1.51,19.91.19,29.79.1-.8.21-1.6.32-2.4-.47,3.52-1.05,7.13-2.16,10.52,4.42-1.8,8.85-3.6,13.28-5.41-6.48-4.52-12.96-9.04-19.44-13.56,1.5,2.61,2.99,5.21,4.48,7.81,1.02-9.71.56-19.73-.46-29.41-2.16-20.61-7.62-41.67-19.9-58.69-5.31-7.35-11.45-13.56-18.77-18.91-1.87-1.37-4.83-1.51-6.96-.92-2.26.62-4.23,2.13-5.41,4.16-1.22,2.09-1.55,4.64-.91,6.97.67,2.45,2.18,3.95,4.16,5.4.53.39,1.06.79,1.59,1.2-.61-.47-1.22-.95-1.83-1.41,4.73,3.69,8.95,7.97,12.61,12.72-.47-.61-.95-1.22-1.41-1.83,4.46,5.82,8.05,12.23,10.92,18.97-.31-.72-.61-1.44-.91-2.16,4.38,10.38,7.05,21.4,8.54,32.54-.1-.8-.21-1.6-.32-2.4,1.47,11.03,2.03,22.41,1.01,33.52-.01.09-.02.18-.03.27-.34,3.26,2.02,6.1,4.48,7.81,6.48,4.52,12.96,9.04,19.44,13.56,1.92,1.33,4.8,1.51,6.97.91,3.16-.87,5.31-3.28,6.32-6.31,1.78-5.36,2.41-11.24,2.94-16.8,1.26-13.32-.1-26.94-3.1-39.94-1.66-7.18-3.94-14.15-7.25-20.76-2.78-5.55-6.41-10.6-10.33-15.4-6.64-8.14-14.85-14.96-23.5-20.87-6.09-4.16-12.54-7.75-19.33-10.61-2.87-1.21-6.75.27-8.81,2.33-2.15,2.16-3.37,5.81-2.32,8.8.06.16.11.32.17.48,1.62,4.65,6.13,7.69,11.13,6.32,4.5-1.25,7.94-6.47,6.32-11.13Z"/>
            </g>
            <path class="st11" d="M163.47,34.27l-.17-.48s40.91,17.18,51.76,52.67c10.85,35.49,2.49,60.58,2.49,60.58l-19.44-13.56s7.2-68.73-34.64-99.21Z"/>
          </g>
        </g>
        <path class="st16" d="M209.85,86.46c-9.89-29.84-46.55-52.67-46.55-52.67,0,0,40.91,17.18,51.76,52.67,10.85,35.49,2.49,60.58,2.49,60.58l-4.39-3.06c1.81-7.71,5.98-29.54-3.3-57.52Z"/>
        <g>
          <g>
            <path class="st18" d="M114.84,20.4c-95.54,0-83.63,113.47-83.63,113.47,0,0,33.6-20.34,83.63-20.34s83.63,20.34,83.63,20.34c0,0,11.91-113.47-83.63-113.47Z"/>
            <path d="M114.84,11.35c-19.32.02-39.3,4.57-54.88,16.48-7.11,5.43-13.08,11.67-18.21,19.01-4.53,6.46-7.93,13.57-10.8,20.89-5.03,12.79-7.5,26.52-8.66,40.17-.68,7.97-.84,16.03-.28,24.01.05.65.09,1.3.16,1.96.34,3.27,1.51,6.07,4.48,7.81,2.76,1.62,6.37,1.66,9.13,0,4.08-2.46,8.52-4.43,12.9-6.28-.72.31-1.44.61-2.16.92,14.7-6.18,30.27-10.28,46.06-12.41-.8.1-1.6.21-2.41.32,16.38-2.18,32.99-2.18,49.37,0-.8-.11-1.6-.22-2.4-.32,15.8,2.14,31.35,6.23,46.06,12.41-.72-.31-1.44-.61-2.16-.92,4.38,1.85,8.81,3.82,12.89,6.28,2.76,1.66,6.37,1.62,9.14,0,2.97-1.74,4.13-4.54,4.48-7.81.53-5.14.54-10.36.43-15.52-.27-12.56-1.82-25.23-4.96-37.4-3.91-15.14-10.62-29.49-20.74-41.48-11.4-13.5-27.65-22.39-44.88-25.89-7.4-1.5-14.99-2.21-22.54-2.22-4.94,0-9.05,4.12-9.05,9.04s4.11,9.04,9.05,9.05c4.72,0,9.43.28,14.11.9-.8-.11-1.6-.21-2.4-.32,7.23.97,14.33,2.76,21.07,5.59-.72-.31-1.44-.61-2.17-.92,5.47,2.31,10.62,5.29,15.32,8.9-.61-.47-1.22-.94-1.82-1.42,4.72,3.66,8.93,7.93,12.59,12.64-.47-.61-.94-1.22-1.41-1.83,4.53,5.87,8.16,12.35,11.05,19.17-.31-.71-.61-1.44-.92-2.16,4.36,10.32,7.01,21.29,8.51,32.38-.1-.8-.21-1.6-.32-2.4,1.26,9.47,1.73,19.08,1.33,28.64-.07,1.75-.16,3.52-.34,5.26,4.53-2.6,9.07-5.21,13.61-7.81-3.08-1.87-6.4-3.4-9.67-4.88-9.25-4.16-18.8-7.59-28.6-10.19-28.78-7.64-59.06-8.39-88.24-2.68-10.71,2.1-21.26,5.16-31.42,9.17-5.93,2.33-11.86,4.88-17.43,7.99-.35.19-.69.39-1.03.59,4.54,2.6,9.07,5.21,13.61,7.81-.54-5.14-.54-10.36-.43-15.52.13-6.15.61-12.29,1.42-18.38-.11.8-.21,1.6-.32,2.4,1.49-11.08,4.14-22.05,8.5-32.38-.3.72-.61,1.44-.91,2.16,2.89-6.81,6.52-13.3,11.04-19.17-.47.61-.94,1.22-1.42,1.83,3.66-4.72,7.87-8.98,12.59-12.64-.61.48-1.22.95-1.83,1.42,4.7-3.62,9.86-6.59,15.32-8.9-.72.31-1.44.61-2.17.92,6.74-2.82,13.84-4.62,21.07-5.59-.8.11-1.6.22-2.41.32,4.68-.61,9.39-.89,14.12-.9,4.93,0,9.05-4.11,9.05-9.05s-4.11-9.05-9.05-9.04Z"/>
          </g>
          <path class="st4" d="M114.84,20.4c-95.54,0-83.63,113.47-83.63,113.47,0,0,33.6-20.34,83.63-20.34s83.63,20.34,83.63,20.34c0,0,11.91-113.47-83.63-113.47Z"/>
          <path class="st13" d="M114.84,26.6c73.86,0,83.5,67.82,84.08,98.6.5-26.53-4.73-104.8-84.08-104.8S30.25,98.68,30.76,125.2c.57-30.78,10.22-98.6,84.08-98.6Z"/>
          <path class="st21" d="M198.47,124.3s-33.61-20.34-83.64-20.34-83.63,20.34-83.63,20.34c0,0-.22-2.05-.36-5.62-.4,10.8.36,18.03.36,18.03,0,0,33.6-20.35,83.63-20.35s83.64,20.35,83.64,20.35c0,0,.76-7.23.35-18.03-.13,3.56-.35,5.62-.35,5.62Z"/>
        </g>
        <path class="st20" d="M191.07,165.72s-2.29,2.38-9.16,2.54c-6.86.16-30.78-16.23-67-16.23h-.14c-36.22,0-60.14,16.39-67,16.23-6.87-.16-9.16-2.54-9.16-2.54l-10.7-8.42c0,2.83.02,7.09.03,9.67l10.07,7.5s2.89,1.78,9.76,1.94c6.86.16,30.78-16.23,67-16.23.02,0,.04,0,.06,0h.03s.04,0,.05,0c36.23,0,60.14,16.39,67,16.23,6.88-.16,9.16-1.79,9.16-1.79l10.74-7.2v-10.16l-10.74,8.46Z"/>
        <g>
          <path class="st16" d="M114.92,118.91s-.06,0-.07,0c-.03,0-.06,0-.09,0-70.32,0-89.88,31.18-89.88,31.18l13.74,10.83s2.29,2.38,9.16,2.54c6.86.16,30.78-16.23,67-16.23h.14c36.23,0,60.14,16.39,67,16.23,6.88-.16,9.16-2.54,9.16-2.54l13.74-10.83s-19.57-31.18-89.89-31.18Z"/>
          <path d="M114.92,109.87c-24.18.22-48.58,3.38-70.58,13.96-6.42,3.09-12.35,6.97-17.84,11.5-2.6,2.16-5.09,4.52-7.17,7.2-.74.94-1.6,1.95-2.26,3-1.97,3.12-1.66,8.54,1.42,10.96,4.57,3.6,9.14,7.21,13.72,10.81,1.3,1.03,2.44,2.03,3.95,2.69,3.77,1.62,7.64,2.55,11.8,2.52,3.2-.03,6.27-1.14,9.21-2.29,5.92-2.31,11.75-4.82,17.76-6.89,8.52-2.94,17.29-5.11,26.23-6.31-.8.1-1.61.21-2.41.32,10.68-1.41,21.5-1.41,32.18,0-.8-.11-1.6-.21-2.4-.32,11.77,1.59,23.15,4.92,34.19,9.25,3.64,1.42,7.22,2.97,10.87,4.36,3.28,1.24,6.59,2.06,10.13,1.77,5.08-.4,9.67-1.7,13.61-4.97.99-.81,2-1.59,3.01-2.38,3.62-2.86,7.25-5.71,10.87-8.56,3.08-2.42,3.38-7.84,1.41-10.96-4.19-6.66-11.02-11.94-17.47-16.18-7.1-4.67-14.99-8.18-22.99-10.98-11.32-3.97-23.18-6.09-35.09-7.38-7.35-.79-14.74-1.12-22.13-1.12-4.93,0-9.04,4.12-9.04,9.04s4.11,9.04,9.04,9.05c8.95,0,17.91.51,26.8,1.69-.8-.11-1.6-.22-2.41-.32,11.83,1.59,23.55,4.36,34.56,9.01-.72-.3-1.44-.6-2.16-.91,6.67,2.83,13.09,6.34,18.83,10.78-.61-.47-1.22-.94-1.83-1.41,3.25,2.52,6.36,5.32,8.88,8.58-.47-.61-.95-1.22-1.41-1.83.28.36.56.73.81,1.12.47-3.66.94-7.31,1.42-10.97-4.67,3.68-9.35,7.34-13.99,11.04.62-.47,1.23-.94,1.84-1.41-.57.43-1.2.76-1.85,1.04.72-.3,1.43-.61,2.16-.91-1.3.53-2.67.85-4.06,1.06.81-.11,1.6-.22,2.41-.33-1.28.17-2.6.34-3.88.18.8.11,1.61.22,2.4.33-2.63-.36-5.19-1.53-7.64-2.51-4.02-1.62-8.02-3.29-12.08-4.8-12.38-4.6-25.2-7.56-38.36-8.73-14.41-1.28-29.11.17-43.13,3.65-9.77,2.42-19.04,6.13-28.35,9.88-2.45.98-5,2.15-7.64,2.51.8-.11,1.6-.22,2.41-.33-1.29.16-2.61-.01-3.89-.18.8.11,1.6.22,2.41.33-1.39-.21-2.75-.53-4.05-1.06.72.3,1.44.61,2.16.91-.66-.28-1.29-.6-1.86-1.04.61.47,1.22.94,1.83,1.41-4.64-3.7-9.32-7.37-13.99-11.04.47,3.65.94,7.31,1.41,10.97.25-.39.53-.76.81-1.12-.47.61-.95,1.22-1.41,1.83,2.52-3.26,5.63-6.07,8.88-8.58-.61.47-1.23.94-1.84,1.41,5.75-4.44,12.16-7.94,18.83-10.78-.72.3-1.44.61-2.16.91,11.01-4.64,22.73-7.42,34.56-9.01-.8.1-1.6.21-2.4.32,8.95-1.18,17.93-1.6,26.95-1.69,4.94-.05,9.05-4.09,9.05-9.05s-4.11-9.09-9.05-9.04Z"/>
        </g>
        <path class="st11" d="M114.92,118.91s-.06,0-.07,0c-.03,0-.06,0-.09,0-70.32,0-89.88,31.18-89.88,31.18l13.74,10.83s2.29,2.38,9.16,2.54c6.86.16,30.78-16.23,67-16.23h.14c36.23,0,60.14,16.39,67,16.23,6.88-.16,9.16-2.54,9.16-2.54l13.74-10.83s-19.57-31.18-89.89-31.18Z"/>
        <path class="st22" d="M114.76,122.79h.16c58.34,0,81.74,21.46,88.03,28.78l1.87-1.47s-19.57-31.18-89.89-31.18c-.02,0-.06,0-.07,0-.03,0-.06,0-.09,0-70.32,0-89.88,31.18-89.88,31.18l1.86,1.47c6.28-7.32,29.69-28.78,88.02-28.78Z"/>
        <path class="st16" d="M191.07,156.18s-2.29,2.38-9.16,2.54c-6.86.16-30.78-16.23-67-16.23-.02,0-.04,0-.05,0h-.03s-.04,0-.06,0c-36.22,0-60.14,16.39-67,16.23-6.87-.16-9.16-2.54-9.16-2.54l-11.42-9.01c-1.61,1.81-2.31,2.92-2.31,2.92l13.74,10.83s2.29,2.38,9.16,2.54c6.86.16,30.78-16.23,67-16.23h.14c36.23,0,60.14,16.39,67,16.23,6.88-.16,9.16-2.54,9.16-2.54l13.74-10.83s-.7-1.11-2.32-2.92l-11.42,9.01Z"/>
        <g>
          <g>
            <g>
              <g>
                <path class="st3" d="M48.89,190.08c0,8.19,6.64,14.81,14.82,14.81s14.81-6.63,14.81-14.81-6.63-14.81-14.81-14.81-14.82,6.63-14.82,14.81Z"/>
                <path d="M48.25,190.08c.07,5.59,3.02,10.66,7.86,13.46,4.86,2.83,11.04,2.56,15.79-.35,4.75-2.9,7.45-8.32,7.25-13.83-.2-5.52-3.57-10.53-8.43-13.06-4.77-2.49-10.64-2.12-15.19.66-4.54,2.78-7.21,7.86-7.28,13.12,0,.83,1.29.83,1.29,0,.08-6.15,4.01-11.56,9.85-13.49,5.87-1.94,12.41.42,15.94,5.4,3.58,5.04,3.27,12.03-.5,16.87-3.78,4.85-10.36,6.54-16.08,4.5-5.55-1.98-9.14-7.48-9.21-13.28,0-.83-1.3-.83-1.29,0Z"/>
              </g>
              <path class="st2" d="M54.15,195.53c0,1.32,1.07,2.4,2.4,2.4s2.4-1.08,2.4-2.4-1.08-2.41-2.4-2.41-2.4,1.07-2.4,2.41Z"/>
              <path class="st2" d="M62.28,188.1c0,3.42,2.77,6.19,6.19,6.19s6.19-2.77,6.19-6.19-2.77-6.2-6.19-6.2-6.19,2.78-6.19,6.2Z"/>
            </g>
            <path class="st14" d="M65.58,211.62c.72,1.96-2.36,4.88-6.86,6.51-4.51,1.63-8.74,1.36-9.45-.6-.71-1.96,2.36-4.88,6.87-6.51,4.5-1.63,8.73-1.37,9.44.6Z"/>
          </g>
          <g>
            <g>
              <g>
                <path class="st3" d="M152.08,190.08c0,8.19,6.63,14.81,14.81,14.81s14.81-6.63,14.81-14.81-6.63-14.81-14.81-14.81-14.81,6.63-14.81,14.81Z"/>
                <path d="M151.44,190.08c.06,5.59,3.02,10.66,7.85,13.46,4.87,2.83,11.04,2.56,15.8-.35,4.75-2.9,7.46-8.32,7.26-13.83-.2-5.52-3.57-10.53-8.43-13.06-4.77-2.49-10.64-2.12-15.2.66-4.54,2.78-7.22,7.86-7.27,13.12-.01.83,1.28.83,1.29,0,.08-6.15,4-11.56,9.85-13.49,5.87-1.94,12.41.42,15.94,5.4,3.57,5.04,3.27,12.03-.5,16.87-3.78,4.85-10.36,6.54-16.09,4.5-5.54-1.98-9.13-7.49-9.2-13.28-.01-.83-1.3-.83-1.29,0Z"/>
              </g>
              <path class="st2" d="M157.34,195.53c0,1.32,1.07,2.4,2.4,2.4s2.41-1.08,2.41-2.4-1.07-2.41-2.41-2.41-2.4,1.07-2.4,2.41Z"/>
              <path class="st2" d="M165.47,188.1c0,3.42,2.77,6.19,6.19,6.19s6.19-2.77,6.19-6.19-2.78-6.2-6.19-6.2-6.19,2.78-6.19,6.2Z"/>
            </g>
            <path class="st14" d="M165.02,211.62c-.71,1.96,2.37,4.88,6.87,6.51,4.5,1.63,8.73,1.36,9.45-.6.71-1.96-2.36-4.88-6.86-6.51-4.51-1.63-8.73-1.37-9.45.6Z"/>
          </g>
        </g>
        <g>
          <path class="st13" d="M157.82,43.7c8.8,5.67,13.72,13.68,11.01,17.9-2.71,4.21-12.05,3.04-20.85-2.62-8.8-5.67-13.73-13.68-11.01-17.9,2.71-4.21,12.05-3.04,20.85,2.62Z"/>
          <path class="st13" d="M176.47,67.68c-.62,1.84-2.62,2.83-4.45,2.2-1.84-.62-2.82-2.61-2.21-4.44.62-1.84,2.62-2.82,4.45-2.21,1.84.62,2.82,2.61,2.21,4.44Z"/>
        </g>
        <g>
          <g>
            <g>
              <path d="M81.01,209.95c.32,13.47,15.55,24.32,34.3,24.32s33.97-10.85,34.29-24.32h-68.59Z"/>
              <path d="M75.84,209.95c.43,13.29,11.19,22.51,22.9,26.75,12.98,4.7,28.63,3.46,40.62-3.39,8.52-4.88,15.09-13.29,15.41-23.36.09-2.81-2.42-5.17-5.17-5.17h-68.59c-2.82,0-5.17,2.36-5.17,5.17s2.35,5.17,5.17,5.17h68.59c-1.72-1.73-3.44-3.45-5.17-5.17-.02.61-.06,1.2-.13,1.8.21-1.81-.09.23-.18.67-.14.58-.32,1.14-.5,1.71-.09.29-.21.56-.31.84.59-1.54.07-.2-.08.13-.53,1.1-1.17,2.14-1.87,3.13-.18.25-.88,1.13.05-.05-.19.24-.4.48-.6.72-.48.56-1,1.1-1.53,1.63-.47.46-.96.89-1.46,1.32-.25.22-.51.43-.77.64,1.14-.91.21-.17-.02,0-1.21.88-2.49,1.67-3.82,2.39-.63.34-1.27.66-1.92.96-.32.16-.66.3-.99.45,1.29-.57.12-.06-.13.04-1.52.59-3.09,1.08-4.68,1.49-1.52.4-3.07.71-4.62.94-1.36.21,1.14-.14-.23.02-.4.04-.81.08-1.21.12-.96.09-1.92.13-2.88.16-1.66.05-3.33,0-4.98-.13-.41-.03-.81-.08-1.22-.12-.24-.02-1.61-.19-.22,0-.92-.12-1.84-.29-2.75-.46-1.51-.31-3.01-.7-4.48-1.16-.71-.22-1.42-.47-2.12-.73-.35-.13-.69-.27-1.03-.41,1.36.55-.18-.09-.43-.21-1.29-.59-2.54-1.28-3.75-2.02-.58-.36-1.15-.74-1.72-1.14-.27-.19-.55-.39-.81-.6,1.22.92-.01-.04-.25-.24-1.15-.96-2.21-2.04-3.19-3.19-.2-.24-.9-1.14.02.07-.25-.33-.48-.66-.71-1.01-.4-.58-.76-1.2-1.11-1.82-.22-.4-1.14-2.55-.5-.94-.26-.65-.46-1.31-.66-1.97-.19-.67-.32-1.35-.44-2.03.27,1.62.07.56.04.19-.04-.4-.06-.8-.07-1.2-.09-2.81-2.29-5.17-5.17-5.17s-5.26,2.36-5.17,5.17Z"/>
            </g>
            <path class="st6" d="M115.14,231.82c9.29,0,17.66-2.64,23.11-7.46-5.45-4.65-13.66-8.05-22.77-8.05s-17.84,3.38-23.29,8.2c5.45,4.65,13.85,7.32,22.95,7.32Z"/>
          </g>
          <path class="st4" d="M123.55,219.25c2.91.55,5.13,1.7,4.97,2.58-.17.88-2.66,1.14-5.57.6-2.91-.54-5.14-1.7-4.97-2.58.16-.88,2.65-1.14,5.57-.6Z"/>
          <path class="st4" d="M130.83,222.59c.02.48-.38.88-.85.89-.49,0-.88-.38-.9-.86,0-.48.38-.88.85-.89.49,0,.89.38.89.87Z"/>
        </g>
      </g>
    </g>
  </g>
  <g>
    <g>
      <g>
        <rect class="st18" x="135.22" y="246.77" width="41.95" height="41.95"/>
        <path d="M135.22,295.83h41.95c3.87,0,7.11-3.23,7.11-7.11v-41.95c0-3.87-3.23-7.11-7.11-7.11h-41.95c-3.87,0-7.11,3.23-7.11,7.11v41.95c0,3.88,3.24,7.11,7.11,7.11s7.11-3.23,7.11-7.11v-41.95c-2.37,2.37-4.73,4.74-7.11,7.11h41.95c-2.37-2.37-4.74-4.73-7.11-7.11v41.95c2.37-2.37,4.74-4.74,7.11-7.11h-41.95c-3.87,0-7.11,3.24-7.11,7.11s3.24,7.11,7.11,7.11Z"/>
      </g>
      <rect class="st17" x="135.22" y="246.77" width="41.95" height="41.95"/>
      <polygon class="st5" points="135.22 246.77 135.22 248.4 175.35 248.4 175.35 288.72 177.17 288.72 177.17 246.77 135.22 246.77"/>
      <polygon class="st10" points="177.17 288.72 177.17 287.08 137.02 287.08 137.02 246.77 135.22 246.77 135.22 288.72 177.17 288.72"/>
    </g>
    <g>
      <g>
        <rect class="st18" x="151.68" y="246.95" width="10.22" height="17.02"/>
        <path d="M151.68,271.07h10.22c3.88,0,7.11-3.23,7.11-7.11v-17.02c0-3.88-3.23-7.11-7.11-7.11h-10.22c-3.87,0-7.11,3.23-7.11,7.11v17.02c0,3.87,3.23,7.11,7.11,7.11s7.11-3.23,7.11-7.11v-17.02c-2.37,2.37-4.74,4.73-7.11,7.1h10.22c-2.37-2.37-4.73-4.73-7.11-7.1v17.02c2.37-2.37,4.74-4.74,7.11-7.11h-10.22c-3.87,0-7.11,3.23-7.11,7.11s3.23,7.11,7.11,7.11Z"/>
      </g>
      <rect class="st0" x="151.68" y="246.95" width="10.22" height="17.02"/>
      <rect class="st8" x="160.85" y="246.95" width="1.06" height="17.02"/>
      <rect class="st9" x="151.68" y="246.95" width="1.06" height="17.02"/>
    </g>
    <g>
      <path class="st7" d="M139.45,279.41l.33.92-.76-.08.64,1.36h-.28s.32.95.32.95l-.08-.69.52.03-.39-1.17.69.09-.27-1.43h1.46v2.85c0,.96-.75,1.75-1.69,1.83v2.24h.94v.28h-2.17v-.28h.95v-2.24c-.95-.08-1.7-.87-1.7-1.83v-2.85h1.47Z"/>
      <g>
        <rect class="st7" x="142.51" y="285.81" width="6.12" height=".81"/>
        <g>
          <polygon class="st7" points="146.22 280.29 147.15 279.37 148.07 280.29 147.66 280.29 147.66 285.27 146.64 285.27 146.64 280.29 146.22 280.29"/>
          <polygon class="st7" points="143.07 280.29 143.99 279.37 144.91 280.29 144.5 280.29 144.5 285.27 143.48 285.27 143.48 280.29 143.07 280.29"/>
        </g>
      </g>
      <path d="M152.74,282.36h2.94c-.14-1.71-1.57-3.07-3.31-3.07s-3.18,1.35-3.32,3.07h2.89v3.18c-.2.09-.36.08-.49-.03-.38-.34-.94.21-.56.56.51.46,1.25.49,1.7-.06.23-.28.14-.75.14-1.09v-2.56ZM151.94,285.58v.04c0,.1,0,.03,0-.04Z"/>
    </g>
    <g>
      <g>
        <path d="M174.13,292.24c6.99-6.41-2.75-13.17-7.3-8.58-4.55,4.59-.67,15.87,7.3,8.58"/>
        <path d="M178.69,296.8c2.6-2.46,4.4-5.8,4.34-9.44-.06-3.96-2.23-7.04-5.25-9.37-2.12-1.63-5.3-2.54-7.98-2.26-4,.41-7.01,2.26-9.31,5.58-2.83,4.11-2.83,10.9.1,14.96,2.12,2.93,4.97,4.7,8.66,4.82,3.61.12,6.86-1.98,9.44-4.28,2.63-2.35,2.38-6.75,0-9.14-2.59-2.59-6.51-2.34-9.14,0-.32.29-1.41,1.13.16-.06-.34.25-.71.48-1.08.69-1.38.79,1.2-.41.28-.12-1.4.46,1.52-.09.56-.02-1.37.1,1.59.33.67.14-1.28-.25,1.44.72.62.3-1.14-.59,1.21,1.05.52.44-.43-.39-1.03-1.36.35.54-.16-.23-.29-.47-.42-.72-.45-.87.67,1.85.25.53-.09-.28-.16-.58-.21-.88-.2-1,.18,2.02.1.57-.02-.32,0-.63.01-.94.06-1.04-.35,1.98-.06.54.06-.3.16-.61.27-.91.32-.96-.85,1.74-.17.47.11-.21.24-.4.38-.6-1.24,1.8-.65.83-.2.39-1.4,1.35-.81.58-.22.25-1.77.97-1.02.39-.35.22,1.01-.25-1.97.12-.47.1,1.5-.02-1.49-.29-.47-.09.33.07.65.18.97.3-2.07-.76-.94-.4-.42-.09,1.27.75-1.06-.92-.32-.25.43.39,1.12,1.44-.2-.38.33.46.8,1.67-.08-.47.23.55.35,1.85.05-.52.08.6-.18,1.87.18-.44-.09.55-.67,1.77.21-.2-.18.4-.42.76-.67,1.11,1.15-1.65.13-.28-.25.08-2.55,2.43-2.44,6.7,0,9.14,2.55,2.54,6.59,2.42,9.14,0h0Z"/>
      </g>
      <path class="st1" d="M174.13,292.24c6.99-6.41-2.75-13.17-7.3-8.58-4.55,4.59-.67,15.87,7.3,8.58"/>
      <path class="st12" d="M173.58,291.62c3.04-2.78,2.92-5.63,1.44-7.59,1.96,1.93,2.48,5.12-.89,8.2-3.67,3.35-6.48,2.77-7.99.72,1.6,1.52,4.18,1.66,7.45-1.33Z"/>
      <path class="st20" d="M176.2,285.77c-2.14-1.36-5.12-1.53-7.11.48-2.07,2.08-2.4,5.55-1.39,8.03-3.2-1.5-3.92-7.56-.88-10.63,2.92-2.95,7.99-1.21,9.38,2.11Z"/>
    </g>
  </g>
  <g>
    <g>
      <g>
        <g>
          <rect class="st18" x="47.73" y="262.36" width="33.85" height="45.65" rx="2.48" ry="2.48"/>
          <path d="M75.77,305.53c.13-1.89,1.72-3.33,3.22-3.33h-28.35c-.51,0-.9-.16.46.12,1.49.31,2.45,2.13,2.45,3.11v-40.53c0,1.64-1.5,3.28-3.33,3.28h28.82c-1.67,0-3.28-1.52-3.28-3.31v40.66c0,3.17,2.65,5.81,5.81,5.81s5.82-2.64,5.82-5.81v-40.39c0-3.11-1.55-6.18-4.4-7.61-2.73-1.37-6.04-.99-9.01-.99h-22.3c-1.15,0-2.19-.01-3.36.23-3.83.78-6.41,4.43-6.41,8.24v40.49c0,4.55,3.8,8.33,8.35,8.33h28.81c4.75,0,8.02-3.78,8.33-8.3.21-3.16-2.81-5.81-5.82-5.81-3.33,0-5.6,2.65-5.81,5.81Z"/>
        </g>
        <rect class="st6" x="47.73" y="262.36" width="33.85" height="45.65" rx="2.48" ry="2.48"/>
        <path class="st22" d="M48.59,305.53v-40.69c0-1.37,1.11-2.48,2.48-2.48h-.86c-1.37,0-2.48,1.12-2.48,2.48v40.69c0,1.38,1.11,2.48,2.48,2.48h.86c-1.37,0-2.48-1.11-2.48-2.48Z"/>
        <path class="st16" d="M80.72,305.53v-40.69c0-1.37-1.11-2.48-2.48-2.48h.86c1.37,0,2.48,1.12,2.48,2.48v40.69c0,1.38-1.11,2.48-2.48,2.48h-.86c1.37,0,2.48-1.11,2.48-2.48Z"/>
        <g>
          <path class="st4" d="M76.15,265.98h-22.99c-1.09,0-1.98.89-1.98,1.97v34.46c0,1.09.89,1.98,1.98,1.98h22.99c1.1,0,1.98-.89,1.98-1.98v-34.46c0-1.08-.88-1.97-1.98-1.97Z"/>
          <path d="M76.15,307.62h-22.99c-2.87,0-5.2-2.33-5.2-5.2v-34.46c0-2.87,2.33-5.2,5.2-5.2h22.99c2.87,0,5.2,2.33,5.2,5.2v34.46c0,2.87-2.33,5.2-5.2,5.2ZM54.4,301.18h20.51v-31.97h-20.51v31.97Z"/>
        </g>
      </g>
      <g>
        <g>
          <path class="st18" d="M69.69,260.49h-10.08c-.71,0-1.29.57-1.29,1.28s.58,1.3,1.29,1.3h10.08c.71,0,1.29-.58,1.29-1.3s-.58-1.28-1.29-1.28Z"/>
          <path d="M69.69,256.61h-7c-1.5,0-2.96-.02-4.46.19-2,.27-4.06,2.98-3.79,4.98.38,2.85,1.92,4.73,4.83,5.13,2.25.3,4.72.04,7,.04,1.62,0,3.19.03,4.8-.19,2.4-.32,3.52-2.93,3.79-4.98.31-2.26-1.99-4.73-4.13-5.02-2.09-.28-4.15.47-4.76,2.71-.5,1.82.61,4.48,2.7,4.77-1.06-.74-1.52-1.9-1.4-3.49.46-.46.93-.93,1.39-1.4-.88.69,1.95-.15.57-.15h-9.29c-1.04,0,.85-.11,1.32.5.33.57.66,1.14,1,1.71.91,2.16-1.83,2.97-2.49,2.97h9.94c5,0,5-7.76,0-7.76Z"/>
        </g>
        <path class="st11" d="M69.69,260.49h-10.08c-.71,0-1.29.57-1.29,1.28s.58,1.3,1.29,1.3h10.08c.71,0,1.29-.58,1.29-1.3s-.58-1.28-1.29-1.28Z"/>
        <path class="st16" d="M69.69,262.42h-10.08c-.6,0-1.1-.42-1.24-.96-.03.1-.05.21-.05.31,0,.72.58,1.3,1.29,1.3h10.08c.71,0,1.29-.58,1.29-1.3,0-.1-.02-.21-.04-.31-.14.55-.65.96-1.25.96Z"/>
        <path class="st22" d="M69.69,261.13h-10.08c-.6,0-1.1.41-1.24.97-.03-.1-.05-.21-.05-.33,0-.71.58-1.28,1.29-1.28h10.08c.71,0,1.29.57,1.29,1.28,0,.12-.02.22-.04.33-.14-.56-.65-.97-1.25-.97Z"/>
      </g>
    </g>
    <g>
      <g>
        <g>
          <path class="st7" d="M75.59,274.94c0,.25-.21.46-.46.46h-20.96c-.25,0-.45-.2-.45-.46h0c0-.25.2-.45.45-.45h20.96c.25,0,.46.2.46.45h0Z"/>
          <path d="M75.13,276.6h-20.96c-.92,0-1.66-.75-1.66-1.67s.75-1.65,1.66-1.65h20.96c.92,0,1.67.74,1.67,1.65s-.75,1.67-1.67,1.67Z"/>
        </g>
        <g>
          <path class="st7" d="M75.59,279.15c0,.25-.21.46-.46.46h-20.96c-.25,0-.45-.21-.45-.46h0c0-.25.2-.45.45-.45h20.96c.25,0,.46.2.46.45h0Z"/>
          <path d="M75.13,280.82h-20.96c-.92,0-1.66-.75-1.66-1.66s.75-1.66,1.66-1.66h20.96c.92,0,1.67.74,1.67,1.66s-.75,1.66-1.67,1.66Z"/>
        </g>
        <g>
          <path class="st7" d="M75.59,283.45c0,.25-.21.46-.46.46h-20.96c-.25,0-.45-.2-.45-.46h0c0-.24.2-.45.45-.45h20.96c.25,0,.46.2.46.45h0Z"/>
          <path d="M75.13,285.11h-20.96c-.92,0-1.66-.75-1.66-1.66s.75-1.65,1.66-1.65h20.96c.92,0,1.67.74,1.67,1.65s-.75,1.66-1.67,1.66Z"/>
        </g>
      </g>
      <g>
        <g>
          <path class="st7" d="M75.59,287.83c0,.25-.21.45-.46.45h-20.96c-.25,0-.45-.2-.45-.45h0c0-.25.2-.45.45-.45h20.96c.25,0,.46.2.46.45h0Z"/>
          <path d="M75.13,289.5h-20.96c-.92,0-1.66-.75-1.66-1.67s.75-1.66,1.66-1.66h20.96c.92,0,1.67.74,1.67,1.66s-.75,1.67-1.67,1.67Z"/>
        </g>
        <g>
          <path class="st7" d="M75.59,292.05c0,.25-.21.46-.46.46h-20.96c-.25,0-.45-.2-.45-.46h0c0-.25.2-.45.45-.45h20.96c.25,0,.46.2.46.45h0Z"/>
          <path d="M75.13,293.71h-20.96c-.92,0-1.66-.75-1.66-1.66s.75-1.66,1.66-1.66h20.96c.92,0,1.67.74,1.67,1.66s-.75,1.66-1.67,1.66Z"/>
        </g>
      </g>
    </g>
    <g>
      <path class="st7" d="M74.75,299.25h-5.22c-.25,0-.45.2-.45.45s.2.45.45.45h5.22c.24,0,.45-.2.45-.45s-.2-.45-.45-.45Z"/>
      <path d="M74.75,301.36h-5.22c-.92,0-1.67-.75-1.67-1.66s.75-1.66,1.67-1.66h5.22c.91,0,1.65.74,1.65,1.66s-.74,1.66-1.65,1.66Z"/>
    </g>
  </g>
</svg>