<?xml version="1.0" encoding="UTF-8"?>
<svg id="Layer_1" xmlns="http://www.w3.org/2000/svg" version="1.1" viewBox="0 0 291 363.84">
  <!-- Generator: Adobe Illustrator 29.6.1, SVG Export Plug-In . SVG Version: 2.1.1 Build 9)  -->
  <defs>
    <style>
      .st0 {
        fill: #ff5c68;
      }

      .st1 {
        fill: #ffd7c3;
      }

      .st2 {
        fill: #fcc000;
      }

      .st3 {
        fill: #000002;
      }

      .st4 {
        fill: #fffcd2;
      }

      .st5 {
        fill: #414042;
      }

      .st6 {
        fill: #231f20;
      }

      .st7, .st8 {
        fill: #ed1c24;
      }

      .st7, .st9, .st10, .st11 {
        fill-rule: evenodd;
      }

      .st9 {
        fill: #ffa6ad;
      }

      .st12 {
        fill: #f9a11b;
      }

      .st13 {
        fill: #f38b9e;
      }

      .st14, .st11 {
        fill: #be1e2d;
      }

      .st15 {
        fill: #fff;
      }

      .st16 {
        fill: #262626;
      }

      .st17 {
        fill: #161213;
      }

      .st18 {
        fill: #fde5d2;
      }

      .st10 {
        fill: #ec2227;
      }

      .st19 {
        fill: #a30d1f;
      }

      .st20 {
        fill: #7a0015;
      }

      .st21 {
        fill: #fff200;
      }

      .st22 {
        fill: #ffc5ab;
      }
    </style>
  </defs>
  <g>
    <g>
      <g>
        <g>
          <path class="st18" d="M112.38,258.53c-4.72,4.01-6.74,8.39-6.74,8.39,0,0-2.21,17.04-11.76,28.2-9.56,11.16-18.99,13.2-25.35,20.58-10.94,12.69.6,24.93.6,24.93,0,0,1.9-6.28,4.53-9.62,2.63-3.34,7.91-5.43,7.91-5.43,0,0,.53,10.49,9.73,10.85,9.19.35,21.07-20.55,31.65-16.81,18.44,6.52-1.41,22.29-1.41,22.29,0,0,3.66,3,9.57,1.29,3.88-1.13,8.55-3.97,12.66-8.46,3.3-3.62,6.96-8.39,9.07-14.29,8.41-23.5-9.48-48.66-9.48-48.66l-18.73-16.12s-7.52-1.14-12.24,2.87Z"/>
          <path d="M154.76,277.26c-1.23-2.58-2.6-5.09-4.11-7.49-.74-1.18-1.52-2.51-2.57-3.41-4.27-3.67-8.53-7.34-12.8-11.01-1.73-1.49-3.46-2.98-5.18-4.47-.12-.1-.24-.2-.36-.3-1.87-1.6-3.13-1.9-5.4-2.16-1.43-.17-2.88-.15-4.32-.02-1.95.18-3.92.45-5.8,1.07-2.39.8-4.31,1.89-6.24,3.38-.24.18-.48.38-.72.58-.1.09-.21.19-.31.28-2.36,2.1-4.39,4.55-6.16,7.18-.42.63-.81,1.28-1.17,1.95-.07.14-.15.28-.21.43-.48.99-.66,1.38-.76,1.84,0-.02,0-.05.01-.06,0,.02,0,.05-.01.08-.05.23-.08.48-.12.83-.75,4.89-2.21,9.75-4.06,14.33-1.39,3.16-3.06,6.19-5.09,8.99-2.35,2.91-5.06,5.51-7.98,7.84-3.62,2.68-7.51,4.93-11.16,7.56-2.23,1.61-4.4,3.31-6.28,5.32-2.71,2.92-4.63,6.11-6.06,9.81-1.96,5.06-1.66,11.23.29,16.24,1.38,3.54,3.17,6.64,5.66,9.51.06.06.11.13.17.19,1.75,1.86,4.6,2.52,7.03,1.86,2.47-.69,4.3-2.62,5.05-5.05.34-1.11.73-2.21,1.17-3.29.33-.76.7-1.5,1.1-2.22,2.23,3.01,5.35,5.3,9.24,6.15,5.07,1.1,9.78-.19,14.02-3.06,3.71-2.5,6.99-5.59,10.37-8.5.86-.75,1.73-1.48,2.63-2.2,1.35-1,2.75-1.93,4.25-2.67.39-.13.79-.25,1.2-.35h.32c.35.09.7.21,1.04.33.64.31,1.26.64,1.85,1.03.08.08.17.16.25.23-.07.28-.16.57-.25.84-.51,1.02-1.11,1.97-1.78,2.9-1.52,1.85-3.23,3.58-5.09,5.06-2.87,2.28-2.83,7.93,0,10.22,4.46,3.61,9.93,4.5,15.53,3.4,2.88-.55,5.72-1.95,8.22-3.45,2.88-1.73,5.57-3.91,7.92-6.32,4.19-4.26,7.95-9.35,10.3-14.87,2.56-5.99,3.88-12.28,3.89-18.82.03-10.35-3.11-20.45-7.53-29.71ZM147.6,311.67c-.43,2.62-1.1,5.2-2.05,7.68-1.2,2.63-2.71,5.08-4.43,7.39-1.08,1.35-2.22,2.65-3.44,3.87.13-.67.23-1.37.3-2.11.26-2.54-.54-5.01-1.62-7.26-1.17-2.46-3.42-4.35-5.61-5.85-.86-.58-1.8-1.05-2.75-1.47-1.41-.61-2.88-1.32-4.41-1.61-11.71-2.17-19.97,7.95-28.22,14.59-1.07.8-2.18,1.53-3.37,2.13-.17.05-.35.11-.53.16-.09,0-.17,0-.25,0-.22-.05-.42-.1-.63-.17-.1-.06-.2-.12-.3-.17-.12-.12-.25-.24-.36-.37-.21-.34-.42-.69-.59-1.05-.24-.67-.42-1.36-.56-2.05-.13-1.88-.74-3.55-2.1-4.92-1.67-1.66-4.71-2.78-7.03-1.85-1.69.67-3.34,1.4-4.91,2.31-.75.43-1.45.91-2.14,1.41.26-.43.54-.86.83-1.26,1.16-1.37,2.44-2.59,3.83-3.72,3.57-2.64,7.45-4.84,11.04-7.46,5.51-4.04,10.37-8.67,14.27-14.32,3.06-4.44,5.26-9.52,7.02-14.6,1.14-3.28,2.03-6.65,2.68-10.06.1-.52.18-1.04.27-1.56.4-.67.84-1.33,1.3-1.96,1-1.22,2.1-2.36,3.28-3.41.33-.21.68-.4,1.02-.58.72-.24,1.46-.43,2.21-.57.48-.04.96-.07,1.45-.08,5.37,4.63,10.75,9.25,16.13,13.88,2.14,3.23,3.91,6.77,5.46,10.31,1.91,4.69,3.37,9.58,4.15,14.59.38,3.38.44,6.78.08,10.16Z"/>
        </g>
        <path class="st19" d="M112.38,258.53c-4.72,4.01-6.74,8.39-6.74,8.39,0,0-2.21,17.04-11.76,28.2-9.56,11.16-18.99,13.2-25.35,20.58-10.94,12.69.6,24.93.6,24.93,0,0,1.9-6.28,4.53-9.62,2.63-3.34,7.91-5.43,7.91-5.43,0,0,.53,10.49,9.73,10.85,9.19.35,21.05-20.49,31.65-16.81,18.67,6.47-1.41,22.29-1.41,22.29,0,0,7.72,6.52,20.37-5.44,28.91-27.32,1.44-64.68,1.44-64.68l-18.73-16.12s-7.52-1.14-12.24,2.87Z"/>
        <path class="st3" d="M81.57,325.57s10.24-5.69,19.33-20.54c9.09-14.84,5.68-19.56,5.68-19.56l5.62-1.5s1.96,8.85-6.3,23.26c-8.27,14.4-22.9,24.52-22.9,24.52l-2.02-4.22.59-1.96Z"/>
        <path class="st20" d="M109.97,309.42c9.22-16.07,7.03-25.96,7.03-25.96l12.68-23.41-3.09-2.66-14.4,26.6s1.96,8.86-6.3,23.26c-7.54,13.14-20.37,22.7-22.57,24.28.75,1.35,1.82,2.66,3.35,3.59,4.78-3.69,16.17-13.26,23.31-25.7Z"/>
        <path class="st8" d="M100.88,305.02c9.09-14.85,5.69-19.56,5.69-19.56l-4.46-5.04c-1.79,4.86-4.43,10.24-8.24,14.68-9.55,11.15-18.99,13.2-25.35,20.58-10.94,12.69.6,24.92.6,24.92,0,0,1.89-6.28,4.52-9.62,2.63-3.34,7.91-5.43,7.91-5.43,0,0,10.24-5.69,19.33-20.53Z"/>
        <path class="st19" d="M104.79,283.78s3.41,4.71-5.68,19.56c-9.1,14.84-19.33,20.53-19.33,20.53,0,0-5.07,2.27-7.91,5.43-4.97,5.53-2.75,11.3-2.75,11.3,0,0,1.89-6.28,4.52-9.62,2.63-3.34,7.91-5.43,7.91-5.43,0,0,10.24-5.69,19.33-20.53,9.09-14.85,5.69-19.56,5.69-19.56l-4.46-5.04c-.02.08-.06.16-.08.23l2.77,3.13Z"/>
        <path class="st13" d="M70.53,316.09c6.34-7.4,15.8-9.43,25.35-20.59,3.46-4.05,5.96-8.87,7.74-13.37l-1.52-1.71c-1.79,4.86-4.43,10.24-8.24,14.68-9.55,11.15-18.99,13.2-25.35,20.58-10.94,12.69.6,24.92.6,24.92,0,0-8.85-12.54,1.41-24.52Z"/>
        <path class="st3" d="M122.72,339.82s6.02-1.27,15.14-13.77c11.17-15.3,7.54-37.68,7.54-37.68l3.72,2.62s4.08,20.67-8.04,37.22c-9.31,12.7-17.79,15.64-17.79,15.64l-2.87-1.48,2.3-2.54Z"/>
        <path class="st20" d="M124.66,255.62s-.39-.06-1.03-.11l16.62,14.31s2.37,3.22,4.99,8.47l-2.92,8.12s3.63,22.38-7.55,37.69c-1.39,1.91-2.71,3.56-3.95,4.98-.62,3.67-3.62,7.37-6.03,9.84,2.49-1.35,7.15-4.72,13.12-12.9,11.17-15.31,7.54-37.69,7.54-37.69l2.93-8.12c-2.62-5.24-4.99-8.47-4.99-8.47l-18.72-16.11Z"/>
        <path class="st8" d="M149.13,291.01s4.08,20.67-8.04,37.21c-7.19,9.81-13.88,13.8-16.55,15.11,3.35.89,9.38.73,17.38-6.84,16.76-15.84,14.57-35.06,9.77-48.41l-2.55,2.93Z"/>
        <path class="st13" d="M142.12,329.19c12.12-16.54,8.04-37.21,8.04-37.21l2.06-2.37c-.17-.52-.35-1.03-.53-1.54l-2.55,2.93s4.08,20.67-8.04,37.21c-7.19,9.81-13.88,13.8-16.55,15.11.64.17,1.38.3,2.21.35,3.17-1.77,9.08-5.89,15.38-14.48Z"/>
        <path class="st19" d="M150.32,289.53c4.33,13.24,5.62,31.46-10.4,46.59-6.55,6.2-11.78,7.43-15.3,7.19,3.38.85,9.36.59,17.26-6.88,16.76-15.85,14.57-35.06,9.76-48.42l-1.32,1.52Z"/>
      </g>
      <g>
        <g>
          <path class="st18" d="M178.5,258.53c4.72,4.01,6.74,8.39,6.74,8.39,0,0,2.21,17.04,11.76,28.2,9.56,11.16,18.99,13.2,25.35,20.58,10.94,12.69-.6,24.93-.6,24.93,0,0-1.9-6.28-4.53-9.62-2.63-3.34-7.91-5.43-7.91-5.43,0,0-.53,10.49-9.73,10.85-9.2.35-21.07-20.55-31.65-16.81-18.44,6.52,1.41,22.29,1.41,22.29,0,0-3.66,3-9.57,1.29-3.88-1.13-8.56-3.97-12.67-8.46-3.31-3.62-6.96-8.39-9.07-14.29-8.41-23.5,9.49-48.66,9.49-48.66l18.72-16.12s7.52-1.14,12.24,2.87Z"/>
          <path d="M233.73,322.39c-1.14-6.04-5.26-11.5-9.93-15.31-4.08-3.31-8.61-5.92-12.89-8.94-.45-.32-.9-.65-1.35-.98-2.94-2.35-5.69-4.98-8.06-7.91-2.03-2.81-3.71-5.85-5.1-9.02-1.84-4.56-3.29-9.4-4.04-14.28-.05-.4-.08-.66-.13-.89,0-.02,0-.03,0-.04,0,0,0,.02,0,.03-.1-.41-.27-.77-.74-1.79-.06-.12-.12-.23-.18-.35-.33-.64-.7-1.25-1.09-1.84-1.75-2.7-3.87-5.24-6.29-7.38-.1-.09-.21-.19-.31-.28-.28-.24-.57-.47-.86-.67-2.45-1.86-5.14-3.22-8.21-3.84-2.31-.47-4.74-.71-7.1-.58-.37.03-.75.06-1.12.11-2.21.29-3.4.61-5.24,2.19-.5.42-.99.85-1.48,1.28-4.63,3.98-9.25,7.96-13.87,11.94-1.59,1.36-3.2,2.57-4.42,4.29-.82,1.15-1.54,2.35-2.24,3.57-4.27,7.31-7.61,15.44-9.25,23.76-2.41,12.18-1.22,24.92,5.44,35.62,3.49,5.61,7.98,10.51,13.28,14.44,2.48,1.82,5.22,3.15,8.09,4.23,3.45,1.29,7.02,1.35,10.6.77,2.72-.45,5.13-1.81,7.23-3.51,2.82-2.29,2.86-7.94,0-10.22-1.86-1.48-3.58-3.22-5.09-5.06-.66-.92-1.27-1.89-1.77-2.9-.09-.28-.18-.56-.25-.84.08-.07.16-.15.25-.23.59-.39,1.21-.72,1.85-1.03.35-.13.69-.24,1.05-.33h.31c.41.1.81.22,1.2.35,1.47.73,2.86,1.64,4.19,2.62,2.94,2.34,5.68,4.94,8.58,7.33,3.32,2.73,7.11,5.76,11.45,6.59,5.54,1.06,11.79-.67,15.44-5.15.29-.37.57-.73.85-1.11.4.73.76,1.47,1.1,2.23.43,1.08.83,2.18,1.17,3.29.74,2.43,2.57,4.36,5.04,5.05,2.42.66,5.29,0,7.03-1.86,1.75-1.86,3.26-4.11,4.4-6.39,1.09-2.21,2.03-4.54,2.49-6.97.65-3.43.63-6.56-.02-9.98ZM211.24,318.61c-1.71-.68-4.05-.16-5.56.73-2.23,1.3-3.38,3.53-3.56,6.03-.14.7-.33,1.38-.56,2.06-.18.36-.38.71-.59,1.05-.12.13-.24.25-.37.37-.1.06-.2.12-.3.17-.21.06-.42.12-.63.17-.08,0-.16,0-.25,0-.17-.05-.35-.1-.53-.16-1.16-.59-2.25-1.32-3.3-2.08-2.92-2.34-5.64-4.92-8.54-7.3-3.65-2.99-7.57-5.92-12.21-7.15-2.68-.71-5.4-.71-8.09-.08-1.5.35-3,1.1-4.38,1.73-.98.44-1.92.99-2.78,1.63-1.09.81-2.19,1.62-3.06,2.67-1.4,1.67-2.04,2.83-2.86,4.82-.98,2.36-.81,4.87-.48,7.32-1.21-1.22-2.34-2.51-3.41-3.84-1.71-2.32-3.22-4.77-4.42-7.39-.96-2.48-1.63-5.06-2.06-7.68-.36-3.38-.31-6.78.07-10.16.78-5.01,2.23-9.88,4.15-14.58,1.54-3.55,3.31-7.08,5.46-10.32,5.37-4.62,10.75-9.25,16.13-13.88.48,0,.96.04,1.45.08.75.14,1.48.34,2.21.57.35.18.69.37,1.02.58,1.18,1.06,2.28,2.2,3.29,3.42.47.65.93,1.32,1.33,2.02,1.04,6.14,2.9,12.03,5.37,17.79,2.26,5.25,5.37,10,9.2,14.24,4.09,4.53,9.04,8.21,14.14,11.55,2.2,1.43,4.44,2.82,6.55,4.38,1.37,1.12,2.65,2.34,3.8,3.7.3.43.59.87.87,1.32-2.16-1.54-4.56-2.77-7.08-3.78Z"/>
        </g>
        <path class="st19" d="M178.5,258.53c4.72,4.01,6.74,8.39,6.74,8.39,0,0,2.21,17.04,11.76,28.2,9.56,11.16,18.99,13.2,25.35,20.58,10.94,12.69-.6,24.93-.6,24.93,0,0-1.9-6.28-4.53-9.62-2.63-3.34-7.91-5.43-7.91-5.43,0,0-.53,10.49-9.73,10.85-9.2.35-21.05-20.49-31.65-16.81-18.66,6.47,1.41,22.29,1.41,22.29,0,0-7.72,6.52-20.37-5.44-28.91-27.32-1.44-64.68-1.44-64.68l18.72-16.12s7.52-1.14,12.24,2.87Z"/>
        <path class="st3" d="M209.32,325.57s-10.24-5.69-19.33-20.54c-9.09-14.84-5.69-19.56-5.69-19.56l-5.62-1.5s-1.96,8.85,6.31,23.26c8.26,14.4,22.89,24.52,22.89,24.52l2.03-4.22-.59-1.96Z"/>
        <path class="st20" d="M180.92,309.42c-9.22-16.07-7.03-25.96-7.03-25.96l-12.68-23.41,3.09-2.66,14.4,26.6s-1.96,8.86,6.3,23.26c7.54,13.14,20.37,22.7,22.57,24.28-.75,1.35-1.82,2.66-3.34,3.59-4.79-3.69-16.18-13.26-23.31-25.7Z"/>
        <path class="st8" d="M190,305.02c-9.09-14.85-5.68-19.56-5.68-19.56l4.46-5.04c1.8,4.86,4.44,10.24,8.24,14.68,9.55,11.15,18.99,13.2,25.35,20.58,10.94,12.69-.6,24.92-.6,24.92,0,0-1.9-6.28-4.53-9.62-2.63-3.34-7.91-5.43-7.91-5.43,0,0-10.24-5.69-19.33-20.53Z"/>
        <path class="st19" d="M186.1,283.78s-3.4,4.71,5.69,19.56c9.09,14.84,19.32,20.53,19.32,20.53,0,0,5.07,2.27,7.91,5.43,4.97,5.53,2.75,11.3,2.75,11.3,0,0-1.9-6.28-4.53-9.62-2.63-3.34-7.91-5.43-7.91-5.43,0,0-10.24-5.69-19.33-20.53-9.09-14.85-5.68-19.56-5.68-19.56l4.46-5.04c.03.08.06.16.09.23l-2.77,3.13Z"/>
        <path class="st13" d="M220.36,316.09c-6.34-7.4-15.79-9.43-25.35-20.59-3.46-4.05-5.95-8.87-7.74-13.37l1.51-1.71c1.8,4.86,4.44,10.24,8.24,14.68,9.55,11.15,18.99,13.2,25.35,20.58,10.94,12.69-.6,24.92-.6,24.92,0,0,8.85-12.54-1.41-24.52Z"/>
        <path class="st3" d="M168.17,339.82s-6.02-1.27-15.14-13.77c-11.17-15.3-7.55-37.68-7.55-37.68l-3.71,2.62s-4.08,20.67,8.04,37.22c9.31,12.7,17.78,15.64,17.78,15.64l2.87-1.48-2.3-2.54Z"/>
        <path class="st20" d="M166.22,255.62s.38-.06,1.03-.11l-16.62,14.31s-2.37,3.22-4.98,8.47l2.92,8.12s-3.62,22.38,7.55,37.69c1.39,1.91,2.71,3.56,3.95,4.98.61,3.67,3.61,7.37,6.03,9.84-2.49-1.35-7.14-4.72-13.11-12.9-11.18-15.31-7.55-37.69-7.55-37.69l-2.93-8.12c2.62-5.24,4.99-8.47,4.99-8.47l18.72-16.11Z"/>
        <path class="st8" d="M141.76,291.01s-4.08,20.67,8.04,37.21c7.19,9.81,13.87,13.8,16.55,15.11-3.35.89-9.37.73-17.38-6.84-16.76-15.84-14.56-35.06-9.76-48.41l2.55,2.93Z"/>
        <path class="st13" d="M148.77,329.19c-12.12-16.54-8.04-37.21-8.04-37.21l-2.06-2.37c.18-.52.35-1.03.53-1.54l2.55,2.93s-4.08,20.67,8.04,37.21c7.19,9.81,13.87,13.8,16.55,15.11-.63.17-1.38.3-2.2.35-3.17-1.77-9.09-5.89-15.37-14.48Z"/>
        <path class="st19" d="M140.57,289.53c-4.33,13.24-5.62,31.46,10.4,46.59,6.55,6.2,11.78,7.43,15.3,7.19-3.38.85-9.35.59-17.26-6.88-16.76-15.85-14.56-35.06-9.77-48.42l1.33,1.52Z"/>
      </g>
    </g>
    <g>
      <g>
        <g>
          <g>
            <path class="st1" d="M109.86,290.46s-26.11,31.02-14.78,37.71c11.33,6.69,27.19-22.3,27.19-22.3l-12.41-15.41Z"/>
            <path d="M107.51,288.1c-3.15,3.75-6.07,7.71-8.81,11.75-4.3,6.35-8.68,13.44-9.7,21.16-.42,3.17.4,6.7,2.86,8.88,3,2.65,7.21,3.2,10.92,1.86,3.88-1.4,7.13-4.14,9.97-7.06,2.89-2.99,5.43-6.35,7.78-9.77,1.64-2.38,3.22-4.84,4.61-7.38.78-1.43.46-2.83-.52-4.04-4.14-5.13-8.27-10.27-12.41-15.41-1.14-1.41-3.53-1.18-4.71,0-1.39,1.39-1.14,3.3,0,4.72,4.13,5.14,8.27,10.27,12.4,15.41-.17-1.35-.35-2.7-.52-4.04-.79,1.44-1.66,2.85-2.53,4.24-.91,1.43-1.86,2.85-2.83,4.24-.54.76-1.08,1.51-1.64,2.25-.15.19-.29.38-.44.56.53-.69.03-.03-.07.09-.35.45-.71.89-1.07,1.33-1.29,1.56-2.66,3.06-4.13,4.46-.67.64-1.37,1.25-2.1,1.84-.62.5.59-.44-.04.04-.18.13-.36.26-.53.39-.42.29-.84.57-1.26.83-.36.21-.72.41-1.09.6-.18.09-.36.17-.54.26-.65.31.73-.29.08-.04-.35.14-.72.26-1.08.36-.31.09-1.76.3-.55.16-.35.04-.7.05-1.06.04-.18,0-.35-.02-.53-.04,1.07.1.44.06.19.01-.35-.06-.69-.17-1.03-.29-.64-.23.74.34.12.04-.22-.1-.43-.22-.63-.35-.87-.54.4.39-.17-.11-.21-.2-.4-.4-.58-.63.76.93.14.14-.02-.14-.48-.87.21.7-.09-.26-.09-.28-.15-.57-.2-.86-.11-.61.1.91.04.28-.02-.16-.03-.31-.03-.47-.02-.32-.01-.65,0-.98.01-.31.2-1.71.02-.49.24-1.62.73-3.19,1.3-4.72.15-.4.31-.81.47-1.21-.4.95.18-.4.29-.63.41-.91.85-1.8,1.31-2.68,1.81-3.48,3.91-6.81,6.13-10.03.99-1.44,2.01-2.86,3.05-4.26.43-.58.87-1.15,1.3-1.73.1-.13.2-.26.3-.39.38-.5-.51.66-.13.17.21-.27.42-.54.62-.8.65-.82,1.3-1.65,1.98-2.45,1.17-1.39,1.37-3.35,0-4.72-1.2-1.2-3.54-1.39-4.71,0Z"/>
          </g>
          <path class="st6" d="M98.27,313.63l8.65,5.33,6.11-19.77-3.02-3.78s-4.99,6.2-6.65,8.81c-1.67,2.6-5.09,9.41-5.09,9.41Z"/>
          <path class="st5" d="M100.87,312.84s3.42-6.8,5.09-9.42c1.06-1.64,3.44-4.72,5.04-6.77l-.99-1.25s-4.99,6.2-6.65,8.81c-1.67,2.6-5.09,9.41-5.09,9.41l8.65,5.33-6.04-6.12Z"/>
          <g>
            <polygon class="st3" points="106.98 327.04 91.42 316.99 94.95 311.54 110.49 321.58 106.98 327.04"/>
            <path d="M107.22,328.15l-16.91-10.92,4.4-6.8,16.9,10.92-4.39,6.81ZM92.54,316.75l14.2,9.17,2.64-4.1-14.19-9.17-2.65,4.09Z"/>
          </g>
        </g>
        <g>
          <g>
            <path class="st1" d="M181.09,290.46s26.11,31.02,14.78,37.71c-11.33,6.69-27.19-22.3-27.19-22.3l12.41-15.41Z"/>
            <path d="M178.74,292.82c.89,1.07,1.75,2.16,2.6,3.26.38.48-.52-.68-.13-.17.1.13.2.26.29.39.22.28.43.55.64.84.5.67,1,1.33,1.49,2.01,1.08,1.46,2.11,2.96,3.13,4.46,2.19,3.27,4.24,6.63,5.98,10.16.2.41.39.83.58,1.24.11.22.68,1.58.29.63.35.85.67,1.7.95,2.57.24.75.45,1.5.61,2.27.08.36.14.72.2,1.08-.19-1.21,0,.18.02.49.02.32.01.65,0,.98,0,.15-.02.31-.03.47-.06.63.14-.89.03-.28-.05.29-.12.58-.2.86-.29.96.36-.63-.1.26-.14.27-.77,1.11-.02.14-.17.23-.37.43-.59.63-.56.51.7-.45-.16.11-.15.09-.31.18-.47.26-.8.43.48-.16-.04.04-.34.13-.68.21-1.03.29-.24.06-.89.12.2-.01-.18.02-.35.03-.53.04-.35.02-.71-.01-1.06-.04,1.21.12-.22-.07-.54-.16-.37-.1-.73-.22-1.08-.36-.67-.25.73.33.07.04-.18-.08-.36-.17-.54-.26-.82-.42-1.59-.91-2.34-1.43-.18-.13-.36-.26-.54-.39-.63-.47.58.46-.04-.04-.36-.29-.71-.59-1.06-.89-.78-.68-1.52-1.4-2.24-2.14-1.42-1.45-2.74-3.01-4-4.61-.1-.12-.6-.78-.07-.09-.14-.19-.29-.38-.43-.56-.28-.38-.56-.76-.84-1.14-.57-.78-1.13-1.57-1.68-2.38-.89-1.3-1.75-2.63-2.58-3.98-.66-1.06-1.31-2.13-1.91-3.23-.18,1.35-.35,2.69-.53,4.04,4.14-5.14,8.27-10.27,12.41-15.41,1.14-1.41,1.39-3.32,0-4.72-1.17-1.18-3.57-1.41-4.71,0-4.14,5.14-8.27,10.28-12.41,15.41-.98,1.21-1.3,2.62-.52,4.04,2.64,4.83,5.85,9.41,9.32,13.67,4.59,5.63,11.88,13.09,19.95,10.89,3.42-.93,6.19-3.73,6.77-7.27.57-3.55-.29-7.08-1.58-10.38-2.82-7.22-7.21-13.77-11.81-19.96-1.62-2.18-3.26-4.34-5.01-6.41-1.17-1.39-3.51-1.2-4.71,0-1.37,1.37-1.17,3.33,0,4.72Z"/>
          </g>
          <path class="st6" d="M192.69,313.63l-8.65,5.33-6.11-19.77,3.02-3.78s4.98,6.2,6.65,8.81c1.67,2.6,5.09,9.41,5.09,9.41Z"/>
          <path class="st5" d="M190.09,312.84s-3.43-6.8-5.09-9.42c-1.05-1.64-3.43-4.72-5.04-6.77l.99-1.25s4.98,6.2,6.65,8.81c1.67,2.6,5.09,9.41,5.09,9.41l-8.65,5.33,6.04-6.12Z"/>
          <g>
            <rect class="st3" x="180.75" y="316.04" width="18.51" height="6.49" transform="translate(-142.88 154.25) rotate(-32.87)"/>
            <path d="M183.74,328.15l-4.39-6.81,16.9-10.92,4.39,6.8-16.9,10.92ZM181.58,321.82l2.64,4.1,14.19-9.17-2.64-4.09-14.19,9.17Z"/>
          </g>
        </g>
      </g>
      <g>
        <g>
          <path class="st6" d="M172.14,293.55h-53.48s-10.45,57.96-3.35,60.45c7.11,2.48,13.69-8.84,13.69-8.84,0,0,5.23,1.6,14.3,1.88h0c.68.03,1.38.04,2.09.04s1.41-.01,2.09-.03h0c9.08-.29,14.3-1.89,14.3-1.89,0,0,6.59,11.32,13.7,8.84,7.1-2.49-3.35-60.45-3.35-60.45Z"/>
          <path d="M172.14,290.21h-53.48c-1.38,0-2.96,1-3.22,2.45-2.04,11.33-3.7,22.75-4.9,34.19-.72,6.93-1.47,14.06-.86,21.03.2,2.3.47,5.07,1.82,7.04,2.69,3.89,8.23,3.11,11.83,1,3.52-2.07,6.5-5.58,8.54-9.08-1.26.51-2.51,1.02-3.76,1.53,4.84,1.47,10.17,1.83,15.19,2-1.12-1.11-2.22-2.22-3.33-3.34h0c0,1.87,1.52,3.3,3.33,3.34,1.39.03,2.79.03,4.18,0,1.82-.05,3.34-1.48,3.34-3.33h0c-1.11,1.1-2.22,2.22-3.34,3.33,5.02-.17,10.35-.53,15.19-2-1.25-.51-2.51-1.02-3.76-1.53,1.59,2.72,3.73,5.33,6.16,7.34,3.53,2.92,9.31,5.26,13.31,1.84,1.89-1.6,2.29-4.53,2.59-6.82.39-2.92.36-5.89.28-8.84-.24-7.84-1.15-15.66-2.17-23.44-.88-6.75-1.89-13.48-3.02-20.2-.23-1.35-.46-2.71-.7-4.06-.32-1.79-2.46-2.78-4.1-2.33-1.87.52-2.65,2.32-2.33,4.11.64,3.57,1.22,7.14,1.78,10.72.56,3.59,1.08,7.18,1.57,10.77.11.83-.1-.77,0,.06.03.24.06.47.1.71.06.47.12.95.19,1.43.13,1.04.26,2.09.39,3.13.24,2.03.46,4.05.68,6.08.71,6.87,1.45,13.95.79,20.85-.03.29-.06.59-.1.88.17-1.3.03-.24-.02.07-.09.51-.2,1.02-.35,1.53-.05.2-.12.4-.2.59-.23.64.43-.91.08-.2-.08.15-.16.3-.25.43-.32.48.71-.78.14-.22-.4.39.88-.58.31-.25-.36.21.95-.38.57-.23-.25.09-.51.15-.77.21-.84.2.73-.05-.13.01-.25.02-.5,0-.75-.01-.85-.04.73.15-.1-.02-.33-.06-.65-.17-.96-.28-.81-.27.63.31-.14-.05-.23-.11-.46-.24-.69-.36-.45-.25-.88-.55-1.31-.86.66.47-.05-.05-.15-.13-.2-.17-.4-.35-.59-.52-.45-.4-.87-.83-1.28-1.27-.5-.53-.96-1.08-1.41-1.64-.39-.47.43.58-.13-.16-.18-.25-.36-.5-.54-.76-.33-.48-.66-.97-.96-1.48-.74-1.27-2.34-1.96-3.77-1.53-1.18.35-2.41.58-3.62.81-.66.12-1.32.22-1.97.32-1.04.16.68-.08-.42.06-.48.06-.96.12-1.43.17-1.99.21-3.98.33-5.98.4-1.81.06-3.33,1.47-3.33,3.33h0c1.11-1.1,2.22-2.21,3.33-3.32-1.39.04-2.79.04-4.18,0,1.11,1.11,2.22,2.23,3.33,3.34h0c0-1.87-1.52-3.28-3.33-3.34-1.99-.06-3.99-.2-5.97-.4-.37-.04-.73-.08-1.09-.13-.23-.03-.46-.06-.69-.09.34.04.31.04-.08-.02-.66-.09-1.32-.2-1.97-.32-1.21-.22-2.44-.46-3.62-.81-1.43-.43-3.02.27-3.77,1.53-.49.83-1.04,1.62-1.62,2.39-.45.6.48-.61,0,0-.14.19-.29.36-.44.54-.31.38-.64.74-.97,1.1-.35.38-.72.74-1.09,1.09-.19.19-.39.35-.59.53-.12.1-1.02.8-.35.3-.42.32-.86.59-1.32.86-.22.13-.46.24-.68.36-.78.38.66-.24-.14.05-.24.09-.48.16-.72.22-.18.04-1.01.17-.1.06-.25.03-.49.04-.75.04-.17,0-.33-.01-.5-.03.46.07.5.07.12,0-.67-.13-1.24-.53-.2.02-.57-.3.72.63.31.25-.54-.5.34.49.19.29-.11-.16-.2-.33-.3-.5-.36-.71.32.83.08.2-.08-.2-.14-.39-.2-.59-.15-.5-.25-1.01-.35-1.53-.05-.3-.2-1.37-.02-.07-.04-.29-.07-.59-.1-.88-.07-.69-.11-1.4-.14-2.1-.16-3.34-.01-6.71.2-10.05.24-3.96.63-7.91,1.07-11.85.23-2.02.48-4.04.73-6.06.06-.48.12-.96.19-1.43.03-.24.06-.47.1-.71.11-.83-.1.77,0-.06.14-.99.27-1.99.42-2.99.8-5.62,1.67-11.24,2.64-16.83.09-.56.19-1.11.29-1.67-1.07.81-2.14,1.63-3.22,2.45h53.48c4.3,0,4.3-6.67,0-6.67Z"/>
        </g>
        <g>
          <g>
            <polygon class="st18" points="170.35 295.74 145.58 295.74 145.38 295.74 120.61 295.74 109.88 331.04 145.38 331.04 145.58 331.04 181.08 331.04 170.35 295.74"/>
            <path d="M170.35,289.07h-49.74c-3.03,0-5.57,2.04-6.43,4.89-3.42,11.25-6.84,22.49-10.26,33.74-.16.52-.32,1.04-.48,1.56-1.27,4.17,2.18,8.43,6.43,8.43h71.2c4.25,0,7.7-4.27,6.43-8.43-3.42-11.25-6.83-22.5-10.26-33.74-.16-.51-.32-1.03-.48-1.55-1.05-3.47-4.62-5.64-8.2-4.66-3.44.95-5.72,4.73-4.66,8.2,3.42,11.25,6.84,22.49,10.26,33.74.16.51.31,1.03.47,1.55,2.14-2.81,4.29-5.62,6.43-8.44h-71.2c2.14,2.81,4.28,5.62,6.43,8.44,3.42-11.25,6.84-22.49,10.25-33.74.16-.51.32-1.03.47-1.55-2.14,1.63-4.28,3.26-6.43,4.9h49.74c3.63,0,6.67-3.03,6.67-6.67s-3.03-6.67-6.67-6.67Z"/>
          </g>
          <polygon class="st6" points="170.35 295.74 145.58 295.74 145.38 295.74 120.61 295.74 109.88 331.04 145.38 331.04 145.58 331.04 181.08 331.04 170.35 295.74"/>
          <polygon class="st5" points="112.81 329 122.89 295.74 120.61 295.74 109.88 331.04 145.38 331.04 145.58 331.04 112.81 329"/>
          <polygon class="st5" points="178.15 329 168.07 295.74 170.35 295.74 181.08 331.04 145.58 331.04 145.38 331.04 178.15 329"/>
        </g>
        <polygon class="st17" points="116.56 337.85 116.32 340.89 174.54 340.89 174.28 337.85 116.56 337.85"/>
      </g>
      <g>
        <path class="st3" d="M200.67,359.69c0,1.62-24.71,2.95-55.19,2.95s-55.19-1.32-55.19-2.95,24.71-2.95,55.19-2.95,55.19,1.32,55.19,2.95Z"/>
        <path d="M145.48,363.84c-14.76,0-28.64-.31-39.09-.87-17.31-.92-17.31-1.97-17.31-3.29s0-2.37,17.31-3.29c10.45-.56,24.33-.87,39.09-.87s28.64.31,39.09.87c17.31.93,17.31,1.97,17.31,3.29s0,2.37-17.31,3.29c-10.45.56-24.33.87-39.09.87ZM95.21,359.68c7.59.88,25.16,1.74,50.27,1.74s42.68-.86,50.27-1.74c-7.59-.88-25.16-1.74-50.27-1.74s-42.68.86-50.27,1.74Z"/>
      </g>
      <polygon class="st3" points="171.39 298.37 167.57 293.36 145.48 310.22 123.39 293.36 119.56 298.37 142.32 315.74 142.32 336.51 148.63 336.51 148.63 315.74 171.39 298.37"/>
      <polygon class="st15" points="145.52 309.01 164.48 294.53 145.62 294.53 145.42 294.53 126.56 294.53 145.52 309.01"/>
    </g>
    <g>
      <g>
        <g>
          <path class="st18" d="M48.4,197.27c-.01,7.89.08,15.69.39,22.06,1.07,22.21,15.13,29.88,15.13,29.88v-51.93h-15.52Z"/>
          <path d="M39.92,197.27c-.01,7.49.02,14.99.41,22.47.36,7.08,1.97,13.71,4.88,20.15,2.96,6.53,7.95,12.57,14.05,16.42.13.08.25.16.38.23,5.61,3.06,12.78-.76,12.78-7.33v-51.93c0-4.62-3.87-8.49-8.49-8.49h-15.52c-4.63,0-8.49,3.86-8.49,8.49s3.86,8.49,8.49,8.49h15.52c-2.83-2.83-5.66-5.66-8.49-8.49v51.93c4.26-2.44,8.52-4.88,12.77-7.32-.69-.38-1.33-.87-1.95-1.34.57.44,1.15.88,1.71,1.33-1.98-1.55-3.74-3.37-5.29-5.36.44.57.89,1.15,1.33,1.72-1.87-2.45-3.4-5.13-4.61-7.97.28.68.57,1.35.85,2.03-1.46-3.5-2.39-7.16-2.9-10.92.1.75.2,1.5.3,2.26-.52-4.06-.55-8.19-.65-12.28-.11-4.69-.13-9.39-.12-14.08.01-4.62-3.87-8.49-8.48-8.49s-8.48,3.86-8.49,8.49Z"/>
        </g>
        <path class="st6" d="M48.4,197.27c-.01,7.89.08,15.69.39,22.06,1.07,22.21,15.13,29.88,15.13,29.88v-51.93h-15.52Z"/>
        <path class="st17" d="M52.75,219.33c0-6.38-.4-14.17-.39-22.06h-3.96c-.01,7.89.08,15.69.39,22.06,1.07,22.21,15.13,29.88,15.13,29.88,0,0-11.17-11.62-11.17-29.88Z"/>
      </g>
      <g>
        <g>
          <path class="st18" d="M242.4,197.27c.01,7.89-.08,15.69-.39,22.06-1.07,22.21-15.14,29.88-15.14,29.88v-51.93h15.52Z"/>
          <path d="M233.91,197.27c0,4.69-.03,9.39-.12,14.08-.09,4.09-.13,8.22-.65,12.28.1-.76.2-1.51.3-2.26-.51,3.75-1.45,7.42-2.9,10.92.28-.67.57-1.35.85-2.03-1.21,2.84-2.74,5.51-4.61,7.97.44-.57.89-1.15,1.32-1.72-1.55,1.99-3.3,3.81-5.28,5.36.57-.45,1.15-.89,1.72-1.33-.62.47-1.26.96-1.95,1.34,4.25,2.44,8.51,4.88,12.77,7.32v-51.93c-2.83,2.83-5.66,5.66-8.49,8.49h15.52c4.62,0,8.49-3.86,8.49-8.49s-3.86-8.49-8.49-8.49h-15.52c-4.62,0-8.48,3.86-8.48,8.49v51.93c0,6.57,7.17,10.4,12.77,7.33,1.74-.95,3.31-2.31,4.79-3.59,3.01-2.61,5.54-5.88,7.62-9.27,2.97-4.83,4.96-10.39,5.95-15.97,1.32-7.49,1.26-15.21,1.32-22.79.03-2.55.04-5.1.03-7.65,0-4.62-3.86-8.49-8.49-8.49s-8.49,3.86-8.48,8.49Z"/>
        </g>
        <path class="st6" d="M242.4,197.27c.01,7.89-.08,15.69-.39,22.06-1.07,22.21-15.14,29.88-15.14,29.88v-51.93h15.52Z"/>
        <path class="st17" d="M238.05,219.33c0-6.38.41-14.17.4-22.06h3.95c.01,7.89-.08,15.69-.39,22.06-1.07,22.21-15.14,29.88-15.14,29.88,0,0,11.17-11.62,11.17-29.88Z"/>
      </g>
    </g>
    <g>
      <g>
        <path class="st18" d="M63.95,145.07c-.29,11.67,0,80.6,0,80.6,0,31.32,17.55,60.36,82.96,60.09,64.74-.27,80.07-28.77,80.07-60.09v-80.6H63.95Z"/>
        <path d="M55.47,145.07c-.34,13.7-.14,27.42-.12,41.12.02,12.89.06,25.79.11,38.69.06,13.43,2.74,27.14,10.48,38.38,5.03,7.29,11.54,13.24,19.15,17.77,8.75,5.2,18.71,8.44,28.67,10.36,13.4,2.59,27.17,3.23,40.78,2.69,12.13-.48,24.49-1.99,36.07-5.73,9.32-3.01,17.96-7.46,25.39-13.87,5.72-4.93,10.43-11.32,13.47-18.23,3.33-7.6,5.07-15.38,5.74-23.65.29-3.62.27-7.26.27-10.88v-76.64c0-4.62-3.86-8.48-8.48-8.48H63.95c-4.63,0-8.48,3.86-8.48,8.48s3.85,8.49,8.48,8.49h163.03c-2.83-2.82-5.66-5.66-8.49-8.49v72.35c0,6.37.16,12.75-.68,19.08.1-.75.2-1.51.31-2.26-.69,5.11-1.94,10.14-3.93,14.9.28-.68.57-1.36.85-2.03-1.57,3.71-3.58,7.19-6.03,10.38.44-.57.88-1.14,1.32-1.72-2.44,3.15-5.29,5.96-8.43,8.41.57-.44,1.15-.88,1.72-1.33-4.05,3.13-8.54,5.63-13.25,7.63.68-.28,1.36-.57,2.04-.85-8.04,3.38-16.61,5.33-25.23,6.51.76-.1,1.51-.2,2.26-.3-15.24,2.03-31,2.05-46.25.04.75.1,1.5.2,2.26.31-8.78-1.18-17.49-3.18-25.69-6.6.67.28,1.35.57,2.03.86-4.93-2.08-9.63-4.69-13.87-7.96.57.44,1.15.88,1.71,1.33-3.31-2.56-6.3-5.51-8.87-8.81.44.57.88,1.14,1.32,1.71-2.52-3.27-4.6-6.86-6.22-10.66.28.68.57,1.35.85,2.03-1.99-4.71-3.25-9.68-3.94-14.73.1.75.2,1.5.3,2.25-.56-4.24-.63-8.5-.65-12.78-.02-5.89-.04-11.78-.06-17.67-.05-16.44-.1-32.88-.03-49.32.01-3.59.01-7.18.1-10.77.12-4.62-3.95-8.48-8.49-8.48s-8.37,3.86-8.48,8.48Z"/>
      </g>
      <path class="st1" d="M63.95,145.07c-.29,11.67,0,80.6,0,80.6,0,31.32,17.55,60.36,82.96,60.09,64.74-.27,80.07-28.77,80.07-60.09v-80.6H63.95Z"/>
    </g>
    <g>
      <g>
        <g>
          <path class="st18" d="M246.91,38.51s-40.02-30.01-101.51-30.01-101.52,30.01-101.52,30.01c0,0,6.01,30.04,10.54,56.58,5.74,33.6,8.32,69.9,8.32,69.9,0,0,46.12,14.05,82.65,14.05s82.65-14.05,82.65-14.05c0,0,2.59-36.29,8.32-69.9,4.52-26.54,10.54-56.58,10.54-56.58Z"/>
          <path d="M251.2,31.18c-2.05-1.54-4.25-2.9-6.43-4.22-5.89-3.57-12.05-6.71-18.33-9.51C204.29,7.58,180.68,1.78,156.47.34c-25.84-1.54-52.21,2.26-76.61,10.89-13.39,4.74-26.69,10.73-38.48,18.71-.6.4-1.2.81-1.78,1.25-1.27.76-2.29,1.77-3.05,3.04-1.21,2.07-1.31,4.24-.85,6.54,4.06,20.28,7.97,40.61,11.27,61.01.91,5.58,1.71,11.18,2.47,16.79-.1-.76-.2-1.51-.3-2.26,2.17,16.16,3.95,32.41,5.12,48.68.27,3.88,2.4,7.02,6.23,8.19,14.78,4.49,30.01,7.86,45.24,10.44,13.09,2.22,26.38,3.88,39.67,3.9,13.29.02,26.59-1.7,39.67-3.9,15.23-2.56,30.46-5.95,45.23-10.44,3.83-1.17,5.96-4.3,6.23-8.19,1.16-16.27,2.95-32.51,5.11-48.68-.1.75-.2,1.5-.3,2.26,3.36-24.97,8.21-49.75,13.08-74.46.22-1.12.44-2.22.66-3.34.91-4.53-1.23-9.15-5.93-10.44-4.22-1.16-9.53,1.39-10.44,5.93-4.06,20.28-7.97,40.61-11.27,61.02-3.6,22.18-6.14,44.58-7.84,66.98-.02.24-.03.49-.05.73,2.08-2.72,4.15-5.45,6.23-8.19-14.78,4.5-30.01,7.87-45.23,10.45-3.5.6-7,1.13-10.52,1.6.75-.1,1.5-.2,2.25-.3-8.92,1.19-17.9,1.99-26.9,2-8.99.01-17.99-.81-26.9-2,.75.1,1.5.2,2.26.3-18.43-2.48-36.74-6.48-54.59-11.7-.39-.12-.78-.23-1.17-.35,2.08,2.74,4.16,5.46,6.23,8.19-1.41-19.82-3.71-39.62-6.59-59.28-3.37-22.97-7.88-45.81-12.4-68.59-.05-.29-.11-.58-.17-.87-1.3,3.19-2.6,6.38-3.9,9.58,2.05-1.54,4.25-2.89,6.44-4.22,5.89-3.57,12.04-6.71,18.33-9.51,1.05-.47,2.11-.92,3.18-1.38-.68.28-1.35.57-2.03.86,15.47-6.52,31.78-10.96,48.42-13.21-.76.1-1.51.2-2.26.3,16.68-2.23,33.62-2.23,50.3,0-.75-.1-1.51-.2-2.25-.3,16.63,2.25,32.94,6.69,48.41,13.21-.67-.28-1.34-.57-2.02-.86,9.63,4.08,19.35,8.83,27.83,15.03.04.03.08.06.11.08,1.72,1.29,4.55,1.4,6.54.85,2.12-.58,3.96-2,5.07-3.9,1.15-1.96,1.45-4.35.85-6.54-.64-2.31-2.05-3.68-3.9-5.07Z"/>
        </g>
        <path class="st6" d="M246.91,38.51s-40.02-30.01-101.51-30.01-101.52,30.01-101.52,30.01c0,0,6.01,30.04,10.54,56.58,5.74,33.6,8.32,69.9,8.32,69.9,0,0,46.12,14.05,82.65,14.05s82.65-14.05,82.65-14.05c0,0,2.59-36.29,8.32-69.9,4.52-26.54,10.54-56.58,10.54-56.58Z"/>
        <path class="st5" d="M64.21,98.79c-4.53-26.55-10.54-56.59-10.54-56.59,0,0,40.02-30,101.52-30,24.51,0,45.6,4.76,62.11,10.5-17.59-7.22-42.24-14.2-71.89-14.2-61.49,0-101.52,30.01-101.52,30.01,0,0,6.01,30.04,10.54,56.58,5.74,33.6,8.32,69.9,8.32,69.9,0,0,3.65,1.11,9.71,2.71-.46-6.03-3.07-38.56-8.25-68.91Z"/>
        <path class="st17" d="M226.59,98.79c4.53-26.55,10.55-56.59,10.55-56.59,0,0-40.02-30-101.52-30-24.51,0-45.6,4.76-62.1,10.5,17.58-7.22,42.24-14.2,71.89-14.2,61.5,0,101.52,30.01,101.52,30.01,0,0-6.01,30.04-10.54,56.58-5.73,33.6-8.32,69.9-8.32,69.9,0,0-3.65,1.11-9.71,2.71.46-6.03,3.08-38.56,8.24-68.91Z"/>
      </g>
      <g>
        <path class="st15" d="M95.59,49.84c-11.42,2.01-21.44-.71-22.39-6.09-.95-5.38,7.54-11.37,18.96-13.39,11.42-2.01,21.45.71,22.39,6.09.95,5.38-7.53,11.37-18.96,13.39Z"/>
        <path class="st15" d="M69.41,48.35c-.7,2.12-2.98,3.26-5.1,2.56-2.11-.7-3.26-2.99-2.56-5.09.7-2.11,2.98-3.26,5.09-2.56,2.11.7,3.25,2.98,2.56,5.09Z"/>
      </g>
    </g>
    <g>
      <g>
        <path class="st18" d="M145.42,162.69h-.02s-.02,0-.03,0c-56.28,0-85.62,13.68-93.44,17.97-1.97-12.46-2.16-21.61-2.16-21.61,0,0,28.87-19.24,95.6-19.24h.05c66.74,0,95.59,19.24,95.59,19.24,0,0-.19,9.16-2.16,21.61-7.82-4.29-37.16-17.97-93.44-17.97Z"/>
        <path d="M145.42,154.21c-7.07.17-14.13.22-21.19.68-7.01.46-13.98,1.23-20.94,2.16-9.91,1.34-19.76,3.27-29.39,6-8.99,2.55-18.03,5.78-26.25,10.28,4.15,1.7,8.31,3.39,12.46,5.07-.24-1.52-.46-3.04-.67-4.56.1.75.2,1.51.31,2.26-.75-5.64-1.37-11.36-1.5-17.05-1.4,2.44-2.81,4.88-4.21,7.33,3.1-2.07,6.64-3.59,10.05-5.03-.68.28-1.35.56-2.03.85,14.63-6.15,30.38-9.6,46.07-11.71-.75.1-1.5.2-2.26.3,26.09-3.48,52.94-3.48,79.02,0-.76-.1-1.51-.2-2.26-.3,15.68,2.11,31.43,5.56,46.06,11.71-.68-.29-1.35-.57-2.03-.85,3.42,1.44,6.95,2.96,10.05,5.03-1.4-2.44-2.81-4.88-4.2-7.33-.12,5.7-.74,11.41-1.5,17.05.1-.75.2-1.51.3-2.26-.2,1.52-.42,3.04-.67,4.56,4.16-1.69,8.31-3.38,12.47-5.07-11.08-6.07-23.52-9.9-35.79-12.71-20.25-4.64-41.2-6.4-61.93-6.42-4.62,0-8.49,3.87-8.49,8.49s3.86,8.49,8.49,8.49c13.19.01,26.39.75,39.48,2.49-.76-.1-1.5-.2-2.26-.3,15.73,2.12,31.53,5.58,46.21,11.77-.68-.29-1.35-.57-2.04-.86,2.65,1.12,5.25,2.33,7.77,3.7,2.02,1.11,4.3,1.47,6.54.86,2.6-.71,5.48-3.1,5.93-5.92,1.06-6.7,1.87-13.46,2.3-20.23.07-1.17.13-2.36.16-3.53.09-3.19-1.72-5.85-4.31-7.52-2.02-1.29-4.19-2.36-6.36-3.37-14.39-6.73-29.92-10.75-45.56-13.26-27.01-4.34-54.82-4.91-82-1.86-18,2.01-36.16,5.44-52.98,12.38-3.95,1.63-7.9,3.32-11.61,5.47-.4.23-.8.46-1.18.72-2.62,1.74-4.29,4.38-4.2,7.6.02.51.04,1.03.06,1.55.1,2.12.25,4.23.44,6.33.46,5.26,1.14,10.51,1.96,15.72.32,2.05,2.18,4.06,3.9,5.07,2.67,1.56,5.88,1.47,8.56,0,2.52-1.37,5.12-2.59,7.76-3.7-.67.29-1.35.57-2.03.86,14.67-6.19,30.47-9.65,46.2-11.77-.76.11-1.5.2-2.26.3,6.22-.83,12.48-1.43,18.74-1.84,6.92-.45,13.84-.49,20.78-.65,4.62-.1,8.49-3.78,8.49-8.49s-3.86-8.59-8.49-8.49Z"/>
      </g>
      <path class="st17" d="M195.13,125.68c-28.07-4.51-56.98-5.1-85.22-1.93-16.94,1.9-34,5-50.05,10.92.39,3.48.74,6.78,1.04,9.83,16.07-6.23,33.28-9.42,50.35-11.33,27.18-3.05,54.99-2.48,82,1.86,12.45,2,24.82,4.95,36.61,9.46.31-3.05.65-6.34,1.04-9.82-11.56-4.22-23.63-7.04-35.77-8.99Z"/>
      <path class="st16" d="M60.92,144.48c2.98-1.16,6.02-2.21,9.07-3.17-.33-3.07-.7-6.3-1.1-9.66-3.04.91-6.04,1.91-9.01,3,.39,3.48.73,6.78,1.04,9.83Z"/>
      <g>
        <path class="st8" d="M145.42,162.69h-.02s-.02,0-.03,0c-56.28,0-85.62,13.68-93.44,17.97-1.97-12.46-2.16-21.61-2.16-21.61,0,0,28.87-19.24,95.6-19.24h.05c66.74,0,95.59,19.24,95.59,19.24,0,0-.19,9.16-2.16,21.61-7.82-4.29-37.16-17.97-93.44-17.97Z"/>
        <path class="st14" d="M51.94,174.71c7.82-4.29,37.16-17.97,93.44-17.97h.05c56.28,0,85.62,13.68,93.44,17.97,1.02-6.44,1.56-11.99,1.84-15.86.21.13.31.2.31.2,0,0-.19,9.16-2.16,21.61-7.82-4.29-37.16-17.97-93.44-17.97h-.02s-.02,0-.03,0c-56.28,0-85.62,13.68-93.44,17.97-1.97-12.46-2.16-21.61-2.16-21.61,0,0,.11-.07.32-.2.29,3.87.83,9.42,1.85,15.86Z"/>
        <path class="st0" d="M145.42,145.17h-.02s-.02,0-.03,0c-63.02,0-92.26,17.15-95.33,19.07-.23-3.27-.28-5.19-.28-5.19,0,0,28.87-19.24,95.6-19.24h.05c66.74,0,95.59,19.24,95.59,19.24,0,0-.04,1.92-.27,5.19-3.07-1.92-32.31-19.07-95.32-19.07Z"/>
      </g>
    </g>
    <g>
      <g>
        <path class="st18" d="M235.69,202.54s.01-.06.01-.09c.02-.27.04-.54.05-.81.08-1.85-1.62-3.49-4.1-4.45-.14-.05-.29-.11-.44-.16-3.3-1.17-6.88-2.07-10.41-2.93-6.5-1.58-13.25-2.78-20.05-3.73-24.66-3.44-50.56-4.16-75.72-3.03-18.35.83-37.18,2.56-54.38,6.77-3.53.86-7.12,1.76-10.41,2.93-.15.05-.29.1-.44.16-2.51.97-4.19,2.62-4.1,4.48.02.26.03.52.05.78,0,.05.01.09.02.14-29.01-2.67-47.35-6.6-47.35-10.99,0-8.02,61.34-28.92,137.03-28.92s137.03,20.9,137.03,28.92c0,4.36-18.1,8.27-46.78,10.93Z"/>
        <path d="M244.18,202.54c.24-2.51-.38-5.24-1.83-7.33-2.18-3.12-4.97-4.79-8.43-6.2-3.93-1.6-8.24-2.48-12.35-3.45-9.07-2.13-18.32-3.44-27.56-4.55-17.59-2.11-35.34-2.83-53.04-2.62-16.08.19-32.24,1.04-48.19,3.15-8.36,1.11-16.67,2.49-24.87,4.5-4.32,1.06-8.71,2.14-12.78,3.99-4.8,2.19-8.35,7.16-7.82,12.56,2.83-2.83,5.65-5.66,8.48-8.49-5.93-.55-11.86-1.18-17.77-1.97.76.1,1.51.2,2.26.3-5.15-.69-10.29-1.49-15.37-2.57-3.41-.72-6.85-1.55-10.08-2.89.68.28,1.36.57,2.03.85-.99-.42-1.97-.89-2.84-1.54.58.44,1.15.88,1.72,1.32-.31-.24-.58-.49-.83-.79.44.57.88,1.14,1.33,1.72-.14-.18-.25-.36-.34-.57.29.68.57,1.35.86,2.03-.05-.13-.09-.27-.12-.4.1.75.2,1.5.3,2.25-.02-.16-.02-.31,0-.47-.1.76-.21,1.51-.3,2.26.03-.18.08-.36.15-.53-.28.68-.57,1.35-.85,2.03.13-.3.3-.57.5-.83-.45.58-.89,1.15-1.33,1.72.5-.64,1.11-1.18,1.75-1.68-.57.45-1.15.88-1.72,1.33,3-2.31,6.59-3.9,10.05-5.38-.68.29-1.35.57-2.02.86,9.03-3.8,18.51-6.54,28.01-8.92,13.25-3.31,26.72-5.76,40.25-7.59-.75.11-1.5.2-2.25.31,33.01-4.42,66.47-4.94,99.61-1.54,4.33.45,8.66.96,12.97,1.54-.75-.1-1.5-.2-2.25-.31,13.53,1.83,26.99,4.29,40.25,7.59,9.49,2.37,18.98,5.12,28.01,8.92-.67-.29-1.35-.57-2.03-.86,3.47,1.47,7.05,3.07,10.05,5.38-.57-.44-1.14-.88-1.71-1.33.64.5,1.25,1.04,1.75,1.68-.44-.57-.89-1.14-1.33-1.72.2.26.37.53.5.83-.29-.67-.57-1.35-.86-2.03.07.17.12.35.15.53-.1-.75-.2-1.5-.3-2.26.02.16.02.32,0,.47.09-.75.2-1.5.3-2.25-.03.14-.06.27-.12.4.29-.67.57-1.35.86-2.03-.1.2-.21.39-.34.57.44-.57.88-1.14,1.33-1.71-.25.3-.53.56-.84.8.57-.44,1.15-.88,1.72-1.32-.87.65-1.86,1.12-2.87,1.55.68-.28,1.36-.56,2.03-.85-3.16,1.3-6.53,2.11-9.87,2.83-5.09,1.1-10.25,1.89-15.41,2.59.75-.1,1.5-.2,2.25-.3-5.76.77-11.53,1.4-17.32,1.93-2.32.22-4.29.78-5.99,2.49-1.59,1.58-2.49,3.75-2.49,6,0,4.3,3.87,8.92,8.48,8.48,8.54-.79,17.06-1.78,25.54-3.09,5.43-.84,10.9-1.82,16.17-3.44,4.73-1.46,9.11-3.39,12.04-7.54,3.06-4.33,1.22-9.79-1.97-13.34-1.87-2.08-4.49-3.67-6.93-5.01-3.62-1.98-7.49-3.56-11.33-5.05-9.7-3.77-19.81-6.52-29.94-8.88-30.47-7.11-62.02-10.41-93.29-10.47-31.38-.06-63.02,3.28-93.62,10.3-10.22,2.35-20.4,5.13-30.21,8.88-6.29,2.4-13.78,5.12-18.59,10.1-3.53,3.65-4.72,8.69-2.21,13.3,2.29,4.18,7.36,6.15,11.61,7.53,5.07,1.66,10.41,2.59,15.66,3.45,8.29,1.34,16.65,2.31,25.02,3.12.71.07,1.43.13,2.14.2,4.3.39,8.91-4.17,8.49-8.49-.05-.52-.09-1.02-.03-1.54-.1.75-.2,1.5-.31,2.25.03-.2.09-.4.16-.59-.28.68-.57,1.35-.85,2.03.17-.41.38-.76.66-1.11-.44.57-.88,1.14-1.32,1.71.32-.37.67-.68,1.05-.98-.57.44-1.14.88-1.71,1.32.57-.39,1.16-.72,1.79-1.01-.68.29-1.36.57-2.03.86,5.13-2.1,10.77-3.22,16.17-4.39,5.52-1.19,11.1-2.11,16.69-2.87-.76.1-1.51.2-2.26.3,17.36-2.33,34.94-3.17,52.44-3.26,17.69-.09,35.41.84,52.96,3.1.52.07,1.04.14,1.55.21-.75-.1-1.5-.2-2.25-.3,5.55.76,11.08,1.66,16.57,2.8,5.45,1.14,11.16,2.3,16.33,4.42-.68-.29-1.35-.58-2.03-.86.66.31,1.27.65,1.86,1.07-.58-.45-1.15-.88-1.72-1.33.4.33.74.66,1.07,1.06-.44-.57-.88-1.15-1.32-1.71.2.28.35.55.5.88-.28-.68-.57-1.35-.85-2.03.08.2.14.4.18.62-.1-.75-.21-1.5-.31-2.25.07.51.03,1.02-.01,1.54-.43,4.61,4.19,8.48,8.48,8.48,2.25,0,4.42-.9,6-2.49,1.7-1.7,2.27-3.67,2.48-6Z"/>
      </g>
      <path class="st22" d="M213.51,201.15c-5.25-1.1-10.53-1.97-15.84-2.7,0,0-.02,0-.02,0-17.56-2.26-35.27-3.19-52.97-3.1-17.13.09-34.34.9-51.34,3.12-5.2.73-10.39,1.6-15.52,2.71-4.55.98-9.28,1.94-13.72,3.47-.05.22-.13.45-.2.67,0,3.03.01,5.94.03,8.65.06-.2.12-.39.17-.59,4.44-1.53,9.16-2.49,13.72-3.47,5.13-1.11,10.32-1.98,15.52-2.71,17-2.21,34.2-3.03,51.34-3.11,17.69-.09,35.41.84,52.97,3.1,0,0,.01,0,.02,0,5.31.73,10.6,1.61,15.84,2.7,4.48.94,9.13,1.89,13.52,3.37v-8.73c-4.39-1.48-9.04-2.44-13.52-3.37Z"/>
      <path class="st6" d="M235.69,202.54s.01-.06.01-.09c.02-.27.04-.54.05-.81.08-1.85-1.62-3.49-4.1-4.45-.14-.05-.29-.11-.44-.16-3.3-1.17-6.88-2.07-10.41-2.93-6.5-1.58-13.25-2.78-20.05-3.73-24.66-3.44-50.56-4.16-75.72-3.03-18.35.83-37.18,2.56-54.38,6.77-3.53.86-7.12,1.76-10.41,2.93-.15.05-.29.1-.44.16-2.51.97-4.19,2.62-4.1,4.48.02.26.03.52.05.78,0,.05.01.09.02.14-29.01-2.67-47.35-6.6-47.35-10.99,0-8.02,61.34-28.92,137.03-28.92s137.03,20.9,137.03,28.92c0,4.36-18.1,8.27-46.78,10.93Z"/>
      <path class="st5" d="M145.36,162.77c-75.68,0-137.03,20.9-137.03,28.92,0,1.52,2.23,3,6.35,4.39,2.85-8.05,60.26-27.01,130.67-27.01s127.82,18.96,130.66,27.01c4.13-1.38,6.36-2.86,6.36-4.39,0-8.03-61.34-28.92-137.02-28.92Z"/>
    </g>
    <g>
      <g>
        <g>
          <g>
            <path class="st3" d="M109.81,232.02c0,7.65-6.21,13.86-13.87,13.86s-13.87-6.21-13.87-13.86,6.21-13.87,13.87-13.87,13.87,6.21,13.87,13.87Z"/>
            <path d="M107.99,232.02c-.06,5.2-3.38,9.82-8.34,11.46-5.03,1.67-10.68-.32-13.66-4.67-2.98-4.32-2.73-10.32.59-14.39,3.4-4.17,9.03-5.45,13.99-3.55,4.52,1.73,7.37,6.42,7.43,11.15.03,2.34,3.67,2.34,3.63,0-.06-5.66-3.06-10.81-7.95-13.65-4.92-2.86-11.2-2.62-16.01.32-4.8,2.94-7.6,8.42-7.4,14.01.21,5.66,3.67,10.85,8.69,13.37,4.83,2.42,10.67,2.08,15.25-.72,4.61-2.82,7.35-7.97,7.41-13.32.03-2.35-3.61-2.35-3.63,0Z"/>
          </g>
          <path class="st15" d="M105.91,228.37c0,1.88-1.52,3.4-3.4,3.4s-3.41-1.52-3.41-3.4,1.53-3.41,3.41-3.41,3.4,1.52,3.4,3.41Z"/>
        </g>
        <g>
          <g>
            <g>
              <path class="st3" d="M211.28,232.02c0,7.65-6.21,13.86-13.87,13.86s-13.87-6.21-13.87-13.86,6.21-13.87,13.87-13.87,13.87,6.21,13.87,13.87Z"/>
              <path d="M209.46,232.02c-.06,5.2-3.37,9.82-8.33,11.46-4.95,1.64-10.55-.26-13.56-4.5-3-4.24-2.93-10.21.28-14.32,3.3-4.24,8.88-5.69,13.89-3.91,4.68,1.66,7.67,6.4,7.73,11.26.03,2.34,3.66,2.34,3.64,0-.07-5.66-3.06-10.81-7.95-13.65-4.92-2.86-11.2-2.62-16.01.32-4.8,2.93-7.59,8.42-7.39,14,.2,5.58,3.56,10.7,8.49,13.27,4.85,2.53,10.81,2.22,15.45-.62,4.61-2.82,7.35-7.97,7.41-13.32.02-2.35-3.61-2.35-3.64,0Z"/>
            </g>
            <path class="st15" d="M207.38,228.37c0,1.88-1.52,3.4-3.41,3.4s-3.41-1.52-3.41-3.4,1.52-3.41,3.41-3.41,3.41,1.52,3.41,3.41Z"/>
          </g>
          <path class="st13" d="M93.91,254.41c.29,2.16-3.44,4.46-8.33,5.12-4.89.66-9.11-.55-9.4-2.72-.29-2.16,3.44-4.46,8.34-5.12,4.9-.66,9.11.55,9.4,2.72Z"/>
          <path class="st13" d="M196.89,254.41c-.3,2.16,3.43,4.46,8.32,5.12,4.9.66,9.11-.55,9.4-2.72.3-2.16-3.43-4.46-8.33-5.12-4.9-.66-9.1.55-9.39,2.72Z"/>
        </g>
      </g>
      <path d="M153.36,261.55c-.04.29-.13.57-.23.84-.04.14-.1.28-.15.41.35-.87.09-.24,0-.04-.09.18-.19.35-.29.52-.09.16-.65.89-.16.28-.32.4-.69.76-1.08,1.09-.22.19-.21.18.04-.03-.12.09-.25.17-.37.25-.26.17-.54.32-.82.46-.45.24-.83.35-1.66.55-.9.23-1.65.28-2.65.3-1.7.04-3.15-.15-4.75-.76.44.16-.42-.21-.5-.25-.27-.14-.53-.31-.78-.48-.37-.26.27.25-.27-.23-.24-.21-.46-.44-.66-.68-.32-.36.31.47-.1-.14-.12-.17-.23-.35-.33-.53-.1-.17-.18-.34-.26-.51-.15-.32.24.66,0-.04-.14-.42-.31-1.7-.16-.32-.16-1.44-1.09-2.67-2.66-2.67-1.34,0-2.83,1.22-2.67,2.67.2,1.89,1.01,3.55,2.19,5.03,2.44,3.05,6.45,4.1,10.19,4.24,3.91.13,8.15-.95,10.85-3.92,1.13-1.24,2.19-2.95,2.44-4.64.21-1.44-.33-2.86-1.86-3.28-1.27-.35-3.08.42-3.28,1.86h0Z"/>
    </g>
    <g>
      <g>
        <g>
          <polygon class="st18" points="149.04 313.19 157.84 313 160.28 307.39 172.87 304.21 171 294.31 149.04 313.19"/>
          <path d="M149.04,318.64c2.93-.06,5.87-.13,8.8-.19,1.75-.04,3.97-.98,4.72-2.7.81-1.86,1.62-3.73,2.42-5.61-1.09.84-2.18,1.67-3.26,2.51,4.2-1.07,8.39-2.12,12.6-3.19,3.05-.77,4.35-3.84,3.81-6.71-.63-3.3-1.25-6.6-1.87-9.91-.34-1.82-2.09-3.34-3.81-3.8-1.99-.55-3.8.1-5.31,1.4-7.32,6.29-14.64,12.59-21.96,18.88-2.25,1.94-1.98,5.74,0,7.72,2.22,2.22,5.46,1.94,7.72,0,7.32-6.29,14.64-12.58,21.95-18.88-3.03-.8-6.07-1.61-9.11-2.41.63,3.3,1.25,6.6,1.87,9.9,1.26-2.23,2.53-4.47,3.8-6.71-3.56.89-7.11,1.79-10.67,2.7-2.2.55-4.38,1.13-5.4,3.49-.74,1.7-1.47,3.41-2.22,5.1,1.58-.9,3.15-1.8,4.71-2.7-2.93.06-5.87.13-8.8.19-2.98.06-5.46,2.43-5.46,5.46s2.48,5.52,5.46,5.46Z"/>
        </g>
        <polygon class="st17" points="149.04 313.19 157.84 313 160.28 307.39 172.87 304.21 171 294.31 149.04 313.19"/>
        <polygon class="st5" points="171.26 295.7 171 294.31 149.04 313.19 150.97 313.14 171.26 295.7"/>
        <polygon class="st17" points="170.12 295.07 171.66 303.25 159.07 306.42 156.63 312.03 150.22 312.17 149.04 313.19 157.84 313 160.28 307.39 172.87 304.21 171 294.31 170.12 295.07"/>
      </g>
      <g>
        <g>
          <polygon class="st18" points="141.76 313.19 132.95 313 130.52 307.39 117.92 304.21 119.8 294.31 141.76 313.19"/>
          <path d="M141.76,307.73c-2.94-.06-5.87-.13-8.8-.19,1.57.9,3.13,1.8,4.71,2.7-.72-1.65-1.44-3.31-2.15-4.96-1.04-2.41-3.19-3.06-5.46-3.63-3.56-.9-7.12-1.8-10.67-2.7,1.27,2.23,2.54,4.47,3.81,6.71.62-3.3,1.25-6.6,1.87-9.9-3.04.8-6.08,1.6-9.12,2.41,7.32,6.29,14.64,12.59,21.96,18.88,2.25,1.94,5.5,2.22,7.71,0,1.99-1.98,2.26-5.78,0-7.72-7.32-6.29-14.64-12.59-21.96-18.88-1.51-1.29-3.32-1.95-5.31-1.4-1.72.47-3.47,1.99-3.81,3.8-.63,3.31-1.25,6.6-1.87,9.91-.55,2.87.75,5.94,3.8,6.71,4.2,1.06,8.41,2.12,12.6,3.19-1.09-.84-2.17-1.67-3.26-2.51.81,1.87,1.61,3.74,2.42,5.61.75,1.73,2.96,2.66,4.71,2.7,2.93.06,5.87.13,8.8.19,2.98.06,5.45-2.53,5.45-5.46s-2.48-5.39-5.45-5.46Z"/>
        </g>
        <polygon class="st17" points="141.76 313.19 132.95 313 130.52 307.39 117.92 304.21 119.8 294.31 141.76 313.19"/>
        <polygon class="st5" points="119.54 295.7 119.8 294.31 141.76 313.19 139.84 313.14 119.54 295.7"/>
        <polygon class="st17" points="120.68 295.07 119.14 303.25 131.74 306.42 134.16 312.03 140.57 312.17 141.76 313.19 132.95 313 130.52 307.39 117.92 304.21 119.8 294.31 120.68 295.07"/>
      </g>
    </g>
    <g>
      <g>
        <g>
          <g>
            <path class="st10" d="M133.71,290.39s-2.4,2.12-2.4,5.93,2.4,5.91,2.4,5.91l7.02-2.52v-6.79l-7.02-2.52Z"/>
            <path d="M130.28,286.96c-5.06,4.58-5.13,14.13,0,18.7,1.23,1.1,3.05,1.84,4.72,1.25,2.34-.84,4.68-1.69,7.01-2.52,2.06-.74,3.56-2.39,3.56-4.68v-6.79c0-2.29-1.51-3.94-3.56-4.68-2.34-.84-4.68-1.68-7.01-2.52-2.49-.89-5.31.98-5.96,3.39-.74,2.7.9,5.07,3.38,5.96,2.34.84,4.68,1.68,7.02,2.52-1.19-1.56-2.37-3.12-3.56-4.68v6.79c1.19-1.56,2.37-3.12,3.56-4.68-2.34.84-4.68,1.68-7.02,2.52,1.58.42,3.15.83,4.72,1.25-.1-.09-.19-.18-.28-.28-.85-.89.65.98-.03-.05-.14-.21-.26-.44-.38-.66-.49-.91.4,1.1.02.07-.11-.31-.19-.64-.27-.96-.1-.53-.1-.46,0,.2-.03-.27-.04-.53-.04-.79s.16-1.54-.04-.24c.05-.35.15-.68.25-1.01.09-.31.54-1.29-.04.01.11-.25.24-.48.38-.71.12-.2.25-.4.38-.58.48-.7-.79.97-.31.41.12-.14.25-.27.38-.39,1.96-1.78,1.8-5.06,0-6.86-1.94-1.94-4.9-1.77-6.86,0Z"/>
          </g>
          <path class="st7" d="M133.71,290.39s-2.4,2.12-2.4,5.93,2.4,5.91,2.4,5.91l7.02-2.52v-6.79l-7.02-2.52Z"/>
          <path class="st9" d="M134.08,301.34s-2.39-2.09-2.39-5.91c0-1.1.2-2.07.49-2.88-.47.96-.86,2.22-.86,3.76,0,3.82,2.4,5.91,2.4,5.91l7.02-2.52v-.76l-6.65,2.4Z"/>
          <path class="st11" d="M131.9,297.59c0-3.81,2.4-5.94,2.4-5.94l6.43,2.31v-1.05l-7.02-2.52s-2.4,2.12-2.4,5.93c0,1.84.55,3.27,1.13,4.26-.32-.83-.54-1.84-.54-3Z"/>
        </g>
        <g>
          <g>
            <path class="st10" d="M157.09,290.39s2.4,2.12,2.4,5.93-2.4,5.91-2.4,5.91l-7.02-2.52v-6.79l7.02-2.52Z"/>
            <path d="M153.66,293.82c.1.09.19.19.28.29.25.27.66.82-.34-.48.13.17.25.36.37.54.14.21.26.44.38.67.48.9-.4-1.11-.02-.07.12.31.2.64.27.96.1.54.1.47,0-.2.02.27.03.53.03.79,0,.26-.16,1.54.04.24-.06.35-.15.68-.25,1.01-.08.31-.55,1.28.04-.02-.11.24-.25.47-.37.7-.12.2-.25.39-.39.58.89-1.26.57-.71.31-.42-.11.14-.24.27-.37.39,1.57-.42,3.15-.83,4.72-1.25-2.34-.84-4.68-1.69-7.02-2.52,1.18,1.55,2.37,3.12,3.56,4.68v-6.79c-1.19,1.56-2.38,3.12-3.56,4.68,2.34-.84,4.68-1.69,7.02-2.52,2.48-.89,4.12-3.27,3.39-5.96-.66-2.41-3.48-4.28-5.96-3.39-2.34.84-4.68,1.68-7.02,2.52-2.05.74-3.56,2.39-3.56,4.68v6.79c0,2.28,1.5,3.93,3.56,4.68,2.34.84,4.68,1.68,7.02,2.52,1.66.6,3.48-.15,4.71-1.25,5.13-4.57,5.06-14.12,0-18.7-1.95-1.77-4.92-1.94-6.86,0-1.8,1.79-1.96,5.08,0,6.86Z"/>
          </g>
          <path class="st7" d="M157.09,290.39s2.4,2.12,2.4,5.93-2.4,5.91-2.4,5.91l-7.02-2.52v-6.79l7.02-2.52Z"/>
          <path class="st9" d="M156.72,301.34s2.4-2.09,2.4-5.91c0-1.1-.2-2.07-.48-2.88.46.96.85,2.22.85,3.76,0,3.82-2.4,5.91-2.4,5.91l-7.02-2.52v-.76l6.65,2.4Z"/>
          <path class="st11" d="M158.89,297.59c0-3.81-2.4-5.94-2.4-5.94l-6.42,2.31v-1.05l7.02-2.52s2.4,2.12,2.4,5.93c0,1.84-.55,3.27-1.13,4.26.31-.83.53-1.84.53-3Z"/>
        </g>
      </g>
      <g>
        <g>
          <path class="st10" d="M142.5,296.31c0,1.6,1.3,2.9,2.89,2.9s2.9-1.3,2.9-2.9-1.29-2.91-2.9-2.91-2.89,1.3-2.89,2.91Z"/>
          <path d="M137.65,296.31c.23,4.38,3.37,7.51,7.75,7.75,4.37.24,7.54-3.72,7.76-7.75.23-4.37-3.73-7.54-7.76-7.76-4.36-.23-7.53,3.73-7.75,7.76-.14,2.64,2.31,4.85,4.85,4.85,2.75,0,4.7-2.22,4.85-4.85-.14.76-.16.88-.03.37-.1.43-.31.81-.64,1.11.37-.35.27-.29-.3.2-.2.07-.4.15-.61.24.51-.13.39-.12-.38.03-.76-.15-.88-.15-.37-.03-.44-.1-.81-.32-1.11-.65.35.37.29.27-.19-.29-.08-.2-.16-.4-.24-.61.13.51.12.39-.03-.37.15-.77.16-.89.03-.38.1-.44.32-.81.65-1.11-.37.36-.27.29.29-.2.2-.08.4-.16.61-.24-.51.13-.39.13.37-.02.77.15.89.16.38.02.44.1.81.32,1.11.65-.35-.36-.29-.27.2.29.08.21.16.41.24.61-.13-.51-.12-.39.03.38-.14-2.64-2.1-4.85-4.85-4.85-2.54,0-5,2.21-4.85,4.85Z"/>
        </g>
        <path class="st7" d="M142.5,296.31c0,1.6,1.3,2.9,2.89,2.9s2.9-1.3,2.9-2.9-1.29-2.91-2.9-2.91-2.89,1.3-2.89,2.91Z"/>
        <path class="st9" d="M147.8,296.31c0-1.52-1.17-2.76-2.65-2.9.08,0,.16-.01.24-.01,1.61,0,2.9,1.3,2.9,2.91s-1.29,2.9-2.9,2.9c-.08,0-.16,0-.24-.01,1.48-.13,2.65-1.37,2.65-2.89Z"/>
        <path class="st11" d="M143,296.31c0-1.52,1.16-2.76,2.65-2.9-.08,0-.17-.01-.25-.01-1.6,0-2.89,1.3-2.89,2.91s1.3,2.9,2.89,2.9c.09,0,.17,0,.25-.01-1.49-.13-2.65-1.37-2.65-2.89Z"/>
      </g>
    </g>
    <g>
      <g>
        <g>
          <rect class="st18" x="79.67" y="288.64" width="3.15" height="52.65" transform="translate(-229.76 219.68) rotate(-58.5)"/>
          <path d="M99.81,324.6c-.55.9-1.1,1.79-1.64,2.69,2.49-.66,4.97-1.31,7.46-1.96-9.99-6.11-19.97-12.22-29.97-18.34-4.98-3.04-9.96-6.1-14.94-9.14.65,2.49,1.3,4.97,1.95,7.46.55-.89,1.1-1.79,1.65-2.68-2.49.65-4.98,1.31-7.46,1.96,9.99,6.11,19.97,12.23,29.97,18.33,4.98,3.05,9.96,6.1,14.95,9.14,2.53,1.55,5.98.57,7.46-1.96,1.52-2.6.58-5.91-1.96-7.46-9.99-6.11-19.98-12.22-29.97-18.33-4.98-3.05-9.96-6.09-14.95-9.14-2.57-1.58-5.94-.54-7.46,1.96-.54.89-1.09,1.78-1.64,2.69-1.58,2.57-.54,5.94,1.95,7.46,9.99,6.11,19.99,12.23,29.98,18.34,4.98,3.05,9.96,6.1,14.94,9.14,2.57,1.58,5.93.55,7.46-1.95.55-.9,1.1-1.79,1.64-2.69,1.55-2.53.57-5.98-1.96-7.46-2.6-1.53-5.91-.58-7.46,1.96Z"/>
        </g>
        <rect class="st6" x="79.67" y="288.64" width="3.15" height="52.65" transform="translate(-229.76 219.68) rotate(-58.5)"/>
        <polygon class="st5" points="57.96 302.57 102.88 330.04 103.17 329.57 58.25 302.1 57.96 302.57"/>
        <polygon class="st17" points="59.32 300.35 104.23 327.83 104.52 327.36 59.61 299.89 59.32 300.35"/>
        <rect class="st21" x="60.35" y="299.47" width="3.15" height="7.37" transform="translate(-229.07 197.99) rotate(-58.59)"/>
      </g>
      <polygon class="st4" points="64.31 305.75 63.99 306.26 57.96 302.57 58.28 302.06 64.31 305.75"/>
      <g>
        <polygon class="st3" points="69.37 303.04 65.11 310.01 62.88 308.64 67.13 301.67 69.37 303.04"/>
        <path d="M68.32,302.44c-1.42,2.32-2.84,4.64-4.26,6.96.56-.14,1.11-.29,1.66-.43-.75-.46-1.5-.91-2.23-1.37.14.55.29,1.1.43,1.66,1.42-2.32,2.84-4.63,4.26-6.96-.56.15-1.11.29-1.66.44.75.45,1.49.91,2.24,1.36,1.34.82,2.55-1.28,1.22-2.09-.75-.46-1.49-.91-2.24-1.37-.57-.35-1.32-.12-1.66.43-1.42,2.33-2.84,4.64-4.26,6.96-.35.57-.12,1.32.43,1.66.75.45,1.49.91,2.24,1.36.57.35,1.32.12,1.66-.43,1.42-2.32,2.84-4.64,4.25-6.96.82-1.34-1.28-2.56-2.09-1.22Z"/>
      </g>
      <polygon class="st12" points="64.85 303.08 64.54 303.6 59.29 300.39 59.61 299.89 64.85 303.08"/>
    </g>
  </g>
  <g>
    <g>
      <path class="st2" d="M50.21,285.9s-1.61.51-3.8.55c-2.11.04-3.98-.86-4.11-.92h-.01s0,0,0,0h0,0c.07.14.99,2,.98,4.12-.02,2.19-.52,3.8-.52,3.8h0s0,0,0,0c0,0,1.61-.51,3.81-.55,2.11-.04,3.98.86,4.11.92h.01s0,0,0,0h0s0,0,0,0c-.06-.13-.98-1.99-.96-4.11.01-2.19.51-3.81.51-3.81h0s0,0,0,0Z"/>
      <path class="st2" d="M46.79,270.75s-1,.32-2.37.34c-1.32.02-2.48-.54-2.57-.58h0,0c.04.09.61,1.25.59,2.56,0,1.37-.31,2.37-.31,2.37h0s1-.31,2.37-.33c1.32-.02,2.48.54,2.56.58h0s0,0,0,0h0s0,0,0,0c-.04-.08-.61-1.25-.6-2.56.01-1.37.32-2.37.32-2.37h0Z"/>
      <path class="st2" d="M28.08,297.06s-1,.31-2.37.33c-1.31.02-2.48-.54-2.56-.58h0s0,0,0,0h0c.04.09.61,1.25.6,2.56,0,1.37-.32,2.38-.32,2.38h0s1-.32,2.37-.34c1.32-.02,2.48.54,2.56.57h0s0,0,0,0h0c-.04-.09-.61-1.25-.6-2.56.01-1.37.32-2.37.32-2.37h0Z"/>
      <path class="st2" d="M14.17,295.37s-.57.18-1.35.2c-.75.01-1.42-.31-1.47-.33h0s0,0,0,0c.02.04.35.7.35,1.46,0,.78-.19,1.36-.19,1.36h0s.58-.18,1.36-.2c.75-.01,1.41.3,1.46.33h0s0,0,0,0h0s0,0,0,0c-.02-.05-.35-.71-.35-1.46,0-.78.18-1.35.18-1.35h0Z"/>
      <path class="st2" d="M27.4,268.34s-.65.2-1.53.22c-.85.01-1.6-.35-1.65-.38h0s0,0,0,0h0s0,0,0,0c.03.06.39.8.39,1.65,0,.88-.21,1.53-.21,1.53h0s.65-.2,1.53-.22c.85-.01,1.6.35,1.65.37h0s0,0,0,0h0,0c-.03-.05-.4-.8-.39-1.65,0-.88.21-1.54.21-1.54h0Z"/>
    </g>
    <path class="st2" d="M32.96,281.19s-.73.23-1.72.25c-.95.02-1.79-.39-1.86-.41h0s0,0,0,0h0s0,0,0,0c.03.06.45.9.44,1.86,0,.99-.23,1.71-.23,1.71h0s.73-.23,1.72-.25c.96-.02,1.8.39,1.86.42h0s0,0,0,0h0s0,0,0,0c-.03-.06-.44-.89-.44-1.85,0-.99.23-1.72.23-1.72h0Z"/>
    <path class="st2" d="M17.43,278.01s-1.21.38-2.84.41c-1.58.03-2.98-.64-3.08-.69h0s0,0,0,0h0c.05.1.73,1.49.72,3.07-.01,1.64-.38,2.85-.38,2.85h0s1.2-.38,2.85-.41c1.58-.02,2.97.65,3.08.69h0s0,0,0,0h.01-.01c-.05-.1-.73-1.49-.72-3.08.01-1.64.38-2.85.38-2.85h0Z"/>
    <path class="st2" d="M40.35,298.44s-.52.16-1.22.17c-.68.01-1.28-.27-1.32-.29h0,0,0,0s.31.63.31,1.32c0,.7-.16,1.22-.16,1.22h0s0,0,0,0c0,0,.52-.17,1.22-.18.68-.01,1.28.28,1.32.3h0,0,0,0s-.31-.64-.31-1.32c0-.71.16-1.22.16-1.22h0Z"/>
    <path class="st2" d="M13.94,262.48s-.34.11-.81.12c-.44,0-.84-.18-.87-.2h0s.21.42.21.87c0,.46-.11.81-.11.81h0s.34-.11.81-.12c.45-.01.85.18.87.2h0,0s-.21-.43-.2-.87c0-.47.1-.81.1-.81h0Z"/>
  </g>
</svg>