<?xml version="1.0" encoding="UTF-8"?>
<svg id="Layer_1" xmlns="http://www.w3.org/2000/svg" version="1.1" viewBox="0 0 282.8 331">
  <!-- Generator: Adobe Illustrator 29.6.1, SVG Export Plug-In . SVG Version: 2.1.1 Build 9)  -->
  <defs>
    <style>
      .st0 {
        fill: #ac794e;
      }

      .st1 {
        fill: #935b31;
      }

      .st2 {
        fill: #ff6c77;
      }

      .st3 {
        fill: #58595b;
      }

      .st4, .st5 {
        fill: #ffce00;
      }

      .st5, .st6, .st7, .st8 {
        fill-rule: evenodd;
      }

      .st9 {
        fill: #ea2127;
      }

      .st10 {
        fill: #000002;
      }

      .st11 {
        fill: #5b5b5b;
      }

      .st12 {
        fill: #414042;
      }

      .st13, .st8 {
        fill: #fff4c7;
      }

      .st14 {
        fill: #aaa;
      }

      .st15, .st6 {
        fill: #ff9d00;
      }

      .st16 {
        fill: #ed1c24;
      }

      .st17 {
        fill: #d8d8d8;
      }

      .st18 {
        fill: #a0a0a0;
      }

      .st19 {
        fill: #636363;
      }

      .st20 {
        fill: #be1e2d;
      }

      .st21 {
        fill: #fff;
      }

      .st22 {
        fill: #fdc361;
      }

      .st23 {
        fill: #747673;
      }

      .st24 {
        fill: #fde5d2;
      }

      .st25 {
        fill: #808285;
      }

      .st7 {
        fill: #ec2227;
      }

      .st26 {
        fill: #005893;
      }

      .st27 {
        fill: #7f7f7f;
      }

      .st28 {
        fill: #4b4b4b;
      }

      .st29 {
        fill: #1c75bc;
      }

      .st30 {
        fill: #c49c7e;
      }
    </style>
  </defs>
  <g>
    <g>
      <path class="st10" d="M282.65,139.04c0-2.72-1.55-5.09-3.8-6.26,2.34-1.15,3.95-3.56,3.95-6.35,0-3.09-1.99-5.71-4.75-6.67,1.58-1.3,2.59-3.27,2.59-5.47,0-3.13-2.04-5.79-4.85-6.71,1.02-1.22,1.62-2.79,1.62-4.51,0-3.51-2.54-6.4-5.89-6.97,1.3-1.28,2.1-3.05,2.1-5.02,0-3.7-2.83-6.72-6.44-7.04.89-1.18,1.42-2.64,1.42-4.24,0-3.9-3.16-7.06-7.07-7.07.72-1.11,1.14-2.42,1.14-3.84,0-3.9-3.16-7.07-7.07-7.07-.2,0-.4.02-.61.04.53-1,.84-2.14.84-3.34,0-3.91-3.17-7.07-7.08-7.07-.51,0-1,.06-1.49.17.3-.79.47-1.63.47-2.52,0-3.91-3.17-7.07-7.08-7.07-.6,0-1.18.08-1.74.22.08-.42.12-.85.12-1.3,0-3.91-3.16-7.07-7.07-7.07-.76,0-1.5.12-2.18.35.02-.17.03-.33.03-.5,0-3.91-3.16-7.07-7.07-7.07-1.07,0-2.1.24-3,.68.02-.19.03-.38.03-.58,0-3.9-3.17-7.07-7.07-7.07-1.36,0-2.62.39-3.7,1.05,0-.04,0-.09,0-.13,0-3.9-3.16-7.07-7.07-7.07-1.73,0-3.32.63-4.55,1.66-.14-3.79-3.24-6.82-7.05-6.82-1.85,0-3.53.72-4.79,1.88-.62-3.29-3.49-5.77-6.95-5.77-2.22,0-4.2,1.03-5.5,2.63-.83-2.98-3.56-5.16-6.81-5.16-2.33,0-4.39,1.12-5.67,2.86-.96-2.77-3.59-4.76-6.68-4.76-2.72,0-5.08,1.55-6.26,3.8-1.01-1.93-2.89-3.34-5.12-3.7-.09-.02-.17-.03-.26-.04-.1-.01-.19-.02-.29-.04-.17-.01-.35-.02-.53-.02-.02,0-.04-.01-.06-.01h-.03s-.04.01-.07.01c-.18,0-.35.01-.52.02-.1.01-.2.02-.3.04-.08.01-.17.02-.25.04-2.23.36-4.11,1.76-5.13,3.7-1.18-2.26-3.54-3.8-6.26-3.8-3.09,0-5.71,2-6.67,4.76-1.29-1.73-3.35-2.86-5.67-2.86-3.24,0-5.97,2.18-6.81,5.16-1.29-1.6-3.27-2.63-5.5-2.63-3.46,0-6.33,2.49-6.94,5.77-1.26-1.16-2.94-1.88-4.79-1.88-3.82,0-6.92,3.03-7.06,6.82-1.23-1.03-2.81-1.66-4.55-1.66-3.91,0-7.07,3.17-7.07,7.07,0,.05.01.09.01.13-1.08-.66-2.34-1.05-3.7-1.05-3.91,0-7.07,3.17-7.07,7.07,0,.2.01.39.03.58-.92-.43-1.93-.68-3-.68-3.9,0-7.07,3.16-7.07,7.07,0,.17.01.33.02.5-.68-.22-1.42-.35-2.18-.35-3.91,0-7.07,3.16-7.07,7.07,0,.45.05.88.13,1.3-.57-.14-1.14-.22-1.75-.22-3.9,0-7.07,3.16-7.07,7.07,0,.89.17,1.73.47,2.52-.48-.11-.98-.17-1.5-.17-3.91,0-7.07,3.16-7.07,7.07,0,1.21.31,2.34.84,3.34-.2-.02-.4-.04-.61-.04-3.91,0-7.07,3.17-7.07,7.07,0,1.42.42,2.74,1.13,3.84-3.9.01-7.05,3.18-7.05,7.07,0,1.59.54,3.06,1.42,4.24-3.61.32-6.44,3.35-6.44,7.04,0,1.97.81,3.74,2.1,5.02-3.34.57-5.89,3.46-5.89,6.97,0,1.71.61,3.29,1.63,4.51-2.82.93-4.86,3.59-4.86,6.71,0,2.21,1.02,4.17,2.59,5.47-2.76.96-4.75,3.58-4.75,6.67,0,2.78,1.62,5.19,3.96,6.35-2.26,1.18-3.8,3.54-3.8,6.26s1.67,5.27,4.07,6.4c-2.27,1.17-3.83,3.54-3.83,6.29,0,3.01,1.88,5.58,4.54,6.6-1.95,1.26-3.24,3.45-3.24,5.93,0,3.25,2.19,5.98,5.17,6.81-1.53,1.3-2.5,3.23-2.5,5.4,0,3.47,2.5,6.35,5.81,6.95-1.3,1.28-2.12,3.07-2.12,5.04,0,3.84,3.05,6.95,6.86,7.06-1.07,1.25-1.73,2.86-1.73,4.63,0,3.91,3.16,7.07,7.07,7.07.09,0,.17-.01.25-.01-.74,1.12-1.18,2.46-1.18,3.91,0,3.9,3.17,7.07,7.07,7.07.31,0,.61-.02.89-.06-.56,1.02-.89,2.2-.89,3.45,0,3.91,3.17,7.07,7.07,7.07.46,0,.91-.05,1.34-.13-.4.88-.62,1.86-.62,2.9,0,3.91,3.16,7.07,7.07,7.07.81,0,1.6-.14,2.33-.4-.31.79-.49,1.65-.49,2.55,0,3.91,3.17,7.07,7.08,7.07,1.17,0,2.27-.28,3.24-.79-.1.49-.17.99-.17,1.51,0,3.91,3.17,7.07,7.08,7.07,1.21,0,2.35-.3,3.35-.84-.04.31-.07.62-.07.94,0,3.91,3.17,7.08,7.08,7.08,1.49,0,2.87-.47,4.01-1.25,0,.11-.01.21-.01.32,0,3.91,3.16,7.08,7.07,7.08,1.68,0,3.22-.59,4.43-1.56.25,3.68,3.31,6.59,7.05,6.59,1.93,0,3.67-.77,4.94-2.02.23,3.7,3.3,6.63,7.05,6.63,2.48,0,4.66-1.28,5.92-3.21.68,3.2,3.52,5.6,6.92,5.6,2.51,0,4.7-1.3,5.96-3.28.91,2.85,3.58,4.89,6.72,4.89,1.37,0,2.65-.39,3.74-1.07,1.22,1.01,2.79,1.61,4.49,1.61.85,0,1.67-.16,2.43-.43.75.28,1.57.43,2.42.43,1.71,0,3.27-.6,4.5-1.61,1.08.68,2.36,1.07,3.73,1.07,3.15,0,5.8-2.04,6.73-4.89,1.26,1.97,3.45,3.28,5.96,3.28,3.4,0,6.24-2.4,6.92-5.6,1.26,1.93,3.44,3.21,5.92,3.21,3.76,0,6.82-2.93,7.05-6.63,1.28,1.25,3.03,2.02,4.95,2.02,3.74,0,6.79-2.91,7.05-6.59,1.21.98,2.75,1.56,4.43,1.56,3.9,0,7.08-3.16,7.08-7.08,0-.11-.02-.21-.02-.32,1.13.79,2.52,1.25,4.01,1.25,3.91,0,7.08-3.17,7.08-7.08,0-.32-.04-.63-.07-.94.99.54,2.14.84,3.35.84,3.91,0,7.07-3.16,7.07-7.07,0-.51-.05-1.02-.16-1.51.98.51,2.07.79,3.24.79,3.91,0,7.07-3.16,7.07-7.07,0-.9-.18-1.76-.48-2.55.73.25,1.51.4,2.33.4,3.9,0,7.07-3.16,7.07-7.07,0-1.03-.23-2.01-.63-2.9.44.08.88.13,1.34.13,3.91,0,7.07-3.16,7.07-7.07,0-1.25-.32-2.43-.9-3.45.3.04.6.06.9.06,3.91,0,7.08-3.16,7.08-7.07,0-1.44-.43-2.79-1.18-3.91.09,0,.17.01.26.01,3.91,0,7.08-3.16,7.08-7.07,0-1.77-.66-3.38-1.73-4.63,3.8-.11,6.85-3.22,6.85-7.06,0-1.97-.81-3.76-2.11-5.04,3.3-.6,5.81-3.48,5.81-6.95,0-2.17-.98-4.1-2.5-5.4,2.98-.83,5.17-3.56,5.17-6.81,0-2.48-1.29-4.67-3.23-5.93,2.65-1.02,4.54-3.59,4.54-6.6,0-2.74-1.56-5.11-3.84-6.29,2.4-1.13,4.08-3.57,4.08-6.4Z"/>
      <g>
        <path class="st21" d="M223.5,51.02c8.32,7.62,11.87,17.29,7.92,21.61-3.95,4.32-13.9,1.64-22.22-5.98-8.32-7.62-11.87-17.29-7.92-21.6,3.95-4.32,13.9-1.64,22.22,5.97Z"/>
        <path class="st21" d="M244.59,80.95c.26,3.03-1.99,5.69-5.01,5.95-3.02.26-5.69-1.97-5.95-5-.26-3.03,1.98-5.69,5-5.95,3.02-.26,5.69,1.98,5.95,5Z"/>
      </g>
    </g>
    <g>
      <path class="st0" d="M114.78,263.72s-33.9,17.52-26.47,27.43c7.43,9.9,31.68-9.56,31.68-9.56l-5.21-17.87Z"/>
      <path d="M113.2,261.01c-3.91,2.02-7.71,4.32-11.38,6.75-3.25,2.14-6.4,4.45-9.35,7-2.56,2.22-5.06,4.76-6.74,7.73-1.67,2.96-2.15,6.26-.64,9.38,1.66,3.4,5.44,5.03,9.02,5.2,3.88.19,7.71-1.25,11.21-2.75,3.42-1.47,6.66-3.36,9.77-5.39,2.45-1.59,4.85-3.3,7.14-5.13.84-.67,1.09-2.08.81-3.05-1.74-5.96-3.48-11.92-5.21-17.87-1.14-3.88-7.19-2.23-6.05,1.66,1.73,5.96,3.48,11.92,5.21,17.87.27-1.01.54-2.03.8-3.05-.08.06-.16.13-.24.19-.53.41.56-.44.28-.22-.16.13-.33.25-.49.38-.92.69-1.85,1.37-2.79,2.03-2.85,1.99-5.8,3.85-8.88,5.47-.81.43-1.64.84-2.47,1.22-.42.2-.84.39-1.26.57.77-.33.05-.02-.09.03-.27.12-.55.22-.83.32-1.65.63-3.36,1.12-5.1,1.4,1.04-.17-.26.02-.52.03-.38.03-.74.03-1.11.02-.27,0-1.52-.14-.4.01-.39-.06-.79-.14-1.17-.25-.16-.05-.32-.1-.47-.16-.59-.21.7.33.14.06-.3-.14-.58-.31-.87-.49-.52-.35.59.48.1.08-.13-.11-.25-.22-.38-.34-.13-.12-.25-.25-.36-.38-.39-.43.42.61-.02-.02-.16-.23-.29-.48-.42-.73-.24-.5.3.77.12.25-.05-.12-.08-.25-.12-.38-.25-.92.03.66-.03-.08-.02-.31-.01-.63.02-.93.05-.57-.13.85-.04.29.02-.14.05-.28.09-.42.08-.28.16-.56.27-.83.25-.72-.33.66.1-.24.17-.35.36-.68.55-1.01.18-.29.37-.58.57-.86.13-.2.89-1.19.26-.38.52-.66,1.07-1.29,1.65-1.9,1.21-1.28,2.53-2.46,3.88-3.6.33-.28.68-.56,1.03-.84.17-.14,1.28-1.01.59-.48.77-.59,1.55-1.17,2.34-1.74,1.48-1.06,3-2.08,4.53-3.07,2.46-1.59,4.98-3.09,7.53-4.52.86-.48,1.73-.96,2.6-1.42,1.52-.79,1.96-2.88,1.13-4.29-.9-1.53-2.78-1.91-4.29-1.13Z"/>
    </g>
    <g>
      <path class="st29" d="M166.57,267.59h-50.33s-9.83,54.55-3.15,56.89c6.68,2.34,12.89-8.32,12.89-8.32,0,0,4.91,1.5,13.45,1.77h0c.65.02,1.3.03,1.97.03s1.32,0,1.96-.03h0c8.54-.27,13.46-1.77,13.46-1.77,0,0,6.2,10.66,12.88,8.32,6.68-2.34-3.15-56.89-3.15-56.89Z"/>
      <path d="M166.57,264.45h-50.33c-1.3,0-2.78.95-3.03,2.3-1.92,10.66-3.48,21.41-4.61,32.18-.67,6.52-1.37,13.23-.81,19.79.19,2.17.44,4.78,1.73,6.63,2.52,3.65,7.74,2.91,11.13.94,3.31-1.94,6.12-5.25,8.04-8.54-1.18.48-2.36.96-3.54,1.45,4.55,1.37,9.57,1.71,14.29,1.88-1.04-1.05-2.09-2.09-3.14-3.13h0c0,1.75,1.43,3.09,3.14,3.14,1.32.03,2.63.03,3.94,0,1.71-.05,3.14-1.39,3.14-3.14h0c-1.04,1.04-2.09,2.09-3.14,3.13,4.73-.16,9.74-.5,14.29-1.88-1.18-.48-2.36-.96-3.54-1.45,1.5,2.57,3.5,5.02,5.8,6.91,3.32,2.75,8.75,4.95,12.53,1.74,1.77-1.51,2.15-4.27,2.43-6.42.36-2.75.34-5.55.27-8.32-.22-7.38-1.09-14.74-2.04-22.06-.83-6.35-1.78-12.7-2.85-19.02-.21-1.27-.43-2.55-.66-3.82-.31-1.69-2.33-2.62-3.86-2.19-1.75.48-2.49,2.17-2.19,3.86.61,3.36,1.14,6.72,1.67,10.09.52,3.38,1.02,6.76,1.48,10.14.1.77-.1-.72,0,.05.03.23.06.45.09.68.06.44.12.89.17,1.34.13.98.25,1.97.37,2.95.23,1.9.44,3.82.64,5.71.66,6.46,1.35,13.13.74,19.63-.03.28-.06.55-.1.83.15-1.22.03-.22-.02.06-.08.48-.18.96-.32,1.43-.06.19-.12.38-.19.56-.21.6.4-.86.08-.18-.07.14-.15.28-.24.41-.3.45.67-.73.14-.21-.38.36.82-.54.28-.23-.33.19.91-.36.54-.22-.23.09-.48.14-.72.2-.8.19.68-.04-.12.01-.24.02-.48.01-.71,0-.8-.04.69.13-.1-.02-.31-.06-.61-.16-.91-.25-.76-.25.6.29-.14-.06-.21-.1-.43-.22-.65-.34-.43-.24-.83-.52-1.24-.81.62.45-.05-.04-.14-.12-.18-.15-.38-.32-.56-.49-.42-.38-.81-.79-1.21-1.2-.46-.49-.9-1-1.32-1.54-.37-.45.4.54-.12-.16-.18-.23-.34-.47-.51-.7-.32-.46-.62-.92-.91-1.39-.7-1.19-2.2-1.85-3.54-1.44-1.12.34-2.27.55-3.41.77-.62.11-1.24.21-1.85.3-.98.14.65-.08-.39.05-.46.06-.9.11-1.35.16-1.87.2-3.75.31-5.62.38-1.7.06-3.13,1.38-3.13,3.14h0c1.04-1.04,2.09-2.09,3.13-3.13-1.3.03-2.62.03-3.94,0,1.04,1.05,2.09,2.09,3.14,3.13h0c0-1.76-1.43-3.08-3.14-3.14-1.88-.06-3.75-.19-5.61-.38-.35-.04-.69-.08-1.02-.12-.22-.02-.43-.05-.65-.08.32.04.29.04-.08-.02-.61-.09-1.23-.19-1.85-.3-1.14-.21-2.3-.43-3.41-.77-1.34-.4-2.85.26-3.54,1.44-.46.78-.99,1.53-1.54,2.25-.41.57.46-.57,0,0-.14.17-.28.34-.41.51-.29.35-.6.69-.91,1.03-.33.36-.68.7-1.03,1.03-.17.17-.36.34-.54.5-.11.09-.96.76-.33.28-.39.29-.81.56-1.24.81-.21.12-.42.23-.65.34-.73.36.62-.23-.13.06-.23.08-.45.14-.68.2-.17.04-.95.16-.09.05-.24.03-.47.04-.71.04-.16,0-.32-.01-.48-.02.44.06.48.06.12,0-.63-.12-1.16-.49-.19.02-.54-.29.68.58.29.23-.51-.47.32.47.17.28-.1-.16-.2-.31-.28-.47-.35-.67.3.78.07.18-.07-.18-.13-.38-.18-.56-.14-.47-.24-.95-.33-1.43-.05-.28-.18-1.29-.02-.06-.04-.28-.06-.55-.09-.83-.07-.66-.11-1.32-.14-1.98-.14-3.15-.01-6.32.19-9.46.22-3.72.59-7.44,1.01-11.15.21-1.9.44-3.8.69-5.7.06-.45.12-.9.18-1.34.02-.23.05-.45.08-.68.11-.77-.1.72.01-.05.13-.94.25-1.88.39-2.82.74-5.29,1.57-10.57,2.48-15.84.09-.53.18-1.04.28-1.57-1.01.77-2.01,1.53-3.02,2.3h50.33c4.05,0,4.05-6.28,0-6.28Z"/>
    </g>
    <g>
      <path class="st10" d="M193.34,327.02c0,1.54-23.25,2.77-51.93,2.77s-51.95-1.24-51.95-2.77,23.25-2.78,51.95-2.78,51.93,1.24,51.93,2.78Z"/>
      <path d="M141.41,331c-53.15,0-53.15-2.99-53.15-3.98s0-3.98,53.15-3.98,53.14,3,53.14,3.98,0,3.98-53.14,3.98ZM94.49,327.02c7.61.85,24.63,1.56,46.91,1.56s39.3-.72,46.9-1.56c-7.61-.85-24.63-1.57-46.9-1.57s-39.31.72-46.91,1.57Z"/>
    </g>
    <g>
      <path class="st0" d="M163.96,267.38s34.9-15.42,37.96-3.42c3.05,12-27.31,18.69-27.31,18.69l-10.65-15.27Z"/>
      <path d="M165.54,270.09c.47-.2,1.36-.57.3-.13.91-.38,1.81-.75,2.72-1.1,2.91-1.15,5.86-2.21,8.84-3.15,3.53-1.12,7.12-2.08,10.75-2.71.43-.07.85-.14,1.27-.2.75-.11-.74.1,0,0,.21-.03.41-.05.62-.08.86-.09,1.72-.15,2.58-.18.73-.02,1.47,0,2.21.04.27.02,1.51.18.36.02.37.05.74.13,1.11.21.29.08.59.16.88.25.93.31-.48-.25.19.07.25.12.49.26.72.41.2.13.63.47-.19-.17.13.1.27.22.39.35.1.09.19.19.27.28.37.41-.48-.66-.16-.22.16.22.29.46.41.69.25.5-.31-.77-.1-.23.05.13.09.27.13.4.05.16.08.32.11.47.19.84-.04-.55.01-.01.03.32.02.65,0,.96-.01.24-.12.84.05-.21-.02.16-.06.32-.09.47-.07.31-.17.61-.28.91-.23.58.32-.71.06-.15-.1.2-.2.39-.31.58-.16.29-.35.58-.54.86-.38.52.47-.6.06-.09-.11.14-.22.27-.35.4-.53.61-1.13,1.16-1.74,1.68-.15.13-.3.25-.45.37.7-.55.14-.11,0,0-.32.24-.66.48-1,.7-.76.51-1.54.99-2.34,1.44-1.58.89-3.24,1.67-4.91,2.38.84-.36-.46.18-.66.27-.4.16-.8.32-1.2.47-.84.32-1.69.62-2.54.92-1.44.5-2.9.95-4.37,1.38-1.51.44-3.04.86-4.58,1.2,1.18.48,2.36.97,3.54,1.45-3.55-5.09-7.1-10.18-10.65-15.27-.98-1.4-2.73-2.04-4.29-1.13-1.39.81-2.11,2.89-1.13,4.3,3.55,5.09,7.1,10.17,10.66,15.26.84,1.21,2.07,1.77,3.54,1.44,4.53-1,9-2.45,13.28-4.2,3.49-1.43,6.95-3.03,9.99-5.29,2.81-2.1,5.5-4.79,6.3-8.33.81-3.63-.42-7.28-3.42-9.5-2.49-1.84-5.97-2.16-8.98-2.09-7.29.17-14.58,2.48-21.39,4.91-2.98,1.06-5.95,2.22-8.86,3.5-1.56.69-1.92,2.95-1.13,4.3.93,1.6,2.73,1.81,4.29,1.12Z"/>
    </g>
    <g>
      <g>
        <polygon class="st24" points="164.89 266.92 141.58 266.92 141.39 266.92 118.08 266.92 107.98 300.13 141.39 300.13 141.58 300.13 174.99 300.13 164.89 266.92"/>
        <path d="M164.89,260.64h-46.81c-2.85,0-5.24,1.93-6.06,4.61-3.21,10.58-6.43,21.17-9.65,31.75-.15.49-.3.98-.44,1.46-1.2,3.93,2.05,7.94,6.04,7.94h67.01c4,0,7.24-4.02,6.05-7.94-3.22-10.58-6.44-21.16-9.66-31.74-.14-.49-.3-.98-.45-1.47-.99-3.27-4.36-5.31-7.72-4.38-3.23.89-5.38,4.45-4.38,7.72,3.22,10.58,6.44,21.17,9.65,31.75.15.49.3.97.45,1.46,2.01-2.65,4.03-5.3,6.05-7.95h-67.01c2.02,2.65,4.04,5.3,6.06,7.95,3.22-10.59,6.43-21.17,9.65-31.76.15-.48.3-.98.45-1.46-2.02,1.54-4.04,3.07-6.05,4.61h46.81c3.42,0,6.28-2.85,6.28-6.28s-2.86-6.28-6.28-6.28Z"/>
      </g>
      <polygon class="st16" points="164.89 266.92 141.58 266.92 141.39 266.92 118.08 266.92 107.98 300.13 141.39 300.13 141.58 300.13 174.99 300.13 164.89 266.92"/>
    </g>
    <polygon class="st2" points="117.66 268.23 107.98 300.13 134.31 300.13 112.81 296.98 117.66 268.23"/>
    <polygon class="st20" points="165.31 268.23 174.98 300.13 148.65 300.13 170.15 296.98 165.31 268.23"/>
    <polygon class="st26" points="168.82 309.17 114.04 309.17 114.28 306.38 168.59 306.38 168.82 309.17"/>
    <g>
      <g>
        <path class="st24" d="M212.41,192.64s.21-15.38-11.4-23.54c-11.21-7.88-26.74,1.77-58.32,2.28v.02h0c-.43,0-.86,0-1.28,0s-.86,0-1.29,0h0v-.02c-31.58-.51-47.12-10.16-58.32-2.28-11.61,8.16-11.4,23.54-11.4,23.54v32.74c5.32,21.71,24.45,39.12,72.36,38.93,46.51-.2,64.44-16.72,69.65-37.74v-33.93Z"/>
        <path d="M220.4,192.64c.02-2.57-.41-5.19-.88-7.69-.89-4.71-2.73-9.43-5.36-13.43-2.95-4.49-7.13-8.86-12.15-10.99-2.03-.86-3.93-1.61-6.1-1.95-2.26-.35-4.49-.58-6.79-.54-4.54.1-9.09.9-13.56,1.65-5.09.86-10.18,1.77-15.3,2.46.71-.09,1.41-.18,2.12-.28-6.53.87-13.09,1.4-19.67,1.52-4.36.07-7.99,3.57-7.99,7.99v.02c2.67-2.67,5.33-5.32,7.99-7.98h-2.58c2.66,2.66,5.32,5.32,7.98,7.98v-.02c0-4.42-3.63-7.92-7.98-7.99-6.59-.12-13.15-.65-19.68-1.52.71.1,1.41.19,2.12.28-5.04-.67-10.04-1.57-15.05-2.42-4.5-.76-9.05-1.54-13.61-1.69-3.72-.13-7.72.24-11.19,1.67-1.25.51-2.51,1.02-3.7,1.69-1.4.8-2.66,1.85-3.92,2.83-2.49,1.94-4.5,4.46-6.27,7.04-2.74,3.96-4.54,8.76-5.49,13.46-.51,2.57-.95,5.26-.92,7.89.04,4.77,0,9.55,0,14.33v17.84c0,2.91,1.09,5.91,2.12,8.6,1.39,3.62,3.03,7.13,5.17,10.37,10.3,15.58,28.01,23.39,45.91,26.41,12.94,2.18,26.21,2.61,39.3,1.64,10.85-.8,21.91-2.53,32.03-6.7,8.1-3.33,15.73-7.84,21.62-14.44,5.18-5.8,8.88-12.67,11.05-20.13.67-2.3.79-4.38.79-6.72v-31.2c0-4.36-3.64-7.99-8-7.99s-7.98,3.63-7.98,7.99v33.93c.09-.71.19-1.41.28-2.12-.61,2.43-1.38,4.81-2.36,7.12.27-.63.54-1.27.81-1.9-1.4,3.28-3.19,6.38-5.36,9.2.42-.54.84-1.07,1.25-1.61-2.2,2.84-4.76,5.36-7.59,7.56.54-.41,1.08-.83,1.61-1.25-3.61,2.78-7.61,5-11.81,6.78.63-.27,1.27-.53,1.91-.8-7.2,3.03-14.88,4.77-22.61,5.81.71-.1,1.42-.19,2.12-.29-13.62,1.79-27.72,1.81-41.33-.01.7.09,1.41.19,2.12.28-7.75-1.06-15.43-2.82-22.66-5.84.64.27,1.27.54,1.91.8-4.4-1.85-8.59-4.17-12.38-7.07.54.42,1.08.82,1.62,1.24-2.98-2.3-5.67-4.95-7.99-7.93.42.54.83,1.08,1.25,1.62-2.23-2.9-4.08-6.09-5.51-9.46.27.64.54,1.28.8,1.91-1-2.38-1.8-4.83-2.42-7.34.09.71.19,1.41.28,2.12v-32.23c0-1.35.09-2.69.27-4.04-.09.71-.19,1.42-.28,2.12.41-3.05,1.2-6.04,2.39-8.88-.27.64-.54,1.28-.81,1.91.94-2.18,2.1-4.23,3.54-6.11-.42.53-.84,1.07-1.25,1.61,1.29-1.65,2.77-3.13,4.42-4.42-.54.42-1.08.83-1.62,1.25,1.2-.91,2.46-1.68,3.84-2.27-.64.27-1.28.54-1.91.8,1.46-.6,2.99-.98,4.56-1.19-.71.09-1.42.19-2.12.28,3.49-.44,7.03-.11,10.48.35-.7-.1-1.41-.19-2.12-.28,5.77.79,11.48,1.94,17.24,2.81,8.33,1.25,16.7,2.12,25.12,2.27-2.67-2.67-5.33-5.33-7.99-7.98v.02c0,4.35,3.63,7.98,7.99,7.98h2.58c4.35,0,7.98-3.63,7.98-7.98v-.02c-2.66,2.65-5.32,5.32-7.98,7.98,8.43-.15,16.79-1.03,25.12-2.27,5.76-.87,11.47-2.03,17.24-2.81-.71.09-1.42.19-2.12.28,3.47-.46,7-.79,10.49-.35-.71-.09-1.41-.19-2.12-.28,1.56.21,3.09.59,4.55,1.19-.63-.27-1.27-.53-1.9-.8,1.38.59,2.64,1.36,3.84,2.27-.54-.42-1.08-.83-1.62-1.25,1.66,1.29,3.12,2.77,4.42,4.42-.42-.54-.83-1.08-1.25-1.61,1.43,1.88,2.6,3.94,3.53,6.11-.27-.63-.54-1.27-.81-1.91,1.2,2.85,1.97,5.84,2.39,8.88-.1-.7-.19-1.41-.29-2.12.15,1.17.28,2.36.27,3.53-.05,4.35,3.67,7.98,7.98,7.98s7.94-3.63,8-7.98Z"/>
      </g>
      <path class="st0" d="M212.41,192.64s.21-15.38-11.4-23.54c-11.21-7.88-26.74,1.77-58.32,2.28v.02h0c-.43,0-.86,0-1.28,0s-.86,0-1.29,0h0v-.02c-31.58-.51-47.12-10.16-58.32-2.28-11.61,8.16-11.4,23.54-11.4,23.54v32.74c5.32,21.71,24.45,39.12,72.36,38.93,46.51-.2,64.44-16.72,69.65-37.74v-33.93Z"/>
      <path class="st1" d="M70.4,198.95c0-1.42.38-15.67,11.4-23.42,11.2-7.88,26.74,1.77,58.32,2.27v.02h0c.43,0,.85,0,1.29,0s.85,0,1.28,0h0v-.02c31.58-.51,47.11-10.15,58.32-2.27,11.03,7.75,11.39,22,11.4,23.42v-6.31s.21-15.38-11.4-23.54c-11.21-7.88-26.74,1.77-58.32,2.28v.02h0c-.43,0-.86,0-1.28,0s-.86,0-1.29,0h0v-.02c-31.58-.51-47.12-10.16-58.32-2.28-11.61,8.16-11.4,23.54-11.4,23.54v6.31Z"/>
    </g>
    <g>
      <g>
        <g>
          <g>
            <path class="st10" d="M109.31,201.64c0,6.44-5.22,11.67-11.67,11.67s-11.67-5.22-11.67-11.67,5.23-11.67,11.67-11.67,11.67,5.22,11.67,11.67Z"/>
            <path d="M108.17,201.64c-.07,5.26-3.98,9.81-9.25,10.46-5.29.65-10.18-2.87-11.5-7.96-1.33-5.11,1.68-10.54,6.56-12.37,5.02-1.89,10.58.45,13.06,5.09.79,1.47,1.12,3.13,1.14,4.79.02,1.46,2.3,1.46,2.28,0-.07-5.16-3.15-9.89-7.96-11.86-4.87-1.97-10.46-.73-14.11,3.01-3.68,3.79-4.43,9.49-2.34,14.24,2.07,4.74,7.18,7.61,12.26,7.4,6.79-.27,12.07-6.11,12.16-12.79.02-1.47-2.26-1.47-2.28,0Z"/>
          </g>
          <path class="st21" d="M106.04,198.56c0,1.58-1.29,2.87-2.87,2.87s-2.86-1.29-2.86-2.87,1.28-2.87,2.86-2.87,2.87,1.29,2.87,2.87Z"/>
        </g>
        <g>
          <g>
            <g>
              <path class="st10" d="M194.69,201.64c0,6.44-5.22,11.67-11.67,11.67s-11.67-5.22-11.67-11.67,5.23-11.67,11.67-11.67,11.67,5.22,11.67,11.67Z"/>
              <path d="M193.55,201.64c-.08,5.26-3.98,9.81-9.26,10.46-5.29.65-10.17-2.87-11.5-7.96-1.33-5.11,1.68-10.54,6.56-12.37,5.02-1.89,10.58.45,13.05,5.09.79,1.47,1.13,3.13,1.15,4.79.02,1.46,2.3,1.46,2.28,0-.07-5.16-3.15-9.89-7.96-11.86-4.87-1.97-10.47-.73-14.11,3.01-3.69,3.79-4.43,9.49-2.35,14.24,2.08,4.74,7.18,7.61,12.26,7.4,6.79-.27,12.08-6.11,12.16-12.79.02-1.47-2.26-1.47-2.28,0Z"/>
            </g>
            <path class="st21" d="M191.42,198.56c0,1.58-1.29,2.87-2.87,2.87s-2.86-1.29-2.86-2.87,1.28-2.87,2.86-2.87,2.87,1.29,2.87,2.87Z"/>
          </g>
          <path class="st30" d="M184.73,219.95c-.25,1.82,2.89,3.76,7.01,4.32,4.12.56,7.67-.47,7.91-2.29.25-1.82-2.89-3.75-7.01-4.31-4.12-.56-7.66.46-7.91,2.28Z"/>
          <path class="st30" d="M98.08,219.95c.25,1.82-2.89,3.76-7.01,4.32-4.12.56-7.66-.47-7.91-2.29-.25-1.82,2.89-3.75,7.01-4.31,4.12-.56,7.66.46,7.91,2.28Z"/>
        </g>
      </g>
      <g>
        <g>
          <g>
            <path d="M111.12,229.13c.29,11.89,13.73,21.46,30.29,21.46s30-9.58,30.27-21.46h-60.56Z"/>
            <path d="M106.56,229.13c.38,11.72,9.88,19.86,20.22,23.61,11.45,4.14,25.28,3.05,35.86-3,7.52-4.29,13.32-11.72,13.61-20.61.08-2.49-2.13-4.57-4.56-4.57h-60.56c-2.48,0-4.56,2.08-4.56,4.57s2.08,4.56,4.56,4.56h60.56c-1.52-1.52-3.04-3.05-4.56-4.56-.02.53-.06,1.05-.12,1.58.18-1.59-.08.21-.16.59-.12.51-.28,1.01-.44,1.51-.09.25-.18.5-.28.74.53-1.36.06-.17-.07.12-.46.98-1.03,1.89-1.65,2.77-.17.23-.77,1,.04-.05-.17.22-.35.43-.53.64-.43.5-.88.98-1.35,1.44-.42.41-.84.8-1.28,1.17-.23.19-.46.38-.69.56,1-.8.19-.15-.02,0-1.07.78-2.21,1.47-3.37,2.11-.56.3-1.13.58-1.7.85-.28.14-.58.27-.88.39,1.15-.5.12-.05-.1.04-1.34.53-2.73.96-4.13,1.32-1.34.36-2.7.62-4.08.82-1.2.19,1.02-.12-.19.02-.36.04-.72.08-1.07.11-.85.08-1.7.12-2.55.14-1.46.04-2.93-.01-4.39-.12-.36-.03-.72-.06-1.07-.1-.22-.02-1.43-.18-.2-.01-.81-.11-1.62-.25-2.42-.41-1.33-.27-2.66-.62-3.95-1.02-.63-.2-1.26-.42-1.88-.65-.31-.12-.61-.24-.91-.36,1.2.48-.16-.08-.39-.19-1.14-.53-2.24-1.13-3.31-1.78-.51-.32-1.02-.66-1.51-1.01-.24-.17-.49-.35-.72-.53,1.07.81-.01-.03-.23-.21-1.02-.85-1.95-1.81-2.82-2.82-.17-.21-.79-1.01.03.05-.22-.28-.43-.59-.64-.88-.35-.52-.67-1.06-.97-1.61-.2-.37-1.01-2.25-.44-.83-.22-.57-.42-1.15-.59-1.74-.16-.59-.28-1.2-.38-1.8.23,1.43.06.5.03.17-.03-.35-.05-.7-.06-1.05-.08-2.49-2.01-4.57-4.57-4.57-2.42,0-4.64,2.08-4.56,4.57Z"/>
          </g>
          <path class="st9" d="M141.27,248.43c8.2,0,15.58-2.33,20.39-6.59-4.81-4.1-12.05-7.11-20.09-7.11s-15.76,2.98-20.56,7.24c4.81,4.11,12.23,6.46,20.26,6.46Z"/>
        </g>
        <path class="st21" d="M148.68,237.33c2.57.48,4.54,1.51,4.39,2.28-.14.77-2.34,1.01-4.92.53-2.56-.48-4.53-1.5-4.38-2.27.14-.77,2.34-1.01,4.91-.53Z"/>
        <path class="st21" d="M155.11,240.28c0,.43-.33.78-.76.79-.42,0-.77-.33-.79-.76,0-.43.33-.78.76-.79.43,0,.78.34.79.76Z"/>
      </g>
    </g>
    <g>
      <g>
        <g>
          <path class="st7" d="M132.28,282.36c0,5.23,4.24,9.47,9.46,9.47s9.47-4.24,9.47-9.47-4.24-9.47-9.47-9.47-9.46,4.24-9.46,9.47Z"/>
          <path d="M127.15,282.36c.11,6.82,5.04,13.3,11.97,14.33,3.64.55,7.27.02,10.42-1.99,3.01-1.92,5.12-4.83,6.21-8.21,2.11-6.55-1.33-14.28-7.52-17.19-3.34-1.57-7.04-1.97-10.61-.95-3.45.99-6.22,3.3-8.22,6.22-1.53,2.25-2.21,5.12-2.25,7.79-.05,2.79,2.37,5.13,5.13,5.13s5.09-2.34,5.13-5.13c0-.21,0-.43.02-.64.06-1.14-.22,1.24-.02.13.09-.5.25-.98.42-1.46-.55,1.52.05-.01.27-.39.17-.28.82-1.13-.12.07.18-.24.39-.46.59-.67.28-.3,1.63-1.31.31-.36.48-.35,1.02-.63,1.56-.89-1.48.7.08.04.49-.06.35-.09,1.43-.21-.14-.03.31-.03.63-.04.94-.04.21,0,.42,0,.64.02,1.14.06-1.24-.23-.13-.02.5.1.98.25,1.46.43-1.52-.55.01.05.39.27.28.17,1.14.81-.07-.12.24.17.46.38.67.59.29.28,1.31,1.62.35.3.35.49.63,1.02.89,1.56-.69-1.47-.04.08.07.5.09.34.2,1.42.02-.14.04.31.04.63.05.95,0,.21,0,.42-.02.63-.06,1.14.22-1.24.02-.13-.09.5-.25.98-.42,1.46.55-1.52-.05.02-.27.39-.17.29-.82,1.14.12-.07-.18.24-.38.46-.58.68-.28.29-1.63,1.3-.31.35-.48.36-1.02.63-1.56.89,1.48-.69-.07-.03-.5.07-.35.09-1.42.21.14.02-.31.03-.63.04-.95.04-.21,0-.42,0-.63-.02-1.14-.06,1.24.21.13.02-.5-.09-.98-.25-1.46-.42,1.52.54-.01-.05-.39-.28-.28-.17-1.14-.81.06.12-.23-.19-.45-.39-.66-.59-.3-.28-1.31-1.63-.35-.32-.35-.48-.63-1.01-.89-1.55.7,1.48.04-.08-.07-.49-.09-.35-.2-1.43-.02.14-.04-.32-.04-.63-.05-.95-.04-2.8-2.3-5.14-5.13-5.14s-5.18,2.34-5.13,5.14Z"/>
        </g>
        <path class="st5" d="M132.28,282.36c0,5.23,4.24,9.47,9.46,9.47s9.47-4.24,9.47-9.47-4.24-9.47-9.47-9.47-9.46,4.24-9.46,9.47Z"/>
        <path class="st8" d="M149.58,282.36c0-4.95-3.8-9.02-8.64-9.43.26-.02.54-.04.81-.04,5.23,0,9.47,4.24,9.47,9.47s-4.24,9.47-9.47,9.47c-.27,0-.55-.01-.81-.04,4.84-.42,8.64-4.48,8.64-9.43Z"/>
        <path class="st6" d="M133.91,282.36c0-4.95,3.8-9.02,8.65-9.43-.27-.02-.54-.04-.83-.04-5.22,0-9.46,4.24-9.46,9.47s4.24,9.47,9.46,9.47c.28,0,.55-.01.83-.04-4.85-.42-8.65-4.48-8.65-9.43Z"/>
      </g>
      <g>
        <g>
          <path class="st7" d="M140.95,288.17v-1.29c-1.1-.02-1.97-.48-2.61-1.37-.32-.43-.45-.95-.5-1.49h.12c.47,0,.95,0,1.43,0,.09,0,.12.03.15.11.2.58.68.96,1.36.96h.05v-2.05c-.17-.03-.35-.04-.53-.08-.55-.1-1.08-.28-1.54-.6-.58-.39-.87-.95-.96-1.63-.09-.62.08-1.18.49-1.66.48-.59,1.08-1.02,1.83-1.2.2-.05.4-.07.6-.09.1-.01.12-.06.12-.14,0-.33.01-.66.01-.99v-.1h1.51v.33c0,.19,0,.39.01.57,0,.24.02.27.27.28.4.05.78.16,1.13.36.7.4,1.17,1.02,1.44,1.78.06.17.1.35.14.53.02.05,0,.09-.07.09-.54,0-1.07,0-1.62,0,0,0-.02,0-.04,0,0-.04,0-.07-.01-.11-.03-.3-.21-.5-.46-.65-.24-.13-.5-.19-.79-.21v2.02c.14.01.28.02.42.03.79.07,1.49.32,2.07.87.49.47.75,1.05.7,1.74-.03.5-.21.94-.52,1.32-.66.82-1.54,1.24-2.59,1.35-.03,0-.05.01-.09.02v1.32h-1.51ZM142.46,283.29v1.8c.29.05.8-.06,1.1-.23.39-.21.42-.57.31-.98-.05-.19-.2-.3-.36-.4-.32-.19-.67-.18-1.04-.2ZM140.94,279.42c-.12.01-.22.01-.33.03-.25.03-.49.11-.7.27-.25.2-.29.7-.16.92.27.42.75.6,1.19.58v-1.81Z"/>
          <g>
            <path d="M143.8,288.17v-1.29c0-1.63-1.3-2.74-2.85-2.85.23.05.17.04-.17-.04.23.1.18.07-.12-.09.19.13.16.08-.1-.15.11.11.12.1.13.27-.95.95-1.9,1.9-2.85,2.85.52,0,1.03,0,1.54,0-.48-.13-.96-.25-1.44-.39.05.04.1.07.15.11-.33-.34-.68-.68-1.02-1.02.64,1.45,2.29,2.44,3.87,2.37,1.55-.07,2.86-1.24,2.86-2.85v-2.05c0-1.14-.86-2.58-2.09-2.75-.29-.04-.58-.08-.87-.15-.44-.09-.32-.14-.17.07.12.19.08.38-.04.59.02-.02.41-.25.03-.09.1-.04.2-.06.31-.09-.41.02-.21-.01.6-.1.75-.31,1.37-.61,1.8-1.35.47-.8.42-1.73.42-2.63-.95.95-1.9,1.9-2.85,2.85h1.51c-.95-.95-1.9-1.9-2.85-2.85,0,1.41.17,2.83,1.51,3.62-.17-.09,1.47.49,1.28.34.25.24.31.3.17.19-.13-.19.13.45.13.46.25-.93.49-1.85.74-2.78-.03.03-.05.06-.07.09.67-.28,1.34-.55,2.02-.84-.16,0-1.78-.05-.89.09.7.91,1.4,1.83,2.09,2.75-.26-2.4-1.82-3.53-4.11-3.82-1.54-.2-2.85,1.44-2.85,2.85v2.02c0,1.65,1.3,2.72,2.85,2.85.46.02.55.04.31.04.35.09.42.11.21.07-.21-.11-.15-.62-.13-.71.02-.16-.39.27-.17.12.2-.04.12-.02-.22.08-.25.08-.51.09-.77.13-1.23.17-2.09,1.61-2.09,2.75v1.32c.95-.95,1.91-1.9,2.85-2.85h-1.51c-3.68,0-3.68,5.7,0,5.7h1.51c1.55,0,2.85-1.3,2.85-2.85v-1.32c-.69.91-1.4,1.83-2.1,2.75,2.65-.37,5.3-2.57,5.29-5.44-.02-3.49-2.89-5.23-6.04-5.5.95.95,1.91,1.9,2.86,2.85v-2.02c-.95.95-1.91,1.9-2.86,2.85-.7-.27-.85-.28-.43,0-.34-.35-.68-.68-1.02-1.03-.05-.28-.09-.57-.14-.85.13,1.17.77,2.54,2.1,2.75.94.15,2.23.27,3.16,0,1.73-.47,2.4-2.23,2-3.86-.57-2.32-2.53-4-4.83-4.42.42.25.84.49,1.26.73-.02-.02-.05-.05-.08-.08.28.67.56,1.34.84,2.02-.04-.36-.03-.72-.03-1.08,0-1.55-1.29-2.85-2.85-2.85h-1.51c-1.55,0-2.86,1.3-2.86,2.85,0,.2-.13,1.25.08.43.66-.66,1.33-1.33,1.99-1.99.61-.05.48-.02-.4.08-.21.04-.41.08-.61.15-.79.24-1.46.66-2.08,1.18-1.29,1.04-1.85,2.37-2.04,3.98-.32,2.96,2.58,5.07,5.16,5.43-.69-.91-1.4-1.83-2.1-2.75v2.05c.95-.95,1.91-1.9,2.85-2.85-.12,0,1.48,1.41,1.05.45-.22-.51-.74-.82-1.17-1.13-.78-.57-2.05-.4-2.98-.4-1.41,0-3.03,1.3-2.85,2.85.39,3.31,2.61,5.48,5.96,5.71-.95-.95-1.9-1.9-2.86-2.86v1.29c0,3.68,5.71,3.68,5.71,0Z"/>
            <path d="M139.62,283.29v1.8c0,.75.29,1.48.83,2.01.58.58,1.22.74,2.01.83.83.1,1.64-.21,2.37-.53,1.21-.53,1.84-1.79,1.93-3.04.03-.42-.05-.84-.16-1.23-.23-.88-.81-1.48-1.52-2-.76-.56-1.73-.65-2.63-.7-1.55-.08-2.85,1.36-2.85,2.86,0,1.62,1.29,2.77,2.85,2.85.16,0,.32.01.48.03-.25-.04-.51-.07-.76-.1.16.02.31.06.46.12-.22-.1-.46-.19-.69-.29.1.05.18.1.27.16-.2-.15-.39-.3-.58-.44.05.03.09.08.13.13-.14-.19-.29-.39-.44-.57.01.02.03.05.04.07-.09-.22-.18-.46-.28-.68.04.09.06.18.08.29-.03-.25-.06-.51-.1-.76,0,.1.01.19,0,.28.04-.25.07-.51.1-.76-.01.06-.03.12-.05.17.1-.23.19-.46.29-.68-.02.05-.05.1-.09.14.15-.19.3-.38.45-.58-.04.06-.09.09-.14.13.19-.15.39-.29.57-.44-.08.05-.16.09-.25.13.23-.09.46-.19.69-.29-.18.07-.38.12-.58.14.24-.03.5-.06.75-.09-.12,0-.23,0-.35-.01.95.96,1.91,1.91,2.86,2.86v-1.8c0-1.56-1.3-2.86-2.86-2.86s-2.85,1.3-2.85,2.86Z"/>
            <path d="M140.94,276.57c-.86.06-1.74.17-2.46.69-1.06.74-1.63,1.79-1.65,3.09-.02,2.18,2.07,3.76,4.12,3.73,1.55-.03,2.85-1.28,2.85-2.85v-1.81c0-1.55-1.3-2.85-2.85-2.85s-2.86,1.3-2.86,2.85v1.81c.95-.96,1.91-1.9,2.86-2.85-.1,0-.19,0-.29-.01.25.03.51.06.76.1-.13-.02-.25-.06-.37-.11.23.1.45.2.67.29-.09-.05-.17-.09-.25-.15.2.14.38.29.58.45-.08-.07-.14-.14-.21-.22.15.19.3.38.44.58-.03-.05-.07-.1-.09-.15.1.23.2.46.29.68-.02-.05-.03-.1-.04-.15.03.25.06.51.1.76-.01-.09,0-.17,0-.26-.03.25-.06.51-.1.76.02-.09.05-.17.07-.25-.09.23-.18.46-.28.68.03-.04.05-.1.09-.14-.15.2-.29.38-.45.58.02-.02.04-.04.06-.06-.19.15-.38.3-.58.45.09-.06.18-.11.28-.17-.23.1-.46.2-.68.29.14-.06.27-.09.4-.11-.24.03-.5.06-.75.1.11,0,.21-.02.33-.02,1.55-.1,2.85-1.22,2.85-2.85,0-1.48-1.3-2.96-2.85-2.85Z"/>
          </g>
        </g>
        <path class="st5" d="M140.95,288.17v-1.29c-1.1-.02-1.97-.48-2.61-1.37-.32-.43-.45-.95-.5-1.49h.12c.47,0,.95,0,1.43,0,.09,0,.12.03.15.11.2.58.68.96,1.36.96h.05v-2.05c-.17-.03-.35-.04-.53-.08-.55-.1-1.08-.28-1.54-.6-.58-.39-.87-.95-.96-1.63-.09-.62.08-1.18.49-1.66.48-.59,1.08-1.02,1.83-1.2.2-.05.4-.07.6-.09.1-.01.12-.06.12-.14,0-.33.01-.66.01-.99v-.1h1.51v.33c0,.19,0,.39.01.57,0,.24.02.27.27.28.4.05.78.16,1.13.36.7.4,1.17,1.02,1.44,1.78.06.17.1.35.14.53.02.05,0,.09-.07.09-.54,0-1.07,0-1.62,0,0,0-.02,0-.04,0,0-.04,0-.07-.01-.11-.03-.3-.21-.5-.46-.65-.24-.13-.5-.19-.79-.21v2.02c.14.01.28.02.42.03.79.07,1.49.32,2.07.87.49.47.75,1.05.7,1.74-.03.5-.21.94-.52,1.32-.66.82-1.54,1.24-2.59,1.35-.03,0-.05.01-.09.02v1.32h-1.51ZM142.46,283.29v1.8c.29.05.8-.06,1.1-.23.39-.21.42-.57.31-.98-.05-.19-.2-.3-.36-.4-.32-.19-.67-.18-1.04-.2ZM140.94,279.42c-.12.01-.22.01-.33.03-.25.03-.49.11-.7.27-.25.2-.29.7-.16.92.27.42.75.6,1.19.58v-1.81Z"/>
        <g>
          <path class="st8" d="M142.06,277.45c0,.24.03.27.26.28.4.05.78.16,1.13.36.71.4,1.17,1.02,1.44,1.78.07.17.1.35.15.53,0,.04,0,.08-.06.09h.39c.07,0,.09-.04.07-.09-.05-.18-.09-.36-.14-.53-.27-.76-.74-1.38-1.44-1.78-.35-.2-.73-.31-1.13-.36-.24-.02-.27-.04-.27-.28-.01-.18-.01-.38-.01-.57v-.33h-.39v.9Z"/>
          <path class="st8" d="M142.07,285.1c.11.02.25.02.4,0v-1.78c-.14-.01-.27-.01-.4-.02v1.8Z"/>
          <path class="st8" d="M139.13,284.14c.19.58.68.96,1.35.96h.06v-.04c-.49-.11-.85-.45-1.01-.92-.03-.08-.06-.11-.15-.11-.47,0-.95,0-1.43,0h-.12c.38,0,.76,0,1.14,0,.09,0,.12.03.15.11Z"/>
          <path class="st8" d="M144.95,282.42c-.58-.55-1.29-.8-2.07-.87-.14,0-.28-.02-.42-.03v-1.96c-.13-.04-.26-.06-.4-.06v2.02c.14.01.28.02.42.03.78.07,1.48.32,2.06.87.49.47.76,1.05.7,1.74-.03.5-.21.94-.51,1.32-.66.82-1.54,1.24-2.59,1.35-.02,0-.05.01-.09.02v1.32h.4v-1.32s.06-.02.09-.02c1.04-.11,1.92-.53,2.59-1.35.31-.39.49-.83.52-1.32.05-.69-.21-1.27-.7-1.74Z"/>
          <path class="st8" d="M139.75,280.64c-.13-.23-.09-.73.16-.92.19-.14.4-.23.63-.27v-.04c-.12.01-.23.01-.33.03-.26.03-.49.11-.7.27-.25.2-.3.7-.17.92.27.42.75.6,1.2.58v-.04c-.31-.08-.61-.25-.79-.54Z"/>
        </g>
        <g>
          <path class="st6" d="M144.07,284.87c.39-.21.42-.57.31-.98-.05-.19-.2-.3-.36-.4-.32-.19-.68-.18-1.04-.2v.03c.18.03.36.07.53.17.16.1.31.21.36.4.12.41.08.77-.31.98-.16.09-.37.16-.58.2v.02c.3.05.8-.06,1.1-.23Z"/>
          <path class="st6" d="M144.28,280.47s-.02,0-.05,0c0-.04,0-.07,0-.11-.04-.3-.22-.5-.47-.65-.24-.13-.5-.19-.78-.21v.1c.09.03.18.07.27.12.25.14.43.35.46.65,0,.04,0,.07.01.11.02,0,.03,0,.04,0,.54,0,1.08,0,1.62,0h.01c-.37,0-.74,0-1.11,0Z"/>
          <path class="st6" d="M138.86,285.51c-.32-.43-.46-.93-.5-1.49h-.53c.05.54.19,1.06.5,1.49.64.88,1.51,1.35,2.61,1.37v1.29h.51v-1.29c-1.09-.02-1.96-.48-2.6-1.37Z"/>
          <path class="st6" d="M138.87,282.36c.46.32.99.5,1.54.6.18.04.36.05.53.08v1.99c.15.05.29.07.47.07h.05v-2.05c-.18-.03-.36-.04-.53-.08-.55-.1-1.08-.28-1.54-.6-.57-.39-.87-.95-.96-1.63-.09-.62.08-1.18.49-1.66.48-.59,1.08-1.02,1.83-1.2.2-.05.4-.07.6-.09.1-.01.12-.06.12-.14,0-.33,0-.66,0-.99v-.1h-.51v.1c0,.34,0,.66-.01.99,0,.08-.02.13-.12.14-.2.02-.4.04-.6.09-.75.19-1.35.61-1.83,1.2-.41.48-.58,1.04-.49,1.66.09.68.39,1.24.96,1.63Z"/>
          <path class="st6" d="M141.46,279.42c-.12.01-.23.01-.33.03-.06,0-.13.02-.19.03v1.68c.17.05.34.07.52.07v-1.81Z"/>
        </g>
      </g>
    </g>
    <g>
      <g>
        <g>
          <g>
            <path class="st21" d="M130.91,273.91c0,1.03-.84,1.86-1.86,1.86s-1.86-.83-1.86-1.86.83-1.87,1.86-1.87,1.86.84,1.86,1.87Z"/>
            <path d="M127.48,273.91c.11-.57.12-.68.02-.32.09-.34.25-.62.5-.86-.26.25-.17.19.25-.17.15-.07.3-.12.46-.19-.35.09-.25.08.32-.04.57.12.68.12.32.04.33.08.61.24.84.49-.24-.25-.18-.17.18.25.06.16.12.31.19.47-.09-.35-.08-.25.03.32-.1.57-.12.68-.03.32-.08.33-.24.62-.49.85.25-.24.17-.18-.25.17-.16.06-.31.13-.46.19.35-.09.25-.08-.32.03-.57-.11-.67-.12-.32-.03-.33-.08-.61-.24-.85-.49.25.25.19.17-.17-.25-.06-.16-.12-.31-.19-.47.1.36.09.25-.02-.32.1,1.86,1.48,3.42,3.42,3.42,1.8,0,3.53-1.56,3.42-3.42-.16-2.98-2.3-5.12-5.29-5.29-2.98-.16-5.14,2.54-5.29,5.29-.15,2.98,2.55,5.14,5.29,5.28,2.98.16,5.14-2.54,5.29-5.28.1-1.87-1.63-3.42-3.42-3.42-1.94,0-3.32,1.55-3.42,3.42Z"/>
          </g>
          <path class="st4" d="M130.91,273.91c0,1.03-.84,1.86-1.86,1.86s-1.86-.83-1.86-1.86.83-1.87,1.86-1.87,1.86.84,1.86,1.87Z"/>
          <path class="st13" d="M127.51,273.91c0-.97.75-1.77,1.69-1.86h-.17c-1.03,0-1.86.83-1.86,1.86s.83,1.87,1.86,1.87c.06,0,.12,0,.17-.01-.95-.09-1.69-.88-1.69-1.85Z"/>
          <path class="st15" d="M130.57,273.91c0-.97-.75-1.77-1.7-1.86h.18c1.03,0,1.86.83,1.86,1.86s-.84,1.87-1.86,1.87c-.06,0-.12,0-.18-.01.95-.09,1.7-.88,1.7-1.85Z"/>
        </g>
        <g>
          <g>
            <path class="st21" d="M123.29,271.35c0,1.04-.84,1.87-1.86,1.87s-1.87-.83-1.87-1.87.84-1.87,1.87-1.87,1.86.84,1.86,1.87Z"/>
            <path d="M119.88,271.35c.1-.57.12-.68.02-.32.08-.33.24-.61.5-.85-.26.25-.18.18.25-.17.15-.06.31-.13.47-.18-.36.09-.25.08.32-.03.57.11.68.12.32.03.33.08.62.24.85.5-.24-.26-.19-.18.17.25.06.16.12.31.18.46-.09-.36-.08-.25.02.32-.1.57-.12.68-.02.32-.08.34-.25.62-.5.85.25-.24.17-.19-.24.18-.16.06-.31.12-.47.18.35-.09.24-.09-.32.03-.57-.12-.68-.12-.32-.03-.33-.08-.62-.25-.85-.5.25.26.18.17-.17-.25-.06-.16-.13-.31-.18-.47.09.36.08.25-.02-.32.09,1.87,1.48,3.42,3.42,3.42,1.79,0,3.52-1.55,3.42-3.42-.16-2.98-2.3-5.13-5.29-5.28-2.98-.16-5.14,2.54-5.29,5.28-.16,2.98,2.54,5.14,5.29,5.29,2.98.16,5.14-2.54,5.29-5.29.1-1.86-1.63-3.42-3.42-3.42-1.94,0-3.33,1.56-3.42,3.42Z"/>
          </g>
          <path class="st4" d="M123.29,271.35c0,1.04-.84,1.87-1.86,1.87s-1.87-.83-1.87-1.87.84-1.87,1.87-1.87,1.86.84,1.86,1.87Z"/>
          <path class="st13" d="M119.89,271.35c0-.98.75-1.77,1.69-1.86-.06,0-.12-.01-.17-.01-1.03,0-1.86.84-1.86,1.87s.84,1.87,1.86,1.87c.06,0,.12,0,.17-.01-.94-.09-1.69-.88-1.69-1.85Z"/>
          <path class="st15" d="M122.95,271.35c0-.98-.74-1.77-1.69-1.86.05,0,.12-.01.17-.01,1.03,0,1.87.84,1.87,1.87s-.84,1.87-1.87,1.87c-.05,0-.12,0-.17-.01.95-.09,1.69-.88,1.69-1.85Z"/>
        </g>
        <g>
          <g>
            <path class="st21" d="M116.69,268.55c0,1.03-.84,1.87-1.87,1.87s-1.86-.84-1.86-1.87.84-1.87,1.86-1.87,1.87.84,1.87,1.87Z"/>
            <path d="M113.26,268.55c.11-.57.12-.67.03-.32.08-.34.24-.62.49-.86-.26.24-.17.19.25-.17.15-.06.31-.13.46-.19-.36.09-.25.08.32-.03.57.11.68.12.32.03.33.08.61.24.85.49-.25-.25-.18-.17.18.25.06.15.12.31.18.47-.09-.36-.08-.25.03.32-.11.57-.12.68-.03.32-.08.33-.24.62-.5.85.26-.24.18-.18-.24.18-.16.06-.31.12-.47.19.36-.09.25-.08-.32.03-.57-.11-.67-.12-.32-.03-.33-.08-.62-.24-.85-.5.24.26.19.17-.17-.25-.06-.15-.13-.31-.19-.47.09.36.08.25-.03-.32.1,1.86,1.48,3.42,3.42,3.42,1.79,0,3.52-1.56,3.42-3.42-.17-2.99-2.3-5.13-5.29-5.29-2.98-.16-5.14,2.54-5.29,5.29-.16,2.98,2.55,5.14,5.29,5.29,2.99.16,5.14-2.55,5.29-5.29.1-1.86-1.63-3.43-3.42-3.43-1.94,0-3.32,1.56-3.42,3.43Z"/>
          </g>
          <path class="st4" d="M116.69,268.55c0,1.03-.84,1.87-1.87,1.87s-1.86-.84-1.86-1.87.84-1.87,1.86-1.87,1.87.84,1.87,1.87Z"/>
          <path class="st13" d="M113.29,268.54c0-.97.74-1.77,1.69-1.86-.06,0-.12-.01-.17-.01-1.03,0-1.87.84-1.87,1.87s.84,1.87,1.87,1.87c.06,0,.12,0,.17-.01-.95-.09-1.69-.88-1.69-1.85Z"/>
          <path class="st15" d="M116.34,268.54c0-.97-.75-1.77-1.69-1.86.06,0,.12-.01.17-.01,1.03,0,1.86.84,1.86,1.87s-.84,1.87-1.86,1.87c-.06,0-.12,0-.17-.01.95-.09,1.69-.88,1.69-1.85Z"/>
        </g>
      </g>
      <g>
        <g>
          <g>
            <path class="st21" d="M151.9,273.91c0,1.03.84,1.86,1.87,1.86s1.86-.83,1.86-1.86-.84-1.87-1.86-1.87-1.87.84-1.87,1.87Z"/>
            <path d="M148.48,273.91c.16,2.98,2.3,5.13,5.29,5.28,2.98.16,5.14-2.54,5.28-5.28.16-2.98-2.54-5.14-5.28-5.29-2.98-.16-5.14,2.54-5.29,5.29-.1,1.86,1.63,3.42,3.42,3.42,1.95,0,3.33-1.56,3.42-3.42-.1.57-.12.68-.02.32-.07.33-.25.62-.5.85.25-.24.18-.18-.25.17-.16.06-.31.13-.47.19.36-.09.25-.08-.32.03-.57-.11-.68-.12-.32-.03-.33-.08-.62-.24-.85-.49.25.25.18.17-.18-.25-.06-.16-.12-.31-.18-.47.09.36.08.25-.03-.32.11-.57.12-.68.03-.32.08-.34.24-.62.49-.86-.25.25-.17.19.25-.17.16-.07.31-.12.47-.19-.36.09-.25.08.32-.04.57.12.68.12.32.04.33.08.62.24.85.49-.25-.25-.19-.17.17.25.06.16.12.31.18.47-.09-.35-.08-.25.02.32-.09-1.87-1.48-3.42-3.42-3.42-1.78,0-3.52,1.55-3.42,3.42Z"/>
          </g>
          <path class="st4" d="M151.9,273.91c0,1.03.84,1.86,1.87,1.86s1.86-.83,1.86-1.86-.84-1.87-1.86-1.87-1.87.84-1.87,1.87Z"/>
          <path class="st13" d="M155.3,273.91c0-.97-.74-1.77-1.69-1.86h.17c1.03,0,1.86.83,1.86,1.86s-.84,1.87-1.86,1.87c-.06,0-.12,0-.17-.01.95-.09,1.69-.88,1.69-1.85Z"/>
          <path class="st15" d="M152.24,273.91c0-.97.75-1.77,1.69-1.86h-.17c-1.03,0-1.87.83-1.87,1.86s.84,1.87,1.87,1.87c.06,0,.12,0,.17-.01-.95-.09-1.69-.88-1.69-1.85Z"/>
        </g>
        <g>
          <g>
            <path class="st21" d="M159.52,271.35c0,1.04.83,1.87,1.87,1.87s1.86-.83,1.86-1.87-.83-1.87-1.86-1.87-1.87.84-1.87,1.87Z"/>
            <path d="M156.09,271.35c.16,2.99,2.3,5.13,5.29,5.29,2.97.16,5.14-2.54,5.28-5.29.16-2.98-2.54-5.14-5.28-5.28-2.98-.16-5.15,2.54-5.29,5.28-.1,1.87,1.63,3.42,3.42,3.42,1.94,0,3.32-1.56,3.43-3.42-.12.57-.13.68-.03.32-.08.34-.24.62-.5.85.26-.24.17-.19-.25.18-.16.06-.31.12-.46.18.35-.09.25-.09-.32.03-.58-.12-.69-.12-.33-.03-.33-.08-.61-.25-.85-.5.25.26.19.17-.17-.25-.06-.16-.12-.31-.19-.47.09.36.08.25-.02-.32.1-.57.11-.68.02-.32.08-.33.24-.61.5-.85-.26.25-.17.18.25-.17.16-.06.31-.13.46-.18-.36.09-.25.08.33-.03.57.11.67.12.32.03.33.08.62.24.84.5-.25-.26-.19-.18.18.25.06.16.12.31.19.46-.09-.36-.08-.25.03.32-.11-1.86-1.49-3.42-3.43-3.42-1.79,0-3.53,1.56-3.42,3.42Z"/>
          </g>
          <path class="st4" d="M159.52,271.35c0,1.04.83,1.87,1.87,1.87s1.86-.83,1.86-1.87-.83-1.87-1.86-1.87-1.87.84-1.87,1.87Z"/>
          <path class="st13" d="M162.91,271.35c0-.98-.74-1.77-1.69-1.86.06,0,.12-.01.17-.01,1.03,0,1.87.84,1.87,1.87s-.84,1.87-1.87,1.87c-.05,0-.11,0-.17-.01.95-.09,1.69-.88,1.69-1.85Z"/>
          <path class="st15" d="M159.86,271.35c0-.98.75-1.77,1.7-1.86-.06,0-.12-.01-.18-.01-1.03,0-1.86.84-1.86,1.87s.84,1.87,1.86,1.87c.06,0,.12,0,.18-.01-.95-.09-1.7-.88-1.7-1.85Z"/>
        </g>
        <g>
          <g>
            <path class="st21" d="M166.12,268.55c0,1.03.84,1.87,1.87,1.87s1.87-.84,1.87-1.87-.84-1.87-1.87-1.87-1.87.84-1.87,1.87Z"/>
            <path d="M162.7,268.55c.16,2.99,2.31,5.12,5.29,5.29,2.98.16,5.14-2.55,5.29-5.29.16-2.98-2.54-5.14-5.29-5.29-2.97-.16-5.14,2.54-5.29,5.29-.09,1.86,1.64,3.42,3.42,3.42,1.95,0,3.33-1.56,3.42-3.42-.11.57-.12.68-.02.32-.09.33-.25.62-.5.85.25-.24.17-.18-.25.18-.15.06-.31.12-.47.19.36-.09.26-.08-.32.03-.57-.11-.68-.12-.32-.03-.33-.08-.62-.24-.85-.5.24.26.18.17-.18-.25-.06-.15-.12-.31-.18-.47.09.36.09.25-.02-.32.11-.57.12-.67.02-.32.08-.34.25-.62.5-.86-.25.24-.17.19.25-.17.15-.06.31-.13.46-.19-.36.09-.25.08.32-.03.58.11.68.12.32.03.34.08.62.24.85.49-.25-.25-.19-.17.17.25.06.15.13.31.19.47-.09-.36-.09-.25.02.32-.1-1.86-1.48-3.43-3.42-3.43-1.78,0-3.52,1.56-3.42,3.43Z"/>
          </g>
          <path class="st4" d="M166.12,268.55c0,1.03.84,1.87,1.87,1.87s1.87-.84,1.87-1.87-.84-1.87-1.87-1.87-1.87.84-1.87,1.87Z"/>
          <path class="st13" d="M169.52,268.54c0-.97-.74-1.77-1.69-1.86.05,0,.11-.01.17-.01,1.03,0,1.87.84,1.87,1.87s-.84,1.87-1.87,1.87c-.06,0-.12,0-.17-.01.94-.09,1.69-.88,1.69-1.85Z"/>
          <path class="st15" d="M166.47,268.54c0-.97.75-1.77,1.69-1.86-.06,0-.12-.01-.18-.01-1.03,0-1.87.84-1.87,1.87s.84,1.87,1.87,1.87c.06,0,.12,0,.18-.01-.95-.09-1.69-.88-1.69-1.85Z"/>
        </g>
      </g>
    </g>
    <g>
      <path d="M87.74,306.23c-.45.83-1.48,1.13-2.31.68h0c-.82-.45-1.13-1.48-.68-2.31l5.98-10.96c.45-.82,1.48-1.12,2.31-.68h0c.82.45,1.13,1.48.68,2.31l-5.98,10.95Z"/>
      <g>
        <g>
          <g>
            <path class="st22" d="M89.77,298.97c-1.22-.67-1.56-1.6-1.65-1.95l-.62,1.66s.13,1.08,1.45,1.8c1.33.73,2.31.25,2.31.25l1.06-1.42c-.34.11-1.32.33-2.54-.34Z"/>
            <path d="M90.35,297.99c-.51-.31-.96-.68-1.12-1.27-.33-1.16-1.82-1.02-2.2,0-.27.71-.74,1.5-.63,2.27.14.99.95,1.77,1.71,2.33,1.03.74,2.53.93,3.7.41.59-.26,1.11-1.34,1.48-1.84.61-.82-.39-1.95-1.29-1.67-.58.17-1.12.04-1.66-.22-1.32-.65-2.47,1.32-1.15,1.97,1.07.53,2.24.81,3.41.45-.43-.56-.85-1.12-1.29-1.68-.31.43-.62.84-.93,1.26-.39.51.96-.44.25-.26-.48.13-1-.15-1.39-.39-.29-.17-.47-.46-.62-.76-.19-.38.01.26,0,.31.19-.52.39-1.04.59-1.56h-2.2c.32,1.17,1.15,2.02,2.18,2.63,1.26.76,2.41-1.21,1.15-1.97Z"/>
          </g>
          <path class="st23" d="M89.77,298.97c-1.22-.67-1.56-1.6-1.65-1.95l-.62,1.66s.13,1.08,1.45,1.8c1.33.73,2.31.25,2.31.25l1.06-1.42c-.34.11-1.32.33-2.54-.34Z"/>
          <path class="st14" d="M87.8,299.37l.62-1.64c-.18-.29-.27-.56-.31-.71l-.62,1.66s.04.36.33.8c-.01-.06-.02-.1-.02-.1Z"/>
          <path class="st11" d="M90.5,300.84l1.05-1.41c.35-.01.62-.08.76-.13l-1.06,1.42s-.32.15-.85.15c.06-.02.09-.04.09-.04Z"/>
        </g>
        <g>
          <g>
            <path class="st22" d="M117.54,270c-2.77,5.08-9.15,6.96-14.24,4.19-5.09-2.78-6.97-9.16-4.19-14.25,2.78-5.09,9.16-6.97,14.24-4.18,5.09,2.78,6.97,9.15,4.19,14.25Z"/>
            <path d="M112.62,267.12c-.16.28-.32.54-.5.81-.63.98.87-1.05.14-.16-.4.48-.85.89-1.32,1.29,1.44-1.21-.14.02-.6.27-.36.19-1.39.59.28-.08-.28.11-.57.2-.85.29-.29.09-.58.15-.87.22-1.12.24,1.48-.16.33-.04-.6.06-1.21.05-1.81,0-1.16-.08,1.46.25.31.04-.3-.06-.6-.14-.89-.22-.31-.09-.6-.2-.89-.31,1.61.61.58.23.21.04-.29-.15-.55-.32-.82-.5-.98-.63,1.05.88.16.14-.47-.39-.88-.85-1.28-1.32,1.22,1.44-.02-.13-.27-.6-.2-.36-.59-1.38.08.28-.12-.28-.2-.56-.29-.85-.09-.29-.16-.58-.22-.87-.24-1.12.15,1.48.04.34-.06-.6-.04-1.2,0-1.81.08-1.15-.25,1.46-.04.32.06-.3.15-.6.23-.9.09-.3.19-.59.31-.88-.61,1.61-.22.58-.03.21.15-.28.32-.55.5-.81.63-.99-.88,1.04-.14.15.39-.47.85-.89,1.31-1.29-1.44,1.22.14-.01.61-.27.36-.2,1.39-.59-.27.08.27-.11.55-.2.84-.28.28-.09.58-.16.88-.22,1.12-.24-1.49.15-.34.03.61-.06,1.2-.04,1.81,0,1.16.09-1.46-.25-.31-.03.3.06.6.14.89.22.31.08.59.2.89.31-1.61-.61-.58-.23-.21-.04.28.15.55.32.82.5.98.63-1.05-.88-.16-.14.47.39.88.85,1.28,1.32-1.21-1.44.02.14.27.6.2.36.59,1.39-.08-.27.1.28.2.56.28.85.09.28.16.58.22.87.24,1.12-.15-1.48-.03-.33.06.6.04,1.2,0,1.81-.08,1.15.25-1.46.03-.32-.06.31-.14.6-.23.9-.09.3-.2.59-.31.88.61-1.61.22-.58.03-.21-1.46,2.75-.73,6.18,2.04,7.8,2.59,1.52,6.36.7,7.8-2.04,3.39-6.45,2.41-14.3-2.81-19.49-5.17-5.14-13.4-5.96-19.63-2.34-6.3,3.67-9.21,11.46-7.28,18.4,1.95,6.98,8.69,11.84,15.89,11.72,5.7-.09,11.04-3.35,13.83-8.29,1.53-2.71.66-6.22-2.05-7.8-2.65-1.56-6.27-.66-7.8,2.05Z"/>
          </g>
          <path class="st3" d="M117.54,270c-2.77,5.08-9.15,6.96-14.24,4.19-5.09-2.78-6.97-9.16-4.19-14.25,2.78-5.09,9.16-6.97,14.24-4.18,5.09,2.78,6.97,9.15,4.19,14.25Z"/>
          <path class="st17" d="M99.74,260.28c2.72-4.99,8.9-6.89,13.92-4.35-.1-.06-.2-.12-.31-.18-5.09-2.78-11.46-.91-14.24,4.18-2.78,5.1-.91,11.47,4.19,14.25.1.05.21.11.32.16-4.85-2.87-6.59-9.09-3.87-14.07Z"/>
        </g>
        <g>
          <path class="st21" d="M116.64,260.8c.7,1.36.89,2.65.42,2.9-.48.25-1.44-.65-2.15-2-.7-1.36-.89-2.66-.42-2.9.47-.25,1.43.64,2.14,2Z"/>
          <path class="st21" d="M117.66,265.36c-.16.29-.51.4-.8.25-.29-.14-.4-.5-.26-.79.15-.29.5-.4.8-.25.29.15.4.5.26.79Z"/>
        </g>
        <g>
          <path class="st22" d="M109.56,276.8s-3.24-.68-6.38-2.39c-3.14-1.71-5.47-4.07-5.47-4.07l-9.49,25.17s.18,1.53,2.05,2.55c1.88,1.02,3.26.35,3.26.35l16.04-21.61Z"/>
          <path d="M111.08,271.3c-.63-.13-1.25-.32-1.87-.5-.65-.2-1.29-.43-1.93-.68-1.26-.49,1.18.53-.1-.06-.39-.18-.76-.38-1.13-.57-.7-.38-1.37-.81-2.03-1.26-.3-.2-.59-.42-.88-.63,1.32.99.43.33.14.1-.54-.43-1.07-.9-1.55-1.39-1.43-1.44-3.59-2-5.55-1.47-2.06.57-3.26,2.07-3.98,3.98-1.89,5.01-3.78,10.02-5.67,15.03-1.08,2.86-2.16,5.71-3.23,8.57-.2.52-.39,1.04-.59,1.56-.68,1.79.1,3.53.8,5.12.99,2.28,3.4,3.76,5.59,4.65,1.77.7,3.82.73,5.65.27,1.68-.43,2.71-1.41,3.72-2.77.39-.54.8-1.07,1.2-1.6,1.83-2.48,3.67-4.95,5.51-7.42,3.1-4.17,6.19-8.36,9.31-12.53,1.85-2.5.41-6.36-2.05-7.8-2.9-1.7-5.95-.45-7.8,2.04-5.35,7.21-10.69,14.41-16.04,21.61.68-.68,1.36-1.37,2.04-2.04,2.12-.97,1.61-.64,1.09-.48-.79.25,1.74-.16.74-.09-1.02.07,1.53.34.36.07-1.16-.27,1.07.59-.03-.05,1.15.68.54.43.18.05,1.03,1.13.61.82.38.35.89,1.76.42,1.18.34.66v3.03c3.17-8.39,6.33-16.78,9.5-25.18-3.18.84-6.36,1.68-9.54,2.52,3.84,3.86,9.04,6.8,14.38,7.94,3.04.65,6.15-.86,7.01-3.98.79-2.86-.95-6.37-3.98-7.02Z"/>
        </g>
        <path class="st3" d="M109.56,276.8s-3.24-.68-6.38-2.39c-3.14-1.71-5.47-4.07-5.47-4.07l-9.49,25.17s.18,1.53,2.05,2.55c1.88,1.02,3.26.35,3.26.35l16.04-21.61Z"/>
        <g>
          <g>
            <path class="st22" d="M99.72,282.51c-.22.42-.73.57-1.16.34h0c-.4-.23-.56-.75-.33-1.15l1.14-2.09c.23-.42.75-.57,1.16-.34h0c.41.22.56.74.34,1.15l-1.14,2.09Z"/>
            <path d="M98.73,281.94c.25-.35.62.07.48.33.03-.04.05-.09.08-.13.13-.24.26-.48.39-.71.22-.41.44-.82.67-1.24-.2.38-.62-.07-.49-.32-.02.04-.04.08-.07.13-.13.24-.27.47-.39.71-.23.41-.45.82-.67,1.23-.7,1.29,1.27,2.44,1.97,1.15.38-.7.76-1.4,1.14-2.09.55-1.02.14-2.08-.75-2.72-.94-.66-2.14-.06-2.71.75-.45.63-.77,1.4-1.14,2.09-.55,1.02-.14,2.08.76,2.71.94.67,2.14.06,2.71-.74.85-1.21-1.13-2.34-1.97-1.15Z"/>
          </g>
          <path class="st28" d="M99.72,282.51c-.22.42-.73.57-1.16.34h0c-.4-.23-.56-.75-.33-1.15l1.14-2.09c.23-.42.75-.57,1.16-.34h0c.41.22.56.74.34,1.15l-1.14,2.09Z"/>
          <path class="st27" d="M98.38,281.78l1.14-2.09c.21-.38.68-.54,1.07-.38-.02-.02-.05-.04-.07-.05-.42-.22-.93-.07-1.16.34l-1.14,2.09c-.23.41-.07.93.33,1.15.03.01.06.02.08.04-.35-.25-.47-.72-.26-1.11Z"/>
        </g>
        <g>
          <g>
            <path class="st22" d="M99.77,282.42c-.22.42-.74.57-1.15.34-.42-.23-.56-.74-.34-1.15.23-.41.74-.56,1.15-.33.41.22.57.74.33,1.15Z"/>
            <path d="M99.28,282.13c-.18.3-.66.1-.5-.24.16-.32.66-.09.5.24-.13.28-.08.62.21.79.25.14.64.08.78-.21.35-.72.14-1.51-.55-1.93-.67-.41-1.54-.09-1.93.54-.42.67-.1,1.54.54,1.94.68.4,1.54.09,1.93-.55.39-.63-.61-1.2-.99-.58Z"/>
          </g>
          <path class="st28" d="M99.77,282.42c-.22.42-.74.57-1.15.34-.42-.23-.56-.74-.34-1.15.23-.41.74-.56,1.15-.33.41.22.57.74.33,1.15Z"/>
        </g>
        <path class="st27" d="M98.44,281.69c.21-.38.68-.54,1.07-.38-.02-.02-.05-.04-.08-.05-.42-.22-.93-.08-1.15.33-.23.41-.08.92.33,1.15.02.01.06.03.08.04-.35-.24-.47-.71-.26-1.1Z"/>
        <polygon class="st18" points="107.82 278.64 97.5 273.01 97.93 272.23 108.24 277.86 107.82 278.64"/>
        <path class="st25" d="M98.46,271.04c-.48-.43-.76-.7-.76-.7l-9.49,25.18s.07.57.55,1.25l9.7-25.72Z"/>
        <path class="st12" d="M108.56,276.56c.62.17,1,.25,1,.25l-16.04,21.61s-.51.25-1.34.21l16.39-22.07Z"/>
        <g>
          <g>
            <path class="st22" d="M110.78,275.8l-11.63-6.35-.61-.33-.65-.35c-.57-.31-1.22-.23-1.44.2-.23.42.05,1.01.61,1.32l.91.5.36.2,11.63,6.34c.57.31,1.21.22,1.44-.2.23-.42-.05-1.01-.62-1.32Z"/>
            <path d="M112.79,272.36c-2.33-1.28-4.66-2.54-6.99-3.82-1.32-.72-2.63-1.44-3.95-2.15-.99-.54-2.1-1.37-3.2-1.59-2.77-.55-5.21.54-6.14,3.34-.78,2.36.92,4.73,2.89,5.8.72.4,1.44.79,2.16,1.18,2.95,1.61,5.89,3.21,8.84,4.83.81.44,1.87,1.17,2.77,1.36,2.6.51,5.18-.43,6.07-3.11.79-2.37-.54-4.53-2.45-5.83-1.79-1.23-4.41-.35-5.46,1.43-1.15,1.97-.36,4.23,1.44,5.46-.41-1.07-.81-2.13-1.22-3.19.34-.59.68-1.18,1.02-1.77,1.37-1.69,4.64.26,2.89-.7-.54-.29-1.08-.59-1.62-.88-1.56-.85-3.12-1.7-4.68-2.55-1.35-.74-2.69-1.47-4.04-2.21-.26-.14-.52-.28-.77-.42-.14-.07-.28-.16-.43-.23-.17-.09-.33-.19-.5-.27-1.54-.84,1.6.74.85,2.99-.34.59-.68,1.17-1.02,1.76-1.33,1.64-4.53-.19-3.16.55.14.08.28.16.42.24.21.11.42.22.62.33.23.13.46.25.68.37,1.32.72,2.63,1.44,3.94,2.16,2.33,1.27,4.67,2.54,7,3.81,1.91,1.04,4.34.49,5.46-1.44,1.07-1.83.48-4.42-1.44-5.46Z"/>
          </g>
          <path class="st3" d="M110.78,275.8l-11.63-6.35-.61-.33-.65-.35c-.57-.31-1.22-.23-1.44.2-.23.42.05,1.01.61,1.32l.91.5.36.2,11.63,6.34c.57.31,1.21.22,1.44-.2.23-.42-.05-1.01-.62-1.32Z"/>
          <path class="st25" d="M97.7,269.11l.65.36.62.34,11.62,6.34c.49.27.76.74.69,1.14.05-.05.09-.1.12-.16.22-.42-.05-1.01-.62-1.32l-11.62-6.35-.62-.33-.65-.35c-.57-.31-1.22-.23-1.44.2-.03.06-.05.13-.07.19.3-.28.84-.31,1.33-.04Z"/>
        </g>
        <polygon class="st19" points="107.24 278.33 108.09 278.79 108.62 278.07 107.78 277.61 107.24 278.33"/>
        <polygon class="st17" points="97.15 271.8 98 272.27 97.68 273.1 96.83 272.65 97.15 271.8"/>
      </g>
    </g>
  </g>
  <g>
    <path class="st0" d="M82.77,276.72c7.34-12.3,20.32.07,14.92,8.2-5.41,8.13-23.29,5.81-14.92-8.2"/>
    <path d="M85.48,278.3c.67-1.09,1.04-1.61,2.11-2.57.67-.6-.49.33.22-.17.21-.15.43-.28.65-.4.13-.07.88-.41.13-.1.29-.12.59-.21.88-.29.22-.06.44-.1.66-.13-.87.14-.15.03.05.03.21,0,.43,0,.65.02.75.05-.73-.13.02,0,.43.08.84.21,1.24.35-.8-.28-.12-.05.05.03.26.13.51.28.76.43.19.11.36.24.54.37-.67-.48-.08-.04.05.07.34.29.64.62.94.95.5.58-.39-.55.06.07.13.18.25.37.37.55.13.19.23.39.34.59.09.16.48,1.09.15.26.16.42.29.84.4,1.28.05.21.09.43.12.65-.15-.88-.03-.13-.02.05.01.25-.12,1.64.02.72-.08.53-.23,1.04-.42,1.54.28-.76,0-.04-.09.1-.11.22-.24.42-.38.63-.09.16-.52.71.03-.01-.11.16-.24.3-.37.45-.25.29-.54.55-.83.81-.14.13-.69.54.04,0-.21.15-.42.29-.64.44-.32.21-.66.39-1,.57-.17.09-.35.17-.53.24.84-.38.22-.1.04-.02-.78.29-1.6.48-2.42.62,1.06-.18-.22,0-.49.02-.37.02-.74.02-1.11,0-.19,0-.36-.03-.55-.04-.68-.06.78.12.12.02-.4-.06-.81-.16-1.2-.28-.17-.04-.33-.11-.49-.16-.61-.21.7.32.12.06-.3-.13-.59-.3-.86-.47-.19-.12-.67-.48.1.12-.12-.1-.24-.21-.36-.31-.12-.11-.22-.22-.33-.35-.56-.59.3.45,0,.01-.16-.22-.28-.46-.4-.71.46.95,0-.06-.07-.36-.21-.85.03.66-.04-.24-.03-.39-.02-.79.02-1.18.04-.35.03-.28-.02.2.03-.23.08-.44.13-.66.1-.48.27-.94.43-1.4.06-.17.12-.33.18-.49-.27.67.1-.2.14-.28.27-.55.57-1.09.88-1.62,2.06-3.49-3.37-6.64-5.42-3.17-2.26,3.83-3.78,8.65-1.42,12.8,1.88,3.31,5.8,4.72,9.42,4.8,3.82.09,7.67-1.39,10.47-3.97,3.35-3.08,4.47-8.05,2.76-12.27-1.54-3.82-4.82-7.15-9-7.9-5.27-.93-9.58,2.2-12.23,6.54-2.12,3.46,3.31,6.62,5.42,3.17h0Z"/>
  </g>
</svg>