<?xml version="1.0" encoding="UTF-8"?>
<svg id="Layer_1" xmlns="http://www.w3.org/2000/svg" version="1.1" viewBox="0 0 274.24 320.79">
  <!-- Generator: Adobe Illustrator 29.6.1, SVG Export Plug-In . SVG Version: 2.1.1 Build 9)  -->
  <defs>
    <style>
      .st0 {
        fill: #ffd7c3;
      }

      .st1, .st2, .st3, .st4, .st5, .st6, .st7, .st8, .st9, .st10 {
        fill-rule: evenodd;
      }

      .st1, .st11 {
        fill: #fff;
      }

      .st12 {
        fill: #ffce00;
      }

      .st13 {
        fill: #511703;
      }

      .st14, .st5 {
        fill: #000002;
      }

      .st15 {
        fill: #6d6e71;
      }

      .st16 {
        fill: #603913;
      }

      .st17 {
        fill: #fff4c7;
      }

      .st2 {
        fill: #f15a29;
      }

      .st18 {
        fill: #bcbec0;
      }

      .st3 {
        fill: #ffe4c0;
      }

      .st19 {
        fill: #4b76c4;
      }

      .st20 {
        fill: #002c6d;
      }

      .st21 {
        fill: #ffb000;
      }

      .st22 {
        fill: #113ea3;
      }

      .st4 {
        fill: #ffd6a4;
      }

      .st23 {
        fill: #ed1c24;
      }

      .st24, .st6 {
        fill: #f9a11b;
      }

      .st25 {
        fill: #f38b9e;
      }

      .st26 {
        fill: #6f2a0e;
      }

      .st27 {
        fill: #754c29;
      }

      .st28, .st7 {
        fill: #fdc361;
      }

      .st29 {
        fill: #fde5d2;
      }

      .st8 {
        fill: #ffc80f;
      }

      .st30 {
        fill: #82442f;
      }

      .st31 {
        fill: #ffda00;
      }

      .st9, .st32 {
        fill: #fff9ae;
      }

      .st33 {
        fill: #a97c50;
      }

      .st34 {
        fill: #ffc0a4;
      }

      .st35 {
        fill: #ff99a1;
      }

      .st10 {
        fill: #ff8564;
      }

      .st36 {
        fill: #fff200;
      }
    </style>
  </defs>
  <g>
    <g>
      <g>
        <g>
          <g>
            <g>
              <polygon class="st29" points="178.63 286.02 187.34 288.66 190.37 294 189.17 308.18 184.95 311.44 175.03 312.2 178.63 286.02"/>
              <path d="M176.91,292.26c2.9.88,5.81,1.76,8.71,2.64-1.29-.99-2.57-1.97-3.86-2.97,1,1.78,2.01,3.56,3.02,5.33-.29-1.09-.58-2.18-.88-3.26-.4,4.72-.8,9.45-1.2,14.18.63-1.52,1.27-3.05,1.89-4.57-1.4,1.09-2.81,2.18-4.21,3.26,1.52-.62,3.04-1.26,4.57-1.89-3.31.25-6.62.51-9.93.77,2.08,2.72,4.16,5.45,6.23,8.17,1.19-8.73,2.4-17.46,3.6-26.18.25-1.82.31-3.33-.65-4.98-.85-1.44-2.25-2.52-3.86-2.97-3.05-.84-7.46,1.02-7.95,4.52-1.2,8.72-2.4,17.45-3.61,26.19-.25,1.81-.31,3.32.66,4.98,1.08,1.85,3.36,3.37,5.58,3.2,3.14-.24,6.28-.48,9.42-.73.16-.01.32-.02.48-.04,1.96-.15,3.08-.72,4.62-1.91.59-.46,1.19-.92,1.78-1.38,2.4-1.85,4.02-3.06,4.32-6.58.29-3.42.58-6.85.88-10.28.1-1.23.21-2.46.31-3.7.18-2.18-1.59-4.58-2.64-6.43-.97-1.71-1.79-3.5-3.57-4.55-1.09-.63-2.47-.93-3.67-1.29-2.2-.66-4.4-1.33-6.6-2-3.37-1.02-7.03,1.18-7.95,4.52-.96,3.46,1.14,6.93,4.51,7.95Z"/>
            </g>
            <polygon class="st22" points="178.63 286.02 187.34 288.66 190.37 294 189.17 308.18 184.95 311.44 175.03 312.2 178.63 286.02"/>
          </g>
          <g>
            <g>
              <polygon class="st23" points="192.36 300.37 186.83 301.5 180.12 297.34 180.34 285.27 189.11 287.65 192.5 292.79 192.36 300.37"/>
              <path d="M190.98,295.38c-1.85.38-3.69.76-5.53,1.14,1.32.18,2.66.35,3.98.53-2.24-1.39-4.47-2.78-6.71-4.17.85,1.49,1.71,2.98,2.56,4.47.07-4.03.15-8.05.22-12.07-2.19,1.66-4.36,3.33-6.54,4.99,2.92.79,5.85,1.59,8.77,2.38-1.03-.8-2.06-1.59-3.08-2.38,1.12,1.71,2.26,3.42,3.38,5.13-.24-.87-.47-1.73-.7-2.61-.05,2.53-.1,5.06-.14,7.58-.05,2.82,2.39,5.17,5.18,5.17s5.12-2.36,5.17-5.17c.03-2.19.08-4.39.12-6.58.02-1.37-.08-2.67-.87-3.88-.74-1.12-1.47-2.22-2.21-3.34-1.07-1.62-2.04-3.34-4.1-3.9-.78-.21-1.56-.42-2.34-.63-2.14-.58-4.28-1.17-6.43-1.74-3.29-.89-6.48,1.63-6.54,4.98-.05,2.31-.09,4.62-.13,6.93-.07,3.39-.86,7.54,2.55,9.66,2.16,1.34,4.32,2.68,6.48,4.02,2.62,1.62,6.81.05,9.66-.53,2.76-.57,4.32-3.78,3.61-6.36-.78-2.85-3.6-4.18-6.36-3.61Z"/>
            </g>
            <polygon class="st12" points="192.36 300.37 186.83 301.5 180.12 297.34 180.34 285.27 189.11 287.65 192.5 292.79 192.36 300.37"/>
            <polygon class="st17" points="191.53 293.41 188.15 288.27 180.34 285.27 189.11 287.65 192.5 292.79 192.36 300.37 191.53 293.41"/>
            <g>
              <g>
                <path class="st23" d="M185.47,295.23c.04.76.69,1.35,1.45,1.31.77-.04,1.35-.68,1.31-1.44-.04-.77-.69-1.35-1.45-1.32-.76.04-1.35.69-1.31,1.45Z"/>
                <path d="M182.89,295.23c.12,1.09.42,1.92,1.16,2.74.71.79,1.85,1.15,2.88,1.16,2.19.01,3.89-1.92,3.9-4.03.01-2.19-1.92-3.9-4.04-3.9-2.19,0-3.89,1.92-3.9,4.04,0,1.41,1.18,2.59,2.58,2.59s2.58-1.18,2.59-2.59c0-.28,0-.2-.05.25-.19.39-.22.46-.08.22-.13.24-.3.41-.53.53.04-.02.08-.05.12-.07-.22.14-.47.21-.74.2.28,0,.2-.01-.25-.05-.39-.18-.46-.21-.23-.09-.23-.12-.4-.29-.53-.53.03.04.05.08.07.13-.14-.22-.21-.47-.19-.74,0,.28,0,.2.04-.25.19-.38.21-.46.08-.23.12-.22.3-.4.53-.53-.04.02-.08.05-.12.08.23-.14.47-.21.74-.2-.28,0-.2,0,.25.05.38.19.46.21.23.08.23.12.4.3.53.53-.03-.04-.05-.08-.08-.12.15.23.21.47.21.74-.15-1.4-1.07-2.59-2.59-2.59-1.3,0-2.73,1.18-2.58,2.59Z"/>
              </g>
              <path class="st22" d="M185.47,295.23c.04.76.69,1.35,1.45,1.31.77-.04,1.35-.68,1.31-1.44-.04-.77-.69-1.35-1.45-1.32-.76.04-1.35.69-1.31,1.45Z"/>
              <path class="st19" d="M187.82,295.1c-.04-.66-.53-1.2-1.15-1.3.04,0,.08-.02.12-.02.76-.04,1.41.55,1.45,1.32.04.76-.55,1.41-1.31,1.44-.1,0-.2,0-.3-.02.7-.1,1.23-.71,1.2-1.43Z"/>
            </g>
          </g>
        </g>
        <polygon class="st19" points="189.3 306.29 189.17 308.18 184.95 311.44 178.8 311.97 184.27 310.46 187.87 307.68 187.91 306.51 189.3 306.29"/>
      </g>
      <g>
        <g>
          <g>
            <g>
              <polygon class="st29" points="95.97 286.02 87.26 288.66 84.23 294 85.43 308.18 89.65 311.44 99.58 312.2 95.97 286.02"/>
              <path d="M94.26,279.79c-2.88.87-5.76,1.74-8.64,2.62-3.07.94-4.16,3.39-5.58,5.89-1.02,1.79-2.43,3.78-2.25,5.92.29,3.48.58,6.96.88,10.44.1,1.17.2,2.34.3,3.51.31,3.71,2.34,4.94,4.89,6.9.39.3.78.61,1.17.91,1.58,1.22,2.74,1.78,4.75,1.95,1.02.07,2.05.16,3.07.23,2.25.17,4.49.35,6.73.52,1.64.13,3.44-.76,4.57-1.89,1.79-1.79,1.99-3.91,1.66-6.28-1.2-8.73-2.41-17.46-3.6-26.19-.48-3.5-4.9-5.36-7.95-4.52-1.62.45-3.02,1.52-3.87,2.97-.96,1.65-.9,3.16-.65,4.98,1.21,8.72,2.4,17.45,3.61,26.18,2.08-2.72,4.15-5.45,6.23-8.17-3.31-.26-6.62-.51-9.94-.77,1.52.63,3.05,1.26,4.57,1.89-1.41-1.08-2.81-2.16-4.21-3.26.63,1.53,1.26,3.05,1.89,4.57-.4-4.73-.8-9.46-1.2-14.18-.29,1.08-.59,2.17-.88,3.26,1.01-1.77,2.02-3.56,3.03-5.33-1.29.99-2.58,1.97-3.87,2.97,2.91-.88,5.82-1.76,8.72-2.64,3.37-1.02,5.46-4.49,4.51-7.95-.92-3.33-4.58-5.54-7.95-4.52Z"/>
            </g>
            <polygon class="st22" points="95.97 286.02 87.26 288.66 84.23 294 85.43 308.18 89.65 311.44 99.58 312.2 95.97 286.02"/>
          </g>
          <g>
            <g>
              <polygon class="st23" points="82.25 300.37 87.78 301.5 94.49 297.34 94.26 285.27 85.49 287.65 82.11 292.79 82.25 300.37"/>
              <path d="M80.87,305.35c2.79.57,7.04,2.15,9.6.57,2.16-1.35,4.32-2.69,6.49-4.02,1.97-1.23,2.73-3.14,2.69-5.33-.03-1.38-.05-2.74-.07-4.12-.05-2.39-.09-4.79-.14-7.18-.06-3.35-3.25-5.88-6.54-4.98-2.07.56-4.13,1.12-6.2,1.69-.84.23-1.69.46-2.53.69-2.08.57-3.05,2.27-4.14,3.91-.7,1.08-1.42,2.15-2.12,3.23-.77,1.17-.97,2.46-.94,3.82.05,2.25.08,4.5.12,6.75.06,2.81,2.32,5.17,5.17,5.17s5.22-2.35,5.17-5.17c-.05-2.52-.09-5.05-.13-7.58-.24.87-.48,1.74-.71,2.61,1.13-1.7,2.26-3.41,3.39-5.13-1.03.79-2.07,1.58-3.09,2.38,2.93-.8,5.85-1.6,8.77-2.38-2.18-1.66-4.36-3.33-6.54-4.99.08,4.02.15,8.05.23,12.07.85-1.49,1.71-2.98,2.56-4.47-2.24,1.39-4.48,2.78-6.71,4.17,1.33-.17,2.66-.35,3.99-.53-1.84-.38-3.69-.76-5.53-1.14-2.76-.57-5.58.77-6.36,3.61-.71,2.57.85,5.79,3.6,6.36Z"/>
            </g>
            <polygon class="st12" points="82.25 300.37 87.78 301.5 94.49 297.34 94.26 285.27 85.49 287.65 82.11 292.79 82.25 300.37"/>
            <polygon class="st17" points="83.07 293.41 86.46 288.27 94.26 285.27 85.49 287.65 82.11 292.79 82.25 300.37 83.07 293.41"/>
            <g>
              <g>
                <path class="st23" d="M89.13,295.23c-.04.76-.69,1.35-1.45,1.31-.76-.04-1.35-.68-1.32-1.44.04-.77.69-1.35,1.45-1.32.76.04,1.35.69,1.31,1.45Z"/>
                <path d="M86.55,295.23c0-.27.06-.51.2-.74-.14.23-.09.17.16-.18.35-.24.41-.29.18-.16.12-.05.24-.1.35-.15.45-.04.53-.05.25-.05.27,0,.51.06.74.2-.24-.14-.18-.09.18.15.24.35.29.41.15.18.06.12.1.23.15.35.04.46.05.53.05.25,0,.27-.06.51-.21.74.14-.23.09-.17-.15.18-.35.24-.41.29-.18.15-.12.05-.24.1-.35.15-.45.04-.54.05-.25.05-.27,0-.51-.06-.74-.2.22.14.17.09-.18-.15-.25-.36-.29-.41-.15-.19-.05-.12-.1-.23-.16-.35-.03-.45-.05-.53-.05-.25.01,1.41,1.18,2.59,2.59,2.59s2.59-1.18,2.59-2.59c0-1.04-.36-2-1.07-2.77-.75-.84-1.73-1.15-2.82-1.26-.99-.11-2.06.42-2.77,1.07-.84.75-1.15,1.74-1.26,2.83-.1.98.42,2.05,1.06,2.77.76.83,1.75,1.14,2.83,1.26.99.1,2.05-.42,2.77-1.07.84-.75,1.16-1.74,1.27-2.83.15-1.4-1.28-2.59-2.59-2.59-1.52,0-2.44,1.19-2.59,2.59Z"/>
              </g>
              <path class="st22" d="M89.13,295.23c-.04.76-.69,1.35-1.45,1.31-.76-.04-1.35-.68-1.32-1.44.04-.77.69-1.35,1.45-1.32.76.04,1.35.69,1.31,1.45Z"/>
              <path class="st19" d="M86.79,295.1c.04-.66.53-1.2,1.15-1.3-.04,0-.08-.02-.12-.02-.76-.04-1.41.55-1.45,1.32-.03.76.55,1.41,1.32,1.44.1,0,.2,0,.29-.02-.7-.1-1.22-.71-1.19-1.43Z"/>
            </g>
          </g>
        </g>
        <polygon class="st19" points="85.3 306.29 85.43 308.18 89.65 311.44 95.81 311.97 90.33 310.46 86.74 307.68 86.69 306.51 85.3 306.29"/>
      </g>
      <g>
        <g>
          <g>
            <path class="st0" d="M97.63,242.92s-27.83,33.06-15.75,40.19c12.08,7.13,28.98-23.77,28.98-23.77l-13.23-16.42Z"/>
            <path d="M95.12,240.4c-3.36,3.99-6.47,8.21-9.39,12.53-4.58,6.76-9.25,14.33-10.34,22.56-.44,3.38.42,7.15,3.05,9.47,3.2,2.82,7.69,3.41,11.64,1.99,4.14-1.49,7.61-4.41,10.63-7.53,3.08-3.19,5.78-6.77,8.29-10.42,1.75-2.54,3.43-5.17,4.92-7.88.83-1.52.48-3.01-.55-4.3-4.4-5.48-8.82-10.96-13.23-16.43-1.22-1.51-3.77-1.26-5.02,0-1.48,1.48-1.21,3.52,0,5.03,4.41,5.47,8.82,10.95,13.22,16.42-.18-1.44-.37-2.87-.55-4.31-.84,1.54-1.77,3.04-2.7,4.51-.96,1.53-1.97,3.04-3.02,4.52-.57.81-1.15,1.61-1.75,2.4-.16.2-.31.4-.46.6.57-.74.03-.03-.08.09-.38.48-.76.95-1.14,1.41-1.37,1.67-2.84,3.26-4.4,4.76-.72.68-1.47,1.33-2.24,1.96-.66.53.62-.47-.04.04-.19.14-.38.28-.57.41-.44.31-.89.61-1.34.88-.38.23-.76.44-1.15.64-.19.1-.39.19-.58.28-.69.33.79-.31.08-.03-.38.15-.76.27-1.15.38-.33.1-1.87.32-.58.17-.37.05-.75.06-1.13.05-.19,0-.38-.02-.56-.04,1.14.1.47.07.2.02-.38-.07-.74-.19-1.1-.31-.68-.25.8.36.13.05-.23-.12-.46-.24-.68-.38-.93-.57.44.42-.17-.12-.22-.2-.43-.43-.62-.67.81.99.14.15-.02-.16-.51-.92.22.75-.11-.27-.09-.3-.15-.61-.21-.91-.12-.65.12.96.05.29-.02-.16-.03-.34-.04-.5-.02-.35-.01-.69,0-1.04.01-.33.21-1.82.02-.52.25-1.73.78-3.41,1.38-5.03.16-.44.33-.86.5-1.29-.42,1.02.19-.42.3-.67.44-.97.91-1.92,1.4-2.86,1.92-3.71,4.17-7.25,6.54-10.7,1.06-1.53,2.14-3.04,3.25-4.54.46-.62.92-1.23,1.39-1.85.11-.14.21-.28.32-.42.42-.53-.55.7-.14.18.22-.28.44-.57.67-.85.69-.88,1.39-1.76,2.11-2.62,1.25-1.48,1.46-3.57,0-5.03-1.28-1.28-3.78-1.48-5.02,0Z"/>
          </g>
          <g>
            <polygon class="st14" points="98.04 275.03 81.47 264.33 85.22 258.51 101.79 269.23 98.04 275.03"/>
            <path d="M98.28,276.14l-17.93-11.58,4.62-7.17,17.93,11.59-4.62,7.15ZM82.58,264.09l15.22,9.83,2.87-4.45-15.22-9.84-2.88,4.46Z"/>
          </g>
          <path class="st23" d="M89.11,260.84l8.16,5.33,3.6-13.58-3.22-4.04s-3.75,4.66-5.52,7.44c-1.78,2.78-3.02,4.84-3.02,4.84Z"/>
        </g>
        <g>
          <g>
            <rect class="st23" x="86.7" y="259.5" width="7.75" height="17.57" transform="translate(-186.38 209.34) rotate(-59.33)"/>
            <path d="M97.46,273.88c-5.04-2.99-10.08-5.98-15.11-8.97.31,1.18.61,2.36.92,3.54,1.32-2.23,2.64-4.45,3.95-6.67-1.18.32-2.36.62-3.53.93,5.04,2.99,10.08,5.98,15.12,8.96-.31-1.18-.62-2.36-.93-3.54-1.32,2.23-2.63,4.45-3.95,6.67-1.7,2.88,2.77,5.47,4.46,2.61,1.32-2.23,2.64-4.45,3.96-6.67.72-1.21.27-2.82-.93-3.53-5.04-2.99-10.08-5.97-15.12-8.96-1.22-.73-2.82-.28-3.53.92-1.32,2.22-2.64,4.45-3.96,6.67-.72,1.22-.27,2.82.93,3.54,5.04,2.98,10.08,5.97,15.12,8.96,2.87,1.71,5.47-2.76,2.61-4.45Z"/>
          </g>
          <polygon class="st35" points="94.98 272.33 84.61 266.22 85 265.56 95.38 271.66 94.98 272.33"/>
        </g>
        <path class="st35" d="M96.93,249.26s-2.47,3.08-3.91,5.26c-1.44,2.17-3.58,5.51-3.58,5.51l7.75,4.7-5.25-5.06s.86-1.53,2.54-4.33c1.68-2.8,3.92-5.77,3.92-5.77l-1.47-.3Z"/>
      </g>
      <g>
        <g>
          <path class="st14" d="M202.35,316.09c0,1.93-29.2,3.49-65.23,3.49s-65.23-1.56-65.23-3.49,29.21-3.48,65.23-3.48,65.23,1.56,65.23,3.48Z"/>
          <path d="M137.12,320.79c-17.46,0-33.86-.36-46.19-1.02-20.25-1.08-20.25-2.34-20.25-3.68s0-2.59,20.25-3.67c12.34-.66,28.75-1.02,46.19-1.02s33.85.36,46.19,1.02c20.25,1.08,20.25,2.28,20.25,3.67s0,2.59-20.25,3.68c-12.33.66-28.73,1.02-46.19,1.02ZM75.86,316.11c8.09,1.19,30.68,2.27,61.26,2.27s53.17-1.07,61.26-2.27c-7.78-1.12-29.32-2.29-61.26-2.29s-53.48,1.17-61.26,2.29Z"/>
        </g>
        <g>
          <path class="st22" d="M104.69,241.25s-12.35,68.35-3.95,71.28c8.39,2.94,16.18-10.45,16.18-10.45,0,0,6.69,2.05,18.23,2.25,11.53.21,20.83-2.39,20.83-2.39,0,0,8.6,14.89,17.89,11.82,9.29-3.07-5.47-72.68-5.47-72.68l-63.71.17Z"/>
          <path d="M101.27,240.31c-2.08,11.51-3.78,23.1-5.16,34.7-.96,8.07-1.79,16.2-1.84,24.33-.01,3.19.12,6.37.67,9.51.44,2.52,1.39,4.9,3.49,6.47,1.91,1.42,4.82,1.29,7.04.95,2.86-.42,5.44-2.22,7.6-4.02,2.74-2.27,5.14-5.29,6.94-8.37-1.34.54-2.68,1.09-4.02,1.63,1.61.49,3.28.79,4.93,1.07,4.7.81,9.48,1.21,14.25,1.3,7.21.14,14.8-.58,21.77-2.52-1.34-.54-2.68-1.09-4.02-1.63,1.55,2.66,3.52,5.16,5.64,7.38,3.47,3.65,8.4,7.08,13.7,6.55,1.88-.19,3.76-.64,5.11-2.06.95-.99,1.5-2.18,1.96-3.45.92-2.55,1.05-5.44,1.14-8.12.26-7.67-.66-15.41-1.64-23-1.09-8.48-2.45-16.93-3.97-25.34-.94-5.21-1.92-10.4-3.02-15.58-.32-1.53-1.92-2.61-3.43-2.61-11.9.04-23.81.06-35.72.09-9.34.03-18.66.06-28,.08-4.58.01-4.58,7.12,0,7.11,11.91-.03,23.82-.06,35.73-.1,9.33-.03,18.66-.04,27.99-.07-1.14-.87-2.28-1.73-3.42-2.61,2.36,11.1,4.33,22.29,5.98,33.51.15,1.04.29,2.07.44,3.1.04.27.26,1.92.12.87.08.6.16,1.21.24,1.81.27,2.11.52,4.23.74,6.34.4,3.87.73,7.75.85,11.64.05,1.65.06,3.3,0,4.94-.03.69-.07,1.39-.12,2.08-.03.32-.06.65-.09.96-.02.16-.04.31-.06.47-.07.61.16-1.07.03-.21-.16,1.04-.38,2.07-.76,3.05-.09.24.48-1,.07-.2-.08.16-.18.32-.28.47-.36.55.71-.83.19-.25-.53.58.18-.1.26-.16-.3.21-.95.39.4-.13-.19.07-.41.13-.61.19-.18.04-.36.08-.54.12.49-.05.53-.06.13-.02-.53.05-1.07.03-1.6-.02.96.09.09,0-.1-.05-.35-.07-.69-.18-1.03-.29-.15-.05-1-.39-.16-.04-.25-.1-.5-.23-.74-.36-.58-.29-1.13-.64-1.67-1-.23-.15-.46-.33-.69-.49.69.51-.06-.06-.17-.15-.5-.42-.99-.87-1.46-1.32-.84-.8-1.61-1.67-2.36-2.56-.17-.2-1.16-1.46-.5-.61-.31-.4-.6-.8-.89-1.2-.54-.77-1.07-1.55-1.55-2.36-.8-1.38-2.48-2.06-4.01-1.64-1.95.54-3.94.91-5.93,1.24-2.21.38-3.53.54-5.94.74-2.66.23-5.34.32-8.02.28-2.54-.04-5.09-.19-7.62-.43-.51-.05-1.01-.11-1.52-.16-.12-.01-1.54-.19-.8-.09-.9-.12-1.8-.26-2.7-.41-1.55-.28-3.14-.57-4.65-1.03-1.52-.46-3.23.28-4.01,1.63-.48.82-1.03,1.61-1.58,2.37-.13.17-.25.34-.38.51-.48.64.51-.63,0,.01-.31.39-.63.77-.96,1.15-.77.89-1.6,1.73-2.48,2.52-.21.19-.42.36-.64.55-.73.61.59-.43-.17.13-.45.33-.92.63-1.41.92-.23.14-.48.27-.72.39-.15.07-.99.42-.15.08-.58.23-1.19.39-1.81.5.95-.18.1-.04-.11-.02-.27.01-.54,0-.8-.02-.92-.05.77.16-.14-.03-.27-.06-.55-.15-.82-.24-.23-.07,1.06.55.43.15.06.04.82.74.29.18-.42-.46.64.92.21.27-.1-.15-.18-.31-.26-.47-.39-.76.34.88.08.21-.09-.24-.17-.49-.25-.73-.14-.49-.25-.98-.35-1.48-.05-.28-.1-.56-.14-.84-.04-.28-.12-.9.05.35-.03-.2-.05-.4-.08-.61-.36-3.17-.33-6.39-.24-9.58.24-8.33,1.16-16.64,2.2-24.9.13-1.02.26-2.04.4-3.06.03-.25.07-.5.1-.75.12-.88-.12.81,0-.06.08-.58.16-1.15.24-1.74.27-1.98.56-3.96.85-5.94.5-3.37,1.02-6.72,1.57-10.08.43-2.61.86-5.22,1.33-7.83.35-1.91-.48-3.82-2.48-4.37-1.74-.48-4.03.57-4.37,2.48Z"/>
        </g>
      </g>
      <g>
        <g>
          <path class="st0" d="M175.44,242.92s27.84,33.06,15.76,40.19c-12.08,7.13-28.98-23.77-28.98-23.77l13.23-16.42Z"/>
          <path d="M172.92,245.43c.95,1.13,1.87,2.3,2.78,3.47.4.52-.55-.71-.15-.18.11.14.22.28.33.42.23.29.46.59.68.89.53.71,1.06,1.42,1.59,2.14,1.14,1.56,2.25,3.15,3.33,4.76,2.33,3.48,4.52,7.07,6.36,10.84.21.43.42.87.62,1.32.11.24.72,1.69.3.67.38.9.71,1.82,1.02,2.75.26.79.47,1.6.65,2.42.09.38.15.76.21,1.15-.2-1.3,0,.19.02.52.02.35.02.69,0,1.04,0,.16-.02.33-.03.5-.06.67.14-.95.04-.29-.05.31-.12.61-.22.91-.3,1.03.39-.67-.1.27-.16.3-.82,1.19-.02.16-.19.24-.41.46-.63.67-.59.55.74-.47-.18.12-.15.1-.33.19-.49.28-.85.47.51-.17-.05.05-.36.13-.73.23-1.1.31-.26.06-.96.12.21-.02-.19.02-.38.04-.57.04-.38.02-.76-.01-1.13-.05,1.28.13-.24-.08-.58-.17-.39-.1-.77-.24-1.15-.38-.71-.27.78.35.08.03-.2-.09-.39-.18-.58-.28-.87-.43-1.7-.96-2.49-1.52-.19-.13-.38-.28-.57-.41-.67-.5.62.48-.04-.04-.38-.3-.75-.63-1.13-.95-.83-.72-1.62-1.49-2.39-2.28-1.52-1.55-2.93-3.21-4.27-4.91-.11-.13-.64-.83-.07-.09-.15-.2-.32-.4-.46-.6-.31-.4-.6-.8-.9-1.21-.61-.84-1.21-1.69-1.78-2.53-.96-1.39-1.88-2.81-2.76-4.24-.7-1.14-1.39-2.27-2.03-3.45-.18,1.44-.37,2.87-.55,4.31,4.41-5.47,8.82-10.95,13.23-16.42,1.21-1.51,1.48-3.54,0-5.03-1.26-1.26-3.81-1.51-5.03,0-4.41,5.47-8.81,10.95-13.23,16.43-1.04,1.29-1.39,2.78-.55,4.3,2.82,5.15,6.23,10.03,9.93,14.58,4.89,6,12.67,13.95,21.26,11.61,3.65-1,6.6-3.98,7.22-7.76.61-3.78-.31-7.54-1.68-11.05-3.01-7.7-7.69-14.68-12.59-21.28-1.72-2.32-3.48-4.62-5.34-6.83-1.25-1.48-3.75-1.28-5.03,0-1.46,1.46-1.25,3.54,0,5.03Z"/>
        </g>
        <g>
          <polygon class="st14" points="175.02 275.03 191.6 264.33 187.84 258.51 171.27 269.23 175.02 275.03"/>
          <path d="M174.78,276.14l-4.62-7.15,17.92-11.59,4.63,7.17-17.93,11.58ZM172.38,269.47l2.88,4.45,15.22-9.83-2.88-4.46-15.22,9.84Z"/>
        </g>
        <path class="st23" d="M183.95,260.84l-8.16,5.33-3.6-13.58,3.22-4.04s3.74,4.66,5.52,7.44c1.78,2.78,3.02,4.84,3.02,4.84Z"/>
      </g>
      <g>
        <g>
          <polygon class="st29" points="163.85 249.19 137.45 249.19 137.22 249.19 110.83 249.19 99.38 286.82 137.22 286.82 137.45 286.82 175.29 286.82 163.85 249.19"/>
          <path d="M163.85,242.08h-53.02c-3.22,0-5.94,2.18-6.86,5.22-3.65,11.99-7.29,23.97-10.94,35.97-.17.55-.33,1.11-.5,1.66-1.35,4.45,2.33,9,6.86,9h75.91c4.53,0,8.21-4.55,6.85-9-3.64-11.98-7.29-23.97-10.93-35.96-.17-.55-.34-1.1-.51-1.66-1.13-3.7-4.93-6.02-8.74-4.96-3.66,1.01-6.09,5.04-4.96,8.75,3.64,11.98,7.29,23.98,10.93,35.97.17.55.33,1.11.5,1.66,2.29-3.01,4.57-6,6.85-9h-75.91c2.28,3,4.57,5.99,6.86,9,3.65-12,7.29-23.99,10.93-35.97.17-.55.34-1.11.51-1.66-2.29,1.74-4.57,3.48-6.85,5.22h53.02c3.88,0,7.11-3.23,7.11-7.11s-3.23-7.11-7.11-7.11Z"/>
        </g>
        <polygon class="st23" points="163.85 249.19 137.45 249.19 137.22 249.19 110.83 249.19 99.38 286.82 137.22 286.82 137.45 286.82 175.29 286.82 163.85 249.19"/>
      </g>
      <g>
        <path class="st0" d="M154.84,240.88c0,9.79-7.94,17.74-17.74,17.74s-17.74-7.95-17.74-17.74,7.94-17.75,17.74-17.75,17.74,7.95,17.74,17.75Z"/>
        <path d="M151.61,240.88c-.05,5.19-2.73,9.87-7.18,12.53-4.49,2.68-10.15,2.57-14.65,0-4.47-2.56-7.13-7.43-7.18-12.53-.05-5.16,2.8-9.91,7.18-12.53,4.49-2.68,10.15-2.58,14.65,0,4.47,2.57,7.14,7.42,7.18,12.53.05,4.16,6.51,4.16,6.47,0-.06-6.26-2.85-12.36-7.78-16.28-5.18-4.12-11.82-5.58-18.27-4.07-5.97,1.39-11.2,5.76-13.82,11.27-2.85,5.99-2.66,12.86.29,18.77,4.31,8.64,14.46,12.81,23.67,10.66,9.31-2.17,15.81-10.95,15.9-20.35.04-4.17-6.42-4.17-6.47,0Z"/>
      </g>
      <g>
        <g>
          <path class="st29" d="M162.66,274.93c-2.16-8.78.52-23.43.52-23.43l-5.77.6s-.72,19.81-20,19.81c-.05,0-.09,0-.14,0h-.02s-.09,0-.14,0c-19.29,0-20-19.81-20-19.81l-5.78-.6s2.68,14.65.52,23.43c-2.16,8.79-11.27,11.89-11.27,11.89h73.36s-9.12-3.09-11.27-11.89Z"/>
          <path d="M168.89,273.22c-.12-.52-.23-1.05-.32-1.57-.31-1.74.15,1.51-.05-.29-.14-1.29-.2-2.59-.23-3.88-.05-2.46.07-4.94.27-7.38.09-1.04.19-2.07.31-3.11.05-.45.11-.91.16-1.36.07-.52.22-1.64-.1.74.03-.22.06-.45.09-.66.12-.83.24-1.66.39-2.48.32-1.77.29-3.38-.65-4.98-1.06-1.81-3.38-3.43-5.58-3.2-1.92.21-3.85.4-5.77.61-3.61.38-6.32,2.66-6.47,6.46-.01.43-.06.86-.12,1.29.29-2.37.19-1.26,0-.21-.12.64-.27,1.28-.43,1.91-.17.69-.38,1.36-.61,2.03-.12.36-.26.72-.4,1.07-.35.9.73-1.71.35-.81-.11.25-.23.49-.34.73-.36.76-.78,1.49-1.23,2.21-.23.38-.49.73-.74,1.08-.6.83,1.1-1.4.46-.59-.19.23-.39.46-.59.69-.63.7-1.32,1.34-2.05,1.93,1.91-1.55.42-.34-.09-.01-.5.33-1.02.62-1.56.89-.24.12-.48.23-.72.34,1.99-.9,1-.42.54-.24-.54.2-1.09.37-1.63.53-.58.16-1.17.28-1.76.39-.47.09-1.7.24.46-.04-.44.06-.88.09-1.32.12-1.03.07-2.08.07-3.11.04-.67-.02-1.34-.09-2-.16,2.43.28-.12-.06-.73-.21-.57-.13-1.13-.3-1.68-.48-.26-.09-.52-.19-.78-.28-1.07-.41,1.57.69.55.22-1.01-.46-1.96-1.03-2.86-1.68-.87-.62,1.36,1.08.54.42-.25-.2-.48-.42-.71-.63-.4-.36-.78-.76-1.15-1.15-.15-.17-.3-.35-.44-.52-.91-1.07.91,1.22.32.43-.31-.41-.58-.84-.86-1.26-.52-.83-.96-1.69-1.37-2.58-.21-.47-.57-1.39.34.82-.1-.24-.19-.49-.28-.73-.17-.45-.33-.92-.48-1.39-.42-1.32-.72-2.69-.92-4.05-.15-1.04.27,2.22.13.92-.02-.17-.04-.35-.05-.53-.01-.16-.03-.32-.03-.48-.15-3.8-2.85-6.09-6.46-6.46-1.93-.2-3.85-.4-5.78-.61-1.62-.16-3.46.79-4.57,1.9-1.73,1.74-2.08,3.96-1.66,6.29.12.62.21,1.25.3,1.88.05.26.08.54.12.81.21,1.46-.24-1.85-.04-.29.13.95.23,1.9.32,2.86.45,4.5.65,9.07.1,13.56.27-2.23.07-.57-.02-.07-.1.54-.22,1.07-.36,1.6-.15.57-.35,1.12-.57,1.67.79-2.03.03-.2-.22.27-.26.47-.56.91-.86,1.35-.39.53-.24.34.44-.57-.19.24-.39.47-.59.69-.63.71-1.33,1.36-2.07,1.97-.83.69,1.49-1.1.27-.21-.33.24-.66.46-1.01.67-.57.38-1.17.71-1.77,1.02-.95.49-1.86.81.17-.02-.16.06-.31.12-.46.17-2.75.95-4.75,3.21-4.75,6.23,0,3.52,2.94,6.46,6.47,6.46h73.36c2.87,0,5.47-1.97,6.23-4.74.98-3.56-1.18-6.81-4.52-7.96-.1-.04-.19-.07-.29-.1-.53-.21-1.3-.57,1.08.46-.21-.09-.42-.19-.63-.29-1.13-.53-2.21-1.18-3.24-1.91-1.22-.87,1.1.89.27.21-.29-.23-.57-.48-.84-.73-.66-.59-1.26-1.25-1.82-1.93,1.37,1.67.37.47.09.04-.3-.45-.57-.92-.82-1.4-.8-1.52.38,1.05-.03,0-.22-.55-.38-1.13-.53-1.7-.88-3.41-4.6-5.44-7.94-4.52-3.44.95-5.39,4.54-4.51,7.95,1.99,7.7,8.35,13.84,15.78,16.39.57-4.23,1.15-8.46,1.72-12.69h-73.36c.57,4.23,1.14,8.46,1.72,12.69,7.97-2.74,14.59-9.55,16.11-17.96,1.49-8.28.65-17.07-.84-25.3-2.08,2.72-4.16,5.45-6.23,8.18,1.93.2,3.85.4,5.78.6-2.15-2.15-4.31-4.31-6.47-6.46.24,6.35,2.69,12.52,6.58,17.47,3.18,4.05,7.97,6.86,12.96,8.02,5.56,1.29,12.11,1.17,17.43-1.05,3.48-1.44,6.64-3.39,9.13-6.28,2.33-2.68,3.89-5.55,5.19-8.84,1.15-2.91,1.84-6.21,1.96-9.33-2.16,2.15-4.31,4.31-6.46,6.46,1.92-.2,3.85-.4,5.77-.6-2.08-2.73-4.15-5.46-6.23-8.18-1.57,8.66-2.57,18.22-.52,26.87.81,3.43,4.64,5.42,7.95,4.52,3.49-.96,5.33-4.53,4.51-7.95Z"/>
        </g>
        <path class="st22" d="M162.66,274.93c-2.16-8.78.52-23.43.52-23.43l-5.77.6s-.72,19.81-20,19.81c-.05,0-.09,0-.14,0h-.02s-.09,0-.14,0c-19.29,0-20-19.81-20-19.81l-5.78-.6s2.68,14.65.52,23.43c-2.16,8.79-11.27,11.89-11.27,11.89h73.36s-9.12-3.09-11.27-11.89Z"/>
        <path class="st20" d="M137.12,273.83s.1,0,.16,0h.02c.05,0,.1,0,.16,0,20.42,0,22.25-19.82,22.39-21.98l-2.41.25s-.72,19.81-20,19.81c-.05,0-.1,0-.14,0h-.02c-.05,0-.1,0-.14,0-19.29,0-20-19.81-20-19.81l-2.41-.25c.14,2.16,1.97,21.98,22.39,21.98Z"/>
      </g>
      <path class="st22" d="M101.53,293.97l-.95-7.16s22.65-1.97,37.56-1.97,37.13,1.97,37.13,1.97l-2.18,7.38s-9.53,3.44-35.98,3.44-35.58-3.66-35.58-3.66Z"/>
      <g>
        <g>
          <rect class="st23" x="173.7" y="264.41" width="17.57" height="7.75" transform="translate(-111.32 130.61) rotate(-30.67)"/>
          <path d="M178.21,278.33c5.04-2.98,10.08-5.97,15.12-8.96,1.2-.71,1.65-2.32.93-3.54-1.32-2.22-2.64-4.45-3.95-6.67-.72-1.2-2.32-1.65-3.54-.92-5.04,2.99-10.08,5.97-15.12,8.96-1.21.71-1.65,2.32-.93,3.53,1.32,2.22,2.64,4.45,3.95,6.67,1.7,2.86,6.17.27,4.47-2.61-1.32-2.22-2.64-4.44-3.96-6.67-.31,1.18-.62,2.36-.92,3.54,5.04-2.98,10.08-5.97,15.11-8.96-1.17-.3-2.36-.61-3.53-.93,1.32,2.23,2.64,4.45,3.95,6.67.31-1.18.62-2.36.93-3.54-5.04,2.99-10.08,5.98-15.12,8.97-2.87,1.7-.27,6.16,2.61,4.45Z"/>
        </g>
        <polygon class="st35" points="178.08 272.33 188.46 266.22 188.06 265.56 177.68 271.66 178.08 272.33"/>
      </g>
      <path class="st35" d="M176.13,249.26s2.48,3.08,3.92,5.26c1.45,2.17,3.57,5.51,3.57,5.51l-7.75,4.7,5.25-5.06s-.86-1.53-2.54-4.33c-1.68-2.8-3.92-5.77-3.92-5.77l1.46-.3Z"/>
      <path class="st19" d="M113.44,251.72l-2.12-.22s2.68,14.65.52,23.43c-2.16,8.79-11.27,11.89-11.27,11.89l.95,7.16-.14,7.75s-.47,7.75,1.59,7.94c2.07.2,6.12-3.42,6.12-3.42,0,0-4.48,1.56-5.38,1.37-.9-.19-.87-5.89-.87-5.89l.3-7.5-.47-6.57,2.32-1.2c2.94-1.63,7.46-5.03,8.92-10.95,2.05-8.37-.17-21.92-.49-23.8Z"/>
      <path class="st20" d="M160.98,251.72l2.12-.22s-2.68,14.65-.52,23.43c2.16,8.79,12.73,11.93,12.73,11.93l-2.19,7.54.34,8.15s.29,8.14-1.79,8.33c-2.06.2-6.59-3.28-6.59-3.28,0,0,5.02,1.5,5.93,1.31.9-.2.56-7.18.56-7.18l-.31-7.5,1.7-6.05-3.56-1.72c-2.94-1.63-7.46-5.03-8.91-10.95-2.06-8.37.16-21.92.48-23.8Z"/>
      <g>
        <path class="st29" d="M101.69,283.95s16.82,2.79,35.21,2.79,36.02-2.85,36.02-2.85l2.39,4.28s-20.1,2.76-38.03,2.76-36.71-2.78-36.71-2.78l1.11-4.2Z"/>
        <path d="M100.14,289.57c24.12,3.98,48.65,3.68,72.82.17.5-.07,1.02-.14,1.52-.23-2.19-.88-4.38-1.78-6.56-2.67.79,1.43,1.59,2.85,2.38,4.28,1.16-2.85,2.32-5.7,3.48-8.54-.5.07,2.22-.3.84-.12-.66.09-1.32.16-1.99.25-2.25.28-4.51.53-6.77.76-6.9.71-13.82,1.24-20.74,1.51-13.79.53-27.6-.45-41.26-2.19-.4-.05-.8-.1-1.21-.16-.88-.12,1.71.23.88.12-.18-.02-.36-.05-.54-.08-.29-.05-.57-.08-.86-.12,1.36,2.38,2.71,4.77,4.06,7.16.37-1.4.74-2.8,1.11-4.2.81-3.06-.99-6.31-4.06-7.16-3.04-.84-6.34,1-7.15,4.06-.38,1.4-.74,2.8-1.11,4.2-.73,2.77.9,6.69,4.06,7.15,10.73,1.58,21.6,2.56,32.44,2.9,13.45.42,26.96-.64,40.31-2.23,1.69-.2,3.39-.42,5.08-.65,1.39-.19,2.8-1.51,3.47-2.67,1.07-1.82,1.02-4.05,0-5.88-.8-1.42-1.59-2.85-2.38-4.27-1.37-2.45-4-3.08-6.57-2.67-.86.14-1.72.26-2.58.38-.21.02-.42.05-.62.09-.99.13,1.65-.22.61-.09-.52.07-1.05.14-1.58.21-1.38.17-2.75.34-4.13.49-7.35.81-14.75,1.35-22.14,1.52-7.97.17-15.94-.2-23.88-.9-2.98-.27-5.96-.58-8.94-.95-.55-.06-1.1-.14-1.65-.21-1.06-.14,1.58.21.56.07-.22-.04-.44-.06-.66-.09-.73-.11-1.47-.21-2.2-.32-.3-.05-.62-.09-.93-.14-3.13-.52-6.25.77-7.15,4.06-.77,2.82.93,6.64,4.06,7.16Z"/>
      </g>
      <path class="st26" d="M101.69,283.95s16.82,2.79,35.21,2.79,36.02-2.85,36.02-2.85l2.39,4.28s-20.1,2.76-38.03,2.76-36.71-2.78-36.71-2.78l1.11-4.2Z"/>
      <path class="st30" d="M101.69,285.12s16.82,2.79,35.21,2.79,36.02-2.85,36.02-2.85l1.79,3.19c.39-.05.6-.08.6-.08l-2.39-4.28s-17.62,2.85-36.02,2.85-35.21-2.79-35.21-2.79l-1.11,4.2s.1.01.29.04l.82-3.08Z"/>
      <path class="st13" d="M137.29,289.51c-16.46,0-33.66-2.35-36.35-2.73l-.36,1.37s18.79,2.78,36.71,2.78,38.03-2.76,38.03-2.76l-.74-1.32c-3.78.49-21.39,2.66-37.29,2.66Z"/>
      <g>
        <g>
          <rect class="st22" x="107.47" y="284.51" width="15.36" height="6.03" transform="translate(-178.82 385.06) rotate(-86.53)"/>
          <path d="M117.69,293.44c-2.01-.12-4.02-.25-6.02-.36.65.64,1.29,1.29,1.94,1.93.31-5.11.62-10.22.94-15.33l-1.94,1.94c2,.12,4.01.24,6.02.37-.64-.65-1.29-1.29-1.94-1.94-.31,5.11-.62,10.22-.94,15.33-.15,2.5,3.72,2.48,3.87,0,.31-5.11.63-10.22.94-15.33.07-1.1-.94-1.88-1.94-1.94-2.01-.13-4.02-.24-6.02-.37-1.1-.06-1.88.94-1.94,1.94-.31,5.11-.62,10.22-.94,15.33-.06,1.1.94,1.87,1.94,1.94,2,.12,4.01.24,6.02.37,2.5.15,2.48-3.73,0-3.88Z"/>
        </g>
        <rect class="st19" x="108.61" y="287.2" width="11.5" height=".58" transform="translate(-179.5 384.3) rotate(-86.54)"/>
        <polygon class="st20" points="115.85 293.34 115.27 293.31 115.97 281.82 116.55 281.86 115.85 293.34"/>
      </g>
      <g>
        <g>
          <rect class="st22" x="156.18" y="279.85" width="6.03" height="15.36" transform="translate(-17.11 10.16) rotate(-3.47)"/>
          <path d="M156.65,297.32c2.01-.13,4.02-.25,6.02-.37,1-.07,2.01-.84,1.94-1.94-.32-5.11-.63-10.22-.94-15.33-.06-1-.83-2-1.94-1.94-2.01.13-4.02.24-6.02.37-1,.06-2.01.84-1.94,1.94.31,5.11.62,10.22.94,15.33.15,2.48,4.04,2.5,3.88,0-.31-5.11-.62-10.22-.93-15.33-.64.65-1.3,1.29-1.94,1.94,2-.13,4.01-.25,6.02-.37-.65-.65-1.29-1.29-1.94-1.94.31,5.11.62,10.22.93,15.33.65-.65,1.3-1.29,1.94-1.93-2.01.12-4.02.24-6.02.36-2.48.15-2.49,4.03,0,3.88Z"/>
        </g>
        <rect class="st20" x="159.69" y="281.74" width=".58" height="11.5" transform="translate(-17.16 10.24) rotate(-3.48)"/>
        <polygon class="st19" points="158.49 293.34 159.07 293.31 158.37 281.82 157.79 281.86 158.49 293.34"/>
      </g>
      <g>
        <g>
          <g>
            <path class="st29" d="M144.06,291.22c0,1.19-.88,2.17-1.97,2.17l-9.59.05c-1.09,0-1.99-.95-2-2.15l-.03-5.76c0-1.2.88-2.16,1.97-2.17l9.59-.05c1.1-.01,1.99.95,2,2.14l.03,5.77Z"/>
            <path d="M138.24,291.22c.15-2.1,1.77-3.64,3.81-3.64h-.5c-.76,0-1.51,0-2.26.01-1.95.01-3.89.02-5.84.03-1.55.01-1.06-.4,1.06.56,1.13.51,1.8,2.44,1.8,2.98,0-.29,0-.58,0-.87-.01-1.58-.01-3.18-.02-4.76,0,2.1-1.89,3.63-3.81,3.64h.5c.76-.01,1.51-.01,2.26-.02,1.95,0,3.89-.02,5.83-.02,1.55-.01,1.07.4-1.06-.57-1.12-.51-1.79-2.44-1.8-2.98,0,.29,0,.59,0,.87,0,1.59.01,3.18.02,4.77.02,3.17,2.64,5.81,5.82,5.81s5.83-2.64,5.82-5.81c0-1.59-.02-3.18-.02-4.77,0-1.1-.07-2.12-.32-3.22-.82-3.54-4.14-5.46-7.5-5.74-3.04-.25-6.23.03-9.29.04-4.51.02-8.12,3.55-8.1,8.11,0,1.73.02,3.44.03,5.17.02,4.47,3.17,8.46,7.89,8.43,1.57,0,3.14-.01,4.72-.02,1.5-.01,2.99-.02,4.49-.02,4.67-.02,7.79-3.49,8.1-7.99.22-3.16-2.81-5.81-5.82-5.81-3.33,0-5.6,2.66-5.82,5.81Z"/>
          </g>
          <path class="st12" d="M144.06,291.22c0,1.19-.88,2.17-1.97,2.17l-9.59.05c-1.09,0-1.99-.95-2-2.15l-.03-5.76c0-1.2.88-2.16,1.97-2.17l9.59-.05c1.1-.01,1.99.95,2,2.14l.03,5.77Z"/>
          <path class="st14" d="M142.06,290.22l-.02-3.75c0-.77-.63-1.4-1.41-1.4l-6.79.04c-.77,0-1.4.63-1.39,1.4v.71s3.18-.02,3.18-.02c.65,0,1.17.52,1.18,1.16,0,.65-.52,1.17-1.17,1.17l-3.17.02v.7c0,.77.64,1.4,1.41,1.4l6.78-.04c.77,0,1.4-.63,1.39-1.41Z"/>
          <g>
            <path class="st17" d="M141.68,285.55c.22.24.36.57.36.92l.02,3.75c.01.77-.62,1.4-1.39,1.41l-6.78.04c-.15,0-.29-.02-.42-.06.27.28.64.47,1.05.47l6.79-.04c.77,0,1.39-.63,1.39-1.41l-.02-3.74c0-.63-.42-1.16-.99-1.33Z"/>
            <path class="st17" d="M136.26,287.62c.11,0,.2.01.29.04-.22-.27-.55-.44-.92-.44h-2.55v.42h3.18Z"/>
            <path class="st17" d="M131.12,291.7l-.02-5.76c0-1.2.87-2.16,1.97-2.17l9.6-.05c.24,0,.47.05.68.13-.35-.33-.81-.54-1.32-.53l-9.59.05c-1.09,0-1.98.97-1.97,2.17l.03,5.76c0,.93.55,1.72,1.32,2.02-.41-.39-.68-.97-.69-1.62Z"/>
          </g>
        </g>
        <g>
          <path class="st21" d="M140.43,284.46l-6.78.04c-.78,0-1.4.63-1.4,1.41v.7h.2v-.08c0-.77.62-1.41,1.39-1.41l6.79-.04c.51,0,.95.27,1.2.67-.06-.72-.66-1.29-1.4-1.29Z"/>
          <path class="st21" d="M132.48,290.38s0-.07,0-.11v-.7s3.17-.02,3.17-.02c.64,0,1.17-.53,1.17-1.17,0-.24-.08-.47-.21-.65v.04c0,.65-.52,1.17-1.16,1.17l-3.18.02v.7c0,.27.08.52.22.73Z"/>
          <path class="st21" d="M144.06,291.22l-.03-5.76c0-.38-.09-.72-.24-1.02.02.13.04.26.04.4l.03,5.76c0,1.2-.87,2.17-1.97,2.17l-9.6.04c-.76,0-1.41-.45-1.75-1.12.18,1,.99,1.75,1.96,1.75l9.59-.05c1.1,0,1.98-.98,1.97-2.17Z"/>
        </g>
      </g>
    </g>
    <g>
      <g>
        <g>
          <g>
            <g>
              <g>
                <g>
                  <path class="st29" d="M33.01,100.85s-1.57,39.06-.42,62.98c1.15,23.93,16.3,32.18,16.3,32.18v-70.2l-15.88-24.96Z"/>
                  <path d="M23.97,100.85c-.72,17.94-1.09,35.94-.72,53.89.14,6.66.33,13.33,1.68,19.88,1.17,5.64,3.42,11.25,6.51,16.11,2.19,3.44,4.83,6.74,7.93,9.4,1.54,1.32,3.16,2.71,4.96,3.7,5.97,3.27,13.62-.81,13.62-7.82v-70.12c0-3.04-1.45-4.99-2.94-7.33-1.85-2.9-3.69-5.81-5.54-8.71-2.88-4.53-5.76-9.05-8.63-13.57-2.65-4.15-8.01-5.81-12.38-3.24-4.13,2.41-5.9,8.21-3.25,12.38,5.29,8.31,10.59,16.63,15.88,24.96-.41-1.52-.82-3.05-1.23-4.57v70.2c4.53-2.6,9.07-5.2,13.62-7.81-.73-.39-1.4-.89-2.06-1.4.61.47,1.23.94,1.83,1.42-2.16-1.68-4.06-3.65-5.74-5.81.47.61.94,1.22,1.41,1.83-1.99-2.6-3.62-5.44-4.92-8.46.31.73.61,1.44.92,2.16-1.6-3.82-2.63-7.83-3.19-11.94.11.8.22,1.6.33,2.41-.77-5.93-.71-12.01-.79-17.98-.08-6.15-.06-12.31.01-18.46.11-9.36.33-18.73.66-28.1.03-1.01.07-2.02.11-3.02.2-4.94-4.26-9.05-9.04-9.05-5.08,0-8.85,4.12-9.05,9.05Z"/>
                </g>
                <path class="st26" d="M33.01,97.36s-1.57,42.55-.42,66.48c1.15,23.93,16.3,32.18,16.3,32.18v-70.2l-15.88-28.45Z"/>
                <path class="st30" d="M35.53,163.83c-.91-18.95-.12-49.61.25-61.52l-2.77-4.95s-1.57,42.55-.42,66.48c1.15,23.93,16.3,32.18,16.3,32.18v-2.1c-4.47-3.75-12.55-12.85-13.37-30.08Z"/>
              </g>
              <g>
                <g>
                  <path class="st29" d="M241.12,100.85s1.56,39.06.42,62.98c-1.15,23.93-16.3,32.18-16.3,32.18v-70.2l15.88-24.96Z"/>
                  <path d="M232.08,100.85c.72,17.94,1.09,35.94.72,53.89-.09,4.55-.13,9.15-.71,13.67.11-.81.21-1.6.32-2.41-.56,4.1-1.58,8.12-3.18,11.94.3-.72.61-1.44.91-2.16-1.3,3.01-2.92,5.86-4.92,8.46.46-.61.94-1.22,1.41-1.83-1.67,2.15-3.58,4.13-5.74,5.81.61-.48,1.22-.95,1.83-1.42-.65.5-1.33,1.01-2.05,1.4,4.54,2.61,9.08,5.21,13.61,7.81v-70.2c-.42,1.53-.82,3.05-1.24,4.57,5.3-8.33,10.58-16.65,15.88-24.96,2.64-4.17.89-9.96-3.25-12.38-4.37-2.57-9.73-.91-12.37,3.24-3.29,5.17-6.58,10.34-9.86,15.51-1.77,2.78-3.54,5.55-5.31,8.34-1.11,1.75-1.95,3.43-1.95,5.69v70.2c0,7.01,7.64,11.09,13.61,7.82,1.84-1.01,3.5-2.44,5.07-3.79,3.19-2.74,5.88-6.2,8.09-9.74,3.16-5.06,5.33-10.92,6.45-16.77,1.27-6.66,1.37-13.45,1.49-20.2.32-17.48-.05-35.01-.75-52.47-.2-4.93-3.97-9.05-9.05-9.05-4.79,0-9.24,4.11-9.05,9.05Z"/>
                </g>
                <path class="st26" d="M241.12,97.36s1.56,42.55.42,66.48c-1.15,23.93-16.3,32.18-16.3,32.18v-70.2l15.88-28.45Z"/>
                <path class="st30" d="M241.12,97.36l-2.93,5.25c.38,12.11,1.15,42.43.25,61.23-.82,17-8.7,26.09-13.2,29.93v2.25s15.15-8.25,16.3-32.18c1.15-23.92-.42-66.48-.42-66.48Z"/>
              </g>
            </g>
            <g>
              <g>
                <path class="st29" d="M50.24,93.71c-.31,12.44,0,85.92,0,85.92,0,33.38,18.71,64.35,88.44,64.06,69.01-.28,85.35-30.67,85.35-64.06v-85.92H50.24Z"/>
                <path d="M41.19,93.71c-.36,14.6-.15,29.23-.12,43.83.02,13.75.06,27.5.12,41.25.06,14.32,2.92,28.93,11.16,40.91,5.36,7.77,12.31,14.12,20.42,18.94,9.33,5.55,19.94,9,30.56,11.05,14.28,2.76,28.96,3.45,43.47,2.87,12.93-.52,26.1-2.13,38.46-6.11,9.93-3.21,19.15-7.96,27.06-14.79,6.1-5.26,11.12-12.06,14.36-19.44,3.55-8.1,5.41-16.41,6.13-25.21.31-3.86.28-7.73.28-11.6v-81.69c0-4.93-4.12-9.05-9.05-9.05H50.24c-4.93,0-9.05,4.12-9.05,9.05s4.12,9.05,9.05,9.05h173.8c-3.02-3.01-6.03-6.03-9.05-9.05v77.12c0,6.79.16,13.59-.73,20.34.11-.8.21-1.6.32-2.4-.73,5.45-2.06,10.81-4.19,15.89.31-.72.61-1.44.91-2.16-1.68,3.94-3.82,7.67-6.44,11.07.47-.61.95-1.22,1.41-1.83-2.6,3.37-5.63,6.35-8.99,8.96.61-.48,1.22-.95,1.84-1.42-4.32,3.34-9.1,6-14.12,8.13.72-.31,1.44-.61,2.16-.91-8.57,3.61-17.7,5.69-26.89,6.95.8-.11,1.6-.22,2.4-.32-16.25,2.16-33.05,2.18-49.3.04.8.1,1.6.22,2.41.32-9.36-1.26-18.66-3.38-27.39-7.04.72.31,1.44.61,2.16.91-5.26-2.22-10.26-4.99-14.79-8.47.61.47,1.22.94,1.83,1.41-3.52-2.74-6.71-5.87-9.46-9.39.47.61.94,1.22,1.41,1.83-2.69-3.5-4.91-7.31-6.63-11.37.3.72.61,1.44.91,2.16-2.12-5.02-3.46-10.32-4.2-15.71.11.79.21,1.6.32,2.41-.6-4.53-.67-9.07-.69-13.62-.02-6.28-.04-12.56-.06-18.84-.05-17.53-.11-35.06-.03-52.59.01-3.83.02-7.65.12-11.47.12-4.93-4.21-9.05-9.05-9.05s-8.92,4.12-9.05,9.05Z"/>
              </g>
              <path class="st0" d="M50.24,93.71c-.31,12.44,0,85.92,0,85.92,0,33.38,18.71,64.35,88.44,64.06,69.01-.28,85.35-30.67,85.35-64.06v-85.92H50.24Z"/>
            </g>
          </g>
          <path class="st31" d="M42.01,198.99c-.47-.06-.26-.04,0,0h0Z"/>
          <path class="st34" d="M135.9,169.4c33.94,0,64.87-1.33,88.18-3.53v-18.04c-22.97,2.26-54,3.65-88.14,3.65s-63.05-1.29-85.76-3.42c.02,6.73.04,12.98.06,18.04,22.99,2.06,52.93,3.3,85.67,3.3Z"/>
        </g>
        <g>
          <g>
            <g>
              <g>
                <g>
                  <path class="st5" d="M74.54,190.88c0,8.59,6.96,15.55,15.55,15.55s15.55-6.96,15.55-15.55-6.97-15.55-15.55-15.55-15.55,6.96-15.55,15.55Z"/>
                  <path d="M73.25,190.88c.06,5.85,3.04,11.16,7.95,14.31,4.97,3.18,11.38,3.26,16.59.67,5.19-2.57,8.49-7.87,9.07-13.54.61-5.84-2.21-11.46-6.77-14.98-5.05-3.89-12.1-4.22-17.71-1.43-5.62,2.78-9.06,8.78-9.13,14.97-.02,1.67,2.56,1.67,2.59,0,.06-5.85,3.62-11.16,9.1-13.3,5.55-2.17,11.83-.51,15.81,3.83,4,4.35,4.64,11,1.93,16.18-2.76,5.26-8.55,8.05-14.38,7.45-7.11-.73-12.39-7.19-12.47-14.16-.02-1.66-2.61-1.67-2.59,0Z"/>
                </g>
                <path class="st1" d="M80.05,196.59c0,1.39,1.13,2.52,2.52,2.52s2.52-1.13,2.52-2.52-1.13-2.52-2.52-2.52-2.52,1.12-2.52,2.52Z"/>
                <path class="st1" d="M88.59,188.8c0,3.6,2.91,6.5,6.5,6.5s6.5-2.9,6.5-6.5-2.91-6.5-6.5-6.5-6.5,2.91-6.5,6.5Z"/>
              </g>
              <path class="st25" d="M92.06,213.48c.75,2.06-2.48,5.12-7.21,6.83-4.73,1.71-9.17,1.43-9.92-.63-.74-2.06,2.48-5.12,7.21-6.84,4.73-1.71,9.17-1.43,9.92.63Z"/>
            </g>
            <g>
              <g>
                <g>
                  <path class="st5" d="M168.49,190.88c0,8.59,6.96,15.55,15.55,15.55s15.55-6.96,15.55-15.55-6.96-15.55-15.55-15.55-15.55,6.96-15.55,15.55Z"/>
                  <path d="M167.2,190.88c.07,5.85,3.04,11.16,7.95,14.31,4.97,3.18,11.38,3.26,16.59.67,5.19-2.57,8.49-7.87,9.07-13.54.6-5.84-2.21-11.46-6.78-14.98-5.05-3.89-12.09-4.22-17.71-1.43-5.62,2.78-9.06,8.78-9.13,14.97-.02,1.67,2.57,1.67,2.58,0,.07-5.85,3.63-11.16,9.1-13.3,5.56-2.17,11.83-.51,15.81,3.83,4,4.35,4.64,11,1.93,16.18-2.76,5.26-8.56,8.05-14.37,7.45-7.12-.73-12.39-7.19-12.47-14.16-.02-1.66-2.6-1.67-2.58,0Z"/>
                </g>
                <path class="st1" d="M174.01,196.59c0,1.39,1.12,2.52,2.52,2.52s2.52-1.13,2.52-2.52-1.13-2.52-2.52-2.52-2.52,1.12-2.52,2.52Z"/>
                <path class="st1" d="M182.54,188.8c0,3.6,2.91,6.5,6.51,6.5s6.5-2.9,6.5-6.5-2.91-6.5-6.5-6.5-6.51,2.91-6.51,6.5Z"/>
              </g>
              <path class="st25" d="M182.07,213.48c-.75,2.06,2.48,5.12,7.21,6.83,4.73,1.71,9.17,1.43,9.92-.63.75-2.06-2.48-5.12-7.21-6.84-4.73-1.71-9.17-1.43-9.92.63Z"/>
            </g>
          </g>
          <path d="M122.01,220.59c.1,1.99.87,4.04,2.02,5.65,2.88,4.02,7.61,5.47,12.39,5.58,6.9.15,14.87-3.34,15.71-10.98.16-1.54-1.43-2.84-2.85-2.84-1.68,0-2.68,1.3-2.84,2.84.16-1.51-.04-.01-.19.43-.05.15-.1.31-.16.46-.08.21.3-.64-.06.09-.12.24-.25.46-.39.69-.1.17-.7.96-.18.29-.38.48-.81.91-1.27,1.3-.24.2-.23.19.04-.03-.19.14-.38.27-.58.39-.35.23-.73.43-1.11.62-.3.13-.32.15-.07.04-.27.11-.54.2-.82.29-.49.17-1,.29-1.51.4-1.09.25-2.12.29-3.32.31-1.04.01-2.03-.05-2.93-.21-.51-.1-1.02-.23-1.52-.38-.19-.06-.38-.13-.55-.18-.85-.29.45.22-.33-.13-.39-.17-.75-.38-1.1-.61-.14-.08-.27-.17-.4-.25-.63-.43.43.36-.13-.1-.27-.22-.52-.47-.76-.73-.09-.09-.18-.2-.26-.3-.44-.51.36.51-.02-.02-.3-.42-.55-.87-.77-1.32-.14-.3.23.62-.04-.14-.07-.2-.13-.4-.19-.6-.08-.31-.14-.62-.19-.93.18,1.18.07.63.06.36-.17-3.65-5.86-3.67-5.69,0h0Z"/>
        </g>
      </g>
      <g>
        <g>
          <g>
            <path class="st29" d="M245.13,132.32c.58-4.27.91-8.63.91-13.05,0-47.85-34.7-88.08-81.81-99.85-.02-3.58-.34-5.97-1.04-6.7-5.38-5.61-52.47-4.26-57.41.89-.64.67-.9,2.95-.88,6.44C59.04,32.57,25.52,72.25,25.52,119.28c0,4.58.35,9.09.97,13.52-11.07,1.97-17.42,4.25-17.42,6.7,0,7.34,57.36,13.31,128.11,13.31s128.12-5.96,128.12-13.31c0-2.64-7.4-5.1-20.17-7.17Z"/>
            <path d="M254.18,132.32c3.49-26.08-3.51-53.24-18.65-74.69-15.01-21.24-36.69-36.76-61.38-44.78-2.47-.81-4.98-1.51-7.5-2.15,2.22,2.91,4.43,5.82,6.64,8.72-.02-2.31-.27-4.52-.59-6.82-.33-2.42-1.56-4.45-3.1-6.28-1.52-1.79-4.07-2.78-6.16-3.59-3.57-1.38-7.71-1.7-11.48-2.08-8.97-.94-18.13-.79-27.12-.12-5.65.41-11.41.96-16.91,2.37-2.11.54-4.36,1.26-6.17,2.46-2.57,1.7-4.04,3.67-5.09,6.59-.87,2.44-.81,5.51-.81,8.1,2.22-2.91,4.43-5.82,6.65-8.73-24.33,6.68-46.88,20.93-62.42,40.92-8.05,10.36-14.31,21.71-18.44,34.2-4.14,12.57-5.85,26.2-4.94,39.39.21,3.13.63,6.24,1.06,9.35,2.11-3.7,4.21-7.42,6.32-11.12-3.52.63-7.03,1.34-10.46,2.36-2.69.81-5.6,1.75-7.89,3.39-1.81,1.31-3.11,2.37-4.27,4.33-.85,1.46-1.66,3.83-1.43,5.55.33,2.48.25,2.82,1.41,5.09.47.92,1.17,1.72,1.89,2.46,2.29,2.37,5.56,3.67,8.59,4.74,2.94,1.03,6,1.72,9.05,2.33,10.32,2.07,20.86,3.2,31.33,4.17,13.63,1.26,27.3,2.01,40.97,2.54,32.22,1.22,64.54,1.12,96.75-.39,12.99-.61,25.97-1.46,38.91-2.83,9.55-1.02,19.2-2.14,28.55-4.4,3.15-.76,6.13-1.79,9.1-3.12,2.48-1.11,5.19-3.1,6.37-5.61,1.71-3.61,1.71-6.85-.04-10.49-1.17-2.44-3.8-4.34-6.18-5.45-6.05-2.85-12.66-4.09-19.21-5.16-2.5-.41-4.7-.42-6.97.91-2.03,1.18-3.54,3.15-4.16,5.4-.64,2.34-.32,4.88.91,6.97,1.08,1.84,3.21,3.79,5.41,4.16,5.49.9,11.2,1.82,16.38,3.95-.72-.31-1.44-.61-2.16-.91.95.4,1.88.85,2.7,1.48-.61-.47-1.22-.94-1.83-1.41.27.21.5.44.71.71-.47-.61-.94-1.22-1.42-1.82.09.13.17.26.24.4-.3-.72-.61-1.44-.91-2.16.05.14.1.27.12.41-.11-.8-.22-1.61-.32-2.41.01.14.01.28,0,.42.11-.8.21-1.61.33-2.4-.03.13-.06.24-.1.37.3-.72.61-1.44.91-2.16-.08.17-.17.32-.28.47.47-.62.94-1.22,1.42-1.83-.22.28-.47.51-.74.72.61-.47,1.22-.94,1.83-1.41-.78.6-1.68,1.04-2.59,1.42.72-.3,1.44-.61,2.16-.91-2.91,1.21-6.01,1.95-9.09,2.6-4.57.99-9.22,1.7-13.86,2.32.8-.1,1.6-.21,2.41-.32-26.73,3.58-53.87,4.55-80.81,5.01-31.29.53-62.66.04-93.88-2.22-9.42-.68-18.83-1.54-28.19-2.79.81.1,1.61.22,2.4.32-4.64-.62-9.28-1.35-13.86-2.32-3.07-.65-6.18-1.39-9.08-2.6.72.3,1.44.61,2.16.91-.91-.38-1.8-.81-2.59-1.42.61.47,1.22.94,1.83,1.41-.27-.21-.53-.45-.74-.72.47.61.94,1.21,1.41,1.83-.11-.15-.2-.31-.28-.47.31.72.61,1.44.92,2.16-.05-.13-.08-.24-.1-.37.11.8.21,1.6.32,2.4-.02-.15-.01-.29,0-.43-.1.8-.21,1.6-.32,2.4.02-.12.05-.22.09-.33-.3.72-.61,1.44-.91,2.16.08-.2.19-.38.32-.55-.47.62-.94,1.23-1.42,1.84.2-.24.43-.45.67-.65-.61.47-1.22.95-1.83,1.41.81-.62,1.73-1.07,2.69-1.47-.72.3-1.44.61-2.16.91,4.33-1.78,9.05-2.66,13.64-3.48,2.21-.39,4.31-2.29,5.4-4.16,1.35-2.3,1.27-4.43.91-6.97-.01-.16-.04-.33-.06-.5.11.81.22,1.61.32,2.41-1.17-8.68-1.19-17.43-.04-26.11-.1.8-.21,1.6-.32,2.41,1.17-8.57,3.47-16.94,6.82-24.92-.31.72-.61,1.44-.92,2.16,3.43-8.08,7.91-15.67,13.27-22.62-.46.61-.94,1.22-1.41,1.83,5.58-7.17,12.05-13.59,19.23-19.15-.61.47-1.22.94-1.84,1.41,7.64-5.88,16.01-10.74,24.89-14.49-.72.3-1.44.61-2.16.91,4.66-1.96,9.44-3.61,14.31-4.94,3.88-1.07,6.66-4.71,6.65-8.72,0-1.48.02-2.97.21-4.43-.11.8-.21,1.61-.32,2.4.07-.5.17-.98.35-1.46-.31.72-.61,1.44-.92,2.16.07-.16.14-.31.24-.45-.46.61-.94,1.22-1.41,1.83.12-.15.24-.27.39-.39-.61.47-1.22.95-1.83,1.41.46-.35.98-.6,1.51-.83-.72.3-1.44.61-2.16.91,3.02-1.25,6.4-1.72,9.62-2.15-.8.1-1.6.21-2.41.32,6.23-.83,12.52-1.17,18.8-1.25,6.06-.08,12.16.06,18.18.85-.8-.11-1.6-.22-2.4-.33,2.42.33,4.92.71,7.19,1.66-.72-.31-1.44-.61-2.16-.91.51.22,1.02.47,1.46.81-.61-.47-1.22-.94-1.83-1.41.15.13.3.26.42.41-.47-.61-.94-1.22-1.41-1.83.1.14.18.29.25.45-.31-.72-.61-1.44-.91-2.16.26.65.38,1.34.48,2.04-.11-.8-.22-1.6-.33-2.4.16,1.36.21,2.73.22,4.1.04,3.97,2.72,7.74,6.64,8.73,5.73,1.43,11.34,3.31,16.79,5.59-.72-.3-1.44-.61-2.16-.91,8.84,3.75,17.19,8.6,24.8,14.45-.61-.47-1.22-.95-1.83-1.42,7.25,5.62,13.78,12.1,19.39,19.35-.47-.61-.94-1.21-1.41-1.83,5.33,6.94,9.77,14.51,13.18,22.57-.3-.72-.61-1.44-.91-2.17,3.33,7.96,5.61,16.3,6.78,24.84-.11-.8-.21-1.6-.32-2.41,1.15,8.68,1.11,17.42-.04,26.09-.3,2.22,1.14,4.89,2.65,6.4,1.69,1.69,4.01,2.65,6.39,2.65s4.71-.96,6.39-2.65c1.87-1.87,2.32-3.89,2.65-6.4Z"/>
          </g>
          <path class="st36" d="M245.13,132.32c.58-4.27.91-8.63.91-13.05,0-47.85-34.7-88.08-81.81-99.85-.02-3.58-.34-5.97-1.04-6.7-5.38-5.61-52.47-4.26-57.41.89-.64.67-.9,2.95-.88,6.44C59.04,32.57,25.52,72.25,25.52,119.28c0,4.58.35,9.09.97,13.52-11.07,1.97-17.42,4.25-17.42,6.7,0,7.34,57.36,13.31,128.11,13.31s128.12-5.96,128.12-13.31c0-2.64-7.4-5.1-20.17-7.17Z"/>
        </g>
        <path d="M23.75,133.21c4.71,1.41,9.72,2.07,14.57,2.79,17.39,2.56,34.98,3.77,52.53,4.54,29.61,1.31,59.33,1.36,88.94.31,18.27-.66,36.57-1.77,54.67-4.39,5.34-.77,10.91-1.51,16.06-3.21.03-.01.08-.03.11-.04,2.32-.82,3.84-3.06,3.16-5.56-.62-2.25-3.24-3.99-5.57-3.16-4.17,1.48-8.77,2.09-13.11,2.79-1.3.2-2.59.4-3.88.58-.33.05-.68.09-1.02.14-.17.02-.35.05-.52.07-.77.11,1.27-.17.5-.06-.81.1-1.62.21-2.42.31-3.63.45-7.27.84-10.92,1.18-10.07.96-20.19,1.58-30.29,2.03-29.57,1.3-59.26,1.3-88.83.24-11.09-.4-22.17-1-33.23-1.9-4.13-.33-8.26-.72-12.38-1.17-1.74-.19-3.48-.39-5.22-.6-.76-.09-1.52-.19-2.28-.29-.36-.05-.72-.1-1.09-.14-.36-.05-1.14-.16.5.06-.23-.03-.47-.06-.7-.1-5.7-.78-11.55-1.55-17.09-3.13-.03,0-.06-.02-.09-.02-2.36-.7-4.92.83-5.56,3.16-.66,2.41.8,4.85,3.16,5.56h0Z"/>
        <g>
          <path class="st36" d="M26.07,124.49s.06.02.09.02c5.55,1.58,11.4,2.35,17.09,3.13.1.02.2.04.3.04.33.04.66.09.98.13.76.1,1.52.2,2.29.29,1.73.21,3.47.41,5.21.6,4.12.45,8.25.83,12.38,1.17,11.05.91,22.14,1.5,33.23,1.9,29.57,1.06,59.26,1.06,88.83-.24,10.11-.45,20.22-1.07,30.3-2.03,3.64-.35,7.28-.73,10.91-1.18.75-.09,1.5-.19,2.25-.29.07,0,.13-.02.2-.03.33-.05.68-.09,1.01-.14,1.3-.18,2.6-.38,3.89-.58,3.53-.57,7.24-1.08,10.75-2.05.12-1.97.19-3.96.19-5.95,0-47.85-34.7-88.08-81.81-99.85-.02-3.58-.34-5.97-1.04-6.7-5.38-5.61-52.47-4.26-57.4.89-.64.67-.9,2.95-.88,6.44C58.96,32.57,25.44,72.25,25.44,119.28c0,1.71.05,3.41.14,5.1.16.03.33.06.48.12Z"/>
          <path class="st24" d="M235.44,120.88c-1.3.21-2.6.4-3.9.58-.34.05-.68.1-1.02.14-.06.01-.13.02-.2.03-.76.1-1.5.2-2.26.29-3.65.45-7.3.84-10.96,1.19-10.12.96-20.27,1.59-30.43,2.04-29.7,1.32-59.5,1.31-89.2.24-11.14-.4-22.27-1-33.36-1.91-4.15-.34-8.29-.73-12.44-1.18-1.74-.19-3.49-.38-5.23-.6-.77-.09-1.53-.19-2.29-.29-.33-.04-.66-.09-.99-.13-.1-.01-.2-.02-.29-.04-5.73-.79-11.59-1.56-17.17-3.15-.03-.01-.05-.01-.08-.02-.06,0-.11-.03-.16-.04,0,.42,0,.82,0,1.24,0,1.71.05,3.41.14,5.1.16.03.33.06.48.12.03,0,.06.02.09.02,5.55,1.58,11.4,2.35,17.09,3.13.1.02.2.04.3.04.33.04.66.09.98.13.76.1,1.52.2,2.29.29,1.73.21,3.47.41,5.21.6,4.12.45,8.25.83,12.38,1.17,11.05.91,22.14,1.5,33.23,1.9,29.57,1.06,59.26,1.06,88.83-.24,10.11-.45,20.22-1.07,30.3-2.03,3.64-.35,7.28-.73,10.91-1.18.75-.09,1.5-.19,2.25-.29.07,0,.13-.02.2-.03.33-.05.68-.09,1.01-.14,1.3-.18,2.6-.38,3.89-.58,3.53-.57,7.24-1.08,10.75-2.05.12-1.97.19-3.96.19-5.95v-.38c-3.45.92-7.06,1.43-10.52,1.98Z"/>
          <path class="st24" d="M164.21,132.29v-8.79c-19.8.47-39.62.38-59.41-.2v8.76c12.07.36,24.16.54,36.25.53,7.72-.02,15.45-.12,23.16-.3Z"/>
          <path class="st24" d="M25.74,124.39c2.63-39.48,30.05-90.18,87.34-100.42l.03-5.86s12.37-2.59,21.47-2.59,21.37,2.59,21.37,2.59l-.04,5.81c57.97,10.03,87.51,60.52,89.96,101.05.12-1.89.18-3.79.18-5.7,0-47.85-34.7-88.08-81.81-99.85-.02-3.58-.33-5.97-1.04-6.7-5.39-5.61-52.48-4.26-57.4.89-.64.67-.91,2.95-.88,6.44C59.05,32.57,25.52,72.25,25.52,119.28c0,1.71.05,3.41.14,5.1.03.01.05.01.08.01Z"/>
          <path class="st36" d="M272.82,127.64c-.46-.06-.25-.04,0,0h0Z"/>
        </g>
        <path class="st36" d="M250.45,133.23c-5.14,1.69-10.68,2.43-16,3.19-18.1,2.63-36.4,3.73-54.67,4.39-29.61,1.06-59.33,1-88.94-.31-17.55-.78-35.14-1.98-52.53-4.55-4.78-.7-9.73-1.35-14.37-2.72-9.48,1.86-14.87,3.97-14.87,6.22,0,7.35,57.36,13.31,128.11,13.31s128.12-5.96,128.12-13.31c0-2.24-5.37-4.36-14.85-6.22Z"/>
        <path class="st24" d="M19.98,136.34c4.81,1.42,9.93,2.09,14.87,2.82,18,2.65,36.2,3.9,54.36,4.7,30.63,1.35,61.38,1.41,92.02.32,18.9-.68,37.85-1.82,56.58-4.54,5.5-.8,11.24-1.56,16.55-3.3,4.62.9,8.29,1.87,10.89,2.88-.37-2.15-5.69-4.19-14.83-5.98-5.14,1.69-10.68,2.43-16,3.19-18.1,2.63-36.41,3.73-54.67,4.39-29.62,1.06-59.33,1-88.93-.31-17.56-.78-35.14-1.98-52.53-4.55-4.77-.7-9.72-1.35-14.37-2.72-9.15,1.79-14.48,3.82-14.85,5.99,2.6-1.02,6.28-1.98,10.91-2.88Z"/>
        <path class="st32" d="M264.44,137.91c-7.41,6.62-61.56,11.75-127.25,11.75s-119.84-5.13-127.25-11.75c-.57.5-.87,1.03-.87,1.55,0,7.35,57.36,13.31,128.11,13.31s128.12-5.96,128.12-13.31c0-.52-.29-1.04-.86-1.55Z"/>
        <rect x="96.69" y="13.45" width="8.14" height="122.63"/>
        <rect x="164.24" y="13.45" width="8.14" height="122.63"/>
        <path class="st24" d="M113.12,16.84h.01c-.02-2.71.12-4.75.46-5.96-3.95.72-6.83,1.63-7.86,2.7-.64.68-.9,2.97-.88,6.44h0v111.95c2.76.08,5.51.15,8.27.21V16.84Z"/>
        <path class="st24" d="M155.97,16.05h0c.01-2.71-.13-4.75-.46-5.96,3.95.71,6.82,1.63,7.85,2.71.64.67.9,2.96.88,6.44h0v113.04c-2.75.08-5.51.14-8.27.2V16.05Z"/>
        <g>
          <path class="st11" d="M209.06,58c7.99,6.76,11.84,15.35,8.6,19.17-3.24,3.83-12.35,1.47-20.34-5.29-7.99-6.76-11.85-15.35-8.61-19.17,3.24-3.83,12.35-1.47,20.34,5.29Z"/>
          <path class="st11" d="M224.44,84.2c-.85,1.74-2.96,2.46-4.69,1.61-1.74-.85-2.46-2.95-1.61-4.69.85-1.74,2.95-2.46,4.69-1.61,1.74.85,2.47,2.95,1.61,4.69Z"/>
        </g>
      </g>
      <g>
        <g>
          <g>
            <g>
              <path class="st7" d="M179.64,114.91c0,24.23-19.65,43.88-43.88,43.88s-43.89-19.65-43.89-43.88,19.65-43.89,43.89-43.89,43.88,19.65,43.88,43.89Z"/>
              <path d="M170.59,114.91c0,1.93-.13,3.84-.38,5.75.11-.8.22-1.61.32-2.4-.52,3.93-1.57,7.75-3.1,11.41.3-.72.6-1.44.91-2.16-1.48,3.45-3.39,6.69-5.68,9.68.47-.61.94-1.22,1.41-1.83-2.3,2.94-4.94,5.58-7.89,7.88.61-.47,1.22-.95,1.83-1.41-2.98,2.29-6.22,4.19-9.68,5.68.72-.3,1.44-.61,2.16-.91-3.66,1.54-7.48,2.58-11.41,3.11.8-.1,1.6-.21,2.41-.32-3.83.48-7.68.48-11.51,0,.8.11,1.61.21,2.4.32-3.92-.53-7.75-1.57-11.41-3.11.72.3,1.44.61,2.17.91-3.46-1.48-6.7-3.38-9.68-5.68.61.47,1.23.94,1.84,1.41-2.95-2.3-5.59-4.94-7.88-7.88.47.61.93,1.22,1.41,1.83-2.29-2.98-4.19-6.22-5.68-9.68.31.72.61,1.44.92,2.16-1.54-3.65-2.58-7.48-3.11-11.41.11.8.22,1.6.32,2.4-.48-3.82-.48-7.68,0-11.5-.11.8-.21,1.61-.32,2.4.53-3.92,1.58-7.75,3.11-11.41-.31.73-.61,1.44-.92,2.16,1.49-3.45,3.39-6.7,5.68-9.68-.47.61-.94,1.22-1.41,1.84,2.3-2.95,4.93-5.59,7.88-7.89-.61.47-1.22.95-1.84,1.41,2.99-2.29,6.23-4.2,9.68-5.68-.72.3-1.45.61-2.17.91,3.66-1.54,7.49-2.57,11.41-3.11-.8.11-1.6.22-2.4.32,3.82-.48,7.68-.48,11.51,0-.81-.1-1.61-.21-2.41-.32,3.93.54,7.75,1.58,11.41,3.11-.72-.3-1.44-.61-2.16-.91,3.46,1.48,6.7,3.39,9.68,5.68-.61-.47-1.22-.95-1.83-1.41,2.95,2.3,5.59,4.94,7.89,7.89-.47-.61-.94-1.22-1.41-1.84,2.29,2.98,4.2,6.23,5.68,9.68-.31-.72-.61-1.44-.91-2.16,1.54,3.66,2.58,7.49,3.1,11.41-.1-.8-.21-1.6-.32-2.4.25,1.91.37,3.83.38,5.75.02,4.93,4.1,9.04,9.05,9.04s9.07-4.12,9.05-9.04c-.05-13.73-5.44-26.91-14.91-36.83-9.44-9.88-22.64-15.46-36.2-16.07-13.75-.62-27.17,4.68-37.4,13.73-4.69,4.14-8.66,9.38-11.48,14.95-3.3,6.52-5.11,13.34-5.72,20.6-.56,6.53.32,13.4,2.33,19.63,2.19,6.81,5.68,12.78,10.18,18.28,3.97,4.85,9.09,8.94,14.55,11.97,6.38,3.55,13.14,5.43,20.33,6.34,12.76,1.62,26.63-2.25,36.81-10.07,5.59-4.3,10.32-9.27,14-15.33,3.32-5.44,5.67-11.7,6.67-17.99.49-3.06.84-6.12.85-9.21.02-4.93-4.13-9.05-9.05-9.05s-9.02,4.12-9.05,9.05Z"/>
            </g>
            <path class="st8" d="M179.64,114.91c0,24.23-19.65,43.88-43.88,43.88s-43.89-19.65-43.89-43.88,19.65-43.89,43.89-43.89,43.88,19.65,43.88,43.89Z"/>
            <path class="st9" d="M97.69,114.91c0-23.26,18.1-42.29,40.98-43.79-.96-.06-1.93-.11-2.9-.11-24.24,0-43.89,19.65-43.89,43.89s19.65,43.88,43.89,43.88c.98,0,1.94-.04,2.9-.1-22.88-1.49-40.98-20.52-40.98-43.78Z"/>
            <path class="st6" d="M173.83,114.91c0-23.26-18.1-42.29-40.98-43.79.96-.06,1.93-.11,2.92-.11,24.23,0,43.88,19.65,43.88,43.89s-19.65,43.88-43.88,43.88c-.98,0-1.95-.04-2.92-.1,22.88-1.49,40.98-20.52,40.98-43.78Z"/>
          </g>
          <g>
            <g>
              <path class="st7" d="M160.59,114.91c0,13.71-11.12,24.83-24.83,24.83s-24.84-11.12-24.84-24.83,11.12-24.84,24.84-24.84,24.83,11.12,24.83,24.84Z"/>
              <path d="M151.54,114.91c0,1.08-.08,2.15-.21,3.22.11-.8.21-1.6.32-2.4-.3,2.2-.87,4.31-1.71,6.36.31-.72.61-1.44.91-2.16-.85,1.99-1.93,3.85-3.24,5.57.47-.62.94-1.22,1.42-1.84-1.32,1.7-2.83,3.2-4.53,4.53.61-.47,1.22-.94,1.83-1.41-1.72,1.3-3.58,2.39-5.57,3.24.72-.31,1.44-.61,2.16-.92-2.05.84-4.16,1.41-6.36,1.71.8-.11,1.6-.22,2.4-.33-2.15.27-4.3.27-6.45,0,.8.11,1.6.22,2.4.33-2.19-.3-4.31-.88-6.36-1.71.72.31,1.44.61,2.16.92-1.99-.86-3.84-1.94-5.57-3.24.61.47,1.22.94,1.83,1.41-1.69-1.32-3.2-2.83-4.52-4.53.47.62.94,1.22,1.41,1.84-1.31-1.72-2.39-3.57-3.24-5.57.31.72.61,1.44.91,2.16-.84-2.05-1.41-4.17-1.71-6.36.1.8.21,1.61.32,2.4-.26-2.15-.26-4.29,0-6.45-.11.81-.22,1.6-.32,2.41.3-2.2.87-4.32,1.71-6.37-.31.72-.61,1.44-.91,2.16.85-1.99,1.93-3.84,3.24-5.56-.47.61-.94,1.22-1.41,1.83,1.32-1.69,2.83-3.2,4.52-4.52-.61.47-1.22.94-1.83,1.41,1.72-1.31,3.58-2.4,5.57-3.24-.72.3-1.44.61-2.16.92,2.06-.84,4.17-1.42,6.36-1.71-.8.1-1.6.21-2.4.32,2.15-.26,4.3-.26,6.45,0-.8-.1-1.61-.21-2.4-.32,2.2.29,4.31.87,6.36,1.71-.72-.31-1.44-.61-2.16-.92,1.99.85,3.85,1.93,5.57,3.24-.61-.47-1.22-.94-1.83-1.41,1.69,1.32,3.2,2.83,4.53,4.52-.48-.61-.95-1.22-1.42-1.83,1.31,1.72,2.39,3.57,3.24,5.56-.3-.71-.6-1.44-.91-2.16.84,2.04,1.41,4.17,1.71,6.37-.11-.81-.21-1.61-.32-2.41.13,1.07.2,2.15.21,3.23.03,4.93,4.09,9.04,9.05,9.04s9.08-4.12,9.04-9.04c-.1-15.19-10.44-28.77-25.15-32.74-14.74-3.98-30.79,2.9-38.26,16.13-7.51,13.29-4.9,30.65,6.18,41.15,11.06,10.48,28.52,12.37,41.41,4.12,9.77-6.25,15.73-17.08,15.81-28.66.04-4.93-4.14-9.05-9.04-9.05s-9.01,4.12-9.05,9.05Z"/>
            </g>
            <path class="st6" d="M160.59,114.91c0,13.71-11.12,24.83-24.83,24.83s-24.84-11.12-24.84-24.83,11.12-24.84,24.84-24.84,24.83,11.12,24.83,24.84Z"/>
            <path class="st3" d="M113.51,114.91c0-13.28,10.42-24.12,23.54-24.8-.42-.02-.86-.04-1.29-.04-13.72,0-24.84,11.12-24.84,24.84s11.12,24.83,24.84,24.83c.43,0,.86-.01,1.29-.03-13.11-.68-23.54-11.52-23.54-24.8Z"/>
            <path class="st2" d="M158,114.91c0-13.28-10.43-24.12-23.54-24.8.43-.02.86-.04,1.3-.04,13.71,0,24.83,11.12,24.83,24.84s-11.12,24.83-24.83,24.83c-.44,0-.87-.01-1.3-.03,13.12-.68,23.54-11.52,23.54-24.8Z"/>
          </g>
        </g>
        <path class="st1" d="M143.47,91.32l-30.18,34.12c1.36,2.89,3.24,5.46,5.54,7.62l32.87-37.17c-2.4-2.02-5.18-3.58-8.23-4.57Z"/>
        <path class="st4" d="M113.29,125.45c1.36,2.89,3.24,5.46,5.55,7.61l1.2-1.36c-2.17-2.37-3.89-5.15-5.01-8.21l-1.74,1.96Z"/>
        <path class="st10" d="M150.56,97.18l1.15-1.29c-2.4-2.02-5.18-3.58-8.23-4.57l-.63.71c2.89,1.22,5.51,2.98,7.71,5.15Z"/>
        <path class="st1" d="M127.32,138.19l30.63-34.62c-.71-1.37-1.54-2.67-2.48-3.87l-32.3,36.51c1.31.79,2.7,1.45,4.15,1.97Z"/>
        <path class="st4" d="M124.07,135.22l-.89,1c1.31.79,2.7,1.45,4.15,1.97l.64-.72c-1.37-.63-2.68-1.39-3.9-2.25Z"/>
        <path class="st10" d="M154,101.38c.86,1.31,1.59,2.71,2.19,4.18l1.7-1.93c-.7-1.37-1.53-2.67-2.47-3.88l-1.43,1.62Z"/>
      </g>
    </g>
  </g>
  <g>
    <g>
      <g>
        <g>
          <path class="st28" d="M222.8,269.97l5.16-3.14s2.42,4.39,3.06,8.02c.95,5.44-1.39,10.45-1.39,10.45,0,0-1.78-5.65-3.35-9.08-1.57-3.43-3.48-6.26-3.48-6.26Z"/>
          <path d="M225.74,274.99c1.72-1.05,3.44-2.09,5.16-3.14-2.65-.69-5.3-1.39-7.96-2.08.48.86.89,1.76,1.29,2.64.51,1.15-.53-1.29-.03-.06.19.47.36.95.53,1.44.17.5.31.99.44,1.5.08.3.35,1.98.16.49.13,1.03.11,2.08.05,3.11-.03.28-.05.55-.09.83.13-.88.14-1.02.03-.38-.08.47-.19.94-.3,1.4-.17.72-.39,1.42-.64,2.11-.07.21-.16.42-.25.62.85-2.09.66-1.53.46-1.1,3.54.47,7.09.93,10.63,1.39-1.84-5.8-3.99-11.66-7.42-16.72-1.77-2.63-5.09-3.77-7.96-2.09-2.6,1.52-3.86,5.32-2.08,7.96.58.85,1.1,1.74,1.62,2.63.51.89.99,1.81,1.44,2.74.19.39.37.79.55,1.18.24.55.18.41-.18-.44.09.22.18.45.27.67.95,2.34,1.77,4.75,2.54,7.16.62,1.95,2.05,3.5,4.06,4.06,2.33.65,5.49-.34,6.57-2.67,1.71-3.72,2.63-7.89,2.36-12-.29-4.34-1.95-8.55-4.03-12.34-1.51-2.74-5.3-3.7-7.96-2.09-1.72,1.04-3.43,2.09-5.16,3.14-2.7,1.64-3.71,5.19-2.08,7.96,1.58,2.7,5.25,3.73,7.96,2.08Z"/>
        </g>
        <path class="st18" d="M222.8,269.97l5.16-3.14s2.42,4.39,3.06,8.02c.95,5.44-1.39,10.45-1.39,10.45,0,0-1.78-5.65-3.35-9.08-1.57-3.43-3.48-6.26-3.48-6.26Z"/>
        <path class="st11" d="M229.7,275.09c1.36,4.48.33,8.94-.02,10.2.25-.56,2.26-5.28,1.37-10.4-.63-3.64-3.06-8.03-3.06-8.03l-1.92,1.17c.83,1.21,2.79,4.29,3.63,7.06Z"/>
      </g>
      <g>
        <g>
          <path class="st28" d="M216.62,259.36l5.27-2.95s-2.62-4.27-5.48-6.62c-4.27-3.51-9.78-3.94-9.78-3.94,0,0,4.04,4.34,6.26,7.39,2.21,3.05,3.73,6.11,3.73,6.11Z"/>
          <path d="M219.55,264.38c1.75-.99,3.51-1.96,5.27-2.94,2.71-1.52,3.72-5.3,2.08-7.96-2.33-3.77-5.24-7.24-8.94-9.71-3.29-2.19-7.41-3.39-11.33-3.72-1.99-.16-4.05,1.22-5.02,2.88-1.36,2.31-.88,5.12.91,7.04,1.64,1.77,3.23,3.58,4.75,5.45.23.28.45.57.68.85-1.16-1.47.02.06.21.33.64.89,1.22,1.82,1.8,2.77.57.95,1.13,1.93,1.63,2.93,1.41,2.84,5.36,3.61,7.96,2.08,2.86-1.68,3.5-5.12,2.09-7.96-2.73-5.47-6.75-10.22-10.89-14.67-1.38,3.31-2.74,6.62-4.12,9.93,1.18.09-1.52-.23-.7-.1.62.1,1.25.24,1.86.39.86.22,1.71.5,2.53.81-1.65-.63.02.04.36.21.49.24.96.53,1.42.81.24.16.47.32.7.49-.59-.46-.66-.51-.21-.14.39.33.75.7,1.11,1.06.36.37.7.76,1.04,1.16.24.27,1.33,1.69.25.27.67.87,1.3,1.77,1.88,2.7.7-2.65,1.39-5.3,2.09-7.96-1.75.99-3.52,1.97-5.27,2.96-2.76,1.54-3.66,5.26-2.09,7.95,1.62,2.77,5.19,3.63,7.96,2.08Z"/>
        </g>
        <path class="st18" d="M216.62,259.36l5.27-2.95s-2.62-4.27-5.48-6.62c-4.27-3.51-9.78-3.94-9.78-3.94,0,0,4.04,4.34,6.26,7.39,2.21,3.05,3.73,6.11,3.73,6.11Z"/>
        <path class="st11" d="M215.55,250.83c-3.24-3.38-7.62-4.68-8.88-5,.6.05,5.7.63,9.72,3.92,2.85,2.35,5.48,6.62,5.48,6.62l-1.96,1.1c-.65-1.32-2.37-4.55-4.36-6.64Z"/>
      </g>
    </g>
    <g>
      <g>
        <g>
          <path class="st28" d="M183.46,288.08c-.8.47-1.83.2-2.3-.61l-.28-.48c-.47-.8-.2-1.84.61-2.3l40.52-23.65c.8-.46,1.83-.2,2.3.61l.28.49c.47.8.2,1.83-.6,2.3l-40.53,23.64Z"/>
          <path d="M180.53,283.06c2.17-.99,4.46-.54,5.61,1.41-.09-.14-.16-.27-.25-.41,1.18,2,.44,4.54-1.45,5.63.14-.08.28-.17.43-.25.71-.41,1.42-.83,2.13-1.24,2.71-1.58,5.42-3.16,8.12-4.75,7.08-4.12,14.16-8.26,21.24-12.38,2.38-1.38,4.75-2.78,7.14-4.17.46-.27.92-.54,1.39-.81.01-.02.04-.02.05-.04-2.05,1.2-4.59.35-5.61-1.4.08.13.16.27.24.41-1.17-2.01-.44-4.53,1.45-5.64-.06.04-.11.06-.17.1-4.82,2.81-9.64,5.62-14.46,8.43-8.62,5.03-17.25,10.07-25.87,15.1-2.73,1.6-3.69,5.22-2.09,7.95,1.6,2.74,5.22,3.69,7.96,2.09,11.12-6.49,22.25-12.98,33.38-19.48,2.1-1.23,4.21-2.46,6.32-3.69.79-.46,1.66-.91,2.27-1.58,2.49-2.71,2.74-5.87,1.25-9.15-1.11-2.42-3.97-4.28-6.66-4.2-2.68.08-4.63,1.44-6.83,2.73-2.78,1.63-5.58,3.26-8.36,4.88-7.06,4.12-14.12,8.24-21.18,12.36-2.28,1.33-4.56,2.66-6.84,3.99-.39.23-.79.46-1.18.69-5,2.92-4.7,10.42.11,13.34,2.51,1.52,5.15,1.28,7.73.1,2.88-1.31,3.56-5.43,2.09-7.96-1.73-2.94-5.07-3.4-7.96-2.09Z"/>
        </g>
        <path class="st27" d="M183.46,288.08c-.8.47-1.83.2-2.3-.61l-.28-.48c-.47-.8-.2-1.84.61-2.3l40.52-23.65c.8-.46,1.83-.2,2.3.61l.28.49c.47.8.2,1.83-.6,2.3l-40.53,23.64Z"/>
        <path class="st16" d="M223.99,264.44c.8-.47,1.07-1.5.6-2.3l-.28-.49s-.06-.1-.1-.15c.34.78.05,1.7-.69,2.14l-40.52,23.65c-.76.44-1.71.22-2.21-.46.03.06.05.11.08.16l.28.48c.47.8,1.5,1.08,2.3.61l40.53-23.64Z"/>
        <path class="st33" d="M222.02,261.05c.8-.47,1.83-.2,2.29.61l.29.48c.03.05.06.11.09.16-.51-.69-1.45-.89-2.21-.46l-40.53,23.62c-.76.44-1.04,1.37-.69,2.15-.04-.05-.08-.1-.1-.16l-.28-.48c-.47-.8-.2-1.84.61-2.31l40.54-23.62Z"/>
      </g>
      <g>
        <g>
          <path class="st28" d="M220.16,267.72l5.83-3.41c1.17-.68,1.56-2.18.88-3.35l-.41-.7c-.68-1.17-2.18-1.56-3.35-.88l-5.84,3.41,2.89,4.94Z"/>
          <path d="M223.09,272.74c1.64-.96,3.28-1.92,4.93-2.88,1.46-.85,2.77-1.81,3.72-3.26,1.75-2.69,1.6-6.12.01-8.83-1.66-2.82-4.14-4.34-7.41-4.55-1.78-.12-3.44.7-4.93,1.56-1.69.99-3.39,1.98-5.08,2.97-2.73,1.59-3.68,5.22-2.08,7.95.96,1.65,1.92,3.3,2.88,4.94,1.59,2.74,5.22,3.69,7.96,2.09,2.74-1.6,3.68-5.22,2.09-7.96-.97-1.65-1.92-3.29-2.89-4.94-.7,2.65-1.39,5.3-2.08,7.96,1.25-.73,2.52-1.47,3.78-2.21.63-.37,1.26-.73,1.89-1.1.05-.03.1-.06.15-.09-.55.32-1.01.42-1.69.46-.94.06-1.73-.43-2.4-1.01-.53-.45-.66-.93-.36-.4.09.15.18.3.27.45-.48-.84-.51-1.7-.33-2.62.15-.75,1.19-1.78,1.45-1.93-.59.35-1.17.69-1.75,1.03-1.33.78-2.66,1.55-3.99,2.33-2.73,1.6-3.68,5.22-2.08,7.96,1.6,2.74,5.22,3.69,7.96,2.09Z"/>
        </g>
        <path class="st18" d="M220.16,267.72l5.83-3.41c1.17-.68,1.56-2.18.88-3.35l-.41-.7c-.68-1.17-2.18-1.56-3.35-.88l-5.84,3.41,2.89,4.94Z"/>
        <path class="st11" d="M223.53,260.08c1.16-.68,2.67-.29,3.35.88,0,0,0,0,0,0l-.41-.7c-.68-1.17-2.18-1.56-3.35-.88l-5.84,3.41.42.71,5.84-3.41Z"/>
        <path class="st15" d="M225.58,263.6c1.16-.67,1.56-2.18.88-3.35,0,0,0,0,0,0l.42.71c.68,1.17.28,2.67-.89,3.35l-5.84,3.4-.41-.71,5.84-3.41Z"/>
      </g>
    </g>
  </g>
  <g>
    <g>
      <g>
        <path class="st0" d="M52.92,254.8c0,4.88,3.96,8.85,8.85,8.85s8.86-3.97,8.86-8.85-3.97-8.86-8.86-8.86-8.85,3.96-8.85,8.86Z"/>
        <path d="M47.1,254.8c.16,8.09,6.58,14.5,14.67,14.66,8.09.17,14.52-6.8,14.67-14.66.16-8.09-6.81-14.52-14.67-14.67-8.09-.16-14.51,6.82-14.67,14.67-.07,3.17,2.69,5.81,5.82,5.81s5.75-2.64,5.81-5.81c0-.24.01-.48.03-.71-.16.96-.18,1.14-.07.51.08-.44.22-.88.37-1.31-.57,1.66-.1.29.14-.12.12-.2.24-.38.36-.56-.92,1.36-.35.47-.06.15.29-.32,1.52-1.24.08-.17.45-.33.94-.6,1.44-.84-1.61.78-.24.16.21.04.22-.05.45-.09.67-.13-1.72.32-.59.11-.14.1.24,0,.48.01.71.03-.96-.15-1.14-.17-.51-.06.45.08.88.22,1.31.37-1.67-.58-.29-.1.12.14.19.12.37.24.55.36-1.36-.93-.47-.35-.16-.06.32.29,1.24,1.53.17.08.33.44.59.94.84,1.44-.77-1.61-.15-.24-.03.21.05.22.1.45.14.68-.31-1.72-.12-.58-.1-.14,0,.23-.01.47-.03.7.15-.96.17-1.14.06-.51-.08.45-.22.88-.36,1.32.57-1.67.1-.3-.14.12-.11.19-.23.37-.37.55.93-1.36.36-.48.07-.16-.29.32-1.52,1.25-.08.17-.45.33-.94.59-1.45.84,1.61-.77.25-.15-.21-.04-.23.05-.45.1-.68.13,1.72-.31.59-.11.14-.1-.24,0-.47-.01-.71-.02.97.14,1.14.17.51.06-.44-.08-.88-.22-1.31-.37,1.66.58.29.1-.12-.14-.19-.11-.38-.23-.56-.36,1.36.94.47.36.16.06-.32-.29-1.24-1.53-.18-.08-.32-.44-.59-.94-.83-1.44.77,1.61.15.24.03-.21-.05-.22-.1-.45-.14-.68.31,1.73.1.59.1.15-.06-3.18-2.6-5.82-5.81-5.82s-5.88,2.64-5.82,5.82Z"/>
      </g>
      <path class="st12" d="M52.92,254.8c0,4.88,3.96,8.85,8.85,8.85s8.86-3.97,8.86-8.85-3.97-8.86-8.86-8.86-8.85,3.96-8.85,8.86Z"/>
      <path class="st32" d="M69.11,254.8c0-4.64-3.56-8.44-8.1-8.83.25-.01.5-.03.76-.03,4.89,0,8.86,3.96,8.86,8.86s-3.97,8.85-8.86,8.85c-.25,0-.5-.02-.76-.04,4.54-.39,8.1-4.19,8.1-8.81Z"/>
      <path class="st24" d="M54.43,254.8c0-4.64,3.56-8.44,8.1-8.83-.25-.01-.5-.03-.76-.03-4.89,0-8.85,3.96-8.85,8.86s3.96,8.85,8.85,8.85c.25,0,.51-.02.76-.04-4.53-.39-8.1-4.19-8.1-8.81Z"/>
    </g>
    <g>
      <path class="st11" d="M65.25,248.55c1.47,1.25,2.18,2.83,1.59,3.54-.59.71-2.28.28-3.75-.98-1.48-1.25-2.19-2.83-1.59-3.54.6-.7,2.27-.27,3.75.98Z"/>
      <path class="st11" d="M68.09,253.39c-.16.32-.55.46-.87.3-.32-.15-.45-.54-.3-.87.16-.32.55-.46.87-.29.32.16.45.54.3.86Z"/>
    </g>
  </g>
  <path class="st11" d="M70.85,260.74c-.61-.69-.98-6.25-.98-6.25v.02s0-.02,0-.02c0,0-.37,5.56-.98,6.25-.61.68-2.77.75-2.77.75,0,0,2.57.35,2.85.99.29.63.89,6.2.89,6.2,0,0,0-.02,0-.03v.03s.61-5.56.89-6.2c.29-.64,2.85-.99,2.85-.99,0,0-2.16-.07-2.77-.75Z"/>
  <path class="st11" d="M66.88,257.33c-.31-.35-.5-3.13-.5-3.13h0s0,0,0,0c0,0-.18,2.78-.5,3.13-.3.35-1.39.38-1.39.38,0,0,1.3.17,1.44.5.14.32.45,3.11.45,3.11h0s0,0,0,0c0,0,.31-2.79.45-3.11.14-.32,1.43-.5,1.43-.5,0,0-1.08-.04-1.39-.38Z"/>
  <path class="st11" d="M53.73,251.15c-.66-.74-1.06-6.71-1.06-6.71,0,0,0,.01,0,.02v-.02s-.4,5.98-1.05,6.71c-.66.73-2.97.81-2.97.81,0,0,2.76.37,3.07,1.06.3.69.96,6.66.96,6.66v-.02s0,.02,0,.02c0,0,.66-5.97.96-6.66.3-.69,3.07-1.06,3.07-1.06,0,0-2.31-.08-2.97-.81Z"/>
</svg>