<?xml version="1.0" encoding="UTF-8"?>
<svg id="Layer_1" xmlns="http://www.w3.org/2000/svg" version="1.1" viewBox="0 0 311.03 312.48">
  <!-- Generator: Adobe Illustrator 29.6.1, SVG Export Plug-In . SVG Version: 2.1.1 Build 9)  -->
  <defs>
    <style>
      .st0 {
        fill: #ffd7c3;
      }

      .st1 {
        fill: #000002;
      }

      .st2 {
        fill: #fdd300;
      }

      .st3 {
        fill: #ed1c24;
      }

      .st4 {
        fill: #f38b9e;
      }

      .st5 {
        fill: #be1e2d;
      }

      .st6 {
        fill: #fff;
      }

      .st7 {
        fill: #fdc361;
      }

      .st8 {
        fill: #fde5d2;
      }

      .st9 {
        fill: #ff8896;
      }

      .st10 {
        fill: #ffc0a4;
      }

      .st11 {
        fill: #fca100;
      }

      .st12 {
        fill: #f9b800;
      }

      .st13 {
        fill: #ffeea9;
      }
    </style>
  </defs>
  <g>
    <g>
      <path class="st8" d="M155.53,222.85c91.83,0,145.88-36.13,145.88-36.13l-34.58-77.54-111.3-8.69h0s-.01,0-.01,0h0s-111.31,8.7-111.31,8.7L9.63,186.72s54.07,36.13,145.9,36.13Z"/>
      <path d="M155.53,232.49c31.04-.02,62.26-4.05,92.11-12.64,17.62-5.07,35.04-11.73,51.2-20.46,2.52-1.36,5.05-2.76,7.44-4.35,2.14-1.43,3.73-3.23,4.43-5.76.74-2.71.13-4.96-.97-7.43-5.03-11.29-10.07-22.57-15.1-33.86-6.26-14.03-12.52-28.07-18.78-42.1-.24-.53-.47-1.05-.7-1.58-1.42-3.17-5.17-4.53-8.33-4.77-10.37-.81-20.75-1.62-31.12-2.43-18.56-1.45-37.13-2.9-55.7-4.35-8.16-.63-16.32-1.28-24.48-1.91,3.22,3.21,6.42,6.43,9.65,9.65h0c0-5.04-4.39-9.94-9.65-9.65h-.02c-5.26-.28-9.65,4.61-9.65,9.65h0c3.21-3.21,6.43-6.43,9.65-9.64-10.37.81-20.75,1.62-31.12,2.43-18.57,1.45-37.13,2.9-55.7,4.36-8.16.63-16.32,1.27-24.48,1.9-3.16.25-6.91,1.61-8.33,4.77-5.03,11.29-10.07,22.57-15.1,33.86-6.26,14.04-12.52,28.07-18.77,42.11-.24.53-.47,1.04-.7,1.58-1.1,2.47-1.71,4.71-.97,7.43.69,2.53,2.3,4.33,4.43,5.76,7.49,5,15.91,8.84,24.15,12.39,22.52,9.72,46.11,16.48,70.32,20.44,18.61,3.04,37.44,4.6,56.3,4.62,5.25,0,9.65-4.39,9.65-9.65s-4.39-9.65-9.65-9.65c-14.95-.01-29.88-.97-44.7-2.94.85.12,1.71.23,2.56.35-24.75-3.32-49.2-9.44-72.36-18.84-1-.41-2-.82-3.01-1.25.77.33,1.54.65,2.3.98-8.81-3.72-17.78-7.8-25.8-13.09-.01,0-.02-.01-.03-.02,1.16,4.4,2.3,8.8,3.46,13.2,5.03-11.29,10.06-22.57,15.1-33.86,6.26-14.03,12.52-28.06,18.78-42.1.23-.53.47-1.04.7-1.58-2.78,1.6-5.55,3.19-8.34,4.78,10.38-.81,20.75-1.62,31.12-2.43,18.57-1.46,37.14-2.9,55.7-4.35,8.16-.64,16.32-1.28,24.48-1.91,5.24-.42,9.64-4.08,9.64-9.65h0c-3.22,3.21-6.43,6.42-9.64,9.64,0,0,.01,0,.02,0-3.22-3.22-6.43-6.43-9.65-9.65h0c0,5.57,4.41,9.24,9.65,9.65,10.37.81,20.75,1.62,31.12,2.42,18.57,1.46,37.13,2.91,55.7,4.36,8.16.63,16.33,1.27,24.48,1.91-2.77-1.59-5.55-3.18-8.33-4.78,5.03,11.29,10.06,22.57,15.09,33.86,6.26,14.03,12.52,28.07,18.79,42.11.23.52.46,1.04.7,1.57,1.15-4.4,2.3-8.8,3.46-13.2-7.48,5-15.9,8.84-24.14,12.39-.56.24-1.13.48-1.69.72.77-.32,1.54-.65,2.31-.98-22.34,9.42-45.95,15.67-69.89,19.31-1.82.27-3.65.53-5.47.78.85-.12,1.71-.23,2.57-.35-14.82,1.97-29.75,2.93-44.7,2.94-5.26,0-9.65,4.39-9.65,9.65s4.39,9.65,9.65,9.65Z"/>
    </g>
    <path class="st3" d="M155.53,222.85c91.83,0,145.88-36.13,145.88-36.13l-34.58-77.54-111.3-8.69h0s-.01,0-.01,0h0s-111.31,8.7-111.31,8.7L9.63,186.72s54.07,36.13,145.9,36.13Z"/>
    <path class="st5" d="M166.55,218.44c-91.84,0-145.9-36.14-145.9-36.14l32.93-73.85-9.39.73L9.63,186.72s54.07,36.13,145.9,36.13c55.22,0,96.78-13.06,121.14-23.48-25.03,9.36-62.49,19.07-110.11,19.07Z"/>
    <path class="st5" d="M144.48,218.44c91.83,0,145.9-36.14,145.9-36.14l-32.94-73.85,9.39.73,34.58,77.54s-54.07,36.13-145.9,36.13c-55.22,0-96.78-13.06-121.14-23.48,25.03,9.36,62.49,19.07,110.12,19.07Z"/>
  </g>
  <g>
    <g>
      <g>
        <g>
          <path class="st0" d="M114.97,225.24s-29.68,35.25-16.8,42.85c12.88,7.6,30.9-25.34,30.9-25.34l-14.1-17.51Z"/>
          <path d="M112.29,222.56c-3.58,4.26-6.9,8.76-10.02,13.37-4.88,7.21-9.86,15.28-11.02,24.05-.48,3.6.44,7.62,3.25,10.1,3.41,3.01,8.2,3.64,12.42,2.11,4.41-1.59,8.11-4.7,11.33-8.03,3.29-3.4,6.16-7.21,8.84-11.11,1.87-2.71,3.66-5.5,5.24-8.39.89-1.63.52-3.22-.59-4.6-4.7-5.84-9.4-11.67-14.11-17.52-1.29-1.61-4.01-1.34-5.35,0-1.58,1.58-1.29,3.75,0,5.36,4.7,5.84,9.4,11.67,14.1,17.51-.2-1.53-.39-3.06-.59-4.59-.9,1.64-1.88,3.23-2.89,4.81-1.03,1.63-2.11,3.24-3.22,4.81-.61.86-1.23,1.71-1.87,2.55-.16.22-.32.43-.49.65.61-.79.03-.04-.08.1-.4.51-.81,1.02-1.22,1.51-1.47,1.77-3.03,3.48-4.69,5.07-.77.73-1.57,1.43-2.39,2.09-.7.57.67-.5-.04.04-.2.15-.4.29-.61.45-.46.33-.95.64-1.43.94-.4.25-.81.47-1.23.69-.2.1-.4.2-.61.29-.75.35.83-.33.08-.04-.4.16-.81.29-1.22.42-.36.1-2,.34-.62.17-.4.04-.8.06-1.21.05-.2,0-.4-.02-.6-.04,1.21.11.51.07.22.02-.4-.08-.79-.2-1.17-.34-.74-.27.84.39.13.05-.24-.12-.48-.26-.72-.4-1-.61.46.44-.18-.13-.24-.21-.46-.46-.67-.71.87,1.06.16.16-.02-.16-.54-.99.24.8-.1-.29-.1-.32-.17-.65-.24-.98-.12-.69.13,1.03.05.32-.02-.18-.03-.36-.04-.54-.02-.37-.01-.74,0-1.12.02-.35.23-1.94.02-.55.27-1.84.83-3.64,1.47-5.38.17-.46.35-.91.54-1.36-.44,1.08.2-.46.32-.71.47-1.03.97-2.05,1.49-3.05,2.05-3.96,4.45-7.73,6.97-11.4,1.13-1.63,2.29-3.25,3.47-4.84.49-.66.98-1.32,1.48-1.97.11-.15.23-.3.34-.45.44-.56-.58.76-.15.2.24-.3.47-.61.71-.91.73-.94,1.48-1.88,2.25-2.79,1.33-1.58,1.56-3.8,0-5.36-1.36-1.36-4.02-1.58-5.35,0Z"/>
        </g>
        <path class="st3" d="M101.76,251.57l9.83,6.06,6.94-22.47-3.43-4.3s-5.66,7.04-7.56,10c-1.89,2.97-5.78,10.7-5.78,10.7Z"/>
        <g>
          <rect class="st1" x="101.14" y="247.48" width="7.37" height="21.04" transform="translate(-168.77 206.03) rotate(-57.13)"/>
          <path d="M111.9,267.92l-19.02-12.29,4.88-7.54,19.03,12.29-4.88,7.55ZM95.1,255.15l16.32,10.54,3.13-4.84-16.32-10.54-3.13,4.84Z"/>
        </g>
        <path class="st5" d="M104.82,250.47s3.9-7.73,5.79-10.7c1.2-1.88,3.9-5.37,5.73-7.7l-1.13-1.41s-5.66,7.04-7.56,10c-1.89,2.97-5.79,10.7-5.79,10.7l9.76,6.29-6.79-7.19Z"/>
      </g>
      <g>
        <g>
          <path class="st0" d="M196.14,225.24s29.68,35.25,16.8,42.85c-12.88,7.6-30.9-25.34-30.9-25.34l14.1-17.51Z"/>
          <path d="M193.46,227.92c1.02,1.21,1.99,2.45,2.96,3.7.43.56-.58-.76-.15-.2.11.15.23.3.34.45.24.32.48.63.72.95.57.75,1.13,1.52,1.7,2.28,1.21,1.67,2.4,3.37,3.55,5.07,2.49,3.71,4.82,7.54,6.79,11.56.23.47.44.93.66,1.4.12.25.77,1.8.32.71.4.96.76,1.94,1.08,2.93.28.85.51,1.71.7,2.57.09.41.16.82.23,1.24-.22-1.39,0,.2.02.55.02.38.02.75,0,1.12,0,.17-.02.36-.03.54-.07.71.15-1.02.04-.32-.05.33-.13.66-.23.98-.32,1.1.41-.71-.11.29-.16.3-.87,1.26-.02.16-.2.26-.42.49-.66.71-.63.58.79-.5-.18.13-.17.1-.35.2-.53.3-.91.49.55-.19-.05.04-.38.15-.77.25-1.17.34-.27.06-1.02.13.22-.02-.2.02-.4.03-.6.04-.4.01-.8,0-1.2-.05,1.37.13-.26-.08-.62-.17-.42-.12-.83-.26-1.22-.42-.76-.29.83.38.08.04-.21-.09-.41-.19-.61-.29-.93-.47-1.81-1.03-2.66-1.63-.2-.15-.4-.29-.61-.45-.71-.53.66.53-.04-.04-.41-.32-.81-.67-1.2-1.01-.88-.77-1.73-1.59-2.55-2.42-1.62-1.66-3.12-3.43-4.55-5.24-.11-.14-.69-.89-.08-.1-.17-.21-.33-.43-.5-.65-.32-.42-.63-.85-.95-1.28-.65-.9-1.29-1.8-1.92-2.71-1.02-1.48-1.99-2.99-2.94-4.52-.74-1.21-1.48-2.43-2.16-3.67-.2,1.53-.4,3.06-.59,4.59,4.7-5.84,9.4-11.67,14.1-17.51,1.3-1.61,1.58-3.78,0-5.36-1.34-1.34-4.06-1.61-5.36,0-4.7,5.84-9.4,11.68-14.1,17.52-1.11,1.37-1.49,2.97-.6,4.6,3.01,5.48,6.64,10.69,10.59,15.54,5.21,6.4,13.5,14.88,22.67,12.38,3.89-1.06,7.05-4.24,7.7-8.27.65-4.02-.32-8.04-1.79-11.78-3.21-8.2-8.2-15.65-13.43-22.68-1.84-2.47-3.71-4.92-5.69-7.29-1.33-1.58-3.99-1.36-5.36,0-1.55,1.56-1.33,3.78,0,5.36Z"/>
        </g>
        <path class="st3" d="M209.35,251.57l-9.83,6.06-6.94-22.47,3.43-4.3s5.66,7.04,7.56,10c1.89,2.97,5.79,10.7,5.79,10.7Z"/>
        <g>
          <rect class="st1" x="195.77" y="254.32" width="21.04" height="7.37" transform="translate(-107 153.25) rotate(-32.87)"/>
          <path d="M199.21,267.92l-4.88-7.55,19.02-12.29,4.88,7.54-19.02,12.29ZM196.57,260.85l3.12,4.84,16.32-10.54-3.13-4.84-16.31,10.54Z"/>
        </g>
        <path class="st5" d="M206.3,250.5s-3.9-7.73-5.78-10.7c-1.2-1.88-3.9-5.38-5.73-7.7l1.13-1.42s5.66,7.04,7.56,10.01c1.89,2.97,5.79,10.7,5.79,10.7l-9.66,6.21,6.7-7.11Z"/>
      </g>
      <g>
        <path class="st3" d="M185.91,232.74h-60.79s-11.88,65.89-3.8,68.71c8.07,2.82,15.56-10.04,15.56-10.04,0,0,5.95,1.81,16.26,2.14h0c.78.02,1.57.04,2.38.04s1.6-.01,2.38-.04h0c10.31-.32,16.26-2.14,16.26-2.14,0,0,7.48,12.87,15.56,10.04,8.08-2.83-3.8-68.71-3.8-68.71Z"/>
        <path d="M185.91,228.95h-60.79c-1.57,0-3.36,1.14-3.65,2.78-2.32,12.87-4.21,25.86-5.57,38.86-.82,7.88-1.66,15.98-.98,23.91.22,2.61.53,5.77,2.08,8,3.05,4.42,9.35,3.53,13.44,1.14,4.01-2.34,7.39-6.34,9.72-10.31-1.43.58-2.85,1.16-4.28,1.74,5.5,1.67,11.56,2.08,17.26,2.27-1.26-1.26-2.53-2.52-3.79-3.78h0c0,2.11,1.73,3.73,3.79,3.79,1.59.04,3.17.04,4.76,0,2.06-.06,3.79-1.69,3.79-3.79h0c-1.26,1.26-2.53,2.52-3.79,3.78,5.7-.19,11.76-.6,17.26-2.27-1.43-.58-2.85-1.16-4.28-1.74,1.82,3.09,4.24,6.05,7,8.35,4.02,3.31,10.58,5.97,15.14,2.09,2.14-1.82,2.59-5.14,2.93-7.75.44-3.33.41-6.71.32-10.05-.27-8.91-1.31-17.81-2.47-26.64-1-7.67-2.15-15.33-3.43-22.96-.26-1.54-.52-3.08-.8-4.62-.37-2.03-2.81-3.16-4.66-2.64-2.13.58-3.01,2.63-2.65,4.66.73,4.05,1.39,8.12,2.02,12.19.63,4.08,1.23,8.16,1.79,12.25.12.94-.12-.88,0,.06.04.27.08.54.1.81.08.54.14,1.09.22,1.63.15,1.19.29,2.38.44,3.57.27,2.3.53,4.59.77,6.9.81,7.8,1.65,15.86.89,23.7-.03.33-.07.67-.11,1,.18-1.48.03-.27-.02.08-.1.59-.24,1.17-.4,1.74-.07.23-.14.46-.22.68-.27.72.49-1.03.09-.22-.08.17-.18.33-.29.48-.35.54.81-.88.17-.25-.46.45.99-.65.35-.28-.4.24,1.09-.43.65-.27-.28.1-.58.18-.87.25-.96.23.82-.06-.15.02-.28.02-.57,0-.85-.02-.96-.04.83.16-.12-.02-.38-.08-.73-.2-1.1-.32-.92-.31.73.36-.17-.06-.27-.13-.52-.27-.78-.41-.51-.29-1.01-.62-1.5-.98.75.54-.05-.05-.17-.15-.23-.19-.45-.39-.67-.59-.51-.46-.99-.94-1.46-1.44-.57-.6-1.09-1.22-1.6-1.86-.43-.55.49.65-.14-.19-.21-.28-.41-.57-.61-.85-.39-.55-.76-1.11-1.1-1.69-.84-1.44-2.66-2.23-4.28-1.74-1.34.41-2.74.68-4.12.92-.74.14-1.49.25-2.24.36-1.18.18.79-.09-.47.07-.54.07-1.09.13-1.63.19-2.26.24-4.52.38-6.78.46-2.07.07-3.79,1.67-3.79,3.79h0c1.26-1.26,2.53-2.52,3.79-3.79-1.59.04-3.17.04-4.76,0,1.26,1.26,2.53,2.53,3.79,3.79h0c0-2.12-1.73-3.72-3.79-3.79-2.26-.07-4.53-.22-6.78-.46-.42-.04-.82-.09-1.23-.14-.26-.04-.53-.07-.79-.11.39.05.36.05-.09-.02-.74-.1-1.5-.22-2.24-.36-1.38-.24-2.78-.51-4.12-.92-1.62-.49-3.44.31-4.28,1.74-.55.95-1.19,1.85-1.85,2.72-.51.68.54-.69,0,0-.16.21-.33.4-.5.61-.35.43-.72.84-1.1,1.25-.4.43-.81.84-1.24,1.24-.22.2-.44.4-.66.6-.13.11-1.17.91-.4.34-.47.36-.99.68-1.5.98-.25.15-.51.28-.78.41-.88.43.75-.27-.16.06-.27.1-.55.18-.82.25-.2.05-1.14.19-.11.06-.28.04-.57.04-.85.04-.19,0-.39-.02-.57-.04.53.09.57.09.14.01-.76-.14-1.4-.6-.23.02-.66-.35.82.71.35.28-.62-.56.39.57.22.33-.13-.18-.24-.37-.34-.56-.42-.81.36.94.09.22-.09-.22-.16-.45-.22-.68-.17-.56-.29-1.15-.4-1.74-.06-.34-.22-1.55-.02-.08-.05-.33-.08-.66-.11-1-.09-.79-.13-1.59-.17-2.39-.18-3.8-.01-7.62.22-11.42.28-4.5.72-8.99,1.22-13.47.26-2.3.54-4.59.83-6.89.07-.54.14-1.09.21-1.63.03-.26.07-.54.1-.81.13-.94-.12.88.01-.06.16-1.14.31-2.27.47-3.41.91-6.39,1.91-12.78,3-19.12.11-.64.22-1.28.34-1.9-1.22.93-2.44,1.85-3.65,2.78h60.79c4.89,0,4.89-7.58,0-7.58Z"/>
      </g>
      <g>
        <path class="st1" d="M218.25,307.92c0,1.86-28.08,3.35-62.73,3.35s-62.74-1.5-62.74-3.35,28.09-3.35,62.74-3.35,62.73,1.5,62.73,3.35Z"/>
        <path d="M155.52,312.48c-16.79,0-32.57-.35-44.43-.98-19.52-1.04-19.52-2.22-19.52-3.58s0-2.54,19.52-3.58c11.86-.63,27.64-.98,44.43-.98s32.56.35,44.42.98c19.52,1.04,19.52,2.22,19.52,3.58s0,2.54-19.52,3.58c-11.85.63-27.63.98-44.42.98ZM96.83,307.92c7.96,1.13,29.57,2.14,58.69,2.14s50.72-1.01,58.68-2.14c-7.96-1.13-29.56-2.14-58.68-2.14s-50.73,1.01-58.69,2.14Z"/>
      </g>
      <g>
        <g>
          <polygon class="st8" points="183.88 231.93 155.73 231.93 155.5 231.93 127.34 231.93 115.14 272.05 155.5 272.05 155.73 272.05 196.07 272.05 183.88 231.93"/>
          <path d="M183.88,224.36h-56.54c-3.43,0-6.32,2.32-7.31,5.56-3.89,12.78-7.78,25.56-11.66,38.35-.18.58-.36,1.17-.54,1.76-1.44,4.75,2.48,9.6,7.31,9.6h80.93c4.84,0,8.75-4.85,7.31-9.6-3.89-12.78-7.77-25.57-11.66-38.35-.19-.58-.36-1.18-.54-1.76-1.2-3.96-5.26-6.41-9.32-5.3-3.91,1.07-6.5,5.37-5.29,9.32,3.88,12.79,7.78,25.57,11.66,38.36.17.58.36,1.17.54,1.76,2.44-3.19,4.87-6.39,7.3-9.59h-80.93c2.44,3.2,4.87,6.4,7.31,9.59,3.89-12.78,7.78-25.56,11.66-38.35.17-.59.35-1.18.54-1.77-2.44,1.85-4.87,3.71-7.31,5.56h56.54c4.13,0,7.58-3.45,7.58-7.58s-3.45-7.57-7.58-7.57Z"/>
        </g>
        <polygon class="st3" points="183.88 231.93 155.73 231.93 155.5 231.93 127.34 231.93 115.14 272.05 155.5 272.05 155.73 272.05 196.07 272.05 183.88 231.93"/>
      </g>
      <polygon class="st5" points="126.83 233.52 115.14 272.05 146.94 272.05 120.98 268.25 126.83 233.52"/>
      <polygon class="st5" points="184.38 233.52 196.07 272.05 164.27 272.05 190.23 268.25 184.38 233.52"/>
      <polygon class="st5" points="122.74 279.73 122.46 284.49 188.64 284.49 188.35 279.73 122.74 279.73"/>
      <g>
        <rect class="st1" x="152.3" y="233.83" width="6.25" height="38.31"/>
        <path d="M159.76,273.35h-8.67v-40.73h8.67v40.73ZM153.51,270.93h3.83v-35.89h-3.83v35.89Z"/>
      </g>
      <polygon class="st2" points="196.48 272.14 115.12 272.14 116.63 266.99 194.54 266.99 196.48 272.14"/>
      <polygon class="st2" points="120.77 253.39 190.36 253.39 187.96 245.49 123.17 245.49 120.77 253.39"/>
      <g>
        <rect class="st2" x="147.54" y="257.74" width="15.52" height="4.59"/>
        <path d="M163.06,260.95h-15.52c.46.46.91.92,1.37,1.38v-4.59c-.46.46-.92.92-1.37,1.38h15.52c-.46-.46-.91-.92-1.38-1.38v4.59c0,1.78,2.75,1.78,2.75,0v-4.59c0-.75-.62-1.38-1.37-1.38h-15.52c-.76,0-1.38.63-1.38,1.38v4.59c0,.76.62,1.38,1.38,1.38h15.52c1.78,0,1.78-2.76,0-2.76Z"/>
      </g>
      <g>
        <rect class="st2" x="147.54" y="236.52" width="15.52" height="4.6"/>
        <path d="M163.06,239.74h-15.52c.46.46.91.92,1.37,1.38v-4.6c-.46.46-.92.92-1.37,1.38h15.52c-.46-.46-.91-.92-1.38-1.38v4.6c0,1.78,2.75,1.78,2.75,0v-4.6c0-.75-.62-1.38-1.37-1.38h-15.52c-.76,0-1.38.63-1.38,1.38v4.6c0,.75.62,1.38,1.38,1.38h15.52c1.78,0,1.78-2.75,0-2.75Z"/>
      </g>
    </g>
    <g>
      <g>
        <g>
          <path class="st6" d="M77.61,157.33c-1.1,10.09-10.18,17.38-20.27,16.28-10.09-1.11-17.38-10.18-16.27-20.28,1.1-10.09,10.17-17.38,20.26-16.27,10.09,1.1,17.38,10.17,16.28,20.26Z"/>
          <path d="M69.34,157.33c-.01.13-.03.26-.05.39.1-.73.2-1.46.3-2.2-.24,1.64-.66,3.21-1.28,4.74.27-.66.55-1.32.83-1.98-.44,1.03-.95,2-1.56,2.93-.35.55-1.55,2.04.22-.2-.38.47-.79.92-1.21,1.36-.33.35-.69.67-1.06.99-1.54,1.36,1.65-1.14-.04.03-.99.69-2.07,1.25-3.18,1.74.66-.28,1.32-.55,1.97-.84-1.48.62-3.01,1.04-4.6,1.28.73-.1,1.47-.19,2.2-.29-1.65.22-3.3.22-4.95.02.73.1,1.47.2,2.2.29-1.64-.23-3.21-.65-4.75-1.28.66.28,1.32.55,1.97.83-1.02-.44-1.99-.95-2.92-1.55-.55-.36-2.04-1.55.2.22-.48-.38-.92-.8-1.36-1.22-.34-.33-.67-.69-.99-1.05-1.37-1.54,1.14,1.65-.04-.04-.7-.99-1.26-2.07-1.74-3.18.29.66.57,1.32.84,1.98-.61-1.49-1.03-3.02-1.28-4.6.1.73.2,1.46.3,2.19-.22-1.64-.22-3.29-.02-4.95-.1.73-.2,1.47-.3,2.2.24-1.64.65-3.21,1.28-4.74-.28.66-.55,1.32-.84,1.98.44-1.02.96-1.99,1.56-2.92.35-.56,1.55-2.04-.22.2.37-.48.79-.92,1.2-1.36.33-.35.69-.67,1.06-.99,1.54-1.37-1.64,1.14.05-.03.99-.69,2.07-1.25,3.18-1.74-.66.28-1.32.56-1.97.84,1.48-.61,3.01-1.04,4.6-1.28-.73.11-1.47.21-2.19.3,1.65-.21,3.29-.22,4.94-.02-.73-.1-1.46-.2-2.19-.29,1.63.23,3.21.65,4.74,1.28-.66-.28-1.32-.55-1.97-.84,1.02.44,1.99.96,2.92,1.55.56.35,2.05,1.55-.2-.22.47.38.92.79,1.36,1.21.35.33.67.69.99,1.05,1.36,1.54-1.14-1.64.03.04.69.99,1.26,2.07,1.74,3.18-.28-.66-.56-1.31-.83-1.97.61,1.48,1.03,3.01,1.27,4.59-.1-.73-.2-1.46-.29-2.19.2,1.52.21,3.03.06,4.56-.44,4.5,4.09,8.27,8.27,8.27,2.18,0,4.3-.88,5.85-2.42,1.66-1.67,2.19-3.57,2.42-5.85.77-7.88-2.57-16.11-8.35-21.46-6.56-6.08-15.37-8.2-24.05-6.52-7.56,1.46-14.61,7.12-17.92,14.01-3.86,8.02-3.69,17.09.51,24.94,2.44,4.57,6.64,8.57,11.29,10.81,5.69,2.74,11.68,3.39,17.84,2.21,5.1-.98,10.09-4.01,13.6-7.79,1.78-1.93,3.38-4.15,4.47-6.56,1.48-3.23,2.19-6.12,2.61-9.64.24-2.04-1.03-4.45-2.42-5.85-1.55-1.54-3.67-2.42-5.85-2.42s-4.31.88-5.85,2.42c-1.69,1.69-2.14,3.55-2.42,5.85Z"/>
        </g>
        <path class="st0" d="M77.61,157.33c-1.1,10.09-10.18,17.38-20.27,16.28-10.09-1.11-17.38-10.18-16.27-20.28,1.1-10.09,10.17-17.38,20.26-16.27,10.09,1.1,17.38,10.17,16.28,20.26Z"/>
      </g>
      <g>
        <g>
          <path class="st6" d="M269.41,157.33c-1.1,10.09-10.18,17.38-20.26,16.28-10.09-1.11-17.38-10.18-16.28-20.28,1.11-10.09,10.18-17.38,20.27-16.27,10.09,1.1,17.38,10.17,16.27,20.26Z"/>
          <path d="M261.14,157.33c-.02.13-.03.26-.05.39.1-.73.2-1.46.29-2.2-.23,1.64-.65,3.21-1.28,4.74.28-.66.55-1.32.84-1.98-.44,1.03-.96,2-1.56,2.93-.35.55-1.55,2.04.22-.2-.37.47-.78.92-1.21,1.36-.33.35-.69.67-1.05.99-1.54,1.36,1.64-1.14-.05.03-.99.69-2.07,1.25-3.18,1.74.66-.28,1.31-.55,1.97-.84-1.48.62-3.01,1.04-4.59,1.28.73-.1,1.46-.19,2.19-.29-1.65.22-3.28.22-4.94.02.73.1,1.46.2,2.19.29-1.64-.23-3.2-.65-4.74-1.28.66.28,1.31.55,1.97.83-1.02-.44-1.98-.95-2.92-1.55-.55-.36-2.04-1.55.2.22-.47-.38-.92-.8-1.35-1.22-.35-.33-.68-.69-.99-1.05-1.37-1.54,1.14,1.65-.04-.04-.69-.99-1.25-2.07-1.73-3.18.28.66.55,1.32.83,1.98-.61-1.49-1.04-3.02-1.28-4.6.1.73.2,1.46.3,2.19-.21-1.64-.23-3.29-.02-4.95-.1.73-.2,1.47-.3,2.2.24-1.64.66-3.21,1.28-4.74-.28.66-.56,1.32-.83,1.98.43-1.02.95-1.99,1.55-2.92.35-.56,1.55-2.04-.22.2.38-.48.79-.92,1.21-1.36.33-.35.69-.67,1.05-.99,1.54-1.37-1.64,1.14.05-.03,1-.69,2.07-1.25,3.18-1.74-.66.28-1.32.56-1.97.84,1.48-.61,3.01-1.04,4.6-1.28-.73.11-1.47.21-2.19.3,1.65-.21,3.29-.22,4.95-.02-.74-.1-1.47-.2-2.21-.29,1.64.23,3.21.65,4.74,1.28-.65-.28-1.31-.55-1.97-.84,1.03.44,1.99.96,2.93,1.55.55.35,2.04,1.55-.2-.22.47.38.92.79,1.36,1.21.35.33.67.69.99,1.05,1.37,1.54-1.14-1.64.04.04.69.99,1.25,2.07,1.74,3.18-.28-.66-.55-1.31-.83-1.97.61,1.48,1.03,3.01,1.28,4.59-.1-.73-.2-1.46-.3-2.19.2,1.52.22,3.03.07,4.56-.44,4.5,4.1,8.27,8.27,8.27,2.18,0,4.31-.88,5.85-2.42,1.67-1.67,2.19-3.57,2.42-5.85.78-7.88-2.57-16.11-8.35-21.46-6.55-6.08-15.36-8.2-24.05-6.52-7.56,1.46-14.61,7.12-17.92,14.01-3.86,8.02-3.69,17.09.5,24.94,2.44,4.57,6.64,8.57,11.3,10.81,5.67,2.74,11.67,3.39,17.84,2.21,5.1-.98,10.09-4.01,13.6-7.79,1.79-1.93,3.38-4.15,4.48-6.56,1.48-3.23,2.18-6.12,2.6-9.64.24-2.04-1.03-4.45-2.42-5.85-1.54-1.54-3.67-2.42-5.85-2.42s-4.31.88-5.85,2.42c-1.69,1.69-2.15,3.55-2.42,5.85Z"/>
        </g>
        <path class="st0" d="M269.41,157.33c-1.1,10.09-10.18,17.38-20.26,16.28-10.09-1.11-17.38-10.18-16.28-20.28,1.11-10.09,10.18-17.38,20.27-16.27,10.09,1.1,17.38,10.17,16.27,20.26Z"/>
      </g>
    </g>
    <g>
      <g>
        <path class="st8" d="M54.81,100.66c.05,24.94.14,49.45.14,49.45,0,38.67,21.67,74.52,102.43,74.19,79.93-.33,98.85-35.52,98.85-74.19v-49.45H54.81Z"/>
        <path d="M45.17,100.66c.02,14.92.06,29.83.12,44.75.04,7.42.32,14.69,1.53,22.04,2.83,17.15,11.82,33.33,25.63,44.02,4.26,3.3,8.65,6.26,13.46,8.71,5.3,2.7,10.89,4.92,16.56,6.72,13.1,4.16,26.99,5.95,40.68,6.71,15.82.87,31.71.18,47.38-2.18,12.01-1.81,23.71-5.12,34.66-10.43,8.48-4.1,16.44-9.87,22.66-16.98,6.15-7.05,10.61-15.07,13.62-23.92,4.44-13.07,4.4-26.82,4.4-40.44v-39c0-5.26-4.39-9.65-9.64-9.65H54.81c-5.26,0-9.64,4.39-9.64,9.65s4.38,9.64,9.64,9.64h201.42c-3.21-3.21-6.44-6.42-9.65-9.64v41.2c0,7.26.1,14.51-.86,21.72.12-.86.23-1.71.35-2.56-.85,6.25-2.38,12.41-4.83,18.25.33-.77.65-1.54.98-2.3-1.93,4.55-4.4,8.86-7.42,12.79.51-.65,1.01-1.3,1.51-1.96-3.07,3.98-6.66,7.5-10.62,10.58.65-.5,1.3-1,1.95-1.5-4.99,3.83-10.51,6.88-16.29,9.34.77-.32,1.54-.65,2.31-.98-9.9,4.16-20.43,6.56-31.04,8,.85-.12,1.7-.22,2.56-.34-18.92,2.52-38.5,2.54-57.42,0,.86.12,1.71.23,2.58.35-10.78-1.47-21.47-3.93-31.52-8.16.77.32,1.54.65,2.3.97-6.03-2.55-11.78-5.75-16.97-9.74.65.51,1.3,1.01,1.95,1.51-4.09-3.16-7.79-6.79-10.98-10.88.51.65,1.01,1.3,1.51,1.95-3.16-4.09-5.74-8.57-7.76-13.32.32.77.65,1.54.97,2.3-2.42-5.78-3.96-11.89-4.8-18.09.12.85.23,1.71.35,2.56-.81-6.16-.79-12.33-.81-18.53-.05-14.38-.1-28.77-.12-43.15,0-5.26-4.38-9.65-9.65-9.65s-9.66,4.39-9.64,9.65Z"/>
      </g>
      <path class="st0" d="M54.81,100.66c.05,24.94.14,49.45.14,49.45,0,38.67,21.67,74.52,102.43,74.19,79.93-.33,98.85-35.52,98.85-74.19v-49.45H54.81Z"/>
    </g>
    <path class="st10" d="M155.49,117.24c-38.44,0-73.59-2.08-100.65-5.52.02,8.93.05,13.65.07,17.75,26.68,5.38,62.17,12.95,100.58,12.95s74.64-7.03,100.71-12.82v-17.89c-27.07,3.44-62.25,5.52-100.71,5.52Z"/>
    <g>
      <g>
        <g>
          <g>
            <g>
              <path class="st1" d="M113.35,160.73c0,9.01-7.3,16.31-16.31,16.31s-16.32-7.3-16.32-16.31,7.31-16.32,16.32-16.32,16.31,7.31,16.31,16.32Z"/>
              <path d="M111.29,160.73c-.08,5.91-3.71,11.3-9.3,13.38-5.76,2.13-12.06.23-16-4.35-3.91-4.56-4.13-11.36-1.14-16.42,3.03-5.12,9.23-7.72,15.01-6.57,6.63,1.32,11.34,7.29,11.42,13.98.02,2.66,4.16,2.67,4.13,0-.08-6.47-3.42-12.34-8.9-15.75-5.54-3.44-12.66-3.39-18.35-.36-5.66,3.01-9.14,9.02-9.51,15.34-.37,6.44,3.03,12.54,8.28,16.12,5.58,3.82,13.07,3.88,18.95.74,5.89-3.13,9.45-9.53,9.53-16.11.02-2.67-4.11-2.66-4.13,0Z"/>
            </g>
            <path class="st6" d="M108.77,156.44c0,2.21-1.79,4-4.01,4s-4.01-1.79-4.01-4,1.8-4.01,4.01-4.01,4.01,1.8,4.01,4.01Z"/>
          </g>
          <path class="st4" d="M97.65,188.73c.35,2.55-4.04,5.25-9.8,6.03-5.77.79-10.71-.65-11.06-3.19-.35-2.55,4.04-5.25,9.8-6.04,5.76-.78,10.71.65,11.06,3.2Z"/>
        </g>
        <g>
          <g>
            <g>
              <path class="st1" d="M230.31,160.73c0,9.01-7.3,16.31-16.32,16.31s-16.31-7.3-16.31-16.31,7.3-16.32,16.31-16.32,16.32,7.31,16.32,16.32Z"/>
              <path d="M228.25,160.73c-.06,5.91-3.71,11.3-9.3,13.38-5.75,2.13-12.06.23-16-4.35-3.91-4.56-4.13-11.36-1.14-16.42,3.02-5.12,9.23-7.72,15.01-6.57,6.63,1.32,11.34,7.29,11.42,13.98.03,2.66,4.17,2.67,4.13,0-.08-6.47-3.41-12.34-8.9-15.75-5.54-3.44-12.66-3.39-18.35-.36-5.66,3.01-9.14,9.02-9.51,15.34-.38,6.44,3.03,12.54,8.27,16.12,5.59,3.82,13.07,3.88,18.95.74,5.88-3.13,9.44-9.53,9.53-16.11.04-2.67-4.1-2.66-4.13,0Z"/>
            </g>
            <path class="st6" d="M225.74,156.44c0,2.21-1.8,4-4.01,4s-4.01-1.79-4.01-4,1.8-4.01,4.01-4.01,4.01,1.8,4.01,4.01Z"/>
          </g>
          <path class="st4" d="M213.38,188.73c-.35,2.55,4.04,5.25,9.8,6.03,5.76.79,10.71-.65,11.06-3.19.35-2.55-4.05-5.25-9.81-6.04-5.76-.78-10.71.65-11.05,3.2Z"/>
        </g>
      </g>
      <path d="M137.64,192.61c.12,2.41,1,4.88,2.4,6.83,3.46,4.81,9.03,6.63,14.77,6.74,5.46.12,11.54-1.43,15.21-5.73,1.86-2.18,3.08-4.72,3.38-7.56.25-2.25-2.07-4.14-4.13-4.14-2.44,0-3.89,1.89-4.13,4.14.22-2.08.03-.39-.18.23-.07.21-.15.42-.22.62.59-1.47.2-.48.02-.15-.13.26-.28.51-.43.76-.18.28-.91,1.22-.03.1-.44.57-.97,1.08-1.54,1.55,1.02-.84-.1.06-.38.22-.38.24-.79.46-1.19.65-.41.19-.35.17.18-.06-.28.12-.57.22-.87.32-.53.19-1.07.32-1.62.45-.24.06-1.93.31-1.11.21-.84.1-1.69.13-2.53.13-.7.02-1.41-.02-2.11-.07-.26-.02-.51-.05-.77-.07.94.1-.22-.06-.35-.09-.55-.1-1.09-.25-1.61-.41-.2-.06-.39-.13-.59-.2-.98-.35.8.38-.1-.04-.41-.19-.8-.42-1.19-.64-.15-.09-.28-.19-.43-.28-.74-.5.74.61.06.06-.29-.24-.57-.5-.83-.77-.14-.16-.29-.32-.43-.49-.51-.61.61.83.16.19-.36-.49-.65-1.03-.91-1.58-.23-.48.43,1.14.07.12-.08-.21-.14-.43-.2-.65-.09-.33-.16-.67-.21-1-.06-.34.12,1.43.09.62-.1-2.25-1.8-4.14-4.13-4.14-2.17,0-4.24,1.89-4.13,4.14h0Z"/>
    </g>
    <g>
      <g>
        <g>
          <path class="st7" d="M48.22,106.61s10.15,16.94,109.22,16.94,105.37-18.21,105.37-18.21c0,0-19.6-13.55-106.07-13.55s-108.52,14.82-108.52,14.82Z"/>
          <path d="M39.89,111.47c2.42,4.03,6.98,6.64,11.15,8.5,13.5,6,28.25,8.25,42.81,10.03,12.52,1.53,25.12,2.31,37.73,2.75,16.58.59,33.2.61,49.79.04,12.58-.43,25.17-1.25,37.67-2.87,8.83-1.13,17.64-2.49,26.23-4.83,5.3-1.44,10.57-3.3,15.46-5.81,2.75-1.41,5.48-3.22,7.64-5.42,1.78-1.8,2.93-3.61,3.75-5.97,1.49-4.27-1.02-8.55-4.43-10.89-.92-.63-2-1.09-3.03-1.54-4.21-1.84-8.5-3.35-12.95-4.54-6.92-1.86-13.99-3.15-21.08-4.19-12.01-1.77-24.09-2.9-36.21-3.6-16.21-.93-32.47-1.15-48.71-.91-14.33.21-28.67.87-42.94,2.29-16.2,1.59-32.87,3.73-48.35,9.01-3.07,1.05-6.1,2.25-9.02,3.65-.69.34-1.41.68-2.05,1.1-4.35,2.93-6.24,8.46-3.46,13.2,2.53,4.32,8.82,6.39,13.19,3.46,1.26-.84,2.72-1.44,4.11-2.03-.77.33-1.54.65-2.3.98,11.22-4.72,23.59-6.89,35.57-8.63,1-.14,1.99-.28,2.99-.42-.85.12-1.7.23-2.56.35,28.97-3.88,58.46-4.29,87.64-3.44,15.43.46,30.87,1.42,46.18,3.47-.85-.12-1.71-.23-2.57-.35,11.52,1.56,23.51,3.44,34.32,7.91.1.04.2.08.29.12-.76-.33-1.54-.65-2.3-.97,1.18.49,2.43,1,3.49,1.74-1.47-3.63-2.94-7.26-4.43-10.89,0,.01-.01.03-.02.04.33-.77.65-1.54.98-2.3-.13.31-.33.6-.54.86.5-.65,1-1.3,1.51-1.95-.62.81-1.4,1.49-2.21,2.12.66-.5,1.3-1.01,1.95-1.5-2.22,1.7-4.79,2.98-7.37,4.08.77-.33,1.54-.65,2.31-.98-10.24,4.31-21.52,6.22-32.46,7.69.85-.12,1.71-.22,2.56-.34-12.29,1.64-24.67,2.48-37.06,2.96-16.57.63-33.19.62-49.77.09-14.4-.46-28.83-1.36-43.12-3.27.85.11,1.71.22,2.56.34-11.27-1.52-22.91-3.44-33.46-7.88.76.32,1.54.65,2.3.98-2.41-1.02-4.83-2.19-6.91-3.8.65.5,1.3,1,1.96,1.51-.57-.43-1.13-.91-1.56-1.47.5.65,1,1.3,1.51,1.96-.04-.05-.08-.11-.11-.16-2.71-4.5-8.62-6.14-13.2-3.46-4.49,2.63-6.17,8.69-3.46,13.2Z"/>
        </g>
        <path class="st3" d="M48.22,106.61s10.15,16.94,109.22,16.94,105.37-18.21,105.37-18.21c0,0-19.6-13.55-106.07-13.55s-108.52,14.82-108.52,14.82Z"/>
        <path class="st5" d="M157.56,118.92c-67.94,0-96.65-7.47-108.5-12.81-.58.32-.85.5-.85.5,0,0,10.15,16.94,109.22,16.94s105.37-18.21,105.37-18.21h0c-10.86,5.72-38.03,13.58-105.25,13.58Z"/>
      </g>
      <g>
        <path class="st8" d="M264.47,98.92c-.47-16.57-4.65-36.81-18.81-54.05C215.75,8.47,155.84,9.64,155.52,9.64c-.33,0-60.25-1.17-90.15,35.23-14.16,17.24-18.34,37.48-18.8,54.05,0,0,28.73-4.75,108.65-4.75s109.25,4.75,109.25,4.75Z"/>
        <path d="M274.11,98.92c-.46-15.37-3.76-30.39-10.6-44.2-6.64-13.42-16.96-24.48-29.23-32.9-9.93-6.81-21.33-11.62-32.84-15.07-9.8-2.93-19.91-4.7-30.07-5.83-7.5-.84-15.04-1.15-22.58-.76-19.99,1.05-39.86,5.38-58.06,13.78-11.3,5.21-21.93,12.59-30.26,21.87-10.84,12.08-18.07,27.12-21.27,43-1.32,6.6-2.08,13.37-2.28,20.11-.07,2.5,1.07,5.06,2.83,6.82,2.63,2.63,5.88,3.06,9.38,2.48.6-.1,1.21-.18,1.81-.26-.86.12-1.71.23-2.56.34,11.33-1.51,22.78-2.21,34.18-2.82,28.77-1.54,57.61-1.81,86.42-1.61,24.24.17,48.51.73,72.7,2.45,7.08.5,14.19,1.07,21.23,2.01-.85-.11-1.71-.22-2.56-.34.51.07,1.03.13,1.55.22,2.67.43,5.01.45,7.43-.97,2.16-1.27,3.77-3.36,4.43-5.77.69-2.49.33-5.2-.97-7.44-1.15-1.96-3.42-4.05-5.76-4.43-7.57-1.22-15.28-1.83-22.92-2.41-23.16-1.75-46.41-2.34-69.63-2.58-29.54-.3-59.11-.06-88.61,1.4-12.27.6-24.6,1.32-36.79,2.88-1.69.23-3.39.42-5.08.7,4.07,3.1,8.14,6.2,12.21,9.31.11-3.86.42-7.7.93-11.52-.12.85-.23,1.71-.35,2.56,1.1-8,3.14-15.85,6.27-23.3-.32.77-.65,1.54-.98,2.3,2.63-6.16,6-11.97,10.07-17.3-.5.66-1,1.3-1.51,1.95,3.99-5.15,8.61-9.73,13.76-13.73-.65.5-1.3,1.01-1.95,1.51,6.56-5.05,13.82-9.08,21.42-12.32-.77.33-1.54.65-2.3.98,11.73-4.95,24.19-8.01,36.77-9.72-.85.12-1.71.23-2.56.35,7.97-1.06,16.02-1.62,24.06-1.33,5.14.19,10.27.65,15.36,1.33-.85-.12-1.71-.23-2.57-.35,12.6,1.7,25.05,4.77,36.77,9.72-.77-.32-1.54-.65-2.3-.98,7.61,3.24,14.86,7.28,21.42,12.32-.65-.5-1.3-1-1.96-1.51,5.16,4,9.77,8.58,13.77,13.73-.5-.65-1-1.29-1.5-1.95,4.06,5.33,7.43,11.14,10.07,17.3-.33-.77-.65-1.54-.98-2.3,3.14,7.45,5.18,15.3,6.28,23.3-.12-.85-.23-1.71-.35-2.56.51,3.82.81,7.66.93,11.52.16,5.25,4.27,9.65,9.65,9.65s9.8-4.39,9.64-9.65Z"/>
      </g>
      <path class="st3" d="M264.47,98.92c-.47-16.57-4.65-36.81-18.81-54.05C215.75,8.47,155.84,9.64,155.52,9.64c-.33,0-60.25-1.17-90.15,35.23-14.16,17.24-18.34,37.48-18.8,54.05,0,0,28.73-4.67,108.65-4.67s109.25,4.67,109.25,4.67Z"/>
      <path class="st5" d="M155.21,86.72c-74.04,0-104.14,4.01-108.17,4.6-.25,2.6-.4,5.14-.47,7.6,0,0,28.73-4.67,108.65-4.67s109.25,4.67,109.25,4.67c-.07-2.46-.22-5.01-.47-7.6-4.08-.59-34.68-4.6-108.78-4.6Z"/>
      <path class="st9" d="M65.37,52.04c29.9-36.4,89.82-35.24,90.15-35.23.32,0,60.23-1.17,90.14,35.23,12.23,14.88,17.01,32,18.39,47.05.28-.12.42-.17.42-.17-.47-16.57-4.65-36.81-18.81-54.05C215.75,8.47,155.84,9.64,155.52,9.64c-.33,0-60.25-1.17-90.15,35.23-14.16,17.24-18.34,37.48-18.8,54.05,0,0,.14.06.42.18,1.38-15.06,6.16-32.18,18.39-47.06Z"/>
      <g>
        <g>
          <path class="st7" d="M174.87,34.53s-3.44.96-9.76-.47c-6.1-1.39-9.36-5.01-9.58-5.26v-.02s0,0-.01.01c0,0,0-.01,0-.01v.02c-.22.25-3.48,3.87-9.59,5.26-6.32,1.44-9.76.47-9.76.47,0,0-2.53,27.74,5.61,36.17,6.47,6.72,13.76,8.48,13.76,8.48.43-.1,7.27-1.76,13.74-8.48,8.13-8.43,5.61-36.17,5.61-36.17Z"/>
          <path d="M172.31,25.24c-.31.08-.63.13-.95.17.85-.11,1.71-.23,2.56-.34-1.95.24-3.94.14-5.89-.12.86.12,1.71.24,2.57.35-2.17-.31-4.28-.79-6.32-1.62.77.32,1.54.65,2.3.97-1.56-.68-3.04-1.51-4.4-2.54.65.5,1.3,1,1.95,1.51-.63-.5-1.25-1.02-1.78-1.62.94,2.27,1.88,4.54,2.82,6.82v-.02c0-3.4-1.84-6.61-4.78-8.33-3.46-2.03-8.98-1.8-11.68,1.51,0,0-.01.01-.01.02h13.64s-.01-.01-.01-.02c-2.28-2.51-6.19-3.36-9.39-2.48-4.14,1.13-7.08,5.01-7.08,9.3v.02c.94-2.27,1.88-4.55,2.82-6.82-.54.59-1.15,1.12-1.79,1.62.65-.5,1.3-1,1.95-1.51-1.36,1.03-2.83,1.87-4.39,2.54.77-.32,1.54-.65,2.3-.97-2.03.83-4.15,1.31-6.31,1.62.85-.11,1.71-.23,2.56-.35-1.96.26-3.93.36-5.89.12.85.12,1.71.23,2.56.34-.31-.04-.63-.09-.95-.17-2.49-.68-5.19-.34-7.44.97-3.13,1.84-4.46,4.85-4.77,8.33-.65,7.08-.58,14.36.31,21.41.77,6.14,1.84,12.47,5.19,17.81,2.41,3.85,5.93,6.7,9.58,9.32,2.89,2.07,6.15,3.53,9.45,4.8,2.41.91,4.83,1.23,7.42.52,2.63-.71,5.19-1.89,7.59-3.17,3.75-2,7.28-4.76,10.18-7.85,2.56-2.71,3.98-5.69,5.34-9.11,2.12-5.3,2.69-11.33,3.08-16.96.31-4.39.29-8.8.09-13.19-.06-1.19-.12-2.38-.23-3.57-.24-2.64-.89-4.88-2.82-6.81-1.81-1.8-4.27-2.83-6.82-2.83-4.9,0-10.12,4.4-9.65,9.64.65,7.19.58,14.57-.34,21.72.12-.85.22-1.71.34-2.56-.46,3.39-1.14,6.77-2.44,9.93.32-.76.65-1.53.97-2.3-.55,1.3-1.21,2.54-2.07,3.67.5-.65,1-1.3,1.51-1.95-1.25,1.57-2.83,2.9-4.4,4.14.65-.5,1.3-1,1.95-1.5-2.16,1.64-4.48,3.05-6.98,4.12.77-.33,1.54-.65,2.3-.97-1,.42-2.04.82-3.11,1.07h5.13c-.97-.24-1.92-.62-2.83-.99.77.33,1.54.65,2.3.97-2.6-1.11-5.04-2.54-7.3-4.25.65.5,1.3,1,1.95,1.51-1.56-1.22-3.12-2.53-4.36-4.1.5.65,1.01,1.3,1.51,1.95-.85-1.12-1.52-2.37-2.08-3.67.32.77.65,1.54.97,2.3-1.31-3.16-1.99-6.54-2.45-9.93.12.85.24,1.71.35,2.56-.93-7.15-1-14.53-.35-21.72-4.07,3.11-8.14,6.2-12.21,9.3,5.13,1.39,11.26.6,16.26-.84,3.07-.89,6.18-2.3,8.73-4.26,3.39-2.58,6.56-5.08,6.56-9.97-5.49,2.27-10.98,4.55-16.46,6.82,0,0,0,0,.01.01,3.28,3.62,10.41,3.94,13.64,0,0,0,0-.01.01-.01-5.5-2.27-10.98-4.55-16.47-6.82,0,3.55,1.97,6.39,4.62,8.46,3.22,2.53,6.33,4.31,10.26,5.63,3.47,1.17,7.38,1.63,11.03,1.63,1.87,0,3.86-.18,5.65-.66,5.07-1.37,8.13-6.82,6.74-11.86-1.4-5.09-6.79-8.11-11.86-6.74Z"/>
        </g>
        <path class="st2" d="M174.87,34.53s-3.44.96-9.76-.47c-6.1-1.39-9.36-5.01-9.58-5.26v-.02s0,0-.01.01c0,0,0-.01,0-.01v.02c-.22.25-3.48,3.87-9.59,5.26-6.32,1.44-9.76.47-9.76.47,0,0-2.53,27.74,5.61,36.17,6.47,6.72,13.76,8.48,13.76,8.48.43-.1,7.27-1.76,13.74-8.48,8.13-8.43,5.61-36.17,5.61-36.17Z"/>
        <path class="st13" d="M144.67,71.67c-7.23-7.51-6.86-28.76-6.43-36.89-1.36-.09-2.08-.28-2.08-.28,0,0-2.53,27.74,5.61,36.17,4.66,4.85,9.77,7.12,12.24,8-2.76-1.45-6.15-3.68-9.34-7Z"/>
      </g>
      <path class="st11" d="M174.87,34.53s-3.44.96-9.76-.47c-6.1-1.39-9.36-5.01-9.58-5.26v-.02s0,0-.01.01h0v50.4h.01c.43-.1,7.27-1.76,13.74-8.48,8.13-8.43,5.61-36.17,5.61-36.17Z"/>
      <path class="st12" d="M166.35,71.69c7.23-7.51,6.86-28.76,6.43-36.9,1.36-.08,2.07-.28,2.07-.28,0,0,2.53,27.74-5.6,36.17-4.67,4.85-9.77,7.12-12.24,8,2.76-1.45,6.14-3.68,9.34-7Z"/>
    </g>
    <g>
      <path class="st6" d="M219.37,37.72c7.91,4.27,12.78,10.61,10.86,14.17-1.92,3.57-9.89,2.99-17.81-1.26-7.92-4.27-12.79-10.61-10.86-14.18,1.92-3.56,9.89-2.98,17.81,1.28Z"/>
      <path class="st6" d="M237.02,57.52c-.27,1.35-1.58,2.21-2.92,1.94-1.35-.28-2.22-1.58-1.95-2.93.28-1.34,1.59-2.21,2.93-1.94,1.34.27,2.22,1.58,1.94,2.93Z"/>
    </g>
    <polygon class="st11" points="196.49 272.14 115.12 272.14 115.61 270.43 195.86 270.43 196.49 272.14"/>
    <polygon class="st11" points="190.36 253.36 120.77 253.36 121.3 251.66 189.87 251.66 190.36 253.36"/>
    <polygon class="st2" points="122.25 289.1 134.26 289.1 130.86 293.31 122.31 293.31 122.25 289.1"/>
    <polygon class="st2" points="188.78 289.1 176.76 289.1 180.16 293.31 188.7 293.31 188.78 289.1"/>
    <polygon class="st2" points="105.06 245.04 113.65 250.78 115.68 244.17 108.51 239.39 105.06 245.04"/>
    <polygon class="st2" points="206.11 245.04 197.53 250.78 195.5 244.17 202.67 239.39 206.11 245.04"/>
  </g>
</svg>