<?xml version="1.0" encoding="UTF-8"?>
<svg id="Layer_1" xmlns="http://www.w3.org/2000/svg" version="1.1" viewBox="0 0 229.68 310.6">
  <!-- Generator: Adobe Illustrator 29.6.1, SVG Export Plug-In . SVG Version: 2.1.1 Build 9)  -->
  <defs>
    <style>
      .st0 {
        fill: #f15a29;
      }

      .st1 {
        fill: #ffd7c3;
      }

      .st2, .st3 {
        fill-rule: evenodd;
      }

      .st2, .st4 {
        fill: #fff;
      }

      .st5 {
        fill: #ffce00;
      }

      .st6 {
        fill: #511703;
      }

      .st7, .st3 {
        fill: #000002;
      }

      .st8 {
        fill: #fff4c7;
      }

      .st9 {
        fill: #125693;
      }

      .st10 {
        fill: #ffb000;
      }

      .st11 {
        fill: #ed1c24;
      }

      .st12 {
        fill: #ffdcb6;
      }

      .st13 {
        fill: #f1f2f2;
      }

      .st14 {
        fill: #f38b9e;
      }

      .st15 {
        fill: #6f2a0e;
      }

      .st16 {
        fill: #f7941e;
      }

      .st17 {
        fill: #fde5d2;
      }

      .st18 {
        fill: #82442f;
      }

      .st19 {
        fill: #fbf0dc;
      }

      .st20 {
        fill: #ffc0a4;
      }

      .st21 {
        fill: #0b1c39;
      }

      .st22 {
        fill: #2e74bc;
      }

      .st23 {
        fill: #b7b6b2;
      }

      .st24 {
        fill: #e6e7e8;
      }

      .st25 {
        fill: #caebff;
      }
    </style>
  </defs>
  <g>
    <g>
      <g>
        <g>
          <polygon class="st17" points="156.34 275.83 165.06 278.47 168.08 283.81 166.88 298 162.67 301.25 152.74 302.02 156.34 275.83"/>
          <path d="M154.63,282.06c2.9.88,5.81,1.76,8.71,2.64-1.29-.99-2.58-1.98-3.86-2.97,1.01,1.78,2.02,3.56,3.03,5.34-.3-1.09-.59-2.17-.88-3.26-.4,4.73-.8,9.46-1.2,14.19.63-1.53,1.26-3.05,1.89-4.57-1.4,1.08-2.81,2.17-4.21,3.26,1.52-.63,3.05-1.26,4.57-1.89-3.31.25-6.62.51-9.93.77,2.07,2.73,4.16,5.46,6.23,8.18,1.2-8.73,2.41-17.46,3.6-26.19.25-1.81.32-3.33-.65-4.98-.85-1.45-2.25-2.53-3.87-2.97-3.05-.84-7.46,1.02-7.94,4.52-1.2,8.73-2.41,17.46-3.61,26.18-.25,1.81-.31,3.34.65,4.98,1.09,1.85,3.36,3.37,5.58,3.2,3.14-.24,6.28-.49,9.42-.73.16-.01.32-.03.48-.04,1.97-.16,3.08-.73,4.61-1.91.6-.46,1.2-.92,1.79-1.38,2.4-1.85,4.02-3.06,4.32-6.58.29-3.43.58-6.85.88-10.28.1-1.24.21-2.46.31-3.7.18-2.18-1.6-4.58-2.65-6.43-.96-1.71-1.78-3.5-3.57-4.54-1.08-.63-2.46-.94-3.66-1.29-2.2-.67-4.4-1.33-6.6-2-3.37-1.02-7.03,1.18-7.94,4.52-.95,3.46,1.14,6.93,4.51,7.95Z"/>
        </g>
        <polygon class="st15" points="156.34 275.83 165.06 278.47 168.08 283.81 166.88 298 162.67 301.25 152.74 302.02 156.34 275.83"/>
      </g>
      <g>
        <g>
          <polygon class="st11" points="170.07 290.18 164.54 291.32 157.83 287.15 158.06 275.08 166.82 277.46 170.21 282.6 170.07 290.18"/>
          <path d="M168.69,285.19c-1.85.38-3.68.76-5.53,1.13,1.33.18,2.66.35,3.98.53-2.23-1.39-4.47-2.78-6.71-4.16.85,1.49,1.71,2.97,2.56,4.46.08-4.02.15-8.04.23-12.07-2.18,1.67-4.36,3.33-6.54,4.99,2.92.8,5.84,1.59,8.77,2.38-1.03-.79-2.05-1.58-3.09-2.37,1.13,1.71,2.26,3.42,3.39,5.14-.24-.87-.47-1.74-.7-2.61-.05,2.52-.1,5.04-.14,7.57-.05,2.82,2.39,5.17,5.17,5.17s5.11-2.35,5.17-5.17c.04-2.2.08-4.39.12-6.58.03-1.37-.07-2.67-.87-3.88-.73-1.11-1.47-2.22-2.21-3.33-1.07-1.63-2.04-3.35-4.1-3.91-.79-.21-1.56-.42-2.34-.63-2.14-.58-4.29-1.16-6.43-1.74-3.28-.89-6.47,1.63-6.53,4.98-.05,2.31-.09,4.62-.13,6.93-.06,3.39-.86,7.54,2.55,9.66,2.16,1.34,4.32,2.69,6.48,4.02,2.62,1.63,6.82.06,9.66-.53,2.76-.56,4.32-3.78,3.6-6.36-.78-2.85-3.6-4.18-6.36-3.61Z"/>
        </g>
        <polygon class="st15" points="170.07 290.18 164.54 291.32 157.83 287.15 158.06 275.08 166.82 277.46 170.21 282.6 170.07 290.18"/>
        <polygon class="st18" points="169.24 283.22 165.86 278.09 158.06 275.08 166.82 277.46 170.21 282.6 170.07 290.18 169.24 283.22"/>
        <g>
          <g>
            <path class="st11" d="M163.18,285.04c.04.77.69,1.35,1.45,1.32.76-.04,1.34-.69,1.31-1.45-.03-.77-.69-1.36-1.45-1.32-.76.04-1.36.69-1.32,1.45Z"/>
            <path d="M160.6,285.04c.12,1.09.43,1.92,1.16,2.74.7.79,1.85,1.16,2.88,1.16,2.19.01,3.89-1.91,3.89-4.03.02-2.19-1.91-3.89-4.03-3.9-2.19,0-3.9,1.91-3.9,4.03,0,1.41,1.18,2.59,2.59,2.59s2.58-1.17,2.59-2.59c.01-.28,0-.2-.05.25-.19.39-.21.47-.08.23-.12.23-.3.4-.53.54.05-.03.09-.06.13-.08-.23.14-.48.21-.74.2.28,0,.2,0-.25-.04-.39-.19-.46-.22-.23-.08-.22-.13-.4-.3-.53-.53.03.04.05.08.08.12-.14-.22-.21-.47-.21-.74,0,.28.01.2.05-.24.18-.39.21-.47.08-.24.13-.23.3-.4.53-.53-.04.02-.08.04-.13.07.23-.14.47-.21.75-.2-.29-.01-.2,0,.24.04.39.19.46.21.22.08.23.13.41.3.54.53-.03-.04-.05-.08-.07-.13.14.23.21.47.2.74-.15-1.4-1.07-2.59-2.59-2.59-1.29,0-2.73,1.18-2.59,2.59Z"/>
          </g>
          <path class="st6" d="M163.18,285.04c.04.77.69,1.35,1.45,1.32.76-.04,1.34-.69,1.31-1.45-.03-.77-.69-1.36-1.45-1.32-.76.04-1.36.69-1.32,1.45Z"/>
          <path class="st15" d="M165.53,284.91c-.04-.66-.53-1.19-1.16-1.29.04-.01.08-.02.13-.02.76-.04,1.42.55,1.45,1.32.03.76-.55,1.41-1.31,1.45-.11,0-.2,0-.3-.02.7-.1,1.22-.7,1.19-1.43Z"/>
        </g>
      </g>
    </g>
    <polygon class="st18" points="167.01 296.09 166.88 298 162.67 301.25 156.51 301.79 161.99 300.27 165.58 297.49 165.63 296.32 167.01 296.09"/>
  </g>
  <g>
    <g>
      <g>
        <g>
          <polygon class="st17" points="73.69 275.83 64.98 278.47 61.95 283.81 63.15 298 67.36 301.25 77.29 302.02 73.69 275.83"/>
          <path d="M71.97,269.6c-2.87.87-5.75,1.74-8.64,2.62-3.08.93-4.16,3.38-5.58,5.89-1.02,1.79-2.44,3.77-2.25,5.92.3,3.47.59,6.96.88,10.44.1,1.17.2,2.33.29,3.5.32,3.71,2.35,4.94,4.9,6.9.4.3.79.6,1.17.9,1.57,1.22,2.73,1.79,4.75,1.95,1.02.07,2.04.16,3.07.24,2.24.17,4.49.34,6.73.52,1.64.12,3.44-.76,4.57-1.89,1.79-1.79,1.99-3.92,1.66-6.29-1.2-8.72-2.4-17.45-3.6-26.18-.48-3.5-4.9-5.35-7.95-4.52-1.62.45-3.01,1.53-3.86,2.97-.96,1.65-.89,3.17-.65,4.98,1.21,8.72,2.41,17.45,3.61,26.19,2.07-2.72,4.15-5.46,6.22-8.18-3.31-.25-6.62-.51-9.93-.77,1.52.63,3.05,1.26,4.57,1.89-1.41-1.09-2.81-2.17-4.22-3.26.63,1.52,1.26,3.05,1.89,4.57-.4-4.73-.8-9.46-1.2-14.19-.29,1.09-.58,2.17-.88,3.26,1.01-1.78,2.01-3.56,3.02-5.34-1.28.99-2.57,1.98-3.86,2.97,2.9-.88,5.81-1.77,8.72-2.64,3.37-1.02,5.46-4.49,4.51-7.95-.91-3.33-4.58-5.54-7.95-4.52Z"/>
        </g>
        <polygon class="st15" points="73.69 275.83 64.98 278.47 61.95 283.81 63.15 298 67.36 301.25 77.29 302.02 73.69 275.83"/>
      </g>
      <g>
        <g>
          <polygon class="st11" points="59.96 290.18 65.49 291.32 72.19 287.15 71.98 275.08 63.21 277.46 59.82 282.6 59.96 290.18"/>
          <path d="M58.58,295.16c2.79.58,7.04,2.16,9.6.57,2.17-1.34,4.32-2.68,6.49-4.02,1.98-1.23,2.73-3.13,2.69-5.33-.02-1.37-.05-2.74-.08-4.12-.04-2.39-.09-4.78-.13-7.18-.06-3.35-3.25-5.88-6.54-4.98-2.07.56-4.13,1.12-6.2,1.68-.84.23-1.69.47-2.53.69-2.07.57-3.05,2.28-4.13,3.91-.71,1.07-1.41,2.15-2.13,3.23-.77,1.16-.96,2.45-.94,3.81.04,2.25.08,4.5.13,6.76.05,2.82,2.31,5.17,5.17,5.17s5.22-2.35,5.16-5.17c-.04-2.53-.09-5.05-.13-7.57-.24.87-.47,1.74-.71,2.61,1.13-1.71,2.26-3.42,3.39-5.14-1.03.8-2.06,1.58-3.09,2.37,2.92-.79,5.85-1.58,8.77-2.38-2.18-1.66-4.37-3.32-6.54-4.99.07,4.03.15,8.05.22,12.07.85-1.49,1.71-2.97,2.56-4.46-2.24,1.38-4.47,2.77-6.71,4.16,1.33-.17,2.66-.35,3.99-.53-1.85-.38-3.69-.76-5.54-1.13-2.76-.57-5.57.76-6.36,3.61-.71,2.57.85,5.79,3.6,6.36Z"/>
        </g>
        <polygon class="st15" points="59.96 290.18 65.49 291.32 72.19 287.15 71.98 275.08 63.21 277.46 59.82 282.6 59.96 290.18"/>
        <polygon class="st18" points="60.78 283.22 64.18 278.09 71.98 275.08 63.21 277.46 59.82 282.6 59.96 290.18 60.78 283.22"/>
        <g>
          <g>
            <path class="st11" d="M66.84,285.04c-.03.77-.68,1.35-1.45,1.32-.76-.04-1.35-.69-1.31-1.45.04-.77.69-1.36,1.45-1.32.76.04,1.35.69,1.31,1.45Z"/>
            <path d="M64.26,285.04c-.01-.27.05-.51.2-.74-.14.24-.09.17.15-.18.35-.24.41-.29.18-.16.12-.04.23-.1.35-.15.45-.04.53-.06.25-.04.27-.01.51.06.74.2-.22-.14-.17-.09.19.15.24.35.29.42.15.19.05.12.1.24.16.36.04.44.05.53.05.24,0,.27-.06.51-.2.74.14-.23.09-.17-.16.18-.35.24-.41.3-.18.15-.12.06-.23.11-.35.16-.45.03-.53.05-.25.04-.27.01-.51-.06-.74-.2.23.14.17.09-.18-.16-.24-.35-.3-.4-.15-.18-.06-.12-.1-.23-.16-.35-.03-.45-.05-.53-.04-.25,0,1.41,1.17,2.59,2.58,2.59s2.59-1.17,2.59-2.59c0-1.03-.37-2-1.06-2.77-.76-.83-1.74-1.14-2.83-1.26-.98-.1-2.05.42-2.77,1.07-.84.76-1.15,1.74-1.26,2.83-.1.99.42,2.06,1.07,2.77.76.83,1.74,1.14,2.83,1.26.99.11,2.06-.42,2.77-1.06.84-.76,1.15-1.75,1.26-2.83.15-1.4-1.28-2.59-2.59-2.59-1.52,0-2.44,1.19-2.58,2.59Z"/>
          </g>
          <path class="st6" d="M66.84,285.04c-.03.77-.68,1.35-1.45,1.32-.76-.04-1.35-.69-1.31-1.45.04-.77.69-1.36,1.45-1.32.76.04,1.35.69,1.31,1.45Z"/>
          <path class="st15" d="M64.51,284.91c.03-.66.53-1.19,1.15-1.29-.04-.01-.08-.02-.12-.02-.76-.04-1.41.55-1.45,1.32-.04.76.55,1.41,1.31,1.45.1,0,.2,0,.3-.02-.7-.1-1.23-.7-1.19-1.43Z"/>
        </g>
      </g>
    </g>
    <polygon class="st18" points="63.02 296.09 63.15 298 67.36 301.25 73.52 301.79 68.05 300.27 64.45 297.49 64.41 296.32 63.02 296.09"/>
  </g>
  <g>
    <g>
      <g>
        <path class="st1" d="M75.34,232.73s-27.84,33.06-15.76,40.19c12.08,7.13,28.99-23.77,28.99-23.77l-13.23-16.42Z"/>
        <path d="M72.83,230.22c-3.36,3.99-6.47,8.21-9.39,12.53-4.57,6.76-9.25,14.33-10.34,22.57-.44,3.38.42,7.15,3.05,9.47,3.2,2.82,7.69,3.41,11.65,1.98,4.14-1.49,7.61-4.41,10.62-7.54,3.08-3.18,5.79-6.76,8.3-10.41,1.76-2.54,3.43-5.17,4.92-7.87.83-1.53.48-3.02-.56-4.31-4.41-5.47-8.82-10.95-13.23-16.42-1.21-1.51-3.76-1.26-5.02,0-1.48,1.48-1.21,3.52,0,5.02,4.41,5.48,8.81,10.95,13.22,16.43-.18-1.44-.37-2.88-.55-4.31-.84,1.54-1.77,3.04-2.7,4.51-.96,1.54-1.97,3.04-3.02,4.52-.57.81-1.15,1.6-1.74,2.39-.16.2-.31.4-.46.61.57-.75.02-.04-.08.09-.38.47-.76.95-1.15,1.41-1.38,1.67-2.83,3.27-4.41,4.76-.72.69-1.47,1.34-2.23,1.96-.65.54.62-.47-.04.04-.19.14-.38.28-.57.42-.44.31-.89.61-1.34.88-.38.24-.76.45-1.15.64-.19.1-.39.19-.58.28-.7.33.79-.31.08-.03-.37.14-.76.27-1.14.38-.33.1-1.88.32-.58.17-.38.05-.75.05-1.13.05-.19,0-.38-.02-.57-.04,1.13.1.48.06.2.01-.38-.07-.74-.19-1.1-.32-.69-.24.79.36.13.04-.23-.1-.46-.24-.67-.38-.93-.56.44.43-.17-.12-.22-.2-.43-.43-.62-.66.81.99.15.15-.02-.15-.51-.93.22.75-.1-.27-.09-.3-.16-.61-.21-.92-.12-.64.11.97.05.3-.02-.17-.03-.33-.04-.5-.02-.35,0-.69,0-1.04.02-.33.21-1.82.02-.53.24-1.72.77-3.4,1.37-5.03.16-.43.33-.86.51-1.29-.42,1.02.19-.43.3-.67.44-.97.91-1.92,1.4-2.86,1.92-3.71,4.18-7.26,6.55-10.7,1.05-1.54,2.14-3.05,3.24-4.54.46-.62.93-1.23,1.39-1.85.11-.14.22-.28.32-.42.42-.53-.55.71-.14.18.23-.28.44-.56.67-.85.69-.88,1.39-1.76,2.11-2.62,1.25-1.48,1.46-3.57,0-5.02-1.28-1.28-3.78-1.48-5.02,0Z"/>
      </g>
      <g>
        <rect class="st7" x="65.88" y="246.72" width="6.91" height="19.73" transform="translate(-183.8 175.57) rotate(-57.13)"/>
        <path d="M75.99,265.96l-17.93-11.58,4.63-7.16,17.93,11.58-4.63,7.16ZM60.29,253.89l15.22,9.84,2.88-4.46-15.22-9.83-2.88,4.45Z"/>
      </g>
      <path class="st4" d="M66.82,250.65l8.16,5.33,3.6-13.58-3.22-4.04s-3.73,4.66-5.52,7.44c-1.78,2.78-3.02,4.85-3.02,4.85Z"/>
    </g>
    <g>
      <g>
        <rect class="st4" x="64.41" y="249.31" width="7.76" height="17.57" transform="translate(-188.56 185.25) rotate(-59.35)"/>
        <path d="M75.17,263.68c-5.04-2.98-10.08-5.97-15.11-8.96.3,1.18.62,2.36.92,3.54,1.32-2.22,2.64-4.45,3.95-6.67-1.18.31-2.36.62-3.54.93,5.04,2.98,10.08,5.97,15.12,8.96-.31-1.18-.62-2.36-.92-3.54-1.32,2.22-2.64,4.45-3.95,6.67-1.71,2.87,2.76,5.47,4.46,2.6,1.32-2.22,2.64-4.45,3.95-6.67.72-1.22.28-2.82-.93-3.54-5.04-2.98-10.07-5.97-15.11-8.96-1.22-.72-2.82-.28-3.54.92-1.32,2.23-2.63,4.45-3.96,6.67-.72,1.22-.27,2.83.94,3.54,5.04,2.99,10.08,5.98,15.11,8.97,2.88,1.7,5.47-2.77,2.61-4.47Z"/>
      </g>
      <rect class="st24" x="67.31" y="252.74" width=".78" height="12.04" transform="translate(-189.65 185.9) rotate(-59.53)"/>
    </g>
    <path class="st24" d="M74.64,239.07s-2.48,3.08-3.91,5.25c-1.45,2.18-3.58,5.51-3.58,5.51l7.75,4.7-5.25-5.06s.86-1.53,2.55-4.34c1.68-2.79,3.91-5.77,3.91-5.77l-1.46-.29Z"/>
  </g>
  <g>
    <g>
      <path class="st7" d="M180.07,305.91c0,1.92-29.21,3.48-65.23,3.48s-65.23-1.56-65.23-3.48,29.21-3.49,65.23-3.49,65.23,1.56,65.23,3.49Z"/>
      <path d="M114.83,310.6c-17.45,0-33.85-.36-46.19-1.02-20.25-1.08-20.25-2.28-20.25-3.67s0-2.59,20.25-3.68c12.34-.66,28.75-1.02,46.19-1.02s33.85.36,46.19,1.02c20.25,1.09,20.25,2.34,20.25,3.68s0,2.59-20.25,3.67c-12.34.66-28.75,1.02-46.19,1.02ZM53.68,305.91c7.87,1.11,29.36,2.28,61.16,2.28s53.29-1.16,61.16-2.28c-7.87-1.11-29.36-2.28-61.16-2.28s-53.29,1.17-61.16,2.28Z"/>
    </g>
    <g>
      <path class="st22" d="M82.41,231.06s-12.35,68.35-3.95,71.28c8.4,2.93,16.18-10.45,16.18-10.45,0,0,6.69,2.05,18.23,2.25,11.54.21,20.83-2.39,20.83-2.39,0,0,8.6,14.89,17.89,11.82,9.28-3.08-5.47-72.69-5.47-72.69l-63.71.17Z"/>
      <path d="M78.98,230.11c-2.08,11.51-3.78,23.1-5.16,34.71-.96,8.06-1.79,16.19-1.84,24.33-.02,3.17.12,6.37.67,9.51.44,2.52,1.38,4.89,3.48,6.46,1.92,1.43,4.82,1.29,7.04.96,2.86-.43,5.44-2.22,7.61-4.02,2.74-2.28,5.14-5.3,6.93-8.37-1.34.54-2.68,1.09-4.01,1.63,1.6.49,3.27.79,4.92,1.07,4.71.81,9.47,1.21,14.25,1.31,7.22.14,14.8-.58,21.78-2.52-1.34-.54-2.67-1.09-4.01-1.63,1.54,2.67,3.52,5.15,5.63,7.38,3.47,3.66,8.39,7.08,13.69,6.55,1.89-.19,3.76-.64,5.12-2.05.95-1,1.5-2.18,1.96-3.46.92-2.54,1.06-5.44,1.15-8.12.26-7.67-.66-15.4-1.64-23-1.09-8.49-2.45-16.93-3.98-25.34-.94-5.2-1.92-10.4-3.01-15.57-.33-1.53-1.92-2.62-3.43-2.61-11.91.03-23.81.06-35.72.09-9.33.02-18.66.05-27.99.07-4.58.01-4.59,7.12,0,7.11,11.9-.04,23.81-.07,35.72-.1,9.33-.03,18.66-.05,27.99-.08-1.14-.87-2.28-1.74-3.42-2.61,2.35,11.1,4.32,22.29,5.97,33.51.16,1.03.3,2.06.44,3.1.04.27.26,1.91.12.86.08.61.16,1.2.24,1.81.27,2.11.51,4.22.74,6.34.4,3.87.73,7.76.85,11.65.06,1.64.06,3.29,0,4.94-.02.7-.06,1.4-.11,2.09-.03.32-.06.63-.1.96-.01.15-.03.31-.05.46-.08.61.16-1.06.03-.2-.16,1.03-.38,2.07-.76,3.04-.1.24.46-.99.06-.2-.08.16-.18.32-.28.47-.36.55.71-.82.19-.26-.53.58.18-.11.26-.16-.29.2-.95.4.4-.13-.2.08-.41.13-.61.18-.18.06-.36.09-.54.12.49-.05.54-.06.13-.02-.53.06-1.07.03-1.6-.02.96.09.1,0-.1-.05-.35-.08-.69-.18-1.03-.29-.15-.05-1-.4-.16-.04-.25-.11-.5-.24-.74-.36-.58-.29-1.13-.63-1.67-1-.24-.16-.47-.32-.69-.49.69.51-.06-.06-.16-.14-.51-.42-.99-.87-1.47-1.32-.84-.8-1.62-1.67-2.36-2.56-.17-.21-1.16-1.46-.5-.61-.31-.4-.6-.8-.89-1.21-.54-.76-1.07-1.54-1.54-2.36-.8-1.37-2.48-2.06-4.01-1.63-1.95.54-3.94.91-5.92,1.24-2.21.38-3.53.53-5.95.74-2.67.24-5.34.32-8.02.28-2.54-.03-5.09-.18-7.62-.43-.5-.05-1.01-.1-1.52-.16-.13-.02-1.54-.2-.8-.09-.9-.12-1.8-.27-2.7-.42-1.56-.27-3.14-.57-4.65-1.03-1.52-.46-3.23.29-4.02,1.63-.47.83-1.02,1.61-1.58,2.37-.13.17-.25.34-.38.51-.48.63.51-.65,0,0-.31.39-.63.78-.96,1.15-.77.89-1.6,1.73-2.48,2.52-.21.18-.42.37-.64.55-.73.6.59-.43-.18.13-.44.33-.92.63-1.4.91-.24.14-.49.27-.73.39-.14.07-.99.41-.15.08-.58.23-1.19.38-1.8.5.94-.17.09-.03-.12-.02-.27.02-.54,0-.8-.02-.92-.05.77.15-.14-.04-.28-.06-.55-.14-.82-.24-.23-.08,1.05.55.43.15.06.04.81.74.28.17-.42-.46.64.92.21.27-.1-.15-.18-.31-.27-.47-.39-.76.34.88.08.21-.09-.24-.18-.49-.25-.74-.14-.49-.25-.98-.35-1.48-.05-.28-.1-.55-.14-.84-.04-.27-.12-.89.05.36-.02-.21-.05-.41-.08-.62-.36-3.17-.33-6.38-.24-9.57.25-8.33,1.17-16.64,2.21-24.9.13-1.02.25-2.04.39-3.06.03-.25.06-.5.1-.76.12-.88-.11.82,0-.06.08-.58.16-1.16.24-1.74.28-1.98.56-3.97.85-5.95.5-3.37,1.02-6.73,1.56-10.07.43-2.62.86-5.22,1.33-7.83.34-1.91-.49-3.83-2.49-4.38-1.73-.48-4.02.58-4.36,2.48Z"/>
    </g>
  </g>
  <g>
    <g>
      <path class="st1" d="M153.15,232.73s27.84,33.06,15.75,40.19c-12.08,7.13-28.98-23.77-28.98-23.77l13.23-16.42Z"/>
      <path d="M150.64,235.24c.95,1.13,1.86,2.3,2.77,3.47.4.53-.55-.71-.13-.18.1.14.21.28.31.42.23.3.46.59.68.89.54.7,1.06,1.42,1.59,2.14,1.14,1.56,2.25,3.15,3.33,4.76,2.33,3.48,4.53,7.07,6.37,10.84.21.44.42.88.62,1.32.11.24.72,1.69.3.67.38.91.72,1.82,1.02,2.75.26.8.48,1.61.66,2.42.08.38.15.77.21,1.15-.2-1.29,0,.2.02.53.02.35.02.69,0,1.04-.01.17-.02.33-.04.5-.05.66.15-.95.04-.3-.04.32-.13.62-.21.92-.3,1.03.39-.67-.1.27-.15.29-.82,1.18-.02.15-.19.24-.4.46-.62.66-.59.56.74-.46-.17.12-.16.1-.33.2-.5.29-.85.45.52-.18-.05.04-.35.14-.72.23-1.09.32-.27.05-.96.12.2-.01-.18.01-.37.02-.56.04-.38.02-.76-.01-1.13-.05,1.28.13-.24-.07-.58-.17-.39-.1-.77-.24-1.15-.38-.71-.27.78.35.08.03-.2-.09-.39-.18-.58-.28-.87-.43-1.7-.96-2.49-1.52-.2-.14-.38-.28-.58-.42-.67-.5.62.49-.03-.04-.39-.3-.76-.62-1.13-.94-.83-.73-1.62-1.5-2.39-2.28-1.52-1.55-2.93-3.21-4.27-4.91-.1-.13-.65-.84-.07-.09-.16-.2-.32-.4-.47-.61-.31-.4-.6-.8-.89-1.2-.61-.84-1.21-1.69-1.79-2.54-.95-1.39-1.87-2.81-2.75-4.25-.7-1.13-1.39-2.27-2.03-3.44-.18,1.44-.37,2.88-.55,4.31,4.41-5.48,8.81-10.95,13.23-16.43,1.21-1.5,1.48-3.55,0-5.02-1.26-1.26-3.81-1.51-5.02,0-4.41,5.47-8.82,10.95-13.23,16.42-1.04,1.29-1.39,2.79-.56,4.31,2.82,5.14,6.23,10.03,9.93,14.58,4.89,5.99,12.67,13.95,21.26,11.61,3.65-1,6.6-3.99,7.22-7.75.61-3.79-.3-7.55-1.68-11.06-3-7.69-7.68-14.68-12.59-21.27-1.72-2.32-3.48-4.62-5.33-6.83-1.25-1.48-3.75-1.28-5.02,0-1.46,1.45-1.25,3.54,0,5.02Z"/>
    </g>
    <g>
      <rect class="st7" x="149.28" y="253.13" width="19.73" height="6.91" transform="translate(-113.79 127.48) rotate(-32.88)"/>
      <path d="M152.5,265.96l-4.63-7.16,17.92-11.58,4.63,7.16-17.92,11.58ZM150.1,259.28l2.88,4.46,15.21-9.84-2.88-4.45-15.21,9.83Z"/>
    </g>
    <path class="st4" d="M161.66,250.65l-8.16,5.33-3.6-13.58,3.22-4.04s3.74,4.66,5.51,7.44c1.78,2.78,3.03,4.85,3.03,4.85Z"/>
  </g>
  <g>
    <g>
      <polygon class="st17" points="141.56 239 115.16 239 114.94 239 88.53 239 77.1 276.63 114.94 276.63 115.16 276.63 153 276.63 141.56 239"/>
      <path d="M141.56,231.89h-53.03c-3.23,0-5.93,2.18-6.85,5.22-3.64,11.98-7.29,23.98-10.93,35.96-.17.55-.34,1.1-.5,1.66-1.35,4.45,2.32,8.99,6.85,8.99h75.91c4.53,0,8.21-4.55,6.85-8.99-3.64-11.99-7.29-23.98-10.93-35.97-.17-.55-.34-1.1-.5-1.65-1.13-3.71-4.94-6.02-8.75-4.96-3.67,1-6.09,5.03-4.97,8.74,3.65,11.99,7.3,23.98,10.94,35.96.17.55.34,1.11.5,1.66,2.29-3,4.57-6,6.86-9h-75.91c2.29,3,4.57,6,6.85,9,3.65-11.99,7.29-23.98,10.94-35.96.17-.56.33-1.11.5-1.66-2.28,1.74-4.57,3.48-6.85,5.22h53.03c3.87,0,7.11-3.24,7.11-7.11s-3.23-7.11-7.11-7.11Z"/>
    </g>
    <polygon class="st4" points="141.56 239 115.16 239 114.94 239 88.53 239 77.1 276.63 114.94 276.63 115.16 276.63 153 276.63 141.56 239"/>
  </g>
  <g>
    <path class="st1" d="M132.55,230.69c0,9.8-7.93,17.74-17.73,17.74s-17.74-7.94-17.74-17.74,7.94-17.73,17.74-17.73,17.73,7.94,17.73,17.73Z"/>
    <path d="M129.32,230.69c-.05,5.18-2.73,9.86-7.18,12.53-4.49,2.68-10.15,2.57-14.65,0-4.47-2.57-7.13-7.42-7.18-12.53-.05-5.16,2.8-9.9,7.18-12.53,4.49-2.68,10.16-2.57,14.65,0,4.47,2.56,7.14,7.42,7.18,12.53.05,4.17,6.51,4.17,6.47,0-.06-6.26-2.85-12.35-7.78-16.27-5.18-4.12-11.82-5.58-18.27-4.08-5.97,1.39-11.21,5.76-13.83,11.27-2.85,6-2.65,12.86.3,18.77,4.31,8.63,14.46,12.81,23.67,10.66,9.31-2.17,15.8-10.95,15.9-20.36.04-4.17-6.42-4.16-6.47,0Z"/>
  </g>
  <g>
    <g>
      <path class="st17" d="M140.38,264.75c-2.16-8.79.51-23.43.51-23.43l-5.77.6s-.72,19.8-20.01,19.8h-.3c-19.29,0-20.01-19.8-20.01-19.8l-5.77-.6s2.67,14.65.51,23.43c-2.16,8.79-11.27,11.88-11.27,11.88h73.36s-9.12-3.1-11.27-11.88Z"/>
      <path d="M146.61,263.03c-.12-.52-.23-1.04-.33-1.56-.31-1.74.16,1.51-.04-.29-.15-1.29-.21-2.59-.24-3.88-.05-2.47.08-4.93.27-7.39.08-1.04.19-2.07.31-3.1.05-.46.1-.91.16-1.37.06-.52.22-1.64-.1.74.02-.22.06-.44.09-.66.12-.84.24-1.66.39-2.48.32-1.77.28-3.38-.65-4.98-1.06-1.81-3.38-3.43-5.58-3.2-1.92.2-3.85.4-5.77.59-3.62.38-6.32,2.66-6.47,6.47-.02.43-.07.86-.12,1.28.29-2.36.18-1.25,0-.21-.12.65-.27,1.29-.43,1.92-.18.68-.39,1.36-.62,2.02-.12.37-.25.72-.4,1.07-.36.89.73-1.71.35-.82-.11.25-.22.5-.34.74-.36.76-.77,1.5-1.22,2.21-.24.37-.49.73-.75,1.09-.6.82,1.1-1.4.46-.61-.19.24-.39.47-.59.69-.63.71-1.32,1.34-2.05,1.93,1.91-1.55.42-.34-.09,0-.5.33-1.03.61-1.56.89-.24.12-.48.23-.73.34,2-.9,1-.42.54-.24-.54.2-1.09.37-1.63.52-.58.16-1.17.29-1.77.4-.47.09-1.7.24.47-.05-.44.06-.88.09-1.32.13-1.03.07-2.07.06-3.1.04-.68-.02-1.35-.08-2.01-.16,2.43.28-.13-.06-.73-.2-.57-.14-1.12-.3-1.67-.48-.26-.09-.53-.18-.78-.28-1.07-.4,1.57.69.54.23-1-.46-1.96-1.04-2.86-1.68-.87-.62,1.37,1.08.54.42-.25-.2-.48-.41-.71-.63-.4-.36-.78-.75-1.15-1.15-.15-.17-.3-.34-.44-.51-.91-1.07.91,1.22.32.43-.3-.41-.58-.84-.86-1.27-.51-.82-.96-1.69-1.37-2.57-.22-.48-.58-1.38.34.81-.1-.24-.19-.48-.28-.72-.18-.47-.33-.94-.48-1.4-.42-1.33-.72-2.68-.92-4.05-.16-1.03.27,2.21.12.92-.02-.18-.04-.35-.05-.53-.01-.16-.03-.32-.03-.48-.14-3.8-2.85-6.09-6.47-6.47-1.92-.2-3.84-.4-5.77-.59-1.62-.17-3.46.79-4.57,1.89-1.74,1.74-2.08,3.96-1.66,6.29.12.63.2,1.25.3,1.88.03.27.08.54.12.81.21,1.46-.25-1.85-.04-.29.12.95.23,1.91.32,2.86.45,4.49.65,9.06.1,13.56.27-2.24.06-.57-.02-.08-.1.54-.22,1.07-.36,1.6-.14.57-.35,1.13-.56,1.67.79-2.03.04-.2-.22.27-.26.47-.56.92-.87,1.36-.39.53-.24.34.45-.57-.19.24-.39.47-.59.7-.63.71-1.34,1.36-2.07,1.96-.83.68,1.48-1.09.27-.21-.32.24-.67.46-1,.67-.57.38-1.17.71-1.78,1.02-.95.48-1.87.81.17-.02-.16.06-.3.13-.46.18-2.75.94-4.75,3.22-4.75,6.23,0,3.52,2.94,6.46,6.46,6.46h73.36c2.88,0,5.47-1.97,6.23-4.75.98-3.55-1.18-6.8-4.51-7.95-.1-.03-.19-.07-.3-.11-.52-.21-1.29-.56,1.09.46-.21-.09-.42-.19-.63-.29-1.14-.54-2.21-1.19-3.24-1.91-1.22-.87,1.11.89.27.21-.28-.23-.56-.47-.84-.72-.65-.6-1.25-1.25-1.82-1.94,1.37,1.67.38.47.09.05-.3-.45-.57-.93-.82-1.41-.8-1.52.38,1.06-.03-.01-.22-.55-.38-1.13-.53-1.7-.88-3.41-4.6-5.43-7.95-4.51-3.44.95-5.39,4.54-4.51,7.95,1.99,7.69,8.35,13.84,15.79,16.39.57-4.23,1.14-8.46,1.71-12.7h-73.36c.58,4.24,1.14,8.47,1.72,12.7,7.97-2.74,14.59-9.56,16.11-17.96,1.49-8.29.65-17.07-.84-25.3-2.07,2.72-4.15,5.45-6.23,8.18,1.92.2,3.84.4,5.77.6-2.15-2.15-4.31-4.31-6.46-6.46.25,6.34,2.69,12.51,6.58,17.47,3.18,4.05,7.96,6.85,12.95,8.01,5.56,1.29,12.12,1.18,17.43-1.04,3.48-1.45,6.64-3.4,9.13-6.28,2.34-2.68,3.89-5.55,5.19-8.84,1.15-2.9,1.84-6.21,1.96-9.33-2.15,2.15-4.31,4.31-6.45,6.46,1.92-.2,3.85-.4,5.77-.6-2.08-2.73-4.16-5.46-6.23-8.18-1.57,8.66-2.58,18.22-.52,26.87.81,3.42,4.65,5.42,7.96,4.51,3.48-.96,5.33-4.53,4.51-7.95Z"/>
    </g>
    <path class="st22" d="M140.38,264.75c-2.16-8.79.51-23.43.51-23.43l-5.77.6s-.72,19.8-20.01,19.8h-.3c-19.29,0-20.01-19.8-20.01-19.8l-5.77-.6s2.67,14.65.51,23.43c-2.16,8.79-11.27,11.88-11.27,11.88h73.36s-9.12-3.1-11.27-11.88Z"/>
    <path class="st9" d="M114.83,263.65c.06,0,.11,0,.16,0h.02c.06,0,.1,0,.16,0,20.42,0,22.25-19.83,22.39-21.99l-2.4.25s-.72,19.8-20.01,19.8h-.29c-19.29,0-20.01-19.8-20.01-19.8l-2.4-.25c.14,2.16,1.97,21.99,22.39,21.99Z"/>
  </g>
  <path class="st22" d="M79.24,283.79l-.96-7.16s22.66-1.97,37.56-1.97,37.12,1.97,37.12,1.97l-2.18,7.38s-9.54,3.44-35.98,3.44-35.57-3.67-35.57-3.67Z"/>
  <g>
    <g>
      <rect class="st4" x="151.41" y="254.22" width="17.57" height="7.76" transform="translate(-109.23 117.79) rotate(-30.66)"/>
      <path d="M155.93,268.15c5.04-2.99,10.08-5.98,15.11-8.97,1.21-.71,1.65-2.32.93-3.54-1.32-2.22-2.64-4.44-3.95-6.67-.72-1.2-2.32-1.65-3.54-.92-5.03,2.98-10.08,5.97-15.12,8.96-1.2.72-1.65,2.31-.92,3.54,1.32,2.22,2.63,4.45,3.95,6.67,1.7,2.86,6.17.27,4.46-2.6-1.32-2.23-2.64-4.45-3.95-6.67-.31,1.18-.62,2.36-.93,3.54,5.04-2.99,10.08-5.98,15.12-8.96-1.18-.31-2.36-.62-3.53-.93,1.32,2.22,2.63,4.45,3.95,6.67.31-1.18.62-2.36.94-3.54-5.04,2.99-10.08,5.97-15.12,8.96-2.87,1.7-.27,6.17,2.61,4.47Z"/>
    </g>
    <polygon class="st24" points="155.79 262.14 166.17 256.04 165.78 255.37 155.39 261.47 155.79 262.14"/>
  </g>
  <path class="st24" d="M153.85,239.07s2.48,3.08,3.91,5.25c1.45,2.18,3.58,5.51,3.58,5.51l-7.75,4.7,5.26-5.06s-.87-1.53-2.55-4.34c-1.68-2.79-3.92-5.77-3.92-5.77l1.47-.29Z"/>
  <path class="st25" d="M91.16,241.53l-2.12-.22s2.67,14.65.51,23.43c-2.16,8.79-11.27,11.88-11.27,11.88l.96,7.16-.14,7.75s-.47,7.75,1.59,7.94c2.07.19,6.11-3.42,6.11-3.42,0,0-4.47,1.56-5.37,1.37-.91-.2-.88-5.89-.88-5.89l.31-7.49-.47-6.58,2.33-1.19c2.93-1.63,7.46-5.03,8.91-10.95,2.06-8.37-.16-21.92-.49-23.79Z"/>
  <path class="st9" d="M138.7,241.53l2.12-.22s-2.68,14.65-.53,23.43c2.16,8.79,12.74,11.93,12.74,11.93l-2.19,7.54.34,8.14s.28,8.14-1.79,8.34c-2.07.2-6.59-3.29-6.59-3.29,0,0,5.03,1.51,5.93,1.31.9-.19.56-7.18.56-7.18l-.31-7.49,1.69-6.05-3.54-1.72c-2.94-1.63-7.46-5.03-8.92-10.95-2.05-8.37.17-21.92.49-23.79Z"/>
  <g>
    <g>
      <g>
        <g>
          <path class="st17" d="M10.78,90.49s-1.56,39.07-.42,62.99c1.15,23.93,16.3,32.18,16.3,32.18v-70.21l-15.88-24.96Z"/>
          <path d="M1.73,90.49c-.72,17.95-1.08,35.95-.72,53.9.14,6.67.32,13.33,1.69,19.88,1.17,5.64,3.42,11.25,6.51,16.11,2.18,3.43,4.83,6.73,7.93,9.4,1.54,1.32,3.17,2.71,4.96,3.69,5.96,3.27,13.61-.81,13.61-7.81v-70.12c0-3.04-1.45-4.99-2.94-7.33-1.85-2.9-3.7-5.81-5.55-8.71-2.87-4.52-5.75-9.04-8.62-13.57-2.65-4.15-8-5.81-12.38-3.25-4.13,2.42-5.9,8.21-3.24,12.38,5.29,8.32,10.58,16.64,15.88,24.96-.42-1.52-.82-3.04-1.23-4.57v70.21c4.53-2.6,9.07-5.21,13.61-7.81-.72-.4-1.4-.9-2.06-1.41.61.48,1.22.95,1.84,1.42-2.16-1.67-4.06-3.65-5.74-5.81.47.61.94,1.22,1.42,1.83-2-2.6-3.62-5.44-4.92-8.45.31.72.61,1.44.91,2.16-1.61-3.82-2.63-7.83-3.19-11.93.12.8.22,1.6.33,2.4-.76-5.93-.7-12.01-.79-17.98-.07-6.15-.06-12.3.02-18.46.1-9.38.34-18.74.67-28.1.04-1.01.06-2.02.11-3.03.2-4.93-4.27-9.04-9.05-9.04-5.08,0-8.85,4.12-9.05,9.04Z"/>
        </g>
        <path class="st15" d="M10.78,87s-1.56,42.56-.42,66.48c1.15,23.93,16.3,32.18,16.3,32.18v-70.21l-15.88-28.45Z"/>
        <path class="st18" d="M13.72,153.48c-.89-18.59-.14-48.4.24-60.8l-3.18-5.68s-1.56,42.56-.42,66.48c1.15,23.93,16.3,32.18,16.3,32.18v-2.48c-4.53-3.96-12.14-13.02-12.94-29.7Z"/>
      </g>
      <g>
        <g>
          <path class="st17" d="M218.88,90.49s1.57,39.07.41,62.99c-1.14,23.93-16.29,32.18-16.29,32.18v-70.21l15.88-24.96Z"/>
          <path d="M209.84,90.49c.72,17.95,1.1,35.95.73,53.9-.1,4.55-.14,9.15-.71,13.67.1-.8.21-1.6.32-2.4-.55,4.11-1.58,8.11-3.19,11.93.3-.72.61-1.44.92-2.16-1.29,3.01-2.93,5.86-4.92,8.45.47-.61.94-1.22,1.41-1.83-1.67,2.15-3.57,4.13-5.73,5.81.61-.47,1.22-.94,1.83-1.42-.66.51-1.33,1.01-2.06,1.41,4.54,2.6,9.08,5.21,13.61,7.81v-70.21c-.41,1.52-.83,3.04-1.24,4.57,5.29-8.32,10.59-16.64,15.88-24.96,2.65-4.16.88-9.96-3.24-12.38-4.38-2.56-9.74-.91-12.38,3.25-3.29,5.17-6.58,10.33-9.87,15.5-1.77,2.78-3.54,5.56-5.3,8.34-1.12,1.75-1.96,3.44-1.96,5.69v70.2c0,7,7.64,11.08,13.62,7.81,1.84-1.01,3.5-2.43,5.07-3.79,3.19-2.74,5.88-6.19,8.1-9.74,3.17-5.06,5.33-10.92,6.44-16.77,1.28-6.66,1.37-13.45,1.5-20.2.32-17.49-.05-35.01-.75-52.48-.2-4.93-3.97-9.04-9.05-9.04-4.78,0-9.24,4.11-9.05,9.04Z"/>
        </g>
        <path class="st15" d="M218.88,87s1.57,42.56.41,66.48c-1.14,23.93-16.29,32.18-16.29,32.18v-70.21l15.88-28.45Z"/>
        <path class="st18" d="M218.88,87l-3.74,6.71c.38,12.95,1.07,41.68.2,59.77-.77,15.96-7.76,24.95-12.33,29.16v3.02s15.15-8.25,16.29-32.18c1.16-23.92-.41-66.48-.41-66.48Z"/>
      </g>
    </g>
    <g>
      <g>
        <path class="st17" d="M28,83.36c-.31,12.43,0,85.92,0,85.92,0,33.39,18.72,64.35,88.45,64.06,69.02-.28,85.35-30.67,85.35-64.06v-85.92H28Z"/>
        <path d="M18.96,83.36c-.36,14.6-.15,29.23-.12,43.83.03,13.75.06,27.5.12,41.25.06,14.32,2.91,28.94,11.16,40.91,5.36,7.77,12.3,14.12,20.41,18.95,9.33,5.55,19.95,8.99,30.56,11.05,14.28,2.75,28.96,3.45,43.47,2.86,12.93-.52,26.11-2.12,38.46-6.12,9.93-3.21,19.15-7.96,27.06-14.79,6.1-5.26,11.12-12.07,14.34-19.44,3.56-8.1,5.41-16.4,6.13-25.21.31-3.86.28-7.73.28-11.6v-81.69c0-4.93-4.12-9.05-9.05-9.05H28c-4.93,0-9.05,4.12-9.05,9.05s4.12,9.05,9.05,9.05h173.8c-3.01-3.01-6.04-6.03-9.05-9.05v77.12c0,6.79.17,13.6-.73,20.34.1-.8.21-1.6.32-2.41-.73,5.45-2.06,10.81-4.19,15.88.3-.71.61-1.44.91-2.15-1.67,3.94-3.82,7.67-6.42,11.06.47-.61.93-1.22,1.41-1.83-2.6,3.36-5.63,6.35-8.98,8.96.61-.47,1.22-.95,1.83-1.41-4.32,3.34-9.1,6-14.12,8.13.71-.3,1.44-.61,2.16-.91-8.57,3.61-17.69,5.69-26.89,6.94.8-.11,1.6-.21,2.4-.32-16.24,2.16-33.05,2.19-49.3.05.8.11,1.61.21,2.41.32-9.36-1.26-18.65-3.38-27.39-7.04.72.31,1.44.61,2.16.92-5.25-2.22-10.26-5-14.79-8.47.61.47,1.22.94,1.83,1.41-3.53-2.74-6.71-5.88-9.46-9.4.47.62.94,1.22,1.41,1.83-2.69-3.49-4.91-7.31-6.64-11.36.31.72.61,1.44.91,2.16-2.12-5.02-3.46-10.32-4.2-15.71.11.8.22,1.61.33,2.41-.61-4.53-.68-9.06-.69-13.62-.03-6.28-.05-12.56-.07-18.84-.05-17.53-.1-35.06-.04-52.58.02-3.82.02-7.65.12-11.47.12-4.93-4.21-9.05-9.05-9.05s-8.92,4.12-9.05,9.05Z"/>
      </g>
      <path class="st1" d="M28,83.36c-.31,12.43,0,85.92,0,85.92,0,33.39,18.72,64.35,88.45,64.06,69.02-.28,85.35-30.67,85.35-64.06v-85.92H28Z"/>
    </g>
    <g>
      <g>
        <g>
          <path class="st17" d="M66.2,22.91l.17-.47S25.46,39.62,14.61,75.11c-10.85,35.49-2.49,60.58-2.49,60.58l19.45-13.56s-7.2-68.73,34.64-99.21Z"/>
          <path d="M74.93,25.32c.06-.16.12-.32.17-.48,1.05-2.99-.16-6.63-2.32-8.8-2.06-2.05-5.94-3.53-8.8-2.33-12.85,5.41-24.73,13.45-34.86,22.97-8.37,7.86-15.67,17.35-20.16,27.95C2.99,78.66.27,94.31.02,109.51c-.13,7.16.5,14.32,1.72,21.37.42,2.42.89,4.88,1.66,7.21.76,2.28,2.05,4.17,4.16,5.4,2.62,1.54,6.54,1.81,9.13,0,6.48-4.52,12.96-9.04,19.44-13.56,2.46-1.71,4.82-4.55,4.48-7.81-1.01-9.72-.56-19.73.46-29.41.15-1.46.33-2.92.53-4.38-.11.81-.21,1.6-.32,2.41,1.5-11.14,4.17-22.17,8.54-32.54-.29.71-.6,1.44-.91,2.16,2.87-6.73,6.46-13.15,10.92-18.96-.47.61-.94,1.22-1.41,1.83,3.67-4.75,7.88-9.04,12.61-12.72-.61.47-1.22.94-1.83,1.41.52-.4,1.06-.8,1.59-1.19,1.98-1.45,3.48-2.96,4.15-5.41.65-2.33.31-4.88-.91-6.97-1.19-2.02-3.15-3.54-5.41-4.16-2.14-.59-5.1-.45-6.97.91-9.71,7.11-17.67,16.03-23.63,26.5-5.29,9.27-9.03,19.51-11.52,29.87-3.62,15.02-5,30.82-4.27,46.26.07,1.46.15,2.93.29,4.39,1.5-2.6,3-5.21,4.48-7.81-6.48,4.52-12.96,9.04-19.44,13.56,4.43,1.8,8.86,3.6,13.29,5.41-1.12-3.38-1.7-7-2.17-10.52.1.8.21,1.6.32,2.4-1.32-9.88-1.13-19.92.2-29.79-.12.81-.22,1.61-.32,2.4,1.22-8.86,3.15-17.89,6.61-26.17-.31.72-.61,1.44-.91,2.16,2.4-5.67,5.6-10.95,9.36-15.83-.47.61-.94,1.22-1.41,1.83,5.03-6.46,10.98-12.14,17.46-17.15-.61.47-1.23.95-1.84,1.42,6.98-5.36,14.66-10.34,22.81-13.78-.73.3-1.45.61-2.16.91h0c-3.71-3.71-7.42-7.42-11.13-11.13-.05.15-.11.32-.17.48-1.63,4.65,1.81,9.88,6.32,11.12,5,1.38,9.5-1.67,11.12-6.32Z"/>
        </g>
        <path class="st22" d="M66.2,22.91l.17-.47S25.46,39.62,14.61,75.11c-10.85,35.49-2.49,60.58-2.49,60.58l19.45-13.56s-7.2-68.73,34.64-99.21Z"/>
        <path class="st9" d="M19.82,75.11c9.89-29.84,46.55-52.67,46.55-52.67,0,0-40.91,17.18-51.76,52.67-10.85,35.49-2.49,60.58-2.49,60.58l4.39-3.06c-1.81-7.71-5.97-29.54,3.31-57.52Z"/>
      </g>
      <g>
        <g>
          <path class="st17" d="M163.46,22.91l-.17-.47s40.91,17.18,51.76,52.67c10.85,35.49,2.49,60.58,2.49,60.58l-19.44-13.56s7.2-68.73-34.64-99.21Z"/>
          <path d="M172.19,20.51c-.06-.16-.12-.32-.17-.48-3.71,3.71-7.42,7.41-11.13,11.12,0,0,0,0,0,0-.72-.3-1.44-.61-2.16-.91,8.14,3.44,15.82,8.42,22.8,13.78-.61-.47-1.22-.94-1.83-1.42,6.47,5.01,12.42,10.69,17.45,17.15-.47-.61-.94-1.22-1.41-1.83,3.76,4.88,6.96,10.16,9.37,15.83-.31-.72-.61-1.44-.91-2.16,3.46,8.28,5.39,17.31,6.61,26.17-.11-.8-.21-1.6-.32-2.4,1.32,9.87,1.5,19.91.18,29.79.11-.8.22-1.6.32-2.4-.48,3.52-1.05,7.13-2.17,10.52,4.43-1.8,8.86-3.6,13.28-5.41-6.47-4.52-12.95-9.04-19.43-13.56,1.49,2.6,2.98,5.21,4.47,7.81,1.02-9.72.57-19.73-.45-29.41-2.17-20.61-7.63-41.67-19.91-58.7-5.31-7.35-11.45-13.55-18.76-18.91-1.86-1.36-4.84-1.5-6.97-.91-2.27.62-4.23,2.14-5.41,4.16-1.23,2.09-1.56,4.63-.92,6.97.67,2.45,2.18,3.96,4.16,5.41.53.39,1.06.79,1.59,1.19-.61-.47-1.22-.94-1.83-1.41,4.74,3.68,8.95,7.97,12.61,12.72-.47-.61-.94-1.22-1.42-1.83,4.46,5.81,8.05,12.23,10.92,18.96-.31-.72-.61-1.44-.92-2.16,4.38,10.37,7.05,21.4,8.55,32.54-.11-.8-.21-1.6-.32-2.41,1.47,11.04,2.03,22.41,1,33.52-.01.09-.02.18-.03.27-.33,3.26,2.03,6.1,4.49,7.81,6.48,4.52,12.95,9.04,19.44,13.56,1.92,1.34,4.79,1.51,6.97.91,3.16-.87,5.31-3.28,6.32-6.31,1.77-5.35,2.41-11.24,2.94-16.81,1.28-13.32-.09-26.93-3.1-39.94-1.66-7.18-3.94-14.15-7.24-20.75-2.78-5.55-6.41-10.61-10.33-15.4-6.64-8.13-14.85-14.97-23.5-20.87-6.1-4.16-12.54-7.75-19.33-10.61-2.88-1.2-6.75.28-8.81,2.33-2.16,2.17-3.37,5.81-2.32,8.8.05.16.12.32.16.48,1.63,4.65,6.14,7.7,11.13,6.32,4.51-1.24,7.95-6.47,6.32-11.12Z"/>
        </g>
        <path class="st22" d="M163.46,22.91l-.17-.47s40.91,17.18,51.76,52.67c10.85,35.49,2.49,60.58,2.49,60.58l-19.44-13.56s7.2-68.73-34.64-99.21Z"/>
      </g>
    </g>
    <path class="st9" d="M209.84,75.11c-9.89-29.84-46.55-52.67-46.55-52.67,0,0,40.91,17.18,51.76,52.67,10.85,35.49,2.49,60.58,2.49,60.58l-4.39-3.06c1.81-7.71,5.96-29.54-3.31-57.52Z"/>
    <g>
      <g>
        <path class="st17" d="M114.83,9.04C19.29,9.04,31.2,122.52,31.2,122.52c0,0,33.6-20.34,83.63-20.34s83.64,20.34,83.64,20.34c0,0,11.9-113.47-83.64-113.47Z"/>
        <path d="M114.83,0c-19.31.02-39.3,4.58-54.88,16.48-7.12,5.43-13.07,11.67-18.22,19.02-4.52,6.46-7.93,13.56-10.8,20.88-5.03,12.8-7.49,26.52-8.65,40.18-.68,7.97-.84,16.03-.29,24.01.05.65.09,1.31.16,1.95.34,3.27,1.51,6.08,4.49,7.81,2.76,1.62,6.37,1.67,9.13,0,4.08-2.47,8.52-4.42,12.9-6.27-.72.3-1.44.61-2.16.91,14.69-6.18,30.26-10.27,46.05-12.41-.8.11-1.6.21-2.4.33,16.38-2.18,32.99-2.18,49.37,0-.8-.12-1.6-.22-2.4-.33,15.79,2.14,31.36,6.23,46.06,12.41-.72-.3-1.45-.6-2.16-.91,4.38,1.85,8.81,3.8,12.89,6.27,2.75,1.67,6.37,1.62,9.13,0,2.97-1.73,4.13-4.54,4.48-7.81.54-5.13.54-10.36.43-15.52-.28-12.56-1.82-25.23-4.96-37.4-3.91-15.14-10.61-29.5-20.74-41.49-11.4-13.5-27.66-22.39-44.88-25.89C129.97.72,122.38.01,114.83,0c-4.93-.01-9.05,4.11-9.05,9.04s4.12,9.04,9.05,9.05c4.72,0,9.43.29,14.11.9-.8-.11-1.6-.22-2.4-.32,7.23.97,14.33,2.75,21.06,5.58-.72-.3-1.44-.61-2.16-.91,5.47,2.31,10.62,5.29,15.31,8.9-.61-.47-1.21-.94-1.83-1.41,4.72,3.65,8.94,7.92,12.59,12.64-.47-.61-.94-1.22-1.41-1.83,4.52,5.87,8.16,12.35,11.05,19.17-.31-.72-.61-1.44-.92-2.16,4.35,10.33,7.01,21.3,8.51,32.38-.1-.8-.21-1.6-.32-2.39,1.27,9.47,1.73,19.08,1.33,28.64-.08,1.75-.16,3.51-.34,5.26,4.53-2.6,9.08-5.21,13.61-7.81-3.09-1.86-6.4-3.4-9.67-4.88-9.25-4.16-18.81-7.59-28.62-10.2-28.78-7.64-59.05-8.39-88.23-2.67-10.72,2.1-21.26,5.15-31.43,9.16-5.93,2.34-11.86,4.88-17.43,7.99-.35.2-.69.39-1.03.59,4.53,2.6,9.08,5.21,13.61,7.81-.54-5.13-.55-10.36-.43-15.52.14-6.15.61-12.29,1.41-18.38-.1.8-.21,1.6-.32,2.39,1.5-11.08,4.16-22.05,8.51-32.38-.31.72-.61,1.44-.91,2.16,2.89-6.81,6.52-13.3,11.04-19.17-.47.61-.94,1.22-1.41,1.83,3.66-4.72,7.87-8.98,12.6-12.64-.61.47-1.22.94-1.84,1.41,4.71-3.61,9.85-6.59,15.32-8.9-.72.3-1.45.61-2.17.91,6.73-2.82,13.84-4.61,21.07-5.58-.81.1-1.61.21-2.41.32,4.68-.61,9.4-.89,14.11-.9,4.93,0,9.05-4.1,9.05-9.05S119.76-.01,114.83,0Z"/>
      </g>
      <path class="st4" d="M114.83,9.04C19.29,9.04,31.2,122.52,31.2,122.52c0,0,33.6-20.34,83.63-20.34s83.64,20.34,83.64,20.34c0,0,11.9-113.47-83.64-113.47Z"/>
      <path class="st13" d="M114.83,15.25c73.86,0,83.5,67.82,84.08,98.6.5-26.53-4.72-104.8-84.08-104.8S30.25,87.32,30.76,113.85c.58-30.78,10.22-98.6,84.08-98.6Z"/>
      <path class="st24" d="M198.47,112.95s-33.61-20.34-83.64-20.34-83.63,20.34-83.63,20.34c0,0-.21-2.06-.36-5.62-.4,10.8.36,18.02.36,18.02,0,0,33.6-20.34,83.63-20.34s83.64,20.34,83.64,20.34c0,0,.76-7.22.35-18.02-.14,3.56-.35,5.62-.35,5.62Z"/>
    </g>
    <path class="st20" d="M191.06,156.6s-2.29,2.39-9.16,2.55c-6.87.16-30.77-16.23-67-16.23h-.14c-36.22,0-60.13,16.39-67,16.23-6.87-.16-9.16-2.55-9.16-2.55l-10.69-8.43c0,2.84.01,5.59.02,8.16l10.67,8.41s2.29,2.39,9.16,2.55c6.87.16,30.78-16.23,67-16.23h.14c36.23,0,60.13,16.39,67,16.23,6.87-.16,9.16-2.55,9.16-2.55l10.74-8.46v-8.14l-10.74,8.46Z"/>
    <g>
      <path class="st17" d="M114.91,107.55h-.16c-70.32,0-89.88,31.19-89.88,31.19l13.73,10.82s2.29,2.39,9.16,2.55c6.87.16,30.78-16.23,67-16.23h.14c36.23,0,60.13,16.39,67,16.23,6.87-.16,9.16-2.55,9.16-2.55l13.75-10.82s-19.57-31.19-89.89-31.19Z"/>
      <path d="M114.91,98.51c-24.19.23-48.58,3.38-70.58,13.97-6.42,3.09-12.35,6.97-17.85,11.51-2.61,2.15-5.09,4.52-7.17,7.2-.74.95-1.6,1.95-2.26,3-1.97,3.12-1.66,8.54,1.41,10.96,4.57,3.61,9.14,7.21,13.72,10.81,1.31,1.03,2.44,2.03,3.94,2.69,3.78,1.62,7.66,2.55,11.81,2.52,3.21-.02,6.28-1.13,9.21-2.28,5.92-2.31,11.75-4.83,17.76-6.89,8.53-2.94,17.29-5.11,26.23-6.32-.8.1-1.59.21-2.4.32,10.67-1.41,21.49-1.41,32.17,0-.8-.11-1.6-.22-2.4-.32,11.76,1.59,23.15,4.92,34.19,9.25,3.64,1.43,7.22,2.98,10.88,4.37,3.27,1.25,6.58,2.06,10.11,1.77,5.09-.4,9.67-1.7,13.62-4.96.98-.82,2-1.6,3.01-2.39,3.62-2.85,7.24-5.71,10.86-8.57,3.08-2.42,3.38-7.83,1.41-10.96-4.19-6.67-11.03-11.94-17.47-16.19-7.11-4.67-14.99-8.17-22.99-10.98-11.33-3.97-23.2-6.09-35.11-7.38-7.34-.79-14.74-1.12-22.13-1.12-4.93,0-9.05,4.12-9.05,9.04s4.12,9.05,9.05,9.05c8.95.01,17.91.51,26.8,1.69-.81-.1-1.61-.21-2.41-.32,11.83,1.59,23.55,4.37,34.57,9.01-.72-.3-1.44-.61-2.17-.91,6.67,2.84,13.08,6.35,18.83,10.79-.61-.47-1.22-.95-1.83-1.41,3.25,2.52,6.36,5.32,8.88,8.58-.47-.61-.95-1.22-1.42-1.83.28.37.56.74.81,1.12.47-3.65.95-7.31,1.41-10.96-4.66,3.67-9.35,7.33-13.99,11.04.61-.47,1.22-.95,1.84-1.42-.57.43-1.2.76-1.85,1.04.72-.3,1.44-.61,2.16-.92-1.3.54-2.67.86-4.06,1.06.81-.1,1.6-.21,2.41-.32-1.27.17-2.59.34-3.88.18.8.11,1.6.22,2.41.32-2.64-.36-5.2-1.52-7.64-2.51-4.02-1.62-8.02-3.29-12.09-4.8-12.37-4.6-25.19-7.56-38.34-8.73-14.42-1.28-29.1.17-43.13,3.65-9.76,2.42-19.03,6.13-28.34,9.88-2.45.99-5,2.15-7.64,2.51.8-.1,1.6-.21,2.4-.32-1.28.16-2.61,0-3.88-.18.8.11,1.61.22,2.41.32-1.39-.2-2.75-.52-4.05-1.06.72.31,1.44.61,2.16.92-.65-.28-1.29-.61-1.85-1.04.61.47,1.22.94,1.83,1.42-4.65-3.71-9.32-7.37-13.99-11.04.47,3.65.95,7.3,1.42,10.96.25-.39.53-.76.81-1.12-.47.61-.94,1.22-1.42,1.83,2.52-3.26,5.64-6.06,8.88-8.58-.61.47-1.22.94-1.84,1.41,5.75-4.43,12.16-7.95,18.84-10.79-.72.31-1.44.61-2.17.91,11.01-4.64,22.74-7.42,34.56-9.01-.8.11-1.6.22-2.39.32,8.95-1.18,17.93-1.6,26.95-1.69,4.93-.05,9.05-4.08,9.05-9.05s-4.12-9.09-9.05-9.04Z"/>
    </g>
    <path class="st22" d="M114.91,107.55h-.16c-70.32,0-89.88,31.19-89.88,31.19l13.73,10.82s2.29,2.39,9.16,2.55c6.87.16,30.78-16.23,67-16.23h.14c36.23,0,60.13,16.39,67,16.23,6.87-.16,9.16-2.55,9.16-2.55l13.75-10.82s-19.57-31.19-89.89-31.19Z"/>
    <path class="st9" d="M114.75,111.44s.05,0,.08,0c.02,0,.05,0,.08,0,58.33,0,81.74,21.46,88.02,28.77l1.87-1.47s-19.57-31.19-89.89-31.19h-.16c-70.32,0-89.88,31.19-89.88,31.19l1.86,1.47c6.29-7.31,29.7-28.77,88.03-28.77Z"/>
    <path class="st25" d="M191.06,144.82s-2.29,2.38-9.16,2.55c-6.87.16-30.77-16.24-67-16.24-.02,0-.04,0-.05,0h-.03s-.04,0-.05,0c-36.22,0-60.13,16.39-67,16.24-6.87-.16-9.16-2.55-9.16-2.55l-11.42-9c-1.62,1.81-2.31,2.92-2.31,2.92l13.73,10.82s2.29,2.39,9.16,2.55c6.87.16,30.78-16.23,67-16.23h.14c36.23,0,60.13,16.39,67,16.23,6.87-.16,9.16-2.55,9.16-2.55l13.75-10.82s-.71-1.11-2.32-2.92l-11.43,9Z"/>
    <g>
      <g>
        <g>
          <g>
            <g>
              <path class="st3" d="M55.28,180.28c0,8.18,6.63,14.81,14.81,14.81s14.81-6.63,14.81-14.81-6.63-14.81-14.81-14.81-14.81,6.63-14.81,14.81Z"/>
              <path d="M53.99,180.28c.07,5.81,3.14,11.1,8.17,14.02,5.06,2.93,11.5,2.68,16.44-.34,4.94-3.03,7.78-8.66,7.58-14.4-.21-5.74-3.69-10.97-8.75-13.61-4.98-2.6-11.09-2.24-15.85.66-4.72,2.9-7.52,8.19-7.59,13.68-.02,1.67,2.56,1.67,2.59,0,.07-5.86,3.8-11.03,9.37-12.88,5.58-1.85,11.84.35,15.22,5.1,3.39,4.79,3.2,11.47-.4,16.08-3.65,4.69-9.92,6.31-15.46,4.34-5.27-1.88-8.67-7.17-8.73-12.65-.02-1.67-2.61-1.67-2.59,0Z"/>
            </g>
            <path class="st2" d="M60.53,185.72c0,1.32,1.07,2.39,2.4,2.39s2.41-1.07,2.41-2.39-1.07-2.4-2.41-2.4-2.4,1.07-2.4,2.4Z"/>
            <path class="st2" d="M68.66,178.3c0,3.42,2.78,6.19,6.2,6.19s6.19-2.77,6.19-6.19-2.78-6.19-6.19-6.19-6.2,2.77-6.2,6.19Z"/>
          </g>
          <path class="st14" d="M71.97,201.81c.71,1.96-2.36,4.88-6.87,6.51-4.51,1.63-8.73,1.36-9.45-.6-.71-1.96,2.37-4.88,6.88-6.52,4.5-1.63,8.73-1.36,9.44.61Z"/>
        </g>
        <g>
          <g>
            <g>
              <path class="st3" d="M144.77,180.28c0,8.18,6.63,14.81,14.81,14.81s14.81-6.63,14.81-14.81-6.63-14.81-14.81-14.81-14.81,6.63-14.81,14.81Z"/>
              <path d="M143.47,180.28c.07,5.81,3.15,11.1,8.17,14.02,5.06,2.93,11.5,2.68,16.45-.34,4.94-3.03,7.78-8.66,7.57-14.4s-3.69-10.97-8.75-13.61c-4.98-2.6-11.08-2.24-15.85.66-4.73,2.9-7.52,8.19-7.59,13.68-.02,1.67,2.56,1.67,2.59,0,.07-5.86,3.8-11.03,9.38-12.88,5.58-1.85,11.85.35,15.22,5.1,3.39,4.79,3.2,11.47-.4,16.08-3.65,4.69-9.93,6.31-15.47,4.34-5.26-1.88-8.67-7.17-8.73-12.65-.02-1.67-2.6-1.67-2.59,0Z"/>
            </g>
            <path class="st2" d="M150.02,185.72c0,1.32,1.08,2.39,2.39,2.39s2.41-1.07,2.41-2.39-1.07-2.4-2.41-2.4-2.39,1.07-2.39,2.4Z"/>
            <path class="st2" d="M158.15,178.3c0,3.42,2.77,6.19,6.2,6.19s6.19-2.77,6.19-6.19-2.77-6.19-6.19-6.19-6.2,2.77-6.2,6.19Z"/>
          </g>
          <path class="st14" d="M157.7,201.81c-.71,1.96,2.37,4.88,6.87,6.51,4.5,1.63,8.73,1.36,9.45-.6.71-1.96-2.36-4.88-6.87-6.52-4.51-1.63-8.73-1.36-9.45.61Z"/>
        </g>
      </g>
      <path d="M100.36,208.58c.09,1.92.83,3.89,1.94,5.45,2.76,3.86,7.3,5.27,11.9,5.37,6.66.15,14.3-3.24,15.11-10.59.17-1.55-1.42-2.84-2.85-2.84-1.67,0-2.67,1.3-2.83,2.84.16-1.5-.04-.07-.17.36-.05.16-.11.31-.17.46.37-.95.05-.12-.07.09-.09.2-.21.38-.32.56-.1.16-.69.96-.17.29-.38.48-.82.91-1.28,1.3.54-.45-.24.16-.35.24-.35.23-.73.43-1.1.61-.3.14-.32.15-.07.05-.17.07-.36.13-.54.2-.48.17-.98.29-1.48.42-1.09.25-2.1.3-3.3.32-1.04.01-2.02-.06-2.9-.22-.41-.08-.81-.19-1.22-.31-.18-.05-.37-.12-.55-.18-.85-.29.45.23-.33-.13-.31-.14-.6-.3-.9-.47-.13-.09-.26-.17-.4-.27-.64-.42.43.37-.14-.09-.28-.22-.53-.48-.77-.73-.08-.1-.18-.2-.26-.3-.44-.51.36.51-.02-.02-.29-.42-.53-.87-.75-1.33-.22-.47.27.7.01,0-.07-.2-.13-.41-.18-.61-.08-.28-.14-.55-.18-.84-.05-.28.09.95.05.35-.18-3.65-5.86-3.67-5.69,0h0Z"/>
    </g>
    <g>
      <path class="st13" d="M157.81,32.35c8.8,5.66,13.73,13.68,11.01,17.9-2.72,4.22-12.05,3.05-20.85-2.62-8.8-5.67-13.73-13.68-11.01-17.9,2.71-4.22,12.05-3.05,20.85,2.62Z"/>
      <path class="st13" d="M176.46,56.33c-.62,1.84-2.61,2.82-4.45,2.2-1.84-.62-2.82-2.6-2.2-4.44.62-1.84,2.6-2.82,4.44-2.21,1.84.62,2.82,2.61,2.21,4.45Z"/>
    </g>
  </g>
  <g>
    <path class="st17" d="M79.4,273.77s16.82,2.78,35.21,2.78,36.02-2.84,36.02-2.84l2.39,4.28s-20.11,2.76-38.03,2.76-36.71-2.79-36.71-2.79l1.11-4.19Z"/>
    <path d="M77.85,279.38c24.13,3.99,48.65,3.68,72.81.18.51-.07,1.02-.15,1.52-.23-2.19-.89-4.38-1.78-6.57-2.67.8,1.43,1.59,2.85,2.38,4.27,1.17-2.85,2.32-5.69,3.48-8.53-.5.07,2.22-.3.84-.12-.66.09-1.32.17-1.99.25-2.25.28-4.51.53-6.77.76-6.89.71-13.81,1.23-20.74,1.51-13.79.53-27.59-.45-41.26-2.19-.41-.05-.81-.11-1.21-.16-.89-.12,1.71.22.88.12-.18-.02-.36-.05-.54-.08-.29-.03-.58-.07-.86-.12,1.36,2.38,2.71,4.78,4.06,7.15.37-1.4.74-2.8,1.1-4.2.82-3.06-.98-6.3-4.06-7.15-3.03-.83-6.34,1-7.15,4.06-.37,1.4-.74,2.8-1.11,4.2-.73,2.78.89,6.69,4.06,7.15,10.73,1.59,21.6,2.57,32.45,2.9,13.45.42,26.95-.63,40.31-2.22,1.69-.2,3.39-.42,5.08-.65,1.4-.19,2.79-1.52,3.47-2.68,1.07-1.81,1.02-4.04,0-5.87-.8-1.43-1.59-2.85-2.38-4.28-1.37-2.45-4-3.08-6.56-2.67-.86.13-1.73.25-2.59.38-.21.03-.42.06-.62.09-.98.13,1.65-.22.62-.09-.52.07-1.06.13-1.58.2-1.38.18-2.76.34-4.14.5-7.36.81-14.74,1.34-22.15,1.51-7.97.18-15.94-.19-23.88-.89-2.97-.27-5.96-.59-8.92-.95-.55-.07-1.1-.14-1.66-.21-1.06-.14,1.58.21.56.07-.22-.03-.45-.06-.67-.09-.73-.1-1.46-.21-2.19-.32-.31-.05-.62-.1-.93-.15-3.12-.52-6.25.77-7.15,4.06-.77,2.81.93,6.63,4.06,7.15Z"/>
  </g>
  <path class="st15" d="M79.4,273.77s16.82,2.78,35.21,2.78,36.02-2.84,36.02-2.84l2.39,4.28s-20.11,2.76-38.03,2.76-36.71-2.79-36.71-2.79l1.11-4.19Z"/>
  <path class="st18" d="M79.4,274.93s16.82,2.79,35.21,2.79,36.02-2.85,36.02-2.85l1.78,3.19c.4-.05.61-.08.61-.08l-2.39-4.28s-17.62,2.84-36.02,2.84-35.21-2.78-35.21-2.78l-1.11,4.19s.1.01.29.04l.82-3.08Z"/>
  <path class="st6" d="M115,279.33c-16.46,0-33.66-2.35-36.35-2.74l-.36,1.37s18.79,2.79,36.71,2.79,38.03-2.76,38.03-2.76l-.75-1.33c-3.77.49-21.38,2.66-37.28,2.66Z"/>
  <g>
    <g>
      <rect class="st22" x="85.18" y="274.32" width="15.36" height="6.03" transform="translate(-189.64 353.05) rotate(-86.49)"/>
      <path d="M95.4,283.25c-2.01-.12-4.01-.25-6.02-.37.65.65,1.29,1.29,1.95,1.94.31-5.11.61-10.22.93-15.33-.65.64-1.29,1.29-1.94,1.94,2.01.12,4.02.24,6.02.37-.64-.65-1.3-1.29-1.94-1.94-.31,5.11-.62,10.22-.93,15.33-.16,2.49,3.72,2.48,3.87,0,.31-5.12.62-10.22.93-15.33.07-1.1-.93-1.88-1.94-1.94-2-.12-4.01-.24-6.02-.36-1.1-.07-1.88.94-1.94,1.94-.31,5.11-.62,10.22-.94,15.33-.06,1.1.94,1.88,1.94,1.94,2.01.13,4.01.24,6.02.36,2.5.16,2.49-3.72,0-3.87Z"/>
    </g>
    <polygon class="st25" points="92.01 283.06 91.43 283.02 92.13 271.54 92.72 271.58 92.01 283.06"/>
    <polygon class="st9" points="93.57 283.16 92.99 283.12 93.68 271.63 94.26 271.67 93.57 283.16"/>
  </g>
  <g>
    <g>
      <rect class="st22" x="133.89" y="269.66" width="6.03" height="15.36" transform="translate(-16.71 8.9) rotate(-3.51)"/>
      <path d="M134.36,287.12c2.01-.12,4.02-.24,6.02-.36,1-.06,2-.84,1.94-1.94-.31-5.11-.62-10.22-.94-15.33-.06-1-.84-2.01-1.94-1.94-2.01.12-4.01.24-6.02.36-1,.06-2,.84-1.94,1.94.31,5.11.63,10.22.93,15.33.16,2.48,4.04,2.49,3.88,0-.31-5.12-.62-10.22-.93-15.33-.65.65-1.3,1.29-1.95,1.94,2.01-.12,4.01-.24,6.02-.37-.65-.65-1.29-1.3-1.94-1.94.31,5.11.62,10.22.94,15.33.64-.65,1.29-1.29,1.93-1.94-2,.12-4.01.25-6.02.37-2.48.15-2.5,4.03,0,3.87Z"/>
    </g>
    <polygon class="st25" points="137.75 283.06 138.33 283.02 137.63 271.54 137.05 271.58 137.75 283.06"/>
    <polygon class="st9" points="136.2 283.16 136.79 283.12 136.09 271.63 135.51 271.67 136.2 283.16"/>
  </g>
  <g>
    <g>
      <g>
        <path class="st17" d="M121.77,281.03c.01,1.2-.88,2.17-1.97,2.17l-9.59.05c-1.1,0-1.99-.95-2-2.15l-.02-5.76c0-1.19.87-2.16,1.97-2.17l9.59-.05c1.1,0,1.99.96,1.99,2.15l.03,5.76Z"/>
        <path d="M115.95,281.03c.15-2.1,1.77-3.63,3.81-3.64h-.5c-.76,0-1.51.01-2.27.01-1.95.01-3.88.02-5.83.03-1.55,0-1.07-.4,1.06.56,1.13.51,1.79,2.43,1.8,2.98-.01-.29-.01-.58-.01-.87-.01-1.58-.02-3.18-.02-4.76,0,2.11-1.89,3.64-3.8,3.65.17,0,.33,0,.5,0,.76,0,1.51,0,2.26-.01,1.95,0,3.88-.02,5.84-.03,1.55,0,1.07.4-1.06-.56-1.13-.51-1.79-2.43-1.8-2.98,0,.29,0,.58,0,.87,0,1.59.02,3.18.02,4.76.02,3.17,2.64,5.82,5.82,5.82s5.83-2.65,5.81-5.82c0-1.59-.02-3.18-.02-4.76,0-1.1-.06-2.13-.32-3.23-.82-3.53-4.15-5.46-7.5-5.74-3.05-.25-6.23.04-9.29.05-4.51.02-8.12,3.54-8.1,8.11.01,1.72.02,3.44.03,5.16.02,4.47,3.18,8.47,7.89,8.45,1.58-.01,3.15-.02,4.72-.03,1.5-.01,3-.02,4.49-.02,4.67-.02,7.79-3.49,8.1-7.99.21-3.17-2.81-5.81-5.81-5.81-3.34,0-5.6,2.65-5.82,5.81Z"/>
      </g>
      <path class="st5" d="M121.77,281.03c.01,1.2-.88,2.17-1.97,2.17l-9.59.05c-1.1,0-1.99-.95-2-2.15l-.02-5.76c0-1.19.87-2.16,1.97-2.17l9.59-.05c1.1,0,1.99.96,1.99,2.15l.03,5.76Z"/>
      <path class="st7" d="M119.78,280.03l-.02-3.74c0-.78-.64-1.4-1.42-1.4l-6.78.04c-.78,0-1.4.63-1.4,1.41v.7l3.18-.02c.64,0,1.17.52,1.18,1.17,0,.65-.53,1.17-1.17,1.17l-3.18.02v.7c.01.78.65,1.4,1.42,1.4l6.78-.04c.78,0,1.4-.63,1.4-1.41Z"/>
      <g>
        <path class="st8" d="M119.39,275.36c.23.25.36.57.37.93l.02,3.74c0,.78-.62,1.4-1.4,1.41l-6.78.04c-.14,0-.28-.02-.42-.06.26.28.64.47,1.05.47l6.78-.03c.77,0,1.4-.64,1.4-1.42l-.02-3.74c0-.62-.42-1.16-.99-1.33Z"/>
        <path class="st8" d="M113.98,277.43c.1,0,.19.02.29.04-.21-.27-.55-.44-.92-.44h-2.55v.42l3.17-.02Z"/>
        <path class="st8" d="M108.84,281.5l-.02-5.76c-.01-1.2.88-2.17,1.97-2.18l9.59-.05c.24,0,.47.05.68.13-.35-.33-.81-.54-1.31-.53l-9.59.05c-1.1,0-1.98.98-1.97,2.17l.02,5.76c.01.94.55,1.73,1.32,2.02-.42-.39-.67-.97-.68-1.62Z"/>
      </g>
    </g>
    <g>
      <path class="st10" d="M118.14,274.27l-6.78.03c-.78,0-1.4.64-1.4,1.42v.7h.21v-.08c0-.77.62-1.41,1.4-1.41l6.78-.04c.51,0,.95.27,1.2.67-.06-.73-.66-1.29-1.4-1.29Z"/>
      <path class="st10" d="M110.19,280.19v-.81s3.17-.02,3.17-.02c.64,0,1.17-.53,1.17-1.17,0-.25-.08-.47-.21-.66v.03c.01.65-.51,1.18-1.16,1.18l-3.17.02v.7c0,.27.08.53.21.73Z"/>
      <path class="st10" d="M121.77,281.03l-.03-5.76c0-.37-.09-.72-.24-1.02.02.13.03.26.03.4l.03,5.76c0,1.19-.88,2.17-1.97,2.18l-9.6.04c-.76,0-1.42-.45-1.76-1.12.18,1,.99,1.76,1.96,1.75l9.59-.05c1.1,0,1.97-.97,1.97-2.17Z"/>
    </g>
  </g>
  <g>
    <g>
      <g>
        <polygon class="st17" points="150.72 298.64 151.92 301.89 152.92 301.87 152.98 301.87 153.97 301.85 155.04 298.55 153.75 297.45 153.48 284.51 151.69 284.54 151.96 297.48 150.72 298.64"/>
        <path d="M145.74,300.02c.4,1.09.8,2.17,1.2,3.25.8,2.15,2.55,3.85,4.98,3.8.69-.02,1.36-.04,2.04-.05,2.38-.05,4.26-1.55,4.99-3.79.35-1.1.71-2.2,1.06-3.3.53-1.64,0-3.89-1.33-5.03-.43-.37-.85-.74-1.28-1.11.5,1.22,1,2.44,1.51,3.66-.09-4.32-.18-8.64-.27-12.94-.06-2.78-2.31-5.23-5.17-5.17-.6.01-1.2.02-1.79.04-2.77.05-5.22,2.3-5.17,5.17.09,4.31.19,8.63.27,12.94.51-1.22,1.02-2.44,1.52-3.66-.42.39-.83.77-1.24,1.17-2.05,1.92-1.95,5.37,0,7.31,2.04,2.04,5.26,1.93,7.31,0,.73-.68,1.53-1.33,2.04-2.21.57-.97.72-2.02.69-3.11-.03-1.4-.05-2.8-.09-4.2-.06-2.75-.11-5.5-.17-8.24-1.73,1.72-3.45,3.45-5.17,5.17.59-.01,1.2-.02,1.79-.03-1.73-1.73-3.45-3.45-5.17-5.17.06,2.66.12,5.32.17,7.99.03,1.44.06,2.89.09,4.34.01.67.01,1.32.2,1.99.43,1.56,1.48,2.4,2.61,3.39-.44-1.68-.88-3.35-1.33-5.03-.36,1.1-.71,2.2-1.06,3.3,1.66-1.27,3.32-2.53,4.98-3.79-.68.01-1.36.02-2.04.04,1.66,1.27,3.33,2.54,4.99,3.8-.4-1.08-.8-2.16-1.21-3.26-.98-2.64-3.46-4.4-6.36-3.6-2.54.69-4.59,3.71-3.61,6.36Z"/>
      </g>
      <polygon class="st23" points="150.43 298.6 151.57 301.88 152.56 301.88 152.61 301.88 153.61 301.88 154.74 298.59 153.48 297.47 153.47 284.52 151.68 284.52 151.69 297.47 150.43 298.6"/>
      <g>
        <polygon class="st4" points="153.13 301.39 152.13 301.39 152.07 301.39 151.39 301.39 151.57 301.88 152.56 301.88 152.61 301.88 153.61 301.88 154.74 298.6 154.24 298.15 153.13 301.39"/>
        <polygon class="st4" points="152.99 296.99 153.48 297.41 153.47 284.52 152.98 284.52 152.99 296.99"/>
      </g>
    </g>
    <g>
      <g>
        <g>
          <path class="st17" d="M149.69,267.85c-.02-1.12.86-2.04,1.97-2.07l1.07-.02c1.11-.02,2.03.86,2.05,1.97l.14,6.71c.02,1.12-.86,2.03-1.97,2.06l-1.06.02c-1.11.02-2.03-.87-2.05-1.97l-.14-6.71Z"/>
          <path d="M154.86,267.85c-.06,1.07-.59,2.05-1.5,2.64-.85.55-2.36.48-1.48.46.22,0,.43,0,.63-.01.08,0,.14,0,.22,0-.85,0-1.58-.33-2.22-.95-.48-.39-.91-3.16-.88-1.94,0,.4.01.81.02,1.21.03,1.73.07,3.47.11,5.2-.02-1.07.63-2.08,1.51-2.65.85-.55,2.35-.48,1.48-.46-.21,0-.43,0-.65.02h-.21c.84.01,1.58.33,2.22.95.48.39.92,3.16.89,1.94,0-.4-.02-.81-.02-1.21-.04-1.73-.08-3.47-.12-5.2-.05-2.82-2.3-5.17-5.17-5.17s-5.22,2.35-5.16,5.17c.04,2.23.09,4.47.13,6.71.09,4.19,3.54,7.22,7.64,7.13,4.35-.09,7.52-2.81,7.79-7.24.13-2.21-.09-4.5-.14-6.71-.09-4.19-3.54-7.22-7.65-7.13-4.34.08-7.52,2.81-7.78,7.24-.17,2.81,2.47,5.17,5.16,5.17,2.95,0,5-2.36,5.17-5.17Z"/>
        </g>
        <g>
          <rect class="st19" x="150.7" y="278.36" width="3.74" height="1.47"/>
          <path class="st21" d="M150.7,279.65c1.24,0,2.49,0,3.74,0-.43-.43-.87-.86-1.29-1.29v1.47c.43-.43.87-.86,1.29-1.29h-3.74c.43.43.86.87,1.29,1.29,0-.49,0-.98,0-1.47,0-1.67-2.58-1.67-2.58,0,0,.49,0,.98,0,1.47,0,.71.58,1.29,1.29,1.29,1.25,0,2.49,0,3.74,0,.7,0,1.29-.58,1.29-1.29v-1.47c0-.71-.58-1.3-1.29-1.3-1.25,0-2.49,0-3.74,0-1.67,0-1.67,2.59,0,2.59Z"/>
        </g>
        <g>
          <path class="st17" d="M150.16,280.14c-.01-.4.32-.74.72-.75l3.2-.07c.42,0,.75.31.76.72h0c0,.4-.32.75-.72.75l-3.2.06c-.42.02-.75-.31-.76-.72h0Z"/>
          <path d="M155.14,281.52c-.43,3.09-6.21,3.09-3.83,3.04.39-.01.77-.02,1.17-.02.34-.01.69-.02,1.03-.02,2.55-.05-3.06.22-3.67-3.09v-2.75c.44-3.09,6.21-3.09,3.83-3.04-.39.01-.78.02-1.17.02-.35.01-.69.01-1.03.02-2.56.05,3.06-.22,3.66,3.09-.5-2.77-3.82-4.31-6.36-3.61-2.9.79-4.12,3.58-3.61,6.36.47,2.6,3.16,4.57,5.75,4.51.53,0,1.06-.02,1.59-.03.53-.01,1.05-.02,1.58-.04,3.22-.07,5.91-2.66,5.91-5.92s-2.72-5.95-5.92-5.89c-.47.01-.94.02-1.41.02-.58.02-1.16.04-1.73.04-2.55.06-5.38,1.85-5.76,4.55-.2,1.44-.24,2.66.52,3.98.68,1.15,1.79,2.02,3.09,2.37,1.33.37,2.79.19,3.98-.52,1.03-.6,2.2-1.85,2.37-3.09Z"/>
        </g>
      </g>
      <g>
        <path class="st16" d="M150.01,267.79c0-1.11.9-2.02,2.01-2.02h1.06c1.11,0,2.02.9,2.02,2.01v6.71c0,1.11-.9,2.01-2,2.01h-1.06c-1.12,0-2.02-.89-2.03-2.01v-6.71Z"/>
        <path class="st0" d="M150.68,274.51v-6.71c0-1.11.9-2.02,2.01-2.02h-.66c-1.11,0-2.02.91-2.01,2.02v6.71c0,1.11.91,2.01,2.03,2.01h.65c-1.11,0-2-.91-2-2.01Z"/>
        <rect class="st19" x="150.7" y="278.36" width="3.74" height="1.47"/>
        <path class="st16" d="M150.23,280.1c0-.4.33-.73.74-.73h3.2c.4,0,.73.32.73.73h0c0,.4-.32.74-.73.74h-3.2c-.4,0-.74-.33-.74-.74h0Z"/>
        <path class="st0" d="M150.83,280.1c0-.4.33-.73.73-.73h2.61,0s-3.2,0-3.2,0c-.41,0-.74.33-.74.73s.34.74.74.74h.6c-.4,0-.73-.33-.73-.74Z"/>
        <path class="st12" d="M154.6,267.65v6.71c.01,1.11-.89,2.01-2,2.02h-1.06c-.11,0-.21,0-.31-.03.25.12.52.17.81.17h1.06c1.11,0,2.01-.91,2.01-2.02v-6.71c0-1.01-.75-1.84-1.71-1.98.7.3,1.19,1.01,1.19,1.83Z"/>
        <path class="st4" d="M154.41,279.96c0,.4-.33.73-.73.73h-3.13c.12.09.27.15.43.15h3.2c.4,0,.73-.33.73-.74s-.33-.73-.73-.73h-.06c.17.14.29.35.29.59Z"/>
      </g>
    </g>
    <rect class="st7" x="149.58" y="278.03" width="6.06" height="1.39"/>
    <path class="st7" d="M152.01,266.95c0-.28.22-.51.5-.51h0c.28,0,.5.23.5.5l.02,7.29c0,.28-.23.5-.51.5h0c-.28,0-.5-.22-.5-.5v-7.28Z"/>
  </g>
  <g>
    <g>
      <g>
        <g>
          <path class="st17" d="M79.21,293.7l-.03-17.95c1.5-.7,2.54-2.22,2.54-3.98,0-2-1.36-3.68-3.19-4.21v3.16c.01.53-.42.95-.94.95h-.48c-.53,0-.95-.43-.95-.95v-3.15c-1.84.53-3.18,2.21-3.18,4.21,0,1.77,1.05,3.28,2.55,3.97l.03,17.96c-1.5.69-2.54,2.21-2.54,3.97,0,2,1.35,3.7,3.19,4.2v-3.15c0-.53.42-.96.95-.96h.47c.53,0,.96.42.96.95v3.16c1.85-.53,3.19-2.22,3.19-4.21-.01-1.77-1.06-3.27-2.56-3.97Z"/>
          <path d="M84.38,293.7c-.01-5.99-.02-11.97-.03-17.95-.85,1.48-1.7,2.97-2.56,4.46,3.21-1.65,5.24-5.21,5.08-8.8-.18-4.22-3.04-7.54-6.97-8.82-3.22-1.05-6.55,1.74-6.55,4.98,0,.48,0,.97,0,1.46v1.16c.01,2.72-.12-3.65,4.1-3.67-2.4.01,3.86,6.38,3.86,3.86v-1.09c0-.57,0-1.14,0-1.7,0-3.23-3.31-6.05-6.54-4.98-3.95,1.3-6.4,4.37-6.92,8.46-.46,3.68,1.8,7.51,5.06,9.16-.85-1.48-1.71-2.97-2.56-4.46.01,5.98.02,11.97.03,17.96.85-1.49,1.7-2.98,2.56-4.46-3.22,1.65-5.24,5.21-5.09,8.8.19,4.22,3.04,7.54,6.97,8.82,3.22,1.05,6.55-1.74,6.55-4.99v-2.61c0-2.72.11,3.66-4.1,3.68,2.39-.01-3.86-6.39-3.86-3.86,0,.37,0,.73.01,1.09v1.7c0,3.23,3.32,6.05,6.54,4.98,3.95-1.3,6.4-4.37,6.91-8.46.46-3.68-1.79-7.51-5.05-9.17-2.51-1.28-5.59-.68-7.08,1.86-1.36,2.33-.65,5.79,1.86,7.07.21.09.42.21.62.34-1.2-.73.18.52-.63-.61.27.49.26.39-.05-.29.44,1.1.01-1.16.06.06-.04.59-.02.49.05-.29-.24,1.15.54-.94-.05.05.13-.16.26-.33.39-.49-.4.39-.31.35.26-.12-.33.24-1.25.47-.04.07,2.18,1.66,4.36,3.33,6.55,4.99,0-.93,0-1.87,0-2.79,0-3.54-2.6-6.49-6.25-6.48-3.61,0-6.48,2.64-6.48,6.33,0,.98,0,1.97.01,2.94,2.18-1.66,4.36-3.32,6.54-4.98-.54-.19-.46-.15.25.11-1.02-.53.77.76-.04-.06.43.6.5.66.21.19.08.2.16.4.23.6-.14-.56-.16-.45-.04.31-.02-.24-.02-.5,0-.74-.02.21-.03.43-.06.65.18-.54.13-.46-.13.24.51-1.03-.76.76.05-.06-.83.84-.31.24.11.02,1.59-.81,2.56-2.72,2.56-4.45-.01-5.99-.02-11.98-.03-17.96,0-1.74-.96-3.65-2.56-4.47-.21-.1-.42-.21-.62-.35,1.19.73-.17-.51.63.62-.28-.49-.26-.4.05.28-.43-1.09,0,1.16-.06-.06.04-.59.02-.5-.05.29.24-1.15-.54.94.05-.06-.13.16-.26.33-.39.5.4-.39.32-.35-.26.12.33-.24,1.25-.48.04-.07-2.18-1.66-4.37-3.33-6.54-4.99v2.79c0,3.54,2.59,6.5,6.25,6.48,3.62-.02,6.49-2.65,6.48-6.33,0-.99,0-1.96,0-2.95-2.18,1.66-4.36,3.33-6.55,4.99.54.18.46.14-.25-.11,1.02.53-.77-.76.03.06-.43-.6-.5-.66-.2-.19-.08-.2-.16-.39-.23-.59.14.55.16.45.03-.32.02.25.02.5,0,.74.02-.22.05-.43.07-.66-.18.54-.13.46.13-.24-.51,1.03.77-.76-.04.06.83-.84.3-.24-.12-.02-1.59.82-2.56,2.72-2.56,4.47,0,5.98.02,11.97.03,17.95,0,2.82,2.34,5.18,5.17,5.18s5.17-2.36,5.17-5.18Z"/>
        </g>
        <g>
          <rect class="st23" x="75.53" y="273.71" width="3.66" height="22.24" transform="translate(-.38 .1) rotate(-.08)"/>
          <path class="st23" d="M72.97,271.78c0-2,1.34-3.69,3.17-4.21v3.15c0,.53.43.95.96.95h.48c.53,0,.95-.43.95-.95v-3.16c1.83.53,3.19,2.21,3.19,4.21,0,2.41-1.96,4.38-4.37,4.38-2.42,0-4.38-1.95-4.38-4.37Z"/>
          <path class="st23" d="M73.01,297.69c0,2,1.35,3.7,3.19,4.2v-3.15c0-.53.42-.96.95-.96h.47c.53,0,.96.42.96.95v3.16c1.85-.53,3.19-2.22,3.19-4.21-.01-2.42-1.97-4.37-4.39-4.37-2.41,0-4.36,1.97-4.36,4.38Z"/>
        </g>
      </g>
      <g>
        <path class="st4" d="M76.06,276.29l.03,17.95c-1.5.7-2.54,2.22-2.54,3.98,0,1.07.4,2.05,1.03,2.8-.96-.79-1.58-2-1.58-3.35,0-1.77,1.05-3.29,2.54-3.98l-.02-17.72c.17.12.35.21.54.3Z"/>
        <path class="st4" d="M78.5,298.38c.36.13.61.48.61.89v2.4c-.17.08-.35.15-.54.2v-3.15c-.01-.13-.03-.24-.08-.34Z"/>
        <path class="st4" d="M79.75,294.23v-.24c.36.24.69.53.98.87-.3-.25-.62-.46-.98-.62Z"/>
        <path class="st4" d="M79.07,268.09v3.15c0,.53-.42.96-.95.96h-.47c-.41,0-.75-.25-.89-.61.1.04.23.06.34.06h.48c.52,0,.95-.43.95-.95v-3.15c.85.24,1.59.73,2.15,1.4-.47-.39-1.01-.69-1.61-.85Z"/>
        <path class="st4" d="M73.51,272.31c0,1.07.39,2.04,1.03,2.8-.96-.8-1.57-2-1.57-3.35,0-2,1.34-3.7,3.17-4.21v.74c-1.55.68-2.63,2.22-2.63,4.02Z"/>
      </g>
    </g>
    <g>
      <path class="st7" d="M77.52,292.85c.28,0,.5-.21.5-.5l-.02-15.26c0-.28-.22-.5-.5-.5h0c-.28,0-.5.22-.5.5l.03,15.26c0,.28.23.5.5.5h0Z"/>
      <path d="M77.62,293.17c1-.27.74-1.46.73-2.27,0-1.85,0-3.69,0-5.53,0-1.98,0-3.96-.02-5.94,0-.71.28-2.09-.12-2.75-.31-.53-1.11-.53-1.43,0-.16.27-.1.65-.1.95,0,1.57,0,3.13,0,4.69,0,3.32.01,6.63.02,9.96,0,.5.28.77.74.89.4.11.57-.51.17-.62-.57-.15-.27-2.11-.27-2.53,0-1.72,0-3.44,0-5.16,0-2.59-.01-5.17-.02-7.76,0-.25.36-.03.36.13v2.2c.01,1.72.01,3.45.02,5.17,0,1.74,0,3.49,0,5.23,0,.43.32,2.56-.26,2.72-.41.11-.23.73.17.62Z"/>
    </g>
  </g>
</svg>