<?xml version="1.0" encoding="UTF-8"?>
<svg id="Layer_1" xmlns="http://www.w3.org/2000/svg" version="1.1" viewBox="0 0 316.61 295.91">
  <!-- Generator: Adobe Illustrator 29.6.1, SVG Export Plug-In . SVG Version: 2.1.1 Build 9)  -->
  <defs>
    <style>
      .st0 {
        fill: #ffd3a4;
      }

      .st1 {
        fill: #d65675;
      }

      .st2 {
        fill: #ffd7c3;
      }

      .st3 {
        fill: #8b5e3c;
      }

      .st4 {
        fill: #d1d3d4;
      }

      .st5 {
        fill: #000002;
      }

      .st6 {
        fill: #603913;
      }

      .st7 {
        fill: #ffd4dd;
      }

      .st8 {
        fill: #125693;
      }

      .st9 {
        fill: #f1f2f2;
      }

      .st10 {
        fill: #f38b9e;
      }

      .st11 {
        fill: #fff;
      }

      .st12 {
        fill: #754c29;
      }

      .st13 {
        fill: #f7941e;
      }

      .st14 {
        fill: #d66100;
      }

      .st15 {
        fill: #fde5d2;
      }

      .st16 {
        fill: #fff3f6;
      }

      .st17 {
        fill: #ffebde;
      }

      .st18 {
        fill: #ffc0a4;
      }

      .st19 {
        fill: #2e74bc;
      }

      .st20 {
        fill: #caebff;
      }
    </style>
  </defs>
  <g>
    <g>
      <path class="st2" d="M118.21,215.96s-28.6,33.96-16.19,41.28c12.41,7.32,29.77-24.41,29.77-24.41l-13.58-16.87Z"/>
      <path d="M115.63,213.38c-3.45,4.09-6.64,8.43-9.65,12.87-4.7,6.95-9.5,14.71-10.62,23.17-.45,3.47.44,7.34,3.13,9.73,3.29,2.9,7.9,3.5,11.97,2.04,4.24-1.52,7.81-4.53,10.91-7.73,3.17-3.27,5.94-6.95,8.52-10.7,1.8-2.62,3.52-5.3,5.05-8.09.86-1.56.5-3.1-.57-4.42-4.53-5.62-9.05-11.25-13.58-16.87-1.25-1.55-3.87-1.3-5.16,0-1.52,1.51-1.25,3.61,0,5.16,4.53,5.62,9.06,11.24,13.58,16.87-.19-1.47-.38-2.95-.57-4.43-.87,1.58-1.81,3.12-2.77,4.64-1,1.57-2.03,3.12-3.11,4.64-.59.82-1.18,1.65-1.8,2.46-.16.21-.31.42-.48.62.59-.77.03-.04-.07.09-.39.49-.78.98-1.17,1.46-1.42,1.7-2.92,3.35-4.53,4.88-.73.7-1.51,1.38-2.3,2.02-.67.55.65-.48-.03.04-.2.15-.39.28-.59.42-.45.32-.91.62-1.37.91-.39.24-.79.45-1.19.66-.19.1-.39.2-.59.28-.72.33.81-.32.08-.04-.39.16-.79.28-1.18.39-.34.1-1.93.33-.6.17-.38.04-.78.06-1.16.05-.19-.01-.39-.02-.57-.04,1.17.11.49.07.21.01-.38-.07-.76-.19-1.12-.32-.7-.25.81.38.13.05-.23-.12-.47-.25-.7-.39-.96-.58.45.43-.18-.12-.24-.21-.44-.44-.64-.69.83,1.02.15.15-.02-.16-.52-.95.23.77-.1-.28-.1-.31-.16-.62-.23-.94-.12-.66.12.99.05.31-.02-.17-.03-.34-.03-.51-.02-.36-.01-.72,0-1.07.01-.34.21-1.88.02-.54.25-1.77.8-3.49,1.41-5.17.16-.44.34-.88.52-1.32-.43,1.04.2-.44.31-.69.45-.99.94-1.97,1.44-2.94,1.98-3.81,4.29-7.45,6.73-10.99,1.08-1.58,2.19-3.13,3.34-4.66.47-.63.95-1.27,1.43-1.89.1-.14.22-.29.33-.43.42-.55-.56.73-.15.19.23-.29.46-.58.68-.88.72-.9,1.43-1.81,2.17-2.69,1.28-1.52,1.5-3.67,0-5.16-1.31-1.32-3.88-1.53-5.16,0Z"/>
    </g>
    <g>
      <rect class="st5" x="108.5" y="230.32" width="7.1" height="20.27" transform="translate(-150.74 204.15) rotate(-57.15)"/>
      <path d="M118.88,250.05l-18.38-11.87,4.73-7.32,18.38,11.87-4.73,7.32ZM102.72,237.7l15.68,10.12,2.98-4.61-15.67-10.12-2.98,4.61Z"/>
    </g>
    <path class="st10" d="M109.46,234.37l8.38,5.47,3.7-13.96-3.3-4.14s-3.84,4.79-5.67,7.65c-1.82,2.85-3.11,4.98-3.11,4.98Z"/>
  </g>
  <g>
    <g>
      <rect class="st10" x="106.98" y="232.98" width="7.96" height="18.06" transform="translate(-153.8 214.02) rotate(-59.33)"/>
      <path d="M118.04,247.75c-5.18-3.07-10.35-6.14-15.53-9.21.31,1.21.63,2.42.95,3.63,1.36-2.29,2.71-4.57,4.06-6.85-1.21.32-2.42.63-3.63.95,5.18,3.07,10.35,6.14,15.53,9.21-.32-1.21-.63-2.43-.95-3.63-1.36,2.29-2.71,4.57-4.06,6.85-1.75,2.95,2.84,5.62,4.58,2.68,1.36-2.29,2.71-4.57,4.07-6.85.74-1.25.28-2.9-.96-3.63-5.18-3.07-10.35-6.14-15.52-9.21-1.25-.75-2.9-.28-3.64.95-1.35,2.29-2.71,4.57-4.06,6.86-.74,1.25-.29,2.9.96,3.63,5.17,3.07,10.35,6.14,15.52,9.21,2.96,1.75,5.62-2.85,2.68-4.59Z"/>
    </g>
    <polygon class="st1" points="115.5 246.17 104.84 239.9 105.24 239.2 115.9 245.48 115.5 246.17"/>
  </g>
  <path class="st1" d="M117.49,222.47s-2.54,3.16-4.03,5.39c-1.48,2.23-3.67,5.67-3.67,5.67l7.97,4.82-5.39-5.2s.88-1.57,2.6-4.45c1.73-2.88,4.04-5.92,4.04-5.92l-1.51-.31Z"/>
  <path d="M270.92,131.99c-.96-12.74-13.55-84.4-97.26-84.4h-.5c-61.45,0-83.33,38.66-91,64.26,0,0-5.74,8.5-15.96,14.19-11.72,6.53-28.56,10.58-36.05,14.27-19.09,9.39-22.49,24.18-22.49,24.18,0,0,11.84-11.15,19.5-13.72,7.67-2.57,16.49-.77,16.49-.77,0,0-18.91,15.52-27.22,34.04-8.31,18.51,1.9,40.24,1.9,40.24,0,0,2.04-10.51,6.26-19.22,4.21-8.7,11.42-14.51,11.42-14.51,0,0-6.02,11.22-6.16,26.28-.14,15.05,9.27,27.84,9.27,27.84,0,0,.24-9.85,9.15-17.6,8.91-7.74,20.64-5.66,20.64-5.66,0,0-3.8,2.28-6.98,6.28-3.18,4-4.11,8.68-4.11,8.68,0,0,2.01-1.63,8.08-2.89,6.06-1.25,33.02,14.43,66.66-.8,16.78-7.59-13.27-77.69-13.27-77.69,2.76-1.02,5.57-2.15,8.43-3.41v-.07c6.25-2.74,12.75-6.05,19.33-10.07,10.45-6.38,18.88-14.09,25.63-21.99.22-.25.43-.51.64-.76h0s.07-.08.1-.12c6.87,8.21,15.53,16.26,26.38,22.87,20.5,12.5,2.1,77.89,2.1,77.89l9.73,7.86s36.01-7.43,49.65-36.1c13.34-28.04,10.01-54.31,9.65-59.12Z"/>
  <g>
    <g>
      <path class="st5" d="M226.15,291.12c0,1.98-30,3.58-67,3.58s-67.01-1.6-67.01-3.58,30-3.57,67.01-3.57,67,1.6,67,3.57Z"/>
      <path d="M159.16,295.91c-17.93,0-34.78-.37-47.45-1.05-20.77-1.11-20.77-2.38-20.77-3.74s0-2.63,20.77-3.74c12.68-.67,29.53-1.05,47.45-1.05s34.76.37,47.44,1.05c20.77,1.11,20.77,2.38,20.77,3.74s0,2.63-20.77,3.74c-12.67.68-29.52,1.05-47.44,1.05ZM95.96,291.13c8.08,1.24,31.44,2.36,63.2,2.36s55.11-1.12,63.19-2.36c-8.26-1.24-32.35-2.37-63.19-2.37s-54.94,1.13-63.2,2.37Z"/>
    </g>
    <g>
      <path class="st19" d="M125.85,214.24s-12.69,70.21-4.06,73.22c8.62,3.01,16.61-10.73,16.61-10.73,0,0,6.88,2.1,18.73,2.31,11.86.22,21.4-2.44,21.4-2.44,0,0,8.83,15.28,18.38,12.13,9.53-3.16-5.62-74.66-5.62-74.66l-65.44.17Z"/>
      <path d="M122.32,213.27c-2.13,11.82-3.88,23.73-5.3,35.65-.98,8.29-1.84,16.63-1.89,24.99-.03,3.26.12,6.54.68,9.77.45,2.59,1.42,5.03,3.58,6.64,1.96,1.47,4.96,1.33,7.23.99,2.94-.44,5.59-2.28,7.82-4.13,2.81-2.34,5.28-5.44,7.12-8.6-1.37.56-2.75,1.12-4.12,1.68,1.65.5,3.37.8,5.06,1.1,4.83.83,9.74,1.24,14.63,1.34,7.41.15,15.21-.59,22.37-2.58-1.38-.57-2.75-1.12-4.12-1.68,1.58,2.74,3.61,5.29,5.78,7.59,3.57,3.75,8.62,7.27,14.07,6.73,1.94-.2,3.87-.66,5.26-2.11.97-1.02,1.54-2.23,2.01-3.55.94-2.61,1.09-5.58,1.17-8.33.27-7.89-.68-15.84-1.68-23.64-1.12-8.71-2.52-17.39-4.08-26.03-.96-5.35-1.97-10.69-3.1-16-.33-1.58-1.97-2.69-3.52-2.68-12.23.04-24.46.07-36.7.1-9.58.03-19.16.06-28.75.08-4.71.01-4.71,7.31,0,7.3,12.23-.03,24.46-.06,36.69-.1,9.59-.02,19.17-.04,28.75-.07-1.17-.89-2.34-1.79-3.52-2.69,2.41,11.4,4.45,22.9,6.13,34.44.15,1.06.31,2.11.46,3.18.03.27.26,1.96.12.88.08.62.16,1.24.25,1.86.28,2.17.53,4.35.76,6.52.42,3.97.75,7.97.88,11.96.05,1.69.06,3.38,0,5.07-.02.71-.07,1.43-.12,2.14-.03.32-.06.66-.09.99-.02.16-.04.32-.06.47-.08.63.16-1.09.02-.21-.16,1.06-.39,2.12-.77,3.12-.1.25.48-1.02.06-.2-.09.17-.18.33-.29.48-.37.57.73-.85.2-.27-.54.59.18-.1.27-.16-.31.21-.97.4.41-.13-.2.08-.42.13-.63.19-.19.05-.37.09-.56.13.51-.06.55-.06.14-.02-.55.05-1.1.02-1.65-.02.99.09.1,0-.1-.05-.36-.09-.71-.19-1.06-.31-.16-.05-1.02-.41-.16-.04-.26-.12-.51-.24-.76-.37-.59-.3-1.16-.66-1.71-1.03-.24-.16-.47-.34-.7-.5.71.53-.06-.06-.17-.16-.52-.43-1.02-.88-1.5-1.35-.86-.82-1.66-1.72-2.43-2.63-.18-.21-1.19-1.5-.51-.62-.31-.41-.62-.82-.91-1.24-.56-.78-1.11-1.59-1.58-2.42-.82-1.41-2.55-2.12-4.13-1.68-1.99.55-4.04.93-6.08,1.28-2.27.38-3.63.54-6.11.76-2.73.24-5.48.32-8.23.29-2.61-.04-5.22-.2-7.82-.44-.52-.06-1.04-.11-1.56-.17-.14-.01-1.58-.19-.82-.09-.93-.13-1.85-.27-2.77-.43-1.6-.28-3.22-.58-4.78-1.06-1.56-.47-3.31.29-4.12,1.68-.49.84-1.05,1.65-1.62,2.44-.13.17-.26.35-.39.53-.49.65.52-.66,0,0-.31.4-.65.79-.98,1.18-.79.92-1.64,1.79-2.54,2.59-.21.19-.44.38-.66.56-.74.62.61-.44-.17.14-.46.34-.94.65-1.43.94-.25.14-.5.27-.76.4-.15.07-1.02.42-.15.08-.6.24-1.22.39-1.85.51.96-.17.09-.03-.12-.02-.28,0-.55,0-.83-.02-.94-.05.8.16-.14-.03-.29-.06-.57-.16-.84-.25-.24-.08,1.09.56.44.15.06.04.84.77.29.18-.44-.46.66.95.22.28-.1-.16-.18-.32-.27-.48-.4-.78.34.91.07.21-.09-.25-.17-.5-.25-.76-.15-.5-.26-1-.36-1.52-.05-.28-.11-.57-.15-.86-.05-.29-.13-.93.04.36-.02-.21-.05-.42-.07-.63-.36-3.26-.34-6.57-.24-9.84.25-8.56,1.2-17.09,2.26-25.58.13-1.04.27-2.09.41-3.14.03-.25.07-.51.1-.78.12-.9-.11.84,0-.05.08-.6.16-1.2.25-1.79.28-2.04.57-4.08.88-6.11.51-3.45,1.05-6.9,1.61-10.35.44-2.68.89-5.36,1.37-8.04.35-1.96-.5-3.93-2.55-4.49-1.78-.5-4.13.59-4.49,2.55Z"/>
    </g>
  </g>
  <g>
    <g>
      <path class="st2" d="M198.51,215.96s28.59,33.96,16.19,41.28c-12.41,7.32-29.77-24.41-29.77-24.41l13.59-16.87Z"/>
      <path d="M195.92,218.54c.98,1.16,1.92,2.36,2.85,3.56.42.54-.57-.74-.15-.19.11.14.23.29.33.43.23.31.47.61.69.91.55.73,1.09,1.47,1.63,2.2,1.17,1.61,2.31,3.24,3.43,4.89,2.4,3.58,4.64,7.26,6.53,11.13.22.45.43.9.64,1.36.12.25.74,1.73.31.69.38.92.73,1.87,1.04,2.83.27.81.49,1.64.67,2.48.09.39.16.79.22,1.18-.21-1.33,0,.2.02.54.02.35.02.71,0,1.07,0,.17-.02.35-.03.51-.06.69.15-.98.04-.31-.05.32-.13.63-.22.94-.31,1.06.39-.69-.11.28-.15.29-.84,1.22-.02.16-.19.25-.41.47-.64.69-.61.57.76-.48-.18.12-.16.11-.33.2-.5.29-.88.47.53-.18-.06.05-.36.14-.74.24-1.13.32-.27.06-.98.12.21-.01-.19.02-.38.03-.57.04-.39.01-.78-.02-1.17-.05,1.32.13-.24-.08-.59-.17-.4-.1-.8-.25-1.19-.39-.73-.27.81.36.08.04-.2-.09-.39-.19-.59-.28-.89-.45-1.74-.99-2.56-1.57-.2-.13-.39-.28-.59-.42-.69-.51.64.51-.05-.04-.39-.31-.78-.64-1.15-.97-.86-.74-1.66-1.54-2.46-2.34-1.55-1.59-3-3.3-4.38-5.05-.11-.13-.67-.85-.08-.09-.16-.21-.32-.42-.47-.62-.32-.41-.62-.83-.92-1.24-.63-.86-1.24-1.72-1.84-2.61-.98-1.43-1.92-2.88-2.83-4.35-.72-1.16-1.42-2.34-2.08-3.54-.19,1.48-.38,2.96-.57,4.43,4.53-5.63,9.06-11.25,13.59-16.87,1.25-1.55,1.52-3.65,0-5.16-1.29-1.3-3.91-1.55-5.16,0-4.53,5.62-9.05,11.25-13.58,16.87-1.07,1.32-1.43,2.86-.57,4.42,2.89,5.29,6.4,10.3,10.2,14.97,5.02,6.15,13.01,14.33,21.84,11.92,3.75-1.02,6.78-4.09,7.41-7.97.62-3.88-.32-7.75-1.73-11.36-3.09-7.9-7.89-15.07-12.93-21.85-1.76-2.38-3.57-4.74-5.48-7.01-1.28-1.53-3.85-1.32-5.16,0-1.5,1.49-1.28,3.64,0,5.16Z"/>
    </g>
    <g>
      <rect class="st5" x="194.53" y="236.91" width="20.27" height="7.1" transform="translate(-97.72 149.52) rotate(-32.86)"/>
      <path d="M197.84,250.05l-4.73-7.32,18.38-11.87,4.72,7.32-18.37,11.87ZM195.34,243.22l2.98,4.61,15.67-10.12-2.97-4.61-15.67,10.12Z"/>
    </g>
    <path class="st10" d="M207.26,234.37l-8.38,5.47-3.7-13.96,3.3-4.14s3.85,4.79,5.67,7.65c1.82,2.85,3.11,4.98,3.11,4.98Z"/>
  </g>
  <g>
    <g>
      <polygon class="st15" points="186.6 222.4 159.48 222.4 159.26 222.4 132.14 222.4 120.38 261.05 159.26 261.05 159.48 261.05 198.36 261.05 186.6 222.4"/>
      <path d="M186.6,215.1h-54.47c-3.31,0-6.09,2.24-7.04,5.36-3.74,12.32-7.49,24.63-11.23,36.95-.18.57-.35,1.14-.52,1.7-1.39,4.57,2.39,9.24,7.04,9.24h77.97c4.65,0,8.43-4.68,7.04-9.24-3.75-12.32-7.49-24.63-11.23-36.95-.17-.57-.35-1.13-.52-1.7-1.15-3.8-5.07-6.18-8.98-5.1-3.76,1.03-6.25,5.17-5.1,8.98,3.75,12.31,7.49,24.63,11.24,36.94.17.57.34,1.14.51,1.7,2.34-3.08,4.7-6.16,7.04-9.24h-77.97c2.35,3.08,4.69,6.17,7.05,9.24,3.74-12.31,7.48-24.63,11.23-36.94.17-.57.34-1.14.52-1.7-2.35,1.78-4.7,3.57-7.04,5.36h54.47c3.98,0,7.31-3.31,7.31-7.3s-3.32-7.3-7.31-7.3Z"/>
    </g>
    <polygon class="st10" points="186.6 222.4 159.48 222.4 159.26 222.4 132.14 222.4 120.38 261.05 159.26 261.05 159.48 261.05 198.36 261.05 186.6 222.4"/>
  </g>
  <g>
    <path class="st2" d="M177.35,213.86c0,10.06-8.16,18.22-18.23,18.22s-18.23-8.16-18.23-18.22,8.16-18.22,18.23-18.22,18.23,8.16,18.23,18.22Z"/>
    <path d="M174.04,213.86c-.06,5.32-2.82,10.13-7.39,12.87-4.6,2.76-10.42,2.64-15.04,0-4.6-2.63-7.33-7.62-7.38-12.87-.05-5.3,2.88-10.18,7.38-12.87,4.61-2.77,10.43-2.65,15.04,0,4.6,2.63,7.33,7.62,7.39,12.87.04,4.28,6.68,4.28,6.63,0-.06-6.44-2.92-12.69-7.99-16.72-5.32-4.24-12.14-5.73-18.76-4.19-6.13,1.43-11.51,5.92-14.2,11.57-2.93,6.16-2.72,13.21.31,19.28,4.42,8.87,14.85,13.16,24.31,10.96,9.56-2.23,16.24-11.25,16.33-20.91.04-4.28-6.59-4.28-6.63,0Z"/>
  </g>
  <g>
    <g>
      <path class="st15" d="M185.39,248.84c-2.22-9.03.53-24.07.53-24.07l-5.93.62s-.74,20.34-20.55,20.34c-.05,0-.1,0-.14,0h-.03s-.09,0-.14,0c-19.81,0-20.55-20.34-20.55-20.34l-5.93-.62s2.75,15.04.53,24.07c-2.22,9.02-11.58,12.21-11.58,12.21h75.36s-9.36-3.19-11.57-12.21Z"/>
      <path d="M191.79,247.08c-.13-.54-.24-1.07-.34-1.62-.32-1.79.16,1.55-.04-.29-.15-1.33-.21-2.65-.24-3.99-.05-2.54.08-5.06.28-7.6.08-1.06.19-2.12.31-3.18.05-.47.11-.93.17-1.4.07-.54.22-1.69-.1.76.03-.22.06-.45.09-.69.12-.85.25-1.7.4-2.55.33-1.81.29-3.47-.67-5.11-1.09-1.86-3.47-3.53-5.73-3.29-1.97.21-3.95.41-5.93.62-3.71.39-6.49,2.72-6.64,6.64-.01.44-.07.88-.12,1.32.3-2.43.19-1.29,0-.22-.12.66-.27,1.32-.44,1.97-.18.69-.4,1.39-.63,2.07-.12.37-.26.74-.41,1.1-.36.92.76-1.76.35-.84-.11.26-.23.5-.34.76-.37.78-.8,1.54-1.26,2.27-.24.38-.5.75-.76,1.12-.62.84,1.13-1.43.47-.62-.2.24-.4.47-.61.71-.64.72-1.35,1.37-2.1,1.98,1.96-1.58.42-.34-.1,0-.51.34-1.06.63-1.6.91-.25.12-.5.24-.74.35,2.05-.93,1.03-.43.55-.25-.55.21-1.11.38-1.67.54-.6.17-1.2.29-1.81.41-.49.09-1.75.24.47-.05-.45.06-.9.09-1.35.12-1.06.08-2.12.08-3.19.04-.69-.02-1.38-.09-2.06-.16,2.49.28-.13-.07-.75-.21-.58-.13-1.15-.31-1.72-.49-.27-.1-.54-.2-.81-.29-1.09-.42,1.62.71.57.23-1.04-.47-2.02-1.06-2.94-1.72-.89-.64,1.4,1.12.55.43-.25-.21-.5-.42-.74-.64-.41-.38-.79-.78-1.17-1.19-.15-.17-.31-.35-.46-.53-.93-1.1.94,1.25.33.44-.31-.42-.6-.86-.88-1.3-.53-.85-.99-1.74-1.41-2.65-.22-.49-.59-1.42.35.84-.1-.24-.2-.5-.3-.74-.17-.48-.33-.95-.49-1.44-.42-1.36-.74-2.75-.95-4.16-.16-1.07.28,2.28.13.95-.02-.18-.04-.36-.05-.54-.02-.16-.03-.33-.04-.49-.14-3.91-2.92-6.25-6.63-6.64-1.98-.21-3.95-.42-5.93-.62-1.66-.17-3.56.81-4.69,1.95-1.79,1.79-2.14,4.07-1.71,6.45.12.65.21,1.29.31,1.94.03.28.07.55.12.83.21,1.5-.24-1.89-.04-.29.12.98.24,1.96.33,2.93.46,4.61.66,9.32.11,13.93.28-2.3.06-.58-.03-.08-.1.55-.23,1.1-.37,1.65-.16.59-.36,1.15-.58,1.72.81-2.08.03-.21-.23.28-.27.47-.57.94-.89,1.38-.4.55-.25.35.46-.58-.19.25-.4.48-.6.72-.65.74-1.37,1.4-2.12,2.03-.85.7,1.52-1.13.28-.22-.34.25-.68.47-1.03.69-.59.39-1.21.73-1.83,1.04-.97.5-1.91.84.17-.02-.15.07-.31.12-.47.18-2.82.97-4.87,3.31-4.87,6.41,0,3.62,3.02,6.63,6.64,6.63h75.36c2.95,0,5.62-2.03,6.4-4.87,1.01-3.65-1.21-6.99-4.64-8.17-.1-.04-.2-.08-.31-.11-.53-.21-1.33-.58,1.12.47-.22-.09-.43-.19-.65-.29-1.17-.55-2.27-1.22-3.32-1.96-1.26-.89,1.13.91.28.22-.3-.24-.58-.49-.86-.75-.68-.61-1.3-1.28-1.87-1.99,1.41,1.73.38.48.09.05-.31-.47-.58-.96-.84-1.45-.82-1.56.39,1.09-.03,0-.22-.57-.39-1.16-.54-1.75-.91-3.51-4.72-5.58-8.17-4.64-3.53.98-5.54,4.66-4.64,8.16,2.04,7.91,8.57,14.22,16.22,16.84.59-4.35,1.17-8.69,1.76-13.04h-75.36c.59,4.34,1.18,8.69,1.77,13.04,8.19-2.82,14.99-9.81,16.54-18.45,1.53-8.51.68-17.54-.86-25.99-2.14,2.8-4.27,5.6-6.4,8.4,1.97.21,3.95.41,5.93.62-2.22-2.21-4.42-4.42-6.64-6.63.25,6.52,2.76,12.85,6.75,17.94,3.27,4.17,8.19,7.04,13.31,8.24,5.72,1.32,12.44,1.2,17.89-1.07,3.57-1.48,6.82-3.49,9.38-6.44,2.39-2.77,3.99-5.71,5.33-9.08,1.18-2.98,1.89-6.38,2.01-9.58-2.21,2.21-4.42,4.42-6.64,6.63,1.98-.21,3.96-.41,5.93-.62-2.13-2.8-4.27-5.6-6.4-8.4-1.61,8.9-2.64,18.71-.53,27.6.84,3.52,4.77,5.58,8.16,4.64,3.58-.99,5.47-4.65,4.64-8.16Z"/>
    </g>
    <path class="st19" d="M185.39,248.84c-2.22-9.03.53-24.07.53-24.07l-5.93.62s-.74,20.34-20.55,20.34c-.05,0-.1,0-.14,0h-.03s-.09,0-.14,0c-19.81,0-20.55-20.34-20.55-20.34l-5.93-.62s2.75,15.04.53,24.07c-2.22,9.02-11.58,12.21-11.58,12.21h75.36s-9.36-3.19-11.57-12.21Z"/>
    <path class="st8" d="M159.15,247.71h.35c20.97,0,22.85-20.36,23-22.58l-2.46.26s-.74,20.34-20.55,20.34c-.05,0-.1,0-.15,0h-.02s-.1,0-.15,0c-19.81,0-20.55-20.34-20.55-20.34l-2.46-.26c.14,2.22,2.02,22.58,23,22.58Z"/>
  </g>
  <path class="st19" d="M122.59,268.4l-.99-7.35s23.28-2.03,38.59-2.03,38.14,2.03,38.14,2.03l-2.23,7.57s-9.79,3.54-36.96,3.54-36.54-3.76-36.54-3.76Z"/>
  <g>
    <g>
      <rect class="st10" x="196.72" y="238.03" width="18.06" height="7.97" transform="translate(-94.67 138.8) rotate(-30.67)"/>
      <path d="M201.36,252.34c5.18-3.07,10.35-6.14,15.53-9.21,1.24-.73,1.69-2.38.95-3.63-1.36-2.29-2.71-4.57-4.06-6.86-.74-1.23-2.38-1.69-3.63-.95-5.18,3.07-10.35,6.14-15.53,9.21-1.24.73-1.69,2.38-.96,3.63,1.36,2.29,2.71,4.57,4.06,6.85,1.75,2.94,6.34.27,4.59-2.68-1.35-2.29-2.71-4.57-4.07-6.85-.31,1.21-.63,2.42-.95,3.63,5.18-3.07,10.35-6.14,15.53-9.21-1.21-.32-2.42-.63-3.63-.95,1.35,2.28,2.71,4.57,4.06,6.85.32-1.21.63-2.42.95-3.63-5.17,3.07-10.35,6.14-15.52,9.21-2.94,1.74-.28,6.34,2.68,4.59Z"/>
    </g>
    <polygon class="st1" points="201.23 246.17 211.88 239.9 211.48 239.2 200.82 245.48 201.23 246.17"/>
  </g>
  <path class="st1" d="M199.22,222.47s2.55,3.16,4.03,5.39c1.48,2.23,3.67,5.67,3.67,5.67l-7.96,4.82,5.4-5.2s-.88-1.57-2.61-4.45c-1.73-2.88-4.03-5.92-4.03-5.92l1.5-.31Z"/>
  <g>
    <g>
      <path class="st15" d="M171.23,255.12h-23.93s0,11.12,11.96,11.12,11.97-11.12,11.97-11.12Z"/>
      <path d="M171.23,249.82h-23.93c-2.89,0-5.33,2.41-5.32,5.3.01,2.87.93,5.82,2.27,8.33,2.97,5.51,8.99,8.04,15.01,8.09,6.04.06,11.81-2.63,14.91-7.91,1.45-2.48,2.36-5.62,2.37-8.51.01-2.89-2.42-5.3-5.31-5.3s-5.3,2.41-5.31,5.3c0,.12,0,.24-.02.36,0,.14-.02.28-.03.42-.11,1.09.24-1.61.08-.61-.09.55-.22,1.1-.37,1.63-.08.29-.19.57-.29.85-.39,1.07.66-1.38,0-.04-.15.31-.33.6-.51.89-.11.19-.24.36-.35.53-.52.76.88-1.09.28-.38-.24.29-.51.56-.79.82-.17.17-.36.32-.54.47,1.3-1.07.61-.48.27-.25-.37.24-.75.44-1.14.64-.94.45,1.25-.48.24-.12-.28.11-.57.18-.85.27-.51.15-1.03.24-1.56.33,1.73-.28-.63-.02-1.09-.01-.61,0-1.22-.03-1.83-.09,1.69.16-.12-.05-.52-.15-.48-.11-.95-.27-1.41-.44,1.69.62,0-.05-.42-.29-.14-.09-.28-.19-.42-.28-.82-.54,1.04.85.3.24-.36-.29-.68-.62-1-.96-.87-.96.74,1.08.02.04-.24-.35-.45-.7-.65-1.07-.23-.42-.74-1.68.04.2-.14-.34-.26-.69-.37-1.03-.17-.55-.3-1.11-.4-1.67-.21-1.16.16,1.28.08.69-.03-.18-.04-.36-.05-.55-.01-.14-.02-.28-.02-.43-1.77,1.77-3.54,3.54-5.31,5.31h23.93c2.9,0,5.31-2.41,5.31-5.31s-2.42-5.3-5.31-5.3Z"/>
    </g>
    <path class="st10" d="M171.23,255.12h-23.93s0,11.12,11.96,11.12,11.97-11.12,11.97-11.12Z"/>
    <path class="st1" d="M159.26,263.31c-8,0-10.88-4.76-11.9-8.19h-.06s0,11.12,11.96,11.12,11.97-11.12,11.97-11.12h-.06c-1.03,3.42-3.91,8.19-11.91,8.19Z"/>
  </g>
  <path class="st20" d="M134.83,225l-2.17-.23s2.75,15.04.53,24.07c-2.22,9.02-11.58,12.21-11.58,12.21l.99,7.35-.14,7.96s-.49,7.96,1.64,8.16c2.13.2,6.29-3.52,6.29-3.52,0,0-4.6,1.61-5.52,1.4-.93-.2-.9-6.05-.9-6.05l.31-7.7-.48-6.75,2.39-1.23c3.01-1.68,7.66-5.17,9.16-11.25,2.11-8.6-.17-22.51-.5-24.44Z"/>
  <path class="st8" d="M183.66,225l2.17-.23s-2.75,15.04-.53,24.07c2.22,9.02,13.08,12.26,13.08,12.26l-2.26,7.74.35,8.36s.29,8.37-1.83,8.56c-2.13.2-6.77-3.37-6.77-3.37,0,0,5.16,1.55,6.09,1.35.93-.2.58-7.38.58-7.38l-.31-7.7,1.74-6.22-3.65-1.77c-3.01-1.68-7.67-5.17-9.16-11.25-2.12-8.6.17-22.51.5-24.44Z"/>
  <g>
    <g>
      <g>
        <path class="st15" d="M228.59,162.69c0,8.73,7.07,15.81,15.81,15.81s15.8-7.07,15.8-15.81-7.07-15.8-15.8-15.8-15.81,7.08-15.81,15.8Z"/>
        <path d="M219.3,162.69c.11,8.87,4.71,16.89,12.23,21.55,7.61,4.73,17.36,4.48,25.12.36,7.8-4.16,12.32-12.53,12.82-21.16.51-8.89-4.49-17.04-11.63-21.92-7.57-5.18-17.84-4.92-25.71-.73-7.94,4.23-12.73,13.05-12.84,21.9-.05,5.07,4.27,9.3,9.29,9.3s9.24-4.23,9.29-9.3c0-.73.06-1.47.16-2.2-.12.82-.23,1.64-.33,2.47.19-1.3.53-2.56,1.02-3.78-.31.73-.63,1.48-.94,2.22.55-1.3,1.24-2.5,2.08-3.62-.48.62-.97,1.25-1.45,1.88.86-1.1,1.83-2.07,2.93-2.93-.62.48-1.25.97-1.88,1.45,1.13-.84,2.33-1.54,3.63-2.08-.74.31-1.48.62-2.23.94,1.23-.49,2.48-.82,3.79-1.02-.83.11-1.65.22-2.47.34,1.47-.19,2.94-.19,4.41,0-.82-.11-1.65-.23-2.46-.34,1.3.2,2.56.53,3.78,1.02-.74-.31-1.48-.62-2.22-.94,1.29.55,2.49,1.24,3.62,2.08-.63-.48-1.26-.97-1.88-1.45,1.1.87,2.08,1.83,2.94,2.93-.48-.62-.97-1.25-1.45-1.88.84,1.12,1.54,2.32,2.08,3.62-.31-.74-.63-1.48-.94-2.22.48,1.22.83,2.48,1.02,3.78-.11-.83-.22-1.65-.33-2.47.19,1.47.19,2.94,0,4.41.11-.83.22-1.65.33-2.47-.19,1.3-.53,2.56-1.02,3.78.31-.74.62-1.47.94-2.22-.55,1.29-1.24,2.49-2.08,3.62.48-.63.97-1.26,1.45-1.89-.86,1.1-1.83,2.08-2.94,2.94.63-.48,1.25-.97,1.88-1.46-1.13.85-2.33,1.54-3.62,2.08.74-.31,1.48-.63,2.22-.94-1.22.49-2.48.82-3.78,1.02.82-.12,1.65-.22,2.46-.33-1.47.19-2.93.19-4.41,0,.83.11,1.65.22,2.47.33-1.31-.2-2.56-.54-3.79-1.02.74.31,1.49.62,2.23.94-1.29-.55-2.5-1.23-3.63-2.08.63.48,1.26.97,1.88,1.46-1.1-.86-2.07-1.84-2.93-2.94.48.63.97,1.26,1.45,1.89-.84-1.13-1.53-2.33-2.08-3.62.31.74.63,1.48.94,2.22-.48-1.22-.83-2.48-1.02-3.78.11.82.22,1.64.33,2.47-.1-.73-.15-1.47-.16-2.21-.06-5.06-4.18-9.29-9.29-9.29s-9.35,4.23-9.29,9.29Z"/>
      </g>
      <path class="st2" d="M228.59,162.69c0,8.73,7.07,15.81,15.81,15.81s15.8-7.07,15.8-15.81-7.07-15.8-15.8-15.8-15.81,7.08-15.81,15.8Z"/>
      <path class="st17" d="M232.67,162.25c0,6.4,5.19,11.58,11.59,11.58s11.57-5.18,11.57-11.58-5.18-11.57-11.57-11.57-11.59,5.18-11.59,11.57Z"/>
    </g>
    <g>
      <g>
        <path class="st15" d="M60.43,162.69c0,8.73,7.07,15.81,15.8,15.81s15.81-7.07,15.81-15.81-7.08-15.8-15.81-15.8-15.8,7.08-15.8,15.8Z"/>
        <path d="M51.14,162.69c.1,8.87,4.72,16.89,12.23,21.55,7.61,4.73,17.37,4.48,25.13.36,7.8-4.16,12.31-12.53,12.82-21.16.51-8.89-4.48-17.04-11.62-21.92-7.57-5.18-17.83-4.92-25.72-.73-7.94,4.23-12.73,13.05-12.83,21.9-.06,5.07,4.27,9.3,9.29,9.3s9.23-4.23,9.3-9.3c0-.73.06-1.47.15-2.2-.11.82-.23,1.64-.33,2.47.19-1.3.53-2.56,1.02-3.78-.31.73-.62,1.48-.93,2.22.55-1.3,1.24-2.5,2.08-3.62-.48.62-.97,1.25-1.46,1.88.87-1.1,1.84-2.07,2.93-2.93-.62.48-1.25.97-1.88,1.45,1.12-.84,2.33-1.54,3.63-2.08-.74.31-1.48.62-2.22.94,1.22-.49,2.48-.82,3.78-1.02-.82.11-1.65.22-2.47.34,1.47-.19,2.93-.19,4.4,0-.83-.11-1.64-.23-2.47-.34,1.31.2,2.56.53,3.78,1.02-.73-.31-1.48-.62-2.22-.94,1.3.55,2.5,1.24,3.63,2.08-.63-.48-1.26-.97-1.88-1.45,1.1.87,2.07,1.83,2.93,2.93-.48-.62-.97-1.25-1.46-1.88.85,1.12,1.54,2.32,2.08,3.62-.31-.74-.62-1.48-.93-2.22.48,1.22.82,2.48,1.02,3.78-.11-.83-.22-1.65-.34-2.47.19,1.47.19,2.94,0,4.41.12-.83.23-1.65.34-2.47-.2,1.3-.54,2.56-1.02,3.78.31-.74.62-1.47.93-2.22-.54,1.29-1.23,2.49-2.08,3.62.49-.63.97-1.26,1.46-1.89-.86,1.1-1.84,2.08-2.93,2.94.62-.48,1.25-.97,1.88-1.46-1.13.85-2.32,1.54-3.63,2.08.74-.31,1.48-.63,2.22-.94-1.22.49-2.47.82-3.78,1.02.83-.12,1.65-.22,2.47-.33-1.47.19-2.93.19-4.4,0,.82.11,1.65.22,2.47.33-1.3-.2-2.56-.54-3.78-1.02.74.31,1.48.62,2.22.94-1.3-.55-2.51-1.23-3.63-2.08.63.48,1.25.97,1.88,1.46-1.1-.86-2.07-1.84-2.93-2.94.49.63.97,1.26,1.46,1.89-.85-1.13-1.54-2.33-2.08-3.62.31.74.63,1.48.93,2.22-.48-1.22-.82-2.48-1.02-3.78.1.82.22,1.64.33,2.47-.09-.73-.14-1.47-.15-2.21-.06-5.06-4.19-9.29-9.3-9.29s-9.35,4.23-9.29,9.29Z"/>
      </g>
      <path class="st2" d="M60.43,162.69c0,8.73,7.07,15.81,15.8,15.81s15.81-7.07,15.81-15.81-7.08-15.8-15.81-15.8-15.8,7.08-15.8,15.8Z"/>
      <path class="st17" d="M64.51,162.25c0,6.4,5.18,11.58,11.57,11.58s11.59-5.18,11.59-11.58-5.19-11.57-11.59-11.57-11.57,5.18-11.57,11.57Z"/>
    </g>
  </g>
  <g>
    <g>
      <path class="st15" d="M247.62,81.03c.31,12.45,0,71.81,0,71.81,0,33.44-18.74,64.45-88.58,64.16-69.12-.29-85.49-30.72-85.49-64.16v-71.81h174.07Z"/>
      <path d="M238.33,81.03c.41,16.55.14,33.13.09,49.68-.02,6.4-.05,12.79-.08,19.19-.02,4.55-.1,9.07-.7,13.59.11-.83.22-1.65.33-2.48-.73,5.38-2.08,10.69-4.2,15.7.31-.74.63-1.48.94-2.22-1.72,4.02-3.91,7.82-6.58,11.29.48-.63.97-1.25,1.45-1.88-2.75,3.56-5.97,6.73-9.52,9.48.62-.48,1.25-.97,1.88-1.45-4.5,3.46-9.47,6.23-14.68,8.44.74-.31,1.48-.62,2.22-.94-8.73,3.68-18.03,5.82-27.4,7.09.83-.11,1.65-.22,2.47-.34-16.38,2.18-33.34,2.17-49.73-.04.83.12,1.65.23,2.47.34-9.1-1.25-18.14-3.31-26.63-6.87.74.31,1.48.62,2.22.93-5.07-2.15-9.91-4.84-14.28-8.21.62.49,1.25.97,1.88,1.45-3.38-2.63-6.43-5.65-9.05-9.03.48.62.97,1.25,1.45,1.88-2.59-3.38-4.71-7.07-6.38-10.99.31.74.63,1.48.94,2.22-2.13-5.07-3.47-10.43-4.21-15.88.11.83.22,1.65.33,2.47-.63-4.82-.74-9.65-.74-14.51v-68.92c-3.09,3.1-6.19,6.2-9.29,9.29h174.07c5.07,0,9.29-4.23,9.29-9.29s-4.22-9.29-9.29-9.29H73.55c-5.06,0-9.29,4.23-9.29,9.29v71.77c0,7.82.84,15.79,2.95,23.33,2.41,8.66,6.63,16.5,12.38,23.37,5.87,7.02,13.77,12.49,22.05,16.28,11.82,5.39,24.29,8.02,37.16,9.44,14.48,1.59,29.34,1.54,43.8-.2,12.75-1.53,25.05-4.35,36.73-9.8,8.32-3.88,16.16-9.51,22.1-16.56,5.82-6.91,10.05-14.81,12.56-23.51,3.53-12.23,2.94-25.09,2.99-37.67.06-17.59.2-35.18,0-52.77-.01-1.23-.03-2.45-.06-3.68-.13-5.06-4.13-9.29-9.29-9.29s-9.42,4.23-9.29,9.29Z"/>
    </g>
    <path class="st2" d="M246.95,66.78c.32,12.45,0,86.06,0,86.06,0,33.44-18.73,64.45-88.58,64.16-69.12-.29-85.48-30.72-85.48-64.16v-86.06h174.06Z"/>
  </g>
  <path class="st11" d="M108.41,45.38c-10.18,5.14-16.48,13.17-14.06,17.95,2.42,4.79,12.62,4.49,22.8-.65,10.18-5.14,16.48-13.17,14.06-17.96-2.41-4.78-12.62-4.49-22.8.65Z"/>
  <path class="st11" d="M84.71,69.99c.75,2.31,3.24,3.59,5.55,2.84,2.31-.75,3.59-3.24,2.84-5.56-.75-2.32-3.24-3.59-5.56-2.84-2.31.75-3.58,3.24-2.83,5.55Z"/>
  <g>
    <g>
      <path class="st15" d="M114.6,284.19c.44,1.02-.02,2.19-1.03,2.64h0c-1.02.44-2.2-.02-2.64-1.03l-15.15-34.68c-.44-1.01.02-2.19,1.03-2.63h0c1.02-.45,2.19.02,2.63,1.03l15.16,34.67Z"/>
      <path d="M107.56,286.14c.04.11.08.22.12.34-.5-1.98-.07-3.72,1.33-5.21,1.98-2.29,5.42-1.85,7.49-.05.73.63.9,1.25.73.82-.1-.21-.19-.42-.28-.63-.43-.99-.86-1.96-1.29-2.94-1.5-3.44-3.01-6.88-4.51-10.32-2.88-6.59-5.76-13.19-8.65-19.78-.11-.26-.22-.5-.33-.76-.02-.05-.05-.11-.07-.16-.21-.48-.06-.6.61,1.38,1.36,4.08-2.7,7.38-6.47,6.6-.6-.12-2.72-1.37-3.08-2.2.03.06.05.12.08.18.13.31.26.61.39.9,1.2,2.74,2.4,5.49,3.6,8.24,3.21,7.33,6.41,14.66,9.61,21.99.49,1.11.97,2.22,1.46,3.33,1.59,3.65,6.86,4.44,9.99,2.62,1.63-.95,2.85-2.54,3.36-4.36.57-2.07.08-3.75-.74-5.63-4.99-11.41-9.98-22.83-14.97-34.24-1.44-3.31-4.94-5.13-8.44-5.24-2.35-.07-4.42,1.06-6.17,2.48-1.4,1.13-2.04,2.7-2.68,4.32-.92,2.36-.09,4.92.85,7.07.85,1.94,1.69,3.87,2.53,5.8,3.29,7.51,6.57,15.02,9.85,22.53.84,1.94,1.67,3.85,2.52,5.78,1.05,2.4,3.14,3.9,5.53,4.84,6.9,2.7,13.95-4.86,11.7-11.58-1.26-3.78-4.99-6.2-8.99-5.1-3.68,1-6.36,5.21-5.1,8.98Z"/>
    </g>
    <path class="st12" d="M114.6,284.19c.44,1.02-.02,2.19-1.03,2.64h0c-1.02.44-2.2-.02-2.64-1.03l-15.15-34.68c-.44-1.01.02-2.19,1.03-2.63h0c1.02-.45,2.19.02,2.63,1.03l15.16,34.67Z"/>
    <path class="st6" d="M111.7,285.46l-15.15-34.67c-.38-.88-.09-1.89.67-2.42-.14.02-.27.06-.4.13-1.01.44-1.48,1.62-1.03,2.63l15.15,34.68c.44,1.01,1.62,1.47,2.64,1.03.13-.06.25-.13.36-.21-.9.19-1.85-.27-2.23-1.16Z"/>
    <path class="st3" d="M113.83,284.53l-15.16-34.67c-.39-.88-1.33-1.35-2.23-1.16.12-.08.24-.16.37-.21,1.02-.45,2.19.02,2.63,1.03l15.16,34.67c.44,1.02-.02,2.19-1.03,2.64-.13.06-.27.1-.4.13.75-.54,1.06-1.55.67-2.43Z"/>
    <g>
      <g>
        <path class="st15" d="M92.25,212.08c-.94.28,2.18,6.43,4.11,12.46,1.59,4.96,2.11,9.94,1.18,10.51-2.07,1.27-8.98-21.24-11.41-20.24-2.31.95,8.53,20.8,5.93,22.5h0s-.06.04-.09.05c-.04.02-.08.03-.12.04h0c-3,.75-10.21-20.69-12.48-19.64-2.38,1.11,9.44,21.47,7.11,22.12-1.05.3-4.35-3.47-6.91-8-3.11-5.51-5.51-11.99-6.36-11.48-1.55.92,3.55,17.36,10.49,22.47,2.6,1.92,5.61,2.47,8.45,1.96l.56,1.27c.41.94,1.52,1.38,2.46.96l1.71-.75c.95-.41,1.38-1.52.97-2.46l-.55-1.26c2.31-1.74,3.94-4.32,4.3-7.53.96-8.57-7.64-23.47-9.37-22.96Z"/>
        <path d="M88.57,205.77c-3.35,1.71-4.12,5.57-3.5,8.93.22,1.23.74,2.42,1.2,3.57,1.42,3.67,2.94,7.31,3.89,11.15.22.91.39,1.82.55,2.74.26,1.56-.21-1.81-.06-.33.03.35.05.7.06,1.04.01.29,0,.58-.02.87.12-2.29.3-1.74.12-1.07.83-2.95,3.6-4.78,6.54-4.86,2.08-.06,3.32.81,4.76,1.94-.48-.38-1.33-1.63.67.96-.17-.21-.31-.44-.45-.67-.41-.66-.76-1.36-1.1-2.06-1.81-3.68-3.27-7.53-4.97-11.26-.68-1.49-1.38-3.01-2.29-4.39-2.26-3.41-5.41-5.39-9.65-4.58-2.52.48-5.16,3.11-5.52,5.68-.28,2.01-.26,3.61.23,5.62.58,2.38,1.57,4.68,2.47,6.96,1.04,2.63,2.11,5.24,3,7.92.33.99.63,2.01.83,3.04.23,1.25-.25-2.15-.16-1.2.02.17.02.34.02.51,0,1.09.39-2.24.2-1.43.35-1.48,1.51-2.73,3.02-3.84,3.33.87,6.66,1.74,9.99,2.62h0c-1.8-3.6-6.7-4.48-9.99-2.62.51-.22,1.02-.43,1.54-.65-4.25,1.37-7.09,6.63-4.36,10.73h0c1.45-3.57,2.9-7.15,4.36-10.73,1.88-.36,3.51-.23,4.94.58-.33-.18,1.86,1.63.87.62-.1-.11-.19-.21-.28-.31-.6-.71,1.33,1.75.75.97-.25-.34-.48-.71-.7-1.07-1.05-1.67-1.92-3.45-2.79-5.22-1.72-3.5-3.2-7.24-5.36-10.51-1.73-2.62-4.39-5.26-7.84-5-2.64.2-5.43,1.37-6.65,3.91-.71,1.46-1.26,3.03-1.04,4.69.61,4.69,2.69,8.88,4.6,13.17.42.94.85,1.89,1.26,2.83.2.45.4.91.6,1.37.1.23.19.45.28.66.44,1.03-.86-2.07-.29-.67.57,1.36,1.16,2.75,1.44,4.2.15.79-.16-2.55-.2-1.25.08-2.89,1.93-5.38,5.05-6.5,1.18,0,2.36-.01,3.53-.02,1.48.7,1.9.87,1.29.52-.91-.53,1.62,1.33.73.57-.58-.49-1.09-1.08-1.58-1.66-.31-.36-1.17-1.51.15.21-.27-.35-.52-.71-.77-1.06-.54-.77-1.04-1.56-1.52-2.36-1.04-1.73-1.93-3.53-2.82-5.33-1.41-2.86-2.57-5.84-4.7-8.27-2.13-2.44-6.65-3.28-9.36-1.32-2.57,1.87-3.55,3.91-3.84,6.97-.2,2.08.48,4.43,1.04,6.43.82,2.88,1.99,5.68,3.22,8.42,1.68,3.72,3.88,7.23,6.63,10.27,1.6,1.77,3.62,3.32,5.8,4.28,3.89,1.72,7.59,2.06,11.77,1.38-2.75-1.12-5.5-2.23-8.24-3.35.89,2.03,2.11,3.64,4.06,4.81,2.16,1.3,4.49,1.22,6.88.88.95-.14,1.9-.77,2.81-1.17,2.73-1.2,4.28-3.2,5.37-5.97,1.11-2.83-.26-5.65-1.37-8.18-.38,2.95-.76,5.9-1.15,8.85,4.32-3.37,6.56-8.95,6.53-14.34-.03-4.04-1.13-8.12-2.57-11.86-1.38-3.57-2.98-7.11-5.09-10.32-2.59-3.95-5.84-7.2-11.02-6.18-3.91.77-6.1,5.36-5.1,8.98,1.11,4.04,5.08,5.87,8.98,5.1-2.83.56-4.58-.17-6.38-1.58.26.21.48.46.71.72,1.1,1.25-1.25-1.74-.18-.24.33.46.63.94.93,1.42.71,1.15,1.35,2.34,1.96,3.54.34.68.65,1.36.96,2.04.22.49.72,1.72-.22-.53.17.42.33.82.5,1.25.56,1.45,1.04,2.94,1.43,4.45.19.73.34,1.45.47,2.19.1.58.23,1.87-.08-.72.04.39.07.79.1,1.18.04.65.02,1.3-.03,1.95-.09,1.15.33-1.91.03-.46-.1.52-.28,1.03-.46,1.53.75-2.04.35-.84.07-.34-.27.5-1.41,1.93.06.09-.54.69-1.21,1.28-1.9,1.82-.9.91-1.53,1.98-1.88,3.22-.57,2.07-.09,3.75.74,5.63.32.73.86,2.65-.08-.16-.66-1.99.35-5.26,2.24-6.08-.23.1-.46.21-.7.3-.28.12-.55.24-.83.36,1.99-.87,4.46-1.07,6.6.8.92.79.93,1.29.59.52-.12-.28-.24-.57-.37-.86-.65-1.1-1.52-1.97-2.62-2.63-1.84-1.07-3.61-1.06-5.63-.73,2.48-.4-.23-.07-.94-.11,2.18.13.89.12.29,0-.41-.1-.81-.24-1.21-.38,1.96.68.65.27.16,0-.4-.22-.77-.49-1.14-.75,2.29,1.62.42.28-.13-.27-.41-.41-.79-.85-1.15-1.29-.81-.96,1.16,1.55.4.53-.18-.25-.36-.5-.54-.76-.79-1.14-1.49-2.34-2.15-3.57-.61-1.14-1.17-2.31-1.69-3.5,1.1,2.51.14.31-.09-.28-.25-.65-.48-1.3-.7-1.95-.33-.99-.63-1.99-.88-3-.11-.42-.2-.84-.28-1.26-.33-1.74.19,2.15.08.56-.06-.77.2-2.07-.24,1.09.08-.58.77-1.88-.64,1.43,1.5-3.49-13.63-1.24-10.84,1.49.66.64-1.3-1.78-.73-.92.13.2.25.41.36.62.36.63.69,1.29,1,1.95,1.63,3.31,3.15,6.67,5.1,9.82,2,3.21,4.53,6.87,7.89,8.82,2.3,1.32,5.89,1.79,8.16.07,2.38-1.8,3.7-3.85,3.79-6.85.05-1.81-.57-3.68-1.2-5.36-.89-2.34-1.91-4.65-2.93-6.95-.42-.95-.85-1.89-1.27-2.84-.21-.47-.42-.94-.62-1.41-.28-.65-1.21-2.83-.05-.07-.65-1.55-1.3-3.11-1.72-4.74-.18-.72-.33-2.16.09,1.02-.1-.74.18-1.94-.27,1.26.09-.57,1.04-2-.64,1.48-.8,1.65-2.49,2.52-4.1,3.13-.93.35-2.86.23-3.59,0-1.26-.38-2.03-.95-2.81-1.61.18.14.32.33.47.5-1.88-2.32-.94-1.23-.54-.62.46.71.87,1.46,1.26,2.22,1.98,3.73,3.62,7.63,5.63,11.36.95,1.77,2.04,3.37,3.32,4.92,2.16,2.63,5.46,3.48,8.69,2.86,4.5-.86,6.86-6.99,4.36-10.72,0,0,0,0,0,0-1.45,3.58-2.9,7.15-4.36,10.73.67-.22,1.33-.48,1.95-.83-3.33-.87-6.66-1.75-9.99-2.62h0c1.64,3.3,6.92,4.88,9.99,2.62,1.77-1.3,3.19-2.75,3.71-4.98.47-2.02.25-3.22-.03-5.25-.23-1.69-.85-3.33-1.42-4.93-1.41-3.93-3.15-7.75-4.46-11.72-.23-.66-.42-1.34-.58-2.04-.31-1.43.22,2.19.13,1.05,0-.1,0-.2,0-.3-.06,1.62-.18,1.8-.89,3.24-1.32,2.71-5.11,3.95-7.67,3.16-1.68-.51-1.56-.63-2.89-1.67.08.06.14.13.21.2.91.92-1.29-1.78-.6-.8.21.3.4.62.59.94,1.98,3.41,3.37,7.19,4.93,10.8.89,2.06,1.77,4.16,2.93,6.09.96,1.59,2.07,2.8,3.6,3.86,2.72,1.88,7.46,1.46,9.55-1.22,1.56-1.98,2.17-3.6,2.4-6.05.08-.86.02-1.7-.07-2.55-.32-3.17-.96-6.27-1.95-9.3-.77-2.37-1.7-4.68-2.61-6.99-.35-.91-.7-1.8-1.03-2.71-.12-.33-.23-.68-.33-1.02-.03-.14-.07-.27-.1-.41.07.53.14,1.07.21,1.61-.1-2.42-1.25-.49-3.45,5.78,3.54-1.81,4.54-6.71,2.62-9.99-2.1-3.58-6.45-4.42-9.99-2.62Z"/>
      </g>
      <path class="st9" d="M92.25,212.08c-.94.28,2.18,6.43,4.11,12.46,1.59,4.96,2.11,9.94,1.18,10.51-2.07,1.27-8.98-21.24-11.41-20.24-2.31.95,8.53,20.8,5.93,22.5h0s-.06.04-.09.05c-.04.02-.08.03-.12.04h0c-3,.75-10.21-20.69-12.48-19.64-2.38,1.11,9.44,21.47,7.11,22.12-1.05.3-4.35-3.47-6.91-8-3.11-5.51-5.51-11.99-6.36-11.48-1.55.92,3.55,17.36,10.49,22.47,2.6,1.92,5.61,2.47,8.45,1.96l.56,1.27c.41.94,1.52,1.38,2.46.96l1.71-.75c.95-.41,1.38-1.52.97-2.46l-.55-1.26c2.31-1.74,3.94-4.32,4.3-7.53.96-8.57-7.64-23.47-9.37-22.96Z"/>
      <g>
        <path class="st11" d="M93.02,238.35h0s.08-.02.1-.03c.04-.02.07-.04.1-.06h0c2.59-1.69-8.24-21.54-5.94-22.49.06-.03.12-.04.18-.04-.52-.72-.97-1.07-1.33-.93-2.31.95,8.53,20.8,5.93,22.5h0s-.06.04-.09.05c-.04.02-.08.03-.12.04h0c-.13.03-.28.02-.44-.04.61.72,1.15,1.11,1.59.99Z"/>
        <path class="st11" d="M98.69,236.01c.93-.57.41-5.55-1.18-10.51-1.93-6.03-5.05-12.19-4.11-12.46.07-.02.16-.02.26.02-.61-.7-1.11-1.06-1.41-.97-.94.28,2.18,6.43,4.11,12.46,1.59,4.96,2.11,9.94,1.18,10.51-.03.02-.07.04-.1.04.51.75.94,1.11,1.25.91Z"/>
        <path class="st11" d="M93.87,247.05l-.55-1.27c-.23.04-.46.08-.69.11l.09.2c.23.53.68.89,1.19,1.04-.01-.03-.03-.05-.05-.09Z"/>
        <path class="st11" d="M87.64,240.84c2.34-.65-9.49-21.01-7.11-22.12.07-.04.13-.04.2-.04-.54-.71-1-1.08-1.34-.92-2.38,1.11,9.44,21.47,7.11,22.12-.2.06-.48-.04-.83-.25.87.86,1.58,1.32,1.97,1.21Z"/>
        <path class="st11" d="M74.29,221.44c-.46-.77-.82-1.18-1.06-1.04-1.55.92,3.55,17.36,10.49,22.47,0,.01.02.01.02.02-6.21-5.79-10.62-19.98-9.46-21.44Z"/>
      </g>
      <g>
        <path class="st4" d="M93.08,227.59c-.81-1.86-1.65-3.85-2.46-5.69.83,1.9,1.66,3.9,2.46,5.69Z"/>
        <path class="st4" d="M81.55,225.86c.8,1.85,1.69,3.82,2.51,5.67-.78-1.8-1.67-3.78-2.51-5.67Z"/>
        <path class="st4" d="M101.08,233.81c-.36,3.22-2,5.8-4.31,7.54l.54,1.22c2.31-1.73,3.94-4.32,4.3-7.53.45-4.04-1.21-9.47-3.28-14.04,1.81,4.3,3.16,9.14,2.75,12.81Z"/>
        <path class="st4" d="M96.37,245.07l-1.71.75c-.95.42-2.05-.02-2.47-.96l.54,1.23c.41.94,1.52,1.38,2.46.96l1.71-.75c.95-.41,1.38-1.52.97-2.46l-.54-1.22c.42.94-.02,2.04-.96,2.46Z"/>
        <path class="st4" d="M91.64,243.59c-2.85.51-5.85-.04-8.46-1.96-2.98-2.19-5.61-6.48-7.54-10.72,1.95,4.62,4.81,9.54,8.08,11.95,2.6,1.92,5.61,2.47,8.45,1.96l-.53-1.22Z"/>
      </g>
    </g>
  </g>
  <g>
    <path class="st10" d="M113.72,187.72c.48,2.19-3.2,4.87-8.23,5.97-5.03,1.11-9.5.23-9.98-1.97-.49-2.19,3.2-4.87,8.23-5.97,5.03-1.11,9.5-.23,9.98,1.97Z"/>
    <path class="st10" d="M206.63,187.72c-.48,2.19,3.21,4.87,8.24,5.97,5.03,1.11,9.5.23,9.98-1.97.48-2.19-3.2-4.87-8.23-5.97-5.03-1.11-9.5-.23-9.99,1.97Z"/>
    <g>
      <g>
        <g>
          <path d="M128.59,177.93s-3.37-4.45-10.92-4.45-10.95,4.45-10.95,4.45c0,0-1.7-12.9,10.95-12.9s10.92,12.9,10.92,12.9Z"/>
          <path d="M129.39,177.46c-2.59-3.37-7.22-4.75-11.27-4.9-4.14-.14-9.37,1.26-12.06,4.71.53.22,1.06.44,1.59.66-.24-1.9-.01-3.91.54-5.73,1.32-4.32,5.17-6.19,9.48-6.23,4.26-.04,8,1.89,9.4,6.04.63,1.86.84,3.98.58,5.92-.16,1.18,1.71,1.17,1.86,0,.27-2.05,0-4.26-.59-6.22-1.2-3.94-4.29-6.59-8.31-7.34-4.57-.86-9.66.17-12.57,4-1.81,2.37-2.4,5.6-2.33,8.52.01.35.02.7.07,1.04.09.68,1.02,1.38,1.59.66,2.24-2.89,6.37-4.04,9.84-4.16,2.81-.1,5.62.54,8.05,1.95.71.42,1.36.91,1.96,1.46.13.13.85.95.55.56.72.94,2.33.01,1.6-.94Z"/>
        </g>
        <path d="M108.91,168.64s-1.73.05-4.23-1.12c-2.51-1.17-4.32-4.14-4.32-4.14,0,0-1.03,4.06,2.12,6.44,2.3,1.73,4.96,2.11,4.96,2.11l1.47-3.29Z"/>
        <path d="M106.54,172.91s-1.46.28-3.78.27c-2.31-.01-4.73-1.65-4.73-1.65,0,0,.54,3.46,3.95,4.23,2.35.53,4.48.15,4.48.15l.09-2.99Z"/>
      </g>
      <g>
        <g>
          <path d="M190.59,177.93s3.37-4.45,10.92-4.45,10.95,4.45,10.95,4.45c0,0,1.71-12.9-10.95-12.9s-10.92,12.9-10.92,12.9Z"/>
          <path d="M191.39,178.4c-.31.4.33-.35.45-.46.56-.55,1.19-1.02,1.84-1.43,2.33-1.48,5.09-2.06,7.82-2.1,3.58-.04,7.98,1.2,10.29,4.17.57.73,1.5.02,1.59-.66.27-2.05,0-4.26-.61-6.22-1.19-3.94-4.3-6.59-8.32-7.34-4.57-.86-9.65.17-12.56,4-1.8,2.37-2.38,5.6-2.31,8.52,0,.35.03.7.07,1.04.15,1.17,2.01,1.18,1.86,0-.25-1.9-.03-3.91.53-5.73,1.3-4.33,5.15-6.19,9.46-6.23,4.26-.04,8.01,1.89,9.42,6.04.63,1.86.85,3.98.61,5.92.53-.22,1.05-.44,1.58-.66-2.62-3.38-7.56-4.66-11.6-4.71-4.17-.05-9.08,1.47-11.72,4.9-.73.95.89,1.87,1.61.94Z"/>
        </g>
        <path d="M210.27,168.64s1.73.05,4.23-1.12c2.51-1.17,4.32-4.14,4.32-4.14,0,0,1.03,4.06-2.12,6.44-2.31,1.73-4.96,2.11-4.96,2.11l-1.47-3.29Z"/>
        <path d="M212.64,172.91s1.47.28,3.78.27c2.32-.01,4.74-1.65,4.74-1.65,0,0-.54,3.46-3.94,4.23-2.37.53-4.49.15-4.49.15l-.09-2.99Z"/>
      </g>
    </g>
    <path d="M147.23,196.87c.62,12.61,23.36,12.38,24.71.2.16-1.45-1.33-2.66-2.65-2.66-1.56,0-2.5,1.21-2.66,2.66.14-1.32,0-.21-.12.19-.04.12-.08.23-.13.35-.14.39.3-.64-.02.01-.1.2-.21.39-.33.58-.08.13-.56.78-.12.21-.82,1.02-1,1.1-2.18,1.69-.28.14-1.01.37-1.64.52-.89.21-1.8.25-2.7.27-.77.01-1.55-.04-2.31-.17-.32-.06-.63-.14-.95-.23-.11-.03-1.03-.36-.73-.23-.24-.11-.46-.23-.7-.36-.09-.06-.9-.63-.44-.27-.23-.18-.43-.38-.64-.59-.1-.1-.65-.81-.22-.23-.25-.33-.44-.69-.62-1.06-.22-.45.23.61-.02-.06-.06-.17-.11-.33-.15-.5-.06-.22-.11-.44-.14-.66.17,1.05.07.6.05.35-.17-3.41-5.48-3.42-5.31,0h0Z"/>
  </g>
  <path class="st18" d="M221.8,152.55l20.74-1.77c1.5-.15,2.97-.31,4.43-.47,0-2.55.02-6.28.04-10.76-1.47.17-2.96.32-4.47.47l-20.74,1.77c-19.26,1.35-40.78,2.1-63.48,2.1-31.79,0-61.25-1.47-85.44-3.99v10.75c24.19,2.52,53.65,3.99,85.44,3.99,22.7,0,44.22-.76,63.48-2.09Z"/>
  <g>
    <path class="st15" d="M263.28,99.13c-.45-15.96-4.47-35.45-18.12-52.06C216.35,11.99,158.63,13.12,158.32,13.12s-58.04-1.12-86.85,33.95c-13.64,16.61-17.66,36.11-18.12,52.06,0,0,27.68,12.62,104.67,12.62s105.25-12.62,105.25-12.62Z"/>
    <g>
      <path d="M272.57,97.13c-.44-14.8-3.63-29.28-10.21-42.58-6.39-12.93-16.34-23.58-28.17-31.69-9.57-6.56-20.55-11.19-31.63-14.51-9.44-2.83-19.17-4.53-28.96-5.62-7.23-.8-14.5-1.11-21.76-.72-19.26,1.01-38.4,5.17-55.94,13.27-10.89,5.03-21.12,12.13-29.15,21.07-10.44,11.63-17.41,26.12-20.48,41.42-1.29,6.36-2,12.88-2.2,19.37-.09,2.99,1.78,6.74,4.6,8.02,6.69,3.05,13.95,4.8,21.12,6.33,22,4.69,44.67,6.47,67.11,7.22,28.56.95,57.39.32,85.76-3.32,13.37-1.72,26.98-3.75,39.8-8.06,1.88-.63,3.71-1.35,5.51-2.16,2.09-.93,3.69-3.45,4.27-5.55.66-2.4.32-5.01-.94-7.16-1.22-2.08-3.23-3.63-5.55-4.27-2.62-.72-4.77-.12-7.16.94-.05.02-.1.04-.14.07.74-.32,1.48-.63,2.22-.94-7.29,3.06-15.34,4.66-23.05,6.14-5.18.99-10.4,1.81-15.63,2.52.83-.11,1.65-.22,2.47-.33-28.04,3.76-56.53,4.43-84.79,3.65-15.91-.45-31.83-1.5-47.6-3.61.83.12,1.64.22,2.47.34-12.07-1.63-24.38-3.66-35.92-7.7-.85-.29-1.71-.6-2.54-.96.74.31,1.48.63,2.22.94-.08-.03-.17-.07-.25-.11,1.54,2.68,3.07,5.35,4.6,8.02.12-3.71.4-7.41.9-11.09-.11.83-.22,1.65-.33,2.47,1.06-7.72,3.02-15.28,6.04-22.45-.31.74-.62,1.48-.94,2.22,2.54-5.94,5.77-11.54,9.7-16.66-.49.63-.97,1.25-1.45,1.88,3.84-4.97,8.3-9.38,13.25-13.23-.63.48-1.25.97-1.87,1.45,6.32-4.86,13.31-8.75,20.63-11.87-.73.32-1.48.63-2.21.93,11.29-4.76,23.3-7.71,35.43-9.35-.82.11-1.65.22-2.47.33,7.67-1.02,15.43-1.55,23.18-1.28,4.95.17,9.89.63,14.79,1.28-.82-.11-1.64-.22-2.47-.33,12.13,1.64,24.13,4.6,35.43,9.35-.74-.3-1.48-.62-2.22-.93,7.33,3.12,14.32,7.01,20.64,11.87-.62-.48-1.26-.96-1.88-1.45,4.96,3.85,9.42,8.26,13.27,13.23-.48-.63-.97-1.26-1.46-1.88,3.92,5.13,7.16,10.72,9.7,16.66-.31-.74-.63-1.48-.94-2.22,3.02,7.18,4.98,14.74,6.05,22.45-.12-.83-.23-1.65-.34-2.47.49,3.68.79,7.38.9,11.09.15,5.06,4.11,9.29,9.29,9.29s9.44-4.23,9.29-9.29Z"/>
      <path d="M274.56,97.13c-.79-22.31-7.58-44.17-22.41-61.16-14.81-16.98-36.04-26.74-57.63-31.8-23.7-5.56-48.12-5.5-71.83-.12-21.84,4.97-43.23,14.87-58.24,31.88-14.92,16.91-21.58,38.98-22.38,61.2-.39,10.77,13.61,13.06,21.45,14.99,12.01,2.95,24.32,4.77,36.6,6.14,25.62,2.83,51.64,3.32,77.39,2.59,25.11-.73,50.89-2.72,75.37-8.67,8.77-2.13,20.96-4.08,21.7-15.02.27-4.07-2.42-7.63-5.61-9.78-3.55-2.39-7.89-1.52-11.52.07-2.37,1.04-.31,4.43,2.01,3.45.74-.32,1.48-.63,2.22-.93,2.07-.88.55-4.5-1.54-3.65-12.18,4.96-25.71,6.88-38.67,8.66-2.22.3-1.69,4.22.53,3.92.83-.11,1.65-.22,2.47-.33,2.52-.34,2.55-4.33,0-4-21.86,2.88-43.88,3.95-65.92,3.93-22.21-.02-44.45-.99-66.47-3.89-2.22-.29-2.75,3.62-.53,3.92.83.11,1.65.22,2.46.33,2.52.34,3.61-3.5,1.06-3.85-12.97-1.77-26.23-3.8-38.46-8.66-2.42-.96-3.38,2.88-1.06,3.85.74.32,1.48.62,2.22.94,2.08.88,3.6-2.75,1.54-3.65-.08-.04-.17-.07-.25-.11-1.73-.76-3.81.85-2.73,2.73,1.54,2.67,3.07,5.35,4.61,8.02,1.02,1.78,3.65.94,3.72-1.01.13-3.71.43-7.4.9-11.09.28-2.22-3.63-2.75-3.93-.53-.13,1-.27,2-.4,3-.29,2.22,3.6,2.75,3.93.53,1.12-7.74,3.07-15.22,6.04-22.45.98-2.4-2.87-3.39-3.85-1.06-.25.58-.49,1.16-.73,1.74-.99,2.33,2.41,4.38,3.44,2.01,2.6-5.94,5.81-11.48,9.7-16.67,1.35-1.81-1.76-4.21-3.14-2.42-.48.63-.97,1.25-1.45,1.88-1.55,2.01,1.22,4.86,2.82,2.83,3.91-4.94,8.32-9.33,13.26-13.22,1.77-1.4-.63-4.52-2.42-3.14-.76.59-1.52,1.18-2.29,1.77-1.79,1.39.61,4.5,2.42,3.13,6.39-4.82,13.31-8.7,20.65-11.87,2.37-1.02.32-4.43-2.02-3.45-.59.24-1.17.49-1.75.73-2.33.98-1.32,4.84,1.06,3.85,11.37-4.71,23.26-7.66,35.43-9.35,2.22-.31,1.7-4.22-.53-3.92-.99.13-2,.27-3,.4-2.23.3-1.7,4.21.53,3.92,12.7-1.64,25.27-1.64,37.97,0,2.23.29,2.75-3.62.53-3.92-1-.13-2-.27-3-.4-2.22-.3-2.75,3.61-.53,3.92,12.17,1.7,24.06,4.65,35.43,9.35,2.39.99,3.39-2.87,1.06-3.85-.74-.31-1.48-.62-2.22-.94-2.08-.88-3.61,2.75-1.54,3.65,7.34,3.17,14.27,7.05,20.64,11.87,1.81,1.37,4.21-1.75,2.42-3.13-.76-.59-1.52-1.18-2.29-1.77-1.79-1.38-4.19,1.74-2.42,3.14,4.94,3.9,9.36,8.28,13.26,13.22,1.6,2.03,4.38-.82,2.83-2.83-.49-.63-.97-1.25-1.46-1.88-1.38-1.79-4.49.61-3.13,2.42,3.89,5.18,7.1,10.73,9.7,16.67,1.04,2.37,4.43.31,3.45-2.01-.31-.74-.63-1.48-.94-2.22-.88-2.07-4.51-.55-3.65,1.54,2.96,7.23,4.92,14.71,6.04,22.45.32,2.22,4.22,1.69,3.92-.53-.11-.83-.22-1.65-.33-2.47-.34-2.51-4.32-2.55-3.99,0,.93,7.34-.72,18.99,8.52,21.76,7.41,2.22,14.69-2.92,14.95-10.67.09-2.58-3.9-2.57-3.99,0-.23,6.47-7.7,9.46-12.41,5.13-2.24-2.05-2.16-5.14-2.3-7.91-.14-2.78-.43-5.55-.78-8.31h-3.99c.11.83.22,1.65.33,2.47,1.3-.18,2.61-.36,3.92-.53-1.12-7.73-3.07-15.22-6.04-22.45-1.22.51-2.43,1.03-3.65,1.54.31.74.62,1.48.94,2.22,1.15-.67,2.3-1.35,3.45-2.01-2.6-5.94-5.81-11.48-9.7-16.67-1.05.81-2.1,1.62-3.14,2.42.48.63.97,1.26,1.45,1.88.94-.94,1.88-1.88,2.83-2.83-3.91-4.94-8.32-9.32-13.27-13.22-.81,1.05-1.61,2.09-2.42,3.13.5.38.99.76,1.48,1.14.81-1.05,1.61-2.09,2.42-3.14-6.39-4.83-13.31-8.69-20.64-11.87-.51,1.21-1.03,2.43-1.54,3.65.74.31,1.48.62,2.22.94.35-1.29.71-2.57,1.06-3.85-11.37-4.71-23.26-7.65-35.43-9.35-.18,1.31-.35,2.61-.54,3.92.65.09,1.3.17,1.95.26.17-1.3.35-2.62.53-3.92-12.7-1.64-25.27-1.64-37.97,0,.18,1.3.35,2.62.53,3.92.65-.09,1.29-.17,1.94-.26-.18-1.31-.35-2.61-.53-3.92-12.17,1.7-24.06,4.64-35.43,9.35.35,1.28.71,2.57,1.06,3.85.9-.38,1.8-.76,2.7-1.14-.67-1.15-1.34-2.3-2.02-3.45-7.34,3.18-14.26,7.04-20.64,11.87.81,1.04,1.61,2.09,2.42,3.14.5-.38.99-.76,1.48-1.14-.81-1.04-1.61-2.09-2.42-3.13-4.94,3.9-9.36,8.29-13.26,13.22.94.94,1.88,1.89,2.82,2.83.49-.63.97-1.26,1.45-1.88-1.05-.8-2.09-1.61-3.14-2.42-3.89,5.19-7.1,10.73-9.69,16.67,1.14.67,2.3,1.34,3.44,2.01.38-.9.76-1.8,1.14-2.7-1.28-.36-2.57-.71-3.85-1.06-2.97,7.23-4.92,14.72-6.04,22.45,1.3.17,2.61.35,3.92.53.09-.65.17-1.29.26-1.94-1.3-.18-2.61-.36-3.92-.54-.47,3.69-.76,7.38-.9,11.09,1.24-.34,2.48-.67,3.72-1.01-1.53-2.68-3.07-5.35-4.61-8.03-.9.92-1.82,1.82-2.73,2.74.08.04.17.07.25.11.51-1.22,1.03-2.43,1.54-3.65-.74-.31-1.48-.63-2.22-.94-.36,1.29-.71,2.57-1.06,3.85,12.23,4.85,25.49,6.89,38.46,8.65.36-1.28.71-2.57,1.06-3.85-.82-.11-1.65-.22-2.47-.34-.18,1.3-.36,2.62-.53,3.93,21.52,2.84,43.21,3.77,64.89,3.89,22.55.12,45.13-.98,67.5-3.93v-4c-.82.11-1.65.22-2.47.34.18,1.3.35,2.61.53,3.92,12.96-1.77,26.49-3.69,38.67-8.66-.51-1.21-1.02-2.43-1.54-3.65-.74.31-1.48.62-2.22.94.67,1.15,1.35,2.3,2.01,3.45,7.07-3.09,13.85,3.47,9.79,10.47-1.61,2.78-5.91,3.56-8.75,4.49-3.33,1.1-6.74,1.99-10.15,2.82-12.61,3.07-25.65,4.62-38.55,5.96-25.88,2.68-51.98,2.91-77.96,1.97-25.49-.94-51.84-2.88-76.37-10.27-2.95-.89-6.71-1.82-9.11-3.78-2.56-2.08-2.3-5.52-2.16-8.42.32-6.66,1.32-13.28,2.87-19.76,2.66-11.12,7.66-21.56,14.35-30.81,13.09-18.09,33.71-28.39,54.74-34.25,23.24-6.47,47.36-6.81,70.98-2.23,21.43,4.16,42.09,13.17,57.57,28.86,15.98,16.21,23.08,38.83,23.88,61.19.09,2.57,4.08,2.58,3.99,0Z"/>
    </g>
  </g>
  <g>
    <path class="st15" d="M158.32,95.47c-82.33,0-149.08,9.91-149.08,22.13,0,5.18,11.99,9.94,32.09,13.71l21.96-10.56-8.41,12.79c26.81,3.84,63.27,6.2,103.44,6.2,22.7,0,44.22-.75,63.48-2.1l-7.37-20.63,28.11,18.87c6.22-.64,12.11-1.34,17.6-2.1l-11.4-9.91,18.24,8.89c25.07-3.96,40.42-9.29,40.42-15.15,0-12.22-66.74-22.13-149.07-22.13Z"/>
    <path d="M158.32,86.18c-34.65,0-69.4,1.52-103.75,6.22-10.95,1.5-21.98,3.3-32.58,6.48-7.28,2.19-15.98,5.18-20.18,12.03-3.32,5.43-1.82,12.02,2.4,16.45,4.46,4.68,11.41,6.98,17.39,8.83,3.86,1.19,7.79,2.13,11.74,2.98,3.25.7,7.23,2,10.45,1.1.89-.24,1.91-.79,2.81-1.21,3.51-1.69,7.02-3.38,10.53-5.07,3.62-1.74,7.23-3.47,10.85-5.22-4.24-4.24-8.47-8.48-12.71-12.71-2.8,4.26-5.61,8.52-8.41,12.78-1.33,2.04-1.56,4.87-.93,7.16.77,2.82,3.41,6.04,6.49,6.49,34.07,4.86,68.58,6.41,102.96,6.52,22.16.07,44.32-.56,66.43-2.1,2.53-.18,4.74-.89,6.57-2.72,2.21-2.22,3.48-5.99,2.39-9.05-2.46-6.88-4.91-13.76-7.37-20.63-4.55,3.5-9.1,7-13.65,10.49,5.87,3.94,11.73,7.88,17.6,11.81,3.12,2.09,6.23,4.18,9.35,6.27,2.11,1.42,4.31,2.22,7.02,1.93,4.62-.48,9.23-1.02,13.83-1.62,1.69-.23,3.39-.46,5.07-.69,3.08-.42,5.72-3.68,6.49-6.49.84-3.03.06-6.91-2.39-9.04-3.8-3.3-7.6-6.6-11.4-9.91-3.76,4.87-7.5,9.73-11.26,14.6,6.06,2.96,12.13,5.91,18.2,8.87,2.53,1.24,4.44,1.4,7.2.96,1.14-.18,2.27-.37,3.41-.55,2.32-.39,4.63-.82,6.94-1.26,3.87-.76,7.73-1.62,11.55-2.64,5.83-1.55,12.06-3.44,17.15-6.77,2.55-1.66,4.86-3.66,6.41-6.32,1.78-3.05,2.06-6.34,1.39-9.73-.81-4.14-4.25-7.25-7.53-9.53-3.12-2.18-6.88-3.56-10.44-4.81-4.23-1.51-8.58-2.62-12.95-3.61-13.06-2.95-26.41-4.68-39.7-6.11-16.54-1.78-33.16-2.84-49.79-3.49-12.5-.48-25.03-.7-37.54-.7-5.07,0-9.29,4.22-9.29,9.29s4.23,9.29,9.29,9.29c33.38,0,66.95,1.28,100.07,5.72-.83-.11-1.65-.22-2.47-.33,8.01,1.08,16,2.36,23.89,4.1,5.68,1.26,11.39,2.71,16.76,4.98-.75-.31-1.48-.63-2.22-.94,2,.85,3.98,1.81,5.7,3.14-.63-.48-1.25-.97-1.88-1.45.6.47,1.17.99,1.65,1.59-.48-.62-.97-1.25-1.46-1.88.29.38.53.77.72,1.2-.31-.74-.63-1.48-.94-2.22.13.31.21.62.27.96-.12-.83-.23-1.65-.33-2.48.03.29.03.56,0,.85.1-.83.22-1.65.33-2.47-.05.32-.13.63-.24.94.31-.74.62-1.48.94-2.22-.18.43-.42.82-.69,1.2.48-.63.96-1.25,1.45-1.88-.51.64-1.1,1.19-1.74,1.69.63-.49,1.26-.97,1.88-1.45-1.73,1.31-3.69,2.27-5.67,3.11.75-.31,1.48-.62,2.22-.93-10.11,4.23-21.28,6.11-32.05,7.82,2.38.31,4.77.62,7.15.94-6.07-2.96-12.15-5.93-18.23-8.89-3.8-1.85-8.14-1.67-11.26,1.45-3.39,3.39-3.82,9.82,0,13.14,3.8,3.3,7.6,6.61,11.41,9.91,1.37-5.18,2.74-10.36,4.1-15.54-.52.08-1.03.14-1.55.21.82-.11,1.64-.22,2.47-.34-5.33.72-10.69,1.34-16.04,1.89,1.56.42,3.13.84,4.69,1.27-9.37-6.29-18.74-12.58-28.11-18.87-6.59-4.43-16.36,2.91-13.65,10.49,2.45,6.88,4.91,13.75,7.37,20.63,2.98-3.92,5.98-7.84,8.96-11.76-37.02,2.58-74.27,2.79-111.34.94-17.37-.87-34.74-2.23-51.98-4.53.83.11,1.64.22,2.47.33-1.21-.16-2.4-.33-3.6-.5,1.85,4.55,3.7,9.1,5.55,13.65,2.8-4.27,5.61-8.53,8.41-12.79,2.28-3.46,1.38-8.42-1.45-11.26-3.13-3.13-7.45-3.29-11.26-1.46-7.32,3.52-14.64,7.04-21.96,10.57,2.38-.31,4.77-.62,7.16-.94-8.01-1.51-16.18-3.23-23.73-6.39.74.31,1.48.62,2.22.93-1.99-.85-3.96-1.82-5.69-3.13.63.48,1.26.97,1.88,1.46-.64-.51-1.23-1.06-1.73-1.7.48.63.96,1.25,1.45,1.88-.24-.32-.44-.65-.61-1.01.31.74.62,1.48.94,2.22-.14-.33-.24-.67-.3-1.03.12.83.23,1.65.34,2.47-.04-.3-.04-.58,0-.88-.11.83-.22,1.65-.34,2.48.05-.33.14-.65.26-.96-.31.74-.62,1.48-.94,2.22.18-.43.43-.82.72-1.2-.48.63-.96,1.26-1.45,1.88.48-.6,1.04-1.12,1.65-1.59-.63.49-1.26.97-1.88,1.45,1.72-1.33,3.71-2.3,5.7-3.14-.74.31-1.48.62-2.22.94,5.28-2.22,10.88-3.66,16.45-4.91,7.98-1.79,16.09-3.08,24.19-4.17-.82.11-1.64.22-2.47.33,33.12-4.44,66.69-5.72,100.07-5.72,5.07,0,9.29-4.23,9.29-9.29s-4.22-9.29-9.29-9.29Z"/>
  </g>
  <path class="st13" d="M158.32,95.47c-82.33,0-149.08,9.91-149.08,22.13,0,5.18,11.99,9.94,32.09,13.71l21.96-10.56-8.41,12.79c26.81,3.84,63.27,6.2,103.44,6.2,22.7,0,44.22-.75,63.48-2.1l-7.37-20.63,28.11,18.87c6.22-.64,12.11-1.34,17.6-2.1l-11.4-9.91,18.24,8.89c25.07-3.96,40.42-9.29,40.42-15.15,0-12.22-66.74-22.13-149.07-22.13Z"/>
  <g>
    <path class="st14" d="M158.32,132.3c-37.98,0-72.63-2.12-98.96-5.58l-4.49,6.82c26.81,3.84,63.27,6.2,103.44,6.2,22.7,0,44.22-.75,63.48-2.1l-2.59-7.26c-18.59,1.23-39.2,1.93-60.88,1.93Z"/>
    <path class="st14" d="M63.29,113.32l-21.96,10.57c-15.18-2.85-25.74-6.27-29.99-10-1.37,1.21-2.1,2.45-2.1,3.72,0,5.18,11.99,9.94,32.09,13.71l14.81-7.12,7.15-10.88Z"/>
    <path class="st14" d="M305.3,113.89c-5,4.38-18.68,8.33-38.33,11.43l-18.24-8.89,11.4,9.9c-1.62.22-3.28.45-4.98.66l11.82,5.76c25.07-3.96,40.42-9.29,40.42-15.15,0-1.27-.72-2.51-2.09-3.72Z"/>
    <path class="st14" d="M242.54,128.43l-28.11-18.87,3.49,9.78,24.61,16.52c6.22-.64,12.11-1.34,17.6-2.1l-7.45-6.47c-3.27.4-6.65.77-10.15,1.13Z"/>
  </g>
  <path class="st13" d="M263.28,96.21c-.45-15.96-4.47-35.46-18.12-52.06C216.35,9.07,158.63,10.19,158.32,10.2c-.32,0-58.04-1.13-86.85,33.95-13.64,16.6-17.66,36.1-18.12,52.06,0,0,27.68,12.62,104.67,12.62s105.25-12.62,105.25-12.62Z"/>
  <path class="st0" d="M71.47,51.04c28.81-35.07,86.53-33.95,86.85-33.94.31,0,58.03-1.13,86.84,33.94,11.77,14.33,16.38,30.82,17.71,45.33.27-.11.4-.17.4-.17-.45-15.96-4.47-35.46-18.12-52.06C216.35,9.07,158.63,10.19,158.32,10.2c-.32,0-58.04-1.13-86.85,33.95-13.64,16.6-17.66,36.1-18.12,52.06,0,0,.14.06.41.17,1.33-14.51,5.94-31,17.71-45.33Z"/>
  <g>
    <g>
      <path class="st15" d="M158.03,87.71c-63.46,0-93.41-8.57-101.98-11.58-1.74,7.16-2.51,14.17-2.69,20.6,0,0,27.68,12.62,104.67,12.62s105.25-12.62,105.25-12.62c-.18-6.44-.94-13.45-2.69-20.62-8.65,3-39,11.6-102.56,11.6Z"/>
      <path d="M158.03,78.42c-21.99,0-44.04-.93-65.86-3.84.83.11,1.65.22,2.47.33-12.12-1.62-24.47-3.66-36.06-7.71-.03,0-.05-.02-.07-.03-4.67-1.64-10.31,1.82-11.43,6.49-1.81,7.54-2.78,15.33-3.02,23.07-.09,2.99,1.78,6.74,4.6,8.02,6.69,3.04,13.95,4.8,21.12,6.33,22,4.69,44.67,6.48,67.11,7.23,28.56.94,57.39.31,85.76-3.33,13.37-1.71,26.98-3.75,39.8-8.06,1.88-.63,3.71-1.35,5.51-2.16,2.83-1.26,4.7-5.05,4.61-8.02-.24-7.75-1.21-15.55-3.03-23.09-1.12-4.69-6.75-8.11-11.43-6.49-11.57,4.01-23.89,6.05-35.99,7.69.83-.11,1.65-.22,2.47-.33-22.05,2.96-44.35,3.9-66.58,3.91-5.07,0-9.29,4.22-9.29,9.29s4.23,9.3,9.29,9.29c26.39-.01,52.9-1.36,78.96-5.75,8.79-1.47,17.64-3.26,26.08-6.18-3.81-2.17-7.63-4.33-11.44-6.49.76,3.16,1.36,6.36,1.8,9.59-.12-.82-.22-1.65-.33-2.47.48,3.67.77,7.34.88,11.03,1.54-2.67,3.07-5.35,4.61-8.02-.05.02-.1.04-.14.06.74-.31,1.48-.62,2.22-.94-7.29,3.06-15.34,4.66-23.05,6.14-5.18.99-10.4,1.81-15.63,2.52.83-.12,1.65-.22,2.47-.33-28.04,3.76-56.53,4.43-84.79,3.64-15.91-.44-31.83-1.49-47.6-3.6.83.11,1.64.22,2.47.33-12.07-1.63-24.38-3.66-35.92-7.69-.85-.29-1.71-.61-2.54-.96.74.31,1.48.62,2.22.93-.08-.03-.17-.06-.25-.1,1.54,2.67,3.07,5.35,4.6,8.02.12-3.68.4-7.36.89-11.02-.11.82-.22,1.65-.33,2.47.44-3.23,1.03-6.43,1.8-9.59-3.81,2.16-7.62,4.33-11.43,6.49,11.51,4.04,23.79,6.07,35.83,7.7,22.75,3.08,45.68,4.21,68.63,4.22,5.07,0,9.29-4.23,9.29-9.29s-4.22-9.29-9.29-9.29Z"/>
    </g>
    <path class="st10" d="M158.03,87.71c-63.46,0-93.41-8.57-101.98-11.58-1.74,7.16-2.51,14.17-2.69,20.6,0,0,27.68,12.62,104.67,12.62s105.25-12.62,105.25-12.62c-.18-6.44-.94-13.45-2.69-20.62-8.65,3-39,11.6-102.56,11.6Z"/>
    <path class="st7" d="M56.04,82.1c8.57,3.01,38.52,11.58,101.98,11.58s93.92-8.6,102.56-11.6c1.23,5.06,1.97,10.03,2.36,14.79.21-.09.32-.14.32-.14-.18-6.44-.94-13.45-2.69-20.62-8.65,3-39,11.6-102.56,11.6s-93.41-8.57-101.98-11.58c-1.74,7.16-2.51,14.17-2.69,20.6,0,0,.12.05.33.14.4-4.75,1.13-9.72,2.36-14.77Z"/>
    <path class="st1" d="M158.03,103.69c-72.41,0-101.2-11.16-104.37-12.49-.16,1.88-.25,3.73-.31,5.53,0,0,27.68,12.62,104.67,12.62s105.25-12.62,105.25-12.62c-.05-1.8-.15-3.65-.3-5.54-3.2,1.32-32.5,12.49-104.95,12.49Z"/>
  </g>
  <path class="st11" d="M196.54,34.55c10.36,3.14,17.61,9.47,16.2,14.12-1.41,4.66-10.96,5.89-21.33,2.75-10.36-3.14-17.61-9.46-16.2-14.12,1.41-4.66,10.95-5.89,21.32-2.75Z"/>
  <path class="st11" d="M221.05,51.81c0,1.65-1.34,2.99-2.99,2.99s-2.98-1.34-2.98-2.99,1.33-2.99,2.98-2.99,2.99,1.34,2.99,2.99Z"/>
  <g>
    <g>
      <g>
        <path class="st11" d="M281.58,82.98c0-5.45-4.42-9.88-9.88-9.88-.76,0-1.51.09-2.22.25-.18-5.29-4.53-9.53-9.87-9.53s-9.68,4.22-9.87,9.51c-.69-.15-1.4-.23-2.14-.23-5.46,0-9.88,4.42-9.88,9.88,0,4.09,2.49,7.59,6.02,9.09-.55,1.24-.87,2.6-.87,4.05,0,5.46,4.42,9.88,9.87,9.88,2.65,0,5.06-1.04,6.83-2.74,1.79,1.77,4.25,2.87,6.96,2.87,5.45,0,9.88-4.42,9.88-9.88,0-1.48-.33-2.89-.91-4.15,3.56-1.49,6.07-5.01,6.07-9.12Z"/>
        <g>
          <path d="M289.11,82.98c.03-.55-.02-1.1-.14-1.62-.96-8.05-6.58-13.66-13.85-15.16-2.8-5.76-8.41-9.59-15.49-9.89-7-.29-12.59,4.04-15.43,9.85-5.77,1.14-10.62,4.86-12.93,10.98-2.38,6.31-.5,13.57,4.15,18.21-.25,5.94,2.67,11.83,7.72,15.24,5.07,3.42,11.08,3.62,16.33,1.41,5.08,2.26,10.9,2.1,16.09-.86,5.52-3.14,8.63-9.55,8.34-15.78,2.84-2.84,4.56-6.65,5.07-10.73.11-.54.17-1.09.14-1.66ZM272.49,80.72s.02,0,.02,0c-.01,0-.01,0-.02,0ZM273.49,84.56c.14-.24,0-.13-.4.32.19-.29-1.38.73-1.38.73-2.78,1.3-4.61,5.61-3.46,8.49.3.64.53,1.31.68,2,.11.39-.27,1.59-.05.53-.05.22-.07.38-.09.49-.07.08-.18.24-.35.54.44-.78-.16,0-.54.47-.03-.14-1.25.62-.25.24-.27.1-.44.18-.54.23-.13,0-.31,0-.58,0,.64-.03-.66-.21-1.2-.3.23-.05-1.03-.9-.44-.36-3.18-2.91-7.44-2.79-10.64,0-.32.28-1.09.52-1.51.53-.19.02-.34.02-.45.04-.05-.06-.23-.14-.67-.27,1.12.32-.46-.48-.23-.17-.29-.27-.57-.54-.83-.85.91.98-.41-1.24.06.02-.1-.28-.17-.45-.23-.55.01-.12.01-.31,0-.58-.02-.63.37-1.45.59-2.04,1.13-2.91-.66-7.17-3.45-8.5.05.03-2.07-1.27-1.22-.57-.28-.24-.44-.34-.53-.39-.01-.08-.1-.26-.32-.61.46.74-.03-.53-.17-.48.05-.64.17-1.95-.04-.92.05-.22.07-.39.1-.5.06-.08.17-.24.34-.54-.44.78.16.01.54-.47.02.11.64-.25.63-.33.17-.04.28-.07.33-.09.19,0,.36-.04.54-.08,5.05.83,9.11-2.04,9.52-7.26-.08.99.21-.27.13-.4.35-.51.98-1.41.4-.74.73-.83.71-.8,1.81-.85.24,0,.41-.02.53-.03.02.05.18.14.68.3-1.18-.36.99.82.05.04.25.2.4.31.49.37.05.1.13.26.3.53.44.8.5.92.18.39.05.23.1.42.13.54.46,5.12,4.51,7.99,9.51,7.12.25-.04.82.07.98.1,0,0,0,0,0,0-.05,0-.16-.03-.39-.07.24.07.42.13.54.16.38.25.54.33.47.25.18.17.36.35.53.53-.09-.07,0,.09.24.46.04.13.09.31.17.55-.03-.71-.02-.58.02.37-.05,1.11-.06.81-.57,1.58Z"/>
          <g>
            <path d="M290.43,82.98c.09-8.76-6.63-16.25-14.97-18.06.27.2.53.41.79.61-3.2-6.43-9.54-10.19-16.64-10.54-7.18-.38-13.47,4.27-16.57,10.51.27-.21.53-.41.8-.62-6.5,1.35-11.46,5.77-13.86,11.91-2.6,6.67-.4,14.49,4.49,19.49-.13-.31-.25-.62-.39-.94-.18,6.06,2.58,11.99,7.41,15.67,5.29,4.04,12.21,4.75,18.32,2.25-.34-.05-.68-.09-1.02-.14,6.26,2.7,13.51,2.16,19.08-1.93,4.93-3.63,7.56-9.8,7.35-15.84-.13.31-.26.63-.39.94,3.35-3.44,5.63-8.46,5.6-13.32,0-1.71-2.66-1.71-2.66,0,.03,3.47-1.41,7.05-3.41,9.83-.47.66-1.21,1.19-1.61,1.88-.36.61-.16,1.54-.18,2.23-.06,1.7-.46,3.38-1.02,4.98-2.45,7.05-9.71,10.96-16.96,10.18-.91-.09-1.81-.34-2.68-.59-.76-.22-1.65-.83-2.45-.83-.74,0-1.64.54-2.35.76-.96.3-1.96.49-2.95.61-3.69.42-7.27-.57-10.36-2.59-2.8-1.84-4.93-4.74-6.09-7.87-.56-1.49-.86-3.06-.96-4.64-.04-.69.18-1.63-.19-2.25-.46-.77-1.28-1.41-1.82-2.14-4.17-5.66-4.1-13.16-.15-18.87,1.73-2.5,4.33-4.38,7.15-5.45,1.25-.47,3.11-.43,3.76-1.73.73-1.45,1.65-2.78,2.74-3.98,4.5-5.01,11.34-5.97,17.46-3.56,2.83,1.12,5.27,3.21,6.99,5.69.42.6.78,1.24,1.11,1.89.4.76.84.9,1.66,1.09,1.49.36,2.9.93,4.24,1.67,4.79,2.64,8.15,8.17,8.09,13.68-.01,1.71,2.64,1.71,2.66,0Z"/>
            <path d="M271.82,81.87s.01,0,.01,0c.1.04.21.09.32.14.23.06.47.06.7,0,.33-.09.62-.32.8-.61.18-.3.23-.68.14-1.03-.08-.29-.31-.66-.61-.79,0,0,0,0-.01,0-.1-.04-.21-.09-.32-.13-.24-.06-.47-.06-.7,0-.33.09-.62.31-.8.61-.18.3-.23.68-.13,1.02.09.3.31.66.61.79,0,0,.01,0,.01,0,.1.04.21.09.32.14.23.06.47.06.7,0,.33-.09.62-.32.8-.61.18-.3.23-.68.14-1.03-.08-.29-.31-.66-.61-.79,0,0,0,0-.01,0-.1-.04-.21-.09-.32-.13-.24-.06-.47-.06-.7,0-.33.09-.62.31-.8.61-.18.3-.23.68-.13,1.02.09.3.31.66.61.79Z"/>
            <path d="M274.64,85.24s.04-.08.06-.12c.49-.99-.31-2.3-1.5-1.95-.45.13-.72.44-1.03.77.74.42,1.48.86,2.22,1.29,0-.01,0-.03.01-.05.16-.78-.37-1.76-1.28-1.68-.89.08-1.57.7-2.35,1.09-1.4.72-2.46,2.13-3.17,3.5-.7,1.35-1.04,2.89-1,4.41.02.78.21,1.55.52,2.26.19.42.32.84.44,1.27.15.51-.19.63.32.07.76.32,1.51.62,2.27.94,0-.02.01-.04.02-.06.32-1.67-2.23-2.39-2.55-.71-.07.38-.08.35-.3.71.76.45,1.54.9,2.29,1.34.17-.33.31-.62.32-1,.01-1.2-1.43-1.7-2.27-.94-.25.24-.46.53-.68.8.43-.12.86-.23,1.29-.34-.66-.24-1.46.21-1.92.66-.31.3-.51.87-.34,1.29,0,.01,0,.02.01.03.29.74.85,1.05,1.63.93.13,0,.26-.04.38-.1-.23-.85-.47-1.71-.7-2.56-.21.09-.43.17-.65.27.34-.1.31-.13-.12-.08v2.65c.05,0,.1-.01.15-.02.8-.09,1.23-.54,1.33-1.33v-.03c.08-.6-.46-1.11-.97-1.28-.44-.14-.91-.19-1.37-.26.26.65.53,1.3.8,1.95,0-.02.01-.03.02-.05.23-.39.26-.95,0-1.34-.33-.5-.83-.9-1.41-1.1-1.17-.41-2,.99-1.5,1.95.09.17.23.31.37.44.62-.62,1.25-1.25,1.88-1.88-2.06-1.8-4.6-2.81-7.36-2.44-1.4.19-2.7.71-3.91,1.47-.53.33-.97.84-1.56,1.04-.47.16-.66-.14-.14.21-.23-.15-.62-.25-.89-.34-.23.86-.47,1.71-.7,2.57.5.13.95.19,1.43-.07.79-.45.81-1.45.27-2.09-.42-.5-1.33-.8-1.96-.63-.66.18-1.16.95-.92,1.63,0,.02.01.04.02.06.74-.43,1.48-.86,2.22-1.29-.28-.27-.56-.55-.82-.84-.63.63-1.25,1.26-1.88,1.88.27.27.53.46.9.6.55.2,1.22-.13,1.5-.61.57-.99-.33-2.64-1.5-2.63-.74,0-1.3.59-1.33,1.32,0,.27.06.51.15.75.86-.24,1.71-.47,2.56-.71-.08-.21-.16-.98-.17-.42.01-.51.1-.9.28-1.39.28-.76.55-1.46.61-2.27.14-1.67-.27-3.23-.97-4.73-.66-1.44-1.82-2.68-3.17-3.5-.6-.36-1.33-.92-2.01-1.06-.82-.16-1.7.36-1.68,1.28.01.48.23.84.58,1.14.63-.62,1.25-1.25,1.88-1.88-.26-.21-.51-.42-.79-.6.2.27.41.53.61.79-.13-.33-.28-.62-.46-.93-.77.45-1.53.89-2.3,1.34.2.29.38.5.66.72.81.6,2.04-.21,2-1.15-.03-.68-.4-1.5-1.01-1.86.22.39.43.77.66,1.15.04-.52.18-1.14.01-1.66-.41-1.33-2.1-1.2-2.56,0-.05.12-.08.25-.1.38.85.23,1.7.47,2.55.71.08-.38.08-.35.3-.72-.76-.45-1.52-.89-2.29-1.34-.17.33-.32.61-.32,1-.01,1.21,1.43,1.7,2.27.94.25-.23.46-.52.68-.79-.43.11-.86.23-1.29.34.61.09,1.08-.04,1.59-.39.83-.58-.67.16.35-.06-.2-.01-.12,0,.27.04.24.04.47.06.71.07,1.65.13,3.29-.23,4.8-.89,3.12-1.35,4.68-4.61,4.98-7.82h-2.66c-.02.12-.02.25,0,.37.14,1.09,1.37,1.85,2.27.94.51-.52.59-1.38.48-2.06-.05.34-.09.68-.14,1.02.22-.31.48-.62.64-.98.5-1.11-.59-2.59-1.82-1.81-.2.12-.35.27-.51.44.63.62,1.26,1.25,1.88,1.88.52-.59.52-.43,1.4-.49-.31-.13-.63-.26-.94-.39.36.34.8.48,1.27.64.23-.86.47-1.71.7-2.56-.33-.09-.74-.19-1.07-.05-.84.35-1.17,1.1-.79,1.95.25.54,1.21,1.07,1.8,1.02.91-.09,1.45-.79,1.28-1.68-.07-.36-.33-.62-.58-.85-.62.62-1.25,1.25-1.88,1.87.17.14.63.77.39.3.18.35.39.67.57,1.02-.05-.34-.09-.68-.13-1.02h0c.81-.1,1.61-.21,2.42-.31-.06-.11-.13-.21-.2-.31-.79-1.31-2.77-.44-2.42,1.02.32,1.35.48,2.61,1.05,3.89.55,1.25,1.52,2.35,2.61,3.16,1.11.83,2.4,1.35,3.77,1.59.68.12,1.36.16,2.05.16.35-.01.72-.05,1.07-.1.17-.02.93.03.69-.13.34-.81.68-1.62,1.02-2.43-.13-.02-.27-.04-.4-.07-1.67-.33-2.35,2.04-.71,2.57.27.08.46.18.69.3.83.43,1.62.02,1.95-.79,0,0,0-.02,0-.02-.73.2-1.47.39-2.22.58.19.17.36.35.53.53.2-.74.39-1.48.58-2.21,0,0-.02,0-.03,0-.85.24-1.19,1.19-.79,1.95.12.24.23.43.31.69.45,1.39,2.66,1.19,2.61-.36,0-.04-.01-.35,0-.43h-2.66c.04.95.12,1.03-.36,1.72-.98,1.41,1.33,2.73,2.29,1.34.69-1,.77-1.84.72-3.06-.07-1.72-2.56-1.71-2.66,0,0,.09.01.4.01.43.87-.12,1.74-.24,2.62-.35-.16-.48-.35-.88-.58-1.33-.27.65-.53,1.3-.79,1.95,0,0,.02,0,.03,0,.98-.27,1.28-1.5.59-2.22-.17-.18-.35-.36-.53-.53-.78-.75-1.85-.32-2.22.58,0,0,0,.02,0,.03.64-.27,1.3-.53,1.95-.8-.44-.23-.84-.41-1.32-.57-.24.86-.47,1.71-.71,2.57.13.02.27.05.4.07,1.47.25,2.34-1.57,1.03-2.43-.87-.56-2.16-.19-3.1-.14-1.19.06-2.38-.18-3.44-.71-2.54-1.27-2.89-3.64-3.48-6.13-.81.34-1.62.68-2.43,1.02.07.1.13.21.2.32.63.96,2.1.81,2.43-.32.3-1.01-.79-2.33-1.51-2.89-1.3-1.04-3.18.72-1.88,1.87.27.27.24.16-.11-.32.43-.56.86-1.12,1.28-1.68.46.16.57.18.31.05-.23-.15-.17-.07.18.25-.26.65-.53,1.3-.79,1.95-.11.02-.23.03-.34.05,1.67.43,2.31-2.03.7-2.56-1.58-.53-3.11-.44-4.32.92-1.13,1.27.71,3.13,1.88,1.88,0-.01-.03-.02-.03-.02-.61-.61-1.22-1.21-1.82-1.82-.16.35-.42.66-.64.98-.21.3-.19.68-.13,1.02-.02-.09-.02-.17-.03-.26-.1.33-.01.25.24-.26.76.31,1.5.63,2.26.94-.02-.12-.02-.25,0-.37.09-1.73-2.49-1.68-2.66,0-.23,2.44-1.44,4.45-3.67,5.53-1.06.51-2.31.58-3.46.53-.57-.03-1.04-.09-1.61-.04-.33.03-.7.1-1,.27-.59.34,0,.14.39.2-.44-.06-.98-.05-1.29.35-.21.27-.42.56-.68.79.76.31,1.51.63,2.27.94-.01.12-.03.23-.04.34.79-1.51-1.4-2.81-2.29-1.34-.28.47-.46.81-.56,1.35-.33,1.66,2.17,2.39,2.55.71.02-.14.05-.26.1-.38h-2.56c-.08-.26-.09.73-.11.95-.03.45.28.93.66,1.14-.11-.1-.22-.21-.32-.31.11.26.12.21.02-.12.66-.38,1.33-.77,2-1.15.1.08.2.16.29.25-.95-1.4-3.17-.15-2.3,1.34.31.53.57.88,1.06,1.28,1.3,1.05,3.19-.74,1.88-1.88-.07-.06-.14-.12-.2-.19.13.31.27.63.4.94v-.03c-.56.42-1.12.85-1.69,1.28-.09-.02.27.15.45.25.22.13.44.25.65.39,1.2.84,2.08,1.62,2.66,3.03.53,1.28.65,2.66.19,3.97-.47,1.35-.92,2.48-.37,3.88.62,1.55,3.13.94,2.56-.71-.07-.26-.09-.28-.05-.04-.44.44-.88.88-1.33,1.33h.03c-.31-.12-.63-.26-.94-.39-.21-.19,0,.08,0,.02.04-.34.09-.68.13-1.03,0,0-.01.02-.02.03.5-.2,1-.41,1.5-.61.46.32.56.35.28.09-1.21-1.22-3.02.61-1.88,1.88.27.29.53.57.82.84.91.86,2.68.02,2.22-1.29,0-.02-.01-.04-.02-.06-.31.54-.62,1.09-.92,1.63-.23.08-.43.08-.62-.02.18.1.17.09-.01-.04.09-.7.18-1.39.27-2.09.21-.06.41-.13.62-.19-1.67-.42-2.33,2.05-.7,2.57.86.27,1.5.34,2.44.12,1.22-.3,2.13-1.34,3.24-1.9,2.35-1.2,5.09-.52,7,1.14,1.28,1.12,3.11-.66,1.88-1.88.02.03.03.06.05.09-.5.65-1,1.3-1.5,1.95-.24-.08-.09.02-.17-.12v-1.34s-.02.04-.03.05c-.4.68-.06,1.81.8,1.95.44.07.92.12,1.36.26-.33-.43-.65-.86-.98-1.28v.03c.44-.44.89-.88,1.33-1.33-.05,0-.1.01-.15.02-1.66.19-1.75,2.69,0,2.65.56-.01.95-.07,1.47-.28,1.55-.62.95-3.12-.7-2.56-.12.06-.24.09-.38.11.54.31,1.09.62,1.63.93,0-.02-.01-.02-.01-.04-.12.43-.23.86-.35,1.29-.02.02-.05.04-.08.05.36-.18.17-.19-.58-.03.4.14,1.02,0,1.29-.35.22-.27.42-.56.68-.79-.75-.31-1.51-.62-2.27-.94.02-.12.04-.23.05-.34-.79,1.52,1.41,2.81,2.29,1.34.28-.47.46-.81.56-1.35-.85-.24-1.7-.47-2.55-.71-.05.26-.09.51-.12.77-.12,1.17,1.53,1.75,2.26.95.65-.71.57-1.8.36-2.66-.37-1.5-1.06-2.58-.79-4.19.25-1.41.97-2.69,1.99-3.68.36-.35.79-.53,1.21-.8.17-.11.35-.22.53-.33.23-.14.71-.23.06-.18-.43-.56-.85-1.12-1.28-1.68,0,.02-.01.03-.01.05-.27,1.23,1.26,2.32,2.22,1.29.38-.34.33-.37-.14-.09-.5-.65-1-1.3-1.5-1.95-.02.04-.04.07-.06.12-.75,1.53,1.54,2.88,2.29,1.34Z"/>
          </g>
        </g>
      </g>
      <path class="st10" d="M281.58,82.98c0-5.45-4.42-9.88-9.88-9.88-.76,0-1.51.09-2.22.25-.18-5.29-4.53-9.53-9.87-9.53s-9.68,4.22-9.87,9.51c-.69-.15-1.4-.23-2.14-.23-5.46,0-9.88,4.42-9.88,9.88,0,4.09,2.49,7.59,6.02,9.09-.55,1.24-.87,2.6-.87,4.05,0,5.46,4.42,9.88,9.87,9.88,2.65,0,5.06-1.04,6.83-2.74,1.79,1.77,4.25,2.87,6.96,2.87,5.45,0,9.88-4.42,9.88-9.88,0-1.48-.33-2.89-.91-4.15,3.56-1.49,6.07-5.01,6.07-9.12Z"/>
      <path class="st1" d="M259.61,66.12c4.47,0,8.3,2.78,9.84,6.71-.45-5.04-4.68-9-9.83-9s-9.38,3.95-9.84,8.97c1.55-3.92,5.37-6.69,9.83-6.69Z"/>
      <path class="st7" d="M255.24,104.92c-5.46,0-9.87-4.42-9.87-9.87,0-1.44.31-2.81.87-4.05-3.54-1.5-6.02-5.01-6.02-9.09,0-3.48,1.8-6.54,4.53-8.3-4.04,1.24-6.97,4.99-6.97,9.44,0,4.08,2.48,7.59,6.02,9.1-.56,1.23-.87,2.6-.87,4.04,0,5.46,4.42,9.88,9.88,9.88,1.97,0,3.81-.58,5.35-1.58-.92.28-1.89.43-2.9.43Z"/>
      <path class="st1" d="M264.16,104.92c5.46,0,9.87-4.42,9.87-9.87,0-1.44-.3-2.81-.86-4.05,3.54-1.5,6.02-5.01,6.02-9.09,0-3.48-1.8-6.54-4.53-8.3,4.04,1.24,6.97,4.99,6.97,9.44,0,4.08-2.47,7.59-6.02,9.1.55,1.23.86,2.6.86,4.04,0,5.46-4.42,9.88-9.87,9.88-1.97,0-3.81-.58-5.35-1.58.92.28,1.89.43,2.9.43Z"/>
    </g>
    <g>
      <g>
        <path class="st11" d="M264.63,86.2c0,2.72-2.2,4.92-4.92,4.92s-4.92-2.2-4.92-4.92,2.2-4.92,4.92-4.92,4.92,2.21,4.92,4.92Z"/>
        <path d="M258.61,86.2c.15-.71.14-.73-.03-.05.06-.37.25-.67.53-.91-.48.47-.48.48.05.02.17-.07.34-.13.52-.19-.68.17-.67.18.04.03.71.15.72.14.04-.03.37.06.67.24.91.53-.47-.49-.47-.48-.01.05.06.17.12.34.19.51-.17-.68-.19-.66-.04.05-.14.71-.13.72.04.04-.07.37-.25.67-.53.92.49-.47.48-.48-.05-.01-.16.07-.34.12-.51.19.68-.18.67-.19-.04-.04-.72-.15-.73-.14-.04.04-.37-.07-.68-.24-.92-.53.47.49.47.47.01-.05-.07-.17-.12-.34-.19-.51.17.68.18.67.03-.04.18,3.27,2.61,6.01,6.02,6.01,3.14,0,6.2-2.74,6.02-6.01-.33-6.18-4.77-10.61-10.94-10.94-6.17-.33-10.64,5.26-10.95,10.94-.33,6.16,5.26,10.63,10.95,10.94,6.16.33,10.63-5.26,10.94-10.94.18-3.28-2.88-6.02-6.02-6.02-3.41,0-5.84,2.74-6.02,6.02Z"/>
      </g>
      <path class="st7" d="M264.63,86.2c0,2.72-2.2,4.92-4.92,4.92s-4.92-2.2-4.92-4.92,2.2-4.92,4.92-4.92,4.92,2.21,4.92,4.92Z"/>
      <path class="st16" d="M255.67,86.18c0-2.56,1.95-4.67,4.46-4.9-.16-.01-.31-.02-.46-.02-2.73,0-4.93,2.21-4.93,4.93s2.2,4.92,4.93,4.92c.15,0,.3-.02.46-.03-2.51-.23-4.46-2.33-4.46-4.89Z"/>
      <path class="st10" d="M263.72,86.18c0-2.56-1.96-4.67-4.46-4.9.15-.01.31-.02.46-.02,2.72,0,4.92,2.21,4.92,4.93s-2.21,4.92-4.92,4.92c-.16,0-.31-.02-.46-.03,2.5-.23,4.46-2.33,4.46-4.89Z"/>
    </g>
  </g>
</svg>