<?xml version="1.0" encoding="UTF-8"?>
<svg id="Layer_1" xmlns="http://www.w3.org/2000/svg" version="1.1" viewBox="0 0 277.31 320.71">
  <!-- Generator: Adobe Illustrator 29.6.1, SVG Export Plug-In . SVG Version: 2.1.1 Build 9)  -->
  <defs>
    <style>
      .st0 {
        fill: #ffd7c3;
      }

      .st1 {
        fill: #055e9b;
      }

      .st2, .st3, .st4, .st5, .st6, .st7 {
        fill-rule: evenodd;
      }

      .st2, .st8 {
        fill: #fff;
      }

      .st9 {
        fill: #ffce00;
      }

      .st10 {
        fill: #511703;
      }

      .st11, .st5 {
        fill: #000002;
      }

      .st12 {
        fill: #c98f4b;
      }

      .st13 {
        fill: #a5a49f;
      }

      .st14 {
        fill: #fff4c7;
      }

      .st3, .st15 {
        fill: #ed1c24;
      }

      .st16 {
        fill: #125693;
      }

      .st4 {
        fill: #d1d3d4;
      }

      .st17 {
        fill: #ffb000;
      }

      .st18 {
        fill: #aeeaff;
      }

      .st19 {
        fill: #ffdcb6;
      }

      .st6, .st20 {
        fill: #7d3d00;
      }

      .st21 {
        fill: #f9a11b;
      }

      .st22 {
        fill: #f38b9e;
      }

      .st23 {
        fill: #6f2a0e;
      }

      .st24 {
        fill: #905505;
      }

      .st25 {
        fill: #fde5d2;
      }

      .st26 {
        fill: #ff9700;
      }

      .st7 {
        fill: #a7a9ac;
      }

      .st27 {
        fill: #82442f;
      }

      .st28 {
        fill: #fbf0dc;
      }

      .st29 {
        fill: #c6802c;
      }

      .st30 {
        fill: #27aae1;
      }

      .st31 {
        fill: #0b1c39;
      }

      .st32 {
        fill: #2e74bc;
      }

      .st33 {
        fill: #b7b6b2;
      }

      .st34 {
        fill: #e6e7e8;
      }

      .st35 {
        fill: #f4bba2;
      }

      .st36 {
        fill: #caebff;
      }

      .st37 {
        fill: #1c75bc;
      }

      .st38 {
        fill: #fffbc7;
      }

      .st39 {
        fill: #fff200;
      }
    </style>
  </defs>
  <g>
    <g>
      <path class="st0" d="M197.42,241.98s27.84,33.07,15.76,40.2c-12.08,7.13-28.99-23.77-28.99-23.77l13.23-16.42Z"/>
      <path d="M194.9,244.49c.95,1.14,1.87,2.3,2.78,3.48.4.52-.55-.72-.14-.19.11.14.21.28.33.42.22.3.45.59.67.89.54.71,1.06,1.43,1.59,2.14,1.14,1.56,2.25,3.15,3.34,4.76,2.33,3.47,4.52,7.07,6.36,10.83.21.44.42.88.62,1.32.11.25.72,1.69.3.68.38.9.72,1.82,1.02,2.74.26.8.47,1.6.65,2.42.08.38.16.77.21,1.15-.2-1.3,0,.19.02.52.02.35.02.7,0,1.04,0,.17-.02.33-.03.5-.06.66.15-.95.05-.3-.05.31-.13.62-.21.92-.31,1.02.38-.68-.11.27-.14.29-.81,1.18-.01.15-.19.24-.4.46-.63.67-.59.56.75-.47-.17.12-.16.11-.34.2-.5.29-.86.46.51-.18-.05.04-.35.14-.73.24-1.1.32-.26.06-.95.12.21-.02-.18.03-.38.03-.57.03-.38.02-.75,0-1.12-.04,1.28.12-.24-.08-.58-.17-.39-.1-.77-.23-1.16-.38-.71-.27.79.35.08.03-.2-.09-.39-.18-.58-.28-.87-.44-1.7-.96-2.49-1.53-.19-.13-.39-.28-.57-.41-.67-.5.62.49-.03-.04-.39-.31-.76-.62-1.14-.94-.83-.73-1.61-1.49-2.38-2.28-1.52-1.55-2.92-3.22-4.27-4.91-.11-.13-.65-.83-.08-.09-.16-.2-.31-.4-.47-.61-.3-.4-.6-.8-.89-1.21-.61-.83-1.21-1.69-1.79-2.54-.96-1.4-1.87-2.81-2.76-4.24-.7-1.13-1.39-2.28-2.03-3.45-.18,1.44-.37,2.88-.55,4.31,4.41-5.47,8.82-10.95,13.22-16.43,1.22-1.5,1.48-3.54,0-5.02-1.26-1.26-3.81-1.51-5.02,0-4.41,5.48-8.82,10.95-13.23,16.42-1.04,1.29-1.39,2.78-.55,4.31,2.82,5.15,6.23,10.03,9.94,14.58,4.88,6,12.67,13.95,21.26,11.61,3.65-1,6.61-3.98,7.22-7.75.61-3.78-.31-7.54-1.68-11.06-3.01-7.69-7.68-14.68-12.59-21.27-1.72-2.31-3.48-4.62-5.34-6.83-1.25-1.48-3.75-1.28-5.02,0-1.45,1.46-1.25,3.54,0,5.02Z"/>
    </g>
    <g>
      <rect class="st11" x="193.55" y="262.39" width="19.73" height="6.91" transform="translate(-111.7 152.92) rotate(-32.86)"/>
      <path d="M196.77,275.21l-4.63-7.16,17.93-11.58,4.62,7.16-17.92,11.58ZM194.37,268.53l2.88,4.46,15.21-9.83-2.87-4.45-15.22,9.83Z"/>
    </g>
    <path class="st8" d="M205.94,259.91l-8.17,5.33-3.6-13.59,3.22-4.03s3.75,4.65,5.52,7.44c1.78,2.79,3.03,4.86,3.03,4.86Z"/>
  </g>
  <g>
    <g>
      <rect class="st8" x="195.68" y="263.48" width="17.57" height="7.75" transform="translate(-107.73 141.58) rotate(-30.65)"/>
      <path d="M200.19,277.4c5.04-2.98,10.07-5.98,15.12-8.96,1.21-.72,1.64-2.32.92-3.54-1.32-2.22-2.63-4.45-3.96-6.67-.71-1.21-2.31-1.64-3.53-.92-5.04,2.98-10.08,5.97-15.12,8.96-1.2.71-1.65,2.32-.92,3.54,1.32,2.22,2.63,4.44,3.95,6.67,1.7,2.86,6.17.26,4.47-2.61-1.32-2.23-2.64-4.45-3.96-6.67-.32,1.18-.62,2.35-.93,3.53,5.04-2.98,10.08-5.97,15.12-8.96-1.18-.31-2.36-.62-3.54-.92,1.32,2.22,2.64,4.44,3.96,6.67.31-1.18.61-2.36.92-3.53-5.05,2.98-10.08,5.97-15.12,8.96-2.86,1.7-.27,6.17,2.61,4.46Z"/>
    </g>
    <polygon class="st34" points="200.07 271.4 210.44 265.3 210.04 264.62 199.67 270.73 200.07 271.4"/>
  </g>
  <path class="st34" d="M198.11,248.32s2.48,3.08,3.93,5.26c1.44,2.18,3.57,5.51,3.57,5.51l-7.75,4.7,5.25-5.06s-.86-1.53-2.54-4.33c-1.69-2.8-3.92-5.77-3.92-5.77l1.46-.31Z"/>
  <g>
    <g>
      <g>
        <g>
          <rect class="st15" x="177.29" y="264.53" width="70.82" height="29.21"/>
          <path d="M248.11,287.92h-70.82c1.94,1.94,3.87,3.88,5.82,5.81v-29.21c-1.95,1.94-3.88,3.88-5.82,5.82h70.82c-1.93-1.94-3.87-3.88-5.81-5.82v29.21c0,3.17,2.64,5.82,5.81,5.82s5.82-2.64,5.82-5.82v-29.21c0-3.16-2.64-5.81-5.82-5.81h-70.82c-3.17,0-5.81,2.65-5.81,5.81v29.21c0,3.17,2.64,5.82,5.81,5.82h70.82c3.17,0,5.82-2.64,5.82-5.82s-2.64-5.81-5.82-5.81Z"/>
        </g>
        <rect class="st24" x="177.29" y="264.53" width="70.82" height="29.21"/>
        <rect class="st12" x="177.29" y="264.53" width="70.82" height="1.9"/>
      </g>
      <polygon class="st20" points="248.11 293.6 245.27 288.05 245.27 264.53 248.11 264.53 248.11 293.6"/>
      <polygon class="st6" points="177.29 290.2 177.29 293.73 248.11 293.73 248.11 293.66 242.68 290.2 177.29 290.2"/>
    </g>
    <rect class="st11" x="244.42" y="264.27" width="2.2" height="26.49"/>
    <polygon class="st11" points="249.85 293.12 248.3 294.67 245 291.38 246.55 289.83 249.85 293.12"/>
    <rect class="st11" x="177.03" y="290.02" width="68.87" height="2.19"/>
  </g>
  <g>
    <g>
      <g>
        <path class="st0" d="M119.61,241.98s-27.84,33.07-15.77,40.2c12.09,7.13,28.99-23.77,28.99-23.77l-13.22-16.42Z"/>
        <path d="M117.1,239.47c-3.35,3.99-6.46,8.21-9.39,12.53-4.58,6.76-9.25,14.32-10.33,22.55-.45,3.38.42,7.15,3.05,9.47,3.2,2.83,7.69,3.41,11.65,1.99,4.14-1.49,7.6-4.42,10.62-7.53,3.08-3.19,5.79-6.77,8.3-10.42,1.75-2.54,3.43-5.17,4.91-7.87.83-1.53.48-3.01-.55-4.31-4.41-5.47-8.81-10.95-13.23-16.42-1.22-1.51-3.77-1.26-5.03,0-1.48,1.48-1.21,3.52,0,5.02,4.41,5.48,8.82,10.96,13.23,16.43-.19-1.44-.37-2.87-.55-4.31-.84,1.54-1.77,3.04-2.7,4.52-.97,1.54-1.98,3.04-3.03,4.53-.57.8-1.15,1.6-1.74,2.39-.15.21-.31.4-.47.61.57-.74.03-.04-.08.09-.38.48-.76.95-1.14,1.41-1.37,1.67-2.84,3.26-4.4,4.76-.72.69-1.46,1.34-2.24,1.96-.65.53.63-.47-.03.04-.19.14-.38.28-.57.41-.43.31-.88.6-1.34.88-.38.23-.77.44-1.15.64-.19.1-.39.18-.58.28-.7.32.79-.31.08-.03-.38.14-.76.27-1.15.38-.34.1-1.87.33-.58.17-.38.04-.75.05-1.12.04-.19,0-.38-.02-.57-.03,1.14.1.48.07.2.02-.37-.07-.73-.18-1.09-.32-.69-.24.79.37.13.05-.23-.12-.46-.24-.68-.38-.92-.56.44.43-.17-.12-.23-.2-.43-.43-.63-.67.82.99.15.15-.01-.15-.51-.93.22.74-.1-.27-.1-.3-.16-.62-.21-.92-.12-.65.11.96.04.3-.02-.17-.03-.33-.03-.5-.02-.35-.01-.69,0-1.04.01-.33.2-1.82.01-.52.26-1.73.78-3.4,1.39-5.03.16-.43.33-.86.5-1.28-.42,1.01.19-.43.3-.68.44-.96.91-1.92,1.4-2.86,1.92-3.71,4.17-7.25,6.54-10.69,1.06-1.54,2.14-3.05,3.25-4.54.46-.62.92-1.24,1.4-1.85.1-.13.21-.28.32-.42.4-.54-.55.71-.14.19.22-.29.44-.57.66-.86.69-.88,1.39-1.75,2.11-2.62,1.25-1.48,1.46-3.57,0-5.02-1.28-1.28-3.78-1.48-5.03,0Z"/>
      </g>
      <g>
        <rect class="st11" x="110.16" y="255.98" width="6.91" height="19.73" transform="translate(-171.35 217.07) rotate(-57.15)"/>
        <path d="M120.26,275.21l-17.93-11.58,4.63-7.16,17.92,11.58-4.62,7.16ZM104.56,263.15l15.22,9.83,2.87-4.46-15.21-9.83-2.88,4.45Z"/>
      </g>
      <path class="st8" d="M111.09,259.91l8.16,5.33,3.6-13.59-3.21-4.03s-3.75,4.65-5.52,7.44c-1.78,2.79-3.03,4.86-3.03,4.86Z"/>
    </g>
    <g>
      <g>
        <rect class="st8" x="108.68" y="258.56" width="7.75" height="17.57" transform="translate(-174.82 227.9) rotate(-59.35)"/>
        <path d="M119.45,272.94c-5.04-2.98-10.08-5.97-15.12-8.96.31,1.17.62,2.36.92,3.53,1.32-2.23,2.64-4.45,3.96-6.67-1.18.31-2.36.62-3.53.92,5.03,2.99,10.08,5.98,15.11,8.96-.31-1.18-.62-2.36-.93-3.53-1.32,2.22-2.63,4.44-3.95,6.67-1.7,2.87,2.77,5.47,4.46,2.61,1.32-2.23,2.64-4.45,3.96-6.67.71-1.22.27-2.83-.93-3.54-5.05-2.99-10.08-5.98-15.12-8.96-1.21-.72-2.82-.28-3.53.92-1.32,2.22-2.64,4.45-3.96,6.67-.71,1.22-.28,2.82.93,3.54,5.04,2.98,10.08,5.97,15.12,8.96,2.88,1.7,5.47-2.77,2.61-4.46Z"/>
      </g>
      <polygon class="st34" points="116.96 271.4 106.59 265.3 106.98 264.62 117.36 270.73 116.96 271.4"/>
    </g>
    <path class="st34" d="M118.92,248.32s-2.48,3.08-3.92,5.26c-1.44,2.18-3.57,5.51-3.57,5.51l7.76,4.7-5.26-5.06s.86-1.53,2.55-4.33c1.67-2.8,3.92-5.77,3.92-5.77l-1.47-.31Z"/>
  </g>
  <g>
    <g>
      <path class="st11" d="M224.34,315.17c0,1.92-29.21,3.48-65.23,3.48s-65.23-1.56-65.23-3.48,29.2-3.49,65.23-3.49,65.23,1.56,65.23,3.49Z"/>
      <path d="M159.11,319.86c-17.45,0-33.86-.36-46.2-1.02-20.25-1.08-20.25-2.34-20.25-3.67s0-2.59,20.25-3.67c12.34-.66,28.74-1.02,46.2-1.02s33.85.36,46.19,1.02c20.25,1.08,20.25,2.34,20.25,3.67s0,2.59-20.25,3.67c-12.34.66-28.74,1.02-46.19,1.02ZM97.83,315.17c8.25,1.2,31.55,2.28,61.28,2.28s53.02-1.08,61.27-2.28c-8.25-1.2-31.55-2.28-61.27-2.28s-53.03,1.08-61.28,2.28Z"/>
    </g>
    <g>
      <path class="st30" d="M126.69,240.31s-12.36,68.35-3.96,71.28c8.41,2.94,16.19-10.44,16.19-10.44,0,0,6.69,2.05,18.23,2.25,11.54.21,20.82-2.38,20.82-2.38,0,0,8.61,14.88,17.89,11.81,9.29-3.07-5.46-72.68-5.46-72.68l-63.71.17Z"/>
      <path d="M123.25,239.37c-2.08,11.5-3.78,23.1-5.16,34.71-.95,8.07-1.78,16.19-1.84,24.32-.02,3.18.12,6.37.66,9.5.44,2.53,1.39,4.9,3.49,6.47,1.91,1.43,4.83,1.29,7.04.96,2.86-.43,5.43-2.22,7.6-4.03,2.74-2.28,5.14-5.29,6.93-8.37-1.33.54-2.67,1.09-4.01,1.63,1.6.49,3.27.79,4.92,1.07,4.71.81,9.48,1.21,14.25,1.3,7.21.15,14.8-.58,21.78-2.52-1.34-.54-2.68-1.09-4.02-1.63,1.55,2.67,3.52,5.16,5.63,7.38,3.47,3.66,8.4,7.08,13.69,6.55,1.89-.19,3.76-.63,5.12-2.05.95-.99,1.5-2.18,1.96-3.45.91-2.55,1.05-5.44,1.14-8.12.25-7.67-.66-15.41-1.64-23.01-1.09-8.48-2.45-16.93-3.97-25.34-.95-5.2-1.93-10.4-3.02-15.57-.32-1.53-1.91-2.62-3.42-2.61-11.91.04-23.81.07-35.72.09-9.33.03-18.66.05-27.99.08-4.59.01-4.59,7.12,0,7.11,11.9-.03,23.81-.06,35.72-.1,9.33-.02,18.66-.05,27.99-.07-1.14-.87-2.29-1.74-3.43-2.62,2.36,11.1,4.33,22.29,5.98,33.51.15,1.03.3,2.07.44,3.1.04.27.26,1.91.12.87.08.6.16,1.2.24,1.8.27,2.11.52,4.23.75,6.35.4,3.88.72,7.76.85,11.64.05,1.65.06,3.3,0,4.94-.02.7-.06,1.4-.12,2.09-.02.32-.06.64-.09.96-.02.16-.03.32-.05.47-.07.61.16-1.06.03-.21-.16,1.03-.38,2.07-.77,3.05-.09.24.47-1,.07-.2-.09.16-.18.32-.28.47-.36.55.72-.82.2-.26-.53.58.17-.1.27-.16-.3.21-.95.4.4-.13-.2.08-.41.13-.62.18-.18.05-.36.09-.54.12.5-.05.54-.06.13-.02-.53.05-1.06.03-1.6-.02.96.09.09,0-.1-.05-.35-.07-.69-.18-1.03-.28-.15-.06-.99-.4-.16-.04-.25-.11-.5-.23-.74-.35-.58-.29-1.13-.64-1.67-1-.23-.16-.46-.32-.69-.48.7.51-.06-.06-.16-.15-.51-.42-.99-.87-1.46-1.32-.84-.81-1.62-1.67-2.37-2.56-.17-.2-1.16-1.46-.5-.6-.31-.4-.6-.81-.89-1.21-.55-.77-1.07-1.55-1.55-2.36-.79-1.38-2.48-2.06-4.01-1.63-1.94.54-3.94.91-5.92,1.25-2.21.38-3.53.53-5.95.74-2.67.23-5.34.32-8.01.27-2.55-.03-5.09-.19-7.62-.42-.51-.05-1.01-.1-1.51-.16-.13-.01-1.55-.19-.8-.09-.91-.12-1.8-.27-2.7-.42-1.56-.28-3.14-.57-4.66-1.03-1.52-.46-3.22.28-4.01,1.63-.48.82-1.02,1.6-1.58,2.37-.13.18-.26.35-.38.52-.48.64.5-.65-.01,0-.31.4-.62.77-.95,1.16-.77.89-1.6,1.73-2.48,2.52-.21.19-.43.37-.64.55-.73.61.59-.43-.17.13-.45.33-.92.63-1.4.91-.24.14-.49.27-.73.39-.14.07-.99.42-.14.08-.58.23-1.18.39-1.81.5.94-.17.09-.03-.11-.02-.27.01-.54,0-.81-.02-.91-.05.77.16-.13-.04-.28-.06-.55-.14-.83-.24-.23-.08,1.06.55.43.15.06.03.81.74.28.17-.42-.45.65.92.21.27-.09-.15-.19-.3-.27-.47-.39-.76.35.88.08.21-.09-.24-.17-.48-.24-.74-.15-.48-.26-.98-.35-1.48-.06-.27-.1-.55-.14-.83-.04-.27-.12-.9.04.35-.03-.2-.05-.41-.07-.62-.36-3.17-.34-6.39-.24-9.57.25-8.32,1.17-16.64,2.2-24.89.13-1.02.26-2.04.39-3.06.03-.25.07-.5.1-.76.12-.88-.12.82,0-.06.08-.58.16-1.16.24-1.74.27-1.98.56-3.96.86-5.95.5-3.36,1.02-6.72,1.57-10.07.43-2.62.87-5.23,1.33-7.83.35-1.9-.49-3.82-2.48-4.38-1.74-.48-4.03.58-4.38,2.49Z"/>
    </g>
  </g>
  <g>
    <g>
      <polygon class="st25" points="185.83 248.26 159.43 248.26 159.21 248.26 132.81 248.26 121.37 285.88 159.21 285.88 159.43 285.88 197.27 285.88 185.83 248.26"/>
      <path d="M185.83,241.15h-53.02c-3.22,0-5.93,2.18-6.85,5.22-3.65,11.99-7.29,23.97-10.94,35.96-.16.55-.33,1.1-.5,1.66-1.35,4.44,2.33,8.99,6.86,8.99h75.9c4.53,0,8.2-4.55,6.86-8.99-3.65-12-7.29-23.98-10.94-35.97-.17-.55-.34-1.11-.5-1.66-1.13-3.71-4.94-6.02-8.74-4.96-3.67,1-6.1,5.03-4.97,8.75,3.65,11.98,7.29,23.97,10.94,35.96.17.55.33,1.1.5,1.65,2.29-3,4.57-5.99,6.85-8.99h-75.9c2.29,3,4.57,6,6.85,8.99,3.64-11.98,7.29-23.97,10.94-35.96.16-.55.33-1.1.5-1.66-2.29,1.74-4.57,3.47-6.86,5.21h53.02c3.87,0,7.11-3.23,7.11-7.1s-3.24-7.11-7.11-7.11Z"/>
    </g>
    <polygon class="st8" points="185.83 248.26 159.43 248.26 159.21 248.26 132.81 248.26 121.37 285.88 159.21 285.88 159.43 285.88 197.27 285.88 185.83 248.26"/>
  </g>
  <g>
    <path class="st0" d="M176.82,239.94c0,9.8-7.94,17.75-17.74,17.75s-17.75-7.94-17.75-17.75,7.95-17.74,17.75-17.74,17.74,7.94,17.74,17.74Z"/>
    <path d="M173.6,239.94c-.05,5.18-2.74,9.87-7.19,12.53-4.48,2.68-10.15,2.57-14.65,0-4.47-2.57-7.13-7.42-7.18-12.53-.05-5.15,2.8-9.9,7.18-12.53,4.49-2.68,10.15-2.57,14.65,0,4.48,2.56,7.14,7.42,7.19,12.53.03,4.17,6.51,4.17,6.45,0-.06-6.26-2.85-12.35-7.78-16.27-5.18-4.12-11.82-5.58-18.26-4.08-5.97,1.39-11.21,5.76-13.83,11.28-2.85,6-2.66,12.86.3,18.77,4.3,8.63,14.46,12.81,23.66,10.66,9.31-2.17,15.81-10.95,15.9-20.36.05-4.17-6.42-4.16-6.45,0Z"/>
  </g>
  <g>
    <g>
      <path class="st25" d="M184.65,274c-2.16-8.8.51-23.44.51-23.44l-5.78.6s-.72,19.81-20,19.81h-.3c-19.29,0-20-19.81-20-19.81l-5.77-.6s2.67,14.64.51,23.44c-2.16,8.78-11.27,11.88-11.27,11.88h73.36s-9.1-3.09-11.26-11.88Z"/>
      <path d="M190.88,272.28c-.12-.53-.23-1.04-.32-1.57-.31-1.75.16,1.51-.05-.29-.14-1.29-.2-2.59-.23-3.88-.05-2.46.08-4.93.27-7.39.09-1.03.19-2.07.31-3.1.05-.46.1-.91.16-1.36.06-.53.23-1.64-.1.74.04-.22.06-.44.1-.66.12-.83.24-1.66.39-2.48.32-1.78.28-3.38-.65-4.98-1.06-1.81-3.38-3.43-5.58-3.2-1.93.2-3.85.4-5.78.6-3.6.38-6.32,2.66-6.46,6.46-.01.43-.06.86-.12,1.29.29-2.37.19-1.25,0-.22-.12.65-.26,1.29-.43,1.92-.18.69-.39,1.36-.62,2.03-.12.36-.25.71-.4,1.07-.36.9.73-1.71.35-.82-.11.25-.23.49-.34.74-.36.76-.78,1.5-1.22,2.21-.24.37-.49.73-.75,1.08-.6.83,1.11-1.4.47-.6-.19.24-.39.46-.59.69-.62.71-1.32,1.35-2.05,1.93,1.91-1.54.42-.33-.09,0-.5.33-1.03.61-1.56.89-.24.12-.47.22-.72.34,1.99-.91,1-.42.53-.24-.53.2-1.07.37-1.62.53-.58.16-1.17.28-1.76.39-.48.09-1.71.24.46-.04-.43.06-.87.09-1.32.12-1.02.08-2.07.07-3.1.04-.67-.02-1.34-.08-2-.16,2.42.28-.13-.06-.73-.21-.57-.13-1.12-.3-1.67-.48-.27-.09-.53-.19-.79-.28-1.06-.42,1.57.69.54.22-1-.46-1.95-1.03-2.85-1.67-.87-.62,1.36,1.08.54.42-.25-.2-.48-.41-.72-.62-.4-.36-.78-.76-1.14-1.16-.16-.16-.3-.34-.45-.51-.91-1.07.91,1.22.32.43-.31-.41-.59-.83-.86-1.27-.52-.82-.96-1.69-1.37-2.58-.22-.48-.58-1.38.34.81-.1-.24-.2-.48-.28-.72-.17-.46-.33-.92-.47-1.4-.42-1.32-.71-2.67-.93-4.05-.16-1.04.28,2.21.13.92-.02-.17-.03-.35-.05-.53-.01-.16-.02-.32-.03-.48-.14-3.8-2.85-6.08-6.47-6.46-1.92-.2-3.85-.4-5.77-.6-1.62-.17-3.47.79-4.57,1.89-1.74,1.74-2.09,3.96-1.66,6.29.11.62.21,1.25.3,1.88.04.27.08.54.12.8.21,1.46-.24-1.84-.03-.28.12.95.22,1.9.32,2.86.46,4.49.65,9.07.1,13.56.27-2.24.06-.57-.02-.07-.1.54-.22,1.07-.36,1.6-.15.57-.35,1.13-.56,1.68.79-2.03.03-.2-.23.27-.26.47-.56.91-.86,1.34-.39.54-.24.35.44-.56-.18.24-.39.46-.58.69-.63.72-1.34,1.36-2.07,1.97-.83.69,1.48-1.1.27-.22-.33.24-.66.46-1,.68-.58.38-1.18.7-1.79,1.02-.94.48-1.86.82.17-.02-.15.07-.31.13-.46.18-2.75.94-4.75,3.22-4.75,6.23,0,3.53,2.94,6.46,6.46,6.46h73.36c2.87,0,5.47-1.97,6.23-4.75.98-3.55-1.18-6.79-4.51-7.94-.1-.04-.2-.07-.29-.11-.53-.2-1.3-.56,1.08.46-.22-.09-.43-.19-.64-.29-1.13-.54-2.21-1.18-3.23-1.91-1.23-.87,1.1.89.27.22-.29-.24-.57-.48-.84-.73-.66-.6-1.26-1.25-1.82-1.93,1.37,1.67.38.46.09.04-.31-.45-.56-.92-.81-1.41-.81-1.51.38,1.06-.04,0-.21-.56-.38-1.13-.53-1.7-.88-3.42-4.59-5.44-7.94-4.51-3.44.94-5.4,4.54-4.52,7.94,1.99,7.7,8.34,13.84,15.78,16.4.58-4.23,1.14-8.46,1.71-12.7h-73.36c.58,4.23,1.15,8.46,1.72,12.7,7.98-2.75,14.6-9.55,16.11-17.96,1.49-8.29.65-17.07-.84-25.3-2.07,2.73-4.16,5.46-6.23,8.17,1.92.21,3.84.4,5.77.61-2.15-2.16-4.31-4.31-6.46-6.47.24,6.35,2.69,12.52,6.58,17.47,3.18,4.06,7.97,6.85,12.95,8.01,5.57,1.29,12.12,1.18,17.42-1.04,3.48-1.44,6.64-3.39,9.13-6.28,2.33-2.69,3.88-5.55,5.19-8.84,1.15-2.9,1.84-6.21,1.96-9.33-2.15,2.15-4.31,4.31-6.47,6.47,1.93-.21,3.85-.4,5.78-.61-2.08-2.72-4.15-5.44-6.23-8.17-1.58,8.66-2.58,18.22-.52,26.87.81,3.43,4.65,5.43,7.95,4.52,3.48-.96,5.33-4.53,4.51-7.95Z"/>
    </g>
    <path class="st30" d="M184.65,274c-2.16-8.8.51-23.44.51-23.44l-5.78.6s-.72,19.81-20,19.81h-.3c-19.29,0-20-19.81-20-19.81l-5.77-.6s2.67,14.64.51,23.44c-2.16,8.78-11.27,11.88-11.27,11.88h73.36s-9.1-3.09-11.26-11.88Z"/>
    <path class="st37" d="M159.1,272.9c.06,0,.1,0,.16,0h.02c.05,0,.1,0,.16,0,20.42,0,22.25-19.82,22.39-21.99l-2.4.25s-.71,19.81-20,19.81h-.3c-19.29,0-20-19.81-20-19.81l-2.41-.25c.14,2.16,1.97,21.99,22.39,21.99Z"/>
  </g>
  <path class="st32" d="M123.52,293.04l-.96-7.16s22.66-1.97,37.57-1.97,37.11,1.97,37.11,1.97l-2.17,7.38s-9.53,3.44-35.99,3.44-35.57-3.66-35.57-3.66Z"/>
  <path class="st36" d="M135.42,250.79l-2.11-.22s2.67,14.64.51,23.44c-2.16,8.78-11.27,11.88-11.27,11.88l.96,7.16-.14,7.75s-.47,7.75,1.59,7.95c2.07.2,6.12-3.42,6.12-3.42,0,0-4.47,1.56-5.37,1.37-.91-.19-.88-5.89-.88-5.89l.3-7.5-.46-6.58,2.33-1.19c2.93-1.64,7.46-5.04,8.91-10.95,2.06-8.37-.17-21.92-.49-23.8Z"/>
  <path class="st37" d="M182.97,250.79l2.11-.22s-2.67,14.64-.51,23.44c2.16,8.78,12.73,11.93,12.73,11.93l-2.2,7.54.34,8.14s.28,8.15-1.78,8.34c-2.07.2-6.59-3.28-6.59-3.28,0,0,5.02,1.5,5.93,1.3.91-.19.56-7.18.56-7.18l-.3-7.5,1.7-6.05-3.56-1.72c-2.93-1.64-7.46-5.04-8.91-10.95-2.05-8.37.17-21.92.5-23.8Z"/>
  <g>
    <path class="st25" d="M123.67,283.02s16.82,2.79,35.22,2.79,36.02-2.85,36.02-2.85l2.39,4.28s-20.11,2.76-38.03,2.76-36.72-2.79-36.72-2.79l1.11-4.2Z"/>
    <path d="M122.13,288.63c24.12,3.99,48.65,3.68,72.81.17.5-.07,1.01-.14,1.52-.22-2.2-.89-4.39-1.78-6.58-2.68.8,1.43,1.59,2.86,2.39,4.28,1.16-2.85,2.32-5.7,3.47-8.55-.5.07,2.22-.29.85-.12-.66.09-1.32.17-1.99.25-2.26.28-4.52.53-6.78.76-6.9.71-13.82,1.24-20.75,1.5-13.77.54-27.59-.45-41.25-2.19-.4-.05-.81-.1-1.22-.16-.88-.12,1.73.24.89.12-.18-.02-.36-.05-.55-.08-.28-.04-.57-.08-.85-.12,1.35,2.39,2.7,4.77,4.06,7.16.37-1.4.74-2.8,1.11-4.2.82-3.06-.98-6.31-4.05-7.16-3.04-.83-6.34,1-7.16,4.06-.37,1.4-.75,2.8-1.11,4.2-.74,2.78.9,6.69,4.06,7.15,10.73,1.59,21.6,2.57,32.44,2.91,13.45.42,26.96-.64,40.31-2.23,1.69-.2,3.38-.42,5.07-.65,1.4-.2,2.8-1.52,3.48-2.67,1.07-1.82,1.02-4.05,0-5.88-.79-1.43-1.59-2.85-2.39-4.27-1.37-2.46-3.99-3.09-6.56-2.67-.86.14-1.72.26-2.57.38-.21.04-.42.06-.63.09-.98.13,1.64-.22.62-.09-.53.08-1.05.14-1.58.2-1.38.18-2.76.34-4.14.49-7.36.82-14.74,1.35-22.14,1.52-7.97.18-15.95-.2-23.88-.89-2.98-.27-5.95-.58-8.93-.95-.55-.07-1.11-.14-1.66-.21-1.05-.13,1.58.21.57.08-.23-.03-.45-.06-.67-.09-.73-.1-1.47-.21-2.2-.32-.31-.05-.62-.1-.92-.15-3.13-.51-6.25.77-7.16,4.06-.77,2.81.93,6.64,4.06,7.16Z"/>
  </g>
  <path class="st23" d="M123.67,283.02s16.82,2.79,35.22,2.79,36.02-2.85,36.02-2.85l2.39,4.28s-20.11,2.76-38.03,2.76-36.72-2.79-36.72-2.79l1.11-4.2Z"/>
  <path class="st27" d="M123.67,284.19s16.82,2.79,35.22,2.79,36.02-2.85,36.02-2.85l1.78,3.19c.39-.05.61-.08.61-.08l-2.39-4.28s-17.63,2.85-36.02,2.85-35.22-2.79-35.22-2.79l-1.11,4.2s.11.02.3.04l.81-3.07Z"/>
  <path class="st10" d="M159.27,288.59c-16.47,0-33.67-2.36-36.36-2.74l-.36,1.37s18.8,2.79,36.72,2.79,38.03-2.76,38.03-2.76l-.74-1.33c-3.78.49-21.39,2.67-37.28,2.67Z"/>
  <g>
    <g>
      <rect class="st32" x="129.45" y="283.58" width="15.35" height="6.03" transform="translate(-157.32 405.93) rotate(-86.49)"/>
      <path d="M139.68,292.5c-2.01-.12-4.02-.24-6.02-.36.65.65,1.29,1.29,1.93,1.93.32-5.1.63-10.22.94-15.33-.65.65-1.3,1.29-1.94,1.94,2,.12,4.01.25,6.02.36-.65-.65-1.29-1.29-1.93-1.93-.31,5.11-.62,10.22-.94,15.33-.16,2.5,3.72,2.48,3.88,0,.31-5.11.62-10.22.93-15.33.07-1.1-.93-1.88-1.94-1.94-2.01-.13-4.01-.25-6.02-.37-1.1-.07-1.88.93-1.95,1.94-.31,5.11-.62,10.22-.93,15.33-.07,1.1.93,1.88,1.94,1.94,2,.13,4.01.24,6.02.37,2.5.16,2.48-3.73,0-3.88Z"/>
    </g>
    <rect class="st36" x="130.6" y="286.26" width="11.5" height=".59" transform="translate(-156.63 408.49) rotate(-87.15)"/>
    <polygon class="st16" points="137.83 292.41 137.25 292.37 137.95 280.89 138.53 280.93 137.83 292.41"/>
  </g>
  <g>
    <g>
      <rect class="st32" x="178.16" y="278.92" width="6.04" height="15.35" transform="translate(-17.19 11.62) rotate(-3.51)"/>
      <path d="M178.64,296.38c2-.13,4.01-.24,6.02-.37,1-.06,2-.84,1.93-1.94-.31-5.1-.62-10.22-.93-15.33-.06-1.01-.84-2.01-1.94-1.94-2.01.12-4.01.24-6.03.37-1,.06-2,.84-1.93,1.94.31,5.11.63,10.22.94,15.33.16,2.48,4.02,2.5,3.88,0-.31-5.11-.62-10.22-.94-15.33-.65.65-1.29,1.29-1.95,1.93,2.01-.12,4.02-.24,6.03-.36-.65-.65-1.29-1.29-1.94-1.94.31,5.11.62,10.22.94,15.33.65-.64,1.29-1.29,1.94-1.93-2.01.12-4.02.24-6.02.36-2.48.15-2.5,4.04,0,3.88Z"/>
    </g>
    <polygon class="st36" points="182.02 292.31 182.61 292.28 181.9 280.8 181.33 280.84 182.02 292.31"/>
    <polygon class="st16" points="180.48 292.41 181.06 292.37 180.35 280.89 179.77 280.93 180.48 292.41"/>
  </g>
  <g>
    <g>
      <g>
        <path class="st25" d="M166.04,290.29c0,1.19-.88,2.16-1.97,2.17l-9.6.05c-1.1.01-1.99-.96-1.99-2.15l-.04-5.76c-.01-1.2.88-2.17,1.97-2.18l9.59-.04c1.1,0,2,.96,2,2.15l.02,5.76Z"/>
        <path d="M160.23,290.29c.14-2.11,1.77-3.64,3.8-3.65-.17,0-.33,0-.5,0-.75,0-1.51,0-2.26.01-1.95.01-3.89.02-5.84.03-1.55,0-1.07-.4,1.06.56,1.13.51,1.79,2.43,1.8,2.98,0-.29,0-.58,0-.87-.01-1.59-.02-3.17-.03-4.76.02,2.1-1.89,3.63-3.8,3.64h.5c.76,0,1.51,0,2.26-.01,1.95,0,3.89-.02,5.84-.03,1.54,0,1.07.4-1.06-.57-1.12-.51-1.8-2.42-1.8-2.98v.87c.01,1.59.02,3.18.03,4.77.02,3.17,2.63,5.81,5.81,5.81s5.84-2.64,5.81-5.81c0-1.59-.01-3.18-.02-4.77,0-1.1-.06-2.12-.32-3.22-.82-3.54-4.15-5.46-7.5-5.74-3.05-.25-6.23.04-9.28.05-4.52.02-8.12,3.55-8.1,8.11,0,1.73.02,3.44.02,5.16.02,4.47,3.17,8.46,7.9,8.45,1.57,0,3.15-.02,4.72-.03,1.49,0,3-.01,4.5-.02,4.66-.02,7.78-3.48,8.09-7.98.22-3.17-2.8-5.82-5.81-5.82-3.34,0-5.59,2.65-5.81,5.82Z"/>
      </g>
      <path class="st9" d="M166.04,290.29c0,1.19-.88,2.16-1.97,2.17l-9.6.05c-1.1.01-1.99-.96-1.99-2.15l-.04-5.76c-.01-1.2.88-2.17,1.97-2.18l9.59-.04c1.1,0,2,.96,2,2.15l.02,5.76Z"/>
      <path class="st11" d="M164.04,289.29v-3.74c-.02-.77-.65-1.4-1.42-1.4l-6.78.04c-.78,0-1.4.63-1.4,1.41v.7s3.19-.02,3.19-.02c.64,0,1.17.52,1.17,1.17s-.52,1.17-1.16,1.17l-3.18.02v.7c.01.77.63,1.4,1.41,1.4l6.78-.04c.77,0,1.4-.63,1.39-1.41Z"/>
      <g>
        <path class="st14" d="M163.67,284.62c.22.25.36.57.36.93v3.74c.02.78-.61,1.41-1.38,1.41l-6.78.04c-.14,0-.28-.02-.42-.06.25.29.63.47,1.05.47l6.78-.04c.77,0,1.4-.63,1.39-1.41l-.02-3.74c0-.63-.42-1.15-.99-1.33Z"/>
        <path class="st14" d="M158.25,286.69c.1,0,.2.01.29.03-.22-.27-.55-.44-.92-.44l-2.55.02v.4s3.18-.01,3.18-.01Z"/>
        <path class="st14" d="M153.11,290.76l-.04-5.76c0-1.2.88-2.17,1.98-2.17l9.59-.04c.24,0,.47.04.68.13-.35-.34-.81-.54-1.32-.54l-9.59.04c-1.1.01-1.99.98-1.97,2.18l.04,5.76c0,.93.55,1.72,1.3,2.03-.41-.4-.68-.98-.68-1.62Z"/>
      </g>
    </g>
    <g>
      <path class="st17" d="M162.41,283.52l-6.79.04c-.77,0-1.4.64-1.39,1.41v.7h.2v-.07c0-.78.62-1.41,1.4-1.41l6.78-.04c.5,0,.95.27,1.2.67-.06-.72-.67-1.3-1.41-1.29Z"/>
      <path class="st17" d="M154.47,289.44s-.01-.07-.01-.11v-.7l3.18-.02c.64,0,1.16-.53,1.16-1.17,0-.24-.08-.47-.21-.66,0,.01,0,.02,0,.04,0,.65-.53,1.17-1.17,1.18l-3.17.02v.7c0,.27.08.52.21.73Z"/>
      <path class="st17" d="M166.04,290.29l-.02-5.76c0-.38-.09-.72-.24-1.03.02.13.03.27.03.4l.04,5.76c0,1.19-.88,2.16-1.97,2.17l-9.59.05c-.76,0-1.41-.45-1.75-1.13.18,1,.99,1.76,1.96,1.75l9.6-.05c1.09-.01,1.97-.98,1.97-2.17Z"/>
    </g>
  </g>
  <g>
    <g>
      <g>
        <g>
          <path class="st15" d="M204.29,281.56s.15-1,1.1-.97c.01,0,.02,0,.02,0,0,0,.01,0,.02,0,.94-.05,1.12.93,1.12.93l1.99,25.81s-.38,1.31-2.53,1.56c-.05,0-.09,0-.13.01h0s-.08,0-.12-.01c-2.16-.17-2.58-1.46-2.58-1.46l1.1-25.86Z"/>
          <path d="M209.27,282.92c.14-.75-.99,1.89-1.6,2.15-.87.24-1.74.47-2.6.71,2.27-.25-3.94-4.36-3.51-2.95-.38-1.23-.21-1.77-.17-1.25.01.21.03.42.04.63.08,1,.15,1.99.23,2.99.25,3.29.51,6.56.76,9.84.24,3.1.47,6.19.71,9.28.07.87.13,1.73.2,2.6.01.13.02.25.03.39,0-.88.21-1.71.65-2.46-.16.37-.66.77.48-.58-.55.64,1.16-.73.28-.24.21-.1.43-.2.63-.29-.64.14-.49.13.48-.02-2.8.26-5.17,2.15-5.17,5.17,0,2.81,2.35,5.17,5.17,5.17h0c2.81,0,5.17-2.36,5.17-5.17s-2.35-5.17-5.17-5.17c-.04,0-.08-.01-.12-.01.2.02.4.04.6.06-.57-.18-.44-.12.38.18-.46-.3-.29-.17.5.4-.59-.55.78,1.15.46.58.34.59.68,1.93.65,2.42,0-.07,0-.14,0-.21.04-.75.07-1.49.1-2.23.13-3.01.25-6.02.39-9.02.2-4.78.41-9.57.61-14.34.13-2.82-2.44-5.17-5.17-5.17-2.91,0-5.05,2.36-5.17,5.17-.23,5.28-.45,10.57-.68,15.86-.12,2.88-.24,5.76-.36,8.64-.04.87-.18,1.9.12,2.74,1.16,3.24,4.24,5.27,7.69,5.27,2.81,0,5.17-2.36,5.17-5.17s-2.35-5.17-5.17-5.17h0v10.33c2.25-.21,4.28-.84,5.92-2.46,1.05-1.04,2.01-2.77,1.89-4.3-.06-.77-.12-1.54-.17-2.3-.29-3.75-.58-7.47-.86-11.21-.28-3.55-.55-7.11-.82-10.66-.07-.99-.1-2.05-.32-3.03-.67-2.91-3.33-4.47-6.1-4.69-2.99-.23-5.14,2.09-6.08,4.62-.02.05-.03.1-.04.15-.54,2.76.73,5.57,3.61,6.36,2.56.7,5.83-.85,6.36-3.61Z"/>
        </g>
        <path class="st24" d="M204.26,281.62s.15-1,1.1-.97h.05c.94-.06,1.12.93,1.12.93l1.98,25.81s-.38,1.31-2.53,1.56c-.04,0-.08,0-.12.01h0s-.08,0-.12-.01c-2.16-.17-2.58-1.47-2.58-1.47l1.1-25.86Z"/>
        <path class="st29" d="M203.93,307.48l1.11-25.86s.11-.74.74-.93c-.1-.04-.24-.05-.38-.04h-.04c-.96-.03-1.11.97-1.11.97l-1.1,25.86s.42,1.3,2.58,1.47c.04,0,.08,0,.12.01h0s.08-.01.12-.01c.08-.01.14-.02.22-.04-1.89-.27-2.27-1.43-2.27-1.43Z"/>
        <path class="st20" d="M207.73,307.48l-1.1-25.86s-.12-.74-.75-.93c.12-.04.24-.05.39-.04h.03c.95-.03,1.11.97,1.11.97l1.1,25.86s-.42,1.3-2.58,1.47c-.04,0-.08,0-.12.01h0s-.08-.01-.13-.01c-.08-.01-.14-.02-.21-.04,1.89-.27,2.26-1.43,2.26-1.43Z"/>
      </g>
      <g>
        <g>
          <path class="st3" d="M196.66,282.34c.35.06.65.13.95.14.13,0,.28-.09.38-.19.82-.8,1.71-1.49,2.85-1.81.23-.06.48-.11.72-.13,1.07-.06,1.66.47,1.7,1.54.02.64.03,1.27.03,1.9,0,.25.09.33.34.33,1.14-.03,2.27-.06,3.41-.06.27,0,.34-.1.33-.35-.02-.45-.04-.9-.01-1.35.04-.62.4-.99,1.02-.99.71,0,1.41.08,2.11.11.06,0,.16.01.18.05.28.55.78.31,1.2.34.27.02.54-.01.81-.02.29,0,.42-.14.42-.43-.03-1.21-.05-2.43-.06-3.64,0-.31-.16-.45-.46-.45-.49.01-.98.01-1.47.04-.1,0-.22.02-.28.09-.64.71-1.48.58-2.25.44-1.11-.19-2.2-.59-3.31-.73-1.77-.21-3.47.12-5.08.89-.15.07-.29.17-.42.28-1.32,1.1-2.21,2.53-3.09,4.01Z"/>
          <path d="M195.29,287.32c1.34.24,2.55.47,3.9.08.94-.27,1.75-.79,2.46-1.45.18-.18.37-.35.56-.52-.56.41-.61.46-.14.14,1.02-.68-1.04.28.14-.1-1.36.43-3.03-.99-3.64-1.85-.16-.57-.32-1.15-.49-1.72.01.32.02.64.03.95.02.86.08,1.67.22,2.53.39,2.45,2.98,3.63,5.1,3.9,1,.13,2.11-.02,3.12-.04,2.15-.03,4.12-.78,5.26-2.71.56-.95.61-1.73.72-2.81,0-.3-.02-.6-.02-.9-.06.5-.2.98-.39,1.43-.62.62-1.24,1.24-1.86,1.85-.63.15-1.26.29-1.88.45.28,0,.56,0,.85.03.45.02.92.04,1.37.09-.87-.23-1.74-.47-2.61-.71.02.01.05.02.08.04-.62-.62-1.24-1.24-1.86-1.85.98,1.28,1.91,2.29,3.51,2.73.89.24,1.68.17,2.56.17,3.54,0,6.06-2.56,5.99-6.08-.04-1.99.23-4.27-.82-6.05-1.55-2.64-5.22-3.37-8-2.44-.88.24-1.64.68-2.29,1.32.81-.32,1.62-.64,2.42-.96-.57-.03-.45,0,.36.07-.8-.13-1.58-.38-2.36-.56-2.27-.54-4.45-.47-6.72-.01-4.13.85-6.62,3.98-8.66,7.4-1.46,2.42-.57,5.66,1.85,7.07,2.44,1.44,5.62.56,7.07-1.85.29-.49.59-.98.9-1.46.16-.24.31-.47.48-.69-.7.98.13-.09.27-.25.47-.43.4-.4-.21.08.7-.51-1.03.34.21-.1.27-.09.55-.17.83-.24,1.36-.35-1.06.04.33-.03.29-.01.59,0,.87.02-1.18-.05.29.1.49.14.74.18,1.47.38,2.23.51,2.66.45,4.87.03,6.95-1.82-.76.45-1.52.88-2.28,1.33-.2.02-.4.05-.6.08.7.02.66-.02-.14-.16-.76-.45-1.52-.89-2.29-1.33.05.05.1.09.16.14-.44-.76-.88-1.52-1.33-2.28-.35-1.58-.11.32-.1.7,0,.36-.12,2.34.18.69.44-.77.88-1.53,1.33-2.29-.05.05-.09.1-.14.14.76-.44,1.52-.88,2.28-1.33,1.6-.35,0-.07-.45-.1.87.23,1.73.47,2.6.71-.07-.04-.16-.07-.22-.1.61.62,1.24,1.23,1.85,1.85-1.41-1.84-2.49-2.61-4.84-2.86-1.14-.12-2.69-.29-3.77.1-2.1.77-3.37,1.97-4.2,4.04-.45,1.13-.22,2.31-.35,3.46.5-1.21,1.01-2.44,1.51-3.65-.03.04-.06.07-.1.12.76-.44,1.52-.89,2.28-1.33,1.69-.31-.42-.13-.77-.12-.55,0-1.12.08-1.66,0,1.22.5,2.44,1.01,3.65,1.51-.04-.04-.08-.06-.11-.1.44.76.88,1.52,1.33,2.28.28,1.74.13-.38.12-.73-.04-1.26-.32-2.11-.81-3.24-.72-1.64-2.56-3.02-4.34-3.28-2.06-.3-3.88-.03-5.76.91-.46.23-.87.49-1.27.79-.46.34-.91.68-1.34,1.05-1.7,1.4,5.22-.4,3.13-.76-2.77-.48-5.55.69-6.36,3.61-.69,2.51.83,5.88,3.61,6.36Z"/>
        </g>
        <path class="st4" d="M196.66,282.34c.35.06.65.13.95.14.13,0,.28-.09.38-.19.82-.8,1.71-1.49,2.85-1.81.23-.06.48-.11.72-.13,1.07-.06,1.66.47,1.7,1.54.02.64.03,1.27.03,1.9,0,.25.09.33.34.33,1.14-.03,2.27-.06,3.41-.06.27,0,.34-.1.33-.35-.02-.45-.04-.9-.01-1.35.04-.62.4-.99,1.02-.99.71,0,1.41.08,2.11.11.06,0,.16.01.18.05.28.55.78.31,1.2.34.27.02.54-.01.81-.02.29,0,.42-.14.42-.43-.03-1.21-.05-2.43-.06-3.64,0-.31-.16-.45-.46-.45-.49.01-.98.01-1.47.04-.1,0-.22.02-.28.09-.64.71-1.48.58-2.25.44-1.11-.19-2.2-.59-3.31-.73-1.77-.21-3.47.12-5.08.89-.15.07-.29.17-.42.28-1.32,1.1-2.21,2.53-3.09,4.01Z"/>
        <g>
          <path class="st7" d="M207.36,282.27s-.01.06-.01.09c-.02.45,0,.91.01,1.35,0,.25-.06.35-.33.35h-.08c0-.32,0-.65.01-.98.02-.36.16-.64.4-.81Z"/>
          <path class="st7" d="M200.18,278.05c1.61-.78,3.31-1.11,5.08-.89,1.11.14,2.2.54,3.31.73.77.14,1.61.28,2.25-.44.06-.06.18-.09.28-.09.49-.02.98-.02,1.47-.04.3,0,.46.13.46.45.02,1.21.03,2.43.06,3.64,0,.28-.13.42-.4.43-.02-1.12-.04-2.23-.06-3.36,0-.3-.15-.44-.46-.44-.49.01-.98.01-1.47.03-.1,0-.22.03-.28.09-.65.71-1.48.58-2.26.44-1.11-.2-2.19-.6-3.31-.73-1.77-.22-3.47.11-5.07.89-.16.08-.3.17-.43.28-1.11.92-1.91,2.07-2.66,3.3-.01,0-.03-.01-.05-.01.88-1.48,1.77-2.92,3.09-4.01.13-.11.27-.2.42-.28Z"/>
        </g>
      </g>
    </g>
    <rect class="st11" x="208.65" y="277.33" width="1.96" height="4.5" transform="translate(-1.45 1.09) rotate(-.3)"/>
  </g>
  <g>
    <g>
      <g>
        <path class="st25" d="M61.16,149.6s-48.68.04-51.52,5.38c-2.84,5.33,4.38,16.25,27.08,20.27,22.7,4.02,40.12,0,40.12,0l-.54-22.14-15.14-3.52Z"/>
        <path d="M61.16,140.55c-13.07.01-26.28.31-39.26,1.88-7.97.96-19.04,1.85-21.43,11.31-2.77,10.99,6.98,20.11,15.89,24.48,5.84,2.87,12.06,4.72,18.46,5.84,7.43,1.3,14.98,2.02,22.52,2.03,7.25,0,14.81-.48,21.9-2.11,3.83-.88,6.73-4.84,6.64-8.72-.18-7.38-.36-14.76-.54-22.14-.09-3.91-2.67-7.8-6.64-8.72-5.05-1.17-10.09-2.34-15.14-3.52-4.8-1.11-9.79,1.43-11.13,6.32-1.27,4.61,1.51,10.02,6.32,11.13,5.04,1.17,10.09,2.34,15.14,3.51-2.22-2.91-4.43-5.82-6.64-8.72.17,7.38.36,14.76.54,22.14,2.21-2.91,4.43-5.82,6.64-8.72-1.63.38-3.31.62-4.98.84.8-.11,1.6-.21,2.41-.32-9.99,1.33-20.17,1.22-30.15-.07.8.1,1.6.21,2.41.32-6.37-.85-12.7-2.16-18.65-4.65.72.31,1.44.61,2.16.91-2.85-1.22-5.59-2.68-8.05-4.58.61.47,1.22.94,1.83,1.41-1.32-1.04-2.53-2.19-3.58-3.5.47.61.94,1.21,1.42,1.82-.68-.88-1.26-1.8-1.71-2.82.31.72.61,1.44.91,2.16-.29-.71-.52-1.44-.62-2.21.11.8.22,1.61.33,2.41-.07-.54-.07-1.08,0-1.62-.1.8-.21,1.61-.32,2.41.08-.46.2-.91.38-1.33-.31.72-.61,1.44-.91,2.16.09-.2.18-.38.3-.55-.47.61-.94,1.22-1.41,1.83.12-.14.24-.26.38-.38-.61.47-1.22.95-1.83,1.42.4-.31.86-.53,1.32-.73-.72.3-1.44.61-2.16.91,2.84-1.18,6.04-1.59,9.06-2-.8.11-1.6.21-2.4.32,13.38-1.77,27.06-2.02,40.54-2.05h.06c4.93,0,9.05-4.11,9.05-9.05s-4.12-9.05-9.05-9.05Z"/>
      </g>
      <path class="st37" d="M61.16,149.6s-48.68.04-51.52,5.38c-2.84,5.33,4.38,16.25,27.08,20.27,22.7,4.02,40.12,0,40.12,0l-.54-22.14-15.14-3.52Z"/>
      <path class="st1" d="M36.72,172.75c-18.19-3.22-26.43-10.87-27.53-16.53-1.25,5.64,6.48,15.3,27.53,19.03,22.7,4.02,40.12,0,40.12,0l-.06-2.48c-1.11.24-18.12,3.87-40.06-.02Z"/>
    </g>
    <path class="st30" d="M76.31,153.11l-15.14-3.52s-48.68.04-51.52,5.38c-1.57,2.96-.06,7.62,5.47,11.89l11.35.71s13.61.74,27.83,0c12.69-.65,20.71-2.79,22.28-3.24l-.27-11.23Z"/>
    <g>
      <g>
        <path class="st25" d="M76.31,153.13h0s-15.14-3.53-15.14-3.53c0,0-48.68.04-51.52,5.38-1.76,3.3.33,8.74,7.57,13.36-2.53-3.14-5.16-7.37-2.96-9.32,3.76-3.3,52.42-2.08,62.05-5.89Z"/>
        <path d="M85.35,153.13h0c-.08-3.92-2.69-7.82-6.64-8.73-2.89-.68-5.8-1.35-8.69-2.01-1.74-.4-3.47-.81-5.21-1.21-1.23-.29-2.47-.61-3.76-.61-5.24.01-10.47.13-15.71.31-9.18.31-18.32.87-27.4,2.1-2.89.39-5.89.81-8.62,1.88-2.13.83-4.31,1.71-5.88,3.47-1.45,1.63-2.27,3.13-2.9,5.26-.77,2.56-.47,4.74-.11,7.31.46,3.28,2.55,6.18,4.54,8.71,2.08,2.65,4.89,4.74,7.7,6.56,3.39,2.2,8.19,1.36,10.96-1.41,1.69-1.69,2.65-4.01,2.65-6.4,0-2.61-1.09-4.43-2.65-6.39-.17-.22-.36-.44-.53-.67.47.61.94,1.22,1.41,1.83-1.02-1.34-1.96-2.73-2.66-4.27.31.72.61,1.44.91,2.16-.27-.66-.47-1.31-.58-2.02.11.8.21,1.61.32,2.41-.02-.31-.02-.6.02-.9-.12.8-.22,1.6-.33,2.4.03-.18.08-.36.14-.54-.31.72-.61,1.44-.91,2.17.06-.18.16-.34.25-.5-.47.61-.94,1.22-1.41,1.83.13-.17.25-.32.43-.47-.61.47-1.22.95-1.83,1.41.18-.13.38-.24.59-.32-.72.3-1.44.6-2.16.91,1.32-.53,2.79-.71,4.2-.91-.8.12-1.6.22-2.41.33,8.22-1.08,16.59-1.18,24.87-1.52,9.55-.41,19.11-.81,28.59-2.09,2.06-.28,4.2-.58,6.15-1.34,2.29-.89,4.12-1.96,5.41-4.16,1.22-2.09,1.55-4.63.91-6.97-.62-2.26-2.13-4.22-4.15-5.41-1.92-1.12-4.82-1.75-6.97-.91-2.01.79-4.23,1.08-6.36,1.37.8-.11,1.6-.22,2.41-.32-17.71,2.34-35.72,1.22-53.43,3.6-2.3.31-4.54.81-6.59,1.99-1.68.96-3.02,2.44-4.02,4.09-1.74,2.85-1.58,5.85-1.14,8.98.26,1.85,1.27,3.68,2.18,5.29,1.07,1.91,2.51,3.64,3.87,5.34,3.65-4.74,7.3-9.47,10.96-14.21-.77-.51-1.52-1.03-2.26-1.59.61.46,1.22.94,1.82,1.41-1.33-1.06-2.55-2.22-3.59-3.55.47.61.94,1.22,1.41,1.83-.63-.84-1.18-1.72-1.61-2.69.3.72.61,1.44.91,2.17-.31-.74-.53-1.49-.65-2.28.11.81.22,1.61.33,2.4-.06-.54-.06-1.07,0-1.61-.1.8-.21,1.6-.32,2.4.08-.43.19-.84.35-1.25-.31.72-.62,1.44-.92,2.16.1-.2.18-.41.33-.6-.47.61-.94,1.22-1.41,1.83.12-.14.24-.26.38-.38-.61.47-1.22.95-1.83,1.42.4-.31.86-.53,1.32-.73-.72.3-1.44.61-2.16.91,2.84-1.18,6.04-1.59,9.06-2-.8.11-1.6.21-2.4.32,13.38-1.77,27.06-2.02,40.54-2.05h.06c-.8-.1-1.6-.21-2.41-.32,5.04,1.17,10.09,2.34,15.14,3.51-2.22-2.91-4.43-5.82-6.64-8.72h0c.09,4.94,4.04,9.06,9.05,9.06s9.14-4.12,9.04-9.05Z"/>
      </g>
      <path class="st30" d="M76.31,153.13h0s-15.14-3.53-15.14-3.53c0,0-48.68.04-51.52,5.38-1.76,3.3.33,8.74,7.57,13.36-2.53-3.14-5.16-7.37-2.96-9.32,3.76-3.3,52.42-2.08,62.05-5.89Z"/>
      <path class="st18" d="M11.13,156.13c2.84-5.34,51.52-5.38,51.52-5.38l12.22,2.84c.54-.14,1.03-.29,1.44-.46h0s-15.14-3.53-15.14-3.53c0,0-48.68.04-51.52,5.38-1.65,3.08.08,8.03,6.21,12.43-4.91-4.09-6.22-8.46-4.72-11.29Z"/>
      <path class="st37" d="M14.2,159.02c3.75-3.3,52.42-2.08,62.04-5.89h0s-2.6-.62-2.6-.62c-12.2,3.27-57.05,2.28-60.65,5.44-2.15,1.9.76,6.63,3.26,9.78.3.21.6.41.91.61-2.54-3.14-5.16-7.37-2.95-9.32Z"/>
    </g>
    <path d="M25.21,164.42s1.81,4.3,6.21,6.9c4.39,2.6,10.59,4.8,10.59,4.8l-19.38-1-1.29-5.2,3.87-5.5Z"/>
  </g>
  <g>
    <g>
      <path class="st25" d="M58.47,96.94s-1.56,39.06-.42,62.98c1.15,23.93,16.29,32.18,16.29,32.18v-70.21l-15.88-24.96Z"/>
      <path d="M49.42,96.94c-.71,17.94-1.09,35.94-.71,53.9.13,6.66.32,13.33,1.68,19.89,1.17,5.63,3.42,11.25,6.51,16.11,2.18,3.43,4.83,6.73,7.93,9.39,1.54,1.32,3.17,2.71,4.96,3.69,5.97,3.27,13.61-.81,13.61-7.81v-70.13c0-3.04-1.44-4.98-2.93-7.33-1.85-2.9-3.71-5.81-5.55-8.71-2.88-4.52-5.76-9.05-8.63-13.57-2.64-4.16-8-5.81-12.38-3.24-4.13,2.41-5.89,8.21-3.24,12.37,5.29,8.32,10.59,16.64,15.88,24.96-.42-1.53-.83-3.04-1.24-4.57v70.21c4.54-2.6,9.08-5.21,13.62-7.81-.73-.4-1.4-.91-2.05-1.41.61.47,1.22.95,1.83,1.41-2.16-1.67-4.06-3.65-5.74-5.8.47.61.95,1.22,1.41,1.83-1.99-2.6-3.62-5.44-4.91-8.45.29.72.6,1.44.91,2.16-1.6-3.82-2.63-7.83-3.19-11.94.11.8.22,1.61.32,2.41-.76-5.93-.7-12.01-.78-17.98-.08-6.15-.06-12.31.02-18.46.1-9.38.33-18.74.66-28.11.03-1.01.07-2.02.11-3.03.2-4.94-4.26-9.05-9.05-9.05-5.08,0-8.85,4.12-9.05,9.05Z"/>
    </g>
    <path class="st23" d="M58.47,93.45s-1.56,42.55-.42,66.47c1.15,23.93,16.29,32.18,16.29,32.18v-70.21l-15.88-28.45Z"/>
    <path class="st27" d="M61.41,159.92c-.89-18.58-.14-48.4.24-60.79l-3.17-5.69s-1.56,42.55-.42,66.47c1.15,23.93,16.29,32.18,16.29,32.18v-2.48c-4.53-3.96-12.13-13.02-12.94-29.7Z"/>
  </g>
  <g>
    <g>
      <path class="st25" d="M260.02,96.94s1.57,39.06.42,62.98c-1.15,23.93-16.3,32.18-16.3,32.18v-70.21l15.88-24.96Z"/>
      <path d="M250.98,96.94c.72,17.94,1.09,35.94.72,53.9-.1,4.55-.13,9.15-.71,13.67.11-.8.21-1.61.32-2.41-.56,4.11-1.58,8.12-3.19,11.94.31-.72.61-1.44.92-2.16-1.3,3.01-2.92,5.85-4.92,8.45.47-.61.94-1.22,1.41-1.83-1.67,2.15-3.58,4.13-5.74,5.8.61-.47,1.22-.94,1.84-1.41-.66.5-1.33,1.01-2.06,1.41,4.54,2.6,9.08,5.21,13.62,7.81v-70.21c-.42,1.52-.83,3.04-1.24,4.57,5.3-8.32,10.59-16.64,15.88-24.96,2.65-4.16.88-9.96-3.25-12.37-4.38-2.56-9.73-.91-12.37,3.24-3.29,5.16-6.58,10.33-9.87,15.49-1.77,2.78-3.54,5.57-5.31,8.34-1.11,1.75-1.95,3.44-1.95,5.69v70.21c0,7,7.64,11.08,13.61,7.81,1.84-1.01,3.5-2.44,5.07-3.8,3.19-2.74,5.87-6.18,8.09-9.74,3.16-5.06,5.33-10.92,6.45-16.77,1.27-6.65,1.37-13.45,1.49-20.2.32-17.47-.05-35-.75-52.47-.2-4.93-3.97-9.05-9.05-9.05-4.77,0-9.24,4.11-9.04,9.05Z"/>
    </g>
    <path class="st23" d="M260.02,93.45s1.57,42.55.42,66.47c-1.15,23.93-16.3,32.18-16.3,32.18v-70.21l15.88-28.45Z"/>
    <path class="st27" d="M260.02,93.45l-3.74,6.71c.38,12.94,1.06,41.68.2,59.76-.77,15.96-7.76,24.95-12.34,29.16v3.03s15.15-8.26,16.3-32.18c1.15-23.92-.42-66.47-.42-66.47Z"/>
  </g>
  <g>
    <g>
      <path class="st25" d="M72.24,89.8c-.31,12.43,0,85.92,0,85.92,0,33.4,18.72,64.35,88.45,64.06,69.01-.28,85.35-30.66,85.35-64.06v-85.92H72.24Z"/>
      <path d="M63.2,89.8c-.36,14.59-.15,29.23-.13,43.83.02,13.74.06,27.5.13,41.25.06,14.32,2.91,28.93,11.16,40.91,5.36,7.77,12.31,14.12,20.41,18.95,9.33,5.54,19.95,8.99,30.56,11.04,14.28,2.77,28.96,3.45,43.48,2.87,12.93-.52,26.11-2.12,38.46-6.12,9.93-3.2,19.14-7.96,27.06-14.78,6.1-5.27,11.12-12.07,14.35-19.44,3.56-8.1,5.41-16.4,6.12-25.22.31-3.86.28-7.72.28-11.6v-81.69c0-4.94-4.11-9.05-9.05-9.05H72.24c-4.93,0-9.04,4.12-9.04,9.05s4.11,9.04,9.04,9.04h173.79c-3.01-3.01-6.03-6.03-9.04-9.04v77.12c0,6.79.17,13.59-.73,20.34.11-.8.21-1.6.32-2.4-.74,5.45-2.06,10.81-4.19,15.88.31-.72.61-1.44.91-2.16-1.67,3.94-3.82,7.67-6.44,11.07.48-.61.95-1.22,1.42-1.83-2.61,3.36-5.64,6.35-8.99,8.96.61-.47,1.22-.95,1.83-1.41-4.32,3.34-9.1,6-14.12,8.13.72-.3,1.44-.61,2.16-.91-8.57,3.61-17.69,5.69-26.88,6.95.8-.11,1.6-.22,2.4-.32-16.25,2.16-33.05,2.18-49.31.04.81.11,1.6.21,2.41.32-9.36-1.26-18.65-3.38-27.39-7.04.72.3,1.44.61,2.16.91-5.25-2.22-10.26-5-14.79-8.47.61.47,1.22.94,1.83,1.41-3.53-2.74-6.72-5.87-9.46-9.39.46.61.93,1.22,1.41,1.83-2.69-3.49-4.91-7.31-6.63-11.36.3.72.6,1.44.91,2.16-2.11-5.02-3.46-10.32-4.2-15.71.11.8.22,1.61.33,2.41-.6-4.53-.67-9.06-.69-13.62-.03-6.28-.05-12.56-.06-18.84-.06-17.53-.11-35.06-.03-52.58.01-3.82.01-7.65.1-11.47.13-4.94-4.2-9.05-9.05-9.05s-8.92,4.12-9.04,9.05Z"/>
    </g>
    <path class="st0" d="M72.24,89.8c-.31,12.43,0,85.92,0,85.92,0,33.4,18.72,64.35,88.45,64.06,69.01-.28,85.35-30.66,85.35-64.06v-85.92H72.24Z"/>
  </g>
  <g>
    <g>
      <g>
        <g>
          <g>
            <path class="st5" d="M95,184.06c0,8.93,7.23,16.16,16.16,16.16s16.16-7.23,16.16-16.16-7.24-16.16-16.16-16.16-16.16,7.24-16.16,16.16Z"/>
            <path d="M93.71,184.06c.06,5.84,2.92,11.13,7.7,14.47,4.77,3.33,11.23,3.85,16.55,1.6,5.26-2.22,9.13-6.97,10.3-12.56,1.21-5.73-.68-11.71-4.75-15.86-4.91-5-12.71-6.44-19.12-3.73-6.45,2.73-10.6,9.1-10.67,16.07-.02,1.67,2.57,1.67,2.58,0,.07-5.89,3.46-11.05,8.77-13.57,5.31-2.52,11.83-1.29,16.13,2.59,4.4,3.97,5.86,10.23,4.04,15.81-1.78,5.47-6.96,9.41-12.64,9.97-8.69.86-16.21-6.18-16.3-14.81-.01-1.67-2.6-1.67-2.58,0Z"/>
          </g>
          <path class="st2" d="M100.73,190c0,1.45,1.18,2.62,2.62,2.62s2.62-1.17,2.62-2.62-1.17-2.62-2.62-2.62-2.62,1.17-2.62,2.62Z"/>
          <path class="st2" d="M109.6,181.9c0,3.73,3.03,6.76,6.76,6.76s6.75-3.03,6.75-6.76-3.03-6.76-6.75-6.76-6.76,3.03-6.76,6.76Z"/>
        </g>
        <path class="st22" d="M113.21,207.55c.78,2.14-2.57,5.32-7.49,7.11-4.91,1.78-9.53,1.49-10.31-.65-.77-2.15,2.58-5.33,7.5-7.11,4.91-1.79,9.53-1.49,10.3.65Z"/>
      </g>
      <g>
        <g>
          <g>
            <path class="st5" d="M192.64,184.06c0,8.93,7.23,16.16,16.15,16.16s16.16-7.23,16.16-16.16-7.23-16.16-16.16-16.16-16.15,7.24-16.15,16.16Z"/>
            <path d="M191.35,184.06c.06,5.84,2.92,11.13,7.7,14.47,4.77,3.33,11.22,3.85,16.54,1.6,5.26-2.22,9.13-6.97,10.31-12.56,1.21-5.73-.69-11.71-4.76-15.86-4.91-5-12.71-6.44-19.13-3.73-6.44,2.73-10.59,9.1-10.66,16.07-.02,1.67,2.57,1.67,2.58,0,.07-5.89,3.46-11.05,8.77-13.57,5.31-2.52,11.83-1.29,16.13,2.59,4.4,3.97,5.85,10.23,4.04,15.81-1.79,5.47-6.97,9.41-12.64,9.97-8.69.86-16.22-6.18-16.31-14.81-.01-1.67-2.6-1.67-2.58,0Z"/>
          </g>
          <path class="st2" d="M198.37,190c0,1.45,1.18,2.62,2.63,2.62s2.62-1.17,2.62-2.62-1.18-2.62-2.62-2.62-2.63,1.17-2.63,2.62Z"/>
          <path class="st2" d="M207.24,181.9c0,3.73,3.02,6.76,6.76,6.76s6.76-3.03,6.76-6.76-3.03-6.76-6.76-6.76-6.76,3.03-6.76,6.76Z"/>
        </g>
        <path class="st22" d="M206.76,207.55c-.78,2.14,2.58,5.32,7.49,7.11,4.92,1.78,9.53,1.49,10.3-.65.78-2.15-2.58-5.33-7.49-7.11-4.91-1.79-9.53-1.49-10.3.65Z"/>
      </g>
    </g>
    <path d="M144.45,214.94c.1,2.09.91,4.22,2.14,5.89,3,4.09,7.82,5.56,12.74,5.67,7.09.14,15.34-3.43,16.19-11.3.17-1.55-1.42-2.84-2.85-2.84-1.67,0-2.67,1.3-2.84,2.84.16-1.47-.06.04-.2.5-.07.21-.38.95.01.02-.1.22-.2.45-.31.66-.13.24-.27.47-.42.7-.1.16-.72.96-.19.3-.43.54-.94,1.02-1.47,1.44.53-.43-.43.27-.58.36-.36.23-.75.42-1.14.61.39-.19-.73.26-.92.32-.5.16-1.02.28-1.54.39-1.1.24-2.16.28-3.35.3-1.17.01-2.31-.08-3.28-.27-.51-.1-1.01-.23-1.5-.39-.18-.05-.36-.12-.55-.19-.85-.3.46.23-.33-.13-.38-.18-.75-.39-1.1-.61-.14-.09-.27-.17-.4-.27-.63-.43.43.37-.14-.1-.27-.22-.51-.48-.76-.73-.09-.1-.18-.2-.27-.3-.44-.51.37.51-.02-.02-.34-.46-.61-.96-.86-1.48-.14-.3.22.62-.05-.14-.07-.2-.13-.4-.19-.61-.09-.31-.15-.62-.21-.94-.03-.18.08.93.06.29-.17-3.65-5.87-3.67-5.69,0h0Z"/>
  </g>
  <path class="st35" d="M245.87,147.97c-7.7-.98-15.45-1.59-23.18-2.18-32.95-2.46-66.08-3.01-99.1-1.85-17.13.6-34.37,1.43-51.41,3.44.01,4.4.02,8.45.03,11.89,17.03-2.02,34.26-2.84,51.38-3.44,33.03-1.16,66.15-.61,99.1,1.85,7.74.58,15.49,1.2,23.18,2.17.06,0,.12,0,.17.01v-11.88s-.11,0-.17-.01Z"/>
  <g>
    <g>
      <path class="st25" d="M166.52,14.31c0-2.19-3.13-3.97-7.01-3.98-3.87-.01-7.02,1.75-7.03,3.94-.01,2.19,3.13,3.97,7,3.98,3.88,0,7.03-1.76,7.04-3.94Z"/>
      <path d="M176.92,14.34c-1.13-19.06-33.6-19.15-34.83-.11-.32,4.95,3.04,8.79,6.7,11.51,2.86,2.12,7.23,2.83,10.67,2.9,3.57.09,7.28-.91,10.38-2.64,4.36-2.44,6.76-6.78,7.08-11.66.36-5.66-4.97-10.42-10.37-10.43-5.93-.02-10.06,4.71-10.43,10.36,0,.1-.01.19-.02.28.14-.92.26-1.84.38-2.76-.02.19-.07.37-.13.55.35-.83.7-1.66,1.05-2.48-.13.28-.27.52-.44.77.55-.71,1.08-1.4,1.63-2.1-.22.25-.45.47-.7.69.7-.54,1.4-1.07,2.11-1.62-.53.38-1.06.68-1.65.93.83-.35,1.66-.7,2.48-1.04-.85.31-1.7.51-2.59.63.92-.12,1.84-.25,2.76-.37-.99.1-1.96.1-2.95,0,.92.12,1.85.25,2.77.38-.89-.13-1.74-.33-2.59-.65.82.35,1.64.71,2.47,1.06-.59-.26-1.13-.55-1.65-.94.7.55,1.4,1.09,2.1,1.63-.26-.22-.49-.44-.7-.69.54.7,1.07,1.4,1.62,2.11-.17-.25-.32-.49-.44-.77.35.82.69,1.66,1.04,2.49-.07-.18-.11-.37-.13-.55.12.92.24,1.84.36,2.77-.02-.19-.02-.38,0-.57-.12.92-.25,1.85-.38,2.77.02-.19.07-.38.14-.55-.35.83-.71,1.65-1.06,2.48.13-.28.27-.53.45-.77-.54.7-1.09,1.4-1.64,2.1.22-.25.45-.47.71-.69-.71.54-1.41,1.09-2.11,1.62.53-.38,1.06-.68,1.65-.92-.83.35-1.66.69-2.48,1.04.84-.32,1.7-.51,2.59-.64-.92.12-1.84.25-2.76.36.99-.1,1.96-.09,2.95.01-.92-.13-1.84-.25-2.76-.38.89.13,1.74.33,2.59.65-.83-.35-1.66-.71-2.48-1.06.59.26,1.13.55,1.65.94-.7-.54-1.4-1.09-2.1-1.63.25.22.47.45.69.7-.54-.7-1.09-1.4-1.62-2.11.18.25.31.49.44.77-.35-.83-.69-1.66-1.05-2.48.08.17.12.36.14.55-.12-.92-.24-1.84-.36-2.77,0,.1.01.19.02.28.33,5.66,4.43,10.41,10.37,10.43,5.4.01,10.76-4.71,10.43-10.37Z"/>
    </g>
    <path class="st30" d="M166.52,14.31c0-2.19-3.13-3.97-7.01-3.98-3.87-.01-7.02,1.75-7.03,3.94-.01,2.19,3.13,3.97,7,3.98,3.88,0,7.03-1.76,7.04-3.94Z"/>
    <path class="st38" d="M159.49,17.35c3.61,0,6.58-1.52,6.99-3.49.03.15.05.3.05.45,0,2.19-3.16,3.95-7.04,3.94-3.87-.02-7.01-1.8-7-3.98,0-.15.02-.3.04-.44.39,1.97,3.37,3.52,6.97,3.53Z"/>
    <path class="st18" d="M159.51,11.22c3.61.02,6.58,1.56,6.97,3.53.03-.14.05-.29.05-.45,0-2.19-3.13-3.97-7.01-3.98-3.87-.01-7.02,1.75-7.03,3.94,0,.15.02.31.04.45.4-1.97,3.38-3.5,6.99-3.49Z"/>
  </g>
  <g>
    <g>
      <g>
        <path class="st25" d="M111.55,38.46l.17-.5s-42.73,17.8-54.15,54.79c-11.42,36.99-4.58,55.49-4.58,55.49,0,0,3.91-2.15,8.23-3.75,4.32-1.6,13.89-2.64,13.89-2.64,0,0-7.31-71.72,36.43-103.39Z"/>
        <path d="M121.57,41.25c.05-.17.12-.33.17-.5,1.22-3.43-.17-7.63-2.64-10.12-2.36-2.37-6.81-4.08-10.11-2.7-5.12,2.14-10.02,4.64-14.77,7.49-9.72,5.85-18.92,12.94-26.7,21.22-4.79,5.1-9.13,10.74-12.68,16.78-4.05,6.88-6.78,14.39-8.9,22.06-3.71,13.45-6.14,27.82-5.2,41.8.24,3.65.69,7.32,1.46,10.9.2.94.42,1.89.75,2.79.96,2.63,2.27,4.76,4.76,6.23,3.27,1.93,7.21,1.82,10.5.03,2.01-1.1,4.1-2.06,6.21-2.95-.83.35-1.66.69-2.49,1.04,4.4-1.81,9.05-2.55,13.75-3.17-.93.12-1.84.24-2.77.36.73-.1,1.46-.19,2.19-.27,2.86-.31,5.24-.91,7.36-3.03,1.78-1.77,3.33-4.74,3.07-7.34-1.18-11.64-.44-23.69,1.11-35.24-.12.92-.25,1.85-.38,2.76,1.59-11.6,4.4-23.06,8.98-33.86-.35.83-.7,1.65-1.05,2.48,3.03-7.08,6.82-13.81,11.53-19.92-.54.7-1.08,1.4-1.63,2.1,3.86-4.95,8.3-9.42,13.27-13.25-.7.54-1.4,1.08-2.11,1.62.5-.39,1.02-.76,1.52-1.14,2.27-1.66,4.01-3.38,4.8-6.2.74-2.68.37-5.62-1.03-8.01-1.35-2.33-3.6-4.08-6.2-4.8-2.45-.68-5.87-.54-8.01,1.02-11.15,8.12-20.16,18.51-26.61,30.72-5.67,10.75-9.56,22.45-11.94,34.35-3.02,15.12-4.34,30.96-3.12,46.38.02.3.05.6.08.9,3.47-3.45,6.95-6.9,10.43-10.36-4.17.46-8.38,1.02-12.49,1.88-5.21,1.09-10.24,3.39-14.89,5.92,5.09,2.09,10.17,4.17,15.26,6.26-.8-2.18-1.14-4.59-1.46-6.88.13.92.25,1.84.37,2.77-1.03-7.93-.62-16.01.43-23.91-.13.92-.25,1.84-.38,2.76.71-5.22,1.74-10.38,3.01-15.49,1.31-5.29,2.79-10.58,4.93-15.6-.35.83-.71,1.66-1.05,2.48,2.5-5.79,5.78-11.18,9.64-16.17-.54.7-1.09,1.4-1.63,2.1,5.29-6.77,11.54-12.71,18.33-17.93-.7.54-1.4,1.08-2.1,1.62,7.29-5.57,15.31-10.73,23.8-14.29-.83.35-1.66.69-2.48,1.04,0,0,0,0,0,0-4.25-4.27-8.5-8.54-12.75-12.82-.06.16-.12.33-.18.5-1.89,5.35,2.05,11.37,7.23,12.81,5.74,1.59,10.92-1.89,12.81-7.22Z"/>
      </g>
      <path class="st30" d="M111.55,38.46l.17-.5s-42.73,17.8-54.15,54.79c-11.42,36.99-4.58,55.49-4.58,55.49,0,0,3.91-2.15,8.23-3.75,4.32-1.6,13.89-2.64,13.89-2.64,0,0-7.31-71.72,36.43-103.39Z"/>
      <path class="st37" d="M63.51,92.77c10.77-35.37,44.8-51.96,48.04-54.31l.17-.5s-42.73,17.8-54.15,54.79c-11.42,36.99-4.58,55.49-4.58,55.49,0,0,2.26-1.24,5.24-2.53-1.4-6.23-3.59-23.85,5.28-52.94Z"/>
    </g>
    <g>
      <g>
        <path class="st25" d="M206.84,38.73l-.17-.5s42.63,18.04,53.84,55.09c11.22,37.06,4.27,55.52,4.27,55.52,0,0-3.9-2.16-8.21-3.8-4.31-1.62-13.88-2.72-13.88-2.72,0,0,7.71-71.68-35.85-103.59Z"/>
        <path d="M216.87,35.99c-.05-.17-.11-.33-.17-.5-4.27,4.25-8.55,8.5-12.83,12.75h.01c-.83-.35-1.66-.7-2.48-1.05,8.47,3.61,16.46,8.81,23.73,14.42-.7-.54-1.4-1.09-2.09-1.63,6.77,5.27,12.99,11.24,18.24,18.04-.54-.71-1.08-1.41-1.62-2.11,3.83,5.01,7.09,10.42,9.56,16.22-.35-.83-.69-1.66-1.04-2.49,2.04,4.88,3.43,9.99,4.72,15.11,1.32,5.28,2.35,10.64,3.06,16.03-.12-.92-.25-1.84-.36-2.77,1.02,7.92,1.37,15.99.3,23.92.13-.92.25-1.84.38-2.76-.31,2.29-.66,4.69-1.48,6.87,5.09-2.05,10.18-4.12,15.29-6.17-4.54-2.51-9.43-4.78-14.5-5.93-4.21-.96-8.55-1.53-12.84-2.03,3.46,3.47,6.91,6.95,10.37,10.43,1.36-12.8.33-25.92-1.37-38.6-3.22-24.08-12.22-48.48-29.79-65.8-3.04-2.99-6.38-5.66-9.81-8.19-2.14-1.57-5.55-1.74-8.01-1.07-2.6.71-4.86,2.44-6.23,4.76-1.41,2.4-1.79,5.32-1.07,8.01.77,2.82,2.49,4.55,4.76,6.22.51.38,1.01.76,1.52,1.15-.71-.55-1.4-1.09-2.1-1.64,4.95,3.87,9.35,8.36,13.19,13.33-.54-.7-1.07-1.4-1.62-2.11,4.68,6.12,8.43,12.88,11.42,19.98-.35-.83-.69-1.66-1.04-2.49,4.52,10.82,7.26,22.3,8.79,33.9-.12-.92-.24-1.85-.36-2.77,1.5,11.56,2.16,23.61.92,35.24-.28,2.6,1.25,5.58,3.02,7.36,2.11,2.12,4.48,2.73,7.35,3.06.73.08,1.46.18,2.18.28-.92-.13-1.84-.25-2.76-.38,4.68.65,9.33,1.43,13.72,3.26-.83-.36-1.66-.71-2.49-1.06,2.11.91,4.19,1.88,6.19,2.98,2.46,1.37,5.26,1.82,8.01,1.07,3.73-1.02,5.98-3.76,7.28-7.24.43-1.16.7-2.39.94-3.6.9-4.36,1.37-8.86,1.52-13.31.24-6.79-.46-13.53-1.37-20.25-1.13-8.35-3.07-16.62-5.58-24.66-7.6-24.25-27.11-43.01-48.62-55.51-3.96-2.3-8.02-4.3-12.23-6.08-3.3-1.4-7.75.29-10.13,2.64-2.49,2.48-3.89,6.67-2.7,10.11.05.17.11.33.17.5,1.85,5.35,7.02,8.86,12.77,7.3,5.18-1.42,9.15-7.41,7.29-12.77Z"/>
      </g>
      <path class="st30" d="M206.84,38.73l-.17-.5s42.63,18.04,53.84,55.09c11.22,37.06,4.27,55.52,4.27,55.52,0,0-3.9-2.16-8.21-3.8-4.31-1.62-13.88-2.72-13.88-2.72,0,0,7.71-71.68-35.85-103.59Z"/>
      <path class="st37" d="M254.59,93.31c-10.57-35.42-44.5-52.21-47.74-54.58l-.17-.5s42.63,18.04,53.84,55.09c11.22,37.06,4.27,55.52,4.27,55.52,0,0-2.25-1.25-5.22-2.56,1.43-6.23,3.72-23.83-4.98-52.97Z"/>
    </g>
  </g>
  <path class="st25" d="M158.98,24.12c-99.66-.28-87.57,118.13-87.57,118.13,0,0,35.07-4.24,87.26-4.09,52.19.14,87.24,4.58,87.24,4.58,0,0,12.75-118.34-86.92-118.62Z"/>
  <path d="M159.02,13.73c-11.96-.01-24.19,1.5-35.5,5.48-10.32,3.63-19.62,8.98-27.89,16.13-13.78,11.92-22.76,28.66-28.11,45.85-4.39,14.1-6.41,29.05-6.88,43.79-.18,5.72-.21,11.53.38,17.24.28,2.86.92,5.25,3.02,7.36,1.74,1.75,4.77,3.37,7.34,3.06,17.29-2.08,34.8-2.93,52.2-3.53,33.03-1.16,66.15-.61,99.1,1.85,7.74.58,15.49,1.19,23.18,2.17,2.57.32,5.61-1.29,7.36-3.03,2.11-2.1,2.76-4.48,3.07-7.34.69-6.37.65-12.87.41-19.26-.55-15.02-2.74-30.23-7.44-44.53-5.67-17.22-15.1-33.79-29.38-45.3-8.18-6.58-17.13-11.5-27.1-14.86-10.78-3.64-22.42-5.04-33.76-5.09-5.67-.02-10.41,4.71-10.43,10.37-.01,5.67,4.7,10.4,10.37,10.43,4.94.02,9.87.32,14.77.98-.92-.13-1.84-.25-2.77-.38,7.57,1.04,15,2.95,22.04,5.93-.83-.35-1.65-.7-2.48-1.06,5.66,2.43,11,5.54,15.88,9.32-.7-.55-1.4-1.09-2.1-1.63,4.94,3.85,9.32,8.34,13.13,13.29-.54-.71-1.07-1.41-1.62-2.11,4.66,6.1,8.41,12.84,11.38,19.92-.35-.83-.69-1.66-1.04-2.49,4.52,10.81,7.26,22.28,8.79,33.87-.12-.92-.24-1.84-.37-2.76,1.37,10.44,1.81,21.05,1.21,31.57-.07,1.24-.15,2.48-.28,3.72,3.48-3.46,6.95-6.91,10.42-10.36-17.28-2.19-34.79-3.12-52.18-3.83-33.02-1.34-66.14-.98-99.12,1.3-7.74.53-15.49,1.11-23.19,2.04,3.45,3.48,6.9,6.96,10.36,10.43-.65-6.37-.57-12.87-.3-19.27.23-5.35.7-10.7,1.42-16.01-.13.92-.25,1.85-.38,2.77,1.59-11.58,4.4-23.05,8.97-33.82-.35.83-.7,1.65-1.06,2.48,3.02-7.05,6.8-13.77,11.49-19.86-.54.71-1.08,1.4-1.63,2.1,3.84-4.94,8.26-9.4,13.21-13.22-.7.54-1.41,1.08-2.11,1.62,4.89-3.75,10.26-6.83,15.94-9.23-.83.35-1.66.69-2.49,1.04,7.05-2.95,14.5-4.81,22.08-5.81-.92.13-1.84.25-2.77.37,4.91-.63,9.84-.91,14.78-.9,5.66,0,10.4-4.7,10.42-10.37.02-5.66-4.7-10.41-10.36-10.43Z"/>
  <path class="st30" d="M158.98,24.12c-99.66-.28-87.57,118.13-87.57,118.13,0,0,35.07-4.24,87.26-4.09,52.19.14,87.24,4.58,87.24,4.58,0,0,12.75-118.34-86.92-118.62Z"/>
  <path class="st18" d="M158.97,29.42c77.55.22,87.04,71.9,87.43,103.71.52-28.2-5.19-108.77-87.42-109-82.22-.23-88.38,80.31-88.02,108.51.57-31.81,10.47-103.43,88.01-103.22Z"/>
  <path class="st37" d="M245.91,136.41s-35.04-4.43-87.23-4.58c-52.19-.15-87.26,4.09-87.26,4.09,0,0-.35-3.42-.44-9.11-.2,9.38.42,15.45.42,15.45,0,0,35.07-4.24,87.26-4.09,52.19.14,87.24,4.58,87.24,4.58,0,0,.65-6.06.5-15.45-.12,5.69-.49,9.12-.49,9.12Z"/>
  <g>
    <g>
      <path class="st25" d="M158.85,78.76c-27.5-.07-36.2,23.61-36.2,23.61l36.1.1h.03l36.1.11s-8.52-23.74-36.03-23.81Z"/>
      <path d="M158.88,68.36c-13.35.02-26.24,4.96-35.58,14.61-4.59,4.73-8.37,10.4-10.66,16.6-.93,2.52-.28,5.77,1.02,8.02,1.85,3.16,5.3,5.16,8.97,5.17,12.31.03,24.61.07,36.91.1,11.76.03,23.54.06,35.32.09,2.74.01,5.41-1.09,7.35-3.02,2.46-2.45,3.93-6.7,2.71-10.11-2.23-6.15-5.92-11.69-10.38-16.47-9.18-9.86-22.31-14.89-35.66-15-5.67-.04-10.41,4.72-10.42,10.37-.02,5.69,4.7,10.38,10.36,10.43,1.99.01,3.98.14,5.95.41-.92-.13-1.84-.26-2.76-.38,3.35.48,6.6,1.35,9.73,2.64-.83-.35-1.66-.7-2.48-1.06,2.96,1.27,5.74,2.9,8.29,4.88-.7-.55-1.4-1.09-2.1-1.63,2.62,2.06,4.94,4.44,6.97,7.07-.54-.7-1.08-1.41-1.62-2.11,1.93,2.54,3.64,5.29,4.88,8.24-.35-.83-.7-1.66-1.04-2.49.08.19.15.38.23.57,3.35-4.38,6.71-8.76,10.06-13.13-12.3-.04-24.61-.07-36.91-.11-11.78-.03-23.55-.06-35.32-.1,3.33,4.4,6.66,8.79,9.99,13.19.07-.19.14-.38.23-.57-.35.83-.7,1.66-1.06,2.48,1.26-2.94,2.98-5.68,4.94-8.21-.55.7-1.09,1.4-1.63,2.1,2.05-2.63,4.39-4.99,7.01-7.03-.7.54-1.4,1.08-2.11,1.62,2.56-1.96,5.35-3.58,8.32-4.83-.83.35-1.66.69-2.49,1.04,3.13-1.29,6.4-2.13,9.74-2.59-.92.12-1.84.24-2.77.36,1.98-.25,3.97-.37,5.96-.38,5.66-.01,10.41-4.68,10.43-10.37.01-5.64-4.7-10.44-10.37-10.43Z"/>
    </g>
    <path class="st23" d="M158.85,78.76c-27.5-.07-36.2,23.61-36.2,23.61l36.1.1h.03l36.1.11s-8.52-23.74-36.03-23.81Z"/>
    <path class="st27" d="M158.83,85.23c18.65.05,29.73,9.53,35.7,17.34h.35s-8.52-23.73-36.03-23.81c-27.5-.07-36.2,23.61-36.2,23.61h.36c6.03-7.77,17.17-17.19,35.82-17.13Z"/>
  </g>
  <g>
    <path class="st8" d="M196.53,42.35c8.58,3.93,14.44,9.51,13.09,12.47-1.36,2.97-9.41,2.18-17.99-1.74-8.58-3.92-14.44-9.51-13.09-12.47,1.36-2.96,9.41-2.18,17.99,1.74Z"/>
    <path class="st8" d="M216.8,58.09c0,1.48-1.22,2.68-2.7,2.67-1.48,0-2.68-1.21-2.67-2.68,0-1.49,1.21-2.68,2.69-2.68,1.48,0,2.68,1.21,2.68,2.69Z"/>
  </g>
  <g>
    <g>
      <g>
        <path class="st25" d="M184.73,111.82l-61.22-.17s-.12,23.92-.06,23.92l61.22.17c6.6.02,11.97-5.32,11.99-11.93.02-6.6-5.32-11.98-11.93-12Z"/>
        <path d="M184.76,101.42c-14.52-.04-29.04-.08-43.56-.13-5.89-.01-11.78-.03-17.66-.05-4.49-.01-8.96,3.13-10.04,7.6-.49,2.05-.4,4.14-.42,6.22-.01,2.79-.02,5.56-.03,8.35-.01,2.81-.02,5.62-.02,8.43,0,2.15-.12,4.34.38,6.45,1.05,4.48,5.51,7.65,10,7.66,14.52.04,29.05.08,43.57.12,5.82.02,11.64.04,17.46.06,8.24.02,16.79-4.71,20.22-12.4,2.34-5.26,3.21-10.99,1.38-16.59-1.74-5.32-5.24-9.71-10.01-12.64-3.35-2.05-7.38-3.01-11.28-3.08-5.66-.12-10.4,4.77-10.43,10.36-.02,5.74,4.7,10.32,10.37,10.43.55.01,1.08.05,1.62.12-.92-.13-1.84-.25-2.76-.38,1.04.16,2.04.44,3.03.84-.83-.35-1.66-.71-2.48-1.06.94.42,1.81.94,2.64,1.56-.7-.55-1.4-1.1-2.1-1.63.81.64,1.51,1.36,2.16,2.17-.54-.71-1.09-1.41-1.62-2.11.62.84,1.12,1.71,1.54,2.66-.35-.83-.69-1.66-1.04-2.48.39.98.66,1.98.82,3.03-.12-.92-.24-1.84-.36-2.76.12,1.09.12,2.16-.01,3.25.13-.92.25-1.84.38-2.77-.16,1.04-.44,2.05-.84,3.04.35-.84.71-1.66,1.05-2.49-.42.95-.93,1.82-1.55,2.65.54-.7,1.08-1.4,1.63-2.1-.65.81-1.36,1.52-2.17,2.16.7-.54,1.41-1.09,2.11-1.62-.83.62-1.7,1.13-2.66,1.54.83-.34,1.66-.69,2.49-1.04-.99.4-1.99.67-3.04.82.92-.12,1.84-.24,2.76-.36-1.74.2-3.52.1-5.27.1-3.44-.01-6.89-.02-10.33-.04-9.5-.02-19-.04-28.5-.07-6.25-.02-12.5-.04-18.75-.05,3.33,2.55,6.67,5.1,10,7.66h0c.12.92.24,1.84.36,2.77-.3-3.9-.01-7.92,0-11.81.01-4-.25-8.12.06-12.11-.12.92-.25,1.85-.38,2.77h0c-3.35,2.53-6.7,5.06-10.04,7.6,14.52.04,29.04.08,43.56.12,5.88,0,11.77.03,17.65.04,5.67.02,10.41-4.7,10.43-10.36.02-5.67-4.7-10.41-10.37-10.43Z"/>
      </g>
      <path class="st30" d="M184.73,111.82l-61.22-.17s-.12,23.92-.06,23.92l61.22.17c6.6.02,11.97-5.32,11.99-11.93.02-6.6-5.32-11.98-11.93-12Z"/>
      <path class="st18" d="M123.49,116.69l61.22.17c5.74.02,10.52,4.08,11.66,9.47.18-.81.28-1.66.28-2.52.02-6.6-5.32-11.98-11.93-12l-61.22-.17s-.06,7.79-.08,14.48c.01-5.03.04-9.44.06-9.44Z"/>
      <path class="st37" d="M123.45,130.52l61.22.17c5.74.01,10.55-4.02,11.71-9.4.17.81.27,1.66.27,2.52-.02,6.6-5.39,11.94-11.99,11.93l-61.22-.17s-.02-7.79,0-14.48c0,5.03,0,9.44.01,9.44Z"/>
    </g>
    <g>
      <g>
        <g>
          <path d="M162.8,123.6c0,1.52-1.24,2.74-2.76,2.74-1.52,0-2.74-1.24-2.74-2.75,0-1.51,1.24-2.75,2.75-2.74,1.52,0,2.74,1.23,2.74,2.75Z"/>
          <path d="M157.59,123.59c.17-.88.19-1.06.05-.52.13-.51.39-.96.77-1.32-.39.37-.25.28.4-.28.24-.09.48-.19.72-.28-.54.13-.37.12.51-.05.88.17,1.05.19.51.05.51.12.95.38,1.32.77-.38-.39-.28-.25.28.4.1.24.18.48.28.72-.13-.54-.12-.37.05.52-.17.88-.18,1.05-.05.51-.13.51-.38.96-.77,1.32.39-.37.26-.27-.4.28-.24.1-.49.2-.72.29.54-.13.36-.12-.51.05-.89-.17-1.06-.19-.51-.05-.53-.13-.96-.39-1.33-.78.37.39.28.26-.28-.4-.09-.24-.19-.48-.29-.72.13.54.12.36-.05-.51.14,2.82,2.23,5.2,5.18,5.21,2.72,0,5.36-2.36,5.21-5.18-.23-4.49-3.44-7.72-7.92-7.97-4.48-.25-7.74,3.8-7.97,7.93-.25,4.47,3.8,7.73,7.93,7.97,4.47.25,7.74-3.8,7.97-7.92.16-2.83-2.46-5.21-5.18-5.22-2.95,0-5.05,2.36-5.22,5.19Z"/>
        </g>
        <path class="st39" d="M162.8,123.6c0,1.52-1.24,2.74-2.76,2.74-1.52,0-2.74-1.24-2.74-2.75,0-1.51,1.24-2.75,2.75-2.74,1.52,0,2.74,1.23,2.74,2.75Z"/>
        <path class="st38" d="M158.09,123.59c0-1.39,1.03-2.54,2.36-2.72-.13-.02-.26-.02-.39-.02-1.52-.01-2.75,1.22-2.75,2.74,0,1.52,1.22,2.75,2.74,2.75.14,0,.27,0,.4-.02-1.34-.2-2.36-1.35-2.35-2.72Z"/>
        <path class="st21" d="M162.01,123.6c.01-1.39-1.01-2.54-2.34-2.73.13-.02.26-.02.39-.02,1.52,0,2.74,1.23,2.74,2.75,0,1.52-1.24,2.74-2.76,2.74-.13,0-.26-.01-.39-.03,1.34-.19,2.36-1.33,2.36-2.71Z"/>
      </g>
      <g>
        <g>
          <g>
            <path d="M140.09,123.53c0,1.52-1.24,2.74-2.75,2.74-1.52,0-2.74-1.23-2.74-2.75,0-1.52,1.24-2.74,2.75-2.74,1.52,0,2.75,1.24,2.74,2.76Z"/>
            <path d="M134.88,123.52c.17-.88.18-1.05.06-.51.12-.51.38-.95.77-1.32-.39.38-.25.28.4-.28.24-.09.48-.19.72-.28-.54.13-.36.12.51-.05.88.17,1.06.18.51.05.51.12.96.38,1.32.77-.37-.39-.28-.25.28.4.09.24.18.48.28.73-.14-.54-.13-.37.04.51-.17.88-.18,1.06-.05.51-.13.52-.38.96-.76,1.32.38-.37.24-.28-.41.28-.24.1-.49.2-.72.29.54-.14.37-.13-.51.04-.88-.17-1.05-.18-.51-.04-.51-.13-.96-.39-1.32-.77.37.39.28.25-.28-.4-.1-.24-.19-.48-.28-.72.13.54.12.37-.05-.51.14,2.83,2.24,5.21,5.19,5.22,2.72,0,5.36-2.36,5.21-5.19-.22-4.49-3.43-7.71-7.91-7.97-4.49-.25-7.74,3.8-7.97,7.93-.26,4.47,3.79,7.74,7.93,7.97,4.47.25,7.73-3.8,7.96-7.93.17-2.83-2.46-5.2-5.18-5.21-2.95,0-5.06,2.36-5.22,5.18Z"/>
          </g>
          <path class="st39" d="M140.09,123.53c0,1.52-1.24,2.74-2.75,2.74-1.52,0-2.74-1.23-2.74-2.75,0-1.52,1.24-2.74,2.75-2.74,1.52,0,2.75,1.24,2.74,2.76Z"/>
          <path class="st38" d="M135.37,123.52c0-1.38,1.03-2.52,2.37-2.71-.14-.02-.26-.04-.4-.04-1.51,0-2.75,1.22-2.75,2.74,0,1.52,1.22,2.75,2.74,2.75.13,0,.26-.01.39-.02-1.33-.2-2.35-1.34-2.35-2.73Z"/>
          <path class="st21" d="M139.29,123.53c.01-1.38-1.01-2.53-2.34-2.72.13-.02.25-.03.39-.03,1.52,0,2.75,1.24,2.74,2.76s-1.24,2.74-2.75,2.74c-.13,0-.27-.01-.4-.03,1.34-.18,2.36-1.33,2.36-2.71Z"/>
        </g>
        <g>
          <g>
            <path d="M185.5,123.66c0,1.51-1.24,2.75-2.76,2.74-1.51,0-2.74-1.23-2.74-2.75,0-1.52,1.23-2.75,2.75-2.74,1.52,0,2.75,1.24,2.74,2.76Z"/>
            <path d="M180.31,123.65c.17-.89.18-1.06.05-.51.13-.52.38-.96.77-1.33-.39.38-.25.28.4-.28.25-.09.49-.18.72-.28-.54.13-.37.12.51-.05.88.17,1.05.18.51.05.52.13.95.39,1.32.77-.36-.39-.27-.25.28.4.1.24.2.48.29.73-.14-.54-.12-.37.05.51-.17.88-.19,1.04-.05.51-.13.51-.38.95-.77,1.32.39-.38.26-.28-.4.28-.24.1-.48.19-.71.28.54-.13.36-.12-.52.05-.88-.17-1.05-.18-.51-.05-.52-.13-.95-.38-1.32-.77.37.39.28.25-.28-.4-.1-.24-.19-.49-.29-.72.14.54.12.36-.04-.51.14,2.82,2.23,5.2,5.18,5.21,2.72,0,5.36-2.35,5.22-5.18-.24-4.49-3.44-7.71-7.93-7.97-4.48-.25-7.74,3.8-7.97,7.93-.25,4.47,3.8,7.74,7.92,7.97,4.48.25,7.74-3.8,7.97-7.93.16-2.83-2.47-5.2-5.18-5.21-2.95,0-5.05,2.36-5.21,5.19Z"/>
          </g>
          <path class="st39" d="M185.5,123.66c0,1.51-1.24,2.75-2.76,2.74-1.51,0-2.74-1.23-2.74-2.75,0-1.52,1.23-2.75,2.75-2.74,1.52,0,2.75,1.24,2.74,2.76Z"/>
          <path class="st38" d="M180.79,123.65c0-1.39,1.03-2.53,2.37-2.71-.13-.02-.27-.04-.4-.04-1.52,0-2.75,1.22-2.75,2.74,0,1.52,1.22,2.75,2.74,2.75.14,0,.27,0,.4-.02-1.34-.2-2.35-1.34-2.35-2.72Z"/>
          <path class="st21" d="M184.72,123.66c0-1.38-1.02-2.53-2.35-2.72.13-.02.26-.04.39-.04,1.52,0,2.75,1.24,2.74,2.76,0,1.51-1.24,2.75-2.76,2.74-.13,0-.25,0-.39-.03,1.33-.19,2.36-1.33,2.36-2.71Z"/>
        </g>
      </g>
    </g>
  </g>
  <polygon points="153.56 75.59 153.73 15.98 164.03 16.01 163.86 75.61 153.56 75.59"/>
  <path class="st11" d="M246.55,269.18c0,.25-.43.44-.97.44h-31.79c-.54,0-.97-.2-.97-.44h0c0-.25.43-.46.97-.46h31.79c.54,0,.97.2.97.46h0Z"/>
  <path class="st11" d="M237.7,286.06c0,.23-.43.42-.96.42h-31.8c-.54,0-.97-.18-.97-.42h0c0-.24.43-.42.97-.42h31.8c.53,0,.96.18.96.42h0Z"/>
  <path class="st11" d="M246.53,273.77h-16.55c-.53,0-.97.2-.97.43s.44.43.97.43h16.55v-.86Z"/>
  <path class="st11" d="M215.8,280.06h16.54c.53,0,.97.19.97.41s-.44.41-.97.41h-16.54v-.82Z"/>
  <path class="st11" d="M226.44,273.77h-5.64c-.53,0-.96.2-.96.43s.43.43.96.43h5.64c.54,0,.98-.19.98-.43s-.44-.43-.98-.43Z"/>
  <path class="st11" d="M245.65,285.64h-5.64c-.54,0-.97.18-.97.42s.43.42.97.42h5.64c.54,0,.97-.18.97-.42s-.43-.42-.97-.42Z"/>
  <path class="st11" d="M209.01,268.73h-5.64c-.53,0-.97.2-.97.46s.44.44.97.44h5.64c.54,0,.97-.2.97-.44s-.43-.46-.97-.46Z"/>
  <g>
    <g>
      <g>
        <g>
          <path class="st15" d="M99.32,274.21l-10.2,8.11,11.19,14.11,10.21-8.09c1.29-1.02,1.5-2.89.48-4.17l-7.5-9.46c-1.02-1.29-2.89-1.5-4.17-.49ZM107.63,284.24c.68.86.54,2.1-.31,2.77l-6.78,5.38-7.43-9.37,6.78-5.38c.85-.68,2.09-.54,2.77.32l4.98,6.28Z"/>
          <g>
            <path d="M95.21,270.11c-3.4,2.7-6.8,5.4-10.21,8.09-1.14.91-1.71,2.73-1.71,4.12,0,1.68.7,2.85,1.71,4.11,3.73,4.71,7.46,9.41,11.2,14.11.9,1.13,2.72,1.7,4.11,1.7,1.68,0,2.85-.69,4.12-1.7,2.23-1.77,4.46-3.54,6.68-5.31,1.09-.87,2.18-1.73,3.28-2.6,3.18-2.53,3.9-7.33,1.99-10.83-.69-1.25-1.82-2.45-2.73-3.58-1.15-1.46-2.31-2.92-3.47-4.38-.83-1.04-1.65-2.08-2.48-3.12-2.59-3.27-7.97-3.89-11.32-1.52-2.59,1.82-3.8,5.04-2.09,7.96,1.5,2.56,5.36,3.92,7.96,2.09.53-.34.36-.31-.5.1.1-.03.21-.06.32-.09-.6.18-1.2.18-1.8,0,.58.17.42.1-.48-.21-.72-.39-.85-.77-.42-.23.16.2.32.4.47.61.91,1.14,1.81,2.29,2.72,3.42.99,1.26,1.99,2.51,2.98,3.76.33.42.66.83.99,1.25.09.11.18.22.27.33.02.03.05.05.06.08-.23-.3-.47-.59-.7-.88-.31-.89-.38-1.04-.21-.46-.18-.6-.18-1.2,0-1.8-.03.1-.06.21-.09.31.13-.56.39-1.04.8-1.45-.1.11-.22.21-.34.3-.28.22-.55.44-.83.66-1.2.95-2.4,1.89-3.58,2.85-1.91,1.51-3.81,3.02-5.71,4.53h8.23c-3.74-4.7-7.47-9.41-11.2-14.11v8.23c3.4-2.7,6.8-5.4,10.21-8.1,2.48-1.97,2.05-6.18,0-8.22-2.43-2.44-5.74-1.97-8.23,0Z"/>
            <path d="M102.61,287.17c.07.1.13.2.2.3-.73-1.3-.76-2.6-.06-3.93.28-.56.66-.82.42-.62-.17.13-.35.28-.52.41-.79.62-1.56,1.24-2.34,1.85-1.29,1.03-2.59,2.05-3.88,3.08h8.23c-2.48-3.12-4.96-6.24-7.43-9.37v8.23c2.25-1.8,4.51-3.58,6.77-5.37-1.49,1.18-2.94,1.67-4.8.76-.56-.27-.82-.66-.62-.41.12.15.24.3.36.44.57.72,1.14,1.44,1.71,2.16.96,1.21,1.92,2.42,2.88,3.64,1.97,2.48,6.18,2.04,8.23,0,2.43-2.44,1.96-5.74,0-8.23-1.06-1.34-2.14-2.68-3.2-4.03-2.02-2.54-4.01-4.89-7.72-4.68-3.17.18-5.4,2.38-7.75,4.25-1.36,1.08-2.72,2.16-4.08,3.24-1.14.9-1.7,2.72-1.7,4.11,0,1.69.7,2.85,1.7,4.12,2.48,3.12,4.96,6.24,7.44,9.36.9,1.14,2.72,1.7,4.11,1.7,1.68,0,2.85-.7,4.12-1.7,1.55-1.23,3.09-2.46,4.65-3.69.69-.54,1.37-1.09,2.05-1.63,2.86-2.26,3.22-6.94,1.3-9.87-1.74-2.64-5.12-3.75-7.96-2.08-2.63,1.54-3.83,5.31-2.09,7.96Z"/>
          </g>
        </g>
        <path class="st17" d="M99.32,274.21l-10.2,8.11,11.19,14.11,10.21-8.09c1.29-1.02,1.5-2.89.48-4.17l-7.5-9.46c-1.02-1.29-2.89-1.5-4.17-.49ZM107.63,284.24c.68.86.54,2.1-.31,2.77l-6.78,5.38-7.43-9.37,6.78-5.38c.85-.68,2.09-.54,2.77.32l4.98,6.28Z"/>
        <g>
          <path class="st8" d="M99.12,276.69l-6.77,5.38.75.95,6.77-5.38c.86-.68,2.1-.53,2.78.32l-.75-.95c-.68-.86-1.92-1-2.78-.32Z"/>
          <path class="st8" d="M109.77,287.37l-10.21,8.1.75.94,10.21-8.09c1.28-1.02,1.5-2.89.47-4.17l-.75-.94c1.02,1.29.81,3.15-.48,4.17Z"/>
        </g>
      </g>
      <g>
        <g>
          <polygon class="st15" points="65.14 314.88 57.26 307.59 87.44 283.65 99.72 299.13 96.22 300.64 89.73 297.42 88.72 303.58 82.93 300.79 82.45 306.61 77.72 304.21 76.99 309.57 72.04 307.43 71.47 312.12 66.89 310.1 65.14 314.88"/>
          <path d="M69.26,310.77c-2.63-2.43-5.26-4.86-7.89-7.29v8.22c9.74-7.72,19.48-15.45,29.22-23.17.32-.26.64-.52.97-.77h-8.23c4.1,5.16,8.19,10.32,12.29,15.49.39-3.05.79-6.1,1.18-9.14-1.17.5-2.33,1-3.5,1.51h5.87c-2.15-1.07-4.31-2.15-6.48-3.21-1.44-.72-2.89-1.03-4.48-.59-1.8.5-3.74,2.12-4.06,4.06-.33,2.05-.68,4.1-1.02,6.15,2.85-1.15,5.7-2.31,8.55-3.47-1.93-.93-3.86-1.86-5.79-2.79-4.14-2-8.38.46-8.75,5.03-.16,1.94-.32,3.88-.48,5.82,2.92-1.67,5.83-3.34,8.75-5.02-1.58-.8-3.15-1.6-4.73-2.39-1.42-.72-2.9-1.02-4.48-.58-1.75.48-3.8,2.13-4.06,4.06-.24,1.78-.48,3.57-.73,5.35,2.85-1.15,5.69-2.31,8.54-3.47-1.65-.72-3.3-1.43-4.95-2.14-1.97-.85-3.91-1.15-5.87,0-1.94,1.13-2.62,2.91-2.88,5.02-.19,1.56-.39,3.12-.58,4.69,2.91-1.68,5.83-3.35,8.75-5.02-1.53-.67-3.05-1.35-4.57-2.01-1.5-.66-2.84-1.04-4.48-.59-2.08.57-3.35,2.11-4.06,4.06-.58,1.6-1.16,3.2-1.75,4.79-1.09,2.98,1.19,6.36,4.06,7.15,3.25.89,6.07-1.09,7.15-4.06.58-1.6,1.17-3.2,1.74-4.79-2.85,1.16-5.69,2.31-8.54,3.48,1.52.67,3.05,1.34,4.57,2.02,1.96.87,3.92,1.14,5.87,0,1.93-1.13,2.62-2.92,2.87-5.02.2-1.56.39-3.13.58-4.69-2.92,1.67-5.84,3.34-8.75,5.02,1.65.72,3.3,1.43,4.95,2.15,1.51.66,2.83,1.05,4.48.59,1.75-.48,3.8-2.14,4.06-4.06.24-1.78.49-3.57.73-5.35-2.85,1.15-5.69,2.32-8.54,3.47,1.58.8,3.16,1.6,4.74,2.4,4.13,2.09,8.38-.53,8.75-5.03.16-1.94.32-3.88.47-5.82-2.92,1.67-5.83,3.34-8.75,5.02,1.93.93,3.86,1.87,5.79,2.8,1.45.7,2.88,1.02,4.47.58,1.8-.5,3.75-2.12,4.06-4.06.34-2.05.68-4.1,1.02-6.15-2.85,1.16-5.69,2.32-8.54,3.48,1.95.97,3.9,1.93,5.86,2.91.2.1.41.2.62.3,2.08,1.03,3.78.89,5.87,0,.14-.06.29-.12.43-.18,1.03-.44,2.06-.88,3.08-1.33,1.3-.56,2.31-2.17,2.67-3.47.59-2.18-.17-3.98-1.5-5.66-4.09-5.16-8.19-10.32-12.28-15.48-.91-1.14-2.73-1.71-4.12-1.71-1.68,0-2.85.7-4.12,1.71-9.74,7.72-19.47,15.45-29.21,23.17-.32.26-.65.51-.96.77-2.43,1.92-2.14,6.25,0,8.22,2.63,2.43,5.26,4.87,7.88,7.3,2.33,2.15,5.92,2.3,8.23,0,2.18-2.18,2.33-6.07,0-8.23Z"/>
        </g>
        <polygon class="st33" points="65.14 314.88 57.26 307.59 87.44 283.65 99.72 299.13 96.22 300.64 89.73 297.42 88.72 303.58 82.93 300.79 82.45 306.61 77.72 304.21 76.99 309.57 72.04 307.43 71.47 312.12 66.89 310.1 65.14 314.88"/>
        <polygon class="st13" points="57.26 307.59 58.77 309 87.11 286.51 97.78 299.97 99.72 299.13 87.44 283.65 57.26 307.59"/>
        <g>
          <polygon class="st8" points="73.12 306.02 72.89 307.82 76.98 309.59 77.22 307.81 73.12 306.02"/>
          <polygon class="st8" points="67.96 308.7 67.36 310.33 71.45 312.13 71.67 310.33 67.96 308.7"/>
          <polygon class="st8" points="58.65 306.5 57.24 307.61 65.13 314.9 65.79 313.09 58.65 306.5"/>
          <polygon class="st8" points="78.79 302.82 78.54 304.67 82.44 306.63 82.59 304.73 78.79 302.82"/>
          <polygon class="st8" points="97.28 299.23 90.81 296.02 90.51 297.83 96.2 300.65 99.7 299.15 99.14 298.44 97.28 299.23"/>
          <polygon class="st8" points="84 299.38 83.85 301.25 88.71 303.59 89 301.79 84 299.38"/>
        </g>
      </g>
    </g>
    <path class="st8" d="M78.71,293.72c.32.4.25.99-.15,1.3l-15.38,12.2c-.4.32-.98.25-1.29-.15h0c-.32-.4-.26-.98.14-1.3l15.38-12.21c.4-.32.98-.25,1.29.15h0Z"/>
    <path class="st8" d="M84.61,287.85l-2.14,1.7-.08.06-1.41,1.12c-.4.32-.47.89-.15,1.29.32.4.9.47,1.3.16l1.42-1.12.07-.06,2.14-1.69c.4-.32.47-.9.15-1.3-.31-.39-.9-.46-1.3-.15Z"/>
  </g>
  <g>
    <g>
      <g>
        <polygon class="st25" points="117.82 309.49 119.03 312.74 120.01 312.72 120.07 312.72 121.06 312.69 122.13 309.4 120.84 308.3 120.57 295.35 118.78 295.39 119.06 308.33 117.82 309.49"/>
        <path d="M112.84,310.86c.4,1.09.8,2.17,1.2,3.25.79,2.15,2.55,3.85,4.99,3.8.67-.02,1.36-.03,2.04-.04,2.38-.05,4.27-1.56,4.99-3.79.35-1.1.71-2.2,1.06-3.3.53-1.63,0-3.88-1.33-5.02-.43-.37-.85-.74-1.28-1.11.51,1.22,1,2.44,1.51,3.65-.09-4.32-.18-8.63-.27-12.94-.06-2.77-2.3-5.23-5.17-5.17-.59,0-1.19.02-1.79.03-2.77.06-5.23,2.31-5.17,5.18.09,4.31.18,8.62.27,12.94.5-1.22,1.01-2.44,1.51-3.65-.42.39-.83.77-1.23,1.16-2.06,1.93-1.95,5.36,0,7.31,2.04,2.04,5.26,1.93,7.31,0,.72-.68,1.53-1.33,2.04-2.21.57-.97.72-2.03.7-3.11-.03-1.4-.06-2.8-.09-4.2-.05-2.75-.11-5.5-.17-8.24-1.72,1.72-3.45,3.44-5.17,5.17.6-.01,1.2-.02,1.79-.03-1.72-1.73-3.44-3.45-5.17-5.17.06,2.66.11,5.33.17,7.99.03,1.44.06,2.89.09,4.34.01.67.01,1.32.2,1.98.43,1.57,1.48,2.41,2.61,3.39-.44-1.68-.89-3.35-1.33-5.03-.35,1.1-.71,2.2-1.06,3.3,1.66-1.27,3.31-2.53,4.98-3.79-.68.01-1.36.02-2.04.04,1.66,1.27,3.32,2.53,4.98,3.79-.4-1.08-.8-2.16-1.19-3.25-.98-2.64-3.47-4.4-6.37-3.61-2.54.7-4.58,3.71-3.61,6.36Z"/>
      </g>
      <polygon class="st33" points="117.52 309.46 118.66 312.72 119.65 312.72 119.71 312.72 120.71 312.72 121.84 309.44 120.57 308.31 120.56 295.37 118.77 295.38 118.78 308.31 117.52 309.46"/>
      <g>
        <polygon class="st8" points="120.22 312.24 119.23 312.24 119.17 312.24 118.49 312.24 118.66 312.73 119.65 312.72 119.71 312.72 120.71 312.72 121.83 309.45 121.34 309 120.22 312.24"/>
        <polygon class="st8" points="120.09 307.83 120.57 308.27 120.56 295.37 120.08 295.37 120.09 307.83"/>
      </g>
    </g>
    <g>
      <g>
        <g>
          <path class="st25" d="M116.79,278.7c-.02-1.12.86-2.04,1.97-2.06l1.06-.02c1.12-.02,2.04.86,2.06,1.97l.14,6.71c.02,1.12-.86,2.04-1.97,2.06l-1.07.02c-1.11.02-2.03-.86-2.06-1.97l-.14-6.71Z"/>
          <path d="M121.96,278.7c-.07,1.07-.59,2.05-1.51,2.65-.85.55-2.35.47-1.48.45.21,0,.43,0,.64,0,.07,0,.14,0,.21,0-.84-.01-1.58-.33-2.22-.95-.47-.4-.91-3.17-.88-1.94,0,.4.02.81.02,1.21.04,1.73.08,3.47.11,5.2-.02-1.06.63-2.08,1.5-2.64.86-.55,2.36-.48,1.48-.46-.21,0-.43,0-.64.01h-.21c.85.02,1.58.33,2.22.96.48.39.91,3.16.88,1.94,0-.41-.02-.81-.02-1.22-.04-1.73-.07-3.46-.11-5.2-.06-2.82-2.31-5.17-5.17-5.17s-5.23,2.35-5.17,5.17c.05,2.23.09,4.47.14,6.71.09,4.19,3.55,7.22,7.65,7.14,4.34-.1,7.52-2.81,7.78-7.25.14-2.21-.09-4.5-.13-6.71-.1-4.19-3.55-7.21-7.65-7.13-4.34.09-7.52,2.82-7.79,7.24-.17,2.81,2.48,5.17,5.17,5.17,2.94,0,5-2.36,5.17-5.17Z"/>
        </g>
        <g>
          <rect class="st28" x="117.8" y="289.2" width="3.73" height="1.47"/>
          <path class="st31" d="M117.8,290.5h3.73c-.43-.43-.86-.87-1.29-1.29,0,.49,0,.98,0,1.47.43-.43.85-.85,1.29-1.29-1.24,0-2.49,0-3.73,0,.43.43.87.86,1.29,1.29v-1.47c0-1.66-2.59-1.66-2.59,0,0,.49,0,.98,0,1.47,0,.7.59,1.29,1.29,1.29h3.73c.71,0,1.3-.59,1.29-1.29v-1.47c0-.7-.59-1.29-1.29-1.29h-3.73c-1.67,0-1.67,2.59,0,2.59Z"/>
        </g>
        <g>
          <path class="st25" d="M117.25,291c0-.4.31-.74.72-.75l3.2-.06c.4-.01.74.31.75.72h0c0,.4-.31.74-.72.75l-3.21.07c-.4,0-.74-.32-.75-.72h0Z"/>
          <path d="M122.24,292.37c-.43,3.09-6.21,3.09-3.83,3.04.4,0,.79-.01,1.18-.02.34,0,.68-.02,1.03-.02,2.56-.05-3.05.23-3.66-3.08v-2.75c.44-3.1,6.21-3.09,3.83-3.04-.39.01-.78.02-1.17.02-.34,0-.68.02-1.03.03-2.56.04,3.06-.23,3.66,3.08-.5-2.77-3.82-4.31-6.36-3.61-2.89.8-4.12,3.58-3.61,6.36.47,2.6,3.16,4.57,5.74,4.51.53,0,1.06-.02,1.59-.03.54-.01,1.06-.02,1.59-.04,3.21-.07,5.91-2.66,5.91-5.92s-2.72-5.96-5.92-5.89c-.47,0-.95.02-1.41.03-.58.02-1.16.03-1.74.04-2.55.05-5.38,1.84-5.76,4.54-.21,1.45-.25,2.67.52,3.98.68,1.16,1.8,2.03,3.09,2.38,1.33.37,2.79.17,3.98-.52,1.03-.61,2.21-1.85,2.37-3.09Z"/>
        </g>
      </g>
      <g>
        <path class="st17" d="M117.11,278.64c0-1.11.89-2.01,2.02-2.01h1.06c1.11,0,2.01.9,2.01,2.01v6.71c0,1.11-.89,2.01-2,2.01h-1.07c-1.11,0-2.01-.89-2.01-2.01v-6.72Z"/>
        <path class="st26" d="M117.78,285.36v-6.72c-.01-1.11.89-2.01,2.01-2.01h-.67c-1.12,0-2.02.91-2.02,2.01v6.72c0,1.11.91,2.01,2.02,2.01h.66c-1.11-.01-2-.91-2-2.01Z"/>
        <rect class="st28" x="117.8" y="289.2" width="3.73" height="1.47"/>
        <path class="st17" d="M117.32,290.95c0-.4.34-.73.74-.73h3.2c.4,0,.73.32.74.73h0c0,.4-.33.74-.73.74h-3.21c-.4,0-.74-.32-.74-.73h0Z"/>
        <path class="st26" d="M117.93,290.95c0-.4.33-.73.74-.73h2.61s-.01,0-.01,0h-3.2c-.4,0-.74.33-.74.74s.34.73.74.73h.6c-.4,0-.73-.33-.73-.73Z"/>
        <path class="st19" d="M121.7,278.5v6.71c0,1.12-.89,2.02-2.01,2.02h-1.06c-.11,0-.21,0-.31-.02.25.11.53.17.81.17h1.07c1.11,0,2.01-.9,2.01-2.01v-6.72c0-1-.74-1.84-1.71-1.98.71.31,1.2,1.02,1.2,1.84Z"/>
        <path class="st8" d="M121.51,290.8c0,.4-.34.73-.74.73h-3.14c.13.1.28.15.44.15h3.21c.4,0,.73-.33.73-.74s-.32-.73-.73-.73h-.06c.18.14.3.35.3.59Z"/>
      </g>
    </g>
    <rect class="st11" x="116.67" y="288.88" width="6.06" height="1.39" transform="translate(-.56 .23) rotate(-.11)"/>
    <path class="st11" d="M119.11,277.8c0-.28.22-.51.5-.51h0c.28,0,.51.22.51.5v7.28c.01.27-.21.5-.48.5h0c-.28,0-.51-.22-.51-.5v-7.27Z"/>
  </g>
</svg>