<?xml version="1.0" encoding="UTF-8"?>
<svg id="Layer_1" xmlns="http://www.w3.org/2000/svg" version="1.1" viewBox="0 0 227.47 306.94">
  <!-- Generator: Adobe Illustrator 29.6.1, SVG Export Plug-In . SVG Version: 2.1.1 Build 9)  -->
  <defs>
    <style>
      .st0 {
        fill: #5b2d15;
      }

      .st1 {
        fill: #ffd7c3;
      }

      .st2 {
        fill: #45bca8;
      }

      .st3 {
        fill: #000002;
      }

      .st4 {
        fill: #3aa18e;
      }

      .st5 {
        fill: #9fffc6;
      }

      .st6 {
        fill: #7ae4ce;
      }

      .st7 {
        fill: #f38b9e;
      }

      .st8 {
        fill: #fff;
      }

      .st9 {
        fill: #fde5d2;
      }

      .st10 {
        fill: #ffc0a4;
      }
    </style>
  </defs>
  <g>
    <g>
      <g>
        <path class="st1" d="M72.14,220.88s-30.49,36.21-17.26,44.02c13.23,7.8,31.75-26.04,31.75-26.04l-14.49-17.98Z"/>
        <path d="M69.57,218.3c-3.29,3.91-6.36,8.04-9.26,12.23-4.74,6.83-9.53,14.34-11.64,22.46-.96,3.68-1.13,7.52.52,11.02,1.72,3.64,5.97,5.59,9.81,5.69,4.42.12,8.43-2.29,11.79-4.89,3.45-2.68,6.39-5.97,9.09-9.39,3.66-4.63,7.05-9.54,9.88-14.72.85-1.56.5-3.09-.57-4.41-4.83-6-9.66-11.99-14.48-17.98-1.25-1.55-3.86-1.29-5.14,0-1.52,1.51-1.24,3.6,0,5.14,4.83,6,9.65,12,14.48,17.99-.19-1.47-.38-2.95-.57-4.41-.82,1.49-1.71,2.95-2.61,4.39-.95,1.51-1.93,3.01-2.94,4.48-.56.81-1.13,1.62-1.71,2.41-.3.42-.61.83-.92,1.24-.16.21-.32.41-.48.62.61-.8-.12.15-.24.29-1.38,1.75-2.84,3.44-4.38,5.04-.72.76-1.47,1.48-2.25,2.19-.37.35-.76.68-1.14,1.01-.19.16-.39.32-.58.48-.8.65.26-.19-.23.18-.76.57-1.54,1.09-2.36,1.56-.38.22-.78.43-1.18.63-.19.09-.4.19-.59.28,1.05-.48.12-.06-.11.03-.39.14-.78.25-1.18.35-.31.09-1.71.28-.4.12-.39.05-.77.06-1.17.06-.18,0-.38-.01-.57-.03-.65-.05,1,.19.02,0-.38-.07-.76-.19-1.13-.32-.7-.24.81.38.13.06-.18-.09-.37-.19-.55-.28-.28-.16-1.32-.92-.27-.1-.29-.22-.55-.48-.8-.76-.56-.62.51.79-.07-.12-.18-.29-.64-1.35-.11-.09-.13-.29-.22-.59-.3-.89-.1-.35-.27-1.72-.11-.32-.08-.69-.08-1.4-.03-2.11.03-.31.21-1.67.02-.35.06-.46.16-.92.25-1.38.39-1.81,1-3.57,1.7-5.27.07-.2.4-.96,0-.02.09-.22.2-.45.29-.66.2-.45.41-.9.62-1.35.47-.99.97-1.96,1.48-2.93,1.02-1.91,2.11-3.77,3.25-5.61,2.13-3.42,4.42-6.74,6.81-9.98.7-.94,1.41-1.88,2.12-2.81.39-.5-.61.78-.04.06.16-.21.32-.42.48-.63.29-.37.58-.74.88-1.11.53-.66,1.06-1.33,1.62-1.99,1.28-1.51,1.5-3.65,0-5.14-1.31-1.32-3.87-1.52-5.14,0Z"/>
      </g>
      <g>
        <path class="st1" d="M155.43,220.88s30.49,36.21,17.26,44.02c-13.23,7.8-31.74-26.04-31.74-26.04l14.48-17.98Z"/>
        <path d="M152.85,223.45c.92,1.09,1.8,2.22,2.68,3.34.18.24.95,1.22.14.19.23.29.44.58.66.87.53.69,1.05,1.38,1.56,2.08,1.14,1.54,2.25,3.11,3.34,4.68,2.42,3.52,4.7,7.14,6.72,10.91.48.89.94,1.8,1.38,2.71.21.44.42.89.63,1.35.1.22.2.44.3.66.26.6-.3-.73.1.24.7,1.7,1.29,3.46,1.69,5.27.09.39.16.79.22,1.18.12.74-.11-.94-.02-.2.02.19.04.38.05.56.07.77.06,1.53-.01,2.29.13-1.37.01-.18-.07.17-.07.31-.17.61-.28.9-.22.61.4-.88.13-.31-.07.14-.14.28-.22.41-.08.13-.16.26-.24.39-.33.49.67-.8.1-.13-.21.24-.44.46-.67.66-.49.43.76-.56.21-.18-.13.1-.28.19-.42.28-.27.16-1.56.72-.42.25-.42.17-.87.29-1.31.39-.27.05-.98.13.21-.02-.2.02-.38.04-.58.04-.38.02-.77,0-1.15-.03-.74-.06.93.14.19.02-.2-.03-.4-.07-.59-.12-.46-.1-.92-.24-1.37-.4-.2-.07-.4-.15-.59-.23,1.02.41.3.12.08.02-.4-.19-.79-.4-1.19-.62-.89-.5-1.73-1.07-2.55-1.67-.68-.51.64.5-.04-.03-.2-.15-.39-.31-.58-.47-.39-.32-.77-.66-1.15-1-.84-.76-1.65-1.55-2.44-2.37-1.55-1.6-2.99-3.3-4.37-5.04-.17-.2-.33-.41-.5-.62.59.75.04.05-.06-.09-.31-.41-.63-.83-.93-1.24-.64-.87-1.26-1.74-1.86-2.62-1.98-2.86-3.89-5.81-5.56-8.87-.19,1.46-.38,2.94-.57,4.41,4.83-5.99,9.65-11.99,14.48-17.99,1.24-1.54,1.51-3.63,0-5.14-1.29-1.29-3.9-1.55-5.15,0-4.83,5.99-9.65,11.98-14.48,17.98-1.07,1.32-1.43,2.85-.57,4.41,2.79,5.1,6.15,9.93,9.72,14.51,2.68,3.43,5.62,6.74,9.05,9.45,3.42,2.7,7.32,4.97,11.79,5.04,3.93.07,8.07-2.04,9.94-5.55,1.8-3.38,1.51-7.35.64-10.95-1.97-8.12-6.87-15.67-11.55-22.47-2.94-4.27-6.06-8.46-9.4-12.43-1.28-1.52-3.84-1.32-5.15,0-1.5,1.49-1.28,3.63,0,5.14Z"/>
      </g>
      <g>
        <path class="st2" d="M58.6,247.92l11.62,7.25.33-.43,5.28-23.68-3.53-4.42s-5.81,7.23-7.75,10.28c-1.95,3.05-5.95,10.99-5.95,10.99Z"/>
        <path class="st2" d="M58.34,248.34c3.87,2.42,7.75,4.84,11.63,7.26.17.11.46.09.6-.07,1.05-1.35,1.12-3.62,1.48-5.25.82-3.68,1.64-7.36,2.46-11.04.58-2.58,1.15-5.17,1.73-7.75.17-.75-.38-1.17-.84-1.74-.92-1.14-1.83-2.29-2.75-3.44-.16-.2-.54-.2-.7,0-2.62,3.26-5.28,6.54-7.61,10.02-2.39,3.56-4.25,7.53-6.18,11.35-.29.57.57,1.07.86.5,1.87-3.71,3.72-7.47,5.94-11,2.26-3.57,5.04-6.88,7.69-10.17h-.7c.82,1.03,1.64,2.06,2.46,3.09.35.44.7.88,1.05,1.32-.28-.35-.07-.64-.21-.05-.57,2.54-1.13,5.08-1.7,7.62-.79,3.53-1.58,7.07-2.36,10.61-.28,1.27-.57,2.54-.85,3.8-.07.34-.14.66-.22.99-.01.06-.03.13-.04.2.05-.24-.05.05-.21.24.2-.03.4-.06.6-.08-3.87-2.42-7.74-4.84-11.62-7.26-.55-.33-1.04.53-.5.86Z"/>
      </g>
      <g>
        <polygon class="st3" points="68.77 263.57 50.62 251.84 54.72 245.48 72.87 257.21 68.77 263.57"/>
        <path d="M69.01,264.69l-19.5-12.6,4.98-7.71,19.51,12.6-4.98,7.72ZM51.73,251.6l16.79,10.85,3.23-5.01-16.8-10.85-3.23,5.01Z"/>
      </g>
      <g>
        <path class="st2" d="M168.99,247.92l-11.61,7.27-.49-.49-5.12-23.64,3.52-4.42s5.82,7.23,7.77,10.28c1.94,3.05,5.94,10.99,5.94,10.99Z"/>
        <path class="st2" d="M168.75,247.49c-3.87,2.43-7.74,4.86-11.62,7.28.2.03.4.05.6.07-.12-.12-.44-.59-.37-.29,0-.06-.02-.1-.03-.16-.07-.3-.14-.61-.2-.92-.27-1.24-.53-2.47-.8-3.71-.76-3.52-1.52-7.04-2.29-10.56-.57-2.59-1.13-5.18-1.69-7.76-.03-.17-.07-.34-.1-.5.08.39-.25.63.09.21.23-.29.46-.58.7-.87.87-1.09,1.73-2.18,2.61-3.27h-.71c2.62,3.25,5.28,6.52,7.57,10,2.32,3.52,4.17,7.41,6.06,11.17.29.57,1.14.07.85-.5-1.89-3.76-3.77-7.62-6.06-11.17-2.3-3.57-5.06-6.89-7.72-10.2-.16-.2-.55-.2-.71,0-.87,1.09-1.74,2.18-2.61,3.27-.44.56-1.15,1.1-.99,1.86.54,2.52,1.09,5.03,1.63,7.55.8,3.68,1.6,7.37,2.4,11.05.28,1.27.55,2.54.83,3.82.18.81.22,1.08.84,1.71.16.15.41.19.6.07,3.88-2.42,7.74-4.86,11.62-7.29.54-.34.04-1.2-.5-.86Z"/>
      </g>
      <g>
        <polygon class="st3" points="158.82 263.57 176.98 251.84 172.87 245.48 154.72 257.21 158.82 263.57"/>
        <path d="M158.58,264.69l-4.98-7.72,19.5-12.6,4.99,7.71-19.51,12.6ZM155.83,257.45l3.23,5.01,16.8-10.85-3.24-5.01-16.79,10.85Z"/>
      </g>
    </g>
    <g>
      <g>
        <path class="st2" d="M145.01,228.17h-62.44s-12.2,67.68-3.9,70.57c8.3,2.9,15.99-10.32,15.99-10.32h38.28s7.69,13.21,15.98,10.32c8.3-2.9-3.91-70.57-3.91-70.57Z"/>
        <path d="M145.01,224.53h-62.44c-1.5,0-3.22,1.1-3.51,2.67-2.16,12.01-3.93,24.11-5.31,36.24-.92,8.08-1.74,16.25-1.6,24.38.1,5.21.23,13.42,6.66,14.73,8.15,1.66,15.24-5.89,18.98-12.29-1.05.6-2.09,1.2-3.14,1.8h38.28c-1.05-.6-2.1-1.2-3.15-1.8,1.69,2.89,3.91,5.62,6.38,7.86,3.82,3.46,9.86,6.43,14.9,3.62,2.23-1.25,3.2-3.97,3.67-6.34.61-3.16.73-6.43.71-9.65-.03-8.35-.92-16.71-1.91-24.99-.98-8.15-2.16-16.28-3.46-24.39-.5-3.06-1-6.12-1.55-9.19-.35-1.95-2.7-3.03-4.48-2.53-2.04.56-2.89,2.52-2.55,4.47.67,3.7,1.28,7.41,1.86,11.11.6,3.79,1.17,7.59,1.7,11.38.14,1.02.28,2.03.41,3.04-.14-1.1.08.57.12.84.08.61.16,1.22.24,1.82.28,2.2.55,4.41.8,6.62.91,8.03,1.72,16.16,1.53,24.25-.04,1.48-.13,2.97-.3,4.45-.1.89.15-.99-.02.1-.04.28-.09.57-.15.84-.1.54-.24,1.07-.4,1.59-.06.21-.14.42-.22.62.53-1.34.23-.55.06-.24-.08.15-.18.3-.28.45-.02.04.76-.82.16-.27-.21.2,1-.65.33-.28-.4.22,1.04-.42.62-.26-.28.1-.56.17-.83.24-.93.22.79-.05-.14.03-.28.02-.55.01-.82,0-.2,0-1.09-.16-.11.01-.36-.06-.71-.16-1.06-.26-.27-.08-.52-.18-.78-.28.87.34,0-.02-.15-.1-.5-.25-.98-.56-1.45-.88-.25-.16-.47-.33-.7-.5.72.53-.05-.06-.16-.14-.51-.43-.99-.89-1.46-1.36-.75-.75-1.45-1.56-2.13-2.38-.13-.16-.65-.84-.02-.02-.13-.17-.27-.35-.4-.53-.27-.37-.53-.73-.78-1.1-1.04-1.52-1.84-3.19-4.04-3.19h-35c-2.45,0-5.04-.43-6.54,2.04-.27.43-.56.87-.85,1.29-.22.33-.44.64-.68.96-.13.18-.26.36-.4.53.67-.87-.04.04-.17.21-.68.84-1.41,1.63-2.18,2.39-.4.4-.83.78-1.26,1.16-.11.09-.87.69-.16.14-.3.23-.62.45-.94.66-.47.31-.97.59-1.47.84-.85.42.72-.27-.15.07-.25.1-.52.18-.78.25-.27.08-.53.13-.8.19.96-.19.11-.02-.11-.01-.28.02-.55,0-.83,0-.41-.04-.36-.03.14.03-.19-.04-.38-.08-.56-.13-.21-.05-.42-.12-.62-.2,1.22.46.91.4.62.25-.62-.35.79.68.34.27-.59-.55.38.54.21.31-.12-.17-.23-.35-.33-.54-.42-.79.18.48.08.23-.09-.21-.15-.42-.22-.63-.17-.53-.29-1.07-.4-1.62-.05-.28-.1-.57-.14-.85-.13-.85.12,1.01-.01-.12-.08-.74-.14-1.47-.19-2.22-.22-3.54-.1-7.1.08-10.65.22-4.26.6-8.51,1.04-12.75.24-2.22.48-4.43.75-6.64.13-1.05.26-2.11.4-3.16.07-.52.14-1.04.21-1.56.03-.27.07-.52.1-.78.02-.17.04-.35.06-.51-.07.54-.08.6-.02.19,1.14-8.45,2.43-16.88,3.94-25.28-1.17.89-2.34,1.79-3.51,2.67h62.44c4.7,0,4.7-7.28,0-7.28Z"/>
      </g>
      <g>
        <path class="st3" d="M178.23,302.29c0,1.9-28.85,3.44-64.43,3.44s-64.43-1.54-64.43-3.44,28.84-3.44,64.43-3.44,64.43,1.54,64.43,3.44Z"/>
        <path d="M113.8,306.94c-17.23,0-33.44-.36-45.63-1.01-20.01-1.07-20.01-2.26-20.01-3.64s0-2.57,20.01-3.64c12.19-.65,28.39-1.01,45.63-1.01s33.43.36,45.62,1.01c20.01,1.07,20.01,2.26,20.01,3.64s0,2.57-20.01,3.64c-12.2.65-28.4,1.01-45.62,1.01ZM53.4,302.28c7.78,1.1,29,2.25,60.4,2.25s52.43-1.14,60.29-2.23c-7.86-1.09-29.03-2.23-60.29-2.23s-52.31,1.05-60.4,2.22Z"/>
      </g>
      <g>
        <g>
          <polygon class="st9" points="142.83 215.08 113.91 215.08 113.67 215.08 84.76 215.08 72.23 271.97 155.36 271.97 142.83 215.08"/>
          <path d="M142.83,207.8h-58.07c-3.11,0-6.33,2.21-7.02,5.35-2.74,12.4-5.46,24.81-8.2,37.21-1.44,6.56-2.89,13.13-4.33,19.69-1.02,4.58,2.1,9.21,7.01,9.21h83.13c4.92,0,8.03-4.62,7.02-9.21-2.73-12.4-5.46-24.81-8.19-37.21-1.45-6.56-2.89-13.12-4.33-19.68-.85-3.88-5.28-6.1-8.95-5.08-3.97,1.09-5.94,5.07-5.08,8.95,2.73,12.41,5.46,24.81,8.19,37.21,1.45,6.56,2.9,13.12,4.34,19.68,2.34-3.07,4.67-6.14,7.01-9.21h-83.13c2.34,3.07,4.68,6.14,7.03,9.21,2.73-12.4,5.46-24.81,8.19-37.21,1.45-6.56,2.89-13.12,4.34-19.69-2.34,1.79-4.68,3.56-7.02,5.35h58.07c3.97,0,7.28-3.31,7.28-7.28s-3.31-7.29-7.28-7.29Z"/>
        </g>
        <polygon class="st2" points="142.83 215.08 113.91 215.08 113.67 215.08 84.76 215.08 72.23 271.97 155.36 271.97 142.83 215.08"/>
      </g>
    </g>
  </g>
  <polygon class="st4" points="148.1 282.13 79.49 282.13 79.61 279.3 147.9 279.3 148.1 282.13"/>
  <path d="M90.34,222.64c-1.9,4.48-3.14,9.27-3.82,14.08-.67,4.81-1.02,9.84-.51,14.7.16,1.43,1.09,2.64,2.64,2.64,1.33,0,2.8-1.21,2.65-2.64-.47-4.46-.19-9.06.36-13.5.36-3.05,1.13-6.09,2.02-9.02.3-.98.63-1.95.98-2.9.12-.33.8-1.99.25-.69.56-1.33.41-2.82-.95-3.62-1.13-.66-3.06-.38-3.63.95h0Z"/>
  <path d="M132.42,224.7c1.3,4.37,1.84,9.01,1.91,13.55.05,3.41,5.35,3.42,5.29,0-.07-4.98-.68-10.16-2.1-14.96-.97-3.27-6.08-1.88-5.11,1.41h0Z"/>
  <g>
    <g>
      <path class="st3" d="M97.86,254.07c0,4.81-3.9,8.71-8.71,8.71s-8.71-3.9-8.71-8.71,3.9-8.71,8.71-8.71,8.71,3.9,8.71,8.71Z"/>
      <path d="M89.15,263.59c-5.25,0-9.51-4.27-9.51-9.52s4.27-9.52,9.51-9.52,9.52,4.27,9.52,9.52-4.27,9.52-9.52,9.52ZM89.15,246.17c-4.36,0-7.9,3.55-7.9,7.91s3.54,7.91,7.9,7.91,7.91-3.55,7.91-7.91-3.55-7.91-7.91-7.91Z"/>
    </g>
    <g>
      <path class="st8" d="M92.93,254.07c0,2.09-1.69,3.78-3.78,3.78s-3.78-1.69-3.78-3.78,1.69-3.78,3.78-3.78,3.78,1.69,3.78,3.78Z"/>
      <path d="M89.15,258.66c-2.53,0-4.59-2.06-4.59-4.59s2.06-4.59,4.59-4.59,4.59,2.06,4.59,4.59-2.06,4.59-4.59,4.59ZM89.15,251.1c-1.64,0-2.98,1.34-2.98,2.98s1.34,2.98,2.98,2.98,2.98-1.34,2.98-2.98-1.34-2.98-2.98-2.98Z"/>
    </g>
  </g>
  <path class="st6" d="M68.74,254.13l-10.39-6.62s2.42-5.79,5.99-11.25c3.57-5.46,8.09-10.61,8.09-10.61l.84,1.45s-4.94,6.22-7.37,10.08c-2.42,3.86-5.36,9.79-5.36,9.79l8.21,7.15Z"/>
  <path class="st6" d="M158.95,254.13l10.39-6.62s-2.41-5.79-5.99-11.25c-3.57-5.46-8.08-10.61-8.08-10.61l-.84,1.45s4.94,6.22,7.37,10.08c2.42,3.86,5.35,9.79,5.35,9.79l-8.2,7.15Z"/>
  <polygon class="st6" points="82.57 225.61 72.23 271.97 105.6 271.97 75.62 269.29 82.57 225.61"/>
  <polygon class="st6" points="145.02 225.61 155.36 271.97 121.99 271.97 151.97 269.29 145.02 225.61"/>
  <g>
    <g>
      <g>
        <path d="M127.27,245.66c-.48,3.04-.56,6.13-.41,9.19.11,2.4.24,6.84,3.33,7.44.38.07.68.08,1.06.04.27-.03.53-.06.79-.12-1.41-1.15-1.65-1.87-.69-2.15-.21.07.68-.06-.12,0-.41.03-.79.02-1.19-.07.21.05.43.46.16.02-.18-.29-.27-.62-.37-.95-.31-.99-.47-2.03-.59-3.07-.23-2.03-.2-4.08-.08-6.11.06-.85.14-1.7.23-2.54.03-.32.08-.65.11-.97.07-.55-.05.39,0,.05-.81.47-1.63.92-2.44,1.38.53.1,1.06.21,1.59.31,2.5.48,3.57-3.34,1.05-3.83-.53-.1-1.06-.21-1.6-.31-.95-.18-2.28.26-2.44,1.39-.57,3.99-.81,8.02-.22,12.03.28,1.95.67,4.07,2.04,5.58,1.21,1.32,3.87,1.37,5.43.7,2.15-.93,1.98-3.89.25-5.09-.39-.27-.98-.33-1.43-.32-.94.03-.84-.02-.23.44-.19-.14.12.28-.14-.19.07.2.06.18-.02-.06-.08-.22-.13-.46-.19-.68-.53-2.17-.44-4.58-.39-6.8.03-1.12.11-2.22.22-3.33.02-.3.06-.61.1-.92-.06.5-.01.09,0-.02.17-1.07-.26-2.13-1.39-2.44-.96-.26-2.27.32-2.44,1.38Z"/>
        <g>
          <path class="st8" d="M129.18,246.19s-.5,3.1-.39,7.2c.11,4.3.57,6.2,1.43,6.81.86.61,2.14-.66,2.33.73.11.83-.67,1.05-.67,1.05,0,0-1.64.29-2.68-.2-1.23-.58-1.95-4.46-2.09-8-.14-3.53.49-7.88.49-7.88l1.59.3Z"/>
          <path d="M130.78,263.26c-.84,0-1.55-.13-2.11-.4-2.23-1.06-2.68-6.68-2.78-9.05-.14-3.6.48-7.92.5-8.11l.18-1.25,3.99.76-.18,1.16s-.48,3.05-.38,6.98c.12,4.91.73,5.72.92,5.85.04-.05.17-.08.29-.1,1.41-.24,2.36.34,2.54,1.65.16,1.23-.66,2.12-1.55,2.37-.1.02-.68.13-1.41.13Z"/>
        </g>
      </g>
      <g>
        <path class="st3" d="M133.11,261.34c-.17.76-.93,1.24-1.69,1.06-.76-.17-1.23-.94-1.05-1.7.17-.76.94-1.23,1.69-1.05.76.17,1.24.94,1.05,1.69Z"/>
        <path d="M132.47,261.17c-.27.92-1.65.68-1.48-.29.17-.95,1.65-.66,1.48.29-.15.84,1.13,1.19,1.28.35.2-1.14-.39-2.18-1.52-2.51-1.11-.32-2.21.47-2.51,1.52-.33,1.12.47,2.21,1.51,2.51,1.12.32,2.21-.47,2.51-1.52.23-.83-1.04-1.17-1.28-.35Z"/>
      </g>
    </g>
    <g>
      <g>
        <path d="M142.52,247.08c.17.97.29,2.47.35,3.81.12,2.3.17,4.72-.24,6.99-.06.32-.14.63-.24.94-.1.33.06-.05-.18.35.05-.09.13-.48.57-.41-.62-.1-1.11-.13-1.72.01-1.28.29-1.84,1.7-1.82,2.88.02,1.23.91,2.12,1.98,2.57,1.43.6,3.78.21,4.92-.77,1.44-1.23,1.81-3.52,2.07-5.28.63-4.14.36-8.34-.28-12.46-.17-1.12-1.48-1.59-2.44-1.39-.54.11-1.06.22-1.59.32-2.5.51-1.45,4.34,1.06,3.83.53-.1,1.06-.21,1.59-.32-.82-.46-1.63-.92-2.45-1.38.13.81.25,1.96.34,3.05.18,2.03.22,4.05.06,6.08-.12,1.52-.27,3.35-1.07,4.68.13-.22.66-.32-.06-.14-.33.09-.76.01-1.1-.01-.32-.04-.28-.03.14.02-.74-.25-.88.47-.42,2.18.23,0,.72.11,1.04.11,3.41-.01,3.64-4.72,3.78-7.1.19-3.19.05-6.46-.48-9.62-.43-2.52-4.25-1.45-3.83,1.06Z"/>
        <g>
          <path class="st8" d="M144.45,246.55s.53,3.1.47,7.2c-.07,4.3-.51,6.21-1.36,6.82-.85.62-2.14-.63-2.31.76-.11.83.68,1.04.68,1.04,0,0,1.65.28,2.68-.23,1.22-.59,1.9-4.48,2-8.02.11-3.53-.56-7.89-.56-7.89l-1.59.32Z"/>
          <path d="M142.95,263.65c-.69,0-1.24-.1-1.24-.1-1-.26-1.83-1.14-1.67-2.38.2-1.62,1.37-1.86,2.51-1.67.12.02.25.05.37.05.11-.09.71-.89.79-5.81.05-3.93-.45-6.95-.45-6.98l-.2-1.15,3.98-.81.19,1.25c.03.18.68,4.5.58,8.11-.07,2.37-.46,7.99-2.68,9.07-.57.28-1.31.43-2.18.43Z"/>
        </g>
      </g>
      <g>
        <path class="st3" d="M140.67,261.75c.18.75.95,1.22,1.71,1.03.76-.18,1.22-.95,1.04-1.7-.18-.76-.95-1.22-1.7-1.04-.76.19-1.22.95-1.04,1.71Z"/>
        <path d="M140.03,261.93c.34,1.12,1.38,1.71,2.52,1.49,1.16-.21,1.7-1.47,1.5-2.51-.22-1.16-1.47-1.7-2.52-1.5-1.15.21-1.69,1.47-1.5,2.52.16.84,1.43.48,1.28-.35-.18-.96,1.19-1.23,1.47-.32.28.93-1.19,1.23-1.47.32-.24-.81-1.52-.47-1.28.35Z"/>
      </g>
    </g>
    <path d="M130.92,248.79c0-.43.04-.85.09-1.26.05-.48-.13.83,0,.03.05-.29.11-.57.18-.85.13-.57.31-1.14.52-1.7-.29.76.06-.13.14-.28.16-.34.36-.65.57-.96.18-.26.17-.25-.06.04.1-.12.19-.24.3-.35.26-.29.56-.56.86-.81-.52.43.32-.17.43-.24.16-.08.31-.16.46-.24-.55.27.26-.07.32-.09.38-.12.76-.2,1.15-.26-.26.04-.19.04.18,0,.34-.03.68-.03,1.02-.02.22,0,.43.02.65.04-.26-.05-.22-.04.13.02.37.07.74.17,1.09.29.33.13.34.13.05.01.16.07.31.14.46.23.14.08.29.17.43.26.68.43-.42-.38.19.13.24.2.45.43.67.66.1.11.2.23.3.35-.44-.54.01.05.08.15.16.25.31.51.45.78.07.13.13.26.2.39.32.66-.23-.58.05.1.22.55.39,1.14.53,1.73.08.32.34,1.98.2.87.06.46.1.93.1,1.39,0,3.76,5.83,3.76,5.82,0,0-2.27-.58-4.56-1.49-6.63-1.77-4.07-5.52-6.4-9.91-6.59-4.35-.2-8.41,2.1-10.35,6-1.03,2.06-1.64,4.49-1.62,6.81.03,3.75,5.85,3.76,5.82,0h0Z"/>
  </g>
  <g>
    <g>
      <g>
        <g>
          <path class="st9" d="M197.46,116.39v58.69s15.94-8.45,17.12-32.95c.35-7.41.03-16.57,0-25.74h-17.12Z"/>
          <path d="M188.2,116.39v58.69c0,7.23,7.8,11.27,13.93,7.99,1.9-1,3.63-2.49,5.25-3.84,3.31-2.77,6.09-6.27,8.42-9.88,3.3-5.09,5.56-11.04,6.76-16.97,1.63-8.06,1.49-16.32,1.4-24.49-.05-3.83-.11-7.67-.13-11.5-.02-5.05-4.19-9.27-9.26-9.27h-17.12c-5.05,0-9.26,4.21-9.26,9.27s4.21,9.27,9.26,9.27h17.12c-3.09-3.09-6.18-6.18-9.27-9.27.02,5.33.14,10.67.16,16.01.02,4.79.03,9.62-.58,14.39.11-.83.22-1.65.33-2.46-.56,4.08-1.59,8.07-3.18,11.88.32-.74.62-1.47.93-2.21-1.33,3.12-3.02,6.05-5.1,8.74.48-.62.97-1.25,1.45-1.88-1.74,2.23-3.72,4.27-5.96,6.01.62-.49,1.25-.97,1.88-1.46-.78.61-1.59,1.21-2.46,1.66,4.65,2.67,9.29,5.34,13.94,8v-58.69c0-5.05-4.21-9.27-9.26-9.27s-9.26,4.21-9.26,9.27Z"/>
        </g>
        <path class="st0" d="M197.46,116.39v58.69s15.94-8.45,17.12-32.95c.35-7.41.03-16.57,0-25.74h-17.12Z"/>
      </g>
      <g>
        <g>
          <path class="st9" d="M31.06,116.39v58.69s-15.94-8.45-17.12-32.95c-.35-7.41-.03-16.57,0-25.74h17.12Z"/>
          <path d="M21.79,116.39v58.69c4.65-2.66,9.29-5.33,13.94-8-.87-.46-1.68-1.06-2.45-1.66.62.48,1.25.97,1.88,1.46-2.25-1.74-4.22-3.78-5.97-6.01.49.63.97,1.25,1.45,1.88-2.08-2.69-3.77-5.63-5.1-8.74.32.74.62,1.47.94,2.21-1.6-3.8-2.62-7.79-3.18-11.88.11.82.23,1.64.34,2.46-.6-4.6-.6-9.26-.59-13.89.01-5.51.14-11.01.16-16.51-3.09,3.09-6.17,6.17-9.26,9.27h17.12c5.05,0,9.26-4.21,9.26-9.27s-4.21-9.27-9.26-9.27H13.94c-5.06,0-9.24,4.21-9.27,9.27-.03,8.29-.35,16.59-.03,24.88.16,4.1.66,8.22,1.54,12.23.77,3.53,2.07,6.82,3.48,10.14,3.26,7.61,8.99,14.47,15.95,18.98.25.16.5.32.77.46,6.13,3.27,13.94-.77,13.94-7.99v-58.69c0-5.05-4.21-9.27-9.26-9.27s-9.27,4.21-9.27,9.27Z"/>
        </g>
        <path class="st0" d="M31.06,116.39v58.69s-15.94-8.45-17.12-32.95c-.35-7.41-.03-16.57,0-25.74h17.12Z"/>
      </g>
    </g>
    <g>
      <g>
        <path class="st9" d="M198.57,71.03c.3,12.07,0,83.44,0,83.44,0,32.42-18.17,62.48-85.88,62.2-67.01-.28-82.88-29.78-82.88-62.2v-83.44h168.76Z"/>
        <path d="M189.3,71.03c.38,15.17.14,30.36.12,45.53-.03,12.62-.07,25.25-.12,37.88-.01,3.48-.21,6.96-.68,10.41.11-.82.22-1.64.33-2.46-.71,5.15-1.99,10.21-4,15.02.31-.74.62-1.48.93-2.22-1.67,3.94-3.81,7.66-6.42,11.06.48-.62.97-1.25,1.45-1.87-2.7,3.49-5.85,6.58-9.34,9.28.62-.48,1.25-.96,1.87-1.45-4.34,3.33-9.14,6-14.18,8.14.74-.31,1.48-.63,2.21-.94-8.51,3.57-17.56,5.65-26.68,6.88.82-.12,1.64-.22,2.46-.33-15.78,2.08-32.1,2.06-47.88-.04.82.11,1.64.22,2.46.33-8.86-1.2-17.66-3.2-25.94-6.66.74.31,1.48.62,2.22.94-4.91-2.07-9.58-4.66-13.8-7.9.62.48,1.25.96,1.87,1.45-3.31-2.57-6.31-5.52-8.87-8.84.48.62.97,1.25,1.45,1.88-2.53-3.31-4.61-6.93-6.23-10.77.31.74.62,1.47.93,2.21-2.02-4.86-3.3-9.98-4.01-15.19.11.82.22,1.64.33,2.46-.62-4.64-.72-9.29-.72-13.95v-80.84c-3.09,3.09-6.18,6.18-9.27,9.27h168.76c5.04,0,9.26-4.21,9.26-9.27s-4.21-9.26-9.26-9.26H29.81c-5.05,0-9.26,4.21-9.26,9.26v78.08c0,3.84-.05,7.7.2,11.53.31,4.47.91,8.98,1.88,13.36.96,4.34,2.5,8.43,4.27,12.49,3.32,7.59,8.66,14.5,15.04,19.74,8.45,6.94,18.29,11.6,28.79,14.59,13.39,3.81,27.6,5,41.48,5.1,14.11.1,28.49-1.04,42.18-4.61,18.95-4.93,37.07-15.77,46.1-33.75,4.06-8.1,6.13-16.64,6.99-25.62.4-4.24.34-8.49.36-12.75.06-16.78.12-33.56.12-50.35,0-9.26.1-18.55-.14-27.82-.12-5.05-4.12-9.26-9.26-9.26s-9.39,4.21-9.27,9.26Z"/>
      </g>
      <path class="st1" d="M198.57,71.03c.3,12.07,0,83.44,0,83.44,0,32.42-18.17,62.48-85.88,62.2-67.01-.28-82.88-29.78-82.88-62.2v-83.44h168.76Z"/>
    </g>
    <path class="st10" d="M114.27,108.91c.6.01,56.35.96,74.85,6.05,3.53.97,6.7,1.93,9.53,2.88.02-5.56.04-11.85.05-18.25-2.85-.94-6.03-1.91-9.58-2.89-18.5-5.09-74.25-6.03-74.85-6.04-.6.01-56.35.96-74.85,6.04-3.56.98-6.75,1.96-9.6,2.9v18.26c2.85-.94,6.04-1.92,9.6-2.89,18.5-5.09,74.25-6.04,74.85-6.05Z"/>
    <g>
      <g>
        <path class="st9" d="M194.22,37.31C165.1,5.88,114.86,9.37,114.25,9.41c-.59-.04-50.84-3.53-79.96,27.9C4.99,68.93,11.97,107.98,11.97,107.98c0,0,8.84-5.11,27.44-10.23,18.5-5.09,74.25-6.03,74.85-6.04.6.01,56.36.95,74.85,6.04,18.6,5.12,27.44,10.23,27.44,10.23,0,0,6.97-39.06-22.32-70.68Z"/>
        <path d="M200.77,30.76c-9.22-9.91-20.75-16.87-33.2-21.93-10.28-4.17-21.11-6.42-32.09-7.79-6.33-.79-12.74-1.17-19.11-.99-2.31.07-4.6-.03-6.92-.03-19.66-.05-39.67,3.99-57.33,12.73C27.25,25.04,9.75,49.35,4.19,76.34c-2.27,11.07-3.14,22.9-1.15,34.11.4,2.26,2.35,4.41,4.25,5.54,2.88,1.68,6.48,1.66,9.35,0,2.14-1.24,4.46-2.23,6.74-3.2-.74.3-1.47.62-2.21.93,10.47-4.42,21.36-7.73,32.62-9.25-.82.11-1.64.22-2.46.33,18.67-2.49,37.62-3.16,56.43-3.68,10-.27,20,.17,30,.62,13.15.59,26.35,1.33,39.41,3.07-.82-.11-1.64-.22-2.46-.33,11.26,1.52,22.16,4.83,32.62,9.25-.74-.32-1.47-.63-2.21-.93,2.28.96,4.6,1.96,6.75,3.2,2.15,1.24,4.74,1.59,7.14.94,2.89-.8,5.92-3.38,6.47-6.47.9-5.04,1.15-10.21,1.03-15.31-.25-11.03-2.26-22.18-6.13-32.51-4.45-11.86-11.01-22.56-19.61-31.88-3.42-3.71-9.64-3.46-13.1,0-3.68,3.68-3.42,9.39,0,13.1,1.75,1.89,3.41,3.86,4.99,5.89-.48-.63-.96-1.25-1.44-1.88,4.43,5.77,8.11,12.07,10.96,18.76-.31-.74-.63-1.48-.94-2.22,3.09,7.36,5.17,15.1,6.25,22.99-.11-.82-.21-1.64-.33-2.46.97,7.27,1.23,14.76.27,22.05.11-.82.22-1.64.33-2.46-.05.33-.09.67-.15,1,4.53-1.85,9.07-3.69,13.61-5.54-1.78-1.02-3.69-1.87-5.56-2.69-6.12-2.68-12.39-4.99-18.79-6.94-9.7-2.96-19.63-4.24-29.71-5.2-17.05-1.63-34.21-2.32-51.33-2.68-3-.06-5.99.06-8.99.15-8.9.25-17.81.61-26.7,1.12-10.8.63-21.59,1.51-32.32,3-10.52,1.46-20.72,4.64-30.53,8.68-3.35,1.37-6.83,2.74-9.98,4.55,4.54,1.85,9.08,3.69,13.61,5.54-.06-.33-.1-.66-.14-1,.11.82.22,1.64.33,2.46-.97-7.29-.71-14.78.27-22.05-.11.82-.22,1.64-.34,2.46,1.08-7.9,3.15-15.63,6.25-22.99-.31.74-.63,1.48-.94,2.22,2.85-6.69,6.53-12.98,10.97-18.76-.49.63-.97,1.25-1.46,1.88,4.04-5.21,8.62-9.92,13.83-13.96-.63.48-1.25.96-1.88,1.45,5.82-4.49,12.25-8.1,19.02-10.96-.74.31-1.48.62-2.21.93,9.43-3.95,19.43-6.44,29.56-7.81-.82.11-1.64.22-2.47.33,8.88-1.18,17.74-1.11,26.67-1.2,6.16-.06,12.33.38,18.45,1.2-.82-.11-1.64-.22-2.46-.33,10.13,1.37,20.12,3.86,29.56,7.81-.74-.31-1.48-.62-2.22-.93,6.77,2.86,13.19,6.47,19.02,10.96-.62-.48-1.25-.97-1.88-1.45,3.15,2.45,6.11,5.14,8.83,8.06,3.45,3.69,9.63,3.47,13.1,0,3.67-3.67,3.44-9.41,0-13.1Z"/>
      </g>
      <g>
        <path class="st2" d="M194.22,37.31C165.1,5.88,114.86,9.37,114.25,9.41c-.59-.04-50.84-3.53-79.96,27.9C4.99,68.93,11.97,107.98,11.97,107.98c0,0,8.84-5.11,27.44-10.23,18.5-5.09,74.25-6.03,74.85-6.04.6.01,56.36.95,74.85,6.04,18.6,5.12,27.44,10.23,27.44,10.23,0,0,6.97-39.06-22.32-70.68Z"/>
        <path class="st6" d="M34.29,42.52C63.41,11.08,113.66,14.57,114.25,14.62c.6-.04,50.85-3.53,79.97,27.9,18.65,20.12,22.6,43.27,23.01,57.43.39-13.08-1.84-39.79-23.01-62.64C165.1,5.88,114.86,9.37,114.25,9.41c-.59-.04-50.84-3.53-79.96,27.9-21.16,22.84-23.4,49.56-23,62.64.4-14.16,4.35-37.3,23-57.43Z"/>
        <path class="st4" d="M192.9,87c-19.44-5.35-78.02-6.34-78.64-6.35-.63.01-59.21,1-78.65,6.35-11.76,3.23-19.8,6.47-24.34,8.53-.16,7.62.7,12.45.7,12.45,0,0,8.84-5.11,27.44-10.23,18.5-5.09,74.25-6.03,74.85-6.04.6.01,56.36.95,74.85,6.04,18.6,5.12,27.44,10.23,27.44,10.23,0,0,.86-4.83.71-12.45-4.55-2.06-12.58-5.3-24.35-8.53Z"/>
      </g>
    </g>
    <g>
      <g>
        <g>
          <path class="st9" d="M218,134.48c.69-2.44-.13-5.22-1.03-5.26-.9-.05-1.46,4.55-1.46,4.55,0,0-3.98,7.76-13.01,13.19-6.76,4.06-18.29,6.25-23.66,7.09-8.5-14.71-39.42-2.7-65.06-2.67-25.65-.03-56.57-12.04-65.07,2.67-5.36-.84-16.9-3.04-23.65-7.09-9.03-5.42-13.01-13.19-13.01-13.19,0,0-.57-4.6-1.47-4.55-.9.04-1.72,2.82-1.02,5.26.69,2.44,2.22,8.57,13.34,15.79,7.91,5.14,18.62,7.3,24.15,8.12-.23,1-.4,2.08-.5,3.25-1.32,15.9,3.51,27.22,11.11,35.25-2.53-.39-12.37-1.74-21.82-5.69-17.31-7.24-18.86-17.87-18.86-17.87l-.4-3.61s-1.41,1.57-1.33,3.9c.1,2.33,1.77,14.63,19.13,21,15.27,5.61,26.54,7.36,29.16,7.51,19.43,14.58,48.56,14.56,50.24,14.55,1.68.01,30.81.03,50.24-14.55,2.62-.15,13.9-1.9,29.16-7.51,17.36-6.36,19.04-18.66,19.13-21,.09-2.33-1.32-3.9-1.32-3.9l-.4,3.61s-1.56,10.62-18.87,17.87c-9.44,3.95-19.29,5.3-21.82,5.69,7.6-8.04,12.43-19.35,11.11-35.25-.1-1.17-.27-2.25-.49-3.25,5.52-.82,16.23-2.98,24.15-8.12,11.12-7.23,12.65-13.35,13.34-15.79Z"/>
          <path d="M226.93,136.94c.98-3.96.63-7.78-1.1-11.46-.8-1.7-2.41-3.29-4.03-4.22-3.09-1.78-6.6-1.55-9.7.03-4.58,2.33-5.29,7.98-5.85,12.49.42-1.56.84-3.11,1.27-4.67-.72,1.38-1.65,2.66-2.59,3.88.48-.62.96-1.25,1.45-1.88-1.98,2.54-4.24,4.8-6.77,6.79.62-.48,1.25-.96,1.88-1.45-2.33,1.79-4.81,3.28-7.5,4.43.73-.3,1.48-.62,2.21-.94-6.29,2.65-13.09,4.12-19.81,5.18,3.49,1.42,6.98,2.84,10.46,4.25-5.31-8.97-15.38-11.75-25.2-11.9-10.32-.16-20.66,1.97-30.85,3.36.82-.12,1.64-.22,2.46-.33-6.46.86-12.96,1.6-19.48,1.62-6.52.02-13.04-.76-19.49-1.62.82.11,1.65.21,2.46.33-10.2-1.39-20.51-3.45-30.85-3.36-9.8.09-19.9,2.97-25.19,11.9,3.49-1.41,6.98-2.83,10.46-4.25-6.72-1.06-13.51-2.53-19.81-5.18.74.32,1.48.63,2.21.94-2.7-1.15-5.17-2.64-7.5-4.43.63.48,1.25.97,1.88,1.45-2.53-1.99-4.79-4.25-6.77-6.79.48.63.97,1.25,1.45,1.88-.94-1.22-1.86-2.51-2.58-3.88.42,1.56.84,3.11,1.27,4.67-.38-3.02-.68-6.32-2.35-8.97-2.86-4.55-8.59-6.2-13.36-3.46-3.9,2.25-5.07,6.43-5.54,10.56-.28,2.41.43,5.07,1.31,7.36.94,2.45,2.01,4.76,3.57,6.88,9.09,12.28,23.62,18.53,38.33,20.97.44.07.87.13,1.3.2-2.15-3.8-4.32-7.6-6.47-11.39-1.93,8.8-1.32,18.73,1.25,27.34,2.26,7.57,6.34,14.43,11.74,20.19,3.01-5.17,6.01-10.32,9.01-15.49-7.46-1.14-14.82-2.8-21.82-5.7.74.31,1.48.62,2.22.94-3.53-1.5-6.92-3.32-9.98-5.64.63.48,1.25.96,1.88,1.45-1.99-1.55-3.83-3.28-5.39-5.27.49.62.97,1.25,1.45,1.88-1.08-1.42-2.04-2.93-2.74-4.58.31.74.62,1.48.93,2.22-.32-.76-.64-1.57-.76-2.39.11.82.22,1.64.33,2.46-.13-1.21-.27-2.41-.39-3.61-.01-1.67-.43-3.23-1.27-4.68-.82-1.39-1.93-2.5-3.32-3.33-3.41-2-8.51-1.65-11.23,1.45-7.98,9.12-2.51,21.97,4.61,29.68,5.31,5.76,12.46,9.02,19.71,11.58,6.38,2.24,12.89,4.12,19.5,5.49,3.19.66,6.45,1.27,9.7,1.47-1.56-.42-3.12-.84-4.68-1.26,10.39,7.74,23.38,11.94,36.05,14.04,6.45,1.06,13.05,1.84,19.62,1.77,7.46-.08,15-1.06,22.3-2.54,11.21-2.27,22.62-6.4,31.86-13.27-1.56.42-3.12.84-4.68,1.26,4.4-.27,8.84-1.22,13.13-2.23,7.75-1.82,15.47-4.21,22.78-7.35,9.88-4.26,19.03-13.01,21.1-23.95.26-1.37.47-2.78.55-4.18.21-3.89-1.53-7.64-4.04-10.51-2.13-2.44-5.99-3.21-9.01-2.38-1.56.44-2.93,1.23-4.09,2.38-1.88,1.89-2.43,4-2.71,6.55-.13,1.21-.27,2.41-.4,3.61.11-.82.22-1.64.33-2.46-.13.82-.44,1.63-.76,2.39.31-.74.62-1.48.93-2.22-.7,1.65-1.65,3.17-2.74,4.58.48-.62.96-1.25,1.45-1.88-1.56,1.99-3.39,3.72-5.38,5.27.62-.49,1.25-.96,1.87-1.45-3.06,2.32-6.44,4.14-9.98,5.64.74-.32,1.47-.63,2.21-.94-7,2.9-14.36,4.55-21.82,5.7,3.01,5.17,6.01,10.32,9.02,15.49,5.35-5.71,9.26-12.38,11.63-19.83,1.33-4.19,1.95-8.62,2.27-12.98.36-4.86.14-9.96-.91-14.71-2.16,3.8-4.32,7.6-6.47,11.39,9.98-1.49,20.12-4.59,28.43-10.46,7.15-5.05,13.1-11.34,15.52-19.92,1.37-4.86-1.62-10.06-6.47-11.39-4.89-1.35-10.03,1.62-11.4,6.47-.27.96-.57,1.9-.95,2.81.31-.73.62-1.47.94-2.21-.69,1.58-1.58,3.04-2.62,4.4.49-.62.97-1.24,1.45-1.87-1.79,2.3-3.93,4.28-6.22,6.06.62-.48,1.25-.96,1.88-1.44-3.07,2.35-6.34,4.31-9.9,5.83.74-.31,1.48-.62,2.22-.94-5.68,2.4-11.72,3.88-17.81,4.8-2.25.34-4.45,2.39-5.54,4.26-1.3,2.23-1.48,4.66-.93,7.14.13.6.24,1.2.33,1.79-.11-.82-.22-1.64-.33-2.46.6,4.54.51,9.23-.1,13.76.11-.82.22-1.64.33-2.46-.54,3.79-1.51,7.47-2.99,10.99.31-.73.62-1.47.94-2.21-1.37,3.19-3.13,6.17-5.25,8.92.48-.62.96-1.25,1.45-1.88-.83,1.05-1.69,2.07-2.61,3.04-2.86,3.05-3.6,7.55-1.45,11.23.83,1.39,1.93,2.5,3.33,3.32,2.34,1.38,4.57,1.33,7.14.94,13.64-2.1,27.68-6.11,38.12-15.59,3.82-3.47,6.53-7.69,8.43-12.44.99-2.48,1.02-5.25,1.31-7.88,0-.07.01-.13.02-.2-5.27,2.18-10.55,4.37-15.82,6.55.04.05.09.11.13.16-.48-.63-.97-1.25-1.45-1.88.28.37.5.77.7,1.18-.31-.74-.62-1.47-.93-2.21.23.56.38,1.11.47,1.72-.11-.82-.22-1.64-.33-2.46.05.62.01,1.2-.06,1.81.11-.82.22-1.64.33-2.46-.23,1.7-.73,3.37-1.4,4.95.31-.74.62-1.47.94-2.21-.79,1.81-1.8,3.49-3,5.06.48-.63.96-1.25,1.45-1.88-1.37,1.74-2.94,3.27-4.68,4.64.63-.48,1.25-.96,1.88-1.45-2.43,1.87-5.09,3.35-7.9,4.57.74-.31,1.48-.62,2.21-.94-5.83,2.44-11.99,4.25-18.1,5.81-3.74.96-7.54,1.8-11.37,2.32.82-.12,1.64-.22,2.46-.33-.56.07-1.12.14-1.67.18-2.39.17-4.16.87-6.04,2.2-.74.53-1.51,1.03-2.29,1.53-2.96,1.87-6.1,3.44-9.31,4.81.74-.31,1.48-.62,2.21-.94-7.74,3.24-15.95,5.21-24.25,6.33.82-.12,1.64-.22,2.46-.33-8.81,1.16-17.4,1.16-26.2,0,.82.11,1.64.21,2.46.33-8.3-1.12-16.52-3.1-24.26-6.33.74.31,1.48.62,2.21.94-3.22-1.37-6.34-2.96-9.31-4.81-.67-.42-1.32-.86-1.96-1.3-.33-.22-.65-.46-.97-.68-1.62-1.17-3.32-1.61-5.31-1.73-.59-.04-1.17-.11-1.76-.18.82.11,1.64.21,2.46.33-3.83-.52-7.62-1.37-11.37-2.32-6.11-1.55-12.28-3.38-18.11-5.81.74.31,1.48.62,2.22.94-2.81-1.22-5.47-2.7-7.9-4.57.62.48,1.25.96,1.88,1.45-1.73-1.37-3.31-2.9-4.67-4.64.48.62.96,1.25,1.45,1.88-1.2-1.56-2.22-3.25-3-5.06.31.74.62,1.47.94,2.21-.67-1.58-1.17-3.24-1.4-4.95.11.82.21,1.64.33,2.46-.08-.61-.1-1.19-.06-1.81-.11.82-.23,1.64-.33,2.46.08-.61.24-1.15.47-1.72-.31.74-.62,1.47-.94,2.21.2-.42.42-.81.7-1.18-.48.62-.97,1.25-1.45,1.88.04-.05.08-.11.13-.16-5.27-2.18-10.54-4.37-15.82-6.55.29,2.57.32,5.28,1.21,7.74,1.67,4.65,4.37,8.7,7.9,12.17,5.77,5.67,13.13,9.25,20.68,11.93,5.72,2.02,11.68,3.29,17.67,4.2.14.02.28.05.43.06,1.65.45,3.29.45,4.92,0,2.31-.63,4.32-2.19,5.54-4.25,2.16-3.68,1.41-8.18-1.45-11.23-.91-.98-1.78-1.99-2.61-3.04.49.63.97,1.25,1.46,1.88-2.12-2.75-3.88-5.73-5.25-8.92.31.73.62,1.47.93,2.21-1.47-3.52-2.45-7.2-2.98-10.99.11.82.22,1.65.34,2.46-.61-4.53-.7-9.22-.1-13.76-.11.82-.22,1.64-.33,2.46.09-.6.2-1.2.33-1.79.54-2.48.37-4.91-.94-7.14-1.08-1.87-3.29-3.92-5.53-4.26-6.09-.91-12.12-2.4-17.81-4.8.73.31,1.47.62,2.21.94-3.56-1.52-6.82-3.48-9.9-5.83.62.48,1.25.96,1.87,1.44-2.29-1.79-4.42-3.76-6.22-6.06.49.63.97,1.25,1.45,1.87-1.04-1.36-1.93-2.82-2.62-4.4.31.74.62,1.48.94,2.21-.5-1.18-.92-2.42-1.13-3.68.11.82.22,1.64.33,2.46-.08-.71-.08-1.39,0-2.1-.11.82-.23,1.64-.33,2.46.08-.47.19-.91.35-1.36-.3.74-.62,1.48-.93,2.21.07-.17.16-.34.26-.49-.48.62-.97,1.25-1.45,1.88.08-.13.18-.23.29-.32-.62.48-1.25.97-1.87,1.45.05-.03.1-.06.15-.09-.74.31-1.48.63-2.21.94.05-.01.11-.02.16-.04h-4.92s.06,0,.1.01c-.74-.31-1.48-.62-2.22-.94.03.02.07.04.1.06-.63-.49-1.25-.97-1.88-1.46.08.05.14.12.19.2-.48-.63-.96-1.25-1.45-1.88.1.16.17.31.25.48-.31-.74-.63-1.48-.94-2.22.44,1.17.65,2.42.81,3.66-.11-.83-.22-1.64-.32-2.46.27,2.06.33,3.05,1.32,4.91.13.24.27.47.4.71.65,1.08,1.37,2.1,2.14,3.1,3.7,4.81,7.82,8.83,12.97,12.14,4.4,2.83,9.59,4.58,14.6,5.96,3.96,1.1,8,1.91,12.06,2.55,1.64.44,3.28.44,4.92,0,2.33-.64,4.31-2.19,5.54-4.26.31-.51.64-1.01,1.01-1.48-.48.62-.97,1.25-1.45,1.88.62-.78,1.31-1.47,2.1-2.09-.63.48-1.25.96-1.88,1.45,1-.77,2.09-1.38,3.25-1.89-.74.3-1.48.62-2.21.93,1.88-.78,3.86-1.24,5.87-1.52-.82.11-1.64.22-2.46.34,7.07-.92,14.31.06,21.32.99-.83-.1-1.65-.21-2.47-.33,11.28,1.53,22.58,3.6,34,3.64,11.39.03,22.74-2.12,33.99-3.64-.82.12-1.64.23-2.46.33,7.01-.94,14.25-1.91,21.32-.99-.82-.12-1.64-.23-2.47-.34,2.02.28,3.99.74,5.87,1.52-.73-.32-1.47-.63-2.21-.93,1.15.5,2.25,1.11,3.25,1.89-.63-.48-1.25-.97-1.88-1.45.78.62,1.47,1.31,2.1,2.09-.48-.62-.96-1.25-1.45-1.88.36.47.69.97,1,1.48.82,1.39,1.93,2.5,3.33,3.33,2.33,1.36,4.57,1.34,7.14.94,9.08-1.44,18.77-3.58,26.66-8.52,4.34-2.72,8.35-6.21,11.52-10.26,1.22-1.58,2.46-3.15,3.51-4.86.16-.25.3-.51.45-.78.98-1.78,1.08-2.96,1.35-4.95-.11.82-.22,1.64-.33,2.46.17-1.24.37-2.49.81-3.66-.31.74-.62,1.48-.93,2.22.08-.17.15-.33.25-.48-.49.62-.97,1.25-1.45,1.88.05-.07.11-.14.18-.2-.62.48-1.24.96-1.87,1.46.03-.02.06-.04.1-.06-.74.31-1.47.62-2.21.94.03,0,.07-.01.1-.01h-4.93c.05.01.11.02.16.04-.74-.31-1.47-.62-2.21-.94.05.04.1.06.15.09-.62-.48-1.25-.97-1.88-1.45.12.09.22.2.29.32-.48-.63-.96-1.25-1.45-1.88.1.15.18.31.26.49-.31-.73-.63-1.47-.94-2.21.17.44.27.89.35,1.36-.1-.83-.21-1.64-.33-2.46.08.71.08,1.39,0,2.1.11-.82.22-1.64.33-2.46-.04.29-.1.59-.18.87-1.2,4.9,1.5,10.03,6.47,11.4,4.76,1.32,10.19-1.56,11.39-6.47Z"/>
        </g>
        <path class="st2" d="M218,134.48c.69-2.44-.13-5.22-1.03-5.26-.9-.05-1.46,4.55-1.46,4.55,0,0-3.98,7.76-13.01,13.19-6.76,4.06-18.29,6.25-23.66,7.09-8.5-14.71-39.42-2.7-65.06-2.67-25.65-.03-56.57-12.04-65.07,2.67-5.36-.84-16.9-3.04-23.65-7.09-9.03-5.42-13.01-13.19-13.01-13.19,0,0-.57-4.6-1.47-4.55-.9.04-1.72,2.82-1.02,5.26.69,2.44,2.22,8.57,13.34,15.79,7.91,5.14,18.62,7.3,24.15,8.12-.23,1-.4,2.08-.5,3.25-1.32,15.9,3.51,27.22,11.11,35.25-2.53-.39-12.37-1.74-21.82-5.69-17.31-7.24-18.86-17.87-18.86-17.87l-.4-3.61s-1.41,1.57-1.33,3.9c.1,2.33,1.77,14.63,19.13,21,15.27,5.61,26.54,7.36,29.16,7.51,19.43,14.58,48.56,14.56,50.24,14.55,1.68.01,30.81.03,50.24-14.55,2.62-.15,13.9-1.9,29.16-7.51,17.36-6.36,19.04-18.66,19.13-21,.09-2.33-1.32-3.9-1.32-3.9l-.4,3.61s-1.56,10.62-18.87,17.87c-9.44,3.95-19.29,5.3-21.82,5.69,7.6-8.04,12.43-19.35,11.11-35.25-.1-1.17-.27-2.25-.49-3.25,5.52-.82,16.23-2.98,24.15-8.12,11.12-7.23,12.65-13.35,13.34-15.79Z"/>
        <g>
          <path class="st5" d="M181.01,166.36c.08.93.13,1.84.17,2.73.08-1.95.06-3.97-.07-6.07-.2.03-.4.06-.59.09.23,1,.4,2.09.49,3.25Z"/>
          <path class="st6" d="M22.9,150.27c7.91,5.14,18.62,7.3,24.15,8.12,0,.04-.01.07-.02.1.61.1,1.17.2,1.68.28,8.51-14.7,39.42-2.7,65.07-2.67,25.64-.03,56.56-12.04,65.06,2.67.51-.08,1.07-.17,1.69-.28,0-.04-.01-.07-.02-.1,5.52-.82,16.23-2.98,24.15-8.12,17.2-11.14,13.85-21.24,12.31-21.05-.9.1-1.46,4.55-1.46,4.55,0,0-3.98,7.76-13.01,13.19-6.76,4.06-18.29,6.25-23.66,7.09-8.5-14.71-39.42-2.7-65.06-2.67-25.65-.03-56.57-12.04-65.07,2.67-5.36-.84-16.9-3.04-23.65-7.09-9.03-5.42-13.01-13.19-13.01-13.19,0,0-.57-4.53-1.47-4.55-1.37-.04-4.97,10.03,12.32,21.05Z"/>
          <path class="st5" d="M46.38,169.09c.04-.89.09-1.8.17-2.73.1-1.16.27-2.25.5-3.25-.19-.02-.39-.06-.6-.09-.13,2.1-.14,4.12-.07,6.07Z"/>
          <path class="st5" d="M210.58,173.33s-1.56,10.62-18.87,17.87c-6.47,2.71-13.12,4.19-17.48,4.99-1.19,1.78-2.51,3.45-3.93,4.98,5.29-1.03,13.29-3.04,22.87-6.55,3.28-1.2,6-2.62,8.26-4.13,8.23-6.18,9.15-12.44,9.15-12.44l.4-3.61s.57.63.96,1.68c.27-1.15.35-2.03.37-2.5.09-2.33-1.32-3.9-1.32-3.9l-.4,3.61Z"/>
          <path class="st5" d="M35.84,191.2c-17.31-7.24-18.86-17.87-18.86-17.87l-.4-3.61s-1.41,1.57-1.33,3.9c.02.47.1,1.35.37,2.5.39-1.05.96-1.68.96-1.68l.4,3.61s.91,6.26,9.15,12.44c2.26,1.52,4.97,2.94,8.25,4.13,9.59,3.52,17.59,5.52,22.87,6.55-1.41-1.54-2.73-3.2-3.92-4.98-4.36-.8-11.02-2.28-17.49-4.99Z"/>
        </g>
        <path class="st4" d="M210.58,173.33s-1.56,10.62-18.87,17.87c-9.44,3.95-19.29,5.3-21.82,5.69,3.27-3.46,6.03-7.53,8.01-12.31,0,0-20.23,17.25-64.13,17.25s-64.13-17.25-64.13-17.25c1.98,4.78,4.73,8.85,8.01,12.31-2.53-.39-12.37-1.74-21.82-5.69-17.31-7.24-18.86-17.87-18.86-17.87l-.4-3.61s-1.41,1.57-1.33,3.9c.1,2.33,1.77,14.63,19.13,21,15.27,5.61,26.54,7.36,29.16,7.51,19.43,14.58,48.56,14.56,50.24,14.55,1.68.01,30.81.03,50.24-14.55,2.62-.15,13.9-1.9,29.16-7.51,17.36-6.36,19.04-18.66,19.13-21,.09-2.33-1.32-3.9-1.32-3.9l-.4,3.61Z"/>
      </g>
      <g>
        <g>
          <path class="st4" d="M116.83,169.07c0,1.92-1.55,3.49-3.48,3.49s-3.48-1.56-3.48-3.49,1.56-3.49,3.48-3.49,3.48,1.56,3.48,3.49Z"/>
          <g>
            <path class="st4" d="M81.53,169.07c0,1.92-1.55,3.49-3.48,3.49s-3.48-1.56-3.48-3.49,1.56-3.49,3.48-3.49,3.48,1.56,3.48,3.49Z"/>
            <path class="st4" d="M152.14,169.07c0,1.92-1.56,3.49-3.49,3.49s-3.48-1.56-3.48-3.49,1.56-3.49,3.48-3.49,3.49,1.56,3.49,3.49Z"/>
          </g>
        </g>
        <g>
          <path class="st4" d="M116.83,189.01c0,1.92-1.55,3.48-3.48,3.48s-3.48-1.56-3.48-3.48,1.56-3.49,3.48-3.49,3.48,1.56,3.48,3.49Z"/>
          <g>
            <path class="st4" d="M81.53,189.01c0,1.92-1.55,3.48-3.48,3.48s-3.48-1.56-3.48-3.48,1.56-3.49,3.48-3.49,3.48,1.56,3.48,3.49Z"/>
            <path class="st4" d="M152.14,189.01c0,1.92-1.56,3.48-3.49,3.48s-3.48-1.56-3.48-3.48,1.56-3.49,3.48-3.49,3.49,1.56,3.49,3.49Z"/>
          </g>
        </g>
      </g>
    </g>
    <g>
      <g>
        <g>
          <path class="st3" d="M76.13,122.3c0,6.41-5.2,11.62-11.62,11.62s-11.62-5.2-11.62-11.62,5.21-11.62,11.62-11.62,11.62,5.2,11.62,11.62Z"/>
          <path d="M74.14,122.3c-.09,5.32-4.31,9.55-9.63,9.63-5.32.09-9.55-4.44-9.63-9.63-.08-5.32,4.44-9.55,9.63-9.63,5.32-.09,9.55,4.44,9.63,9.63.04,2.55,4.01,2.56,3.97,0-.1-6.3-4.4-11.8-10.56-13.27-6.13-1.45-12.63,1.77-15.33,7.42-2.76,5.8-.98,12.81,4.09,16.69,5.12,3.92,12.15,3.46,17.05-.53,3.05-2.48,4.69-6.44,4.75-10.31.04-2.56-3.93-2.56-3.97,0Z"/>
        </g>
        <path class="st8" d="M72.87,119.24c0,1.58-1.28,2.85-2.85,2.85s-2.85-1.28-2.85-2.85,1.28-2.86,2.85-2.86,2.85,1.28,2.85,2.86Z"/>
      </g>
      <path class="st7" d="M52.15,134.13c.29,2.11-3.35,4.35-8.14,5-4.78.65-8.89-.54-9.18-2.65-.28-2.11,3.36-4.35,8.14-5.01,4.79-.65,8.88.54,9.17,2.66Z"/>
    </g>
    <g>
      <g>
        <g>
          <path class="st3" d="M174,122.3c0,6.41-5.2,11.62-11.62,11.62s-11.62-5.2-11.62-11.62,5.2-11.62,11.62-11.62,11.62,5.2,11.62,11.62Z"/>
          <path d="M172.01,122.3c-.09,5.32-4.31,9.55-9.63,9.63-5.32.09-9.55-4.44-9.63-9.63-.08-5.32,4.44-9.55,9.63-9.63,5.33-.09,9.55,4.44,9.63,9.63.04,2.55,4.01,2.56,3.97,0-.09-6.3-4.39-11.8-10.55-13.27-6.14-1.45-12.63,1.77-15.33,7.42-2.76,5.8-.98,12.81,4.09,16.69,5.12,3.92,12.15,3.46,17.05-.53,3.06-2.48,4.69-6.44,4.74-10.31.05-2.56-3.93-2.56-3.97,0Z"/>
        </g>
        <path class="st8" d="M170.74,119.24c0,1.58-1.28,2.85-2.85,2.85s-2.85-1.28-2.85-2.85,1.28-2.86,2.85-2.86,2.85,1.28,2.85,2.86Z"/>
      </g>
      <path class="st7" d="M174.74,134.13c-.29,2.11,3.35,4.35,8.13,5,4.78.65,8.88-.54,9.18-2.65.28-2.11-3.36-4.35-8.13-5.01-4.78-.65-8.89.54-9.18,2.66Z"/>
    </g>
  </g>
  <g>
    <path class="st8" d="M172,35.75c8.63,4.51,13.9,11.48,11.77,15.56-2.14,4.09-10.87,3.74-19.5-.77-8.64-4.51-13.9-11.48-11.77-15.56,2.13-4.08,10.86-3.74,19.5.77Z"/>
    <path class="st8" d="M192.49,56.69c0,2-1.62,3.61-3.61,3.61s-3.61-1.62-3.61-3.61,1.61-3.61,3.61-3.61,3.61,1.62,3.61,3.61Z"/>
  </g>
</svg>