<?xml version="1.0" encoding="UTF-8"?>
<svg id="Layer_1" xmlns="http://www.w3.org/2000/svg" version="1.1" viewBox="0 0 257.25 318.5">
  <!-- Generator: Adobe Illustrator 29.6.1, SVG Export Plug-In . SVG Version: 2.1.1 Build 9)  -->
  <defs>
    <style>
      .st0 {
        fill: #afaaac;
      }

      .st1 {
        fill: #ffd7c3;
      }

      .st2 {
        fill: #561a05;
      }

      .st3 {
        fill: #2a2a2b;
      }

      .st4 {
        fill: #000002;
      }

      .st5 {
        fill: #fffcd2;
      }

      .st6 {
        fill: #414042;
      }

      .st7 {
        fill: #231f20;
      }

      .st8 {
        fill: #ff9d00;
      }

      .st9 {
        fill: #ed1c24;
      }

      .st10 {
        fill: #f1f2f2;
      }

      .st11 {
        fill: #f38b9e;
      }

      .st12 {
        fill: #6f2a0e;
      }

      .st13 {
        fill: #be1e2d;
      }

      .st14 {
        fill: #fff;
      }

      .st15 {
        fill: #161213;
      }

      .st16 {
        fill: #ffa300;
      }

      .st17 {
        fill: #fdc361;
      }

      .st18 {
        fill: #fde5d2;
      }

      .st19 {
        fill: #fff8d4;
      }

      .st20 {
        fill: #a13c12;
      }

      .st21 {
        fill: #fd0;
      }

      .st22 {
        fill: #ffc0a4;
      }

      .st23 {
        fill: #9a9a9b;
      }

      .st24 {
        fill: #ffd401;
      }

      .st25 {
        fill: #ffcad5;
      }

      .st26 {
        fill: #1c75bc;
      }
    </style>
  </defs>
  <polygon class="st25" points="126.4 228.33 122.6 233.76 119.12 239.97 126.8 244.36 121.35 239.1 123.92 234.36 127.34 229.42 126.4 228.33"/>
  <g>
    <g>
      <path class="st1" d="M98.81,236.13s-28.9,34.33-16.36,41.73c12.54,7.41,30.09-24.68,30.09-24.68l-13.73-17.05Z"/>
      <path d="M96.21,233.52c-3.49,4.14-6.72,8.53-9.75,13.01-4.75,7.02-9.6,14.87-10.73,23.42-.46,3.51.43,7.42,3.16,9.84,3.32,2.93,7.98,3.53,12.09,2.06,4.29-1.55,7.9-4.58,11.03-7.82,3.2-3.31,6.01-7.02,8.61-10.81,1.82-2.63,3.56-5.36,5.11-8.17.87-1.59.5-3.13-.57-4.47-4.58-5.69-9.16-11.37-13.73-17.05-1.26-1.57-3.91-1.31-5.22,0-1.54,1.54-1.26,3.65,0,5.22,4.58,5.68,9.15,11.37,13.73,17.05-.19-1.5-.38-2.98-.57-4.47-.87,1.59-1.83,3.15-2.81,4.69-1,1.59-2.05,3.15-3.14,4.69-.59.84-1.2,1.67-1.81,2.49-.16.21-.32.42-.48.62.59-.77.03-.04-.08.1-.39.5-.79.98-1.19,1.47-1.43,1.73-2.95,3.39-4.57,4.94-.74.71-1.52,1.39-2.33,2.04-.68.55.65-.49-.04.03-.2.15-.4.29-.59.43-.45.32-.92.62-1.39.91-.39.24-.79.46-1.2.66-.2.1-.4.2-.6.29-.72.34.82-.33.08-.04-.39.16-.8.28-1.2.4-.35.1-1.94.33-.59.17-.39.05-.79.06-1.18.06-.2,0-.39-.02-.58-.04,1.18.11.5.07.21.02-.39-.07-.76-.19-1.13-.33-.72-.25.82.39.13.05-.24-.12-.48-.26-.7-.39-.96-.58.44.44-.18-.12-.24-.21-.45-.45-.65-.69.84,1.03.15.14-.02-.16-.53-.96.23.77-.1-.28-.1-.31-.16-.63-.23-.95-.12-.67.11,1.01.04.31-.02-.17-.03-.34-.03-.52-.02-.36-.01-.72,0-1.08.01-.34.22-1.89.02-.55.26-1.79.81-3.53,1.43-5.22.16-.45.35-.9.53-1.33-.44,1.06.19-.44.31-.69.45-1,.94-1.99,1.45-2.97,2-3.86,4.34-7.53,6.79-11.11,1.09-1.59,2.22-3.16,3.37-4.71.47-.65.96-1.29,1.44-1.92.12-.14.23-.29.33-.43.43-.55-.57.73-.15.19.23-.29.46-.6.7-.89.72-.92,1.44-1.82,2.19-2.71,1.29-1.54,1.52-3.7,0-5.22-1.33-1.33-3.92-1.54-5.22,0Z"/>
    </g>
    <path class="st6" d="M85.95,261.77l9.57,5.91,6.76-21.89-3.34-4.19s-5.52,6.85-7.36,9.75c-1.84,2.89-5.63,10.42-5.63,10.42Z"/>
    <g>
      <polygon class="st4" points="95.59 276.6 78.38 265.49 82.28 259.46 99.49 270.58 95.59 276.6"/>
      <path d="M95.84,277.72l-18.57-11.99,4.77-7.38,18.57,11.99-4.77,7.38ZM79.5,265.25l15.86,10.24,3.02-4.67-15.86-10.24-3.02,4.67Z"/>
    </g>
    <path class="st23" d="M88.97,260.63s3.8-7.54,5.64-10.43c1.17-1.83,3.8-5.24,5.57-7.49l-1.09-1.38s-5.52,6.86-7.37,9.74c-1.84,2.9-5.63,10.43-5.63,10.43l9.57,5.9-6.69-6.77Z"/>
  </g>
  <g>
    <g>
      <path class="st1" d="M178.65,236.13s28.9,34.33,16.36,41.73c-12.54,7.41-30.09-24.68-30.09-24.68l13.73-17.05Z"/>
      <path d="M181.26,233.52c3.49,4.14,6.72,8.53,9.76,13.01,4.75,7.02,9.6,14.87,10.73,23.42.46,3.51-.43,7.42-3.17,9.84-3.32,2.93-7.98,3.53-12.09,2.06-4.3-1.55-7.9-4.58-11.03-7.82-3.2-3.31-6.01-7.02-8.62-10.81-1.82-2.63-3.56-5.36-5.09-8.17-.88-1.59-.51-3.13.57-4.47,4.58-5.69,9.15-11.37,13.73-17.05,1.26-1.57,3.91-1.31,5.21,0,1.54,1.54,1.26,3.65,0,5.22-4.58,5.68-9.15,11.37-13.73,17.05.19-1.5.38-2.98.58-4.47.87,1.59,1.83,3.15,2.81,4.69,1,1.59,2.05,3.15,3.14,4.69.59.84,1.2,1.67,1.82,2.49.15.21.32.42.48.62-.59-.77-.03-.04.08.1.39.5.78.98,1.19,1.47,1.43,1.73,2.95,3.39,4.57,4.94.74.71,1.52,1.39,2.33,2.04.68.55-.66-.49.04.03.2.15.39.29.59.43.45.32.92.62,1.39.91.39.24.79.46,1.19.66.2.1.4.2.6.29.72.34-.81-.33-.09-.04.39.16.8.28,1.2.4.35.1,1.95.33.6.17.39.05.79.06,1.18.06.2,0,.39-.02.58-.04-1.18.11-.49.07-.21.02.39-.07.77-.19,1.14-.33.72-.25-.82.39-.13.05.24-.12.48-.26.7-.39.96-.58-.45.44.18-.12.24-.21.45-.45.65-.69-.84,1.03-.15.14.01-.16.53-.96-.23.77.11-.28.1-.31.17-.63.23-.95.12-.67-.11,1.01-.04.31.02-.17.03-.34.03-.52.02-.36.01-.72,0-1.08-.01-.34-.22-1.89-.02-.55-.26-1.79-.81-3.53-1.43-5.22-.16-.45-.34-.9-.53-1.33.44,1.06-.2-.44-.31-.69-.45-1-.95-1.99-1.45-2.97-2-3.86-4.34-7.53-6.79-11.11-1.1-1.59-2.22-3.16-3.37-4.71-.48-.65-.96-1.29-1.44-1.92-.11-.14-.22-.29-.33-.43-.43-.55.57.73.15.19-.23-.29-.46-.6-.7-.89-.72-.92-1.44-1.82-2.19-2.71-1.3-1.54-1.52-3.7,0-5.22,1.33-1.33,3.92-1.54,5.21,0Z"/>
    </g>
    <path class="st6" d="M191.52,261.77l-9.57,5.91-6.76-21.89,3.34-4.19s5.52,6.85,7.36,9.75c1.84,2.89,5.64,10.42,5.64,10.42Z"/>
    <g>
      <rect class="st4" x="178.28" y="264.45" width="20.49" height="7.17" transform="translate(-115.26 145.17) rotate(-32.86)"/>
      <path d="M181.63,277.72l-4.77-7.38,18.57-11.99,4.77,7.38-18.57,11.99ZM179.09,270.82l3.02,4.67,15.86-10.24-3.02-4.67-15.86,10.24Z"/>
    </g>
    <path class="st23" d="M188.5,260.63s-3.8-7.54-5.63-10.43c-1.17-1.83-3.8-5.24-5.58-7.49l1.09-1.38s5.52,6.86,7.37,9.74c1.84,2.9,5.64,10.43,5.64,10.43l-9.57,5.9,6.69-6.77Z"/>
  </g>
  <g>
    <path class="st6" d="M108.86,243.43h59.2s11.56,64.16,3.7,66.91c-7.87,2.75-15.15-9.79-15.15-9.79,0,0-5.8,1.77-15.84,2.08h0c-.75.03-1.53.04-2.31.04s-1.56,0-2.32-.03h0c-10.04-.32-15.82-2.08-15.82-2.08,0,0-7.29,12.53-15.16,9.79-7.86-2.75,3.71-66.91,3.71-66.91Z"/>
    <path d="M108.86,247.12h59.2c-1.19-.91-2.38-1.81-3.56-2.71.71,3.95,1.35,7.91,1.97,11.87.62,3.97,1.2,7.95,1.74,11.93.12.91-.12-.85,0,.05.03.27.07.53.1.79.07.53.14,1.06.21,1.59.14,1.15.29,2.31.43,3.47.28,2.24.53,4.48.76,6.72.78,7.6,1.59,15.45.86,23.08-.03.33-.06.65-.11.97.18-1.44.03-.27-.02.07-.1.57-.23,1.14-.39,1.7-.06.22-.14.44-.22.66-.26.7.48-1.01.08-.22-.08.17-.18.32-.28.48-.35.53.79-.86.16-.24-.45.43.96-.64.34-.28-.27.15-.76.27.62-.26-.27.1-.56.17-.85.24-.93.22.8-.05-.14.01-.28.02-.56,0-.83,0-.93-.05.81.15-.11-.02-.36-.08-.72-.19-1.07-.31-.89-.3.71.34-.16-.06-.25-.12-.51-.25-.76-.39-.51-.28-.99-.62-1.46-.95.73.52-.05-.06-.17-.15-.22-.18-.44-.38-.66-.57-.49-.45-.96-.92-1.42-1.41-.54-.57-1.05-1.18-1.56-1.81-.43-.53.47.64-.14-.18-.21-.27-.4-.55-.61-.83-.37-.54-.73-1.07-1.06-1.63-.82-1.41-2.59-2.18-4.17-1.7-1.3.4-2.66.65-4,.89-.73.13-1.46.25-2.18.36-1.15.17.76-.1-.46.06-.53.07-1.06.13-1.59.19-2.2.24-4.4.37-6.61.45-2.01.06-3.69,1.62-3.69,3.68h0c1.23-1.22,2.46-2.45,3.69-3.68-1.54.04-3.09.04-4.64,0,1.24,1.23,2.46,2.46,3.69,3.69h0c0-2.07-1.68-3.62-3.69-3.69-2.21-.08-4.41-.23-6.6-.45-.4-.04-.8-.09-1.2-.13-.25-.04-.51-.06-.76-.1.38.04.35.04-.09-.02-.73-.11-1.46-.22-2.18-.36-1.35-.24-2.7-.5-4.01-.89-1.58-.48-3.35.29-4.17,1.7-.53.92-1.16,1.79-1.8,2.65-.49.66.53-.67,0,0-.16.2-.32.4-.48.6-.34.41-.71.82-1.07,1.21-.38.43-.79.83-1.2,1.21-.21.2-.43.4-.65.59-.13.11-1.13.89-.39.33-.46.35-.96.66-1.45.95-.25.14-.5.27-.76.39-.86.43.73-.27-.16.06-.26.1-.53.17-.79.24-.19.05-1.11.19-.11.07-.27.03-.55.04-.83.04-.19,0-.37-.01-.56-.03.51.08.56.08.14,0-.74-.14-1.37-.58-.22.02-.64-.34.79.69.34.28-.6-.55.37.54.21.32-.13-.17-.23-.36-.33-.55-.4-.78.35.92.09.22-.09-.22-.16-.44-.22-.66-.16-.56-.28-1.13-.39-1.7-.06-.33-.21-1.51-.02-.07-.04-.33-.08-.65-.11-.97-.08-.77-.12-1.55-.16-2.33-.17-3.7-.01-7.42.22-11.12.27-4.38.7-8.76,1.19-13.12.25-2.23.52-4.47.81-6.7.07-.53.14-1.06.21-1.59.03-.27.07-.53.1-.79.12-.91-.11.85.01-.05.15-1.11.3-2.22.46-3.32.88-6.22,1.86-12.44,2.92-18.63.11-.62.22-1.24.33-1.85.36-1.97-.51-3.97-2.58-4.54-1.8-.5-4.18.6-4.54,2.58-2.26,12.53-4.1,25.18-5.42,37.85-.8,7.67-1.62,15.56-.96,23.27.22,2.55.52,5.62,2.02,7.8,2.97,4.3,9.1,3.43,13.09,1.1,3.91-2.28,7.2-6.17,9.47-10.04-1.39.57-2.78,1.12-4.17,1.7,5.36,1.62,11.25,2.02,16.81,2.21-1.23-1.22-2.46-2.46-3.69-3.69h0c0,2.06,1.68,3.65,3.69,3.7,1.55.04,3.09.04,4.64,0,2.02-.05,3.69-1.64,3.69-3.7h0c-1.23,1.22-2.46,2.46-3.69,3.68,5.56-.19,11.45-.58,16.81-2.21-1.39-.57-2.78-1.13-4.17-1.7,1.77,3.02,4.13,5.9,6.82,8.12,3.91,3.23,10.3,5.82,14.74,2.04,2.08-1.78,2.52-5.02,2.86-7.55.43-3.23.4-6.53.31-9.79-.27-8.68-1.28-17.34-2.4-25.94-.98-7.48-2.1-14.94-3.35-22.37-.25-1.5-.5-3-.77-4.5-.29-1.59-2.03-2.71-3.56-2.71h-59.2c-4.76,0-4.76,7.38,0,7.38Z"/>
  </g>
  <g>
    <g>
      <polygon class="st18" points="110.84 242.64 138.25 242.64 138.49 242.64 165.9 242.64 177.77 281.71 138.49 281.71 138.25 281.71 98.96 281.71 110.84 242.64"/>
      <path d="M110.84,250.03h55.05c-2.37-1.81-4.74-3.61-7.12-5.42,3.79,12.45,7.58,24.89,11.36,37.34.17.58.35,1.15.52,1.73,2.38-3.11,4.75-6.23,7.12-9.34h-78.81c2.37,3.11,4.74,6.23,7.11,9.34,3.79-12.45,7.57-24.9,11.36-37.35.17-.57.35-1.15.52-1.72,1.17-3.84-1.35-8.04-5.15-9.07-3.95-1.09-7.91,1.3-9.08,5.15-3.79,12.45-7.57,24.9-11.36,37.34-.18.58-.35,1.15-.52,1.72-1.41,4.61,2.41,9.34,7.11,9.34h78.81c4.7,0,8.52-4.73,7.12-9.34-3.78-12.45-7.57-24.89-11.36-37.35-.18-.57-.34-1.14-.52-1.72-.95-3.16-3.77-5.42-7.12-5.42h-55.05c-4.02,0-7.38,3.35-7.38,7.38s3.36,7.38,7.38,7.38Z"/>
    </g>
    <polygon class="st14" points="110.84 242.64 138.25 242.64 138.49 242.64 165.9 242.64 177.77 281.71 138.49 281.71 138.25 281.71 98.96 281.71 110.84 242.64"/>
  </g>
  <polygon class="st10" points="166.4 244.2 177.77 281.71 146.81 281.71 172.1 278.01 166.4 244.2"/>
  <polygon class="st10" points="110.35 244.2 98.98 281.71 129.94 281.71 104.65 278.01 110.35 244.2"/>
  <polygon class="st3" points="170.55 290.11 170.83 294.75 106.19 294.75 106.47 290.11 170.55 290.11"/>
  <g>
    <polygon class="st6" points="139.08 262.16 139.08 288.66 183.62 288.66 171.15 240.24 139.08 262.16"/>
    <path d="M135.39,262.16v26.5c0,2.01,1.68,3.69,3.69,3.69h44.54c2.42,0,4.15-2.35,3.56-4.67-3.34-12.94-6.67-25.88-10-38.82-.83-3.2-1.65-6.4-2.48-9.6-.56-2.19-3.45-3.55-5.42-2.21-10.48,7.16-20.96,14.34-31.45,21.5-.21.14-.42.29-.62.43-1.66,1.13-2.4,3.22-1.33,5.05.96,1.64,3.39,2.46,5.06,1.33,10.48-7.17,20.97-14.33,31.45-21.5.21-.15.41-.29.62-.43-1.8-.73-3.61-1.46-5.42-2.21,3.33,12.94,6.67,25.89,10,38.83.83,3.2,1.65,6.4,2.47,9.6,1.19-1.55,2.37-3.11,3.56-4.67h-44.54c1.23,1.23,2.45,2.46,3.69,3.69v-26.5c0-4.76-7.38-4.76-7.38,0Z"/>
  </g>
  <g>
    <polygon class="st6" points="138.89 262.16 138.89 288.66 94.35 288.66 106.82 240.24 138.89 262.16"/>
    <path d="M135.2,262.16v26.5c1.23-1.22,2.47-2.45,3.69-3.69h-44.54c1.18,1.56,2.37,3.12,3.56,4.67,3.33-12.94,6.66-25.88,10-38.82.81-3.2,1.64-6.4,2.47-9.61-1.81.75-3.61,1.48-5.42,2.21,10.49,7.18,20.97,14.34,31.45,21.51.21.14.42.28.62.42,1.66,1.13,4.09.32,5.05-1.33,1.07-1.82.33-3.91-1.33-5.05-10.48-7.17-20.97-14.33-31.45-21.5-.2-.14-.41-.29-.61-.43-1.97-1.34-4.85.01-5.42,2.21-3.33,12.94-6.67,25.88-10,38.82-.82,3.2-1.64,6.4-2.47,9.6-.6,2.32,1.13,4.67,3.56,4.67h44.54c2.01,0,3.69-1.67,3.69-3.69v-26.5c0-4.76-7.38-4.76-7.38,0Z"/>
  </g>
  <g>
    <polygon class="st9" points="138.99 257.9 138.99 244.16 134.09 244.16 131.91 252.97 138.99 257.9"/>
    <polygon class="st13" points="138.99 257.9 138.99 244.16 143.88 244.16 146.06 252.97 138.99 257.9"/>
    <g>
      <rect class="st4" x="124.02" y="245.95" width="10.83" height="4.6" transform="translate(-142.43 315.15) rotate(-76.29)"/>
      <path d="M130.75,252.76c-1.49-.36-2.99-.72-4.48-1.09.31.55.63,1.1.94,1.65.85-3.51,1.7-7.02,2.55-10.52-.55.31-1.1.62-1.65.94,1.49.36,2.98.73,4.48,1.09-.31-.55-.63-1.1-.94-1.65-.85,3.51-1.7,7.02-2.56,10.52-.42,1.69,2.18,2.4,2.59.72.85-3.51,1.7-7.02,2.56-10.52.17-.69-.21-1.48-.94-1.65-1.49-.36-2.98-.73-4.47-1.09-.7-.17-1.48.21-1.65.94-.86,3.5-1.71,7.01-2.56,10.52-.17.69.21,1.47.94,1.66,1.5.36,2.98.72,4.47,1.09,1.68.4,2.4-2.18.72-2.59Z"/>
    </g>
    <g>
      <rect class="st4" x="146.32" y="242.84" width="4.61" height="10.83" transform="translate(-54.59 42.28) rotate(-13.71)"/>
      <path d="M148.02,255.35c1.5-.37,2.98-.73,4.48-1.09.72-.18,1.1-.96.94-1.66-.85-3.5-1.7-7.01-2.56-10.52-.18-.73-.96-1.11-1.65-.94-1.49.36-2.98.73-4.48,1.09-.72.17-1.1.96-.94,1.65.85,3.5,1.71,7.01,2.56,10.52.41,1.68,3,.96,2.59-.72-.85-3.5-1.7-7.01-2.55-10.52-.31.55-.63,1.1-.93,1.65,1.49-.36,2.98-.73,4.48-1.09-.55-.31-1.1-.62-1.65-.94.85,3.5,1.7,7.01,2.55,10.52.31-.55.62-1.1.94-1.65-1.49.36-2.98.72-4.48,1.09-1.68.41-.97,3,.71,2.59Z"/>
    </g>
  </g>
  <g>
    <g>
      <path class="st17" d="M151.15,276.33c0,.66-.53,1.18-1.19,1.18s-1.19-.53-1.19-1.18.53-1.19,1.19-1.19,1.19.53,1.19,1.19Z"/>
      <path d="M147.79,276.33s0,.08,0,.13c.04-.3.08-.59.12-.89-.02.13-.05.24-.1.36.12-.27.23-.53.34-.8-.03.07-.08.14-.12.21.17-.23.35-.45.52-.68-.08.1-.16.18-.26.26.23-.17.45-.35.68-.53-.07.05-.14.09-.21.12.27-.11.53-.22.8-.34-.12.06-.23.08-.36.11.3-.05.59-.09.89-.12-.08,0-.17,0-.26,0,.3.04.59.07.89.12-.13-.03-.24-.05-.36-.11.27.12.53.23.8.34-.08-.03-.14-.07-.21-.12.23.17.46.35.68.53-.1-.08-.18-.16-.26-.26.18.23.36.46.53.68-.05-.06-.09-.14-.12-.21.12.27.23.53.33.8-.05-.12-.08-.23-.1-.36.05.3.08.59.13.89-.01-.08-.01-.17,0-.26-.05.3-.08.6-.13.89.02-.13.05-.24.1-.36-.11.27-.22.53-.33.8.03-.08.08-.15.12-.21-.17.22-.35.45-.53.68.08-.1.16-.18.26-.26-.23.17-.45.35-.68.53.07-.04.14-.09.21-.13-.27.11-.53.23-.8.34.12-.05.23-.07.36-.09-.3.04-.59.08-.89.12.09,0,.18,0,.26,0-.29-.04-.59-.09-.89-.12.13.02.24.05.36.09-.27-.1-.53-.23-.8-.34.07.04.14.08.21.13-.23-.18-.45-.35-.68-.53.1.08.18.16.26.26-.18-.23-.35-.46-.52-.68.04.06.09.13.12.21-.11-.27-.23-.54-.34-.8.05.12.08.23.1.36-.04-.29-.08-.59-.12-.89,0,.05,0,.09,0,.13.1,1.82,1.45,3.35,3.35,3.35,1.75,0,3.45-1.53,3.35-3.35-.02-.46-.05-.95-.23-1.39-.32-.81-.5-1.09-1.06-1.79-.77-.94-2.1-1.31-3.26-1.37-1.22-.07-2.27.55-3.17,1.28-.94.77-1.31,2.1-1.38,3.26-.07,1.21.56,2.26,1.29,3.17.77.94,2.1,1.31,3.26,1.37,1.21.06,2.27-.56,3.17-1.29.94-.77,1.31-2.1,1.37-3.26.1-1.83-1.6-3.35-3.35-3.35-1.9,0-3.26,1.53-3.35,3.35Z"/>
    </g>
    <path class="st24" d="M151.15,276.33c0,.66-.53,1.18-1.19,1.18s-1.19-.53-1.19-1.18.53-1.19,1.19-1.19,1.19.53,1.19,1.19Z"/>
    <path class="st5" d="M148.98,276.33c0-.62.48-1.13,1.08-1.19h-.11c-.66,0-1.19.53-1.19,1.19s.53,1.18,1.19,1.18h.11c-.61-.06-1.08-.57-1.08-1.18Z"/>
    <path class="st8" d="M150.94,276.33c0-.62-.48-1.13-1.08-1.19h.1c.66,0,1.19.53,1.19,1.19s-.53,1.18-1.19,1.18h-.1c.61-.06,1.08-.57,1.08-1.18Z"/>
  </g>
  <g>
    <g>
      <path class="st26" d="M105.61,250.27l3.93,6.14,4.49-2.12-.49,5.47s2.96,1.99,7.83,2.81c4.86.82,11.43-.69,11.43-.69l-23.07-16.62-4.12,5Z"/>
      <path d="M99.82,253.66c1.31,2.04,2.62,4.1,3.93,6.15,2.1,3.28,5.76,4.01,9.18,2.4,1.5-.7,3-1.41,4.49-2.11-3.36-1.93-6.73-3.86-10.1-5.8-.16,1.83-.33,3.65-.49,5.47-.22,2.39,1.46,4.57,3.32,5.8,3.6,2.38,8.17,3.43,12.39,3.87,3.94.4,8.2-.21,12.03-1.09,2.26-.51,4.09-2.5,4.69-4.68.85-3.11-.61-5.79-3.09-7.57-7.68-5.54-15.37-11.08-23.06-16.61-2.25-1.62-6.36-1.09-8.13,1.05-1.37,1.66-2.75,3.32-4.12,4.99-2.33,2.82-2.77,6.73,0,9.5,2.4,2.39,7.16,2.82,9.49,0,1.37-1.67,2.75-3.34,4.12-4.99-2.71.35-5.43.7-8.13,1.04,7.68,5.54,15.38,11.08,23.06,16.61.54-4.09,1.07-8.18,1.6-12.26-.94.21-1.91.37-2.87.52,2.4-.35.57-.09.04-.02-.52.06-1.04.09-1.55.13-1.09.08-2.18.09-3.27.04-.51-.03-2.42-.31-.21.03-.62-.1-1.24-.24-1.84-.39-1.03-.25-2.03-.58-3.02-.96-1.15-.45,1.67.76.21.07-.28-.13-.55-.27-.81-.41-.26-.14-.52-.28-.77-.45,1.11,1.93,2.22,3.86,3.33,5.79.16-1.82.33-3.64.5-5.47.2-2.29-1.43-4.68-3.33-5.79-2.21-1.29-4.55-1.04-6.77,0-1.5.7-3,1.41-4.49,2.11,3.06.8,6.12,1.61,9.18,2.41-1.31-2.04-2.62-4.09-3.93-6.14-1.97-3.07-5.93-4.31-9.18-2.41-3.05,1.79-4.38,6.1-2.4,9.18Z"/>
    </g>
    <path class="st6" d="M105.61,250.27l3.93,6.14,4.49-2.12-.49,5.47s2.96,1.99,7.83,2.81c4.86.82,11.43-.69,11.43-.69l-23.07-16.62-4.12,5Z"/>
    <path class="st23" d="M122.25,261.26c-4.87-.81-7.83-2.8-7.83-2.8l.49-5.47-4.49,2.11-3.84-6-.97,1.17,3.93,6.14,4.49-2.12-.49,5.47s2.96,1.99,7.83,2.81c4.86.82,11.43-.69,11.43-.69,0,0-.29-.36-.84-.98-2.28.39-6.4.91-9.72.35Z"/>
  </g>
  <g>
    <g>
      <path class="st26" d="M172.36,250.27l-3.93,6.14-4.49-2.12.49,5.47s-2.96,1.99-7.83,2.81c-4.86.82-11.43-.69-11.43-.69l23.06-16.62,4.12,5Z"/>
      <path d="M166.56,246.89c-1.31,2.05-2.62,4.1-3.93,6.14,3.06-.8,6.12-1.61,9.18-2.41-1.5-.7-2.99-1.41-4.49-2.11-2.23-1.04-4.56-1.29-6.78,0-1.89,1.11-3.53,3.5-3.32,5.79.16,1.83.33,3.65.49,5.47,1.11-1.93,2.21-3.86,3.32-5.79-.2.13-.4.25-.61.36-.55.3-2.7,1.24-.44.3-.95.39-1.92.7-2.9.97-.59.17-1.19.28-1.79.4-.81.14-.64.13.52-.04-.27.03-.54.05-.8.08-2.1.17-4.22,0-6.31-.26,2.51.31-.14-.05-.76-.17-.33-.06-.66-.13-1-.2.54,4.08,1.07,8.17,1.6,12.26,7.69-5.54,15.38-11.08,23.07-16.61-2.71-.35-5.42-.7-8.13-1.04,1.37,1.66,2.75,3.32,4.12,4.99,2.33,2.82,7.09,2.39,9.49,0,2.77-2.77,2.32-6.67,0-9.5-1.37-1.66-2.75-3.32-4.12-4.99-1.77-2.14-5.87-2.67-8.14-1.05-7.68,5.54-15.37,11.08-23.06,16.61-1.97,1.42-3.33,3.25-3.33,5.79,0,2.88,2.04,5.82,4.92,6.46,3.76.86,7.78,1.36,11.63,1.12,4.3-.27,9.16-1.5,12.8-3.9,1.86-1.22,3.54-3.41,3.33-5.8-.17-1.82-.33-3.64-.5-5.47-3.37,1.93-6.73,3.87-10.1,5.8,1.5.7,3,1.41,4.49,2.11,3.41,1.61,7.08.88,9.18-2.4,1.31-2.05,2.62-4.11,3.93-6.15,1.97-3.08.65-7.39-2.4-9.18-3.26-1.9-7.22-.66-9.18,2.41Z"/>
    </g>
    <path class="st6" d="M172.36,250.27l-3.93,6.14-4.49-2.12.49,5.47s-2.96,1.99-7.83,2.81c-4.86.82-11.43-.69-11.43-.69l23.06-16.62,4.12,5Z"/>
    <path class="st23" d="M155.72,261.26c4.87-.81,7.83-2.8,7.83-2.8l-.5-5.47,4.49,2.11,3.84-6,.97,1.17-3.93,6.14-4.49-2.12.49,5.47s-2.96,1.99-7.83,2.81c-4.86.82-11.43-.69-11.43-.69,0,0,.29-.36.83-.98,2.28.39,6.4.91,9.72.35Z"/>
  </g>
  <g>
    <g>
      <g>
        <g>
          <g>
            <path class="st18" d="M239.03,82.69s1.62,40.56.43,65.4c-1.19,24.84-16.92,33.41-16.92,33.41v-72.9l16.49-25.92Z"/>
            <path d="M229.64,82.69c.75,18.63,1.13,37.32.75,55.97-.1,4.72-.14,9.5-.74,14.19.11-.84.22-1.67.33-2.5-.58,4.26-1.64,8.43-3.3,12.39.31-.74.63-1.49.95-2.24-1.34,3.13-3.04,6.08-5.11,8.77.49-.63.98-1.26,1.47-1.9-1.74,2.23-3.72,4.29-5.95,6.03.63-.49,1.26-.98,1.9-1.47-.68.53-1.38,1.04-2.13,1.46,4.71,2.71,9.42,5.41,14.13,8.12v-72.9c-.43,1.58-.85,3.16-1.28,4.74,5.49-8.64,10.99-17.27,16.48-25.91,2.75-4.32.92-10.33-3.37-12.85-4.54-2.66-10.11-.94-12.85,3.37-3.41,5.36-6.82,10.73-10.23,16.09-1.84,2.89-3.67,5.77-5.51,8.66-1.15,1.81-2.02,3.56-2.02,5.9v72.9c0,7.27,7.93,11.5,14.13,8.11,1.91-1.05,3.63-2.53,5.27-3.94,3.31-2.85,6.09-6.44,8.4-10.12,3.29-5.25,5.53-11.34,6.7-17.41,1.32-6.91,1.42-13.96,1.54-20.97.34-18.15-.04-36.35-.77-54.49-.2-5.11-4.12-9.39-9.39-9.39-4.97,0-9.6,4.28-9.4,9.39Z"/>
          </g>
          <path class="st12" d="M239.03,79.07s1.62,44.18.43,69.02c-1.19,24.84-16.92,33.41-16.92,33.41v-72.9l16.49-29.54Z"/>
        </g>
        <g>
          <g>
            <path class="st18" d="M41.47,82.69s-1.63,40.56-.43,65.4c1.19,24.84,16.92,33.41,16.92,33.41v-72.9l-16.49-25.92Z"/>
            <path d="M32.07,82.69c-.74,18.63-1.13,37.32-.74,55.97.14,6.92.34,13.84,1.75,20.64,1.22,5.86,3.55,11.68,6.75,16.72,2.27,3.57,5.02,6.99,8.24,9.76,1.6,1.37,3.29,2.82,5.15,3.84,6.19,3.39,14.13-.84,14.13-8.11v-72.81c0-3.16-1.51-5.18-3.05-7.61-1.92-3.01-3.84-6.03-5.76-9.04-2.99-4.69-5.97-9.39-8.96-14.09-2.74-4.31-8.31-6.03-12.85-3.37-4.29,2.52-6.12,8.53-3.37,12.85,5.5,8.64,10.99,17.28,16.49,25.91-.43-1.58-.85-3.16-1.28-4.74v72.9c4.71-2.71,9.42-5.41,14.14-8.12-.75-.41-1.45-.93-2.13-1.46.64.49,1.27.98,1.9,1.47-2.24-1.74-4.21-3.8-5.96-6.03.5.63.98,1.26,1.47,1.9-2.07-2.7-3.77-5.64-5.1-8.77.32.75.63,1.5.95,2.24-1.67-3.96-2.73-8.13-3.31-12.39.11.83.22,1.66.33,2.5-.79-6.16-.73-12.47-.81-18.66-.08-6.39-.06-12.78.02-19.17.11-9.73.35-19.45.68-29.18.04-1.05.07-2.1.12-3.15.2-5.11-4.43-9.39-9.39-9.39-5.28,0-9.18,4.28-9.4,9.39Z"/>
          </g>
          <path class="st12" d="M41.47,79.07s-1.63,44.18-.43,69.02c1.19,24.84,16.92,33.41,16.92,33.41v-72.9l-16.49-29.54Z"/>
        </g>
      </g>
      <g>
        <g>
          <path class="st18" d="M225.73,87.25c.31,12.24,0,84.59,0,84.59,0,32.88-18.42,63.34-87.07,63.06-67.94-.28-84.03-30.19-84.03-63.06v-84.59h171.1Z"/>
          <path d="M216.33,87.25c.38,15.38.15,30.78.12,46.16-.02,12.79-.06,25.6-.12,38.4-.02,3.53-.22,7.06-.69,10.56.12-.83.23-1.66.34-2.5-.72,5.22-2.02,10.36-4.06,15.22.32-.74.63-1.49.95-2.24-1.69,4-3.86,7.77-6.5,11.21.49-.63.98-1.26,1.47-1.9-2.73,3.53-5.93,6.68-9.46,9.41.63-.49,1.26-.98,1.9-1.47-4.41,3.38-9.27,6.08-14.38,8.25.75-.32,1.5-.63,2.24-.95-8.62,3.62-17.8,5.73-27.05,6.97.84-.12,1.67-.23,2.5-.34-16,2.11-32.55,2.1-48.54-.04.83.12,1.66.23,2.5.34-8.99-1.22-17.9-3.24-26.3-6.75.75.32,1.5.63,2.25.95-4.97-2.1-9.71-4.73-14-8.02.64.49,1.27.98,1.9,1.47-3.36-2.6-6.39-5.59-9-8.96.49.63.98,1.27,1.47,1.91-2.57-3.36-4.68-7.03-6.32-10.92.31.75.63,1.5.94,2.25-2.06-4.92-3.35-10.12-4.08-15.4.12.83.23,1.66.34,2.5-.63-4.71-.73-9.42-.73-14.15v-81.95c-3.13,3.13-6.27,6.26-9.4,9.39h171.1c5.12,0,9.39-4.27,9.39-9.39s-4.27-9.39-9.39-9.39H54.63c-5.12,0-9.39,4.27-9.39,9.39v79.16c0,3.9-.05,7.8.21,11.7.3,4.54.91,9.1,1.9,13.55.98,4.39,2.53,8.54,4.33,12.66,3.37,7.69,8.77,14.69,15.25,20.02,8.56,7.05,18.54,11.76,29.19,14.79,13.57,3.87,27.98,5.07,42.05,5.17,14.31.1,28.89-1.07,42.77-4.68,19.22-5.01,37.59-15.99,46.74-34.22,4.12-8.21,6.21-16.87,7.08-25.98.41-4.3.35-8.61.37-12.92.06-17.01.12-34.03.12-51.04,0-9.4.1-18.81-.14-28.21-.13-5.11-4.17-9.39-9.39-9.39s-9.52,4.27-9.39,9.39Z"/>
        </g>
        <path class="st1" d="M225.73,87.25c.31,12.24,0,84.59,0,84.59,0,32.88-18.42,63.34-87.07,63.06-67.94-.28-84.03-30.19-84.03-63.06v-84.59h171.1Z"/>
      </g>
    </g>
    <path class="st22" d="M136.38,147.3c41.95.46,71.42-10.93,89.49-27.4,0,6.47-.02,13.12-.04,19.35-18.06,16.46-47.52,27.84-89.45,27.37-36.89-.4-63.12-9.14-81.75-20.97v-19.32c18.63,11.82,44.86,20.56,81.75,20.97Z"/>
    <g>
      <g>
        <path class="st18" d="M136.37,150.16C18.29,148.86,9.42,62.18,9.42,62.18c0,0,11.68,8.65,37.69-5.72,23.18-12.79,53.46-51.23,126.18-46.66,104.18,6.54,105.7,141.95-36.92,140.36Z"/>
        <path d="M136.37,140.77c-8.6-.1-17.2-.65-25.73-1.78.83.11,1.67.22,2.5.33-13.27-1.79-26.36-4.99-38.73-10.18.75.31,1.5.63,2.25.95-9.01-3.81-17.57-8.66-25.33-14.63.64.49,1.27.98,1.91,1.47-6.79-5.25-12.91-11.34-18.16-18.12.49.63.98,1.26,1.46,1.9-5.26-6.83-9.64-14.33-12.99-22.28.31.74.63,1.5.94,2.25-2.63-6.26-4.74-12.85-5.81-19.56-.05-.3-.09-.61-.13-.89.11.83.23,1.66.33,2.49-.02-.17-.05-.35-.06-.52-4.71,2.71-9.42,5.41-14.13,8.11,1.54,1.14,3.54,1.79,5.33,2.38,3.79,1.26,8.04,1.62,12.01,1.43,6.5-.31,12.86-1.92,18.85-4.36,5.37-2.2,10.58-4.72,15.45-7.88,6.02-3.91,11.68-8.37,17.47-12.59,7.16-5.21,14.53-10.14,22.3-14.41,4.25-2.32,8.6-4.42,13.06-6.31-.74.31-1.5.63-2.24.94,11.31-4.75,23.21-7.93,35.36-9.59-.83.11-1.66.22-2.49.33,13.68-1.84,27.83-2.08,41.53-.28-.83-.11-1.67-.22-2.5-.33,8.49,1.14,16.85,3.26,24.76,6.59-.75-.31-1.5-.62-2.25-.95,6.08,2.58,11.84,5.86,17.08,9.89-.64-.49-1.27-.98-1.91-1.47,4.53,3.5,8.61,7.55,12.12,12.08-.49-.63-.98-1.26-1.47-1.9,3.22,4.2,5.92,8.79,7.98,13.66-.31-.74-.63-1.49-.95-2.24,2.02,4.82,3.4,9.87,4.1,15.04-.12-.83-.23-1.67-.34-2.5.68,5.17.68,10.4-.02,15.57.11-.84.23-1.67.34-2.49-.72,5.3-2.16,10.48-4.23,15.41.31-.74.63-1.5.95-2.24-2.21,5.21-5.11,10.09-8.56,14.56.49-.63.98-1.26,1.47-1.9-3.97,5.12-8.61,9.66-13.73,13.62.63-.49,1.26-.97,1.9-1.47-6.56,5.06-13.83,9.13-21.45,12.36.75-.32,1.5-.63,2.24-.95-11.11,4.67-22.89,7.54-34.81,9.17.83-.11,1.67-.22,2.5-.34-9.34,1.25-18.76,1.73-28.18,1.63-5.12-.05-9.39,4.32-9.39,9.39s4.27,9.34,9.39,9.4c12.58.13,25.14-.84,37.54-3.05,10.52-1.88,20.61-4.98,30.45-9.15,15.93-6.74,30.01-17.46,40.04-31.61,8.39-11.82,13.02-26.5,12.84-41.01-.17-14.15-4.9-28.38-13.39-39.73-5.06-6.75-10.85-12.38-17.67-17.35-6.7-4.88-14.26-8.48-22.04-11.29-8.84-3.19-18.14-4.86-27.48-5.72-14.26-1.32-28.69-.6-42.81,1.64-21.63,3.42-42.04,12.16-60.22,24.25-13.12,8.72-24.93,19.68-39.58,25.86.75-.32,1.5-.63,2.25-.95-4.4,1.83-8.97,3.26-13.7,3.91.84-.12,1.67-.22,2.5-.34-2.84.37-5.7.46-8.55.09.83.11,1.66.22,2.49.33-1.8-.24-3.58-.66-5.26-1.37.74.32,1.49.63,2.24.95-.63-.27-1.29-.56-1.84-.97-2.63-1.93-6.81-1.56-9.48,0C2.05,55.61-.3,58.98.03,62.18c.53,5.23,1.75,10.38,3.35,15.38,3.53,11.07,8.82,21.68,15.74,31.03,10.17,13.77,23.2,25.05,38.33,33.11,21.07,11.21,44.76,16.14,68.42,17.51,3.5.21,7.01.31,10.51.36,5.12.06,9.39-4.32,9.39-9.4s-4.27-9.33-9.39-9.39Z"/>
      </g>
      <path class="st12" d="M136.37,150.16C18.29,148.86,9.42,62.18,9.42,62.18c0,0,11.68,8.65,37.69-5.72,23.18-12.79,53.46-51.23,126.18-46.66,104.18,6.54,105.7,141.95-36.92,140.36Z"/>
      <path class="st20" d="M173.3,16.63c-72.73-4.56-102.71,34.44-126.18,46.67-28.77,15-37.69-1.12-37.69-1.12,0,0,11.68,8.65,37.69-5.72,23.17-12.79,53.46-51.23,126.18-46.66,50.05,3.13,76.4,36.02,74.46,69.17-1.81-30.7-27.87-59.41-74.46-62.34Z"/>
      <path class="st2" d="M134.1,139.3c80.96.89,115.46-42.35,111.12-81.12,12.76,41.02-20.2,92.96-108.84,91.98C18.29,148.86,9.43,62.18,9.43,62.18c0,0,.05.03.14.09,6.92,23.36,32.7,76.01,124.53,77.03Z"/>
    </g>
    <g>
      <g>
        <g>
          <g>
            <path class="st4" d="M103.47,181.43c0,7.58-6.15,13.73-13.73,13.73s-13.72-6.15-13.72-13.73,6.14-13.72,13.72-13.72,13.73,6.14,13.73,13.72Z"/>
            <path d="M101.46,181.43c-.08,5.79-4.38,10.92-10.22,11.63-5.93.73-11.38-3.14-12.88-8.87-1.47-5.64,1.85-11.7,7.25-13.73,5.63-2.12,11.81.47,14.6,5.68.87,1.62,1.23,3.47,1.25,5.29.03,2.6,4.06,2.6,4.02,0-.08-6.39-3.91-12.16-9.85-14.59-5.93-2.41-12.81-.84-17.25,3.71-4.57,4.68-5.44,11.69-2.87,17.56,2.53,5.77,8.81,9.28,15,9.03,8.35-.33,14.87-7.48,14.98-15.72.04-2.6-3.99-2.59-4.02,0Z"/>
          </g>
          <path class="st14" d="M99.62,177.83c0,1.86-1.51,3.37-3.37,3.37s-3.37-1.51-3.37-3.37,1.51-3.37,3.37-3.37,3.37,1.51,3.37,3.37Z"/>
        </g>
        <g>
          <g>
            <g>
              <path class="st4" d="M203.9,181.43c0,7.58-6.14,13.73-13.72,13.73s-13.73-6.15-13.73-13.73,6.15-13.72,13.73-13.72,13.72,6.14,13.72,13.72Z"/>
              <path d="M201.89,181.43c-.07,5.79-4.37,10.92-10.21,11.63-5.93.73-11.38-3.14-12.88-8.87-1.47-5.64,1.84-11.7,7.25-13.73,5.63-2.12,11.81.47,14.59,5.68.87,1.62,1.24,3.47,1.26,5.29.04,2.6,4.07,2.6,4.03,0-.09-6.39-3.91-12.16-9.86-14.59-5.93-2.41-12.8-.84-17.25,3.71-4.56,4.68-5.44,11.69-2.87,17.56,2.54,5.77,8.81,9.28,15,9.03,8.36-.33,14.87-7.48,14.98-15.72.04-2.6-3.99-2.59-4.03,0Z"/>
            </g>
            <path class="st14" d="M200.05,177.83c0,1.86-1.51,3.37-3.37,3.37s-3.37-1.51-3.37-3.37,1.51-3.37,3.37-3.37,3.37,1.51,3.37,3.37Z"/>
          </g>
          <path class="st11" d="M87.74,201.98c.3,2.15-3.4,4.42-8.25,5.08-4.84.66-9.01-.55-9.3-2.69-.29-2.14,3.4-4.42,8.25-5.07,4.84-.66,9.01.55,9.3,2.68Z"/>
          <path class="st11" d="M189.66,201.98c-.29,2.15,3.41,4.42,8.25,5.08,4.85.66,9.01-.55,9.31-2.69.29-2.14-3.4-4.42-8.25-5.07-4.85-.66-9.01.55-9.31,2.68Z"/>
        </g>
      </g>
      <path d="M145.29,213.76c0,.07-.01.15-.03.22.16-1.32.05-.41-.03-.08-.07.3-.17.59-.29.88.37-.96-.23.37-.41.64-.36.56.43-.51-.01.03-.18.22-.37.41-.58.61-.09.09-.68.53-.11.12-.27.2-.56.37-.85.53-.05.02-.84.38-.29.16-.38.16-.77.26-1.17.37-.89.24-1.49.28-2.49.31-1.69.05-3.02-.14-4.6-.71.52.19-.29-.14-.33-.16-.3-.16-.6-.34-.87-.53-.43-.28.28.27-.31-.27-.21-.19-.4-.39-.59-.61-.46-.51.37.53-.01,0-.14-.19-.26-.39-.37-.6-.1-.18-.2-.38-.29-.57.41.9.12.31.05.09-.15-.44-.31-1.71-.15-.23-.18-1.6-1.2-2.95-2.95-2.95-1.48,0-3.13,1.34-2.95,2.95,1.4,12.66,24.87,12.9,25.51-.2.19-3.8-5.72-3.79-5.9,0h0Z"/>
    </g>
  </g>
  <polygon class="st23" points="105.22 261.7 99.14 284.95 134.92 284.95 101.95 282.98 107.64 262.37 105.22 261.7"/>
  <polygon class="st23" points="172.71 261.7 178.8 284.95 143.02 284.95 175.98 282.98 170.3 262.37 172.71 261.7"/>
  <g>
    <path class="st4" d="M190.01,314.53c0,1.52-23.1,2.76-51.6,2.76s-51.6-1.24-51.6-2.76,23.1-2.75,51.6-2.75,51.6,1.23,51.6,2.75Z"/>
    <path d="M138.42,318.5c-52.8,0-52.8-2.99-52.8-3.97s0-3.96,52.8-3.96,52.81,2.98,52.81,3.96,0,3.97-52.81,3.97ZM91.89,314.53c7.59.84,24.47,1.55,46.53,1.55s38.94-.71,46.53-1.55c-7.59-.83-24.47-1.54-46.53-1.54s-38.94.71-46.53,1.54Z"/>
  </g>
  <path class="st14" d="M197.29,44.3c8.74,4.54,17.34,5.31,19.2,1.72,1.87-3.59-3.71-10.19-12.46-14.73-8.74-4.54-17.34-5.31-19.2-1.71-1.86,3.59,3.71,10.18,12.45,14.72Z"/>
  <path class="st14" d="M217.9,49.49c.06,2,1.74,3.58,3.75,3.52,2.01-.06,3.58-1.74,3.52-3.75-.07-2-1.74-3.59-3.75-3.52-2,.06-3.58,1.74-3.52,3.75Z"/>
  <g>
    <g>
      <path d="M105.06,304.84c0,1.68-1.36,3.05-3.04,3.05h-32.69c-1.68,0-3.04-1.37-3.04-3.05v-16.22c0-1.68,1.36-3.04,3.04-3.04h32.69c1.68,0,3.04,1.36,3.04,3.04v16.22Z"/>
      <path d="M98.38,304.84c0,.11-.01.21-.02.31.08-.59.16-1.18.24-1.78-.05.31-.12.58-.22.87.22-.53.45-1.06.67-1.59-.29.61-.83.96.4-.38,1.03-1.14,1.11-.74.39-.4.53-.22,1.06-.45,1.59-.68-.29.11-.57.17-.87.23.59-.08,1.18-.16,1.78-.24-4.69.24-9.43.02-14.12.02h-17.99c-.41,0-.81,0-1.22-.02.59.09,1.18.16,1.77.24-.31-.05-.58-.12-.87-.23.53.23,1.06.45,1.6.68-.61-.29-.97-.84.38.4,1.13,1.03.75,1.1.39.38.23.53.45,1.06.68,1.59-.11-.29-.18-.56-.23-.87.08.59.16,1.18.24,1.78-.14-2.79-.01-5.62-.01-8.42s-.13-5.63.01-8.42c-.08.6-.16,1.19-.24,1.78.05-.31.12-.58.23-.88-.23.54-.45,1.07-.68,1.6.29-.61.84-.96-.39.39-1.02,1.13-1.11.74-.38.39-.53.22-1.06.45-1.6.68.29-.11.56-.18.87-.22-.59.08-1.19.16-1.77.24,4.68-.24,9.43-.01,14.12-.01h17.98c.41,0,.81,0,1.22.01-.59-.08-1.19-.16-1.78-.24.31.04.58.12.87.22-.54-.22-1.06-.45-1.59-.68.6.29.96.83-.39-.39-1.13-1.03-.74-1.11-.4-.39-.22-.53-.45-1.06-.67-1.6.1.3.17.57.22.88-.07-.59-.16-1.18-.24-1.78.14,2.72.02,5.48.02,8.2v8.33c0,3.65,3.04,6.69,6.68,6.69s6.68-3.04,6.68-6.69v-15.84c0-3.68-1.73-6.9-4.9-8.83-1.64-.99-3.56-1.28-5.44-1.28h-32.07c-1.79,0-3.87.52-5.32,1.61-2.76,2.07-4.25,4.64-4.42,8.12-.03.71,0,1.43,0,2.13v13.71c0,3.68,1.74,6.9,4.9,8.82,2.46,1.5,5.32,1.29,8.05,1.29h28.98c5.66,0,9.93-4.08,10.21-9.73.19-3.64-3.17-6.68-6.68-6.68-3.78,0-6.49,3.04-6.68,6.68Z"/>
    </g>
    <path class="st7" d="M105.06,304.84c0,1.68-1.36,3.05-3.04,3.05h-32.69c-1.68,0-3.04-1.37-3.04-3.05v-16.22c0-1.68,1.36-3.04,3.04-3.04h32.69c1.68,0,3.04,1.36,3.04,3.04v16.22Z"/>
  </g>
  <path d="M79.61,280.55c-.02-.2-.03-.4-.03-.61,0-3.37,2.72-6.1,6.09-6.1s6.1,2.73,6.1,6.1c0,.2,0,.4-.03.61h3.06c.01-.2.02-.4.02-.61,0-5.05-4.09-9.15-9.14-9.15s-9.14,4.1-9.14,9.15c0,.2,0,.4.03.61h3.05Z"/>
  <g>
    <g>
      <path d="M102.02,285.58h-32.69c-1.68,0-3.04,1.36-3.04,3.04h0v2.12h0c0,1.68,1.36,3.04,3.04,3.04h32.69c1.68,0,3.04-1.36,3.04-3.04h0v-2.11h0c0-1.69-1.36-3.05-3.04-3.05Z"/>
      <path d="M102.02,278.9h-31.87c-1.19,0-2.34.08-3.51.38-2.43.62-4.8,2.53-5.89,4.79-.83,1.72-1.15,3.41-1.15,5.32,0,.55-.01,1.11.02,1.67.09,1.76.51,2.94,1.26,4.52.73,1.51,2.08,2.5,3.37,3.47,1.56,1.16,3.73,1.43,5.62,1.43h32.15c4.3,0,8.79-3.22,9.47-7.63.23-1.51.32-3,.24-4.53-.27-5.35-4.46-9.14-9.71-9.41-3.64-.18-6.68,3.18-6.68,6.68,0,3.78,3.05,6.5,6.68,6.69.1,0,.21,0,.31.01-.59-.08-1.19-.16-1.78-.24.31.04.58.12.87.22-.54-.22-1.06-.45-1.59-.68.6.29.96.83-.39-.39-1.13-1.03-.74-1.11-.4-.39-.22-.53-.45-1.06-.67-1.6.1.3.17.57.22.88-.07-.59-.16-1.18-.24-1.78.05.91.05,1.84,0,2.74.08-.59.16-1.18.24-1.77-.05.3-.12.58-.22.87.22-.53.45-1.06.67-1.59-.29.6-.83.96.4-.39,1.03-1.14,1.11-.74.39-.39.53-.22,1.06-.45,1.59-.67-.29.1-.57.18-.87.22.59-.08,1.18-.16,1.78-.24-4.69.23-9.43.01-14.12.01h-17.99c-.41,0-.81,0-1.22-.01.59.07,1.18.16,1.77.24-.31-.05-.58-.12-.87-.22.53.22,1.06.45,1.6.67-.61-.29-.97-.84.38.39,1.13,1.03.75,1.11.39.39.23.53.45,1.06.68,1.59-.11-.29-.18-.57-.23-.87.08.59.16,1.18.24,1.77-.05-.9-.05-1.84,0-2.74-.08.6-.16,1.19-.24,1.78.05-.31.12-.58.23-.88-.23.54-.45,1.07-.68,1.6.29-.61.84-.96-.39.39-1.02,1.13-1.11.74-.38.39-.53.22-1.06.45-1.6.68.29-.11.56-.18.87-.22-.59.08-1.19.16-1.77.24,4.68-.24,9.43-.01,14.12-.01h18.89c3.64,0,6.68-3.04,6.68-6.69s-3.04-6.68-6.68-6.68Z"/>
    </g>
    <path class="st7" d="M102.02,285.58h-32.69c-1.68,0-3.04,1.36-3.04,3.04h0v2.12h0c0,1.68,1.36,3.04,3.04,3.04h32.69c1.68,0,3.04-1.36,3.04-3.04h0v-2.11h0c0-1.69-1.36-3.05-3.04-3.05Z"/>
    <path class="st0" d="M102.02,285.58h-32.69c-1.68,0-3.04,1.36-3.04,3.04h0v.85c0-1.68,1.36-3.04,3.04-3.04h32.69c1.68,0,3.04,1.36,3.04,3.04v-.85h0c0-1.69-1.36-3.05-3.04-3.05Z"/>
    <path class="st15" d="M102.02,293.78h-32.69c-1.68,0-3.04-1.36-3.04-3.04h0v-.85c0,1.67,1.36,3.04,3.04,3.04h32.69c1.68,0,3.04-1.36,3.04-3.04v.85h0c0,1.68-1.36,3.04-3.04,3.04Z"/>
  </g>
  <g>
    <g>
      <path d="M89.88,296.98c0,.83-.68,1.51-1.51,1.51h-5.41c-.83,0-1.51-.68-1.51-1.51h0c0-.83.68-1.5,1.51-1.5h5.41c.83,0,1.51.68,1.51,1.5h0Z"/>
      <path d="M85.98,296.98c.14-1.39,1.28-2.39,2.3-2.39h-5.3c1.43,0,2.25,1.06,2.39,2.39.14,1.44-1.55,2.4-2.3,2.4h5.3c-1.43,0-2.25-1.06-2.38-2.4.22,2.12,1.62,3.9,3.9,3.9,1.96,0,4.11-1.78,3.89-3.9-.29-2.95-2.27-5.4-5.45-5.4h-5.26c-3.2,0-5.2,2.4-5.5,5.4-.29,2.97,2.73,5.41,5.45,5.41h5.27c3.2,0,5.2-2.41,5.5-5.41.22-2.11-1.93-3.9-3.89-3.9-2.29,0-3.69,1.78-3.9,3.9Z"/>
    </g>
    <path class="st21" d="M89.88,296.98c0,.83-.68,1.51-1.51,1.51h-5.41c-.83,0-1.51-.68-1.51-1.51h0c0-.83.68-1.5,1.51-1.5h5.41c.83,0,1.51.68,1.51,1.5h0Z"/>
    <path class="st19" d="M82.97,296.08h5.41c.73,0,1.34.53,1.47,1.21.03-.1.03-.2.03-.3,0-.83-.68-1.5-1.51-1.5h-5.41c-.83,0-1.51.68-1.51,1.5,0,.1.01.2.03.3.14-.69.74-1.21,1.48-1.21Z"/>
    <path class="st16" d="M82.97,297.9h5.41c.73,0,1.34-.52,1.47-1.21.03.1.03.2.03.3,0,.83-.68,1.51-1.51,1.51h-5.41c-.83,0-1.51-.68-1.51-1.51,0-.1.01-.2.03-.3.14.69.74,1.21,1.48,1.21Z"/>
  </g>
</svg>