<?xml version="1.0" encoding="UTF-8"?>
<svg id="Layer_1" xmlns="http://www.w3.org/2000/svg" version="1.1" viewBox="0 0 323.05 350.79">
  <!-- Generator: Adobe Illustrator 29.6.1, SVG Export Plug-In . SVG Version: 2.1.1 Build 9)  -->
  <defs>
    <style>
      .st0 {
        fill: #045fa3;
      }

      .st1 {
        fill: #a3ddf1;
      }

      .st2 {
        fill: #ffd7c3;
      }

      .st3 {
        fill: #58595b;
      }

      .st4 {
        fill: #d2fbff;
      }

      .st5 {
        fill: #561a05;
      }

      .st6 {
        fill: #9c9c9c;
      }

      .st7 {
        fill: #000002;
      }

      .st8 {
        fill: #eefeff;
      }

      .st9 {
        fill: #414042;
      }

      .st10 {
        fill: #6d6e71;
      }

      .st11 {
        fill: #ffad8d;
      }

      .st12 {
        fill: #bcbec0;
      }

      .st13 {
        fill: #8fefff;
      }

      .st14 {
        fill: #40d5dd;
      }

      .st15 {
        fill: #085e99;
      }

      .st16 {
        fill: #267ac2;
      }

      .st17 {
        fill: #6f2a0e;
      }

      .st18 {
        fill: #97fcf9;
      }

      .st19 {
        fill: #4b5f84;
      }

      .st20 {
        fill: #fff;
      }

      .st21 {
        fill: #364d72;
      }

      .st22 {
        fill: #d9f7ff;
      }

      .st23 {
        fill: #fde5d2;
      }

      .st24 {
        fill: #8de1ff;
      }

      .st25 {
        opacity: .8;
      }

      .st26 {
        fill: #a13c12;
      }

      .st27 {
        fill: #b80000;
      }

      .st28 {
        fill: #818fa5;
      }

      .st29 {
        fill: #e6e7e8;
      }
    </style>
  </defs>
  <g>
    <g>
      <path class="st23" d="M241.44,66.92s2.71-7.41-2.85-26.53c-5.57-19.11-39.94-31.66-39.94-31.66,0,0,5.85,8.42,7.7,14.26,1.85,5.85,1.71,16.83,1.71,16.83,0,0-13.55-15.4-39.08-15.4s-36.47,13.09-56.76,12.26c-25.94-1.04-41.36-19.11-41.36-19.11,0,0-2.64,20.16,1.78,32.56,4.42,12.41,16.48,19.07,16.48,19.07,0,0-6.42-1.14-19.69,6.13-13.27,7.27-10.27,23.32-23.1,31.24-12.83,7.91-37.66.86-37.66.86,0,0,8.27,26.25,22.68,32.09,14.41,5.85,23.1,1.71,23.1,1.71,0,0,1.71,3.13-3.42,11.12-5.14,7.98-22.68,14.12-22.68,14.12,0,0,6.42,12.4,19.26,19.25,6.42,3.42,12.62,4.92,17.23,5.56,0,0-3.65,15.4,1.25,29.18,4.9,13.78,15.53,21.88,15.53,21.88v-21.88l6.98-19.97,11.1,15.22,12.71-23.99s1.47,10.7,13.6,25.58c12.14,14.88,43.9,23.61,43.9,23.61,0,0,31.82-9.07,43.9-23.61,12.09-14.54,13.61-25.58,13.61-25.58l12.69,23.99,11.1-15.22,6.97,19.97v21.88s11.94-9.28,15.53-21.88c3.6-12.59,1.27-29.48,1.27-29.48,0,0,18.65-11.61,18.65-41.63,0-68.24-52.19-82.44-52.19-82.44Z"/>
      <path d="M249.74,69.21c.84-2.34.91-5.09.96-7.57.14-6.66-1.17-13.44-2.81-19.87-.9-3.57-2.02-7.02-3.78-10.28-1.5-2.78-3.53-5.32-5.61-7.68-3.96-4.5-8.89-8.2-13.86-11.49-7.33-4.86-15.45-8.87-23.71-11.89-6.95-2.54-13.91,6.59-9.72,12.64,2.66,3.85,5.13,7.93,6.95,12.24-.29-.69-.58-1.37-.87-2.05.96,2.33,1.48,4.73,1.81,7.22-.1-.76-.2-1.53-.31-2.29.5,3.85.7,7.76.65,11.64,4.9-2.03,9.8-4.05,14.69-6.08-1.21-1.37-2.65-2.56-4.07-3.7-4.17-3.31-8.56-6.15-13.45-8.29-7.38-3.24-14.87-5.1-22.92-5.76-8.07-.65-16.37.31-24.19,2.26-10.74,2.67-20.63,8.18-31.66,9.75.77-.11,1.53-.21,2.29-.31-4.45.6-8.92.49-13.36-.1.76.1,1.53.21,2.29.3-5.13-.71-10.13-2.09-14.91-4.09.68.29,1.36.58,2.05.86-3.08-1.3-6.04-2.85-8.89-4.61-1.19-.74-2.34-1.53-3.47-2.33-.52-.36-1.03-.74-1.53-1.13,2.8,2.14.64.5-.02-.04-1.89-1.55-3.78-3.2-5.37-5.06-1.96-2.28-5.59-2.98-8.38-2.21-1.46.41-2.72,1.14-3.8,2.21-1.77,1.77-2.21,3.7-2.52,6.09-1.33,10.25-1.29,21.19,1.04,31.27,2.67,11.54,11.18,21.84,21.38,27.74.03.02.06.04.1.06,2.21-5.24,4.42-10.48,6.63-15.73-3.92-.67-7.76-.16-11.6.84-3.78.98-7.42,2.56-10.93,4.23-3.8,1.8-7.39,3.96-10.37,6.96-4.68,4.73-6.95,10.73-9.59,16.66-.57,1.29-1.18,2.54-1.85,3.78-.34.62-.7,1.22-1.08,1.82-.19.3-.39.59-.59.88-1.16,1.68,1.16-1.43.27-.32-.93,1.15-1.99,2.19-3.13,3.13,2.4-1.98.14-.16-.53.26-.65.41-1.34.76-2.04,1.09-.2.09-.4.18-.61.27.69-.29,1.37-.58,2.06-.87-2.48,1.03-5.1,1.64-7.75,2,.76-.1,1.52-.21,2.28-.31-5.37.68-10.83.39-16.2-.32.76.1,1.52.21,2.29.3-3.71-.5-7.45-1.17-11.05-2.19-6.15-1.74-12.58,4.29-10.59,10.58,2.37,7.48,5.82,14.92,10.09,21.49,3.61,5.56,7.99,10.66,13.63,14.24,3.39,2.16,7.49,3.49,11.38,4.46,3.76.94,7.74,1.44,11.62,1.34,4.08-.11,8.03-.85,11.71-2.57-3.92-1.03-7.84-2.05-11.78-3.09.02.02.02.04.03.06-.28-.69-.57-1.37-.86-2.05.11.26.16.55.2.83-.1-.76-.2-1.52-.31-2.29.07.64.04,1.27-.05,1.89.1-.76.2-1.53.31-2.29-.21,1.3-.62,2.54-1.13,3.75.29-.69.58-1.37.87-2.06-.62,1.43-1.37,2.78-2.19,4.11-.4.66-1.88,2.53.2-.1-.31.39-.65.76-.99,1.13-.74.78-1.56,1.48-2.39,2.16-.66.53-.35.28.95-.73-.27.21-.55.4-.83.61-.46.34-.94.66-1.43.97-3.57,2.35-7.45,4.23-11.38,5.89.69-.29,1.37-.58,2.06-.87-1.33.56-2.66,1.11-4.02,1.59-5.4,1.89-7.83,7.47-5.15,12.64.73,1.4,1.62,2.72,2.52,4.02,2.53,3.63,5.39,7.08,8.61,10.13,8.34,7.86,19.17,13,30.5,14.62-2-3.53-4.01-7.06-6.01-10.59-.92,3.94-1.33,8.06-1.54,12.1-.39,7.7.5,15.78,3.29,22.99,3.89,10.07,10.4,19.12,18.99,25.68,2.37,1.81,6.29,1.41,8.69,0,2.62-1.53,4.27-4.4,4.27-7.43v-21.88c-.1.77-.21,1.53-.31,2.29,2.32-6.66,4.64-13.32,6.97-19.97-5.24.69-10.48,1.37-15.73,2.05,3.7,5.07,7.4,10.14,11.1,15.22,1.84,2.52,4.15,4.26,7.43,4.26,2.93,0,6.03-1.62,7.43-4.26,4.23-8,8.47-16,12.71-24-5.25-.69-10.48-1.37-15.73-2.06.33,2.38,1.25,4.73,2.14,6.95,3.08,7.59,7.3,14.24,12.3,20.7,8.04,10.4,20.27,16.52,32.13,21.53,4.21,1.77,8.49,3.36,12.82,4.77,2.84.92,5.81,2.1,8.83,1.22,8.06-2.36,15.97-5.52,23.56-9.09,4.83-2.27,9.54-4.85,13.92-7.91,2.62-1.84,5.18-3.82,7.5-6.03,2.74-2.6,5.02-5.71,7.25-8.75,3.88-5.28,6.93-11.01,9.31-17.12.79-2,1.55-4.13,1.85-6.27-5.24.69-10.48,1.37-15.73,2.06,4.24,8,8.47,16,12.7,24,1.41,2.64,4.5,4.26,7.43,4.26,3.28,0,5.59-1.74,7.44-4.26,3.7-5.07,7.4-10.14,11.09-15.22-5.24-.69-10.48-1.37-15.72-2.05,2.33,6.66,4.65,13.31,6.97,19.97-.1-.77-.2-1.52-.3-2.29v21.88c0,3.03,1.64,5.9,4.26,7.43,1.34.78,2.78,1.17,4.34,1.17,2.51,0,4.19-1.05,6.08-2.52,2.34-1.83,4.45-3.99,6.42-6.22,4.95-5.58,8.99-11.88,11.2-19.04,2.16-6.99,2.56-14.69,2.42-21.97-.08-4.19-.46-8.35-1.03-12.5-1.31,3.24-2.64,6.48-3.95,9.72,5.32-3.33,9.65-8.47,13.09-13.63,7.72-11.59,10.17-25.73,9.77-39.43-.7-24.02-8.33-47.71-25.03-65.4-8.71-9.22-19.75-16.57-31.73-20.78-.56-.2-1.13-.4-1.7-.55-4.53-1.23-9.35,1.48-10.59,6.01-1.24,4.51,1.49,9.35,6.01,10.59,1.64.45,3.26,1.1,4.82,1.76-.68-.29-1.36-.58-2.05-.87,5.02,2.13,9.76,4.87,14.18,8.06.33.25.67.49,1,.74.17.12.34.25.51.38.94.71-2-1.55-1.06-.82.75.58,1.5,1.19,2.22,1.81,1.49,1.25,2.93,2.56,4.32,3.92,1.49,1.46,2.92,2.99,4.28,4.57.69.8,1.35,1.61,2.01,2.44.43.53,1.21,1.56-.69-.9.17.22.33.43.5.65.39.51.76,1.03,1.13,1.55,3.35,4.69,6.15,9.77,8.4,15.08-.28-.68-.57-1.37-.87-2.06,3.24,7.7,5.32,15.82,6.45,24.08-.11-.76-.21-1.53-.31-2.29,1.1,8.25,1.54,16.79.44,25.07.1-.77.21-1.53.31-2.29-.68,4.86-1.92,9.6-3.81,14.13.29-.69.58-1.37.87-2.06-1.22,2.86-2.68,5.6-4.41,8.18-.39.58-.79,1.14-1.2,1.7-.1.14-.2.27-.29.4-.5.65-.2.26.9-1.17-.2.25-.39.5-.59.73-.72.89-1.48,1.74-2.26,2.56-1.1,1.15-2.28,2.24-3.52,3.24-1.1.88,2.22-1.69,1.04-.81-.14.11-.29.22-.45.33-.13.09-.26.17-.39.25-1.29.77-2.32,1.8-3.09,3.09-1.29,2.19-1.2,4.21-.87,6.63v.02c-.1-.76-.2-1.52-.31-2.29.99,7.42,1.07,15.12.12,22.53.1-.76.2-1.53.31-2.29-.49,3.61-1.27,7.15-2.67,10.52.29-.68.58-1.36.87-2.05-1.09,2.51-2.44,4.88-3.98,7.14-.37.53-.74,1.04-1.13,1.56-.52.69-.3.4.66-.84-.23.28-.46.57-.69.85-.79.96-1.62,1.91-2.46,2.82-1.65,1.77-3.41,3.5-5.32,5,4.9,2.03,9.8,4.06,14.7,6.09v-20.74c0-2.77-.87-5.02-1.77-7.6-1.45-4.16-2.9-8.31-4.35-12.46-.39-1.12-.77-2.22-1.16-3.33-1.01-2.89-2.96-5.18-6.01-6.02-4.01-1.1-7.41.8-9.72,3.96-3.7,5.07-7.4,10.14-11.1,15.21h14.87c-4.24-7.99-8.47-16-12.71-23.99-1.4-2.64-4.5-4.25-7.42-4.25-3.46,0-7.78,2.59-8.3,6.32-.36,2.61-1.39,5.2-2.38,7.61.28-.68.58-1.37.87-2.05-1.81,4.26-4.12,8.27-6.74,12.08-.38.55-.76,1.09-1.16,1.63-.21.28-.41.56-.62.84-1.13,1.51,1.24-1.58.05-.05-.78.99-1.58,1.97-2.42,2.89-1.32,1.45-2.79,2.76-4.31,3.99-.54.44-2.04,1.57.4-.29-.46.35-.93.68-1.4,1.02-.85.62-1.74,1.21-2.62,1.79-1.8,1.17-3.66,2.25-5.55,3.27-3.67,2.02-7.47,3.79-11.32,5.43.68-.29,1.37-.58,2.05-.87-5.33,2.24-10.79,4.31-16.35,5.89h4.58c-5.77-1.59-11.44-3.7-16.94-6.03.68.29,1.36.58,2.05.87-3.75-1.6-7.45-3.34-11.03-5.3-1.88-1.04-3.73-2.15-5.53-3.32-.88-.58-1.75-1.18-2.6-1.8-.38-.27-.74-.55-1.12-.83,2.54,1.92.71.53.14.06-1.43-1.19-2.79-2.47-4.05-3.85-.85-.94-1.63-1.93-2.4-2.92,1.6,2.04.07.06-.25-.37-.5-.67-.97-1.35-1.45-2.03-2.66-3.84-4.99-7.93-6.82-12.23.29.69.58,1.37.87,2.05-.99-2.37-2.01-4.91-2.36-7.47-.4-2.87-3.41-5.3-6.01-6.02-3.6-.99-7.93.57-9.72,3.95-4.24,8-8.46,16-12.7,23.99h14.86c-3.7-5.06-7.4-10.14-11.1-15.21-1.84-2.53-4.16-4.27-7.43-4.27-4.02,0-7.02,2.67-8.3,6.32-2.26,6.44-4.5,12.88-6.75,19.33-.88,2.52-.53,5.55-.53,8.18v16.62c4.32-2.48,8.64-4.95,12.95-7.43,3.56,2.71.95.71.14-.01-1.3-1.16-2.53-2.41-3.7-3.7-.74-.82-1.46-1.67-2.16-2.53-1.31-1.63,1.29,1.71,0-.01-.46-.63-.91-1.28-1.34-1.92-1.79-2.64-3.29-5.47-4.54-8.4.29.68.58,1.37.87,2.05-1.44-3.52-2.39-7.15-2.91-10.91.1.76.2,1.52.31,2.29-.72-5.46-.62-11,.11-16.45-.1.76-.2,1.53-.31,2.29.18-1.35.39-2.7.7-4.03.54-2.28.34-4.58-.87-6.63-1.01-1.72-3.07-3.65-5.14-3.95-4.58-.66-9.05-1.89-13.31-3.7.68.29,1.37.58,2.06.87-1.9-.82-3.74-1.73-5.52-2.77-.79-.46-1.53-.95-2.28-1.46-.36-.24-.72-.5-1.07-.76-1.83-1.32,1.17.95.02.04-2.52-2.01-4.81-4.3-6.92-6.75-.43-.51-.84-1.02-1.25-1.53-.87-1.09,1.42,1.86.59.77-.17-.23-.35-.46-.52-.69-.62-.85-1.21-1.72-1.78-2.6-.47-.74-.95-1.51-1.36-2.3-1.71,4.21-3.42,8.43-5.14,12.64,6.75-2.37,13.64-5.47,19.44-9.72,2.22-1.62,4.45-3.32,6.19-5.45,2.57-3.12,4.34-6.49,5.83-10.23,1.56-3.95,1.79-8.66-.21-12.48-1.02-1.93-3.08-3.38-5.14-3.95-2.39-.66-4.47-.16-6.64.86-.05.03-.09.05-.13.06.68-.29,1.37-.58,2.05-.87-1.4.58-2.9.88-4.39,1.1.76-.1,1.53-.21,2.29-.31-2.75.37-5.53.31-8.28-.06.76.1,1.52.21,2.28.31-3.63-.52-7.18-1.52-10.58-2.94.69.29,1.37.58,2.05.87-1.19-.53-2.32-1.17-3.41-1.89-.25-.17-.5-.35-.75-.53-1.11-.82,1.84,1.46.77.58-.58-.47-1.12-.96-1.66-1.46-1.02-.97-1.97-2.02-2.87-3.09-.21-.25-.42-.51-.62-.77-.9-1.11,1.4,1.84.54.7-.47-.62-.91-1.25-1.35-1.89-3.04-4.4-5.46-9.21-7.54-14.13.29.69.58,1.37.87,2.05-.88-2.1-1.73-4.23-2.41-6.4-3.53,3.53-7.06,7.05-10.59,10.59,2.63.74,5.33,1.27,8.02,1.73,6.26,1.07,12.66,1.77,19,1.34,3.57-.25,7.23-.76,10.65-1.85,4.15-1.34,7.57-3.38,10.92-6.15,5.14-4.25,7.9-10.43,10.44-16.39.74-1.71,1.49-3.41,2.36-5.06.43-.82.9-1.62,1.4-2.4.25-.39.51-.77.79-1.15.81-1.14-1.56,1.92-.26.35.62-.73,1.3-1.41,2.01-2.06.5-.46,2.08-1.61-.29.17.42-.31.86-.6,1.3-.88,2.31-1.47,4.87-2.63,7.38-3.71-.69.29-1.37.58-2.06.87,3.16-1.33,6.44-2.44,9.84-2.92-.76.1-1.52.2-2.29.31,1.12-.16,2.3-.27,3.43-.13-.76-.1-1.52-.2-2.28-.31.02,0,.05.01.07.01,3.86.66,7.63-.38,9.72-3.96,2.33-3.98,1-9.5-3.09-11.77-.57-.31-1.11-.67-1.65-1.03-.65-.43-1.28-.88-1.89-1.35-.65-.49-.27-.19,1.13.88-.21-.17-.42-.34-.63-.51-.45-.36-.9-.74-1.34-1.12-1.81-1.58-3.47-3.32-4.99-5.18-.53-.67-.32-.39.65.84-.23-.3-.46-.62-.68-.93-.46-.63-.88-1.3-1.3-1.98-.8-1.28-1.47-2.63-2.07-4.02.29.68.58,1.37.87,2.05-1.3-3.15-2.04-6.45-2.51-9.82.1.76.2,1.52.31,2.29-1.06-7.99-.93-16.33.12-24.33-4.9,2.03-9.79,4.05-14.69,6.08,1.22,1.41,2.62,2.69,4.02,3.91,3.98,3.49,8.33,6.6,12.96,9.17,13.21,7.29,28.65,10.29,43.51,7.38,5.87-1.14,11.43-3.39,17.01-5.46,6.39-2.38,12.86-4.39,19.63-5.33-.76.1-1.52.21-2.29.31,5.87-.77,11.81-.85,17.68-.06-.76-.1-1.53-.2-2.29-.3,4.94.69,9.76,1.99,14.37,3.92-.68-.29-1.37-.58-2.06-.87,2.43,1.03,4.79,2.23,7.06,3.58.91.56,1.81,1.14,2.7,1.74.4.28.79.55,1.18.84.18.13.36.26.54.4,1.27.95-1.82-1.41-.89-.69,1.43,1.13,2.86,2.33,4.07,3.69,2,2.26,5.55,2.99,8.38,2.22,3.72-1.03,6.27-4.46,6.31-8.3.08-6.02-.27-12.34-1.75-18.18-1.04-4.1-3.18-8.04-5.3-11.67-1.11-1.9-2.28-3.78-3.53-5.58-3.24,4.21-6.48,8.43-9.72,12.64,1.08.39,2.14.84,3.2,1.28-.69-.29-1.37-.58-2.06-.87,6.41,2.71,12.63,5.91,18.45,9.74.81.53,1.61,1.09,2.41,1.65.45.32.88.63,1.32.96.17.13.35.26.52.39,1.14.86-1.83-1.43-.71-.55,1.71,1.33,3.33,2.76,4.87,4.28.76.73,1.47,1.51,2.18,2.3.34.39.67.79,1,1.19.51.65.25.32-.78-1.02.18.24.37.49.55.74,1.17,1.6,2.16,3.33,2.96,5.15-.3-.68-.58-1.37-.88-2.05,2.1,5,3.13,10.71,3.88,16.06-.1-.76-.21-1.53-.31-2.29.48,3.59.76,7.26.28,10.87.1-.77.2-1.53.31-2.29-.09.68-.19,1.4-.43,2.05-1.59,4.41,1.75,9.42,6.01,10.59,4.79,1.31,8.99-1.6,10.59-6.02Z"/>
    </g>
    <path class="st17" d="M241.44,66.92s2.71-7.41-2.85-26.53c-5.57-19.11-39.94-31.66-39.94-31.66,0,0,5.85,8.42,7.7,14.26,1.85,5.85,1.71,16.83,1.71,16.83,0,0-13.55-15.4-39.08-15.4s-36.47,13.09-56.76,12.26c-25.94-1.04-41.36-19.11-41.36-19.11,0,0-2.64,20.16,1.78,32.56,4.42,12.41,16.48,19.07,16.48,19.07,0,0-6.42-1.14-19.69,6.13-13.27,7.27-10.27,23.32-23.1,31.24-12.83,7.91-37.66.86-37.66.86,0,0,8.27,26.25,22.68,32.09,14.41,5.85,23.1,1.71,23.1,1.71,0,0,1.71,3.13-3.42,11.12-5.14,7.98-22.68,14.12-22.68,14.12,0,0,6.42,12.4,19.26,19.25,6.42,3.42,12.62,4.92,17.23,5.56,0,0-3.65,15.4,1.25,29.18,4.9,13.78,15.53,21.88,15.53,21.88v-21.88l6.98-19.97,11.1,15.22,12.71-23.99s1.47,10.7,13.6,25.58c12.14,14.88,43.9,23.61,43.9,23.61,0,0,31.82-9.07,43.9-23.61,12.09-14.54,13.61-25.58,13.61-25.58l12.69,23.99,11.1-15.22,6.97,19.97v21.88s11.94-9.28,15.53-21.88c3.6-12.59,1.27-29.48,1.27-29.48,0,0,18.65-11.61,18.65-41.63,0-68.24-52.19-82.44-52.19-82.44Z"/>
    <g>
      <path class="st5" d="M54.45,141.24s.2.35.26,1.1c4.24-7.12,2.7-9.96,2.7-9.96,0,0-8.33,3.13-23.11-1.71-11.68-3.82-25.63-23.24-25.63-23.24,0,0,8.27,26.25,22.68,32.09,14.41,5.85,23.1,1.71,23.1,1.71Z"/>
      <path class="st5" d="M277.93,182.14s.33,2.39.55,6.04c4.02-3.74,10.45-11.39,13.48-24-5.53,12.67-14.03,17.96-14.03,17.96Z"/>
      <path class="st5" d="M69.04,211.63c-4.91-13.79-1.26-29.18-1.26-29.18-4.6-.65-10.8-2.14-17.22-5.56-7.01-3.74-22.21-10.4-22.21-10.4,0,0,6.42,12.4,19.26,19.25,6.42,3.42,12.62,4.92,17.23,5.56,0,0-3.65,15.4,1.25,29.18,4.9,13.78,15.53,21.88,15.53,21.88v-11.47c-3.51-3.42-9.31-10.07-12.57-19.25Z"/>
      <path class="st5" d="M261.13,233.5v-21.88l-6.97-19.97-11.1,15.22-12.7-24s-.47,3.39-2.94,8.88l12.68,23.97,11.1-15.22,6.97,19.97v21.88s11.94-9.28,15.53-21.88c.31-1.09.58-2.22.81-3.37-4.8,9.72-13.39,16.39-13.39,16.39Z"/>
    </g>
    <g>
      <path class="st26" d="M240.24,50.91c.7,2.38,1.26,4.57,1.71,6.59-.31-4.14-1.22-9.76-3.36-17.1-5.57-19.11-39.94-31.66-39.94-31.66,0,0,4.94,7.11,7.18,12.79,9.95,4.45,30.25,15.08,34.41,29.38Z"/>
      <path class="st26" d="M72.52,28.08s15.42,18.06,41.36,19.12c20.29.81,31.23-12.27,56.76-12.27s39.08,15.4,39.08,15.4c0,0,.14-10.98-1.71-16.83-.04-.13-.09-.27-.13-.41.22,3.71.19,6.73.19,6.73,0,0-13.55-15.4-39.08-15.4s-36.47,13.09-56.76,12.26c-25.94-1.04-41.36-19.11-41.36-19.11,0,0-2.35,17.92,1.09,30.37-.7-10.11.57-19.87.57-19.87Z"/>
      <path class="st26" d="M243.1,77.44s39.71,10.8,49.85,58.83c-5.33-49.53-40.29-65.34-49.37-68.63.58,6.89-.49,9.8-.49,9.8Z"/>
      <path class="st26" d="M259.84,230.99l-1.66-4.75v16.11s.63-.5,1.66-1.41v-9.95Z"/>
      <path class="st26" d="M50.83,112.44c7.27-4.44,8.39-14.13,15.12-25.69,5.18-8.91,14.17-16.13,14.17-16.13,0,0-6.42,2.38-10.69,4.72-13.27,7.27-10.27,23.32-23.1,31.24-12.83,7.91-37.66.86-37.66.86,0,0,20.63,18.15,42.16,5.01Z"/>
      <path class="st26" d="M52.69,162.87c5.13-7.98,3.42-11.12,3.42-11.12,0,0-1.95.93-5.55,1.29-5.64,7.65-22.21,13.45-22.21,13.45,0,0,17.62,6.83,24.34-3.62Z"/>
    </g>
  </g>
  <path class="st20" d="M264.21,102.01c7.64,9.55,10.19,20.21,5.7,23.8-4.49,3.59-14.32-1.24-21.96-10.8-7.64-9.55-10.19-20.21-5.7-23.79,4.49-3.59,14.32,1.25,21.96,10.8Z"/>
  <circle class="st20" cx="276.98" cy="135.9" r="4.18"/>
  <g>
    <path class="st19" d="M209.76,280.32s26.47,31.45,14.99,38.23c-11.49,6.78-27.57-22.61-27.57-22.61l12.58-15.62Z"/>
    <path d="M207.37,282.71c.91,1.07,1.78,2.19,2.65,3.3.38.5-.54-.69-.14-.17.1.13.2.27.31.4.21.28.43.56.65.84.51.67,1,1.36,1.51,2.03,1.08,1.49,2.14,3,3.17,4.53,2.22,3.31,4.3,6.73,6.05,10.3.2.42.4.84.59,1.25.11.24.69,1.6.29.64.36.86.68,1.73.97,2.62.25.76.45,1.52.62,2.3.08.36.14.73.2,1.1-.18-1.24.01.18.02.5.02.33.02.66,0,.99,0,.16-.02.32-.03.47-.05.63.14-.9.04-.28-.05.29-.13.58-.21.87-.28.98.36-.65-.09.25-.14.27-.78,1.12-.02.14-.17.23-.38.44-.59.63-.57.53.71-.45-.17.12-.15.1-.32.18-.47.27-.81.45.49-.16-.05.05-.34.13-.69.22-1.05.3-.24.05-.91.11.2-.02-.17.02-.36.03-.54.03-.36.02-.72,0-1.07-.04,1.22.12-.22-.08-.55-.16-.37-.1-.73-.22-1.1-.36-.68-.25.74.33.08.04-.18-.09-.37-.18-.55-.27-.82-.42-1.61-.92-2.37-1.46-.18-.13-.36-.26-.54-.39-.63-.47.59.47-.04-.03-.36-.29-.72-.59-1.07-.9-.79-.69-1.54-1.43-2.27-2.17-1.44-1.47-2.78-3.05-4.06-4.67-.1-.12-.61-.79-.08-.09-.14-.19-.29-.39-.43-.57-.29-.39-.57-.77-.85-1.15-.58-.79-1.15-1.6-1.7-2.41-.91-1.33-1.78-2.67-2.62-4.04-.67-1.07-1.32-2.16-1.93-3.27-.18,1.36-.35,2.73-.53,4.09,4.19-5.2,8.38-10.41,12.58-15.62,1.15-1.44,1.41-3.37,0-4.79-1.2-1.2-3.62-1.43-4.79,0-4.19,5.21-8.38,10.42-12.58,15.63-.99,1.22-1.32,2.64-.53,4.09,2.68,4.89,5.93,9.54,9.45,13.87,4.65,5.71,12.05,13.27,20.22,11.04,3.48-.94,6.29-3.78,6.87-7.38.58-3.59-.29-7.17-1.6-10.51-2.86-7.31-7.31-13.96-11.98-20.24-1.63-2.2-3.31-4.39-5.07-6.49-1.19-1.41-3.56-1.21-4.79,0-1.38,1.39-1.18,3.37,0,4.79Z"/>
  </g>
  <g>
    <polygon class="st7" points="211.95 316.58 227.72 306.39 224.14 300.87 208.38 311.06 211.95 316.58"/>
    <path d="M211.88,316.92l-3.84-5.93.21-.14,15.96-10.32,3.84,5.94-.21.14-15.97,10.32ZM208.72,311.13l3.3,5.11,15.35-9.91-3.3-5.11-15.35,9.92Z"/>
  </g>
  <path class="st28" d="M213.57,307.45l7.33-4.73s-2.81-5.01-5.25-8.75c-2.42-3.75-5.96-8.3-5.96-8.3l-.83,1.07s2.78,4.06,5.58,8.27c2.81,4.21,4.1,6.96,4.1,6.96l-4.98,5.47Z"/>
  <g>
    <path class="st19" d="M139.14,280.32s-26.48,31.45-14.99,38.23c11.49,6.78,27.57-22.61,27.57-22.61l-12.57-15.62Z"/>
    <path d="M136.75,277.92c-3.19,3.8-6.16,7.82-8.93,11.92-4.36,6.43-8.8,13.63-9.83,21.46-.43,3.22.4,6.8,2.89,9.01,3.04,2.69,7.31,3.24,11.08,1.89,3.93-1.41,7.23-4.19,10.1-7.16,2.93-3.04,5.5-6.44,7.89-9.91,1.66-2.42,3.27-4.91,4.68-7.49.79-1.45.46-2.87-.53-4.09-4.19-5.21-8.38-10.42-12.58-15.63-1.15-1.43-3.59-1.2-4.78,0-1.41,1.41-1.16,3.35,0,4.79,4.19,5.21,8.38,10.41,12.58,15.62-.18-1.36-.35-2.73-.53-4.09-.8,1.47-1.68,2.89-2.57,4.29-.92,1.46-1.88,2.89-2.88,4.29-.54.77-1.1,1.53-1.66,2.29-.14.19-.29.38-.44.57.54-.71.03-.04-.08.09-.35.45-.72.9-1.08,1.35-1.32,1.59-2.7,3.11-4.19,4.52-.69.65-1.4,1.28-2.14,1.88-.62.51.6-.45-.03.03-.18.14-.36.27-.54.39-.41.3-.84.57-1.28.84-.36.22-.72.43-1.1.62-.19.09-.36.18-.55.27-.66.3.75-.3.08-.04-.36.14-.73.26-1.1.36-.32.09-1.78.31-.55.16-.36.04-.72.04-1.08.04-.18,0-.36-.02-.53-.03,1.08.1.46.06.19.02-.36-.07-.7-.18-1.04-.3-.65-.24.76.35.12.04-.22-.11-.43-.23-.64-.35-.88-.54.42.4-.17-.12-.21-.19-.41-.41-.59-.63.77.95.14.14-.02-.14-.49-.88.21.71-.1-.25-.09-.29-.16-.58-.21-.87-.11-.62.1.91.04.28-.01-.16-.02-.31-.04-.47-.01-.33,0-.66.01-.99.01-.32.19-1.74.02-.5.23-1.64.73-3.24,1.31-4.79.15-.41.31-.82.48-1.22-.39.96.19-.4.29-.64.42-.92.87-1.82,1.33-2.72,1.83-3.53,3.97-6.9,6.22-10.17,1-1.46,2.03-2.9,3.09-4.32.44-.59.88-1.17,1.32-1.75.1-.14.21-.27.31-.4.39-.51-.52.67-.14.17.21-.27.42-.54.63-.81.66-.83,1.32-1.66,2.01-2.48,1.18-1.41,1.39-3.39,0-4.79-1.22-1.21-3.6-1.41-4.78,0Z"/>
  </g>
  <g>
    <path class="st19" d="M201.47,285.72h-54.24s-10.59,58.77-3.39,61.29c7.2,2.52,13.88-8.96,13.88-8.96,0,0,5.3,1.62,14.5,1.9h0c.69.03,1.4.04,2.12.04s1.43,0,2.12-.03h0c9.19-.29,14.5-1.91,14.5-1.91,0,0,6.67,11.48,13.88,8.96,7.21-2.52-3.39-61.29-3.39-61.29Z"/>
    <path d="M201.47,282.34h-54.24c-1.4,0-3,1.02-3.26,2.48-2.07,11.48-3.76,23.07-4.97,34.67-.73,7.03-1.48,14.27-.87,21.33.2,2.33.47,5.14,1.85,7.14,2.72,3.94,8.34,3.15,11.99,1.01,3.57-2.08,6.59-5.66,8.67-9.21-1.27.52-2.55,1.04-3.82,1.56,4.91,1.48,10.31,1.86,15.4,2.03-1.12-1.13-2.25-2.26-3.38-3.38h0c0,1.89,1.54,3.34,3.38,3.39,1.41.04,2.83.04,4.25,0,1.84-.05,3.38-1.5,3.38-3.38h0c-1.13,1.12-2.25,2.25-3.38,3.38,5.09-.17,10.49-.54,15.4-2.03-1.27-.52-2.55-1.04-3.82-1.56,1.62,2.77,3.79,5.41,6.25,7.45,3.58,2.96,9.43,5.34,13.5,1.87,1.91-1.62,2.32-4.6,2.62-6.92.39-2.97.37-5.98.28-8.96-.23-7.95-1.16-15.89-2.2-23.77-.9-6.85-1.92-13.68-3.06-20.49-.23-1.37-.46-2.75-.71-4.12-.33-1.81-2.51-2.82-4.16-2.36-1.9.52-2.69,2.35-2.36,4.16.65,3.61,1.24,7.24,1.8,10.87.57,3.64,1.1,7.29,1.59,10.93.12.84-.1-.78.01.06.03.24.06.48.09.72.06.48.13.97.18,1.46.14,1.06.27,2.11.4,3.18.25,2.05.49,4.11.69,6.16.72,6.96,1.47,14.15.79,21.14-.02.3-.06.6-.09.89.16-1.32.02-.24-.03.07-.09.52-.21,1.03-.35,1.55-.06.2-.13.4-.2.6-.23.65.44-.92.08-.2-.08.15-.16.29-.25.43-.32.49.72-.79.14-.22-.41.4.88-.58.31-.25-.24.14-.69.24.58-.24-.25.09-.52.16-.79.21-.85.21.74-.04-.13.02-.25.01-.51,0-.76-.01-.86-.04.74.14-.1-.02-.33-.07-.66-.17-.98-.28-.83-.28.65.31-.15-.06-.24-.11-.46-.24-.69-.36-.46-.25-.9-.56-1.33-.87.66.48-.05-.04-.15-.13-.21-.17-.41-.35-.61-.53-.46-.4-.88-.84-1.3-1.29-.5-.53-.97-1.08-1.42-1.66-.39-.49.43.58-.13-.17-.18-.25-.36-.51-.55-.77-.34-.48-.67-.98-.98-1.49-.75-1.28-2.37-2-3.82-1.55-1.2.36-2.44.59-3.67.82-.66.12-1.33.23-2,.33-1.06.16.69-.09-.43.06-.48.06-.97.12-1.46.17-2.01.22-4.03.34-6.04.41-1.84.06-3.38,1.49-3.38,3.38h0c1.13-1.12,2.25-2.25,3.38-3.37-1.42.04-2.84.04-4.25,0,1.13,1.12,2.26,2.25,3.38,3.38h0c0-1.89-1.54-3.32-3.38-3.38-2.03-.07-4.04-.2-6.06-.41-.36-.04-.73-.08-1.1-.13-.23-.02-.47-.05-.69-.09.34.04.31.04-.09-.01-.66-.1-1.33-.21-2-.33-1.23-.22-2.48-.46-3.67-.82-1.45-.45-3.07.27-3.82,1.55-.49.84-1.06,1.64-1.65,2.43-.46.6.48-.62,0,0-.14.19-.29.36-.44.55-.32.38-.65.74-.98,1.11-.36.38-.73.75-1.11,1.11-.2.19-.39.36-.59.54-.12.1-1.04.81-.36.3-.42.32-.87.6-1.33.87-.23.13-.46.25-.7.36-.78.39.67-.24-.14.06-.24.08-.48.15-.73.22-.17.04-1.01.17-.09.06-.25.04-.5.04-.76.04-.17,0-.35-.01-.51-.03.47.08.51.08.13,0-.68-.13-1.26-.53-.2.02-.59-.3.73.63.31.25-.55-.5.34.5.19.29-.12-.16-.21-.33-.3-.5-.37-.73.32.84.08.2-.08-.2-.14-.4-.2-.6-.16-.51-.27-1.03-.35-1.55-.06-.31-.2-1.39-.02-.07-.04-.29-.08-.59-.1-.89-.07-.71-.12-1.41-.15-2.12-.16-3.4-.01-6.8.2-10.19.25-4.02.64-8.02,1.09-12.02.23-2.05.48-4.1.74-6.14.06-.48.13-.98.19-1.46.03-.24.06-.48.09-.72.11-.84-.1.78,0-.06.14-1.01.28-2.03.42-3.04.81-5.7,1.7-11.39,2.68-17.06.1-.56.2-1.13.3-1.69-1.09.83-2.18,1.66-3.26,2.48h54.24c4.36,0,4.36-6.76,0-6.76Z"/>
  </g>
  <g>
    <g>
      <polygon class="st23" points="199.66 284.99 174.54 284.99 174.34 284.99 149.22 284.99 138.34 320.78 174.34 320.78 174.54 320.78 210.54 320.78 199.66 284.99"/>
      <path d="M199.66,278.23h-50.44c-3.07,0-5.64,2.07-6.52,4.96-3.47,11.41-6.94,22.81-10.41,34.22-.16.53-.32,1.05-.48,1.58-1.29,4.23,2.21,8.55,6.52,8.55h72.2c4.31,0,7.8-4.33,6.52-8.55-3.47-11.41-6.93-22.81-10.4-34.22-.16-.53-.32-1.05-.48-1.58-1.07-3.52-4.69-5.72-8.32-4.72-3.48.96-5.79,4.79-4.72,8.32,3.47,11.41,6.94,22.8,10.41,34.21.16.53.31,1.06.48,1.58,2.17-2.86,4.34-5.7,6.52-8.55h-72.2c2.18,2.85,4.34,5.7,6.52,8.55,3.47-11.4,6.93-22.8,10.41-34.21.15-.53.32-1.06.47-1.58-2.18,1.66-4.34,3.31-6.52,4.96h50.44c3.68,0,6.76-3.08,6.76-6.77s-3.08-6.76-6.76-6.76Z"/>
    </g>
    <polygon class="st19" points="199.66 284.99 174.54 284.99 174.34 284.99 149.22 284.99 138.34 320.78 174.34 320.78 174.54 320.78 210.54 320.78 199.66 284.99"/>
  </g>
  <polygon class="st28" points="148.76 286.41 138.34 320.78 166.71 320.78 143.54 317.39 148.76 286.41"/>
  <polygon class="st28" points="200.11 286.41 210.54 320.78 182.16 320.78 205.33 317.39 200.11 286.41"/>
  <polygon class="st21" points="203.91 330.52 144.87 330.52 145.12 327.51 203.65 327.51 203.91 330.52"/>
  <g>
    <polygon class="st7" points="136.94 316.58 121.18 306.39 124.74 300.87 140.52 311.06 136.94 316.58"/>
    <path d="M137.01,316.92l-16.17-10.45,3.83-5.94,16.18,10.46-.14.21-3.71,5.73ZM121.52,306.32l15.35,9.91,3.3-5.11-15.36-9.92-3.29,5.11Z"/>
  </g>
  <g>
    <g>
      <path class="st23" d="M94.67,222.19c0,30.12,16.87,58.04,79.76,57.79,62.25-.26,76.98-27.67,76.98-57.79H94.67Z"/>
      <path d="M86.06,222.19c.01,7.6.97,15.39,3.41,22.61,2.69,7.96,6.97,15.21,12.82,21.28,15.08,15.64,37.87,20.64,58.73,22.09,13.95.96,28.1.37,41.88-1.97,10.18-1.74,20.35-4.93,29.27-10.2,7.57-4.49,14.02-10.62,18.76-18.05,4.02-6.32,6.6-13.68,7.83-21.05.81-4.87,1.26-9.77,1.26-14.71,0-4.68-3.92-8.6-8.61-8.6H94.67c-4.69,0-8.61,3.92-8.61,8.6s3.91,8.61,8.61,8.61h156.75c-2.87-2.87-5.74-5.74-8.61-8.61,0,3.53-.21,7.05-.68,10.55.1-.76.21-1.52.31-2.29-.67,4.84-1.85,9.6-3.73,14.12.29-.69.58-1.38.87-2.06-1.51,3.57-3.44,6.93-5.79,10,.44-.58.9-1.15,1.35-1.74-2.38,3.08-5.17,5.82-8.24,8.21.58-.46,1.16-.89,1.74-1.35-3.92,3.01-8.27,5.42-12.82,7.34.69-.29,1.37-.58,2.05-.87-7.68,3.21-15.86,5.07-24.1,6.19.77-.1,1.53-.21,2.3-.31-14.66,1.95-29.82,1.97-44.48.03.76.11,1.52.21,2.29.31-8.47-1.14-16.88-3.06-24.78-6.38.68.29,1.37.58,2.05.87-4.68-1.98-9.13-4.46-13.17-7.56.58.45,1.16.9,1.74,1.35-3.24-2.51-6.16-5.38-8.67-8.62.45.58.89,1.15,1.34,1.74-2.41-3.16-4.4-6.61-5.96-10.28.29.68.58,1.37.87,2.05-1.86-4.46-3.06-9.16-3.72-13.95.1.77.2,1.53.31,2.29-.43-3.2-.62-6.42-.63-9.65,0-4.68-3.9-8.6-8.6-8.6s-8.61,3.92-8.61,8.6Z"/>
    </g>
    <path class="st2" d="M94.67,205.88c-.29,11.21,0,16.31,0,16.31,0,30.12,16.87,58.04,79.76,57.79,62.25-.26,76.98-27.67,76.98-57.79v-16.31H94.67Z"/>
    <path class="st11" d="M174.43,276.04c-57.03.24-76.4-22.59-79.64-49.29,1.69,28.32,19.92,53.47,79.63,53.23,58.58-.25,75.08-24.54,76.82-52.5-3.13,26.29-20.9,48.33-76.81,48.56Z"/>
  </g>
  <path class="st28" d="M135.32,307.45l-7.33-4.73s2.82-5.01,5.25-8.75c2.42-3.75,5.96-8.3,5.96-8.3l.83,1.07s-2.77,4.06-5.58,8.27c-2.81,4.21-4.1,6.96-4.1,6.96l4.98,5.47Z"/>
  <path class="st13" d="M253.67,212.19c-7.74-32.6-79.25-29.13-80.73-29.03h-.03s-.02,0-.04,0h-.03s-.02,0-.03,0c-1.48-.11-73-3.57-80.74,29.03-7.82,32.94,19.32,48.68,30.04,47.96,22.72-1.52,25.54-31.3,50.7-31.3h.13c25.15,0,27.99,29.78,50.7,31.3,10.73.72,37.86-15.02,30.04-47.96Z"/>
  <path class="st23" d="M253.67,212.19c-7.74-32.6-79.25-29.13-80.73-29.03h-.03s-.02,0-.04,0h-.03s-.02,0-.03,0c-1.48-.11-73-3.57-80.74,29.03-7.82,32.94,19.32,48.68,30.04,47.96,22.72-1.52,25.54-31.3,50.7-31.3h.13c25.15,0,27.99,29.78,50.7,31.3,10.73.72,37.86-15.02,30.04-47.96ZM223.38,252.83c-13.57.61-24.36-30.28-50.44-30.28h-.13c-26.09,0-36.88,30.89-50.45,30.28-7.72-.33-27.26-8.58-23.98-36.6,3.23-27.53,71.97-26.41,74.4-26.38h0s.02,0,.04,0c.02,0,.03,0,.03,0h0s.02,0,.03,0h.02s.02,0,.04,0c.01,0,.03,0,.03,0h0c2.42-.04,71.16-1.15,74.39,26.37,3.29,28.02-16.26,36.27-23.98,36.6Z"/>
  <path d="M223.38,244.22c-.55.02-1.09-.01-1.63-.07.77.1,1.52.2,2.29.31-.95-.14-1.86-.41-2.74-.78.69.29,1.37.58,2.05.87-1.55-.66-2.97-1.59-4.32-2.62.59.44,1.17.89,1.74,1.34-6.49-5.04-11.55-11.7-17.83-17.01-3.99-3.37-8.27-6.49-13.08-8.56-5.67-2.44-11.48-3.86-17.69-3.76-6.11.09-11.81,1.67-17.32,4.21-4.65,2.14-8.82,5.32-12.68,8.64-6.03,5.17-10.93,11.61-17.21,16.48.58-.45,1.17-.9,1.74-1.34-1.34,1.03-2.76,1.95-4.32,2.62.69-.28,1.37-.58,2.06-.87-.89.37-1.79.64-2.74.78.77-.11,1.52-.21,2.29-.31-.99.13-1.97.09-2.96-.05.77.1,1.53.21,2.3.31-2-.28-3.93-.87-5.79-1.64.69.28,1.37.58,2.06.87-2.22-.94-4.28-2.16-6.2-3.62.58.44,1.16.9,1.74,1.34-1.82-1.42-3.45-3.05-4.86-4.88.45.58.89,1.16,1.34,1.74-1.43-1.87-2.6-3.91-3.53-6.06.29.68.58,1.37.87,2.05-1.18-2.8-1.93-5.74-2.33-8.75.1.76.21,1.53.31,2.29-.49-3.93-.45-7.96.07-11.89-.1.77-.21,1.53-.31,2.29.2-1.41.58-2.79,1.14-4.11-.29.69-.58,1.37-.87,2.05.61-1.41,1.4-2.72,2.33-3.93-.44.58-.89,1.15-1.34,1.74,1.27-1.62,2.76-3.03,4.38-4.28-.58.45-1.16.9-1.74,1.35,2.82-2.15,5.96-3.81,9.22-5.19-.68.29-1.37.57-2.05.87,8.56-3.6,17.82-5.43,26.99-6.67-.76.1-1.53.2-2.29.3,10-1.33,20.18-1.98,30.28-1.82-2.86-2.86-5.74-5.74-8.6-8.61h0c0,4.62,3.91,8.71,8.6,8.61h.07c4.69.1,8.61-3.99,8.61-8.6h0c-2.87,2.86-5.74,5.74-8.61,8.6h.05c-2.87-2.86-5.73-5.74-8.6-8.61h0c0,4.62,3.91,8.71,8.6,8.61h.08c4.69.1,8.6-3.99,8.6-8.6h0c-2.87,2.86-5.73,5.74-8.6,8.6,10.1-.16,20.27.5,30.28,1.82-.76-.1-1.52-.2-2.29-.3,9.17,1.23,18.43,3.06,26.99,6.67-.68-.29-1.37-.58-2.06-.87,3.26,1.38,6.4,3.04,9.22,5.19-.58-.45-1.15-.9-1.74-1.35,1.62,1.25,3.11,2.67,4.38,4.28-.44-.58-.89-1.16-1.34-1.74.94,1.21,1.73,2.52,2.33,3.93-.29-.68-.58-1.37-.87-2.05.55,1.32.94,2.7,1.14,4.11-.1-.76-.2-1.52-.31-2.29.53,3.93.57,7.95.07,11.89.1-.76.21-1.53.31-2.29-.4,3.01-1.16,5.95-2.34,8.75.29-.69.58-1.37.87-2.05-.92,2.15-2.1,4.19-3.52,6.06.44-.58.9-1.17,1.34-1.74-1.41,1.82-3.05,3.46-4.86,4.88.58-.44,1.16-.9,1.74-1.34-1.9,1.46-3.98,2.68-6.19,3.62.69-.29,1.37-.58,2.06-.87-1.86.78-3.79,1.36-5.78,1.64.76-.1,1.52-.21,2.29-.31-.43.06-.87.1-1.31.12-4.68.23-8.61,3.74-8.61,8.6,0,4.53,3.92,8.84,8.61,8.61,7.87-.39,15.23-4.06,21.01-9.29,8.4-7.6,11.98-19.11,11.94-30.19-.02-5.49-.74-10.74-3.24-15.66-1.65-3.26-4.24-6.21-7.08-8.49-6.75-5.43-14.75-8.73-23.06-11.02-8.3-2.28-16.9-3.5-25.45-4.39-6.22-.65-12.48-1.01-18.73-1.13-1.93-.04-3.87-.06-5.8-.02-4.69.08-8.6,3.86-8.6,8.6h0c2.86-2.87,5.73-5.73,8.6-8.6h-.08c2.88,2.87,5.74,5.73,8.61,8.61h0c0-4.79-3.92-8.49-8.61-8.61h-.05c-4.69.12-8.6,3.82-8.6,8.6h0c2.87-2.87,5.73-5.73,8.6-8.6h-.07c2.87,2.87,5.74,5.73,8.61,8.61h0c0-4.75-3.92-8.53-8.61-8.61-10.97-.18-21.94.71-32.8,2.17-7.86,1.06-15.71,2.61-23.2,5.25-7.49,2.65-15.45,6.38-20.62,12.65-2.76,3.33-5.01,7.08-5.87,11.37-1.33,6.58-1.1,13.57.25,20.12,2.03,9.91,8.27,18.66,16.89,23.9,6.03,3.66,14.55,6.37,21.45,3.63,4.42-1.76,8.05-4.45,11.52-7.69,3-2.81,5.78-5.84,8.69-8.76,2.48-2.46,5.04-4.86,7.8-7-.58.44-1.17.89-1.74,1.34,2.92-2.26,6.04-4.22,9.43-5.67-.69.29-1.37.57-2.05.86,2.66-1.11,5.43-1.9,8.29-2.3-.77.1-1.52.21-2.29.31,2.89-.38,5.82-.38,8.71,0-.76-.1-1.52-.21-2.29-.31,2.86.4,5.63,1.19,8.3,2.3-.69-.29-1.38-.57-2.06-.86,3.39,1.46,6.51,3.42,9.43,5.67-.58-.45-1.15-.9-1.74-1.34,5.66,4.41,10.37,9.82,15.51,14.81,5.11,4.97,11.46,9.99,19,9.73,4.69-.17,8.61-3.79,8.61-8.61,0-4.56-3.91-8.76-8.61-8.6Z"/>
  <path class="st5" d="M263.8,220.08c.13-1.01.22-2.03.29-3.05.35-5.41-.39-10.96-1.62-16.22-4.27-17.6-22.22-26.4-38.28-30.58-14.29-3.72-29.38-4.94-44.12-4.91-1.78,0-3.6.17-5.39.18-.42-.05-.84-.06-1.27-.04-.02.01-.05.01-.07,0-.31-.02-.62,0-.94,0-.53-.02-1.07-.07-1.59-.09-2.05-.05-4.12-.06-6.18-.05-6.59.04-13.18.4-19.74,1.1-17.23,1.82-35.41,5.4-49.2,16.59-3.13,2.53-5.82,5.73-7.89,9.18-2.52,4.22-3.82,8.96-4.49,13.78-.14,1.02-.26,2.03-.36,3.04l-.83,2.38v11.8l.83-2.38c.1-1,.21-2.02.36-3.03.68-4.83,1.97-9.56,4.49-13.78,2.07-3.45,4.76-6.65,7.89-9.19,13.79-11.18,31.96-14.77,49.2-16.59,6.56-.69,13.15-1.04,19.74-1.09,2.06-.01,4.13,0,6.18.05.53.02,1.06.07,1.59.09.32-.02.62-.02.94,0h.07c.43-.03.86-.02,1.27.03,1.79,0,3.61-.17,5.39-.18,14.74-.03,29.83,1.19,44.12,4.91,16.06,4.18,34.01,12.98,38.28,30.59.57,2.44,1.03,4.95,1.33,7.47Z"/>
  <g>
    <g>
      <g>
        <g>
          <path class="st27" d="M317.02,228.07c-.1.47.21.95.68,1.05.48.09.94-.21,1.04-.69.1-.48-.21-.95-.68-1.04-.48-.1-.95.21-1.04.68Z"/>
          <path d="M312.87,226.93c-.18,1.22-.22,1.37-.01,2.57.08.48.32.95.54,1.38.61,1.17,1.91,2.07,3.16,2.39,2.72.71,5.61-.96,6.33-3.69.71-2.72-.96-5.62-3.69-6.33-2.72-.71-5.62.96-6.33,3.69-.59,2.27.72,4.66,3,5.29,2.24.62,4.7-.74,5.29-3,.01-.07.03-.13.06-.18-.14.35-.29.68-.44,1.03.03-.06.06-.11.1-.16-.22.29-.45.58-.68.87.06-.07.12-.13.19-.19-.29.22-.58.45-.87.67.05-.04.1-.06.15-.09-.34.14-.69.29-1.03.43.09-.04.17-.06.27-.07-.38.05-.77.1-1.14.16.06,0,.12,0,.18,0-.38-.05-.76-.11-1.14-.16.1.01.19.03.28.07-.35-.14-.69-.28-1.03-.43.06.02.11.06.16.09-.29-.22-.58-.45-.87-.68.07.06.13.12.19.19-.22-.28-.45-.58-.68-.87.04.05.07.1.09.15-.14-.34-.29-.68-.43-1.02.03.09.06.17.07.26-.05-.38-.1-.76-.16-1.14.02.06.02.13.01.18.05-.38.1-.76.15-1.14-.01.1-.03.19-.07.28.14-.34.29-.68.44-1.03-.03.06-.06.11-.09.16.22-.29.45-.58.67-.87-.05.08-.12.13-.19.2.29-.23.58-.46.87-.68-.05.03-.1.06-.16.09.35-.15.69-.29,1.03-.44-.08.03-.17.06-.26.07.38-.05.76-.1,1.14-.15-.06,0-.13,0-.18,0,.38.05.76.1,1.14.15-.1-.01-.18-.03-.28-.07.35.14.69.29,1.03.43-.06-.02-.11-.06-.16-.09.29.22.58.44.87.67-.08-.06-.13-.12-.19-.2.22.29.45.59.68.88-.04-.05-.08-.1-.09-.15.14.34.28.68.43,1.03-.03-.09-.06-.17-.08-.27.05.38.1.76.15,1.14,0-.06,0-.13,0-.19-.05.38-.1.76-.15,1.14,0-.04,0-.06.01-.09.05-.38.1-.76.15-1.15,0-.77-.2-1.5-.59-2.17-.56-.96-1.49-1.67-2.57-1.97-1.11-.31-2.32-.15-3.31.43-.87.51-1.82,1.53-1.97,2.57Z"/>
        </g>
        <path class="st1" d="M317.02,228.07c-.1.47.21.95.68,1.05.48.09.94-.21,1.04-.69.1-.48-.21-.95-.68-1.04-.48-.1-.95.21-1.04.68Z"/>
        <path class="st22" d="M317.74,228.93c.45.09.88-.17,1.02-.6,0,.03-.01.06-.02.09-.1.47-.56.78-1.04.69-.47-.1-.79-.57-.68-1.05,0-.03.01-.06.02-.09-.04.44.25.85.7.95Z"/>
      </g>
      <path class="st20" d="M317.66,227.55c-.19.06-.31.21-.27.32.03.11.22.14.41.07.19-.06.31-.21.28-.31-.03-.11-.23-.14-.41-.08Z"/>
      <path class="st20" d="M317.21,227.96s.02.08.06.09c.04,0,.08-.02.09-.06.01-.04-.01-.08-.06-.09-.04,0-.08.02-.09.06Z"/>
    </g>
    <g>
      <g>
        <g>
          <path class="st27" d="M254.91,289.31c-.78,3.79,1.66,7.49,5.45,8.27,3.79.79,7.49-1.66,8.26-5.44.79-3.79-1.65-7.49-5.44-8.27-3.78-.78-7.49,1.66-8.27,5.45Z"/>
          <path d="M249.58,287.84c-.59,3.29-.26,6.46,1.48,9.39,1.69,2.83,4.63,4.94,7.83,5.68,6.62,1.54,13.53-2.64,15.07-9.31,1.53-6.62-2.65-13.53-9.31-15.07-6.62-1.53-13.53,2.65-15.07,9.31-.68,2.93.87,5.98,3.86,6.81,2.81.77,6.12-.93,6.81-3.87.08-.34.17-.66.28-1-.48,1.43-.19.49.02.11.59-1.02-.84.95-.08.06.28-.32,1.45-1.19.1-.21.27-.19.55-.35.84-.5-1.42.76-.26.12.22,0,1.15-.31-1.37.09-.16.01.45-.03,1.9.24.23-.06.35.06.67.17,1,.28-1.42-.47-.48-.19-.1.03,1.02.58-.96-.85-.07-.08.32.27,1.2,1.45.22.1.18.27.34.55.5.84-.76-1.41-.12-.26,0,.22.3,1.16-.1-1.36-.02-.16.04.46-.24,1.9.06.24-.06.34-.17.67-.29.99.48-1.42.19-.48-.02-.11-.59,1.02.84-.95.08-.06-.27.32-1.45,1.19-.1.21-.27.19-.55.34-.84.5,1.41-.76.26-.12-.21,0-1.17.31,1.36-.09.15,0-.46.02-1.91-.24-.23.05-.34-.06-.68-.17-1-.28,1.43.47.48.19.11-.02-1.03-.59.95.84.06.08-.32-.27-1.19-1.44-.21-.1-.2-.26-.35-.55-.51-.84.76,1.43.13.27,0-.21-.31-1.16.09,1.36.01.15-.03-.45.24-1.9-.05-.24.53-2.96-.77-5.95-3.87-6.81-2.71-.74-6.27.9-6.8,3.87Z"/>
        </g>
        <path class="st1" d="M254.91,289.31c-.78,3.79,1.66,7.49,5.45,8.27,3.79.79,7.49-1.66,8.26-5.44.79-3.79-1.65-7.49-5.44-8.27-3.78-.78-7.49,1.66-8.27,5.45Z"/>
        <path class="st22" d="M260.66,296.11c3.54.73,7.01-1.36,8.08-4.72-.02.24-.06.49-.12.74-.77,3.79-4.47,6.23-8.26,5.44-3.79-.78-6.23-4.48-5.45-8.27.05-.25.12-.49.19-.72-.35,3.52,2.02,6.79,5.56,7.52Z"/>
      </g>
      <path class="st20" d="M260.11,285.13c-1.51.53-2.49,1.64-2.2,2.51.3.86,1.77,1.14,3.28.62,1.51-.53,2.49-1.65,2.19-2.51-.3-.87-1.76-1.14-3.27-.62Z"/>
      <path class="st20" d="M256.46,288.37c-.07.32.14.64.46.7.33.06.65-.14.71-.47.06-.32-.14-.63-.47-.71-.32-.07-.64.14-.71.47Z"/>
    </g>
    <g>
      <g>
        <g>
          <path class="st27" d="M259.81,266.71c-.16.76.33,1.49,1.09,1.66.76.16,1.51-.33,1.66-1.1.15-.76-.33-1.5-1.1-1.66-.76-.15-1.5.33-1.66,1.1Z"/>
          <path d="M255.66,265.56c-.17,1.18-.22,1.58-.02,2.74.1.55.37,1.08.62,1.58.67,1.3,2.11,2.28,3.5,2.64,3.01.79,6.16-1.11,6.95-4.1.79-3.01-1.1-6.17-4.09-6.95-3.01-.79-6.17,1.1-6.96,4.09-.59,2.27.73,4.66,3,5.29,2.25.62,4.7-.73,5.29-3,.02-.1.05-.2.1-.29-.15.35-.29.69-.43,1.03.04-.09.09-.17.14-.25-.22.28-.45.58-.67.87.09-.11.19-.21.3-.3-.29.22-.58.44-.87.67.08-.06.16-.1.25-.15-.34.15-.68.29-1.02.44.13-.06.27-.09.42-.12-.39.05-.76.1-1.14.15.09,0,.19,0,.29,0-.38-.05-.76-.1-1.14-.15.16.02.29.06.44.11-.35-.14-.69-.28-1.03-.43.09.04.17.09.25.14-.29-.22-.58-.45-.87-.68.12.1.21.19.31.31-.22-.29-.45-.58-.67-.87.06.08.1.16.14.25-.14-.35-.29-.68-.43-1.03.06.14.09.27.12.42-.05-.38-.1-.76-.15-1.15.01.1.01.2,0,.3.05-.38.1-.76.15-1.14-.02.15-.06.29-.12.44.14-.34.29-.69.43-1.03-.04.09-.09.18-.14.25.22-.29.44-.58.67-.87-.09.12-.18.21-.31.3.29-.22.58-.45.87-.67-.07.06-.16.1-.24.14.34-.14.68-.29,1.03-.43-.14.06-.28.09-.42.12.38-.05.76-.1,1.14-.15-.1.01-.2.01-.29,0,.38.05.76.1,1.14.16-.15-.02-.29-.06-.43-.12.34.15.69.29,1.02.43-.09-.03-.17-.09-.25-.14.29.22.58.45.87.67-.12-.09-.21-.18-.31-.3.22.29.45.58.68.88-.06-.09-.11-.17-.14-.25.14.35.28.69.43,1.03-.05-.14-.09-.27-.12-.42.05.38.1.76.16,1.14-.01-.1-.01-.2,0-.3-.05.39-.1.76-.15,1.15,0-.05.01-.1.02-.15.18-1.2.21-2.23-.43-3.32-.56-.96-1.5-1.68-2.57-1.97-1.12-.31-2.33-.15-3.31.43-.87.51-1.82,1.53-1.98,2.57Z"/>
        </g>
        <path class="st1" d="M259.81,266.71c-.16.76.33,1.49,1.09,1.66.76.16,1.51-.33,1.66-1.1.15-.76-.33-1.5-1.1-1.66-.76-.15-1.5.33-1.66,1.1Z"/>
        <path class="st22" d="M260.96,268.07c.71.14,1.41-.27,1.63-.95,0,.06,0,.1-.02.15-.16.76-.9,1.25-1.66,1.1-.76-.16-1.25-.9-1.09-1.66.01-.05.02-.1.03-.15-.07.7.41,1.37,1.12,1.51Z"/>
      </g>
      <path class="st20" d="M260.85,265.86c-.3.11-.5.34-.44.5.06.18.35.23.66.13.3-.11.5-.33.44-.51-.06-.17-.35-.22-.66-.12Z"/>
      <path class="st20" d="M260.12,266.51c-.01.06.02.13.09.14.06.02.13-.03.14-.09.01-.07-.03-.13-.09-.14-.06-.01-.13.03-.14.1Z"/>
    </g>
    <g>
      <g>
        <g>
          <path class="st27" d="M282.49,272.79c-.42,2.06.9,4.07,2.96,4.5,2.05.42,4.07-.91,4.49-2.97.42-2.05-.91-4.06-2.96-4.48-2.06-.42-4.07.9-4.49,2.95Z"/>
          <path d="M277.75,271.48c-.38,2.37-.23,4.54,1.04,6.64,1.17,1.95,3.17,3.34,5.35,3.9,4.62,1.17,9.38-1.83,10.54-6.4,1.17-4.62-1.82-9.38-6.39-10.54-4.62-1.17-9.39,1.83-10.54,6.4-.65,2.6.81,5.33,3.43,6.05,2.53.7,5.39-.84,6.05-3.44.28-1.12-.55.9,0-.08-.13.16-.25.31-.37.47.38-.36.29-.32-.27.13.88-.63-1.02.28.01-.02-.21.02-.43.05-.65.08.55,0,.45-.03-.29-.1,1.1.17-.87-.53.07,0-.16-.13-.31-.26-.47-.38.37.38.32.29-.13-.26.63.87-.28-1.02.02.01-.02-.22-.05-.43-.08-.65-.01.54.03.45.1-.29-.17,1.1.53-.86,0,.08.13-.16.24-.32.37-.47-.38.36-.29.32.27-.13-.88.63,1.02-.29-.02.02.21-.03.44-.05.65-.07-.54-.01-.45.03.29.1-1.1-.17.86.53-.08,0,.16.13.31.25.47.38-.36-.38-.32-.29.14.25-.63-.87.28,1.03-.03-.01.03.22.05.44.08.66,0-.55-.03-.45-.1.29.42-2.64-.64-5.28-3.44-6.05-2.36-.65-5.62.79-6.04,3.43Z"/>
        </g>
        <path class="st1" d="M282.49,272.79c-.42,2.06.9,4.07,2.96,4.5,2.05.42,4.07-.91,4.49-2.97.42-2.05-.91-4.06-2.96-4.48-2.06-.42-4.07.9-4.49,2.95Z"/>
        <path class="st22" d="M285.61,276.49c1.93.4,3.8-.74,4.39-2.56-.01.13-.04.26-.06.39-.42,2.06-2.44,3.39-4.49,2.97-2.06-.43-3.38-2.44-2.96-4.5.03-.13.06-.27.1-.39-.19,1.92,1.1,3.7,3.02,4.09Z"/>
      </g>
      <path class="st20" d="M285.31,270.52c-.82.28-1.35.89-1.2,1.36.16.47.96.62,1.78.34.82-.28,1.35-.9,1.19-1.36-.16-.47-.96-.62-1.78-.34Z"/>
      <path class="st20" d="M283.33,272.28c-.04.18.07.35.25.38.17.04.35-.07.39-.25.04-.17-.07-.35-.26-.39-.17-.04-.34.07-.38.25Z"/>
    </g>
    <g>
      <g>
        <g>
          <path class="st27" d="M304.87,255.9c-.56,2.71,1.19,5.36,3.9,5.92,2.71.55,5.36-1.19,5.92-3.91.55-2.71-1.19-5.36-3.9-5.92-2.71-.56-5.37,1.18-5.92,3.9Z"/>
          <path d="M300.12,254.59c-.46,2.67-.22,5.21,1.22,7.56,1.35,2.19,3.62,3.81,6.11,4.41,5.26,1.26,10.71-2.1,11.97-7.34,1.26-5.26-2.09-10.71-7.34-11.97-5.26-1.26-10.71,2.1-11.97,7.34-.63,2.6.79,5.32,3.44,6.05,2.52.69,5.42-.83,6.05-3.43.04-.22.1-.44.18-.66-.29.65-.32.74-.07.27.29-.44.23-.37-.19.21.23-.26,1.03-.81-.02-.06.17-.12.36-.23.55-.32-.68.27-.77.32-.27.16.54-.12.42-.11-.34.01.35-.04,1.36.14.03-.08.22.05.44.11.65.18-.65-.29-.75-.32-.27-.07.44.29.37.23-.21-.19.27.22.82,1.04.07-.02.12.18.22.37.32.56-.27-.69-.32-.78-.15-.27.11.54.1.42-.02-.34.03.35-.14,1.36.08.03-.05.22-.1.44-.18.66.29-.66.32-.75.07-.27-.29.44-.23.37.2-.21-.22.26-1.04.81.02.06-.17.12-.36.22-.55.32.68-.27.77-.32.27-.16-.53.12-.42.12.34-.01-.35.03-1.36-.15-.03.09-.22-.05-.45-.11-.66-.19.66.29.74.32.27.08-.44-.29-.37-.23.21.19-.26-.22-.81-1.04-.07.02-.12-.17-.22-.36-.32-.55.27.69.32.78.16.27-.12-.53-.11-.42.01.35-.04-.36.14-1.37-.08-.04.44-2.64-.66-5.29-3.43-6.05-2.39-.66-5.6.79-6.05,3.44Z"/>
        </g>
        <path class="st1" d="M304.87,255.9c-.56,2.71,1.19,5.36,3.9,5.92,2.71.55,5.36-1.19,5.92-3.91.55-2.71-1.19-5.36-3.9-5.92-2.71-.56-5.37,1.18-5.92,3.9Z"/>
        <path class="st22" d="M308.99,260.77c2.54.53,5.02-.97,5.79-3.38-.02.17-.04.35-.08.53-.56,2.72-3.21,4.46-5.92,3.91-2.71-.56-4.46-3.21-3.9-5.92.03-.18.08-.35.13-.52-.24,2.52,1.45,4.87,3.98,5.39Z"/>
      </g>
      <path class="st20" d="M308.59,252.9c-1.08.38-1.78,1.18-1.57,1.79.21.62,1.26.82,2.34.45,1.09-.37,1.79-1.17,1.58-1.8-.22-.61-1.26-.81-2.35-.44Z"/>
      <path class="st20" d="M305.97,255.22c-.05.23.1.46.33.51.24.05.46-.1.51-.33.04-.24-.1-.47-.33-.51-.23-.06-.46.09-.51.33Z"/>
    </g>
    <g>
      <g>
        <g>
          <path class="st27" d="M279.65,249.41c-.32,1.52.66,3,2.19,3.32,1.52.31,3-.67,3.31-2.19.31-1.52-.66-3.01-2.19-3.33-1.51-.3-3,.67-3.31,2.2Z"/>
          <path d="M275.5,248.27c-.28,1.95-.16,3.53.77,5.31.87,1.66,2.67,2.84,4.43,3.3,3.78.99,7.64-1.49,8.61-5.19.99-3.78-1.49-7.64-5.2-8.61-3.78-.99-7.64,1.49-8.61,5.2-.59,2.27.73,4.67,3.01,5.29,2.24.62,4.7-.74,5.3-3,.12-.46.09-.39-.12.19-.4.46-.44.52-.13.19-.24.27-.55.44-.91.53.09-.03.18-.05.28-.08-.37.12-.73.12-1.1,0,.46.13.4.09-.19-.12-.46-.4-.53-.45-.2-.13-.27-.25-.44-.55-.53-.91.03.09.05.19.08.28-.12-.36-.12-.73.01-1.1-.13.46-.1.39.11-.19.41-.47.45-.53.13-.2.24-.28.55-.45.91-.53-.09.03-.18.06-.28.08.37-.12.73-.11,1.1.01-.46-.13-.4-.09.18.12.47.4.53.45.2.13.27.25.45.55.53.91-.02-.09-.05-.19-.08-.28.11.37.11.74-.01,1.1.34-2.32-.55-4.62-3.01-5.29-2.04-.56-4.94.68-5.29,3.01Z"/>
        </g>
        <path class="st1" d="M279.65,249.41c-.32,1.52.66,3,2.19,3.32,1.52.31,3-.67,3.31-2.19.31-1.52-.66-3.01-2.19-3.33-1.51-.3-3,.67-3.31,2.2Z"/>
        <path class="st22" d="M281.96,252.14c1.42.29,2.81-.55,3.25-1.9,0,.1-.02.2-.05.3-.31,1.52-1.8,2.5-3.31,2.19-1.52-.32-2.5-1.8-2.19-3.32.02-.1.04-.2.08-.29-.14,1.42.81,2.74,2.23,3.03Z"/>
      </g>
      <path class="st20" d="M281.73,247.73c-.6.21-1,.66-.88,1.01.12.34.71.46,1.32.25.61-.21,1-.66.88-1.01-.12-.34-.71-.45-1.32-.25Z"/>
      <path class="st20" d="M280.27,249.03c-.03.13.06.25.19.28.13.02.25-.06.28-.19.03-.13-.05-.25-.18-.28-.13-.02-.25.06-.28.19Z"/>
    </g>
    <g>
      <g>
        <g>
          <path class="st27" d="M298.06,291.25c-.18.93.42,1.83,1.34,2.02.92.19,1.82-.4,2.01-1.33.19-.93-.4-1.83-1.33-2.01-.93-.2-1.84.4-2.03,1.32Z"/>
          <path d="M293.91,290.11c-.17,1.18-.22,1.68-.02,2.84.1.59.39,1.16.66,1.7.72,1.38,2.23,2.39,3.69,2.78,3.18.84,6.49-1.19,7.31-4.33.84-3.18-1.18-6.48-4.33-7.31-3.18-.84-6.48,1.19-7.31,4.33-.59,2.27.73,4.67,3.01,5.29,2.24.62,4.69-.74,5.29-3.01.02-.12.06-.23.12-.35-.15.34-.29.68-.44,1.03.05-.11.12-.21.18-.31-.22.29-.44.58-.67.87.12-.14.23-.25.37-.38-.29.23-.58.45-.87.67.09-.06.19-.12.3-.17-.34.14-.68.3-1.02.44.17-.07.32-.12.5-.14-.38.05-.76.1-1.15.15.13-.01.24-.02.37,0-.39-.05-.76-.1-1.15-.15.19.02.36.07.54.14-.34-.14-.69-.29-1.03-.43.12.05.21.11.31.18-.28-.22-.58-.45-.87-.68.14.12.26.23.38.38-.23-.29-.44-.58-.68-.87.07.1.13.2.18.3-.15-.34-.29-.69-.43-1.03.06.17.11.33.14.51-.05-.38-.1-.76-.15-1.14.01.12.02.24,0,.36.06-.38.1-.76.16-1.14-.03.18-.07.35-.14.53.14-.34.29-.68.43-1.03-.05.11-.11.21-.18.31.23-.29.45-.58.68-.88-.12.15-.24.27-.38.38.29-.22.58-.45.87-.67-.09.07-.19.13-.3.17.35-.14.69-.28,1.03-.43-.17.07-.32.11-.51.14.38-.05.76-.1,1.14-.15-.12.01-.24.01-.36,0,.38.05.77.1,1.15.16-.19-.03-.36-.08-.54-.14.35.14.69.29,1.03.43-.11-.05-.21-.11-.31-.18.29.22.58.45.87.68-.14-.12-.25-.23-.38-.38.23.29.45.58.67.87-.07-.1-.13-.2-.18-.3.15.34.29.69.44,1.03-.07-.17-.11-.33-.14-.5.05.38.1.76.16,1.14-.02-.13-.02-.25,0-.36-.05.38-.1.76-.16,1.14.01-.06.02-.12.03-.18.18-1.2.21-2.22-.44-3.31-.56-.96-1.5-1.69-2.57-1.99-1.11-.3-2.32-.14-3.31.44-.87.51-1.82,1.54-1.98,2.57Z"/>
        </g>
        <path class="st1" d="M298.06,291.25c-.18.93.42,1.83,1.34,2.02.92.19,1.82-.4,2.01-1.33.19-.93-.4-1.83-1.33-2.01-.93-.2-1.84.4-2.03,1.32Z"/>
        <path class="st22" d="M299.47,292.91c.86.18,1.71-.33,1.96-1.15,0,.06-.01.12-.02.18-.19.92-1.09,1.52-2.01,1.33-.92-.19-1.52-1.09-1.34-2.02.02-.06.04-.12.06-.18-.09.87.48,1.66,1.36,1.84Z"/>
      </g>
      <path class="st20" d="M299.33,290.23c-.37.12-.61.4-.54.61.08.21.43.28.8.15.38-.13.61-.4.54-.61-.08-.21-.43-.28-.8-.16Z"/>
      <path class="st20" d="M298.44,291.03c-.01.08.04.16.12.17.08.02.16-.04.17-.11.02-.08-.04-.16-.11-.17-.08-.02-.16.04-.18.12Z"/>
    </g>
    <g>
      <g>
        <g>
          <path class="st27" d="M293.5,229.09c-.19.93.41,1.83,1.33,2.02.92.19,1.82-.4,2.01-1.33.19-.92-.4-1.83-1.33-2.02-.92-.19-1.83.4-2.02,1.33Z"/>
          <path d="M289.36,227.95c-.17,1.18-.23,1.68-.02,2.83.1.6.38,1.16.65,1.69.72,1.38,2.23,2.4,3.71,2.78,3.17.83,6.49-1.19,7.31-4.33.83-3.18-1.19-6.49-4.33-7.31-3.18-.83-6.49,1.2-7.31,4.34-.59,2.27.73,4.66,3.01,5.29,2.24.62,4.69-.73,5.29-3.01.02-.12.06-.24.12-.35-.14.34-.29.68-.43,1.03.05-.11.11-.21.17-.31-.22.29-.44.58-.67.87.12-.14.23-.25.37-.37-.29.22-.58.45-.87.67.1-.07.19-.13.31-.18-.35.14-.69.29-1.03.44.17-.07.32-.12.51-.14-.39.05-.77.1-1.15.15.12-.01.24-.01.36,0-.38-.05-.76-.1-1.14-.15.19.03.36.07.54.14-.35-.14-.69-.29-1.03-.43.1.05.21.11.31.17-.29-.22-.58-.44-.87-.66.14.11.25.22.37.37-.22-.29-.44-.58-.68-.88.07.1.13.2.18.31-.14-.34-.29-.69-.43-1.03.06.17.11.33.14.51-.06-.38-.1-.76-.16-1.14.02.12.02.24,0,.36.05-.38.1-.76.15-1.14-.03.19-.07.35-.14.53.14-.34.29-.68.43-1.03-.05.11-.1.21-.18.31.23-.29.45-.58.68-.87-.12.14-.23.26-.37.37.29-.22.58-.45.87-.67-.09.07-.19.13-.3.18.35-.14.69-.29,1.03-.43-.17.07-.33.11-.51.14.38-.05.76-.1,1.14-.15-.12.01-.24.02-.36,0,.38.05.76.1,1.14.15-.19-.03-.35-.07-.54-.14.35.14.69.29,1.03.43-.11-.04-.21-.1-.31-.18.29.22.59.45.87.67-.14-.12-.25-.22-.37-.37.22.29.45.58.67.87-.06-.09-.13-.2-.17-.3.14.35.29.69.43,1.03-.07-.17-.11-.32-.14-.51.05.38.1.76.16,1.14-.02-.12-.02-.24,0-.36-.05.38-.1.77-.15,1.14,0-.06.01-.12.02-.18.19-1.2.21-2.22-.43-3.31-.57-.96-1.5-1.69-2.57-1.98-1.11-.3-2.33-.15-3.32.43-.87.51-1.82,1.54-1.97,2.57Z"/>
        </g>
        <path class="st1" d="M293.5,229.09c-.19.93.41,1.83,1.33,2.02.92.19,1.82-.4,2.01-1.33.19-.92-.4-1.83-1.33-2.02-.92-.19-1.83.4-2.02,1.33Z"/>
        <path class="st22" d="M294.91,230.76c.87.18,1.7-.33,1.96-1.16,0,.06-.01.12-.02.19-.19.92-1.09,1.52-2.01,1.33-.92-.19-1.52-1.09-1.33-2.02.01-.06.03-.12.05-.18-.08.86.5,1.66,1.36,1.84Z"/>
      </g>
      <path class="st20" d="M294.77,228.08c-.37.13-.61.4-.54.61.08.21.43.28.8.15.37-.13.61-.4.54-.61-.07-.21-.43-.28-.8-.15Z"/>
      <path class="st20" d="M293.88,228.87c-.01.08.04.16.12.17.09.01.16-.04.17-.12.02-.08-.03-.16-.11-.17-.08-.02-.16.04-.18.12Z"/>
    </g>
  </g>
  <path class="st20" d="M173.46,198.45c-.17,0-.33.01-.49,0h-.2c-.16,0-.32,0-.49,0-2.42-.03-4.85-.02-7.29.04l-4.18,17.35c3.65-1.15,7.42-1.84,11.36-1.89.58-.01,1.15,0,1.72.02l3.76-15.52c-1.4-.02-2.8,0-4.2,0Z"/>
  <path class="st20" d="M182.93,215.21l4.15-16.41c-.88-.05-1.76-.08-2.64-.12l-4,16c.84.15,1.67.33,2.49.54Z"/>
  <g>
    <path d="M261.97,209.91c-4.25-17.6-22.22-26.41-38.28-30.59-14.29-3.72-29.38-4.94-44.12-4.91-1.78,0-3.6.17-5.4.18-.41-.04-.83-.06-1.26-.03-.02,0-.05,0-.07,0-.32-.02-.63-.02-.93,0-.53-.02-1.07-.08-1.59-.09-2.06-.06-4.12-.07-6.18-.04-6.59.04-13.18.39-19.74,1.08-17.23,1.82-35.41,5.41-49.19,16.59-3.13,2.54-5.84,5.74-7.9,9.18-2.52,4.21-3.82,8.95-4.5,13.78-.94,6.75-.94,13.31.62,20,1.17,5.02,3.35,9.97,6.25,14.23,5.46,8.04,13,13.99,22.01,17.56,8.44,3.34,17.85,1.91,25.59-2.63,9.65-5.67,15.2-15.66,23.67-22.65,1.46-1.06,3.01-1.99,4.63-2.77,1.46-.54,2.96-.94,4.48-1.21.9-.09,1.81-.13,2.71-.13h.19c.9,0,1.8.05,2.7.13,1.53.28,3.02.68,4.48,1.21,1.6.77,3.11,1.68,4.55,2.71,6.29,5.18,10.85,12.09,16.9,17.53,4.12,3.71,8.64,6.57,13.92,8.31,4.61,1.51,9.32,1.7,14.04.82,3.67-.68,7.26-2.28,10.51-4.07,3.86-2.11,7.46-4.93,10.54-8.06,7.93-8.08,12.26-18.68,12.98-29.91.35-5.41-.4-10.96-1.63-16.22ZM246.23,227.94c-.42,2.49-1.09,4.94-1.99,7.3-1.02,2.19-2.25,4.27-3.65,6.22-1.59,1.94-3.37,3.7-5.31,5.29-1.91,1.39-3.94,2.6-6.08,3.6-1.29.5-2.63.91-3.99,1.18-.71.04-1.4.02-2.11-.03-1.32-.25-2.63-.6-3.89-1.07-1.47-.7-2.86-1.54-4.18-2.49-5.65-4.67-9.9-10.77-15.12-15.9-3.21-3.15-6.86-6.07-10.92-8.05-5.05-2.45-10.44-3.75-16.07-3.75h-.07c-5.59,0-10.79,1.3-15.84,3.64-4.09,1.89-7.75,4.87-10.97,7.98-5.33,5.14-9.59,11.35-15.32,16.08-1.32.94-2.7,1.78-4.17,2.48-1.27.47-2.57.82-3.9,1.07-.7.05-1.4.07-2.1.03-1.37-.27-2.7-.68-4-1.18-2.14-.99-4.17-2.21-6.08-3.6-1.93-1.59-3.71-3.35-5.31-5.28-1.41-1.96-2.64-4.04-3.64-6.23-.91-2.36-1.57-4.81-2-7.3-.33-3.18-.28-6.37.07-9.55.35-2.23.82-4.44,1.58-6.56.6-1.24,1.3-2.41,2.08-3.54,1.2-1.41,2.53-2.71,3.96-3.9,2.81-2.04,5.86-3.71,9.03-5.1,7.86-3.17,16.22-4.98,24.59-6.16,10.4-1.33,21.01-1.86,31.49-1.39.17,0,.35.04.53.02h.07c.83.04,1.7-.07,2.53-.09,2.06-.06,4.12-.07,6.18-.05,6.59.05,13.18.4,19.74,1.09,1.22.13,2.45.28,3.67.43,8.33,1.19,16.66,3,24.47,6.15,3.17,1.4,6.22,3.06,9.03,5.1,1.43,1.19,2.77,2.48,3.96,3.9.79,1.12,1.48,2.3,2.08,3.53.32.87.58,1.75.8,2.65.31,1.34.58,2.68.79,4.03.34,3.14.38,6.3.06,9.44Z"/>
    <path class="st4" d="M106.83,221.34c.15-.79.35-1.55.61-2.3.35-.69.75-1.36,1.2-2.01.84-.98,1.77-1.88,2.77-2.72,2.3-1.65,4.79-2.99,7.37-4.14,7.9-3.18,16.35-4.9,24.75-6.09,9.51-1.22,19.16-1.83,28.74-1.7.16,0,.33,0,.49,0h.2c.16,0,.32,0,.49,0,9.58-.13,19.23.47,28.74,1.7,8.41,1.18,16.86,2.91,24.75,6.09,2.57,1.15,5.07,2.5,7.37,4.14.99.84,1.93,1.74,2.78,2.72.44.65.84,1.32,1.19,2.01.25.75.46,1.51.61,2.3.09.91.16,1.82.2,2.74.09-2.23.03-4.46-.2-6.67-.15-.78-.35-1.54-.61-2.29-.35-.7-.75-1.37-1.19-2.01-.85-.99-1.78-1.89-2.78-2.72-2.3-1.64-4.79-2.98-7.37-4.14-7.9-3.18-16.35-4.91-24.75-6.09-9.51-1.22-19.15-1.83-28.74-1.7-.17,0-.33.01-.49,0h-.2c-.16,0-.33,0-.49,0-9.58-.13-19.22.48-28.74,1.7-8.41,1.18-16.86,2.92-24.75,6.09-2.57,1.15-5.07,2.5-7.37,4.14-1,.83-1.93,1.73-2.77,2.72-.44.64-.84,1.31-1.2,2.01-.25.75-.46,1.51-.61,2.29-.22,2.21-.29,4.44-.19,6.67.04-.92.1-1.83.19-2.74Z"/>
    <path class="st14" d="M239.02,223.41c-.36,2.14-.91,4.25-1.67,6.3-.71,1.5-1.54,2.94-2.51,4.31-1.01,1.2-2.12,2.3-3.33,3.32-1.33.95-2.74,1.78-4.23,2.48-1.17.44-2.37.8-3.6,1.04-.06,0-.12,0-.17.01-.14,0-.29,0-.43,0-.22-.06-.45-.12-.68-.2-.85-.44-1.66-.96-2.44-1.52-6.04-4.94-10.92-11.2-16.89-16.26-3.99-3.37-8.27-6.49-13.08-8.56-5.66-2.44-11.47-3.85-17.68-3.76-6.12.09-11.81,1.69-17.32,4.21-4.66,2.13-8.82,5.32-12.68,8.64-5.73,4.91-10.43,10.96-16.27,15.72-.78.55-1.59,1.08-2.44,1.52-.21.07-.43.13-.65.19-.21,0-.43,0-.65-.02-1.22-.24-2.42-.59-3.58-1.03-1.48-.7-2.9-1.53-4.24-2.48-1.2-1.02-2.31-2.12-3.32-3.32-.96-1.36-1.79-2.81-2.5-4.31-.77-2.04-1.32-4.15-1.68-6.3-.1-.98-.17-1.96-.2-2.94-.08,2.12-.02,4.27.2,6.38.36,2.15.91,4.25,1.68,6.3.71,1.51,1.54,2.94,2.5,4.3,1,1.2,2.12,2.31,3.32,3.33,1.34.94,2.75,1.77,4.24,2.48,1.16.43,2.36.79,3.58,1.03.22.01.44.02.65.02.21-.06.43-.13.65-.2.85-.44,1.66-.96,2.44-1.52,5.84-4.77,10.54-10.81,16.27-15.72,3.86-3.32,8.02-6.51,12.68-8.65,5.51-2.53,11.2-4.12,17.32-4.2,6.21-.09,12.02,1.31,17.68,3.75,4.81,2.08,9.09,5.2,13.08,8.57,5.97,5.04,10.84,11.32,16.89,16.26.78.55,1.59,1.07,2.44,1.51.23.08.45.14.68.2h.43c.06,0,.11-.01.17-.02,1.22-.24,2.43-.6,3.6-1.03,1.49-.71,2.9-1.54,4.23-2.48,1.21-1.02,2.32-2.13,3.33-3.33.96-1.36,1.79-2.79,2.51-4.3.76-2.04,1.31-4.15,1.67-6.3.22-2.12.28-4.26.2-6.38-.03.98-.1,1.96-.2,2.94Z"/>
    <path class="st16" d="M253.67,212.19c-7.74-32.6-80.85-29.03-80.86-29.03-1.48-.11-73-3.57-80.74,29.03-7.82,32.94,19.32,48.68,30.04,47.96,22.72-1.52,25.54-31.3,50.7-31.3h.13c25.15,0,27.99,29.78,50.7,31.3,10.73.72,37.86-15.02,30.04-47.96ZM223.38,252.83c-13.57.61-24.36-30.28-50.44-30.28h-.13c-26.09,0-36.88,30.89-50.45,30.28-7.72-.33-27.26-8.58-23.98-36.6,3.23-27.53,71.97-26.41,74.4-26.38h0s.02,0,.04,0c.02,0,.03,0,.03,0h0s.02,0,.03,0h.02s.02,0,.04,0c.01,0,.03,0,.03,0h0c2.42-.04,71.16-1.15,74.39,26.37,3.29,28.02-16.26,36.27-23.98,36.6Z"/>
    <g>
      <path class="st0" d="M223.63,258.18c-22.71-1.52-25.54-31.3-50.7-31.3h-.03s-.02,0-.04,0h-.03s-.02,0-.03,0c-25.15,0-27.98,29.78-50.7,31.3-9.29.62-30.9-11.11-31.42-35.68-.62,25.91,21.89,38.28,31.42,37.64,22.72-1.52,25.54-31.3,50.7-31.3h.13c25.15,0,27.99,29.78,50.7,31.3,9.54.63,32.05-11.74,31.42-37.64-.52,24.56-22.13,36.29-31.42,35.68Z"/>
      <path class="st0" d="M247.37,214.26c-3.23-27.53-71.98-26.42-74.4-26.38h-.19c-2.42-.04-71.17-1.15-74.4,26.38-.28,2.48-.39,4.8-.35,6.98.03-1.6.16-3.27.35-5.02,3.23-27.53,71.98-26.41,74.4-26.38h0s.02,0,.03,0c.02,0,.03,0,.03,0h0s.02,0,.03,0h.03s.02,0,.04,0c.01,0,.03,0,.03,0h0c2.42-.04,71.17-1.15,74.4,26.37.2,1.75.32,3.42.35,5.02.04-2.18-.06-4.5-.35-6.98Z"/>
    </g>
    <g>
      <path class="st24" d="M92.08,214.15c7.74-32.6,79.26-29.12,80.73-29.03,0,0,73.12-3.57,80.86,29.03.87,3.65,1.3,7.09,1.39,10.32.07-3.79-.34-7.88-1.39-12.28-7.74-32.6-80.86-29.03-80.86-29.03-1.48-.11-73-3.57-80.73,29.03-1.05,4.4-1.47,8.49-1.39,12.28.08-3.23.51-6.67,1.39-10.32Z"/>
      <path class="st24" d="M122.37,254.79c13.57.61,24.36-30.28,50.45-30.28h.13c26.09,0,36.88,30.89,50.44,30.28,7.24-.32,24.88-7.59,24.33-31.58-.44,22.43-17.3,29.31-24.33,29.62-13.57.61-24.36-30.28-50.44-30.28h-.13c-26.09,0-36.88,30.89-50.45,30.28-7.03-.3-23.89-7.19-24.34-29.62-.53,24,17.1,31.27,24.34,31.58Z"/>
    </g>
    <path class="st8" d="M177.64,198.5c-1.39-.01-2.78-.01-4.17.01-.17,0-.33,0-.49,0h-.23c-.16,0-.32,0-.48,0-2.41-.04-4.84-.02-7.26.04l-.95,3.96c2.74-.08,5.48-.11,8.21-.07.16,0,.33.01.49,0h.2c.16,0,.32,0,.49,0,1.09-.02,2.18-.02,3.27-.02l.95-3.93h-.02Z"/>
    <path class="st18" d="M172.32,210.58c-3.69.05-7.22.65-10.65,1.68l-.86,3.58c3.65-1.15,7.42-1.84,11.36-1.89.58-.01,1.15,0,1.72.02l.81-3.34c-.79-.04-1.58-.05-2.38-.04Z"/>
    <path class="st8" d="M183.54,202.49c.88.04,1.75.08,2.63.12l.97-3.84c-.88-.05-1.76-.09-2.64-.12l-.96,3.84Z"/>
    <path class="st18" d="M181.27,211.45l-.8,3.18c.84.16,1.67.33,2.5.54l.78-3.11c-.82-.22-1.65-.43-2.48-.61Z"/>
    <g class="st25">
      <path class="st7" d="M134.26,223.9c0,6.33-5.14,11.46-11.47,11.46s-11.47-5.14-11.47-11.46,5.13-11.47,11.47-11.47,11.47,5.13,11.47,11.47Z"/>
    </g>
    <g class="st25">
      <path class="st20" d="M131.04,220.88c0,1.55-1.26,2.81-2.82,2.81s-2.82-1.26-2.82-2.81,1.26-2.82,2.82-2.82,2.82,1.26,2.82,2.82Z"/>
    </g>
    <g class="st25">
      <path class="st7" d="M234.93,223.9c0,6.33-5.14,11.46-11.47,11.46s-11.46-5.14-11.46-11.46,5.14-11.47,11.46-11.47,11.47,5.13,11.47,11.47Z"/>
    </g>
    <g class="st25">
      <path class="st20" d="M231.71,220.88c0,1.55-1.26,2.81-2.82,2.81s-2.82-1.26-2.82-2.81,1.26-2.82,2.82-2.82,2.82,1.26,2.82,2.82Z"/>
    </g>
  </g>
  <g>
    <polygon class="st16" points="141.36 326.4 208.79 326.4 207.89 322.3 142.26 322.3 141.36 326.4"/>
    <polygon class="st24" points="208.1 323.31 207.88 322.3 142.26 322.3 142.03 323.31 208.1 323.31"/>
    <polygon class="st15" points="141.64 325.17 141.36 326.4 208.79 326.4 208.51 325.17 141.64 325.17"/>
  </g>
  <g>
    <g>
      <path class="st23" d="M205.38,329.16c-1.99-1.95-7.08-7.71-9.89-17.76-3.25-11.65,1.24-22.24,1.97-23.87.74.86,1.47,1.77,2.18,2.73-.72,2.03-3.3,10.33-.85,19.09,2.25,8.04,6.78,12.65,8.53,14.2-.51,2.04-1.18,3.91-1.93,5.62Z"/>
      <path d="M209.73,324.81c-.69-.68-1.33-1.4-1.95-2.14-.2-.23-.39-.47-.57-.71,1.41,1.8.35.45.05.02-.51-.7-.99-1.43-1.44-2.16-1.05-1.67-1.95-3.42-2.75-5.22-.26-.6-.21-.47.16.39-.1-.25-.2-.5-.3-.75-.25-.64-.49-1.3-.71-1.96-.44-1.27-.82-2.57-1.13-3.88-.14-.59-.25-1.19-.36-1.79-.05-.29-.09-.59-.13-.88.12.91.14,1.02.06.32-.13-1.26-.17-2.53-.17-3.79,0-1.18.09-2.36.21-3.53.02-.25.05-.49.09-.74-.14,1.03-.16,1.21-.06.55.09-.58.19-1.14.3-1.7.33-1.68.79-3.34,1.33-4.96.18-.55.39-1.11.61-1.65.52-1.31-.75,1.69-.17.4-3.22.41-6.43.83-9.65,1.25.28.32.56.65.83.98.41.52.36.45-.15-.21.18.24.36.47.53.71-.21-1.57-.42-3.16-.62-4.73-4.67,13.27-1.47,29.75,9.27,39.27-.53-2-1.06-3.99-1.58-5.98-.23.86-.47,1.7-.75,2.53-.13.4-.28.8-.43,1.2-.13.35-.88,2.13-.14.42-.68,1.59-1.1,2.99-.62,4.73.42,1.54,1.45,2.87,2.83,3.67,2.61,1.54,7.09.88,8.41-2.21.99-2.32,1.92-4.63,2.55-7.08.53-2.03.05-4.54-1.58-5.99-.66-.58-1.28-1.21-1.87-1.86-.39-.42-.76-.87-1.11-1.32,1.34,1.67.4.52.12.13-.24-.33-.46-.66-.69-1-.97-1.46-1.78-3.02-2.5-4.62.73,1.63.16.34.02,0-.2-.51-.38-1.04-.55-1.56-.39-1.17-.67-2.36-.91-3.58-.06-.3-.27-1.89-.06-.2-.08-.59-.12-1.2-.16-1.79-.08-1.14-.06-2.27-.02-3.4.04-.91.13-1.81.24-2.71-.25,2.02-.03.32.04-.12.08-.42.16-.84.25-1.27.24-1.17.55-2.33.92-3.47.62-1.9.51-3.96-.71-5.62-.92-1.24-1.87-2.45-2.87-3.62-2.42-2.81-8.08-2.23-9.65,1.25-3.74,8.25-4.84,17.45-3.13,26.35,1,5.24,3.26,10.44,6,14.99,1.68,2.78,3.7,5.46,6,7.75,2.38,2.35,6.32,2.38,8.69,0,2.36-2.36,2.38-6.34,0-8.7Z"/>
    </g>
    <path class="st16" d="M205.38,329.16c-1.99-1.95-7.08-7.71-9.89-17.76-3.25-11.65,1.24-22.24,1.97-23.87.74.86,1.47,1.77,2.18,2.73-.72,2.03-3.3,10.33-.85,19.09,2.25,8.04,6.78,12.65,8.53,14.2-.51,2.04-1.18,3.91-1.93,5.62Z"/>
    <path class="st15" d="M206.53,324.04c-1.75-1.55-6.29-6.15-8.53-14.2-2.45-8.76.13-17.05.85-19.09-.58-.8-1.18-1.56-1.79-2.29.17-.43.31-.75.4-.94.74.86,1.47,1.77,2.18,2.73-.72,2.03-3.3,10.33-.85,19.09,2.25,8.04,6.78,12.65,8.53,14.2-.51,2.04-1.18,3.91-1.93,5.62-.12-.12-.25-.25-.4-.4.59-1.46,1.13-3.03,1.55-4.72Z"/>
    <path class="st24" d="M195.49,311.4c-3.25-11.65,1.24-22.24,1.97-23.87.1.12.19.23.29.34-1.23,2.97-4.6,12.63-1.66,23.15,2.67,9.57,7.42,15.24,9.59,17.45-.1.24-.2.47-.3.7-1.99-1.95-7.08-7.71-9.89-17.76Z"/>
  </g>
  <g>
    <g>
      <path class="st23" d="M143.52,329.16c1.99-1.95,7.08-7.71,9.89-17.76,3.26-11.65-1.24-22.24-1.97-23.87-.74.86-1.47,1.77-2.17,2.73.72,2.03,3.3,10.33.85,19.09-2.25,8.04-6.78,12.65-8.54,14.2.52,2.04,1.2,3.91,1.94,5.62Z"/>
      <path d="M147.86,333.51c5.97-5.91,10.1-14.15,11.92-22.28,2-8.94.73-18.5-3.03-26.8-1.58-3.48-7.24-4.06-9.65-1.25-2.23,2.59-4.88,5.37-3.62,9.09.37,1.09.65,2.21.91,3.33.17.75.29,1.49.42,2.25.09.65.07.46-.08-.57.04.25.06.49.09.75.06.52.09,1.04.13,1.56.06.97.06,1.96.04,2.93-.01.6-.06,1.18-.11,1.77-.02.3-.05.6-.09.9.13-.87.13-.96.03-.26-.35,2.18-1.02,4.31-1.84,6.34.66-1.63.16-.39,0-.05-.21.45-.43.88-.66,1.32-.41.8-.87,1.58-1.36,2.34-.38.59-.78,1.17-1.2,1.73-.63.85,1.07-1.33.13-.18-.21.24-.42.5-.63.74-.63.71-1.3,1.4-2.02,2.03-1.63,1.45-2.11,3.96-1.58,5.99.63,2.45,1.55,4.76,2.55,7.08,1.32,3.08,5.79,3.74,8.41,2.21,1.38-.8,2.4-2.13,2.82-3.67.48-1.74.06-3.14-.62-4.73.7,1.62.13.29,0-.04-.16-.39-.29-.79-.44-1.18-.34-.96-.62-1.95-.88-2.94-.53,1.99-1.06,3.98-1.59,5.98,10.73-9.51,13.94-26,9.27-39.27-.2,1.58-.41,3.16-.62,4.73.17-.24,1.12-1.44.11-.16.36-.45.73-.88,1.1-1.32-3.21-.42-6.44-.84-9.65-1.25.57,1.26-.64-1.58-.23-.54.22.53.41,1.05.59,1.58.55,1.58.98,3.21,1.33,4.84.1.45.18.89.26,1.33.08.43.31,2.16.05.14.15,1.15.24,2.3.28,3.46.05,1.24,0,2.49-.08,3.74-.02.36-.26,2.36-.01.54-.1.74-.25,1.49-.4,2.23-.5,2.4-1.32,4.75-2.25,7.03.71-1.73.01-.05-.15.3-.25.55-.53,1.1-.8,1.64-.46.89-.96,1.76-1.48,2.62-.46.75-.94,1.48-1.45,2.21-.2.28-.41.56-.62.85-.37.49-.2.27.52-.66-.14.18-.29.36-.44.54-.65.81-1.35,1.58-2.09,2.31-2.38,2.36-2.36,6.33,0,8.7,2.38,2.38,6.32,2.35,8.69,0Z"/>
    </g>
    <path class="st16" d="M143.52,329.16c1.99-1.95,7.08-7.71,9.89-17.76,3.26-11.65-1.24-22.24-1.97-23.87-.74.86-1.47,1.77-2.17,2.73.72,2.03,3.3,10.33.85,19.09-2.25,8.04-6.78,12.65-8.54,14.2.52,2.04,1.2,3.91,1.94,5.62Z"/>
    <path class="st15" d="M142.36,324.04c1.75-1.55,6.29-6.15,8.54-14.2,2.45-8.76-.13-17.05-.85-19.09.58-.8,1.19-1.56,1.79-2.29-.17-.43-.31-.75-.4-.94-.74.86-1.47,1.77-2.17,2.73.72,2.03,3.3,10.33.85,19.09-2.25,8.04-6.78,12.65-8.54,14.2.52,2.04,1.2,3.91,1.94,5.62.12-.12.25-.25.4-.4-.59-1.46-1.13-3.03-1.56-4.72Z"/>
    <path class="st24" d="M153.41,311.4c3.26-11.65-1.24-22.24-1.97-23.87-.1.12-.2.23-.29.34,1.22,2.97,4.59,12.63,1.66,23.15-2.67,9.57-7.42,15.24-9.58,17.45.1.24.2.47.3.7,1.99-1.95,7.08-7.71,9.89-17.76Z"/>
  </g>
  <g>
    <g>
      <g>
        <path class="st27" d="M172.82,260.54s-61.94,49.63-68.22,36.54c-3.56-7.43,4.27-15.49,9.66-19.9l-3.55-3.8c-7.22,5.55-18.28,16.2-11.62,27.53,10.54,17.91,77.54-37.16,77.54-37.16l-3.82-3.21Z"/>
        <path d="M167.6,255.33c-.61.5-1.22.98-1.84,1.46-.72.56-1.44,1.12-2.17,1.69-1.2.93,1.31-1.01.75-.59-.22.18-.44.35-.66.52-.53.4-1.06.8-1.58,1.21-5.44,4.14-10.95,8.2-16.55,12.13-9.87,6.92-20.1,13.99-31.24,18.72.59-.25,1.18-.5,1.76-.75-2.43,1.03-4.96,1.96-7.59,2.33.65-.09,1.3-.18,1.96-.27-.88.12-1.77.16-2.66.04.66.09,1.31.18,1.96.27-.45-.07-.9-.18-1.33-.36.59.25,1.17.5,1.76.74-.18-.08-.36-.17-.53-.28-.99-.59,1.85,1.59.91.69-.95-.89.97,1.33.72.99-.19-.26-.32-.55-.45-.85.24.59.49,1.17.74,1.76-.31-.74-.52-1.49-.65-2.28.09.65.18,1.3.27,1.96-.12-.88-.12-1.74-.02-2.62-.08.65-.17,1.3-.26,1.96.16-1.12.47-2.18.9-3.22-.25.58-.5,1.17-.75,1.76.47-1.09,1.03-2.11,1.68-3.1.32-.48,1.69-2.29.12-.27.44-.58.93-1.14,1.41-1.68,1.59-1.79,3.37-3.4,5.22-4.92,3.19-2.62,2.53-7.71,0-10.43-1.18-1.27-2.37-2.54-3.54-3.8-2.04-2.19-6.42-3.1-8.94-1.15-5.23,4.04-10.09,8.4-13.58,14.1-2.08,3.41-3.12,7.01-3.65,10.92-.52,3.99.69,8.01,2.39,11.55,1.78,3.69,4.92,6.11,8.7,7.47,3.27,1.17,6.79.83,10.15.36,6.81-.94,13.38-4.12,19.43-7.22,7.05-3.61,13.79-7.82,20.38-12.23,10.31-6.89,20.29-14.33,29.95-22.11.37-.29.73-.59,1.09-.89,2.93-2.4,2.87-8.01,0-10.43-1.27-1.07-2.55-2.14-3.82-3.21-1.55-1.3-3.12-2.16-5.21-2.16-1.95,0-3.84.79-5.22,2.16-2.66,2.66-3.07,7.85,0,10.43,1.28,1.07,2.55,2.15,3.82,3.21v-10.43c-2.08,1.71-4.2,3.37-6.32,5.02-.24.19-.49.38-.73.56,2.41-1.86,1.16-.89.6-.47-.58.45-1.17.9-1.75,1.35-1.25.95-2.5,1.89-3.76,2.82-2.88,2.15-5.78,4.26-8.71,6.33-10.88,7.69-22.23,15.28-34.53,20.49.58-.25,1.17-.5,1.76-.74-3.49,1.47-7.12,2.77-10.89,3.29.65-.09,1.31-.17,1.96-.27-1.45.2-2.92.26-4.38.06.65.09,1.31.18,1.96.26-.79-.12-1.54-.3-2.28-.59.59.24,1.18.49,1.77.74-.34-.14-.67-.31-.99-.5-.16-.09-.31-.19-.46-.3-.55-.4,1.94,1.6.91.67-.14-.12-.27-.25-.39-.39-.96-1.03,1.06,1.43.66.88-.53-.71-.91-1.53-1.27-2.32.25.59.5,1.18.75,1.76-.51-1.22-.88-2.47-1.06-3.78.08.65.17,1.3.25,1.96-.13-1.23-.12-2.45.05-3.68-.09.66-.17,1.31-.27,1.96.22-1.44.64-2.81,1.2-4.16-.25.59-.5,1.18-.74,1.77.59-1.36,1.32-2.64,2.14-3.88.2-.28.39-.56.6-.85,1.1-1.53-.88,1.09-.09.12.51-.63,1.05-1.24,1.59-1.84,1.07-1.17,2.22-2.25,3.38-3.3.55-.5,1.13-.97,1.7-1.45.53-.44,2.66-2.09.36-.32-2.98-.39-5.96-.77-8.94-1.15,1.18,1.26,2.37,2.53,3.54,3.8v-10.43c-5.23,4.3-10.08,9.71-12.04,16.32-1.75,5.92-.21,13.2,5.2,16.66,5.25,3.35,12.35,1.28,17.62-.92,14.36-5.99,27.32-15.2,39.84-24.3,6.22-4.52,12.37-9.16,18.37-13.96,3.15-2.52,2.61-7.82,0-10.43-1.38-1.37-3.27-2.16-5.21-2.16-2.12,0-3.62.89-5.22,2.16Z"/>
      </g>
      <path class="st6" d="M172.82,260.54s-61.94,49.63-68.22,36.54c-3.56-7.43,4.27-15.49,9.66-19.9l-3.38-3.87c-6.58,5.58-18.44,16.27-11.78,27.6,10.54,17.91,77.54-37.16,77.54-37.16l-3.82-3.21Z"/>
      <g>
        <path class="st29" d="M113.85,276.22c-3.49,3.01-7.53,7.3-8.9,11.85,2.03-4.29,6.08-8.19,9.28-10.79l-.38-1.06Z"/>
        <path class="st29" d="M99.86,298.96c-2.24-3.8-2.29-7.68-1.08-11.37-1.93,4.27-2.37,8.89.29,13.41,10.53,17.91,77.54-37.15,77.54-37.15l-.85-.71c-10.35,8.29-66.34,52.06-75.9,35.82Z"/>
      </g>
    </g>
    <g>
      <path d="M164.32,266.76s.4,1.29,1.1,2.51c.7,1.21,2.03,2.06,2.03,2.06l-2.08,1.57s-.81-.45-1.74-1.78c-.92-1.33-1.3-3.09-1.3-3.09l1.98-1.27Z"/>
      <path d="M165.39,273.05l-.07-.04s-.85-.48-1.78-1.82c-.92-1.33-1.3-3.06-1.32-3.14l-.02-.08,2.19-1.4.05.15s.41,1.3,1.09,2.49c.68,1.17,1.98,2.01,1.99,2.02l.15.1-2.28,1.73ZM162.48,268.09c.09.36.48,1.84,1.26,2.97.74,1.07,1.42,1.56,1.63,1.7l1.87-1.41c-.37-.26-1.35-1-1.93-2.01-.56-.97-.93-2-1.06-2.38l-1.78,1.14Z"/>
    </g>
    <g>
      <path d="M156.47,272.7s.4,1.29,1.1,2.51c.7,1.22,2.03,2.06,2.03,2.06l-2.07,1.57s-.82-.45-1.74-1.77c-.92-1.33-1.31-3.09-1.31-3.09l1.99-1.27Z"/>
      <path d="M157.54,278.99l-.07-.04s-.86-.47-1.78-1.81c-.93-1.33-1.31-3.07-1.33-3.14l-.02-.08,2.19-1.4.05.15s.4,1.29,1.09,2.48c.68,1.18,1.98,2.01,1.99,2.02l.15.09-2.28,1.73ZM154.62,274.03c.09.36.49,1.84,1.27,2.97.74,1.07,1.42,1.56,1.63,1.69l1.87-1.42c-.37-.26-1.35-1-1.93-2.01-.56-.97-.94-2-1.06-2.38l-1.78,1.14Z"/>
    </g>
    <g>
      <path d="M147.92,278.79s.4,1.29,1.1,2.51c.71,1.21,2.03,2.06,2.03,2.06l-2.08,1.57s-.81-.45-1.74-1.78c-.92-1.32-1.3-3.1-1.3-3.1l1.99-1.27Z"/>
      <path d="M148.99,285.08l-.07-.04s-.85-.48-1.78-1.82c-.92-1.32-1.31-3.06-1.32-3.14l-.02-.08,2.19-1.4.05.15s.4,1.3,1.09,2.49c.68,1.17,1.98,2.01,1.99,2.02l.15.1-2.28,1.72ZM146.08,280.12c.09.36.48,1.84,1.27,2.97.75,1.07,1.42,1.56,1.63,1.7l1.87-1.41c-.37-.26-1.35-1-1.93-2.01-.56-.97-.94-2-1.06-2.38l-1.78,1.14Z"/>
    </g>
    <g>
      <path d="M139.43,284.48s.39,1.29,1.1,2.5c.7,1.22,2.04,2.07,2.04,2.07l-2.08,1.57s-.82-.45-1.74-1.78c-.92-1.32-1.3-3.09-1.3-3.09l1.99-1.26Z"/>
      <path d="M140.5,290.77l-.07-.04s-.86-.48-1.79-1.82c-.93-1.33-1.3-3.07-1.32-3.14l-.02-.08,2.19-1.4.05.16s.4,1.29,1.09,2.48c.68,1.18,1.98,2.02,2,2.02l.15.1-2.28,1.73ZM137.58,285.8c.09.36.47,1.84,1.26,2.97.74,1.07,1.43,1.57,1.64,1.7l1.87-1.42c-.37-.26-1.35-1.01-1.93-2.01-.56-.97-.93-1.99-1.06-2.38l-1.78,1.13Z"/>
    </g>
    <g>
      <path d="M130.26,290.09s.39,1.3,1.1,2.51c.7,1.21,2.04,2.06,2.04,2.06l-2.08,1.57s-.82-.45-1.74-1.78c-.92-1.32-1.3-3.09-1.3-3.09l1.99-1.27Z"/>
      <path d="M131.33,296.38l-.07-.04s-.85-.48-1.78-1.81c-.92-1.33-1.31-3.07-1.33-3.14l-.02-.08,2.19-1.4.05.16s.39,1.3,1.09,2.48c.68,1.17,1.98,2.01,2,2.02l.15.1-2.28,1.73ZM128.41,291.41c.09.36.49,1.84,1.27,2.97.75,1.07,1.43,1.56,1.64,1.7l1.87-1.42c-.37-.26-1.35-1-1.93-2.01-.57-.97-.94-2-1.07-2.38l-1.78,1.14Z"/>
    </g>
    <g>
      <path d="M120.28,295.04s.24,1.33.8,2.62c.55,1.28,1.78,2.28,1.78,2.28l-2.25,1.32s-.76-.54-1.52-1.97c-.77-1.42-.94-3.23-.94-3.23l2.12-1.02Z"/>
      <path d="M120.6,301.41l-.07-.04s-.79-.58-1.56-2.01c-.77-1.43-.94-3.2-.95-3.27v-.09s.07-.03.07-.03l2.27-1.1.03.16s.25,1.33.79,2.59c.54,1.24,1.73,2.23,1.74,2.23l.13.11-.15.09-2.32,1.36ZM118.29,296.14c.04.37.26,1.89.91,3.1.61,1.15,1.23,1.72,1.42,1.88l2.02-1.19c-.34-.3-1.22-1.16-1.68-2.21-.45-1.04-.7-2.1-.78-2.49l-1.9.92Z"/>
    </g>
    <g>
      <path d="M111.65,298.61s-.1,1.35.12,2.74c.22,1.39,1.15,2.66,1.15,2.66l-2.5.71s-.61-.71-.98-2.28c-.39-1.57-.1-3.36-.1-3.36l2.31-.47Z"/>
      <path d="M110.38,304.85l-.05-.06s-.63-.75-1.01-2.33c-.39-1.58-.12-3.33-.11-3.41v-.08s2.57-.52,2.57-.52v.16s-.11,1.35.11,2.71c.21,1.35,1.12,2.59,1.13,2.61l.11.14-2.75.78ZM109.45,299.18c-.05.37-.22,1.89.11,3.23.3,1.27.76,1.97.91,2.17l2.25-.64c-.25-.38-.89-1.42-1.08-2.57-.18-1.11-.15-2.2-.13-2.6l-2.07.42Z"/>
    </g>
    <g>
      <path d="M104.32,292.56s-1.58-.71-3.34-1.04c-1.76-.34-3.69.24-3.69.24l.23-3.32s1.12-.42,3.17-.19c2.05.22,4.08,1.33,4.08,1.33l-.44,2.98Z"/>
      <path d="M104.42,292.74l-.15-.07s-1.58-.7-3.32-1.03c-.36-.07-.76-.11-1.18-.11-1.3,0-2.44.34-2.45.34l-.17.05v-.18s.24-3.4.24-3.4l.07-.03s.73-.27,2.04-.27c.38,0,.79.02,1.2.07,2.05.22,4.1,1.34,4.12,1.35l.08.04v.08s-.48,3.14-.48,3.14ZM99.77,291.29c.44,0,.85.04,1.23.11,1.45.28,2.79.8,3.22.98l.41-2.73c-.38-.2-2.18-1.09-3.96-1.28-.4-.04-.79-.07-1.17-.07-1.02,0-1.67.16-1.87.23l-.21,3.06c.37-.09,1.3-.3,2.35-.3Z"/>
    </g>
    <g>
      <path d="M109.57,283.81s-1.18-1.27-2.66-2.28c-1.48-1.01-3.49-1.25-3.49-1.25l1.52-2.96s1.19.06,2.99,1.08c1.79,1.02,3.22,2.84,3.22,2.84l-1.58,2.56Z"/>
      <path d="M109.59,284.01l-.11-.12s-1.19-1.27-2.64-2.26c-1.44-.98-3.42-1.22-3.44-1.23l-.18-.02,1.64-3.19h.08s1.24.08,3.05,1.1c1.79,1.02,3.24,2.85,3.25,2.87l.05.07-.05.07-1.66,2.7ZM103.6,280.19c.53.08,2.12.39,3.37,1.24,1.22.83,2.24,1.84,2.57,2.18l1.45-2.36c-.27-.34-1.56-1.86-3.13-2.74-1.5-.84-2.57-1.02-2.86-1.06l-1.41,2.73Z"/>
    </g>
    <g>
      <path d="M106.35,298.33s-1.69.85-3.27,2.02c-1.58,1.17-2.65,2.93-2.65,2.93l-2.15-1.87s.57-1.06,2.29-2.52c1.72-1.45,4.05-2.42,4.05-2.42l1.74,1.86Z"/>
      <path d="M100.46,303.47l-2.33-2.03.05-.09s.6-1.1,2.31-2.55c1.72-1.45,4.06-2.44,4.08-2.45l.08-.04.06.06,1.85,1.98-.15.07s-1.7.86-3.26,2.01c-1.54,1.14-2.61,2.88-2.62,2.9l-.08.12ZM98.44,301.38l1.96,1.71c.27-.42,1.26-1.86,2.6-2.84,1.3-.97,2.7-1.72,3.14-1.96l-1.57-1.68c-.42.19-2.42,1.1-3.94,2.37-1.4,1.19-2.04,2.12-2.21,2.39Z"/>
    </g>
  </g>
  <g>
    <g>
      <g>
        <path class="st27" d="M185.56,265.53c0,7.29-5.91,13.21-13.21,13.21s-13.21-5.92-13.21-13.21,5.92-13.22,13.21-13.22,13.21,5.92,13.21,13.22Z"/>
        <path d="M178.18,265.53c0,.57-.05,1.13-.11,1.7.09-.65.18-1.3.27-1.96-.17,1.22-.49,2.38-.96,3.51.25-.58.5-1.17.74-1.76-.31.7-.66,1.36-1.07,2-.29.46-1.11,1.47.39-.45-.27.34-.55.66-.85.96-.23.24-.46.45-.71.67-1.33,1.21,1.22-.87.23-.16-.71.5-1.48.91-2.27,1.25.58-.24,1.17-.5,1.76-.74-1.13.47-2.29.79-3.51.96.65-.09,1.31-.18,1.96-.27-1.14.14-2.27.14-3.42,0,.65.09,1.3.18,1.96.27-1.21-.17-2.37-.49-3.5-.96.58.24,1.18.5,1.76.74-.7-.31-1.36-.66-2-1.07-.47-.29-1.48-1.11.44.4-.34-.27-.66-.55-.96-.86-.23-.22-.46-.47-.67-.7-1.21-1.33.86,1.21.16.22-.5-.7-.9-1.48-1.25-2.27.24.59.5,1.18.74,1.76-.47-1.13-.79-2.29-.96-3.51.09.66.17,1.31.27,1.96-.13-1.14-.13-2.28,0-3.41-.09.65-.18,1.3-.27,1.96.17-1.22.49-2.37.96-3.51-.24.59-.5,1.17-.74,1.77.31-.7.66-1.36,1.07-2,.29-.47,1.11-1.48-.4.45.27-.34.56-.66.85-.96.22-.24.46-.46.7-.68,1.33-1.2-1.22.87-.23.16.71-.5,1.47-.9,2.27-1.25-.58.25-1.18.5-1.76.75,1.13-.47,2.29-.79,3.5-.96-.65.09-1.3.18-1.96.27,1.14-.13,2.27-.13,3.42,0-.65-.09-1.31-.17-1.96-.27,1.22.18,2.38.49,3.51.96-.59-.25-1.18-.5-1.76-.75.69.31,1.36.66,2,1.07.46.3,1.47,1.11-.45-.39.34.26.65.56.96.85.23.22.45.46.66.7,1.21,1.33-.85-1.22-.16-.22.5.71.9,1.48,1.25,2.27-.25-.59-.5-1.18-.74-1.77.47,1.14.79,2.29.96,3.51-.09-.66-.18-1.31-.27-1.96.06.57.11,1.13.11,1.71.05,4.02,3.31,7.37,7.37,7.37s7.44-3.35,7.38-7.37c-.1-7.6-4.38-15.07-11.35-18.38-4.17-1.98-8.36-2.48-12.91-1.84-3.82.54-7.13,2.48-10.06,4.89-5.97,4.91-8.08,13.67-6.07,20.95,1.98,7.21,8.38,13.28,15.8,14.53,3.27.55,6.43.53,9.63-.36,3.09-.85,5.66-2.48,8.09-4.49,4.45-3.65,6.79-9.67,6.86-15.31.06-4.02-3.39-7.38-7.38-7.38s-7.32,3.35-7.37,7.38Z"/>
      </g>
      <path class="st6" d="M185.56,265.53c0,7.29-5.91,13.21-13.21,13.21s-13.21-5.92-13.21-13.21,5.92-13.22,13.21-13.22,13.21,5.92,13.21,13.22Z"/>
      <path class="st29" d="M160.35,265.53c0-7.1,5.59-12.88,12.61-13.2-.21-.01-.41-.02-.61-.02-7.3,0-13.21,5.92-13.21,13.22s5.92,13.21,13.21,13.21c.2,0,.4,0,.61-.01-7.01-.32-12.61-6.11-12.61-13.2Z"/>
      <path class="st3" d="M184.34,265.53c0-7.1-5.59-12.88-12.6-13.2.21-.01.4-.02.61-.02,7.3,0,13.21,5.92,13.21,13.22s-5.91,13.21-13.21,13.21c-.21,0-.4,0-.61-.01,7.01-.32,12.6-6.11,12.6-13.2Z"/>
    </g>
    <g>
      <g>
        <path class="st27" d="M175.98,265.53c0,2-1.62,3.62-3.63,3.62s-3.63-1.62-3.63-3.62,1.63-3.64,3.63-3.64,3.63,1.63,3.63,3.64Z"/>
        <path d="M170.45,265.53c.05-.28.09-.55.14-.83-.15.57-.06.43.27-.42-.43,1.02.89-.91.15-.11-.74.81,1.09-.66.11-.14.24-.12.49-.22.73-.34-.59.13-.42.1.5-.07.27.05.55.09.82.14-.57-.15-.43-.06.42.27-1.01-.43.91.89.11.14-.81-.74.66,1.09.15.11.12.24.22.49.33.73-.13-.58-.1-.42.07.51-.05.27-.09.54-.14.81.16-.57.07-.43-.26.41.43-1.01-.89.91-.15.11.74-.81-1.08.67-.11.15-.24.12-.49.22-.73.34.58-.13.42-.1-.5.07-.27-.05-.54-.1-.82-.14.57.15.43.06-.42-.27,1.02.43-.92-.9-.11-.15.81.74-.67-1.08-.15-.11-.11-.24-.23-.48-.34-.73.13.58.11.41-.06-.5.13,3.01,2.41,5.53,5.53,5.53,2.92,0,5.67-2.52,5.53-5.53-.23-5.15-4.01-8.93-9.16-9.17-5.13-.23-8.94,4.37-9.16,9.17-.23,5.13,4.37,8.94,9.16,9.16,5.13.23,8.95-4.37,9.16-9.16.14-3.02-2.62-5.54-5.53-5.54-3.12,0-5.4,2.52-5.53,5.54Z"/>
      </g>
      <path class="st10" d="M175.98,265.53c0,2-1.62,3.62-3.63,3.62s-3.63-1.62-3.63-3.62,1.63-3.64,3.63-3.64,3.63,1.63,3.63,3.64Z"/>
      <path class="st12" d="M169.37,265.53c0-1.9,1.46-3.46,3.3-3.62-.11,0-.22-.02-.33-.02-2,0-3.63,1.63-3.63,3.64s1.63,3.62,3.63,3.62c.11,0,.22,0,.33-.01-1.85-.17-3.3-1.73-3.3-3.61Z"/>
      <path class="st9" d="M175.33,265.53c0-1.9-1.46-3.46-3.31-3.62.11,0,.22-.02.33-.02,2,0,3.63,1.63,3.63,3.64s-1.63,3.62-3.63,3.62c-.12,0-.22,0-.33-.01,1.85-.17,3.31-1.73,3.31-3.61Z"/>
    </g>
  </g>
  <rect class="st7" x="148.2" y="326.4" width="52.1" height="5.16"/>
  <rect class="st7" x="153.36" y="317.14" width="41.77" height="5.16"/>
</svg>