<?xml version="1.0" encoding="UTF-8"?>
<svg id="Layer_1" xmlns="http://www.w3.org/2000/svg" version="1.1" viewBox="0 0 254.01 322.51">
  <!-- Generator: Adobe Illustrator 29.6.1, SVG Export Plug-In . SVG Version: 2.1.1 Build 9)  -->
  <defs>
    <style>
      .st0 {
        fill: #ffd7c3;
      }

      .st1, .st2, .st3, .st4, .st5, .st6 {
        fill-rule: evenodd;
      }

      .st1, .st7 {
        fill: #fff;
      }

      .st8, .st3 {
        fill: #000002;
      }

      .st9 {
        fill: #414042;
      }

      .st10 {
        fill: #511905;
      }

      .st11 {
        fill: #231f20;
      }

      .st12 {
        fill: #471a06;
      }

      .st13 {
        fill: #c1c0be;
      }

      .st2 {
        fill: #ed1c24;
      }

      .st14, .st5 {
        fill: #ec2227;
      }

      .st4 {
        fill: #ffa6ad;
      }

      .st15 {
        fill: #fff3ee;
      }

      .st16 {
        fill: #f1f2f2;
      }

      .st17 {
        fill: #a6a6a6;
      }

      .st18 {
        fill: #ddd;
      }

      .st19 {
        fill: #f38b9e;
      }

      .st20 {
        fill: #6f2a0e;
      }

      .st21 {
        fill: #fde5d2;
      }

      .st22 {
        fill: #82442f;
      }

      .st23 {
        fill: #ffc0a4;
      }

      .st6 {
        fill: #be1e2d;
      }

      .st24 {
        fill: #e6e7e8;
      }
    </style>
  </defs>
  <g>
    <g>
      <g>
        <path class="st0" d="M164.84,240.61s27.84,33.07,15.77,40.2c-12.08,7.13-28.99-23.77-28.99-23.77l13.22-16.42Z"/>
        <path d="M162.33,243.12c.95,1.13,1.87,2.31,2.78,3.47.4.52-.55-.72-.14-.18.11.14.21.28.32.42.23.29.46.59.68.89.54.71,1.06,1.42,1.59,2.14,1.14,1.56,2.25,3.15,3.33,4.76,2.34,3.48,4.53,7.08,6.37,10.84.21.43.42.87.62,1.32.11.24.72,1.68.3.66.38.9.72,1.82,1.02,2.75.26.8.47,1.6.65,2.42.09.39.16.77.21,1.15-.2-1.29,0,.19.02.52.02.35.02.7,0,1.04-.01.17-.02.34-.03.5-.06.66.14-.95.03-.3-.05.31-.13.62-.21.92-.3,1.03.38-.67-.1.27-.15.3-.82,1.19-.02.16-.19.25-.4.46-.62.67-.6.55.74-.47-.18.12-.16.11-.33.2-.5.29-.85.46.52-.18-.05.04-.35.14-.72.23-1.09.32-.26.06-.95.12.2-.01-.19.02-.38.02-.56.04-.38.02-.76-.01-1.13-.05,1.28.12-.24-.07-.58-.17-.39-.1-.77-.24-1.16-.38-.7-.27.79.34.08.03-.2-.09-.38-.18-.58-.27-.87-.45-1.69-.97-2.49-1.53-.2-.13-.39-.28-.57-.41-.67-.5.62.49-.05-.04-.38-.3-.76-.62-1.12-.95-.84-.72-1.62-1.49-2.39-2.27-1.52-1.56-2.92-3.21-4.27-4.91-.1-.13-.65-.83-.08-.09-.16-.2-.31-.4-.46-.61-.31-.4-.61-.8-.9-1.21-.61-.84-1.2-1.68-1.78-2.53-.95-1.39-1.88-2.81-2.76-4.24-.7-1.13-1.39-2.28-2.03-3.44-.18,1.43-.37,2.87-.55,4.31,4.41-5.47,8.82-10.95,13.23-16.43,1.22-1.5,1.48-3.55,0-5.03-1.26-1.26-3.81-1.51-5.02,0-4.41,5.47-8.82,10.95-13.23,16.42-1.04,1.29-1.39,2.79-.55,4.31,2.82,5.15,6.23,10.03,9.93,14.57,4.89,5.99,12.67,13.96,21.26,11.61,3.65-1,6.61-3.98,7.22-7.76.61-3.78-.3-7.54-1.67-11.05-3.01-7.7-7.69-14.68-12.6-21.28-1.72-2.31-3.47-4.62-5.33-6.83-1.25-1.48-3.75-1.28-5.02,0-1.46,1.46-1.25,3.55,0,5.03Z"/>
      </g>
      <path class="st7" d="M177.23,265.3l-9.22,5.69-6.51-21.08,3.22-4.03s5.31,6.6,7.09,9.38c1.77,2.79,5.43,10.04,5.43,10.04Z"/>
      <g>
        <rect class="st8" x="164.49" y="267.88" width="19.73" height="6.91" transform="translate(-119.37 138.1) rotate(-32.88)"/>
        <path d="M167.7,280.71l-4.63-7.16,17.93-11.58,4.62,7.16-17.92,11.58ZM165.3,274.03l2.88,4.45,15.21-9.83-2.87-4.45-15.22,9.83Z"/>
      </g>
      <path class="st24" d="M174.32,264.21s-3.65-7.25-5.43-10.04c-1.12-1.76-3.65-5.04-5.37-7.22l1.06-1.33s5.31,6.6,7.09,9.38c1.78,2.79,5.43,10.04,5.43,10.04l-9.21,5.69,6.44-6.53Z"/>
    </g>
    <g>
      <path class="st0" d="M88.79,240.61s-27.84,33.07-15.77,40.2c12.08,7.13,28.99-23.77,28.99-23.77l-13.22-16.42Z"/>
      <path d="M86.27,238.1c-3.36,3.99-6.47,8.22-9.39,12.53-4.58,6.76-9.25,14.33-10.34,22.56-.44,3.38.42,7.15,3.05,9.47,3.19,2.83,7.69,3.41,11.65,1.98,4.13-1.49,7.6-4.41,10.62-7.53,3.08-3.18,5.79-6.76,8.3-10.41,1.75-2.55,3.43-5.17,4.92-7.88.83-1.52.48-3.01-.56-4.31-4.41-5.47-8.81-10.95-13.22-16.42-1.21-1.51-3.76-1.26-5.03,0-1.48,1.48-1.21,3.52,0,5.03,4.4,5.48,8.82,10.96,13.23,16.43-.2-1.44-.38-2.88-.57-4.31-.84,1.54-1.76,3.03-2.7,4.51-.97,1.53-1.97,3.04-3.02,4.52-.57.81-1.16,1.61-1.75,2.4-.16.2-.31.4-.46.61.57-.74.03-.04-.08.09-.38.47-.76.95-1.15,1.41-1.37,1.67-2.83,3.26-4.39,4.76-.72.69-1.47,1.34-2.25,1.96-.65.54.63-.47-.04.04-.18.14-.38.28-.57.41-.44.31-.88.6-1.34.88-.38.23-.77.44-1.15.65-.19.09-.39.18-.58.27-.7.32.78-.31.08-.03-.38.15-.76.27-1.15.38-.33.1-1.87.32-.58.17-.38.04-.76.05-1.14.05-.18,0-.38-.02-.56-.04,1.14.1.48.06.21.01-.38-.07-.74-.19-1.1-.32-.69-.24.79.37.12.05-.23-.11-.45-.24-.68-.38-.93-.56.44.43-.17-.12-.22-.2-.43-.43-.62-.67.81.99.15.15-.02-.16-.51-.92.23.75-.1-.27-.09-.3-.15-.61-.21-.92-.12-.65.11.97.05.3-.02-.17-.03-.34-.04-.5-.02-.34,0-.69.01-1.04.01-.33.21-1.82.02-.52.25-1.72.77-3.41,1.37-5.03.16-.43.33-.85.51-1.28-.42,1.02.19-.43.31-.66.43-.97.91-1.93,1.39-2.87,1.92-3.71,4.18-7.25,6.54-10.69,1.05-1.54,2.15-3.05,3.26-4.55.46-.61.92-1.23,1.38-1.84.11-.14.21-.28.32-.42.42-.54-.54.71-.14.18.22-.29.44-.57.66-.85.69-.88,1.39-1.76,2.11-2.62,1.25-1.48,1.45-3.57,0-5.03-1.28-1.28-3.78-1.48-5.03,0Z"/>
    </g>
    <g>
      <path class="st11" d="M155.16,247.65h-57.02s-11.14,61.8-3.57,64.44c7.58,2.65,14.61-9.42,14.61-9.42,0,0,5.57,1.71,15.24,2h0c.73.03,1.48.04,2.23.04s1.5,0,2.23-.03h0c9.67-.3,15.25-2.01,15.25-2.01,0,0,7.01,12.07,14.59,9.42,7.58-2.64-3.56-64.44-3.56-64.44Z"/>
      <path d="M155.16,244.09h-57.02c-1.47,0-3.15,1.07-3.43,2.61-2.17,12.07-3.94,24.25-5.22,36.45-.77,7.39-1.56,14.99-.92,22.42.21,2.45.5,5.41,1.95,7.51,2.86,4.14,8.76,3.31,12.61,1.06,3.76-2.19,6.93-5.94,9.12-9.68-1.34.54-2.68,1.09-4.02,1.63,5.16,1.57,10.85,1.96,16.19,2.13-1.19-1.19-2.37-2.37-3.56-3.55h0c0,1.98,1.62,3.51,3.56,3.56,1.48.04,2.98.04,4.46,0,1.95-.05,3.56-1.58,3.56-3.56h0c-1.19,1.18-2.37,2.37-3.56,3.55,5.35-.18,11.03-.56,16.19-2.13-1.34-.54-2.67-1.09-4.02-1.63,1.7,2.9,3.98,5.69,6.57,7.83,3.76,3.12,9.92,5.61,14.2,1.96,2-1.71,2.43-4.83,2.75-7.27.41-3.11.39-6.29.29-9.42-.25-8.36-1.22-16.7-2.31-24.98-.95-7.2-2.02-14.38-3.22-21.54-.24-1.45-.48-2.89-.74-4.34-.35-1.91-2.63-2.96-4.38-2.48-1.99.55-2.82,2.46-2.48,4.37.68,3.8,1.3,7.61,1.89,11.43.59,3.83,1.15,7.65,1.68,11.49.12.87-.12-.82,0,.05.03.25.07.51.11.76.06.51.13,1.01.2,1.52.14,1.12.28,2.23.41,3.35.27,2.16.51,4.31.73,6.47.76,7.32,1.55,14.88.84,22.22-.04.32-.06.63-.1.94.17-1.38.03-.25-.03.07-.09.55-.22,1.1-.37,1.63-.06.22-.13.43-.21.64-.25.68.46-.97.08-.21-.08.16-.17.31-.27.46-.34.51.76-.83.15-.24-.43.42.93-.61.33-.27-.38.22,1.02-.4.61-.25-.27.1-.55.16-.82.23-.91.21.77-.05-.14.01-.27.02-.53,0-.8,0-.91-.04.77.15-.12-.02-.35-.07-.69-.18-1.03-.29-.87-.29.68.33-.15-.06-.25-.11-.49-.25-.73-.38-.5-.27-.96-.59-1.41-.91.7.5-.05-.05-.16-.14-.21-.18-.42-.36-.63-.55-.48-.43-.93-.89-1.37-1.35-.53-.56-1.02-1.15-1.5-1.74-.42-.51.46.61-.13-.18-.2-.27-.39-.54-.58-.8-.36-.51-.71-1.03-1.03-1.58-.79-1.35-2.49-2.1-4.02-1.63-1.26.38-2.56.63-3.86.87-.7.13-1.4.23-2.11.34-1.11.16.74-.09-.44.06-.51.07-1.02.13-1.53.18-2.11.23-4.23.36-6.36.43-1.93.07-3.55,1.57-3.55,3.55h0c1.18-1.18,2.37-2.37,3.55-3.54-1.48.04-2.98.04-4.46,0,1.18,1.18,2.37,2.37,3.56,3.55h0c0-1.99-1.62-3.49-3.56-3.56-2.13-.07-4.25-.21-6.36-.43-.39-.04-.77-.08-1.15-.13-.25-.03-.49-.06-.73-.1.35.05.33.05-.09-.01-.7-.1-1.4-.22-2.1-.34-1.29-.23-2.6-.48-3.86-.87-1.52-.46-3.22.29-4.01,1.63-.52.89-1.12,1.73-1.74,2.55-.47.64.51-.64,0,0-.14.19-.31.38-.46.57-.33.4-.68.79-1.03,1.17-.38.4-.77.79-1.16,1.16-.2.19-.42.38-.63.56-.12.11-1.08.86-.38.32-.44.33-.92.63-1.4.91-.24.14-.49.26-.74.38-.82.41.7-.25-.15.06-.25.09-.51.16-.77.23-.19.05-1.07.18-.1.06-.27.03-.53.04-.8.04-.18,0-.36,0-.54-.03.49.08.54.08.13,0-.72-.14-1.32-.56-.21.02-.62-.32.77.67.32.27-.58-.53.36.53.21.31-.13-.17-.22-.35-.32-.54-.39-.75.33.89.08.21-.08-.21-.15-.42-.21-.64-.16-.53-.27-1.08-.37-1.63-.05-.32-.21-1.46-.02-.07-.04-.31-.08-.62-.11-.94-.07-.74-.12-1.49-.16-2.24-.17-3.56-.01-7.15.21-10.71.27-4.22.68-8.43,1.15-12.63.24-2.15.5-4.31.78-6.46.06-.51.13-1.02.2-1.52.03-.25.06-.51.1-.76.11-.88-.11.82,0-.05.14-1.06.29-2.13.45-3.2.84-6,1.78-11.98,2.82-17.95.1-.59.2-1.19.31-1.78-1.14.87-2.29,1.74-3.43,2.62h57.02c4.58,0,4.58-7.11,0-7.11Z"/>
    </g>
    <g>
      <path class="st8" d="M185.49,318.15c0,1.74-26.35,3.15-58.84,3.15s-58.83-1.41-58.83-3.15,26.34-3.14,58.83-3.14,58.84,1.41,58.84,3.14Z"/>
      <path d="M126.65,322.51c-15.73,0-30.53-.33-41.67-.92-18.38-.99-18.38-2.12-18.38-3.44s0-2.45,18.38-3.43c11.14-.59,25.94-.92,41.67-.92s30.53.33,41.67.92c18.38.98,18.38,2.12,18.38,3.43s0,2.45-18.38,3.44c-11.14.59-25.93.92-41.67.92ZM72.39,318.15c7.71.97,26.71,1.94,54.26,1.94s46.55-.97,54.27-1.94c-7.71-.96-26.72-1.93-54.27-1.93s-46.55.97-54.26,1.93Z"/>
    </g>
    <g>
      <g>
        <polygon class="st21" points="153.26 246.88 126.85 246.88 126.63 246.88 100.23 246.88 88.79 284.51 126.63 284.51 126.85 284.51 164.69 284.51 153.26 246.88"/>
        <path d="M153.26,239.78h-53.03c-3.23,0-5.93,2.18-6.86,5.22-3.64,11.99-7.29,23.97-10.93,35.96-.17.55-.34,1.1-.51,1.66-1.35,4.44,2.33,8.99,6.86,8.99h75.9c4.53,0,8.21-4.55,6.86-8.99-3.65-12-7.29-23.99-10.94-35.97-.17-.55-.34-1.11-.51-1.65-1.12-3.7-4.93-6.02-8.74-4.97-3.65,1.01-6.09,5.04-4.96,8.75,3.65,11.99,7.29,23.98,10.94,35.97.17.55.34,1.1.51,1.65,2.28-3,4.57-5.99,6.85-8.99h-75.9c2.29,3,4.57,6,6.85,8.99,3.64-11.99,7.29-23.97,10.94-35.96.17-.55.34-1.1.5-1.66-2.29,1.74-4.57,3.48-6.85,5.22h53.03c3.87,0,7.1-3.23,7.1-7.11s-3.23-7.11-7.1-7.11Z"/>
      </g>
      <polygon class="st7" points="153.26 246.88 126.85 246.88 126.63 246.88 100.23 246.88 88.79 284.51 126.63 284.51 126.85 284.51 164.69 284.51 153.26 246.88"/>
    </g>
    <polygon class="st16" points="99.75 248.38 88.79 284.51 118.62 284.51 94.26 280.94 99.75 248.38"/>
    <polygon class="st16" points="153.72 248.38 164.69 284.51 134.86 284.51 159.21 280.94 153.72 248.38"/>
    <path class="st7" d="M76.42,265.3l9.21,5.69,6.52-21.08-3.22-4.03s-5.32,6.6-7.09,9.38c-1.78,2.79-5.43,10.04-5.43,10.04Z"/>
    <path class="st24" d="M79.19,264.47s3.65-7.26,5.43-10.04c1.12-1.76,3.65-5.04,5.38-7.22l-1.06-1.32s-5.32,6.6-7.09,9.38c-1.78,2.79-5.43,10.04-5.43,10.04l9.21,5.69-6.44-6.52Z"/>
    <g>
      <rect class="st8" x="75.84" y="261.47" width="6.91" height="19.73" transform="translate(-191.65 190.72) rotate(-57.14)"/>
      <path d="M85.95,280.71l-17.93-11.58,4.63-7.16,17.93,11.58-4.62,7.16ZM70.25,268.65l15.23,9.83,2.87-4.45-15.22-9.83-2.88,4.45Z"/>
    </g>
    <polygon class="st9" points="95.91 293.69 95.65 298.16 157.72 298.16 157.45 293.69 95.91 293.69"/>
    <g>
      <polygon class="st11" points="158.13 244.56 140.34 244.56 136.02 244.56 95.17 244.56 83.16 291.21 136.02 291.21 142.67 291.21 170.14 291.21 158.13 244.56"/>
      <path d="M158.13,241.01h-62.96c-1.56,0-3.03,1.08-3.42,2.6-3.22,12.47-6.43,24.93-9.64,37.4-.79,3.08-1.59,6.17-2.38,9.25-.57,2.23,1.09,4.5,3.43,4.5h86.98c2.34,0,4.01-2.26,3.43-4.5-3.2-12.47-6.42-24.93-9.63-37.4-.79-3.08-1.59-6.17-2.38-9.25-1.14-4.43-7.99-2.55-6.85,1.89,3.21,12.47,6.41,24.93,9.62,37.4.8,3.08,1.59,6.16,2.38,9.25,1.14-1.5,2.29-3,3.42-4.5h-86.98c1.14,1.5,2.28,3,3.43,4.5,3.2-12.47,6.42-24.93,9.62-37.39.79-3.09,1.59-6.17,2.38-9.25-1.14.87-2.29,1.74-3.43,2.61h62.96c4.58,0,4.58-7.11,0-7.11Z"/>
    </g>
    <polygon class="st9" points="98.02 248.17 87.81 287.72 113.91 287.58 92.46 284.23 98.02 248.17"/>
    <polygon class="st9" points="155.37 248.17 165.58 287.72 139.48 287.58 160.93 284.23 155.37 248.17"/>
    <g>
      <polygon class="st14" points="127.06 265.77 144.29 247.86 127.06 247.86 127.06 247.86 127.06 247.86 127.06 247.86 109.84 247.86 127.06 265.77 127.06 265.78 127.06 265.78 127.06 265.78 127.06 265.78 127.06 265.78 127.06 265.78 127.06 265.78 127.06 265.77"/>
      <path d="M131.18,269.88c5.74-5.97,11.48-11.94,17.23-17.91,3.49-3.63,1.03-9.93-4.12-9.93h-34.45c-5.15,0-7.6,6.3-4.12,9.93,5.74,5.97,11.49,11.94,17.23,17.91-.57-1.37-1.14-2.74-1.7-4.11,0,3.18,2.63,5.82,5.81,5.82s5.83-2.64,5.83-5.82-2.66-5.82-5.83-5.82-5.81,2.64-5.81,5.82h0c.57-1.37,1.13-2.74,1.7-4.11h0c1.36-.56,2.74-1.13,4.1-1.7h0c1.37.57,2.74,1.13,4.12,1.7h0c.56,1.37,1.13,2.74,1.7,4.11,0-2.83-2.19-4.62-3.97-6.48-1.96-2.05-3.93-4.09-5.89-6.14-3.02-3.14-6.04-6.28-9.06-9.41-1.36,3.31-2.74,6.62-4.11,9.92h34.45c-1.37-3.31-2.74-6.62-4.11-9.92-5.74,5.97-11.48,11.94-17.22,17.91-2.19,2.28-2.27,5.95,0,8.22,2.21,2.21,6.03,2.29,8.22,0Z"/>
    </g>
    <polygon class="st7" points="127.06 265.77 144.29 247.86 127.06 247.86 127.06 247.86 127.06 247.86 127.06 247.86 109.84 247.86 127.06 265.77 127.06 265.78 127.06 265.78 127.06 265.78 127.06 265.78 127.06 265.78 127.06 265.78 127.06 265.78 127.06 265.77"/>
  </g>
  <g>
    <g>
      <g>
        <g>
          <g>
            <g>
              <path class="st21" d="M45.87,147.38c0,10.17-8.24,18.41-18.4,18.41s-18.4-8.24-18.4-18.41,8.24-18.4,18.4-18.4,18.4,8.24,18.4,18.4Z"/>
              <path d="M36.82,147.38c-.01.84-.06,1.67-.17,2.5.1-.8.21-1.6.32-2.41-.24,1.62-.66,3.17-1.28,4.67.31-.72.61-1.44.91-2.16-.63,1.46-1.43,2.81-2.39,4.08.47-.61.95-1.21,1.42-1.83-.98,1.24-2.08,2.35-3.33,3.32.61-.47,1.22-.95,1.83-1.41-1.26.96-2.63,1.75-4.08,2.39.72-.3,1.44-.61,2.16-.91-1.51.62-3.05,1.04-4.66,1.28.8-.11,1.6-.21,2.4-.32-1.66.21-3.33.21-4.99,0,.8.11,1.61.21,2.41.32-1.62-.23-3.16-.66-4.66-1.28.72.31,1.44.61,2.16.91-1.46-.64-2.82-1.43-4.09-2.39.61.47,1.22.94,1.83,1.41-1.24-.98-2.34-2.08-3.32-3.32.47.61.95,1.22,1.41,1.83-.96-1.27-1.75-2.62-2.38-4.08.3.72.61,1.44.91,2.16-.62-1.5-1.04-3.05-1.28-4.67.1.81.22,1.61.32,2.41-.21-1.66-.21-3.33,0-4.99-.1.8-.22,1.61-.32,2.4.24-1.61.66-3.15,1.28-4.67-.3.72-.61,1.44-.91,2.17.63-1.47,1.42-2.82,2.38-4.08-.47.61-.94,1.21-1.41,1.83.98-1.24,2.08-2.35,3.32-3.33-.61.48-1.22.94-1.83,1.42,1.26-.96,2.63-1.76,4.09-2.38-.73.3-1.44.61-2.16.91,1.51-.62,3.05-1.04,4.66-1.28-.8.11-1.61.21-2.41.32,1.67-.21,3.33-.21,4.99,0-.8-.11-1.6-.21-2.4-.32,1.61.23,3.16.66,4.66,1.28-.72-.3-1.44-.61-2.16-.91,1.45.63,2.82,1.42,4.08,2.38-.61-.47-1.22-.94-1.83-1.42,1.24.98,2.34,2.08,3.33,3.33-.47-.62-.95-1.22-1.42-1.83.96,1.26,1.76,2.62,2.39,4.08-.31-.72-.61-1.44-.91-2.17.62,1.51,1.04,3.06,1.28,4.67-.11-.8-.22-1.6-.32-2.4.1.83.16,1.66.17,2.49.05,4.94,4.08,9.05,9.05,9.05s9.09-4.12,9.05-9.05c-.08-7.71-3.34-15.5-9.28-20.54-3.23-2.74-6.78-4.76-10.87-5.92-4.28-1.22-8.55-1.1-12.9-.38-7.52,1.24-14.26,6.57-18.1,13-3.98,6.66-4.92,15.49-2.23,22.79,2.29,6.2,6.38,11.36,12.08,14.77,2.5,1.49,5.39,2.62,8.25,3.15,3.91.72,7.29.64,11.19,0,5.62-.93,11.29-4.37,14.95-8.69,4.36-5.15,6.84-11.38,6.9-18.17.05-4.92-4.16-9.04-9.05-9.04s-9,4.12-9.05,9.04Z"/>
            </g>
            <path class="st0" d="M45.87,147.38c0,10.17-8.24,18.41-18.4,18.41s-18.4-8.24-18.4-18.41,8.24-18.4,18.4-18.4,18.4,8.24,18.4,18.4Z"/>
            <path class="st0" d="M41.12,146.88c0,7.45-6.04,13.48-13.48,13.48s-13.49-6.04-13.49-13.48,6.03-13.49,13.49-13.49,13.48,6.04,13.48,13.49Z"/>
          </g>
          <g>
            <g>
              <path class="st21" d="M244.96,147.38c0,10.17-8.24,18.41-18.4,18.41s-18.4-8.24-18.4-18.41,8.24-18.4,18.4-18.4,18.4,8.24,18.4,18.4Z"/>
              <path d="M235.91,147.38c0,.84-.06,1.67-.16,2.5.1-.8.21-1.6.32-2.41-.23,1.62-.66,3.17-1.28,4.67.31-.72.61-1.44.91-2.16-.63,1.46-1.43,2.81-2.39,4.08.47-.61.95-1.21,1.41-1.83-.98,1.24-2.08,2.35-3.32,3.32.61-.47,1.22-.95,1.82-1.41-1.26.96-2.62,1.75-4.08,2.39.73-.3,1.44-.61,2.17-.91-1.51.62-3.05,1.04-4.66,1.28.8-.11,1.6-.21,2.41-.32-1.67.21-3.33.21-5,0,.8.11,1.61.21,2.4.32-1.6-.23-3.15-.66-4.66-1.28.72.31,1.44.61,2.15.91-1.46-.64-2.81-1.43-4.08-2.39.61.47,1.22.94,1.83,1.41-1.23-.98-2.34-2.08-3.32-3.32.47.61.94,1.22,1.42,1.83-.97-1.27-1.76-2.62-2.39-4.08.29.72.6,1.44.91,2.16-.62-1.5-1.04-3.05-1.28-4.67.1.81.21,1.61.32,2.41-.21-1.66-.21-3.33,0-4.99-.1.8-.21,1.61-.32,2.4.24-1.61.66-3.15,1.28-4.67-.31.72-.61,1.44-.91,2.17.63-1.47,1.42-2.82,2.39-4.08-.48.61-.95,1.21-1.42,1.83.97-1.24,2.08-2.35,3.32-3.33-.61.48-1.22.94-1.83,1.42,1.27-.96,2.62-1.76,4.08-2.38-.72.3-1.44.61-2.15.91,1.51-.62,3.05-1.04,4.66-1.28-.8.11-1.6.21-2.4.32,1.67-.21,3.33-.21,5,0-.81-.11-1.61-.21-2.41-.32,1.61.23,3.16.66,4.66,1.28-.72-.3-1.44-.61-2.17-.91,1.47.63,2.82,1.42,4.08,2.38-.61-.47-1.21-.94-1.82-1.42,1.24.98,2.34,2.08,3.32,3.33-.47-.62-.94-1.22-1.41-1.83.96,1.26,1.76,2.62,2.39,4.08-.31-.72-.61-1.44-.91-2.17.62,1.51,1.04,3.06,1.28,4.67-.1-.8-.21-1.6-.32-2.4.1.83.16,1.66.16,2.49.05,4.94,4.08,9.05,9.05,9.05s9.09-4.12,9.05-9.05c-.08-7.71-3.35-15.5-9.28-20.54-3.23-2.74-6.78-4.76-10.88-5.92-4.28-1.22-8.56-1.1-12.89-.38-7.52,1.24-14.26,6.57-18.1,13-3.99,6.66-4.92,15.49-2.23,22.79,2.29,6.2,6.38,11.36,12.08,14.77,2.49,1.49,5.39,2.62,8.26,3.15,3.9.72,7.29.64,11.2,0,5.61-.93,11.28-4.37,14.94-8.69,4.37-5.15,6.85-11.38,6.91-18.17.05-4.92-4.16-9.04-9.05-9.04s-9,4.12-9.05,9.04Z"/>
            </g>
            <path class="st0" d="M244.96,147.38c0,10.17-8.24,18.41-18.4,18.41s-18.4-8.24-18.4-18.41,8.24-18.4,18.4-18.4,18.4,8.24,18.4,18.4Z"/>
            <path class="st0" d="M240.21,146.88c0,7.45-6.04,13.48-13.48,13.48s-13.49-6.04-13.49-13.48,6.04-13.49,13.49-13.49,13.48,6.04,13.48,13.49Z"/>
          </g>
        </g>
        <g>
          <g>
            <path class="st21" d="M228.46,127.47c-.4-38.72-19.82-91.72-99.22-92.05-80.21-.33-102.35,53.31-102.81,92.05h-.15c.02,10.84.05,17.02.08,20.54,0,1.39-.01,2.82-.01,4.31h.07c0,.36.01.36.01.36,0,38.82,21.76,86.69,102.82,86.35,80.23-.33,99.23-47.53,99.23-86.35v-25.21h-.01Z"/>
            <path d="M237.5,127.47c-.18-16.76-3.63-33.34-10.82-48.5-8.09-17.03-21.9-31.15-38.64-39.79-10.34-5.34-21.56-8.81-33.03-10.68-13.88-2.25-28.06-2.75-42.07-1.41-12.17,1.17-24.26,3.57-35.6,8.24-10.21,4.2-19.49,9.69-27.82,16.97-13.53,11.82-22.88,28.02-27.83,45.18-2.79,9.69-4.19,19.9-4.32,29.98,3.02-3.02,6.03-6.03,9.05-9.05h-.15c-4.93,0-9.06,4.12-9.05,9.05.02,8.28.09,16.56.07,24.85-.02,4.93,4.12,9.05,9.05,9.05h.07c-3.02-3.01-6.03-6.03-9.05-9.05.26,8,.84,15.88,2.55,23.73,1.78,8.19,4.76,16.18,8.69,23.56,8.86,16.67,23.68,29.74,40.87,37.32,5.51,2.45,11.15,4.51,16.97,6.09,6.48,1.75,13.08,2.84,19.72,3.7,13.69,1.79,27.73,1.83,41.46.37,12.17-1.29,24.25-3.69,35.59-8.41,9.9-4.12,18.96-9.47,26.92-16.72,12.76-11.62,21.09-27.64,24.75-44.4,3.11-14.26,2.63-28.71,2.63-43.2v-6.89c0-4.94-4.12-9.05-9.05-9.05h0c-4.94,0-9.06,4.12-9.06,9.05s4.12,9.04,9.05,9.04h.01c-3.02-3.02-6.04-6.03-9.05-9.04v18.72c0,5.89.03,11.77-.54,17.64-.12,1.19-.25,2.37-.41,3.55.1-.8.21-1.61.32-2.41-1.06,7.85-3.01,15.57-6.07,22.88.3-.72.61-1.44.91-2.16-2.46,5.82-5.61,11.33-9.46,16.35.47-.61.94-1.22,1.41-1.83-3.71,4.8-8.02,9.09-12.82,12.81.61-.47,1.22-.94,1.84-1.42-5.54,4.27-11.65,7.71-18.07,10.44.71-.31,1.44-.61,2.16-.92-9.45,3.97-19.47,6.37-29.61,7.74.8-.11,1.6-.22,2.41-.32-15.22,2.01-30.86,2.02-46.07,0,.8.11,1.6.22,2.4.32-10.26-1.39-20.4-3.84-29.97-7.85.72.31,1.44.61,2.16.92-6.74-2.85-13.14-6.47-18.95-10.94.62.47,1.22.94,1.83,1.42-4.96-3.86-9.44-8.3-13.29-13.28.47.62.95,1.22,1.41,1.84-3.97-5.16-7.25-10.82-9.79-16.82.3.72.6,1.44.91,2.16-3.04-7.21-5.03-14.82-6.08-22.56.11.8.21,1.61.33,2.41-.62-4.61-.77-9.2-.92-13.83-.16-4.93-3.99-9.05-9.04-9.05h-.07c3.01,3.02,6.03,6.03,9.05,9.05.02-8.28-.05-16.57-.06-24.85-3.01,3.01-6.03,6.03-9.05,9.04h.15c4.98,0,8.99-4.12,9.05-9.04.05-4.3.37-8.6.93-12.86-.11.8-.21,1.61-.32,2.41,1.18-8.73,3.42-17.31,6.83-25.44-.31.72-.61,1.44-.91,2.16,2.88-6.81,6.56-13.26,11.07-19.12-.47.61-.95,1.22-1.41,1.83,4.18-5.4,9.02-10.26,14.41-14.44-.61.47-1.21.94-1.83,1.41,5.97-4.61,12.56-8.36,19.51-11.3-.72.3-1.44.61-2.16.91,9.22-3.86,18.96-6.26,28.85-7.6-.8.11-1.61.22-2.41.33,13.64-1.79,27.63-1.79,41.28.04-.8-.11-1.61-.22-2.41-.32,9.65,1.31,19.17,3.66,28.17,7.44-.72-.3-1.44-.61-2.16-.91,6.64,2.82,12.93,6.41,18.65,10.82-.61-.47-1.22-.94-1.84-1.42,5.16,4.01,9.78,8.65,13.77,13.81-.47-.61-.94-1.21-1.41-1.83,4.34,5.66,7.89,11.88,10.66,18.45-.3-.72-.61-1.44-.91-2.16,3.46,8.26,5.69,16.99,6.89,25.86-.11-.8-.21-1.61-.32-2.4.63,4.75.97,9.54,1.02,14.33.06,4.92,4.08,9.04,9.05,9.04s9.1-4.12,9.05-9.04Z"/>
          </g>
          <path class="st0" d="M227.74,127.47c-.4-38.72-19.82-91.72-99.22-92.05-80.21-.33-102.35,53.31-102.81,92.05h-.15c.02,10.84.05,17.02.07,20.54,0,1.39,0,2.82-.01,4.31h.07c.01.36.02.36.02.36,0,38.82,21.75,86.75,102.82,86.41,80.23-.33,99.22-47.59,99.22-86.41v-25.21h0Z"/>
          <path class="st23" d="M128.52,231.34c-81.06.33-102.82-47.6-102.82-86.41,0,0,0-.01-.02-.37h-.07c.01-1.48.01-2.92.01-4.3-.02-2.58-.04-6.58-.05-12.79h-.02c.02,10.84.05,17.02.07,20.54,0,1.39,0,2.82-.01,4.31h.07c.01.36.02.36.02.36,0,38.82,21.75,86.75,102.82,86.41,80.23-.33,99.22-47.59,99.22-86.41v-7.75c0,38.82-18.99,86.08-99.22,86.41Z"/>
        </g>
      </g>
      <g>
        <g>
          <g>
            <g>
              <path class="st8" d="M84.31,154.85c0,9.03-7.33,16.37-16.37,16.37s-16.37-7.33-16.37-16.37,7.33-16.36,16.37-16.36,16.37,7.32,16.37,16.36Z"/>
              <path d="M82.37,154.85c-.06,5.66-3.29,10.6-8.34,13.09-4.98,2.46-11.25,1.46-15.43-2.09-4.33-3.67-6.02-9.56-4.52-14.99,1.48-5.39,6.14-9.25,11.55-10.25,8.71-1.62,16.64,5.66,16.74,14.25.02,2.5,3.9,2.5,3.87,0-.06-6.08-3.01-11.54-7.93-15.08-4.84-3.47-11.5-4.12-17.02-1.97-5.52,2.17-9.68,6.94-11.13,12.68-1.49,5.91.25,12.17,4.27,16.69,4.93,5.59,13.28,7.42,20.17,4.71,7-2.75,11.57-9.55,11.65-17.05.03-2.5-3.85-2.5-3.87,0Z"/>
            </g>
            <path class="st7" d="M79.71,150.55c0,2.22-1.8,4.02-4.02,4.02s-4.02-1.8-4.02-4.02,1.8-4.02,4.02-4.02,4.02,1.8,4.02,4.02Z"/>
          </g>
          <path class="st19" d="M68.56,182.94c.35,2.56-4.05,5.27-9.83,6.05-5.78.79-10.74-.65-11.09-3.21-.35-2.55,4.05-5.26,9.84-6.05,5.78-.78,10.74.65,11.09,3.21Z"/>
        </g>
        <g>
          <g>
            <g>
              <path class="st8" d="M201.61,154.85c0,9.03-7.33,16.37-16.37,16.37s-16.37-7.33-16.37-16.37,7.33-16.36,16.37-16.36,16.37,7.32,16.37,16.36Z"/>
              <path d="M199.67,154.85c-.06,5.66-3.28,10.6-8.34,13.09-4.98,2.46-11.25,1.46-15.43-2.09-4.32-3.67-6.01-9.56-4.51-14.99,1.48-5.39,6.14-9.25,11.55-10.25,8.71-1.62,16.64,5.66,16.74,14.25.02,2.5,3.9,2.5,3.87,0-.07-6.08-3.01-11.54-7.93-15.08-4.85-3.47-11.51-4.12-17.01-1.97-5.53,2.17-9.69,6.94-11.13,12.68-1.5,5.91.25,12.17,4.25,16.69,4.94,5.59,13.28,7.42,20.17,4.71,7-2.75,11.57-9.55,11.65-17.05.03-2.5-3.85-2.5-3.87,0Z"/>
            </g>
            <path class="st7" d="M197.01,150.55c0,2.22-1.8,4.02-4.01,4.02s-4.02-1.8-4.02-4.02,1.8-4.02,4.02-4.02,4.01,1.8,4.01,4.02Z"/>
          </g>
          <path class="st19" d="M184.62,182.94c-.35,2.56,4.05,5.27,9.83,6.05,5.78.79,10.75-.65,11.1-3.21.34-2.55-4.06-5.26-9.84-6.05-5.78-.78-10.74.65-11.09,3.21Z"/>
        </g>
      </g>
      <path d="M109.57,193.55c.11,2.28,1,4.63,2.34,6.46,3.3,4.5,8.6,6.13,14,6.23,5.24.1,11.05-1.34,14.58-5.49,1.68-1.98,2.84-4.34,3.12-6.92.2-1.76-1.61-3.24-3.23-3.24-1.91,0-3.04,1.48-3.24,3.24.19-1.7-.05.01-.23.53-.07.2-.14.39-.22.59.46-1.14.04-.12-.11.15-.13.24-.27.48-.42.71-.09.15-.2.29-.29.44-.39.55.49-.6.04-.06-.21.26-.44.5-.67.73-.16.17-1.21,1.04-.5.49-.73.56-1.55,1-2.39,1.38.64-.29-.66.21-.85.28-.61.19-1.25.33-1.88.46-.73.14-.54.1-1.3.17-.8.07-1.61.09-2.41.08-1.51,0-2.17-.07-3.44-.34-.5-.11-.98-.25-1.47-.4-.27-.09-.53-.19-.8-.29.7.27-.09-.06-.2-.11-.36-.19-.72-.4-1.07-.62-.2-.12-.38-.26-.57-.39.69.5.1.06-.04-.05-.26-.23-.5-.48-.74-.73-.14-.14-.26-.29-.38-.45.59.72.18.23.05.06-.35-.5-.65-1.05-.9-1.61.48,1.04.1.22.01-.04-.09-.23-.16-.48-.21-.71-.09-.32-.16-.66-.21-.98.21,1.37.09.76.08.44-.09-1.76-1.41-3.23-3.23-3.23-1.7,0-3.31,1.47-3.23,3.23h0Z"/>
    </g>
    <path class="st21" d="M243.1,126.95c-1.54-17.3-6.48-34.38-15.87-49.11-5.08-7.96-11.36-15.27-18.66-21.27-8.8-7.24-18.53-12.65-29.17-16.7-15.92-6.04-33.34-8.11-50.28-8.06-1.55.02-3.11.05-4.67.1l-54.91-.28s-11.6.79-24.47-4.87c-12.86-5.64-21.33-17.72-21.33-17.72,0,0-4.39,8.78-3.13,29.48.8,13.19,8.47,26.19,13.93,33.89-2.18,2.92-4.2,5.93-6.02,9.1-2.41,4.2-4.38,8.6-6.21,13.07-4.21,10.31-6.45,21.3-7.44,32.37-.35,3.95,3.02,7.73,6.64,8.72,4.95,1.36,9.58-1.64,11.13-6.32.54-1.62,1.17-3.23,1.82-4.81,3.22-7.46,7.12-14.68,11.98-21.2,2.48-3.1,5.21-5.99,8.28-8.5,1.75-1.26,3.6-2.38,5.55-3.31,1.54-.58,3.12-1.02,4.75-1.31,1.37-.12,2.75-.14,4.11-.04,1.92.37,3.78.98,5.59,1.71,6.44,2.79,12.72,5.8,19.55,7.62,12.59,3.35,25.78,3.75,38.74,3.64,11.12-.1,22.5-1.15,33.19-4.35,5.92-1.78,11.46-4.49,17.12-6.94,1.78-.72,3.61-1.31,5.5-1.68,1.37-.11,2.74-.08,4.11.04,1.63.3,3.21.74,4.76,1.31,1.95.92,3.8,2.05,5.55,3.31,3.08,2.52,5.81,5.41,8.28,8.5,4.86,6.52,8.76,13.74,11.98,21.2.66,1.58,1.28,3.19,1.82,4.81,1.28,3.85,4.54,6.64,8.72,6.64,4.6,0,9.49-4.13,9.05-9.04Z"/>
    <path class="st23" d="M220.78,135.31c-1.88-2.31-3.12-4.25-4.1-7.08-.5-1.41-1.01-2.8-1.55-4.18-2.97-6.69-6.48-13.12-10.77-19.06-2.03-2.45-4.23-4.76-6.63-6.84-1.17-.78-2.36-1.5-3.6-2.15-.8-.26-1.62-.49-2.45-.68-.55-.02-1.13-.03-1.69-.01-1.23.31-2.44.7-3.62,1.14-5.11,2.27-10.19,4.67-15.48,6.46-8.28,2.81-17.08,4.16-25.78,4.88-8.13.67-16.34.71-24.48.41-8.85-.32-17.79-1.17-26.41-3.24-7.85-1.88-15.17-5.23-22.54-8.45-1.24-.47-2.5-.88-3.79-1.2-.56-.02-1.13,0-1.7.01-.82.19-1.63.42-2.44.68-1.24.65-2.44,1.37-3.6,2.15-2.4,2.08-4.59,4.39-6.63,6.84-4.24,5.89-7.74,12.26-10.69,18.89-1.03,2.72-1.82,5.7-3.31,8.15-2.47,4.04-6.58,7.64-11.34,8.61-.86.17-1.73.3-2.6.38,0,1.22.02,2.25.02,3.12,0,1.38-.01,2.82-.01,4.3h.06c.01.35.02.37.02.37,0,.33,0,.66,0,.98.84-.07,1.67-.2,2.51-.36,4.76-.97,8.87-4.57,11.34-8.61,1.49-2.46,2.29-5.43,3.31-8.15,2.96-6.63,6.45-13,10.69-18.89,2.04-2.45,4.23-4.75,6.63-6.84,1.16-.78,2.36-1.5,3.6-2.16.81-.26,1.62-.48,2.44-.68.57-.02,1.14-.03,1.7-.01,1.29.32,2.55.73,3.79,1.2,7.37,3.23,14.69,6.57,22.54,8.46,8.62,2.06,17.56,2.91,26.41,3.23,8.15.3,16.35.26,24.48-.42,8.69-.71,17.49-2.07,25.78-4.88,5.29-1.8,10.37-4.19,15.48-6.46,1.19-.45,2.4-.84,3.62-1.14.56-.01,1.13-.01,1.69.01.83.2,1.65.42,2.45.68,1.24.66,2.44,1.38,3.6,2.16,2.4,2.09,4.6,4.38,6.63,6.84,4.28,5.94,7.79,12.38,10.77,19.06.54,1.38,1.06,2.77,1.55,4.18.99,2.82,2.23,4.77,4.1,7.08,1.79,2.22,4.24,3.73,6.92,4.67v-8.79c-2.67-.94-5.12-2.46-6.92-4.67Z"/>
    <path class="st10" d="M242.64,122.63c-1.3,3.4-5.03,5.87-8.59,5.87-4.19,0-7.44-2.79-8.72-6.64-.54-1.62-1.17-3.23-1.82-4.81-3.22-7.46-7.12-14.69-11.98-21.21-2.48-3.09-5.2-5.99-8.28-8.5-1.75-1.26-3.6-2.38-5.55-3.32-1.55-.57-3.13-1.01-4.76-1.31-1.37-.12-2.74-.14-4.11-.04-1.89.37-3.72.96-5.5,1.68-5.66,2.45-11.19,5.17-17.12,6.94-10.69,3.2-22.07,4.25-33.19,4.35-12.96.12-26.15-.28-38.74-3.64-6.82-1.82-13.11-4.84-19.55-7.62-1.81-.73-3.66-1.34-5.59-1.71-1.36-.1-2.74-.08-4.11.04-1.62.3-3.2.74-4.75,1.31-1.96.93-3.8,2.05-5.55,3.32-3.07,2.51-5.8,5.4-8.28,8.5-4.86,6.51-8.77,13.74-11.98,21.2-.65,1.59-1.28,3.19-1.82,4.82-1.55,4.68-6.18,7.68-11.13,6.32-2.64-.73-5.16-2.94-6.18-5.62-.18,1.46-.33,2.92-.46,4.39-.35,3.95,3.02,7.73,6.64,8.72,4.95,1.36,9.58-1.64,11.13-6.32.54-1.62,1.17-3.23,1.82-4.81,3.22-7.46,7.12-14.68,11.98-21.2,2.48-3.1,5.21-5.99,8.28-8.5,1.75-1.26,3.6-2.38,5.55-3.31,1.54-.58,3.12-1.02,4.75-1.31,1.37-.12,2.75-.14,4.11-.04,1.92.37,3.78.98,5.59,1.71,6.44,2.79,12.72,5.8,19.55,7.62,12.59,3.35,25.78,3.75,38.74,3.64,11.12-.1,22.5-1.15,33.19-4.35,5.92-1.78,11.46-4.49,17.12-6.94,1.78-.72,3.61-1.31,5.5-1.68,1.37-.11,2.74-.08,4.11.04,1.63.3,3.21.74,4.76,1.31,1.95.92,3.8,2.05,5.55,3.31,3.08,2.52,5.81,5.41,8.28,8.5,4.86,6.52,8.76,13.74,11.98,21.2.66,1.58,1.28,3.19,1.82,4.81,1.28,3.85,4.54,6.64,8.72,6.64,4.6,0,9.49-4.13,9.05-9.04-.13-1.44-.29-2.88-.46-4.32Z"/>
    <g>
      <path d="M252.15,126.95c-1.49-16.42-5.56-32.34-13.23-46.99-7.61-14.54-18.85-26.78-32.27-36.1-13.05-9.07-28.42-15.03-43.97-18.06-8.41-1.63-16.98-2.54-25.53-2.89-4.5-.18-9-.03-13.5-.04-14.06-.07-28.11-.14-42.17-.22-6.84-.03-13.92.36-20.7-.55.8.11,1.6.22,2.41.33-5.07-.7-10.02-2.03-14.75-3.97.73.3,1.45.61,2.17.91-3.84-1.62-7.37-3.75-10.67-6.29.61.47,1.22.95,1.83,1.41-4.06-3.17-7.76-6.85-10.93-10.93.48.61.95,1.22,1.41,1.83-.23-.3-.46-.6-.67-.9-1.88-2.67-4.42-4.48-7.82-4.48-3.01,0-6.42,1.68-7.8,4.48-1.03,2.07-1.8,4.3-2.37,6.54-1.37,5.3-1.93,10.88-2.15,16.33-.33,8.08.12,16.33,2.44,24.11,2.19,7.36,5.69,14.4,9.76,20.88.99,1.58,2.03,3.12,3.11,4.64v-9.13c-5.18,7-9.04,14.52-12.4,22.54-3.12,7.46-5.35,15.17-6.74,23.13-.81,4.55-1.5,9.18-1.78,13.8-.17,2.85.87,5.6,2.07,8.11,1.29,2.68,3.55,4.63,5.85,6.39,4.12,3.14,9.54,3.71,14.48,2.7,4.76-.97,8.88-4.57,11.35-8.61,1.65-2.7,2.43-6.04,3.63-8.96-.3.72-.6,1.44-.91,2.16,3.23-7.47,7.12-14.65,11.98-21.2-.47.61-.94,1.22-1.41,1.83,2.49-3.1,5.21-5.98,8.28-8.5-.61.47-1.22.94-1.83,1.42,1.75-1.25,3.6-2.37,5.55-3.31-.72.3-1.44.61-2.15.91,1.55-.56,3.12-1,4.75-1.31-.8.11-1.6.21-2.41.32,1.37-.1,2.74-.12,4.11-.04-.8-.11-1.6-.21-2.4-.32,1.92.39,3.76.99,5.58,1.71-.72-.31-1.44-.61-2.17-.92,7.9,3.43,15.7,7.12,24.11,9.13,8.61,2.07,17.56,2.92,26.4,3.24,8.15.29,16.35.25,24.49-.42,8.68-.72,17.49-2.07,25.76-4.88,5.81-1.97,11.35-4.66,16.96-7.11-.72.3-1.44.61-2.17.91,1.8-.71,3.62-1.29,5.51-1.68-.8.11-1.6.21-2.41.32,1.37-.09,2.74-.07,4.11.04-.8-.1-1.6-.21-2.4-.32,1.62.31,3.2.75,4.75,1.31-.72-.3-1.44-.61-2.17-.91,1.95.94,3.79,2.06,5.55,3.31-.61-.47-1.22-.94-1.83-1.42,3.07,2.53,5.79,5.41,8.28,8.5-.47-.61-.94-1.22-1.41-1.83,4.86,6.55,8.75,13.74,11.98,21.2-.3-.72-.61-1.44-.91-2.16.7,1.7,1.33,3.42,1.94,5.15.99,2.82,2.23,4.77,4.1,7.08,3.08,3.81,8.11,5.56,12.84,5.85,9.58.59,19.08-8.44,18.48-18.08-.31-4.92-3.89-9.05-9.05-9.05-4.7,0-9.36,4.12-9.05,9.05.03.48.02.94-.02,1.41.11-.8.21-1.61.32-2.41-.1.69-.28,1.35-.53,2,.31-.72.61-1.44.91-2.16-.28.64-.62,1.22-1.04,1.79.47-.61.95-1.22,1.41-1.84-.5.65-1.07,1.23-1.71,1.75.62-.47,1.22-.94,1.84-1.41-.75.57-1.55,1.04-2.41,1.41.72-.31,1.44-.61,2.16-.92-.76.3-1.52.51-2.32.63.8-.11,1.6-.22,2.41-.32-.72.07-1.41.07-2.13,0,.8.11,1.6.22,2.4.33-.83-.12-1.62-.34-2.4-.66.72.3,1.44.61,2.16.91-.63-.29-1.22-.64-1.79-1.05.61.47,1.22.94,1.83,1.41-.65-.51-1.21-1.07-1.74-1.71.48.61.95,1.22,1.42,1.84-.59-.78-1.04-1.59-1.42-2.48.29.72.61,1.44.91,2.16-2.48-6.37-5.03-12.62-8.37-18.62-3.38-6.08-7.39-11.88-12.25-16.87-5.73-5.89-12.91-10.36-21.26-11.02-8.12-.64-15.35,3.77-22.57,6.83.72-.3,1.44-.61,2.16-.91-7.38,3.1-15.03,5.05-22.95,6.14.8-.11,1.6-.21,2.41-.33-7.44,1-14.91,1.25-22.39,1.25-7.58,0-15.17-.29-22.69-1.28.8.1,1.61.21,2.41.32-8.11-1.1-15.81-3.2-23.35-6.37.72.3,1.44.61,2.16.91-7.14-3.03-14.06-7.05-22.06-6.57-8.34.5-15.53,5.24-21.26,11.01-4.79,4.84-8.67,10.56-12.03,16.46-3.46,6.1-6.04,12.52-8.6,19.03.31-.72.61-1.44.91-2.16-.38.89-.85,1.7-1.44,2.46.47-.61.95-1.22,1.41-1.83-.52.63-1.09,1.19-1.73,1.7.61-.47,1.22-.94,1.83-1.41-.66.48-1.34.86-2.08,1.18.71-.31,1.44-.61,2.16-.92-.65.25-1.31.42-2,.53.81-.1,1.6-.21,2.41-.32-.84.11-1.66.1-2.5,0,.8.1,1.61.21,2.41.32-.73-.12-1.43-.31-2.12-.59.72.3,1.44.61,2.16.92-.79-.36-1.51-.79-2.21-1.32.61.47,1.22.95,1.84,1.42-.59-.48-1.11-1-1.6-1.58.47.61.95,1.22,1.42,1.83-.54-.7-.97-1.43-1.32-2.23.3.72.6,1.44.91,2.16-.21-.58-.37-1.15-.47-1.77.11.81.22,1.61.32,2.41-.27-2.5.33-5.23.66-7.72-.11.8-.21,1.61-.32,2.41,1.32-9.62,3.74-18.96,7.49-27.91-.31.72-.61,1.44-.92,2.17,3.07-7.27,6.8-14.04,11.49-20.38,1.75-2.37,1.68-6.76,0-9.13-3.78-5.35-7.11-11.04-9.68-17.09.3.72.6,1.44.91,2.16-1.84-4.4-3.24-8.96-3.93-13.69.1.8.21,1.6.32,2.41-.96-7.14-.77-14.66.16-21.79-.11.8-.21,1.6-.33,2.41.48-3.51,1.11-7.12,2.49-10.41-.3.72-.61,1.44-.91,2.17.06-.13.11-.27.18-.4h-15.62c5.78,8.23,13.76,15.56,22.73,20.11,9.67,4.9,20.3,6.91,31.06,6.96,13.36.07,26.73.14,40.1.21,14.15.07,28.39-.46,42.45,1.38-.81-.1-1.61-.21-2.41-.32,10.62,1.42,21.01,4.03,30.9,8.16-.72-.31-1.44-.61-2.16-.91,8.16,3.44,15.85,7.81,22.89,13.2-.61-.48-1.22-.95-1.83-1.42,6.08,4.71,11.51,10.15,16.23,16.24-.47-.61-.95-1.22-1.42-1.83,5.06,6.6,9.22,13.8,12.46,21.46-.31-.72-.61-1.44-.91-2.15,3.84,9.21,6.32,18.91,7.67,28.79-.11-.8-.21-1.61-.32-2.4.25,1.94.47,3.9.65,5.86.23,2.48.84,4.59,2.65,6.4,1.69,1.69,4.01,2.65,6.4,2.65,4.59,0,9.49-4.13,9.05-9.04Z"/>
      <path class="st20" d="M243.1,126.95c-1.54-17.3-6.48-34.38-15.87-49.11-5.08-7.96-11.36-15.27-18.66-21.27-8.8-7.24-18.53-12.65-29.17-16.7-15.92-6.04-33.34-8.11-50.28-8.06-1.55.02-3.11.05-4.67.1l-54.91-.28s-11.6.79-24.47-4.87c-12.86-5.64-21.33-17.72-21.33-17.72,0,0-4.39,8.78-3.13,29.48.8,13.19,8.47,26.19,13.93,33.89-2.18,2.92-4.2,5.93-6.02,9.1-2.41,4.2-4.38,8.6-6.21,13.07-4.21,10.31-6.45,21.3-7.44,32.37-.35,3.95,3.02,7.73,6.64,8.72,4.95,1.36,9.58-1.64,11.13-6.32.54-1.62,1.17-3.23,1.82-4.81,3.22-7.46,7.12-14.68,11.98-21.2,2.48-3.1,5.21-5.99,8.28-8.5,1.75-1.26,3.6-2.38,5.55-3.31,1.54-.58,3.12-1.02,4.75-1.31,1.37-.12,2.75-.14,4.11-.04,1.92.37,3.78.98,5.59,1.71,6.44,2.79,12.72,5.8,19.55,7.62,12.59,3.35,25.78,3.75,38.74,3.64,11.12-.1,22.5-1.15,33.19-4.35,5.92-1.78,11.46-4.49,17.12-6.94,1.78-.72,3.61-1.31,5.5-1.68,1.37-.11,2.74-.08,4.11.04,1.63.3,3.21.74,4.76,1.31,1.95.92,3.8,2.05,5.55,3.31,3.08,2.52,5.81,5.41,8.28,8.5,4.86,6.52,8.76,13.74,11.98,21.2.66,1.58,1.28,3.19,1.82,4.81,1.28,3.85,4.54,6.64,8.72,6.64,4.6,0,9.49-4.13,9.05-9.04Z"/>
      <g>
        <path class="st12" d="M31.51,67.91c.97-1.46,1.99-2.88,3.03-4.28-5.46-7.7-13.13-20.7-13.93-33.89-.05-.92-.1-1.83-.13-2.71-.14,3.33-.13,7.15.13,11.51.66,10.88,5.99,21.63,10.9,29.38Z"/>
        <path class="st12" d="M242.52,121.65c-1.41,3.24-5.02,5.56-8.47,5.56-4.19,0-7.44-2.79-8.72-6.64-.54-1.63-1.17-3.22-1.82-4.81-3.22-7.46-7.12-14.69-11.98-21.21-2.48-3.1-5.2-5.99-8.28-8.5-1.75-1.26-3.6-2.38-5.55-3.31-1.55-.57-3.13-1.01-4.76-1.31-1.37-.12-2.74-.14-4.11-.04-1.89.36-3.72.96-5.5,1.68-5.66,2.45-11.19,5.17-17.12,6.94-10.69,3.2-22.07,4.25-33.19,4.34-12.96.12-26.15-.28-38.74-3.64-6.82-1.82-13.11-4.83-19.55-7.61-1.81-.73-3.66-1.34-5.59-1.71-1.36-.1-2.74-.08-4.11.04-1.62.3-3.2.74-4.75,1.31-1.96.93-3.8,2.05-5.55,3.31-3.07,2.51-5.8,5.4-8.28,8.5-4.86,6.52-8.77,13.74-11.98,21.2-.65,1.59-1.28,3.19-1.82,4.82-1.55,4.68-6.18,7.68-11.13,6.32-2.55-.71-4.96-2.77-6.06-5.31-.23,1.79-.42,3.58-.58,5.38-.35,3.95,3.02,7.73,6.64,8.72,4.95,1.36,9.58-1.64,11.13-6.32.54-1.62,1.17-3.23,1.82-4.81,3.22-7.46,7.12-14.68,11.98-21.2,2.48-3.1,5.21-5.99,8.28-8.5,1.75-1.26,3.6-2.38,5.55-3.31,1.54-.58,3.12-1.02,4.75-1.31,1.37-.12,2.75-.14,4.11-.04,1.92.37,3.78.98,5.59,1.71,6.44,2.79,12.72,5.8,19.55,7.62,12.59,3.35,25.78,3.75,38.74,3.64,11.12-.1,22.5-1.15,33.19-4.35,5.92-1.78,11.46-4.49,17.12-6.94,1.78-.72,3.61-1.31,5.5-1.68,1.37-.11,2.74-.08,4.11.04,1.63.3,3.21.74,4.76,1.31,1.95.92,3.8,2.05,5.55,3.31,3.08,2.52,5.81,5.41,8.28,8.5,4.86,6.52,8.76,13.74,11.98,21.2.66,1.58,1.28,3.19,1.82,4.81,1.28,3.85,4.54,6.64,8.72,6.64,4.6,0,9.49-4.13,9.05-9.04-.16-1.77-.35-3.54-.58-5.3Z"/>
      </g>
      <path class="st22" d="M243.1,126.95c-1.54-17.3-6.48-34.38-15.87-49.11-5.08-7.96-11.36-15.27-18.66-21.27-8.8-7.24-18.53-12.65-29.17-16.7-15.92-6.04-33.34-8.11-50.28-8.06-1.55.02-3.11.05-4.67.1l-54.91-.28s-11.6.79-24.47-4.87c-12.86-5.64-21.33-17.72-21.33-17.72,0,0-1.61,15.41,18.23,23.54,13,5.32,24.46,4.86,24.46,4.86l54.91.28c1.56-.05,3.11-.08,4.67-.1,16.94-.05,34.37,2.02,50.29,8.07,10.65,4.05,20.36,9.45,29.16,16.7,7.3,6,13.57,13.3,18.66,21.27,9.39,14.73,14.33,31.81,15.86,49.11.03.32.03.64.02.95,2-1.67,3.32-4.1,3.09-6.76Z"/>
      <g>
        <path class="st7" d="M155.36,64c10.85,1.91,20.35-.51,21.22-5.42.87-4.9-7.23-10.43-18.08-12.35-10.85-1.91-20.35.51-21.21,5.41-.87,4.9,7.23,10.44,18.07,12.35Z"/>
        <path class="st7" d="M180.32,62.65c.25,2,2.05,3.43,4.05,3.18,2-.24,3.42-2.05,3.17-4.05-.24-2-2.05-3.42-4.05-3.18-2,.24-3.42,2.05-3.18,4.05Z"/>
      </g>
    </g>
  </g>
  <g>
    <g>
      <g>
        <g>
          <path class="st5" d="M140.68,244.35s2.82,2.49,2.82,6.95-2.82,6.91-2.82,6.91l-8.22-2.96v-7.96l8.22-2.95Z"/>
          <path d="M136.57,248.46c.13.12.25.25.36.38.31.33.79.97-.46-.64.19.25.36.51.53.78.14.23.28.48.41.72.25.54.18.36-.21-.54.09.21.16.42.23.63.12.34.2.7.27,1.05.1.63.09.5-.05-.38.02.28.04.56.04.84,0,.35-.16,1.78.08.08-.07.48-.2.95-.34,1.42-.12.4-.63,1.47.12-.18-.16.34-.35.67-.54.99-.13.21-.26.4-.4.6,1.16-1.63.66-.84.34-.46-.12.12-.23.25-.36.37,1.89-.5,3.77-1.01,5.66-1.5-2.74-.98-5.48-1.97-8.22-2.96,1.43,1.87,2.85,3.74,4.27,5.61v-7.96c-1.42,1.88-2.85,3.74-4.27,5.61,2.74-.99,5.48-1.97,8.22-2.96,2.98-1.07,4.95-3.92,4.06-7.15-.79-2.88-4.17-5.14-7.15-4.06-2.74.99-5.48,1.97-8.22,2.96-2.46.88-4.27,2.87-4.27,5.61v7.96c0,2.74,1.81,4.72,4.27,5.61,2.74.99,5.48,1.97,8.22,2.96,2,.71,4.17-.18,5.66-1.5,6.06-5.39,5.97-16.7,0-22.1-2.35-2.12-5.9-2.32-8.23,0-2.15,2.16-2.35,6.11,0,8.23Z"/>
        </g>
        <path class="st2" d="M140.68,244.35s2.82,2.49,2.82,6.95-2.82,6.91-2.82,6.91l-8.22-2.96v-7.96l8.22-2.95Z"/>
        <path class="st4" d="M140.25,257.18s2.81-2.45,2.81-6.92c0-1.29-.23-2.42-.57-3.37.55,1.12,1.01,2.61,1.01,4.41,0,4.47-2.82,6.91-2.82,6.91l-8.22-2.96v-.88l7.79,2.8Z"/>
        <path class="st6" d="M142.8,252.78c0-4.47-2.82-6.95-2.82-6.95l-7.52,2.7v-1.23l8.22-2.95s2.82,2.49,2.82,6.95c0,2.14-.66,3.82-1.33,4.99.36-.98.63-2.15.63-3.52Z"/>
      </g>
      <g>
        <g>
          <path class="st5" d="M113.29,244.35s-2.81,2.49-2.81,6.95,2.81,6.91,2.81,6.91l8.22-2.96v-7.96l-8.22-2.95Z"/>
          <path d="M109.18,240.24c-5.98,5.41-6.06,16.71,0,22.1,1.48,1.32,3.67,2.21,5.66,1.5,2.74-.99,5.48-1.97,8.22-2.96,2.46-.88,4.27-2.87,4.27-5.61v-7.96c0-2.74-1.81-4.72-4.27-5.61-2.74-.99-5.48-1.97-8.22-2.96-2.98-1.07-6.36,1.19-7.15,4.06-.89,3.23,1.08,6.08,4.06,7.15,2.74.98,5.48,1.97,8.21,2.96-1.42-1.87-2.85-3.73-4.27-5.61v7.96c1.42-1.87,2.85-3.74,4.27-5.61-2.74.98-5.47,1.97-8.21,2.96,1.89.49,3.78,1,5.66,1.5-.13-.12-.25-.25-.37-.37-.11-.13-.22-.25-.32-.38,1.34,1.64.54.7.26.25-.15-.23-.27-.48-.4-.72-.25-.53-.18-.35.2.55-.08-.21-.16-.42-.22-.63-.12-.35-.19-.7-.27-1.05-.1-.63-.09-.5.05.38-.03-.28-.04-.56-.04-.84,0-.35.16-1.78-.08-.08.07-.49.2-.96.34-1.43.12-.4.62-1.48-.12.17.16-.35.34-.67.54-1,.12-.21.26-.4.4-.6.55-.78-1.07,1.29-.34.46.12-.14.24-.26.37-.38,2.35-2.12,2.15-6.07,0-8.23-2.33-2.32-5.88-2.12-8.23,0Z"/>
        </g>
        <path class="st2" d="M113.29,244.35s-2.81,2.49-2.81,6.95,2.81,6.91,2.81,6.91l8.22-2.96v-7.96l-8.22-2.95Z"/>
        <path class="st4" d="M113.73,257.18s-2.81-2.45-2.81-6.92c0-1.29.24-2.42.57-3.37-.54,1.12-1,2.61-1,4.41,0,4.47,2.81,6.91,2.81,6.91l8.22-2.96v-.88l-7.78,2.8Z"/>
        <path class="st6" d="M111.18,252.78c0-4.47,2.81-6.95,2.81-6.95l7.52,2.7v-1.23l-8.22-2.95s-2.81,2.49-2.81,6.95c0,2.14.65,3.82,1.32,4.99-.37-.98-.63-2.15-.63-3.52Z"/>
      </g>
    </g>
    <g>
      <g>
        <path class="st5" d="M130.38,251.29c0,1.87-1.52,3.4-3.39,3.4s-3.4-1.53-3.4-3.4,1.52-3.4,3.4-3.4,3.39,1.52,3.39,3.4Z"/>
        <path d="M124.57,251.29c.19-.97.2-1.15.06-.54.11-.26.22-.52.33-.78-.32.51-.22.38.32-.39.77-.54.91-.65.39-.32.27-.11.52-.22.79-.33-.61.14-.43.12.53-.06.96.18,1.15.2.53.06.26.1.53.21.79.33-.51-.33-.39-.21.39.32.54.77.65.91.33.39.11.26.22.52.33.78-.14-.61-.13-.43.05.54-.18.96-.2,1.14-.05.53-.11.26-.22.52-.33.78.32-.51.21-.38-.33.39-.77.54-.9.65-.39.33-.26.11-.53.21-.79.33.62-.14.43-.12-.53.05-.96-.18-1.14-.19-.53-.05-.27-.11-.52-.22-.79-.33.51.32.38.21-.39-.33-.54-.77-.64-.91-.32-.39-.11-.26-.22-.51-.33-.78.14.61.13.43-.06-.53.16,3.16,2.53,5.82,5.81,5.82,3.05,0,5.98-2.65,5.82-5.82-.26-5.19-4.02-8.96-9.21-9.22-5.18-.26-8.97,4.42-9.21,9.22-.27,5.18,4.41,8.97,9.21,9.21,5.18.26,8.97-4.42,9.21-9.21.16-3.17-2.77-5.81-5.82-5.81-3.29,0-5.65,2.64-5.81,5.81Z"/>
      </g>
      <path class="st2" d="M130.38,251.29c0,1.87-1.52,3.4-3.39,3.4s-3.4-1.53-3.4-3.4,1.52-3.4,3.4-3.4,3.39,1.52,3.39,3.4Z"/>
      <path class="st4" d="M124.17,251.29c0-1.78,1.37-3.24,3.11-3.39-.1,0-.2-.01-.29-.01-1.88,0-3.4,1.52-3.4,3.4s1.52,3.4,3.4,3.4c.1,0,.2,0,.29-.01-1.74-.15-3.11-1.61-3.11-3.39Z"/>
      <path class="st6" d="M129.8,251.29c0-1.78-1.37-3.24-3.11-3.39.1,0,.2-.01.29-.01,1.88,0,3.39,1.52,3.39,3.4s-1.52,3.4-3.39,3.4c-.1,0-.2,0-.29-.01,1.74-.15,3.11-1.61,3.11-3.39Z"/>
    </g>
  </g>
  <rect class="st8" x="123.8" y="268.81" width="6.33" height="25.72"/>
  <path class="st3" d="M121.04,272.37c0,1.64-1.33,2.97-2.98,2.97s-2.97-1.33-2.97-2.97,1.33-2.97,2.97-2.97,2.98,1.33,2.98,2.97Z"/>
  <path class="st3" d="M121.04,282.02c0,1.64-1.33,2.97-2.98,2.97s-2.97-1.33-2.97-2.97,1.33-2.97,2.97-2.97,2.98,1.33,2.98,2.97Z"/>
  <g>
    <g>
      <rect class="st8" x="145.09" y="267.14" width="11.36" height="2.44"/>
      <path d="M156.45,268.29h-11.36c.43.43.87.86,1.29,1.29v-2.44c-.43.43-.86.86-1.29,1.29h11.36c-.43-.44-.86-.87-1.29-1.29v2.44c0,1.67,2.58,1.67,2.58,0v-2.44c0-.71-.58-1.29-1.29-1.29h-11.36c-.71,0-1.29.58-1.29,1.29v2.44c0,.71.58,1.29,1.29,1.29h11.36c1.67,0,1.67-2.58,0-2.58Z"/>
    </g>
    <g>
      <g>
        <path class="st3" d="M147.47,266.81s4.72-5.98,5.95-5.95c1.22.04,1.08,5.99,1.08,5.99l-7.03-.04Z"/>
        <path d="M150.21,269.55c1.47-1.88,3.03-3.8,4.85-5.34-.92.78-.38.29-.1.13-1.94,1.1-4.14-.24-4.66-1.67.09.25.14.53.19.8.07.41.06.3-.03-.33.03.24.05.49.07.73.08.99.1,1.99.08,2.98,1.3-1.3,2.59-2.58,3.88-3.88-2.34-.01-4.69-.03-7.03-.04-5-.03-5,7.73,0,7.75,2.34.02,4.68.03,7.03.05,2.15.01,3.83-1.77,3.88-3.88.09-3.89-.39-11.07-6.17-9.7-1.97.47-3.57,2.39-4.87,3.83-.9,1-1.77,2.04-2.6,3.09-1.31,1.66-1.62,3.86,0,5.48,1.36,1.36,4.17,1.66,5.49,0Z"/>
      </g>
      <path class="st1" d="M147.47,266.81s4.72-5.98,5.95-5.95c1.22.04,1.08,5.99,1.08,5.99l-7.03-.04Z"/>
    </g>
  </g>
  <g>
    <g>
      <g>
        <path class="st11" d="M78.62,245.59c0,.96-1.67,1.75-3.72,1.75s-3.71-.78-3.71-1.75,1.66-1.74,3.71-1.74,3.72.78,3.72,1.74Z"/>
        <path d="M72.8,245.59c.06-1.78.75-3.09,2.07-3.93.92-.35,1.09-.42.48-.21-.24.07-.49.13-.74.17.88-.11.97-.15.29-.11-.68-.04-.58,0,.3.11-.25-.05-.5-.1-.74-.17-.61-.21-.44-.14.49.21,1.32.84,2,2.15,2.06,3.93-.06,1.78-.74,3.09-2.06,3.93-.93.35-1.09.42-.49.21.24-.07.49-.13.74-.17-.88.11-.98.14-.3.1.68.04.58,0-.29-.1.25.04.5.09.74.17.61.21.44.14-.48-.21-1.32-.84-2.01-2.15-2.07-3.93.39,3.15,2.35,5.82,5.82,5.82,2.88,0,6.19-2.67,5.81-5.82-.33-2.74-1.38-4.59-3.7-6.11-1.64-1.07-3.93-1.39-5.83-1.45-2.03-.05-4.05.52-5.83,1.45-2.39,1.25-3.39,3.59-3.7,6.11-.32,2.55,1.75,4.84,3.7,6.11,1.63,1.07,3.93,1.4,5.83,1.45,2.03.05,4.06-.51,5.83-1.45,2.38-1.25,3.39-3.59,3.7-6.11.38-3.15-2.94-5.81-5.81-5.81-3.46,0-5.43,2.67-5.82,5.81Z"/>
      </g>
      <path class="st13" d="M78.62,245.59c0,.96-1.67,1.75-3.72,1.75s-3.71-.78-3.71-1.75,1.66-1.74,3.71-1.74,3.72.78,3.72,1.74Z"/>
      <path class="st18" d="M74.9,244.52c1.81,0,3.31.61,3.64,1.41.05-.11.08-.22.08-.34,0-.96-1.67-1.74-3.72-1.74s-3.71.78-3.71,1.74c0,.12.03.23.07.34.33-.8,1.84-1.41,3.64-1.41Z"/>
    </g>
    <g>
      <g>
        <g>
          <g>
            <path class="st11" d="M52.21,269.13h44.92c.27,0,.72.01.72-.28,0-9.37-10.33-16.97-23.08-16.97s-23.07,7.6-23.07,16.97c0,.19.33.28.51.28Z"/>
            <path d="M52.21,274.95h44.68c4.27,0,7.07-3.08,6.71-7.31-.28-3.35-1.32-6.57-3.2-9.37-8.05-11.97-25.81-15.04-38.61-9.78-5.05,2.08-9.24,5.09-12.48,9.53-1.35,1.85-2.32,4.09-2.88,6.3-.32,1.27-.47,2.62-.55,3.92-.17,2.85,1.74,6.07,4.78,6.5,1.62.22,3,.28,4.47-.59,1.3-.76,2.27-2.02,2.67-3.48.76-2.75-.91-6.71-4.06-7.16.32.16.65.31.97.47.69.7,1.39,1.39,2.08,2.09-.04-.06-.06-.11-.09-.16.26.98.52,1.96.79,2.94,0-.51.04-1.01.09-1.51-.22,2.06.01.28.14-.22.12-.48.28-.96.46-1.42-.7,1.89.08-.06.34-.52.25-.45.54-.88.83-1.29.67-.96-.89,1.1-.13.18.2-.24.42-.47.63-.71.36-.4.76-.77,1.16-1.13.24-.22.5-.44.76-.65.94-.78-1.11.82-.1.09.93-.68,1.95-1.26,2.98-1.79.36-.19,2.28-1.01.59-.31.69-.28,1.39-.52,2.1-.75,1.35-.43,2.74-.73,4.13-.95.65-.1.53-.08-.36.04.39-.05.8-.08,1.2-.12.82-.07,1.64-.09,2.46-.1.69,0,1.38.03,2.06.07.4.02,2.68.29.86.04,1.4.2,2.8.51,4.16.91.6.17,1.19.38,1.77.59.33.12,1.55.64-.03-.04.33.14.66.3.99.46,1.15.55,2.25,1.22,3.3,1.95.49.36.37.26-.36-.3.26.21.51.42.77.63.41.35.8.73,1.18,1.12.38.38.72.78,1.06,1.19-1.24-1.51.08.18.33.61.27.43.5.88.72,1.33.5,1.04-.53-1.35-.12-.27.1.28.2.56.28.85.14.48.24.97.33,1.46-.38-2.07-.05,0-.03.56.27-.98.53-1.96.79-2.94-.02.05-.05.11-.07.16.69-.7,1.39-1.39,2.08-2.08-.06.03-.12.06-.18.08.98-.27,1.96-.53,2.93-.79-1.45.17-3,.03-4.46.03h-40.92c-3.17,0-5.82,2.65-5.82,5.82s2.65,5.82,5.82,5.82Z"/>
          </g>
          <path class="st13" d="M52.21,269.13h44.92c.27,0,.72.01.72-.28,0-9.37-10.33-16.97-23.08-16.97s-23.07,7.6-23.07,16.97c0,.19.33.28.51.28Z"/>
          <path class="st17" d="M74.77,251.88c-.82,0-1.63.04-2.43.1,11.6.89,20.64,8.11,20.64,16.88,0,.29-.44.28-.72.28h4.87c.27,0,.72.01.72-.28,0-9.37-10.33-16.97-23.08-16.97Z"/>
          <path class="st18" d="M76.34,252.02c-.1-.01-.2-.02-.31-.03-11.56.92-20.55,8.12-20.55,16.87,0,.19.33.28.52.28h3.72c.48-7.79,7.23-14.38,16.62-17.12Z"/>
        </g>
        <g>
          <path class="st7" d="M84.75,255.09c2.17.89,3.6,2.41,3.2,3.4-.4.98-2.5,1.06-4.67.17-2.16-.89-3.6-2.42-3.19-3.4.41-.98,2.49-1.06,4.66-.17Z"/>
          <path class="st7" d="M90.25,259.47c.04.52-.36.98-.88,1.01-.53.04-.97-.36-1.01-.88-.04-.52.36-.97.88-1.01.53-.04.98.36,1.02.88Z"/>
        </g>
      </g>
      <g>
        <g>
          <path class="st11" d="M101.46,271.75h-53.12c-.51,0-.92.41-.92.92s.42.92.92.92h53.12c.51,0,.92-.41.92-.92s-.42-.92-.92-.92Z"/>
          <path d="M101.46,265.94h-51.54c-1.19,0-2.22.06-3.42.25-1.64.27-3.32,1.84-4.05,3.26-1.14,2.21-.99,4.53.13,6.7,1.72,3.32,5.45,3.26,8.62,3.26h50.06c1.78,0,3.59-.61,4.87-1.88,1.89-1.89,2.24-4.12,1.82-6.69-.35-2.2-2.81-4.35-4.94-4.69-3.13-.51-6.24.76-7.15,4.06-.77,2.8.93,6.65,4.06,7.15-1.05-1.05-2.1-2.1-3.15-3.14v-3.09c.58-3.61,7.11-3.35,3.65-3.35h-51.45c-2.78,0,3.48-.18,4.05,3.35v3.09c-.58,3.61-7,3.35-3.67,3.35h52.1c3.17,0,5.82-2.64,5.82-5.81s-2.65-5.81-5.82-5.81Z"/>
        </g>
        <path class="st13" d="M101.46,271.75h-53.12c-.51,0-.92.41-.92.92s.42.92.92.92h53.12c.51,0,.92-.41.92-.92s-.42-.92-.92-.92Z"/>
        <path class="st18" d="M48.34,272.17h53.12c.44,0,.8.3.9.71.01-.07.02-.14.02-.22,0-.5-.42-.92-.92-.92h-53.12c-.51,0-.92.41-.92.92,0,.07.01.14.03.22.1-.41.46-.71.89-.71Z"/>
        <path class="st17" d="M101.46,273.02h-53.12c-.41,0-.75-.27-.87-.63-.03.09-.05.19-.05.28,0,.51.42.92.92.92h53.12c.51,0,.92-.41.92-.92,0-.09-.02-.19-.05-.28-.12.37-.46.63-.87.63Z"/>
      </g>
    </g>
  </g>
  <g>
    <g>
      <path d="M75.78,280.78c-7.39.13-5.51-8.93-.47-8.78,5.03.16,8.9,8.62.47,8.78"/>
      <path d="M75.78,276.26c-.31,0-.62,0-.92-.04,1.36.11.25,0-.1-.11,1.18.37.59.27.24.07-.67-.36.87.84.09.06-.57-.57.66.95.23.28-.57-.91.29.88.08.2-.1-.36-.16-1.12.03.44-.03-.25-.02-.52,0-.78-.09,1.44-.13.83-.05.42.09-.38.5-1.3-.12.13.08-.18.18-.36.28-.53.55-.95-.59.66-.11.12.13-.15.29-.28.44-.41-1.1.94-.47.37-.09.17-1.27.65-.56.24-.11.14-1.44.31-.62.08-.14.11-1.39-.07-.77-.12-.36-.02.38.09,1.28.56-.09-.08.2.09.38.2.56.31.97.59-.63-.56-.06-.07.16.14.31.29.45.45.78.82-.48-.71-.06-.09.11.17.21.35.3.53.36.66-.42-1.21-.08-.17.06.18.09.37.12.55-.28-1.52-.1-.75-.12-.29.09-1.41.15-.94.02-.52.36-.8.44-.99.24-.59-.24.38-.1.22.39-.47-.21.28-.82.7.33-.18-.3.22-1.25.59.07.06-.33.13-.69.21-1.04.28,1.36-.28-.08-.02-.42,0-2.46.08-4.53,2-4.53,4.52s2.06,4.6,4.53,4.52c2.7-.09,5.33-.74,7.32-2.67,1.98-1.91,2.28-4.5,1.93-7.07-.62-4.55-5.29-7.64-9.51-8.07-5.02-.5-8.68,4.17-9.14,8.7-.24,2.39.72,4.49,2.17,6.3,1.66,2.08,4.72,2.81,7.23,2.81s4.53-2.05,4.53-4.52-2.06-4.52-4.53-4.52h0Z"/>
    </g>
    <path class="st0" d="M75.78,280.78c-7.39.13-5.51-8.93-.47-8.78,5.03.16,8.9,8.62.47,8.78"/>
    <path class="st15" d="M75.75,280.14c-3.21.06-4.67-1.62-4.88-3.52-.07,2.15,1.34,4.22,4.9,4.16,3.88-.07,5.15-1.91,4.9-3.88-.08,1.71-1.47,3.18-4.92,3.24Z"/>
    <path class="st23" d="M71.13,278.24c.49-1.92,2.08-3.61,4.28-3.54,2.29.07,4.33,1.86,5.09,3.8,1-2.56-1.83-6.38-5.2-6.49-3.23-.1-5.17,3.61-4.17,6.23Z"/>
  </g>
</svg>