<?xml version="1.0" encoding="UTF-8"?>
<svg id="Layer_1" xmlns="http://www.w3.org/2000/svg" version="1.1" viewBox="0 0 222.23 343.41">
  <!-- Generator: Adobe Illustrator 29.6.1, SVG Export Plug-In . SVG Version: 2.1.1 Build 9)  -->
  <defs>
    <style>
      .st0 {
        fill: #7be0ff;
      }

      .st1 {
        fill: #ffd7c3;
      }

      .st2 {
        fill: #000002;
      }

      .st3 {
        fill: #fffcd2;
      }

      .st4 {
        fill: #77411d;
      }

      .st5 {
        fill: #bcbec0;
      }

      .st6 {
        fill: #4c1f01;
      }

      .st7 {
        fill: #0378be;
      }

      .st8 {
        fill: #ff9d00;
      }

      .st9 {
        fill: #ed1c24;
      }

      .st10 {
        fill: #ff949c;
      }

      .st11 {
        fill: #055b96;
      }

      .st12 {
        fill: #f38b9e;
      }

      .st13 {
        fill: #be1e2d;
      }

      .st14 {
        fill: #fff;
      }

      .st15 {
        fill: #fdc361;
      }

      .st16 {
        fill: #aee8ff;
      }

      .st17 {
        fill: #fde5d2;
      }

      .st18 {
        fill: #723206;
      }

      .st19 {
        fill: #ffebde;
      }

      .st20 {
        fill: #58bcdb;
      }

      .st21 {
        fill: #e6e7e8;
      }

      .st22 {
        fill: #f4bba2;
      }

      .st23 {
        fill: #ffd401;
      }

      .st24 {
        fill: #8c5b3a;
      }

      .st25 {
        fill: #ff7384;
      }

      .st26 {
        fill: #ffa6b1;
      }
    </style>
  </defs>
  <g>
    <g>
      <g>
        <g>
          <g>
            <rect class="st17" x="37.2" y="271.14" width="1.12" height="18.42"/>
            <path d="M38.32,285.03h-1.12c1.51,1.51,3.02,3.01,4.53,4.53v-18.42c-1.51,1.51-3.01,3.02-4.53,4.52h1.12c-1.51-1.51-3.02-3.01-4.53-4.52v18.42c0,2.46,2.06,4.52,4.53,4.52s4.52-2.05,4.52-4.52v-18.42c0-2.46-2.06-4.52-4.52-4.52h-1.12c-2.46,0-4.53,2.06-4.53,4.52v18.42c0,2.46,2.06,4.52,4.53,4.52h1.12c2.47,0,4.52-2.05,4.52-4.52s-2.06-4.53-4.52-4.53Z"/>
          </g>
          <rect class="st21" x="37.2" y="271.14" width="1.12" height="18.42"/>
          <rect class="st14" x="37.2" y="271.14" width=".31" height="18.42"/>
          <rect class="st5" x="38.01" y="271.14" width=".3" height="18.42"/>
        </g>
        <g>
          <g>
            <rect class="st17" x="50.57" y="271.14" width="1.13" height="18.42"/>
            <path d="M51.7,285.03h-1.13c1.51,1.51,3.02,3.01,4.53,4.53v-18.42c-1.51,1.51-3.02,3.02-4.53,4.52h1.13c-1.51-1.51-3.02-3.01-4.53-4.52v18.42c0,2.46,2.06,4.52,4.53,4.52s4.52-2.05,4.52-4.52v-18.42c0-2.46-2.05-4.52-4.52-4.52h-1.13c-2.46,0-4.53,2.06-4.53,4.52v18.42c0,2.46,2.06,4.52,4.53,4.52h1.13c2.46,0,4.52-2.05,4.52-4.52s-2.05-4.53-4.52-4.53Z"/>
          </g>
          <rect class="st21" x="50.57" y="271.14" width="1.13" height="18.42"/>
          <rect class="st14" x="50.57" y="271.14" width=".3" height="18.42"/>
          <rect class="st5" x="51.38" y="271.14" width=".3" height="18.42"/>
        </g>
      </g>
      <g>
        <g>
          <g>
            <g>
              <path class="st17" d="M59.65,325.13c0,1.99-1.61,3.6-3.6,3.6h-23.22c-1.99,0-3.6-1.61-3.6-3.6v-30.42c0-1.99,1.61-3.6,3.6-3.6h23.22c1.99,0,3.6,1.62,3.6,3.6v30.42Z"/>
              <path d="M54.47,325.13c.04-.23.09-.46.13-.69-.16.53-.09.44.2-.29-.45.99.79-.79.02-.02.17-.13.35-.28.53-.41-.49.26-.38.23.33-.12-.59.21-.35-.04.36-.04h-23.21c.8.15.92.17.36.04.71.35.83.38.33.12.17.14.35.28.53.41-.38-.4-.32-.29.18.3-.62-.9.3,1.09.04.01.19.79.12.91.12.61v-30.35c-.05.23-.08.46-.12.69.15-.54.08-.45-.2.29.45-.99-.79.79-.02.02-.18.14-.36.27-.53.41.49-.26.38-.22-.33.12,1.03-.36-.77.04-.27.04h23.03c.27,0,.5.04-.6-.12,1.1.16-.96-.57,0-.04-.18-.14-.35-.27-.53-.41.38.39.31.29-.19-.3.63.9-.3-1.09-.03,0-.16-.66-.13-.92-.13-.68v30.41c0,2.82,2.35,5.17,5.17,5.17s5.17-2.35,5.17-5.17v-30.41c0-4.94-4.01-8.55-8.77-8.78-2.39-.12-4.81,0-7.2,0h-15.66c-3.34,0-6,1.53-7.88,4.25-1.68,2.43-1.25,6.02-1.25,8.85v25.81c0,3.31,1.57,5.94,4.25,7.8,2.61,1.81,6.82,1.25,9.86,1.25h17.74c4.99,0,8.68-3.91,8.91-8.77.14-2.82-2.45-5.17-5.17-5.17-2.92,0-5.03,2.36-5.17,5.17Z"/>
            </g>
            <path class="st9" d="M59.65,325.13c0,1.99-1.61,3.6-3.6,3.6h-23.22c-1.99,0-3.6-1.61-3.6-3.6v-30.42c0-1.99,1.61-3.6,3.6-3.6h23.22c1.99,0,3.6,1.62,3.6,3.6v30.42Z"/>
            <path class="st10" d="M31.78,325.13v-30.42c0-1.99,1.62-3.6,3.6-3.6h-2.56c-1.99,0-3.6,1.62-3.6,3.6v30.42c0,1.99,1.61,3.6,3.6,3.6h2.56c-1.99,0-3.6-1.61-3.6-3.6Z"/>
            <path class="st13" d="M57.09,325.13v-30.42c0-1.99-1.62-3.6-3.6-3.6h2.56c1.99,0,3.6,1.62,3.6,3.6v30.42c0,1.99-1.61,3.6-3.6,3.6h-2.56c1.99,0,3.6-1.61,3.6-3.6Z"/>
          </g>
          <g>
            <g>
              <path class="st17" d="M35.85,290.98v2.68c0,1.45,1.18,2.64,2.64,2.64h11.89c1.46,0,2.64-1.18,2.64-2.64v-2.68h-17.18Z"/>
              <path d="M31.97,290.98c0,1.01-.05,2.03.03,3.04.24,3.57,3.04,5.93,6.49,6.16,1.96.13,3.98,0,5.94,0h5.94c3,0,5.76-2.18,6.36-5.13.27-1.32.16-2.72.16-4.07,0-2.11-1.77-3.87-3.88-3.87h-17.18c-5,0-5,7.75,0,7.75h17.18c-1.29-1.29-2.58-2.58-3.88-3.88v2.56c0,.2-.04.21.05-.21.09-.43.47-.72.86-.86.41-.14.38-.04.08-.04h-11.64c.69,0,1.23.63,1.23,1.21v-2.65c0-5-7.75-5-7.75,0Z"/>
            </g>
            <path class="st9" d="M35.85,290.98v2.68c0,1.45,1.18,2.64,2.64,2.64h11.89c1.46,0,2.64-1.18,2.64-2.64v-2.68h-17.18Z"/>
            <path class="st13" d="M50.38,294.3h-11.89c-1.46,0-2.64-1.18-2.64-2.64v2c0,1.45,1.18,2.64,2.64,2.64h11.89c1.46,0,2.64-1.18,2.64-2.64v-2c0,1.46-1.18,2.64-2.64,2.64Z"/>
          </g>
          <g>
            <g>
              <path class="st17" d="M37.47,308.75h13.94c1.66,0,3.01,1.35,3.01,3.01v8.92c0,1.66-1.35,3.01-3.01,3.01h-13.94c-1.66,0-3.02-1.35-3.02-3.02v-8.92c0-1.66,1.35-3.01,3.01-3.01Z"/>
              <path d="M50.54,320.69c.01-.21.46-1.05.06-.34.12-.21.84-.68.17-.3.04-.03.87-.23.53-.23h-13.82c-.14,0-.14-.01.31.06.1.05.19.11.29.16-.38-.23-.39-.22-.02.03.53.47,0-.42.19.27.1.36.06.45.06.25v-7.63c0-.21.09-1.71-.06-.87-.05.1-.11.2-.16.29.23-.38.22-.39-.03-.02-.47.53.42,0-.27.19-.43.13-.42.06-.19.06h13.76c.13,0,.13.02-.31-.06-.1-.05-.2-.11-.29-.16.38.23.38.22.02-.03-.52-.47,0,.41-.2-.27-.1-.36-.06-.45-.06-.25v8.83c0,5,7.75,5,7.75,0v-8.88c0-3.8-3.15-6.93-6.95-6.93h-13.83c-3.79,0-6.95,3.13-6.95,6.93v4.68c0,3.27-.44,6.87,2.27,9.3,2.4,2.15,5.51,1.79,8.47,1.79h8.52c.65,0,1.29.02,1.94-.02,3.75-.21,6.33-3.23,6.54-6.87.12-2.11-1.85-3.87-3.87-3.87-2.21,0-3.76,1.76-3.88,3.87Z"/>
            </g>
            <path class="st9" d="M37.47,308.75h13.94c1.66,0,3.01,1.35,3.01,3.01v8.92c0,1.66-1.35,3.01-3.01,3.01h-13.94c-1.66,0-3.02-1.35-3.02-3.02v-8.92c0-1.66,1.35-3.01,3.01-3.01Z"/>
            <path class="st10" d="M51.41,308.75h-13.94c-1.67,0-3.01,1.35-3.01,3.01v1.53c0-1.67,1.34-3.02,3.01-3.02h13.94c1.67,0,3.02,1.35,3.02,3.02v-1.53c0-1.66-1.35-3.01-3.02-3.01Z"/>
            <path class="st13" d="M51.41,323.7h-13.94c-1.67,0-3.01-1.35-3.01-3.01v-1.53c0,1.67,1.34,3.02,3.01,3.02h13.94c1.67,0,3.02-1.35,3.02-3.02v1.53c0,1.66-1.35,3.01-3.02,3.01Z"/>
          </g>
          <rect class="st10" x="35.86" y="290.98" width="17.16" height=".83"/>
        </g>
        <g>
          <g>
            <path class="st2" d="M37.95,334.71c0,1.66-1.35,3.01-3.01,3.01s-3.01-1.35-3.01-3.01,1.35-3,3.01-3,3.01,1.35,3.01,3Z"/>
            <path d="M34.94,338.93c-2.33,0-4.21-1.89-4.21-4.22s1.89-4.21,4.21-4.21,4.22,1.89,4.22,4.21-1.89,4.22-4.22,4.22ZM34.94,332.91c-.99,0-1.8.81-1.8,1.79s.81,1.8,1.8,1.8,1.8-.81,1.8-1.8-.81-1.79-1.8-1.79Z"/>
          </g>
          <g>
            <path class="st2" d="M56.94,334.71c0,1.66-1.35,3.01-3.01,3.01s-3.01-1.35-3.01-3.01,1.35-3,3.01-3,3.01,1.35,3.01,3Z"/>
            <path d="M53.93,338.93c-2.33,0-4.22-1.89-4.22-4.22s1.89-4.21,4.22-4.21,4.22,1.89,4.22,4.21-1.89,4.22-4.22,4.22ZM53.93,332.91c-.99,0-1.8.81-1.8,1.79s.81,1.8,1.8,1.8,1.8-.81,1.8-1.8-.81-1.79-1.8-1.79Z"/>
          </g>
        </g>
      </g>
    </g>
    <g>
      <path class="st17" d="M52.32,268.4h-15.76v3.49c0,.66.53,1.21,1.2,1.21s1.2-.54,1.2-1.21v-1.08h10.97v1.08c0,.66.54,1.21,1.2,1.21s1.21-.54,1.21-1.21v-3.49h-.02Z"/>
      <path d="M52.32,263.87h-15.76c-2.47,0-4.53,2.05-4.53,4.52v2.36c0,1.87.3,3.41,1.49,4.94.96,1.25,2.44,1.68,3.92,1.88,1.7.23,3.09-.65,4.37-1.64,1.52-1.18,1.67-3.37,1.67-5.13-1.51,1.51-3.01,3.01-4.52,4.52h10.97c-1.51-1.51-3.02-3.01-4.53-4.52v1.02c0,1.65.7,2.85,1.68,4.11,1.89,2.46,6.5,2.07,8.29-.24,1.18-1.54,1.49-3.07,1.49-4.94v-2.36c0-2.47-2.06-4.52-4.52-4.52h-.02c-2.47,0-4.53,2.05-4.53,4.52s2.06,4.52,4.53,4.52h.02c-1.52-1.51-3.02-3.01-4.52-4.52v3.4c0-1.35,1.77-4.13,3.91-3.23.66.39,1.33.78,2,1.16-1.22-.94.73,3.34.73,1.74v-.66c0-2.47-2.06-4.53-4.52-4.53h-10.97c-2.46,0-4.53,2.06-4.53,4.53v1.02c.27-2.21,1.57-3.3,3.91-3.26.66.39,1.33.78,2,1.16-1.22-.94.73,3.33.73,1.83v-3.16c-1.51,1.51-3.02,3.01-4.52,4.52h15.76c2.46,0,4.52-2.06,4.52-4.52s-2.06-4.52-4.52-4.52Z"/>
    </g>
    <path class="st9" d="M52.32,268.4h-15.76v3.49c0,.66.53,1.21,1.2,1.21s1.2-.54,1.2-1.21v-1.08h10.97v1.08c0,.66.54,1.21,1.2,1.21s1.21-.54,1.21-1.21v-3.49h-.02Z"/>
    <g>
      <path class="st13" d="M37.76,272.55c-.67,0-1.2-.54-1.2-1.21v.55c0,.66.53,1.21,1.2,1.21s1.2-.54,1.2-1.21v-.55c0,.67-.54,1.21-1.2,1.21Z"/>
      <path class="st13" d="M51.14,272.55c-.67,0-1.2-.54-1.2-1.21v.55c0,.66.54,1.21,1.2,1.21s1.21-.54,1.21-1.21v-.55c0,.67-.55,1.21-1.21,1.21Z"/>
      <rect class="st13" x="38.96" y="270.26" width="10.97" height=".55"/>
    </g>
    <polygon class="st10" points="52.32 268.4 49.93 268.4 38.96 268.4 37.76 268.4 36.56 268.4 36.56 268.88 37.76 268.88 38.96 268.88 49.93 268.88 52.32 268.88 52.34 268.88 52.34 268.4 52.32 268.4"/>
  </g>
  <g>
    <g>
      <g>
        <g>
          <g>
            <path class="st1" d="M73.98,264.05s-25.84,34.65-13.36,41.05c12.48,6.41,27.53-25.44,27.53-25.44l-14.17-15.62Z"/>
            <path d="M70.91,262.26c-2.98,4-5.7,8.23-8.25,12.52-2.13,3.61-4.11,7.32-5.74,11.18-1.62,3.82-2.99,7.73-3.24,11.9-.23,3.81,1.09,7.41,4.19,9.72,3.53,2.62,8.03,2.21,11.83.58,3.77-1.61,6.92-4.81,9.54-7.88,2.87-3.38,5.38-7.06,7.66-10.85,1.55-2.59,3.03-5.23,4.33-7.96.72-1.52.59-3.04-.56-4.31-4.72-5.21-9.45-10.41-14.17-15.62-1.3-1.43-3.71-1.32-5.03,0-1.42,1.42-1.3,3.59,0,5.03,4.72,5.21,9.45,10.41,14.17,15.62-.18-1.44-.38-2.87-.55-4.3-2.42,5.1-5.39,10.03-8.71,14.59-.31.42-.62.84-.93,1.26.55-.73.02-.02-.09.11-.16.2-.33.4-.49.61-.7.86-1.44,1.71-2.2,2.52-.68.73-1.38,1.43-2.12,2.1-.35.32-.72.63-1.08.94-.16.12-.81.62-.02.01-.24.18-.48.36-.73.53-.71.5-1.46.93-2.23,1.31-.21.1-.91.38.1-.03-.18.08-.38.14-.57.21-.43.15-.87.25-1.32.35-.26.05-.96.12.2-.02-.19.02-.38.03-.57.04-.38.01-.75,0-1.12-.05,1.27.13-.03-.05-.35-.14-.19-.06-.38-.13-.56-.2,1.05.4.21.08-.03-.05-.29-.16-1.22-.86-.21-.06-.24-.19-.46-.41-.66-.63-.55-.6.49.77-.07-.12-.07-.13-.14-.26-.22-.4-.4-.76.27.7.05.15-.11-.3-.19-.6-.27-.9-.04-.16-.06-.32-.1-.48-.12-.66.11.96.04.29-.08-.77-.07-1.55-.01-2.33.02-.19.03-.38.06-.57.08-.74-.13.91-.02.16.06-.4.14-.8.22-1.21.19-.92.44-1.83.71-2.74.28-.89.59-1.77.92-2.64.17-.45.35-.9.53-1.35.32-.79-.31.73.03-.06.13-.3.26-.6.4-.91,3.06-6.86,7.1-13.32,11.37-19.48.67-.96,1.34-1.92,2.04-2.85,1.15-1.56.25-3.97-1.28-4.86-1.81-1.07-3.71-.28-4.87,1.27Z"/>
          </g>
          <path class="st7" d="M64.38,286.7l9.18,5.04,4.21-18.59-3.45-3.84s-3.46,4.87-5.07,7.76c-1.61,2.88-4.87,9.63-4.87,9.63Z"/>
          <g>
            <rect class="st2" x="63.61" y="282.51" width="6.91" height="19.73" transform="translate(-220.44 206.8) rotate(-60.51)"/>
            <path d="M74.25,301.34l-18.58-10.51,4.2-7.42,18.57,10.51-4.2,7.42ZM57.87,290.23l15.77,8.92,2.61-4.61-15.77-8.92-2.61,4.61Z"/>
          </g>
        </g>
        <polygon class="st16" points="74.32 269.31 68.83 277.75 64.39 286.59 71.79 290.83 66.54 285.77 70.04 278.62 75.33 270.48 74.32 269.31"/>
      </g>
      <g>
        <g>
          <g>
            <path class="st1" d="M148.29,264.05s25.85,34.65,13.36,41.05c-12.48,6.41-27.53-25.44-27.53-25.44l14.17-15.62Z"/>
            <path d="M145.22,265.85c2.98,4.01,5.71,8.23,8.25,12.52,1.07,1.8,2.1,3.63,3.06,5.49.47.91.92,1.82,1.36,2.73.22.46.43.91.64,1.37.1.23.2.46.31.68.08.18.53,1.24.12.28.75,1.79,1.41,3.62,1.91,5.49.23.81.4,1.64.54,2.47.04.25.14.99-.01-.16.02.19.04.38.06.57.04.44.06.86.06,1.29,0,.35-.02.7-.04,1.05-.07.89.18-.9-.04.2-.06.31-.16.61-.25.91-.08.26-.35.83.13-.28-.08.19-.18.36-.27.54-.07.13-.16.25-.24.38-.34.52.59-.72.2-.24-.2.23-.42.44-.65.64-.47.42.75-.54.23-.18-.13.1-.27.17-.41.26-.16.09-.31.17-.48.25-.56.28.84-.3-.07.01-.36.13-.74.21-1.11.28,1.25-.23-.01-.02-.36-.02-.19,0-.38-.01-.57-.02-.73-.05.91.15.2.03-.45-.07-.89-.19-1.32-.32-.18-.06-.38-.13-.56-.2-.7-.26.79.35.1.04-.38-.17-.76-.37-1.12-.57-.38-.21-.75-.45-1.11-.69-.19-.12-.37-.25-.56-.39-.81-.57.31.26-.19-.14-1.61-1.28-3.06-2.77-4.42-4.32-.69-.78-1.34-1.59-1.99-2.41.57.72.02.01-.08-.11-.16-.21-.31-.42-.47-.63-.36-.49-.71-.98-1.06-1.48-2.16-3.08-4.1-6.31-5.89-9.62-.66-1.22-1.31-2.45-1.91-3.71-.18,1.43-.37,2.87-.55,4.3,4.72-5.2,9.44-10.41,14.17-15.62,1.29-1.44,1.41-3.61,0-5.03-1.32-1.32-3.72-1.43-5.03,0-4.72,5.21-9.44,10.41-14.17,15.62-1.15,1.27-1.27,2.79-.55,4.31,2.41,5.1,5.38,10.03,8.7,14.59,4.72,6.5,11.94,15.05,21.01,13.14,3.73-.79,6.69-3.77,7.52-7.47.82-3.69.01-7.6-1.14-11.13-2.54-7.83-6.88-15.11-11.36-21.96-1.42-2.16-2.87-4.3-4.42-6.38-1.16-1.55-3.06-2.34-4.87-1.27-1.53.89-2.44,3.3-1.28,4.86Z"/>
          </g>
          <path class="st7" d="M157.9,286.7l-9.18,5.04-4.22-18.59,3.45-3.84s3.46,4.87,5.07,7.76c1.6,2.88,4.87,9.63,4.87,9.63Z"/>
          <g>
            <rect class="st2" x="145.34" y="288.92" width="19.73" height="6.91" transform="translate(-123.83 114.3) rotate(-29.49)"/>
            <path d="M148.02,301.34l-4.2-7.42,18.58-10.51,4.19,7.42-18.57,10.51ZM146.02,294.53l2.61,4.61,15.77-8.92-2.61-4.61-15.77,8.92Z"/>
          </g>
        </g>
        <polygon class="st16" points="147.95 269.31 153.43 277.75 157.88 286.59 150.48 290.83 155.73 285.77 152.23 278.62 146.95 270.48 147.95 269.31"/>
      </g>
    </g>
    <g>
      <g>
        <path class="st1" d="M139.65,269.28h-57.02s-11.14,61.8-3.57,64.45c7.58,2.64,14.59-9.42,14.59-9.42h34.96s7.01,12.07,14.59,9.42c7.58-2.65-3.56-64.45-3.56-64.45Z"/>
        <path d="M139.65,265.41h-57.02c-1.61,0-3.44,1.17-3.74,2.84-2.18,12.1-3.96,24.31-5.24,36.54-.77,7.39-1.56,14.99-.92,22.42.21,2.51.51,5.53,1.99,7.67,2.97,4.3,9.04,3.52,13.05,1.18,3.8-2.22,7.02-6.02,9.23-9.79-1.11.64-2.23,1.28-3.35,1.92h34.96c-1.12-.63-2.23-1.28-3.35-1.92,1.71,2.93,4,5.73,6.62,7.89,3.91,3.23,10.22,5.74,14.65,1.96,2.08-1.77,2.51-4.97,2.85-7.49.41-3.12.39-6.29.29-9.43-.25-8.36-1.23-16.7-2.31-24.99-.95-7.23-2.03-14.44-3.23-21.63-.24-1.44-.49-2.89-.75-4.33-.37-2.08-2.87-3.23-4.77-2.71-2.18.6-3.08,2.69-2.71,4.77.68,3.81,1.3,7.61,1.89,11.43.6,3.82,1.16,7.65,1.68,11.49.12.89-.13-.93,0-.03.03.25.06.5.1.76.07.51.13,1.02.2,1.52.14,1.12.28,2.23.42,3.34.26,2.16.5,4.32.73,6.48.75,7.31,1.54,14.87.84,22.22-.03.31-.07.63-.11.94.2-1.54.05-.38-.01-.02-.09.55-.22,1.1-.37,1.63-.06.21-.14.42-.21.63-.26.71.51-1.08.11-.29-.08.16-.16.31-.26.46-.36.54.84-.92.2-.31-.45.44,1.02-.68.39-.31,1.08-.62.69-.25-.14-.05-.92.22.88-.06-.05,0-.27.02-.54,0-.81,0-.92-.04.9.17-.02-.01-.35-.07-.69-.18-1.03-.29-.88-.29.78.37-.07-.02-.25-.12-.49-.25-.73-.39-.49-.27-.95-.58-1.4-.91.81.59.05.03-.1-.09-.21-.18-.43-.37-.63-.55-.48-.43-.92-.89-1.36-1.36-.36-.38-.7-.78-1.04-1.17-.16-.19-.31-.38-.47-.57-.53-.67.55.71.05.05-.46-.6-.89-1.23-1.32-1.87-.98-1.51-2.17-2.6-4.12-2.6h-32.71c-1.98,0-4.04-.13-5.24,1.93-.55.95-1.19,1.85-1.86,2.72.77-1.01-.25.3-.45.53-.34.4-.69.79-1.05,1.17-.38.4-.78.79-1.18,1.17-.21.19-.42.37-.64.55-.14.12-.29.24-.44.35.42-.32.46-.35.11-.1-.45.33-.92.61-1.41.88-.24.13-.49.25-.73.36.94-.44.12-.07-.09,0-.25.08-.51.15-.77.21-.91.21.9-.07-.02.01-.27.02-.53.02-.8,0-.44-.04-.36-.02.22.05-.18-.03-.37-.07-.55-.12-.21-.05-.41-.12-.6-.19,1.3.49.99.45.68.28-.54-.31.94.82.4.29-.56-.54.64.91.26.36-.12-.17-.22-.36-.31-.55-.32-.65.43,1.15.12.27-.08-.21-.14-.43-.21-.65-.16-.54-.27-1.1-.36-1.66-.02-.14-.05-.29-.06-.43-.1-.65.14,1.1.06.43-.04-.31-.07-.63-.1-.94-.08-.75-.12-1.51-.15-2.26-.34-7.8.52-15.69,1.39-23.43.24-2.16.51-4.3.78-6.45.07-.51.14-1.01.21-1.52.03-.25.07-.5.1-.76-.16,1.16-.03.27,0,.03.14-1.06.29-2.12.44-3.18.51-3.6,1.06-7.19,1.63-10.78.46-2.91.94-5.81,1.46-8.71-1.24.95-2.49,1.9-3.74,2.85h57.02c5,0,5-7.75,0-7.75Z"/>
      </g>
      <g>
        <path class="st2" d="M186.51,339.12c0,1.7-35.99,3.08-80.39,3.08s-80.4-1.38-80.4-3.08,35.99-3.08,80.4-3.08,80.39,1.38,80.39,3.08Z"/>
        <path d="M106.12,343.41c-21.48,0-41.69-.32-56.9-.91-24.71-.95-24.71-1.92-24.71-3.38s0-2.44,24.71-3.39c15.2-.58,35.41-.9,56.9-.9s41.69.32,56.89.9c24.71.95,24.71,1.92,24.71,3.39s0,2.44-24.71,3.38c-15.2.58-35.4.91-56.89.91ZM31.98,339.12c11.15,1,38.1,1.87,74.14,1.87s62.99-.87,74.14-1.87c-11.15-1.01-38.09-1.88-74.14-1.88s-63,.87-74.14,1.88Z"/>
      </g>
      <g>
        <g>
          <polygon class="st17" points="137.64 266.5 111.25 266.5 111.03 266.5 84.62 266.5 73.18 318.45 149.09 318.45 137.64 266.5"/>
          <path d="M137.64,259.39h-53.02c-3.04,0-6.18,2.15-6.85,5.22-2.72,12.37-5.45,24.74-8.17,37.11-1.09,4.95-2.18,9.89-3.27,14.83-.99,4.48,2.05,9,6.85,9h75.91c4.81,0,7.84-4.52,6.85-9-2.73-12.37-5.45-24.74-8.17-37.12-1.09-4.94-2.18-9.89-3.27-14.83-.83-3.79-5.16-5.95-8.75-4.96-3.87,1.06-5.8,4.96-4.96,8.74,2.73,12.37,5.45,24.74,8.18,37.11,1.09,4.95,2.18,9.89,3.26,14.83,2.29-3,4.57-6,6.86-9h-75.91c2.28,3,4.57,6,6.86,9,2.72-12.37,5.45-24.75,8.17-37.11,1.09-4.95,2.18-9.89,3.26-14.83-2.29,1.74-4.57,3.48-6.85,5.21h53.02c3.88,0,7.11-3.23,7.11-7.11s-3.23-7.11-7.11-7.11Z"/>
        </g>
        <polygon class="st7" points="137.64 266.5 111.25 266.5 111.03 266.5 84.62 266.5 73.18 318.45 149.09 318.45 137.64 266.5"/>
      </g>
    </g>
    <polygon class="st7" points="146.63 307.27 75.64 307.27 73.18 318.45 149.09 318.45 146.63 307.27"/>
    <polygon class="st11" points="73.6 316.55 73.18 318.45 149.09 318.45 148.67 316.55 73.6 316.55"/>
    <polygon class="st16" points="147.66 311.92 146.63 307.27 75.64 307.27 74.62 311.92 147.66 311.92"/>
    <g>
      <rect class="st12" x="74.86" y="303.61" width="72.54" height="3.65"/>
      <path d="M147.41,304.68h-72.54c.86.87,1.72,1.73,2.59,2.59v-3.65c-.87.86-1.73,1.72-2.59,2.58h72.54c-.86-.86-1.73-1.73-2.59-2.58v3.65c0,3.34,5.17,3.34,5.17,0v-3.65c0-1.41-1.18-2.59-2.59-2.59h-72.54c-1.41,0-2.59,1.18-2.59,2.59v3.65c0,1.41,1.18,2.59,2.59,2.59h72.54c3.33,0,3.33-5.17,0-5.17Z"/>
    </g>
  </g>
  <g>
    <rect class="st2" x="107.91" y="281.07" width="6.46" height="24.17"/>
    <path d="M115.17,306.05h-8.07v-25.78h8.07v25.78ZM108.71,304.44h4.85v-22.56h-4.85v22.56Z"/>
  </g>
  <g>
    <g>
      <path class="st15" d="M124.92,292.36c0,1.06-.86,1.92-1.92,1.92s-1.92-.86-1.92-1.92.86-1.92,1.92-1.92,1.92.86,1.92,1.92Z"/>
      <path d="M121.04,292.36c.13-.68.15-.82.04-.42.1-.4.3-.75.6-1.03-.29.27-.17.2.32-.24.2-.07.38-.15.57-.22-.4.1-.26.09.42-.04,1.11-.06,1.9.94,1.96,1.96.06,1.1-.94,1.9-1.96,1.96-1.11.06-1.9-.93-1.96-1.96.12,2.11,1.68,3.88,3.88,3.88,2.03,0,3.99-1.76,3.87-3.88-.18-3.28-2.52-5.62-5.8-5.8-1.54-.08-2.89.7-4.03,1.63-1.21.98-1.69,2.69-1.77,4.17-.08,1.54.7,2.89,1.63,4.03.98,1.21,2.68,1.69,4.17,1.77,1.54.09,2.89-.7,4.02-1.63,1.21-.99,1.7-2.68,1.77-4.17.12-2.11-1.85-3.88-3.87-3.88-2.2,0-3.76,1.77-3.88,3.88Z"/>
    </g>
    <path class="st23" d="M124.92,292.36c0,1.06-.86,1.92-1.92,1.92s-1.92-.86-1.92-1.92.86-1.92,1.92-1.92,1.92.86,1.92,1.92Z"/>
    <path class="st3" d="M121.42,292.36c0-1,.77-1.83,1.75-1.91-.05,0-.12,0-.17,0-1.06,0-1.92.86-1.92,1.92s.86,1.92,1.92,1.92c.06,0,.12,0,.17,0-.98-.09-1.75-.91-1.75-1.91Z"/>
    <path class="st8" d="M124.57,292.36c0-1-.77-1.83-1.74-1.91.05,0,.12,0,.17,0,1.06,0,1.92.86,1.92,1.92s-.86,1.92-1.92,1.92c-.06,0-.12,0-.17,0,.98-.09,1.74-.91,1.74-1.91Z"/>
  </g>
  <polygon class="st16" points="82.59 275.69 77 301.07 107.67 301.07 80.01 298.95 84.6 276.55 82.59 275.69"/>
  <polygon class="st16" points="139.62 275.69 145.22 301.07 114.55 301.07 142.21 298.95 137.62 276.55 139.62 275.69"/>
  <g>
    <g>
      <path class="st17" d="M80.23,262.11l3.2,7.06,5.04-1.54-1.35,5.68s2.81,2.54,7.8,4.15c4.99,1.6,12.13,1.02,12.13,1.02l-21.73-20.99-5.1,4.63Z"/>
      <path d="M75.21,265.04c1.07,2.36,2.14,4.71,3.2,7.06,1.04,2.3,4.27,3.37,6.57,2.67,1.69-.51,3.36-1.03,5.05-1.54-2.38-2.38-4.77-4.77-7.16-7.15-.45,1.89-.9,3.79-1.35,5.68-.47,1.95-.07,4.27,1.5,5.66,6.47,5.77,15.62,7.54,24.05,6.87,2.1-.17,3.93-1,5.02-2.88,1.3-2.23.96-5.24-.91-7.05-7.24-7-14.48-14-21.73-20.99-2.36-2.28-5.85-2.16-8.23,0-1.7,1.54-3.39,3.09-5.1,4.63-2.35,2.13-2.16,6.07,0,8.23,2.32,2.32,5.88,2.12,8.22,0,1.71-1.55,3.4-3.08,5.1-4.63h-8.23c7.25,7,14.49,14,21.73,21,1.37-3.31,2.74-6.62,4.11-9.93-1.02.08-2.05.1-3.07.11-1.03,0-2.05-.04-3.07-.1-.51-.03-1-.09-1.51-.13-.64-.07-.51-.06.4.06-.39-.05-.76-.12-1.14-.19-1.2-.22-2.36-.59-3.5-1.01-.61-.25-.55-.21.2.1-.25-.11-.5-.22-.74-.34-.55-.25-1.08-.54-1.61-.84-.71-.39-1.39-.83-2.05-1.3-1.01-.72,1.21.97.45.36-.06-.05-.13-.11-.19-.16.5,1.88.99,3.77,1.49,5.66.46-1.89.91-3.79,1.36-5.69.99-4.17-2.76-8.49-7.15-7.15-1.68.51-3.36,1.02-5.05,1.54,2.19.89,4.38,1.78,6.57,2.67-1.06-2.35-2.13-4.71-3.2-7.06-1.31-2.89-5.44-3.56-7.96-2.09-2.93,1.72-3.39,5.07-2.08,7.96Z"/>
    </g>
    <path class="st7" d="M80.23,262.11l3.2,7.06,5.04-1.54-1.35,5.68s2.81,2.54,7.8,4.15c4.99,1.6,12.13,1.02,12.13,1.02l-21.73-20.99-5.1,4.63Z"/>
    <path class="st11" d="M96.54,275.84c-4.99-1.61-7.81-4.14-7.81-4.14l1.36-5.68-5.04,1.54-3.16-6.96-1.66,1.51,3.2,7.06,5.04-1.54-1.35,5.68s2.81,2.54,7.8,4.15c4.99,1.6,12.13,1.02,12.13,1.02l-1.56-1.52c-2.53,0-6.09-.2-8.95-1.12Z"/>
  </g>
  <path class="st16" d="M83.91,258.9l7.31,7.06c.17.39.35.77.53,1.15,2.26,4.54,6.14,7.84,10.64,9.64l1.89,1.82c1.66-.01,2.78-.1,2.78-.1l-3.25-3.14c-4.5-1.8-8.38-5.1-10.64-9.63-.19-.38-.37-.77-.54-1.15l-7.31-7.06-5.1,4.63.04.09,3.64-3.29Z"/>
  <path class="st0" d="M105.48,276.96c-.89,0-1.92-.03-2.99-.1l1.78,1.72h.07c.39,0,.74-.01,1.06-.02h0c.75-.02,1.29-.05,1.52-.07h.02s.03,0,.05,0h.02s.02,0,.02,0h.02l-1.57-1.52Z"/>
  <g>
    <g>
      <g>
        <path class="st17" d="M143.24,262.11l-3.2,7.06-5.05-1.54,1.35,5.68s-2.81,2.54-7.81,4.15c-4.99,1.6-12.13,1.02-12.13,1.02l21.73-20.99,5.1,4.63Z"/>
        <path d="M138.22,259.17c-1.06,2.35-2.13,4.71-3.2,7.06,2.19-.89,4.37-1.78,6.56-2.67-1.68-.52-3.37-1.03-5.05-1.54-4.39-1.35-8.15,2.98-7.15,7.15.45,1.9.9,3.79,1.36,5.69.49-1.89.99-3.77,1.49-5.66-.04.04-.08.07-.12.1-.84.71,1.24-.93.54-.41-.62.46-1.26.87-1.92,1.26-.4.24-.8.45-1.21.66-.32.16-2.31,1.02-.81.41-1.15.47-2.33.83-3.53,1.09-.5.11-1.01.19-1.52.27,1.85-.28-.32.01-.74.05-1.04.09-2.09.12-3.14.13-1.13,0-2.26-.02-3.38-.11,1.37,3.31,2.74,6.62,4.11,9.93,7.24-7,14.48-14,21.73-21h-8.23c1.71,1.55,3.4,3.08,5.1,4.63,2.35,2.12,5.9,2.32,8.22,0,2.16-2.16,2.35-6.1,0-8.23-1.7-1.54-3.4-3.08-5.1-4.63-2.38-2.16-5.87-2.28-8.23,0-7.25,7-14.48,13.99-21.73,20.99-1.48,1.44-2.04,3.68-1.5,5.66.73,2.65,3,4.06,5.61,4.27,8.43.67,17.58-1.1,24.05-6.87,1.56-1.39,1.96-3.71,1.5-5.66-.45-1.89-.9-3.79-1.35-5.68-2.38,2.38-4.77,4.77-7.16,7.15,1.68.51,3.36,1.03,5.04,1.54,2.29.7,5.53-.38,6.57-2.67,1.06-2.35,2.13-4.71,3.2-7.06,1.31-2.89.85-6.23-2.09-7.96-2.52-1.48-6.65-.8-7.96,2.09Z"/>
      </g>
      <path class="st7" d="M143.24,262.11l-3.2,7.06-5.05-1.54,1.35,5.68s-2.81,2.54-7.81,4.15c-4.99,1.6-12.13,1.02-12.13,1.02l21.73-20.99,5.1,4.63Z"/>
      <path class="st11" d="M126.94,275.84c4.99-1.61,7.81-4.14,7.81-4.14l-1.35-5.68,5.04,1.54,3.16-6.96,1.66,1.51-3.2,7.06-5.05-1.54,1.35,5.68s-2.81,2.54-7.81,4.15c-4.99,1.6-12.13,1.02-12.13,1.02l1.56-1.52c2.53,0,6.09-.2,8.96-1.12Z"/>
    </g>
    <path class="st16" d="M139.57,258.9l-7.31,7.06c-.17.39-.34.77-.53,1.15-2.27,4.54-6.14,7.84-10.65,9.64l-1.88,1.82c-1.67-.01-2.79-.1-2.79-.1l3.24-3.14c4.5-1.8,8.38-5.1,10.64-9.63.19-.38.37-.77.54-1.15l7.31-7.06,5.1,4.63-.04.09-3.64-3.29Z"/>
    <path class="st0" d="M117.99,276.96c.89,0,1.92-.03,3-.1l-1.78,1.72h-.08c-.38,0-.74-.01-1.06-.02h-.01c-.75-.02-1.28-.05-1.52-.07h-.02s-.03,0-.05,0h-.03s-.02,0-.02,0h-.01l1.56-1.52Z"/>
  </g>
  <g>
    <g>
      <path class="st1" d="M129.51,256c0,9.8-7.94,17.74-17.74,17.74s-17.74-7.94-17.74-17.74,7.94-17.74,17.74-17.74,17.74,7.94,17.74,17.74Z"/>
      <path d="M126.28,256c-.05,5.18-2.74,9.87-7.19,12.53-4.49,2.69-10.15,2.58-14.65,0-4.47-2.56-7.13-7.42-7.18-12.53-.05-5.15,2.8-9.9,7.18-12.53,4.49-2.69,10.15-2.57,14.65,0,4.48,2.56,7.13,7.42,7.19,12.53.04,4.16,6.51,4.17,6.46,0-.06-6.26-2.85-12.35-7.78-16.28-5.18-4.12-11.82-5.58-18.27-4.07-5.97,1.39-11.21,5.76-13.83,11.27-2.85,6-2.65,12.86.3,18.77,4.3,8.63,14.46,12.81,23.67,10.66,9.31-2.17,15.81-10.95,15.9-20.35.05-4.17-6.42-4.16-6.46,0Z"/>
    </g>
    <g>
      <g>
        <g>
          <path class="st17" d="M40.85,200.33c0,8.57-6.94,15.52-15.51,15.52s-15.51-6.95-15.51-15.52,6.95-15.51,15.51-15.51,15.51,6.95,15.51,15.51Z"/>
          <path d="M31.8,200.33c0,.72-.05,1.43-.14,2.13.1-.8.21-1.6.32-2.4-.21,1.38-.57,2.7-1.11,3.98.31-.72.61-1.44.91-2.17-.55,1.25-1.23,2.4-2.06,3.48.47-.61.94-1.22,1.41-1.83-.77.97-1.64,1.83-2.6,2.61.61-.47,1.22-.94,1.83-1.42-1.08.83-2.23,1.52-3.48,2.07.73-.31,1.44-.61,2.16-.91-1.28.54-2.6.9-3.98,1.1.81-.1,1.6-.21,2.41-.32-1.43.18-2.84.18-4.27,0,.81.11,1.61.22,2.41.32-1.38-.2-2.7-.56-3.99-1.1.72.3,1.44.61,2.16.91-1.24-.55-2.39-1.24-3.47-2.07.61.47,1.22.95,1.84,1.42-.97-.77-1.84-1.64-2.61-2.61.47.62.95,1.22,1.41,1.83-.83-1.08-1.51-2.23-2.06-3.48.3.73.6,1.44.91,2.17-.54-1.29-.9-2.6-1.11-3.98.11.8.21,1.61.33,2.4-.18-1.42-.18-2.84,0-4.27-.11.8-.22,1.61-.33,2.41.21-1.38.57-2.7,1.11-3.98-.3.72-.61,1.44-.91,2.16.55-1.24,1.23-2.39,2.06-3.47-.47.61-.94,1.22-1.41,1.83.77-.96,1.64-1.83,2.61-2.6-.61.47-1.22.94-1.84,1.41,1.08-.83,2.23-1.52,3.47-2.06-.72.3-1.44.61-2.16.91,1.29-.54,2.61-.9,3.99-1.11-.8.1-1.6.22-2.41.32,1.43-.18,2.85-.18,4.27,0-.8-.11-1.6-.22-2.41-.32,1.38.21,2.7.57,3.98,1.11-.72-.31-1.44-.61-2.16-.91,1.25.55,2.4,1.23,3.48,2.06-.61-.47-1.22-.94-1.83-1.41.97.77,1.83,1.64,2.6,2.6-.47-.61-.94-1.22-1.41-1.83.83,1.08,1.52,2.23,2.06,3.47-.3-.72-.61-1.44-.91-2.16.54,1.29.9,2.6,1.11,3.98-.1-.8-.22-1.61-.32-2.41.09.71.13,1.42.14,2.14.06,4.93,4.08,9.04,9.05,9.04s9.1-4.11,9.05-9.04c-.1-8.64-4.54-16.34-11.78-20.97-7.36-4.72-16.75-4.45-24.38-.67-3.72,1.85-6.64,4.94-9,8.29-2.47,3.52-3.46,7.72-3.89,11.91-.45,4.34.83,8.52,2.56,12.42,1.7,3.85,4.79,6.71,8.05,9.22,3.57,2.75,8.07,3.83,12.46,4.28,4.49.47,9.05-.88,13.03-2.85,8.01-3.97,12.86-12.88,12.95-21.64.06-4.93-4.16-9.05-9.05-9.05s-8.99,4.12-9.05,9.05Z"/>
        </g>
        <path class="st1" d="M40.85,200.33c0,8.57-6.94,15.52-15.51,15.52s-15.51-6.95-15.51-15.52,6.95-15.51,15.51-15.51,15.51,6.95,15.51,15.51Z"/>
        <path class="st19" d="M36.85,199.9c0,6.28-5.09,11.36-11.37,11.36s-11.37-5.09-11.37-11.36,5.09-11.37,11.37-11.37,11.37,5.09,11.37,11.37Z"/>
      </g>
      <g>
        <g>
          <path class="st17" d="M212.45,200.33c0,8.57-6.94,15.52-15.51,15.52s-15.51-6.95-15.51-15.52,6.94-15.51,15.51-15.51,15.51,6.95,15.51,15.51Z"/>
          <path d="M203.4,200.33c0,.72-.06,1.43-.15,2.13.11-.8.22-1.6.32-2.4-.2,1.38-.57,2.7-1.1,3.98.3-.72.61-1.44.91-2.17-.54,1.25-1.23,2.4-2.06,3.48.47-.61.94-1.22,1.41-1.83-.77.97-1.64,1.83-2.6,2.61.61-.47,1.22-.94,1.82-1.42-1.07.83-2.22,1.52-3.47,2.07.73-.31,1.44-.61,2.17-.91-1.29.54-2.6.9-3.98,1.1.8-.1,1.61-.21,2.41-.32-1.43.18-2.85.18-4.27,0,.8.11,1.6.22,2.41.32-1.38-.2-2.7-.56-3.98-1.1.72.3,1.44.61,2.16.91-1.24-.55-2.4-1.24-3.47-2.07.61.47,1.22.95,1.84,1.42-.96-.77-1.83-1.64-2.6-2.61.47.62.94,1.22,1.41,1.83-.83-1.08-1.52-2.23-2.07-3.48.3.73.61,1.44.91,2.17-.54-1.29-.91-2.6-1.11-3.98.1.8.21,1.61.32,2.4-.18-1.42-.18-2.84,0-4.27-.11.8-.22,1.61-.32,2.41.2-1.38.57-2.7,1.11-3.98-.31.72-.61,1.44-.91,2.16.55-1.24,1.24-2.39,2.07-3.47-.47.61-.95,1.22-1.41,1.83.77-.96,1.64-1.83,2.6-2.6-.61.47-1.23.94-1.84,1.41,1.08-.83,2.23-1.52,3.47-2.06-.72.3-1.44.61-2.16.91,1.28-.54,2.6-.9,3.98-1.11-.8.1-1.61.22-2.41.32,1.43-.18,2.84-.18,4.27,0-.8-.11-1.61-.22-2.41-.32,1.38.21,2.69.57,3.98,1.11-.72-.31-1.44-.61-2.17-.91,1.25.55,2.4,1.23,3.47,2.06-.61-.47-1.22-.94-1.82-1.41.96.77,1.82,1.64,2.6,2.6-.46-.61-.93-1.22-1.41-1.83.83,1.08,1.52,2.23,2.06,3.47-.3-.72-.6-1.44-.91-2.16.54,1.29.9,2.6,1.1,3.98-.1-.8-.21-1.61-.32-2.41.09.71.14,1.42.15,2.14.06,4.93,4.07,9.04,9.04,9.04s9.11-4.11,9.04-9.04c-.1-8.64-4.54-16.34-11.77-20.97-7.37-4.72-16.75-4.45-24.39-.67-3.72,1.85-6.64,4.94-9,8.29-2.47,3.52-3.46,7.72-3.89,11.91-.44,4.34.84,8.52,2.56,12.42,1.71,3.85,4.79,6.71,8.05,9.22,3.57,2.75,8.07,3.83,12.46,4.28,4.49.47,9.05-.88,13.04-2.85,8-3.97,12.85-12.88,12.95-21.64.06-4.93-4.15-9.05-9.04-9.05s-8.99,4.12-9.04,9.05Z"/>
        </g>
        <path class="st1" d="M212.45,200.33c0,8.57-6.94,15.52-15.51,15.52s-15.51-6.95-15.51-15.52,6.94-15.51,15.51-15.51,15.51,6.95,15.51,15.51Z"/>
        <path class="st19" d="M208.45,199.9c0,6.28-5.09,11.36-11.37,11.36s-11.37-5.09-11.37-11.36,5.09-11.37,11.37-11.37,11.37,5.09,11.37,11.37Z"/>
      </g>
    </g>
    <g>
      <g>
        <path class="st17" d="M23.15,119.98c-.32,12.55,0,72.38,0,72.38,0,33.7,18.89,64.95,89.28,64.66,69.66-.29,86.15-30.96,86.15-64.66v-72.38H23.15Z"/>
        <path d="M14.11,119.98c-.4,16.04-.15,32.11-.1,48.15.02,7.03.04,14.06.08,21.09.03,5.64.31,11.18,1.1,16.79,1.11,7.87,3.7,15.57,7.55,22.53,4.46,8.04,10.82,14.59,18.18,20.01,8.19,6.02,17.97,9.96,27.74,12.59,13.14,3.54,26.97,4.77,40.54,4.92,14.05.15,28.3-.88,42.01-4.06,10-2.33,20.02-6.08,28.56-11.85,7.54-5.1,13.97-11.6,18.62-19.46,4.01-6.78,6.62-14.47,7.89-22.23,1.84-11.27,1.36-22.72,1.36-34.1v-54.37c0-4.93-4.12-9.04-9.05-9.04H23.15c-4.93,0-9.04,4.12-9.04,9.04s4.11,9.05,9.04,9.05h175.43c-3.01-3.01-6.03-6.03-9.04-9.05v71.85c0,4.1-.21,8.19-.74,12.26.1-.8.21-1.6.32-2.4-.75,5.51-2.11,10.93-4.27,16.05.31-.72.61-1.44.91-2.16-1.68,3.93-3.82,7.65-6.43,11.04.48-.61.94-1.22,1.42-1.83-2.65,3.42-5.73,6.45-9.14,9.11.61-.47,1.22-.95,1.83-1.41-4.39,3.38-9.25,6.07-14.35,8.23.72-.3,1.44-.61,2.16-.91-8.57,3.59-17.67,5.67-26.86,6.92.81-.11,1.61-.22,2.41-.32-16.5,2.21-33.58,2.23-50.08.04.8.11,1.6.22,2.4.32-9.46-1.29-18.85-3.44-27.65-7.16.72.3,1.44.61,2.16.91-5.25-2.23-10.24-5.02-14.76-8.49.61.47,1.22.94,1.83,1.41-3.59-2.78-6.82-5.98-9.61-9.58.47.61.94,1.23,1.41,1.84-2.68-3.5-4.89-7.32-6.62-11.38.3.72.61,1.44.91,2.16-2.15-5.09-3.51-10.46-4.24-15.93.11.8.22,1.61.32,2.4-.62-4.73-.67-9.48-.69-14.25-.04-7.21-.06-14.44-.09-21.67-.05-15.67-.29-31.38.1-47.05.13-4.93-4.21-9.04-9.05-9.04s-8.93,4.12-9.04,9.04Z"/>
      </g>
      <path class="st1" d="M23.82,105.62c-.31,12.54,0,86.73,0,86.73,0,33.7,18.89,64.95,89.27,64.66,69.67-.29,86.15-30.96,86.15-64.66v-86.73H23.82Z"/>
    </g>
    <g>
      <path class="st12" d="M58.81,224.72c.54,2.47-3.61,5.48-9.27,6.74-5.66,1.25-10.7.25-11.25-2.22-.55-2.47,3.61-5.49,9.27-6.74,5.67-1.24,10.7-.25,11.25,2.22Z"/>
      <path class="st12" d="M163.46,224.72c-.54,2.47,3.61,5.48,9.27,6.74,5.67,1.25,10.7.25,11.25-2.22.54-2.47-3.61-5.49-9.27-6.74-5.67-1.24-10.7-.25-11.25,2.22Z"/>
      <g>
        <g>
          <g>
            <path d="M75.55,213.7s-3.79-5-12.29-5-12.34,5-12.34,5c0,0-1.92-14.52,12.34-14.52s12.29,14.52,12.29,14.52Z"/>
            <path d="M76.34,213.24c-2.89-3.76-8.12-5.3-12.64-5.44-4.62-.14-10.43,1.42-13.41,5.26.52.21,1.03.43,1.54.64-.71-5.49,1.63-11.43,7.28-13.09,4.38-1.28,9.99-.58,13.08,3.03,1.91,2.24,2.53,5.41,2.55,8.28,0,.59-.01,1.19-.09,1.78-.16,1.15,1.66,1.14,1.81,0,.7-5.26-1.32-11.28-6.17-13.88-4.12-2.22-9.94-2.1-14.07,0-3.21,1.63-5.13,4.86-5.88,8.29-.39,1.79-.56,3.76-.32,5.6.08.66.99,1.35,1.54.64,2.56-3.29,7.3-4.61,11.26-4.73,3.18-.09,6.36.63,9.1,2.25.79.47,1.54,1.03,2.2,1.65.2.18.38.38.56.57.08.08.37.45.08.07.7.91,2.27.01,1.56-.91Z"/>
          </g>
          <path d="M53.39,203.23s-1.95.04-4.77-1.26c-2.82-1.32-4.86-4.67-4.86-4.67,0,0-1.17,4.57,2.38,7.25,2.59,1.95,5.59,2.38,5.59,2.38l1.65-3.69Z"/>
          <path d="M50.72,208.04s-1.65.32-4.25.3c-2.61-.02-5.34-1.86-5.34-1.86,0,0,.62,3.9,4.45,4.75,2.66.6,5.05.17,5.05.17l.1-3.37Z"/>
        </g>
        <g>
          <g>
            <path d="M145.39,213.7s3.79-5,12.3-5,12.33,5,12.33,5c0,0,1.92-14.52-12.33-14.52s-12.3,14.52-12.3,14.52Z"/>
            <path d="M146.17,214.15c-.28.36-.05.06.02-.02.16-.18.34-.36.51-.53.64-.62,1.35-1.15,2.1-1.62,2.66-1.68,5.78-2.35,8.88-2.38,4.06-.04,9.07,1.36,11.69,4.73.55.71,1.45.02,1.54-.64.68-5.27-1.34-11.28-6.19-13.88-4.13-2.22-9.93-2.1-14.08,0-3.2,1.63-5.12,4.86-5.85,8.29-.39,1.79-.55,3.76-.31,5.6.15,1.14,1.96,1.15,1.82,0-.73-5.49,1.6-11.43,7.24-13.09,4.39-1.29,10-.58,13.09,3.03,1.92,2.24,2.55,5.41,2.57,8.28,0,.59-.01,1.19-.09,1.78.52-.21,1.04-.43,1.55-.64-2.93-3.77-8.46-5.22-12.97-5.26-4.63-.04-10.14,1.62-13.08,5.45-.72.93.86,1.82,1.56.91Z"/>
          </g>
          <path d="M167.55,203.23s1.95.04,4.77-1.26c2.82-1.32,4.86-4.67,4.86-4.67,0,0,1.17,4.57-2.38,7.25-2.59,1.95-5.59,2.38-5.59,2.38l-1.65-3.69Z"/>
          <path d="M170.22,208.04s1.65.32,4.25.3c2.61-.02,5.34-1.86,5.34-1.86,0,0-.61,3.9-4.45,4.75-2.66.6-5.05.17-5.05.17l-.09-3.37Z"/>
        </g>
      </g>
      <path d="M96.96,235.03c.66,13.67,25.57,13.43,27.03.22.15-1.4-1.3-2.59-2.59-2.59-1.53,0-2.43,1.19-2.58,2.59.14-1.35-.04-.01-.17.39-.05.16-.11.31-.17.46.32-.8.04-.14-.04.03-.1.19-.21.38-.32.56-.08.14-.66.9-.22.35-.92,1.15-1.29,1.37-2.69,2.04.27-.13-.59.21-.71.25-.4.13-.81.23-1.22.32-.99.23-2.01.28-3.02.29-1.61.02-3.7-.31-4.81-.83-.31-.14-.6-.31-.88-.48-.09-.05-.85-.62-.41-.27-.23-.18-.42-.38-.63-.58-.09-.1-.18-.2-.27-.3-.44-.49.31.44-.07-.07-.27-.38-.49-.78-.7-1.19-.21-.43.22.59-.03-.07-.07-.21-.14-.41-.2-.62-.08-.28-.13-.56-.18-.84.16,1.04.06.57.05.32-.16-3.32-5.33-3.33-5.17,0h0Z"/>
    </g>
    <path class="st22" d="M183.76,179.5c-14.78-3.88-29.19-9.66-42.53-17.09-11.05-6.15-21.22-13.68-30.06-22.65-8.48,8.62-18.2,15.96-28.75,21.91-18.38,10.37-38.55,17.66-59.38,21.13.01.87.01,1.34.01,1.34,0,4.25.3,8.46.95,12.58,20.48-3.53,40.32-10.75,58.42-20.96,10.55-5.96,20.26-13.29,28.75-21.91,8.84,8.96,19.01,16.5,30.06,22.65,13.35,7.43,27.76,13.21,42.53,17.09,5.09,1.34,10.26,2.43,15.46,3.29.61-4.16.87-8.42.87-12.73v-1.2c-5.5-.88-10.96-2.03-16.33-3.44Z"/>
    <g>
      <path class="st14" d="M111.4,59c-.09,0-.18,0-.26,0s-.18,0-.27,0c-89.57,0-100.57,76.75-101.6,90.38-.39,5.15.16,32.47.16,32.47,0,.63,0,1.26.01,1.88,13.84-1.07,42.84-5.6,73.47-24.29,11.6-7.08,20.88-15.69,28.23-24.48,7.35,8.79,16.63,17.4,28.23,24.48,30.63,18.69,59.63,23.21,73.47,24.29.01-.62.02-1.25.02-1.88,0,0,.54-27.32.15-32.47-1.03-13.64-12.03-90.38-101.6-90.38Z"/>
      <path d="M111.4,49.95c-12.28.16-24.56,1.28-36.45,4.54-9.76,2.68-19.31,6.78-27.83,12.27-14.27,9.2-25.84,22.2-33.68,37.23-5.62,10.76-9.65,22.46-11.76,34.41-.69,3.88-1.31,7.84-1.5,11.78-.38,8.19-.05,16.44.08,24.63.04,2.98.09,5.95.14,8.92.09,4.64,4.06,9.45,9.04,9.05,25.68-2.02,50.81-10.05,73.21-22.69,13.21-7.46,25.12-17.09,34.87-28.73h-12.79c10.11,12.04,22.47,21.83,36.19,29.46,13.22,7.37,27.5,13.09,42.14,16.94,9.73,2.55,19.73,4.24,29.76,5.03,4.98.39,8.97-4.41,9.05-9.05.11-6.95.23-13.91.29-20.87.05-5.4.23-10.85-.38-16.22-1.2-10.46-3.61-20.71-7.48-30.51-5.87-14.87-14.43-28.65-26.32-39.49-15.18-13.84-34.52-22.14-54.77-25.04-7.25-1.04-14.5-1.63-21.82-1.64-4.93,0-9.04,4.12-9.04,9.05s4.11,9.04,9.04,9.04c6.15,0,12.29.37,18.39,1.17-.8-.1-1.6-.21-2.41-.32,9.36,1.26,18.56,3.58,27.27,7.25-.72-.31-1.44-.61-2.16-.91,6.92,2.94,13.46,6.71,19.41,11.31-.62-.47-1.23-.94-1.84-1.41,5.8,4.5,10.98,9.73,15.47,15.54-.47-.61-.94-1.22-1.41-1.82,5.17,6.72,9.39,14.13,12.69,21.94-.3-.72-.61-1.44-.92-2.16,3.87,9.17,6.57,18.88,7.9,28.74-.1-.8-.21-1.6-.32-2.4.58,4.33.62,8.64.62,13.01,0,7.77-.13,15.53-.28,23.29-.02.83-.02,1.66-.03,2.48,3.01-3.01,6.03-6.02,9.05-9.04-2.64-.21-5.27-.49-7.9-.85.8.11,1.6.21,2.4.32-14.71-2-29.12-6.04-42.8-11.79.72.3,1.44.6,2.16.91-11.55-4.89-22.81-10.89-32.77-18.55.61.47,1.22.94,1.83,1.42-6.7-5.19-12.78-11.1-18.23-17.59-2.97-3.55-9.81-3.55-12.79,0-5.45,6.49-11.53,12.4-18.22,17.59.61-.47,1.22-.95,1.84-1.42-9.96,7.66-21.22,13.66-32.77,18.55.72-.31,1.44-.61,2.16-.91-13.68,5.74-28.09,9.79-42.8,11.79.8-.11,1.6-.22,2.4-.32-2.63.35-5.26.64-7.9.85,3.02,3.02,6.03,6.03,9.05,9.04-.13-6.95-.23-13.91-.29-20.87-.04-5.4-.23-10.85.38-16.22.06-.57.14-1.12.21-1.69-.11.8-.22,1.61-.33,2.4,1.33-9.86,4.03-19.57,7.9-28.74-.31.72-.61,1.44-.91,2.16,3.31-7.8,7.52-15.22,12.7-21.94-.47.61-.94,1.21-1.41,1.82,4.49-5.8,9.67-11.04,15.47-15.54-.61.47-1.22.94-1.83,1.41,5.95-4.59,12.49-8.37,19.4-11.31-.72.3-1.44.6-2.16.91,8.71-3.67,17.92-5.99,27.27-7.25-.8.11-1.6.22-2.4.32,6.29-.83,12.58-1.09,18.91-1.17,4.94-.06,9.05-4.06,9.05-9.04s-4.11-9.11-9.05-9.05Z"/>
    </g>
    <path class="st18" d="M111.4,59c-.09,0-.18,0-.26,0s-.18,0-.27,0c-89.57,0-100.57,76.75-101.6,90.38-.39,5.15.16,32.47.16,32.47,0,.63,0,1.26.01,1.88,13.84-1.07,42.84-5.6,73.47-24.29,11.6-7.08,20.88-15.69,28.23-24.48,7.35,8.79,16.63,17.4,28.23,24.48,30.63,18.69,59.63,23.21,73.47,24.29.01-.62.02-1.25.02-1.88,0,0,.54-27.32.15-32.47-1.03-13.64-12.03-90.38-101.6-90.38Z"/>
    <path class="st24" d="M9.27,154.76c1.03-13.64,12.03-90.38,101.6-90.38.09,0,.18,0,.27,0s.17,0,.26,0c89.57,0,100.57,76.75,101.6,90.38.08,1.03.12,2.94.14,5.34.02-4.81,0-9-.14-10.72-1.03-13.64-12.03-90.38-101.6-90.38-.09,0-.18,0-.26,0s-.18,0-.27,0c-89.57,0-100.57,76.75-101.6,90.38-.13,1.72-.16,5.92-.13,10.74.01-2.41.06-4.33.13-5.36Z"/>
    <path class="st6" d="M140.13,154.42c-11.83-7.29-21.34-17.09-28.86-26.07-7.52,8.98-17.08,18.7-28.86,26.07-36.64,22.91-72.85,28.82-72.84,29.45,13.84-1.08,42.84-5.61,73.47-24.29,11.6-7.08,20.87-15.69,28.23-24.48,7.35,8.79,16.62,17.4,28.23,24.48,30.63,18.69,59.63,23.21,73.47,24.29.01-.63-30.46-3.31-72.84-29.45Z"/>
    <g>
      <g>
        <path class="st15" d="M111.2,94.35l61.97-20.63s-4.92-64.87-39.71-64.67c-14.22.08-13.79,12.51-22.27,12.51s-8.05-12.43-22.26-12.51c-34.79-.2-39.71,64.67-39.71,64.67l61.97,20.63h.01Z"/>
        <path d="M113.61,103.08c11.14-3.71,22.28-7.42,33.43-11.13,9.52-3.17,19.03-6.33,28.54-9.5,3.63-1.21,6.96-4.6,6.64-8.73-.8-10.58-2.9-21.29-6.02-31.41-5.2-16.88-14.66-35.42-32.81-40.93-7.27-2.21-15.37-1.82-22.2,1.54-2.77,1.36-5.22,3.56-7.26,5.85-1.45,1.62-2.74,3.41-4.46,4.76.61-.47,1.22-.94,1.83-1.41-.57.43-1.16.8-1.82,1.08.72-.31,1.43-.61,2.16-.92-.57.23-1.14.39-1.75.48.8-.11,1.6-.21,2.41-.32-.74.09-1.47.09-2.21,0,.8.11,1.6.21,2.41.32-.61-.09-1.18-.25-1.75-.48.72.31,1.44.61,2.16.92-.65-.29-1.26-.65-1.82-1.08.61.47,1.22.94,1.83,1.41-1.36-1.07-2.46-2.42-3.58-3.74-1.75-2.06-3.6-3.73-5.76-5.37C98.72.74,92.03-.43,86.08.14c-5.22.51-10.07,1.88-14.65,4.5-3.78,2.16-7.22,5.11-10.07,8.39-6.18,7.11-10.29,15.49-13.49,24.3-2.52,6.93-4.3,14.13-5.63,21.38-.91,4.96-1.69,9.99-2.06,15.02-.32,4.12,3.02,7.52,6.63,8.73,11.15,3.71,22.29,7.41,33.44,11.13,9.51,3.17,19.03,6.33,28.54,9.5-2.21-2.91-4.42-5.82-6.64-8.73h0c0,2.4.96,4.71,2.65,6.4,2.12,2.12,5.86,3.44,8.8,2.33,0,0,0,0,0,0h-4.81s0,0,0,0c2.19.79,5.02.23,6.97-.91,2.75-1.61,4.48-4.62,4.48-7.82h0c0-4.93-4.12-9.05-9.05-9.05s-9.04,4.11-9.04,9.05h0c3.82-2.9,7.63-5.81,11.45-8.72-1.17-.42-3.65-.44-4.83,0,3.82,2.91,7.64,5.82,11.45,8.72h0c0-4.18-2.79-7.44-6.64-8.72-11.15-3.71-22.29-7.42-33.44-11.12-9.51-3.17-19.03-6.33-28.54-9.5,2.21,2.91,4.43,5.82,6.64,8.72.15-1.85.38-3.7.63-5.54-.11.8-.22,1.6-.33,2.41,1.52-11.24,4.11-22.49,8.51-32.97-.3.72-.61,1.44-.91,2.17,2.1-4.96,4.65-9.76,7.95-14.04-.47.61-.94,1.22-1.41,1.83,1.89-2.42,4.01-4.65,6.43-6.55-.61.48-1.22.95-1.83,1.42,1.91-1.47,3.97-2.71,6.18-3.65-.72.31-1.44.61-2.16.91,2-.83,4.09-1.4,6.23-1.7-.8.11-1.6.21-2.4.32,2.21-.3,4.45-.34,6.66-.04-.8-.1-1.61-.22-2.4-.32,1.31.2,2.59.53,3.82,1.02-.72-.3-1.44-.61-2.16-.91,1.2.51,2.33,1.16,3.37,1.95-.61-.47-1.22-.94-1.83-1.41,2.28,1.78,3.95,4.12,5.9,6.21,3.35,3.57,7.77,5.71,12.69,5.78,4.83.06,9.24-2.23,12.54-5.62,2.05-2.11,3.71-4.53,6.04-6.36-.61.47-1.22.94-1.83,1.41,1.04-.79,2.16-1.44,3.37-1.95-.72.3-1.44.61-2.16.91,1.24-.49,2.51-.82,3.83-1.02-.81.1-1.6.22-2.41.32,2.21-.29,4.45-.25,6.66.04-.8-.11-1.61-.22-2.4-.32,2.14.3,4.23.87,6.23,1.7-.72-.3-1.44-.61-2.17-.91,2.22.94,4.28,2.17,6.18,3.65-.61-.47-1.22-.94-1.83-1.42,2.42,1.89,4.55,4.12,6.44,6.55-.47-.61-.95-1.22-1.41-1.83,3.3,4.28,5.85,9.07,7.96,14.04-.31-.72-.61-1.45-.92-2.17,4.41,10.48,7,21.73,8.52,32.97-.11-.8-.22-1.6-.32-2.41.24,1.84.48,3.69.62,5.54,2.21-2.91,4.43-5.82,6.64-8.72-11.14,3.71-22.29,7.42-33.43,11.13-9.51,3.16-19.03,6.33-28.54,9.5-4.68,1.55-7.68,6.19-6.32,11.13,1.25,4.56,6.45,7.87,11.13,6.32Z"/>
      </g>
      <path class="st6" d="M75.31,98.44c10.55,3.51,21.09,7.02,31.64,10.53,1.65.79,3.5,1.13,5.38.87,1.01-.12,1.98-.39,2.9-.81,12.49-4.16,24.99-8.31,37.48-12.47,10.55-3.51,21.1-7.03,31.65-10.53-1.8-1.79-3.7-3.52-5.73-5.2-.94.71-1.99,1.27-3.07,1.62-9.51,3.17-19.02,6.33-28.54,9.5-10.78,3.59-21.57,7.18-32.35,10.77-.79.35-1.64.59-2.5.7-1.62.23-3.22-.07-4.65-.75-9.1-3.03-18.21-6.05-27.3-9.09-11.14-3.71-22.29-7.42-33.43-11.13-1.08-.36-2.14-.92-3.08-1.62-2.02,1.67-3.93,3.41-5.72,5.19,12.44,4.15,24.88,8.29,37.32,12.43Z"/>
      <g>
        <path class="st4" d="M175.47,82.45c-.41.13-.82.27-1.23.41,2.03,1.47,3.95,3,5.77,4.58,1.42-.47,2.84-.94,4.25-1.41-1.8-1.79-3.69-3.52-5.72-5.2-.95.71-1.99,1.27-3.08,1.62Z"/>
        <path class="st4" d="M42.17,87.44c1.83-1.58,3.75-3.11,5.78-4.58-.42-.14-.83-.28-1.24-.41-1.08-.36-2.14-.92-3.07-1.62-1.38,1.14-2.71,2.31-3.99,3.51-.01.02-.04.04-.06.06-.26.24-.51.49-.77.73-.13.13-.26.25-.39.38-.17.17-.35.34-.52.51,1.42.48,2.85.95,4.27,1.42Z"/>
      </g>
      <path class="st7" d="M111.2,94.35l61.97-20.63s-4.92-64.87-39.71-64.67c-14.22.08-13.79,12.51-22.27,12.51s-8.05-12.43-22.26-12.51c-34.79-.2-39.71,64.67-39.71,64.67l61.97,20.63h.01Z"/>
      <path class="st11" d="M111.2,89.88h0s0,0,0,0h0s-61.52-20.47-61.52-20.47c-.34,2.71-.46,4.32-.46,4.32l61.97,20.63h.01l61.97-20.63s-.12-1.61-.46-4.32l-61.51,20.47Z"/>
      <path class="st16" d="M88.93,15.02c14.22.08,13.78,12.51,22.26,12.51s8.05-12.43,22.27-12.51c28.41-.17,36.91,43.06,39.07,58.92l.65-.22s-4.92-64.87-39.71-64.67c-14.22.08-13.79,12.51-22.27,12.51s-8.05-12.43-22.26-12.51c-34.79-.2-39.71,64.67-39.71,64.67l.65.22c2.16-15.86,10.65-59.09,39.06-58.92Z"/>
      <g>
        <g>
          <path class="st15" d="M167.78,44.8l-56.58,18.83h0s0,0,0,0h0s-56.57-18.83-56.57-18.83c-.75,2.51-1.41,4.99-1.97,7.36l58.55,19.48h0s0,0,0,0h0s58.55-19.49,58.55-19.49c-.57-2.38-1.22-4.85-1.97-7.36Z"/>
          <path d="M165.37,36.08c-11.57,3.85-23.15,7.7-34.72,11.55-7.29,2.43-14.57,4.85-21.86,7.27-3.84,1.28-6.64,4.54-6.64,8.73h0c3.82-2.9,7.63-5.81,11.45-8.72-1.17-.41-3.65-.45-4.83,0,3.82,2.91,7.64,5.82,11.45,8.72h0c0-4.19-2.79-7.45-6.64-8.73-11.57-3.85-23.15-7.7-34.72-11.55-7.29-2.43-14.57-4.85-21.86-7.27-4.75-1.58-9.78,1.78-11.12,6.32-.73,2.43-1.38,4.89-1.97,7.37-1.19,4.99,1.53,9.53,6.32,11.13,11.42,3.8,22.84,7.6,34.27,11.4,8.09,2.69,16.19,5.39,24.28,8.08-2.21-2.91-4.42-5.81-6.64-8.72h0c0,5.61,5.83,10.67,11.45,8.73h0-4.81,0c5.64,1.82,11.45-3.03,11.45-8.72h0c-2.22,2.9-4.43,5.81-6.64,8.71,11.42-3.8,22.84-7.6,34.27-11.4,8.09-2.69,16.18-5.39,24.28-8.08,4.8-1.6,7.51-6.14,6.32-11.13-.59-2.48-1.25-4.94-1.97-7.37-1.41-4.73-6.3-7.64-11.13-6.32-4.68,1.29-7.73,6.4-6.32,11.13.73,2.44,1.38,4.89,1.97,7.37,2.11-3.71,4.21-7.42,6.33-11.13-11.42,3.8-22.85,7.6-34.27,11.4-8.09,2.7-16.19,5.39-24.28,8.08-3.84,1.28-6.64,4.54-6.64,8.72h0c3.82-2.9,7.63-5.81,11.45-8.71-1.3-.42-3.52-.45-4.83,0,3.82,2.91,7.64,5.81,11.45,8.72h0c0-4.19-2.79-7.45-6.64-8.73-11.42-3.8-22.85-7.6-34.27-11.4-8.1-2.69-16.19-5.39-24.28-8.08,2.1,3.71,4.21,7.42,6.32,11.13.59-2.47,1.25-4.93,1.97-7.37-3.71,2.1-7.42,4.21-11.13,6.31,11.57,3.86,23.14,7.7,34.72,11.56,7.29,2.43,14.57,4.84,21.86,7.27-2.21-2.91-4.42-5.82-6.64-8.72h0c0,2.39.96,4.71,2.65,6.4,2.11,2.11,5.87,3.46,8.8,2.33h0-4.81,0c5.62,2.01,11.45-3.17,11.45-8.72h0c-2.21,2.9-4.43,5.81-6.64,8.72,11.57-3.85,23.14-7.7,34.72-11.55,7.29-2.42,14.57-4.85,21.86-7.27,4.67-1.56,7.68-6.18,6.32-11.12-1.26-4.57-6.45-7.88-11.13-6.32Z"/>
        </g>
        <g>
          <path class="st11" d="M123.24,45.41c-4.02,1.33-8.02,2.67-12.04,4.01-13.2-4.39-26.39-8.79-39.59-13.18-3.98-1.32-7.97-2.65-11.95-3.98-.65,1.33-1.28,2.69-1.86,4.06,4.61,1.53,9.21,3.06,13.81,4.59,13.2,4.39,26.39,8.79,39.59,13.17,4.02-1.33,8.02-2.67,12.04-4,13.79-4.59,27.57-9.18,41.36-13.76-.58-1.37-1.2-2.73-1.86-4.06-13.16,4.38-26.33,8.76-39.5,13.15Z"/>
          <g>
            <path class="st20" d="M60.2,37.16c.66-1.36,1.37-2.68,2.11-3.97-.89-.3-1.77-.59-2.64-.88-.63,1.34-1.22,2.71-1.78,4.08.77.26,1.54.51,2.32.77Z"/>
            <path class="st20" d="M162.73,32.32c-.89.29-1.77.59-2.65.88.75,1.29,1.45,2.62,2.11,3.98.77-.26,1.54-.52,2.31-.78-.55-1.37-1.15-2.74-1.78-4.08Z"/>
          </g>
          <path class="st16" d="M50.5,64.29c13.55,4.51,27.11,9.02,40.66,13.53,5.29,1.76,10.57,3.52,15.86,5.28,1.99.88,4.25,1.13,6.51.47.32-.09.64-.19.96-.31,13.6-4.53,27.19-9.05,40.79-13.58,5.39-1.79,10.8-3.6,16.21-5.39.57,3.35.95,6.16,1.18,8.13l.31-.1s-.35-4.54-1.49-11.21c-5.41,1.79-10.82,3.59-16.21,5.39-13.6,4.52-27.19,9.05-40.79,13.57-.32.12-.64.22-.96.31-2.25.66-4.52.41-6.51-.47-5.29-1.76-10.57-3.52-15.86-5.28-13.55-4.51-27.1-9.02-40.66-13.53-1.15,6.67-1.49,11.21-1.49,11.21l.31.1c.23-1.97.61-4.79,1.18-8.13Z"/>
        </g>
        <path class="st23" d="M167.78,44.8l-56.58,18.83h0s0,0,0,0h0s-56.57-18.83-56.57-18.83c-.75,2.51-1.41,4.99-1.97,7.36l58.55,19.48h0s0,0,0,0h0s58.55-19.49,58.55-19.49c-.57-2.38-1.22-4.85-1.97-7.36Z"/>
        <path class="st3" d="M111.17,65.97h0s0,0,0,0h.01s0,0,0,0l57.19-19.03c-.2-.7-.39-1.4-.61-2.12l-56.57,18.83h0s-.01,0-.01,0h0s-56.58-18.84-56.58-18.84c-.21.71-.41,1.42-.61,2.12l57.19,19.03Z"/>
        <path class="st8" d="M111.2,69.27h0s0,0,0,0h0s0,0,0,0l-58-19.3c-.19.75-.37,1.48-.55,2.21l58.55,19.48h0s0,0,0,0h0s58.55-19.49,58.55-19.49c-.17-.72-.36-1.46-.55-2.21l-58,19.3Z"/>
      </g>
    </g>
    <g>
      <path class="st14" d="M188.21,104.35c5.01,6.8,6.65,14.1,3.67,16.3-2.99,2.2-9.47-1.53-14.48-8.32-5.01-6.8-6.65-14.09-3.67-16.29,2.98-2.2,9.47,1.53,14.48,8.32Z"/>
      <path class="st14" d="M197.38,126.6c-.22,1.49-1.61,2.5-3.09,2.28-1.48-.22-2.5-1.61-2.28-3.09.23-1.48,1.61-2.5,3.09-2.28,1.48.23,2.5,1.61,2.28,3.09Z"/>
    </g>
  </g>
  <path class="st10" d="M46.76,308.77l-10.65,14.62c.41.21.87.33,1.35.33h1.22l10.89-14.95h-2.81Z"/>
  <polygon class="st26" points="45.66 310.28 48.47 310.28 49.57 308.77 46.76 308.77 45.66 310.28"/>
  <path class="st10" d="M41.3,323.72l10.82-14.86c-.24-.06-.48-.09-.73-.09h-.25l-10.88,14.95h1.04Z"/>
  <path class="st26" d="M51.08,310.28l1.04-1.42c-.24-.06-.48-.09-.73-.09h-.25l-1.1,1.51h1.04Z"/>
  <path class="st25" d="M37.46,323.72h1.22l1.12-1.53h-2.34c-.15,0-.3,0-.44-.03l-.91,1.24c.41.2.87.32,1.35.32Z"/>
  <polygon class="st25" points="41.3 323.7 42.41 322.18 41.36 322.18 40.26 323.7 41.3 323.7"/>
</svg>