<?xml version="1.0" encoding="UTF-8"?>
<svg id="Layer_1" xmlns="http://www.w3.org/2000/svg" version="1.1" viewBox="0 0 232.52 339.94">
  <!-- Generator: Adobe Illustrator 29.6.1, SVG Export Plug-In . SVG Version: 2.1.1 Build 9)  -->
  <defs>
    <style>
      .st0 {
        fill: #000002;
      }

      .st1 {
        fill: #d13b6a;
      }

      .st2 {
        fill: #f38b9e;
      }

      .st3 {
        fill: #fff;
      }

      .st4 {
        fill: #f56a91;
      }

      .st5 {
        fill: #fde5d2;
      }

      .st6 {
        fill: #ffebde;
      }

      .st7 {
        fill: #ffd2e0;
      }

      .st8 {
        fill: #e6e7e8;
      }

      .st9 {
        fill: #fff3e7;
      }
    </style>
  </defs>
  <g>
    <g>
      <g>
        <path class="st6" d="M150.66,267.35s25.08,29.79,14.2,36.22c-10.89,6.42-26.11-21.42-26.11-21.42l11.91-14.8Z"/>
        <path d="M148.15,269.87c.28.33.56.67.83,1.01.3.38.6.76.9,1.13.18.23.37.47.55.7.1.13.2.26.3.39-.75-.96-.2-.25-.03-.04,2.26,2.95,4.4,5.98,6.41,9.11,1.14,1.77,2.22,3.58,3.22,5.43.47.87.93,1.75,1.35,2.64.21.43.41.87.61,1.31.08.18.4.95.01.01.12.28.23.56.34.85.64,1.62,1.14,3.3,1.4,5.03-.19-1.29-.02.01,0,.32.02.35.01.69,0,1.03-.06,1.12.14-.66-.02.18-.07.35-.18.69-.31,1.03.46-1.21.07-.21-.11.08-.44.69.62-.66-.11.1-.1.12-.22.21-.34.32-.48.42.74-.54.21-.17-.31.21-.65.38-.99.54,1.07-.5-.1,0-.42.07-.25.06-.96.14.21,0-.19.02-.38.03-.56.03-.38.02-.76-.01-1.13-.06,1.28.14-.24-.09-.58-.2-.27-.08-1.57-.61-.49-.14-.39-.17-.78-.37-1.15-.57-.39-.22-.77-.46-1.15-.71-.2-.12-.38-.25-.57-.39-.17-.12-1.04-.79-.23-.15-1.66-1.29-3.16-2.78-4.58-4.33-.7-.77-1.38-1.56-2.04-2.37-.32-.4-.65-.81-.97-1.21.58.74.04.05-.06-.09-.2-.27-.4-.53-.6-.8-1.14-1.54-2.22-3.11-3.25-4.72-1.04-1.59-2.04-3.2-2.96-4.87-.18,1.44-.37,2.87-.55,4.31,3.97-4.93,7.94-9.86,11.92-14.79,1.21-1.51,1.48-3.55,0-5.03-1.26-1.26-3.81-1.51-5.03,0-3.97,4.94-7.94,9.87-11.91,14.8-1.04,1.29-1.39,2.79-.55,4.31,2.95,5.39,6.57,10.54,10.64,15.12,5.21,5.87,14.66,13.09,22.08,6.25,2.92-2.7,3.05-6.9,2.37-10.53-.72-3.94-2.62-7.74-4.53-11.23-3.45-6.28-7.72-12.14-12.22-17.71-.27-.34-.55-.68-.83-1.02-1.25-1.48-3.75-1.28-5.03,0-1.46,1.46-1.24,3.54,0,5.03Z"/>
      </g>
      <g>
        <rect class="st0" x="147.18" y="285.73" width="17.78" height="6.23" transform="translate(-131.77 130.92) rotate(-32.86)"/>
        <path d="M150.05,297.4l-4.25-6.59,16.28-10.52,4.26,6.59-16.29,10.53ZM148.03,291.29l2.51,3.88,13.58-8.78-2.51-3.88-13.57,8.78Z"/>
      </g>
      <path class="st4" d="M158.34,283.51l-7.35,4.8-3.24-12.24,2.9-3.63s3.37,4.2,4.97,6.7c1.6,2.51,2.72,4.37,2.72,4.37Z"/>
    </g>
    <path class="st7" d="M156.1,282.65s-1.13-1.86-2.72-4.37c-.92-1.43-2.41-3.42-3.52-4.85l.79-.99s3.37,4.2,4.97,6.7c1.6,2.51,2.72,4.37,2.72,4.37l-7.35,4.8,5.11-5.66Z"/>
    <g>
      <g>
        <path class="st6" d="M81.86,267.35s-25.08,29.79-14.2,36.22c10.88,6.42,26.12-21.42,26.12-21.42l-11.91-14.8Z"/>
        <path d="M79.34,264.84c-3.54,4.21-6.81,8.7-9.8,13.31-2.38,3.67-4.49,7.48-6.18,11.51-1.47,3.49-2.4,7.26-1.74,11.04.74,4.22,4.56,6.81,8.57,7.31,4.29.54,8.28-1.97,11.46-4.53,3.49-2.8,6.33-6.38,8.98-9.96,1.95-2.63,3.75-5.38,5.42-8.21.27-.46.53-.91.79-1.37.83-1.52.48-3.01-.55-4.31-3.97-4.93-7.94-9.86-11.91-14.8-1.22-1.51-3.77-1.26-5.03,0-1.48,1.48-1.21,3.52,0,5.03,3.97,4.94,7.94,9.87,11.92,14.79-.18-1.44-.37-2.87-.56-4.31-.92,1.67-1.92,3.28-2.96,4.87-1.03,1.61-2.12,3.18-3.25,4.72-.29.4-.6.81-.91,1.21.59-.77-.4.49-.55.69-.71.88-1.45,1.74-2.2,2.58-1.41,1.56-2.93,3.03-4.58,4.33.82-.65-.4.27-.61.41-.37.26-.76.49-1.15.72-.37.22-.76.41-1.15.6-.69.33.79-.31.08-.04-.25.1-.51.19-.77.27-.37.12-.75.2-1.15.27,1.24-.22-.04-.02-.38-.01-.18,0-.37-.01-.56-.02-.72-.05.91.15.2.02-.33-.06-1.71-.58-.61-.1-.34-.15-.67-.34-.99-.54-.54-.36.7.58.21.17-.12-.1-.22-.21-.34-.32-.75-.73.34.57-.11-.1-.08-.12-.15-.25-.22-.39-.42-.74.26.72.05.17-.11-.29-.19-.59-.25-.89-.18-.84.06.95-.03-.18-.02-.35-.01-.69,0-1.03,0-.31.17-1.62,0-.32.23-1.73.78-3.4,1.4-5.03.08-.21.17-.43.25-.64.31-.76-.33.75,0-.01.19-.44.39-.87.59-1.3.46-.97.94-1.92,1.45-2.86,1-1.85,2.09-3.66,3.22-5.43,2-3.13,4.16-6.15,6.41-9.11.69-.9-.34.44.17-.22.18-.24.37-.47.56-.71.32-.42.66-.83.99-1.25.27-.34.55-.68.83-1.01,1.24-1.48,1.46-3.57,0-5.03-1.28-1.28-3.78-1.48-5.03,0Z"/>
      </g>
      <g>
        <rect class="st0" x="73.33" y="279.96" width="6.23" height="17.78" transform="translate(-207.66 196.32) rotate(-57.14)"/>
        <path d="M82.47,297.4l-16.29-10.53,4.25-6.59,16.29,10.52-4.25,6.59ZM68.41,286.4l13.58,8.78,2.51-3.88-13.58-8.78-2.51,3.88Z"/>
      </g>
      <path class="st4" d="M74.18,283.51l7.35,4.8,3.24-12.24-2.9-3.63s-3.37,4.2-4.97,6.7c-1.6,2.51-2.73,4.37-2.73,4.37Z"/>
      <path class="st7" d="M76.42,282.65s1.13-1.86,2.73-4.37c.91-1.43,2.41-3.42,3.52-4.85l-.79-.99s-3.37,4.2-4.97,6.7c-1.6,2.51-2.73,4.37-2.73,4.37l7.35,4.8-5.11-5.66Z"/>
    </g>
    <g>
      <path class="st0" d="M169.13,335.9c0,1.56-23.74,2.83-53.01,2.83s-53.01-1.27-53.01-2.83,23.73-2.83,53.01-2.83,53.01,1.27,53.01,2.83Z"/>
      <path d="M116.13,339.94c-54.21,0-54.21-3.04-54.21-4.04s0-4.04,54.21-4.04,54.22,3.04,54.22,4.04,0,4.04-54.22,4.04ZM68.04,335.9c7.66.87,25.14,1.62,48.09,1.62s40.43-.75,48.09-1.62c-7.66-.88-25.14-1.62-48.09-1.62s-40.43.75-48.09,1.62Z"/>
    </g>
    <g>
      <path class="st3" d="M89.78,273.68s-10.04,55.54-3.21,57.92c6.82,2.39,13.15-8.48,13.15-8.48,0,0,5.44,1.66,14.81,1.83,9.38.17,16.92-1.95,16.92-1.95,0,0,7,12.1,14.54,9.6,7.55-2.49-4.44-59.06-4.44-59.06l-51.77.14Z"/>
      <path d="M86.35,272.73c-2.27,12.57-4.14,25.28-5.2,38-.32,3.79-.55,7.6-.51,11.41.04,2.79.11,5.84,1.04,8.5.39,1.14.98,2.48,1.97,3.25,2.16,1.7,4.98,1.89,7.6,1.25,4.7-1.17,8.32-5.4,10.92-9.25.22-.32.43-.65.62-.97-1.34.54-2.67,1.08-4.01,1.63,5.02,1.53,10.56,1.85,15.76,1.96,5.92.12,12.15-.48,17.87-2.07-1.34-.54-2.68-1.09-4.02-1.63,1.69,2.92,3.96,5.7,6.54,7.87,3.75,3.15,9.9,5.72,14.2,2.08,2.07-1.75,2.46-5.04,2.73-7.54.34-3.26.18-6.59-.03-9.86-.95-14.6-3.65-29.16-6.59-43.48-.09-.42-.18-.85-.26-1.27-.33-1.54-1.92-2.61-3.43-2.61-12.73.04-25.47.07-38.19.1-4.53.02-9.06.03-13.58.04-4.59.01-4.59,7.12,0,7.11,12.73-.03,25.46-.07,38.2-.1,4.52-.01,9.05-.02,13.57-.04-1.14-.87-2.28-1.74-3.43-2.61.85,4.03,1.62,8.07,2.36,12.11.72,3.95,1.39,7.9,2.01,11.86.33,2.14.65,4.28.94,6.43.12.89-.11-.81,0,.08.04.26.07.52.1.77.07.52.13,1.03.2,1.54.14,1.1.26,2.2.39,3.3.41,3.83.74,7.68.8,11.53.03,1.54,0,3.08-.13,4.61-.02.32-.06.63-.1.95-.07.63.13-.98.05-.36-.02.14-.04.28-.07.43-.09.54-.22,1.08-.38,1.61-.1.33-.47,1.19.09-.13-.08.18-.17.35-.26.52-.41.71.31-.36.2-.23-.49.58.15-.07.26-.16-.63.43,1.23-.4.19-.09-.17.05-1.09.21-.14.09-.27.03-.53.03-.81.04-.19,0-1.08-.1-.11.04-.26-.04-.52-.1-.78-.16-.26-.06-.51-.15-.77-.25-.37-.14-.33-.13.1.05-.17-.08-.33-.16-.49-.25-.5-.25-.96-.56-1.43-.87-.11-.07-.85-.65-.18-.12-.22-.17-.43-.36-.65-.55-.89-.77-1.7-1.64-2.48-2.54-.18-.2-1.17-1.46-.52-.61-.26-.34-.52-.69-.76-1.03-.37-.51-.72-1.04-1.05-1.58-.06-.1-.12-.21-.19-.31-.8-1.37-2.48-2.06-4.01-1.63-1.52.42-3.08.71-4.62.98-3.38.58-7.41.89-11.36.84-1.96-.03-3.92-.14-5.88-.32-.86-.07-1.73-.18-2.6-.29.78.1-.27-.04-.35-.06-.38-.06-.77-.12-1.15-.19-1.3-.22-2.62-.46-3.89-.85-1.52-.46-3.22.29-4.01,1.63-.15.25-.31.5-.46.74-.18.27-.36.54-.55.81-.11.16-.23.32-.35.48-.58.8.29-.35-.12.17-.64.82-1.34,1.59-2.07,2.32-.4.4-.81.76-1.24,1.12-.72.61.59-.43-.17.13-.3.22-.61.41-.94.61-.23.14-.48.26-.73.39-.81.41.7-.25-.15.05-.25.09-.51.16-.77.22-.87.22.79-.04-.1.04-.27.02-.54.01-.8,0-.91-.04.77.16-.14-.04-1.31-.29.61.45-.05.01,1.08.72.61.51.34.21-.12-.13.64.95.22.25-.17-.29-.48-1.07.07.24-.1-.24-.18-.48-.25-.73-.15-.49-.25-1-.35-1.51-.02-.14-.05-.28-.06-.42-.1-.62.12.99.05.35-.05-.37-.09-.75-.12-1.12-.14-1.56-.16-3.13-.16-4.7.02-3.9.29-7.81.65-11.71.37-4.13.85-8.26,1.39-12.37.06-.51.13-1.02.2-1.52.12-.88-.12.81,0-.06.04-.25.07-.5.1-.75.14-.97.27-1.95.41-2.92.26-1.81.53-3.62.81-5.43.59-3.86,1.21-7.71,1.91-11.55.35-1.9-.49-3.83-2.48-4.38-1.74-.47-4.03.58-4.38,2.48Z"/>
    </g>
    <g>
      <g>
        <polygon class="st5" points="140.23 273.01 116.44 273.01 116.24 273.01 92.45 273.01 82.14 306.9 116.24 306.9 116.44 306.9 150.53 306.9 140.23 273.01"/>
        <path d="M140.23,265.9h-47.78c-3.22,0-5.92,2.18-6.85,5.22-3.43,11.28-6.86,22.54-10.28,33.81-.01.03-.02.06-.03.09-1.35,4.45,2.32,8.99,6.85,8.99h68.39c4.53,0,8.21-4.55,6.85-8.99-3.42-11.27-6.85-22.54-10.28-33.81,0-.03-.02-.06-.03-.09-1.12-3.7-4.93-6.02-8.75-4.96-3.65,1.01-6.09,5.04-4.96,8.74,3.43,11.27,6.86,22.54,10.28,33.81.01.03.02.06.03.09,2.29-3,4.57-6,6.85-9h-68.39c2.29,3,4.57,6,6.86,9,3.42-11.27,6.85-22.54,10.28-33.81,0-.04.02-.06.03-.09-2.29,1.74-4.57,3.48-6.86,5.22h47.78c3.88,0,7.11-3.24,7.11-7.11s-3.23-7.11-7.11-7.11Z"/>
      </g>
      <polygon class="st4" points="140.23 273.01 116.44 273.01 116.24 273.01 92.45 273.01 82.14 306.9 116.24 306.9 116.44 306.9 150.53 306.9 140.23 273.01"/>
      <polygon class="st1" points="116.44 303.98 116.24 303.98 83.04 303.98 82.14 306.9 116.24 306.9 116.44 306.9 150.53 306.9 149.64 303.98 116.44 303.98"/>
    </g>
    <rect class="st8" x="87.72" y="313.39" width="57.09" height="3.98"/>
    <g>
      <polygon class="st3" points="105.93 272.96 105.93 314.81 75.31 314.81 86.08 272.96 105.93 272.96"/>
      <path d="M103.35,272.96v41.85c.86-.86,1.72-1.72,2.58-2.59h-30.62c.83,1.1,1.66,2.18,2.49,3.27,3.2-12.46,6.42-24.92,9.62-37.37.38-1.49.77-2.99,1.15-4.48-.83.63-1.66,1.26-2.49,1.89h19.85c3.33,0,3.33-5.17,0-5.17h-19.85c-1.13,0-2.2.79-2.49,1.9-3.21,12.46-6.41,24.92-9.62,37.38-.39,1.49-.77,2.98-1.15,4.48-.42,1.63.79,3.27,2.49,3.27h30.62c1.41,0,2.58-1.18,2.58-2.59v-41.85c0-3.34-5.17-3.34-5.17,0Z"/>
    </g>
    <g>
      <polygon class="st3" points="105.57 266.33 79.95 263.39 75.6 268.85 105.55 291.59 105.57 266.33"/>
      <path d="M105.57,263.75c-6.1-.71-12.19-1.4-18.29-2.1-2.42-.28-4.83-.55-7.25-.84-1.6-.18-2.55,1.55-3.38,2.6-.96,1.2-1.92,2.41-2.88,3.62-1.12,1.4-.9,2.97.52,4.05,9.77,7.42,19.54,14.84,29.31,22.27.21.16.43.32.64.48,1.62,1.23,3.89-.45,3.89-2.23,0-8.42.02-16.85.02-25.27,0-3.34-5.17-3.33-5.17,0,0,8.42-.02,16.85-.03,25.27,1.3-.74,2.59-1.48,3.89-2.23-9.77-7.42-19.54-14.84-29.32-22.27-.21-.16-.42-.32-.63-.48.17,1.36.35,2.71.52,4.06,1.45-1.81,2.89-3.64,4.35-5.45-.61.25-1.22.5-1.83.76,8.54.97,17.09,1.96,25.63,2.93,1.41.16,2.59-1.3,2.59-2.59,0-1.52-1.18-2.42-2.59-2.58Z"/>
    </g>
    <g>
      <polygon class="st3" points="125.96 272.96 125.96 314.81 156.6 314.81 145.81 272.96 125.96 272.96"/>
      <path d="M123.38,272.96v41.85c0,1.41,1.18,2.59,2.59,2.59h30.63c1.7,0,2.9-1.64,2.49-3.27-3.21-12.46-6.42-24.91-9.62-37.37-.39-1.49-.77-2.99-1.16-4.48-.29-1.11-1.35-1.9-2.49-1.9h-19.85c-3.34,0-3.34,5.17,0,5.17h19.85c-.83-.63-1.66-1.26-2.49-1.89,3.2,12.46,6.41,24.91,9.62,37.37.38,1.5.77,2.99,1.15,4.48.83-1.09,1.66-2.18,2.49-3.27h-30.63c.86.87,1.72,1.73,2.58,2.59v-41.85c0-3.34-5.17-3.34-5.17,0Z"/>
    </g>
    <g>
      <polygon class="st3" points="126.32 266.33 151.95 263.39 156.3 268.85 126.35 291.59 126.32 266.33"/>
      <path d="M126.32,268.91c8.55-.97,17.08-1.96,25.63-2.93-.61-.25-1.22-.51-1.83-.76,1.45,1.81,2.9,3.64,4.35,5.45.17-1.35.35-2.7.52-4.06-9.77,7.42-19.54,14.84-29.31,22.27-.21.16-.43.32-.64.48,1.3.75,2.59,1.49,3.89,2.23-.01-8.42-.02-16.85-.02-25.27,0-3.33-5.18-3.34-5.17,0,0,8.42.02,16.85.02,25.27,0,1.79,2.27,3.46,3.89,2.23,9.78-7.42,19.54-14.84,29.32-22.27.21-.16.42-.32.64-.48,1.42-1.08,1.65-2.65.52-4.05-.91-1.14-1.82-2.29-2.72-3.42-.84-1.06-1.89-2.97-3.5-2.79-2.43.28-4.85.56-7.28.84-6.1.7-12.2,1.39-18.29,2.1-1.4.16-2.58,1.06-2.58,2.58,0,1.29,1.18,2.75,2.58,2.59Z"/>
    </g>
    <polygon class="st8" points="86.81 280.57 103.31 293.15 103.31 297.89 85.75 284.52 86.81 280.57"/>
    <polygon class="st8" points="145.02 280.57 128.53 293.15 128.53 297.89 146.08 284.52 145.02 280.57"/>
  </g>
  <g>
    <g>
      <g>
        <path class="st3" d="M116.25,86.38c-21.53,0-38.98-17.46-38.98-38.98S94.72,8.43,116.25,8.43s38.97,17.44,38.97,38.97-17.45,38.98-38.97,38.98Z"/>
        <path d="M116.25,77.95c-1.79-.01-3.57-.13-5.35-.36.75.1,1.5.2,2.25.3-3.34-.47-6.58-1.35-9.68-2.64.67.28,1.34.56,2.01.85-3.13-1.32-6.05-3.03-8.75-5.09.57.44,1.14.88,1.71,1.32-2.66-2.07-5.04-4.45-7.11-7.11.44.57.88,1.14,1.32,1.7-2.06-2.7-3.77-5.62-5.09-8.75.29.67.57,1.34.85,2.01-1.28-3.1-2.17-6.34-2.64-9.68.1.75.2,1.49.3,2.24-.47-3.55-.47-7.13,0-10.69-.1.75-.2,1.5-.3,2.25.47-3.33,1.35-6.57,2.64-9.68-.28.67-.57,1.34-.85,2.01,1.33-3.12,3.03-6.05,5.09-8.75-.44.57-.88,1.14-1.32,1.7,2.07-2.66,4.45-5.04,7.11-7.11-.57.44-1.13.88-1.71,1.32,2.7-2.06,5.63-3.76,8.75-5.09-.67.28-1.35.57-2.01.85,3.11-1.28,6.35-2.16,9.68-2.63-.75.09-1.5.2-2.25.3,3.56-.47,7.14-.47,10.69,0-.75-.11-1.5-.21-2.24-.3,3.33.47,6.57,1.35,9.68,2.63-.67-.28-1.35-.57-2.02-.85,3.13,1.32,6.06,3.03,8.75,5.09-.57-.44-1.14-.88-1.72-1.32,2.67,2.07,5.05,4.45,7.11,7.11-.44-.56-.87-1.13-1.32-1.7,2.06,2.7,3.77,5.63,5.09,8.75-.29-.67-.56-1.34-.85-2.01,1.29,3.11,2.17,6.35,2.64,9.68-.1-.75-.2-1.5-.3-2.25.47,3.56.47,7.13,0,10.69.1-.75.2-1.49.3-2.25-.47,3.33-1.35,6.58-2.64,9.68.29-.67.57-1.34.85-2.01-1.32,3.12-3.02,6.05-5.09,8.74.44-.56.88-1.13,1.32-1.7-2.07,2.66-4.44,5.04-7.11,7.11.58-.45,1.14-.88,1.72-1.32-2.7,2.06-5.63,3.76-8.75,5.09.67-.28,1.35-.57,2.02-.85-3.11,1.29-6.34,2.16-9.68,2.64.75-.1,1.5-.2,2.24-.3-1.78.24-3.56.35-5.34.36-4.6.02-8.44,3.82-8.44,8.44s3.84,8.45,8.44,8.43c12.72-.05,25.07-5.22,33.96-14.34,8.87-9.09,13.8-21.73,13.42-34.42-.38-12.62-5.9-24.94-15.23-33.48C139.02,3.99,126.29-.73,113.55.09c-12.57.81-24.72,6.49-32.97,16.11-8.3,9.67-12.8,22.46-11.54,35.24,1.15,11.72,6.3,22.79,15.05,30.8,8.77,8.03,20.27,12.53,32.16,12.58,4.6.02,8.44-3.85,8.44-8.43s-3.84-8.42-8.44-8.44Z"/>
      </g>
      <path class="st4" d="M116.25,86.38c-21.53,0-38.98-17.46-38.98-38.98S94.72,8.43,116.25,8.43s38.97,17.44,38.97,38.97-17.45,38.98-38.97,38.98Z"/>
      <path class="st1" d="M86.5,47.37c0-19.96,15.01-36.38,34.35-38.68-1.51-.17-3.05-.29-4.6-.29-21.53,0-38.98,17.44-38.98,38.97s17.45,38.97,38.98,38.97c1.55,0,3.09-.12,4.6-.3-19.34-2.29-34.35-18.71-34.35-38.67Z"/>
      <path class="st7" d="M145.99,47.37c0-19.96-15.03-36.38-34.37-38.68,1.52-.17,3.04-.29,4.62-.29,21.52,0,38.97,17.44,38.97,38.97s-17.45,38.97-38.97,38.97c-1.58,0-3.1-.12-4.62-.3,19.34-2.29,34.37-18.71,34.37-38.67Z"/>
    </g>
    <g>
      <g>
        <g>
          <g>
            <path class="st5" d="M45.45,222.82c0,9.04-7.33,16.38-16.39,16.38s-16.38-7.34-16.38-16.38,7.34-16.38,16.38-16.38,16.39,7.33,16.39,16.38Z"/>
            <path d="M37.02,222.82c-.01.78-.06,1.55-.16,2.33.1-.74.2-1.5.3-2.24-.22,1.4-.59,2.74-1.13,4.05.29-.68.57-1.35.85-2.02-.55,1.27-1.24,2.45-2.06,3.55.44-.57.88-1.14,1.32-1.71-.91,1.17-1.94,2.2-3.11,3.11.57-.45,1.14-.88,1.71-1.32-1.1.82-2.28,1.51-3.55,2.06.68-.28,1.35-.57,2.02-.86-1.31.54-2.65.91-4.05,1.13.75-.1,1.5-.2,2.25-.3-1.56.2-3.11.2-4.67,0,.75.1,1.49.2,2.24.3-1.4-.21-2.74-.59-4.05-1.13.68.28,1.35.57,2.01.86-1.26-.55-2.44-1.24-3.55-2.06.57.43,1.14.87,1.71,1.32-1.17-.91-2.2-1.94-3.11-3.11.44.57.88,1.14,1.32,1.71-.83-1.11-1.52-2.29-2.07-3.55.28.67.57,1.34.85,2.02-.54-1.31-.91-2.65-1.12-4.05.1.74.2,1.5.3,2.24-.21-1.55-.21-3.11,0-4.66-.1.74-.2,1.49-.3,2.24.22-1.4.59-2.74,1.12-4.05-.28.67-.57,1.35-.85,2.02.55-1.27,1.24-2.45,2.07-3.56-.44.57-.88,1.14-1.32,1.71.91-1.17,1.94-2.19,3.11-3.11-.57.45-1.14.88-1.71,1.32,1.11-.83,2.29-1.51,3.55-2.06-.67.28-1.34.56-2.01.85,1.3-.54,2.65-.91,4.05-1.12-.75.1-1.5.2-2.24.3,1.56-.21,3.1-.21,4.67,0-.75-.1-1.5-.2-2.25-.3,1.4.21,2.74.59,4.05,1.12-.67-.29-1.34-.57-2.02-.85,1.27.55,2.45,1.23,3.55,2.06-.57-.44-1.13-.88-1.71-1.32,1.17.91,2.2,1.94,3.11,3.11-.44-.57-.88-1.14-1.32-1.71.83,1.11,1.51,2.29,2.06,3.56-.29-.68-.57-1.35-.85-2.02.54,1.31.91,2.65,1.13,4.05-.11-.74-.2-1.49-.3-2.24.1.77.15,1.55.16,2.33.05,4.59,3.8,8.43,8.44,8.43s8.48-3.84,8.44-8.43c-.08-7.15-3.2-14.55-8.93-19.01-3.11-2.42-6.44-4.34-10.35-5.19-4.01-.86-8.07-.79-12.04.23-6.77,1.74-13.09,6.9-15.89,13.33-1.61,3.71-2.61,7.55-2.4,11.64.21,4.02,1.3,7.82,3.25,11.34,5.45,9.8,17.34,14.37,28.04,11.62,10.76-2.77,18.21-13.01,18.33-23.96.04-4.6-3.87-8.44-8.44-8.44s-8.39,3.84-8.44,8.44Z"/>
          </g>
          <path class="st9" d="M45.45,222.82c0,9.04-7.33,16.38-16.39,16.38s-16.38-7.34-16.38-16.38,7.34-16.38,16.38-16.38,16.39,7.33,16.39,16.38Z"/>
          <path class="st6" d="M41.22,222.37c0,6.63-5.37,12.01-12,12.01s-12-5.38-12-12.01,5.37-12,12-12,12,5.37,12,12Z"/>
        </g>
        <g>
          <g>
            <path class="st5" d="M219.8,222.82c0,9.04-7.34,16.38-16.38,16.38s-16.39-7.34-16.39-16.38,7.33-16.38,16.39-16.38,16.38,7.33,16.38,16.38Z"/>
            <path d="M211.37,222.82c0,.78-.06,1.55-.16,2.33.1-.74.2-1.5.3-2.24-.21,1.4-.59,2.74-1.12,4.05.28-.68.57-1.35.85-2.02-.55,1.27-1.24,2.45-2.06,3.55.44-.57.88-1.14,1.32-1.71-.9,1.17-1.94,2.2-3.11,3.11.57-.45,1.14-.88,1.71-1.32-1.1.82-2.28,1.51-3.55,2.06.67-.28,1.35-.57,2.02-.86-1.31.54-2.65.91-4.05,1.13.74-.1,1.5-.2,2.24-.3-1.55.2-3.1.2-4.66,0,.75.1,1.5.2,2.25.3-1.4-.21-2.74-.59-4.05-1.13.67.28,1.34.57,2.01.86-1.26-.55-2.44-1.24-3.54-2.06.57.43,1.14.87,1.7,1.32-1.16-.91-2.19-1.94-3.1-3.11.44.57.88,1.14,1.32,1.71-.83-1.11-1.52-2.29-2.07-3.55.28.67.57,1.34.85,2.02-.54-1.31-.92-2.65-1.13-4.05.1.74.2,1.5.3,2.24-.21-1.55-.21-3.11,0-4.66-.1.74-.2,1.49-.3,2.24.21-1.4.58-2.74,1.13-4.05-.29.67-.57,1.35-.85,2.02.55-1.27,1.24-2.45,2.07-3.56-.44.57-.88,1.14-1.32,1.71.91-1.17,1.94-2.19,3.1-3.11-.57.45-1.13.88-1.7,1.32,1.11-.83,2.29-1.51,3.54-2.06-.67.28-1.34.56-2.01.85,1.3-.54,2.64-.91,4.05-1.12-.75.1-1.5.2-2.25.3,1.56-.21,3.11-.21,4.66,0-.74-.1-1.5-.2-2.24-.3,1.4.21,2.74.59,4.05,1.12-.68-.29-1.35-.57-2.02-.85,1.27.55,2.45,1.23,3.55,2.06-.57-.44-1.13-.88-1.71-1.32,1.17.91,2.21,1.94,3.11,3.11-.43-.57-.88-1.14-1.32-1.71.83,1.11,1.52,2.29,2.06,3.56-.28-.68-.57-1.35-.85-2.02.53,1.31.91,2.65,1.12,4.05-.1-.74-.2-1.49-.3-2.24.1.77.16,1.55.16,2.33.05,4.59,3.8,8.43,8.44,8.43s8.48-3.84,8.44-8.43c-.08-7.15-3.2-14.55-8.93-19.01-3.11-2.42-6.44-4.34-10.35-5.19-4-.86-8.06-.79-12.04.23-6.77,1.74-13.09,6.9-15.89,13.33-1.62,3.71-2.62,7.55-2.41,11.64.2,4.02,1.3,7.82,3.25,11.34,5.45,9.8,17.35,14.37,28.03,11.62,10.76-2.77,18.21-13.01,18.33-23.96.04-4.6-3.88-8.44-8.44-8.44s-8.39,3.84-8.44,8.44Z"/>
          </g>
          <path class="st9" d="M219.8,222.82c0,9.04-7.34,16.38-16.38,16.38s-16.39-7.34-16.39-16.38,7.33-16.38,16.39-16.38,16.38,7.33,16.38,16.38Z"/>
          <path class="st6" d="M215.58,222.37c0,6.63-5.38,12.01-12.01,12.01s-12-5.38-12-12.01,5.37-12,12-12,12.01,5.37,12.01,12Z"/>
        </g>
      </g>
      <g>
        <g>
          <path class="st5" d="M23.32,123.42c-.33,13.25,0,76.44,0,76.44,0,35.6,19.95,68.61,94.29,68.3,73.58-.31,91-32.7,91-68.3v-76.44H23.32Z"/>
          <path d="M14.88,123.42c-.36,14.65-.16,29.33-.12,43.98.03,11.23,0,22.47.13,33.7.18,14.86,3.82,30.22,12.77,42.32,5.26,7.09,11.65,12.96,19.17,17.62,8.33,5.17,17.78,8.67,27.27,11,12.37,3.04,25.25,4.25,37.97,4.5,13.53.27,27.14-.57,40.47-3.03,17.92-3.3,36.42-10.67,48.49-24.86,5.31-6.25,9.19-13.22,11.87-20.96,2.44-7.04,3.56-14.58,3.99-22,.21-3.52.17-7.04.17-10.56v-71.72c0-4.6-3.84-8.44-8.44-8.44H23.32c-4.6,0-8.44,3.84-8.44,8.44s3.84,8.43,8.44,8.43h185.29c-2.81-2.81-5.62-5.62-8.43-8.43v71.21c0,5.89,0,11.77-.79,17.64.1-.75.2-1.5.3-2.25-.78,5.74-2.18,11.39-4.42,16.75.28-.67.57-1.34.85-2.01-1.79,4.24-4.09,8.24-6.9,11.89.44-.57.88-1.14,1.32-1.71-2.79,3.58-6.02,6.78-9.61,9.56.57-.44,1.14-.88,1.71-1.32-4.62,3.56-9.73,6.4-15.09,8.68.67-.28,1.35-.57,2.02-.85-9.14,3.83-18.87,6.05-28.67,7.37.74-.1,1.49-.2,2.24-.3-17.35,2.31-35.3,2.33-52.65.02.74.1,1.49.2,2.24.3-9.96-1.35-19.84-3.62-29.13-7.51.68.28,1.34.57,2.01.85-5.58-2.37-10.9-5.33-15.72-9.03.57.44,1.14.88,1.71,1.32-3.75-2.91-7.15-6.25-10.06-10,.44.56.88,1.14,1.32,1.71-2.89-3.75-5.26-7.85-7.11-12.21.29.68.57,1.35.85,2.02-2.23-5.31-3.65-10.91-4.43-16.62.1.74.2,1.5.3,2.24-.61-4.53-.72-9.06-.74-13.62-.03-5.91-.05-11.82-.07-17.73-.06-16.45-.14-32.91-.01-49.36.02-2.35.03-4.7.1-7.04.11-4.6-3.93-8.44-8.44-8.44s-8.32,3.84-8.44,8.44Z"/>
        </g>
        <path class="st6" d="M24.02,108.25c-.33,13.25,0,91.61,0,91.61,0,35.6,19.96,68.61,94.29,68.3,73.59-.31,91.01-32.7,91.01-68.3v-91.61H24.02Z"/>
      </g>
      <g>
        <path class="st2" d="M60.97,230.51c.58,2.61-3.81,5.79-9.79,7.11-5.99,1.33-11.3.28-11.87-2.33-.58-2.61,3.81-5.8,9.8-7.11,5.98-1.32,11.3-.27,11.87,2.34Z"/>
        <path class="st2" d="M171.51,230.51c-.57,2.61,3.81,5.79,9.8,7.11,5.98,1.33,11.3.28,11.87-2.33.58-2.61-3.81-5.8-9.79-7.11-5.98-1.32-11.3-.27-11.88,2.34Z"/>
        <g>
          <g>
            <g>
              <path d="M78.66,218.86s-4.01-5.28-12.98-5.28-13.03,5.28-13.03,5.28c0,0-2.03-15.33,13.03-15.33s12.98,15.33,12.98,15.33Z"/>
              <path d="M79.39,218.43c-3.03-3.95-8.56-5.56-13.31-5.7-4.83-.13-10.91,1.5-14.03,5.53.48.2.96.4,1.44.59-.59-4.58.83-10.02,4.85-12.64,3.73-2.44,9.48-2.49,13.46-.66,3.11,1.43,4.94,4.32,5.7,7.56.43,1.84.57,3.86.32,5.74-.14,1.07,1.54,1.06,1.69,0,.61-4.58-.75-9.95-4.28-13.07-3.37-2.99-8.28-3.49-12.58-2.88-3.79.54-7.12,2.63-9.02,5.99-1.62,2.89-2.25,6.67-1.82,9.96.08.62.93,1.26,1.44.6,2.72-3.52,7.8-4.91,12.02-5.03,3.4-.09,6.82.7,9.75,2.46.79.48,1.54,1.04,2.21,1.67.21.2.41.4.61.62.06.07.38.46.1.1.66.85,2.12.01,1.46-.85Z"/>
            </g>
            <path d="M55.26,207.81s-2.06.05-5.04-1.33c-2.98-1.38-5.13-4.93-5.13-4.93,0,0-1.23,4.83,2.51,7.65,2.74,2.06,5.91,2.51,5.91,2.51l1.75-3.9Z"/>
            <path d="M52.43,212.89s-1.74.33-4.49.32c-2.76-.02-5.64-1.97-5.64-1.97,0,0,.65,4.12,4.69,5.03,2.81.63,5.33.19,5.33.19l.1-3.56Z"/>
          </g>
          <g>
            <g>
              <path d="M152.42,218.86s4-5.28,12.98-5.28,13.03,5.28,13.03,5.28c0,0,2.03-15.33-13.03-15.33s-12.98,15.33-12.98,15.33Z"/>
              <path d="M153.15,219.28c-.27.35-.01.03.05-.05.18-.2.37-.4.56-.58.64-.63,1.36-1.16,2.12-1.65,2.84-1.82,6.19-2.56,9.53-2.59,4.32-.04,9.65,1.44,12.43,5.04.51.66,1.36.02,1.44-.6.6-4.58-.78-9.95-4.31-13.07-3.38-2.99-8.29-3.49-12.59-2.88-3.79.53-7.12,2.63-9,5.99-1.62,2.89-2.23,6.67-1.8,9.96.14,1.06,1.83,1.07,1.69,0-.61-4.58.79-10.02,4.81-12.64,3.73-2.44,9.47-2.49,13.45-.66,3.11,1.43,4.94,4.32,5.71,7.56.43,1.84.59,3.86.35,5.74.47-.2.95-.4,1.44-.59-3.07-3.97-8.88-5.49-13.63-5.54-4.84-.04-10.63,1.69-13.71,5.7-.66.86.81,1.7,1.46.85Z"/>
            </g>
            <path d="M175.83,207.81s2.05.05,5.03-1.33c2.98-1.38,5.13-4.93,5.13-4.93,0,0,1.24,4.83-2.51,7.65-2.74,2.06-5.91,2.51-5.91,2.51l-1.75-3.9Z"/>
            <path d="M178.65,212.89s1.74.33,4.49.32c2.76-.02,5.64-1.97,5.64-1.97,0,0-.64,4.12-4.69,5.03-2.81.63-5.34.19-5.34.19l-.1-3.56Z"/>
          </g>
        </g>
        <path d="M101.58,241.39c.09,1.87.83,3.78,1.92,5.27,2.69,3.66,7.03,4.97,11.42,5.06,6.34.13,13.79-3.04,14.56-10.1.14-1.31-1.2-2.41-2.41-2.41-1.42,0-2.27,1.1-2.41,2.41.14-1.3-.05.07-.17.45-.06.18-.13.35-.2.53.31-.78-.01-.02-.1.16-.12.22-.25.44-.38.65-.08.13-.63.84-.22.33-.36.45-.77.84-1.21,1.21-.21.17-.21.17-.01,0-.17.13-.36.25-.55.38-.34.21-.69.39-1.04.56-.43.21-1.53.54-2.31.71-1.04.23-2.11.28-3.17.29-.94.01-1.88-.04-2.81-.2-.48-.08-.96-.21-1.42-.34-.21-.06-1.08-.4-.9-.32-.35-.16-.7-.35-1.04-.55-.12-.08-.25-.16-.37-.24-.58-.39.34.3-.18-.13-.25-.21-.49-.45-.71-.68-.09-.09-.17-.18-.25-.28-.41-.46.29.41-.06-.07-.31-.43-.57-.9-.8-1.38-.12-.24.17.48-.06-.17-.06-.19-.12-.38-.17-.57-.08-.28-.14-.56-.18-.85.14.99.05.51.05.27-.15-3.09-4.98-3.11-4.83,0h0Z"/>
      </g>
      <g>
        <g>
          <path class="st3" d="M116.52,59.01c-.09,0-.18,0-.28,0-.09,0-.18,0-.27,0-94.61,0-106.22,81.06-107.31,95.47-.42,5.44.16,34.29.16,34.29,0,.66,0,1.33.02,1.99,14.61-1.14,45.25-5.92,77.6-25.66,12.26-7.48,22.05-16.57,29.81-25.85,7.77,9.28,17.56,18.37,29.82,25.85,32.35,19.74,62.99,24.52,77.6,25.66.01-.66.02-1.33.02-1.99,0,0,.57-28.85.16-34.29-1.1-14.41-12.71-95.47-107.32-95.47Z"/>
          <path d="M116.52,50.57c-11.62.16-23.19,1.11-34.53,3.82-9.47,2.25-18.72,5.79-27.25,10.47-14.42,7.91-26.46,19.55-35.47,33.25-6.95,10.58-12,22.55-15.28,34.75-2.05,7.62-3.65,15.68-3.87,23.59-.32,11.42.06,22.89.27,34.31.08,4.32,3.79,8.81,8.44,8.44,23.1-1.82,45.58-8.34,66.42-18.39,17.91-8.65,34.12-20.31,46.96-35.59h-11.94c18.97,22.58,45.52,37.29,73.37,46.14,12.96,4.12,26.45,6.77,40.01,7.83,4.64.36,8.37-4.12,8.44-8.44.1-6.14.2-12.28.27-18.42.07-6.22.4-12.57-.16-18.78-.77-8.59-2.5-17.13-5.05-25.36-3.91-12.6-9.69-24.8-17.64-35.36-4.84-6.43-10.2-12.36-16.43-17.47-6.89-5.65-14.36-10.44-22.51-14.07-17.02-7.58-35.47-10.7-54.05-10.73-4.6,0-8.43,3.84-8.43,8.44s3.84,8.43,8.43,8.44c6.54,0,13.06.39,19.54,1.25-.75-.1-1.5-.2-2.25-.31,9.79,1.33,19.43,3.76,28.55,7.58-.67-.28-1.35-.57-2.01-.85,7.3,3.09,14.21,7.06,20.51,11.9-.57-.44-1.14-.88-1.71-1.32,6.18,4.78,11.71,10.35,16.49,16.53-.44-.57-.88-1.14-1.32-1.71,5.47,7.1,9.92,14.94,13.41,23.18-.29-.66-.57-1.34-.85-2.01,3.83,9.08,6.55,18.65,8.05,28.39.1.66.2,1.31.29,1.97-.11-.74-.21-1.49-.31-2.23.48,3.57.62,7.12.65,10.74.04,8.05-.09,16.11-.23,24.16-.04,2.02-.06,4.03-.09,6.04,2.81-2.81,5.62-5.62,8.43-8.44-2.75-.22-5.5-.52-8.24-.88.75.1,1.5.2,2.25.31-15.55-2.1-30.79-6.37-45.25-12.44.67.28,1.34.57,2.01.85-12.17-5.14-24.05-11.46-34.55-19.52.57.44,1.14.88,1.71,1.32-7.12-5.5-13.58-11.78-19.37-18.67-2.78-3.31-9.16-3.31-11.94,0-5.78,6.89-12.24,13.17-19.37,18.67.57-.43,1.14-.88,1.71-1.32-10.5,8.06-22.37,14.38-34.55,19.52.67-.28,1.34-.57,2.02-.85-14.46,6.07-29.7,10.34-45.25,12.44.74-.1,1.49-.2,2.24-.31-2.74.36-5.49.66-8.24.88,2.81,2.82,5.62,5.62,8.43,8.44-.11-6.14-.2-12.28-.26-18.42-.07-6.22-.39-12.57.17-18.78.11-1.25.26-2.5.42-3.74-.1.74-.2,1.49-.3,2.23,1.24-9.24,3.64-18.35,6.99-27.04.43-1.12.88-2.22,1.35-3.32-.28.67-.57,1.35-.85,2.01,3.49-8.24,7.94-16.08,13.41-23.18-.44.56-.88,1.14-1.32,1.71,4.78-6.18,10.3-11.75,16.48-16.53-.57.45-1.13.88-1.71,1.32,6.29-4.84,13.2-8.8,20.5-11.9-.67.28-1.35.56-2.01.85,9.12-3.82,18.76-6.25,28.54-7.58-.74.1-1.49.2-2.24.31,6.68-.89,13.36-1.17,20.09-1.25,4.6-.06,8.44-3.79,8.44-8.44s-3.84-8.5-8.44-8.44Z"/>
        </g>
        <path class="st4" d="M116.52,59.01c-.09,0-.18,0-.28,0-.09,0-.18,0-.27,0-94.61,0-106.22,81.06-107.31,95.47-.42,5.44.16,34.29.16,34.29,0,.66,0,1.33.02,1.99,14.61-1.14,45.25-5.92,77.6-25.66,12.26-7.48,22.05-16.57,29.81-25.85,7.77,9.28,17.56,18.37,29.82,25.85,32.35,19.74,62.99,24.52,77.6,25.66.01-.66.02-1.33.02-1.99,0,0,.57-28.85.16-34.29-1.1-14.41-12.71-95.47-107.32-95.47Z"/>
        <path class="st7" d="M8.66,160.16c1.09-14.4,12.7-95.46,107.31-95.46h.55c94.61,0,106.22,81.06,107.32,95.46.08,1.09.12,3.11.14,5.65.02-5.09,0-9.51-.14-11.33-1.1-14.41-12.71-95.47-107.32-95.47-.09,0-.18,0-.28,0-.09,0-.18,0-.27,0-94.61,0-106.22,81.06-107.31,95.47-.14,1.82-.17,6.25-.14,11.35.01-2.55.06-4.58.14-5.67Z"/>
        <path class="st1" d="M146.87,159.8c-12.49-7.7-22.53-16.94-30.48-26.43-7.94,9.48-18.03,18.65-30.48,26.43-38.69,24.19-76.94,30.44-76.93,31.1,14.62-1.13,45.25-5.92,77.6-25.66,12.25-7.47,22.05-16.58,29.81-25.85,7.76,9.27,17.56,18.38,29.82,25.85,32.35,19.74,62.98,24.52,77.59,25.66.01-.66-32.18-3.49-76.93-31.1Z"/>
      </g>
    </g>
    <g>
      <g>
        <g>
          <path class="st3" d="M18.75,145.64c-8.12,20.39-7.32,47.92-6.28,61.38.52-10.09,2.84-40.75,12.39-62.28,9.42-21.22,26.23-36.42,32.2-41.38l-3.94-3.79s-23.21,18.06-34.37,46.06Z"/>
          <path d="M10.62,143.4c-4.42,11.19-6.11,23.41-6.87,35.35-.6,9.41-.43,18.88.29,28.28.17,2.3.8,4.29,2.47,5.96,1.58,1.58,3.74,2.47,5.97,2.47,4.78,0,8.2-3.84,8.43-8.43.37-7.04,1.04-14.07,1.97-21.07-.1.75-.2,1.5-.3,2.25,1.82-13.56,4.54-27.26,9.86-39.92-.29.68-.57,1.35-.85,2.02,3.45-8.11,8.09-15.63,13.45-22.6-.44.57-.88,1.14-1.32,1.7,5.69-7.34,12.15-14.14,19.31-20.08,3.49-2.9,3.09-8.96,0-11.93-1.32-1.27-2.63-2.53-3.94-3.79-1.62-1.56-3.7-2.47-5.97-2.47-2.45,0-4.11,1.03-5.96,2.47-3.77,2.94-7.21,6.36-10.5,9.82-7.98,8.39-15.09,17.84-20.58,28.05-2.07,3.85-3.84,7.85-5.46,11.91-.8,1.99-.19,4.73.85,6.5,1.1,1.89,2.93,3.3,5.04,3.88,2.18.6,4.55.29,6.5-.85,2.05-1.21,3.02-2.91,3.88-5.05.24-.62.5-1.22.76-1.83-.29.67-.57,1.34-.85,2.01,3.7-8.68,8.64-16.77,14.39-24.23-.44.57-.88,1.14-1.32,1.71,5.61-7.24,11.97-14.33,19.22-19.99h-11.93c1.31,1.26,2.62,2.52,3.93,3.79v-11.93c-17.32,14.38-31.15,33.46-38.08,54.95-3.22,9.98-5.2,20.34-6.62,30.71-1.09,7.96-1.94,15.94-2.36,23.97h16.87c-.99-12.93-.96-26.02.74-38.89-.1.75-.2,1.5-.3,2.25,1.03-7.67,2.69-15.29,5.54-22.5.79-2,.19-4.72-.85-6.5-1.1-1.89-2.93-3.3-5.04-3.88-2.18-.59-4.55-.29-6.5.86-2.05,1.2-3.03,2.9-3.88,5.04Z"/>
        </g>
        <g>
          <path class="st3" d="M18.75,145.64c-8.12,20.39-7.32,47.92-6.28,61.38.52-10.09,2.84-40.75,12.39-62.28,9.42-21.22,26.23-36.42,32.2-41.38l-3.94-3.79s-23.21,18.06-34.37,46.06Z"/>
          <path class="st3" d="M12.07,207.06c-1.11-14.3-1.76-41.31,6.31-61.57,11.07-27.79,34.26-46.05,34.49-46.23l.28-.21,4.51,4.34-.35.29c-6.56,5.45-22.83,20.37-32.09,41.23-9.61,21.69-11.89,53.05-12.35,62.14h-.8ZM53.1,100.12c-2.64,2.13-23.63,19.73-33.97,45.67-6.95,17.46-7.38,40-6.64,54.96,1.02-13.07,3.95-37.98,12.01-56.17,9.16-20.66,25.14-35.53,31.96-41.23l-3.36-3.23Z"/>
        </g>
      </g>
      <g>
        <g>
          <path class="st3" d="M213.74,145.64c8.12,20.39,7.32,47.92,6.28,61.38-.52-10.09-2.84-40.75-12.39-62.28-9.42-21.22-26.24-36.42-32.2-41.38l3.93-3.79s23.22,18.06,34.37,46.06Z"/>
          <path d="M205.6,147.88c2.85,7.21,4.51,14.83,5.54,22.5-.1-.75-.2-1.5-.3-2.25,1.7,12.87,1.73,25.96.74,38.89h16.87c-.5-9.62-1.57-19.22-3.05-28.74-1.99-12.77-5.09-25.27-10.21-37.15-4.54-10.55-11.22-20.08-18.67-28.77-4.62-5.38-9.68-10.43-15.14-14.96v11.93c1.31-1.26,2.63-2.52,3.94-3.79h-11.94c7.26,5.65,13.62,12.75,19.23,19.99-.44-.57-.88-1.14-1.32-1.71,5.75,7.46,10.7,15.56,14.39,24.23-.28-.67-.57-1.34-.85-2.01.27.61.51,1.21.76,1.83.86,2.14,1.82,3.84,3.88,5.05,1.95,1.14,4.32,1.45,6.49.85,2.11-.58,3.94-1.99,5.05-3.88,1.03-1.77,1.64-4.51.85-6.5-2.6-6.51-5.67-12.74-9.41-18.68-3.32-5.29-7.12-10.31-11.12-15.1-4.54-5.44-9.52-10.58-14.95-15.14-.35-.29-.7-.58-1.06-.87-1.86-1.44-3.51-2.47-5.97-2.47-2.27,0-4.34.91-5.97,2.47-1.31,1.26-2.62,2.52-3.93,3.79-3.09,2.97-3.49,9.03,0,11.93,7.16,5.94,13.62,12.74,19.31,20.08-.43-.57-.88-1.13-1.32-1.7,5.36,6.96,10,14.49,13.45,22.6-.28-.68-.57-1.35-.85-2.02,5.33,12.66,8.04,26.36,9.86,39.92-.1-.75-.2-1.49-.3-2.25.93,6.99,1.6,14.02,1.97,21.07.23,4.59,3.65,8.43,8.43,8.43,2.23,0,4.39-.89,5.97-2.47,1.67-1.67,2.29-3.67,2.46-5.96.72-9.4.87-18.87.29-28.28-.73-11.93-2.45-24.18-6.87-35.35-.85-2.14-1.82-3.84-3.88-5.04-1.95-1.14-4.32-1.45-6.5-.86-2.11.58-3.94,1.99-5.04,3.88-1.04,1.78-1.64,4.5-.85,6.5Z"/>
        </g>
        <g>
          <path class="st3" d="M213.74,145.64c8.12,20.39,7.32,47.92,6.28,61.38-.52-10.09-2.84-40.75-12.39-62.28-9.42-21.22-26.24-36.42-32.2-41.38l3.93-3.79s23.22,18.06,34.37,46.06Z"/>
          <path class="st3" d="M220.41,207.06h-.8c-.46-9.11-2.73-40.46-12.35-62.15-9.25-20.85-25.52-35.78-32.09-41.23l-.35-.29,4.51-4.34.27.21c.24.18,23.43,18.45,34.5,46.23,8.07,20.25,7.42,47.26,6.31,61.57ZM176.03,103.35c6.82,5.71,22.8,20.59,31.96,41.23,8.06,18.19,10.99,43.09,12.01,56.16.73-14.96.3-37.51-6.65-54.95-10.34-25.96-31.34-43.54-33.97-45.67l-3.35,3.23Z"/>
        </g>
      </g>
    </g>
    <g>
      <g>
        <g>
          <path class="st5" d="M211.43,70.76s-34.98-36.65-94.24-36.65c-.21,0-.43,0-.65,0s-.43,0-.65,0c-59.25,0-94.23,36.65-94.23,36.65l40.74,44.18s21.4-14.21,54.14-14.22c32.74,0,54.14,14.22,54.14,14.22l40.74-44.18Z"/>
          <path d="M217.39,64.8c-1.69-1.77-3.57-3.37-5.44-4.94-5.45-4.55-11.24-8.72-17.3-12.43-19.09-11.67-40.63-18.66-62.84-21-24.53-2.58-49.96,1-72.71,10.58-14.55,6.13-28.22,14.18-40.08,24.66-1.14,1-2.27,2.03-3.33,3.12-3.27,3.43-3.17,8.5,0,11.93,7.5,8.13,15,16.26,22.49,24.38,6.08,6.6,12.16,13.19,18.25,19.78,2.45,2.66,7.17,3.34,10.22,1.32,3.44-2.28,7.3-4.03,11.09-5.63-.67.29-1.34.57-2.01.85,8.99-3.77,18.47-6.28,28.12-7.59-.75.1-1.5.2-2.24.3,9.91-1.31,19.95-1.31,29.86,0-.75-.1-1.5-.2-2.25-.3,9.65,1.3,19.14,3.82,28.13,7.59-.67-.28-1.35-.57-2.02-.85,3.79,1.6,7.65,3.35,11.1,5.63,3.05,2.02,7.78,1.34,10.23-1.32,7.5-8.12,15-16.26,22.49-24.38,6.08-6.6,12.17-13.2,18.25-19.79,3.12-3.38,3.35-8.58,0-11.93-3.15-3.15-8.81-3.38-11.93,0-7.5,8.13-15,16.26-22.49,24.38-6.08,6.6-12.17,13.19-18.25,19.79,3.41-.44,6.82-.88,10.22-1.32-4.25-2.82-9.1-4.83-13.79-6.77-10.85-4.49-22.38-6.98-34.05-8.1-13.78-1.33-27.9-.02-41.3,3.46-8.47,2.2-16.85,5.4-24.56,9.58-1.06.57-2.12,1.16-3.12,1.82,3.41.45,6.82.88,10.22,1.32-7.49-8.13-15-16.26-22.49-24.38-6.08-6.6-12.16-13.19-18.25-19.79v11.93c2.69-2.81,5.78-5.3,8.85-7.68-.57.44-1.14.88-1.71,1.32,9.43-7.29,19.86-13.28,30.84-17.93-.68.28-1.34.56-2.02.85,11.44-4.83,23.48-8.12,35.79-9.79-.75.1-1.5.2-2.24.3,12.84-1.7,25.96-1.7,38.81,0-.74-.1-1.49-.2-2.24-.3,12.31,1.67,24.35,4.96,35.79,9.79-.67-.28-1.34-.57-2.02-.85,10.97,4.65,21.4,10.64,30.83,17.93-.57-.44-1.13-.88-1.71-1.32,3.07,2.38,6.16,4.87,8.86,7.68,3.18,3.33,8.74,3.2,11.93,0,3.31-3.31,3.17-8.61,0-11.93Z"/>
        </g>
        <g>
          <path class="st3" d="M211.43,70.76s-34.98-36.65-94.24-36.65c-.21,0-.43,0-.65,0s-.43,0-.65,0c-59.25,0-94.23,36.65-94.23,36.65l40.74,44.18s21.4-14.21,54.14-14.22c32.74,0,54.14,14.22,54.14,14.22l40.74-44.18Z"/>
          <path class="st3" d="M170.75,115.47l-.29-.19c-.21-.14-21.69-14.14-53.92-14.15-32.23,0-53.71,14.01-53.92,14.15l-.29.19-.23-.25-40.99-44.45.26-.28c.35-.37,35.78-36.77,94.52-36.77h.66s.64,0,.64,0c58.75,0,94.18,36.4,94.53,36.77l.26.28-.26.28-40.97,44.43ZM116.54,100.32c30.45,0,51.39,12.43,54.08,14.1l40.25-43.65c-3.36-3.33-37.97-36.26-93.68-36.26h-.64s-.66,0-.66,0c-55.73,0-90.32,32.93-93.67,36.26l40.24,43.65c2.68-1.68,23.63-14.1,54.08-14.1Z"/>
        </g>
        <g>
          <path class="st8" d="M207.31,66.95l-36.63,39.72s-21.4-14.21-54.14-14.22c-32.74.01-54.14,14.22-54.14,14.22l-36.63-39.72c-2.71,2.34-4.11,3.81-4.11,3.81l40.74,44.18s21.4-14.21,54.14-14.22c32.74,0,54.14,14.22,54.14,14.22l40.74-44.18s-1.4-1.47-4.12-3.81Z"/>
          <path class="st3" d="M170.75,115.47l-.29-.19c-.21-.14-21.69-14.14-53.92-14.15-32.23,0-53.71,14.01-53.92,14.15l-.29.19-.23-.25-40.99-44.45.26-.28s1.44-1.51,4.13-3.84l.3-.25.26.29,36.4,39.47c2.68-1.67,23.63-14.09,54.08-14.1,30.45.01,51.39,12.43,54.08,14.1l36.66-39.75.29.25c2.7,2.33,4.13,3.82,4.14,3.84l.26.28-.26.28-40.97,44.43ZM116.54,100.32c30.45,0,51.39,12.43,54.08,14.1l40.25-43.65c-.5-.5-1.69-1.66-3.52-3.26l-36.6,39.68-.29-.19c-.21-.14-21.69-14.14-53.92-14.15-32.24.01-53.71,14.01-53.92,14.15l-.29.19-.23-.25-36.36-39.43c-1.84,1.6-3.02,2.76-3.52,3.26l40.25,43.65c2.68-1.68,23.63-14.1,54.08-14.1Z"/>
        </g>
      </g>
      <g>
        <g>
          <g>
            <path class="st5" d="M139.14,67.45c0,12.49-10.12,22.6-22.6,22.6s-22.6-10.11-22.6-22.6,10.12-22.59,22.6-22.59,22.6,10.12,22.6,22.59Z"/>
            <path d="M131.91,67.45c0,1.01-.07,2.02-.2,3.02.09-.65.17-1.29.26-1.93-.28,1.94-.78,3.82-1.52,5.64.25-.58.48-1.15.73-1.73-.54,1.28-1.19,2.49-1.93,3.66-.17.27-.35.53-.53.79-1.02,1.44.92-1.14.17-.21-.47.57-.96,1.11-1.48,1.63-.44.45-.91.87-1.39,1.28-.41.35-1.43,1.12.47-.34-.33.26-.68.5-1.02.74-1.23.83-2.55,1.53-3.92,2.1.57-.24,1.15-.48,1.73-.73-1.82.74-3.69,1.24-5.64,1.52.64-.09,1.28-.17,1.92-.26-2.01.25-4.02.25-6.02,0,.64.09,1.28.17,1.92.26-1.94-.28-3.82-.78-5.63-1.52.57.25,1.15.48,1.72.73-1.27-.54-2.49-1.18-3.66-1.92-.26-.17-.52-.35-.78-.54-1.45-1.02,1.14.92.21.17-.57-.46-1.11-.96-1.64-1.48-.45-.45-.87-.92-1.28-1.39-.35-.41-1.12-1.44.34.47-.25-.33-.5-.68-.73-1.03-.84-1.24-1.52-2.56-2.1-3.93.24.58.49,1.15.73,1.73-.74-1.82-1.24-3.7-1.52-5.64.09.64.18,1.28.26,1.93-.26-2.01-.26-4.02,0-6.03-.08.64-.17,1.28-.26,1.92.27-1.95.78-3.82,1.52-5.64-.24.58-.49,1.15-.73,1.73.54-1.28,1.18-2.49,1.93-3.65.17-.27.35-.53.53-.79,1.02-1.45-.92,1.14-.17.21.46-.58.96-1.11,1.48-1.64.45-.45.91-.87,1.39-1.28.41-.35,1.43-1.12-.48.35.34-.26.68-.5,1.04-.73,1.23-.84,2.55-1.53,3.91-2.1-.57.24-1.15.48-1.72.73,1.82-.74,3.69-1.25,5.63-1.51-.64.08-1.28.17-1.92.25,2.01-.25,4.02-.25,6.02,0-.64-.09-1.28-.17-1.92-.25,1.94.27,3.82.77,5.64,1.51-.58-.24-1.15-.48-1.73-.73,1.28.54,2.49,1.17,3.65,1.92.27.17.53.35.78.54,1.45,1.02-1.13-.93-.21-.17.57.46,1.11.96,1.63,1.48.45.44.87.92,1.28,1.4.35.4,1.12,1.43-.34-.48.25.33.49.68.73,1.03.83,1.23,1.52,2.56,2.1,3.92-.25-.57-.49-1.15-.73-1.73.74,1.82,1.24,3.7,1.52,5.64-.09-.64-.17-1.28-.26-1.92.13,1,.19,2,.2,3.01.03,3.94,3.27,7.23,7.24,7.23s7.26-3.29,7.23-7.23c-.1-13.59-9.6-25.93-22.95-29.03-13.25-3.06-27.73,3.43-33.62,15.85-3.08,6.5-3.86,13.68-2.13,20.69,1.67,6.78,5.92,12.41,11.37,16.6,5.11,3.91,11.78,5.86,18.18,5.71,7.11-.16,13.6-2.93,19.02-7.44,6.49-5.42,10.06-14.03,10.13-22.38.03-3.94-3.31-7.23-7.23-7.23s-7.2,3.29-7.24,7.23Z"/>
          </g>
          <path class="st4" d="M139.14,67.45c0,12.49-10.12,22.6-22.6,22.6s-22.6-10.11-22.6-22.6,10.12-22.59,22.6-22.59,22.6,10.12,22.6,22.59Z"/>
          <path class="st7" d="M95.63,67.45c0-12.19,9.66-22.13,21.76-22.58-.28-.01-.56-.02-.85-.02-12.48,0-22.6,10.12-22.6,22.59s10.12,22.6,22.6,22.6c.29,0,.56,0,.85-.02-12.09-.44-21.76-10.38-21.76-22.58Z"/>
          <path class="st1" d="M137.45,67.45c0-12.19-9.66-22.13-21.75-22.58.28-.01.56-.02.84-.02,12.48,0,22.6,10.12,22.6,22.59s-10.12,22.6-22.6,22.6c-.28,0-.56,0-.84-.02,12.09-.44,21.75-10.38,21.75-22.58Z"/>
        </g>
        <g>
          <g>
            <polygon class="st5" points="128.66 63.21 120.79 63.21 120.79 55.34 112.3 55.34 112.3 63.21 104.43 63.21 104.43 71.69 112.3 71.69 112.3 79.57 120.79 79.57 120.79 71.69 128.66 71.69 128.66 63.21"/>
            <path d="M128.66,58.39h-7.87c1.6,1.61,3.21,3.21,4.82,4.83v-7.88c0-2.63-2.19-4.83-4.82-4.83h-8.49c-2.63,0-4.82,2.19-4.82,4.83v7.88c1.61-1.61,3.21-3.21,4.82-4.83h-7.87c-2.63,0-4.82,2.19-4.82,4.83v8.48c0,2.63,2.19,4.82,4.82,4.82h7.87c-1.61-1.61-3.21-3.21-4.82-4.82v7.88c0,2.63,2.2,4.82,4.82,4.82h8.49c2.63,0,4.82-2.19,4.82-4.82v-7.88c-1.61,1.61-3.21,3.21-4.82,4.82h7.87c2.63,0,4.82-2.19,4.82-4.82v-8.48c0-2.63-2.19-4.83-4.82-4.83s-4.82,2.19-4.82,4.83v8.48c1.61-1.61,3.22-3.21,4.82-4.82h-7.87c-2.63,0-4.83,2.19-4.83,4.82v7.88c1.61-1.6,3.22-3.21,4.83-4.82h-8.49c1.61,1.61,3.21,3.22,4.82,4.82v-7.88c0-2.63-2.19-4.82-4.82-4.82h-7.87c1.6,1.61,3.21,3.21,4.82,4.82v-8.48c-1.6,1.61-3.21,3.21-4.82,4.82h7.87c2.63,0,4.82-2.19,4.82-4.82v-7.88c-1.61,1.61-3.21,3.21-4.82,4.81h8.49c-1.61-1.6-3.22-3.21-4.83-4.81v7.88c0,2.63,2.19,4.82,4.83,4.82h7.87c2.63,0,4.82-2.19,4.82-4.82s-2.19-4.83-4.82-4.83Z"/>
          </g>
          <polygon class="st3" points="128.66 63.21 120.79 63.21 120.79 55.34 112.3 55.34 112.3 63.21 104.43 63.21 104.43 71.69 112.3 71.69 112.3 79.57 120.79 79.57 120.79 71.69 128.66 71.69 128.66 63.21"/>
          <g>
            <rect class="st8" x="112.3" y="55.34" width="1.2" height="7.88"/>
            <rect class="st8" x="112.3" y="71.69" width="1.2" height="7.88"/>
            <rect class="st8" x="104.43" y="63.21" width="1.2" height="8.48"/>
          </g>
        </g>
      </g>
    </g>
  </g>
</svg>