<?xml version="1.0" encoding="UTF-8"?>
<svg id="Layer_1" xmlns="http://www.w3.org/2000/svg" version="1.1" viewBox="0 0 264.96 338.65">
  <!-- Generator: Adobe Illustrator 29.6.1, SVG Export Plug-In . SVG Version: 2.1.1 Build 9)  -->
  <defs>
    <style>
      .st0 {
        fill: #561a05;
      }

      .st1 {
        fill: #000002;
      }

      .st2 {
        fill: #d8667e;
      }

      .st3 {
        fill: #b6e259;
      }

      .st4 {
        fill: #fff2e9;
      }

      .st5 {
        fill: #f38b9e;
      }

      .st6 {
        fill: #6f2a0e;
      }

      .st7 {
        fill: #fff;
      }

      .st8 {
        fill: #fde5d2;
      }

      .st9 {
        fill: #ffebde;
      }

      .st10 {
        fill: #a13c12;
      }

      .st11 {
        fill: #ffcad5;
      }

      .st12 {
        fill: #fff3e7;
      }
    </style>
  </defs>
  <g>
    <g>
      <g>
        <path class="st9" d="M145.2,274.74s45.3,2.66,43.7-11.98c-1.59-14.64-44.77-10.07-44.77-10.07l1.07,22.06Z"/>
        <path d="M145.2,278.48c4.81.28,9.67.25,14.49.06,8.37-.33,17.2-1.06,24.94-4.51,3.38-1.49,6.15-3.91,7.52-7.38,1.44-3.63-.02-7.78-2.43-10.59-2.49-2.88-6.43-4.45-9.99-5.48-4.26-1.22-8.75-1.73-13.15-2.04-7.44-.53-15.03-.38-22.45.41-1.94.2-3.83,1.54-3.73,3.73.36,7.35.72,14.71,1.07,22.06.09,2.03,1.62,3.73,3.73,3.73,1.96,0,3.83-1.7,3.73-3.73-.35-7.35-.71-14.71-1.06-22.06-1.25,1.24-2.49,2.49-3.74,3.73,4.98-.52,10.01-.69,15-.67,2.14.01,4.27.07,6.4.2,1.05.06,2.09.14,3.12.23.52.05,1.04.1,1.56.16.25.03.51.06.77.09.17.02.34.05.51.07-.57-.08-.65-.09-.23-.03,2.03.28,4.05.67,6.02,1.2.88.23,1.74.5,2.6.81.28.1,1.68.69.5.18.44.19.87.4,1.3.62.68.36,1.32.76,1.95,1.22-1.06-.78-.03,0,.2.22.29.27.57.57.82.88-.84-1.02-.09-.09.08.2.19.3.64,1.43.13.15.13.31.21.63.29.96.28,1.13-.01-.8.05.34.01.32,0,.63-.03.95.14-1.42.03-.32-.08.05-.29,1.04.37-.69,0,.08-.16.32-.35.62-.55.9-.37.53.62-.76.21-.27-.1.12-.22.24-.32.35-.23.24-.47.46-.73.68-.66.57.76-.51-.2.14-.35.24-.71.46-1.08.67-.33.2-.68.37-1.02.54-.27.13-1.59.69-.4.2-.86.36-1.74.66-2.63.93-1.88.58-3.8,1-5.74,1.35-.99.18-1.97.33-2.96.47,1.18-.17-.49.06-.77.09-.59.08-1.18.14-1.77.2-2.08.21-4.16.35-6.25.46-5.22.26-10.48.3-15.7,0-2.03-.12-3.73,1.78-3.73,3.72,0,2.12,1.7,3.62,3.73,3.73Z"/>
      </g>
      <path class="st5" d="M165.42,271.51l-.53-15.15s-2.66-.31-7.92-.11c-5.26.21-9.5-.47-9.5-.47l2.25,16.26s6.26.23,9.71-.03c3.46-.25,5.98-.5,5.98-.5Z"/>
      <g>
        <rect class="st1" x="163.14" y="253.43" width="7.26" height="20.71" transform="translate(-17.49 11.9) rotate(-3.88)"/>
        <path d="M163.1,275.22l-1.51-22.27,8.85-.6,1.51,22.27-8.85.6ZM163.3,254.45l1.3,19.05,5.63-.38-1.3-19.06-5.63.38Z"/>
      </g>
    </g>
    <polygon class="st11" points="147.84 255.86 162.35 255.57 163.25 271.17 159.48 259.02 149.2 260.8 147.84 255.86"/>
  </g>
  <g>
    <g>
      <path class="st9" d="M73.9,256.12s-27.13,36.36-14.03,43.1c13.1,6.72,28.91-26.7,28.91-26.7l-14.88-16.4Z"/>
      <path d="M70.68,254.24c-3.13,4.2-5.99,8.64-8.66,13.14-2.24,3.79-4.32,7.68-6.03,11.73-1.7,4.01-3.14,8.12-3.41,12.5-.24,4,1.14,7.78,4.39,10.19,3.7,2.75,8.42,2.33,12.42.62,3.95-1.69,7.26-5.05,10.01-8.28,3.01-3.54,5.65-7.41,8.05-11.39,1.63-2.71,3.18-5.48,4.54-8.35.76-1.59.63-3.19-.58-4.51-4.96-5.47-9.92-10.93-14.88-16.4-1.36-1.5-3.89-1.38-5.28,0-1.48,1.49-1.36,3.78,0,5.28,4.96,5.47,9.92,10.93,14.87,16.39-.2-1.51-.39-3.01-.58-4.53-2.54,5.36-5.66,10.53-9.14,15.32-.32.45-.65.89-.98,1.32.59-.76.01-.02-.09.12-.17.21-.35.43-.51.64-.74.91-1.51,1.79-2.31,2.65-.71.76-1.46,1.5-2.22,2.2-.38.33-.76.66-1.14.98-.16.13-.85.66-.01.02-.25.19-.51.38-.77.56-.75.52-1.53.97-2.34,1.37-.22.1-.96.4.1-.03-.19.08-.39.14-.59.21-.44.16-.91.28-1.37.38-.28.04-1.02.12.2-.02-.2.02-.39.04-.59.04-.39.02-.79,0-1.18-.05,1.33.14-.03-.05-.38-.15-.2-.06-.39-.14-.58-.21,1.1.42.21.08-.04-.06-.31-.16-1.29-.9-.22-.06-.25-.2-.48-.42-.69-.66-.58-.63.51.8-.08-.13-.08-.13-.15-.27-.22-.42-.42-.8.28.74.06.16-.12-.31-.21-.62-.28-.95-.04-.17-.08-.33-.1-.5-.13-.69.12,1.01.04.3-.09-.81-.07-1.63-.02-2.44.02-.2.05-.4.07-.6.07-.77-.14.95-.03.17.06-.42.15-.84.23-1.27.2-.96.46-1.93.75-2.87.28-.94.61-1.86.95-2.77.19-.48.38-.96.57-1.43.34-.83-.33.77.02-.06.14-.32.28-.63.42-.95,3.21-7.21,7.45-13.98,11.93-20.45.69-1,1.4-2.02,2.14-2.99,1.22-1.64.27-4.16-1.33-5.11-1.91-1.11-3.9-.29-5.11,1.34Z"/>
    </g>
    <path class="st5" d="M66.06,275.05l8.88,5.08,2.93-14.46-3.61-4.02s-3.64,5.11-5.33,8.14c-1.69,3.02-2.87,5.26-2.87,5.26Z"/>
    <g>
      <rect class="st1" x="65.32" y="268.73" width="7.25" height="20.7" transform="translate(-207.93 201.76) rotate(-60.52)"/>
      <path d="M76.48,288.43l-19.43-10.99,4.36-7.72,19.43,10.99-4.36,7.71ZM59.25,276.84l16.62,9.4,2.78-4.91-16.62-9.4-2.78,4.91Z"/>
    </g>
  </g>
  <polygon class="st11" points="74.26 261.65 70.41 267.15 66.89 273.41 74.66 277.86 69.14 272.55 71.74 267.75 75.21 262.75 74.26 261.65"/>
  <g>
    <g>
      <path class="st9" d="M143.1,261.61h-59.86s-11.68,64.87-3.74,67.65c7.95,2.78,15.32-9.89,15.32-9.89h36.69s7.37,12.67,15.32,9.89c7.96-2.78-3.74-67.65-3.74-67.65Z"/>
      <path d="M143.1,257.55h-59.86c-1.68,0-3.6,1.22-3.92,2.99-2.29,12.71-4.15,25.52-5.5,38.35-.81,7.75-1.64,15.74-.96,23.53.23,2.64.54,5.81,2.09,8.06,3.12,4.51,9.49,3.7,13.71,1.24,3.99-2.33,7.37-6.32,9.69-10.28-1.17.67-2.34,1.34-3.52,2.02h36.69c-1.17-.68-2.34-1.35-3.51-2.02,1.79,3.08,4.2,6.02,6.94,8.29,4.11,3.39,10.73,6.02,15.38,2.06,2.18-1.86,2.64-5.22,2.99-7.87.43-3.27.41-6.6.31-9.9-.27-8.77-1.29-17.53-2.43-26.22-.99-7.59-2.12-15.16-3.39-22.7-.25-1.52-.51-3.04-.79-4.55-.4-2.19-3.02-3.39-5-2.84-2.29.62-3.24,2.82-2.85,5.01.72,3.99,1.36,7.99,1.99,12,.63,4.01,1.22,8.03,1.76,12.05.13.94-.13-.97,0-.03.04.26.08.53.11.8.08.53.14,1.06.21,1.6.16,1.17.29,2.34.44,3.51.27,2.26.53,4.53.76,6.8.79,7.68,1.62,15.62.88,23.33-.03.33-.07.66-.12.99.21-1.62.05-.4-.01-.02-.1.58-.23,1.15-.39,1.71-.06.22-.13.45-.21.67-.28.75.53-1.14.12-.3-.09.17-.18.33-.29.48-.37.57.88-.96.21-.31-.47.46,1.08-.72.42-.34,1.14-.65.72-.25-.14-.04-.98.22.92-.07-.05,0-.29.02-.57,0-.85-.01-.97-.05.94.18-.02-.01-.36-.08-.72-.19-1.08-.31-.92-.32.82.39-.08-.03-.26-.12-.51-.27-.77-.4-.51-.28-.99-.62-1.47-.96.86.62.06.03-.1-.1-.23-.19-.45-.38-.66-.58-.5-.45-.98-.93-1.44-1.42-.38-.4-.73-.81-1.09-1.23-.16-.2-.33-.4-.49-.6-.55-.69.57.75.05.06-.49-.63-.94-1.3-1.38-1.97-1.03-1.58-2.28-2.72-4.33-2.72h-34.33c-2.08,0-4.24-.14-5.5,2.02-.59.99-1.26,1.94-1.96,2.86.81-1.06-.26.31-.46.55-.36.43-.73.84-1.11,1.23-.4.43-.81.83-1.24,1.22-.21.2-.44.39-.66.58-.15.13-.31.25-.46.38.43-.34.47-.37.11-.11-.47.35-.97.65-1.48.93-.25.14-.51.27-.77.39.99-.46.14-.07-.09,0-.27.09-.54.16-.81.22-.95.22.95-.08-.02.01-.28.02-.56.02-.84.01-.46-.04-.38-.02.23.05-.2-.04-.39-.07-.57-.13-.22-.04-.43-.12-.64-.2,1.37.51,1.04.47.72.28-.56-.32.98.87.42.32-.58-.57.67.95.26.37-.12-.18-.22-.38-.32-.56-.34-.69.46,1.19.13.28-.09-.22-.15-.46-.22-.68-.17-.58-.28-1.16-.38-1.74-.03-.16-.05-.31-.08-.45-.1-.69.15,1.15.06.45-.04-.33-.08-.66-.1-1-.08-.79-.12-1.58-.16-2.37-.36-8.19.54-16.47,1.46-24.59.25-2.26.53-4.52.82-6.78.08-.53.14-1.06.21-1.6.03-.27.07-.53.1-.79-.16,1.22-.04.28,0,.03.15-1.12.31-2.23.47-3.35.53-3.78,1.11-7.54,1.71-11.3.49-3.05.99-6.1,1.54-9.14-1.3,1-2.62,1.99-3.93,2.99h59.86c5.25,0,5.25-8.14,0-8.14Z"/>
    </g>
    <g>
      <path class="st1" d="M174.93,334.14c0,1.82-27.65,3.3-61.76,3.3s-61.76-1.47-61.76-3.3,27.65-3.3,61.76-3.3,61.76,1.48,61.76,3.3Z"/>
      <path d="M113.17,338.65c-16.52,0-32.05-.34-43.73-.97-19.24-1.03-19.24-2.19-19.24-3.54s0-2.51,19.24-3.54c11.68-.63,27.22-.97,43.73-.97s32.05.34,43.73.97c19.24,1.03,19.24,2.19,19.24,3.54s0,2.51-19.24,3.54c-11.68.62-27.21.97-43.73.97ZM55.75,334.14c7.8,1.03,27.94,2.09,57.43,2.09s49.63-1.06,57.43-2.09c-7.8-1.03-27.93-2.09-57.43-2.09s-49.63,1.06-57.43,2.09Z"/>
    </g>
    <g>
      <g>
        <polygon class="st8" points="141.01 258.69 113.28 258.69 113.06 258.69 85.34 258.69 73.33 313.22 153.01 313.22 141.01 258.69"/>
        <path d="M141.01,251.24h-55.66c-3.19,0-6.49,2.26-7.19,5.48-2.86,12.98-5.72,25.97-8.58,38.95-1.15,5.19-2.29,10.38-3.43,15.58-1.03,4.69,2.15,9.44,7.19,9.44h79.68c5.04,0,8.23-4.75,7.19-9.44-2.86-13-5.72-25.98-8.58-38.96-1.14-5.2-2.29-10.38-3.43-15.57-.88-3.97-5.42-6.25-9.18-5.21-4.07,1.12-6.09,5.21-5.21,9.18,2.86,12.98,5.72,25.97,8.58,38.96,1.14,5.19,2.29,10.38,3.42,15.56,2.4-3.15,4.8-6.29,7.2-9.44h-79.68c2.4,3.15,4.8,6.29,7.2,9.44,2.86-12.98,5.72-25.97,8.58-38.96,1.14-5.18,2.29-10.37,3.43-15.56-2.4,1.82-4.79,3.65-7.19,5.48h55.66c4.06,0,7.46-3.39,7.46-7.46s-3.39-7.46-7.46-7.46Z"/>
      </g>
      <polygon class="st11" points="141.01 258.69 113.28 258.69 113.06 258.69 85.34 258.69 73.33 313.22 153.01 313.22 141.01 258.69"/>
    </g>
  </g>
  <polygon class="st5" points="150.43 301.49 75.92 301.49 73.33 313.22 153.01 313.22 150.43 301.49"/>
  <polygon class="st2" points="73.77 311.23 73.33 313.22 153.01 313.22 152.58 311.23 73.77 311.23"/>
  <polygon class="st11" points="151.51 306.37 150.43 301.49 75.92 301.49 74.84 306.37 151.51 306.37"/>
  <rect class="st5" x="107.93" y="266.66" width="10.5" height="28.4"/>
  <rect class="st11" x="107.93" y="266.66" width="2.24" height="28.4"/>
  <rect class="st2" x="116.34" y="266.66" width="2.24" height="28.4"/>
  <g>
    <g>
      <g>
        <g>
          <path class="st8" d="M110.59,267.15s-4.48,5.88-15.74,3.61c-10.3-2.07-11.82-12.07-11.82-12.07h27.16l.41,8.46Z"/>
          <path d="M105.9,264.41c1.67-2.16.51-.68-.05-.19-.35.3-1.1.84.51-.38-.24.18-.49.34-.74.5-.55.36-1.14.65-1.74.92,1.73-.77.51-.23.09-.08-.45.15-.91.28-1.38.39-.41.1-.81.17-1.22.25,1.8-.31-.2-.01-.63.01-1.2.07-2.41,0-3.61-.13,1.43.16-.57-.12-.84-.17-.62-.12-1.22-.29-1.83-.47-.34-.11-1.86-.77-.34-.09-.4-.19-.79-.39-1.17-.61-.37-.21-.71-.44-1.06-.68-.46-.34-.33-.23.38.3-.24-.19-.45-.38-.67-.58-.28-.25-.55-.53-.8-.79-.31-.32-1.33-1.66-.19-.14-.44-.59-.83-1.22-1.19-1.87-.15-.26-.28-.53-.42-.8-.06-.13-.12-.25-.17-.39-.38-.82.56,1.38.24.57-.18-.46-.34-.94-.48-1.42-.13-.42-.24-.87-.31-1.31-1.75,2.29-3.49,4.58-5.24,6.88h27.16l-5.43-5.43c.14,2.82.28,5.64.41,8.46.14,2.95,2.37,5.43,5.43,5.43,2.85,0,5.56-2.47,5.43-5.43-.14-2.82-.28-5.64-.42-8.46-.14-2.95-2.36-5.43-5.42-5.43h-27.16c-1.43,0-2.82.58-3.84,1.59-1.48,1.49-1.7,3.31-1.39,5.28.35,2.21,1.37,4.43,2.46,6.35,2.57,4.46,6.78,7.62,11.67,9.14,7.9,2.46,18.06,1.1,23.35-5.74,1.81-2.34.35-6.07-1.95-7.42-2.8-1.64-5.62-.39-7.42,1.95Z"/>
        </g>
        <path class="st5" d="M110.59,267.15s-4.48,5.88-15.74,3.61c-10.3-2.07-11.82-12.07-11.82-12.07h27.16l.41,8.46Z"/>
        <path class="st11" d="M95.42,266.74c-4.49-1.93-6.76-5.16-7.91-8.05h-4.49s1.52,10,11.82,12.07c11.26,2.26,15.74-3.61,15.74-3.61v-.04c-2.03,1.14-7.18,3.07-15.17-.38Z"/>
      </g>
      <g>
        <g>
          <path class="st8" d="M115.76,267.15s4.48,5.88,15.74,3.61c10.31-2.07,11.82-12.07,11.82-12.07h-27.15l-.41,8.46Z"/>
          <path d="M111.08,269.89c5.36,6.94,15.35,8.03,23.35,5.74,4.92-1.41,9.06-4.76,11.66-9.14,1.12-1.89,2.12-4.15,2.47-6.35.24-1.51.25-2.81-.55-4.18-.96-1.65-2.77-2.69-4.69-2.69h-27.15c-3.07,0-5.28,2.48-5.43,5.43-.14,2.82-.27,5.64-.41,8.46-.14,2.95,2.58,5.43,5.43,5.43,3.07,0,5.28-2.48,5.43-5.43.14-2.82.28-5.64.42-8.46-1.82,1.81-3.63,3.62-5.43,5.43h27.15c-1.74-2.29-3.49-4.58-5.23-6.88-.06.4-.16.8-.28,1.18-.13.47-.29.92-.46,1.37-.42,1.11.53-1.2.17-.39-.15.34-.31.66-.48.98-.34.65-.73,1.26-1.15,1.86-.51.74.93-1.14.03-.06-.3.35-.63.69-.96,1.01-.29.27-.58.52-.88.77,1.37-1.14-.05-.01-.41.21-.38.24-.76.43-1.14.63-.53.24-.41.2.35-.13-.32.14-.66.25-1,.37-1.04.35-2.14.55-3.23.71,1.4-.22-.44.02-.71.04-.65.05-1.3.05-1.96.03-.49,0-.96-.05-1.44-.09-.59-.07-.45-.05.44.06-.31-.05-.62-.12-.93-.17-.83-.17-1.63-.43-2.42-.73,1.87.71-.23-.17-.74-.47-.21-.13-.43-.27-.63-.41-.95-.65,1.16.94.34.27-.59-.48-1.86-2.09-.16.1-1.81-2.34-4.63-3.59-7.42-1.95-2.31,1.35-3.76,5.08-1.95,7.42Z"/>
        </g>
        <path class="st5" d="M115.76,267.15s4.48,5.88,15.74,3.61c10.31-2.07,11.82-12.07,11.82-12.07h-27.15l-.41,8.46Z"/>
      </g>
    </g>
    <path class="st11" d="M130.93,266.74c4.49-1.93,6.75-5.16,7.9-8.05h4.49s-1.51,10-11.82,12.07c-11.26,2.26-15.74-3.61-15.74-3.61v-.04c2.03,1.14,7.18,3.07,15.17-.38Z"/>
  </g>
  <g>
    <path class="st4" d="M127.91,251.17c0,8.13-6.6,14.73-14.73,14.73s-14.74-6.6-14.74-14.73,6.59-14.74,14.74-14.74,14.73,6.6,14.73,14.74Z"/>
    <path d="M125.19,251.17c-.07,5.67-3.93,10.4-9.42,11.74-5.55,1.35-11.08-1.77-13.54-6.72-2.41-4.84-.76-11.22,3.49-14.48,4.46-3.41,10.86-3.41,15.18.24,2.73,2.31,4.25,5.66,4.29,9.22.05,3.5,5.47,3.5,5.43,0-.08-6.57-3.76-12.68-9.69-15.62-6.1-3.03-13.49-2.15-18.77,2.11-5.23,4.21-7.37,11.07-5.96,17.56,1.38,6.35,6.7,11.41,12.92,12.92,10.89,2.66,21.36-5.95,21.5-16.97.05-3.5-5.38-3.5-5.43,0Z"/>
  </g>
  <g>
    <g>
      <rect class="st1" x="102.59" y="272.8" width="4.88" height="22.25"/>
      <path d="M108.69,296.26h-7.3v-24.67h7.3v24.67ZM103.8,293.84h2.46v-19.83h-2.46v19.83Z"/>
    </g>
    <g>
      <rect class="st1" x="118.87" y="272.8" width="4.88" height="22.25"/>
      <path d="M124.96,296.26h-7.3v-24.67h7.3v24.67ZM120.08,293.84h2.46v-19.83h-2.46v19.83Z"/>
    </g>
  </g>
  <g>
    <g>
      <path class="st1" d="M115.06,280.4c0,.94-.76,1.7-1.69,1.7s-1.7-.76-1.7-1.7.76-1.7,1.7-1.7,1.69.76,1.69,1.7Z"/>
      <path d="M113.37,283.3c-1.6,0-2.91-1.3-2.91-2.9s1.3-2.9,2.91-2.9,2.9,1.3,2.9,2.9-1.3,2.9-2.9,2.9ZM113.37,279.91c-.27,0-.49.22-.49.49,0,.54.97.54.97,0,0-.27-.22-.49-.48-.49Z"/>
    </g>
    <g>
      <path class="st1" d="M115.06,289.31c0,.94-.76,1.7-1.69,1.7s-1.7-.76-1.7-1.7.76-1.7,1.7-1.7,1.69.76,1.69,1.7Z"/>
      <path d="M113.37,292.21c-1.6,0-2.91-1.3-2.91-2.9s1.3-2.91,2.91-2.91,2.9,1.3,2.9,2.91-1.3,2.9-2.9,2.9ZM113.37,288.82c-.27,0-.49.22-.49.49,0,.53.97.54.97,0,0-.27-.22-.49-.48-.49Z"/>
    </g>
  </g>
  <g>
    <g>
      <g>
        <path class="st3" d="M164.78,275.28c-.7.57-1.48.76-1.78.41h0c-.28-.34.05-1.09.74-1.66l93.32-77.48c.69-.57,1.49-.76,1.77-.41h0c.29.35-.04,1.09-.73,1.67l-93.32,77.47Z"/>
        <path d="M161.7,270c-1.66,1.1-.2,1.23,4.39.42.73.73,1.46,1.46,2.19,2.19-.03-.06-.07-.13-.09-.2.27,1.03.56,2.05.83,3.08-.02,3.53-2.21,3.88-.89,2.8.09-.07.17-.14.26-.21.35-.29.69-.58,1.04-.87,1.34-1.12,2.68-2.23,4.02-3.34,4.74-3.93,9.47-7.85,14.2-11.78,13.32-11.07,26.64-22.13,39.96-33.18,10.24-8.49,20.47-16.99,30.71-25.49.76-.63,1.53-1.27,2.29-1.9.2-.16.39-.33.58-.49.05-.04.09-.07.14-.12.01-.01.02-.02.04-.04-1.5,1.25-2.96,2.42-5.61.54-.73-.73-1.46-1.46-2.19-2.19.03.06.05.14.09.2-.28-1.03-.56-2.05-.84-3.08.03-3.52,2.21-3.89.89-2.8-.08.07-.17.14-.26.21-.34.29-.69.58-1.04.87-1.34,1.12-2.68,2.23-4.02,3.34-4.74,3.93-9.46,7.86-14.19,11.78-13.32,11.07-26.65,22.12-39.97,33.18-10.23,8.5-20.47,16.99-30.69,25.49-1.03.86-2.05,1.7-3.08,2.55-2.56,2.12-2.19,6.44,0,8.63,2.51,2.51,6.07,2.12,8.64,0,6.64-5.52,13.29-11.03,19.93-16.54,13.34-11.08,26.68-22.16,40.02-33.23,10.15-8.43,20.3-16.86,30.45-25.29.88-.73,1.77-1.47,2.65-2.19.79-.66,1.45-1.48,1.95-2.38,2.04-3.64.38-9.09-4.08-9.89-2.85-.51-5.13.37-7.3,2.17-2.04,1.7-4.09,3.39-6.12,5.09-11.4,9.46-22.79,18.91-34.18,28.37-12.9,10.71-25.8,21.42-38.7,32.12-3.77,3.13-7.54,6.26-11.31,9.4-.87.72-1.74,1.44-2.62,2.17-.12.11-.25.21-.38.32-2.78,2.31-3.11,5.96-1.69,9.06,1.71,3.74,7.2,3.89,10.13,1.77,2.68-1.94,3.99-5.27,2.19-8.35-1.56-2.67-5.65-4.14-8.35-2.19Z"/>
      </g>
      <path class="st6" d="M164.78,275.28c-.7.57-1.48.76-1.78.41h0c-.28-.34.05-1.09.74-1.66l93.32-77.48c.69-.57,1.49-.76,1.77-.41h0c.29.35-.04,1.09-.73,1.67l-93.32,77.47Z"/>
    </g>
    <path class="st10" d="M164.17,274.62l93.32-77.47c.5-.42,1.06-.63,1.43-.58.02-.17,0-.32-.09-.43-.28-.35-1.08-.16-1.77.41l-93.32,77.48c-.69.57-1.02,1.32-.74,1.66.08.1.21.15.35.16.05-.37.35-.84.82-1.23Z"/>
  </g>
  <g>
    <g>
      <g>
        <g>
          <path class="st7" d="M112.24,91.61c22.69,0,41.08-18.39,41.08-41.07s-18.39-41.07-41.08-41.07-41.07,18.38-41.07,41.07,18.39,41.07,41.07,41.07Z"/>
          <path d="M112.24,101.1c14.22-.06,28.27-6.16,37.7-16.88,4.9-5.58,8.52-11.99,10.73-19.08,2.31-7.41,2.5-15.15,1.42-22.77-1.99-14.05-10.66-26.42-22.3-34.25C127.83.09,112.12-1.99,98.34,1.91c-13.4,3.79-25.22,13.5-31.32,26.04-3.34,6.86-5.16,14.19-5.33,21.82-.17,7.7,1.7,15.03,4.73,22.04,3.76,8.68,10.52,15.9,18.31,21.13,8.01,5.4,17.9,8.12,27.52,8.16,5.18.02,9.5-4.34,9.5-9.5s-4.32-9.47-9.5-9.5c-1.89,0-3.76-.13-5.63-.38.84.11,1.69.22,2.52.34-3.5-.5-6.91-1.43-10.18-2.78.76.32,1.51.64,2.27.96-3.3-1.4-6.38-3.19-9.23-5.37.64.5,1.29.99,1.92,1.49-2.81-2.18-5.32-4.69-7.5-7.5.5.65.99,1.29,1.49,1.92-2.18-2.84-3.98-5.93-5.37-9.22.32.75.64,1.51.96,2.27-1.35-3.28-2.28-6.69-2.77-10.19.12.84.22,1.69.33,2.52-.49-3.75-.49-7.52,0-11.27-.11.84-.22,1.68-.33,2.52.5-3.51,1.42-6.91,2.77-10.19-.32.76-.64,1.51-.96,2.27,1.39-3.3,3.19-6.38,5.37-9.22-.5.63-.99,1.28-1.49,1.92,2.18-2.81,4.69-5.32,7.5-7.5-.64.5-1.28.99-1.92,1.49,2.85-2.18,5.93-3.97,9.23-5.37-.76.32-1.51.64-2.27.96,3.27-1.35,6.69-2.28,10.18-2.78-.84.12-1.68.22-2.52.34,3.75-.5,7.53-.5,11.27,0-.84-.12-1.68-.22-2.52-.34,3.5.5,6.91,1.43,10.18,2.77-.75-.32-1.51-.63-2.27-.96,3.3,1.4,6.4,3.19,9.23,5.37-.64-.5-1.28-.99-1.92-1.49,2.81,2.18,5.32,4.69,7.5,7.5-.5-.64-.99-1.28-1.49-1.92,2.18,2.84,3.97,5.93,5.37,9.22-.32-.76-.64-1.51-.96-2.27,1.34,3.27,2.27,6.68,2.77,10.19-.11-.84-.22-1.69-.33-2.52.49,3.75.49,7.52,0,11.27.11-.84.22-1.69.33-2.52-.5,3.5-1.43,6.91-2.77,10.19.32-.76.64-1.52.96-2.27-1.4,3.29-3.19,6.38-5.37,9.22.5-.63.99-1.28,1.49-1.92-2.18,2.81-4.69,5.32-7.5,7.5.64-.5,1.28-.99,1.92-1.49-2.83,2.18-5.93,3.97-9.23,5.37.76-.32,1.52-.63,2.27-.96-3.27,1.35-6.68,2.28-10.18,2.78.84-.12,1.68-.23,2.52-.34-1.87.25-3.75.38-5.64.38-5.17.03-9.49,4.3-9.49,9.5s4.32,9.52,9.49,9.5Z"/>
        </g>
        <path class="st6" d="M112.24,91.61c22.69,0,41.08-18.39,41.08-41.07s-18.39-41.07-41.08-41.07-41.07,18.38-41.07,41.07,18.39,41.07,41.07,41.07Z"/>
        <path class="st0" d="M143.6,50.5c0-21.04-15.82-38.36-36.2-40.77,1.59-.18,3.21-.31,4.85-.31,22.69,0,41.08,18.39,41.08,41.08s-18.39,41.07-41.08,41.07c-1.64,0-3.26-.12-4.85-.31,20.38-2.41,36.2-19.72,36.2-40.76Z"/>
        <path class="st10" d="M80.9,50.5c0-21.04,15.84-38.35,36.23-40.77-1.61-.18-3.22-.31-4.88-.31-22.68,0-41.07,18.39-41.07,41.08s18.39,41.07,41.07,41.07c1.66,0,3.27-.12,4.88-.31-20.38-2.41-36.23-19.72-36.23-40.76Z"/>
      </g>
      <g>
        <g>
          <g>
            <path class="st8" d="M182.7,196.03c0,8.92,7.23,16.15,16.15,16.15s16.15-7.23,16.15-16.15-7.23-16.15-16.15-16.15-16.15,7.23-16.15,16.15Z"/>
            <path d="M173.21,196.03c.11,9.06,4.82,17.25,12.49,22.02,7.78,4.83,17.75,4.58,25.68.35,7.97-4.24,12.58-12.8,13.1-21.62.52-9.09-4.58-17.41-11.88-22.4-7.73-5.29-18.22-5.03-26.28-.74-8.11,4.32-13.01,13.34-13.12,22.38-.06,5.18,4.36,9.5,9.5,9.5s9.44-4.32,9.5-9.5c0-.75.05-1.51.16-2.25-.12.84-.23,1.68-.34,2.52.2-1.33.54-2.61,1.04-3.87-.32.76-.64,1.51-.96,2.27.57-1.32,1.26-2.55,2.13-3.7-.49.64-.99,1.28-1.48,1.92.88-1.12,1.88-2.12,3-3-.65.5-1.28.99-1.93,1.49,1.16-.87,2.38-1.57,3.71-2.13-.76.32-1.52.63-2.27.96,1.26-.5,2.53-.84,3.87-1.05-.84.12-1.69.23-2.53.35,1.51-.19,3-.19,4.5,0-.84-.12-1.67-.22-2.52-.35,1.33.21,2.62.55,3.87,1.05-.76-.32-1.51-.63-2.27-.96,1.33.56,2.55,1.26,3.7,2.13-.64-.5-1.28-.99-1.92-1.49,1.12.88,2.11,1.88,3,3-.49-.64-.99-1.28-1.48-1.92.86,1.15,1.57,2.38,2.12,3.7-.32-.76-.63-1.51-.95-2.27.5,1.26.84,2.53,1.04,3.87-.11-.84-.22-1.68-.34-2.52.19,1.51.19,3,0,4.5.12-.84.23-1.68.34-2.52-.2,1.33-.54,2.62-1.04,3.87.32-.76.63-1.51.95-2.28-.55,1.33-1.26,2.56-2.12,3.71.5-.64.99-1.28,1.48-1.92-.89,1.13-1.88,2.12-3,3,.63-.49,1.28-.99,1.92-1.48-1.15.87-2.37,1.57-3.7,2.13.76-.32,1.51-.64,2.27-.96-1.25.5-2.53.84-3.87,1.04.85-.11,1.69-.22,2.52-.34-1.5.19-2.99.19-4.5,0,.84.12,1.69.23,2.53.34-1.34-.2-2.62-.54-3.87-1.04.76.32,1.51.64,2.27.96-1.33-.56-2.55-1.27-3.71-2.13.65.5,1.28.99,1.93,1.48-1.13-.88-2.12-1.87-3-3,.5.64.99,1.28,1.48,1.92-.87-1.15-1.56-2.38-2.13-3.71.32.76.64,1.52.96,2.28-.5-1.25-.84-2.54-1.04-3.87.11.84.22,1.68.34,2.52-.1-.75-.15-1.5-.16-2.25-.06-5.18-4.28-9.5-9.5-9.5s-9.55,4.32-9.5,9.5Z"/>
          </g>
          <path class="st12" d="M182.7,196.03c0,8.92,7.23,16.15,16.15,16.15s16.15-7.23,16.15-16.15-7.23-16.15-16.15-16.15-16.15,7.23-16.15,16.15Z"/>
          <path class="st9" d="M186.88,195.59c0,6.54,5.29,11.83,11.82,11.83s11.84-5.29,11.84-11.83-5.3-11.84-11.84-11.84-11.82,5.3-11.82,11.84Z"/>
        </g>
        <g>
          <g>
            <circle class="st8" cx="27.01" cy="196.03" r="16.15"/>
            <path d="M1.36,196.03c.1,9.06,4.82,17.25,12.49,22.02,7.78,4.83,17.76,4.58,25.68.35,7.97-4.24,12.58-12.8,13.1-21.62.52-9.09-4.58-17.41-11.89-22.4-7.73-5.29-18.21-5.03-26.27-.74-8.12,4.32-13.02,13.34-13.12,22.38-.06,5.18,4.36,9.5,9.5,9.5s9.44-4.32,9.5-9.5c0-.75.06-1.51.16-2.25-.12.84-.24,1.68-.34,2.52.2-1.33.55-2.61,1.04-3.87-.32.76-.64,1.51-.96,2.27.56-1.32,1.27-2.55,2.13-3.7-.5.64-.99,1.28-1.48,1.92.88-1.12,1.88-2.12,3-3-.64.5-1.28.99-1.93,1.49,1.16-.87,2.38-1.57,3.71-2.13-.76.32-1.52.63-2.27.96,1.26-.5,2.53-.84,3.87-1.05-.84.12-1.69.23-2.53.35,1.51-.19,3-.19,4.51,0-.84-.12-1.69-.22-2.53-.35,1.33.21,2.62.55,3.87,1.05-.76-.32-1.51-.63-2.27-.96,1.33.56,2.55,1.26,3.7,2.13-.64-.5-1.28-.99-1.92-1.49,1.13.88,2.12,1.88,3,3-.5-.64-.99-1.28-1.48-1.92.86,1.15,1.57,2.38,2.13,3.7-.32-.76-.65-1.51-.96-2.27.5,1.26.84,2.53,1.04,3.87-.11-.84-.23-1.68-.33-2.52.19,1.51.19,3,0,4.5.11-.84.23-1.68.33-2.52-.2,1.33-.54,2.62-1.04,3.87.31-.76.63-1.51.96-2.28-.56,1.33-1.27,2.56-2.13,3.71.49-.64.99-1.28,1.48-1.92-.88,1.13-1.88,2.12-3,3,.64-.49,1.28-.99,1.92-1.48-1.15.87-2.37,1.57-3.7,2.13.76-.32,1.51-.64,2.27-.96-1.25.5-2.53.84-3.87,1.04.84-.11,1.69-.22,2.53-.34-1.51.19-3,.19-4.51,0,.84.12,1.69.23,2.53.34-1.34-.2-2.62-.54-3.87-1.04.76.32,1.51.64,2.27.96-1.33-.56-2.56-1.27-3.71-2.13.65.5,1.29.99,1.93,1.48-1.12-.88-2.12-1.87-3-3,.5.64.99,1.28,1.48,1.92-.86-1.15-1.57-2.38-2.13-3.71.32.76.64,1.52.96,2.28-.49-1.25-.84-2.54-1.04-3.87.1.84.22,1.68.34,2.52-.1-.75-.16-1.5-.16-2.25-.06-5.18-4.28-9.5-9.5-9.5s-9.56,4.32-9.5,9.5Z"/>
          </g>
          <circle class="st12" cx="27.01" cy="196.03" r="16.15"/>
          <path class="st9" d="M15.03,195.59c0,6.54,5.29,11.83,11.83,11.83s11.83-5.29,11.83-11.83-5.3-11.84-11.83-11.84-11.83,5.3-11.83,11.84Z"/>
        </g>
      </g>
      <g>
        <g>
          <path class="st8" d="M202.14,112.59c.32,12.72,0,73.38,0,73.38,0,34.18-19.16,65.86-90.53,65.56-70.64-.29-87.36-31.39-87.36-65.56v-73.38h177.88Z"/>
          <path d="M192.64,112.59c.42,16.91.15,33.85.09,50.77-.02,6.54-.05,13.08-.08,19.61-.02,4.65-.1,9.26-.72,13.88.12-.84.22-1.69.34-2.52-.76,5.51-2.13,10.92-4.29,16.04.32-.76.64-1.51.96-2.27-1.75,4.11-4,7.98-6.71,11.53.49-.64.98-1.28,1.48-1.92-2.82,3.63-6.1,6.87-9.73,9.69.64-.49,1.28-.99,1.92-1.48-4.59,3.54-9.67,6.36-15,8.63.75-.32,1.51-.64,2.26-.96-8.92,3.76-18.42,5.95-27.99,7.24.84-.11,1.68-.23,2.52-.34-16.74,2.23-34.07,2.21-50.8-.04.84.12,1.68.22,2.52.34-9.3-1.28-18.53-3.38-27.21-7.02.76.32,1.51.63,2.26.95-5.18-2.2-10.13-4.94-14.59-8.39.64.5,1.28.99,1.92,1.49-3.45-2.69-6.58-5.77-9.25-9.24.5.64.99,1.28,1.49,1.92-2.65-3.45-4.81-7.23-6.52-11.23.32.76.64,1.51.96,2.27-2.18-5.19-3.54-10.66-4.29-16.23.11.84.22,1.69.34,2.52-.65-4.93-.75-9.87-.75-14.82v-70.44c-3.16,3.16-6.33,6.33-9.5,9.5h177.88c5.18,0,9.5-4.32,9.5-9.5s-4.32-9.5-9.5-9.5H24.26c-5.18,0-9.49,4.32-9.49,9.5v73.33c0,7.99.85,16.13,3,23.84,2.48,8.86,6.78,16.85,12.66,23.89,6,7.17,14.07,12.76,22.53,16.62,12.08,5.51,24.82,8.2,37.97,9.65,14.8,1.63,29.98,1.57,44.76-.2,13.04-1.56,25.6-4.45,37.54-10.02,8.5-3.97,16.51-9.73,22.58-16.92,5.95-7.06,10.28-15.14,12.83-24.03,3.61-12.49,3.01-25.63,3.06-38.49.06-17.97.2-35.95,0-53.92-.02-1.25-.04-2.51-.06-3.76-.13-5.18-4.23-9.5-9.5-9.5s-9.62,4.32-9.5,9.5Z"/>
        </g>
        <path class="st9" d="M201.47,98.02c.32,12.72,0,87.94,0,87.94,0,34.18-19.15,65.86-90.53,65.56-70.64-.29-87.36-31.39-87.36-65.56v-87.94h177.89Z"/>
      </g>
      <g>
        <g>
          <path class="st7" d="M112.67,50.75h.53c90.82,0,101.97,77.81,103.02,91.64.4,5.22-.16,32.92-.16,32.92,0,.63,0,1.28-.02,1.91-14.03-1.09-43.43-5.68-74.49-24.63-11.76-7.18-21.16-15.91-28.62-24.82-7.46,8.91-16.86,17.63-28.62,24.82-31.06,18.95-60.47,23.54-74.49,24.63,0-.64-.02-1.28-.02-1.91,0,0-.55-27.7-.15-32.92,1.04-13.83,12.2-91.64,103.02-91.64Z"/>
          <path d="M112.67,60.25c6.5.09,12.97.36,19.42,1.22-.84-.11-1.69-.22-2.53-.33,9.38,1.28,18.59,3.61,27.33,7.28-.76-.32-1.51-.63-2.26-.96,7,2.97,13.62,6.78,19.65,11.43-.64-.5-1.28-.99-1.92-1.48,5.89,4.56,11.16,9.87,15.73,15.75-.5-.63-.99-1.28-1.48-1.92,5.3,6.87,9.61,14.45,12.99,22.45-.32-.76-.64-1.51-.96-2.28,3.88,9.27,6.6,19.07,7.96,29.04-.12-.84-.23-1.68-.35-2.52.64,4.69.64,9.38.63,14.12-.02,7.7-.14,15.41-.3,23.12,0,.69,0,1.39-.01,2.07,3.16-3.16,6.33-6.33,9.49-9.49-2.69-.21-5.38-.5-8.04-.87.84.12,1.68.22,2.52.33-14.93-2.03-29.56-6.14-43.45-11.98.76.32,1.51.65,2.27.96-11.67-4.95-23.04-11.01-33.1-18.74.64.5,1.28.99,1.92,1.48-6.8-5.26-12.98-11.27-18.51-17.86-3.13-3.72-10.3-3.72-13.43,0-5.53,6.59-11.71,12.59-18.51,17.86.63-.49,1.28-.99,1.92-1.48-10.07,7.73-21.43,13.8-33.1,18.74.76-.32,1.51-.65,2.27-.96-13.9,5.85-28.52,9.96-43.45,11.98.84-.11,1.68-.22,2.52-.33-2.67.36-5.35.65-8.05.87,3.17,3.16,6.33,6.33,9.5,9.49-.11-7.34-.25-14.69-.3-22.05-.04-5.39-.18-10.8.47-16.15.04-.37.09-.74.14-1.11-.11.84-.22,1.68-.34,2.52,1.35-9.96,4.07-19.77,7.96-29.04-.32.76-.64,1.52-.96,2.28,3.37-8,7.68-15.58,12.98-22.45-.5.63-.99,1.28-1.48,1.92,4.56-5.89,9.83-11.19,15.73-15.75-.64.5-1.28.99-1.92,1.48,6.03-4.64,12.65-8.45,19.66-11.43-.76.32-1.51.64-2.27.96,8.73-3.67,17.95-6,27.32-7.28-.84.11-1.68.22-2.52.33,6.26-.84,12.57-1.21,18.89-1.22,5.17,0,9.5-4.31,9.5-9.49s-4.32-9.5-9.5-9.5c-23.3.03-47.28,5.07-66.77,18.39-14.52,9.92-26.13,23.66-33.78,39.5-5.29,10.96-9.1,22.67-10.92,34.71-.72,4.79-1.15,9.42-1.18,14.26-.05,8.55.11,17.11.27,25.65.02,1.15.03,2.3.04,3.46.08,4.87,4.27,9.91,9.5,9.5,27.26-2.15,53.94-10.93,77.44-24.82,12.23-7.23,23.25-16.53,32.39-27.41h-13.43c10.67,12.71,23.79,22.88,38.34,30.79,13.75,7.47,28.55,13.23,43.75,16.97,9.09,2.24,18.41,3.74,27.74,4.48,5.24.41,9.42-4.64,9.5-9.5.12-7.34.24-14.69.29-22.05.04-5.39.2-10.8-.46-16.15-1.48-12.14-4.64-23.67-9.4-34.94-6.31-14.95-16.09-28.75-28.74-38.98-8.57-6.93-17.86-12.17-28.12-16.14-11.34-4.38-23.49-6.49-35.58-7.35-3.62-.26-7.24-.31-10.86-.35-5.18-.06-9.5,4.37-9.5,9.5s4.32,9.43,9.5,9.49Z"/>
        </g>
        <path class="st6" d="M112.67,50.75h.53c90.82,0,101.97,77.81,103.02,91.64.4,5.22-.16,32.92-.16,32.92,0,.63,0,1.28-.02,1.91-14.03-1.09-43.43-5.68-74.49-24.63-11.76-7.18-21.16-15.91-28.62-24.82-7.46,8.91-16.86,17.63-28.62,24.82-31.06,18.95-60.47,23.54-74.49,24.63,0-.64-.02-1.28-.02-1.91,0,0-.55-27.7-.15-32.92,1.04-13.83,12.2-91.64,103.02-91.64Z"/>
        <path class="st10" d="M216.22,147.85c-1.05-13.83-12.2-91.64-103.02-91.64-.09,0-.17,0-.27,0-.09,0-.18,0-.27,0-90.82,0-101.97,77.82-103.02,91.64-.08,1.04-.13,2.98-.14,5.41-.02-4.88,0-9.13.14-10.87,1.04-13.83,12.2-91.64,103.02-91.64h.53c90.82,0,101.97,77.81,103.02,91.64.13,1.74.16,6,.13,10.89-.02-2.44-.05-4.39-.13-5.43Z"/>
        <path class="st0" d="M83.66,147.38c11.99-7.39,21.64-16.26,29.26-25.37,7.62,9.1,17.32,17.89,29.26,25.37,37.14,23.24,73.86,29.22,73.85,29.86-14.03-1.09-43.44-5.69-74.49-24.63-11.76-7.18-21.16-15.91-28.62-24.82-7.45,8.91-16.85,17.64-28.62,24.82-31.06,18.95-60.46,23.54-74.49,24.63-.02-.64,30.88-3.36,73.85-29.86Z"/>
      </g>
      <path class="st7" d="M59.89,76.16c-10.4,5.24-16.84,13.46-14.37,18.35,2.46,4.88,12.9,4.59,23.29-.66,10.4-5.25,16.84-13.47,14.37-18.35-2.46-4.89-12.9-4.6-23.3.66Z"/>
      <path class="st7" d="M35.67,101.3c.77,2.37,3.31,3.67,5.68,2.9,2.37-.77,3.67-3.31,2.9-5.68-.77-2.37-3.31-3.67-5.68-2.9-2.37.77-3.67,3.31-2.9,5.68Z"/>
    </g>
    <g>
      <path d="M215.41,176.8c-3.68-22.65-23.32-39.94-47.01-39.94s-43.5,17.44-47.05,40.23c-2.28-.94-4.8-1.39-7.41-1.45-2.94-.07-6.06.4-8.83,1.59-3.5-22.86-23.24-40.37-47.08-40.37s-43.33,17.29-47,39.94c-3.87.43-6.89,3.71-6.89,7.68s3.01,7.26,6.89,7.69c3.67,22.65,23.32,39.94,47,39.94s44.88-18.68,47.37-42.64c.04-.25.12-.66.2-.92.03-.09.06-.18.1-.28.17-.32.67-1.06.73-1.18.27-.3.57-.59.88-.86.05-.03.14-.09.26-.16.32-.21.68-.4,1.02-.58.04-.02.06-.03.09-.04.12-.05.23-.09.34-.13.45-.15.92-.28,1.38-.39.14-.03,1.15-.2,1.1-.2.65-.06,1.3-.09,1.96-.1.61,0,1.21.02,1.81.07.19.02.32.03.38.04.14.02.28.05.42.07.47.09.93.21,1.4.35.14.04.61.22.81.3.22.12.44.24.66.37.12.06.35.24.52.36.13.12.26.24.38.37.1.1.2.21.3.32.21.3.4.63.57.97.07.2.13.4.18.6.02.09.05.18.07.27,2.14,24.33,22.55,43.41,47.44,43.41s43.34-17.3,47.01-39.94c3.86-.43,6.87-3.71,6.87-7.69s-3.01-7.26-6.87-7.68ZM58.03,221.85c-20.64,0-37.36-16.72-37.36-37.37s16.72-37.37,37.36-37.37,37.37,16.73,37.37,37.37-16.73,37.37-37.37,37.37ZM120.9,188.06c0,.06,0,.11.01.17-.02-.17-.02-.21-.01-.17ZM168.39,221.85c-20.64,0-37.37-16.72-37.37-37.37s16.73-37.37,37.37-37.37,37.37,16.73,37.37,37.37-16.73,37.37-37.37,37.37Z"/>
      <g>
        <path class="st5" d="M58.58,206.41c.46,2.1-3.07,4.65-7.87,5.71-4.81,1.06-9.08.22-9.54-1.88-.46-2.1,3.06-4.65,7.87-5.71,4.81-1.06,9.08-.21,9.54,1.88Z"/>
        <g>
          <g>
            <path d="M78.65,200.14s-3.84-5.07-12.46-5.07-12.51,5.07-12.51,5.07c0,0-1.94-14.71,12.51-14.71s12.46,14.71,12.46,14.71Z"/>
            <path d="M79.47,199.66c-2.94-3.81-8.23-5.39-12.83-5.54-4.69-.15-10.6,1.44-13.64,5.34.54.22,1.08.45,1.62.68-.25-1.93-.05-3.98.42-5.87,1.02-4.04,3.9-6.77,7.98-7.63,4.6-.96,10.17.08,12.85,4.25,1.55,2.42,2.01,5.44,1.9,8.27-.01.33-.04.65-.08.97-.16,1.21,1.74,1.2,1.9,0,.75-5.65-1.59-12.07-7.04-14.47-4.42-1.95-10.49-1.71-14.56.98-3.03,2.01-4.64,5.45-5.14,8.96-.21,1.48-.32,3.03-.13,4.53.09.69,1.04,1.42,1.62.68,2.59-3.33,7.38-4.67,11.38-4.79,3.22-.1,6.44.63,9.22,2.26.78.46,1.52,1.01,2.19,1.63.21.2.41.4.61.62.08.08.39.48.09.09.73.96,2.38.01,1.64-.96Z"/>
          </g>
          <path d="M56.17,189.53s-1.97.05-4.83-1.29c-2.86-1.33-4.93-4.73-4.93-4.73,0,0-1.18,4.64,2.42,7.35,2.63,1.99,5.67,2.42,5.67,2.42l1.67-3.75Z"/>
          <path d="M53.46,194.41s-1.66.32-4.31.3c-2.64-.02-5.41-1.89-5.41-1.89,0,0,.62,3.96,4.5,4.83,2.7.61,5.13.17,5.13.17l.09-3.42Z"/>
        </g>
        <path class="st5" d="M167.29,206.41c-.47,2.1,3.06,4.65,7.86,5.71,4.8,1.06,9.07.22,9.54-1.88.46-2.1-3.07-4.65-7.87-5.71-4.8-1.06-9.08-.21-9.53,1.88Z"/>
        <g>
          <g>
            <path d="M147.22,200.14s3.84-5.07,12.46-5.07,12.5,5.07,12.5,5.07c0,0,1.95-14.71-12.5-14.71s-12.46,14.71-12.46,14.71Z"/>
            <path d="M148.04,200.62c-.29.38-.04.06.03-.02.18-.2.36-.39.55-.58.63-.61,1.33-1.13,2.07-1.59,2.69-1.7,5.85-2.37,8.99-2.4,4.12-.05,9.18,1.38,11.83,4.79.58.74,1.52.02,1.62-.68.73-5.66-1.62-12.07-7.08-14.47-4.42-1.94-10.49-1.71-14.55.98-3.03,2.02-4.63,5.45-5.13,8.96-.21,1.48-.31,3.04-.11,4.53.16,1.2,2.06,1.21,1.89,0-.25-1.93-.07-3.98.41-5.87,1-4.04,3.87-6.77,7.95-7.63,4.62-.96,10.18.08,12.87,4.25,1.56,2.41,2.03,5.44,1.92,8.27-.02.33-.03.65-.08.97.54-.22,1.09-.45,1.62-.68-2.97-3.83-8.58-5.29-13.17-5.35-4.71-.05-10.29,1.66-13.28,5.54-.75.97.9,1.92,1.64.96Z"/>
          </g>
          <path d="M169.69,189.53s1.97.05,4.83-1.29c2.86-1.33,4.92-4.73,4.92-4.73,0,0,1.19,4.64-2.41,7.35-2.63,1.99-5.67,2.42-5.67,2.42l-1.67-3.75Z"/>
          <path d="M172.4,194.41s1.66.32,4.31.3c2.65-.02,5.41-1.89,5.41-1.89,0,0-.62,3.96-4.51,4.83-2.7.61-5.13.17-5.13.17l-.09-3.42Z"/>
        </g>
      </g>
      <path d="M121.89,230.18c.2-1.52-.03-.06-.17.34-.05.16-.1.32-.17.48.33-.84.06-.14-.04.04-.1.2-.21.4-.32.59-.09.14-.67.97-.22.38-.35.45-.77.86-1.19,1.24-.23.2-.24.2,0,.02-.13.1-.27.19-.42.28-.28.2-.59.36-.9.53-.47.24-.34.16-.67.29-.4.14-.81.25-1.22.36-.99.25-1.97.32-2.98.35-1.88.04-3.69-.21-5.44-.88-1.03-.39-1.76-.98-2.6-1.96-.32-.37.27.4-.16-.23-.12-.2-.24-.4-.36-.59-.1-.19-.18-.38-.28-.57.37.79.09.2.02,0-.14-.42-.35-1.87-.19-.45-.16-1.47-1.11-2.71-2.71-2.71-1.36,0-2.88,1.24-2.71,2.71,1.53,13.83,26.45,13.42,28.18-.23.19-1.47-1.38-2.71-2.71-2.71-1.62,0-2.53,1.25-2.72,2.71h0Z"/>
    </g>
  </g>
  <g>
    <rect class="st5" x="75.1" y="297.66" width="76.16" height="3.83"/>
    <path d="M151.25,298.77h-76.16c.91.91,1.81,1.81,2.71,2.71v-3.83c-.9.91-1.81,1.81-2.71,2.71h76.16c-.91-.91-1.81-1.81-2.72-2.71v3.83c0,3.51,5.43,3.51,5.43,0v-3.83c0-1.48-1.23-2.71-2.71-2.71h-76.16c-1.48,0-2.71,1.23-2.71,2.71v3.83c0,1.48,1.23,2.71,2.71,2.71h76.16c3.49,0,3.49-5.43,0-5.43Z"/>
  </g>
</svg>