<?xml version="1.0" encoding="UTF-8"?>
<svg id="Layer_1" xmlns="http://www.w3.org/2000/svg" version="1.1" viewBox="0 0 247.76 315.25">
  <!-- Generator: Adobe Illustrator 29.6.1, SVG Export Plug-In . SVG Version: 2.1.1 Build 9)  -->
  <defs>
    <style>
      .st0 {
        fill: #ac794e;
      }

      .st1 {
        fill: #935b31;
      }

      .st2 {
        fill: #000002;
      }

      .st3 {
        fill: #414042;
      }

      .st4 {
        fill: #231f20;
      }

      .st5 {
        fill-rule: evenodd;
      }

      .st6 {
        fill: #fff;
      }

      .st7 {
        fill: #fde5d2;
      }

      .st8 {
        fill: #110e0f;
      }
    </style>
  </defs>
  <g>
    <g>
      <path class="st0" d="M161.79,227.24s33.55,39.85,18.99,48.44c-14.56,8.6-34.94-28.64-34.94-28.64l15.95-19.8Z"/>
      <path d="M159.35,229.68c.77.91,1.51,1.85,2.25,2.78.36.46.72.92,1.09,1.38.5.65-.51-.65.17.21.25.34.5.66.75.99,1.01,1.33,2.01,2.69,2.99,4.05,4.62,6.44,9.02,13.2,12.16,20.49-.42-.98.16.4.25.63.16.41.32.82.47,1.23.31.86.58,1.72.83,2.6.21.76.38,1.51.53,2.29.03.18.06.36.09.55.11.7-.11-.89-.03-.2.05.41.08.83.1,1.23.02.66,0,1.32-.08,1.98.14-1.31.02-.16-.06.16-.07.34-.18.67-.29,1-.2.58.38-.83.13-.28-.06.13-.13.26-.2.39-.13.25-.29.51-.46.74-.34.49.57-.7.18-.24-.09.11-.2.22-.3.32-.23.24-1.22,1.02-.21.26-.26.2-.54.38-.84.54-.25.14-1.49.67-.39.23-.35.14-.71.25-1.06.34-.19.05-.36.08-.55.12-.6.12.96-.09.02,0-.36.03-.73.04-1.1.02-.31,0-1.61-.19-.37,0-.83-.12-1.63-.36-2.42-.63-.19-.08-.37-.15-.56-.23.96.39.28.12.08.02-.39-.17-.76-.36-1.13-.57-.84-.46-1.64-.97-2.42-1.52-.21-.14-1.4-1.04-.6-.42-.38-.29-.73-.59-1.1-.9-.81-.68-1.59-1.39-2.36-2.12-2.3-2.23-4.39-4.66-6.37-7.17-.11-.14-.81-1.04-.23-.29-.24-.32-.5-.65-.75-.98-.48-.64-.95-1.29-1.42-1.95-.84-1.16-1.64-2.34-2.43-3.52-1.72-2.59-3.39-5.23-4.89-7.96-.18,1.4-.36,2.79-.54,4.18,5.32-6.6,10.63-13.2,15.94-19.79,1.18-1.47,1.43-3.44,0-4.87-1.22-1.23-3.69-1.47-4.88,0-5.31,6.59-10.63,13.19-15.94,19.8-1.01,1.25-1.35,2.7-.54,4.18,2.33,4.25,5.03,8.33,7.87,12.25,4.82,6.63,10.56,13.88,18.1,17.53,3.49,1.7,7.53,2.53,11.29,1.21,3.52-1.24,6.2-3.8,7.26-7.41.98-3.27.43-6.9-.44-10.12-1.04-3.83-2.75-7.5-4.58-11.01-4.92-9.42-11.31-18.29-18.14-26.41-1.21-1.44-3.64-1.25-4.88,0-1.41,1.41-1.21,3.44,0,4.87Z"/>
    </g>
    <g>
      <path class="st0" d="M85.82,227.24s-33.56,39.85-18.99,48.44c14.57,8.6,34.94-28.64,34.94-28.64l-15.94-19.8Z"/>
      <path d="M83.38,224.81c-2.83,3.37-5.49,6.89-8.06,10.46-4.64,6.42-9.05,13.15-12.23,20.42-2.78,6.31-5.55,14.6-.75,20.65,2.23,2.81,6.16,4.21,9.66,4.06,3.92-.16,7.57-1.97,10.69-4.25,6.24-4.56,11.14-10.76,15.55-17.05,2.33-3.32,4.55-6.77,6.51-10.33.81-1.48.47-2.93-.54-4.18-5.32-6.61-10.63-13.2-15.94-19.8-1.18-1.47-3.65-1.23-4.87,0-1.44,1.43-1.18,3.41,0,4.87,5.31,6.6,10.62,13.19,15.94,19.79-.18-1.39-.36-2.78-.54-4.18-2.33,4.26-5.03,8.33-7.88,12.26-.28.39-.57.78-.87,1.17-.15.2-1.08,1.43-.51.68-.66.87-1.36,1.71-2.05,2.56-1.35,1.62-2.76,3.19-4.25,4.68-.7.7-1.42,1.37-2.15,2.03-.36.32-.73.62-1.1.93-.18.16-.37.31-.55.45-.48.38.55-.42-.23.17-.72.53-1.47,1.03-2.24,1.49-.36.22-.74.43-1.11.63-.27.14-1.74.79-.68.34-.72.3-1.47.54-2.23.72-.18.05-.37.07-.56.11-.7.13.88-.1.18-.02-.42.05-.85.06-1.29.06-.31,0-1.59-.19-.35,0-.36-.05-.72-.14-1.08-.25-.17-.04-.35-.11-.53-.17-.67-.24.77.35.12.06-.4-.18-.77-.39-1.14-.62-.89-.56.44.4-.17-.12-.23-.19-.44-.4-.63-.62-.54-.6.48.74-.08-.12-.19-.28-.35-.58-.49-.88-.26-.55.34.85.13.28-.06-.14-.1-.28-.14-.42-.09-.28-.16-.58-.22-.88-.22-1.07.05.68-.03-.18-.04-.38-.05-.76-.05-1.15,0-.34.02-.69.04-1.03.02-.3.19-1.59.01-.34.12-.82.29-1.63.5-2.44.43-1.73,1.03-3.4,1.69-5.05.08-.17.39-.91,0,0,.09-.21.18-.42.28-.64.18-.43.38-.85.58-1.27.44-.94.89-1.86,1.37-2.78.94-1.81,1.96-3.6,3-5.35,2.96-4.91,6.24-9.64,9.69-14.21.32-.43.65-.86.98-1.29.07-.08.14-.18.21-.26.4-.53-.53.68-.14.18.16-.21.32-.42.49-.62.5-.65,1.02-1.3,1.54-1.95.47-.58.94-1.15,1.41-1.73,1.21-1.44,1.41-3.46,0-4.87-1.24-1.25-3.66-1.44-4.87,0Z"/>
    </g>
    <rect x="73.66" y="245.89" width="6.78" height="17.23" transform="translate(-184.6 207.11) rotate(-62.89)"/>
    <path class="st4" d="M84.07,234.93l4.54,1.1-5.48,16.43-.42,1.2-8.45-4.39s2.22-3.78,5.02-7.73c2.8-3.96,4.79-6.61,4.79-6.61Z"/>
    <path class="st3" d="M76.69,248.56s2.22-3.77,5.02-7.72c1.72-2.43,3.13-4.37,3.97-5.5l-1.6-.4s-1.99,2.65-4.79,6.61c-2.8,3.95-5.02,7.73-5.02,7.73l8.45,4.39-6.03-5.1Z"/>
    <rect x="161.95" y="251.12" width="17.22" height="6.77" transform="translate(-97.26 105.73) rotate(-27.12)"/>
    <path class="st4" d="M163.54,234.93l-4.55,1.1,5.48,16.43.42,1.2,8.45-4.39s-2.21-3.78-5.02-7.73c-2.81-3.96-4.79-6.61-4.79-6.61Z"/>
    <path class="st3" d="M170.92,248.56s-2.22-3.77-5.02-7.72c-1.72-2.43-3.13-4.37-3.96-5.5l1.6-.4s1.98,2.65,4.79,6.61c2.81,3.95,5.02,7.73,5.02,7.73l-8.45,4.39,6.03-5.1Z"/>
    <g>
      <path class="st4" d="M89.55,232.57s-16.33,70.77-4.16,75.04c8.84,3.1,17.04-11,17.04-11,0,0,7.05,2.15,19.2,2.37,12.15.21,21.92-2.52,21.92-2.52,0,0,9.05,15.67,18.83,12.43,9.78-3.24-5.75-76.52-5.75-76.52l-67.08.19Z"/>
      <path d="M86.23,231.65c-2.4,10.42-4.37,20.97-5.99,31.54-1.29,8.32-2.38,16.7-2.71,25.11-.24,6.03-.44,12.96,2.33,18.5,2.78,5.56,9.72,5.51,14.63,2.91,4.54-2.41,8.36-6.96,10.93-11.36-1.3.53-2.6,1.05-3.9,1.58,1.65.5,3.35.81,5.05,1.11,4.97.86,10.02,1.28,15.07,1.38,7.56.15,15.53-.61,22.84-2.64-1.29-.53-2.59-1.06-3.89-1.58,3.77,6.49,10.07,13.58,17.91,14.5,3.35.4,6.89-.6,8.56-3.7,1.25-2.31,1.59-5,1.83-7.57.63-6.9-.1-13.96-.84-20.82-.91-8.47-2.18-16.92-3.6-25.33-1.34-7.96-2.8-15.92-4.47-23.82-.32-1.49-1.86-2.53-3.33-2.53-11.1.02-22.19.06-33.28.09-11.26.02-22.53.06-33.79.09h0c-4.45,0-4.45,6.91,0,6.89,11.1-.03,22.2-.06,33.29-.09,11.26-.03,22.52-.06,33.78-.09h0c-1.1-.84-2.21-1.69-3.32-2.53,2.18,10.29,4.04,20.67,5.65,31.06.32,2.07.63,4.15.93,6.23.06.5.13,1,.21,1.51.03.24.06.5.1.75.12.87-.1-.79.02.09.14,1.08.28,2.17.42,3.24.49,3.98.91,7.97,1.2,11.97.25,3.41.4,6.84.31,10.25-.04,1.37-.12,2.74-.28,4.1-.07.62.13-.94.05-.33-.02.14-.04.28-.06.42-.04.27-.09.54-.14.8-.1.53-.23,1.03-.38,1.54-.1.35-.6,1.52-.02.17-.11.26-.24.51-.38.75-.47.79.63-.69.05-.05-.65.7.77-.44.07-.04-.27.16-.77.29.51-.2-.36.14-.75.22-1.12.3-.39.07-.35.07.13,0-.17.02-.35.02-.52.04-.43.02-.86,0-1.29-.05.99.09-.14-.05-.35-.09-.42-.1-.83-.24-1.24-.38-.36-.14-.33-.13.09.05-.24-.1-.47-.22-.71-.34-.4-.2-.79-.43-1.17-.66-.31-.19-.61-.39-.91-.6-.16-.1-.29-.21-.44-.32-.75-.54.55.45-.16-.13-.64-.51-1.24-1.07-1.82-1.63-1.15-1.12-2.19-2.34-3.19-3.59.62.79,0-.02-.13-.18-.2-.27-.4-.54-.58-.81-.29-.4-.57-.81-.84-1.23-.26-.4-.52-.8-.76-1.21-.77-1.33-2.41-2-3.89-1.58-1.95.54-3.95.91-5.94,1.25-2.29.4-3.56.56-6,.79-2.86.27-5.73.38-8.59.35-2.67-.02-5.36-.17-8.02-.41-1.1-.1-2.2-.22-3.3-.36.36.05.34.04-.06-.01-.31-.04-.62-.09-.92-.13-.47-.07-.94-.15-1.41-.23-1.69-.29-3.4-.61-5.04-1.11-1.48-.44-3.13.28-3.89,1.59-.44.74-.93,1.46-1.43,2.16-.23.33-.47.65-.72.97.64-.85-.3.36-.46.56-.72.87-1.47,1.68-2.26,2.46-.39.38-.79.74-1.2,1.09-.2.18-.42.35-.63.52.65-.53-.06.04-.18.12-.43.31-.89.6-1.36.87-.22.14-.47.25-.7.38-.16.08-.32.15-.48.22.42-.17.45-.2.09-.06-.49.18-.99.31-1.5.41-.86.17.77-.06-.1.01-.25.02-.51.02-.77.02-.18-.01-1.04-.12-.13.01-.27-.04-.53-.1-.79-.17-.2-.05-.4-.13-.61-.2,1.2.44.71.32.42.17-.16-.09-.31-.19-.46-.29,1.09.79.46.36.21.12-.14-.14-.27-.29-.39-.44.87,1.07.25.3.08,0-.12-.19-.23-.39-.33-.59-.05-.1-.1-.21-.15-.32-.22-.51.37.89.16.37-.22-.53-.39-1.09-.54-1.64-.16-.58-.27-1.16-.39-1.74-.05-.32-.1-.63-.16-.95-.03-.25-.12-.91.04.26-.03-.22-.05-.46-.08-.68-.18-1.55-.26-3.12-.29-4.68-.09-3.71.11-7.41.4-11.1.16-2.04.36-4.06.58-6.1.11-1.01.23-2,.35-3,.06-.5.12-1.01.18-1.51.04-.25.07-.51.1-.76.02-.2.18-1.35.04-.34,1.06-7.86,2.41-15.69,3.93-23.48.92-4.71,1.87-9.4,2.94-14.07.42-1.83-.54-3.73-2.41-4.24-1.76-.48-3.82.57-4.25,2.41Z"/>
    </g>
    <g>
      <g>
        <path class="st2" d="M189.54,310.53c0,1.94-29.4,3.51-65.66,3.51s-65.66-1.57-65.66-3.51,29.4-3.5,65.66-3.5,65.66,1.57,65.66,3.5Z"/>
        <path d="M123.88,315.25c-17.56,0-34.07-.37-46.5-1.03-20.38-1.09-20.38-2.35-20.38-3.69s0-2.6,20.38-3.68c12.43-.66,28.94-1.03,46.5-1.03s34.06.37,46.49,1.03c20.38,1.09,20.38,2.35,20.38,3.68s0,2.6-20.38,3.69c-12.42.66-28.93,1.03-46.49,1.03ZM62.21,310.54c8.32,1.2,31.76,2.29,61.67,2.29s53.35-1.09,61.67-2.29c-7.83-1.13-29.51-2.31-61.67-2.31s-53.84,1.18-61.67,2.31Z"/>
      </g>
      <g>
        <g>
          <polygon class="st7" points="153.56 237.45 124.1 237.45 123.86 237.45 94.39 237.45 81.63 279.43 123.86 279.43 124.1 279.43 166.34 279.43 153.56 237.45"/>
          <path d="M153.56,229.93h-59.17c-3.41,0-6.27,2.3-7.25,5.52-3.64,11.97-7.28,23.94-10.92,35.91-.61,2.03-1.24,4.05-1.85,6.07-1.43,4.71,2.47,9.52,7.26,9.52h84.71c4.79,0,8.68-4.81,7.25-9.52-3.64-11.97-7.28-23.95-10.92-35.91-.61-2.03-1.23-4.05-1.85-6.07-1.19-3.92-5.22-6.36-9.25-5.26-3.87,1.07-6.45,5.34-5.25,9.26,3.64,11.97,7.28,23.94,10.92,35.91.61,2.02,1.22,4.05,1.85,6.07,2.41-3.18,4.83-6.35,7.26-9.53h-84.71c2.41,3.18,4.84,6.35,7.26,9.53,3.64-11.97,7.27-23.94,10.92-35.91.62-2.03,1.24-4.04,1.85-6.07-2.42,1.84-4.84,3.68-7.26,5.53h59.17c4.1,0,7.53-3.42,7.53-7.52s-3.42-7.52-7.53-7.52Z"/>
        </g>
        <polygon class="st4" points="153.56 237.45 124.1 237.45 123.86 237.45 94.39 237.45 81.63 279.43 123.86 279.43 124.1 279.43 166.34 279.43 153.56 237.45"/>
      </g>
    </g>
    <g>
      <g>
        <g>
          <g>
            <path class="st0" d="M123.88,257.02c-10.73,0-19.42,9.58-19.42,21.38,0,.23.02.69.02.69h38.8s.02-.45.02-.69c0-11.8-8.69-21.38-19.43-21.38Z"/>
            <path d="M123.88,250.12c-7.15.07-14.06,3.19-18.83,8.53-4.9,5.48-7.85,13.05-7.46,20.44.2,3.76,2.99,6.9,6.9,6.9h38.8c3.92,0,6.68-3.14,6.9-6.9.41-7.38-2.58-14.62-7.25-20.19-4.64-5.53-11.89-8.71-19.05-8.78-3.76-.03-6.9,3.16-6.9,6.9s3.14,6.87,6.9,6.9c.56,0,1.1.04,1.66.08,1.31.11-1.83-.28-.54-.08.32.05.63.12.96.19.63.13,1.25.32,1.86.53.31.1.61.22.91.34-2.1-.82-.95-.4-.48-.18,1.06.51,2.06,1.14,3.01,1.84-2-1.46-.12-.05.34.37.48.44.92.92,1.35,1.41.15.16.29.32.43.5.83.99-1.04-1.4-.27-.35.39.53.74,1.09,1.09,1.67.35.57.66,1.17.95,1.77.22.45.7,1.67-.15-.4.13.32.25.64.36.96.47,1.32.79,2.69,1.02,4.07-.41-2.51-.03.05,0,.68.03.59.03,1.19,0,1.78,2.3-2.3,4.6-4.6,6.9-6.89h-38.8c2.3,2.3,4.6,4.6,6.9,6.89-.07-1.2.02-2.4.15-3.58-.29,2.52.05,0,.19-.61.15-.68.35-1.34.57-2,.17-.54,1-2.51.04-.27.27-.62.57-1.22.89-1.82.32-.59.68-1.16,1.05-1.71.18-.28.38-.54.57-.81-1.3,1.77-.58.76-.25.38.77-.92,1.63-1.75,2.54-2.51.98-.82-1.4,1.04-.38.29.26-.19.53-.37.8-.54.54-.36,1.1-.66,1.67-.96.28-.14.58-.28.87-.41-2.05.94-.94.4-.46.21.6-.22,1.22-.4,1.85-.55.62-.16,3.01-.47.41-.15.66-.08,1.32-.11,1.99-.11,3.76-.03,6.9-3.11,6.9-6.9s-3.13-6.93-6.9-6.9Z"/>
          </g>
          <path class="st4" d="M123.88,257.02c-10.73,0-19.42,9.58-19.42,21.38,0,.23.02.69.02.69h38.8s.02-.45.02-.69c0-11.8-8.69-21.38-19.43-21.38Z"/>
        </g>
        <path class="st3" d="M124.33,257.03s5.93-.1,11.02,4.12c3.41,2.84,4.63,5.29,4.63,5.29,0,0-2.34.84-6.19,1.36-3.85.51-6.75.46-6.75.46,0,0,7.04-.5,6.9-4.21-.18-4.54-9.6-7.02-9.6-7.02Z"/>
        <path class="st3" d="M123.32,257.22s-5.94-.11-11.03,4.13c-3.41,2.83-4.63,5.29-4.63,5.29,0,0,2.35.85,6.19,1.36,3.86.51,6.76.46,6.76.46,0,0-7.04-.5-6.9-4.21.18-4.54,9.6-7.02,9.6-7.02Z"/>
        <path d="M129.98,267.71c-1.73-.75-3.13-1.72-3.61-2.52-1.39-2.27-2.41-8.63-2.41-8.63,0,0-1.03,6.36-2.41,8.63-.5.82-1.95,1.82-3.75,2.59,1.5,1.65,3.65,2.69,6.06,2.69s4.62-1.07,6.12-2.76Z"/>
        <path d="M129.98,281.41c-1.73-.74-3.13-1.73-3.61-2.51-1.39-2.26-2.41-8.63-2.41-8.63,0,0-1.03,6.37-2.41,8.63-.5.82-1.95,1.82-3.75,2.58,1.5,1.65,3.65,2.7,6.06,2.7s4.62-1.07,6.12-2.77Z"/>
        <path class="st3" d="M143.25,279.07c0-.05.01-.24.02-.42,0-.1,0-.2,0-.32,0-2.12-.29-4.17-.83-6.1-.15-.53-.26-.89-.26-.89,0,0-.3,4.93-7.71,5.78-6.05.68-8.98-2.17-9.84-3.23.43,1.83,1.01,3.91,1.69,5.02.03.06.08.12.13.18h16.72s.06-.02.08-.02Z"/>
        <path class="st3" d="M104.48,279.07c0-.05-.01-.24-.02-.42v-.32c0-2.12.29-4.17.82-6.1.15-.53.27-.89.27-.89,0,0,.3,4.93,7.7,5.78,6.06.68,8.98-2.17,9.85-3.23-.43,1.83-1.02,3.91-1.7,5.02-.03.06-.08.12-.13.18h-16.72s-.06-.02-.07-.02Z"/>
      </g>
      <path d="M107.56,265.86s5.87,2.12,16.47,2.12,15.94-2.22,15.94-2.22l1.37,1.97.48,1.97s-5.19,2.37-17.96,2.37-18.12-2.22-18.12-2.22l1.81-4Z"/>
    </g>
    <path d="M120.81,236.23c.01.5-.02,1.01-.06,1.51-.02.25-.04.5-.06.74-.01.14-.03.28-.05.42-.08.58.12-.85.03-.24-.1.73-.25,1.47-.43,2.19-.19.77-.42,1.53-.69,2.28-.08.2-.15.39-.23.59-.28.7.29-.64-.02.05-.21.48-.45.95-.69,1.41-.22.4-.47.8-.72,1.2-.12.19-.96,1.33-.5.73-.68.87-1.46,1.65-2.3,2.36-.68.57.5-.37-.22.17-.22.17-.45.32-.68.47-.47.32-.97.6-1.48.87-.27.14-.54.27-.81.39-.9.42.55-.21-.39.16-.72.27-1.45.49-2.19.69-3,.79-6.15,1.02-9.25.85-2-.11-4.2-.53-6.52-1.39-.22-.08-.44-.17-.66-.25.78.31.08.02-.06-.03-.37-.17-.73-.36-1.09-.55-.63-.34-1.25-.72-1.84-1.12-.23-.17-1.03-.8-.06-.03-.17-.13-.33-.28-.49-.41-.14-.12-.27-.24-.4-.38-2.77-2.95-7.2,1.49-4.43,4.44,1.49,1.57,3.58,2.76,5.55,3.63,5.18,2.29,10.88,2.82,16.48,2.08,5.69-.76,11.13-2.67,14.98-7.13,2.6-3.01,4.28-6.74,5.04-10.63.32-1.63.58-3.37.52-5.05-.14-4.04-6.41-4.05-6.26,0h0Z"/>
    <path d="M120.81,236.23c-.21,5.96,2.26,12.37,6.41,16.61,4.27,4.39,10.25,5.92,16.16,6.43,5.26.45,10.64-.42,15.4-2.75,1.62-.79,3.34-1.87,4.58-3.18,2.77-2.95-1.66-7.39-4.43-4.44-.09.1-.19.18-.29.28-.12.11-.24.21-.36.32-.62.52.67-.48-.08.06-.51.37-1.03.7-1.58,1.02-.33.19-.67.36-1.02.54-.18.1-.37.18-.56.28-.81.37.25-.1-.28.12-.95.38-1.93.68-2.92.93-.56.14-1.13.25-1.7.36-.3.06-.61.1-.91.14.58-.08-.65.06-.77.07-3.1.27-6.22.01-9.25-.65-2.61-.56-4.22-1.25-6.44-2.89.57.42-.13-.12-.2-.18-.2-.17-.39-.34-.58-.53-.37-.35-.72-.72-1.06-1.09-.17-.19-.32-.38-.47-.57.48.6-.02-.03-.09-.13-.33-.45-.61-.92-.89-1.39-.24-.39-.44-.8-.65-1.21-.1-.2-.18-.4-.28-.6-.31-.69.26.65-.02-.05-.33-.81-.6-1.66-.82-2.5-.19-.69-.33-1.39-.46-2.09-.03-.16-.05-.31-.08-.47-.09-.61.1.83.04.24-.04-.3-.08-.62-.1-.92-.05-.58-.09-1.17-.06-1.74.14-4.05-6.14-4.04-6.27,0h0Z"/>
    <polygon class="st8" points="161.88 290.73 84.32 290.73 84.5 287 161.58 287 161.88 290.73"/>
    <path d="M126.41,249.68c0,1.32-1.07,2.38-2.38,2.38s-2.38-1.06-2.38-2.38,1.07-2.38,2.38-2.38,2.38,1.07,2.38,2.38Z"/>
    <g>
      <path class="st3" d="M120.74,237.46c-.2.83-.45,1.65-.74,2.45-.08.22-.17.43-.25.64,0,.01,0,.02,0,.03,0,0,0,.02-.02.02-.22.51-.48,1.02-.74,1.52-.24.44-.51.86-.77,1.28-.1.16-.64.89-.68.96-.7.86-1.49,1.65-2.34,2.36-.05.05-.09.08-.12.11-.04.02-.07.04-.12.08-.24.18-.49.34-.73.5-.51.35-1.05.65-1.6.94-.28.14-.57.28-.86.41-.05.03-.1.05-.14.07-.05.02-.14.05-.28.1-.77.3-1.57.54-2.36.75-3.23.85-6.63,1.09-9.95.92-2.15-.12-4.51-.58-7.02-1.5-.14-.05-.27-.1-.41-.16-.11-.04-.29-.12-.37-.15-.08-.04-.16-.09-.25-.12l-.45,1.46c.39.25.79.48,1.2.71.36.19.72.37,1.09.54.06.03.24.09.34.14.13.05.25.11.38.15,2.33.86,4.51,1.28,6.52,1.39,3.09.16,6.25-.06,9.25-.85.74-.2,1.47-.42,2.19-.69.13-.06.21-.09.27-.1.04-.02.08-.03.13-.06.27-.13.54-.25.8-.39.5-.27,1-.55,1.48-.87.23-.15.46-.3.68-.47.05-.04.08-.06.11-.08.02-.02.07-.05.11-.09.78-.67,1.52-1.4,2.17-2.2.04-.07.54-.74.64-.89.25-.39.49-.79.71-1.2.25-.46.49-.92.7-1.41,0,0,0-.01.01-.02,0-.01,0-.02,0-.03.08-.2.16-.39.22-.59.27-.75.51-1.51.69-2.29.17-.7.32-1.41.43-2.11,0-.09.02-.17.02-.26.03-.24.05-.49.06-.74,0-.1.01-.2.02-.3h-.04Z"/>
      <path class="st3" d="M127.17,237.46c.21.83.46,1.65.75,2.45.07.22.16.43.24.64,0,.01,0,.02.01.03,0,0,0,.02,0,.02.23.51.49,1.02.76,1.52.23.44.5.86.77,1.28.1.16.63.89.68.96.7.86,1.49,1.65,2.33,2.36.05.05.09.08.13.11.03.02.06.04.11.08.24.18.48.34.73.5.51.35,1.06.65,1.6.94.28.14.57.28.87.41.05.03.1.05.13.07.06.02.14.05.29.1.77.3,1.56.54,2.36.75,3.23.85,6.63,1.09,9.96.92,2.14-.12,4.51-.58,7.01-1.5.14-.05.28-.1.4-.16.12-.04.29-.12.38-.15.08-.04.16-.09.25-.12l.45,1.46c-.39.25-.79.48-1.2.71-.36.19-.73.37-1.1.54-.06.03-.23.09-.34.14-.13.05-.25.11-.38.15-2.33.86-4.53,1.28-6.52,1.39-3.09.16-6.25-.06-9.25-.85-.74-.2-1.48-.42-2.19-.69-.13-.06-.21-.09-.26-.1-.04-.02-.08-.03-.13-.06-.27-.13-.54-.25-.8-.39-.51-.27-1-.55-1.48-.87-.22-.15-.46-.3-.68-.47-.04-.04-.08-.06-.1-.08-.03-.02-.07-.05-.12-.09-.79-.67-1.52-1.4-2.17-2.2-.04-.07-.54-.74-.63-.89-.25-.39-.5-.79-.71-1.2-.25-.46-.49-.92-.7-1.41-.01,0-.01-.01-.01-.02,0-.01-.01-.02-.01-.03-.08-.2-.16-.39-.23-.59-.27-.75-.5-1.51-.69-2.29-.17-.7-.31-1.41-.42-2.11-.02-.09-.02-.17-.03-.26-.02-.24-.05-.49-.07-.74,0-.1-.02-.2-.02-.3h.04s0,.01,0,.01Z"/>
    </g>
  </g>
  <g>
    <g>
      <g>
        <g>
          <path d="M57.12,139c0-.17,0-.32,0-.48-.2-7.49-3.24-14.69-8.59-19.95-5.44-5.33-13.08-8.32-20.67-8.12-7.57.2-15.04,3.48-20.18,9.07C2.53,125.12-.42,132.76.05,140.4c.46,7.36,3.57,14.44,9.04,19.47,5.46,5.03,12.74,7.86,20.19,7.67,7.39-.2,14.54-3.31,19.71-8.59,5.1-5.18,7.94-12.26,8.13-19.49,0-.16,0-.32,0-.47ZM35.21,147.63c-.77.53-1.58,1-2.41,1.41-.91.32-1.83.57-2.77.76-.98.06-1.96.06-2.94,0-.94-.19-1.87-.45-2.77-.76-.84-.41-1.64-.88-2.41-1.41-.71-.62-1.37-1.28-1.99-1.99-.52-.78-.99-1.57-1.41-2.41-.32-.9-.57-1.83-.76-2.77-.06-.97-.06-1.95,0-2.93.19-.94.44-1.87.76-2.77.42-.83.89-1.64,1.41-2.41.62-.71,1.28-1.37,1.99-1.99.77-.53,1.58-.99,2.41-1.41.91-.31,1.84-.57,2.77-.76.98-.07,1.96-.07,2.94,0,.94.19,1.86.45,2.77.76.84.42,1.65.89,2.41,1.41.7.62,1.37,1.28,1.99,1.99.53.77.99,1.58,1.41,2.41.32.91.58,1.85.77,2.79.03.48.05.97.06,1.45,0,.48-.03.96-.06,1.44-.19.95-.44,1.88-.77,2.79-.41.84-.88,1.64-1.41,2.41-.62.7-1.29,1.37-1.99,1.99Z"/>
          <path class="st0" d="M48.28,139c0,10.89-8.83,19.72-19.72,19.72s-19.71-8.83-19.71-19.72,8.83-19.72,19.71-19.72,19.72,8.82,19.72,19.72Z"/>
        </g>
        <g>
          <path d="M247.76,139c0-.17,0-.32-.01-.48-.18-7.49-3.23-14.69-8.59-19.95-5.42-5.33-13.06-8.32-20.67-8.12-7.56.2-15.03,3.48-20.17,9.07-5.16,5.6-8.1,13.24-7.63,20.89.45,7.36,3.57,14.44,9.03,19.47,5.47,5.03,12.75,7.86,20.19,7.67,7.39-.2,14.54-3.31,19.72-8.59,5.1-5.18,7.94-12.26,8.13-19.49,0-.16,0-.32,0-.47ZM225.85,147.63c-.77.53-1.57,1-2.41,1.41-.9.32-1.83.57-2.78.76-.97.06-1.95.06-2.93,0-.95-.19-1.87-.45-2.78-.76-.83-.41-1.63-.88-2.41-1.41-.71-.62-1.37-1.28-1.99-1.99-.52-.78-.99-1.57-1.41-2.41-.32-.9-.57-1.83-.76-2.77-.06-.97-.06-1.95,0-2.93.19-.94.44-1.87.76-2.77.42-.83.89-1.64,1.41-2.41.62-.71,1.28-1.37,1.99-1.99.77-.53,1.58-.99,2.41-1.41.91-.31,1.83-.57,2.78-.76.97-.07,1.95-.07,2.93,0,.95.19,1.88.45,2.78.76.84.42,1.64.89,2.41,1.41.71.62,1.37,1.28,1.99,1.99.53.77,1,1.58,1.42,2.41.32.91.57,1.85.76,2.79.03.48.05.97.06,1.45,0,.48-.02.96-.06,1.44-.19.95-.44,1.88-.76,2.79-.42.84-.88,1.64-1.42,2.41-.62.7-1.28,1.37-1.99,1.99Z"/>
          <path class="st0" d="M238.91,139c0,10.89-8.83,19.72-19.71,19.72s-19.71-8.83-19.71-19.72,8.83-19.72,19.71-19.72,19.71,8.82,19.71,19.72Z"/>
        </g>
      </g>
      <g>
        <g>
          <path class="st7" d="M222.22,99.95l-22.2-16.21-3.31-16.93s-26.37,10.26-73.03,10.26-72.88-9.25-72.88-9.25l-3.06,15.92-22.2,16.21-1.48,2.61c.04,26.26.15,53.78.15,53.78,0,38.33,21.48,73.86,101.52,73.53,79.22-.32,97.97-35.2,97.97-73.53v-53.76l-1.48-2.63Z"/>
          <path d="M226.65,92.37c-7.39-5.41-14.8-10.81-22.2-16.21,1.34,1.75,2.69,3.5,4.04,5.24-1.11-5.63-2.21-11.28-3.31-16.92-.85-4.36-6.57-7.78-10.8-6.13-2.88,1.11-5.88,1.95-8.86,2.74-8.53,2.29-17.25,3.88-26,5.06.78-.1,1.56-.2,2.34-.3-26.38,3.53-53.47,3.32-79.84-.21.78.11,1.56.21,2.34.32-7.81-1.06-15.58-2.43-23.23-4.32-2.68-.66-5.39-1.35-8-2.27-4.25-1.5-9.94,1.66-10.8,6.13-1.02,5.31-2.04,10.61-3.05,15.92,1.34-1.74,2.69-3.49,4.04-5.24-4.86,3.55-9.72,7.1-14.58,10.65-2.37,1.73-4.74,3.45-7.11,5.19-.17.12-.33.24-.49.36-1.46,1.06-2.27,1.57-3.19,3.19-.2.35-.4.71-.6,1.07-1.06,1.87-2.06,3.67-2.06,5.95,0,2.08,0,4.15,0,6.22.03,13.42.06,26.84.12,40.26.02,5.88-.06,11.75.58,17.6.47,4.22,1.11,8.43,2.14,12.55,1.03,4.1,2.5,7.99,4.16,11.87,3.06,7.23,7.65,13.85,13.09,19.51,13.85,14.4,33.59,21.77,52.89,25.13,13.98,2.42,28.19,3.2,42.36,2.88,13.25-.3,26.62-1.6,39.54-4.68,9.85-2.36,19.63-5.96,28.34-11.2,3.97-2.4,7.75-5.21,11.22-8.3,3.29-2.91,6.07-6.22,8.74-9.7,9.49-12.38,13.25-28.25,13.93-43.59.2-4.23.11-8.48.11-12.71v-45.82c0-2.69-1.43-4.84-2.69-7.06-2.35-4.16-7.93-5.54-12.01-3.15-4.17,2.44-5.5,7.85-3.15,12.01.49.87.99,1.76,1.48,2.63-.4-1.48-.8-2.95-1.19-4.43v36.46c0,10.17.5,20.53-.85,30.64.1-.78.21-1.56.31-2.34-.85,6.25-2.38,12.41-4.84,18.22.3-.7.59-1.4.88-2.1-1.89,4.47-4.33,8.7-7.29,12.54.46-.59.92-1.18,1.37-1.77-3.03,3.91-6.55,7.39-10.45,10.42.59-.46,1.18-.91,1.77-1.38-4.94,3.8-10.4,6.84-16.13,9.28.7-.29,1.4-.59,2.1-.89-9.89,4.18-20.44,6.57-31.06,8,.78-.1,1.56-.21,2.33-.31-18.59,2.46-37.82,2.48-56.42.02.78.1,1.56.21,2.33.31-10.78-1.45-21.49-3.9-31.54-8.13.69.29,1.39.59,2.1.88-5.97-2.53-11.66-5.69-16.81-9.65.59.46,1.19.91,1.78,1.38-4.09-3.16-7.78-6.79-10.95-10.88.46.6.92,1.18,1.37,1.78-3.08-4.01-5.62-8.4-7.59-13.06.29.69.58,1.39.88,2.1-2.4-5.72-3.93-11.75-4.77-17.9.1.78.21,1.56.31,2.33-.77-5.75-.79-11.51-.81-17.3-.05-12.72-.09-25.45-.1-38.18-.02-3.5-.02-7-.02-10.51-.4,1.48-.8,2.96-1.2,4.44.5-.88.99-1.74,1.48-2.62-1.05,1.05-2.1,2.1-3.15,3.15,4.87-3.55,9.72-7.1,14.58-10.65,2.37-1.73,4.73-3.46,7.1-5.19,2.07-1.51,4.08-3.16,4.59-5.86.25-1.27.49-2.54.74-3.81.76-3.96,1.51-7.92,2.27-11.87-3.6,2.05-7.2,4.09-10.8,6.13,3.07,1.08,6.27,1.87,9.43,2.62,9.63,2.3,19.45,3.79,29.27,4.93,27.96,3.25,56.51,2.74,84.28-1.84,6.88-1.13,13.73-2.56,20.45-4.45,2.4-.67,4.82-1.36,7.15-2.27-3.6-2.04-7.2-4.09-10.8-6.13,1.1,5.62,2.2,11.24,3.3,16.85.69,3.54,4.95,5.99,7.78,8.05,3.16,2.31,6.31,4.61,9.47,6.92,3,2.19,6,4.38,8.99,6.57,1.81,1.32,4.69,1.46,6.77.88,2.19-.59,4.1-2.07,5.24-4.03,1.19-2.03,1.51-4.5.89-6.77-.65-2.37-2.11-3.85-4.04-5.24Z"/>
        </g>
        <path class="st0" d="M222.22,99.95l-22.2-16.21-3.31-16.93s-26.37,10.26-73.03,10.26-72.88-9.25-72.88-9.25l-3.06,15.92-22.2,16.21-1.48,2.61c.04,26.26.15,53.78.15,53.78,0,38.33,21.48,73.86,101.52,73.53,79.22-.32,97.97-35.2,97.97-73.53v-53.76l-1.48-2.63Z"/>
      </g>
      <g>
        <path class="st2" d="M238.41,109.99c1.95-1.1,3.29-3.2,3.29-5.61s-1.4-4.62-3.45-5.7c1.83-1.14,3.05-3.16,3.05-5.47,0-2.66-1.62-4.95-3.92-5.92,1.81-1.15,3.01-3.15,3.01-5.44,0-2.98-2.04-5.49-4.79-6.22,1.53-1.18,2.52-3.03,2.52-5.1,0-3.09-2.18-5.67-5.08-6.29,1.18-1.17,1.92-2.79,1.92-4.57,0-3.45-2.71-6.25-6.11-6.43.8-1.07,1.28-2.4,1.28-3.84,0-3.56-2.89-6.44-6.44-6.44-.38,0-.75.04-1.11.1.39-.83.61-1.75.61-2.72,0-3.56-2.89-6.44-6.44-6.44-1.06,0-2.05.26-2.93.7.2-.62.31-1.28.31-1.96,0-3.55-2.89-6.44-6.44-6.44-.94,0-1.82.21-2.63.57-.15-3.42-2.97-6.15-6.42-6.15-1.14,0-2.21.29-3.13.81,0-.11.01-.21.01-.32,0-3.56-2.89-6.44-6.44-6.44-1.47,0-2.81.49-3.89,1.32-.44-3.13-3.12-5.54-6.37-5.54-1.56,0-3,.55-4.11,1.49-.69-2.82-3.23-4.91-6.26-4.91-1.56,0-3,.56-4.11,1.49-.94-2.4-3.26-4.1-6-4.1-2.04,0-3.87.96-5.04,2.45-.79-2.66-3.25-4.61-6.18-4.61-2.16,0-4.07,1.07-5.24,2.7-.93-2.42-3.26-4.13-6.01-4.13-2.58,0-4.8,1.51-5.83,3.71-.38-1.21-1.1-2.26-2.05-3.04,0,0-.02-.01-.02-.02-.16-.12-.31-.24-.47-.35-.01,0-.02-.01-.03-.02-.51-.33-1.06-.6-1.64-.79-.03-.01-.07-.02-.11-.03-.15-.05-.31-.09-.46-.12-.05,0-.11-.02-.16-.03-.15-.02-.31-.05-.46-.06-.05,0-.1-.01-.15-.02-.2-.02-.4-.03-.61-.03h0c-.21,0-.41.02-.61.03-.05,0-.1.01-.15.02-.16.02-.31.04-.46.06-.06.02-.1.03-.16.03-.16.04-.31.08-.46.12-.03,0-.08.02-.11.03-.58.19-1.13.45-1.63.79,0,.01-.02.02-.04.02-.16.11-.31.23-.46.35,0,0-.01.01-.02.02-.95.79-1.67,1.83-2.05,3.04-1.03-2.2-3.25-3.71-5.83-3.71-2.74,0-5.08,1.71-6,4.13-1.17-1.63-3.08-2.7-5.24-2.7-2.92,0-5.38,1.95-6.18,4.61-1.18-1.49-3-2.45-5.05-2.45-2.73,0-5.06,1.7-5.99,4.1-1.12-.93-2.55-1.49-4.12-1.49-3.03,0-5.56,2.09-6.25,4.91-1.11-.94-2.54-1.49-4.11-1.49-3.26,0-5.94,2.41-6.37,5.54-1.08-.83-2.42-1.32-3.89-1.32-3.56,0-6.44,2.88-6.44,6.44,0,.11.01.21.02.32-.93-.52-2-.81-3.14-.81-3.45,0-6.27,2.72-6.42,6.15-.81-.36-1.69-.57-2.63-.57-3.56,0-6.44,2.89-6.44,6.44,0,.69.11,1.35.31,1.96-.88-.44-1.88-.7-2.93-.7-3.56,0-6.44,2.88-6.44,6.44,0,.97.23,1.89.61,2.72-.36-.06-.73-.1-1.11-.1-3.56,0-6.44,2.88-6.44,6.44,0,1.44.48,2.77,1.28,3.84-3.4.17-6.11,2.98-6.11,6.43,0,1.78.72,3.41,1.91,4.57-2.9.62-5.08,3.2-5.08,6.29,0,2.08.99,3.93,2.52,5.1-2.75.73-4.79,3.24-4.79,6.22,0,2.29,1.21,4.29,3.01,5.44-2.3.98-3.91,3.26-3.91,5.92,0,2.31,1.22,4.33,3.04,5.47-2.04,1.08-3.45,3.23-3.45,5.7s1.32,4.51,3.29,5.61c-1.25.79-2.08,2.16-2.08,3.75,0,2.45,1.98,4.43,4.43,4.43.53,0,1.03-.1,1.5-.27.1,1.06.17,1.63.17,1.63l1.59-2.81c.44-.49.79-1.08.98-1.73l9.6-16.97,22.2-16.21,3.05-15.92s26.21,9.26,72.88,9.26,73.04-10.26,73.04-10.26l3.31,16.92,22.2,16.21,9.6,16.97c.19.65.53,1.24.97,1.72l1.59,2.82s.08-.58.18-1.63c.47.17.97.27,1.5.27,2.44,0,4.43-1.98,4.43-4.43,0-1.58-.83-2.96-2.08-3.75Z"/>
        <path class="st6" d="M177.36,24.16c7.93,2.97,13.17,8.56,11.7,12.49-1.47,3.94-9.09,4.73-17.02,1.76-7.93-2.96-13.16-8.55-11.7-12.49,1.47-3.94,9.09-4.72,17.03-1.76Z"/>
        <path class="st6" d="M197.78,41.75c0,2.07-1.69,3.75-3.76,3.75s-3.75-1.68-3.75-3.75,1.68-3.76,3.75-3.76,3.76,1.69,3.76,3.76Z"/>
      </g>
      <path class="st1" d="M222.17,98.13l-22.2-16.21-3.29-17.95s-8.54,3.71-24.63,6.88c0,0-4.24.77-6.34,1.15-11.12,1.84-25.09,3.26-41.68,3.26h-.32c-46.67,0-72.87-9.25-72.87-9.25l-3.07,15.92-22.19,16.21-1.48,2.62c.01,5.7.02,1.22.03,6.74l28.99-22.05,2.03-10.48s21.88,7.04,68.55,7.04h.32c46.67,0,68.55-7.04,68.55-7.04l2.03,10.48,28.99,22.05c.02-5.52.03-1.04.04-6.74l-1.48-2.62Z"/>
      <g>
        <path d="M123.05,170.03c-59.14,0-63.06,51.52-63.06,51.52,0,0,21.02,18.98,62.38,18.98s65.4-17.34,65.4-17.34c0,0-5.57-53.17-64.71-53.17ZM140.39,226.35c-10.62.4-8.95-11.93-17.04-11.93s-6.18,12.33-16.8,11.93c-12.84-.49-20.97-1.77-18.67-23.01,2.26-20.85,30.8-22.04,35.45-22.04h.29c4.65,0,33.18,1.19,35.44,22.04,2.3,21.24-5.83,22.52-18.67,23.01Z"/>
        <g>
          <path d="M107.66,194.64c.1,2.18.95,4.4,2.23,6.15,3.12,4.25,8.16,5.78,13.27,5.9,7.41.16,16.04-3.57,16.94-11.79.18-1.59-1.47-2.93-2.93-2.93-1.72,0-2.75,1.35-2.93,2.93.17-1.56-.06.04-.2.5-.06.18-.12.35-.19.53.37-.95,0-.03-.11.18-.14.27-.29.54-.46.8-.08.12-.15.22-.23.34-.4.58.42-.5-.05.07-.19.23-.4.46-.61.66-.12.12-1,.88-.53.52-.68.51-1.42.93-2.19,1.29-.33.16-1.78.57-2.56.73-1.29.28-2.63.31-3.94.3-1.1,0-2.19-.1-3.27-.33-.45-.1-.89-.23-1.33-.36-.57-.17-.79-.28-1.03-.4-.34-.16-.66-.36-.99-.55-.15-.09-.3-.19-.44-.29-.7-.47.42.36-.21-.17-.3-.25-.58-.53-.84-.81-.58-.62.12.24-.34-.42-.32-.47-.59-.97-.83-1.49.39.86-.14-.44-.22-.74-.08-.31-.15-.62-.2-.94.18,1.2.06.61.05.32-.18-3.76-6.04-3.78-5.85,0h0Z"/>
          <path d="M107.03,194.64c.82,11.9,15.41,14.79,24.67,11.16,4.22-1.65,7.7-4.9,8.78-9.4.54-2.27-.13-4.23-2.51-4.95-2.23-.67-4.03,1.27-4.33,3.29.41.05.82.1,1.23.17.02-.22.06-.45.06-.66,0-.75-.98-.8-1.23-.17-.21.54-.24,1.15-.46,1.69-.29.75.92,1.07,1.21.33.06-.13.11-.28.16-.42.25-.68-.8-1.1-1.14-.49-.35.64-.72,1.28-1.07,1.92-.34.61.48,1.28.98.76.12-.12.23-.26.31-.41.35-.61-.47-1.28-.98-.76-.35.37-1.45,1.18-1.58,1.72-.12.48.45,1.06.92.71.05-.03.09-.06.13-.09.64-.47.02-1.56-.64-1.08-2.22,1.62-4.79,2.18-7.5,2.24-1.66.04-3.27-.1-4.87-.54-1.13-.3-1.99-.88-2.99-1.46-.52-.3-1.24.32-.87.86.15.21.37.38.61.46.61.21,1.03-.63.61-1.05-.4-.41-.83-.85-1.27-1.23-.43-.38-1.29-.03-1.05.61.08.21.18.33.36.46.54.39,1.13-.35.86-.86-.32-.59-.72-1.14-1-1.75-.35-.73-1.43-.09-1.08.63.04.1.08.19.14.29.28.51,1.25.32,1.17-.32-.09-.71-.45-1.42-.58-2.14-.15-.8-1.33-.45-1.21.34,0-.02.09.46.08.55.4-.06.82-.12,1.23-.17-.16-.89-.21-1.7-.85-2.42-.63-.7-1.5-1.15-2.45-1.24-2.14-.2-3.86,1.25-3.83,3.42,0,.81,1.25.81,1.25,0-.01-1.51,1.15-2.39,2.63-2.16,1.54.24,1.81,1.42,2.04,2.72.14.73,1.2.5,1.24-.16.01-.28-.08-.62-.12-.89-.4.12-.81.23-1.21.34.1.56.47,1.33.54,1.81.39-.1.78-.21,1.17-.32-.06-.09-.11-.19-.14-.29-.36.21-.72.43-1.08.63.29.61.68,1.16,1,1.75.29-.29.57-.58.85-.87.08.1.15.2.23.29-.35.2-.7.41-1.05.61.44.39.87.83,1.28,1.24.21-.35.41-.7.61-1.05.08,0,.12.03.14.12-.28.28-.57.57-.85.86.94.55,1.8,1.12,2.85,1.46,1.83.59,3.73.73,5.65.71,2.89-.03,5.77-.69,8.14-2.41-.21-.36-.42-.72-.64-1.08-.04.02-.08.06-.12.09.3.23.61.47.92.7-.09.39.25-.11.4-.24.31-.28.56-.62.85-.92l-.99-.76c-.03.05-.06.1-.11.14.32.26.66.51.99.77.35-.64.71-1.28,1.07-1.92-.39-.16-.77-.31-1.15-.48-.05.14-.1.28-.16.42.41.11.81.22,1.21.33.21-.54.24-1.16.46-1.69-.42-.06-.83-.11-1.24-.17,0,.22-.03.44-.06.66-.07.7,1.13.86,1.24.17.14-1,.54-1.93,1.54-2.34,1.13-.46,2.34.25,2.93,1.21.48.83-.05,2.23-.29,3.07-.29.95-.75,1.83-1.28,2.66-2,3.13-5.61,4.92-9.1,5.8-8.07,2.03-19.67-1.01-20.36-10.83-.05-.8-1.3-.81-1.25,0Z"/>
        </g>
      </g>
      <g>
        <g>
          <path class="st5" d="M236.43,105.42v10.71c-.66.55-1.33,1.1-1.96,1.67-1.36,1.24-2.94,2.38-3.92,3.78-1.08,1.54-1.75,3.29-2.34,5-1.71,5.02-3.16,10.08-4.94,15.08-3.47,9.8-11.18,16.76-23.72,20.22-10.21,2.81-20.54,2.72-30.88.38-10.55-2.39-18.53-7.29-24.07-14.63-3.7-4.9-6.21-10.15-8.35-15.54-1-2.52-2.18-5.01-3.57-7.41-.91-1.59-2.41-2.95-5.02-3.05-1.5-.07-3-.16-4.49-.21-2.67-.07-4.8.58-5.86,2.63-.59,1.15-1.33,2.29-1.73,3.49-2.15,6.59-4.68,13.05-9.38,18.9-3.37,4.2-7.01,8.21-11.98,11.38-6.31,4.03-13.69,5.71-21.74,6.17-10.53.61-20.67-.3-30.19-4.06-5.13-2.03-8.01-5.41-11.59-9.04-5.65-5.72-6.09-13.61-8.83-20.49-1.51-3.8-2.22-7.8-6.04-10.85-2.22-1.77-4.01-3.79-4.5-6.32v-7.82h225.1Z"/>
          <path d="M232.04,105.42v10.71c.43-1.03.86-2.07,1.29-3.1-2.9,2.42-5.92,4.76-7.67,8.2-1.82,3.61-2.85,7.67-4.06,11.51-.58,1.83-1.17,3.67-1.79,5.49-.28.86-.59,1.72-.9,2.59-.11.29-.23.6-.35.9-.18.45-.16.4.07-.16-.08.2-.17.39-.26.58-.52,1.15-1.14,2.26-1.81,3.33-.33.54-.69,1.05-1.06,1.57-.12.17-.79,1.02-.07.11-.26.33-.54.65-.81.97-.83.97-1.75,1.87-2.7,2.72-.25.21-.49.42-.74.63-.15.13-1.03.81-.14.13-.62.47-1.26.92-1.92,1.35-1.16.76-2.38,1.44-3.62,2.07-.65.33-1.31.63-1.98.91.95-.41-.2.08-.33.13-.48.18-.95.36-1.43.53-7.45,2.65-14.27,3.38-22.15,2.89-3.91-.24-6.97-.74-11.02-1.74-1.58-.39-3.12-.87-4.66-1.4-.74-.26-1.46-.54-2.18-.83.91.37-.25-.12-.36-.16-.46-.21-.92-.42-1.37-.65-1.32-.65-2.6-1.38-3.85-2.18-.61-.39-1.21-.8-1.79-1.22-.13-.09-1.08-.82-.25-.18-.38-.29-.74-.6-1.1-.91-1.08-.92-2.1-1.92-3.07-2.96-.48-.52-.94-1.06-1.4-1.61-.1-.12-.83-1.06-.2-.24-.37-.48-.72-.99-1.07-1.48-2.13-3.02-3.87-6.29-5.41-9.65-.18-.4-.36-.8-.53-1.2-.01-.02-.57-1.33-.25-.55-.33-.81-.65-1.63-.99-2.45-.84-2.05-1.74-4.05-2.78-6.01-.79-1.48-1.64-2.94-2.86-4.12-1.69-1.61-3.79-2.37-6.07-2.66-3.79-.46-7.93-.66-11.44,1.03-3.48,1.67-5.06,6.28-6.19,9.65-.54,1.61-1.13,3.2-1.76,4.79-.01.04-.55,1.33-.21.53-.17.4-.35.79-.53,1.17-.4.92-.85,1.82-1.32,2.7-1.76,3.39-3.51,5.77-5.75,8.4-1.08,1.28-2.22,2.51-3.4,3.69-.59.6-1.22,1.18-1.85,1.74-.32.29-.64.57-.98.84-.22.19-.44.37-.67.55.32-.23.27-.19-.15.12-1.37,1.04-2.83,1.96-4.34,2.79-.72.39-1.47.75-2.22,1.09-1.24.57.78-.3-.47.2-.51.21-1.03.4-1.55.58-1.58.55-3.2.99-4.84,1.36-.83.18-1.66.34-2.51.48-.43.07-.85.14-1.28.2.85-.13-.84.09-.99.12-3.8.42-7.65.51-11.47.43-1.83-.04-3.67-.15-5.5-.32-.46-.04-.91-.09-1.36-.14-.01,0-1.49-.19-.64-.07-1.04-.14-2.08-.32-3.13-.51-1.77-.33-3.54-.76-5.28-1.25-.88-.24-1.74-.53-2.6-.81-.43-.14-.87-.3-1.3-.46-.14-.05-1.73-.68-1.02-.38-1.47-.63-2.83-1.47-4.12-2.41.79.58-.2-.17-.3-.25-.29-.24-.58-.49-.85-.74-.66-.58-1.29-1.2-1.92-1.82-1.11-1.11-2.22-2.23-3.28-3.38-.27-.29-.52-.6-.78-.91.6.73-.17-.29-.23-.37-.5-.74-.94-1.52-1.34-2.31-.17-.33-.34-.68-.49-1.02-.53-1.14.32.82-.15-.35-.28-.71-.53-1.42-.77-2.14-.53-1.56-.96-3.15-1.41-4.74-.84-3-1.92-5.88-2.95-8.82-1.21-3.42-2.64-6.64-5.24-9.25-1.14-1.14-2.44-2.04-3.49-3.27.63.73-.1-.19-.19-.31-.2-.3-.36-.63-.51-.96.44.92.01-.14-.04-.32.3,1.13.07.12.07-.27v-6.73c-1.46,1.46-2.92,2.93-4.39,4.39h225.1c2.4,0,4.39-2,4.39-4.39s-1.99-4.39-4.39-4.39H11.33c-2.39,0-4.39,2-4.39,4.39v5.81c0,1.56.01,3.07.57,4.56.76,2.02,1.95,3.73,3.43,5.28,1.12,1.17,2.46,2.07,3.54,3.29.82.94-.47-.69.22.32.21.3.39.62.58.94.18.32.33.65.5.97.1.21.2.43.29.65-.21-.5-.22-.52-.03-.05,1.12,2.84,2.18,5.76,3.05,8.68,1.99,6.7,3.73,13.27,8.79,18.41,2.42,2.46,4.8,4.88,7.6,6.93,3.06,2.23,6.78,3.5,10.38,4.58,7.52,2.25,15.52,2.92,23.33,2.73,7.76-.19,15.34-1.32,22.51-4.39,6.73-2.89,12.22-8.04,16.83-13.62,2.48-3.02,4.67-6.19,6.45-9.68,1.71-3.37,3.08-6.93,4.29-10.52.14-.4.28-.81.4-1.21.02-.05.54-1.3.19-.54.36-.79.83-1.54,1.24-2.31.14-.26.76-.96.04-.13.66-.75-.8.48.03-.06.85-.55-.92.28.07-.06.26-.09,1.64-.3.47-.16,1.78-.2,3.66.05,5.44.14.12,0,1.6.21.49,0,.22.04,1.28.45.26,0,.29.13.55.31.81.48-.96-.64,0,.11.2.35-.75-.88-.16-.16-.02.08.24.39.46.8.68,1.2.44.81.85,1.63,1.25,2.45.2.42.39.83.58,1.24,0-.02.59,1.35.28.62.39.95.77,1.9,1.17,2.85,1.5,3.6,3.15,7.12,5.18,10.46,3.57,5.9,8.22,10.88,14.05,14.58,5.94,3.78,12.84,5.88,19.73,7.04,8.38,1.41,16.81,1.37,25.15-.31,6.46-1.31,12.96-3.72,18.3-7.65,4.73-3.48,8.61-8,11-13.39,1.56-3.53,2.68-7.25,3.84-10.92.58-1.83,1.15-3.67,1.76-5.49.28-.87.58-1.75.88-2.62.14-.4.3-.79.46-1.18-.29.73.4-.74.47-.88.09-.17,1.05-1.51.5-.84.35-.43.77-.81,1.17-1.18.94-.87,1.93-1.7,2.9-2.54,1.53-1.32,2.6-2.44,2.6-4.64v-10.28c0-2.4-1.99-4.39-4.39-4.39s-4.39,2-4.39,4.39Z"/>
        </g>
        <path class="st6" d="M59.18,115.19h15.94l-7.02,22.91h7.1l-4.87,15.63s-4.09,1.52-8.41.94c-4.32-.58-6.1-2.23-6.1-2.23l6.33-21.74h-8.03l5.05-15.51Z"/>
        <path class="st6" d="M177.05,115.19h15.94l-7.02,22.91h7.11l-4.87,15.63s-4.09,1.52-8.41.94c-4.32-.58-6.1-2.23-6.1-2.23l6.33-21.74h-8.02l5.04-15.51Z"/>
      </g>
    </g>
    <path class="st1" d="M208.14,191.53c.71,5.4-3.1,10.34-8.5,11.04-5.4.71-10.34-3.11-11.04-8.5-.69-5.4,18.85-7.93,19.55-2.53Z"/>
    <path class="st1" d="M207.66,195.98s1.68-.36,3.82-.89c2.14-.53,3.47-.94,3.47-.94,0,0,.7-1.28,1.09-1.99.4-.71,1-2.14,1-2.14l-5.39,1.28-4.24.79.26,3.88Z"/>
    <g>
      <path d="M204.56,189.56c.69,5.4-3.11,10.34-8.5,11.04-5.4.7-10.35-3.11-11.04-8.51-.7-5.4,3.11-10.34,8.51-11.04,5.39-.69,10.34,3.11,11.04,8.51Z"/>
      <path d="M240.58,136.21c.16,1.09.29,2.12.43,3.57.15,1.61.26,3.22.32,4.83.12,3.33,0,6.67-.37,9.98-.67,5.88-2.49,12.08-6,16.97-.04.06-.59.79-.17.24-.17.22-.35.43-.52.63-.35.43-.72.83-1.09,1.22-.81.87-1.69,1.66-2.59,2.42-.21.18-.42.35-.63.52-.71.57.49-.36-.24.18-.44.33-.89.65-1.35.95-.98.68-2,1.29-3.05,1.88-.96.54-1.95,1.04-2.94,1.51-.5.23-1,.46-1.51.68-.83.36.58-.24-.26.1-.33.14-.67.28-1.01.4-2.07.81-4.18,1.5-6.31,2.1-2.27.65-4.57,1.17-6.88,1.61-.99.18-1.99.36-2.97.51-.45.07-.91.14-1.37.2-.9.13.47-.06-.08.01-.24.04-.47.06-.71.09-1.81.22-3.65.41-5.49.47-4.04.13-4.05,6.4,0,6.28,4.88-.16,9.8-.95,14.56-1.98,9.01-1.95,18.01-5.38,25.08-11.44,12.75-10.93,13.43-30.23,11.18-45.62-.25-1.69-2.36-2.6-3.86-2.18-1.79.49-2.44,2.17-2.19,3.86h0Z"/>
    </g>
  </g>
</svg>